<?xml version="1.0" encoding="UTF-8" standalone="no"?>
<!DOCTYPE svg PUBLIC "-//W3C//DTD SVG 1.1//EN"
 "http://www.w3.org/Graphics/SVG/1.1/DTD/svg11.dtd">
<!-- Generated by graphviz version 2.43.0 (0)
 -->
<!-- Title: src/libs/vpatterndb/variables/vmeasurement.h Pages: 1 -->
<svg width="5943pt" height="374pt"
 viewBox="0.00 0.00 5943.00 374.00" xmlns="http://www.w3.org/2000/svg" xmlns:xlink="http://www.w3.org/1999/xlink">
<g id="graph0" class="graph" transform="scale(1 1) rotate(0) translate(4 370)">
<title>src/libs/vpatterndb/variables/vmeasurement.h</title>
<polygon fill="white" stroke="transparent" points="-4,4 -4,-370 5939,-370 5939,4 -4,4"/>
<!-- Node1 -->
<g id="node1" class="node">
<title>Node1</title>
<g id="a_node1"><a xlink:title=" ">
<polygon fill="#bfbfbf" stroke="black" points="3782.5,-335.5 3782.5,-365.5 3933.5,-365.5 3933.5,-335.5 3782.5,-335.5"/>
<text text-anchor="start" x="3790.5" y="-353.5" font-family="Helvetica,sans-Serif" font-size="10.00">src/libs/vpatterndb</text>
<text text-anchor="middle" x="3858" y="-342.5" font-family="Helvetica,sans-Serif" font-size="10.00">/variables/vmeasurement.h</text>
</a>
</g>
</g>
<!-- Node2 -->
<g id="node2" class="node">
<title>Node2</title>
<g id="a_node2"><a xlink:href="../../de/db3/vmeasurements_8cpp.html" target="_top" xlink:title=" ">
<polygon fill="white" stroke="black" points="0,-73 0,-92 196,-92 196,-73 0,-73"/>
<text text-anchor="middle" x="98" y="-80" font-family="Helvetica,sans-Serif" font-size="10.00">src/libs/vformat/vmeasurements.cpp</text>
</a>
</g>
</g>
<!-- Node1&#45;&gt;Node2 -->
<g id="edge1" class="edge">
<title>Node1&#45;&gt;Node2</title>
<path fill="none" stroke="midnightblue" d="M3772.14,-346.98C3558.65,-340.56 2986.68,-322.44 2510,-299 1531.15,-250.87 1266.53,-373.8 309,-165 233.8,-148.6 150.07,-109.54 114.95,-92.13"/>
<polygon fill="midnightblue" stroke="midnightblue" points="3772.24,-350.48 3782.34,-347.29 3772.45,-343.49 3772.24,-350.48"/>
</g>
<!-- Node3 -->
<g id="node3" class="node">
<title>Node3</title>
<g id="a_node3"><a xlink:href="../../dd/d62/vmeasurement_8cpp.html" target="_top" xlink:title=" ">
<polygon fill="white" stroke="black" points="5773,-67.5 5773,-97.5 5935,-97.5 5935,-67.5 5773,-67.5"/>
<text text-anchor="start" x="5781" y="-85.5" font-family="Helvetica,sans-Serif" font-size="10.00">src/libs/vpatterndb</text>
<text text-anchor="middle" x="5854" y="-74.5" font-family="Helvetica,sans-Serif" font-size="10.00">/variables/vmeasurement.cpp</text>
</a>
</g>
</g>
<!-- Node1&#45;&gt;Node3 -->
<g id="edge2" class="edge">
<title>Node1&#45;&gt;Node3</title>
<path fill="none" stroke="midnightblue" d="M3943.93,-343.16C4055.13,-334.66 4254.79,-318.37 4425,-299 4840.36,-251.72 4942.99,-229.68 5356,-165 5503.14,-141.96 5674.47,-113.58 5772.97,-97.11"/>
<polygon fill="midnightblue" stroke="midnightblue" points="3943.49,-339.69 3933.78,-343.94 3944.02,-346.67 3943.49,-339.69"/>
</g>
<!-- Node4 -->
<g id="node4" class="node">
<title>Node4</title>
<g id="a_node4"><a xlink:href="../../de/dca/variables_8h.html" target="_top" xlink:title=" ">
<polygon fill="white" stroke="black" points="2518.5,-268.5 2518.5,-298.5 2625.5,-298.5 2625.5,-268.5 2518.5,-268.5"/>
<text text-anchor="start" x="2526.5" y="-286.5" font-family="Helvetica,sans-Serif" font-size="10.00">src/libs/vpatterndb</text>
<text text-anchor="middle" x="2572" y="-275.5" font-family="Helvetica,sans-Serif" font-size="10.00">/variables.h</text>
</a>
</g>
</g>
<!-- Node1&#45;&gt;Node4 -->
<g id="edge3" class="edge">
<title>Node1&#45;&gt;Node4</title>
<path fill="none" stroke="midnightblue" d="M3772.05,-345.16C3526.3,-332.73 2825.55,-297.32 2625.76,-287.22"/>
<polygon fill="midnightblue" stroke="midnightblue" points="3772.19,-348.67 3782.36,-345.68 3772.55,-341.68 3772.19,-348.67"/>
</g>
<!-- Node37 -->
<g id="node32" class="node">
<title>Node37</title>
<g id="a_node32"><a xlink:href="../../d6/d46/vcontainer_8cpp.html" target="_top" xlink:title=" ">
<polygon fill="white" stroke="black" points="5647.5,-67.5 5647.5,-97.5 5754.5,-97.5 5754.5,-67.5 5647.5,-67.5"/>
<text text-anchor="start" x="5655.5" y="-85.5" font-family="Helvetica,sans-Serif" font-size="10.00">src/libs/vpatterndb</text>
<text text-anchor="middle" x="5701" y="-74.5" font-family="Helvetica,sans-Serif" font-size="10.00">/vcontainer.cpp</text>
</a>
</g>
</g>
<!-- Node1&#45;&gt;Node37 -->
<g id="edge62" class="edge">
<title>Node1&#45;&gt;Node37</title>
<path fill="none" stroke="midnightblue" d="M3943.89,-340.02C4201.65,-310.99 4990.71,-217.99 5638,-98 5641.09,-97.43 5644.26,-96.81 5647.45,-96.15"/>
<polygon fill="midnightblue" stroke="midnightblue" points="3943.39,-336.55 3933.85,-341.15 3944.18,-343.51 3943.39,-336.55"/>
</g>
<!-- Node5 -->
<g id="node5" class="node">
<title>Node5</title>
<g id="a_node5"><a xlink:href="../../d3/df7/vcontainer_8h.html" target="_top" xlink:title=" ">
<polygon fill="white" stroke="black" points="1484.5,-201.5 1484.5,-231.5 1591.5,-231.5 1591.5,-201.5 1484.5,-201.5"/>
<text text-anchor="start" x="1492.5" y="-219.5" font-family="Helvetica,sans-Serif" font-size="10.00">src/libs/vpatterndb</text>
<text text-anchor="middle" x="1538" y="-208.5" font-family="Helvetica,sans-Serif" font-size="10.00">/vcontainer.h</text>
</a>
</g>
</g>
<!-- Node4&#45;&gt;Node5 -->
<g id="edge4" class="edge">
<title>Node4&#45;&gt;Node5</title>
<path fill="none" stroke="midnightblue" d="M2508.18,-278.49C2319.5,-266.63 1766.52,-231.87 1591.66,-220.87"/>
<polygon fill="midnightblue" stroke="midnightblue" points="2508.02,-281.99 2518.22,-279.12 2508.46,-275 2508.02,-281.99"/>
</g>
<!-- Node5&#45;&gt;Node2 -->
<g id="edge7" class="edge">
<title>Node5&#45;&gt;Node2</title>
<path fill="none" stroke="midnightblue" d="M1474.05,-216.01C1309.14,-216.54 856.26,-213.12 483,-165 350.19,-147.88 195.06,-109.2 129.65,-92.01"/>
<polygon fill="midnightblue" stroke="midnightblue" points="1474.5,-219.51 1484.49,-215.97 1474.48,-212.51 1474.5,-219.51"/>
</g>
<!-- Node6 -->
<g id="node6" class="node">
<title>Node6</title>
<g id="a_node6"><a xlink:href="../../d4/dd6/vmeasurements_8h.html" target="_top" xlink:title=" ">
<polygon fill="white" stroke="black" points="492.5,-140 492.5,-159 677.5,-159 677.5,-140 492.5,-140"/>
<text text-anchor="middle" x="585" y="-147" font-family="Helvetica,sans-Serif" font-size="10.00">src/libs/vformat/vmeasurements.h</text>
</a>
</g>
</g>
<!-- Node5&#45;&gt;Node6 -->
<g id="edge5" class="edge">
<title>Node5&#45;&gt;Node6</title>
<path fill="none" stroke="midnightblue" d="M1474.08,-212.23C1337.9,-205.1 1009.14,-187.02 734,-165 712.37,-163.27 688.99,-161.12 667.32,-159.02"/>
<polygon fill="midnightblue" stroke="midnightblue" points="1474.15,-215.74 1484.32,-212.77 1474.52,-208.75 1474.15,-215.74"/>
</g>
<!-- Node7 -->
<g id="node7" class="node">
<title>Node7</title>
<g id="a_node7"><a xlink:href="../../d6/de0/vlayoutpiece_8h.html" target="_top" xlink:title=" ">
<polygon fill="white" stroke="black" points="743,-140 743,-159 909,-159 909,-140 743,-140"/>
<text text-anchor="middle" x="826" y="-147" font-family="Helvetica,sans-Serif" font-size="10.00">src/libs/vlayout/vlayoutpiece.h</text>
</a>
</g>
</g>
<!-- Node5&#45;&gt;Node7 -->
<g id="edge8" class="edge">
<title>Node5&#45;&gt;Node7</title>
<path fill="none" stroke="midnightblue" d="M1474.32,-211.67C1362.51,-204.64 1123.72,-188.22 923,-165 908.54,-163.33 892.92,-161.15 878.52,-159"/>
<polygon fill="midnightblue" stroke="midnightblue" points="1474.21,-215.17 1484.41,-212.3 1474.65,-208.18 1474.21,-215.17"/>
</g>
<!-- Node17 -->
<g id="node16" class="node">
<title>Node17</title>
<g id="a_node16"><a xlink:href="../../d8/d70/vtextmanager_8cpp.html" target="_top" xlink:title=" ">
<polygon fill="white" stroke="black" points="1822,-73 1822,-92 2004,-92 2004,-73 1822,-73"/>
<text text-anchor="middle" x="1913" y="-80" font-family="Helvetica,sans-Serif" font-size="10.00">src/libs/vlayout/vtextmanager.cpp</text>
</a>
</g>
</g>
<!-- Node5&#45;&gt;Node17 -->
<g id="edge19" class="edge">
<title>Node5&#45;&gt;Node17</title>
<path fill="none" stroke="midnightblue" d="M1601.48,-204.08C1643.7,-195.55 1700.02,-182.37 1748,-165 1805.98,-144.01 1870.32,-108.35 1898.47,-92.06"/>
<polygon fill="midnightblue" stroke="midnightblue" points="1600.73,-200.66 1591.6,-206.04 1602.1,-207.52 1600.73,-200.66"/>
</g>
<!-- Node18 -->
<g id="node17" class="node">
<title>Node18</title>
<g id="a_node17"><a xlink:href="../../d5/d74/vabstractapplication_8h.html" target="_top" xlink:title=" ">
<polygon fill="white" stroke="red" points="3588.5,-140 3588.5,-159 3783.5,-159 3783.5,-140 3588.5,-140"/>
<text text-anchor="middle" x="3686" y="-147" font-family="Helvetica,sans-Serif" font-size="10.00">src/libs/vmisc/vabstractapplication.h</text>
</a>
</g>
</g>
<!-- Node5&#45;&gt;Node18 -->
<g id="edge20" class="edge">
<title>Node5&#45;&gt;Node18</title>
<path fill="none" stroke="midnightblue" d="M1601.63,-213.57C1906.5,-204.35 3218.29,-164.65 3588.42,-153.45"/>
<polygon fill="midnightblue" stroke="midnightblue" points="1601.52,-210.08 1591.63,-213.88 1601.73,-217.07 1601.52,-210.08"/>
</g>
<!-- Node36 -->
<g id="node31" class="node">
<title>Node36</title>
<g id="a_node31"><a xlink:href="../../db/d11/vformula_8cpp.html" target="_top" xlink:title=" ">
<polygon fill="white" stroke="black" points="1571.5,-67.5 1571.5,-97.5 1678.5,-97.5 1678.5,-67.5 1571.5,-67.5"/>
<text text-anchor="start" x="1579.5" y="-85.5" font-family="Helvetica,sans-Serif" font-size="10.00">src/libs/vpatterndb</text>
<text text-anchor="middle" x="1625" y="-74.5" font-family="Helvetica,sans-Serif" font-size="10.00">/vformula.cpp</text>
</a>
</g>
</g>
<!-- Node5&#45;&gt;Node36 -->
<g id="edge54" class="edge">
<title>Node5&#45;&gt;Node36</title>
<path fill="none" stroke="midnightblue" d="M1474.33,-216.13C1308.97,-216.71 883.56,-210.87 956,-134 1002.26,-84.91 1495.23,-107.6 1562,-98 1565.11,-97.55 1568.29,-97.03 1571.5,-96.45"/>
<polygon fill="midnightblue" stroke="midnightblue" points="1474.39,-219.63 1484.37,-216.09 1474.35,-212.63 1474.39,-219.63"/>
</g>
<!-- Node5&#45;&gt;Node37 -->
<g id="edge55" class="edge">
<title>Node5&#45;&gt;Node37</title>
<path fill="none" stroke="midnightblue" d="M1602,-214.57C1869.62,-210.57 2925.46,-193.73 3793,-165 4107.35,-154.59 4185.7,-145.86 4500,-134 5005.67,-114.92 5136.17,-163.06 5638,-98 5641.01,-97.61 5644.08,-97.14 5647.17,-96.61"/>
<polygon fill="midnightblue" stroke="midnightblue" points="1601.64,-211.07 1591.7,-214.72 1601.75,-218.07 1601.64,-211.07"/>
</g>
<!-- Node38 -->
<g id="node33" class="node">
<title>Node38</title>
<g id="a_node33"><a xlink:href="../../df/d7a/vpiece_8cpp.html" target="_top" xlink:title=" ">
<polygon fill="white" stroke="black" points="1696.5,-67.5 1696.5,-97.5 1803.5,-97.5 1803.5,-67.5 1696.5,-67.5"/>
<text text-anchor="start" x="1704.5" y="-85.5" font-family="Helvetica,sans-Serif" font-size="10.00">src/libs/vpatterndb</text>
<text text-anchor="middle" x="1750" y="-74.5" font-family="Helvetica,sans-Serif" font-size="10.00">/vpiece.cpp</text>
</a>
</g>
</g>
<!-- Node5&#45;&gt;Node38 -->
<g id="edge58" class="edge">
<title>Node5&#45;&gt;Node38</title>
<path fill="none" stroke="midnightblue" d="M1601.95,-213.73C1642.47,-209.27 1693.23,-196.99 1726,-165 1744.36,-147.07 1748.85,-115.86 1749.84,-97.71"/>
<polygon fill="midnightblue" stroke="midnightblue" points="1601.51,-210.26 1591.89,-214.71 1602.18,-217.23 1601.51,-210.26"/>
</g>
<!-- Node40 -->
<g id="node35" class="node">
<title>Node40</title>
<g id="a_node35"><a xlink:href="../../d8/dba/vpiecenode_8cpp.html" target="_top" xlink:title=" ">
<polygon fill="white" stroke="black" points="2422.5,-0.5 2422.5,-30.5 2529.5,-30.5 2529.5,-0.5 2422.5,-0.5"/>
<text text-anchor="start" x="2430.5" y="-18.5" font-family="Helvetica,sans-Serif" font-size="10.00">src/libs/vpatterndb</text>
<text text-anchor="middle" x="2476" y="-7.5" font-family="Helvetica,sans-Serif" font-size="10.00">/vpiecenode.cpp</text>
</a>
</g>
</g>
<!-- Node5&#45;&gt;Node40 -->
<g id="edge57" class="edge">
<title>Node5&#45;&gt;Node40</title>
<path fill="none" stroke="midnightblue" d="M1601.59,-204.82C1657.48,-192.78 1725.29,-170.05 1693,-134 1644.37,-79.71 1415.63,-152.29 1367,-98 1357.81,-87.74 1357.48,-76.96 1367,-67 1403.82,-28.46 2205.36,-18.82 2422.28,-16.91"/>
<polygon fill="midnightblue" stroke="midnightblue" points="1600.75,-201.42 1591.67,-206.87 1602.17,-208.27 1600.75,-201.42"/>
</g>
<!-- Node56 -->
<g id="node45" class="node">
<title>Node56</title>
<g id="a_node45"><a xlink:href="../../d1/de1/vincrement__p_8h.html" target="_top" xlink:title=" ">
<polygon fill="white" stroke="red" points="965.5,-134.5 965.5,-164.5 1108.5,-164.5 1108.5,-134.5 965.5,-134.5"/>
<text text-anchor="start" x="973.5" y="-152.5" font-family="Helvetica,sans-Serif" font-size="10.00">src/libs/vpatterndb</text>
<text text-anchor="middle" x="1037" y="-141.5" font-family="Helvetica,sans-Serif" font-size="10.00">/variables/vincrement_p.h</text>
</a>
</g>
</g>
<!-- Node5&#45;&gt;Node56 -->
<g id="edge51" class="edge">
<title>Node5&#45;&gt;Node56</title>
<path fill="none" stroke="midnightblue" d="M1474.38,-209.07C1391.8,-200.45 1243.31,-184 1117,-165 1114.35,-164.6 1111.65,-164.18 1108.92,-163.75"/>
<polygon fill="midnightblue" stroke="midnightblue" points="1474.05,-212.55 1484.36,-210.11 1474.78,-205.59 1474.05,-212.55"/>
</g>
<!-- Node58 -->
<g id="node46" class="node">
<title>Node58</title>
<g id="a_node46"><a xlink:href="../../d6/dc1/vmeasurement__p_8h.html" target="_top" xlink:title=" ">
<polygon fill="white" stroke="black" points="4509,-134.5 4509,-164.5 4671,-164.5 4671,-134.5 4509,-134.5"/>
<text text-anchor="start" x="4517" y="-152.5" font-family="Helvetica,sans-Serif" font-size="10.00">src/libs/vpatterndb</text>
<text text-anchor="middle" x="4590" y="-141.5" font-family="Helvetica,sans-Serif" font-size="10.00">/variables/vmeasurement_p.h</text>
</a>
</g>
</g>
<!-- Node5&#45;&gt;Node58 -->
<g id="edge52" class="edge">
<title>Node5&#45;&gt;Node58</title>
<path fill="none" stroke="midnightblue" d="M1601.77,-214.96C1901.98,-212.29 3204.6,-199.19 4272,-165 4352.65,-162.42 4444.74,-158.06 4508.99,-154.8"/>
<polygon fill="midnightblue" stroke="midnightblue" points="1601.48,-211.46 1591.51,-215.05 1601.54,-218.46 1601.48,-211.46"/>
</g>
<!-- Node59 -->
<g id="node47" class="node">
<title>Node59</title>
<g id="a_node47"><a xlink:href="../../d6/d91/vnodedetail_8cpp.html" target="_top" xlink:title=" ">
<polygon fill="white" stroke="black" points="1126.5,-134.5 1126.5,-164.5 1233.5,-164.5 1233.5,-134.5 1126.5,-134.5"/>
<text text-anchor="start" x="1134.5" y="-152.5" font-family="Helvetica,sans-Serif" font-size="10.00">src/libs/vpatterndb</text>
<text text-anchor="middle" x="1180" y="-141.5" font-family="Helvetica,sans-Serif" font-size="10.00">/vnodedetail.cpp</text>
</a>
</g>
</g>
<!-- Node5&#45;&gt;Node59 -->
<g id="edge56" class="edge">
<title>Node5&#45;&gt;Node59</title>
<path fill="none" stroke="midnightblue" d="M1474.25,-205.77C1414.16,-196.33 1321.7,-181.1 1242,-165 1239.29,-164.45 1236.52,-163.87 1233.72,-163.28"/>
<polygon fill="midnightblue" stroke="midnightblue" points="1473.92,-209.26 1484.35,-207.35 1475.01,-202.35 1473.92,-209.26"/>
</g>
<!-- Node60 -->
<g id="node48" class="node">
<title>Node60</title>
<g id="a_node48"><a xlink:href="../../da/de1/vpiecepath_8cpp.html" target="_top" xlink:title=" ">
<polygon fill="white" stroke="black" points="1251.5,-134.5 1251.5,-164.5 1358.5,-164.5 1358.5,-134.5 1251.5,-134.5"/>
<text text-anchor="start" x="1259.5" y="-152.5" font-family="Helvetica,sans-Serif" font-size="10.00">src/libs/vpatterndb</text>
<text text-anchor="middle" x="1305" y="-141.5" font-family="Helvetica,sans-Serif" font-size="10.00">/vpiecepath.cpp</text>
</a>
</g>
</g>
<!-- Node5&#45;&gt;Node60 -->
<g id="edge59" class="edge">
<title>Node5&#45;&gt;Node60</title>
<path fill="none" stroke="midnightblue" d="M1477.83,-198.71C1439.92,-188.14 1391.51,-174.63 1355.58,-164.61"/>
<polygon fill="midnightblue" stroke="midnightblue" points="1477.16,-202.16 1487.73,-201.48 1479.04,-195.42 1477.16,-202.16"/>
</g>
<!-- Node61 -->
<g id="node49" class="node">
<title>Node61</title>
<g id="a_node49"><a xlink:href="../../d1/d3a/abstracttest_8cpp.html" target="_top" xlink:title=" ">
<polygon fill="white" stroke="black" points="1376.5,-140 1376.5,-159 1537.5,-159 1537.5,-140 1376.5,-140"/>
<text text-anchor="middle" x="1457" y="-147" font-family="Helvetica,sans-Serif" font-size="10.00">src/libs/vtest/abstracttest.cpp</text>
</a>
</g>
</g>
<!-- Node5&#45;&gt;Node61 -->
<g id="edge60" class="edge">
<title>Node5&#45;&gt;Node61</title>
<path fill="none" stroke="midnightblue" d="M1512.46,-195.01C1497.43,-182.94 1479.19,-168.3 1467.83,-159.19"/>
<polygon fill="midnightblue" stroke="midnightblue" points="1510.43,-197.87 1520.42,-201.4 1514.82,-192.41 1510.43,-197.87"/>
</g>
<!-- Node62 -->
<g id="node50" class="node">
<title>Node62</title>
<g id="a_node50"><a xlink:href="../../da/db4/piece__tablewidgetitem_8cpp.html" target="_top" xlink:title=" ">
<polygon fill="white" stroke="black" points="1556,-134.5 1556,-164.5 1684,-164.5 1684,-134.5 1556,-134.5"/>
<text text-anchor="start" x="1564" y="-152.5" font-family="Helvetica,sans-Serif" font-size="10.00">src/libs/vwidgets/piece</text>
<text text-anchor="middle" x="1620" y="-141.5" font-family="Helvetica,sans-Serif" font-size="10.00">_tablewidgetitem.cpp</text>
</a>
</g>
</g>
<!-- Node5&#45;&gt;Node62 -->
<g id="edge61" class="edge">
<title>Node5&#45;&gt;Node62</title>
<path fill="none" stroke="midnightblue" d="M1563.65,-195.17C1576.19,-185.23 1590.97,-173.51 1602.24,-164.58"/>
<polygon fill="midnightblue" stroke="midnightblue" points="1561.46,-192.44 1555.79,-201.4 1565.8,-197.93 1561.46,-192.44"/>
</g>
<!-- Node6&#45;&gt;Node2 -->
<g id="edge6" class="edge">
<title>Node6&#45;&gt;Node2</title>
<path fill="none" stroke="midnightblue" d="M510.96,-138.62C415.77,-125.91 252.05,-104.06 162,-92.04"/>
<polygon fill="midnightblue" stroke="midnightblue" points="510.71,-142.12 521.08,-139.97 511.63,-135.18 510.71,-142.12"/>
</g>
<!-- Node8 -->
<g id="node8" class="node">
<title>Node8</title>
<g id="a_node8"><a xlink:href="../../dd/d66/vdxfengine_8cpp.html" target="_top" xlink:title=" ">
<polygon fill="white" stroke="black" points="1167,-73 1167,-92 1321,-92 1321,-73 1167,-73"/>
<text text-anchor="middle" x="1244" y="-80" font-family="Helvetica,sans-Serif" font-size="10.00">src/libs/vdxf/vdxfengine.cpp</text>
</a>
</g>
</g>
<!-- Node7&#45;&gt;Node8 -->
<g id="edge9" class="edge">
<title>Node7&#45;&gt;Node8</title>
<path fill="none" stroke="midnightblue" d="M892.66,-138.49C974.41,-126.19 1108.26,-105.97 1158,-98 1169.66,-96.13 1182.2,-94.05 1194,-92.07"/>
<polygon fill="midnightblue" stroke="midnightblue" points="892.08,-135.04 882.71,-139.99 893.12,-141.96 892.08,-135.04"/>
</g>
<!-- Node9 -->
<g id="node9" class="node">
<title>Node9</title>
<g id="a_node9"><a xlink:href="../../de/da8/vbank_8cpp.html" target="_top" xlink:title=" ">
<polygon fill="white" stroke="black" points="252,-73 252,-92 396,-92 396,-73 252,-73"/>
<text text-anchor="middle" x="324" y="-80" font-family="Helvetica,sans-Serif" font-size="10.00">src/libs/vlayout/vbank.cpp</text>
</a>
</g>
</g>
<!-- Node7&#45;&gt;Node9 -->
<g id="edge10" class="edge">
<title>Node7&#45;&gt;Node9</title>
<path fill="none" stroke="midnightblue" d="M732.94,-138.9C647.49,-129.71 517.46,-114.8 405,-98 393.27,-96.25 380.64,-94.11 368.91,-92.02"/>
<polygon fill="midnightblue" stroke="midnightblue" points="732.82,-142.4 743.13,-139.99 733.56,-135.44 732.82,-142.4"/>
</g>
<!-- Node10 -->
<g id="node10" class="node">
<title>Node10</title>
<g id="a_node10"><a xlink:href="../../df/d5d/vcontour_8cpp.html" target="_top" xlink:title=" ">
<polygon fill="white" stroke="black" points="414,-73 414,-92 570,-92 570,-73 414,-73"/>
<text text-anchor="middle" x="492" y="-80" font-family="Helvetica,sans-Serif" font-size="10.00">src/libs/vlayout/vcontour.cpp</text>
</a>
</g>
</g>
<!-- Node7&#45;&gt;Node10 -->
<g id="edge11" class="edge">
<title>Node7&#45;&gt;Node10</title>
<path fill="none" stroke="midnightblue" d="M771.83,-137.96C706.09,-125.16 596.53,-103.84 535.84,-92.03"/>
<polygon fill="midnightblue" stroke="midnightblue" points="771.51,-141.46 781.99,-139.94 772.84,-134.59 771.51,-141.46"/>
</g>
<!-- Node11 -->
<g id="node11" class="node">
<title>Node11</title>
<g id="a_node11"><a xlink:href="../../d3/d39/vlayoutgenerator_8cpp.html" target="_top" xlink:title=" ">
<polygon fill="white" stroke="black" points="588.5,-73 588.5,-92 785.5,-92 785.5,-73 588.5,-73"/>
<text text-anchor="middle" x="687" y="-80" font-family="Helvetica,sans-Serif" font-size="10.00">src/libs/vlayout/vlayoutgenerator.cpp</text>
</a>
</g>
</g>
<!-- Node7&#45;&gt;Node11 -->
<g id="edge12" class="edge">
<title>Node7&#45;&gt;Node11</title>
<path fill="none" stroke="midnightblue" d="M798.44,-135.61C770.91,-122.74 729.35,-103.31 705.53,-92.17"/>
<polygon fill="midnightblue" stroke="midnightblue" points="797,-138.8 807.54,-139.87 799.97,-132.46 797,-138.8"/>
</g>
<!-- Node12 -->
<g id="node12" class="node">
<title>Node12</title>
<g id="a_node12"><a xlink:href="../../d1/dd1/vlayoutpaper_8cpp.html" target="_top" xlink:title=" ">
<polygon fill="white" stroke="black" points="804,-6 804,-25 982,-25 982,-6 804,-6"/>
<text text-anchor="middle" x="893" y="-13" font-family="Helvetica,sans-Serif" font-size="10.00">src/libs/vlayout/vlayoutpaper.cpp</text>
</a>
</g>
</g>
<!-- Node7&#45;&gt;Node12 -->
<g id="edge13" class="edge">
<title>Node7&#45;&gt;Node12</title>
<path fill="none" stroke="midnightblue" d="M736.46,-138.93C719.7,-137.22 702.32,-135.51 686,-134 636.83,-129.46 276.48,-134.31 243,-98 233.66,-87.87 233.64,-77.11 243,-67 280.31,-26.68 634.8,-18.47 803.98,-16.86"/>
<polygon fill="midnightblue" stroke="midnightblue" points="736.5,-142.45 746.81,-139.99 737.22,-135.49 736.5,-142.45"/>
</g>
<!-- Node13 -->
<g id="node13" class="node">
<title>Node13</title>
<g id="a_node13"><a xlink:href="../../d2/d2d/vlayoutpaper__p_8h.html" target="_top" xlink:title=" ">
<polygon fill="white" stroke="black" points="803.5,-73 803.5,-92 982.5,-92 982.5,-73 803.5,-73"/>
<text text-anchor="middle" x="893" y="-80" font-family="Helvetica,sans-Serif" font-size="10.00">src/libs/vlayout/vlayoutpaper_p.h</text>
</a>
</g>
</g>
<!-- Node7&#45;&gt;Node13 -->
<g id="edge14" class="edge">
<title>Node7&#45;&gt;Node13</title>
<path fill="none" stroke="midnightblue" d="M842.5,-132.5C855.64,-119.75 873.52,-102.39 884.11,-92.13"/>
<polygon fill="midnightblue" stroke="midnightblue" points="839.78,-130.26 835.04,-139.73 844.65,-135.28 839.78,-130.26"/>
</g>
<!-- Node14 -->
<g id="node14" class="node">
<title>Node14</title>
<g id="a_node14"><a xlink:href="../../dd/d70/vlayoutpiece_8cpp.html" target="_top" xlink:title=" ">
<polygon fill="white" stroke="black" points="1376.5,-73 1376.5,-92 1553.5,-92 1553.5,-73 1376.5,-73"/>
<text text-anchor="middle" x="1465" y="-80" font-family="Helvetica,sans-Serif" font-size="10.00">src/libs/vlayout/vlayoutpiece.cpp</text>
</a>
</g>
</g>
<!-- Node7&#45;&gt;Node14 -->
<g id="edge16" class="edge">
<title>Node7&#45;&gt;Node14</title>
<path fill="none" stroke="midnightblue" d="M889.22,-138.49C900.46,-136.87 912.06,-135.3 923,-134 1103.33,-112.57 1149.27,-115.7 1330,-98 1348.77,-96.16 1368.99,-94.06 1387.92,-92.03"/>
<polygon fill="midnightblue" stroke="midnightblue" points="888.42,-135.07 879.04,-139.98 889.44,-141.99 888.42,-135.07"/>
</g>
<!-- Node15 -->
<g id="node15" class="node">
<title>Node15</title>
<g id="a_node15"><a xlink:href="../../db/d5c/vposition_8h.html" target="_top" xlink:title=" ">
<polygon fill="white" stroke="red" points="1001,-73 1001,-92 1149,-92 1149,-73 1001,-73"/>
<text text-anchor="middle" x="1075" y="-80" font-family="Helvetica,sans-Serif" font-size="10.00">src/libs/vlayout/vposition.h</text>
</a>
</g>
</g>
<!-- Node7&#45;&gt;Node15 -->
<g id="edge17" class="edge">
<title>Node7&#45;&gt;Node15</title>
<path fill="none" stroke="midnightblue" d="M868.51,-137.4C917.65,-124.58 997.48,-103.74 1042.12,-92.08"/>
<polygon fill="midnightblue" stroke="midnightblue" points="867.6,-134.02 858.81,-139.94 869.37,-140.8 867.6,-134.02"/>
</g>
<!-- Node13&#45;&gt;Node12 -->
<g id="edge15" class="edge">
<title>Node13&#45;&gt;Node12</title>
<path fill="none" stroke="midnightblue" d="M893,-62.54C893,-50.17 893,-34.62 893,-25.13"/>
<polygon fill="midnightblue" stroke="midnightblue" points="889.5,-62.73 893,-72.73 896.5,-62.73 889.5,-62.73"/>
</g>
<!-- Node15&#45;&gt;Node12 -->
<g id="edge18" class="edge">
<title>Node15&#45;&gt;Node12</title>
<path fill="none" stroke="midnightblue" d="M1041.22,-69.44C1005.12,-56.54 948.79,-36.42 916.98,-25.06"/>
<polygon fill="midnightblue" stroke="midnightblue" points="1040.24,-72.8 1050.83,-72.87 1042.59,-66.21 1040.24,-72.8"/>
</g>
<!-- Node18&#45;&gt;Node14 -->
<g id="edge31" class="edge">
<title>Node18&#45;&gt;Node14</title>
<path fill="none" stroke="midnightblue" d="M3578.45,-147.72C3204.18,-144.71 1959.85,-132.33 1562,-98 1546.39,-96.65 1529.48,-94.4 1514.21,-92.07"/>
<polygon fill="midnightblue" stroke="midnightblue" points="3578.44,-151.22 3588.47,-147.8 3578.5,-144.22 3578.44,-151.22"/>
</g>
<!-- Node18&#45;&gt;Node17 -->
<g id="edge32" class="edge">
<title>Node18&#45;&gt;Node17</title>
<path fill="none" stroke="midnightblue" d="M3578.13,-146.83C3258.45,-141.62 2319.45,-124.45 2014,-98 1997.85,-96.6 1980.34,-94.35 1964.51,-92.03"/>
<polygon fill="midnightblue" stroke="midnightblue" points="3578.26,-150.33 3588.32,-146.99 3578.38,-143.33 3578.26,-150.33"/>
</g>
<!-- Node19 -->
<g id="node18" class="node">
<title>Node19</title>
<g id="a_node18"><a xlink:href="../../d4/d90/fvupdater_8cpp.html" target="_top" xlink:title=" ">
<polygon fill="white" stroke="black" points="2976.5,-73 2976.5,-92 3129.5,-92 3129.5,-73 2976.5,-73"/>
<text text-anchor="middle" x="3053" y="-80" font-family="Helvetica,sans-Serif" font-size="10.00">src/libs/fervor/fvupdater.cpp</text>
</a>
</g>
</g>
<!-- Node18&#45;&gt;Node19 -->
<g id="edge21" class="edge">
<title>Node18&#45;&gt;Node19</title>
<path fill="none" stroke="midnightblue" d="M3578.27,-140.95C3467.77,-132.65 3291,-117.8 3139,-98 3126.24,-96.34 3112.47,-94.18 3099.77,-92.04"/>
<polygon fill="midnightblue" stroke="midnightblue" points="3578.2,-144.46 3588.43,-141.71 3578.72,-137.47 3578.2,-144.46"/>
</g>
<!-- Node20 -->
<g id="node19" class="node">
<title>Node20</title>
<g id="a_node19"><a xlink:href="../../d9/dc8/dxiface_8cpp.html" target="_top" xlink:title=" ">
<polygon fill="white" stroke="black" points="3147.5,-73 3147.5,-92 3282.5,-92 3282.5,-73 3147.5,-73"/>
<text text-anchor="middle" x="3215" y="-80" font-family="Helvetica,sans-Serif" font-size="10.00">src/libs/vdxf/dxiface.cpp</text>
</a>
</g>
</g>
<!-- Node18&#45;&gt;Node20 -->
<g id="edge22" class="edge">
<title>Node18&#45;&gt;Node20</title>
<path fill="none" stroke="midnightblue" d="M3598.77,-138.81C3518.8,-129.57 3397.17,-114.63 3292,-98 3280.85,-96.24 3268.83,-94.09 3257.69,-92"/>
<polygon fill="midnightblue" stroke="midnightblue" points="3598.47,-142.3 3608.8,-139.96 3599.27,-135.34 3598.47,-142.3"/>
</g>
<!-- Node21 -->
<g id="node20" class="node">
<title>Node21</title>
<g id="a_node20"><a xlink:href="../../da/d75/vabstractarc__p_8h.html" target="_top" xlink:title=" ">
<polygon fill="white" stroke="red" points="3300.5,-67.5 3300.5,-97.5 3407.5,-97.5 3407.5,-67.5 3300.5,-67.5"/>
<text text-anchor="start" x="3308.5" y="-85.5" font-family="Helvetica,sans-Serif" font-size="10.00">src/libs/vgeometry</text>
<text text-anchor="middle" x="3354" y="-74.5" font-family="Helvetica,sans-Serif" font-size="10.00">/vabstractarc_p.h</text>
</a>
</g>
</g>
<!-- Node18&#45;&gt;Node21 -->
<g id="edge23" class="edge">
<title>Node18&#45;&gt;Node21</title>
<path fill="none" stroke="midnightblue" d="M3627.1,-138.15C3572.51,-128.4 3489.1,-113.06 3417,-98 3413.92,-97.36 3410.77,-96.68 3407.58,-95.99"/>
<polygon fill="midnightblue" stroke="midnightblue" points="3626.83,-141.66 3637.29,-139.97 3628.06,-134.77 3626.83,-141.66"/>
</g>
<!-- Node23 -->
<g id="node21" class="node">
<title>Node23</title>
<g id="a_node21"><a xlink:href="../../dc/da3/varc__p_8h.html" target="_top" xlink:title=" ">
<polygon fill="white" stroke="red" points="3425.5,-67.5 3425.5,-97.5 3532.5,-97.5 3532.5,-67.5 3425.5,-67.5"/>
<text text-anchor="start" x="3433.5" y="-85.5" font-family="Helvetica,sans-Serif" font-size="10.00">src/libs/vgeometry</text>
<text text-anchor="middle" x="3479" y="-74.5" font-family="Helvetica,sans-Serif" font-size="10.00">/varc_p.h</text>
</a>
</g>
</g>
<!-- Node18&#45;&gt;Node23 -->
<g id="edge24" class="edge">
<title>Node18&#45;&gt;Node23</title>
<path fill="none" stroke="midnightblue" d="M3648.66,-136.77C3613.56,-125.75 3560.98,-109.24 3523.67,-97.53"/>
<polygon fill="midnightblue" stroke="midnightblue" points="3647.92,-140.21 3658.51,-139.87 3650.02,-133.53 3647.92,-140.21"/>
</g>
<!-- Node25 -->
<g id="node22" class="node">
<title>Node25</title>
<g id="a_node22"><a xlink:href="../../df/dde/vellipticalarc__p_8h.html" target="_top" xlink:title=" ">
<polygon fill="white" stroke="black" points="4804.5,-67.5 4804.5,-97.5 4911.5,-97.5 4911.5,-67.5 4804.5,-67.5"/>
<text text-anchor="start" x="4812.5" y="-85.5" font-family="Helvetica,sans-Serif" font-size="10.00">src/libs/vgeometry</text>
<text text-anchor="middle" x="4858" y="-74.5" font-family="Helvetica,sans-Serif" font-size="10.00">/vellipticalarc_p.h</text>
</a>
</g>
</g>
<!-- Node18&#45;&gt;Node25 -->
<g id="edge25" class="edge">
<title>Node18&#45;&gt;Node25</title>
<path fill="none" stroke="midnightblue" d="M3793.78,-146.13C4033.49,-140.44 4604.68,-124.49 4796,-98 4798.74,-97.62 4801.53,-97.18 4804.35,-96.69"/>
<polygon fill="midnightblue" stroke="midnightblue" points="3793.57,-142.63 3783.66,-146.37 3793.74,-149.63 3793.57,-142.63"/>
</g>
<!-- Node26 -->
<g id="node23" class="node">
<title>Node26</title>
<g id="a_node23"><a xlink:href="../../d6/dfb/vellipticalarc_8cpp.html" target="_top" xlink:title=" ">
<polygon fill="white" stroke="black" points="4218.5,-0.5 4218.5,-30.5 4325.5,-30.5 4325.5,-0.5 4218.5,-0.5"/>
<text text-anchor="start" x="4226.5" y="-18.5" font-family="Helvetica,sans-Serif" font-size="10.00">src/libs/vgeometry</text>
<text text-anchor="middle" x="4272" y="-7.5" font-family="Helvetica,sans-Serif" font-size="10.00">/vellipticalarc.cpp</text>
</a>
</g>
</g>
<!-- Node18&#45;&gt;Node26 -->
<g id="edge28" class="edge">
<title>Node18&#45;&gt;Node26</title>
<path fill="none" stroke="midnightblue" d="M3684.87,-129.91C3684.83,-111.02 3688.07,-82.4 3706,-67 3744.36,-34.06 4084.23,-21.49 4218.13,-17.79"/>
<polygon fill="midnightblue" stroke="midnightblue" points="3681.37,-130.09 3685.19,-139.98 3688.37,-129.87 3681.37,-130.09"/>
</g>
<!-- Node27 -->
<g id="node24" class="node">
<title>Node27</title>
<g id="a_node24"><a xlink:href="../../d5/d8e/vcubicbezier__p_8h.html" target="_top" xlink:title=" ">
<polygon fill="white" stroke="red" points="3714.5,-67.5 3714.5,-97.5 3821.5,-97.5 3821.5,-67.5 3714.5,-67.5"/>
<text text-anchor="start" x="3722.5" y="-85.5" font-family="Helvetica,sans-Serif" font-size="10.00">src/libs/vgeometry</text>
<text text-anchor="middle" x="3768" y="-74.5" font-family="Helvetica,sans-Serif" font-size="10.00">/vcubicbezier_p.h</text>
</a>
</g>
</g>
<!-- Node18&#45;&gt;Node27 -->
<g id="edge27" class="edge">
<title>Node18&#45;&gt;Node27</title>
<path fill="none" stroke="midnightblue" d="M3705.25,-133.24C3718.86,-122.45 3736.96,-108.1 3750.23,-97.59"/>
<polygon fill="midnightblue" stroke="midnightblue" points="3702.72,-130.78 3697.06,-139.73 3707.07,-136.26 3702.72,-130.78"/>
</g>
<!-- Node29 -->
<g id="node25" class="node">
<title>Node29</title>
<g id="a_node25"><a xlink:href="../../d1/d76/vspline__p_8h.html" target="_top" xlink:title=" ">
<polygon fill="white" stroke="red" points="3839.5,-67.5 3839.5,-97.5 3946.5,-97.5 3946.5,-67.5 3839.5,-67.5"/>
<text text-anchor="start" x="3847.5" y="-85.5" font-family="Helvetica,sans-Serif" font-size="10.00">src/libs/vgeometry</text>
<text text-anchor="middle" x="3893" y="-74.5" font-family="Helvetica,sans-Serif" font-size="10.00">/vspline_p.h</text>
</a>
</g>
</g>
<!-- Node18&#45;&gt;Node29 -->
<g id="edge29" class="edge">
<title>Node18&#45;&gt;Node29</title>
<path fill="none" stroke="midnightblue" d="M3723.34,-136.77C3758.44,-125.75 3811.02,-109.24 3848.33,-97.53"/>
<polygon fill="midnightblue" stroke="midnightblue" points="3721.98,-133.53 3713.49,-139.87 3724.08,-140.21 3721.98,-133.53"/>
</g>
<!-- Node31 -->
<g id="node26" class="node">
<title>Node31</title>
<g id="a_node26"><a xlink:href="../../d9/d15/vabstractpiece_8cpp.html" target="_top" xlink:title=" ">
<polygon fill="white" stroke="black" points="3965,-73 3965,-92 4151,-92 4151,-73 3965,-73"/>
<text text-anchor="middle" x="4058" y="-80" font-family="Helvetica,sans-Serif" font-size="10.00">src/libs/vlayout/vabstractpiece.cpp</text>
</a>
</g>
</g>
<!-- Node18&#45;&gt;Node31 -->
<g id="edge30" class="edge">
<title>Node18&#45;&gt;Node31</title>
<path fill="none" stroke="midnightblue" d="M3744.98,-138.19C3818.04,-125.43 3941.16,-103.92 4009.17,-92.03"/>
<polygon fill="midnightblue" stroke="midnightblue" points="3744.26,-134.77 3735.02,-139.94 3745.47,-141.66 3744.26,-134.77"/>
</g>
<!-- Node32 -->
<g id="node27" class="node">
<title>Node32</title>
<g id="a_node27"><a xlink:href="../../db/d65/dialogexporttocsv_8cpp.html" target="_top" xlink:title=" ">
<polygon fill="white" stroke="black" points="4169.5,-67.5 4169.5,-97.5 4296.5,-97.5 4296.5,-67.5 4169.5,-67.5"/>
<text text-anchor="start" x="4177.5" y="-85.5" font-family="Helvetica,sans-Serif" font-size="10.00">src/libs/vmisc/dialogs</text>
<text text-anchor="middle" x="4233" y="-74.5" font-family="Helvetica,sans-Serif" font-size="10.00">/dialogexporttocsv.cpp</text>
</a>
</g>
</g>
<!-- Node18&#45;&gt;Node32 -->
<g id="edge33" class="edge">
<title>Node18&#45;&gt;Node32</title>
<path fill="none" stroke="midnightblue" d="M3793.96,-139.78C3890.26,-131.35 4034.95,-117.04 4160,-98 4163.07,-97.53 4166.2,-97.03 4169.36,-96.49"/>
<polygon fill="midnightblue" stroke="midnightblue" points="3793.58,-136.3 3783.92,-140.66 3794.19,-143.28 3793.58,-136.3"/>
</g>
<!-- Node33 -->
<g id="node28" class="node">
<title>Node33</title>
<g id="a_node28"><a xlink:href="../../d6/d0b/def_8cpp.html" target="_top" xlink:title=" ">
<polygon fill="white" stroke="black" points="4315,-73 4315,-92 4437,-92 4437,-73 4315,-73"/>
<text text-anchor="middle" x="4376" y="-80" font-family="Helvetica,sans-Serif" font-size="10.00">src/libs/vmisc/def.cpp</text>
</a>
</g>
</g>
<!-- Node18&#45;&gt;Node33 -->
<g id="edge34" class="edge">
<title>Node18&#45;&gt;Node33</title>
<path fill="none" stroke="midnightblue" d="M3793.86,-143.74C3917.9,-137.34 4127.43,-123.67 4306,-98 4316.81,-96.45 4328.46,-94.25 4339.09,-92.03"/>
<polygon fill="midnightblue" stroke="midnightblue" points="3793.41,-140.26 3783.6,-144.27 3793.76,-147.25 3793.41,-140.26"/>
</g>
<!-- Node34 -->
<g id="node29" class="node">
<title>Node34</title>
<g id="a_node29"><a xlink:href="../../d0/df6/vabstractapplication_8cpp.html" target="_top" xlink:title=" ">
<polygon fill="white" stroke="black" points="4455,-73 4455,-92 4661,-92 4661,-73 4455,-73"/>
<text text-anchor="middle" x="4558" y="-80" font-family="Helvetica,sans-Serif" font-size="10.00">src/libs/vmisc/vabstractapplication.cpp</text>
</a>
</g>
</g>
<!-- Node18&#45;&gt;Node34 -->
<g id="edge35" class="edge">
<title>Node18&#45;&gt;Node34</title>
<path fill="none" stroke="midnightblue" d="M3794.04,-143.45C3941.56,-136.06 4214.18,-120.69 4446,-98 4462.78,-96.36 4480.93,-94.18 4497.63,-92.02"/>
<polygon fill="midnightblue" stroke="midnightblue" points="3793.45,-139.97 3783.64,-143.96 3793.8,-146.96 3793.45,-139.97"/>
</g>
<!-- Node35 -->
<g id="node30" class="node">
<title>Node35</title>
<g id="a_node30"><a xlink:href="../../d4/d4f/pmsystems_8cpp.html" target="_top" xlink:title=" ">
<polygon fill="white" stroke="black" points="4679.5,-67.5 4679.5,-97.5 4786.5,-97.5 4786.5,-67.5 4679.5,-67.5"/>
<text text-anchor="start" x="4687.5" y="-85.5" font-family="Helvetica,sans-Serif" font-size="10.00">src/libs/vpatterndb</text>
<text text-anchor="middle" x="4733" y="-74.5" font-family="Helvetica,sans-Serif" font-size="10.00">/pmsystems.cpp</text>
</a>
</g>
</g>
<!-- Node18&#45;&gt;Node35 -->
<g id="edge36" class="edge">
<title>Node18&#45;&gt;Node35</title>
<path fill="none" stroke="midnightblue" d="M3793.76,-145.35C4012.85,-138.56 4503.55,-121.24 4670,-98 4673,-97.58 4676.07,-97.09 4679.16,-96.54"/>
<polygon fill="midnightblue" stroke="midnightblue" points="3793.43,-141.86 3783.54,-145.67 3793.64,-148.86 3793.43,-141.86"/>
</g>
<!-- Node18&#45;&gt;Node36 -->
<g id="edge37" class="edge">
<title>Node18&#45;&gt;Node36</title>
<path fill="none" stroke="midnightblue" d="M3578.06,-148.63C3217.76,-148.61 2058.38,-144.82 1688,-98 1684.99,-97.62 1681.92,-97.16 1678.83,-96.64"/>
<polygon fill="midnightblue" stroke="midnightblue" points="3578.23,-152.13 3588.23,-148.63 3578.23,-145.13 3578.23,-152.13"/>
</g>
<!-- Node18&#45;&gt;Node37 -->
<g id="edge38" class="edge">
<title>Node18&#45;&gt;Node37</title>
<path fill="none" stroke="midnightblue" d="M3793.85,-145.69C3906.24,-142.77 4087.47,-138.06 4244,-134 4553.78,-125.98 5330.58,-136.95 5638,-98 5641.01,-97.62 5644.08,-97.16 5647.17,-96.64"/>
<polygon fill="midnightblue" stroke="midnightblue" points="3793.43,-142.2 3783.52,-145.96 3793.61,-149.2 3793.43,-142.2"/>
</g>
<!-- Node18&#45;&gt;Node38 -->
<g id="edge39" class="edge">
<title>Node18&#45;&gt;Node38</title>
<path fill="none" stroke="midnightblue" d="M3578.1,-148.41C3232.88,-147.7 2157.92,-141.9 1813,-98 1809.99,-97.62 1806.92,-97.15 1803.83,-96.63"/>
<polygon fill="midnightblue" stroke="midnightblue" points="3578.34,-151.91 3588.34,-148.43 3578.35,-144.91 3578.34,-151.91"/>
</g>
<!-- Node39 -->
<g id="node34" class="node">
<title>Node39</title>
<g id="a_node34"><a xlink:href="../../df/dba/vpiecenode__p_8h.html" target="_top" xlink:title=" ">
<polygon fill="white" stroke="black" points="3550.5,-67.5 3550.5,-97.5 3657.5,-97.5 3657.5,-67.5 3550.5,-67.5"/>
<text text-anchor="start" x="3558.5" y="-85.5" font-family="Helvetica,sans-Serif" font-size="10.00">src/libs/vpatterndb</text>
<text text-anchor="middle" x="3604" y="-74.5" font-family="Helvetica,sans-Serif" font-size="10.00">/vpiecenode_p.h</text>
</a>
</g>
</g>
<!-- Node18&#45;&gt;Node39 -->
<g id="edge40" class="edge">
<title>Node18&#45;&gt;Node39</title>
<path fill="none" stroke="midnightblue" d="M3666.75,-133.24C3653.14,-122.45 3635.04,-108.1 3621.77,-97.59"/>
<polygon fill="midnightblue" stroke="midnightblue" points="3664.93,-136.26 3674.94,-139.73 3669.28,-130.78 3664.93,-136.26"/>
</g>
<!-- Node41 -->
<g id="node36" class="node">
<title>Node41</title>
<g id="a_node36"><a xlink:href="../../de/d3e/vtranslatevars_8cpp.html" target="_top" xlink:title=" ">
<polygon fill="white" stroke="black" points="4930,-67.5 4930,-97.5 5040,-97.5 5040,-67.5 4930,-67.5"/>
<text text-anchor="start" x="4938" y="-85.5" font-family="Helvetica,sans-Serif" font-size="10.00">src/libs/vpatterndb</text>
<text text-anchor="middle" x="4985" y="-74.5" font-family="Helvetica,sans-Serif" font-size="10.00">/vtranslatevars.cpp</text>
</a>
</g>
</g>
<!-- Node18&#45;&gt;Node41 -->
<g id="edge42" class="edge">
<title>Node18&#45;&gt;Node41</title>
<path fill="none" stroke="midnightblue" d="M3794.05,-145.21C4074.44,-136.51 4811.14,-112.57 4921,-98 4923.94,-97.61 4926.94,-97.15 4929.96,-96.64"/>
<polygon fill="midnightblue" stroke="midnightblue" points="3793.76,-141.72 3783.87,-145.52 3793.97,-148.71 3793.76,-141.72"/>
</g>
<!-- Node42 -->
<g id="node37" class="node">
<title>Node42</title>
<g id="a_node37"><a xlink:href="../../df/d40/export__format__combobox_8cpp.html" target="_top" xlink:title=" ">
<polygon fill="white" stroke="black" points="5058.5,-67.5 5058.5,-97.5 5191.5,-97.5 5191.5,-67.5 5058.5,-67.5"/>
<text text-anchor="start" x="5066.5" y="-85.5" font-family="Helvetica,sans-Serif" font-size="10.00">src/libs/vwidgets/export</text>
<text text-anchor="middle" x="5125" y="-74.5" font-family="Helvetica,sans-Serif" font-size="10.00">_format_combobox.cpp</text>
</a>
</g>
</g>
<!-- Node18&#45;&gt;Node42 -->
<g id="edge43" class="edge">
<title>Node18&#45;&gt;Node42</title>
<path fill="none" stroke="midnightblue" d="M3793.72,-145.45C4093.91,-136.82 4925.95,-111.94 5049,-98 5052.07,-97.65 5055.2,-97.25 5058.36,-96.81"/>
<polygon fill="midnightblue" stroke="midnightblue" points="3793.6,-141.95 3783.7,-145.74 3793.8,-148.95 3793.6,-141.95"/>
</g>
<!-- Node43 -->
<g id="node38" class="node">
<title>Node43</title>
<g id="a_node38"><a xlink:href="../../d7/d1b/pen__toolbar_8cpp.html" target="_top" xlink:title=" ">
<polygon fill="white" stroke="black" points="5209.5,-67.5 5209.5,-97.5 5328.5,-97.5 5328.5,-67.5 5209.5,-67.5"/>
<text text-anchor="start" x="5217.5" y="-85.5" font-family="Helvetica,sans-Serif" font-size="10.00">src/libs/vwidgets/pen</text>
<text text-anchor="middle" x="5269" y="-74.5" font-family="Helvetica,sans-Serif" font-size="10.00">_toolbar.cpp</text>
</a>
</g>
</g>
<!-- Node18&#45;&gt;Node43 -->
<g id="edge44" class="edge">
<title>Node18&#45;&gt;Node43</title>
<path fill="none" stroke="midnightblue" d="M3793.78,-145.43C4128.43,-135.83 5131.44,-106.51 5201,-98 5203.76,-97.66 5206.57,-97.27 5209.4,-96.83"/>
<polygon fill="midnightblue" stroke="midnightblue" points="3793.49,-141.94 3783.6,-145.72 3793.69,-148.93 3793.49,-141.94"/>
</g>
<!-- Node44 -->
<g id="node39" class="node">
<title>Node44</title>
<g id="a_node39"><a xlink:href="../../d8/d76/scene__rect_8cpp.html" target="_top" xlink:title=" ">
<polygon fill="white" stroke="black" points="5347,-67.5 5347,-97.5 5477,-97.5 5477,-67.5 5347,-67.5"/>
<text text-anchor="start" x="5355" y="-85.5" font-family="Helvetica,sans-Serif" font-size="10.00">src/libs/vwidgets/scene</text>
<text text-anchor="middle" x="5412" y="-74.5" font-family="Helvetica,sans-Serif" font-size="10.00">_rect.cpp</text>
</a>
</g>
</g>
<!-- Node18&#45;&gt;Node44 -->
<g id="edge45" class="edge">
<title>Node18&#45;&gt;Node44</title>
<path fill="none" stroke="midnightblue" d="M3793.67,-145.69C4148.28,-136.38 5261.37,-106.62 5338,-98 5340.86,-97.68 5343.78,-97.3 5346.72,-96.89"/>
<polygon fill="midnightblue" stroke="midnightblue" points="3793.56,-142.19 3783.66,-145.95 3793.75,-149.19 3793.56,-142.19"/>
</g>
<!-- Node45 -->
<g id="node40" class="node">
<title>Node45</title>
<g id="a_node40"><a xlink:href="../../d3/d4f/mouse__coordinates_8cpp.html" target="_top" xlink:title=" ">
<polygon fill="white" stroke="black" points="5495,-67.5 5495,-97.5 5629,-97.5 5629,-67.5 5495,-67.5"/>
<text text-anchor="start" x="5503" y="-85.5" font-family="Helvetica,sans-Serif" font-size="10.00">src/libs/vwidgets/mouse</text>
<text text-anchor="middle" x="5562" y="-74.5" font-family="Helvetica,sans-Serif" font-size="10.00">_coordinates.cpp</text>
</a>
</g>
</g>
<!-- Node18&#45;&gt;Node45 -->
<g id="edge46" class="edge">
<title>Node18&#45;&gt;Node45</title>
<path fill="none" stroke="midnightblue" d="M3793.91,-145.71C4175.96,-135.78 5443.78,-102.59 5486,-98 5488.94,-97.68 5491.93,-97.31 5494.95,-96.9"/>
<polygon fill="midnightblue" stroke="midnightblue" points="3793.59,-142.21 3783.68,-145.97 3793.77,-149.21 3793.59,-142.21"/>
</g>
<!-- Node46 -->
<g id="node41" class="node">
<title>Node46</title>
<g id="a_node41"><a xlink:href="../../dd/df6/vabstractmainwindow_8cpp.html" target="_top" xlink:title=" ">
<polygon fill="white" stroke="black" points="2022.5,-73 2022.5,-92 2251.5,-92 2251.5,-73 2022.5,-73"/>
<text text-anchor="middle" x="2137" y="-80" font-family="Helvetica,sans-Serif" font-size="10.00">src/libs/vwidgets/vabstractmainwindow.cpp</text>
</a>
</g>
</g>
<!-- Node18&#45;&gt;Node46 -->
<g id="edge47" class="edge">
<title>Node18&#45;&gt;Node46</title>
<path fill="none" stroke="midnightblue" d="M3578.2,-147.66C3340.18,-145.14 2751.94,-135.34 2261,-98 2241.55,-96.52 2220.45,-94.29 2201.26,-92.02"/>
<polygon fill="midnightblue" stroke="midnightblue" points="3578.2,-151.16 3588.23,-147.76 3578.27,-144.16 3578.2,-151.16"/>
</g>
<!-- Node47 -->
<g id="node42" class="node">
<title>Node47</title>
<g id="a_node42"><a xlink:href="../../de/d45/vcontrolpointspline_8cpp.html" target="_top" xlink:title=" ">
<polygon fill="white" stroke="black" points="2269.5,-73 2269.5,-92 2484.5,-92 2484.5,-73 2269.5,-73"/>
<text text-anchor="middle" x="2377" y="-80" font-family="Helvetica,sans-Serif" font-size="10.00">src/libs/vwidgets/vcontrolpointspline.cpp</text>
</a>
</g>
</g>
<!-- Node18&#45;&gt;Node47 -->
<g id="edge48" class="edge">
<title>Node18&#45;&gt;Node47</title>
<path fill="none" stroke="midnightblue" d="M3578.43,-146.86C3369.23,-143.02 2893.08,-131.13 2494,-98 2475.85,-96.49 2456.17,-94.28 2438.23,-92.04"/>
<polygon fill="midnightblue" stroke="midnightblue" points="3578.43,-150.36 3588.49,-147.04 3578.56,-143.36 3578.43,-150.36"/>
</g>
<!-- Node48 -->
<g id="node43" class="node">
<title>Node48</title>
<g id="a_node43"><a xlink:href="../../de/dec/vgraphicssimpletextitem_8cpp.html" target="_top" xlink:title=" ">
<polygon fill="white" stroke="black" points="2503,-73 2503,-92 2747,-92 2747,-73 2503,-73"/>
<text text-anchor="middle" x="2625" y="-80" font-family="Helvetica,sans-Serif" font-size="10.00">src/libs/vwidgets/vgraphicssimpletextitem.cpp</text>
</a>
</g>
</g>
<!-- Node18&#45;&gt;Node48 -->
<g id="edge49" class="edge">
<title>Node18&#45;&gt;Node48</title>
<path fill="none" stroke="midnightblue" d="M3578.1,-144.57C3404.79,-137.81 3053.74,-122.34 2757,-98 2737.12,-96.37 2715.61,-94.19 2695.83,-92.01"/>
<polygon fill="midnightblue" stroke="midnightblue" points="3578.11,-148.07 3588.24,-144.96 3578.38,-141.07 3578.11,-148.07"/>
</g>
<!-- Node49 -->
<g id="node44" class="node">
<title>Node49</title>
<g id="a_node44"><a xlink:href="../../d1/d90/vgrainlineitem_8cpp.html" target="_top" xlink:title=" ">
<polygon fill="white" stroke="black" points="2765.5,-73 2765.5,-92 2958.5,-92 2958.5,-73 2765.5,-73"/>
<text text-anchor="middle" x="2862" y="-80" font-family="Helvetica,sans-Serif" font-size="10.00">src/libs/vwidgets/vgrainlineitem.cpp</text>
</a>
</g>
</g>
<!-- Node18&#45;&gt;Node49 -->
<g id="edge50" class="edge">
<title>Node18&#45;&gt;Node49</title>
<path fill="none" stroke="midnightblue" d="M3577.92,-143.12C3437.24,-135.6 3183.85,-120.33 2968,-98 2952.11,-96.36 2934.93,-94.18 2919.13,-92.02"/>
<polygon fill="midnightblue" stroke="midnightblue" points="3578.1,-146.63 3588.27,-143.67 3578.47,-139.64 3578.1,-146.63"/>
</g>
<!-- Node25&#45;&gt;Node26 -->
<g id="edge26" class="edge">
<title>Node25&#45;&gt;Node26</title>
<path fill="none" stroke="midnightblue" d="M4794.34,-66.86C4618.01,-38.46 4419.4,-24.71 4325.86,-19.31"/>
<polygon fill="midnightblue" stroke="midnightblue" points="4793.89,-70.33 4804.32,-68.48 4795.01,-63.42 4793.89,-70.33"/>
</g>
<!-- Node39&#45;&gt;Node40 -->
<g id="edge41" class="edge">
<title>Node39&#45;&gt;Node40</title>
<path fill="none" stroke="midnightblue" d="M3540.33,-66.97C3323.8,-38.76 2714.63,-22.24 2529.79,-17.75"/>
<polygon fill="midnightblue" stroke="midnightblue" points="3539.97,-70.45 3550.34,-68.32 3540.9,-63.51 3539.97,-70.45"/>
</g>
<!-- Node58&#45;&gt;Node3 -->
<g id="edge53" class="edge">
<title>Node58&#45;&gt;Node3</title>
<path fill="none" stroke="midnightblue" d="M4681.06,-148.2C4878.74,-146.74 5361.77,-138.91 5764,-98 5766.83,-97.71 5769.71,-97.39 5772.62,-97.05"/>
<polygon fill="midnightblue" stroke="midnightblue" points="4680.98,-144.7 4671.01,-148.27 4681.03,-151.7 4680.98,-144.7"/>
</g>
</g>
</svg>
