<?xml version="1.0" encoding="UTF-8" standalone="no"?>
<!DOCTYPE svg PUBLIC "-//W3C//DTD SVG 1.1//EN"
 "http://www.w3.org/Graphics/SVG/1.1/DTD/svg11.dtd">
<!-- Generated by graphviz version 2.43.0 (0)
 -->
<!-- Title: src/libs/vwidgets/vsimplepoint.h Pages: 1 -->
<!--zoomable 302 -->

<svg id="main" version="1.1" xmlns="http://www.w3.org/2000/svg" xmlns:xlink="http://www.w3.org/1999/xlink" xml:space="preserve" onload="init(evt)">
<style type="text/css"><![CDATA[
.node, .edge {opacity: 0.7;}
.node.selected, .edge.selected {opacity: 1;}
.edge:hover path { stroke: red; }
.edge:hover polygon { stroke: red; fill: red; }
]]></style>

<defs>
  <circle id="rim" cx="0" cy="0" r="7"/>
  <circle id="rim2" cx="0" cy="0" r="3.5"/>
  <g id="zoomPlus">
    <use xlink:href="#rim" fill="#404040"><set attributeName="fill" to="#808080" begin="zoomplus.mouseover" end="zoomplus.mouseout"/></use>
    <path d="M-4,0h8M0,-4v8" fill="none" stroke="white" stroke-width="1.5" pointer-events="none"/>
  </g>
  <g id="zoomMin">
    <use xlink:href="#rim" fill="#404040"><set attributeName="fill" to="#808080" begin="zoomminus.mouseover" end="zoomminus.mouseout"/></use>
    <path d="M-4,0h8" fill="none" stroke="white" stroke-width="1.5" pointer-events="none"/>
  </g>
  <g id="arrowUp" transform="translate(30 24)">
    <use xlink:href="#rim"/>
    <path pointer-events="none" fill="none" stroke="white" stroke-width="1.5" d="M0,-3.0v7 M-2.5,-0.5L0,-3.0L2.5,-0.5"/>
  </g>
  <g id="arrowRight" transform="rotate(90) translate(36 -43)">
    <use xlink:href="#rim"/>
    <path pointer-events="none" fill="none" stroke="white" stroke-width="1.5" d="M0,-3.0v7 M-2.5,-0.5L0,-3.0L2.5,-0.5"/>
  </g>
  <g id="arrowDown" transform="rotate(180) translate(-30 -48)">
    <use xlink:href="#rim"/>
    <path pointer-events="none" fill="none" stroke="white" stroke-width="1.5" d="M0,-3.0v7 M-2.5,-0.5L0,-3.0L2.5,-0.5"/>
  </g>
  <g id="arrowLeft" transform="rotate(270) translate(-36 17)">
    <use xlink:href="#rim"/>
    <path pointer-events="none" fill="none" stroke="white" stroke-width="1.5" d="M0,-3.0v7 M-2.5,-0.5L0,-3.0L2.5,-0.5"/>
  </g>
  <g id="resetDef">
    <use xlink:href="#rim2" fill="#404040"><set attributeName="fill" to="#808080" begin="reset.mouseover" end="reset.mouseout"/></use>
  </g>
</defs>
<script type="application/ecmascript">
var viewWidth = 1272;
var viewHeight = 302;
var sectionId = 'dynsection-0';
</script>
<script type="application/ecmascript" xlink:href="../../svg.min.js"/>
<svg id="graph" class="graph">
<g id="viewport">
<title>src/libs/vwidgets/vsimplepoint.h</title>
<!-- Node1 -->
<g id="Node000001" class="node">
<title>Node1</title>
<g id="a_Node000001"><a xlink:title=" ">
<polygon fill="#999999" stroke="#666666" points="878,-294 704,-294 704,-275 878,-275 878,-294"/>
<text text-anchor="middle" x="791" y="-282" font-family="Helvetica,sans-Serif" font-size="10.00">src/libs/vwidgets/vsimplepoint.h</text>
</a>
</g>
</g>
<!-- Node2 -->
<g id="Node000002" class="node">
<title>Node2</title>
<g id="a_Node000002"><a xlink:title=" ">
<polygon fill="#e0e0e0" stroke="#999999" points="120,-74 0,-74 0,-55 120,-55 120,-74"/>
<text text-anchor="middle" x="60" y="-62" font-family="Helvetica,sans-Serif" font-size="10.00">qcompilerdetection.h</text>
</a>
</g>
</g>
<!-- Node1&#45;&gt;Node2 -->
<g id="edge1_Node000001_Node000002" class="edge">
<title>Node1&#45;&gt;Node2</title>
<g id="a_edge1_Node000001_Node000002"><a xlink:title=" ">
<path fill="none" stroke="#63b8ff" d="M704,-281.14C552.8,-276.43 247.76,-264.09 144,-239 83.82,-224.45 50.06,-235.71 16,-184 -5.72,-151.03 24.82,-105.88 44.89,-81.95"/>
<polygon fill="#63b8ff" stroke="#63b8ff" points="47.76,-83.99 51.7,-74.15 42.48,-79.38 47.76,-83.99"/>
</a>
</g>
</g>
<!-- Node3 -->
<g id="Node000003" class="node">
<title>Node3</title>
<g id="a_Node000003"><a xlink:title=" ">
<polygon fill="#e0e0e0" stroke="#999999" points="273,-184 223,-184 223,-165 273,-165 273,-184"/>
<text text-anchor="middle" x="248" y="-172" font-family="Helvetica,sans-Serif" font-size="10.00">QColor</text>
</a>
</g>
</g>
<!-- Node1&#45;&gt;Node3 -->
<g id="edge2_Node000001_Node000003" class="edge">
<title>Node1&#45;&gt;Node3</title>
<g id="a_edge2_Node000001_Node000003"><a xlink:title=" ">
<path fill="none" stroke="#63b8ff" d="M735.9,-274.98C682.78,-266.56 600.19,-252.96 529,-239 421.76,-217.97 393.06,-210.3 283.06,-184.21"/>
<polygon fill="#63b8ff" stroke="#63b8ff" points="283.77,-180.79 273.23,-181.89 282.16,-187.6 283.77,-180.79"/>
</a>
</g>
</g>
<!-- Node4 -->
<g id="Node000004" class="node">
<title>Node4</title>
<g id="a_Node000004"><a xlink:title=" ">
<polygon fill="#e0e0e0" stroke="#999999" points="1113.5,-239 1024.5,-239 1024.5,-220 1113.5,-220 1113.5,-239"/>
<text text-anchor="middle" x="1069" y="-227" font-family="Helvetica,sans-Serif" font-size="10.00">QGraphicsItem</text>
</a>
</g>
</g>
<!-- Node1&#45;&gt;Node4 -->
<g id="edge3_Node000001_Node000004" class="edge">
<title>Node1&#45;&gt;Node4</title>
<g id="a_edge3_Node000001_Node000004"><a xlink:title=" ">
<path fill="none" stroke="#63b8ff" d="M835.67,-274.98C884.3,-265.71 962.11,-250.88 1014.35,-240.92"/>
<polygon fill="#63b8ff" stroke="#63b8ff" points="1015.28,-244.31 1024.45,-238.99 1013.97,-237.43 1015.28,-244.31"/>
</a>
</g>
</g>
<!-- Node5 -->
<g id="Node000005" class="node">
<title>Node5</title>
<g id="a_Node000005"><a xlink:title=" ">
<polygon fill="#e0e0e0" stroke="#999999" points="371,-184 291,-184 291,-165 371,-165 371,-184"/>
<text text-anchor="middle" x="331" y="-172" font-family="Helvetica,sans-Serif" font-size="10.00">QMetaObject</text>
</a>
</g>
</g>
<!-- Node1&#45;&gt;Node5 -->
<g id="edge4_Node000001_Node000005" class="edge">
<title>Node1&#45;&gt;Node5</title>
<g id="a_edge4_Node000001_Node000005"><a xlink:title=" ">
<path fill="none" stroke="#63b8ff" d="M754.52,-274.94C671.57,-255.46 468.91,-207.88 377.31,-186.37"/>
<polygon fill="#63b8ff" stroke="#63b8ff" points="378.02,-182.94 367.48,-184.07 376.42,-189.76 378.02,-182.94"/>
</a>
</g>
</g>
<!-- Node6 -->
<g id="Node000006" class="node">
<title>Node6</title>
<g id="a_Node000006"><a xlink:title=" ">
<polygon fill="#e0e0e0" stroke="#999999" points="930,-184 874,-184 874,-165 930,-165 930,-184"/>
<text text-anchor="middle" x="902" y="-172" font-family="Helvetica,sans-Serif" font-size="10.00">QObject</text>
</a>
</g>
</g>
<!-- Node1&#45;&gt;Node6 -->
<g id="edge5_Node000001_Node000006" class="edge">
<title>Node1&#45;&gt;Node6</title>
<g id="a_edge5_Node000001_Node000006"><a xlink:title=" ">
<path fill="none" stroke="#63b8ff" d="M800.08,-274.66C818.88,-256.38 862.24,-214.18 885.9,-191.17"/>
<polygon fill="#63b8ff" stroke="#63b8ff" points="888.37,-193.64 893.1,-184.16 883.49,-188.62 888.37,-193.64"/>
</a>
</g>
</g>
<!-- Node7 -->
<g id="Node000007" class="node">
<title>Node7</title>
<g id="a_Node000007"><a xlink:title=" ">
<polygon fill="#e0e0e0" stroke="#999999" points="1186.5,-239 1131.5,-239 1131.5,-220 1186.5,-220 1186.5,-239"/>
<text text-anchor="middle" x="1159" y="-227" font-family="Helvetica,sans-Serif" font-size="10.00">QPointF</text>
</a>
</g>
</g>
<!-- Node1&#45;&gt;Node7 -->
<g id="edge6_Node000001_Node000007" class="edge">
<title>Node1&#45;&gt;Node7</title>
<g id="a_edge6_Node000001_Node000007"><a xlink:title=" ">
<path fill="none" stroke="#63b8ff" d="M871.18,-275C936.27,-267.58 1030.59,-255.66 1121.25,-239.18"/>
<polygon fill="#63b8ff" stroke="#63b8ff" points="1121.95,-242.61 1131.15,-237.36 1120.68,-235.73 1121.95,-242.61"/>
</a>
</g>
</g>
<!-- Node8 -->
<g id="Node000008" class="node">
<title>Node8</title>
<g id="a_Node000008"><a xlink:title=" ">
<polygon fill="#e0e0e0" stroke="#999999" points="910.5,-74 857.5,-74 857.5,-55 910.5,-55 910.5,-74"/>
<text text-anchor="middle" x="884" y="-62" font-family="Helvetica,sans-Serif" font-size="10.00">QString</text>
</a>
</g>
</g>
<!-- Node1&#45;&gt;Node8 -->
<g id="edge7_Node000001_Node000008" class="edge">
<title>Node1&#45;&gt;Node8</title>
<g id="a_edge7_Node000001_Node000008"><a xlink:title=" ">
<path fill="none" stroke="#63b8ff" d="M854.49,-274.93C880.7,-268.66 909.83,-257.79 931,-239 951.08,-221.17 950.32,-210.24 956,-184 964.98,-142.54 927.48,-102.01 903.23,-80.77"/>
<polygon fill="#63b8ff" stroke="#63b8ff" points="905.21,-77.86 895.31,-74.1 900.7,-83.22 905.21,-77.86"/>
</a>
</g>
</g>
<!-- Node9 -->
<g id="Node000009" class="node">
<title>Node9</title>
<g id="a_Node000009"><a xlink:title=" ">
<polygon fill="#e0e0e0" stroke="#999999" points="1263.5,-239 1204.5,-239 1204.5,-220 1263.5,-220 1263.5,-239"/>
<text text-anchor="middle" x="1234" y="-227" font-family="Helvetica,sans-Serif" font-size="10.00">QVariant</text>
</a>
</g>
</g>
<!-- Node1&#45;&gt;Node9 -->
<g id="edge8_Node000001_Node000009" class="edge">
<title>Node1&#45;&gt;Node9</title>
<g id="a_edge8_Node000001_Node000009"><a xlink:title=" ">
<path fill="none" stroke="#63b8ff" d="M878.29,-276.72C958.24,-269.86 1080.01,-257.8 1194.22,-239.14"/>
<polygon fill="#63b8ff" stroke="#63b8ff" points="1194.9,-242.58 1204.19,-237.5 1193.75,-235.67 1194.9,-242.58"/>
</a>
</g>
</g>
<!-- Node10 -->
<g id="Node000010" class="node">
<title>Node10</title>
<g id="a_Node000010"><a xlink:title=" ">
<polygon fill="#e0e0e0" stroke="#999999" points="769.5,-74 710.5,-74 710.5,-55 769.5,-55 769.5,-74"/>
<text text-anchor="middle" x="740" y="-62" font-family="Helvetica,sans-Serif" font-size="10.00">QtGlobal</text>
</a>
</g>
</g>
<!-- Node1&#45;&gt;Node10 -->
<g id="edge9_Node000001_Node000010" class="edge">
<title>Node1&#45;&gt;Node10</title>
<g id="a_edge9_Node000001_Node000010"><a xlink:title=" ">
<path fill="none" stroke="#63b8ff" d="M820.76,-274.93C872.88,-258.33 972.14,-218.62 939,-165 904.19,-108.67 826.77,-83.17 779.41,-72.46"/>
<polygon fill="#63b8ff" stroke="#63b8ff" points="780.01,-69.01 769.5,-70.34 778.55,-75.86 780.01,-69.01"/>
</a>
</g>
</g>
<!-- Node11 -->
<g id="Node000011" class="node">
<title>Node11</title>
<g id="a_Node000011"><a xlink:href="../../d4/da4/def_8h.html" target="_top" xlink:title=" ">
<polygon fill="white" stroke="#666666" points="492,-129 410,-129 410,-110 492,-110 492,-129"/>
<text text-anchor="middle" x="451" y="-117" font-family="Helvetica,sans-Serif" font-size="10.00">../vmisc/def.h</text>
</a>
</g>
</g>
<!-- Node1&#45;&gt;Node11 -->
<g id="edge10_Node000001_Node000011" class="edge">
<title>Node1&#45;&gt;Node11</title>
<g id="a_edge10_Node000001_Node000011"><a xlink:title=" ">
<path fill="none" stroke="#63b8ff" d="M703.82,-282.14C557.55,-277.75 272.92,-259.47 214,-184 208.8,-177.34 208.61,-171.5 214,-165 237.14,-137.11 337.36,-126.59 399.83,-122.7"/>
<polygon fill="#63b8ff" stroke="#63b8ff" points="400.11,-126.19 409.89,-122.11 399.7,-119.21 400.11,-126.19"/>
</a>
</g>
</g>
<!-- Node19 -->
<g id="Node000019" class="node">
<title>Node19</title>
<g id="a_Node000019"><a xlink:href="../../d6/d8e/vabstractsimple_8h.html" target="_top" xlink:title=" ">
<polygon fill="white" stroke="#666666" points="733,-239 629,-239 629,-220 733,-220 733,-239"/>
<text text-anchor="middle" x="681" y="-227" font-family="Helvetica,sans-Serif" font-size="10.00">vabstractsimple.h</text>
</a>
</g>
</g>
<!-- Node1&#45;&gt;Node19 -->
<g id="edge21_Node000001_Node000019" class="edge">
<title>Node1&#45;&gt;Node19</title>
<g id="a_edge21_Node000001_Node000019"><a xlink:title=" ">
<path fill="none" stroke="#63b8ff" d="M773.33,-274.98C755.71,-266.5 728.42,-253.35 708.07,-243.54"/>
<polygon fill="#63b8ff" stroke="#63b8ff" points="709.52,-240.36 698.99,-239.17 706.48,-246.66 709.52,-240.36"/>
</a>
</g>
</g>
<!-- Node24 -->
<g id="Node000024" class="node">
<title>Node24</title>
<g id="a_Node000024"><a xlink:href="../../da/df3/vscenepoint_8h.html" target="_top" xlink:title=" ">
<polygon fill="white" stroke="#666666" points="166.5,-184 25.5,-184 25.5,-165 166.5,-165 166.5,-184"/>
<text text-anchor="middle" x="96" y="-172" font-family="Helvetica,sans-Serif" font-size="10.00">../vwidgets/vscenepoint.h</text>
</a>
</g>
</g>
<!-- Node1&#45;&gt;Node24 -->
<g id="edge38_Node000001_Node000024" class="edge">
<title>Node1&#45;&gt;Node24</title>
<g id="a_edge38_Node000001_Node000024"><a xlink:title=" ">
<path fill="none" stroke="#63b8ff" d="M703.96,-283.13C558.9,-281.52 274.39,-273.86 181,-239 153.67,-228.8 127.62,-206.91 111.73,-191.71"/>
<polygon fill="#63b8ff" stroke="#63b8ff" points="113.96,-189 104.39,-184.46 109.05,-193.98 113.96,-189"/>
</a>
</g>
</g>
<!-- Node11&#45;&gt;Node2 -->
<g id="edge11_Node000011_Node000002" class="edge">
<title>Node11&#45;&gt;Node2</title>
<g id="a_edge11_Node000011_Node000002"><a xlink:title=" ">
<path fill="none" stroke="#63b8ff" d="M409.9,-112.93C343.52,-103.93 211.96,-86.1 130.43,-75.05"/>
<polygon fill="#63b8ff" stroke="#63b8ff" points="130.63,-71.54 120.25,-73.67 129.69,-78.48 130.63,-71.54"/>
</a>
</g>
</g>
<!-- Node11&#45;&gt;Node8 -->
<g id="edge13_Node000011_Node000008" class="edge">
<title>Node11&#45;&gt;Node8</title>
<g id="a_edge13_Node000011_Node000008"><a xlink:title=" ">
<path fill="none" stroke="#63b8ff" d="M492.13,-113.47C576.27,-103.17 766.91,-79.83 847.23,-70"/>
<polygon fill="#63b8ff" stroke="#63b8ff" points="847.86,-73.45 857.36,-68.76 847.01,-66.5 847.86,-73.45"/>
</a>
</g>
</g>
<!-- Node11&#45;&gt;Node10 -->
<g id="edge16_Node000011_Node000010" class="edge">
<title>Node11&#45;&gt;Node10</title>
<g id="a_edge16_Node000011_Node000010"><a xlink:title=" ">
<path fill="none" stroke="#63b8ff" d="M492.1,-110.96C547.59,-100.79 645.79,-82.78 700.46,-72.75"/>
<polygon fill="#63b8ff" stroke="#63b8ff" points="701.26,-76.16 710.46,-70.92 700,-69.28 701.26,-76.16"/>
</a>
</g>
</g>
<!-- Node12 -->
<g id="Node000012" class="node">
<title>Node12</title>
<g id="a_Node000012"><a xlink:title=" ">
<polygon fill="#e0e0e0" stroke="#999999" points="266,-74 216,-74 216,-55 266,-55 266,-74"/>
<text text-anchor="middle" x="241" y="-62" font-family="Helvetica,sans-Serif" font-size="10.00">QLineF</text>
</a>
</g>
</g>
<!-- Node11&#45;&gt;Node12 -->
<g id="edge12_Node000011_Node000012" class="edge">
<title>Node11&#45;&gt;Node12</title>
<g id="a_edge12_Node000011_Node000012"><a xlink:title=" ">
<path fill="none" stroke="#63b8ff" d="M417.26,-109.98C378.52,-100.21 315.27,-84.25 276.01,-74.34"/>
<polygon fill="#63b8ff" stroke="#63b8ff" points="276.64,-70.89 266.09,-71.83 274.93,-77.67 276.64,-70.89"/>
</a>
</g>
</g>
<!-- Node13 -->
<g id="Node000013" class="node">
<title>Node13</title>
<g id="a_Node000013"><a xlink:title=" ">
<polygon fill="#e0e0e0" stroke="#999999" points="646,-74 576,-74 576,-55 646,-55 646,-74"/>
<text text-anchor="middle" x="611" y="-62" font-family="Helvetica,sans-Serif" font-size="10.00">QStringList</text>
</a>
</g>
</g>
<!-- Node11&#45;&gt;Node13 -->
<g id="edge14_Node000011_Node000013" class="edge">
<title>Node11&#45;&gt;Node13</title>
<g id="a_edge14_Node000011_Node000013"><a xlink:title=" ">
<path fill="none" stroke="#63b8ff" d="M476.71,-109.98C503.45,-101.13 545.53,-87.19 575.45,-77.28"/>
<polygon fill="#63b8ff" stroke="#63b8ff" points="576.7,-80.55 585.09,-74.08 574.5,-73.9 576.7,-80.55"/>
</a>
</g>
</g>
<!-- Node14 -->
<g id="Node000014" class="node">
<title>Node14</title>
<g id="a_Node000014"><a xlink:title=" ">
<polygon fill="#e0e0e0" stroke="#999999" points="557.5,-74 528.5,-74 528.5,-55 557.5,-55 557.5,-74"/>
<text text-anchor="middle" x="543" y="-62" font-family="Helvetica,sans-Serif" font-size="10.00">Qt</text>
</a>
</g>
</g>
<!-- Node11&#45;&gt;Node14 -->
<g id="edge15_Node000011_Node000014" class="edge">
<title>Node11&#45;&gt;Node14</title>
<g id="a_edge15_Node000011_Node000014"><a xlink:title=" ">
<path fill="none" stroke="#63b8ff" d="M465.78,-109.98C480.27,-101.64 502.57,-88.79 519.49,-79.04"/>
<polygon fill="#63b8ff" stroke="#63b8ff" points="521.34,-82.02 528.26,-73.99 517.84,-75.95 521.34,-82.02"/>
</a>
</g>
</g>
<!-- Node15 -->
<g id="Node000015" class="node">
<title>Node15</title>
<g id="a_Node000015"><a xlink:title=" ">
<polygon fill="#e0e0e0" stroke="#999999" points="340,-74 284,-74 284,-55 340,-55 340,-74"/>
<text text-anchor="middle" x="312" y="-62" font-family="Helvetica,sans-Serif" font-size="10.00">QPrinter</text>
</a>
</g>
</g>
<!-- Node11&#45;&gt;Node15 -->
<g id="edge17_Node000011_Node000015" class="edge">
<title>Node11&#45;&gt;Node15</title>
<g id="a_edge17_Node000011_Node000015"><a xlink:title=" ">
<path fill="none" stroke="#63b8ff" d="M428.67,-109.98C405.8,-101.27 370.04,-87.63 344.14,-77.75"/>
<polygon fill="#63b8ff" stroke="#63b8ff" points="345.33,-74.46 334.74,-74.17 342.84,-81 345.33,-74.46"/>
</a>
</g>
</g>
<!-- Node16 -->
<g id="Node000016" class="node">
<title>Node16</title>
<g id="a_Node000016"><a xlink:title=" ">
<polygon fill="#e0e0e0" stroke="#999999" points="409.5,-74 358.5,-74 358.5,-55 409.5,-55 409.5,-74"/>
<text text-anchor="middle" x="384" y="-62" font-family="Helvetica,sans-Serif" font-size="10.00">csignal</text>
</a>
</g>
</g>
<!-- Node11&#45;&gt;Node16 -->
<g id="edge18_Node000011_Node000016" class="edge">
<title>Node11&#45;&gt;Node16</title>
<g id="a_edge18_Node000011_Node000016"><a xlink:title=" ">
<path fill="none" stroke="#63b8ff" d="M440.24,-109.98C430.23,-102.07 415.11,-90.11 403.07,-80.58"/>
<polygon fill="#63b8ff" stroke="#63b8ff" points="404.97,-77.63 394.96,-74.17 400.63,-83.12 404.97,-77.63"/>
</a>
</g>
</g>
<!-- Node17 -->
<g id="Node000017" class="node">
<title>Node17</title>
<g id="a_Node000017"><a xlink:href="../../d4/d82/debugbreak_8h.html" target="_top" xlink:title=" ">
<polygon fill="white" stroke="#666666" points="510.5,-74 427.5,-74 427.5,-55 510.5,-55 510.5,-74"/>
<text text-anchor="middle" x="469" y="-62" font-family="Helvetica,sans-Serif" font-size="10.00">debugbreak.h</text>
</a>
</g>
</g>
<!-- Node11&#45;&gt;Node17 -->
<g id="edge19_Node000011_Node000017" class="edge">
<title>Node11&#45;&gt;Node17</title>
<g id="a_edge19_Node000011_Node000017"><a xlink:title=" ">
<path fill="none" stroke="#63b8ff" d="M453.97,-109.75C456.36,-102.72 459.79,-92.62 462.77,-83.84"/>
<polygon fill="#63b8ff" stroke="#63b8ff" points="466.18,-84.68 466.08,-74.09 459.55,-82.43 466.18,-84.68"/>
</a>
</g>
</g>
<!-- Node18 -->
<g id="Node000018" class="node">
<title>Node18</title>
<g id="a_Node000018"><a xlink:title=" ">
<polygon fill="#e0e0e0" stroke="#999999" points="496.5,-19 441.5,-19 441.5,0 496.5,0 496.5,-19"/>
<text text-anchor="middle" x="469" y="-7" font-family="Helvetica,sans-Serif" font-size="10.00">signal.h</text>
</a>
</g>
</g>
<!-- Node17&#45;&gt;Node18 -->
<g id="edge20_Node000017_Node000018" class="edge">
<title>Node17&#45;&gt;Node18</title>
<g id="a_edge20_Node000017_Node000018"><a xlink:title=" ">
<path fill="none" stroke="#63b8ff" d="M469,-54.75C469,-47.8 469,-37.85 469,-29.13"/>
<polygon fill="#63b8ff" stroke="#63b8ff" points="472.5,-29.09 469,-19.09 465.5,-29.09 472.5,-29.09"/>
</a>
</g>
</g>
<!-- Node19&#45;&gt;Node3 -->
<g id="edge22_Node000019_Node000003" class="edge">
<title>Node19&#45;&gt;Node3</title>
<g id="a_edge22_Node000019_Node000003"><a xlink:title=" ">
<path fill="none" stroke="#63b8ff" d="M628.71,-224.91C554.11,-219.3 412.72,-206.84 283.26,-184"/>
<polygon fill="#63b8ff" stroke="#63b8ff" points="283.63,-180.51 273.17,-182.19 282.4,-187.4 283.63,-180.51"/>
</a>
</g>
</g>
<!-- Node19&#45;&gt;Node5 -->
<g id="edge23_Node000019_Node000005" class="edge">
<title>Node19&#45;&gt;Node5</title>
<g id="a_edge23_Node000019_Node000005"><a xlink:title=" ">
<path fill="none" stroke="#63b8ff" d="M628.92,-221.12C569.05,-212.55 467.84,-197.82 381,-184 380.9,-183.98 380.8,-183.97 380.7,-183.95"/>
<polygon fill="#63b8ff" stroke="#63b8ff" points="381.54,-180.54 371.1,-182.39 380.41,-187.45 381.54,-180.54"/>
</a>
</g>
</g>
<!-- Node19&#45;&gt;Node6 -->
<g id="edge24_Node000019_Node000006" class="edge">
<title>Node19&#45;&gt;Node6</title>
<g id="a_edge24_Node000019_Node000006"><a xlink:title=" ">
<path fill="none" stroke="#63b8ff" d="M716.51,-219.98C756.89,-210.3 822.57,-194.55 863.97,-184.62"/>
<polygon fill="#63b8ff" stroke="#63b8ff" points="865.03,-187.96 873.94,-182.23 863.4,-181.16 865.03,-187.96"/>
</a>
</g>
</g>
<!-- Node19&#45;&gt;Node8 -->
<g id="edge26_Node000019_Node000008" class="edge">
<title>Node19&#45;&gt;Node8</title>
<g id="a_edge26_Node000019_Node000008"><a xlink:title=" ">
<path fill="none" stroke="#63b8ff" d="M725.8,-219.98C751.31,-213.41 782.71,-202.27 806,-184 840.91,-156.61 865.32,-109.07 876.71,-83.32"/>
<polygon fill="#63b8ff" stroke="#63b8ff" points="879.97,-84.6 880.68,-74.02 873.53,-81.85 879.97,-84.6"/>
</a>
</g>
</g>
<!-- Node19&#45;&gt;Node10 -->
<g id="edge28_Node000019_Node000010" class="edge">
<title>Node19&#45;&gt;Node10</title>
<g id="a_edge28_Node000019_Node000010"><a xlink:title=" ">
<path fill="none" stroke="#63b8ff" d="M733.08,-220.01C754.11,-213.75 776.36,-202.87 789,-184 811.38,-150.57 777.75,-105.3 756.03,-81.55"/>
<polygon fill="#63b8ff" stroke="#63b8ff" points="758.39,-78.94 748.96,-74.11 753.31,-83.77 758.39,-78.94"/>
</a>
</g>
</g>
<!-- Node19&#45;&gt;Node11 -->
<g id="edge37_Node000019_Node000011" class="edge">
<title>Node19&#45;&gt;Node11</title>
<g id="a_edge37_Node000019_Node000011"><a xlink:title=" ">
<path fill="none" stroke="#63b8ff" d="M665.29,-219.86C642.1,-207.23 597.22,-183.24 558,-165 532.85,-153.3 503.75,-141.3 482.25,-132.71"/>
<polygon fill="#63b8ff" stroke="#63b8ff" points="483.54,-129.45 472.95,-129.01 480.95,-135.96 483.54,-129.45"/>
</a>
</g>
</g>
<!-- Node19&#45;&gt;Node14 -->
<g id="edge27_Node000019_Node000014" class="edge">
<title>Node19&#45;&gt;Node14</title>
<g id="a_edge27_Node000019_Node000014"><a xlink:title=" ">
<path fill="none" stroke="#63b8ff" d="M670.84,-219.73C661.01,-211.05 645.89,-197.18 634,-184 603.18,-149.82 571.36,-106.09 554.74,-82.47"/>
<polygon fill="#63b8ff" stroke="#63b8ff" points="557.56,-80.39 548.96,-74.2 551.82,-84.4 557.56,-80.39"/>
</a>
</g>
</g>
<!-- Node20 -->
<g id="Node000020" class="node">
<title>Node20</title>
<g id="a_Node000020"><a xlink:title=" ">
<polygon fill="#e0e0e0" stroke="#999999" points="780,-184 738,-184 738,-165 780,-165 780,-184"/>
<text text-anchor="middle" x="759" y="-172" font-family="Helvetica,sans-Serif" font-size="10.00">QPen</text>
</a>
</g>
</g>
<!-- Node19&#45;&gt;Node20 -->
<g id="edge25_Node000019_Node000020" class="edge">
<title>Node19&#45;&gt;Node20</title>
<g id="a_edge25_Node000019_Node000020"><a xlink:title=" ">
<path fill="none" stroke="#63b8ff" d="M693.53,-219.98C705.4,-211.92 723.46,-199.65 737.61,-190.03"/>
<polygon fill="#63b8ff" stroke="#63b8ff" points="739.94,-192.69 746.24,-184.17 736,-186.9 739.94,-192.69"/>
</a>
</g>
</g>
<!-- Node21 -->
<g id="Node000021" class="node">
<title>Node21</title>
<g id="a_Node000021"><a xlink:href="../../d3/da5/ifcdef_8h.html" target="_top" xlink:title=" ">
<polygon fill="white" stroke="#666666" points="719.5,-184 642.5,-184 642.5,-165 719.5,-165 719.5,-184"/>
<text text-anchor="middle" x="681" y="-172" font-family="Helvetica,sans-Serif" font-size="10.00">../ifc/ifcdef.h</text>
</a>
</g>
</g>
<!-- Node19&#45;&gt;Node21 -->
<g id="edge29_Node000019_Node000021" class="edge">
<title>Node19&#45;&gt;Node21</title>
<g id="a_edge29_Node000019_Node000021"><a xlink:title=" ">
<path fill="none" stroke="#63b8ff" d="M681,-219.75C681,-212.8 681,-202.85 681,-194.13"/>
<polygon fill="#63b8ff" stroke="#63b8ff" points="684.5,-194.09 681,-184.09 677.5,-194.09 684.5,-194.09"/>
</a>
</g>
</g>
<!-- Node23 -->
<g id="Node000023" class="node">
<title>Node23</title>
<g id="a_Node000023"><a xlink:href="../../d5/d9d/vgeometrydef_8h.html" target="_top" xlink:title=" ">
<polygon fill="white" stroke="#666666" points="548.5,-184 389.5,-184 389.5,-165 548.5,-165 548.5,-184"/>
<text text-anchor="middle" x="469" y="-172" font-family="Helvetica,sans-Serif" font-size="10.00">../vgeometry/vgeometrydef.h</text>
</a>
</g>
</g>
<!-- Node19&#45;&gt;Node23 -->
<g id="edge36_Node000019_Node000023" class="edge">
<title>Node19&#45;&gt;Node23</title>
<g id="a_edge36_Node000019_Node000023"><a xlink:title=" ">
<path fill="none" stroke="#63b8ff" d="M646.94,-219.98C610.58,-210.89 552.83,-196.46 513.03,-186.51"/>
<polygon fill="#63b8ff" stroke="#63b8ff" points="513.88,-183.11 503.33,-184.08 512.18,-189.9 513.88,-183.11"/>
</a>
</g>
</g>
<!-- Node21&#45;&gt;Node8 -->
<g id="edge30_Node000021_Node000008" class="edge">
<title>Node21&#45;&gt;Node8</title>
<g id="a_edge30_Node000021_Node000008"><a xlink:title=" ">
<path fill="none" stroke="#63b8ff" d="M697.86,-164.9C715.24,-156.01 743.09,-141.68 767,-129 799.13,-111.97 835.95,-91.89 859.57,-78.94"/>
<polygon fill="#63b8ff" stroke="#63b8ff" points="861.45,-81.9 868.53,-74.02 858.08,-75.76 861.45,-81.9"/>
</a>
</g>
</g>
<!-- Node21&#45;&gt;Node10 -->
<g id="edge32_Node000021_Node000010" class="edge">
<title>Node21&#45;&gt;Node10</title>
<g id="a_edge32_Node000021_Node000010"><a xlink:title=" ">
<path fill="none" stroke="#63b8ff" d="M705.81,-164.95C721.84,-157.99 741.43,-146.42 751,-129 758.65,-115.07 754.43,-97.05 749.15,-83.77"/>
<polygon fill="#63b8ff" stroke="#63b8ff" points="752.19,-81.99 744.9,-74.3 745.8,-84.86 752.19,-81.99"/>
</a>
</g>
</g>
<!-- Node21&#45;&gt;Node11 -->
<g id="edge33_Node000021_Node000011" class="edge">
<title>Node21&#45;&gt;Node11</title>
<g id="a_edge33_Node000021_Node000011"><a xlink:title=" ">
<path fill="none" stroke="#63b8ff" d="M644.05,-164.98C604.43,-155.86 541.41,-141.33 498.23,-131.38"/>
<polygon fill="#63b8ff" stroke="#63b8ff" points="498.77,-127.92 488.24,-129.08 497.2,-134.74 498.77,-127.92"/>
</a>
</g>
</g>
<!-- Node21&#45;&gt;Node13 -->
<g id="edge31_Node000021_Node000013" class="edge">
<title>Node21&#45;&gt;Node13</title>
<g id="a_edge31_Node000021_Node000013"><a xlink:title=" ">
<path fill="none" stroke="#63b8ff" d="M659.6,-164.89C644.66,-157.66 625.73,-145.81 616,-129 608.21,-115.54 607.47,-97.71 608.39,-84.37"/>
<polygon fill="#63b8ff" stroke="#63b8ff" points="611.87,-84.72 609.42,-74.41 604.91,-83.99 611.87,-84.72"/>
</a>
</g>
</g>
<!-- Node22 -->
<g id="Node000022" class="node">
<title>Node22</title>
<g id="a_Node000022"><a xlink:href="../../d6/dcd/diagnostic_8h.html" target="_top" xlink:title=" ">
<polygon fill="white" stroke="#666666" points="741.5,-129 624.5,-129 624.5,-110 741.5,-110 741.5,-129"/>
<text text-anchor="middle" x="683" y="-117" font-family="Helvetica,sans-Serif" font-size="10.00">../vmisc/diagnostic.h</text>
</a>
</g>
</g>
<!-- Node21&#45;&gt;Node22 -->
<g id="edge34_Node000021_Node000022" class="edge">
<title>Node21&#45;&gt;Node22</title>
<g id="a_edge34_Node000021_Node000022"><a xlink:title=" ">
<path fill="none" stroke="#63b8ff" d="M681.33,-164.75C681.59,-157.8 681.97,-147.85 682.3,-139.13"/>
<polygon fill="#63b8ff" stroke="#63b8ff" points="685.8,-139.21 682.68,-129.09 678.8,-138.95 685.8,-139.21"/>
</a>
</g>
</g>
<!-- Node22&#45;&gt;Node10 -->
<g id="edge35_Node000022_Node000010" class="edge">
<title>Node22&#45;&gt;Node10</title>
<g id="a_edge35_Node000022_Node000010"><a xlink:title=" ">
<path fill="none" stroke="#63b8ff" d="M692.16,-109.98C700.5,-102.23 713.03,-90.58 723.18,-81.14"/>
<polygon fill="#63b8ff" stroke="#63b8ff" points="725.74,-83.54 730.68,-74.17 720.97,-78.42 725.74,-83.54"/>
</a>
</g>
</g>
<!-- Node24&#45;&gt;Node10 -->
<g id="edge39_Node000024_Node000010" class="edge">
<title>Node24&#45;&gt;Node10</title>
<g id="a_edge39_Node000024_Node000010"><a xlink:title=" ">
<path fill="none" stroke="#63b8ff" d="M166.58,-167.04C265.07,-157.79 438.68,-140.63 501,-129 573.74,-115.42 656.87,-91.34 703.42,-77.06"/>
<polygon fill="#63b8ff" stroke="#63b8ff" points="704.54,-80.38 713.06,-74.08 702.48,-73.69 704.54,-80.38"/>
</a>
</g>
</g>
<!-- Node24&#45;&gt;Node11 -->
<g id="edge41_Node000024_Node000011" class="edge">
<title>Node24&#45;&gt;Node11</title>
<g id="a_edge41_Node000024_Node000011"><a xlink:title=" ">
<path fill="none" stroke="#63b8ff" d="M153.04,-164.98C221.22,-154.8 334.31,-137.92 399.8,-128.14"/>
<polygon fill="#63b8ff" stroke="#63b8ff" points="400.52,-131.58 409.89,-126.64 399.48,-124.65 400.52,-131.58"/>
</a>
</g>
</g>
<!-- Node25 -->
<g id="Node000025" class="node">
<title>Node25</title>
<g id="a_Node000025"><a xlink:title=" ">
<polygon fill="#e0e0e0" stroke="#999999" points="157,-129 35,-129 35,-110 157,-110 157,-129"/>
<text text-anchor="middle" x="96" y="-117" font-family="Helvetica,sans-Serif" font-size="10.00">QGraphicsEllipseItem</text>
</a>
</g>
</g>
<!-- Node24&#45;&gt;Node25 -->
<g id="edge40_Node000024_Node000025" class="edge">
<title>Node24&#45;&gt;Node25</title>
<g id="a_edge40_Node000024_Node000025"><a xlink:title=" ">
<path fill="none" stroke="#63b8ff" d="M96,-164.75C96,-157.8 96,-147.85 96,-139.13"/>
<polygon fill="#63b8ff" stroke="#63b8ff" points="99.5,-139.09 96,-129.09 92.5,-139.09 99.5,-139.09"/>
</a>
</g>
</g>
</g>
</svg>

<g id="navigator" transform="translate(0 0)" fill="#404254">
  <rect fill="#f2f5e9" fill-opacity="0.5" stroke="#606060" stroke-width=".5" x="0" y="0" width="60" height="60"/>
  <use id="zoomplus" xlink:href="#zoomPlus" x="17" y="9" onmousedown="handleZoom(evt,'in')"/>
  <use id="zoomminus" xlink:href="#zoomMin" x="42" y="9" onmousedown="handleZoom(evt,'out')"/>
  <use id="reset" xlink:href="#resetDef" x="30" y="36" onmousedown="handleReset()"/>
   <use id="arrowup" xlink:href="#arrowUp" x="0" y="0" onmousedown="handlePan(0,-1)"/>
  <use id="arrowright" xlink:href="#arrowRight" x="0" y="0" onmousedown="handlePan(1,0)"/>
  <use id="arrowdown" xlink:href="#arrowDown" x="0" y="0" onmousedown="handlePan(0,1)"/>
  <use id="arrowleft" xlink:href="#arrowLeft" x="0" y="0" onmousedown="handlePan(-1,0)"/>
</g>
<svg viewBox="0 0 15 15" width="100%" height="30px" preserveAspectRatio="xMaxYMin meet">
 <g id="arrow_out" transform="scale(0.3 0.3)">
  <a xlink:href="vsimplepoint_8h__incl_org.svg" target="_base">
   <rect id="button" ry="5" rx="5" y="6" x="6" height="38" width="38"
        fill="#f2f5e9" fill-opacity="0.5" stroke="#606060" stroke-width="1.0"/>
   <path id="arrow"
     d="M 11.500037,31.436501 C 11.940474,20.09759 22.043105,11.32322 32.158766,21.979434 L 37.068811,17.246167 C 37.068811,17.246167 37.088388,32 37.088388,32 L 22.160133,31.978069 C 22.160133,31.978069 26.997745,27.140456 26.997745,27.140456 C 18.528582,18.264221 13.291696,25.230495 11.500037,31.436501 z"
     style="fill:#404040;"/>
  </a>
 </g>
</svg>

<style type='text/css'>
<![CDATA[
[data-mouse-over-selected='false'] { opacity: 0.7; }
[data-mouse-over-selected='true']  { opacity: 1.0; }
]]>
</style>
<script type="application/ecmascript"><![CDATA[
document.addEventListener('DOMContentLoaded', (event) => {
  highlightEdges();
  highlightAdjacentNodes();
});
]]></script>
</svg>
