<?xml version="1.0" encoding="UTF-8" standalone="no"?>
<!DOCTYPE svg PUBLIC "-//W3C//DTD SVG 1.1//EN"
 "http://www.w3.org/Graphics/SVG/1.1/DTD/svg11.dtd">
<!-- Generated by graphviz version 2.43.0 (0)
 -->
<!-- Title: src/app/seamly2d/dialogs/vabstractlayoutdialog.h Pages: 1 -->
<!--zoomable 302 -->

<svg id="main" version="1.1" xmlns="http://www.w3.org/2000/svg" xmlns:xlink="http://www.w3.org/1999/xlink" xml:space="preserve" onload="init(evt)">
<style type="text/css"><![CDATA[
.node, .edge {opacity: 0.7;}
.node.selected, .edge.selected {opacity: 1;}
.edge:hover path { stroke: red; }
.edge:hover polygon { stroke: red; fill: red; }
]]></style>

<defs>
  <circle id="rim" cx="0" cy="0" r="7"/>
  <circle id="rim2" cx="0" cy="0" r="3.5"/>
  <g id="zoomPlus">
    <use xlink:href="#rim" fill="#404040"><set attributeName="fill" to="#808080" begin="zoomplus.mouseover" end="zoomplus.mouseout"/></use>
    <path d="M-4,0h8M0,-4v8" fill="none" stroke="white" stroke-width="1.5" pointer-events="none"/>
  </g>
  <g id="zoomMin">
    <use xlink:href="#rim" fill="#404040"><set attributeName="fill" to="#808080" begin="zoomminus.mouseover" end="zoomminus.mouseout"/></use>
    <path d="M-4,0h8" fill="none" stroke="white" stroke-width="1.5" pointer-events="none"/>
  </g>
  <g id="arrowUp" transform="translate(30 24)">
    <use xlink:href="#rim"/>
    <path pointer-events="none" fill="none" stroke="white" stroke-width="1.5" d="M0,-3.0v7 M-2.5,-0.5L0,-3.0L2.5,-0.5"/>
  </g>
  <g id="arrowRight" transform="rotate(90) translate(36 -43)">
    <use xlink:href="#rim"/>
    <path pointer-events="none" fill="none" stroke="white" stroke-width="1.5" d="M0,-3.0v7 M-2.5,-0.5L0,-3.0L2.5,-0.5"/>
  </g>
  <g id="arrowDown" transform="rotate(180) translate(-30 -48)">
    <use xlink:href="#rim"/>
    <path pointer-events="none" fill="none" stroke="white" stroke-width="1.5" d="M0,-3.0v7 M-2.5,-0.5L0,-3.0L2.5,-0.5"/>
  </g>
  <g id="arrowLeft" transform="rotate(270) translate(-36 17)">
    <use xlink:href="#rim"/>
    <path pointer-events="none" fill="none" stroke="white" stroke-width="1.5" d="M0,-3.0v7 M-2.5,-0.5L0,-3.0L2.5,-0.5"/>
  </g>
  <g id="resetDef">
    <use xlink:href="#rim2" fill="#404040"><set attributeName="fill" to="#808080" begin="reset.mouseover" end="reset.mouseout"/></use>
  </g>
</defs>
<script type="application/ecmascript">
var viewWidth = 4175;
var viewHeight = 302;
var sectionId = 'dynsection-1';
</script>
<script type="application/ecmascript" xlink:href="../../svg.min.js"/>
<svg id="graph" class="graph">
<g id="viewport">
<title>src/app/seamly2d/dialogs/vabstractlayoutdialog.h</title>
<!-- Node1 -->
<g id="Node000001" class="node">
<title>Node1</title>
<g id="a_Node000001"><a xlink:title=" ">
<polygon fill="#999999" stroke="#666666" points="3862,-294 3721,-294 3721,-264 3862,-264 3862,-294"/>
<text text-anchor="start" x="3729" y="-282" font-family="Helvetica,sans-Serif" font-size="10.00">src/app/seamly2d/dialogs</text>
<text text-anchor="middle" x="3791.5" y="-271" font-family="Helvetica,sans-Serif" font-size="10.00">/vabstractlayoutdialog.h</text>
</a>
</g>
</g>
<!-- Node2 -->
<g id="Node000002" class="node">
<title>Node2</title>
<g id="a_Node000002"><a xlink:href="../../d2/d2b/dialoglayoutsettings_8h.html" target="_top" xlink:title=" ">
<polygon fill="white" stroke="#666666" points="2333,-228 2192,-228 2192,-198 2333,-198 2333,-228"/>
<text text-anchor="start" x="2200" y="-216" font-family="Helvetica,sans-Serif" font-size="10.00">src/app/seamly2d/dialogs</text>
<text text-anchor="middle" x="2262.5" y="-205" font-family="Helvetica,sans-Serif" font-size="10.00">/dialoglayoutsettings.h</text>
</a>
</g>
</g>
<!-- Node1&#45;&gt;Node2 -->
<g id="edge1_Node000001_Node000002" class="edge">
<title>Node1&#45;&gt;Node2</title>
<g id="a_edge1_Node000001_Node000002"><a xlink:title=" ">
<path fill="none" stroke="#63b8ff" d="M3710.78,-274.62C3442.91,-263.41 2586.05,-227.54 2333.31,-216.96"/>
<polygon fill="#63b8ff" stroke="#63b8ff" points="3710.68,-278.12 3720.82,-275.04 3710.97,-271.13 3710.68,-278.12"/>
</a>
</g>
</g>
<!-- Node24 -->
<g id="Node000024" class="node">
<title>Node24</title>
<g id="a_Node000024"><a xlink:href="../../d5/de4/vabstractlayoutdialog_8cpp.html" target="_top" xlink:title=" ">
<polygon fill="white" stroke="#666666" points="4166.5,-30 4020.5,-30 4020.5,0 4166.5,0 4166.5,-30"/>
<text text-anchor="start" x="4028.5" y="-18" font-family="Helvetica,sans-Serif" font-size="10.00">src/app/seamly2d/dialogs</text>
<text text-anchor="middle" x="4093.5" y="-7" font-family="Helvetica,sans-Serif" font-size="10.00">/vabstractlayoutdialog.cpp</text>
</a>
</g>
</g>
<!-- Node1&#45;&gt;Node24 -->
<g id="edge41_Node000001_Node000024" class="edge">
<title>Node1&#45;&gt;Node24</title>
<g id="a_edge41_Node000001_Node000024"><a xlink:title=" ">
<path fill="none" stroke="#63b8ff" d="M3825.16,-258.7C3839.56,-249.94 3856.3,-239.07 3870.5,-228 3956.65,-160.83 4047.46,-65.69 4080.52,-30.13"/>
<polygon fill="#63b8ff" stroke="#63b8ff" points="3823.32,-255.73 3816.54,-263.87 3826.91,-261.73 3823.32,-255.73"/>
</a>
</g>
</g>
<!-- Node30 -->
<g id="Node000030" class="node">
<title>Node30</title>
<g id="a_Node000030"><a xlink:href="../../d1/d8e/export__layout__dialog_8h.html" target="_top" xlink:title=" ">
<polygon fill="white" stroke="#666666" points="3862,-228 3721,-228 3721,-198 3862,-198 3862,-228"/>
<text text-anchor="start" x="3729" y="-216" font-family="Helvetica,sans-Serif" font-size="10.00">src/app/seamly2d/dialogs</text>
<text text-anchor="middle" x="3791.5" y="-205" font-family="Helvetica,sans-Serif" font-size="10.00">/export_layout_dialog.h</text>
</a>
</g>
</g>
<!-- Node1&#45;&gt;Node30 -->
<g id="edge35_Node000001_Node000030" class="edge">
<title>Node1&#45;&gt;Node30</title>
<g id="a_edge35_Node000001_Node000030"><a xlink:title=" ">
<path fill="none" stroke="#63b8ff" d="M3791.5,-253.54C3791.5,-244.96 3791.5,-235.61 3791.5,-228.16"/>
<polygon fill="#63b8ff" stroke="#63b8ff" points="3788,-253.8 3791.5,-263.8 3795,-253.8 3788,-253.8"/>
</a>
</g>
</g>
<!-- Node3 -->
<g id="Node000003" class="node">
<title>Node3</title>
<g id="a_Node000003"><a xlink:href="../../df/d9b/vcmdexport_8cpp.html" target="_top" xlink:title=" ">
<polygon fill="white" stroke="#666666" points="2181,-96 2054,-96 2054,-66 2181,-66 2181,-96"/>
<text text-anchor="start" x="2062" y="-84" font-family="Helvetica,sans-Serif" font-size="10.00">src/app/seamly2d/core</text>
<text text-anchor="middle" x="2117.5" y="-73" font-family="Helvetica,sans-Serif" font-size="10.00">/vcmdexport.cpp</text>
</a>
</g>
</g>
<!-- Node2&#45;&gt;Node3 -->
<g id="edge2_Node000002_Node000003" class="edge">
<title>Node2&#45;&gt;Node3</title>
<g id="a_edge2_Node000002_Node000003"><a xlink:title=" ">
<path fill="none" stroke="#63b8ff" d="M2230.35,-192.36C2217.17,-183.71 2202.08,-173.02 2189.5,-162 2165.74,-141.2 2141.98,-112.99 2128.56,-96.23"/>
<polygon fill="#63b8ff" stroke="#63b8ff" points="2228.81,-195.53 2239.12,-198 2232.6,-189.64 2228.81,-195.53"/>
</a>
</g>
</g>
<!-- Node4 -->
<g id="Node000004" class="node">
<title>Node4</title>
<g id="a_Node000004"><a xlink:href="../../dd/d57/vcmdexport_8h.html" target="_top" xlink:title=" ">
<polygon fill="white" stroke="#666666" points="2326,-162 2199,-162 2199,-132 2326,-132 2326,-162"/>
<text text-anchor="start" x="2207" y="-150" font-family="Helvetica,sans-Serif" font-size="10.00">src/app/seamly2d/core</text>
<text text-anchor="middle" x="2262.5" y="-139" font-family="Helvetica,sans-Serif" font-size="10.00">/vcmdexport.h</text>
</a>
</g>
</g>
<!-- Node2&#45;&gt;Node4 -->
<g id="edge3_Node000002_Node000004" class="edge">
<title>Node2&#45;&gt;Node4</title>
<g id="a_edge3_Node000002_Node000004"><a xlink:title=" ">
<path fill="none" stroke="#63b8ff" d="M2262.5,-187.54C2262.5,-178.96 2262.5,-169.61 2262.5,-162.16"/>
<polygon fill="#63b8ff" stroke="#63b8ff" points="2259,-187.8 2262.5,-197.8 2266,-187.8 2259,-187.8"/>
</a>
</g>
</g>
<!-- Node16 -->
<g id="Node000016" class="node">
<title>Node16</title>
<g id="a_Node000016"><a xlink:href="../../db/def/dialoglayoutsettings_8cpp.html" target="_top" xlink:title=" ">
<polygon fill="white" stroke="#666666" points="141,-30 0,-30 0,0 141,0 141,-30"/>
<text text-anchor="start" x="8" y="-18" font-family="Helvetica,sans-Serif" font-size="10.00">src/app/seamly2d/dialogs</text>
<text text-anchor="middle" x="70.5" y="-7" font-family="Helvetica,sans-Serif" font-size="10.00">/dialoglayoutsettings.cpp</text>
</a>
</g>
</g>
<!-- Node2&#45;&gt;Node16 -->
<g id="edge33_Node000002_Node000016" class="edge">
<title>Node2&#45;&gt;Node16</title>
<g id="a_edge33_Node000002_Node000016"><a xlink:title=" ">
<path fill="none" stroke="#63b8ff" d="M2181.44,-207.64C1899.8,-191.93 937.87,-133.6 149.5,-30 146.74,-29.64 143.93,-29.25 141.09,-28.83"/>
<polygon fill="#63b8ff" stroke="#63b8ff" points="2181.39,-211.14 2191.57,-208.2 2181.78,-204.15 2181.39,-211.14"/>
</a>
</g>
</g>
<!-- Node27 -->
<g id="Node000027" class="node">
<title>Node27</title>
<g id="a_Node000027"><a xlink:href="../../d8/de8/mainwindowsnogui_8cpp.html" target="_top" xlink:title=" ">
<polygon fill="white" stroke="#666666" points="4002,-24.5 3781,-24.5 3781,-5.5 4002,-5.5 4002,-24.5"/>
<text text-anchor="middle" x="3891.5" y="-12.5" font-family="Helvetica,sans-Serif" font-size="10.00">src/app/seamly2d/mainwindowsnogui.cpp</text>
</a>
</g>
</g>
<!-- Node2&#45;&gt;Node27 -->
<g id="edge34_Node000002_Node000027" class="edge">
<title>Node2&#45;&gt;Node27</title>
<g id="a_edge34_Node000002_Node000027"><a xlink:title=" ">
<path fill="none" stroke="#63b8ff" d="M2343.46,-206.73C2537.79,-193.52 3045.73,-155.75 3466.5,-96 3609.78,-75.65 3778.23,-40.59 3852.73,-24.51"/>
<polygon fill="#63b8ff" stroke="#63b8ff" points="2343.07,-203.25 2333.33,-207.41 2343.54,-210.23 2343.07,-203.25"/>
</a>
</g>
</g>
<!-- Node4&#45;&gt;Node3 -->
<g id="edge28_Node000004_Node000003" class="edge">
<title>Node4&#45;&gt;Node3</title>
<g id="a_edge28_Node000004_Node000003"><a xlink:title=" ">
<path fill="none" stroke="#63b8ff" d="M2221.23,-127.78C2198.37,-117.69 2170.38,-105.34 2149.25,-96.01"/>
<polygon fill="#63b8ff" stroke="#63b8ff" points="2220.12,-131.12 2230.68,-131.95 2222.94,-124.71 2220.12,-131.12"/>
</a>
</g>
</g>
<!-- Node5 -->
<g id="Node000005" class="node">
<title>Node5</title>
<g id="a_Node000005"><a xlink:href="../../d9/d02/vapplication_8h.html" target="_top" xlink:title=" ">
<polygon fill="white" stroke="#666666" points="2326,-96 2199,-96 2199,-66 2326,-66 2326,-96"/>
<text text-anchor="start" x="2207" y="-84" font-family="Helvetica,sans-Serif" font-size="10.00">src/app/seamly2d/core</text>
<text text-anchor="middle" x="2262.5" y="-73" font-family="Helvetica,sans-Serif" font-size="10.00">/vapplication.h</text>
</a>
</g>
</g>
<!-- Node4&#45;&gt;Node5 -->
<g id="edge4_Node000004_Node000005" class="edge">
<title>Node4&#45;&gt;Node5</title>
<g id="a_edge4_Node000004_Node000005"><a xlink:title=" ">
<path fill="none" stroke="#63b8ff" d="M2262.5,-121.54C2262.5,-112.96 2262.5,-103.61 2262.5,-96.16"/>
<polygon fill="#63b8ff" stroke="#63b8ff" points="2259,-121.8 2262.5,-131.8 2266,-121.8 2259,-121.8"/>
</a>
</g>
</g>
<!-- Node29 -->
<g id="Node000029" class="node">
<title>Node29</title>
<g id="a_Node000029"><a xlink:href="../../d9/d53/mainwindow_8h.html" target="_top" xlink:title=" ">
<polygon fill="white" stroke="#666666" points="3457.5,-90.5 3281.5,-90.5 3281.5,-71.5 3457.5,-71.5 3457.5,-90.5"/>
<text text-anchor="middle" x="3369.5" y="-78.5" font-family="Helvetica,sans-Serif" font-size="10.00">src/app/seamly2d/mainwindow.h</text>
</a>
</g>
</g>
<!-- Node4&#45;&gt;Node29 -->
<g id="edge29_Node000004_Node000029" class="edge">
<title>Node4&#45;&gt;Node29</title>
<g id="a_edge29_Node000004_Node000029"><a xlink:title=" ">
<path fill="none" stroke="#63b8ff" d="M2336.64,-141.71C2533.52,-130.33 3068.89,-99.38 3281.12,-87.11"/>
<polygon fill="#63b8ff" stroke="#63b8ff" points="2336.18,-138.23 2326.4,-142.31 2336.58,-145.22 2336.18,-138.23"/>
</a>
</g>
</g>
<!-- Node6 -->
<g id="Node000006" class="node">
<title>Node6</title>
<g id="a_Node000006"><a xlink:href="../../d3/dd8/vapplication_8cpp.html" target="_top" xlink:title=" ">
<polygon fill="white" stroke="#666666" points="3433,-30 3306,-30 3306,0 3433,0 3433,-30"/>
<text text-anchor="start" x="3314" y="-18" font-family="Helvetica,sans-Serif" font-size="10.00">src/app/seamly2d/core</text>
<text text-anchor="middle" x="3369.5" y="-7" font-family="Helvetica,sans-Serif" font-size="10.00">/vapplication.cpp</text>
</a>
</g>
</g>
<!-- Node5&#45;&gt;Node6 -->
<g id="edge5_Node000005_Node000006" class="edge">
<title>Node5&#45;&gt;Node6</title>
<g id="a_edge5_Node000005_Node000006"><a xlink:title=" ">
<path fill="none" stroke="#63b8ff" d="M2336.08,-80C2505.92,-79.22 2938.21,-72.8 3296.5,-30 3299.58,-29.63 3302.72,-29.21 3305.88,-28.75"/>
<polygon fill="#63b8ff" stroke="#63b8ff" points="2335.99,-76.5 2326,-80.04 2336.01,-83.5 2335.99,-76.5"/>
</a>
</g>
</g>
<!-- Node7 -->
<g id="Node000007" class="node">
<title>Node7</title>
<g id="a_Node000007"><a xlink:href="../../d2/d00/vtooloptionspropertybrowser_8cpp.html" target="_top" xlink:title=" ">
<polygon fill="white" stroke="#666666" points="1450.5,-30 1270.5,-30 1270.5,0 1450.5,0 1450.5,-30"/>
<text text-anchor="start" x="1278.5" y="-18" font-family="Helvetica,sans-Serif" font-size="10.00">src/app/seamly2d/core</text>
<text text-anchor="middle" x="1360.5" y="-7" font-family="Helvetica,sans-Serif" font-size="10.00">/vtooloptionspropertybrowser.cpp</text>
</a>
</g>
</g>
<!-- Node5&#45;&gt;Node7 -->
<g id="edge6_Node000005_Node000007" class="edge">
<title>Node5&#45;&gt;Node7</title>
<g id="a_edge6_Node000005_Node000007"><a xlink:title=" ">
<path fill="none" stroke="#63b8ff" d="M2188.75,-66.05C1865.22,-27.99 1779.56,-60.46 1459.5,-30 1456.56,-29.72 1453.58,-29.42 1450.57,-29.09"/>
<polygon fill="#63b8ff" stroke="#63b8ff" points="2188.54,-69.55 2198.88,-67.25 2189.36,-62.6 2188.54,-69.55"/>
</a>
</g>
</g>
<!-- Node8 -->
<g id="Node000008" class="node">
<title>Node8</title>
<g id="a_Node000008"><a xlink:href="../../d7/dfa/calculator__dialog_8cpp.html" target="_top" xlink:title=" ">
<polygon fill="white" stroke="#666666" points="1610,-30 1469,-30 1469,0 1610,0 1610,-30"/>
<text text-anchor="start" x="1477" y="-18" font-family="Helvetica,sans-Serif" font-size="10.00">src/app/seamly2d/dialogs</text>
<text text-anchor="middle" x="1539.5" y="-7" font-family="Helvetica,sans-Serif" font-size="10.00">/calculator_dialog.cpp</text>
</a>
</g>
</g>
<!-- Node5&#45;&gt;Node8 -->
<g id="edge7_Node000005_Node000008" class="edge">
<title>Node5&#45;&gt;Node8</title>
<g id="a_edge7_Node000005_Node000008"><a xlink:title=" ">
<path fill="none" stroke="#63b8ff" d="M2188.63,-66.02C1935.46,-34.67 1867.65,-59.83 1618.5,-30 1615.73,-29.67 1612.92,-29.3 1610.08,-28.91"/>
<polygon fill="#63b8ff" stroke="#63b8ff" points="2188.52,-69.53 2198.87,-67.31 2189.39,-62.59 2188.52,-69.53"/>
</a>
</g>
</g>
<!-- Node9 -->
<g id="Node000009" class="node">
<title>Node9</title>
<g id="a_Node000009"><a xlink:href="../../d2/d2d/preferencesconfigurationpage_8cpp.html" target="_top" xlink:title=" ">
<polygon fill="white" stroke="#666666" points="1875,-30 1628,-30 1628,0 1875,0 1875,-30"/>
<text text-anchor="start" x="1636" y="-18" font-family="Helvetica,sans-Serif" font-size="10.00">src/app/seamly2d/dialogs</text>
<text text-anchor="middle" x="1751.5" y="-7" font-family="Helvetica,sans-Serif" font-size="10.00">/configpages/preferencesconfigurationpage.cpp</text>
</a>
</g>
</g>
<!-- Node5&#45;&gt;Node9 -->
<g id="edge8_Node000005_Node000009" class="edge">
<title>Node5&#45;&gt;Node9</title>
<g id="a_edge8_Node000005_Node000009"><a xlink:title=" ">
<path fill="none" stroke="#63b8ff" d="M2188.78,-65.99C2117.12,-55.52 1977.85,-40.09 1875.12,-29.05"/>
<polygon fill="#63b8ff" stroke="#63b8ff" points="2188.44,-69.48 2198.85,-67.5 2189.48,-62.56 2188.44,-69.48"/>
</a>
</g>
</g>
<!-- Node10 -->
<g id="Node000010" class="node">
<title>Node10</title>
<g id="a_Node000010"><a xlink:href="../../d9/d70/preferencesgraphicsviewpage_8cpp.html" target="_top" xlink:title=" ">
<polygon fill="white" stroke="#666666" points="2141.5,-30 1893.5,-30 1893.5,0 2141.5,0 2141.5,-30"/>
<text text-anchor="start" x="1901.5" y="-18" font-family="Helvetica,sans-Serif" font-size="10.00">src/app/seamly2d/dialogs</text>
<text text-anchor="middle" x="2017.5" y="-7" font-family="Helvetica,sans-Serif" font-size="10.00">/configpages/preferencesgraphicsviewpage.cpp</text>
</a>
</g>
</g>
<!-- Node5&#45;&gt;Node10 -->
<g id="edge9_Node000005_Node000010" class="edge">
<title>Node5&#45;&gt;Node10</title>
<g id="a_edge9_Node000005_Node000010"><a xlink:title=" ">
<path fill="none" stroke="#63b8ff" d="M2198.9,-63.39C2159.24,-53.03 2108.77,-39.84 2071.14,-30.01"/>
<polygon fill="#63b8ff" stroke="#63b8ff" points="2198.17,-66.81 2208.73,-65.95 2199.94,-60.04 2198.17,-66.81"/>
</a>
</g>
</g>
<!-- Node11 -->
<g id="Node000011" class="node">
<title>Node11</title>
<g id="a_Node000011"><a xlink:href="../../dc/d20/preferencespathpage_8cpp.html" target="_top" xlink:title=" ">
<polygon fill="white" stroke="#666666" points="2365,-30 2160,-30 2160,0 2365,0 2365,-30"/>
<text text-anchor="start" x="2168" y="-18" font-family="Helvetica,sans-Serif" font-size="10.00">src/app/seamly2d/dialogs</text>
<text text-anchor="middle" x="2262.5" y="-7" font-family="Helvetica,sans-Serif" font-size="10.00">/configpages/preferencespathpage.cpp</text>
</a>
</g>
</g>
<!-- Node5&#45;&gt;Node11 -->
<g id="edge10_Node000005_Node000011" class="edge">
<title>Node5&#45;&gt;Node11</title>
<g id="a_edge10_Node000005_Node000011"><a xlink:title=" ">
<path fill="none" stroke="#63b8ff" d="M2262.5,-55.54C2262.5,-46.96 2262.5,-37.61 2262.5,-30.16"/>
<polygon fill="#63b8ff" stroke="#63b8ff" points="2259,-55.8 2262.5,-65.8 2266,-55.8 2259,-55.8"/>
</a>
</g>
</g>
<!-- Node12 -->
<g id="Node000012" class="node">
<title>Node12</title>
<g id="a_Node000012"><a xlink:href="../../dc/d63/preferencespatternpage_8cpp.html" target="_top" xlink:title=" ">
<polygon fill="white" stroke="#666666" points="2601.5,-30 2383.5,-30 2383.5,0 2601.5,0 2601.5,-30"/>
<text text-anchor="start" x="2391.5" y="-18" font-family="Helvetica,sans-Serif" font-size="10.00">src/app/seamly2d/dialogs</text>
<text text-anchor="middle" x="2492.5" y="-7" font-family="Helvetica,sans-Serif" font-size="10.00">/configpages/preferencespatternpage.cpp</text>
</a>
</g>
</g>
<!-- Node5&#45;&gt;Node12 -->
<g id="edge11_Node000005_Node000012" class="edge">
<title>Node5&#45;&gt;Node12</title>
<g id="a_edge11_Node000005_Node000012"><a xlink:title=" ">
<path fill="none" stroke="#63b8ff" d="M2322.68,-63.25C2359.84,-52.91 2406.97,-39.8 2442.14,-30.01"/>
<polygon fill="#63b8ff" stroke="#63b8ff" points="2321.67,-59.9 2312.97,-65.95 2323.55,-66.65 2321.67,-59.9"/>
</a>
</g>
</g>
<!-- Node13 -->
<g id="Node000013" class="node">
<title>Node13</title>
<g id="a_Node000013"><a xlink:href="../../dd/dc2/decimalchart__dialog_8cpp.html" target="_top" xlink:title=" ">
<polygon fill="white" stroke="#666666" points="2761,-30 2620,-30 2620,0 2761,0 2761,-30"/>
<text text-anchor="start" x="2628" y="-18" font-family="Helvetica,sans-Serif" font-size="10.00">src/app/seamly2d/dialogs</text>
<text text-anchor="middle" x="2690.5" y="-7" font-family="Helvetica,sans-Serif" font-size="10.00">/decimalchart_dialog.cpp</text>
</a>
</g>
</g>
<!-- Node5&#45;&gt;Node13 -->
<g id="edge12_Node000005_Node000013" class="edge">
<title>Node5&#45;&gt;Node13</title>
<g id="a_edge12_Node000005_Node000013"><a xlink:title=" ">
<path fill="none" stroke="#63b8ff" d="M2336.2,-70.08C2406.71,-60.42 2515.99,-45.06 2610.5,-30 2613.56,-29.51 2616.69,-29 2619.85,-28.48"/>
<polygon fill="#63b8ff" stroke="#63b8ff" points="2335.52,-66.64 2326.09,-71.46 2336.47,-73.57 2335.52,-66.64"/>
</a>
</g>
</g>
<!-- Node14 -->
<g id="Node000014" class="node">
<title>Node14</title>
<g id="a_Node000014"><a xlink:href="../../dd/d64/dialogaboutapp_8cpp.html" target="_top" xlink:title=" ">
<polygon fill="white" stroke="#666666" points="2920,-30 2779,-30 2779,0 2920,0 2920,-30"/>
<text text-anchor="start" x="2787" y="-18" font-family="Helvetica,sans-Serif" font-size="10.00">src/app/seamly2d/dialogs</text>
<text text-anchor="middle" x="2849.5" y="-7" font-family="Helvetica,sans-Serif" font-size="10.00">/dialogaboutapp.cpp</text>
</a>
</g>
</g>
<!-- Node5&#45;&gt;Node14 -->
<g id="edge13_Node000005_Node000014" class="edge">
<title>Node5&#45;&gt;Node14</title>
<g id="a_edge13_Node000005_Node000014"><a xlink:title=" ">
<path fill="none" stroke="#63b8ff" d="M2336.5,-74.45C2435.42,-66.63 2616.09,-50.96 2769.5,-30 2772.57,-29.58 2775.71,-29.13 2778.87,-28.66"/>
<polygon fill="#63b8ff" stroke="#63b8ff" points="2336,-70.98 2326.31,-75.25 2336.55,-77.96 2336,-70.98"/>
</a>
</g>
</g>
<!-- Node15 -->
<g id="Node000015" class="node">
<title>Node15</title>
<g id="a_Node000015"><a xlink:href="../../d6/d89/dialoglayoutprogress_8cpp.html" target="_top" xlink:title=" ">
<polygon fill="white" stroke="#666666" points="3081,-30 2938,-30 2938,0 3081,0 3081,-30"/>
<text text-anchor="start" x="2946" y="-18" font-family="Helvetica,sans-Serif" font-size="10.00">src/app/seamly2d/dialogs</text>
<text text-anchor="middle" x="3009.5" y="-7" font-family="Helvetica,sans-Serif" font-size="10.00">/dialoglayoutprogress.cpp</text>
</a>
</g>
</g>
<!-- Node5&#45;&gt;Node15 -->
<g id="edge14_Node000005_Node000015" class="edge">
<title>Node5&#45;&gt;Node15</title>
<g id="a_edge14_Node000005_Node000015"><a xlink:title=" ">
<path fill="none" stroke="#63b8ff" d="M2336.12,-76.79C2459.15,-70.91 2714.16,-56.51 2928.5,-30 2931.47,-29.63 2934.51,-29.23 2937.56,-28.8"/>
<polygon fill="#63b8ff" stroke="#63b8ff" points="2335.89,-73.3 2326.06,-77.27 2336.22,-80.29 2335.89,-73.3"/>
</a>
</g>
</g>
<!-- Node5&#45;&gt;Node16 -->
<g id="edge15_Node000005_Node000016" class="edge">
<title>Node5&#45;&gt;Node16</title>
<g id="a_edge15_Node000005_Node000016"><a xlink:title=" ">
<path fill="none" stroke="#63b8ff" d="M2188.91,-66.1C1285.82,26.68 1048.78,-117.07 149.5,-30 146.73,-29.73 143.91,-29.42 141.06,-29.07"/>
<polygon fill="#63b8ff" stroke="#63b8ff" points="2188.59,-69.59 2198.89,-67.13 2189.31,-62.62 2188.59,-69.59"/>
</a>
</g>
</g>
<!-- Node17 -->
<g id="Node000017" class="node">
<title>Node17</title>
<g id="a_Node000017"><a xlink:href="../../de/d87/dialognewpattern_8cpp.html" target="_top" xlink:title=" ">
<polygon fill="white" stroke="#666666" points="300,-30 159,-30 159,0 300,0 300,-30"/>
<text text-anchor="start" x="167" y="-18" font-family="Helvetica,sans-Serif" font-size="10.00">src/app/seamly2d/dialogs</text>
<text text-anchor="middle" x="229.5" y="-7" font-family="Helvetica,sans-Serif" font-size="10.00">/dialognewpattern.cpp</text>
</a>
</g>
</g>
<!-- Node5&#45;&gt;Node17 -->
<g id="edge16_Node000005_Node000017" class="edge">
<title>Node5&#45;&gt;Node17</title>
<g id="a_edge16_Node000005_Node000017"><a xlink:title=" ">
<path fill="none" stroke="#63b8ff" d="M2188.76,-66.09C1356.13,20 1137.35,-110.87 308.5,-30 305.73,-29.73 302.91,-29.42 300.06,-29.07"/>
<polygon fill="#63b8ff" stroke="#63b8ff" points="2188.59,-69.59 2198.89,-67.14 2189.31,-62.62 2188.59,-69.59"/>
</a>
</g>
</g>
<!-- Node18 -->
<g id="Node000018" class="node">
<title>Node18</title>
<g id="a_Node000018"><a xlink:href="../../d5/d18/dialogpatternproperties_8cpp.html" target="_top" xlink:title=" ">
<polygon fill="white" stroke="#666666" points="473,-30 318,-30 318,0 473,0 473,-30"/>
<text text-anchor="start" x="326" y="-18" font-family="Helvetica,sans-Serif" font-size="10.00">src/app/seamly2d/dialogs</text>
<text text-anchor="middle" x="395.5" y="-7" font-family="Helvetica,sans-Serif" font-size="10.00">/dialogpatternproperties.cpp</text>
</a>
</g>
</g>
<!-- Node5&#45;&gt;Node18 -->
<g id="edge17_Node000005_Node000018" class="edge">
<title>Node5&#45;&gt;Node18</title>
<g id="a_edge17_Node000005_Node000018"><a xlink:title=" ">
<path fill="none" stroke="#63b8ff" d="M2188.85,-66.09C1432.68,12.8 1234.3,-98.87 481.5,-30 478.79,-29.75 476.03,-29.47 473.25,-29.16"/>
<polygon fill="#63b8ff" stroke="#63b8ff" points="2188.58,-69.58 2198.89,-67.15 2189.31,-62.62 2188.58,-69.58"/>
</a>
</g>
</g>
<!-- Node19 -->
<g id="Node000019" class="node">
<title>Node19</title>
<g id="a_Node000019"><a xlink:href="../../d5/dc5/dialogpreferences_8cpp.html" target="_top" xlink:title=" ">
<polygon fill="white" stroke="#666666" points="632,-30 491,-30 491,0 632,0 632,-30"/>
<text text-anchor="start" x="499" y="-18" font-family="Helvetica,sans-Serif" font-size="10.00">src/app/seamly2d/dialogs</text>
<text text-anchor="middle" x="561.5" y="-7" font-family="Helvetica,sans-Serif" font-size="10.00">/dialogpreferences.cpp</text>
</a>
</g>
</g>
<!-- Node5&#45;&gt;Node19 -->
<g id="edge18_Node000005_Node000019" class="edge">
<title>Node5&#45;&gt;Node19</title>
<g id="a_edge18_Node000005_Node000019"><a xlink:title=" ">
<path fill="none" stroke="#63b8ff" d="M2188.76,-66.08C1503,6.08 1322.39,-97.95 640.5,-30 637.73,-29.72 634.91,-29.41 632.06,-29.05"/>
<polygon fill="#63b8ff" stroke="#63b8ff" points="2188.58,-69.58 2198.89,-67.16 2189.32,-62.62 2188.58,-69.58"/>
</a>
</g>
</g>
<!-- Node20 -->
<g id="Node000020" class="node">
<title>Node20</title>
<g id="a_Node000020"><a xlink:href="../../dd/d54/export__layout__dialog_8cpp.html" target="_top" xlink:title=" ">
<polygon fill="white" stroke="#666666" points="3763,-30 3620,-30 3620,0 3763,0 3763,-30"/>
<text text-anchor="start" x="3628" y="-18" font-family="Helvetica,sans-Serif" font-size="10.00">src/app/seamly2d/dialogs</text>
<text text-anchor="middle" x="3691.5" y="-7" font-family="Helvetica,sans-Serif" font-size="10.00">/export_layout_dialog.cpp</text>
</a>
</g>
</g>
<!-- Node5&#45;&gt;Node20 -->
<g id="edge19_Node000005_Node000020" class="edge">
<title>Node5&#45;&gt;Node20</title>
<g id="a_edge19_Node000005_Node000020"><a xlink:title=" ">
<path fill="none" stroke="#63b8ff" d="M2336.5,-80.73C2540.27,-81.99 3126.58,-80.56 3610.5,-30 3613.48,-29.69 3616.52,-29.33 3619.58,-28.95"/>
<polygon fill="#63b8ff" stroke="#63b8ff" points="2336.24,-77.23 2326.22,-80.66 2336.2,-84.23 2336.24,-77.23"/>
</a>
</g>
</g>
<!-- Node21 -->
<g id="Node000021" class="node">
<title>Node21</title>
<g id="a_Node000021"><a xlink:href="../../db/d5c/groups__widget_8cpp.html" target="_top" xlink:title=" ">
<polygon fill="white" stroke="#666666" points="791,-30 650,-30 650,0 791,0 791,-30"/>
<text text-anchor="start" x="658" y="-18" font-family="Helvetica,sans-Serif" font-size="10.00">src/app/seamly2d/dialogs</text>
<text text-anchor="middle" x="720.5" y="-7" font-family="Helvetica,sans-Serif" font-size="10.00">/groups_widget.cpp</text>
</a>
</g>
</g>
<!-- Node5&#45;&gt;Node21 -->
<g id="edge20_Node000005_Node000021" class="edge">
<title>Node5&#45;&gt;Node21</title>
<g id="a_edge20_Node000005_Node000021"><a xlink:title=" ">
<path fill="none" stroke="#63b8ff" d="M2188.88,-66.09C1573.36,-0.57 1411.06,-91.76 799.5,-30 796.73,-29.72 793.91,-29.4 791.06,-29.04"/>
<polygon fill="#63b8ff" stroke="#63b8ff" points="2188.57,-69.58 2198.89,-67.17 2189.32,-62.62 2188.57,-69.58"/>
</a>
</g>
</g>
<!-- Node22 -->
<g id="Node000022" class="node">
<title>Node22</title>
<g id="a_Node000022"><a xlink:href="../../dd/d84/shortcuts__dialog_8cpp.html" target="_top" xlink:title=" ">
<polygon fill="white" stroke="#666666" points="950,-30 809,-30 809,0 950,0 950,-30"/>
<text text-anchor="start" x="817" y="-18" font-family="Helvetica,sans-Serif" font-size="10.00">src/app/seamly2d/dialogs</text>
<text text-anchor="middle" x="879.5" y="-7" font-family="Helvetica,sans-Serif" font-size="10.00">/shortcuts_dialog.cpp</text>
</a>
</g>
</g>
<!-- Node5&#45;&gt;Node22 -->
<g id="edge21_Node000005_Node000022" class="edge">
<title>Node5&#45;&gt;Node22</title>
<g id="a_edge21_Node000005_Node000022"><a xlink:title=" ">
<path fill="none" stroke="#63b8ff" d="M2188.8,-66.08C1643.67,-7.23 1499.66,-85.56 958.5,-30 955.73,-29.72 952.91,-29.39 950.06,-29.03"/>
<polygon fill="#63b8ff" stroke="#63b8ff" points="2188.57,-69.57 2198.89,-67.18 2189.33,-62.62 2188.57,-69.57"/>
</a>
</g>
</g>
<!-- Node23 -->
<g id="Node000023" class="node">
<title>Node23</title>
<g id="a_Node000023"><a xlink:href="../../d2/df4/show__info__dialog_8cpp.html" target="_top" xlink:title=" ">
<polygon fill="white" stroke="#666666" points="1109,-30 968,-30 968,0 1109,0 1109,-30"/>
<text text-anchor="start" x="976" y="-18" font-family="Helvetica,sans-Serif" font-size="10.00">src/app/seamly2d/dialogs</text>
<text text-anchor="middle" x="1038.5" y="-7" font-family="Helvetica,sans-Serif" font-size="10.00">/show_info_dialog.cpp</text>
</a>
</g>
</g>
<!-- Node5&#45;&gt;Node23 -->
<g id="edge22_Node000005_Node000023" class="edge">
<title>Node5&#45;&gt;Node23</title>
<g id="a_edge22_Node000005_Node000023"><a xlink:title=" ">
<path fill="none" stroke="#63b8ff" d="M2188.68,-66.06C1713.97,-13.88 1588.26,-79.37 1117.5,-30 1114.73,-29.71 1111.91,-29.38 1109.06,-29.02"/>
<polygon fill="#63b8ff" stroke="#63b8ff" points="2188.56,-69.57 2198.89,-67.2 2189.34,-62.61 2188.56,-69.57"/>
</a>
</g>
</g>
<!-- Node5&#45;&gt;Node24 -->
<g id="edge23_Node000005_Node000024" class="edge">
<title>Node5&#45;&gt;Node24</title>
<g id="a_edge23_Node000005_Node000024"><a xlink:title=" ">
<path fill="none" stroke="#63b8ff" d="M2336.64,-79.25C2625.79,-76.11 3678.09,-62.63 4010.5,-30 4013.7,-29.69 4016.96,-29.32 4020.25,-28.92"/>
<polygon fill="#63b8ff" stroke="#63b8ff" points="2336.24,-75.75 2326.27,-79.36 2336.31,-82.75 2336.24,-75.75"/>
</a>
</g>
</g>
<!-- Node25 -->
<g id="Node000025" class="node">
<title>Node25</title>
<g id="a_Node000025"><a xlink:href="../../dc/d14/app_2seamly2d_2main_8cpp.html" target="_top" xlink:title=" ">
<polygon fill="white" stroke="#666666" points="3602,-24.5 3451,-24.5 3451,-5.5 3602,-5.5 3602,-24.5"/>
<text text-anchor="middle" x="3526.5" y="-12.5" font-family="Helvetica,sans-Serif" font-size="10.00">src/app/seamly2d/main.cpp</text>
</a>
</g>
</g>
<!-- Node5&#45;&gt;Node25 -->
<g id="edge24_Node000005_Node000025" class="edge">
<title>Node5&#45;&gt;Node25</title>
<g id="a_edge24_Node000005_Node000025"><a xlink:title=" ">
<path fill="none" stroke="#63b8ff" d="M2336.49,-79.96C2522.64,-79.19 3025.23,-72.95 3441.5,-30 3454.44,-28.66 3468.41,-26.62 3481.2,-24.5"/>
<polygon fill="#63b8ff" stroke="#63b8ff" points="2336.26,-76.46 2326.28,-80 2336.29,-83.46 2336.26,-76.46"/>
</a>
</g>
</g>
<!-- Node26 -->
<g id="Node000026" class="node">
<title>Node26</title>
<g id="a_Node000026"><a xlink:href="../../d8/dd9/mainwindow_8cpp.html" target="_top" xlink:title=" ">
<polygon fill="white" stroke="#666666" points="3287.5,-24.5 3099.5,-24.5 3099.5,-5.5 3287.5,-5.5 3287.5,-24.5"/>
<text text-anchor="middle" x="3193.5" y="-12.5" font-family="Helvetica,sans-Serif" font-size="10.00">src/app/seamly2d/mainwindow.cpp</text>
</a>
</g>
</g>
<!-- Node5&#45;&gt;Node26 -->
<g id="edge25_Node000005_Node000026" class="edge">
<title>Node5&#45;&gt;Node26</title>
<g id="a_edge25_Node000005_Node000026"><a xlink:title=" ">
<path fill="none" stroke="#63b8ff" d="M2336.27,-77.36C2480.98,-71.78 2812.16,-57.01 3089.5,-30 3104.55,-28.53 3120.77,-26.55 3135.83,-24.53"/>
<polygon fill="#63b8ff" stroke="#63b8ff" points="2336.03,-73.87 2326.18,-77.75 2336.3,-80.86 2336.03,-73.87"/>
</a>
</g>
</g>
<!-- Node5&#45;&gt;Node27 -->
<g id="edge26_Node000005_Node000027" class="edge">
<title>Node5&#45;&gt;Node27</title>
<g id="a_edge26_Node000005_Node000027"><a xlink:title=" ">
<path fill="none" stroke="#63b8ff" d="M2336.31,-79.72C2555.43,-78.43 3221.18,-71.15 3771.5,-30 3789.59,-28.65 3809.16,-26.61 3827.14,-24.51"/>
<polygon fill="#63b8ff" stroke="#63b8ff" points="2336.2,-76.22 2326.22,-79.78 2336.24,-83.22 2336.2,-76.22"/>
</a>
</g>
</g>
<!-- Node28 -->
<g id="Node000028" class="node">
<title>Node28</title>
<g id="a_Node000028"><a xlink:href="../../d3/d49/vpattern_8cpp.html" target="_top" xlink:title=" ">
<polygon fill="white" stroke="#666666" points="1252,-30 1127,-30 1127,0 1252,0 1252,-30"/>
<text text-anchor="start" x="1135" y="-18" font-family="Helvetica,sans-Serif" font-size="10.00">src/app/seamly2d/xml</text>
<text text-anchor="middle" x="1189.5" y="-7" font-family="Helvetica,sans-Serif" font-size="10.00">/vpattern.cpp</text>
</a>
</g>
</g>
<!-- Node5&#45;&gt;Node28 -->
<g id="edge27_Node000005_Node000028" class="edge">
<title>Node5&#45;&gt;Node28</title>
<g id="a_edge27_Node000005_Node000028"><a xlink:title=" ">
<path fill="none" stroke="#63b8ff" d="M2188.81,-66.07C1777.67,-19.93 1668.21,-77.15 1261.5,-30 1258.46,-29.65 1255.36,-29.24 1252.24,-28.79"/>
<polygon fill="#63b8ff" stroke="#63b8ff" points="2188.55,-69.56 2198.89,-67.22 2189.34,-62.61 2188.55,-69.56"/>
</a>
</g>
</g>
<!-- Node29&#45;&gt;Node6 -->
<g id="edge30_Node000029_Node000006" class="edge">
<title>Node29&#45;&gt;Node6</title>
<g id="a_edge30_Node000029_Node000006"><a xlink:title=" ">
<path fill="none" stroke="#63b8ff" d="M3369.5,-61.35C3369.5,-51.47 3369.5,-39.51 3369.5,-30.36"/>
<polygon fill="#63b8ff" stroke="#63b8ff" points="3366,-61.37 3369.5,-71.37 3373,-61.37 3366,-61.37"/>
</a>
</g>
</g>
<!-- Node29&#45;&gt;Node25 -->
<g id="edge31_Node000029_Node000025" class="edge">
<title>Node29&#45;&gt;Node25</title>
<g id="a_edge31_Node000029_Node000025"><a xlink:title=" ">
<path fill="none" stroke="#63b8ff" d="M3400.14,-67.51C3431.17,-54.86 3478.34,-35.63 3505.41,-24.6"/>
<polygon fill="#63b8ff" stroke="#63b8ff" points="3398.61,-64.35 3390.67,-71.37 3401.26,-70.83 3398.61,-64.35"/>
</a>
</g>
</g>
<!-- Node29&#45;&gt;Node26 -->
<g id="edge32_Node000029_Node000026" class="edge">
<title>Node29&#45;&gt;Node26</title>
<g id="a_edge32_Node000029_Node000026"><a xlink:title=" ">
<path fill="none" stroke="#63b8ff" d="M3336.06,-67.84C3301.29,-55.2 3247.75,-35.73 3217.14,-24.6"/>
<polygon fill="#63b8ff" stroke="#63b8ff" points="3335.17,-71.24 3345.76,-71.37 3337.56,-64.66 3335.17,-71.24"/>
</a>
</g>
</g>
<!-- Node30&#45;&gt;Node20 -->
<g id="edge36_Node000030_Node000020" class="edge">
<title>Node30&#45;&gt;Node20</title>
<g id="a_edge36_Node000030_Node000020"><a xlink:title=" ">
<path fill="none" stroke="#63b8ff" d="M3717,-193.96C3701.42,-186.63 3686.89,-176.37 3677.5,-162 3650.48,-120.65 3672.45,-58.12 3684.68,-30.27"/>
<polygon fill="#63b8ff" stroke="#63b8ff" points="3715.7,-197.21 3726.27,-197.94 3718.46,-190.78 3715.7,-197.21"/>
</a>
</g>
</g>
<!-- Node30&#45;&gt;Node27 -->
<g id="edge37_Node000030_Node000027" class="edge">
<title>Node30&#45;&gt;Node27</title>
<g id="a_edge37_Node000030_Node000027"><a xlink:title=" ">
<path fill="none" stroke="#63b8ff" d="M3865.11,-193.94C3880.65,-186.62 3895.16,-176.35 3904.5,-162 3933.38,-117.64 3906.75,-48.98 3895.75,-24.8"/>
<polygon fill="#63b8ff" stroke="#63b8ff" points="3863.67,-190.75 3855.87,-197.93 3866.44,-197.18 3863.67,-190.75"/>
</a>
</g>
</g>
<!-- Node31 -->
<g id="Node000031" class="node">
<title>Node31</title>
<g id="a_Node000031"><a xlink:href="../../d1/d82/mainwindowsnogui_8h.html" target="_top" xlink:title=" ">
<polygon fill="white" stroke="#666666" points="3896,-156.5 3687,-156.5 3687,-137.5 3896,-137.5 3896,-156.5"/>
<text text-anchor="middle" x="3791.5" y="-144.5" font-family="Helvetica,sans-Serif" font-size="10.00">src/app/seamly2d/mainwindowsnogui.h</text>
</a>
</g>
</g>
<!-- Node30&#45;&gt;Node31 -->
<g id="edge38_Node000030_Node000031" class="edge">
<title>Node30&#45;&gt;Node31</title>
<g id="a_edge38_Node000030_Node000031"><a xlink:title=" ">
<path fill="none" stroke="#63b8ff" d="M3791.5,-187.6C3791.5,-176.8 3791.5,-164.78 3791.5,-156.84"/>
<polygon fill="#63b8ff" stroke="#63b8ff" points="3788,-187.8 3791.5,-197.8 3795,-187.8 3788,-187.8"/>
</a>
</g>
</g>
<!-- Node31&#45;&gt;Node27 -->
<g id="edge40_Node000031_Node000027" class="edge">
<title>Node31&#45;&gt;Node27</title>
<g id="a_edge40_Node000031_Node000027"><a xlink:title=" ">
<path fill="none" stroke="#63b8ff" d="M3804.22,-129.46C3825.67,-101.58 3868.31,-46.15 3884.78,-24.73"/>
<polygon fill="#63b8ff" stroke="#63b8ff" points="3801.38,-127.41 3798.06,-137.47 3806.93,-131.68 3801.38,-127.41"/>
</a>
</g>
</g>
<!-- Node31&#45;&gt;Node29 -->
<g id="edge39_Node000031_Node000029" class="edge">
<title>Node31&#45;&gt;Node29</title>
<g id="a_edge39_Node000031_Node000029"><a xlink:title=" ">
<path fill="none" stroke="#63b8ff" d="M3725,-135.91C3642.44,-123.39 3503.08,-102.26 3425.64,-90.51"/>
<polygon fill="#63b8ff" stroke="#63b8ff" points="3724.61,-139.4 3735.03,-137.44 3725.66,-132.48 3724.61,-139.4"/>
</a>
</g>
</g>
</g>
</svg>

<g id="navigator" transform="translate(0 0)" fill="#404254">
  <rect fill="#f2f5e9" fill-opacity="0.5" stroke="#606060" stroke-width=".5" x="0" y="0" width="60" height="60"/>
  <use id="zoomplus" xlink:href="#zoomPlus" x="17" y="9" onmousedown="handleZoom(evt,'in')"/>
  <use id="zoomminus" xlink:href="#zoomMin" x="42" y="9" onmousedown="handleZoom(evt,'out')"/>
  <use id="reset" xlink:href="#resetDef" x="30" y="36" onmousedown="handleReset()"/>
   <use id="arrowup" xlink:href="#arrowUp" x="0" y="0" onmousedown="handlePan(0,-1)"/>
  <use id="arrowright" xlink:href="#arrowRight" x="0" y="0" onmousedown="handlePan(1,0)"/>
  <use id="arrowdown" xlink:href="#arrowDown" x="0" y="0" onmousedown="handlePan(0,1)"/>
  <use id="arrowleft" xlink:href="#arrowLeft" x="0" y="0" onmousedown="handlePan(-1,0)"/>
</g>
<svg viewBox="0 0 15 15" width="100%" height="30px" preserveAspectRatio="xMaxYMin meet">
 <g id="arrow_out" transform="scale(0.3 0.3)">
  <a xlink:href="vabstractlayoutdialog_8h__dep__incl_org.svg" target="_base">
   <rect id="button" ry="5" rx="5" y="6" x="6" height="38" width="38"
        fill="#f2f5e9" fill-opacity="0.5" stroke="#606060" stroke-width="1.0"/>
   <path id="arrow"
     d="M 11.500037,31.436501 C 11.940474,20.09759 22.043105,11.32322 32.158766,21.979434 L 37.068811,17.246167 C 37.068811,17.246167 37.088388,32 37.088388,32 L 22.160133,31.978069 C 22.160133,31.978069 26.997745,27.140456 26.997745,27.140456 C 18.528582,18.264221 13.291696,25.230495 11.500037,31.436501 z"
     style="fill:#404040;"/>
  </a>
 </g>
</svg>

<style type='text/css'>
<![CDATA[
[data-mouse-over-selected='false'] { opacity: 0.7; }
[data-mouse-over-selected='true']  { opacity: 1.0; }
]]>
</style>
<script type="application/ecmascript"><![CDATA[
document.addEventListener('DOMContentLoaded', (event) => {
  highlightEdges();
  highlightAdjacentNodes();
});
]]></script>
</svg>
