<?xml version="1.0" encoding="UTF-8" standalone="no"?>
<!DOCTYPE svg PUBLIC "-//W3C//DTD SVG 1.1//EN"
 "http://www.w3.org/Graphics/SVG/1.1/DTD/svg11.dtd">
<!-- Generated by graphviz version 2.43.0 (0)
 -->
<!-- Title: src/app/seamly2d/dialogs/vabstractlayoutdialog.h Pages: 1 -->
<svg width="4175pt" height="307pt"
 viewBox="0.00 0.00 4174.50 307.00" xmlns="http://www.w3.org/2000/svg" xmlns:xlink="http://www.w3.org/1999/xlink">
<g id="graph0" class="graph" transform="scale(1 1) rotate(0) translate(4 303)">
<title>src/app/seamly2d/dialogs/vabstractlayoutdialog.h</title>
<polygon fill="white" stroke="transparent" points="-4,4 -4,-303 4170.5,-303 4170.5,4 -4,4"/>
<!-- Node1 -->
<g id="node1" class="node">
<title>Node1</title>
<g id="a_node1"><a xlink:title=" ">
<polygon fill="#bfbfbf" stroke="black" points="1944,-268.5 1944,-298.5 2085,-298.5 2085,-268.5 1944,-268.5"/>
<text text-anchor="start" x="1952" y="-286.5" font-family="Helvetica,sans-Serif" font-size="10.00">src/app/seamly2d/dialogs</text>
<text text-anchor="middle" x="2014.5" y="-275.5" font-family="Helvetica,sans-Serif" font-size="10.00">/vabstractlayoutdialog.h</text>
</a>
</g>
</g>
<!-- Node2 -->
<g id="node2" class="node">
<title>Node2</title>
<g id="a_node2"><a xlink:href="../../d2/d2b/dialoglayoutsettings_8h.html" target="_top" xlink:title=" ">
<polygon fill="white" stroke="black" points="1944,-201.5 1944,-231.5 2085,-231.5 2085,-201.5 1944,-201.5"/>
<text text-anchor="start" x="1952" y="-219.5" font-family="Helvetica,sans-Serif" font-size="10.00">src/app/seamly2d/dialogs</text>
<text text-anchor="middle" x="2014.5" y="-208.5" font-family="Helvetica,sans-Serif" font-size="10.00">/dialoglayoutsettings.h</text>
</a>
</g>
</g>
<!-- Node1&#45;&gt;Node2 -->
<g id="edge1" class="edge">
<title>Node1&#45;&gt;Node2</title>
<path fill="none" stroke="midnightblue" d="M2014.5,-258.11C2014.5,-249.15 2014.5,-239.32 2014.5,-231.58"/>
<polygon fill="midnightblue" stroke="midnightblue" points="2011,-258.4 2014.5,-268.4 2018,-258.4 2011,-258.4"/>
</g>
<!-- Node24 -->
<g id="node24" class="node">
<title>Node24</title>
<g id="a_node24"><a xlink:href="../../d5/de4/vabstractlayoutdialog_8cpp.html" target="_top" xlink:title=" ">
<polygon fill="white" stroke="black" points="4020.5,-0.5 4020.5,-30.5 4166.5,-30.5 4166.5,-0.5 4020.5,-0.5"/>
<text text-anchor="start" x="4028.5" y="-18.5" font-family="Helvetica,sans-Serif" font-size="10.00">src/app/seamly2d/dialogs</text>
<text text-anchor="middle" x="4093.5" y="-7.5" font-family="Helvetica,sans-Serif" font-size="10.00">/vabstractlayoutdialog.cpp</text>
</a>
</g>
</g>
<!-- Node1&#45;&gt;Node24 -->
<g id="edge41" class="edge">
<title>Node1&#45;&gt;Node24</title>
<path fill="none" stroke="midnightblue" d="M2095.59,-273.75C2367.19,-244.14 3269.56,-143.25 4011.5,-31 4014.36,-30.57 4017.27,-30.11 4020.21,-29.65"/>
<polygon fill="midnightblue" stroke="midnightblue" points="2094.99,-270.3 2085.43,-274.86 2095.75,-277.26 2094.99,-270.3"/>
</g>
<!-- Node30 -->
<g id="node30" class="node">
<title>Node30</title>
<g id="a_node30"><a xlink:href="../../d1/d8e/export__layout__dialog_8h.html" target="_top" xlink:title=" ">
<polygon fill="white" stroke="black" points="293,-201.5 293,-231.5 434,-231.5 434,-201.5 293,-201.5"/>
<text text-anchor="start" x="301" y="-219.5" font-family="Helvetica,sans-Serif" font-size="10.00">src/app/seamly2d/dialogs</text>
<text text-anchor="middle" x="363.5" y="-208.5" font-family="Helvetica,sans-Serif" font-size="10.00">/export_layout_dialog.h</text>
</a>
</g>
</g>
<!-- Node1&#45;&gt;Node30 -->
<g id="edge35" class="edge">
<title>Node1&#45;&gt;Node30</title>
<path fill="none" stroke="midnightblue" d="M1933.6,-279.32C1649.71,-268.14 701.55,-230.81 434.21,-220.28"/>
<polygon fill="midnightblue" stroke="midnightblue" points="1933.69,-282.82 1943.82,-279.72 1933.97,-275.83 1933.69,-282.82"/>
</g>
<!-- Node3 -->
<g id="node3" class="node">
<title>Node3</title>
<g id="a_node3"><a xlink:href="../../dd/d57/vcmdexport_8h.html" target="_top" xlink:title=" ">
<polygon fill="white" stroke="black" points="1892,-134.5 1892,-164.5 2019,-164.5 2019,-134.5 1892,-134.5"/>
<text text-anchor="start" x="1900" y="-152.5" font-family="Helvetica,sans-Serif" font-size="10.00">src/app/seamly2d/core</text>
<text text-anchor="middle" x="1955.5" y="-141.5" font-family="Helvetica,sans-Serif" font-size="10.00">/vcmdexport.h</text>
</a>
</g>
</g>
<!-- Node2&#45;&gt;Node3 -->
<g id="edge2" class="edge">
<title>Node2&#45;&gt;Node3</title>
<path fill="none" stroke="midnightblue" d="M1994.75,-193.74C1986.02,-184.12 1976,-173.09 1968.28,-164.58"/>
<polygon fill="midnightblue" stroke="midnightblue" points="1992.39,-196.34 2001.7,-201.4 1997.57,-191.64 1992.39,-196.34"/>
</g>
<!-- Node13 -->
<g id="node13" class="node">
<title>Node13</title>
<g id="a_node13"><a xlink:href="../../db/def/dialoglayoutsettings_8cpp.html" target="_top" xlink:title=" ">
<polygon fill="white" stroke="black" points="3861,-0.5 3861,-30.5 4002,-30.5 4002,-0.5 3861,-0.5"/>
<text text-anchor="start" x="3869" y="-18.5" font-family="Helvetica,sans-Serif" font-size="10.00">src/app/seamly2d/dialogs</text>
<text text-anchor="middle" x="3931.5" y="-7.5" font-family="Helvetica,sans-Serif" font-size="10.00">/dialoglayoutsettings.cpp</text>
</a>
</g>
</g>
<!-- Node2&#45;&gt;Node13 -->
<g id="edge33" class="edge">
<title>Node2&#45;&gt;Node13</title>
<path fill="none" stroke="midnightblue" d="M2095.3,-209.75C2352.67,-190.94 3176.07,-126.86 3852.5,-31 3855.26,-30.61 3858.07,-30.19 3860.91,-29.75"/>
<polygon fill="midnightblue" stroke="midnightblue" points="2095.01,-206.26 2085.29,-210.48 2095.52,-213.25 2095.01,-206.26"/>
</g>
<!-- Node25 -->
<g id="node25" class="node">
<title>Node25</title>
<g id="a_node25"><a xlink:href="../../d8/de8/mainwindowsnogui_8cpp.html" target="_top" xlink:title=" ">
<polygon fill="white" stroke="black" points="0,-6 0,-25 221,-25 221,-6 0,-6"/>
<text text-anchor="middle" x="110.5" y="-13" font-family="Helvetica,sans-Serif" font-size="10.00">src/app/seamly2d/mainwindowsnogui.cpp</text>
</a>
</g>
</g>
<!-- Node2&#45;&gt;Node25 -->
<g id="edge34" class="edge">
<title>Node2&#45;&gt;Node25</title>
<path fill="none" stroke="midnightblue" d="M1933.71,-211.42C1715.18,-199.83 1094.3,-163.26 581.5,-98 422,-77.7 234.14,-41.45 152.21,-25.01"/>
<polygon fill="midnightblue" stroke="midnightblue" points="1933.64,-214.92 1943.81,-211.95 1934.01,-207.93 1933.64,-214.92"/>
</g>
<!-- Node28 -->
<g id="node28" class="node">
<title>Node28</title>
<g id="a_node28"><a xlink:href="../../df/d9b/vcmdexport_8cpp.html" target="_top" xlink:title=" ">
<polygon fill="white" stroke="black" points="2023,-67.5 2023,-97.5 2150,-97.5 2150,-67.5 2023,-67.5"/>
<text text-anchor="start" x="2031" y="-85.5" font-family="Helvetica,sans-Serif" font-size="10.00">src/app/seamly2d/core</text>
<text text-anchor="middle" x="2086.5" y="-74.5" font-family="Helvetica,sans-Serif" font-size="10.00">/vcmdexport.cpp</text>
</a>
</g>
</g>
<!-- Node2&#45;&gt;Node28 -->
<g id="edge32" class="edge">
<title>Node2&#45;&gt;Node28</title>
<path fill="none" stroke="midnightblue" d="M2027.06,-192.48C2042.01,-165.07 2066.49,-120.19 2078.85,-97.52"/>
<polygon fill="midnightblue" stroke="midnightblue" points="2023.92,-190.92 2022.21,-201.37 2030.07,-194.27 2023.92,-190.92"/>
</g>
<!-- Node4 -->
<g id="node4" class="node">
<title>Node4</title>
<g id="a_node4"><a xlink:href="../../d9/d02/vapplication_8h.html" target="_top" xlink:title=" ">
<polygon fill="white" stroke="black" points="1878,-67.5 1878,-97.5 2005,-97.5 2005,-67.5 1878,-67.5"/>
<text text-anchor="start" x="1886" y="-85.5" font-family="Helvetica,sans-Serif" font-size="10.00">src/app/seamly2d/core</text>
<text text-anchor="middle" x="1941.5" y="-74.5" font-family="Helvetica,sans-Serif" font-size="10.00">/vapplication.h</text>
</a>
</g>
</g>
<!-- Node3&#45;&gt;Node4 -->
<g id="edge3" class="edge">
<title>Node3&#45;&gt;Node4</title>
<path fill="none" stroke="midnightblue" d="M1950.31,-124.4C1948.36,-115.37 1946.22,-105.41 1944.53,-97.58"/>
<polygon fill="midnightblue" stroke="midnightblue" points="1946.94,-125.36 1952.46,-134.4 1953.78,-123.88 1946.94,-125.36"/>
</g>
<!-- Node3&#45;&gt;Node28 -->
<g id="edge27" class="edge">
<title>Node3&#45;&gt;Node28</title>
<path fill="none" stroke="midnightblue" d="M1993.08,-129.85C2013.79,-119.58 2039.09,-107.03 2058.13,-97.58"/>
<polygon fill="midnightblue" stroke="midnightblue" points="1991.33,-126.82 1983.93,-134.4 1994.44,-133.09 1991.33,-126.82"/>
</g>
<!-- Node29 -->
<g id="node29" class="node">
<title>Node29</title>
<g id="a_node29"><a xlink:href="../../d9/d53/mainwindow_8h.html" target="_top" xlink:title=" ">
<polygon fill="white" stroke="black" points="590.5,-73 590.5,-92 766.5,-92 766.5,-73 590.5,-73"/>
<text text-anchor="middle" x="678.5" y="-80" font-family="Helvetica,sans-Serif" font-size="10.00">src/app/seamly2d/mainwindow.h</text>
</a>
</g>
</g>
<!-- Node3&#45;&gt;Node29 -->
<g id="edge28" class="edge">
<title>Node3&#45;&gt;Node29</title>
<path fill="none" stroke="midnightblue" d="M1881.54,-144.74C1660.44,-133.48 1005.1,-100.12 766.58,-87.98"/>
<polygon fill="midnightblue" stroke="midnightblue" points="1881.57,-148.24 1891.74,-145.25 1881.93,-141.25 1881.57,-148.24"/>
</g>
<!-- Node5 -->
<g id="node5" class="node">
<title>Node5</title>
<g id="a_node5"><a xlink:href="../../d3/dd8/vapplication_8cpp.html" target="_top" xlink:title=" ">
<polygon fill="white" stroke="black" points="776,-0.5 776,-30.5 903,-30.5 903,-0.5 776,-0.5"/>
<text text-anchor="start" x="784" y="-18.5" font-family="Helvetica,sans-Serif" font-size="10.00">src/app/seamly2d/core</text>
<text text-anchor="middle" x="839.5" y="-7.5" font-family="Helvetica,sans-Serif" font-size="10.00">/vapplication.cpp</text>
</a>
</g>
</g>
<!-- Node4&#45;&gt;Node5 -->
<g id="edge4" class="edge">
<title>Node4&#45;&gt;Node5</title>
<path fill="none" stroke="midnightblue" d="M1867.87,-81.66C1698.41,-81.21 1267.98,-75.38 911.5,-31 908.72,-30.65 905.88,-30.26 903.02,-29.83"/>
<polygon fill="midnightblue" stroke="midnightblue" points="1867.92,-85.16 1877.92,-81.68 1867.93,-78.16 1867.92,-85.16"/>
</g>
<!-- Node6 -->
<g id="node6" class="node">
<title>Node6</title>
<g id="a_node6"><a xlink:href="../../d7/dfa/calculator__dialog_8cpp.html" target="_top" xlink:title=" ">
<polygon fill="white" stroke="black" points="2788,-0.5 2788,-30.5 2929,-30.5 2929,-0.5 2788,-0.5"/>
<text text-anchor="start" x="2796" y="-18.5" font-family="Helvetica,sans-Serif" font-size="10.00">src/app/seamly2d/dialogs</text>
<text text-anchor="middle" x="2858.5" y="-7.5" font-family="Helvetica,sans-Serif" font-size="10.00">/calculator_dialog.cpp</text>
</a>
</g>
</g>
<!-- Node4&#45;&gt;Node6 -->
<g id="edge5" class="edge">
<title>Node4&#45;&gt;Node6</title>
<path fill="none" stroke="midnightblue" d="M2015.21,-67.06C2354.13,-26.58 2444.65,-69.43 2779.5,-31 2782.27,-30.68 2785.09,-30.33 2787.94,-29.94"/>
<polygon fill="midnightblue" stroke="midnightblue" points="2014.62,-63.61 2005.11,-68.28 2015.46,-70.56 2014.62,-63.61"/>
</g>
<!-- Node7 -->
<g id="node7" class="node">
<title>Node7</title>
<g id="a_node7"><a xlink:href="../../d2/d2d/preferencesconfigurationpage_8cpp.html" target="_top" xlink:title=" ">
<polygon fill="white" stroke="black" points="2947,-0.5 2947,-30.5 3194,-30.5 3194,-0.5 2947,-0.5"/>
<text text-anchor="start" x="2955" y="-18.5" font-family="Helvetica,sans-Serif" font-size="10.00">src/app/seamly2d/dialogs</text>
<text text-anchor="middle" x="3070.5" y="-7.5" font-family="Helvetica,sans-Serif" font-size="10.00">/configpages/preferencesconfigurationpage.cpp</text>
</a>
</g>
</g>
<!-- Node4&#45;&gt;Node7 -->
<g id="edge6" class="edge">
<title>Node4&#45;&gt;Node7</title>
<path fill="none" stroke="midnightblue" d="M2015.14,-67.08C2424.37,-19.5 2531.95,-61.21 2938.5,-31 2941.26,-30.79 2944.05,-30.58 2946.86,-30.35"/>
<polygon fill="midnightblue" stroke="midnightblue" points="2014.63,-63.61 2005.11,-68.25 2015.45,-70.56 2014.63,-63.61"/>
</g>
<!-- Node8 -->
<g id="node8" class="node">
<title>Node8</title>
<g id="a_node8"><a xlink:href="../../d9/d70/preferencesgraphicsviewpage_8cpp.html" target="_top" xlink:title=" ">
<polygon fill="white" stroke="black" points="3212.5,-0.5 3212.5,-30.5 3460.5,-30.5 3460.5,-0.5 3212.5,-0.5"/>
<text text-anchor="start" x="3220.5" y="-18.5" font-family="Helvetica,sans-Serif" font-size="10.00">src/app/seamly2d/dialogs</text>
<text text-anchor="middle" x="3336.5" y="-7.5" font-family="Helvetica,sans-Serif" font-size="10.00">/configpages/preferencesgraphicsviewpage.cpp</text>
</a>
</g>
</g>
<!-- Node4&#45;&gt;Node8 -->
<g id="edge7" class="edge">
<title>Node4&#45;&gt;Node8</title>
<path fill="none" stroke="midnightblue" d="M2015.24,-67.08C2541.55,-8.06 2679.44,-67.44 3203.5,-31 3206.4,-30.8 3209.33,-30.58 3212.28,-30.35"/>
<polygon fill="midnightblue" stroke="midnightblue" points="2014.65,-63.62 2005.1,-68.22 2015.43,-70.58 2014.65,-63.62"/>
</g>
<!-- Node9 -->
<g id="node9" class="node">
<title>Node9</title>
<g id="a_node9"><a xlink:href="../../dc/d20/preferencespathpage_8cpp.html" target="_top" xlink:title=" ">
<polygon fill="white" stroke="black" points="3479,-0.5 3479,-30.5 3684,-30.5 3684,-0.5 3479,-0.5"/>
<text text-anchor="start" x="3487" y="-18.5" font-family="Helvetica,sans-Serif" font-size="10.00">src/app/seamly2d/dialogs</text>
<text text-anchor="middle" x="3581.5" y="-7.5" font-family="Helvetica,sans-Serif" font-size="10.00">/configpages/preferencespathpage.cpp</text>
</a>
</g>
</g>
<!-- Node4&#45;&gt;Node9 -->
<g id="edge8" class="edge">
<title>Node4&#45;&gt;Node9</title>
<path fill="none" stroke="midnightblue" d="M2015.1,-67.1C2659.15,3.41 2827.85,-80.34 3469.5,-31 3472.53,-30.77 3475.6,-30.51 3478.7,-30.23"/>
<polygon fill="midnightblue" stroke="midnightblue" points="2014.66,-63.63 2005.1,-68.2 2015.42,-70.58 2014.66,-63.63"/>
</g>
<!-- Node10 -->
<g id="node10" class="node">
<title>Node10</title>
<g id="a_node10"><a xlink:href="../../dd/dc2/decimalchart__dialog_8cpp.html" target="_top" xlink:title=" ">
<polygon fill="white" stroke="black" points="3702,-0.5 3702,-30.5 3843,-30.5 3843,-0.5 3702,-0.5"/>
<text text-anchor="start" x="3710" y="-18.5" font-family="Helvetica,sans-Serif" font-size="10.00">src/app/seamly2d/dialogs</text>
<text text-anchor="middle" x="3772.5" y="-7.5" font-family="Helvetica,sans-Serif" font-size="10.00">/decimalchart_dialog.cpp</text>
</a>
</g>
</g>
<!-- Node4&#45;&gt;Node10 -->
<g id="edge9" class="edge">
<title>Node4&#45;&gt;Node10</title>
<path fill="none" stroke="midnightblue" d="M2015.25,-67.09C2758.25,12.93 2954.3,-106.27 3693.5,-31 3696.27,-30.72 3699.1,-30.39 3701.95,-30.03"/>
<polygon fill="midnightblue" stroke="midnightblue" points="2014.66,-63.63 2005.1,-68.19 2015.42,-70.59 2014.66,-63.63"/>
</g>
<!-- Node11 -->
<g id="node11" class="node">
<title>Node11</title>
<g id="a_node11"><a xlink:href="../../d6/d89/dialoglayoutprogress_8cpp.html" target="_top" xlink:title=" ">
<polygon fill="white" stroke="black" points="921,-0.5 921,-30.5 1064,-30.5 1064,-0.5 921,-0.5"/>
<text text-anchor="start" x="929" y="-18.5" font-family="Helvetica,sans-Serif" font-size="10.00">src/app/seamly2d/dialogs</text>
<text text-anchor="middle" x="992.5" y="-7.5" font-family="Helvetica,sans-Serif" font-size="10.00">/dialoglayoutprogress.cpp</text>
</a>
</g>
</g>
<!-- Node4&#45;&gt;Node11 -->
<g id="edge10" class="edge">
<title>Node4&#45;&gt;Node11</title>
<path fill="none" stroke="midnightblue" d="M1867.82,-80.17C1717.82,-76.81 1366.4,-65.61 1073.5,-31 1070.52,-30.65 1067.49,-30.26 1064.42,-29.83"/>
<polygon fill="midnightblue" stroke="midnightblue" points="1867.76,-83.67 1877.84,-80.39 1867.92,-76.67 1867.76,-83.67"/>
</g>
<!-- Node12 -->
<g id="node12" class="node">
<title>Node12</title>
<g id="a_node12"><a xlink:href="../../d2/d00/vtooloptionspropertybrowser_8cpp.html" target="_top" xlink:title=" ">
<polygon fill="white" stroke="black" points="1082.5,-0.5 1082.5,-30.5 1262.5,-30.5 1262.5,-0.5 1082.5,-0.5"/>
<text text-anchor="start" x="1090.5" y="-18.5" font-family="Helvetica,sans-Serif" font-size="10.00">src/app/seamly2d/core</text>
<text text-anchor="middle" x="1172.5" y="-7.5" font-family="Helvetica,sans-Serif" font-size="10.00">/vtooloptionspropertybrowser.cpp</text>
</a>
</g>
</g>
<!-- Node4&#45;&gt;Node12 -->
<g id="edge11" class="edge">
<title>Node4&#45;&gt;Node12</title>
<path fill="none" stroke="midnightblue" d="M1867.51,-77.63C1743.85,-70.77 1487.45,-54.92 1271.5,-31 1268.56,-30.67 1265.58,-30.33 1262.57,-29.97"/>
<polygon fill="midnightblue" stroke="midnightblue" points="1867.44,-81.13 1877.62,-78.18 1867.83,-74.14 1867.44,-81.13"/>
</g>
<!-- Node4&#45;&gt;Node13 -->
<g id="edge12" class="edge">
<title>Node4&#45;&gt;Node13</title>
<path fill="none" stroke="midnightblue" d="M2015.3,-67.08C2828.58,19.82 3042.96,-112.68 3852.5,-31 3855.27,-30.72 3858.1,-30.4 3860.95,-30.03"/>
<polygon fill="midnightblue" stroke="midnightblue" points="2014.67,-63.63 2005.1,-68.18 2015.42,-70.59 2014.67,-63.63"/>
</g>
<!-- Node14 -->
<g id="node14" class="node">
<title>Node14</title>
<g id="a_node14"><a xlink:href="../../dd/d64/dialogaboutapp_8cpp.html" target="_top" xlink:title=" ">
<polygon fill="white" stroke="black" points="1281,-0.5 1281,-30.5 1422,-30.5 1422,-0.5 1281,-0.5"/>
<text text-anchor="start" x="1289" y="-18.5" font-family="Helvetica,sans-Serif" font-size="10.00">src/app/seamly2d/dialogs</text>
<text text-anchor="middle" x="1351.5" y="-7.5" font-family="Helvetica,sans-Serif" font-size="10.00">/dialogaboutapp.cpp</text>
</a>
</g>
</g>
<!-- Node4&#45;&gt;Node14 -->
<g id="edge13" class="edge">
<title>Node4&#45;&gt;Node14</title>
<path fill="none" stroke="midnightblue" d="M1867.71,-76.14C1768.17,-68.47 1585.46,-52.84 1430.5,-31 1427.74,-30.61 1424.93,-30.19 1422.09,-29.76"/>
<polygon fill="midnightblue" stroke="midnightblue" points="1867.73,-79.65 1877.97,-76.93 1868.26,-72.67 1867.73,-79.65"/>
</g>
<!-- Node15 -->
<g id="node15" class="node">
<title>Node15</title>
<g id="a_node15"><a xlink:href="../../de/d87/dialognewpattern_8cpp.html" target="_top" xlink:title=" ">
<polygon fill="white" stroke="black" points="1440,-0.5 1440,-30.5 1581,-30.5 1581,-0.5 1440,-0.5"/>
<text text-anchor="start" x="1448" y="-18.5" font-family="Helvetica,sans-Serif" font-size="10.00">src/app/seamly2d/dialogs</text>
<text text-anchor="middle" x="1510.5" y="-7.5" font-family="Helvetica,sans-Serif" font-size="10.00">/dialognewpattern.cpp</text>
</a>
</g>
</g>
<!-- Node4&#45;&gt;Node15 -->
<g id="edge14" class="edge">
<title>Node4&#45;&gt;Node15</title>
<path fill="none" stroke="midnightblue" d="M1867.57,-71.75C1796.25,-62.14 1685.32,-46.66 1589.5,-31 1586.75,-30.55 1583.94,-30.08 1581.11,-29.6"/>
<polygon fill="midnightblue" stroke="midnightblue" points="1867.42,-75.26 1877.8,-73.12 1868.35,-68.32 1867.42,-75.26"/>
</g>
<!-- Node16 -->
<g id="node16" class="node">
<title>Node16</title>
<g id="a_node16"><a xlink:href="../../d5/d18/dialogpatternproperties_8cpp.html" target="_top" xlink:title=" ">
<polygon fill="white" stroke="black" points="1599,-0.5 1599,-30.5 1754,-30.5 1754,-0.5 1599,-0.5"/>
<text text-anchor="start" x="1607" y="-18.5" font-family="Helvetica,sans-Serif" font-size="10.00">src/app/seamly2d/dialogs</text>
<text text-anchor="middle" x="1676.5" y="-7.5" font-family="Helvetica,sans-Serif" font-size="10.00">/dialogpatternproperties.cpp</text>
</a>
</g>
</g>
<!-- Node4&#45;&gt;Node16 -->
<g id="edge15" class="edge">
<title>Node4&#45;&gt;Node16</title>
<path fill="none" stroke="midnightblue" d="M1874.44,-65.05C1831.12,-54.43 1775.33,-40.74 1734.03,-30.61"/>
<polygon fill="midnightblue" stroke="midnightblue" points="1873.78,-68.49 1884.33,-67.48 1875.45,-61.69 1873.78,-68.49"/>
</g>
<!-- Node17 -->
<g id="node17" class="node">
<title>Node17</title>
<g id="a_node17"><a xlink:href="../../d5/dc5/dialogpreferences_8cpp.html" target="_top" xlink:title=" ">
<polygon fill="white" stroke="black" points="1772,-0.5 1772,-30.5 1913,-30.5 1913,-0.5 1772,-0.5"/>
<text text-anchor="start" x="1780" y="-18.5" font-family="Helvetica,sans-Serif" font-size="10.00">src/app/seamly2d/dialogs</text>
<text text-anchor="middle" x="1842.5" y="-7.5" font-family="Helvetica,sans-Serif" font-size="10.00">/dialogpreferences.cpp</text>
</a>
</g>
</g>
<!-- Node4&#45;&gt;Node17 -->
<g id="edge16" class="edge">
<title>Node4&#45;&gt;Node17</title>
<path fill="none" stroke="midnightblue" d="M1911.39,-61.73C1896.08,-51.68 1877.81,-39.68 1863.94,-30.58"/>
<polygon fill="midnightblue" stroke="midnightblue" points="1909.74,-64.83 1920.02,-67.4 1913.58,-58.98 1909.74,-64.83"/>
</g>
<!-- Node18 -->
<g id="node18" class="node">
<title>Node18</title>
<g id="a_node18"><a xlink:href="../../dc/d63/preferencespatternpage_8cpp.html" target="_top" xlink:title=" ">
<polygon fill="white" stroke="black" points="1931.5,-0.5 1931.5,-30.5 2149.5,-30.5 2149.5,-0.5 1931.5,-0.5"/>
<text text-anchor="start" x="1939.5" y="-18.5" font-family="Helvetica,sans-Serif" font-size="10.00">src/app/seamly2d/dialogs</text>
<text text-anchor="middle" x="2040.5" y="-7.5" font-family="Helvetica,sans-Serif" font-size="10.00">/configpages/preferencespatternpage.cpp</text>
</a>
</g>
</g>
<!-- Node4&#45;&gt;Node18 -->
<g id="edge17" class="edge">
<title>Node4&#45;&gt;Node18</title>
<path fill="none" stroke="midnightblue" d="M1971.61,-61.73C1986.92,-51.68 2005.19,-39.68 2019.06,-30.58"/>
<polygon fill="midnightblue" stroke="midnightblue" points="1969.42,-58.98 1962.98,-67.4 1973.26,-64.83 1969.42,-58.98"/>
</g>
<!-- Node19 -->
<g id="node19" class="node">
<title>Node19</title>
<g id="a_node19"><a xlink:href="../../dd/d54/export__layout__dialog_8cpp.html" target="_top" xlink:title=" ">
<polygon fill="white" stroke="black" points="239,-0.5 239,-30.5 382,-30.5 382,-0.5 239,-0.5"/>
<text text-anchor="start" x="247" y="-18.5" font-family="Helvetica,sans-Serif" font-size="10.00">src/app/seamly2d/dialogs</text>
<text text-anchor="middle" x="310.5" y="-7.5" font-family="Helvetica,sans-Serif" font-size="10.00">/export_layout_dialog.cpp</text>
</a>
</g>
</g>
<!-- Node4&#45;&gt;Node19 -->
<g id="edge18" class="edge">
<title>Node4&#45;&gt;Node19</title>
<path fill="none" stroke="midnightblue" d="M1867.38,-80.53C1599.52,-76.8 682.13,-62.01 390.5,-31 387.83,-30.72 385.12,-30.4 382.39,-30.04"/>
<polygon fill="midnightblue" stroke="midnightblue" points="1867.72,-84.03 1877.77,-80.67 1867.82,-77.04 1867.72,-84.03"/>
</g>
<!-- Node20 -->
<g id="node20" class="node">
<title>Node20</title>
<g id="a_node20"><a xlink:href="../../dd/d84/shortcuts__dialog_8cpp.html" target="_top" xlink:title=" ">
<polygon fill="white" stroke="black" points="2168,-0.5 2168,-30.5 2309,-30.5 2309,-0.5 2168,-0.5"/>
<text text-anchor="start" x="2176" y="-18.5" font-family="Helvetica,sans-Serif" font-size="10.00">src/app/seamly2d/dialogs</text>
<text text-anchor="middle" x="2238.5" y="-7.5" font-family="Helvetica,sans-Serif" font-size="10.00">/shortcuts_dialog.cpp</text>
</a>
</g>
</g>
<!-- Node4&#45;&gt;Node20 -->
<g id="edge19" class="edge">
<title>Node4&#45;&gt;Node20</title>
<path fill="none" stroke="midnightblue" d="M2015.1,-65.39C2063.99,-54.69 2127.56,-40.78 2174.38,-30.53"/>
<polygon fill="midnightblue" stroke="midnightblue" points="2014.23,-62 2005.21,-67.56 2015.73,-68.84 2014.23,-62"/>
</g>
<!-- Node21 -->
<g id="node21" class="node">
<title>Node21</title>
<g id="a_node21"><a xlink:href="../../db/d5c/groups__widget_8cpp.html" target="_top" xlink:title=" ">
<polygon fill="white" stroke="black" points="2327,-0.5 2327,-30.5 2468,-30.5 2468,-0.5 2327,-0.5"/>
<text text-anchor="start" x="2335" y="-18.5" font-family="Helvetica,sans-Serif" font-size="10.00">src/app/seamly2d/dialogs</text>
<text text-anchor="middle" x="2397.5" y="-7.5" font-family="Helvetica,sans-Serif" font-size="10.00">/groups_widget.cpp</text>
</a>
</g>
</g>
<!-- Node4&#45;&gt;Node21 -->
<g id="edge20" class="edge">
<title>Node4&#45;&gt;Node21</title>
<path fill="none" stroke="midnightblue" d="M2015.08,-66.99C2150.58,-45.98 2187.12,-50.82 2318.5,-31 2321.26,-30.58 2324.07,-30.14 2326.9,-29.69"/>
<polygon fill="midnightblue" stroke="midnightblue" points="2014.49,-63.54 2005.15,-68.55 2015.57,-70.46 2014.49,-63.54"/>
</g>
<!-- Node22 -->
<g id="node22" class="node">
<title>Node22</title>
<g id="a_node22"><a xlink:href="../../d2/df4/show__info__dialog_8cpp.html" target="_top" xlink:title=" ">
<polygon fill="white" stroke="black" points="2486,-0.5 2486,-30.5 2627,-30.5 2627,-0.5 2486,-0.5"/>
<text text-anchor="start" x="2494" y="-18.5" font-family="Helvetica,sans-Serif" font-size="10.00">src/app/seamly2d/dialogs</text>
<text text-anchor="middle" x="2556.5" y="-7.5" font-family="Helvetica,sans-Serif" font-size="10.00">/show_info_dialog.cpp</text>
</a>
</g>
</g>
<!-- Node4&#45;&gt;Node22 -->
<g id="edge21" class="edge">
<title>Node4&#45;&gt;Node22</title>
<path fill="none" stroke="midnightblue" d="M2015.34,-67.01C2220.74,-39.44 2276.13,-57.24 2477.5,-31 2480.27,-30.64 2483.08,-30.25 2485.92,-29.83"/>
<polygon fill="midnightblue" stroke="midnightblue" points="2014.56,-63.58 2005.13,-68.4 2015.51,-70.52 2014.56,-63.58"/>
</g>
<!-- Node23 -->
<g id="node23" class="node">
<title>Node23</title>
<g id="a_node23"><a xlink:href="../../dc/d14/app_2seamly2d_2main_8cpp.html" target="_top" xlink:title=" ">
<polygon fill="white" stroke="black" points="400,-6 400,-25 551,-25 551,-6 400,-6"/>
<text text-anchor="middle" x="475.5" y="-13" font-family="Helvetica,sans-Serif" font-size="10.00">src/app/seamly2d/main.cpp</text>
</a>
</g>
</g>
<!-- Node4&#45;&gt;Node23 -->
<g id="edge22" class="edge">
<title>Node4&#45;&gt;Node23</title>
<path fill="none" stroke="midnightblue" d="M1867.3,-80.08C1618.85,-75.14 817.39,-57.49 560.5,-31 546.95,-29.6 532.29,-27.37 519.03,-25.06"/>
<polygon fill="midnightblue" stroke="midnightblue" points="1867.59,-83.59 1877.66,-80.29 1867.73,-76.59 1867.59,-83.59"/>
</g>
<!-- Node4&#45;&gt;Node24 -->
<g id="edge23" class="edge">
<title>Node4&#45;&gt;Node24</title>
<path fill="none" stroke="midnightblue" d="M2015.2,-67.1C2898.87,26.76 3131.28,-116.23 4011.5,-31 4014.38,-30.72 4017.31,-30.4 4020.26,-30.04"/>
<polygon fill="midnightblue" stroke="midnightblue" points="2014.67,-63.63 2005.1,-68.17 2015.41,-70.59 2014.67,-63.63"/>
</g>
<!-- Node4&#45;&gt;Node25 -->
<g id="edge24" class="edge">
<title>Node4&#45;&gt;Node25</title>
<path fill="none" stroke="midnightblue" d="M1867.38,-81.74C1629.2,-81.99 862.03,-78.76 229.5,-31 210.61,-29.57 190.12,-27.33 171.54,-25.03"/>
<polygon fill="midnightblue" stroke="midnightblue" points="1867.66,-85.24 1877.65,-81.73 1867.65,-78.24 1867.66,-85.24"/>
</g>
<!-- Node26 -->
<g id="node26" class="node">
<title>Node26</title>
<g id="a_node26"><a xlink:href="../../d3/d49/vpattern_8cpp.html" target="_top" xlink:title=" ">
<polygon fill="white" stroke="black" points="2645,-0.5 2645,-30.5 2770,-30.5 2770,-0.5 2645,-0.5"/>
<text text-anchor="start" x="2653" y="-18.5" font-family="Helvetica,sans-Serif" font-size="10.00">src/app/seamly2d/xml</text>
<text text-anchor="middle" x="2707.5" y="-7.5" font-family="Helvetica,sans-Serif" font-size="10.00">/vpattern.cpp</text>
</a>
</g>
</g>
<!-- Node4&#45;&gt;Node26 -->
<g id="edge25" class="edge">
<title>Node4&#45;&gt;Node26</title>
<path fill="none" stroke="midnightblue" d="M2015.43,-67.02C2290.98,-32.78 2365.27,-66.36 2636.5,-31 2639.24,-30.64 2642.04,-30.24 2644.86,-29.8"/>
<polygon fill="midnightblue" stroke="midnightblue" points="2014.6,-63.6 2005.12,-68.33 2015.48,-70.55 2014.6,-63.6"/>
</g>
<!-- Node27 -->
<g id="node27" class="node">
<title>Node27</title>
<g id="a_node27"><a xlink:href="../../d8/dd9/mainwindow_8cpp.html" target="_top" xlink:title=" ">
<polygon fill="white" stroke="black" points="569.5,-6 569.5,-25 757.5,-25 757.5,-6 569.5,-6"/>
<text text-anchor="middle" x="663.5" y="-13" font-family="Helvetica,sans-Serif" font-size="10.00">src/app/seamly2d/mainwindow.cpp</text>
</a>
</g>
</g>
<!-- Node4&#45;&gt;Node27 -->
<g id="edge26" class="edge">
<title>Node4&#45;&gt;Node27</title>
<path fill="none" stroke="midnightblue" d="M1867.82,-80.81C1682.44,-78.54 1181.83,-69.07 766.5,-31 750.32,-29.52 732.78,-27.28 716.84,-25.01"/>
<polygon fill="midnightblue" stroke="midnightblue" points="1867.95,-84.31 1877.99,-80.93 1868.03,-77.31 1867.95,-84.31"/>
</g>
<!-- Node29&#45;&gt;Node5 -->
<g id="edge29" class="edge">
<title>Node29&#45;&gt;Node5</title>
<path fill="none" stroke="midnightblue" d="M709.32,-69.06C736.59,-58.05 776.36,-41.99 804.75,-30.53"/>
<polygon fill="midnightblue" stroke="midnightblue" points="707.84,-65.88 699.88,-72.87 710.46,-72.37 707.84,-65.88"/>
</g>
<!-- Node29&#45;&gt;Node23 -->
<g id="edge30" class="edge">
<title>Node29&#45;&gt;Node23</title>
<path fill="none" stroke="midnightblue" d="M641.85,-69.77C601.63,-56.89 538.03,-36.52 502.25,-25.06"/>
<polygon fill="midnightblue" stroke="midnightblue" points="640.95,-73.15 651.54,-72.87 643.09,-66.49 640.95,-73.15"/>
</g>
<!-- Node29&#45;&gt;Node27 -->
<g id="edge31" class="edge">
<title>Node29&#45;&gt;Node27</title>
<path fill="none" stroke="midnightblue" d="M674.21,-62.91C671.34,-50.49 667.7,-34.72 665.49,-25.13"/>
<polygon fill="midnightblue" stroke="midnightblue" points="670.82,-63.78 676.48,-72.73 677.64,-62.2 670.82,-63.78"/>
</g>
<!-- Node30&#45;&gt;Node19 -->
<g id="edge36" class="edge">
<title>Node30&#45;&gt;Node19</title>
<path fill="none" stroke="midnightblue" d="M336.84,-194.41C328.44,-186.21 320.15,-176.1 315.5,-165 296.26,-119.08 303.19,-58 307.76,-30.71"/>
<polygon fill="midnightblue" stroke="midnightblue" points="334.73,-197.23 344.48,-201.38 339.45,-192.05 334.73,-197.23"/>
</g>
<!-- Node30&#45;&gt;Node25 -->
<g id="edge40" class="edge">
<title>Node30&#45;&gt;Node25</title>
<path fill="none" stroke="midnightblue" d="M337.16,-194.78C282.55,-151.83 158.98,-54.64 121.49,-25.14"/>
<polygon fill="midnightblue" stroke="midnightblue" points="335.28,-197.76 345.3,-201.19 339.61,-192.26 335.28,-197.76"/>
</g>
<!-- Node31 -->
<g id="node31" class="node">
<title>Node31</title>
<g id="a_node31"><a xlink:href="../../d1/d82/mainwindowsnogui_8h.html" target="_top" xlink:title=" ">
<polygon fill="white" stroke="black" points="325,-140 325,-159 534,-159 534,-140 325,-140"/>
<text text-anchor="middle" x="429.5" y="-147" font-family="Helvetica,sans-Serif" font-size="10.00">src/app/seamly2d/mainwindowsnogui.h</text>
</a>
</g>
</g>
<!-- Node30&#45;&gt;Node31 -->
<g id="edge37" class="edge">
<title>Node30&#45;&gt;Node31</title>
<path fill="none" stroke="midnightblue" d="M384.99,-194.34C397.11,-182.4 411.59,-168.14 420.67,-159.19"/>
<polygon fill="midnightblue" stroke="midnightblue" points="382.49,-191.89 377.82,-201.4 387.4,-196.87 382.49,-191.89"/>
</g>
<!-- Node31&#45;&gt;Node25 -->
<g id="edge39" class="edge">
<title>Node31&#45;&gt;Node25</title>
<path fill="none" stroke="midnightblue" d="M398.97,-135.86C334.45,-109.17 185.7,-47.62 131.09,-25.02"/>
<polygon fill="midnightblue" stroke="midnightblue" points="397.99,-139.25 408.57,-139.84 400.67,-132.78 397.99,-139.25"/>
</g>
<!-- Node31&#45;&gt;Node29 -->
<g id="edge38" class="edge">
<title>Node31&#45;&gt;Node29</title>
<path fill="none" stroke="midnightblue" d="M472.01,-137.4C521.15,-124.58 600.98,-103.74 645.62,-92.08"/>
<polygon fill="midnightblue" stroke="midnightblue" points="471.1,-134.02 462.31,-139.94 472.87,-140.8 471.1,-134.02"/>
</g>
</g>
</svg>
