<?xml version="1.0" encoding="UTF-8" standalone="no"?>
<!DOCTYPE svg PUBLIC "-//W3C//DTD SVG 1.1//EN"
 "http://www.w3.org/Graphics/SVG/1.1/DTD/svg11.dtd">
<!-- Generated by graphviz version 2.43.0 (0)
 -->
<!-- Title: src/app/seamly2d/dialogs/vabstractlayoutdialog.h Pages: 1 -->
<!--zoomable 307 -->
<svg id="main" version="1.1" xmlns="http://www.w3.org/2000/svg" xmlns:xlink="http://www.w3.org/1999/xlink" xml:space="preserve" onload="init(evt)">
<style type="text/css"><![CDATA[
.edge:hover path { stroke: red; }
.edge:hover polygon { stroke: red; fill: red; }
]]></style>
<script type="text/javascript"><![CDATA[
var edges = document.getElementsByTagName('g');
if (edges && edges.length) {
  for (var i=0;i<edges.length;i++) {
    if (edges[i].id.substr(0,4)=='edge') {
      edges[i].setAttribute('class','edge');
    }
  }
}
]]></script>
        <defs>
                <circle id="rim" cx="0" cy="0" r="7"/>
                <circle id="rim2" cx="0" cy="0" r="3.5"/>
                <g id="zoomPlus">
                        <use xlink:href="#rim" fill="#404040">
                                <set attributeName="fill" to="#808080" begin="zoomplus.mouseover" end="zoomplus.mouseout"/>
                        </use>
                        <path d="M-4,0h8M0,-4v8" fill="none" stroke="white" stroke-width="1.5" pointer-events="none"/>
                </g>
                <g id="zoomMin">
                        <use xlink:href="#rim" fill="#404040">
                                <set attributeName="fill" to="#808080" begin="zoomminus.mouseover" end="zoomminus.mouseout"/>
                        </use>
                        <path d="M-4,0h8" fill="none" stroke="white" stroke-width="1.5" pointer-events="none"/>
                </g>
                <g id="dirArrow">
                        <path fill="none" stroke="white" stroke-width="1.5" d="M0,-3.0v7 M-2.5,-0.5L0,-3.0L2.5,-0.5"/>
                </g>
               <g id="resetDef">
                       <use xlink:href="#rim2" fill="#404040">
                               <set attributeName="fill" to="#808080" begin="reset.mouseover" end="reset.mouseout"/>
                       </use>
               </g>
        </defs>

<script type="text/javascript">
var viewWidth = 4175;
var viewHeight = 307;
var sectionId = 'dynsection-1';
</script>
<script xlink:href="../../svgpan.js"/>
<svg id="graph" class="graph">
<g id="viewport">
<title>src/app/seamly2d/dialogs/vabstractlayoutdialog.h</title>
<polygon fill="white" stroke="transparent" points="-4,4 -4,-303 4170.5,-303 4170.5,4 -4,4"/>
<!-- Node1 -->
<g id="node1" class="node">
<title>Node1</title>
<g id="a_node1"><a xlink:title=" ">
<polygon fill="#bfbfbf" stroke="black" points="2001,-268.5 2001,-298.5 2142,-298.5 2142,-268.5 2001,-268.5"/>
<text text-anchor="start" x="2009" y="-286.5" font-family="Helvetica,sans-Serif" font-size="10.00">src/app/seamly2d/dialogs</text>
<text text-anchor="middle" x="2071.5" y="-275.5" font-family="Helvetica,sans-Serif" font-size="10.00">/vabstractlayoutdialog.h</text>
</a>
</g>
</g>
<!-- Node2 -->
<g id="node2" class="node">
<title>Node2</title>
<g id="a_node2"><a xlink:href="../../d2/d2b/dialoglayoutsettings_8h.html" target="_top" xlink:title=" ">
<polygon fill="white" stroke="black" points="2001,-201.5 2001,-231.5 2142,-231.5 2142,-201.5 2001,-201.5"/>
<text text-anchor="start" x="2009" y="-219.5" font-family="Helvetica,sans-Serif" font-size="10.00">src/app/seamly2d/dialogs</text>
<text text-anchor="middle" x="2071.5" y="-208.5" font-family="Helvetica,sans-Serif" font-size="10.00">/dialoglayoutsettings.h</text>
</a>
</g>
</g>
<!-- Node1&#45;&gt;Node2 -->
<g id="edge1" class="edge">
<title>Node1&#45;&gt;Node2</title>
<path fill="none" stroke="midnightblue" d="M2071.5,-258.11C2071.5,-249.15 2071.5,-239.32 2071.5,-231.58"/>
<polygon fill="midnightblue" stroke="midnightblue" points="2068,-258.4 2071.5,-268.4 2075,-258.4 2068,-258.4"/>
</g>
<!-- Node23 -->
<g id="node23" class="node">
<title>Node23</title>
<g id="a_node23"><a xlink:href="../../d5/de4/vabstractlayoutdialog_8cpp.html" target="_top" xlink:title=" ">
<polygon fill="white" stroke="black" points="4020.5,-0.5 4020.5,-30.5 4166.5,-30.5 4166.5,-0.5 4020.5,-0.5"/>
<text text-anchor="start" x="4028.5" y="-18.5" font-family="Helvetica,sans-Serif" font-size="10.00">src/app/seamly2d/dialogs</text>
<text text-anchor="middle" x="4093.5" y="-7.5" font-family="Helvetica,sans-Serif" font-size="10.00">/vabstractlayoutdialog.cpp</text>
</a>
</g>
</g>
<!-- Node1&#45;&gt;Node23 -->
<g id="edge41" class="edge">
<title>Node1&#45;&gt;Node23</title>
<path fill="none" stroke="midnightblue" d="M2152.09,-273.4C2418.11,-243.08 3292.26,-141.15 4011.5,-31 4014.36,-30.56 4017.27,-30.1 4020.21,-29.63"/>
<polygon fill="midnightblue" stroke="midnightblue" points="2151.67,-269.93 2142.13,-274.54 2152.47,-276.88 2151.67,-269.93"/>
</g>
<!-- Node30 -->
<g id="node30" class="node">
<title>Node30</title>
<g id="a_node30"><a xlink:href="../../d1/d8e/export__layout__dialog_8h.html" target="_top" xlink:title=" ">
<polygon fill="white" stroke="black" points="293,-201.5 293,-231.5 434,-231.5 434,-201.5 293,-201.5"/>
<text text-anchor="start" x="301" y="-219.5" font-family="Helvetica,sans-Serif" font-size="10.00">src/app/seamly2d/dialogs</text>
<text text-anchor="middle" x="363.5" y="-208.5" font-family="Helvetica,sans-Serif" font-size="10.00">/export_layout_dialog.h</text>
</a>
</g>
</g>
<!-- Node1&#45;&gt;Node30 -->
<g id="edge35" class="edge">
<title>Node1&#45;&gt;Node30</title>
<path fill="none" stroke="midnightblue" d="M1990.77,-279.43C1699.89,-268.36 708.17,-230.62 434.15,-220.19"/>
<polygon fill="midnightblue" stroke="midnightblue" points="1990.7,-282.93 2000.82,-279.81 1990.96,-275.93 1990.7,-282.93"/>
</g>
<!-- Node3 -->
<g id="node3" class="node">
<title>Node3</title>
<g id="a_node3"><a xlink:href="../../dd/d57/vcmdexport_8h.html" target="_top" xlink:title=" ">
<polygon fill="white" stroke="black" points="1949,-134.5 1949,-164.5 2076,-164.5 2076,-134.5 1949,-134.5"/>
<text text-anchor="start" x="1957" y="-152.5" font-family="Helvetica,sans-Serif" font-size="10.00">src/app/seamly2d/core</text>
<text text-anchor="middle" x="2012.5" y="-141.5" font-family="Helvetica,sans-Serif" font-size="10.00">/vcmdexport.h</text>
</a>
</g>
</g>
<!-- Node2&#45;&gt;Node3 -->
<g id="edge2" class="edge">
<title>Node2&#45;&gt;Node3</title>
<path fill="none" stroke="midnightblue" d="M2051.75,-193.74C2043.02,-184.12 2033,-173.09 2025.28,-164.58"/>
<polygon fill="midnightblue" stroke="midnightblue" points="2049.39,-196.34 2058.7,-201.4 2054.57,-191.64 2049.39,-196.34"/>
</g>
<!-- Node14 -->
<g id="node14" class="node">
<title>Node14</title>
<g id="a_node14"><a xlink:href="../../db/def/dialoglayoutsettings_8cpp.html" target="_top" xlink:title=" ">
<polygon fill="white" stroke="black" points="3861,-0.5 3861,-30.5 4002,-30.5 4002,-0.5 3861,-0.5"/>
<text text-anchor="start" x="3869" y="-18.5" font-family="Helvetica,sans-Serif" font-size="10.00">src/app/seamly2d/dialogs</text>
<text text-anchor="middle" x="3931.5" y="-7.5" font-family="Helvetica,sans-Serif" font-size="10.00">/dialoglayoutsettings.cpp</text>
</a>
</g>
</g>
<!-- Node2&#45;&gt;Node14 -->
<g id="edge33" class="edge">
<title>Node2&#45;&gt;Node14</title>
<path fill="none" stroke="midnightblue" d="M2152.34,-209.39C2404.56,-189.86 3199.21,-124.65 3852.5,-31 3855.26,-30.6 3858.07,-30.18 3860.91,-29.74"/>
<polygon fill="midnightblue" stroke="midnightblue" points="2151.87,-205.92 2142.17,-210.18 2152.41,-212.9 2151.87,-205.92"/>
</g>
<!-- Node25 -->
<g id="node25" class="node">
<title>Node25</title>
<g id="a_node25"><a xlink:href="../../d8/de8/mainwindowsnogui_8cpp.html" target="_top" xlink:title=" ">
<polygon fill="white" stroke="black" points="0,-6 0,-25 221,-25 221,-6 0,-6"/>
<text text-anchor="middle" x="110.5" y="-13" font-family="Helvetica,sans-Serif" font-size="10.00">src/app/seamly2d/mainwindowsnogui.cpp</text>
</a>
</g>
</g>
<!-- Node2&#45;&gt;Node25 -->
<g id="edge34" class="edge">
<title>Node2&#45;&gt;Node25</title>
<path fill="none" stroke="midnightblue" d="M1990.64,-211.76C1766.28,-200.82 1117.15,-165.32 581.5,-98 421.97,-77.95 234.13,-41.57 152.21,-25.06"/>
<polygon fill="midnightblue" stroke="midnightblue" points="1990.53,-215.26 2000.69,-212.25 1990.87,-208.27 1990.53,-215.26"/>
</g>
<!-- Node28 -->
<g id="node28" class="node">
<title>Node28</title>
<g id="a_node28"><a xlink:href="../../df/d9b/vcmdexport_8cpp.html" target="_top" xlink:title=" ">
<polygon fill="white" stroke="black" points="2080,-67.5 2080,-97.5 2207,-97.5 2207,-67.5 2080,-67.5"/>
<text text-anchor="start" x="2088" y="-85.5" font-family="Helvetica,sans-Serif" font-size="10.00">src/app/seamly2d/core</text>
<text text-anchor="middle" x="2143.5" y="-74.5" font-family="Helvetica,sans-Serif" font-size="10.00">/vcmdexport.cpp</text>
</a>
</g>
</g>
<!-- Node2&#45;&gt;Node28 -->
<g id="edge32" class="edge">
<title>Node2&#45;&gt;Node28</title>
<path fill="none" stroke="midnightblue" d="M2084.06,-192.48C2099.01,-165.07 2123.49,-120.19 2135.85,-97.52"/>
<polygon fill="midnightblue" stroke="midnightblue" points="2080.92,-190.92 2079.21,-201.37 2087.07,-194.27 2080.92,-190.92"/>
</g>
<!-- Node4 -->
<g id="node4" class="node">
<title>Node4</title>
<g id="a_node4"><a xlink:href="../../d9/d02/vapplication_8h.html" target="_top" xlink:title=" ">
<polygon fill="white" stroke="black" points="1935,-67.5 1935,-97.5 2062,-97.5 2062,-67.5 1935,-67.5"/>
<text text-anchor="start" x="1943" y="-85.5" font-family="Helvetica,sans-Serif" font-size="10.00">src/app/seamly2d/core</text>
<text text-anchor="middle" x="1998.5" y="-74.5" font-family="Helvetica,sans-Serif" font-size="10.00">/vapplication.h</text>
</a>
</g>
</g>
<!-- Node3&#45;&gt;Node4 -->
<g id="edge3" class="edge">
<title>Node3&#45;&gt;Node4</title>
<path fill="none" stroke="midnightblue" d="M2007.31,-124.4C2005.36,-115.37 2003.22,-105.41 2001.53,-97.58"/>
<polygon fill="midnightblue" stroke="midnightblue" points="2003.94,-125.36 2009.46,-134.4 2010.78,-123.88 2003.94,-125.36"/>
</g>
<!-- Node3&#45;&gt;Node28 -->
<g id="edge27" class="edge">
<title>Node3&#45;&gt;Node28</title>
<path fill="none" stroke="midnightblue" d="M2050.08,-129.85C2070.79,-119.58 2096.09,-107.03 2115.13,-97.58"/>
<polygon fill="midnightblue" stroke="midnightblue" points="2048.33,-126.82 2040.93,-134.4 2051.44,-133.09 2048.33,-126.82"/>
</g>
<!-- Node29 -->
<g id="node29" class="node">
<title>Node29</title>
<g id="a_node29"><a xlink:href="../../d9/d53/mainwindow_8h.html" target="_top" xlink:title=" ">
<polygon fill="white" stroke="black" points="590.5,-73 590.5,-92 766.5,-92 766.5,-73 590.5,-73"/>
<text text-anchor="middle" x="678.5" y="-80" font-family="Helvetica,sans-Serif" font-size="10.00">src/app/seamly2d/mainwindow.h</text>
</a>
</g>
</g>
<!-- Node3&#45;&gt;Node29 -->
<g id="edge28" class="edge">
<title>Node3&#45;&gt;Node29</title>
<path fill="none" stroke="midnightblue" d="M1938.38,-144.89C1709.34,-133.73 1013.49,-99.82 766.56,-87.79"/>
<polygon fill="midnightblue" stroke="midnightblue" points="1938.45,-148.4 1948.61,-145.39 1938.79,-141.4 1938.45,-148.4"/>
</g>
<!-- Node5 -->
<g id="node5" class="node">
<title>Node5</title>
<g id="a_node5"><a xlink:href="../../d7/dfa/calculator__dialog_8cpp.html" target="_top" xlink:title=" ">
<polygon fill="white" stroke="black" points="2788,-0.5 2788,-30.5 2929,-30.5 2929,-0.5 2788,-0.5"/>
<text text-anchor="start" x="2796" y="-18.5" font-family="Helvetica,sans-Serif" font-size="10.00">src/app/seamly2d/dialogs</text>
<text text-anchor="middle" x="2858.5" y="-7.5" font-family="Helvetica,sans-Serif" font-size="10.00">/calculator_dialog.cpp</text>
</a>
</g>
</g>
<!-- Node4&#45;&gt;Node5 -->
<g id="edge4" class="edge">
<title>Node4&#45;&gt;Node5</title>
<path fill="none" stroke="midnightblue" d="M2072.41,-67.03C2385.97,-29.04 2469.91,-67.13 2779.5,-31 2782.27,-30.68 2785.09,-30.32 2787.93,-29.92"/>
<polygon fill="midnightblue" stroke="midnightblue" points="2071.61,-63.61 2062.11,-68.3 2072.47,-70.55 2071.61,-63.61"/>
</g>
<!-- Node6 -->
<g id="node6" class="node">
<title>Node6</title>
<g id="a_node6"><a xlink:href="../../d3/dd8/vapplication_8cpp.html" target="_top" xlink:title=" ">
<polygon fill="white" stroke="black" points="776,-0.5 776,-30.5 903,-30.5 903,-0.5 776,-0.5"/>
<text text-anchor="start" x="784" y="-18.5" font-family="Helvetica,sans-Serif" font-size="10.00">src/app/seamly2d/core</text>
<text text-anchor="middle" x="839.5" y="-7.5" font-family="Helvetica,sans-Serif" font-size="10.00">/vapplication.cpp</text>
</a>
</g>
</g>
<!-- Node4&#45;&gt;Node6 -->
<g id="edge5" class="edge">
<title>Node4&#45;&gt;Node6</title>
<path fill="none" stroke="midnightblue" d="M1924.7,-81.86C1748.78,-81.91 1291.15,-77.15 912.5,-31 909.42,-30.62 906.28,-30.19 903.11,-29.72"/>
<polygon fill="midnightblue" stroke="midnightblue" points="1924.88,-85.36 1934.88,-81.86 1924.87,-78.36 1924.88,-85.36"/>
</g>
<!-- Node7 -->
<g id="node7" class="node">
<title>Node7</title>
<g id="a_node7"><a xlink:href="../../d2/d2d/preferencesconfigurationpage_8cpp.html" target="_top" xlink:title=" ">
<polygon fill="white" stroke="black" points="2947,-0.5 2947,-30.5 3194,-30.5 3194,-0.5 2947,-0.5"/>
<text text-anchor="start" x="2955" y="-18.5" font-family="Helvetica,sans-Serif" font-size="10.00">src/app/seamly2d/dialogs</text>
<text text-anchor="middle" x="3070.5" y="-7.5" font-family="Helvetica,sans-Serif" font-size="10.00">/configpages/preferencesconfigurationpage.cpp</text>
</a>
</g>
</g>
<!-- Node4&#45;&gt;Node7 -->
<g id="edge6" class="edge">
<title>Node4&#45;&gt;Node7</title>
<path fill="none" stroke="midnightblue" d="M2072.1,-67.08C2456.17,-21.95 2557.22,-59.82 2938.5,-31 2941.26,-30.79 2944.05,-30.57 2946.86,-30.34"/>
<polygon fill="midnightblue" stroke="midnightblue" points="2071.63,-63.61 2062.11,-68.26 2072.45,-70.56 2071.63,-63.61"/>
</g>
<!-- Node8 -->
<g id="node8" class="node">
<title>Node8</title>
<g id="a_node8"><a xlink:href="../../d9/d70/preferencesgraphicsviewpage_8cpp.html" target="_top" xlink:title=" ">
<polygon fill="white" stroke="black" points="3212.5,-0.5 3212.5,-30.5 3460.5,-30.5 3460.5,-0.5 3212.5,-0.5"/>
<text text-anchor="start" x="3220.5" y="-18.5" font-family="Helvetica,sans-Serif" font-size="10.00">src/app/seamly2d/dialogs</text>
<text text-anchor="middle" x="3336.5" y="-7.5" font-family="Helvetica,sans-Serif" font-size="10.00">/configpages/preferencesgraphicsviewpage.cpp</text>
</a>
</g>
</g>
<!-- Node4&#45;&gt;Node8 -->
<g id="edge7" class="edge">
<title>Node4&#45;&gt;Node8</title>
<path fill="none" stroke="midnightblue" d="M2072.13,-67.09C2573.33,-10.51 2704.68,-66.07 3203.5,-31 3206.4,-30.8 3209.33,-30.58 3212.28,-30.35"/>
<polygon fill="midnightblue" stroke="midnightblue" points="2071.64,-63.62 2062.1,-68.23 2072.44,-70.57 2071.64,-63.62"/>
</g>
<!-- Node9 -->
<g id="node9" class="node">
<title>Node9</title>
<g id="a_node9"><a xlink:href="../../dc/d20/preferencespathpage_8cpp.html" target="_top" xlink:title=" ">
<polygon fill="white" stroke="black" points="3479,-0.5 3479,-30.5 3684,-30.5 3684,-0.5 3479,-0.5"/>
<text text-anchor="start" x="3487" y="-18.5" font-family="Helvetica,sans-Serif" font-size="10.00">src/app/seamly2d/dialogs</text>
<text text-anchor="middle" x="3581.5" y="-7.5" font-family="Helvetica,sans-Serif" font-size="10.00">/configpages/preferencespathpage.cpp</text>
</a>
</g>
</g>
<!-- Node4&#45;&gt;Node9 -->
<g id="edge8" class="edge">
<title>Node4&#45;&gt;Node9</title>
<path fill="none" stroke="midnightblue" d="M2072.17,-67.09C2690.96,0.93 2853.14,-78.71 3469.5,-31 3472.53,-30.77 3475.6,-30.51 3478.7,-30.23"/>
<polygon fill="midnightblue" stroke="midnightblue" points="2071.66,-63.62 2062.1,-68.2 2072.43,-70.58 2071.66,-63.62"/>
</g>
<!-- Node10 -->
<g id="node10" class="node">
<title>Node10</title>
<g id="a_node10"><a xlink:href="../../dd/dc2/decimalchart__dialog_8cpp.html" target="_top" xlink:title=" ">
<polygon fill="white" stroke="black" points="3702,-0.5 3702,-30.5 3843,-30.5 3843,-0.5 3702,-0.5"/>
<text text-anchor="start" x="3710" y="-18.5" font-family="Helvetica,sans-Serif" font-size="10.00">src/app/seamly2d/dialogs</text>
<text text-anchor="middle" x="3772.5" y="-7.5" font-family="Helvetica,sans-Serif" font-size="10.00">/decimalchart_dialog.cpp</text>
</a>
</g>
</g>
<!-- Node4&#45;&gt;Node10 -->
<g id="edge9" class="edge">
<title>Node4&#45;&gt;Node10</title>
<path fill="none" stroke="midnightblue" d="M2072.17,-67.09C2790.03,10.47 2979.5,-103.98 3693.5,-31 3696.27,-30.72 3699.1,-30.39 3701.94,-30.03"/>
<polygon fill="midnightblue" stroke="midnightblue" points="2071.66,-63.63 2062.1,-68.19 2072.42,-70.59 2071.66,-63.63"/>
</g>
<!-- Node11 -->
<g id="node11" class="node">
<title>Node11</title>
<g id="a_node11"><a xlink:href="../../dc/d63/preferencespatternpage_8cpp.html" target="_top" xlink:title=" ">
<polygon fill="white" stroke="black" points="921.5,-0.5 921.5,-30.5 1139.5,-30.5 1139.5,-0.5 921.5,-0.5"/>
<text text-anchor="start" x="929.5" y="-18.5" font-family="Helvetica,sans-Serif" font-size="10.00">src/app/seamly2d/dialogs</text>
<text text-anchor="middle" x="1030.5" y="-7.5" font-family="Helvetica,sans-Serif" font-size="10.00">/configpages/preferencespatternpage.cpp</text>
</a>
</g>
</g>
<!-- Node4&#45;&gt;Node11 -->
<g id="edge10" class="edge">
<title>Node4&#45;&gt;Node11</title>
<path fill="none" stroke="midnightblue" d="M1924.66,-78.68C1777.02,-72.69 1434.96,-57.08 1148.5,-31 1145.62,-30.74 1142.71,-30.46 1139.77,-30.17"/>
<polygon fill="midnightblue" stroke="midnightblue" points="1924.82,-82.19 1934.95,-79.09 1925.1,-75.19 1924.82,-82.19"/>
</g>
<!-- Node12 -->
<g id="node12" class="node">
<title>Node12</title>
<g id="a_node12"><a xlink:href="../../dd/d64/dialogaboutapp_8cpp.html" target="_top" xlink:title=" ">
<polygon fill="white" stroke="black" points="1158,-0.5 1158,-30.5 1299,-30.5 1299,-0.5 1158,-0.5"/>
<text text-anchor="start" x="1166" y="-18.5" font-family="Helvetica,sans-Serif" font-size="10.00">src/app/seamly2d/dialogs</text>
<text text-anchor="middle" x="1228.5" y="-7.5" font-family="Helvetica,sans-Serif" font-size="10.00">/dialogaboutapp.cpp</text>
</a>
</g>
</g>
<!-- Node4&#45;&gt;Node12 -->
<g id="edge11" class="edge">
<title>Node4&#45;&gt;Node12</title>
<path fill="none" stroke="midnightblue" d="M1924.18,-78.65C1797.46,-73.22 1531.61,-59.3 1308.5,-31 1305.42,-30.61 1302.28,-30.18 1299.11,-29.72"/>
<polygon fill="midnightblue" stroke="midnightblue" points="1924.4,-82.16 1934.54,-79.09 1924.7,-75.17 1924.4,-82.16"/>
</g>
<!-- Node13 -->
<g id="node13" class="node">
<title>Node13</title>
<g id="a_node13"><a xlink:href="../../d2/d00/vtooloptionspropertybrowser_8cpp.html" target="_top" xlink:title=" ">
<polygon fill="white" stroke="black" points="1317.5,-0.5 1317.5,-30.5 1497.5,-30.5 1497.5,-0.5 1317.5,-0.5"/>
<text text-anchor="start" x="1325.5" y="-18.5" font-family="Helvetica,sans-Serif" font-size="10.00">src/app/seamly2d/core</text>
<text text-anchor="middle" x="1407.5" y="-7.5" font-family="Helvetica,sans-Serif" font-size="10.00">/vtooloptionspropertybrowser.cpp</text>
</a>
</g>
</g>
<!-- Node4&#45;&gt;Node13 -->
<g id="edge12" class="edge">
<title>Node4&#45;&gt;Node13</title>
<path fill="none" stroke="midnightblue" d="M1924.49,-74.91C1828.12,-66.09 1654.48,-49.42 1506.5,-31 1503.57,-30.64 1500.59,-30.25 1497.59,-29.86"/>
<polygon fill="midnightblue" stroke="midnightblue" points="1924.44,-78.42 1934.71,-75.84 1925.07,-71.45 1924.44,-78.42"/>
</g>
<!-- Node4&#45;&gt;Node14 -->
<g id="edge13" class="edge">
<title>Node4&#45;&gt;Node14</title>
<path fill="none" stroke="midnightblue" d="M2072.28,-67.08C2860.36,17.35 3068.17,-110.38 3852.5,-31 3855.27,-30.72 3858.1,-30.39 3860.95,-30.03"/>
<polygon fill="midnightblue" stroke="midnightblue" points="2071.67,-63.63 2062.1,-68.18 2072.42,-70.59 2071.67,-63.63"/>
</g>
<!-- Node15 -->
<g id="node15" class="node">
<title>Node15</title>
<g id="a_node15"><a xlink:href="../../de/d87/dialognewpattern_8cpp.html" target="_top" xlink:title=" ">
<polygon fill="white" stroke="black" points="1516,-0.5 1516,-30.5 1657,-30.5 1657,-0.5 1516,-0.5"/>
<text text-anchor="start" x="1524" y="-18.5" font-family="Helvetica,sans-Serif" font-size="10.00">src/app/seamly2d/dialogs</text>
<text text-anchor="middle" x="1586.5" y="-7.5" font-family="Helvetica,sans-Serif" font-size="10.00">/dialognewpattern.cpp</text>
</a>
</g>
</g>
<!-- Node4&#45;&gt;Node15 -->
<g id="edge14" class="edge">
<title>Node4&#45;&gt;Node15</title>
<path fill="none" stroke="midnightblue" d="M1924.76,-70.99C1857.21,-61.2 1754.5,-45.91 1665.5,-31 1662.75,-30.54 1659.95,-30.06 1657.12,-29.57"/>
<polygon fill="midnightblue" stroke="midnightblue" points="1924.48,-74.48 1934.88,-72.45 1925.48,-67.56 1924.48,-74.48"/>
</g>
<!-- Node16 -->
<g id="node16" class="node">
<title>Node16</title>
<g id="a_node16"><a xlink:href="../../d5/d18/dialogpatternproperties_8cpp.html" target="_top" xlink:title=" ">
<polygon fill="white" stroke="black" points="1675,-0.5 1675,-30.5 1830,-30.5 1830,-0.5 1675,-0.5"/>
<text text-anchor="start" x="1683" y="-18.5" font-family="Helvetica,sans-Serif" font-size="10.00">src/app/seamly2d/dialogs</text>
<text text-anchor="middle" x="1752.5" y="-7.5" font-family="Helvetica,sans-Serif" font-size="10.00">/dialogpatternproperties.cpp</text>
</a>
</g>
</g>
<!-- Node4&#45;&gt;Node16 -->
<g id="edge15" class="edge">
<title>Node4&#45;&gt;Node16</title>
<path fill="none" stroke="midnightblue" d="M1935.74,-64.92C1895.6,-54.31 1844.08,-40.7 1805.9,-30.61"/>
<polygon fill="midnightblue" stroke="midnightblue" points="1934.86,-68.31 1945.42,-67.48 1936.65,-61.54 1934.86,-68.31"/>
</g>
<!-- Node17 -->
<g id="node17" class="node">
<title>Node17</title>
<g id="a_node17"><a xlink:href="../../d5/dc5/dialogpreferences_8cpp.html" target="_top" xlink:title=" ">
<polygon fill="white" stroke="black" points="1848,-0.5 1848,-30.5 1989,-30.5 1989,-0.5 1848,-0.5"/>
<text text-anchor="start" x="1856" y="-18.5" font-family="Helvetica,sans-Serif" font-size="10.00">src/app/seamly2d/dialogs</text>
<text text-anchor="middle" x="1918.5" y="-7.5" font-family="Helvetica,sans-Serif" font-size="10.00">/dialogpreferences.cpp</text>
</a>
</g>
</g>
<!-- Node4&#45;&gt;Node17 -->
<g id="edge16" class="edge">
<title>Node4&#45;&gt;Node17</title>
<path fill="none" stroke="midnightblue" d="M1973.13,-60.88C1960.97,-51.01 1946.72,-39.43 1935.82,-30.58"/>
<polygon fill="midnightblue" stroke="midnightblue" points="1971.17,-63.81 1981.14,-67.4 1975.59,-58.37 1971.17,-63.81"/>
</g>
<!-- Node18 -->
<g id="node18" class="node">
<title>Node18</title>
<g id="a_node18"><a xlink:href="../../d6/d89/dialoglayoutprogress_8cpp.html" target="_top" xlink:title=" ">
<polygon fill="white" stroke="black" points="2007,-0.5 2007,-30.5 2150,-30.5 2150,-0.5 2007,-0.5"/>
<text text-anchor="start" x="2015" y="-18.5" font-family="Helvetica,sans-Serif" font-size="10.00">src/app/seamly2d/dialogs</text>
<text text-anchor="middle" x="2078.5" y="-7.5" font-family="Helvetica,sans-Serif" font-size="10.00">/dialoglayoutprogress.cpp</text>
</a>
</g>
</g>
<!-- Node4&#45;&gt;Node18 -->
<g id="edge17" class="edge">
<title>Node4&#45;&gt;Node18</title>
<path fill="none" stroke="midnightblue" d="M2023.87,-60.88C2036.03,-51.01 2050.28,-39.43 2061.18,-30.58"/>
<polygon fill="midnightblue" stroke="midnightblue" points="2021.41,-58.37 2015.86,-67.4 2025.83,-63.81 2021.41,-58.37"/>
</g>
<!-- Node19 -->
<g id="node19" class="node">
<title>Node19</title>
<g id="a_node19"><a xlink:href="../../dd/d54/export__layout__dialog_8cpp.html" target="_top" xlink:title=" ">
<polygon fill="white" stroke="black" points="239,-0.5 239,-30.5 382,-30.5 382,-0.5 239,-0.5"/>
<text text-anchor="start" x="247" y="-18.5" font-family="Helvetica,sans-Serif" font-size="10.00">src/app/seamly2d/dialogs</text>
<text text-anchor="middle" x="310.5" y="-7.5" font-family="Helvetica,sans-Serif" font-size="10.00">/export_layout_dialog.cpp</text>
</a>
</g>
</g>
<!-- Node4&#45;&gt;Node19 -->
<g id="edge18" class="edge">
<title>Node4&#45;&gt;Node19</title>
<path fill="none" stroke="midnightblue" d="M1924.41,-80.63C1650.3,-77.18 693.87,-63.08 390.5,-31 387.83,-30.72 385.12,-30.4 382.39,-30.05"/>
<polygon fill="midnightblue" stroke="midnightblue" points="1924.6,-84.13 1934.64,-80.76 1924.69,-77.13 1924.6,-84.13"/>
</g>
<!-- Node20 -->
<g id="node20" class="node">
<title>Node20</title>
<g id="a_node20"><a xlink:href="../../db/d5c/groups__widget_8cpp.html" target="_top" xlink:title=" ">
<polygon fill="white" stroke="black" points="2168,-0.5 2168,-30.5 2309,-30.5 2309,-0.5 2168,-0.5"/>
<text text-anchor="start" x="2176" y="-18.5" font-family="Helvetica,sans-Serif" font-size="10.00">src/app/seamly2d/dialogs</text>
<text text-anchor="middle" x="2238.5" y="-7.5" font-family="Helvetica,sans-Serif" font-size="10.00">/groups_widget.cpp</text>
</a>
</g>
</g>
<!-- Node4&#45;&gt;Node20 -->
<g id="edge19" class="edge">
<title>Node4&#45;&gt;Node20</title>
<path fill="none" stroke="midnightblue" d="M2059.98,-64.85C2099.11,-54.25 2149.23,-40.68 2186.4,-30.61"/>
<polygon fill="midnightblue" stroke="midnightblue" points="2059.02,-61.48 2050.28,-67.48 2060.85,-68.24 2059.02,-61.48"/>
</g>
<!-- Node21 -->
<g id="node21" class="node">
<title>Node21</title>
<g id="a_node21"><a xlink:href="../../dd/d84/shortcuts__dialog_8cpp.html" target="_top" xlink:title=" ">
<polygon fill="white" stroke="black" points="2327,-0.5 2327,-30.5 2468,-30.5 2468,-0.5 2327,-0.5"/>
<text text-anchor="start" x="2335" y="-18.5" font-family="Helvetica,sans-Serif" font-size="10.00">src/app/seamly2d/dialogs</text>
<text text-anchor="middle" x="2397.5" y="-7.5" font-family="Helvetica,sans-Serif" font-size="10.00">/shortcuts_dialog.cpp</text>
</a>
</g>
</g>
<!-- Node4&#45;&gt;Node21 -->
<g id="edge20" class="edge">
<title>Node4&#45;&gt;Node21</title>
<path fill="none" stroke="midnightblue" d="M2072.03,-66.97C2182.49,-48.22 2212.14,-48.51 2318.5,-31 2321.25,-30.55 2324.06,-30.08 2326.89,-29.59"/>
<polygon fill="midnightblue" stroke="midnightblue" points="2071.43,-63.52 2062.17,-68.65 2072.61,-70.42 2071.43,-63.52"/>
</g>
<!-- Node22 -->
<g id="node22" class="node">
<title>Node22</title>
<g id="a_node22"><a xlink:href="../../d2/df4/show__info__dialog_8cpp.html" target="_top" xlink:title=" ">
<polygon fill="white" stroke="black" points="2486,-0.5 2486,-30.5 2627,-30.5 2627,-0.5 2486,-0.5"/>
<text text-anchor="start" x="2494" y="-18.5" font-family="Helvetica,sans-Serif" font-size="10.00">src/app/seamly2d/dialogs</text>
<text text-anchor="middle" x="2556.5" y="-7.5" font-family="Helvetica,sans-Serif" font-size="10.00">/show_info_dialog.cpp</text>
</a>
</g>
</g>
<!-- Node4&#45;&gt;Node22 -->
<g id="edge21" class="edge">
<title>Node4&#45;&gt;Node22</title>
<path fill="none" stroke="midnightblue" d="M2072.22,-67.01C2252.57,-41.81 2301.24,-54.94 2477.5,-31 2480.26,-30.62 2483.08,-30.22 2485.92,-29.79"/>
<polygon fill="midnightblue" stroke="midnightblue" points="2071.54,-63.57 2062.13,-68.44 2072.52,-70.5 2071.54,-63.57"/>
</g>
<!-- Node4&#45;&gt;Node23 -->
<g id="edge22" class="edge">
<title>Node4&#45;&gt;Node23</title>
<path fill="none" stroke="midnightblue" d="M2072.23,-67.09C2930.67,24.28 3156.52,-114.01 4011.5,-31 4014.38,-30.72 4017.31,-30.4 4020.26,-30.04"/>
<polygon fill="midnightblue" stroke="midnightblue" points="2071.67,-63.63 2062.1,-68.18 2072.41,-70.59 2071.67,-63.63"/>
</g>
<!-- Node24 -->
<g id="node24" class="node">
<title>Node24</title>
<g id="a_node24"><a xlink:href="../../dc/d14/app_2seamly2d_2main_8cpp.html" target="_top" xlink:title=" ">
<polygon fill="white" stroke="black" points="400,-6 400,-25 551,-25 551,-6 400,-6"/>
<text text-anchor="middle" x="475.5" y="-13" font-family="Helvetica,sans-Serif" font-size="10.00">src/app/seamly2d/main.cpp</text>
</a>
</g>
</g>
<!-- Node4&#45;&gt;Node24 -->
<g id="edge23" class="edge">
<title>Node4&#45;&gt;Node24</title>
<path fill="none" stroke="midnightblue" d="M1924.7,-80.22C1670.07,-75.58 829.2,-58.51 560.5,-31 546.8,-29.6 531.97,-27.33 518.59,-25"/>
<polygon fill="midnightblue" stroke="midnightblue" points="1924.89,-83.72 1934.95,-80.4 1925.01,-76.72 1924.89,-83.72"/>
</g>
<!-- Node4&#45;&gt;Node25 -->
<g id="edge24" class="edge">
<title>Node4&#45;&gt;Node25</title>
<path fill="none" stroke="midnightblue" d="M1924.81,-81.84C1682.09,-82.44 885.69,-80.24 229.5,-31 210.51,-29.58 189.89,-27.32 171.24,-25"/>
<polygon fill="midnightblue" stroke="midnightblue" points="1924.94,-85.34 1934.93,-81.81 1924.92,-78.34 1924.94,-85.34"/>
</g>
<!-- Node26 -->
<g id="node26" class="node">
<title>Node26</title>
<g id="a_node26"><a xlink:href="../../d8/dd9/mainwindow_8cpp.html" target="_top" xlink:title=" ">
<polygon fill="white" stroke="black" points="569.5,-6 569.5,-25 757.5,-25 757.5,-6 569.5,-6"/>
<text text-anchor="middle" x="663.5" y="-13" font-family="Helvetica,sans-Serif" font-size="10.00">src/app/seamly2d/mainwindow.cpp</text>
</a>
</g>
</g>
<!-- Node4&#45;&gt;Node26 -->
<g id="edge25" class="edge">
<title>Node4&#45;&gt;Node26</title>
<path fill="none" stroke="midnightblue" d="M1924.65,-81.02C1733.07,-79.21 1204.55,-70.71 766.5,-31 750.31,-29.53 732.78,-27.3 716.84,-25.03"/>
<polygon fill="midnightblue" stroke="midnightblue" points="1924.85,-84.52 1934.88,-81.11 1924.91,-77.52 1924.85,-84.52"/>
</g>
<!-- Node27 -->
<g id="node27" class="node">
<title>Node27</title>
<g id="a_node27"><a xlink:href="../../d3/d49/vpattern_8cpp.html" target="_top" xlink:title=" ">
<polygon fill="white" stroke="black" points="2645,-0.5 2645,-30.5 2770,-30.5 2770,-0.5 2645,-0.5"/>
<text text-anchor="start" x="2653" y="-18.5" font-family="Helvetica,sans-Serif" font-size="10.00">src/app/seamly2d/xml</text>
<text text-anchor="middle" x="2707.5" y="-7.5" font-family="Helvetica,sans-Serif" font-size="10.00">/vpattern.cpp</text>
</a>
</g>
</g>
<!-- Node4&#45;&gt;Node27 -->
<g id="edge26" class="edge">
<title>Node4&#45;&gt;Node27</title>
<path fill="none" stroke="midnightblue" d="M2072.26,-67.04C2322.78,-35.19 2390.37,-63.81 2636.5,-31 2639.24,-30.63 2642.04,-30.22 2644.86,-29.78"/>
<polygon fill="midnightblue" stroke="midnightblue" points="2071.59,-63.6 2062.12,-68.35 2072.49,-70.54 2071.59,-63.6"/>
</g>
<!-- Node29&#45;&gt;Node6 -->
<g id="edge29" class="edge">
<title>Node29&#45;&gt;Node6</title>
<path fill="none" stroke="midnightblue" d="M709.32,-69.06C736.59,-58.05 776.36,-41.99 804.75,-30.53"/>
<polygon fill="midnightblue" stroke="midnightblue" points="707.84,-65.88 699.88,-72.87 710.46,-72.37 707.84,-65.88"/>
</g>
<!-- Node29&#45;&gt;Node24 -->
<g id="edge30" class="edge">
<title>Node29&#45;&gt;Node24</title>
<path fill="none" stroke="midnightblue" d="M641.85,-69.77C601.63,-56.89 538.03,-36.52 502.25,-25.06"/>
<polygon fill="midnightblue" stroke="midnightblue" points="640.95,-73.15 651.54,-72.87 643.09,-66.49 640.95,-73.15"/>
</g>
<!-- Node29&#45;&gt;Node26 -->
<g id="edge31" class="edge">
<title>Node29&#45;&gt;Node26</title>
<path fill="none" stroke="midnightblue" d="M674.21,-62.91C671.34,-50.49 667.7,-34.72 665.49,-25.13"/>
<polygon fill="midnightblue" stroke="midnightblue" points="670.82,-63.78 676.48,-72.73 677.64,-62.2 670.82,-63.78"/>
</g>
<!-- Node30&#45;&gt;Node19 -->
<g id="edge36" class="edge">
<title>Node30&#45;&gt;Node19</title>
<path fill="none" stroke="midnightblue" d="M336.84,-194.41C328.44,-186.21 320.15,-176.1 315.5,-165 296.26,-119.08 303.19,-58 307.76,-30.71"/>
<polygon fill="midnightblue" stroke="midnightblue" points="334.73,-197.23 344.48,-201.38 339.45,-192.05 334.73,-197.23"/>
</g>
<!-- Node30&#45;&gt;Node25 -->
<g id="edge40" class="edge">
<title>Node30&#45;&gt;Node25</title>
<path fill="none" stroke="midnightblue" d="M337.16,-194.78C282.55,-151.83 158.98,-54.64 121.49,-25.14"/>
<polygon fill="midnightblue" stroke="midnightblue" points="335.28,-197.76 345.3,-201.19 339.61,-192.26 335.28,-197.76"/>
</g>
<!-- Node31 -->
<g id="node31" class="node">
<title>Node31</title>
<g id="a_node31"><a xlink:href="../../d1/d82/mainwindowsnogui_8h.html" target="_top" xlink:title=" ">
<polygon fill="white" stroke="black" points="325,-140 325,-159 534,-159 534,-140 325,-140"/>
<text text-anchor="middle" x="429.5" y="-147" font-family="Helvetica,sans-Serif" font-size="10.00">src/app/seamly2d/mainwindowsnogui.h</text>
</a>
</g>
</g>
<!-- Node30&#45;&gt;Node31 -->
<g id="edge37" class="edge">
<title>Node30&#45;&gt;Node31</title>
<path fill="none" stroke="midnightblue" d="M384.99,-194.34C397.11,-182.4 411.59,-168.14 420.67,-159.19"/>
<polygon fill="midnightblue" stroke="midnightblue" points="382.49,-191.89 377.82,-201.4 387.4,-196.87 382.49,-191.89"/>
</g>
<!-- Node31&#45;&gt;Node25 -->
<g id="edge39" class="edge">
<title>Node31&#45;&gt;Node25</title>
<path fill="none" stroke="midnightblue" d="M398.97,-135.86C334.45,-109.17 185.7,-47.62 131.09,-25.02"/>
<polygon fill="midnightblue" stroke="midnightblue" points="397.99,-139.25 408.57,-139.84 400.67,-132.78 397.99,-139.25"/>
</g>
<!-- Node31&#45;&gt;Node29 -->
<g id="edge38" class="edge">
<title>Node31&#45;&gt;Node29</title>
<path fill="none" stroke="midnightblue" d="M472.01,-137.4C521.15,-124.58 600.98,-103.74 645.62,-92.08"/>
<polygon fill="midnightblue" stroke="midnightblue" points="471.1,-134.02 462.31,-139.94 472.87,-140.8 471.1,-134.02"/>
</g>
</g>
</svg>
        <g id="navigator" transform="translate(0 0)" fill="#404254">
                <rect fill="#f2f5e9" fill-opacity="0.5" stroke="#606060" stroke-width=".5" x="0" y="0" width="60" height="60"/>
                <use id="zoomplus" xlink:href="#zoomPlus" x="17" y="9" onmousedown="handleZoom(evt,'in')"/>
                <use id="zoomminus" xlink:href="#zoomMin" x="42" y="9" onmousedown="handleZoom(evt,'out')"/>
                <use id="reset" xlink:href="#resetDef" x="30" y="36" onmousedown="handleReset()"/>
                <g id="arrowUp" xlink:href="#dirArrow" transform="translate(30 24)" onmousedown="handlePan(0,-1)">
                  <use xlink:href="#rim" fill="#404040">
                        <set attributeName="fill" to="#808080" begin="arrowUp.mouseover" end="arrowUp.mouseout"/>
                  </use>
                  <path fill="none" stroke="white" stroke-width="1.5" d="M0,-3.0v7 M-2.5,-0.5L0,-3.0L2.5,-0.5"/>
                </g>
                <g id="arrowRight" xlink:href="#dirArrow" transform="rotate(90) translate(36 -43)" onmousedown="handlePan(1,0)">
                  <use xlink:href="#rim" fill="#404040">
                        <set attributeName="fill" to="#808080" begin="arrowRight.mouseover" end="arrowRight.mouseout"/>
                  </use>
                  <path fill="none" stroke="white" stroke-width="1.5" d="M0,-3.0v7 M-2.5,-0.5L0,-3.0L2.5,-0.5"/>
                </g>
                <g id="arrowDown" xlink:href="#dirArrow" transform="rotate(180) translate(-30 -48)" onmousedown="handlePan(0,1)">
                  <use xlink:href="#rim" fill="#404040">
                        <set attributeName="fill" to="#808080" begin="arrowDown.mouseover" end="arrowDown.mouseout"/>
                  </use>
                  <path fill="none" stroke="white" stroke-width="1.5" d="M0,-3.0v7 M-2.5,-0.5L0,-3.0L2.5,-0.5"/>
                </g>
                <g id="arrowLeft" xlink:href="#dirArrow" transform="rotate(270) translate(-36 17)" onmousedown="handlePan(-1,0)">
                  <use xlink:href="#rim" fill="#404040">
                        <set attributeName="fill" to="#808080" begin="arrowLeft.mouseover" end="arrowLeft.mouseout"/>
                  </use>
                  <path fill="none" stroke="white" stroke-width="1.5" d="M0,-3.0v7 M-2.5,-0.5L0,-3.0L2.5,-0.5"/>
                </g>
        </g>
        <svg viewBox="0 0 15 15" width="100%" height="30px" preserveAspectRatio="xMaxYMin meet">
         <g id="arrow_out" transform="scale(0.3 0.3)">
          <a xlink:href="vabstractlayoutdialog_8h__dep__incl_org.svg" target="_base">
           <rect id="button" ry="5" rx="5" y="6" x="6" height="38" width="38"
                fill="#f2f5e9" fill-opacity="0.5" stroke="#606060" stroke-width="1.0"/>
           <path id="arrow"
             d="M 11.500037,31.436501 C 11.940474,20.09759 22.043105,11.32322 32.158766,21.979434 L 37.068811,17.246167 C 37.068811,17.246167 37.088388,32 37.088388,32 L 22.160133,31.978069 C 22.160133,31.978069 26.997745,27.140456 26.997745,27.140456 C 18.528582,18.264221 13.291696,25.230495 11.500037,31.436501 z"
             style="fill:#404040;"/>
          </a>
         </g>
        </svg>
</svg>
