<?xml version="1.0" encoding="UTF-8" standalone="no"?>
<!DOCTYPE svg PUBLIC "-//W3C//DTD SVG 1.1//EN"
 "http://www.w3.org/Graphics/SVG/1.1/DTD/svg11.dtd">
<!-- Generated by graphviz version 2.43.0 (0)
 -->
<!-- Title: src/libs/vpatterndb/variables/vmeasurement.h Pages: 1 -->
<!--zoomable 203 -->

<svg id="main" version="1.1" xmlns="http://www.w3.org/2000/svg" xmlns:xlink="http://www.w3.org/1999/xlink" xml:space="preserve" onload="init(evt)">
<style type="text/css"><![CDATA[
.node, .edge {opacity: 0.7;}
.node.selected, .edge.selected {opacity: 1;}
.edge:hover path { stroke: red; }
.edge:hover polygon { stroke: red; fill: red; }
]]></style>

<defs>
  <circle id="rim" cx="0" cy="0" r="7"/>
  <circle id="rim2" cx="0" cy="0" r="3.5"/>
  <g id="zoomPlus">
    <use xlink:href="#rim" fill="#404040"><set attributeName="fill" to="#808080" begin="zoomplus.mouseover" end="zoomplus.mouseout"/></use>
    <path d="M-4,0h8M0,-4v8" fill="none" stroke="white" stroke-width="1.5" pointer-events="none"/>
  </g>
  <g id="zoomMin">
    <use xlink:href="#rim" fill="#404040"><set attributeName="fill" to="#808080" begin="zoomminus.mouseover" end="zoomminus.mouseout"/></use>
    <path d="M-4,0h8" fill="none" stroke="white" stroke-width="1.5" pointer-events="none"/>
  </g>
  <g id="arrowUp" transform="translate(30 24)">
    <use xlink:href="#rim"/>
    <path pointer-events="none" fill="none" stroke="white" stroke-width="1.5" d="M0,-3.0v7 M-2.5,-0.5L0,-3.0L2.5,-0.5"/>
  </g>
  <g id="arrowRight" transform="rotate(90) translate(36 -43)">
    <use xlink:href="#rim"/>
    <path pointer-events="none" fill="none" stroke="white" stroke-width="1.5" d="M0,-3.0v7 M-2.5,-0.5L0,-3.0L2.5,-0.5"/>
  </g>
  <g id="arrowDown" transform="rotate(180) translate(-30 -48)">
    <use xlink:href="#rim"/>
    <path pointer-events="none" fill="none" stroke="white" stroke-width="1.5" d="M0,-3.0v7 M-2.5,-0.5L0,-3.0L2.5,-0.5"/>
  </g>
  <g id="arrowLeft" transform="rotate(270) translate(-36 17)">
    <use xlink:href="#rim"/>
    <path pointer-events="none" fill="none" stroke="white" stroke-width="1.5" d="M0,-3.0v7 M-2.5,-0.5L0,-3.0L2.5,-0.5"/>
  </g>
  <g id="resetDef">
    <use xlink:href="#rim2" fill="#404040"><set attributeName="fill" to="#808080" begin="reset.mouseover" end="reset.mouseout"/></use>
  </g>
</defs>
<script type="application/ecmascript">
var viewWidth = 831;
var viewHeight = 203;
var sectionId = 'dynsection-0';
</script>
<script type="application/ecmascript" xlink:href="../../svg.min.js"/>
<svg id="graph" class="graph">
<g id="viewport">
<title>src/libs/vpatterndb/variables/vmeasurement.h</title>
<!-- Node1 -->
<g id="Node000001" class="node">
<title>Node1</title>
<g id="a_Node000001"><a xlink:title=" ">
<polygon fill="#999999" stroke="#666666" points="640.14,-195 489.14,-195 489.14,-165 640.14,-165 640.14,-195"/>
<text text-anchor="start" x="497.14" y="-183" font-family="Helvetica,sans-Serif" font-size="10.00">src/libs/vpatterndb</text>
<text text-anchor="middle" x="564.64" y="-172" font-family="Helvetica,sans-Serif" font-size="10.00">/variables/vmeasurement.h</text>
</a>
</g>
</g>
<!-- Node2 -->
<g id="Node000002" class="node">
<title>Node2</title>
<g id="a_Node000002"><a xlink:title=" ">
<polygon fill="#e0e0e0" stroke="#999999" points="142.64,-74 22.64,-74 22.64,-55 142.64,-55 142.64,-74"/>
<text text-anchor="middle" x="82.64" y="-62" font-family="Helvetica,sans-Serif" font-size="10.00">qcompilerdetection.h</text>
</a>
</g>
</g>
<!-- Node1&#45;&gt;Node2 -->
<g id="edge1_Node000001_Node000002" class="edge">
<title>Node1&#45;&gt;Node2</title>
<g id="a_edge1_Node000001_Node000002"><a xlink:title=" ">
<path fill="none" stroke="#63b8ff" d="M488.92,-168.17C432.27,-159.41 353.09,-145.8 284.64,-129 224.24,-114.18 155.46,-91.22 115.75,-77.35"/>
<polygon fill="#63b8ff" stroke="#63b8ff" points="116.89,-74.04 106.3,-74.03 114.57,-80.64 116.89,-74.04"/>
</a>
</g>
</g>
<!-- Node3 -->
<g id="Node000003" class="node">
<title>Node3</title>
<g id="a_Node000003"><a xlink:title=" ">
<polygon fill="#e0e0e0" stroke="#999999" points="734.14,-129 689.14,-129 689.14,-110 734.14,-110 734.14,-129"/>
<text text-anchor="middle" x="711.64" y="-117" font-family="Helvetica,sans-Serif" font-size="10.00">QMap</text>
</a>
</g>
</g>
<!-- Node1&#45;&gt;Node3 -->
<g id="edge2_Node000001_Node000003" class="edge">
<title>Node1&#45;&gt;Node3</title>
<g id="a_edge2_Node000001_Node000003"><a xlink:title=" ">
<path fill="none" stroke="#63b8ff" d="M599.85,-164.99C624.37,-155.23 656.79,-142.33 680.4,-132.93"/>
<polygon fill="#63b8ff" stroke="#63b8ff" points="681.93,-136.09 689.93,-129.14 679.34,-129.58 681.93,-136.09"/>
</a>
</g>
</g>
<!-- Node4 -->
<g id="Node000004" class="node">
<title>Node4</title>
<g id="a_Node000004"><a xlink:title=" ">
<polygon fill="#e0e0e0" stroke="#999999" points="166.64,-19 50.64,-19 50.64,0 166.64,0 166.64,-19"/>
<text text-anchor="middle" x="108.64" y="-7" font-family="Helvetica,sans-Serif" font-size="10.00">QSharedDataPointer</text>
</a>
</g>
</g>
<!-- Node1&#45;&gt;Node4 -->
<g id="edge3_Node000001_Node000004" class="edge">
<title>Node1&#45;&gt;Node4</title>
<g id="a_edge3_Node000001_Node000004"><a xlink:title=" ">
<path fill="none" stroke="#63b8ff" d="M488.99,-177.39C368.31,-173.83 138.31,-162.72 64.64,-129 26.64,-111.61 -16.25,-89.96 6.64,-55 16.99,-39.18 34.34,-28.95 51.82,-22.35"/>
<polygon fill="#63b8ff" stroke="#63b8ff" points="53.17,-25.59 61.5,-19.05 50.9,-18.97 53.17,-25.59"/>
</a>
</g>
</g>
<!-- Node5 -->
<g id="Node000005" class="node">
<title>Node5</title>
<g id="a_Node000005"><a xlink:title=" ">
<polygon fill="#e0e0e0" stroke="#999999" points="356.14,-19 303.14,-19 303.14,0 356.14,0 356.14,-19"/>
<text text-anchor="middle" x="329.64" y="-7" font-family="Helvetica,sans-Serif" font-size="10.00">QString</text>
</a>
</g>
</g>
<!-- Node1&#45;&gt;Node5 -->
<g id="edge4_Node000001_Node000005" class="edge">
<title>Node1&#45;&gt;Node5</title>
<g id="a_edge4_Node000001_Node000005"><a xlink:title=" ">
<path fill="none" stroke="#63b8ff" d="M570.03,-164.79C578.6,-139.5 591.84,-86.4 565.64,-55 536.98,-20.67 411.47,-27.88 367.64,-19 367.17,-18.91 366.7,-18.81 366.24,-18.71"/>
<polygon fill="#63b8ff" stroke="#63b8ff" points="366.69,-15.23 356.18,-16.58 365.24,-22.08 366.69,-15.23"/>
</a>
</g>
</g>
<!-- Node6 -->
<g id="Node000006" class="node">
<title>Node6</title>
<g id="a_Node000006"><a xlink:title=" ">
<polygon fill="#e0e0e0" stroke="#999999" points="822.64,-129 752.64,-129 752.64,-110 822.64,-110 822.64,-129"/>
<text text-anchor="middle" x="787.64" y="-117" font-family="Helvetica,sans-Serif" font-size="10.00">QStringList</text>
</a>
</g>
</g>
<!-- Node1&#45;&gt;Node6 -->
<g id="edge5_Node000001_Node000006" class="edge">
<title>Node1&#45;&gt;Node6</title>
<g id="a_edge5_Node000001_Node000006"><a xlink:title=" ">
<path fill="none" stroke="#63b8ff" d="M618.05,-164.99C657.03,-154.76 709.16,-141.09 745.29,-131.61"/>
<polygon fill="#63b8ff" stroke="#63b8ff" points="746.24,-134.98 755.03,-129.05 744.47,-128.21 746.24,-134.98"/>
</a>
</g>
</g>
<!-- Node7 -->
<g id="Node000007" class="node">
<title>Node7</title>
<g id="a_Node000007"><a xlink:title=" ">
<polygon fill="#e0e0e0" stroke="#999999" points="442.14,-19 377.14,-19 377.14,0 442.14,0 442.14,-19"/>
<text text-anchor="middle" x="409.64" y="-7" font-family="Helvetica,sans-Serif" font-size="10.00">QTypeInfo</text>
</a>
</g>
</g>
<!-- Node1&#45;&gt;Node7 -->
<g id="edge6_Node000001_Node000007" class="edge">
<title>Node1&#45;&gt;Node7</title>
<g id="a_edge6_Node000001_Node000007"><a xlink:title=" ">
<path fill="none" stroke="#63b8ff" d="M577.62,-164.92C585.38,-155.51 594.5,-142.44 598.64,-129 608.31,-97.57 619.05,-80.78 598.64,-55 594.04,-49.2 506.75,-30.4 452.42,-19.18"/>
<polygon fill="#63b8ff" stroke="#63b8ff" points="452.86,-15.7 442.36,-17.11 451.45,-22.55 452.86,-15.7"/>
</a>
</g>
</g>
<!-- Node8 -->
<g id="Node000008" class="node">
<title>Node8</title>
<g id="a_Node000008"><a xlink:title=" ">
<polygon fill="#e0e0e0" stroke="#999999" points="519.14,-19 460.14,-19 460.14,0 519.14,0 519.14,-19"/>
<text text-anchor="middle" x="489.64" y="-7" font-family="Helvetica,sans-Serif" font-size="10.00">QtGlobal</text>
</a>
</g>
</g>
<!-- Node1&#45;&gt;Node8 -->
<g id="edge7_Node000001_Node000008" class="edge">
<title>Node1&#45;&gt;Node8</title>
<g id="a_edge7_Node000001_Node000008"><a xlink:title=" ">
<path fill="none" stroke="#63b8ff" d="M597.59,-164.95C612.37,-156.78 628.31,-144.91 636.64,-129 651.88,-99.86 656.23,-81.41 636.64,-55 612.23,-22.11 564.18,-12.67 529.66,-10.38"/>
<polygon fill="#63b8ff" stroke="#63b8ff" points="529.58,-6.87 519.42,-9.88 529.24,-13.86 529.58,-6.87"/>
</a>
</g>
</g>
<!-- Node9 -->
<g id="Node000009" class="node">
<title>Node9</title>
<g id="a_Node000009"><a xlink:title=" ">
<polygon fill="#e0e0e0" stroke="#999999" points="266.64,-19 184.64,-19 184.64,0 266.64,0 266.64,-19"/>
<text text-anchor="middle" x="225.64" y="-7" font-family="Helvetica,sans-Serif" font-size="10.00">../vmisc/def.h</text>
</a>
</g>
</g>
<!-- Node1&#45;&gt;Node9 -->
<g id="edge8_Node000001_Node000009" class="edge">
<title>Node1&#45;&gt;Node9</title>
<g id="a_edge8_Node000001_Node000009"><a xlink:title=" ">
<path fill="none" stroke="#63b8ff" d="M488.9,-176.52C351.54,-170.21 70.27,-148.31 13.64,-74 8.52,-67.28 8.31,-61.56 13.64,-55 18.76,-48.69 113.64,-30.61 174.72,-19.53"/>
<polygon fill="#63b8ff" stroke="#63b8ff" points="175.36,-22.97 184.58,-17.75 174.12,-16.08 175.36,-22.97"/>
</a>
</g>
</g>
<!-- Node10 -->
<g id="Node000010" class="node">
<title>Node10</title>
<g id="a_Node000010"><a xlink:title=" ">
<polygon fill="#e0e0e0" stroke="#999999" points="556.14,-74 479.14,-74 479.14,-55 556.14,-55 556.14,-74"/>
<text text-anchor="middle" x="517.64" y="-62" font-family="Helvetica,sans-Serif" font-size="10.00">../ifc/ifcdef.h</text>
</a>
</g>
</g>
<!-- Node1&#45;&gt;Node10 -->
<g id="edge9_Node000001_Node000010" class="edge">
<title>Node1&#45;&gt;Node10</title>
<g id="a_edge9_Node000001_Node000010"><a xlink:title=" ">
<path fill="none" stroke="#63b8ff" d="M558.68,-164.63C550.15,-144.03 534.46,-106.12 525.14,-83.63"/>
<polygon fill="#63b8ff" stroke="#63b8ff" points="528.31,-82.13 521.25,-74.23 521.84,-84.81 528.31,-82.13"/>
</a>
</g>
</g>
<!-- Node11 -->
<g id="Node000011" class="node">
<title>Node11</title>
<g id="a_Node000011"><a xlink:href="../../dd/d6e/vvariable_8h.html" target="_top" xlink:title=" ">
<polygon fill="white" stroke="#666666" points="365.14,-129 294.14,-129 294.14,-110 365.14,-110 365.14,-129"/>
<text text-anchor="middle" x="329.64" y="-117" font-family="Helvetica,sans-Serif" font-size="10.00">vvariable.h</text>
</a>
</g>
</g>
<!-- Node1&#45;&gt;Node11 -->
<g id="edge10_Node000001_Node000011" class="edge">
<title>Node1&#45;&gt;Node11</title>
<g id="a_edge10_Node000001_Node000011"><a xlink:title=" ">
<path fill="none" stroke="#63b8ff" d="M508.35,-164.99C467.09,-154.72 411.86,-140.97 373.77,-131.49"/>
<polygon fill="#63b8ff" stroke="#63b8ff" points="374.55,-128.07 364,-129.05 372.85,-134.87 374.55,-128.07"/>
</a>
</g>
</g>
<!-- Node11&#45;&gt;Node2 -->
<g id="edge11_Node000011_Node000002" class="edge">
<title>Node11&#45;&gt;Node2</title>
<g id="a_edge11_Node000011_Node000002"><a xlink:title=" ">
<path fill="none" stroke="#63b8ff" d="M293.98,-110.85C251.45,-101.72 180.1,-86.41 132.21,-76.14"/>
<polygon fill="#63b8ff" stroke="#63b8ff" points="132.88,-72.7 122.37,-74.03 131.41,-79.55 132.88,-72.7"/>
</a>
</g>
</g>
<!-- Node11&#45;&gt;Node4 -->
<g id="edge12_Node000011_Node000004" class="edge">
<title>Node11&#45;&gt;Node4</title>
<g id="a_edge12_Node000011_Node000004"><a xlink:title=" ">
<path fill="none" stroke="#63b8ff" d="M311.92,-109.84C273.2,-90.92 180.8,-45.77 135.13,-23.45"/>
<polygon fill="#63b8ff" stroke="#63b8ff" points="136.65,-20.29 126.12,-19.05 133.57,-26.58 136.65,-20.29"/>
</a>
</g>
</g>
<!-- Node11&#45;&gt;Node5 -->
<g id="edge13_Node000011_Node000005" class="edge">
<title>Node11&#45;&gt;Node5</title>
<g id="a_edge13_Node000011_Node000005"><a xlink:title=" ">
<path fill="none" stroke="#63b8ff" d="M307.84,-109.87C292.99,-102.69 274.47,-90.91 265.64,-74 254.79,-53.24 278.48,-35.06 300.05,-23.53"/>
<polygon fill="#63b8ff" stroke="#63b8ff" points="301.69,-26.62 309.05,-19.01 298.55,-20.37 301.69,-26.62"/>
</a>
</g>
</g>
<!-- Node11&#45;&gt;Node7 -->
<g id="edge14_Node000011_Node000007" class="edge">
<title>Node11&#45;&gt;Node7</title>
<g id="a_edge14_Node000011_Node000007"><a xlink:title=" ">
<path fill="none" stroke="#63b8ff" d="M348.05,-109.95C362.28,-102.42 381.38,-90.15 392.64,-74 401.91,-60.69 406.13,-42.57 408.04,-29.1"/>
<polygon fill="#63b8ff" stroke="#63b8ff" points="411.53,-29.41 409.17,-19.08 404.58,-28.62 411.53,-29.41"/>
</a>
</g>
</g>
<!-- Node11&#45;&gt;Node8 -->
<g id="edge15_Node000011_Node000008" class="edge">
<title>Node11&#45;&gt;Node8</title>
<g id="a_edge15_Node000011_Node000008"><a xlink:title=" ">
<path fill="none" stroke="#63b8ff" d="M347.79,-109.87C364.79,-101.51 390.64,-88.06 411.64,-74 433.67,-59.24 457.01,-39.64 472.36,-26.14"/>
<polygon fill="#63b8ff" stroke="#63b8ff" points="474.86,-28.6 480,-19.34 470.2,-23.38 474.86,-28.6"/>
</a>
</g>
</g>
<!-- Node11&#45;&gt;Node9 -->
<g id="edge16_Node000011_Node000009" class="edge">
<title>Node11&#45;&gt;Node9</title>
<g id="a_edge16_Node000011_Node000009"><a xlink:title=" ">
<path fill="none" stroke="#63b8ff" d="M310.82,-109.92C295.55,-102.22 274.23,-89.73 259.64,-74 247.42,-60.84 238.21,-42.46 232.48,-28.86"/>
<polygon fill="#63b8ff" stroke="#63b8ff" points="235.57,-27.17 228.64,-19.17 229.07,-29.75 235.57,-27.17"/>
</a>
</g>
</g>
<!-- Node11&#45;&gt;Node10 -->
<g id="edge17_Node000011_Node000010" class="edge">
<title>Node11&#45;&gt;Node10</title>
<g id="a_edge17_Node000011_Node000010"><a xlink:title=" ">
<path fill="none" stroke="#63b8ff" d="M359.84,-109.98C391.68,-101.01 442,-86.82 477.23,-76.89"/>
<polygon fill="#63b8ff" stroke="#63b8ff" points="478.52,-80.16 487.19,-74.08 476.62,-73.43 478.52,-80.16"/>
</a>
</g>
</g>
<!-- Node12 -->
<g id="Node000012" class="node">
<title>Node12</title>
<g id="a_Node000012"><a xlink:href="../../d4/df4/vinternalvariable_8h.html" target="_top" xlink:title=" ">
<polygon fill="white" stroke="#666666" points="384.14,-74 275.14,-74 275.14,-55 384.14,-55 384.14,-74"/>
<text text-anchor="middle" x="329.64" y="-62" font-family="Helvetica,sans-Serif" font-size="10.00">vinternalvariable.h</text>
</a>
</g>
</g>
<!-- Node11&#45;&gt;Node12 -->
<g id="edge18_Node000011_Node000012" class="edge">
<title>Node11&#45;&gt;Node12</title>
<g id="a_edge18_Node000011_Node000012"><a xlink:title=" ">
<path fill="none" stroke="#63b8ff" d="M329.64,-109.75C329.64,-102.8 329.64,-92.85 329.64,-84.13"/>
<polygon fill="#63b8ff" stroke="#63b8ff" points="333.14,-84.09 329.64,-74.09 326.14,-84.09 333.14,-84.09"/>
</a>
</g>
</g>
<!-- Node12&#45;&gt;Node4 -->
<g id="edge19_Node000012_Node000004" class="edge">
<title>Node12&#45;&gt;Node4</title>
<g id="a_edge19_Node000012_Node000004"><a xlink:title=" ">
<path fill="none" stroke="#63b8ff" d="M294.13,-54.98C256.14,-45.87 195.77,-31.4 154.28,-21.45"/>
<polygon fill="#63b8ff" stroke="#63b8ff" points="154.96,-18.01 144.42,-19.08 153.33,-24.82 154.96,-18.01"/>
</a>
</g>
</g>
<!-- Node12&#45;&gt;Node5 -->
<g id="edge20_Node000012_Node000005" class="edge">
<title>Node12&#45;&gt;Node5</title>
<g id="a_edge20_Node000012_Node000005"><a xlink:title=" ">
<path fill="none" stroke="#63b8ff" d="M329.64,-54.75C329.64,-47.8 329.64,-37.85 329.64,-29.13"/>
<polygon fill="#63b8ff" stroke="#63b8ff" points="333.14,-29.09 329.64,-19.09 326.14,-29.09 333.14,-29.09"/>
</a>
</g>
</g>
<!-- Node12&#45;&gt;Node7 -->
<g id="edge21_Node000012_Node000007" class="edge">
<title>Node12&#45;&gt;Node7</title>
<g id="a_edge21_Node000012_Node000007"><a xlink:title=" ">
<path fill="none" stroke="#63b8ff" d="M342.49,-54.98C354.78,-46.84 373.54,-34.41 388.11,-24.76"/>
<polygon fill="#63b8ff" stroke="#63b8ff" points="390.14,-27.61 396.55,-19.17 386.28,-21.78 390.14,-27.61"/>
</a>
</g>
</g>
<!-- Node12&#45;&gt;Node8 -->
<g id="edge22_Node000012_Node000008" class="edge">
<title>Node12&#45;&gt;Node8</title>
<g id="a_edge22_Node000012_Node000008"><a xlink:title=" ">
<path fill="none" stroke="#63b8ff" d="M355.34,-54.98C382.09,-46.13 424.16,-32.19 454.09,-22.28"/>
<polygon fill="#63b8ff" stroke="#63b8ff" points="455.34,-25.55 463.73,-19.08 453.13,-18.9 455.34,-25.55"/>
</a>
</g>
</g>
<!-- Node12&#45;&gt;Node9 -->
<g id="edge23_Node000012_Node000009" class="edge">
<title>Node12&#45;&gt;Node9</title>
<g id="a_edge23_Node000012_Node000009"><a xlink:title=" ">
<path fill="none" stroke="#63b8ff" d="M312.93,-54.98C296.42,-46.57 270.94,-33.59 251.76,-23.81"/>
<polygon fill="#63b8ff" stroke="#63b8ff" points="253.15,-20.59 242.65,-19.17 249.97,-26.83 253.15,-20.59"/>
</a>
</g>
</g>
</g>
</svg>

<g id="navigator" transform="translate(0 0)" fill="#404254">
  <rect fill="#f2f5e9" fill-opacity="0.5" stroke="#606060" stroke-width=".5" x="0" y="0" width="60" height="60"/>
  <use id="zoomplus" xlink:href="#zoomPlus" x="17" y="9" onmousedown="handleZoom(evt,'in')"/>
  <use id="zoomminus" xlink:href="#zoomMin" x="42" y="9" onmousedown="handleZoom(evt,'out')"/>
  <use id="reset" xlink:href="#resetDef" x="30" y="36" onmousedown="handleReset()"/>
   <use id="arrowup" xlink:href="#arrowUp" x="0" y="0" onmousedown="handlePan(0,-1)"/>
  <use id="arrowright" xlink:href="#arrowRight" x="0" y="0" onmousedown="handlePan(1,0)"/>
  <use id="arrowdown" xlink:href="#arrowDown" x="0" y="0" onmousedown="handlePan(0,1)"/>
  <use id="arrowleft" xlink:href="#arrowLeft" x="0" y="0" onmousedown="handlePan(-1,0)"/>
</g>
<svg viewBox="0 0 15 15" width="100%" height="30px" preserveAspectRatio="xMaxYMin meet">
 <g id="arrow_out" transform="scale(0.3 0.3)">
  <a xlink:href="vmeasurement_8h__incl_org.svg" target="_base">
   <rect id="button" ry="5" rx="5" y="6" x="6" height="38" width="38"
        fill="#f2f5e9" fill-opacity="0.5" stroke="#606060" stroke-width="1.0"/>
   <path id="arrow"
     d="M 11.500037,31.436501 C 11.940474,20.09759 22.043105,11.32322 32.158766,21.979434 L 37.068811,17.246167 C 37.068811,17.246167 37.088388,32 37.088388,32 L 22.160133,31.978069 C 22.160133,31.978069 26.997745,27.140456 26.997745,27.140456 C 18.528582,18.264221 13.291696,25.230495 11.500037,31.436501 z"
     style="fill:#404040;"/>
  </a>
 </g>
</svg>

<style type='text/css'>
<![CDATA[
[data-mouse-over-selected='false'] { opacity: 0.7; }
[data-mouse-over-selected='true']  { opacity: 1.0; }
]]>
</style>
<script type="application/ecmascript"><![CDATA[
document.addEventListener('DOMContentLoaded', (event) => {
  highlightEdges();
  highlightAdjacentNodes();
});
]]></script>
</svg>
