<?xml version="1.0" encoding="UTF-8" standalone="no"?>
<!DOCTYPE svg PUBLIC "-//W3C//DTD SVG 1.1//EN"
 "http://www.w3.org/Graphics/SVG/1.1/DTD/svg11.dtd">
<!-- Generated by graphviz version 2.43.0 (0)
 -->
<!-- Title: VInternalVariable Pages: 1 -->
<svg width="797pt" height="842pt"
 viewBox="0.00 0.00 797.00 842.00" xmlns="http://www.w3.org/2000/svg" xmlns:xlink="http://www.w3.org/1999/xlink">
<g id="graph0" class="graph" transform="scale(1 1) rotate(0) translate(4 838)">
<title>VInternalVariable</title>
<!-- Node1 -->
<g id="Node000001" class="node">
<title>Node1</title>
<g id="a_Node000001"><a xlink:title=" ">
<polygon fill="#999999" stroke="transparent" points="496.5,-834 375.5,-834 375.5,-590 496.5,-590 496.5,-834"/>
<text text-anchor="start" x="394" y="-822" font-family="Helvetica,sans-Serif" font-size="10.00">VInternalVariable</text>
<text text-anchor="start" x="382.5" y="-807" font-family="Helvetica,sans-Serif" font-size="10.00">&#45;</text>
<text text-anchor="start" x="393" y="-807" font-family="Helvetica,sans-Serif" font-size="10.00">d</text>
<text text-anchor="start" x="380" y="-792" font-family="Helvetica,sans-Serif" font-size="10.00">+</text>
<text text-anchor="start" x="393" y="-792" font-family="Helvetica,sans-Serif" font-size="10.00">VInternalVariable()</text>
<text text-anchor="start" x="380" y="-777" font-family="Helvetica,sans-Serif" font-size="10.00">+</text>
<text text-anchor="start" x="393" y="-777" font-family="Helvetica,sans-Serif" font-size="10.00">VInternalVariable()</text>
<text text-anchor="start" x="380" y="-762" font-family="Helvetica,sans-Serif" font-size="10.00">+</text>
<text text-anchor="start" x="393" y="-762" font-family="Helvetica,sans-Serif" font-size="10.00">~VInternalVariable()</text>
<text text-anchor="start" x="380" y="-747" font-family="Helvetica,sans-Serif" font-size="10.00">+</text>
<text text-anchor="start" x="393" y="-747" font-family="Helvetica,sans-Serif" font-size="10.00">operator=()</text>
<text text-anchor="start" x="380" y="-732" font-family="Helvetica,sans-Serif" font-size="10.00">+</text>
<text text-anchor="start" x="393" y="-732" font-family="Helvetica,sans-Serif" font-size="10.00">Swap()</text>
<text text-anchor="start" x="380" y="-717" font-family="Helvetica,sans-Serif" font-size="10.00">+</text>
<text text-anchor="start" x="393" y="-717" font-family="Helvetica,sans-Serif" font-size="10.00">GetValue()</text>
<text text-anchor="start" x="380" y="-702" font-family="Helvetica,sans-Serif" font-size="10.00">+</text>
<text text-anchor="start" x="393" y="-702" font-family="Helvetica,sans-Serif" font-size="10.00">GetValue()</text>
<text text-anchor="start" x="380" y="-687" font-family="Helvetica,sans-Serif" font-size="10.00">+</text>
<text text-anchor="start" x="393" y="-687" font-family="Helvetica,sans-Serif" font-size="10.00">GetName()</text>
<text text-anchor="start" x="380" y="-672" font-family="Helvetica,sans-Serif" font-size="10.00">+</text>
<text text-anchor="start" x="393" y="-672" font-family="Helvetica,sans-Serif" font-size="10.00">SetName()</text>
<text text-anchor="start" x="380" y="-657" font-family="Helvetica,sans-Serif" font-size="10.00">+</text>
<text text-anchor="start" x="393" y="-657" font-family="Helvetica,sans-Serif" font-size="10.00">GetType()</text>
<text text-anchor="start" x="380" y="-642" font-family="Helvetica,sans-Serif" font-size="10.00">+</text>
<text text-anchor="start" x="393" y="-642" font-family="Helvetica,sans-Serif" font-size="10.00">SetType()</text>
<text text-anchor="start" x="380" y="-627" font-family="Helvetica,sans-Serif" font-size="10.00">+</text>
<text text-anchor="start" x="393" y="-627" font-family="Helvetica,sans-Serif" font-size="10.00">Filter()</text>
<text text-anchor="start" x="380" y="-612" font-family="Helvetica,sans-Serif" font-size="10.00">+</text>
<text text-anchor="start" x="393" y="-612" font-family="Helvetica,sans-Serif" font-size="10.00">isNotUsed()</text>
<text text-anchor="start" x="380" y="-597" font-family="Helvetica,sans-Serif" font-size="10.00">#</text>
<text text-anchor="start" x="393" y="-597" font-family="Helvetica,sans-Serif" font-size="10.00">SetValue()</text>
<polygon fill="#666666" stroke="#666666" points="376,-817 376,-817 497,-817 497,-817 376,-817"/>
<polygon fill="#666666" stroke="#666666" points="376,-802 376,-802 391,-802 391,-802 376,-802"/>
<polygon fill="#666666" stroke="#666666" points="391,-802 391,-802 497,-802 497,-802 391,-802"/>
<polygon fill="none" stroke="#666666" points="375.5,-590 375.5,-834 496.5,-834 496.5,-590 375.5,-590"/>
</a>
</g>
</g>
<!-- Node2 -->
<g id="Node000002" class="node">
<title>Node2</title>
<g id="a_Node000002"><a xlink:href="../../d3/d5a/classVCurveVariable.html" target="_top" xlink:title=" ">
<polygon fill="white" stroke="transparent" points="313,-554 201,-554 201,-355 313,-355 313,-554"/>
<text text-anchor="start" x="219" y="-541.5" font-family="Helvetica,sans-Serif" font-size="10.00">VCurveVariable</text>
<text text-anchor="start" x="207.5" y="-526.5" font-family="Helvetica,sans-Serif" font-size="10.00">&#45;</text>
<text text-anchor="start" x="218" y="-526.5" font-family="Helvetica,sans-Serif" font-size="10.00">d</text>
<text text-anchor="start" x="205" y="-511.5" font-family="Helvetica,sans-Serif" font-size="10.00">+</text>
<text text-anchor="start" x="218" y="-511.5" font-family="Helvetica,sans-Serif" font-size="10.00">VCurveVariable()</text>
<text text-anchor="start" x="205" y="-496.5" font-family="Helvetica,sans-Serif" font-size="10.00">+</text>
<text text-anchor="start" x="218" y="-496.5" font-family="Helvetica,sans-Serif" font-size="10.00">VCurveVariable()</text>
<text text-anchor="start" x="205" y="-481.5" font-family="Helvetica,sans-Serif" font-size="10.00">+</text>
<text text-anchor="start" x="218" y="-481.5" font-family="Helvetica,sans-Serif" font-size="10.00">VCurveVariable()</text>
<text text-anchor="start" x="205" y="-466.5" font-family="Helvetica,sans-Serif" font-size="10.00">+</text>
<text text-anchor="start" x="218" y="-466.5" font-family="Helvetica,sans-Serif" font-size="10.00">~VCurveVariable()</text>
<text text-anchor="start" x="205" y="-451.5" font-family="Helvetica,sans-Serif" font-size="10.00">+</text>
<text text-anchor="start" x="218" y="-451.5" font-family="Helvetica,sans-Serif" font-size="10.00">operator=()</text>
<text text-anchor="start" x="205" y="-436.5" font-family="Helvetica,sans-Serif" font-size="10.00">+</text>
<text text-anchor="start" x="218" y="-436.5" font-family="Helvetica,sans-Serif" font-size="10.00">Swap()</text>
<text text-anchor="start" x="205" y="-421.5" font-family="Helvetica,sans-Serif" font-size="10.00">+</text>
<text text-anchor="start" x="218" y="-421.5" font-family="Helvetica,sans-Serif" font-size="10.00">Filter()</text>
<text text-anchor="start" x="205" y="-406.5" font-family="Helvetica,sans-Serif" font-size="10.00">+</text>
<text text-anchor="start" x="218" y="-406.5" font-family="Helvetica,sans-Serif" font-size="10.00">GetId()</text>
<text text-anchor="start" x="205" y="-391.5" font-family="Helvetica,sans-Serif" font-size="10.00">+</text>
<text text-anchor="start" x="218" y="-391.5" font-family="Helvetica,sans-Serif" font-size="10.00">SetId()</text>
<text text-anchor="start" x="205" y="-376.5" font-family="Helvetica,sans-Serif" font-size="10.00">+</text>
<text text-anchor="start" x="218" y="-376.5" font-family="Helvetica,sans-Serif" font-size="10.00">GetParentId()</text>
<text text-anchor="start" x="205" y="-361.5" font-family="Helvetica,sans-Serif" font-size="10.00">+</text>
<text text-anchor="start" x="218" y="-361.5" font-family="Helvetica,sans-Serif" font-size="10.00">SetParentId()</text>
<polygon fill="#666666" stroke="#666666" points="201,-536.5 201,-536.5 313,-536.5 313,-536.5 201,-536.5"/>
<polygon fill="#666666" stroke="#666666" points="201,-521.5 201,-521.5 216,-521.5 216,-521.5 201,-521.5"/>
<polygon fill="#666666" stroke="#666666" points="216,-521.5 216,-521.5 313,-521.5 313,-521.5 216,-521.5"/>
<polygon fill="none" stroke="#666666" points="201,-355 201,-554 313,-554 313,-355 201,-355"/>
</a>
</g>
</g>
<!-- Node1&#45;&gt;Node2 -->
<g id="edge1_Node000001_Node000002" class="edge">
<title>Node1&#45;&gt;Node2</title>
<g id="a_edge1_Node000001_Node000002"><a xlink:title=" ">
<path fill="none" stroke="#63b8ff" d="M369.28,-620.57C353.58,-598.89 337.05,-575.73 322,-554 319.08,-549.79 316.12,-545.46 313.14,-541.08"/>
<polygon fill="none" stroke="#63b8ff" points="366.54,-622.75 375.25,-628.79 372.21,-618.64 366.54,-622.75"/>
</a>
</g>
</g>
<!-- Node7 -->
<g id="Node000007" class="node">
<title>Node7</title>
<g id="a_Node000007"><a xlink:href="../../d6/d57/classVLengthLine.html" target="_top" xlink:title=" ">
<polygon fill="white" stroke="transparent" points="428.5,-546.5 331.5,-546.5 331.5,-362.5 428.5,-362.5 428.5,-546.5"/>
<text text-anchor="start" x="350" y="-534.5" font-family="Helvetica,sans-Serif" font-size="10.00">VLengthLine</text>
<text text-anchor="start" x="338.5" y="-519.5" font-family="Helvetica,sans-Serif" font-size="10.00">&#45;</text>
<text text-anchor="start" x="349" y="-519.5" font-family="Helvetica,sans-Serif" font-size="10.00">d</text>
<text text-anchor="start" x="336" y="-504.5" font-family="Helvetica,sans-Serif" font-size="10.00">+</text>
<text text-anchor="start" x="349" y="-504.5" font-family="Helvetica,sans-Serif" font-size="10.00">VLengthLine()</text>
<text text-anchor="start" x="336" y="-489.5" font-family="Helvetica,sans-Serif" font-size="10.00">+</text>
<text text-anchor="start" x="349" y="-489.5" font-family="Helvetica,sans-Serif" font-size="10.00">VLengthLine()</text>
<text text-anchor="start" x="336" y="-474.5" font-family="Helvetica,sans-Serif" font-size="10.00">+</text>
<text text-anchor="start" x="349" y="-474.5" font-family="Helvetica,sans-Serif" font-size="10.00">VLengthLine()</text>
<text text-anchor="start" x="336" y="-459.5" font-family="Helvetica,sans-Serif" font-size="10.00">+</text>
<text text-anchor="start" x="349" y="-459.5" font-family="Helvetica,sans-Serif" font-size="10.00">~VLengthLine()</text>
<text text-anchor="start" x="336" y="-444.5" font-family="Helvetica,sans-Serif" font-size="10.00">+</text>
<text text-anchor="start" x="349" y="-444.5" font-family="Helvetica,sans-Serif" font-size="10.00">operator=()</text>
<text text-anchor="start" x="336" y="-429.5" font-family="Helvetica,sans-Serif" font-size="10.00">+</text>
<text text-anchor="start" x="349" y="-429.5" font-family="Helvetica,sans-Serif" font-size="10.00">Swap()</text>
<text text-anchor="start" x="336" y="-414.5" font-family="Helvetica,sans-Serif" font-size="10.00">+</text>
<text text-anchor="start" x="349" y="-414.5" font-family="Helvetica,sans-Serif" font-size="10.00">Filter()</text>
<text text-anchor="start" x="336" y="-399.5" font-family="Helvetica,sans-Serif" font-size="10.00">+</text>
<text text-anchor="start" x="349" y="-399.5" font-family="Helvetica,sans-Serif" font-size="10.00">SetValue()</text>
<text text-anchor="start" x="336" y="-384.5" font-family="Helvetica,sans-Serif" font-size="10.00">+</text>
<text text-anchor="start" x="349" y="-384.5" font-family="Helvetica,sans-Serif" font-size="10.00">GetP1Id()</text>
<text text-anchor="start" x="336" y="-369.5" font-family="Helvetica,sans-Serif" font-size="10.00">+</text>
<text text-anchor="start" x="349" y="-369.5" font-family="Helvetica,sans-Serif" font-size="10.00">GetP2Id()</text>
<polygon fill="#666666" stroke="#666666" points="332,-529.5 332,-529.5 429,-529.5 429,-529.5 332,-529.5"/>
<polygon fill="#666666" stroke="#666666" points="332,-514.5 332,-514.5 347,-514.5 347,-514.5 332,-514.5"/>
<polygon fill="#666666" stroke="#666666" points="347,-514.5 347,-514.5 429,-514.5 429,-514.5 347,-514.5"/>
<polygon fill="none" stroke="#666666" points="331.5,-362.5 331.5,-546.5 428.5,-546.5 428.5,-362.5 331.5,-362.5"/>
</a>
</g>
</g>
<!-- Node1&#45;&gt;Node7 -->
<g id="edge6_Node000001_Node000007" class="edge">
<title>Node1&#45;&gt;Node7</title>
<g id="a_edge6_Node000001_Node000007"><a xlink:title=" ">
<path fill="none" stroke="#63b8ff" d="M407.3,-580.07C404.83,-568.78 402.36,-557.53 399.98,-546.67"/>
<polygon fill="none" stroke="#63b8ff" points="403.92,-580.97 409.48,-589.98 410.75,-579.47 403.92,-580.97"/>
</a>
</g>
</g>
<!-- Node8 -->
<g id="Node000008" class="node">
<title>Node8</title>
<g id="a_Node000008"><a xlink:href="../../d1/d88/classVLineAngle.html" target="_top" xlink:title=" ">
<polygon fill="white" stroke="transparent" points="539,-546.5 447,-546.5 447,-362.5 539,-362.5 539,-546.5"/>
<text text-anchor="start" x="465.5" y="-534.5" font-family="Helvetica,sans-Serif" font-size="10.00">VLineAngle</text>
<text text-anchor="start" x="453.5" y="-519.5" font-family="Helvetica,sans-Serif" font-size="10.00">&#45;</text>
<text text-anchor="start" x="464" y="-519.5" font-family="Helvetica,sans-Serif" font-size="10.00">d</text>
<text text-anchor="start" x="451" y="-504.5" font-family="Helvetica,sans-Serif" font-size="10.00">+</text>
<text text-anchor="start" x="464" y="-504.5" font-family="Helvetica,sans-Serif" font-size="10.00">VLineAngle()</text>
<text text-anchor="start" x="451" y="-489.5" font-family="Helvetica,sans-Serif" font-size="10.00">+</text>
<text text-anchor="start" x="464" y="-489.5" font-family="Helvetica,sans-Serif" font-size="10.00">VLineAngle()</text>
<text text-anchor="start" x="451" y="-474.5" font-family="Helvetica,sans-Serif" font-size="10.00">+</text>
<text text-anchor="start" x="464" y="-474.5" font-family="Helvetica,sans-Serif" font-size="10.00">VLineAngle()</text>
<text text-anchor="start" x="451" y="-459.5" font-family="Helvetica,sans-Serif" font-size="10.00">+</text>
<text text-anchor="start" x="464" y="-459.5" font-family="Helvetica,sans-Serif" font-size="10.00">~VLineAngle()</text>
<text text-anchor="start" x="451" y="-444.5" font-family="Helvetica,sans-Serif" font-size="10.00">+</text>
<text text-anchor="start" x="464" y="-444.5" font-family="Helvetica,sans-Serif" font-size="10.00">operator=()</text>
<text text-anchor="start" x="451" y="-429.5" font-family="Helvetica,sans-Serif" font-size="10.00">+</text>
<text text-anchor="start" x="464" y="-429.5" font-family="Helvetica,sans-Serif" font-size="10.00">Swap()</text>
<text text-anchor="start" x="451" y="-414.5" font-family="Helvetica,sans-Serif" font-size="10.00">+</text>
<text text-anchor="start" x="464" y="-414.5" font-family="Helvetica,sans-Serif" font-size="10.00">Filter()</text>
<text text-anchor="start" x="451" y="-399.5" font-family="Helvetica,sans-Serif" font-size="10.00">+</text>
<text text-anchor="start" x="464" y="-399.5" font-family="Helvetica,sans-Serif" font-size="10.00">SetValue()</text>
<text text-anchor="start" x="451" y="-384.5" font-family="Helvetica,sans-Serif" font-size="10.00">+</text>
<text text-anchor="start" x="464" y="-384.5" font-family="Helvetica,sans-Serif" font-size="10.00">GetP1Id()</text>
<text text-anchor="start" x="451" y="-369.5" font-family="Helvetica,sans-Serif" font-size="10.00">+</text>
<text text-anchor="start" x="464" y="-369.5" font-family="Helvetica,sans-Serif" font-size="10.00">GetP2Id()</text>
<polygon fill="#666666" stroke="#666666" points="447,-529.5 447,-529.5 539,-529.5 539,-529.5 447,-529.5"/>
<polygon fill="#666666" stroke="#666666" points="447,-514.5 447,-514.5 462,-514.5 462,-514.5 447,-514.5"/>
<polygon fill="#666666" stroke="#666666" points="462,-514.5 462,-514.5 539,-514.5 539,-514.5 462,-514.5"/>
<polygon fill="none" stroke="#666666" points="447,-362.5 447,-546.5 539,-546.5 539,-362.5 447,-362.5"/>
</a>
</g>
</g>
<!-- Node1&#45;&gt;Node8 -->
<g id="edge7_Node000001_Node000008" class="edge">
<title>Node1&#45;&gt;Node8</title>
<g id="a_edge7_Node000001_Node000008"><a xlink:title=" ">
<path fill="none" stroke="#63b8ff" d="M465.21,-580.07C467.73,-568.78 470.24,-557.53 472.66,-546.67"/>
<polygon fill="none" stroke="#63b8ff" points="461.76,-579.46 463,-589.98 468.59,-580.99 461.76,-579.46"/>
</a>
</g>
</g>
<!-- Node9 -->
<g id="Node000009" class="node">
<title>Node9</title>
<g id="a_Node000009"><a xlink:href="../../da/d49/classVVariable.html" target="_top" xlink:title=" ">
<polygon fill="white" stroke="transparent" points="659,-531.5 557,-531.5 557,-377.5 659,-377.5 659,-531.5"/>
<text text-anchor="start" x="584.5" y="-519.5" font-family="Helvetica,sans-Serif" font-size="10.00">VVariable</text>
<text text-anchor="start" x="563.5" y="-504.5" font-family="Helvetica,sans-Serif" font-size="10.00">&#45;</text>
<text text-anchor="start" x="574" y="-504.5" font-family="Helvetica,sans-Serif" font-size="10.00">d</text>
<text text-anchor="start" x="561" y="-489.5" font-family="Helvetica,sans-Serif" font-size="10.00">+</text>
<text text-anchor="start" x="574" y="-489.5" font-family="Helvetica,sans-Serif" font-size="10.00">VVariable()</text>
<text text-anchor="start" x="561" y="-474.5" font-family="Helvetica,sans-Serif" font-size="10.00">+</text>
<text text-anchor="start" x="574" y="-474.5" font-family="Helvetica,sans-Serif" font-size="10.00">VVariable()</text>
<text text-anchor="start" x="561" y="-459.5" font-family="Helvetica,sans-Serif" font-size="10.00">+</text>
<text text-anchor="start" x="574" y="-459.5" font-family="Helvetica,sans-Serif" font-size="10.00">VVariable()</text>
<text text-anchor="start" x="561" y="-444.5" font-family="Helvetica,sans-Serif" font-size="10.00">+</text>
<text text-anchor="start" x="574" y="-444.5" font-family="Helvetica,sans-Serif" font-size="10.00">~VVariable()</text>
<text text-anchor="start" x="561" y="-429.5" font-family="Helvetica,sans-Serif" font-size="10.00">+</text>
<text text-anchor="start" x="574" y="-429.5" font-family="Helvetica,sans-Serif" font-size="10.00">operator=()</text>
<text text-anchor="start" x="561" y="-414.5" font-family="Helvetica,sans-Serif" font-size="10.00">+</text>
<text text-anchor="start" x="574" y="-414.5" font-family="Helvetica,sans-Serif" font-size="10.00">Swap()</text>
<text text-anchor="start" x="561" y="-399.5" font-family="Helvetica,sans-Serif" font-size="10.00">+</text>
<text text-anchor="start" x="574" y="-399.5" font-family="Helvetica,sans-Serif" font-size="10.00">GetDescription()</text>
<text text-anchor="start" x="561" y="-384.5" font-family="Helvetica,sans-Serif" font-size="10.00">+</text>
<text text-anchor="start" x="574" y="-384.5" font-family="Helvetica,sans-Serif" font-size="10.00">SetDescription()</text>
<polygon fill="#666666" stroke="#666666" points="557,-514.5 557,-514.5 659,-514.5 659,-514.5 557,-514.5"/>
<polygon fill="#666666" stroke="#666666" points="557,-499.5 557,-499.5 572,-499.5 572,-499.5 557,-499.5"/>
<polygon fill="#666666" stroke="#666666" points="572,-499.5 572,-499.5 659,-499.5 659,-499.5 572,-499.5"/>
<polygon fill="none" stroke="#666666" points="557,-377.5 557,-531.5 659,-531.5 659,-377.5 557,-377.5"/>
</a>
</g>
</g>
<!-- Node1&#45;&gt;Node9 -->
<g id="edge8_Node000001_Node000009" class="edge">
<title>Node1&#45;&gt;Node9</title>
<g id="a_edge8_Node000001_Node000009"><a xlink:title=" ">
<path fill="none" stroke="#63b8ff" d="M502.52,-620.11C517.77,-598.64 533.69,-575.68 548,-554 552.74,-546.81 557.59,-539.26 562.36,-531.67"/>
<polygon fill="none" stroke="#63b8ff" points="499.67,-618.09 496.72,-628.27 505.37,-622.15 499.67,-618.09"/>
</a>
</g>
</g>
<!-- Node3 -->
<g id="Node000003" class="node">
<title>Node3</title>
<g id="a_Node000003"><a xlink:href="../../d1/dd4/classVArcRadius.html" target="_top" xlink:title=" ">
<polygon fill="white" stroke="transparent" points="92,-221.5 0,-221.5 0,-97.5 92,-97.5 92,-221.5"/>
<text text-anchor="start" x="18.5" y="-209.5" font-family="Helvetica,sans-Serif" font-size="10.00">VArcRadius</text>
<text text-anchor="start" x="44" y="-194.5" font-family="Helvetica,sans-Serif" font-size="10.00"> </text>
<text text-anchor="start" x="4" y="-179.5" font-family="Helvetica,sans-Serif" font-size="10.00">+</text>
<text text-anchor="start" x="17" y="-179.5" font-family="Helvetica,sans-Serif" font-size="10.00">VArcRadius()</text>
<text text-anchor="start" x="4" y="-164.5" font-family="Helvetica,sans-Serif" font-size="10.00">+</text>
<text text-anchor="start" x="17" y="-164.5" font-family="Helvetica,sans-Serif" font-size="10.00">VArcRadius()</text>
<text text-anchor="start" x="4" y="-149.5" font-family="Helvetica,sans-Serif" font-size="10.00">+</text>
<text text-anchor="start" x="17" y="-149.5" font-family="Helvetica,sans-Serif" font-size="10.00">VArcRadius()</text>
<text text-anchor="start" x="4" y="-134.5" font-family="Helvetica,sans-Serif" font-size="10.00">+</text>
<text text-anchor="start" x="17" y="-134.5" font-family="Helvetica,sans-Serif" font-size="10.00">VArcRadius()</text>
<text text-anchor="start" x="4" y="-119.5" font-family="Helvetica,sans-Serif" font-size="10.00">+</text>
<text text-anchor="start" x="17" y="-119.5" font-family="Helvetica,sans-Serif" font-size="10.00">operator=()</text>
<text text-anchor="start" x="4" y="-104.5" font-family="Helvetica,sans-Serif" font-size="10.00">+</text>
<text text-anchor="start" x="17" y="-104.5" font-family="Helvetica,sans-Serif" font-size="10.00">~VArcRadius()</text>
<polygon fill="#666666" stroke="#666666" points="0,-204.5 0,-204.5 92,-204.5 92,-204.5 0,-204.5"/>
<polygon fill="#666666" stroke="#666666" points="0,-189.5 0,-189.5 92,-189.5 92,-189.5 0,-189.5"/>
<polygon fill="none" stroke="#666666" points="0,-97.5 0,-221.5 92,-221.5 92,-97.5 0,-97.5"/>
</a>
</g>
</g>
<!-- Node2&#45;&gt;Node3 -->
<g id="edge2_Node000002_Node000003" class="edge">
<title>Node2&#45;&gt;Node3</title>
<g id="a_edge2_Node000002_Node000003"><a xlink:title=" ">
<path fill="none" stroke="#63b8ff" d="M192.67,-410.43C161.32,-386.65 125.25,-354.71 101,-319 81.12,-289.72 67.72,-252.54 59.13,-221.54"/>
<polygon fill="none" stroke="#63b8ff" points="190.84,-413.43 200.95,-416.61 195.02,-407.82 190.84,-413.43"/>
</a>
</g>
</g>
<!-- Node4 -->
<g id="Node000004" class="node">
<title>Node4</title>
<g id="a_Node000004"><a xlink:href="../../d1/ddd/classVCurveAngle.html" target="_top" xlink:title=" ">
<polygon fill="white" stroke="transparent" points="210,-221.5 110,-221.5 110,-97.5 210,-97.5 210,-221.5"/>
<text text-anchor="start" x="128" y="-209.5" font-family="Helvetica,sans-Serif" font-size="10.00">VCurveAngle</text>
<text text-anchor="start" x="158" y="-194.5" font-family="Helvetica,sans-Serif" font-size="10.00"> </text>
<text text-anchor="start" x="114" y="-179.5" font-family="Helvetica,sans-Serif" font-size="10.00">+</text>
<text text-anchor="start" x="127" y="-179.5" font-family="Helvetica,sans-Serif" font-size="10.00">VCurveAngle()</text>
<text text-anchor="start" x="114" y="-164.5" font-family="Helvetica,sans-Serif" font-size="10.00">+</text>
<text text-anchor="start" x="127" y="-164.5" font-family="Helvetica,sans-Serif" font-size="10.00">VCurveAngle()</text>
<text text-anchor="start" x="114" y="-149.5" font-family="Helvetica,sans-Serif" font-size="10.00">+</text>
<text text-anchor="start" x="127" y="-149.5" font-family="Helvetica,sans-Serif" font-size="10.00">VCurveAngle()</text>
<text text-anchor="start" x="114" y="-134.5" font-family="Helvetica,sans-Serif" font-size="10.00">+</text>
<text text-anchor="start" x="127" y="-134.5" font-family="Helvetica,sans-Serif" font-size="10.00">VCurveAngle()</text>
<text text-anchor="start" x="114" y="-119.5" font-family="Helvetica,sans-Serif" font-size="10.00">+</text>
<text text-anchor="start" x="127" y="-119.5" font-family="Helvetica,sans-Serif" font-size="10.00">operator=()</text>
<text text-anchor="start" x="114" y="-104.5" font-family="Helvetica,sans-Serif" font-size="10.00">+</text>
<text text-anchor="start" x="127" y="-104.5" font-family="Helvetica,sans-Serif" font-size="10.00">~VCurveAngle()</text>
<polygon fill="#666666" stroke="#666666" points="110,-204.5 110,-204.5 210,-204.5 210,-204.5 110,-204.5"/>
<polygon fill="#666666" stroke="#666666" points="110,-189.5 110,-189.5 210,-189.5 210,-189.5 110,-189.5"/>
<polygon fill="none" stroke="#666666" points="110,-97.5 110,-221.5 210,-221.5 210,-97.5 110,-97.5"/>
</a>
</g>
</g>
<!-- Node2&#45;&gt;Node4 -->
<g id="edge3_Node000002_Node000004" class="edge">
<title>Node2&#45;&gt;Node4</title>
<g id="a_edge3_Node000002_Node000004"><a xlink:title=" ">
<path fill="none" stroke="#63b8ff" d="M221.1,-345.07C207.33,-303.45 192.09,-257.43 180.28,-221.75"/>
<polygon fill="none" stroke="#63b8ff" points="217.83,-346.32 224.3,-354.71 224.48,-344.12 217.83,-346.32"/>
</a>
</g>
</g>
<!-- Node5 -->
<g id="Node000005" class="node">
<title>Node5</title>
<g id="a_Node000005"><a xlink:href="../../de/d77/classVCurveCLength.html" target="_top" xlink:title=" ">
<polygon fill="white" stroke="transparent" points="340,-221.5 228,-221.5 228,-97.5 340,-97.5 340,-221.5"/>
<text text-anchor="start" x="246" y="-209.5" font-family="Helvetica,sans-Serif" font-size="10.00">VCurveCLength</text>
<text text-anchor="start" x="282" y="-194.5" font-family="Helvetica,sans-Serif" font-size="10.00"> </text>
<text text-anchor="start" x="232" y="-179.5" font-family="Helvetica,sans-Serif" font-size="10.00">+</text>
<text text-anchor="start" x="245" y="-179.5" font-family="Helvetica,sans-Serif" font-size="10.00">VCurveCLength()</text>
<text text-anchor="start" x="232" y="-164.5" font-family="Helvetica,sans-Serif" font-size="10.00">+</text>
<text text-anchor="start" x="245" y="-164.5" font-family="Helvetica,sans-Serif" font-size="10.00">VCurveCLength()</text>
<text text-anchor="start" x="232" y="-149.5" font-family="Helvetica,sans-Serif" font-size="10.00">+</text>
<text text-anchor="start" x="245" y="-149.5" font-family="Helvetica,sans-Serif" font-size="10.00">VCurveCLength()</text>
<text text-anchor="start" x="232" y="-134.5" font-family="Helvetica,sans-Serif" font-size="10.00">+</text>
<text text-anchor="start" x="245" y="-134.5" font-family="Helvetica,sans-Serif" font-size="10.00">VCurveCLength()</text>
<text text-anchor="start" x="232" y="-119.5" font-family="Helvetica,sans-Serif" font-size="10.00">+</text>
<text text-anchor="start" x="245" y="-119.5" font-family="Helvetica,sans-Serif" font-size="10.00">operator=()</text>
<text text-anchor="start" x="232" y="-104.5" font-family="Helvetica,sans-Serif" font-size="10.00">+</text>
<text text-anchor="start" x="245" y="-104.5" font-family="Helvetica,sans-Serif" font-size="10.00">~VCurveCLength()</text>
<polygon fill="#666666" stroke="#666666" points="228,-204.5 228,-204.5 340,-204.5 340,-204.5 228,-204.5"/>
<polygon fill="#666666" stroke="#666666" points="228,-189.5 228,-189.5 340,-189.5 340,-189.5 228,-189.5"/>
<polygon fill="none" stroke="#666666" points="228,-97.5 228,-221.5 340,-221.5 340,-97.5 228,-97.5"/>
</a>
</g>
</g>
<!-- Node2&#45;&gt;Node5 -->
<g id="edge4_Node000002_Node000005" class="edge">
<title>Node2&#45;&gt;Node5</title>
<g id="a_edge4_Node000002_Node000005"><a xlink:title=" ">
<path fill="none" stroke="#63b8ff" d="M267.04,-344.55C270.86,-303.07 275.08,-257.28 278.36,-221.75"/>
<polygon fill="none" stroke="#63b8ff" points="263.54,-344.43 266.1,-354.71 270.51,-345.08 263.54,-344.43"/>
</a>
</g>
</g>
<!-- Node6 -->
<g id="Node000006" class="node">
<title>Node6</title>
<g id="a_Node000006"><a xlink:href="../../d8/d38/classVCurveLength.html" target="_top" xlink:title=" ">
<polygon fill="white" stroke="transparent" points="464,-221.5 358,-221.5 358,-97.5 464,-97.5 464,-221.5"/>
<text text-anchor="start" x="376.5" y="-209.5" font-family="Helvetica,sans-Serif" font-size="10.00">VCurveLength</text>
<text text-anchor="start" x="409" y="-194.5" font-family="Helvetica,sans-Serif" font-size="10.00"> </text>
<text text-anchor="start" x="362" y="-179.5" font-family="Helvetica,sans-Serif" font-size="10.00">+</text>
<text text-anchor="start" x="375" y="-179.5" font-family="Helvetica,sans-Serif" font-size="10.00">VCurveLength()</text>
<text text-anchor="start" x="362" y="-164.5" font-family="Helvetica,sans-Serif" font-size="10.00">+</text>
<text text-anchor="start" x="375" y="-164.5" font-family="Helvetica,sans-Serif" font-size="10.00">VCurveLength()</text>
<text text-anchor="start" x="362" y="-149.5" font-family="Helvetica,sans-Serif" font-size="10.00">+</text>
<text text-anchor="start" x="375" y="-149.5" font-family="Helvetica,sans-Serif" font-size="10.00">VCurveLength()</text>
<text text-anchor="start" x="362" y="-134.5" font-family="Helvetica,sans-Serif" font-size="10.00">+</text>
<text text-anchor="start" x="375" y="-134.5" font-family="Helvetica,sans-Serif" font-size="10.00">VCurveLength()</text>
<text text-anchor="start" x="362" y="-119.5" font-family="Helvetica,sans-Serif" font-size="10.00">+</text>
<text text-anchor="start" x="375" y="-119.5" font-family="Helvetica,sans-Serif" font-size="10.00">operator=()</text>
<text text-anchor="start" x="362" y="-104.5" font-family="Helvetica,sans-Serif" font-size="10.00">+</text>
<text text-anchor="start" x="375" y="-104.5" font-family="Helvetica,sans-Serif" font-size="10.00">~VCurveLength()</text>
<polygon fill="#666666" stroke="#666666" points="358,-204.5 358,-204.5 464,-204.5 464,-204.5 358,-204.5"/>
<polygon fill="#666666" stroke="#666666" points="358,-189.5 358,-189.5 464,-189.5 464,-189.5 358,-189.5"/>
<polygon fill="none" stroke="#666666" points="358,-97.5 358,-221.5 464,-221.5 464,-97.5 358,-97.5"/>
</a>
</g>
</g>
<!-- Node2&#45;&gt;Node6 -->
<g id="edge5_Node000002_Node000006" class="edge">
<title>Node2&#45;&gt;Node6</title>
<g id="a_edge5_Node000002_Node000006"><a xlink:title=" ">
<path fill="none" stroke="#63b8ff" d="M318.95,-359.36C319.97,-357.89 320.99,-356.44 322,-355 333.51,-338.65 339.27,-336.47 349,-319 366.11,-288.28 380.71,-251.87 391.44,-221.7"/>
<polygon fill="none" stroke="#63b8ff" points="315.87,-357.65 313.06,-367.87 321.63,-361.63 315.87,-357.65"/>
</a>
</g>
</g>
<!-- Node10 -->
<g id="Node000010" class="node">
<title>Node10</title>
<g id="a_Node000010"><a xlink:href="../../dd/d0c/classVIncrement.html" target="_top" xlink:title="The VIncrement class keep data row of increment table.">
<polygon fill="white" stroke="transparent" points="629,-251.5 535,-251.5 535,-67.5 629,-67.5 629,-251.5"/>
<text text-anchor="start" x="553.5" y="-239.5" font-family="Helvetica,sans-Serif" font-size="10.00">VIncrement</text>
<text text-anchor="start" x="541.5" y="-224.5" font-family="Helvetica,sans-Serif" font-size="10.00">&#45;</text>
<text text-anchor="start" x="552" y="-224.5" font-family="Helvetica,sans-Serif" font-size="10.00">d</text>
<text text-anchor="start" x="539" y="-209.5" font-family="Helvetica,sans-Serif" font-size="10.00">+</text>
<text text-anchor="start" x="552" y="-209.5" font-family="Helvetica,sans-Serif" font-size="10.00">VIncrement()</text>
<text text-anchor="start" x="539" y="-194.5" font-family="Helvetica,sans-Serif" font-size="10.00">+</text>
<text text-anchor="start" x="552" y="-194.5" font-family="Helvetica,sans-Serif" font-size="10.00">VIncrement()</text>
<text text-anchor="start" x="539" y="-179.5" font-family="Helvetica,sans-Serif" font-size="10.00">+</text>
<text text-anchor="start" x="552" y="-179.5" font-family="Helvetica,sans-Serif" font-size="10.00">VIncrement()</text>
<text text-anchor="start" x="539" y="-164.5" font-family="Helvetica,sans-Serif" font-size="10.00">+</text>
<text text-anchor="start" x="552" y="-164.5" font-family="Helvetica,sans-Serif" font-size="10.00">~VIncrement()</text>
<text text-anchor="start" x="539" y="-149.5" font-family="Helvetica,sans-Serif" font-size="10.00">+</text>
<text text-anchor="start" x="552" y="-149.5" font-family="Helvetica,sans-Serif" font-size="10.00">operator=()</text>
<text text-anchor="start" x="539" y="-134.5" font-family="Helvetica,sans-Serif" font-size="10.00">+</text>
<text text-anchor="start" x="552" y="-134.5" font-family="Helvetica,sans-Serif" font-size="10.00">Swap()</text>
<text text-anchor="start" x="539" y="-119.5" font-family="Helvetica,sans-Serif" font-size="10.00">+</text>
<text text-anchor="start" x="552" y="-119.5" font-family="Helvetica,sans-Serif" font-size="10.00">getIndex()</text>
<text text-anchor="start" x="539" y="-104.5" font-family="Helvetica,sans-Serif" font-size="10.00">+</text>
<text text-anchor="start" x="552" y="-104.5" font-family="Helvetica,sans-Serif" font-size="10.00">GetFormula()</text>
<text text-anchor="start" x="539" y="-89.5" font-family="Helvetica,sans-Serif" font-size="10.00">+</text>
<text text-anchor="start" x="552" y="-89.5" font-family="Helvetica,sans-Serif" font-size="10.00">IsFormulaOk()</text>
<text text-anchor="start" x="539" y="-74.5" font-family="Helvetica,sans-Serif" font-size="10.00">+</text>
<text text-anchor="start" x="552" y="-74.5" font-family="Helvetica,sans-Serif" font-size="10.00">GetData()</text>
<polygon fill="#666666" stroke="#666666" points="535,-234.5 535,-234.5 629,-234.5 629,-234.5 535,-234.5"/>
<polygon fill="#666666" stroke="#666666" points="535,-219.5 535,-219.5 550,-219.5 550,-219.5 535,-219.5"/>
<polygon fill="#666666" stroke="#666666" points="550,-219.5 550,-219.5 629,-219.5 629,-219.5 550,-219.5"/>
<polygon fill="none" stroke="#666666" points="535,-67.5 535,-251.5 629,-251.5 629,-67.5 535,-67.5"/>
</a>
</g>
</g>
<!-- Node9&#45;&gt;Node10 -->
<g id="edge9_Node000009_Node000010" class="edge">
<title>Node9&#45;&gt;Node10</title>
<g id="a_edge9_Node000009_Node000010"><a xlink:title=" ">
<path fill="none" stroke="#63b8ff" d="M600.34,-367.2C597.12,-330.87 593.36,-288.56 590.09,-251.72"/>
<polygon fill="none" stroke="#63b8ff" points="596.87,-367.63 601.24,-377.28 603.84,-367.01 596.87,-367.63"/>
</a>
</g>
</g>
<!-- Node11 -->
<g id="Node000011" class="node">
<title>Node11</title>
<g id="a_Node000011"><a xlink:href="../../de/dcc/classVMeasurement.html" target="_top" xlink:title="The VMeasurement class keep data row of multisize table.">
<polygon fill="white" stroke="transparent" points="789,-319 647,-319 647,0 789,0 789,-319"/>
<text text-anchor="start" x="680.5" y="-306.5" font-family="Helvetica,sans-Serif" font-size="10.00">VMeasurement</text>
<text text-anchor="start" x="653.5" y="-291.5" font-family="Helvetica,sans-Serif" font-size="10.00">&#45;</text>
<text text-anchor="start" x="664" y="-291.5" font-family="Helvetica,sans-Serif" font-size="10.00">d</text>
<text text-anchor="start" x="651" y="-276.5" font-family="Helvetica,sans-Serif" font-size="10.00">+</text>
<text text-anchor="start" x="664" y="-276.5" font-family="Helvetica,sans-Serif" font-size="10.00">VMeasurement()</text>
<text text-anchor="start" x="651" y="-261.5" font-family="Helvetica,sans-Serif" font-size="10.00">+</text>
<text text-anchor="start" x="664" y="-261.5" font-family="Helvetica,sans-Serif" font-size="10.00">VMeasurement()</text>
<text text-anchor="start" x="651" y="-246.5" font-family="Helvetica,sans-Serif" font-size="10.00">+</text>
<text text-anchor="start" x="664" y="-246.5" font-family="Helvetica,sans-Serif" font-size="10.00">VMeasurement()</text>
<text text-anchor="start" x="651" y="-231.5" font-family="Helvetica,sans-Serif" font-size="10.00">+</text>
<text text-anchor="start" x="664" y="-231.5" font-family="Helvetica,sans-Serif" font-size="10.00">~VMeasurement()</text>
<text text-anchor="start" x="651" y="-216.5" font-family="Helvetica,sans-Serif" font-size="10.00">+</text>
<text text-anchor="start" x="664" y="-216.5" font-family="Helvetica,sans-Serif" font-size="10.00">operator=()</text>
<text text-anchor="start" x="651" y="-201.5" font-family="Helvetica,sans-Serif" font-size="10.00">+</text>
<text text-anchor="start" x="664" y="-201.5" font-family="Helvetica,sans-Serif" font-size="10.00">Swap()</text>
<text text-anchor="start" x="651" y="-186.5" font-family="Helvetica,sans-Serif" font-size="10.00">+</text>
<text text-anchor="start" x="664" y="-186.5" font-family="Helvetica,sans-Serif" font-size="10.00">getGuiText()</text>
<text text-anchor="start" x="651" y="-171.5" font-family="Helvetica,sans-Serif" font-size="10.00">+</text>
<text text-anchor="start" x="664" y="-171.5" font-family="Helvetica,sans-Serif" font-size="10.00">TagName()</text>
<text text-anchor="start" x="651" y="-156.5" font-family="Helvetica,sans-Serif" font-size="10.00">+</text>
<text text-anchor="start" x="664" y="-156.5" font-family="Helvetica,sans-Serif" font-size="10.00">setTagName()</text>
<text text-anchor="start" x="651" y="-141.5" font-family="Helvetica,sans-Serif" font-size="10.00">+</text>
<text text-anchor="start" x="664" y="-141.5" font-family="Helvetica,sans-Serif" font-size="10.00">GetFormula()</text>
<text text-anchor="start" x="664" y="-126.5" font-family="Helvetica,sans-Serif" font-size="10.00">and 16 more...</text>
<text text-anchor="start" x="651" y="-111.5" font-family="Helvetica,sans-Serif" font-size="10.00">+</text>
<text text-anchor="start" x="664" y="-111.5" font-family="Helvetica,sans-Serif" font-size="10.00">ListHeights()</text>
<text text-anchor="start" x="651" y="-96.5" font-family="Helvetica,sans-Serif" font-size="10.00">+</text>
<text text-anchor="start" x="664" y="-96.5" font-family="Helvetica,sans-Serif" font-size="10.00">ListSizes()</text>
<text text-anchor="start" x="651" y="-81.5" font-family="Helvetica,sans-Serif" font-size="10.00">+</text>
<text text-anchor="start" x="664" y="-81.5" font-family="Helvetica,sans-Serif" font-size="10.00">WholeListHeights()</text>
<text text-anchor="start" x="651" y="-66.5" font-family="Helvetica,sans-Serif" font-size="10.00">+</text>
<text text-anchor="start" x="664" y="-66.5" font-family="Helvetica,sans-Serif" font-size="10.00">WholeListSizes()</text>
<text text-anchor="start" x="651" y="-51.5" font-family="Helvetica,sans-Serif" font-size="10.00">+</text>
<text text-anchor="start" x="664" y="-51.5" font-family="Helvetica,sans-Serif" font-size="10.00">IsGradationSizeValid()</text>
<text text-anchor="start" x="651" y="-36.5" font-family="Helvetica,sans-Serif" font-size="10.00">+</text>
<text text-anchor="start" x="664" y="-36.5" font-family="Helvetica,sans-Serif" font-size="10.00">IsGradationHeightValid()</text>
<text text-anchor="start" x="653.5" y="-21.5" font-family="Helvetica,sans-Serif" font-size="10.00">&#45;</text>
<text text-anchor="start" x="664" y="-21.5" font-family="Helvetica,sans-Serif" font-size="10.00">CalcValue()</text>
<text text-anchor="start" x="653.5" y="-6.5" font-family="Helvetica,sans-Serif" font-size="10.00">&#45;</text>
<text text-anchor="start" x="664" y="-6.5" font-family="Helvetica,sans-Serif" font-size="10.00">ListValue()</text>
<polygon fill="#666666" stroke="#666666" points="647,-301.5 647,-301.5 789,-301.5 789,-301.5 647,-301.5"/>
<polygon fill="#666666" stroke="#666666" points="647,-286.5 647,-286.5 662,-286.5 662,-286.5 647,-286.5"/>
<polygon fill="#666666" stroke="#666666" points="662,-286.5 662,-286.5 789,-286.5 789,-286.5 662,-286.5"/>
<polygon fill="none" stroke="#666666" points="647,0 647,-319 789,-319 789,0 647,0"/>
</a>
</g>
</g>
<!-- Node9&#45;&gt;Node11 -->
<g id="edge10_Node000009_Node000011" class="edge">
<title>Node9&#45;&gt;Node11</title>
<g id="a_edge10_Node000009_Node000011"><a xlink:title=" ">
<path fill="none" stroke="#63b8ff" d="M640.17,-367.81C645.97,-352.37 652.18,-335.82 658.47,-319.06"/>
<polygon fill="none" stroke="#63b8ff" points="636.85,-366.69 636.61,-377.28 643.41,-369.15 636.85,-366.69"/>
</a>
</g>
</g>
</g>
</svg>
