<?xml version="1.0" encoding="UTF-8" standalone="no"?>
<!DOCTYPE svg PUBLIC "-//W3C//DTD SVG 1.1//EN"
 "http://www.w3.org/Graphics/SVG/1.1/DTD/svg11.dtd">
<!-- Generated by graphviz version 2.43.0 (0)
 -->
<!-- Title: src/libs/vgeometry/vabstractcubicbezier.cpp Pages: 1 -->
<!--zoomable 423 -->

<svg id="main" version="1.1" xmlns="http://www.w3.org/2000/svg" xmlns:xlink="http://www.w3.org/1999/xlink" xml:space="preserve" onload="init(evt)">
<style type="text/css"><![CDATA[
.node, .edge {opacity: 0.7;}
.node.selected, .edge.selected {opacity: 1;}
.edge:hover path { stroke: red; }
.edge:hover polygon { stroke: red; fill: red; }
]]></style>

<defs>
  <circle id="rim" cx="0" cy="0" r="7"/>
  <circle id="rim2" cx="0" cy="0" r="3.5"/>
  <g id="zoomPlus">
    <use xlink:href="#rim" fill="#404040"><set attributeName="fill" to="#808080" begin="zoomplus.mouseover" end="zoomplus.mouseout"/></use>
    <path d="M-4,0h8M0,-4v8" fill="none" stroke="white" stroke-width="1.5" pointer-events="none"/>
  </g>
  <g id="zoomMin">
    <use xlink:href="#rim" fill="#404040"><set attributeName="fill" to="#808080" begin="zoomminus.mouseover" end="zoomminus.mouseout"/></use>
    <path d="M-4,0h8" fill="none" stroke="white" stroke-width="1.5" pointer-events="none"/>
  </g>
  <g id="arrowUp" transform="translate(30 24)">
    <use xlink:href="#rim"/>
    <path pointer-events="none" fill="none" stroke="white" stroke-width="1.5" d="M0,-3.0v7 M-2.5,-0.5L0,-3.0L2.5,-0.5"/>
  </g>
  <g id="arrowRight" transform="rotate(90) translate(36 -43)">
    <use xlink:href="#rim"/>
    <path pointer-events="none" fill="none" stroke="white" stroke-width="1.5" d="M0,-3.0v7 M-2.5,-0.5L0,-3.0L2.5,-0.5"/>
  </g>
  <g id="arrowDown" transform="rotate(180) translate(-30 -48)">
    <use xlink:href="#rim"/>
    <path pointer-events="none" fill="none" stroke="white" stroke-width="1.5" d="M0,-3.0v7 M-2.5,-0.5L0,-3.0L2.5,-0.5"/>
  </g>
  <g id="arrowLeft" transform="rotate(270) translate(-36 17)">
    <use xlink:href="#rim"/>
    <path pointer-events="none" fill="none" stroke="white" stroke-width="1.5" d="M0,-3.0v7 M-2.5,-0.5L0,-3.0L2.5,-0.5"/>
  </g>
  <g id="resetDef">
    <use xlink:href="#rim2" fill="#404040"><set attributeName="fill" to="#808080" begin="reset.mouseover" end="reset.mouseout"/></use>
  </g>
</defs>
<script type="application/ecmascript">
var viewWidth = 1588;
var viewHeight = 423;
var sectionId = 'dynsection-0';
</script>
<script type="application/ecmascript" xlink:href="../../svg.min.js"/>
<svg id="graph" class="graph">
<g id="viewport">
<title>src/libs/vgeometry/vabstractcubicbezier.cpp</title>
<!-- Node1 -->
<g id="Node000001" class="node">
<title>Node1</title>
<g id="a_Node000001"><a xlink:title=" ">
<polygon fill="#999999" stroke="#666666" points="1266,-415 1126,-415 1126,-385 1266,-385 1266,-415"/>
<text text-anchor="start" x="1134" y="-403" font-family="Helvetica,sans-Serif" font-size="10.00">src/libs/vgeometry</text>
<text text-anchor="middle" x="1196" y="-392" font-family="Helvetica,sans-Serif" font-size="10.00">/vabstractcubicbezier.cpp</text>
</a>
</g>
</g>
<!-- Node2 -->
<g id="Node000002" class="node">
<title>Node2</title>
<g id="a_Node000002"><a xlink:href="../../d6/d7c/vabstractcubicbezier_8h.html" target="_top" xlink:title=" ">
<polygon fill="white" stroke="#666666" points="953,-349 827,-349 827,-330 953,-330 953,-349"/>
<text text-anchor="middle" x="890" y="-337" font-family="Helvetica,sans-Serif" font-size="10.00">vabstractcubicbezier.h</text>
</a>
</g>
</g>
<!-- Node1&#45;&gt;Node2 -->
<g id="edge1_Node000001_Node000002" class="edge">
<title>Node1&#45;&gt;Node2</title>
<g id="a_edge1_Node000001_Node000002"><a xlink:title=" ">
<path fill="none" stroke="#63b8ff" d="M1125.8,-385.58C1070.83,-375.07 995.45,-360.66 944.85,-350.99"/>
<polygon fill="#63b8ff" stroke="#63b8ff" points="945.24,-347.5 934.77,-349.06 943.93,-354.37 945.24,-347.5"/>
</a>
</g>
</g>
<!-- Node10 -->
<g id="Node000010" class="node">
<title>Node10</title>
<g id="a_Node000010"><a xlink:href="../../d4/da4/def_8h.html" target="_top" xlink:title=" ">
<polygon fill="white" stroke="#666666" points="356,-129 274,-129 274,-110 356,-110 356,-129"/>
<text text-anchor="middle" x="315" y="-117" font-family="Helvetica,sans-Serif" font-size="10.00">../vmisc/def.h</text>
</a>
</g>
</g>
<!-- Node1&#45;&gt;Node10 -->
<g id="edge50_Node000001_Node000010" class="edge">
<title>Node1&#45;&gt;Node10</title>
<g id="a_edge50_Node000001_Node000010"><a xlink:title=" ">
<path fill="none" stroke="#63b8ff" d="M1125.99,-397.09C920.92,-390.56 336,-364.99 336,-285.5 336,-285.5 336,-285.5 336,-228.5 336,-196.46 326.98,-160.03 320.77,-138.73"/>
<polygon fill="#63b8ff" stroke="#63b8ff" points="324.09,-137.62 317.83,-129.07 317.39,-139.65 324.09,-137.62"/>
</a>
</g>
</g>
<!-- Node11 -->
<g id="Node000011" class="node">
<title>Node11</title>
<g id="a_Node000011"><a xlink:title=" ">
<polygon fill="#e0e0e0" stroke="#999999" points="50,-74 0,-74 0,-55 50,-55 50,-74"/>
<text text-anchor="middle" x="25" y="-62" font-family="Helvetica,sans-Serif" font-size="10.00">QLineF</text>
</a>
</g>
</g>
<!-- Node1&#45;&gt;Node11 -->
<g id="edge46_Node000001_Node000011" class="edge">
<title>Node1&#45;&gt;Node11</title>
<g id="a_edge46_Node000001_Node000011"><a xlink:title=" ">
<path fill="none" stroke="#63b8ff" d="M1125.63,-398.87C888.88,-397.51 136,-385.33 136,-285.5 136,-285.5 136,-285.5 136,-173.5 136,-127.98 87.46,-95.44 54.58,-78.61"/>
<polygon fill="#63b8ff" stroke="#63b8ff" points="55.88,-75.35 45.36,-74.09 52.8,-81.64 55.88,-75.35"/>
</a>
</g>
</g>
<!-- Node22 -->
<g id="Node000022" class="node">
<title>Node22</title>
<g id="a_Node000022"><a xlink:href="../../db/db3/vmath_8h.html" target="_top" xlink:title=" ">
<polygon fill="white" stroke="#666666" points="1034,-184 936,-184 936,-165 1034,-165 1034,-184"/>
<text text-anchor="middle" x="985" y="-172" font-family="Helvetica,sans-Serif" font-size="10.00">../vmisc/vmath.h</text>
</a>
</g>
</g>
<!-- Node1&#45;&gt;Node22 -->
<g id="edge51_Node000001_Node000022" class="edge">
<title>Node1&#45;&gt;Node22</title>
<g id="a_edge51_Node000001_Node000022"><a xlink:title=" ">
<path fill="none" stroke="#63b8ff" d="M1182.48,-384.68C1144.96,-344.94 1039.71,-233.46 1000.22,-191.63"/>
<polygon fill="#63b8ff" stroke="#63b8ff" points="1002.65,-189.1 993.24,-184.23 997.56,-193.91 1002.65,-189.1"/>
</a>
</g>
</g>
<!-- Node26 -->
<g id="Node000026" class="node">
<title>Node26</title>
<g id="a_Node000026"><a xlink:title=" ">
<polygon fill="#e0e0e0" stroke="#999999" points="1286.5,-349 1185.5,-349 1185.5,-330 1286.5,-330 1286.5,-349"/>
<text text-anchor="middle" x="1236" y="-337" font-family="Helvetica,sans-Serif" font-size="10.00">QMessageLogger</text>
</a>
</g>
</g>
<!-- Node1&#45;&gt;Node26 -->
<g id="edge47_Node000001_Node000026" class="edge">
<title>Node1&#45;&gt;Node26</title>
<g id="a_edge47_Node000001_Node000026"><a xlink:title=" ">
<path fill="none" stroke="#63b8ff" d="M1205.68,-384.84C1211.25,-376.69 1218.29,-366.4 1224.18,-357.78"/>
<polygon fill="#63b8ff" stroke="#63b8ff" points="1227.25,-359.5 1230.01,-349.27 1221.47,-355.55 1227.25,-359.5"/>
</a>
</g>
</g>
<!-- Node27 -->
<g id="Node000027" class="node">
<title>Node27</title>
<g id="a_Node000027"><a xlink:title=" ">
<polygon fill="#e0e0e0" stroke="#999999" points="1353.5,-349 1304.5,-349 1304.5,-330 1353.5,-330 1353.5,-349"/>
<text text-anchor="middle" x="1329" y="-337" font-family="Helvetica,sans-Serif" font-size="10.00">QPoint</text>
</a>
</g>
</g>
<!-- Node1&#45;&gt;Node27 -->
<g id="edge48_Node000001_Node000027" class="edge">
<title>Node1&#45;&gt;Node27</title>
<g id="a_edge48_Node000001_Node000027"><a xlink:title=" ">
<path fill="none" stroke="#63b8ff" d="M1227.86,-384.99C1249.85,-375.31 1278.85,-362.56 1300.16,-353.18"/>
<polygon fill="#63b8ff" stroke="#63b8ff" points="1301.61,-356.37 1309.36,-349.14 1298.8,-349.96 1301.61,-356.37"/>
</a>
</g>
</g>
<!-- Node28 -->
<g id="Node000028" class="node">
<title>Node28</title>
<g id="a_Node000028"><a xlink:title=" ">
<polygon fill="#e0e0e0" stroke="#999999" points="1430.5,-349 1371.5,-349 1371.5,-330 1430.5,-330 1430.5,-349"/>
<text text-anchor="middle" x="1401" y="-337" font-family="Helvetica,sans-Serif" font-size="10.00">QtDebug</text>
</a>
</g>
</g>
<!-- Node1&#45;&gt;Node28 -->
<g id="edge49_Node000001_Node000028" class="edge">
<title>Node1&#45;&gt;Node28</title>
<g id="a_edge49_Node000001_Node000028"><a xlink:title=" ">
<path fill="none" stroke="#63b8ff" d="M1245.1,-384.99C1280.74,-374.82 1328.33,-361.24 1361.52,-351.77"/>
<polygon fill="#63b8ff" stroke="#63b8ff" points="1362.67,-355.08 1371.32,-348.97 1360.75,-348.35 1362.67,-355.08"/>
</a>
</g>
</g>
<!-- Node29 -->
<g id="Node000029" class="node">
<title>Node29</title>
<g id="a_Node000029"><a xlink:href="../../d1/d48/vpointf_8h.html" target="_top" xlink:title=" ">
<polygon fill="white" stroke="#666666" points="1419.5,-239 1294.5,-239 1294.5,-220 1419.5,-220 1419.5,-239"/>
<text text-anchor="middle" x="1357" y="-227" font-family="Helvetica,sans-Serif" font-size="10.00">../vgeometry/vpointf.h</text>
</a>
</g>
</g>
<!-- Node1&#45;&gt;Node29 -->
<g id="edge52_Node000001_Node000029" class="edge">
<title>Node1&#45;&gt;Node29</title>
<g id="a_edge52_Node000001_Node000029"><a xlink:title=" ">
<path fill="none" stroke="#63b8ff" d="M1266.1,-394.29C1330.24,-388.35 1418.37,-375.51 1440,-349 1469.3,-313.09 1413.25,-267.39 1379.66,-244.66"/>
<polygon fill="#63b8ff" stroke="#63b8ff" points="1381.54,-241.71 1371.27,-239.14 1377.7,-247.56 1381.54,-241.71"/>
</a>
</g>
</g>
<!-- Node3 -->
<g id="Node000003" class="node">
<title>Node3</title>
<g id="a_Node000003"><a xlink:title=" ">
<polygon fill="#e0e0e0" stroke="#999999" points="568,-74 448,-74 448,-55 568,-55 568,-74"/>
<text text-anchor="middle" x="508" y="-62" font-family="Helvetica,sans-Serif" font-size="10.00">qcompilerdetection.h</text>
</a>
</g>
</g>
<!-- Node2&#45;&gt;Node3 -->
<g id="edge2_Node000002_Node000003" class="edge">
<title>Node2&#45;&gt;Node3</title>
<g id="a_edge2_Node000002_Node000003"><a xlink:title=" ">
<path fill="none" stroke="#63b8ff" d="M826.71,-339.24C762.07,-337.79 660.11,-329.29 580,-294 520.35,-267.72 501.95,-246.37 483,-184 473.42,-152.46 468.37,-141.52 478,-110 481.09,-99.9 487.32,-90.02 493.31,-82.15"/>
<polygon fill="#63b8ff" stroke="#63b8ff" points="496.18,-84.16 499.79,-74.2 490.76,-79.74 496.18,-84.16"/>
</a>
</g>
</g>
<!-- Node4 -->
<g id="Node000004" class="node">
<title>Node4</title>
<g id="a_Node000004"><a xlink:title=" ">
<polygon fill="#e0e0e0" stroke="#999999" points="917.5,-184 862.5,-184 862.5,-165 917.5,-165 917.5,-184"/>
<text text-anchor="middle" x="890" y="-172" font-family="Helvetica,sans-Serif" font-size="10.00">QPointF</text>
</a>
</g>
</g>
<!-- Node2&#45;&gt;Node4 -->
<g id="edge3_Node000002_Node000004" class="edge">
<title>Node2&#45;&gt;Node4</title>
<g id="a_edge3_Node000002_Node000004"><a xlink:title=" ">
<path fill="none" stroke="#63b8ff" d="M890,-329.74C890,-304.31 890,-230.08 890,-194.69"/>
<polygon fill="#63b8ff" stroke="#63b8ff" points="893.5,-194.31 890,-184.31 886.5,-194.31 893.5,-194.31"/>
</a>
</g>
</g>
<!-- Node5 -->
<g id="Node000005" class="node">
<title>Node5</title>
<g id="a_Node000005"><a xlink:title=" ">
<polygon fill="#e0e0e0" stroke="#999999" points="1147.5,-74 1094.5,-74 1094.5,-55 1147.5,-55 1147.5,-74"/>
<text text-anchor="middle" x="1121" y="-62" font-family="Helvetica,sans-Serif" font-size="10.00">QString</text>
</a>
</g>
</g>
<!-- Node2&#45;&gt;Node5 -->
<g id="edge4_Node000002_Node000005" class="edge">
<title>Node2&#45;&gt;Node5</title>
<g id="a_edge4_Node000002_Node000005"><a xlink:title=" ">
<path fill="none" stroke="#63b8ff" d="M953.06,-335.22C1123.4,-325.52 1580,-293.63 1580,-230.5 1580,-230.5 1580,-230.5 1580,-173.5 1580,-86.95 1266.83,-69.69 1157.85,-66.31"/>
<polygon fill="#63b8ff" stroke="#63b8ff" points="1157.76,-62.81 1147.66,-66.02 1157.56,-69.8 1157.76,-62.81"/>
</a>
</g>
</g>
<!-- Node6 -->
<g id="Node000006" class="node">
<title>Node6</title>
<g id="a_Node000006"><a xlink:title=" ">
<polygon fill="#e0e0e0" stroke="#999999" points="1093.5,-129 1038.5,-129 1038.5,-110 1093.5,-110 1093.5,-129"/>
<text text-anchor="middle" x="1066" y="-117" font-family="Helvetica,sans-Serif" font-size="10.00">QVector</text>
</a>
</g>
</g>
<!-- Node2&#45;&gt;Node6 -->
<g id="edge5_Node000002_Node000006" class="edge">
<title>Node2&#45;&gt;Node6</title>
<g id="a_edge5_Node000002_Node000006"><a xlink:title=" ">
<path fill="none" stroke="#63b8ff" d="M911.81,-329.98C930.38,-322.16 957.28,-309.45 978,-294 1004.97,-273.89 1010.82,-266.63 1030,-239 1045.53,-216.63 1048.99,-210.03 1057,-184 1061.46,-169.5 1063.73,-152.44 1064.86,-139.66"/>
<polygon fill="#63b8ff" stroke="#63b8ff" points="1068.38,-139.55 1065.63,-129.32 1061.4,-139.03 1068.38,-139.55"/>
</a>
</g>
</g>
<!-- Node7 -->
<g id="Node000007" class="node">
<title>Node7</title>
<g id="a_Node000007"><a xlink:title=" ">
<polygon fill="#e0e0e0" stroke="#999999" points="645.5,-74 586.5,-74 586.5,-55 645.5,-55 645.5,-74"/>
<text text-anchor="middle" x="616" y="-62" font-family="Helvetica,sans-Serif" font-size="10.00">QtGlobal</text>
</a>
</g>
</g>
<!-- Node2&#45;&gt;Node7 -->
<g id="edge6_Node000002_Node000007" class="edge">
<title>Node2&#45;&gt;Node7</title>
<g id="a_edge6_Node000002_Node000007"><a xlink:title=" ">
<path fill="none" stroke="#63b8ff" d="M826.9,-337.42C731.26,-331.81 554.15,-304.77 492,-184 467.44,-136.27 538.96,-97 583.42,-77.94"/>
<polygon fill="#63b8ff" stroke="#63b8ff" points="584.83,-81.15 592.72,-74.08 582.14,-74.68 584.83,-81.15"/>
</a>
</g>
</g>
<!-- Node8 -->
<g id="Node000008" class="node">
<title>Node8</title>
<g id="a_Node000008"><a xlink:href="../../d3/da5/ifcdef_8h.html" target="_top" xlink:title=" ">
<polygon fill="white" stroke="#666666" points="577.5,-184 500.5,-184 500.5,-165 577.5,-165 577.5,-184"/>
<text text-anchor="middle" x="539" y="-172" font-family="Helvetica,sans-Serif" font-size="10.00">../ifc/ifcdef.h</text>
</a>
</g>
</g>
<!-- Node2&#45;&gt;Node8 -->
<g id="edge7_Node000002_Node000008" class="edge">
<title>Node2&#45;&gt;Node8</title>
<g id="a_edge7_Node000002_Node000008"><a xlink:title=" ">
<path fill="none" stroke="#63b8ff" d="M826.87,-330.44C761.99,-319.4 660.98,-294.22 592,-239 575.42,-225.73 560.31,-206.6 550.51,-192.81"/>
<polygon fill="#63b8ff" stroke="#63b8ff" points="553.17,-190.51 544.61,-184.26 547.4,-194.48 553.17,-190.51"/>
</a>
</g>
</g>
<!-- Node18 -->
<g id="Node000018" class="node">
<title>Node18</title>
<g id="a_Node000018"><a xlink:href="../../d8/d94/vabstractbezier_8h.html" target="_top" xlink:title=" ">
<polygon fill="white" stroke="#666666" points="808.5,-294 707.5,-294 707.5,-275 808.5,-275 808.5,-294"/>
<text text-anchor="middle" x="758" y="-282" font-family="Helvetica,sans-Serif" font-size="10.00">vabstractbezier.h</text>
</a>
</g>
</g>
<!-- Node2&#45;&gt;Node18 -->
<g id="edge24_Node000002_Node000018" class="edge">
<title>Node2&#45;&gt;Node18</title>
<g id="a_edge24_Node000002_Node000018"><a xlink:title=" ">
<path fill="none" stroke="#63b8ff" d="M868.79,-329.98C847.27,-321.34 813.72,-307.87 789.17,-298.02"/>
<polygon fill="#63b8ff" stroke="#63b8ff" points="790.18,-294.65 779.59,-294.17 787.57,-301.14 790.18,-294.65"/>
</a>
</g>
</g>
<!-- Node24 -->
<g id="Node000024" class="node">
<title>Node24</title>
<g id="a_Node000024"><a xlink:href="../../d5/d9d/vgeometrydef_8h.html" target="_top" xlink:title=" ">
<polygon fill="white" stroke="#666666" points="1020,-129 926,-129 926,-110 1020,-110 1020,-129"/>
<text text-anchor="middle" x="973" y="-117" font-family="Helvetica,sans-Serif" font-size="10.00">vgeometrydef.h</text>
</a>
</g>
</g>
<!-- Node2&#45;&gt;Node24 -->
<g id="edge45_Node000002_Node000024" class="edge">
<title>Node2&#45;&gt;Node24</title>
<g id="a_edge45_Node000002_Node000024"><a xlink:title=" ">
<path fill="none" stroke="#63b8ff" d="M904.15,-329.89C936.28,-309.4 1014.13,-254.17 1043,-184 1052.07,-161.96 1028.31,-144.49 1006.06,-133.5"/>
<polygon fill="#63b8ff" stroke="#63b8ff" points="1007.26,-130.2 996.71,-129.19 1004.33,-136.55 1007.26,-130.2"/>
</a>
</g>
</g>
<!-- Node8&#45;&gt;Node5 -->
<g id="edge8_Node000008_Node000005" class="edge">
<title>Node8&#45;&gt;Node5</title>
<g id="a_edge8_Node000008_Node000005"><a xlink:title=" ">
<path fill="none" stroke="#63b8ff" d="M577.91,-168.69C624.18,-162.36 703.41,-149.55 769,-129 788.94,-122.75 791.92,-115.76 812,-110 907.88,-82.48 1025.61,-71.53 1084.21,-67.55"/>
<polygon fill="#63b8ff" stroke="#63b8ff" points="1084.7,-71.02 1094.45,-66.88 1084.24,-64.04 1084.7,-71.02"/>
</a>
</g>
</g>
<!-- Node8&#45;&gt;Node7 -->
<g id="edge10_Node000008_Node000007" class="edge">
<title>Node8&#45;&gt;Node7</title>
<g id="a_edge10_Node000008_Node000007"><a xlink:title=" ">
<path fill="none" stroke="#63b8ff" d="M540.66,-164.59C543.4,-151.63 549.83,-127.24 562,-110 570.32,-98.21 582.54,-87.79 593.25,-79.99"/>
<polygon fill="#63b8ff" stroke="#63b8ff" points="595.54,-82.66 601.78,-74.1 591.56,-76.91 595.54,-82.66"/>
</a>
</g>
</g>
<!-- Node9 -->
<g id="Node000009" class="node">
<title>Node9</title>
<g id="a_Node000009"><a xlink:title=" ">
<polygon fill="#e0e0e0" stroke="#999999" points="430,-74 360,-74 360,-55 430,-55 430,-74"/>
<text text-anchor="middle" x="395" y="-62" font-family="Helvetica,sans-Serif" font-size="10.00">QStringList</text>
</a>
</g>
</g>
<!-- Node8&#45;&gt;Node9 -->
<g id="edge9_Node000008_Node000009" class="edge">
<title>Node8&#45;&gt;Node9</title>
<g id="a_edge9_Node000008_Node000009"><a xlink:title=" ">
<path fill="none" stroke="#63b8ff" d="M527.22,-164.66C502.52,-146.14 445.1,-103.08 414.7,-80.28"/>
<polygon fill="#63b8ff" stroke="#63b8ff" points="416.64,-77.36 406.54,-74.16 412.44,-82.96 416.64,-77.36"/>
</a>
</g>
</g>
<!-- Node8&#45;&gt;Node10 -->
<g id="edge11_Node000008_Node000010" class="edge">
<title>Node8&#45;&gt;Node10</title>
<g id="a_edge11_Node000008_Node000010"><a xlink:title=" ">
<path fill="none" stroke="#63b8ff" d="M503.01,-164.98C464.51,-155.87 403.31,-141.4 361.26,-131.45"/>
<polygon fill="#63b8ff" stroke="#63b8ff" points="361.81,-127.98 351.27,-129.08 360.2,-134.79 361.81,-127.98"/>
</a>
</g>
</g>
<!-- Node17 -->
<g id="Node000017" class="node">
<title>Node17</title>
<g id="a_Node000017"><a xlink:href="../../d6/dcd/diagnostic_8h.html" target="_top" xlink:title=" ">
<polygon fill="white" stroke="#666666" points="759.5,-129 642.5,-129 642.5,-110 759.5,-110 759.5,-129"/>
<text text-anchor="middle" x="701" y="-117" font-family="Helvetica,sans-Serif" font-size="10.00">../vmisc/diagnostic.h</text>
</a>
</g>
</g>
<!-- Node8&#45;&gt;Node17 -->
<g id="edge22_Node000008_Node000017" class="edge">
<title>Node8&#45;&gt;Node17</title>
<g id="a_edge22_Node000008_Node000017"><a xlink:title=" ">
<path fill="none" stroke="#63b8ff" d="M565.03,-164.98C592.11,-156.13 634.71,-142.19 665.01,-132.28"/>
<polygon fill="#63b8ff" stroke="#63b8ff" points="666.35,-135.52 674.77,-129.08 664.18,-128.87 666.35,-135.52"/>
</a>
</g>
</g>
<!-- Node10&#45;&gt;Node3 -->
<g id="edge12_Node000010_Node000003" class="edge">
<title>Node10&#45;&gt;Node3</title>
<g id="a_edge12_Node000010_Node000003"><a xlink:title=" ">
<path fill="none" stroke="#63b8ff" d="M346.01,-109.98C378.83,-100.97 430.8,-86.7 466.99,-76.76"/>
<polygon fill="#63b8ff" stroke="#63b8ff" points="468.03,-80.11 476.75,-74.08 466.18,-73.36 468.03,-80.11"/>
</a>
</g>
</g>
<!-- Node10&#45;&gt;Node5 -->
<g id="edge14_Node000010_Node000005" class="edge">
<title>Node10&#45;&gt;Node5</title>
<g id="a_edge14_Node000010_Node000005"><a xlink:title=" ">
<path fill="none" stroke="#63b8ff" d="M356.08,-115.8C495.85,-106.61 951.66,-76.63 1084.41,-67.91"/>
<polygon fill="#63b8ff" stroke="#63b8ff" points="1084.73,-71.39 1094.48,-67.24 1084.27,-64.41 1084.73,-71.39"/>
</a>
</g>
</g>
<!-- Node10&#45;&gt;Node7 -->
<g id="edge17_Node000010_Node000007" class="edge">
<title>Node10&#45;&gt;Node7</title>
<g id="a_edge17_Node000010_Node000007"><a xlink:title=" ">
<path fill="none" stroke="#63b8ff" d="M356.4,-112.08C406.16,-104.22 492.43,-90.18 576.27,-74.06"/>
<polygon fill="#63b8ff" stroke="#63b8ff" points="577.07,-77.47 586.22,-72.14 575.74,-70.6 577.07,-77.47"/>
</a>
</g>
</g>
<!-- Node10&#45;&gt;Node9 -->
<g id="edge15_Node000010_Node000009" class="edge">
<title>Node10&#45;&gt;Node9</title>
<g id="a_edge15_Node000010_Node000009"><a xlink:title=" ">
<path fill="none" stroke="#63b8ff" d="M327.85,-109.98C340.14,-101.84 358.91,-89.41 373.48,-79.76"/>
<polygon fill="#63b8ff" stroke="#63b8ff" points="375.51,-82.61 381.91,-74.17 371.64,-76.78 375.51,-82.61"/>
</a>
</g>
</g>
<!-- Node10&#45;&gt;Node11 -->
<g id="edge13_Node000010_Node000011" class="edge">
<title>Node10&#45;&gt;Node11</title>
<g id="a_edge13_Node000010_Node000011"><a xlink:title=" ">
<path fill="none" stroke="#63b8ff" d="M273.59,-112.25C224.8,-104.68 141.11,-91.04 60.07,-74.1"/>
<polygon fill="#63b8ff" stroke="#63b8ff" points="60.71,-70.66 50.2,-72.02 59.27,-77.51 60.71,-70.66"/>
</a>
</g>
</g>
<!-- Node12 -->
<g id="Node000012" class="node">
<title>Node12</title>
<g id="a_Node000012"><a xlink:title=" ">
<polygon fill="#e0e0e0" stroke="#999999" points="267.5,-74 238.5,-74 238.5,-55 267.5,-55 267.5,-74"/>
<text text-anchor="middle" x="253" y="-62" font-family="Helvetica,sans-Serif" font-size="10.00">Qt</text>
</a>
</g>
</g>
<!-- Node10&#45;&gt;Node12 -->
<g id="edge16_Node000010_Node000012" class="edge">
<title>Node10&#45;&gt;Node12</title>
<g id="a_edge16_Node000010_Node000012"><a xlink:title=" ">
<path fill="none" stroke="#63b8ff" d="M305.04,-109.98C295.87,-102.15 282.06,-90.34 270.97,-80.86"/>
<polygon fill="#63b8ff" stroke="#63b8ff" points="273.02,-78.01 263.14,-74.17 268.47,-83.33 273.02,-78.01"/>
</a>
</g>
</g>
<!-- Node13 -->
<g id="Node000013" class="node">
<title>Node13</title>
<g id="a_Node000013"><a xlink:title=" ">
<polygon fill="#e0e0e0" stroke="#999999" points="342,-74 286,-74 286,-55 342,-55 342,-74"/>
<text text-anchor="middle" x="314" y="-62" font-family="Helvetica,sans-Serif" font-size="10.00">QPrinter</text>
</a>
</g>
</g>
<!-- Node10&#45;&gt;Node13 -->
<g id="edge18_Node000010_Node000013" class="edge">
<title>Node10&#45;&gt;Node13</title>
<g id="a_edge18_Node000010_Node000013"><a xlink:title=" ">
<path fill="none" stroke="#63b8ff" d="M314.83,-109.75C314.7,-102.8 314.52,-92.85 314.35,-84.13"/>
<polygon fill="#63b8ff" stroke="#63b8ff" points="317.85,-84.02 314.16,-74.09 310.85,-84.15 317.85,-84.02"/>
</a>
</g>
</g>
<!-- Node14 -->
<g id="Node000014" class="node">
<title>Node14</title>
<g id="a_Node000014"><a xlink:title=" ">
<polygon fill="#e0e0e0" stroke="#999999" points="119.5,-74 68.5,-74 68.5,-55 119.5,-55 119.5,-74"/>
<text text-anchor="middle" x="94" y="-62" font-family="Helvetica,sans-Serif" font-size="10.00">csignal</text>
</a>
</g>
</g>
<!-- Node10&#45;&gt;Node14 -->
<g id="edge19_Node000010_Node000014" class="edge">
<title>Node10&#45;&gt;Node14</title>
<g id="a_edge19_Node000010_Node000014"><a xlink:title=" ">
<path fill="none" stroke="#63b8ff" d="M278.42,-109.93C242.77,-101.54 186.75,-88.28 129.55,-74.36"/>
<polygon fill="#63b8ff" stroke="#63b8ff" points="130.16,-70.9 119.61,-71.94 128.5,-77.71 130.16,-70.9"/>
</a>
</g>
</g>
<!-- Node15 -->
<g id="Node000015" class="node">
<title>Node15</title>
<g id="a_Node000015"><a xlink:href="../../d4/d82/debugbreak_8h.html" target="_top" xlink:title=" ">
<polygon fill="white" stroke="#666666" points="220.5,-74 137.5,-74 137.5,-55 220.5,-55 220.5,-74"/>
<text text-anchor="middle" x="179" y="-62" font-family="Helvetica,sans-Serif" font-size="10.00">debugbreak.h</text>
</a>
</g>
</g>
<!-- Node10&#45;&gt;Node15 -->
<g id="edge20_Node000010_Node000015" class="edge">
<title>Node10&#45;&gt;Node15</title>
<g id="a_edge20_Node000010_Node000015"><a xlink:title=" ">
<path fill="none" stroke="#63b8ff" d="M293.15,-109.98C270.88,-101.3 236.1,-87.75 210.78,-77.88"/>
<polygon fill="#63b8ff" stroke="#63b8ff" points="211.84,-74.54 201.25,-74.17 209.29,-81.06 211.84,-74.54"/>
</a>
</g>
</g>
<!-- Node16 -->
<g id="Node000016" class="node">
<title>Node16</title>
<g id="a_Node000016"><a xlink:title=" ">
<polygon fill="#e0e0e0" stroke="#999999" points="206.5,-19 151.5,-19 151.5,0 206.5,0 206.5,-19"/>
<text text-anchor="middle" x="179" y="-7" font-family="Helvetica,sans-Serif" font-size="10.00">signal.h</text>
</a>
</g>
</g>
<!-- Node15&#45;&gt;Node16 -->
<g id="edge21_Node000015_Node000016" class="edge">
<title>Node15&#45;&gt;Node16</title>
<g id="a_edge21_Node000015_Node000016"><a xlink:title=" ">
<path fill="none" stroke="#63b8ff" d="M179,-54.75C179,-47.8 179,-37.85 179,-29.13"/>
<polygon fill="#63b8ff" stroke="#63b8ff" points="182.5,-29.09 179,-19.09 175.5,-29.09 182.5,-29.09"/>
</a>
</g>
</g>
<!-- Node17&#45;&gt;Node7 -->
<g id="edge23_Node000017_Node000007" class="edge">
<title>Node17&#45;&gt;Node7</title>
<g id="a_edge23_Node000017_Node000007"><a xlink:title=" ">
<path fill="none" stroke="#63b8ff" d="M687.34,-109.98C674.16,-101.77 653.97,-89.18 638.43,-79.49"/>
<polygon fill="#63b8ff" stroke="#63b8ff" points="640.24,-76.49 629.91,-74.17 636.54,-82.43 640.24,-76.49"/>
</a>
</g>
</g>
<!-- Node18&#45;&gt;Node7 -->
<g id="edge25_Node000018_Node000007" class="edge">
<title>Node18&#45;&gt;Node7</title>
<g id="a_edge25_Node000018_Node000007"><a xlink:title=" ">
<path fill="none" stroke="#63b8ff" d="M744.82,-274.94C721.89,-259.41 674.49,-224.46 647,-184 631.91,-161.79 628.91,-154.95 622,-129 618.11,-114.42 616.67,-97.37 616.16,-84.61"/>
<polygon fill="#63b8ff" stroke="#63b8ff" points="619.65,-84.2 615.92,-74.29 612.65,-84.37 619.65,-84.2"/>
</a>
</g>
</g>
<!-- Node19 -->
<g id="Node000019" class="node">
<title>Node19</title>
<g id="a_Node000019"><a xlink:href="../../d5/d82/vabstractcurve_8h.html" target="_top" xlink:title=" ">
<polygon fill="white" stroke="#666666" points="807,-239 709,-239 709,-220 807,-220 807,-239"/>
<text text-anchor="middle" x="758" y="-227" font-family="Helvetica,sans-Serif" font-size="10.00">vabstractcurve.h</text>
</a>
</g>
</g>
<!-- Node18&#45;&gt;Node19 -->
<g id="edge26_Node000018_Node000019" class="edge">
<title>Node18&#45;&gt;Node19</title>
<g id="a_edge26_Node000018_Node000019"><a xlink:title=" ">
<path fill="none" stroke="#63b8ff" d="M758,-274.75C758,-267.8 758,-257.85 758,-249.13"/>
<polygon fill="#63b8ff" stroke="#63b8ff" points="761.5,-249.09 758,-239.09 754.5,-249.09 761.5,-249.09"/>
</a>
</g>
</g>
<!-- Node19&#45;&gt;Node3 -->
<g id="edge27_Node000019_Node000003" class="edge">
<title>Node19&#45;&gt;Node3</title>
<g id="a_edge27_Node000019_Node000003"><a xlink:title=" ">
<path fill="none" stroke="#63b8ff" d="M708.79,-227.57C639.67,-225.1 519.23,-216.16 492,-184 467.84,-155.47 485.59,-108.43 498.24,-83.05"/>
<polygon fill="#63b8ff" stroke="#63b8ff" points="501.35,-84.66 502.9,-74.18 495.15,-81.41 501.35,-84.66"/>
</a>
</g>
</g>
<!-- Node19&#45;&gt;Node4 -->
<g id="edge28_Node000019_Node000004" class="edge">
<title>Node19&#45;&gt;Node4</title>
<g id="a_edge28_Node000019_Node000004"><a xlink:title=" ">
<path fill="none" stroke="#63b8ff" d="M779.21,-219.98C800.73,-211.34 834.28,-197.87 858.83,-188.02"/>
<polygon fill="#63b8ff" stroke="#63b8ff" points="860.43,-191.14 868.41,-184.17 857.82,-184.65 860.43,-191.14"/>
</a>
</g>
</g>
<!-- Node19&#45;&gt;Node5 -->
<g id="edge30_Node000019_Node000005" class="edge">
<title>Node19&#45;&gt;Node5</title>
<g id="a_edge30_Node000019_Node000005"><a xlink:title=" ">
<path fill="none" stroke="#63b8ff" d="M749.94,-219.79C739.2,-207.08 722.78,-183.01 734,-165 735.83,-162.06 842.7,-111.05 846,-110 928.73,-83.64 1030.67,-72.37 1084.19,-67.98"/>
<polygon fill="#63b8ff" stroke="#63b8ff" points="1084.54,-71.47 1094.23,-67.2 1083.99,-64.49 1084.54,-71.47"/>
</a>
</g>
</g>
<!-- Node19&#45;&gt;Node6 -->
<g id="edge32_Node000019_Node000006" class="edge">
<title>Node19&#45;&gt;Node6</title>
<g id="a_edge32_Node000019_Node000006"><a xlink:title=" ">
<path fill="none" stroke="#63b8ff" d="M758.57,-219.93C759.99,-206.03 764.91,-178.73 782,-165 823.12,-131.94 960.16,-138.45 1028.25,-128.77"/>
<polygon fill="#63b8ff" stroke="#63b8ff" points="1028.87,-132.22 1038.17,-127.15 1027.74,-125.31 1028.87,-132.22"/>
</a>
</g>
</g>
<!-- Node19&#45;&gt;Node7 -->
<g id="edge33_Node000019_Node000007" class="edge">
<title>Node19&#45;&gt;Node7</title>
<g id="a_edge33_Node000019_Node000007"><a xlink:title=" ">
<path fill="none" stroke="#63b8ff" d="M731.65,-219.95C712.36,-212.69 686.44,-200.77 668,-184 638.32,-157 624.75,-110.01 619.25,-84.05"/>
<polygon fill="#63b8ff" stroke="#63b8ff" points="622.65,-83.2 617.31,-74.05 615.78,-84.53 622.65,-83.2"/>
</a>
</g>
</g>
<!-- Node19&#45;&gt;Node8 -->
<g id="edge34_Node000019_Node000008" class="edge">
<title>Node19&#45;&gt;Node8</title>
<g id="a_edge34_Node000019_Node000008"><a xlink:title=" ">
<path fill="none" stroke="#63b8ff" d="M722.81,-219.98C685.17,-210.87 625.34,-196.4 584.23,-186.45"/>
<polygon fill="#63b8ff" stroke="#63b8ff" points="585,-183.03 574.46,-184.08 583.36,-189.84 585,-183.03"/>
</a>
</g>
</g>
<!-- Node20 -->
<g id="Node000020" class="node">
<title>Node20</title>
<g id="a_Node000020"><a xlink:title=" ">
<polygon fill="#e0e0e0" stroke="#999999" points="1228,-129 1112,-129 1112,-110 1228,-110 1228,-129"/>
<text text-anchor="middle" x="1170" y="-117" font-family="Helvetica,sans-Serif" font-size="10.00">QSharedDataPointer</text>
</a>
</g>
</g>
<!-- Node19&#45;&gt;Node20 -->
<g id="edge29_Node000019_Node000020" class="edge">
<title>Node19&#45;&gt;Node20</title>
<g id="a_edge29_Node000019_Node000020"><a xlink:title=" ">
<path fill="none" stroke="#63b8ff" d="M763.62,-219.72C773.24,-205.51 794.34,-177.77 820,-165 820.2,-164.9 999.84,-142.09 1101.65,-129.17"/>
<polygon fill="#63b8ff" stroke="#63b8ff" points="1102.37,-132.61 1111.85,-127.88 1101.49,-125.66 1102.37,-132.61"/>
</a>
</g>
</g>
<!-- Node21 -->
<g id="Node000021" class="node">
<title>Node21</title>
<g id="a_Node000021"><a xlink:title=" ">
<polygon fill="#e0e0e0" stroke="#999999" points="1311.5,-129 1246.5,-129 1246.5,-110 1311.5,-110 1311.5,-129"/>
<text text-anchor="middle" x="1279" y="-117" font-family="Helvetica,sans-Serif" font-size="10.00">QTypeInfo</text>
</a>
</g>
</g>
<!-- Node19&#45;&gt;Node21 -->
<g id="edge31_Node000019_Node000021" class="edge">
<title>Node19&#45;&gt;Node21</title>
<g id="a_edge31_Node000019_Node000021"><a xlink:title=" ">
<path fill="none" stroke="#63b8ff" d="M769.61,-219.77C790.95,-203.91 835.91,-171.38 854,-165 1012.17,-109.22 1065.82,-152.28 1236,-128.95"/>
<polygon fill="#63b8ff" stroke="#63b8ff" points="1236.64,-132.39 1246.04,-127.51 1235.65,-125.46 1236.64,-132.39"/>
</a>
</g>
</g>
<!-- Node19&#45;&gt;Node22 -->
<g id="edge35_Node000019_Node000022" class="edge">
<title>Node19&#45;&gt;Node22</title>
<g id="a_edge35_Node000019_Node000022"><a xlink:title=" ">
<path fill="none" stroke="#63b8ff" d="M794.47,-219.98C833.57,-210.86 895.77,-196.33 938.39,-186.38"/>
<polygon fill="#63b8ff" stroke="#63b8ff" points="939.3,-189.76 948.24,-184.08 937.71,-182.95 939.3,-189.76"/>
</a>
</g>
</g>
<!-- Node19&#45;&gt;Node24 -->
<g id="edge37_Node000019_Node000024" class="edge">
<title>Node19&#45;&gt;Node24</title>
<g id="a_edge37_Node000019_Node000024"><a xlink:title=" ">
<path fill="none" stroke="#63b8ff" d="M751.89,-219.62C743.52,-206.26 730.93,-180.85 744,-165 749.51,-158.31 850.08,-140.67 916.09,-129.71"/>
<polygon fill="#63b8ff" stroke="#63b8ff" points="916.67,-133.16 925.97,-128.08 915.53,-126.26 916.67,-133.16"/>
</a>
</g>
</g>
<!-- Node25 -->
<g id="Node000025" class="node">
<title>Node25</title>
<g id="a_Node000025"><a xlink:href="../../d2/d07/vgobject_8h.html" target="_top" xlink:title=" ">
<polygon fill="white" stroke="#666666" points="1272,-184 1204,-184 1204,-165 1272,-165 1272,-184"/>
<text text-anchor="middle" x="1238" y="-172" font-family="Helvetica,sans-Serif" font-size="10.00">vgobject.h</text>
</a>
</g>
</g>
<!-- Node19&#45;&gt;Node25 -->
<g id="edge38_Node000019_Node000025" class="edge">
<title>Node19&#45;&gt;Node25</title>
<g id="a_edge38_Node000019_Node000025"><a xlink:title=" ">
<path fill="none" stroke="#63b8ff" d="M807.11,-223.08C900.89,-212.72 1104.07,-190.29 1193.84,-180.38"/>
<polygon fill="#63b8ff" stroke="#63b8ff" points="1194.4,-183.84 1203.95,-179.26 1193.63,-176.88 1194.4,-183.84"/>
</a>
</g>
</g>
<!-- Node23 -->
<g id="Node000023" class="node">
<title>Node23</title>
<g id="a_Node000023"><a xlink:title=" ">
<polygon fill="#e0e0e0" stroke="#999999" points="907.5,-129 854.5,-129 854.5,-110 907.5,-110 907.5,-129"/>
<text text-anchor="middle" x="881" y="-117" font-family="Helvetica,sans-Serif" font-size="10.00">QtMath</text>
</a>
</g>
</g>
<!-- Node22&#45;&gt;Node23 -->
<g id="edge36_Node000022_Node000023" class="edge">
<title>Node22&#45;&gt;Node23</title>
<g id="a_edge36_Node000022_Node000023"><a xlink:title=" ">
<path fill="none" stroke="#63b8ff" d="M968.29,-164.98C951.79,-156.57 926.3,-143.59 907.12,-133.81"/>
<polygon fill="#63b8ff" stroke="#63b8ff" points="908.51,-130.59 898.01,-129.17 905.33,-136.83 908.51,-130.59"/>
</a>
</g>
</g>
<!-- Node25&#45;&gt;Node5 -->
<g id="edge40_Node000025_Node000005" class="edge">
<title>Node25&#45;&gt;Node5</title>
<g id="a_edge40_Node000025_Node000005"><a xlink:title=" ">
<path fill="none" stroke="#63b8ff" d="M1272.08,-167.97C1314.9,-159.58 1379.83,-141.23 1354,-110 1329.55,-80.44 1217.27,-70.33 1157.96,-67.03"/>
<polygon fill="#63b8ff" stroke="#63b8ff" points="1158.05,-63.53 1147.88,-66.5 1157.68,-70.52 1158.05,-63.53"/>
</a>
</g>
</g>
<!-- Node25&#45;&gt;Node6 -->
<g id="edge42_Node000025_Node000006" class="edge">
<title>Node25&#45;&gt;Node6</title>
<g id="a_edge42_Node000025_Node000006"><a xlink:title=" ">
<path fill="none" stroke="#63b8ff" d="M1210.37,-164.98C1181.4,-156.06 1135.72,-141.98 1103.51,-132.06"/>
<polygon fill="#63b8ff" stroke="#63b8ff" points="1104.15,-128.59 1093.57,-128.99 1102.09,-135.28 1104.15,-128.59"/>
</a>
</g>
</g>
<!-- Node25&#45;&gt;Node7 -->
<g id="edge43_Node000025_Node000007" class="edge">
<title>Node25&#45;&gt;Node7</title>
<g id="a_edge43_Node000025_Node000007"><a xlink:title=" ">
<path fill="none" stroke="#63b8ff" d="M1265.57,-164.92C1297.29,-153.72 1342.42,-132.82 1321,-110 1298.1,-85.6 801.67,-70.46 655.9,-66.52"/>
<polygon fill="#63b8ff" stroke="#63b8ff" points="655.72,-63.02 645.63,-66.25 655.53,-70.02 655.72,-63.02"/>
</a>
</g>
</g>
<!-- Node25&#45;&gt;Node20 -->
<g id="edge39_Node000025_Node000020" class="edge">
<title>Node25&#45;&gt;Node20</title>
<g id="a_edge39_Node000025_Node000020"><a xlink:title=" ">
<path fill="none" stroke="#63b8ff" d="M1227.07,-164.98C1216.92,-157.07 1201.58,-145.11 1189.35,-135.58"/>
<polygon fill="#63b8ff" stroke="#63b8ff" points="1191.16,-132.56 1181.12,-129.17 1186.86,-138.08 1191.16,-132.56"/>
</a>
</g>
</g>
<!-- Node25&#45;&gt;Node21 -->
<g id="edge41_Node000025_Node000021" class="edge">
<title>Node25&#45;&gt;Node21</title>
<g id="a_edge41_Node000025_Node000021"><a xlink:title=" ">
<path fill="none" stroke="#63b8ff" d="M1244.77,-164.75C1250.56,-157.26 1259.06,-146.28 1266.14,-137.13"/>
<polygon fill="#63b8ff" stroke="#63b8ff" points="1269.01,-139.14 1272.36,-129.09 1263.47,-134.86 1269.01,-139.14"/>
</a>
</g>
</g>
<!-- Node25&#45;&gt;Node24 -->
<g id="edge44_Node000025_Node000024" class="edge">
<title>Node25&#45;&gt;Node24</title>
<g id="a_edge44_Node000025_Node000024"><a xlink:title=" ">
<path fill="none" stroke="#63b8ff" d="M1203.9,-166.68C1158.72,-157.64 1078.58,-141.62 1025.62,-131.02"/>
<polygon fill="#63b8ff" stroke="#63b8ff" points="1026.23,-127.58 1015.73,-129.05 1024.85,-134.44 1026.23,-127.58"/>
</a>
</g>
</g>
<!-- Node29&#45;&gt;Node3 -->
<g id="edge53_Node000029_Node000003" class="edge">
<title>Node29&#45;&gt;Node3</title>
<g id="a_edge53_Node000029_Node000003"><a xlink:title=" ">
<path fill="none" stroke="#63b8ff" d="M1357.41,-219.82C1357.96,-197.37 1355.93,-137.23 1321,-110 1257.85,-60.77 697.05,-79.69 578.37,-73.76"/>
<polygon fill="#63b8ff" stroke="#63b8ff" points="578.51,-70.26 568.3,-73.1 578.05,-77.25 578.51,-70.26"/>
</a>
</g>
</g>
<!-- Node29&#45;&gt;Node5 -->
<g id="edge56_Node000029_Node000005" class="edge">
<title>Node29&#45;&gt;Node5</title>
<g id="a_edge56_Node000029_Node000005"><a xlink:title=" ">
<path fill="none" stroke="#63b8ff" d="M1419.56,-227.51C1474.05,-223.67 1541.66,-210.04 1523,-165 1509.77,-133.06 1499.03,-125.24 1468,-110 1413.98,-83.47 1235.64,-71.35 1157.84,-67.23"/>
<polygon fill="#63b8ff" stroke="#63b8ff" points="1157.72,-63.71 1147.55,-66.7 1157.36,-70.71 1157.72,-63.71"/>
</a>
</g>
</g>
<!-- Node29&#45;&gt;Node7 -->
<g id="edge58_Node000029_Node000007" class="edge">
<title>Node29&#45;&gt;Node7</title>
<g id="a_edge58_Node000029_Node000007"><a xlink:title=" ">
<path fill="none" stroke="#63b8ff" d="M1365.9,-219.92C1373.87,-211.59 1385.04,-198.16 1390,-184 1400.89,-152.95 1414.59,-133.92 1392,-110 1366.5,-83 810.78,-69.52 655.81,-66.28"/>
<polygon fill="#63b8ff" stroke="#63b8ff" points="655.84,-62.78 645.77,-66.08 655.7,-69.78 655.84,-62.78"/>
</a>
</g>
</g>
<!-- Node29&#45;&gt;Node17 -->
<g id="edge59_Node000029_Node000017" class="edge">
<title>Node29&#45;&gt;Node17</title>
<g id="a_edge59_Node000029_Node000017"><a xlink:title=" ">
<path fill="none" stroke="#63b8ff" d="M1308.47,-219.93C1261.05,-211.41 1186.89,-197.66 1123,-184 1087.26,-176.36 1078.95,-171.59 1043,-165 949.03,-147.78 839.34,-134.74 770.03,-127.35"/>
<polygon fill="#63b8ff" stroke="#63b8ff" points="770,-123.83 759.68,-126.26 769.26,-130.79 770,-123.83"/>
</a>
</g>
</g>
<!-- Node29&#45;&gt;Node20 -->
<g id="edge55_Node000029_Node000020" class="edge">
<title>Node29&#45;&gt;Node20</title>
<g id="a_edge55_Node000029_Node000020"><a xlink:title=" ">
<path fill="none" stroke="#63b8ff" d="M1348.35,-219.67C1334.94,-206.38 1307.86,-181.05 1281,-165 1257.97,-151.24 1229.91,-140.03 1207.77,-132.31"/>
<polygon fill="#63b8ff" stroke="#63b8ff" points="1208.64,-128.91 1198.05,-129.01 1206.39,-135.54 1208.64,-128.91"/>
</a>
</g>
</g>
<!-- Node29&#45;&gt;Node21 -->
<g id="edge57_Node000029_Node000021" class="edge">
<title>Node29&#45;&gt;Node21</title>
<g id="a_edge57_Node000029_Node000021"><a xlink:title=" ">
<path fill="none" stroke="#63b8ff" d="M1351.35,-219.74C1343.31,-207.36 1327.98,-184.14 1314,-165 1307.12,-155.57 1299.09,-145.32 1292.46,-137.03"/>
<polygon fill="#63b8ff" stroke="#63b8ff" points="1295.16,-134.81 1286.16,-129.22 1289.71,-139.2 1295.16,-134.81"/>
</a>
</g>
</g>
<!-- Node29&#45;&gt;Node24 -->
<g id="edge60_Node000029_Node000024" class="edge">
<title>Node29&#45;&gt;Node24</title>
<g id="a_edge60_Node000029_Node000024"><a xlink:title=" ">
<path fill="none" stroke="#63b8ff" d="M1325.61,-219.98C1292.96,-211.1 1240.36,-196.72 1195,-184 1130.9,-166.03 1056.55,-144.65 1012.21,-131.85"/>
<polygon fill="#63b8ff" stroke="#63b8ff" points="1013,-128.43 1002.42,-129.02 1011.05,-135.16 1013,-128.43"/>
</a>
</g>
</g>
<!-- Node29&#45;&gt;Node25 -->
<g id="edge61_Node000029_Node000025" class="edge">
<title>Node29&#45;&gt;Node25</title>
<g id="a_edge61_Node000029_Node000025"><a xlink:title=" ">
<path fill="none" stroke="#63b8ff" d="M1337.88,-219.98C1318.65,-211.42 1288.77,-198.11 1266.69,-188.28"/>
<polygon fill="#63b8ff" stroke="#63b8ff" points="1268.03,-185.04 1257.47,-184.17 1265.18,-191.44 1268.03,-185.04"/>
</a>
</g>
</g>
<!-- Node30 -->
<g id="Node000030" class="node">
<title>Node30</title>
<g id="a_Node000030"><a xlink:title=" ">
<polygon fill="#e0e0e0" stroke="#999999" points="1513.5,-184 1442.5,-184 1442.5,-165 1513.5,-165 1513.5,-184"/>
<text text-anchor="middle" x="1478" y="-172" font-family="Helvetica,sans-Serif" font-size="10.00">QMetaType</text>
</a>
</g>
</g>
<!-- Node29&#45;&gt;Node30 -->
<g id="edge54_Node000029_Node000030" class="edge">
<title>Node29&#45;&gt;Node30</title>
<g id="a_edge54_Node000029_Node000030"><a xlink:title=" ">
<path fill="none" stroke="#63b8ff" d="M1376.44,-219.98C1395.99,-211.42 1426.38,-198.11 1448.82,-188.28"/>
<polygon fill="#63b8ff" stroke="#63b8ff" points="1450.45,-191.39 1458.21,-184.17 1447.64,-184.98 1450.45,-191.39"/>
</a>
</g>
</g>
</g>
</svg>

<g id="navigator" transform="translate(0 0)" fill="#404254">
  <rect fill="#f2f5e9" fill-opacity="0.5" stroke="#606060" stroke-width=".5" x="0" y="0" width="60" height="60"/>
  <use id="zoomplus" xlink:href="#zoomPlus" x="17" y="9" onmousedown="handleZoom(evt,'in')"/>
  <use id="zoomminus" xlink:href="#zoomMin" x="42" y="9" onmousedown="handleZoom(evt,'out')"/>
  <use id="reset" xlink:href="#resetDef" x="30" y="36" onmousedown="handleReset()"/>
   <use id="arrowup" xlink:href="#arrowUp" x="0" y="0" onmousedown="handlePan(0,-1)"/>
  <use id="arrowright" xlink:href="#arrowRight" x="0" y="0" onmousedown="handlePan(1,0)"/>
  <use id="arrowdown" xlink:href="#arrowDown" x="0" y="0" onmousedown="handlePan(0,1)"/>
  <use id="arrowleft" xlink:href="#arrowLeft" x="0" y="0" onmousedown="handlePan(-1,0)"/>
</g>
<svg viewBox="0 0 15 15" width="100%" height="30px" preserveAspectRatio="xMaxYMin meet">
 <g id="arrow_out" transform="scale(0.3 0.3)">
  <a xlink:href="vabstractcubicbezier_8cpp__incl_org.svg" target="_base">
   <rect id="button" ry="5" rx="5" y="6" x="6" height="38" width="38"
        fill="#f2f5e9" fill-opacity="0.5" stroke="#606060" stroke-width="1.0"/>
   <path id="arrow"
     d="M 11.500037,31.436501 C 11.940474,20.09759 22.043105,11.32322 32.158766,21.979434 L 37.068811,17.246167 C 37.068811,17.246167 37.088388,32 37.088388,32 L 22.160133,31.978069 C 22.160133,31.978069 26.997745,27.140456 26.997745,27.140456 C 18.528582,18.264221 13.291696,25.230495 11.500037,31.436501 z"
     style="fill:#404040;"/>
  </a>
 </g>
</svg>

<style type='text/css'>
<![CDATA[
[data-mouse-over-selected='false'] { opacity: 0.7; }
[data-mouse-over-selected='true']  { opacity: 1.0; }
]]>
</style>
<script type="application/ecmascript"><![CDATA[
document.addEventListener('DOMContentLoaded', (event) => {
  highlightEdges();
  highlightAdjacentNodes();
});
]]></script>
</svg>
