<?xml version="1.0" encoding="UTF-8" standalone="no"?>
<!DOCTYPE svg PUBLIC "-//W3C//DTD SVG 1.1//EN"
 "http://www.w3.org/Graphics/SVG/1.1/DTD/svg11.dtd">
<!-- Generated by graphviz version 2.43.0 (0)
 -->
<!-- Title: src/libs/vmisc/vsettings.h Pages: 1 -->
<svg width="7565pt" height="229pt"
 viewBox="0.00 0.00 7564.50 229.00" xmlns="http://www.w3.org/2000/svg" xmlns:xlink="http://www.w3.org/1999/xlink">
<g id="graph0" class="graph" transform="scale(1 1) rotate(0) translate(4 225)">
<title>src/libs/vmisc/vsettings.h</title>
<polygon fill="white" stroke="transparent" points="-4,4 -4,-225 7560.5,-225 7560.5,4 -4,4"/>
<!-- Node1 -->
<g id="node1" class="node">
<title>Node1</title>
<g id="a_node1"><a xlink:title=" ">
<polygon fill="#bfbfbf" stroke="black" points="5775.5,-201.5 5775.5,-220.5 5915.5,-220.5 5915.5,-201.5 5775.5,-201.5"/>
<text text-anchor="middle" x="5845.5" y="-208.5" font-family="Helvetica,sans-Serif" font-size="10.00">src/libs/vmisc/vsettings.h</text>
</a>
</g>
</g>
<!-- Node2 -->
<g id="node2" class="node">
<title>Node2</title>
<g id="a_node2"><a xlink:href="../../d9/d02/vapplication_8h.html" target="_top" xlink:title=" ">
<polygon fill="white" stroke="black" points="2219,-134.5 2219,-164.5 2346,-164.5 2346,-134.5 2219,-134.5"/>
<text text-anchor="start" x="2227" y="-152.5" font-family="Helvetica,sans-Serif" font-size="10.00">src/app/seamly2d/core</text>
<text text-anchor="middle" x="2282.5" y="-141.5" font-family="Helvetica,sans-Serif" font-size="10.00">/vapplication.h</text>
</a>
</g>
</g>
<!-- Node1&#45;&gt;Node2 -->
<g id="edge1" class="edge">
<title>Node1&#45;&gt;Node2</title>
<path fill="none" stroke="midnightblue" d="M5765.12,-208.66C5282.72,-200.6 2778.12,-158.78 2346.02,-151.56"/>
<polygon fill="midnightblue" stroke="midnightblue" points="5765.07,-212.16 5775.13,-208.82 5765.19,-205.16 5765.07,-212.16"/>
</g>
<!-- Node26 -->
<g id="node26" class="node">
<title>Node26</title>
<g id="a_node26"><a xlink:href="../../d5/d74/vabstractapplication_8h.html" target="_top" xlink:title=" ">
<polygon fill="white" stroke="red" points="5686,-140 5686,-159 5881,-159 5881,-140 5686,-140"/>
<text text-anchor="middle" x="5783.5" y="-147" font-family="Helvetica,sans-Serif" font-size="10.00">src/libs/vmisc/vabstractapplication.h</text>
</a>
</g>
</g>
<!-- Node1&#45;&gt;Node26 -->
<g id="edge25" class="edge">
<title>Node1&#45;&gt;Node26</title>
<path fill="none" stroke="midnightblue" d="M5829.17,-194.32C5817.39,-183.02 5801.94,-168.19 5792.37,-159.01"/>
<polygon fill="midnightblue" stroke="midnightblue" points="5826.98,-197.08 5836.62,-201.48 5831.83,-192.03 5826.98,-197.08"/>
</g>
<!-- Node62 -->
<g id="node49" class="node">
<title>Node62</title>
<g id="a_node49"><a xlink:href="../../d2/d31/vmaingraphicsview_8cpp.html" target="_top" xlink:title=" ">
<polygon fill="white" stroke="black" points="7340.5,-73 7340.5,-92 7556.5,-92 7556.5,-73 7340.5,-73"/>
<text text-anchor="middle" x="7448.5" y="-80" font-family="Helvetica,sans-Serif" font-size="10.00">src/libs/vwidgets/vmaingraphicsview.cpp</text>
</a>
</g>
</g>
<!-- Node1&#45;&gt;Node62 -->
<g id="edge51" class="edge">
<title>Node1&#45;&gt;Node62</title>
<path fill="none" stroke="midnightblue" d="M5861.1,-194.4C5882.56,-173.13 5919.45,-137.27 5927.5,-134 6072.04,-75.17 7175.88,-109.61 7331.5,-98 7350.28,-96.6 7370.67,-94.33 7389.09,-92"/>
<polygon fill="midnightblue" stroke="midnightblue" points="5858.6,-191.96 5853.98,-201.49 5863.54,-196.92 5858.6,-191.96"/>
</g>
<!-- Node66 -->
<g id="node50" class="node">
<title>Node66</title>
<g id="a_node50"><a xlink:href="../../db/d28/vsettings_8cpp.html" target="_top" xlink:title=" ">
<polygon fill="white" stroke="black" points="5936.5,-140 5936.5,-159 6088.5,-159 6088.5,-140 5936.5,-140"/>
<text text-anchor="middle" x="6012.5" y="-147" font-family="Helvetica,sans-Serif" font-size="10.00">src/libs/vmisc/vsettings.cpp</text>
</a>
</g>
</g>
<!-- Node1&#45;&gt;Node66 -->
<g id="edge50" class="edge">
<title>Node1&#45;&gt;Node66</title>
<path fill="none" stroke="midnightblue" d="M5878.95,-198.08C5911.41,-186.52 5959.87,-169.25 5988.62,-159.01"/>
<polygon fill="midnightblue" stroke="midnightblue" points="5877.67,-194.82 5869.43,-201.48 5880.02,-201.42 5877.67,-194.82"/>
</g>
<!-- Node3 -->
<g id="node3" class="node">
<title>Node3</title>
<g id="a_node3"><a xlink:href="../../d7/dfa/calculator__dialog_8cpp.html" target="_top" xlink:title=" ">
<polygon fill="white" stroke="black" points="0,-67.5 0,-97.5 141,-97.5 141,-67.5 0,-67.5"/>
<text text-anchor="start" x="8" y="-85.5" font-family="Helvetica,sans-Serif" font-size="10.00">src/app/seamly2d/dialogs</text>
<text text-anchor="middle" x="70.5" y="-74.5" font-family="Helvetica,sans-Serif" font-size="10.00">/calculator_dialog.cpp</text>
</a>
</g>
</g>
<!-- Node2&#45;&gt;Node3 -->
<g id="edge2" class="edge">
<title>Node2&#45;&gt;Node3</title>
<path fill="none" stroke="midnightblue" d="M2208.59,-148.32C1881.43,-147.26 561.51,-140.42 149.5,-98 146.73,-97.71 143.9,-97.38 141.06,-97.02"/>
<polygon fill="midnightblue" stroke="midnightblue" points="2208.89,-151.82 2218.9,-148.35 2208.91,-144.82 2208.89,-151.82"/>
</g>
<!-- Node4 -->
<g id="node4" class="node">
<title>Node4</title>
<g id="a_node4"><a xlink:href="../../d2/d2d/preferencesconfigurationpage_8cpp.html" target="_top" xlink:title=" ">
<polygon fill="white" stroke="black" points="159,-67.5 159,-97.5 406,-97.5 406,-67.5 159,-67.5"/>
<text text-anchor="start" x="167" y="-85.5" font-family="Helvetica,sans-Serif" font-size="10.00">src/app/seamly2d/dialogs</text>
<text text-anchor="middle" x="282.5" y="-74.5" font-family="Helvetica,sans-Serif" font-size="10.00">/configpages/preferencesconfigurationpage.cpp</text>
</a>
</g>
</g>
<!-- Node2&#45;&gt;Node4 -->
<g id="edge3" class="edge">
<title>Node2&#45;&gt;Node4</title>
<path fill="none" stroke="midnightblue" d="M2208.63,-148.66C1957.24,-148.76 1111.9,-145.3 415.5,-98 412.37,-97.79 409.2,-97.56 406.01,-97.31"/>
<polygon fill="midnightblue" stroke="midnightblue" points="2208.74,-152.16 2218.74,-148.66 2208.74,-145.16 2208.74,-152.16"/>
</g>
<!-- Node5 -->
<g id="node5" class="node">
<title>Node5</title>
<g id="a_node5"><a xlink:href="../../d9/d70/preferencesgraphicsviewpage_8cpp.html" target="_top" xlink:title=" ">
<polygon fill="white" stroke="black" points="424.5,-67.5 424.5,-97.5 672.5,-97.5 672.5,-67.5 424.5,-67.5"/>
<text text-anchor="start" x="432.5" y="-85.5" font-family="Helvetica,sans-Serif" font-size="10.00">src/app/seamly2d/dialogs</text>
<text text-anchor="middle" x="548.5" y="-74.5" font-family="Helvetica,sans-Serif" font-size="10.00">/configpages/preferencesgraphicsviewpage.cpp</text>
</a>
</g>
</g>
<!-- Node2&#45;&gt;Node5 -->
<g id="edge4" class="edge">
<title>Node2&#45;&gt;Node5</title>
<path fill="none" stroke="midnightblue" d="M2208.57,-148.19C1980.73,-146.81 1269.24,-139.25 681.5,-98 678.6,-97.8 675.67,-97.58 672.72,-97.35"/>
<polygon fill="midnightblue" stroke="midnightblue" points="2208.71,-151.69 2218.73,-148.25 2208.75,-144.69 2208.71,-151.69"/>
</g>
<!-- Node6 -->
<g id="node6" class="node">
<title>Node6</title>
<g id="a_node6"><a xlink:href="../../d2/d00/vtooloptionspropertybrowser_8cpp.html" target="_top" xlink:title=" ">
<polygon fill="white" stroke="black" points="690.5,-67.5 690.5,-97.5 870.5,-97.5 870.5,-67.5 690.5,-67.5"/>
<text text-anchor="start" x="698.5" y="-85.5" font-family="Helvetica,sans-Serif" font-size="10.00">src/app/seamly2d/core</text>
<text text-anchor="middle" x="780.5" y="-74.5" font-family="Helvetica,sans-Serif" font-size="10.00">/vtooloptionspropertybrowser.cpp</text>
</a>
</g>
</g>
<!-- Node2&#45;&gt;Node6 -->
<g id="edge5" class="edge">
<title>Node2&#45;&gt;Node6</title>
<path fill="none" stroke="midnightblue" d="M2208.47,-148.68C1999.3,-148.59 1386.15,-144.08 879.5,-98 876.56,-97.73 873.57,-97.44 870.56,-97.12"/>
<polygon fill="midnightblue" stroke="midnightblue" points="2208.72,-152.18 2218.72,-148.69 2208.72,-145.18 2208.72,-152.18"/>
</g>
<!-- Node7 -->
<g id="node7" class="node">
<title>Node7</title>
<g id="a_node7"><a xlink:href="../../dc/d20/preferencespathpage_8cpp.html" target="_top" xlink:title=" ">
<polygon fill="white" stroke="black" points="889,-67.5 889,-97.5 1094,-97.5 1094,-67.5 889,-67.5"/>
<text text-anchor="start" x="897" y="-85.5" font-family="Helvetica,sans-Serif" font-size="10.00">src/app/seamly2d/dialogs</text>
<text text-anchor="middle" x="991.5" y="-74.5" font-family="Helvetica,sans-Serif" font-size="10.00">/configpages/preferencespathpage.cpp</text>
</a>
</g>
</g>
<!-- Node2&#45;&gt;Node7 -->
<g id="edge6" class="edge">
<title>Node2&#45;&gt;Node7</title>
<path fill="none" stroke="midnightblue" d="M2208.52,-147.57C2022.41,-144.75 1519.78,-134.11 1102.5,-98 1099.79,-97.77 1097.04,-97.51 1094.27,-97.25"/>
<polygon fill="midnightblue" stroke="midnightblue" points="2208.69,-151.07 2218.74,-147.72 2208.79,-144.07 2208.69,-151.07"/>
</g>
<!-- Node8 -->
<g id="node8" class="node">
<title>Node8</title>
<g id="a_node8"><a xlink:href="../../d3/dd8/vapplication_8cpp.html" target="_top" xlink:title=" ">
<polygon fill="white" stroke="black" points="1112,-67.5 1112,-97.5 1239,-97.5 1239,-67.5 1112,-67.5"/>
<text text-anchor="start" x="1120" y="-85.5" font-family="Helvetica,sans-Serif" font-size="10.00">src/app/seamly2d/core</text>
<text text-anchor="middle" x="1175.5" y="-74.5" font-family="Helvetica,sans-Serif" font-size="10.00">/vapplication.cpp</text>
</a>
</g>
</g>
<!-- Node2&#45;&gt;Node8 -->
<g id="edge7" class="edge">
<title>Node2&#45;&gt;Node8</title>
<path fill="none" stroke="midnightblue" d="M2208.82,-148.69C2038.76,-148.3 1605.93,-142.58 1247.5,-98 1244.72,-97.65 1241.88,-97.26 1239.02,-96.83"/>
<polygon fill="midnightblue" stroke="midnightblue" points="2208.91,-152.19 2218.91,-148.71 2208.92,-145.19 2208.91,-152.19"/>
</g>
<!-- Node9 -->
<g id="node9" class="node">
<title>Node9</title>
<g id="a_node9"><a xlink:href="../../dd/dc2/decimalchart__dialog_8cpp.html" target="_top" xlink:title=" ">
<polygon fill="white" stroke="black" points="1257,-67.5 1257,-97.5 1398,-97.5 1398,-67.5 1257,-67.5"/>
<text text-anchor="start" x="1265" y="-85.5" font-family="Helvetica,sans-Serif" font-size="10.00">src/app/seamly2d/dialogs</text>
<text text-anchor="middle" x="1327.5" y="-74.5" font-family="Helvetica,sans-Serif" font-size="10.00">/decimalchart_dialog.cpp</text>
</a>
</g>
</g>
<!-- Node2&#45;&gt;Node9 -->
<g id="edge8" class="edge">
<title>Node2&#45;&gt;Node9</title>
<path fill="none" stroke="midnightblue" d="M2208.78,-147.27C2057.89,-144.09 1703.09,-133.19 1407.5,-98 1404.42,-97.63 1401.27,-97.22 1398.1,-96.78"/>
<polygon fill="midnightblue" stroke="midnightblue" points="2208.79,-150.77 2218.86,-147.48 2208.93,-143.77 2208.79,-150.77"/>
</g>
<!-- Node10 -->
<g id="node10" class="node">
<title>Node10</title>
<g id="a_node10"><a xlink:href="../../dc/d63/preferencespatternpage_8cpp.html" target="_top" xlink:title=" ">
<polygon fill="white" stroke="black" points="1416.5,-67.5 1416.5,-97.5 1634.5,-97.5 1634.5,-67.5 1416.5,-67.5"/>
<text text-anchor="start" x="1424.5" y="-85.5" font-family="Helvetica,sans-Serif" font-size="10.00">src/app/seamly2d/dialogs</text>
<text text-anchor="middle" x="1525.5" y="-74.5" font-family="Helvetica,sans-Serif" font-size="10.00">/configpages/preferencespatternpage.cpp</text>
</a>
</g>
</g>
<!-- Node2&#45;&gt;Node10 -->
<g id="edge9" class="edge">
<title>Node2&#45;&gt;Node10</title>
<path fill="none" stroke="midnightblue" d="M2208.84,-143.72C2089.83,-135.77 1847.91,-118.63 1643.5,-98 1640.62,-97.71 1637.71,-97.41 1634.77,-97.1"/>
<polygon fill="midnightblue" stroke="midnightblue" points="2208.72,-147.22 2218.93,-144.39 2209.19,-140.24 2208.72,-147.22"/>
</g>
<!-- Node11 -->
<g id="node11" class="node">
<title>Node11</title>
<g id="a_node11"><a xlink:href="../../dd/d64/dialogaboutapp_8cpp.html" target="_top" xlink:title=" ">
<polygon fill="white" stroke="black" points="1653,-67.5 1653,-97.5 1794,-97.5 1794,-67.5 1653,-67.5"/>
<text text-anchor="start" x="1661" y="-85.5" font-family="Helvetica,sans-Serif" font-size="10.00">src/app/seamly2d/dialogs</text>
<text text-anchor="middle" x="1723.5" y="-74.5" font-family="Helvetica,sans-Serif" font-size="10.00">/dialogaboutapp.cpp</text>
</a>
</g>
</g>
<!-- Node2&#45;&gt;Node11 -->
<g id="edge10" class="edge">
<title>Node2&#45;&gt;Node11</title>
<path fill="none" stroke="midnightblue" d="M2208.61,-142.5C2114.17,-134.42 1945.74,-118.65 1802.5,-98 1799.74,-97.6 1796.93,-97.18 1794.09,-96.73"/>
<polygon fill="midnightblue" stroke="midnightblue" points="2208.38,-145.99 2218.64,-143.35 2208.97,-139.02 2208.38,-145.99"/>
</g>
<!-- Node12 -->
<g id="node12" class="node">
<title>Node12</title>
<g id="a_node12"><a xlink:href="../../d6/d89/dialoglayoutprogress_8cpp.html" target="_top" xlink:title=" ">
<polygon fill="white" stroke="black" points="1812,-67.5 1812,-97.5 1955,-97.5 1955,-67.5 1812,-67.5"/>
<text text-anchor="start" x="1820" y="-85.5" font-family="Helvetica,sans-Serif" font-size="10.00">src/app/seamly2d/dialogs</text>
<text text-anchor="middle" x="1883.5" y="-74.5" font-family="Helvetica,sans-Serif" font-size="10.00">/dialoglayoutprogress.cpp</text>
</a>
</g>
</g>
<!-- Node2&#45;&gt;Node12 -->
<g id="edge11" class="edge">
<title>Node2&#45;&gt;Node12</title>
<path fill="none" stroke="midnightblue" d="M2208.78,-137.31C2144.07,-127.37 2047.46,-112.25 1963.5,-98 1960.72,-97.53 1957.88,-97.04 1955.02,-96.54"/>
<polygon fill="midnightblue" stroke="midnightblue" points="2208.47,-140.8 2218.88,-138.86 2209.53,-133.88 2208.47,-140.8"/>
</g>
<!-- Node13 -->
<g id="node13" class="node">
<title>Node13</title>
<g id="a_node13"><a xlink:href="../../db/def/dialoglayoutsettings_8cpp.html" target="_top" xlink:title=" ">
<polygon fill="white" stroke="black" points="1973,-67.5 1973,-97.5 2114,-97.5 2114,-67.5 1973,-67.5"/>
<text text-anchor="start" x="1981" y="-85.5" font-family="Helvetica,sans-Serif" font-size="10.00">src/app/seamly2d/dialogs</text>
<text text-anchor="middle" x="2043.5" y="-74.5" font-family="Helvetica,sans-Serif" font-size="10.00">/dialoglayoutsettings.cpp</text>
</a>
</g>
</g>
<!-- Node2&#45;&gt;Node13 -->
<g id="edge12" class="edge">
<title>Node2&#45;&gt;Node13</title>
<path fill="none" stroke="midnightblue" d="M2221.28,-131.85C2182.31,-121.25 2132.4,-107.68 2095.38,-97.61"/>
<polygon fill="midnightblue" stroke="midnightblue" points="2220.37,-135.23 2230.93,-134.48 2222.2,-128.47 2220.37,-135.23"/>
</g>
<!-- Node14 -->
<g id="node14" class="node">
<title>Node14</title>
<g id="a_node14"><a xlink:href="../../de/d87/dialognewpattern_8cpp.html" target="_top" xlink:title=" ">
<polygon fill="white" stroke="black" points="2132,-67.5 2132,-97.5 2273,-97.5 2273,-67.5 2132,-67.5"/>
<text text-anchor="start" x="2140" y="-85.5" font-family="Helvetica,sans-Serif" font-size="10.00">src/app/seamly2d/dialogs</text>
<text text-anchor="middle" x="2202.5" y="-74.5" font-family="Helvetica,sans-Serif" font-size="10.00">/dialognewpattern.cpp</text>
</a>
</g>
</g>
<!-- Node2&#45;&gt;Node14 -->
<g id="edge13" class="edge">
<title>Node2&#45;&gt;Node14</title>
<path fill="none" stroke="midnightblue" d="M2257.13,-127.88C2244.97,-118.01 2230.72,-106.43 2219.82,-97.58"/>
<polygon fill="midnightblue" stroke="midnightblue" points="2255.17,-130.81 2265.14,-134.4 2259.59,-125.37 2255.17,-130.81"/>
</g>
<!-- Node15 -->
<g id="node15" class="node">
<title>Node15</title>
<g id="a_node15"><a xlink:href="../../d5/dc5/dialogpreferences_8cpp.html" target="_top" xlink:title=" ">
<polygon fill="white" stroke="black" points="2291,-67.5 2291,-97.5 2432,-97.5 2432,-67.5 2291,-67.5"/>
<text text-anchor="start" x="2299" y="-85.5" font-family="Helvetica,sans-Serif" font-size="10.00">src/app/seamly2d/dialogs</text>
<text text-anchor="middle" x="2361.5" y="-74.5" font-family="Helvetica,sans-Serif" font-size="10.00">/dialogpreferences.cpp</text>
</a>
</g>
</g>
<!-- Node2&#45;&gt;Node15 -->
<g id="edge14" class="edge">
<title>Node2&#45;&gt;Node15</title>
<path fill="none" stroke="midnightblue" d="M2307.56,-127.88C2319.56,-118.01 2333.63,-106.43 2344.39,-97.58"/>
<polygon fill="midnightblue" stroke="midnightblue" points="2305.14,-125.34 2299.64,-134.4 2309.59,-130.75 2305.14,-125.34"/>
</g>
<!-- Node16 -->
<g id="node16" class="node">
<title>Node16</title>
<g id="a_node16"><a xlink:href="../../d5/d18/dialogpatternproperties_8cpp.html" target="_top" xlink:title=" ">
<polygon fill="white" stroke="black" points="2450,-67.5 2450,-97.5 2605,-97.5 2605,-67.5 2450,-67.5"/>
<text text-anchor="start" x="2458" y="-85.5" font-family="Helvetica,sans-Serif" font-size="10.00">src/app/seamly2d/dialogs</text>
<text text-anchor="middle" x="2527.5" y="-74.5" font-family="Helvetica,sans-Serif" font-size="10.00">/dialogpatternproperties.cpp</text>
</a>
</g>
</g>
<!-- Node2&#45;&gt;Node16 -->
<g id="edge15" class="edge">
<title>Node2&#45;&gt;Node16</title>
<path fill="none" stroke="midnightblue" d="M2345.26,-131.85C2385.2,-121.25 2436.37,-107.68 2474.31,-97.61"/>
<polygon fill="midnightblue" stroke="midnightblue" points="2344.13,-128.53 2335.36,-134.48 2345.92,-135.29 2344.13,-128.53"/>
</g>
<!-- Node17 -->
<g id="node17" class="node">
<title>Node17</title>
<g id="a_node17"><a xlink:href="../../dd/d54/export__layout__dialog_8cpp.html" target="_top" xlink:title=" ">
<polygon fill="white" stroke="black" points="2623,-67.5 2623,-97.5 2766,-97.5 2766,-67.5 2623,-67.5"/>
<text text-anchor="start" x="2631" y="-85.5" font-family="Helvetica,sans-Serif" font-size="10.00">src/app/seamly2d/dialogs</text>
<text text-anchor="middle" x="2694.5" y="-74.5" font-family="Helvetica,sans-Serif" font-size="10.00">/export_layout_dialog.cpp</text>
</a>
</g>
</g>
<!-- Node2&#45;&gt;Node17 -->
<g id="edge16" class="edge">
<title>Node2&#45;&gt;Node17</title>
<path fill="none" stroke="midnightblue" d="M2356.09,-137.83C2423.22,-127.96 2525.13,-112.65 2613.5,-98 2616.6,-97.49 2619.77,-96.95 2622.96,-96.41"/>
<polygon fill="midnightblue" stroke="midnightblue" points="2355.42,-134.39 2346.03,-139.3 2356.43,-141.31 2355.42,-134.39"/>
</g>
<!-- Node18 -->
<g id="node18" class="node">
<title>Node18</title>
<g id="a_node18"><a xlink:href="../../db/d5c/groups__widget_8cpp.html" target="_top" xlink:title=" ">
<polygon fill="white" stroke="black" points="2784,-67.5 2784,-97.5 2925,-97.5 2925,-67.5 2784,-67.5"/>
<text text-anchor="start" x="2792" y="-85.5" font-family="Helvetica,sans-Serif" font-size="10.00">src/app/seamly2d/dialogs</text>
<text text-anchor="middle" x="2854.5" y="-74.5" font-family="Helvetica,sans-Serif" font-size="10.00">/groups_widget.cpp</text>
</a>
</g>
</g>
<!-- Node2&#45;&gt;Node18 -->
<g id="edge17" class="edge">
<title>Node2&#45;&gt;Node18</title>
<path fill="none" stroke="midnightblue" d="M2356.61,-142.68C2453.1,-134.7 2626.85,-118.93 2774.5,-98 2777.57,-97.56 2780.71,-97.1 2783.88,-96.6"/>
<polygon fill="midnightblue" stroke="midnightblue" points="2356.06,-139.22 2346.38,-143.52 2356.63,-146.19 2356.06,-139.22"/>
</g>
<!-- Node19 -->
<g id="node19" class="node">
<title>Node19</title>
<g id="a_node19"><a xlink:href="../../dd/d84/shortcuts__dialog_8cpp.html" target="_top" xlink:title=" ">
<polygon fill="white" stroke="black" points="2943,-67.5 2943,-97.5 3084,-97.5 3084,-67.5 2943,-67.5"/>
<text text-anchor="start" x="2951" y="-85.5" font-family="Helvetica,sans-Serif" font-size="10.00">src/app/seamly2d/dialogs</text>
<text text-anchor="middle" x="3013.5" y="-74.5" font-family="Helvetica,sans-Serif" font-size="10.00">/shortcuts_dialog.cpp</text>
</a>
</g>
</g>
<!-- Node2&#45;&gt;Node19 -->
<g id="edge18" class="edge">
<title>Node2&#45;&gt;Node19</title>
<path fill="none" stroke="midnightblue" d="M2356.27,-145.23C2477.23,-139.32 2725.12,-124.9 2933.5,-98 2936.58,-97.6 2939.72,-97.17 2942.89,-96.7"/>
<polygon fill="midnightblue" stroke="midnightblue" points="2355.84,-141.75 2346.02,-145.72 2356.18,-148.74 2355.84,-141.75"/>
</g>
<!-- Node20 -->
<g id="node20" class="node">
<title>Node20</title>
<g id="a_node20"><a xlink:href="../../d2/df4/show__info__dialog_8cpp.html" target="_top" xlink:title=" ">
<polygon fill="white" stroke="black" points="3102,-67.5 3102,-97.5 3243,-97.5 3243,-67.5 3102,-67.5"/>
<text text-anchor="start" x="3110" y="-85.5" font-family="Helvetica,sans-Serif" font-size="10.00">src/app/seamly2d/dialogs</text>
<text text-anchor="middle" x="3172.5" y="-74.5" font-family="Helvetica,sans-Serif" font-size="10.00">/show_info_dialog.cpp</text>
</a>
</g>
</g>
<!-- Node2&#45;&gt;Node20 -->
<g id="edge19" class="edge">
<title>Node2&#45;&gt;Node20</title>
<path fill="none" stroke="midnightblue" d="M2356.38,-146.79C2499.1,-142.84 2822.49,-130.77 3092.5,-98 3095.58,-97.63 3098.73,-97.21 3101.9,-96.76"/>
<polygon fill="midnightblue" stroke="midnightblue" points="2355.91,-143.3 2346.01,-147.07 2356.1,-150.29 2355.91,-143.3"/>
</g>
<!-- Node21 -->
<g id="node21" class="node">
<title>Node21</title>
<g id="a_node21"><a xlink:href="../../d5/de4/vabstractlayoutdialog_8cpp.html" target="_top" xlink:title=" ">
<polygon fill="white" stroke="black" points="3261.5,-67.5 3261.5,-97.5 3407.5,-97.5 3407.5,-67.5 3261.5,-67.5"/>
<text text-anchor="start" x="3269.5" y="-85.5" font-family="Helvetica,sans-Serif" font-size="10.00">src/app/seamly2d/dialogs</text>
<text text-anchor="middle" x="3334.5" y="-74.5" font-family="Helvetica,sans-Serif" font-size="10.00">/vabstractlayoutdialog.cpp</text>
</a>
</g>
</g>
<!-- Node2&#45;&gt;Node21 -->
<g id="edge20" class="edge">
<title>Node2&#45;&gt;Node21</title>
<path fill="none" stroke="midnightblue" d="M2356.57,-147.69C2519.09,-145.24 2918.99,-135.57 3251.5,-98 3254.7,-97.64 3257.96,-97.23 3261.25,-96.79"/>
<polygon fill="midnightblue" stroke="midnightblue" points="2356.16,-144.19 2346.21,-147.84 2356.26,-151.19 2356.16,-144.19"/>
</g>
<!-- Node22 -->
<g id="node22" class="node">
<title>Node22</title>
<g id="a_node22"><a xlink:href="../../dc/d14/app_2seamly2d_2main_8cpp.html" target="_top" xlink:title=" ">
<polygon fill="white" stroke="black" points="3426,-73 3426,-92 3577,-92 3577,-73 3426,-73"/>
<text text-anchor="middle" x="3501.5" y="-80" font-family="Helvetica,sans-Serif" font-size="10.00">src/app/seamly2d/main.cpp</text>
</a>
</g>
</g>
<!-- Node2&#45;&gt;Node22 -->
<g id="edge21" class="edge">
<title>Node2&#45;&gt;Node22</title>
<path fill="none" stroke="midnightblue" d="M2356.23,-148.39C2537.3,-147.42 3018.13,-140.68 3416.5,-98 3429.9,-96.56 3444.38,-94.35 3457.53,-92.07"/>
<polygon fill="midnightblue" stroke="midnightblue" points="2356.01,-144.89 2346.03,-148.44 2356.04,-151.89 2356.01,-144.89"/>
</g>
<!-- Node23 -->
<g id="node23" class="node">
<title>Node23</title>
<g id="a_node23"><a xlink:href="../../d8/de8/mainwindowsnogui_8cpp.html" target="_top" xlink:title=" ">
<polygon fill="white" stroke="black" points="3595,-73 3595,-92 3816,-92 3816,-73 3595,-73"/>
<text text-anchor="middle" x="3705.5" y="-80" font-family="Helvetica,sans-Serif" font-size="10.00">src/app/seamly2d/mainwindowsnogui.cpp</text>
</a>
</g>
</g>
<!-- Node2&#45;&gt;Node23 -->
<g id="edge22" class="edge">
<title>Node2&#45;&gt;Node23</title>
<path fill="none" stroke="midnightblue" d="M2356.38,-147.74C2555.27,-145.25 3118.58,-135.2 3585.5,-98 3604.22,-96.51 3624.52,-94.29 3643,-92.03"/>
<polygon fill="midnightblue" stroke="midnightblue" points="2356.29,-144.25 2346.33,-147.87 2356.38,-151.24 2356.29,-144.25"/>
</g>
<!-- Node24 -->
<g id="node24" class="node">
<title>Node24</title>
<g id="a_node24"><a xlink:href="../../d3/d49/vpattern_8cpp.html" target="_top" xlink:title=" ">
<polygon fill="white" stroke="black" points="3834,-67.5 3834,-97.5 3959,-97.5 3959,-67.5 3834,-67.5"/>
<text text-anchor="start" x="3842" y="-85.5" font-family="Helvetica,sans-Serif" font-size="10.00">src/app/seamly2d/xml</text>
<text text-anchor="middle" x="3896.5" y="-74.5" font-family="Helvetica,sans-Serif" font-size="10.00">/vpattern.cpp</text>
</a>
</g>
</g>
<!-- Node2&#45;&gt;Node24 -->
<g id="edge23" class="edge">
<title>Node2&#45;&gt;Node24</title>
<path fill="none" stroke="midnightblue" d="M2356.66,-147.7C2623.62,-144.58 3535.04,-131.65 3824.5,-98 3827.54,-97.65 3830.64,-97.23 3833.77,-96.77"/>
<polygon fill="midnightblue" stroke="midnightblue" points="2356.27,-144.21 2346.31,-147.82 2356.35,-151.21 2356.27,-144.21"/>
</g>
<!-- Node25 -->
<g id="node25" class="node">
<title>Node25</title>
<g id="a_node25"><a xlink:href="../../d8/dd9/mainwindow_8cpp.html" target="_top" xlink:title=" ">
<polygon fill="white" stroke="black" points="3977.5,-73 3977.5,-92 4165.5,-92 4165.5,-73 3977.5,-73"/>
<text text-anchor="middle" x="4071.5" y="-80" font-family="Helvetica,sans-Serif" font-size="10.00">src/app/seamly2d/mainwindow.cpp</text>
</a>
</g>
</g>
<!-- Node2&#45;&gt;Node25 -->
<g id="edge24" class="edge">
<title>Node2&#45;&gt;Node25</title>
<path fill="none" stroke="midnightblue" d="M2356.31,-147.36C2638.26,-142.82 3647.56,-125.02 3967.5,-98 3984.12,-96.6 4002.15,-94.34 4018.45,-92.03"/>
<polygon fill="midnightblue" stroke="midnightblue" points="2356.13,-143.86 2346.19,-147.52 2356.24,-150.86 2356.13,-143.86"/>
</g>
<!-- Node27 -->
<g id="node27" class="node">
<title>Node27</title>
<g id="a_node27"><a xlink:href="../../d4/d90/fvupdater_8cpp.html" target="_top" xlink:title=" ">
<polygon fill="white" stroke="black" points="4184,-73 4184,-92 4337,-92 4337,-73 4184,-73"/>
<text text-anchor="middle" x="4260.5" y="-80" font-family="Helvetica,sans-Serif" font-size="10.00">src/libs/fervor/fvupdater.cpp</text>
</a>
</g>
</g>
<!-- Node26&#45;&gt;Node27 -->
<g id="edge26" class="edge">
<title>Node26&#45;&gt;Node27</title>
<path fill="none" stroke="midnightblue" d="M5675.88,-146.59C5387.77,-141.18 4603.3,-124.4 4345.5,-98 4331.8,-96.6 4316.97,-94.33 4303.59,-92"/>
<polygon fill="midnightblue" stroke="midnightblue" points="5675.86,-150.09 5685.92,-146.78 5675.99,-143.09 5675.86,-150.09"/>
</g>
<!-- Node28 -->
<g id="node28" class="node">
<title>Node28</title>
<g id="a_node28"><a xlink:href="../../d9/dc8/dxiface_8cpp.html" target="_top" xlink:title=" ">
<polygon fill="white" stroke="black" points="4355,-73 4355,-92 4490,-92 4490,-73 4355,-73"/>
<text text-anchor="middle" x="4422.5" y="-80" font-family="Helvetica,sans-Serif" font-size="10.00">src/libs/vdxf/dxiface.cpp</text>
</a>
</g>
</g>
<!-- Node26&#45;&gt;Node28 -->
<g id="edge27" class="edge">
<title>Node26&#45;&gt;Node28</title>
<path fill="none" stroke="midnightblue" d="M5675.93,-146.34C5409.72,-140.66 4725.3,-123.95 4498.5,-98 4486.36,-96.61 4473.24,-94.38 4461.38,-92.07"/>
<polygon fill="midnightblue" stroke="midnightblue" points="5675.92,-149.84 5685.99,-146.55 5676.07,-142.84 5675.92,-149.84"/>
</g>
<!-- Node29 -->
<g id="node29" class="node">
<title>Node29</title>
<g id="a_node29"><a xlink:href="../../da/d75/vabstractarc__p_8h.html" target="_top" xlink:title=" ">
<polygon fill="white" stroke="red" points="4508,-67.5 4508,-97.5 4615,-97.5 4615,-67.5 4508,-67.5"/>
<text text-anchor="start" x="4516" y="-85.5" font-family="Helvetica,sans-Serif" font-size="10.00">src/libs/vgeometry</text>
<text text-anchor="middle" x="4561.5" y="-74.5" font-family="Helvetica,sans-Serif" font-size="10.00">/vabstractarc_p.h</text>
</a>
</g>
</g>
<!-- Node26&#45;&gt;Node29 -->
<g id="edge28" class="edge">
<title>Node26&#45;&gt;Node29</title>
<path fill="none" stroke="midnightblue" d="M5675.82,-146.38C5428.32,-141.08 4824.78,-125.67 4623.5,-98 4620.76,-97.62 4617.97,-97.18 4615.15,-96.69"/>
<polygon fill="midnightblue" stroke="midnightblue" points="5675.83,-149.88 5685.9,-146.59 5675.98,-142.88 5675.83,-149.88"/>
</g>
<!-- Node31 -->
<g id="node30" class="node">
<title>Node31</title>
<g id="a_node30"><a xlink:href="../../d5/d8e/vcubicbezier__p_8h.html" target="_top" xlink:title=" ">
<polygon fill="white" stroke="red" points="4633,-67.5 4633,-97.5 4740,-97.5 4740,-67.5 4633,-67.5"/>
<text text-anchor="start" x="4641" y="-85.5" font-family="Helvetica,sans-Serif" font-size="10.00">src/libs/vgeometry</text>
<text text-anchor="middle" x="4686.5" y="-74.5" font-family="Helvetica,sans-Serif" font-size="10.00">/vcubicbezier_p.h</text>
</a>
</g>
</g>
<!-- Node26&#45;&gt;Node31 -->
<g id="edge29" class="edge">
<title>Node26&#45;&gt;Node31</title>
<path fill="none" stroke="midnightblue" d="M5675.63,-145.71C5447.99,-139.42 4924.95,-122.73 4748.5,-98 4745.76,-97.62 4742.97,-97.17 4740.16,-96.68"/>
<polygon fill="midnightblue" stroke="midnightblue" points="5675.82,-149.22 5685.92,-145.99 5676.02,-142.22 5675.82,-149.22"/>
</g>
<!-- Node33 -->
<g id="node31" class="node">
<title>Node33</title>
<g id="a_node31"><a xlink:href="../../dc/da3/varc__p_8h.html" target="_top" xlink:title=" ">
<polygon fill="white" stroke="red" points="4758,-67.5 4758,-97.5 4865,-97.5 4865,-67.5 4758,-67.5"/>
<text text-anchor="start" x="4766" y="-85.5" font-family="Helvetica,sans-Serif" font-size="10.00">src/libs/vgeometry</text>
<text text-anchor="middle" x="4811.5" y="-74.5" font-family="Helvetica,sans-Serif" font-size="10.00">/varc_p.h</text>
</a>
</g>
</g>
<!-- Node26&#45;&gt;Node33 -->
<g id="edge30" class="edge">
<title>Node26&#45;&gt;Node33</title>
<path fill="none" stroke="midnightblue" d="M5675.98,-148.58C5505.11,-147.35 5161.43,-139.34 4873.5,-98 4870.76,-97.61 4867.97,-97.15 4865.16,-96.65"/>
<polygon fill="midnightblue" stroke="midnightblue" points="5675.96,-152.08 5685.98,-148.64 5676.01,-145.08 5675.96,-152.08"/>
</g>
<!-- Node35 -->
<g id="node32" class="node">
<title>Node35</title>
<g id="a_node32"><a xlink:href="../../df/dde/vellipticalarc__p_8h.html" target="_top" xlink:title=" ">
<polygon fill="white" stroke="black" points="4883,-67.5 4883,-97.5 4990,-97.5 4990,-67.5 4883,-67.5"/>
<text text-anchor="start" x="4891" y="-85.5" font-family="Helvetica,sans-Serif" font-size="10.00">src/libs/vgeometry</text>
<text text-anchor="middle" x="4936.5" y="-74.5" font-family="Helvetica,sans-Serif" font-size="10.00">/vellipticalarc_p.h</text>
</a>
</g>
</g>
<!-- Node26&#45;&gt;Node35 -->
<g id="edge31" class="edge">
<title>Node26&#45;&gt;Node35</title>
<path fill="none" stroke="midnightblue" d="M5675.7,-146.46C5524.9,-142.48 5242.69,-130.94 5004.5,-98 4999.84,-97.36 4995.02,-96.57 4990.19,-95.7"/>
<polygon fill="midnightblue" stroke="midnightblue" points="5675.8,-149.96 5685.89,-146.72 5675.98,-142.96 5675.8,-149.96"/>
</g>
<!-- Node36 -->
<g id="node33" class="node">
<title>Node36</title>
<g id="a_node33"><a xlink:href="../../d6/dfb/vellipticalarc_8cpp.html" target="_top" xlink:title=" ">
<polygon fill="white" stroke="black" points="4924,-0.5 4924,-30.5 5031,-30.5 5031,-0.5 4924,-0.5"/>
<text text-anchor="start" x="4932" y="-18.5" font-family="Helvetica,sans-Serif" font-size="10.00">src/libs/vgeometry</text>
<text text-anchor="middle" x="4977.5" y="-7.5" font-family="Helvetica,sans-Serif" font-size="10.00">/vellipticalarc.cpp</text>
</a>
</g>
</g>
<!-- Node26&#45;&gt;Node36 -->
<g id="edge33" class="edge">
<title>Node26&#45;&gt;Node36</title>
<path fill="none" stroke="midnightblue" d="M5675.52,-146.19C5482.19,-141.32 5091.97,-127.89 5037.5,-98 5010.24,-83.04 4991.99,-49.81 4983.33,-30.72"/>
<polygon fill="midnightblue" stroke="midnightblue" points="5675.62,-149.69 5685.7,-146.44 5675.79,-142.69 5675.62,-149.69"/>
</g>
<!-- Node37 -->
<g id="node34" class="node">
<title>Node37</title>
<g id="a_node34"><a xlink:href="../../d1/d76/vspline__p_8h.html" target="_top" xlink:title=" ">
<polygon fill="white" stroke="red" points="5047,-67.5 5047,-97.5 5154,-97.5 5154,-67.5 5047,-67.5"/>
<text text-anchor="start" x="5055" y="-85.5" font-family="Helvetica,sans-Serif" font-size="10.00">src/libs/vgeometry</text>
<text text-anchor="middle" x="5100.5" y="-74.5" font-family="Helvetica,sans-Serif" font-size="10.00">/vspline_p.h</text>
</a>
</g>
</g>
<!-- Node26&#45;&gt;Node37 -->
<g id="edge34" class="edge">
<title>Node26&#45;&gt;Node37</title>
<path fill="none" stroke="midnightblue" d="M5675.54,-144.45C5551.4,-138.7 5341.78,-125.63 5163.5,-98 5160.39,-97.52 5157.21,-96.97 5154.01,-96.37"/>
<polygon fill="midnightblue" stroke="midnightblue" points="5675.65,-147.96 5685.8,-144.92 5675.97,-140.97 5675.65,-147.96"/>
</g>
<!-- Node39 -->
<g id="node35" class="node">
<title>Node39</title>
<g id="a_node35"><a xlink:href="../../d9/d15/vabstractpiece_8cpp.html" target="_top" xlink:title=" ">
<polygon fill="white" stroke="black" points="5172.5,-73 5172.5,-92 5358.5,-92 5358.5,-73 5172.5,-73"/>
<text text-anchor="middle" x="5265.5" y="-80" font-family="Helvetica,sans-Serif" font-size="10.00">src/libs/vlayout/vabstractpiece.cpp</text>
</a>
</g>
</g>
<!-- Node26&#45;&gt;Node39 -->
<g id="edge35" class="edge">
<title>Node26&#45;&gt;Node39</title>
<path fill="none" stroke="midnightblue" d="M5699.42,-138.8C5615.34,-128.99 5482.38,-113.14 5367.5,-98 5353.4,-96.14 5338.22,-94.04 5324,-92.02"/>
<polygon fill="midnightblue" stroke="midnightblue" points="5699.09,-142.29 5709.42,-139.97 5699.9,-135.33 5699.09,-142.29"/>
</g>
<!-- Node40 -->
<g id="node36" class="node">
<title>Node40</title>
<g id="a_node36"><a xlink:href="../../d8/d70/vtextmanager_8cpp.html" target="_top" xlink:title=" ">
<polygon fill="white" stroke="black" points="5376.5,-73 5376.5,-92 5558.5,-92 5558.5,-73 5376.5,-73"/>
<text text-anchor="middle" x="5467.5" y="-80" font-family="Helvetica,sans-Serif" font-size="10.00">src/libs/vlayout/vtextmanager.cpp</text>
</a>
</g>
</g>
<!-- Node26&#45;&gt;Node40 -->
<g id="edge36" class="edge">
<title>Node26&#45;&gt;Node40</title>
<path fill="none" stroke="midnightblue" d="M5731.87,-137.88C5669.63,-125.08 5566.28,-103.82 5508.98,-92.03"/>
<polygon fill="midnightblue" stroke="midnightblue" points="5731.36,-141.35 5741.86,-139.94 5732.77,-134.49 5731.36,-141.35"/>
</g>
<!-- Node41 -->
<g id="node37" class="node">
<title>Node41</title>
<g id="a_node37"><a xlink:href="../../db/d65/dialogexporttocsv_8cpp.html" target="_top" xlink:title=" ">
<polygon fill="white" stroke="black" points="5577,-67.5 5577,-97.5 5704,-97.5 5704,-67.5 5577,-67.5"/>
<text text-anchor="start" x="5585" y="-85.5" font-family="Helvetica,sans-Serif" font-size="10.00">src/libs/vmisc/dialogs</text>
<text text-anchor="middle" x="5640.5" y="-74.5" font-family="Helvetica,sans-Serif" font-size="10.00">/dialogexporttocsv.cpp</text>
</a>
</g>
</g>
<!-- Node26&#45;&gt;Node41 -->
<g id="edge37" class="edge">
<title>Node26&#45;&gt;Node41</title>
<path fill="none" stroke="midnightblue" d="M5755.17,-135.62C5730.98,-124.63 5696.25,-108.84 5671.36,-97.53"/>
<polygon fill="midnightblue" stroke="midnightblue" points="5753.96,-138.92 5764.51,-139.87 5756.86,-132.54 5753.96,-138.92"/>
</g>
<!-- Node42 -->
<g id="node38" class="node">
<title>Node42</title>
<g id="a_node38"><a xlink:href="../../d6/d0b/def_8cpp.html" target="_top" xlink:title=" ">
<polygon fill="white" stroke="black" points="5722.5,-73 5722.5,-92 5844.5,-92 5844.5,-73 5722.5,-73"/>
<text text-anchor="middle" x="5783.5" y="-80" font-family="Helvetica,sans-Serif" font-size="10.00">src/libs/vmisc/def.cpp</text>
</a>
</g>
</g>
<!-- Node26&#45;&gt;Node42 -->
<g id="edge38" class="edge">
<title>Node26&#45;&gt;Node42</title>
<path fill="none" stroke="midnightblue" d="M5783.5,-129.54C5783.5,-117.17 5783.5,-101.62 5783.5,-92.13"/>
<polygon fill="midnightblue" stroke="midnightblue" points="5780,-129.73 5783.5,-139.73 5787,-129.73 5780,-129.73"/>
</g>
<!-- Node43 -->
<g id="node39" class="node">
<title>Node43</title>
<g id="a_node39"><a xlink:href="../../dd/d70/vlayoutpiece_8cpp.html" target="_top" xlink:title=" ">
<polygon fill="white" stroke="black" points="5863,-73 5863,-92 6040,-92 6040,-73 5863,-73"/>
<text text-anchor="middle" x="5951.5" y="-80" font-family="Helvetica,sans-Serif" font-size="10.00">src/libs/vlayout/vlayoutpiece.cpp</text>
</a>
</g>
</g>
<!-- Node26&#45;&gt;Node43 -->
<g id="edge39" class="edge">
<title>Node26&#45;&gt;Node43</title>
<path fill="none" stroke="midnightblue" d="M5815.54,-136.1C5848.89,-123.2 5900.25,-103.33 5929.37,-92.06"/>
<polygon fill="midnightblue" stroke="midnightblue" points="5813.87,-133 5805.81,-139.87 5816.4,-139.52 5813.87,-133"/>
</g>
<!-- Node44 -->
<g id="node40" class="node">
<title>Node44</title>
<g id="a_node40"><a xlink:href="../../d0/df6/vabstractapplication_8cpp.html" target="_top" xlink:title=" ">
<polygon fill="white" stroke="black" points="6058.5,-73 6058.5,-92 6264.5,-92 6264.5,-73 6058.5,-73"/>
<text text-anchor="middle" x="6161.5" y="-80" font-family="Helvetica,sans-Serif" font-size="10.00">src/libs/vmisc/vabstractapplication.cpp</text>
</a>
</g>
</g>
<!-- Node26&#45;&gt;Node44 -->
<g id="edge40" class="edge">
<title>Node26&#45;&gt;Node44</title>
<path fill="none" stroke="midnightblue" d="M5843.43,-138.19C5917.67,-125.43 6042.77,-103.92 6111.88,-92.03"/>
<polygon fill="midnightblue" stroke="midnightblue" points="5842.57,-134.79 5833.31,-139.94 5843.75,-141.69 5842.57,-134.79"/>
</g>
<!-- Node45 -->
<g id="node41" class="node">
<title>Node45</title>
<g id="a_node41"><a xlink:href="../../d4/d4f/pmsystems_8cpp.html" target="_top" xlink:title=" ">
<polygon fill="white" stroke="black" points="6283,-67.5 6283,-97.5 6390,-97.5 6390,-67.5 6283,-67.5"/>
<text text-anchor="start" x="6291" y="-85.5" font-family="Helvetica,sans-Serif" font-size="10.00">src/libs/vpatterndb</text>
<text text-anchor="middle" x="6336.5" y="-74.5" font-family="Helvetica,sans-Serif" font-size="10.00">/pmsystems.cpp</text>
</a>
</g>
</g>
<!-- Node26&#45;&gt;Node45 -->
<g id="edge41" class="edge">
<title>Node26&#45;&gt;Node45</title>
<path fill="none" stroke="midnightblue" d="M5855.88,-138.67C5868.73,-137.03 5882,-135.41 5894.5,-134 6062.64,-115.04 6106.47,-125.03 6273.5,-98 6276.6,-97.5 6279.78,-96.93 6282.98,-96.32"/>
<polygon fill="midnightblue" stroke="midnightblue" points="5855.15,-135.24 5845.68,-139.99 5856.05,-142.18 5855.15,-135.24"/>
</g>
<!-- Node46 -->
<g id="node42" class="node">
<title>Node46</title>
<g id="a_node42"><a xlink:href="../../db/d11/vformula_8cpp.html" target="_top" xlink:title=" ">
<polygon fill="white" stroke="black" points="6408,-67.5 6408,-97.5 6515,-97.5 6515,-67.5 6408,-67.5"/>
<text text-anchor="start" x="6416" y="-85.5" font-family="Helvetica,sans-Serif" font-size="10.00">src/libs/vpatterndb</text>
<text text-anchor="middle" x="6461.5" y="-74.5" font-family="Helvetica,sans-Serif" font-size="10.00">/vformula.cpp</text>
</a>
</g>
</g>
<!-- Node26&#45;&gt;Node46 -->
<g id="edge42" class="edge">
<title>Node26&#45;&gt;Node46</title>
<path fill="none" stroke="midnightblue" d="M5853.81,-138.68C5867.3,-136.98 5881.33,-135.33 5894.5,-134 6117.94,-111.45 6176.41,-131.28 6398.5,-98 6401.61,-97.53 6404.79,-97 6407.99,-96.41"/>
<polygon fill="midnightblue" stroke="midnightblue" points="5853.1,-135.25 5843.63,-139.99 5853.99,-142.19 5853.1,-135.25"/>
</g>
<!-- Node47 -->
<g id="node43" class="node">
<title>Node47</title>
<g id="a_node43"><a xlink:href="../../d6/d46/vcontainer_8cpp.html" target="_top" xlink:title=" ">
<polygon fill="white" stroke="black" points="6533,-67.5 6533,-97.5 6640,-97.5 6640,-67.5 6533,-67.5"/>
<text text-anchor="start" x="6541" y="-85.5" font-family="Helvetica,sans-Serif" font-size="10.00">src/libs/vpatterndb</text>
<text text-anchor="middle" x="6586.5" y="-74.5" font-family="Helvetica,sans-Serif" font-size="10.00">/vcontainer.cpp</text>
</a>
</g>
</g>
<!-- Node26&#45;&gt;Node47 -->
<g id="edge43" class="edge">
<title>Node26&#45;&gt;Node47</title>
<path fill="none" stroke="midnightblue" d="M5852.45,-138.7C5866.35,-136.95 5880.88,-135.28 5894.5,-134 6173.29,-107.85 6246.29,-137.54 6523.5,-98 6526.61,-97.56 6529.8,-97.04 6533,-96.46"/>
<polygon fill="midnightblue" stroke="midnightblue" points="5851.93,-135.24 5842.46,-139.99 5852.82,-142.18 5851.93,-135.24"/>
</g>
<!-- Node48 -->
<g id="node44" class="node">
<title>Node48</title>
<g id="a_node44"><a xlink:href="../../df/d7a/vpiece_8cpp.html" target="_top" xlink:title=" ">
<polygon fill="white" stroke="black" points="6658,-67.5 6658,-97.5 6765,-97.5 6765,-67.5 6658,-67.5"/>
<text text-anchor="start" x="6666" y="-85.5" font-family="Helvetica,sans-Serif" font-size="10.00">src/libs/vpatterndb</text>
<text text-anchor="middle" x="6711.5" y="-74.5" font-family="Helvetica,sans-Serif" font-size="10.00">/vpiece.cpp</text>
</a>
</g>
</g>
<!-- Node26&#45;&gt;Node48 -->
<g id="edge44" class="edge">
<title>Node26&#45;&gt;Node48</title>
<path fill="none" stroke="midnightblue" d="M5851.72,-138.69C5865.84,-136.91 5880.64,-135.23 5894.5,-134 6228.67,-104.25 6316.15,-143.81 6648.5,-98 6651.5,-97.59 6654.57,-97.1 6657.66,-96.56"/>
<polygon fill="midnightblue" stroke="midnightblue" points="5851.06,-135.25 5841.59,-140 5851.95,-142.19 5851.06,-135.25"/>
</g>
<!-- Node49 -->
<g id="node45" class="node">
<title>Node49</title>
<g id="a_node45"><a xlink:href="../../df/dba/vpiecenode__p_8h.html" target="_top" xlink:title=" ">
<polygon fill="white" stroke="red" points="6783,-67.5 6783,-97.5 6890,-97.5 6890,-67.5 6783,-67.5"/>
<text text-anchor="start" x="6791" y="-85.5" font-family="Helvetica,sans-Serif" font-size="10.00">src/libs/vpatterndb</text>
<text text-anchor="middle" x="6836.5" y="-74.5" font-family="Helvetica,sans-Serif" font-size="10.00">/vpiecenode_p.h</text>
</a>
</g>
</g>
<!-- Node26&#45;&gt;Node49 -->
<g id="edge45" class="edge">
<title>Node26&#45;&gt;Node49</title>
<path fill="none" stroke="midnightblue" d="M5851.24,-138.68C5865.5,-136.88 5880.48,-135.2 5894.5,-134 6284.07,-100.64 6385.99,-150.07 6773.5,-98 6776.5,-97.6 6779.57,-97.12 6782.66,-96.58"/>
<polygon fill="midnightblue" stroke="midnightblue" points="5850.48,-135.25 5841.01,-140 5851.37,-142.19 5850.48,-135.25"/>
</g>
<!-- Node51 -->
<g id="node46" class="node">
<title>Node51</title>
<g id="a_node46"><a xlink:href="../../de/d3e/vtranslatevars_8cpp.html" target="_top" xlink:title=" ">
<polygon fill="white" stroke="black" points="6908.5,-67.5 6908.5,-97.5 7018.5,-97.5 7018.5,-67.5 6908.5,-67.5"/>
<text text-anchor="start" x="6916.5" y="-85.5" font-family="Helvetica,sans-Serif" font-size="10.00">src/libs/vpatterndb</text>
<text text-anchor="middle" x="6963.5" y="-74.5" font-family="Helvetica,sans-Serif" font-size="10.00">/vtranslatevars.cpp</text>
</a>
</g>
</g>
<!-- Node26&#45;&gt;Node51 -->
<g id="edge46" class="edge">
<title>Node26&#45;&gt;Node51</title>
<path fill="none" stroke="midnightblue" d="M5851,-138.65C5865.33,-136.85 5880.4,-135.17 5894.5,-134 6339.48,-97.04 6455.62,-154.85 6898.5,-98 6901.71,-97.59 6905,-97.09 6908.3,-96.54"/>
<polygon fill="midnightblue" stroke="midnightblue" points="5850.18,-135.23 5840.71,-139.98 5851.08,-142.17 5850.18,-135.23"/>
</g>
<!-- Node52 -->
<g id="node47" class="node">
<title>Node52</title>
<g id="a_node47"><a xlink:href="../../df/d40/export__format__combobox_8cpp.html" target="_top" xlink:title=" ">
<polygon fill="white" stroke="black" points="7037,-67.5 7037,-97.5 7170,-97.5 7170,-67.5 7037,-67.5"/>
<text text-anchor="start" x="7045" y="-85.5" font-family="Helvetica,sans-Serif" font-size="10.00">src/libs/vwidgets/export</text>
<text text-anchor="middle" x="7103.5" y="-74.5" font-family="Helvetica,sans-Serif" font-size="10.00">_format_combobox.cpp</text>
</a>
</g>
</g>
<!-- Node26&#45;&gt;Node52 -->
<g id="edge47" class="edge">
<title>Node26&#45;&gt;Node52</title>
<path fill="none" stroke="midnightblue" d="M5850.76,-138.64C5865.16,-136.83 5880.32,-135.15 5894.5,-134 6396.66,-93.32 6526.74,-153.38 7027.5,-98 7030.57,-97.66 7033.7,-97.26 7036.86,-96.83"/>
<polygon fill="midnightblue" stroke="midnightblue" points="5849.89,-135.22 5840.43,-139.97 5850.79,-142.16 5849.89,-135.22"/>
</g>
<!-- Node53 -->
<g id="node48" class="node">
<title>Node53</title>
<g id="a_node48"><a xlink:href="../../d3/d4f/mouse__coordinates_8cpp.html" target="_top" xlink:title=" ">
<polygon fill="white" stroke="black" points="7188.5,-67.5 7188.5,-97.5 7322.5,-97.5 7322.5,-67.5 7188.5,-67.5"/>
<text text-anchor="start" x="7196.5" y="-85.5" font-family="Helvetica,sans-Serif" font-size="10.00">src/libs/vwidgets/mouse</text>
<text text-anchor="middle" x="7255.5" y="-74.5" font-family="Helvetica,sans-Serif" font-size="10.00">_coordinates.cpp</text>
</a>
</g>
</g>
<!-- Node26&#45;&gt;Node53 -->
<g id="edge48" class="edge">
<title>Node26&#45;&gt;Node53</title>
<path fill="none" stroke="midnightblue" d="M5850.1,-138.68C5864.7,-136.84 5880.1,-135.14 5894.5,-134 6463.61,-88.97 6610.88,-159.01 7178.5,-98 7181.75,-97.65 7185.06,-97.24 7188.4,-96.78"/>
<polygon fill="midnightblue" stroke="midnightblue" points="5849.6,-135.21 5840.14,-139.97 5850.5,-142.16 5849.6,-135.21"/>
</g>
<!-- Node26&#45;&gt;Node62 -->
<g id="edge49" class="edge">
<title>Node26&#45;&gt;Node62</title>
<path fill="none" stroke="midnightblue" d="M5849.85,-138.68C5864.53,-136.83 5880.02,-135.12 5894.5,-134 6531.45,-84.56 6694.39,-145.34 7331.5,-98 7350.28,-96.6 7370.67,-94.34 7389.09,-92.01"/>
<polygon fill="midnightblue" stroke="midnightblue" points="5849.32,-135.22 5839.85,-139.98 5850.22,-142.16 5849.32,-135.22"/>
</g>
<!-- Node35&#45;&gt;Node36 -->
<g id="edge32" class="edge">
<title>Node35&#45;&gt;Node36</title>
<path fill="none" stroke="midnightblue" d="M4950.78,-58.87C4956.71,-49.46 4963.41,-38.83 4968.62,-30.58"/>
<polygon fill="midnightblue" stroke="midnightblue" points="4947.77,-57.07 4945.4,-67.4 4953.69,-60.81 4947.77,-57.07"/>
</g>
</g>
</svg>
