<?xml version="1.0" encoding="UTF-8" standalone="no"?>
<!DOCTYPE svg PUBLIC "-//W3C//DTD SVG 1.1//EN"
 "http://www.w3.org/Graphics/SVG/1.1/DTD/svg11.dtd">
<!-- Generated by graphviz version 2.43.0 (0)
 -->
<!-- Title: src/libs/vmisc/vsettings.h Pages: 1 -->
<svg width="7564pt" height="229pt"
 viewBox="0.00 0.00 7563.50 229.00" xmlns="http://www.w3.org/2000/svg" xmlns:xlink="http://www.w3.org/1999/xlink">
<g id="graph0" class="graph" transform="scale(1 1) rotate(0) translate(4 225)">
<title>src/libs/vmisc/vsettings.h</title>
<polygon fill="white" stroke="transparent" points="-4,4 -4,-225 7559.5,-225 7559.5,4 -4,4"/>
<!-- Node1 -->
<g id="node1" class="node">
<title>Node1</title>
<g id="a_node1"><a xlink:title=" ">
<polygon fill="#bfbfbf" stroke="black" points="5774.5,-201.5 5774.5,-220.5 5914.5,-220.5 5914.5,-201.5 5774.5,-201.5"/>
<text text-anchor="middle" x="5844.5" y="-208.5" font-family="Helvetica,sans-Serif" font-size="10.00">src/libs/vmisc/vsettings.h</text>
</a>
</g>
</g>
<!-- Node2 -->
<g id="node2" class="node">
<title>Node2</title>
<g id="a_node2"><a xlink:href="../../d9/d02/vapplication_8h.html" target="_top" xlink:title=" ">
<polygon fill="white" stroke="black" points="2218,-134.5 2218,-164.5 2345,-164.5 2345,-134.5 2218,-134.5"/>
<text text-anchor="start" x="2226" y="-152.5" font-family="Helvetica,sans-Serif" font-size="10.00">src/app/seamly2d/core</text>
<text text-anchor="middle" x="2281.5" y="-141.5" font-family="Helvetica,sans-Serif" font-size="10.00">/vapplication.h</text>
</a>
</g>
</g>
<!-- Node1&#45;&gt;Node2 -->
<g id="edge1" class="edge">
<title>Node1&#45;&gt;Node2</title>
<path fill="none" stroke="midnightblue" d="M5764.12,-208.66C5281.72,-200.6 2777.12,-158.78 2345.02,-151.56"/>
<polygon fill="midnightblue" stroke="midnightblue" points="5764.07,-212.16 5774.13,-208.82 5764.19,-205.16 5764.07,-212.16"/>
</g>
<!-- Node26 -->
<g id="node26" class="node">
<title>Node26</title>
<g id="a_node26"><a xlink:href="../../d5/d74/vabstractapplication_8h.html" target="_top" xlink:title=" ">
<polygon fill="white" stroke="red" points="5685,-140 5685,-159 5880,-159 5880,-140 5685,-140"/>
<text text-anchor="middle" x="5782.5" y="-147" font-family="Helvetica,sans-Serif" font-size="10.00">src/libs/vmisc/vabstractapplication.h</text>
</a>
</g>
</g>
<!-- Node1&#45;&gt;Node26 -->
<g id="edge25" class="edge">
<title>Node1&#45;&gt;Node26</title>
<path fill="none" stroke="midnightblue" d="M5828.17,-194.32C5816.39,-183.02 5800.94,-168.19 5791.37,-159.01"/>
<polygon fill="midnightblue" stroke="midnightblue" points="5825.98,-197.08 5835.62,-201.48 5830.83,-192.03 5825.98,-197.08"/>
</g>
<!-- Node62 -->
<g id="node49" class="node">
<title>Node62</title>
<g id="a_node49"><a xlink:href="../../d2/d31/vmaingraphicsview_8cpp.html" target="_top" xlink:title=" ">
<polygon fill="white" stroke="black" points="7339.5,-73 7339.5,-92 7555.5,-92 7555.5,-73 7339.5,-73"/>
<text text-anchor="middle" x="7447.5" y="-80" font-family="Helvetica,sans-Serif" font-size="10.00">src/libs/vwidgets/vmaingraphicsview.cpp</text>
</a>
</g>
</g>
<!-- Node1&#45;&gt;Node62 -->
<g id="edge51" class="edge">
<title>Node1&#45;&gt;Node62</title>
<path fill="none" stroke="midnightblue" d="M5860.1,-194.4C5881.56,-173.13 5918.45,-137.27 5926.5,-134 6071.04,-75.17 7174.88,-109.61 7330.5,-98 7349.28,-96.6 7369.67,-94.33 7388.09,-92"/>
<polygon fill="midnightblue" stroke="midnightblue" points="5857.6,-191.96 5852.98,-201.49 5862.54,-196.92 5857.6,-191.96"/>
</g>
<!-- Node66 -->
<g id="node50" class="node">
<title>Node66</title>
<g id="a_node50"><a xlink:href="../../db/d28/vsettings_8cpp.html" target="_top" xlink:title=" ">
<polygon fill="white" stroke="black" points="5935.5,-140 5935.5,-159 6087.5,-159 6087.5,-140 5935.5,-140"/>
<text text-anchor="middle" x="6011.5" y="-147" font-family="Helvetica,sans-Serif" font-size="10.00">src/libs/vmisc/vsettings.cpp</text>
</a>
</g>
</g>
<!-- Node1&#45;&gt;Node66 -->
<g id="edge50" class="edge">
<title>Node1&#45;&gt;Node66</title>
<path fill="none" stroke="midnightblue" d="M5877.95,-198.08C5910.41,-186.52 5958.87,-169.25 5987.62,-159.01"/>
<polygon fill="midnightblue" stroke="midnightblue" points="5876.67,-194.82 5868.43,-201.48 5879.02,-201.42 5876.67,-194.82"/>
</g>
<!-- Node3 -->
<g id="node3" class="node">
<title>Node3</title>
<g id="a_node3"><a xlink:href="../../d3/dd8/vapplication_8cpp.html" target="_top" xlink:title=" ">
<polygon fill="white" stroke="black" points="0,-67.5 0,-97.5 127,-97.5 127,-67.5 0,-67.5"/>
<text text-anchor="start" x="8" y="-85.5" font-family="Helvetica,sans-Serif" font-size="10.00">src/app/seamly2d/core</text>
<text text-anchor="middle" x="63.5" y="-74.5" font-family="Helvetica,sans-Serif" font-size="10.00">/vapplication.cpp</text>
</a>
</g>
</g>
<!-- Node2&#45;&gt;Node3 -->
<g id="edge2" class="edge">
<title>Node2&#45;&gt;Node3</title>
<path fill="none" stroke="midnightblue" d="M2207.4,-148.5C1878.62,-148.23 549.76,-144.23 135.5,-98 132.71,-97.69 129.87,-97.32 127.01,-96.92"/>
<polygon fill="midnightblue" stroke="midnightblue" points="2207.75,-152 2217.75,-148.51 2207.76,-145 2207.75,-152"/>
</g>
<!-- Node4 -->
<g id="node4" class="node">
<title>Node4</title>
<g id="a_node4"><a xlink:href="../../d7/dfa/calculator__dialog_8cpp.html" target="_top" xlink:title=" ">
<polygon fill="white" stroke="black" points="145,-67.5 145,-97.5 286,-97.5 286,-67.5 145,-67.5"/>
<text text-anchor="start" x="153" y="-85.5" font-family="Helvetica,sans-Serif" font-size="10.00">src/app/seamly2d/dialogs</text>
<text text-anchor="middle" x="215.5" y="-74.5" font-family="Helvetica,sans-Serif" font-size="10.00">/calculator_dialog.cpp</text>
</a>
</g>
</g>
<!-- Node2&#45;&gt;Node4 -->
<g id="edge3" class="edge">
<title>Node2&#45;&gt;Node4</title>
<path fill="none" stroke="midnightblue" d="M2207.31,-148.17C1893.78,-146.51 676.09,-137.62 294.5,-98 291.73,-97.71 288.9,-97.38 286.06,-97.01"/>
<polygon fill="midnightblue" stroke="midnightblue" points="2207.62,-151.67 2217.64,-148.22 2207.66,-144.67 2207.62,-151.67"/>
</g>
<!-- Node5 -->
<g id="node5" class="node">
<title>Node5</title>
<g id="a_node5"><a xlink:href="../../d2/d2d/preferencesconfigurationpage_8cpp.html" target="_top" xlink:title=" ">
<polygon fill="white" stroke="black" points="304,-67.5 304,-97.5 551,-97.5 551,-67.5 304,-67.5"/>
<text text-anchor="start" x="312" y="-85.5" font-family="Helvetica,sans-Serif" font-size="10.00">src/app/seamly2d/dialogs</text>
<text text-anchor="middle" x="427.5" y="-74.5" font-family="Helvetica,sans-Serif" font-size="10.00">/configpages/preferencesconfigurationpage.cpp</text>
</a>
</g>
</g>
<!-- Node2&#45;&gt;Node5 -->
<g id="edge4" class="edge">
<title>Node2&#45;&gt;Node5</title>
<path fill="none" stroke="midnightblue" d="M2207.39,-148.45C1968.36,-147.82 1196.37,-142.25 559.5,-98 556.74,-97.81 553.95,-97.6 551.14,-97.38"/>
<polygon fill="midnightblue" stroke="midnightblue" points="2207.68,-151.95 2217.69,-148.47 2207.7,-144.95 2207.68,-151.95"/>
</g>
<!-- Node6 -->
<g id="node6" class="node">
<title>Node6</title>
<g id="a_node6"><a xlink:href="../../dc/d20/preferencespathpage_8cpp.html" target="_top" xlink:title=" ">
<polygon fill="white" stroke="black" points="569,-67.5 569,-97.5 774,-97.5 774,-67.5 569,-67.5"/>
<text text-anchor="start" x="577" y="-85.5" font-family="Helvetica,sans-Serif" font-size="10.00">src/app/seamly2d/dialogs</text>
<text text-anchor="middle" x="671.5" y="-74.5" font-family="Helvetica,sans-Serif" font-size="10.00">/configpages/preferencespathpage.cpp</text>
</a>
</g>
</g>
<!-- Node2&#45;&gt;Node6 -->
<g id="edge5" class="edge">
<title>Node2&#45;&gt;Node6</title>
<path fill="none" stroke="midnightblue" d="M2207.77,-148.52C1989.63,-148.06 1328.56,-142.76 782.5,-98 779.79,-97.78 777.04,-97.54 774.27,-97.28"/>
<polygon fill="midnightblue" stroke="midnightblue" points="2207.81,-152.02 2217.82,-148.54 2207.82,-145.02 2207.81,-152.02"/>
</g>
<!-- Node7 -->
<g id="node7" class="node">
<title>Node7</title>
<g id="a_node7"><a xlink:href="../../d9/d70/preferencesgraphicsviewpage_8cpp.html" target="_top" xlink:title=" ">
<polygon fill="white" stroke="black" points="791.5,-67.5 791.5,-97.5 1039.5,-97.5 1039.5,-67.5 791.5,-67.5"/>
<text text-anchor="start" x="799.5" y="-85.5" font-family="Helvetica,sans-Serif" font-size="10.00">src/app/seamly2d/dialogs</text>
<text text-anchor="middle" x="915.5" y="-74.5" font-family="Helvetica,sans-Serif" font-size="10.00">/configpages/preferencesgraphicsviewpage.cpp</text>
</a>
</g>
</g>
<!-- Node2&#45;&gt;Node7 -->
<g id="edge6" class="edge">
<title>Node2&#45;&gt;Node7</title>
<path fill="none" stroke="midnightblue" d="M2207.66,-147.22C2016.08,-143.51 1487.47,-130.88 1048.5,-98 1045.6,-97.78 1042.68,-97.55 1039.72,-97.31"/>
<polygon fill="midnightblue" stroke="midnightblue" points="2207.82,-150.72 2217.89,-147.41 2207.95,-143.72 2207.82,-150.72"/>
</g>
<!-- Node8 -->
<g id="node8" class="node">
<title>Node8</title>
<g id="a_node8"><a xlink:href="../../d2/d00/vtooloptionspropertybrowser_8cpp.html" target="_top" xlink:title=" ">
<polygon fill="white" stroke="black" points="1057.5,-67.5 1057.5,-97.5 1237.5,-97.5 1237.5,-67.5 1057.5,-67.5"/>
<text text-anchor="start" x="1065.5" y="-85.5" font-family="Helvetica,sans-Serif" font-size="10.00">src/app/seamly2d/core</text>
<text text-anchor="middle" x="1147.5" y="-74.5" font-family="Helvetica,sans-Serif" font-size="10.00">/vtooloptionspropertybrowser.cpp</text>
</a>
</g>
</g>
<!-- Node2&#45;&gt;Node8 -->
<g id="edge7" class="edge">
<title>Node2&#45;&gt;Node8</title>
<path fill="none" stroke="midnightblue" d="M2207.66,-147.35C2037.69,-144.16 1605.77,-132.99 1246.5,-98 1243.56,-97.71 1240.58,-97.4 1237.56,-97.07"/>
<polygon fill="midnightblue" stroke="midnightblue" points="2207.68,-150.85 2217.75,-147.53 2207.81,-143.85 2207.68,-150.85"/>
</g>
<!-- Node9 -->
<g id="node9" class="node">
<title>Node9</title>
<g id="a_node9"><a xlink:href="../../dd/dc2/decimalchart__dialog_8cpp.html" target="_top" xlink:title=" ">
<polygon fill="white" stroke="black" points="1256,-67.5 1256,-97.5 1397,-97.5 1397,-67.5 1256,-67.5"/>
<text text-anchor="start" x="1264" y="-85.5" font-family="Helvetica,sans-Serif" font-size="10.00">src/app/seamly2d/dialogs</text>
<text text-anchor="middle" x="1326.5" y="-74.5" font-family="Helvetica,sans-Serif" font-size="10.00">/decimalchart_dialog.cpp</text>
</a>
</g>
</g>
<!-- Node2&#45;&gt;Node9 -->
<g id="edge8" class="edge">
<title>Node2&#45;&gt;Node9</title>
<path fill="none" stroke="midnightblue" d="M2207.69,-147.33C2056.61,-144.25 1701.39,-133.54 1405.5,-98 1402.73,-97.67 1399.91,-97.3 1397.07,-96.9"/>
<polygon fill="midnightblue" stroke="midnightblue" points="2207.71,-150.83 2217.78,-147.53 2207.85,-143.83 2207.71,-150.83"/>
</g>
<!-- Node10 -->
<g id="node10" class="node">
<title>Node10</title>
<g id="a_node10"><a xlink:href="../../dd/d64/dialogaboutapp_8cpp.html" target="_top" xlink:title=" ">
<polygon fill="white" stroke="black" points="1415,-67.5 1415,-97.5 1556,-97.5 1556,-67.5 1415,-67.5"/>
<text text-anchor="start" x="1423" y="-85.5" font-family="Helvetica,sans-Serif" font-size="10.00">src/app/seamly2d/dialogs</text>
<text text-anchor="middle" x="1485.5" y="-74.5" font-family="Helvetica,sans-Serif" font-size="10.00">/dialogaboutapp.cpp</text>
</a>
</g>
</g>
<!-- Node2&#45;&gt;Node10 -->
<g id="edge9" class="edge">
<title>Node2&#45;&gt;Node10</title>
<path fill="none" stroke="midnightblue" d="M2207.32,-145.93C2077.02,-140.83 1798.74,-127.27 1565.5,-98 1562.42,-97.61 1559.28,-97.19 1556.11,-96.73"/>
<polygon fill="midnightblue" stroke="midnightblue" points="2207.45,-149.44 2217.58,-146.33 2207.72,-142.44 2207.45,-149.44"/>
</g>
<!-- Node11 -->
<g id="node11" class="node">
<title>Node11</title>
<g id="a_node11"><a xlink:href="../../dc/d63/preferencespatternpage_8cpp.html" target="_top" xlink:title=" ">
<polygon fill="white" stroke="black" points="1574.5,-67.5 1574.5,-97.5 1792.5,-97.5 1792.5,-67.5 1574.5,-67.5"/>
<text text-anchor="start" x="1582.5" y="-85.5" font-family="Helvetica,sans-Serif" font-size="10.00">src/app/seamly2d/dialogs</text>
<text text-anchor="middle" x="1683.5" y="-74.5" font-family="Helvetica,sans-Serif" font-size="10.00">/configpages/preferencespatternpage.cpp</text>
</a>
</g>
</g>
<!-- Node2&#45;&gt;Node11 -->
<g id="edge10" class="edge">
<title>Node2&#45;&gt;Node11</title>
<path fill="none" stroke="midnightblue" d="M2207.79,-141.15C2113.53,-131.65 1945.28,-114.4 1801.5,-98 1798.63,-97.67 1795.72,-97.34 1792.78,-97"/>
<polygon fill="midnightblue" stroke="midnightblue" points="2207.49,-144.64 2217.79,-142.15 2208.19,-137.67 2207.49,-144.64"/>
</g>
<!-- Node12 -->
<g id="node12" class="node">
<title>Node12</title>
<g id="a_node12"><a xlink:href="../../db/def/dialoglayoutsettings_8cpp.html" target="_top" xlink:title=" ">
<polygon fill="white" stroke="black" points="1811,-67.5 1811,-97.5 1952,-97.5 1952,-67.5 1811,-67.5"/>
<text text-anchor="start" x="1819" y="-85.5" font-family="Helvetica,sans-Serif" font-size="10.00">src/app/seamly2d/dialogs</text>
<text text-anchor="middle" x="1881.5" y="-74.5" font-family="Helvetica,sans-Serif" font-size="10.00">/dialoglayoutsettings.cpp</text>
</a>
</g>
</g>
<!-- Node2&#45;&gt;Node12 -->
<g id="edge11" class="edge">
<title>Node2&#45;&gt;Node12</title>
<path fill="none" stroke="midnightblue" d="M2207.61,-137.42C2142.49,-127.53 2045.09,-112.42 1960.5,-98 1957.75,-97.53 1954.95,-97.05 1952.12,-96.55"/>
<polygon fill="midnightblue" stroke="midnightblue" points="2207.36,-140.93 2217.78,-138.96 2208.41,-134 2207.36,-140.93"/>
</g>
<!-- Node13 -->
<g id="node13" class="node">
<title>Node13</title>
<g id="a_node13"><a xlink:href="../../d6/d89/dialoglayoutprogress_8cpp.html" target="_top" xlink:title=" ">
<polygon fill="white" stroke="black" points="1970,-67.5 1970,-97.5 2113,-97.5 2113,-67.5 1970,-67.5"/>
<text text-anchor="start" x="1978" y="-85.5" font-family="Helvetica,sans-Serif" font-size="10.00">src/app/seamly2d/dialogs</text>
<text text-anchor="middle" x="2041.5" y="-74.5" font-family="Helvetica,sans-Serif" font-size="10.00">/dialoglayoutprogress.cpp</text>
</a>
</g>
</g>
<!-- Node2&#45;&gt;Node13 -->
<g id="edge12" class="edge">
<title>Node2&#45;&gt;Node13</title>
<path fill="none" stroke="midnightblue" d="M2220.02,-131.85C2180.89,-121.25 2130.77,-107.68 2093.6,-97.61"/>
<polygon fill="midnightblue" stroke="midnightblue" points="2219.15,-135.24 2229.72,-134.48 2220.98,-128.48 2219.15,-135.24"/>
</g>
<!-- Node14 -->
<g id="node14" class="node">
<title>Node14</title>
<g id="a_node14"><a xlink:href="../../de/d87/dialognewpattern_8cpp.html" target="_top" xlink:title=" ">
<polygon fill="white" stroke="black" points="2131,-67.5 2131,-97.5 2272,-97.5 2272,-67.5 2131,-67.5"/>
<text text-anchor="start" x="2139" y="-85.5" font-family="Helvetica,sans-Serif" font-size="10.00">src/app/seamly2d/dialogs</text>
<text text-anchor="middle" x="2201.5" y="-74.5" font-family="Helvetica,sans-Serif" font-size="10.00">/dialognewpattern.cpp</text>
</a>
</g>
</g>
<!-- Node2&#45;&gt;Node14 -->
<g id="edge13" class="edge">
<title>Node2&#45;&gt;Node14</title>
<path fill="none" stroke="midnightblue" d="M2256.13,-127.88C2243.97,-118.01 2229.72,-106.43 2218.82,-97.58"/>
<polygon fill="midnightblue" stroke="midnightblue" points="2254.17,-130.81 2264.14,-134.4 2258.59,-125.37 2254.17,-130.81"/>
</g>
<!-- Node15 -->
<g id="node15" class="node">
<title>Node15</title>
<g id="a_node15"><a xlink:href="../../d5/dc5/dialogpreferences_8cpp.html" target="_top" xlink:title=" ">
<polygon fill="white" stroke="black" points="2290,-67.5 2290,-97.5 2431,-97.5 2431,-67.5 2290,-67.5"/>
<text text-anchor="start" x="2298" y="-85.5" font-family="Helvetica,sans-Serif" font-size="10.00">src/app/seamly2d/dialogs</text>
<text text-anchor="middle" x="2360.5" y="-74.5" font-family="Helvetica,sans-Serif" font-size="10.00">/dialogpreferences.cpp</text>
</a>
</g>
</g>
<!-- Node2&#45;&gt;Node15 -->
<g id="edge14" class="edge">
<title>Node2&#45;&gt;Node15</title>
<path fill="none" stroke="midnightblue" d="M2306.56,-127.88C2318.56,-118.01 2332.63,-106.43 2343.39,-97.58"/>
<polygon fill="midnightblue" stroke="midnightblue" points="2304.14,-125.34 2298.64,-134.4 2308.59,-130.75 2304.14,-125.34"/>
</g>
<!-- Node16 -->
<g id="node16" class="node">
<title>Node16</title>
<g id="a_node16"><a xlink:href="../../d5/d18/dialogpatternproperties_8cpp.html" target="_top" xlink:title=" ">
<polygon fill="white" stroke="black" points="2449,-67.5 2449,-97.5 2604,-97.5 2604,-67.5 2449,-67.5"/>
<text text-anchor="start" x="2457" y="-85.5" font-family="Helvetica,sans-Serif" font-size="10.00">src/app/seamly2d/dialogs</text>
<text text-anchor="middle" x="2526.5" y="-74.5" font-family="Helvetica,sans-Serif" font-size="10.00">/dialogpatternproperties.cpp</text>
</a>
</g>
</g>
<!-- Node2&#45;&gt;Node16 -->
<g id="edge15" class="edge">
<title>Node2&#45;&gt;Node16</title>
<path fill="none" stroke="midnightblue" d="M2344.26,-131.85C2384.2,-121.25 2435.37,-107.68 2473.31,-97.61"/>
<polygon fill="midnightblue" stroke="midnightblue" points="2343.13,-128.53 2334.36,-134.48 2344.92,-135.29 2343.13,-128.53"/>
</g>
<!-- Node17 -->
<g id="node17" class="node">
<title>Node17</title>
<g id="a_node17"><a xlink:href="../../dd/d54/export__layout__dialog_8cpp.html" target="_top" xlink:title=" ">
<polygon fill="white" stroke="black" points="2622,-67.5 2622,-97.5 2765,-97.5 2765,-67.5 2622,-67.5"/>
<text text-anchor="start" x="2630" y="-85.5" font-family="Helvetica,sans-Serif" font-size="10.00">src/app/seamly2d/dialogs</text>
<text text-anchor="middle" x="2693.5" y="-74.5" font-family="Helvetica,sans-Serif" font-size="10.00">/export_layout_dialog.cpp</text>
</a>
</g>
</g>
<!-- Node2&#45;&gt;Node17 -->
<g id="edge16" class="edge">
<title>Node2&#45;&gt;Node17</title>
<path fill="none" stroke="midnightblue" d="M2355.09,-137.83C2422.22,-127.96 2524.13,-112.65 2612.5,-98 2615.6,-97.49 2618.77,-96.95 2621.96,-96.41"/>
<polygon fill="midnightblue" stroke="midnightblue" points="2354.42,-134.39 2345.03,-139.3 2355.43,-141.31 2354.42,-134.39"/>
</g>
<!-- Node18 -->
<g id="node18" class="node">
<title>Node18</title>
<g id="a_node18"><a xlink:href="../../dd/d84/shortcuts__dialog_8cpp.html" target="_top" xlink:title=" ">
<polygon fill="white" stroke="black" points="2783,-67.5 2783,-97.5 2924,-97.5 2924,-67.5 2783,-67.5"/>
<text text-anchor="start" x="2791" y="-85.5" font-family="Helvetica,sans-Serif" font-size="10.00">src/app/seamly2d/dialogs</text>
<text text-anchor="middle" x="2853.5" y="-74.5" font-family="Helvetica,sans-Serif" font-size="10.00">/shortcuts_dialog.cpp</text>
</a>
</g>
</g>
<!-- Node2&#45;&gt;Node18 -->
<g id="edge17" class="edge">
<title>Node2&#45;&gt;Node18</title>
<path fill="none" stroke="midnightblue" d="M2355.61,-142.68C2452.1,-134.7 2625.85,-118.93 2773.5,-98 2776.57,-97.56 2779.71,-97.1 2782.88,-96.6"/>
<polygon fill="midnightblue" stroke="midnightblue" points="2355.06,-139.22 2345.38,-143.52 2355.63,-146.19 2355.06,-139.22"/>
</g>
<!-- Node19 -->
<g id="node19" class="node">
<title>Node19</title>
<g id="a_node19"><a xlink:href="../../db/d5c/groups__widget_8cpp.html" target="_top" xlink:title=" ">
<polygon fill="white" stroke="black" points="2942,-67.5 2942,-97.5 3083,-97.5 3083,-67.5 2942,-67.5"/>
<text text-anchor="start" x="2950" y="-85.5" font-family="Helvetica,sans-Serif" font-size="10.00">src/app/seamly2d/dialogs</text>
<text text-anchor="middle" x="3012.5" y="-74.5" font-family="Helvetica,sans-Serif" font-size="10.00">/groups_widget.cpp</text>
</a>
</g>
</g>
<!-- Node2&#45;&gt;Node19 -->
<g id="edge18" class="edge">
<title>Node2&#45;&gt;Node19</title>
<path fill="none" stroke="midnightblue" d="M2355.27,-145.23C2476.23,-139.32 2724.12,-124.9 2932.5,-98 2935.58,-97.6 2938.72,-97.17 2941.89,-96.7"/>
<polygon fill="midnightblue" stroke="midnightblue" points="2354.84,-141.75 2345.02,-145.72 2355.18,-148.74 2354.84,-141.75"/>
</g>
<!-- Node20 -->
<g id="node20" class="node">
<title>Node20</title>
<g id="a_node20"><a xlink:href="../../d5/de4/vabstractlayoutdialog_8cpp.html" target="_top" xlink:title=" ">
<polygon fill="white" stroke="black" points="3101.5,-67.5 3101.5,-97.5 3247.5,-97.5 3247.5,-67.5 3101.5,-67.5"/>
<text text-anchor="start" x="3109.5" y="-85.5" font-family="Helvetica,sans-Serif" font-size="10.00">src/app/seamly2d/dialogs</text>
<text text-anchor="middle" x="3174.5" y="-74.5" font-family="Helvetica,sans-Serif" font-size="10.00">/vabstractlayoutdialog.cpp</text>
</a>
</g>
</g>
<!-- Node2&#45;&gt;Node20 -->
<g id="edge19" class="edge">
<title>Node2&#45;&gt;Node20</title>
<path fill="none" stroke="midnightblue" d="M2355.63,-146.62C2498.46,-142.4 2821.55,-129.9 3091.5,-98 3094.7,-97.62 3097.96,-97.2 3101.24,-96.75"/>
<polygon fill="midnightblue" stroke="midnightblue" points="2355.14,-143.13 2345.25,-146.92 2355.35,-150.13 2355.14,-143.13"/>
</g>
<!-- Node21 -->
<g id="node21" class="node">
<title>Node21</title>
<g id="a_node21"><a xlink:href="../../dc/d14/app_2seamly2d_2main_8cpp.html" target="_top" xlink:title=" ">
<polygon fill="white" stroke="black" points="3266,-73 3266,-92 3417,-92 3417,-73 3266,-73"/>
<text text-anchor="middle" x="3341.5" y="-80" font-family="Helvetica,sans-Serif" font-size="10.00">src/app/seamly2d/main.cpp</text>
</a>
</g>
</g>
<!-- Node2&#45;&gt;Node21 -->
<g id="edge20" class="edge">
<title>Node2&#45;&gt;Node21</title>
<path fill="none" stroke="midnightblue" d="M2355.41,-147.62C2518.53,-145.05 2921.45,-135.13 3256.5,-98 3269.89,-96.52 3284.37,-94.28 3297.52,-92.01"/>
<polygon fill="midnightblue" stroke="midnightblue" points="2354.96,-144.13 2345.02,-147.78 2355.07,-151.13 2354.96,-144.13"/>
</g>
<!-- Node22 -->
<g id="node22" class="node">
<title>Node22</title>
<g id="a_node22"><a xlink:href="../../d8/de8/mainwindowsnogui_8cpp.html" target="_top" xlink:title=" ">
<polygon fill="white" stroke="black" points="3435,-73 3435,-92 3656,-92 3656,-73 3435,-73"/>
<text text-anchor="middle" x="3545.5" y="-80" font-family="Helvetica,sans-Serif" font-size="10.00">src/app/seamly2d/mainwindowsnogui.cpp</text>
</a>
</g>
</g>
<!-- Node2&#45;&gt;Node22 -->
<g id="edge21" class="edge">
<title>Node2&#45;&gt;Node22</title>
<path fill="none" stroke="midnightblue" d="M2355.43,-147.19C2537.58,-143.52 3022.44,-131.2 3425.5,-98 3444.11,-96.47 3464.29,-94.25 3482.69,-92"/>
<polygon fill="midnightblue" stroke="midnightblue" points="2355.1,-143.69 2345.17,-147.39 2355.24,-150.69 2355.1,-143.69"/>
</g>
<!-- Node23 -->
<g id="node23" class="node">
<title>Node23</title>
<g id="a_node23"><a xlink:href="../../d2/df4/show__info__dialog_8cpp.html" target="_top" xlink:title=" ">
<polygon fill="white" stroke="black" points="3674,-67.5 3674,-97.5 3815,-97.5 3815,-67.5 3674,-67.5"/>
<text text-anchor="start" x="3682" y="-85.5" font-family="Helvetica,sans-Serif" font-size="10.00">src/app/seamly2d/dialogs</text>
<text text-anchor="middle" x="3744.5" y="-74.5" font-family="Helvetica,sans-Serif" font-size="10.00">/show_info_dialog.cpp</text>
</a>
</g>
</g>
<!-- Node2&#45;&gt;Node23 -->
<g id="edge22" class="edge">
<title>Node2&#45;&gt;Node23</title>
<path fill="none" stroke="midnightblue" d="M2355.39,-147.2C2603.74,-142.59 3407.23,-125.87 3664.5,-98 3667.59,-97.67 3670.73,-97.28 3673.91,-96.86"/>
<polygon fill="midnightblue" stroke="midnightblue" points="2354.97,-143.7 2345.03,-147.39 2355.1,-150.7 2354.97,-143.7"/>
</g>
<!-- Node24 -->
<g id="node24" class="node">
<title>Node24</title>
<g id="a_node24"><a xlink:href="../../d8/dd9/mainwindow_8cpp.html" target="_top" xlink:title=" ">
<polygon fill="white" stroke="black" points="3833.5,-73 3833.5,-92 4021.5,-92 4021.5,-73 3833.5,-73"/>
<text text-anchor="middle" x="3927.5" y="-80" font-family="Helvetica,sans-Serif" font-size="10.00">src/app/seamly2d/mainwindow.cpp</text>
</a>
</g>
</g>
<!-- Node2&#45;&gt;Node24 -->
<g id="edge23" class="edge">
<title>Node2&#45;&gt;Node24</title>
<path fill="none" stroke="midnightblue" d="M2355.41,-148.85C2577.84,-149.3 3260.34,-146.34 3823.5,-98 3840.03,-96.58 3857.95,-94.34 3874.18,-92.04"/>
<polygon fill="midnightblue" stroke="midnightblue" points="2355.18,-145.35 2345.17,-148.82 2355.16,-152.35 2355.18,-145.35"/>
</g>
<!-- Node25 -->
<g id="node25" class="node">
<title>Node25</title>
<g id="a_node25"><a xlink:href="../../d3/d49/vpattern_8cpp.html" target="_top" xlink:title=" ">
<polygon fill="white" stroke="black" points="4040,-67.5 4040,-97.5 4165,-97.5 4165,-67.5 4040,-67.5"/>
<text text-anchor="start" x="4048" y="-85.5" font-family="Helvetica,sans-Serif" font-size="10.00">src/app/seamly2d/xml</text>
<text text-anchor="middle" x="4102.5" y="-74.5" font-family="Helvetica,sans-Serif" font-size="10.00">/vpattern.cpp</text>
</a>
</g>
</g>
<!-- Node2&#45;&gt;Node25 -->
<g id="edge24" class="edge">
<title>Node2&#45;&gt;Node25</title>
<path fill="none" stroke="midnightblue" d="M2355.72,-148.04C2645.15,-145.97 3698.47,-135.95 4030.5,-98 4033.54,-97.65 4036.64,-97.24 4039.77,-96.79"/>
<polygon fill="midnightblue" stroke="midnightblue" points="2355.31,-144.54 2345.34,-148.11 2355.36,-151.54 2355.31,-144.54"/>
</g>
<!-- Node27 -->
<g id="node27" class="node">
<title>Node27</title>
<g id="a_node27"><a xlink:href="../../d4/d90/fvupdater_8cpp.html" target="_top" xlink:title=" ">
<polygon fill="white" stroke="black" points="4183,-73 4183,-92 4336,-92 4336,-73 4183,-73"/>
<text text-anchor="middle" x="4259.5" y="-80" font-family="Helvetica,sans-Serif" font-size="10.00">src/libs/fervor/fvupdater.cpp</text>
</a>
</g>
</g>
<!-- Node26&#45;&gt;Node27 -->
<g id="edge26" class="edge">
<title>Node26&#45;&gt;Node27</title>
<path fill="none" stroke="midnightblue" d="M5674.88,-146.59C5386.77,-141.18 4602.3,-124.4 4344.5,-98 4330.8,-96.6 4315.97,-94.33 4302.59,-92"/>
<polygon fill="midnightblue" stroke="midnightblue" points="5674.86,-150.09 5684.92,-146.78 5674.99,-143.09 5674.86,-150.09"/>
</g>
<!-- Node28 -->
<g id="node28" class="node">
<title>Node28</title>
<g id="a_node28"><a xlink:href="../../d9/dc8/dxiface_8cpp.html" target="_top" xlink:title=" ">
<polygon fill="white" stroke="black" points="4354,-73 4354,-92 4489,-92 4489,-73 4354,-73"/>
<text text-anchor="middle" x="4421.5" y="-80" font-family="Helvetica,sans-Serif" font-size="10.00">src/libs/vdxf/dxiface.cpp</text>
</a>
</g>
</g>
<!-- Node26&#45;&gt;Node28 -->
<g id="edge27" class="edge">
<title>Node26&#45;&gt;Node28</title>
<path fill="none" stroke="midnightblue" d="M5674.93,-146.34C5408.72,-140.66 4724.3,-123.95 4497.5,-98 4485.36,-96.61 4472.24,-94.38 4460.38,-92.07"/>
<polygon fill="midnightblue" stroke="midnightblue" points="5674.92,-149.84 5684.99,-146.55 5675.07,-142.84 5674.92,-149.84"/>
</g>
<!-- Node29 -->
<g id="node29" class="node">
<title>Node29</title>
<g id="a_node29"><a xlink:href="../../da/d75/vabstractarc__p_8h.html" target="_top" xlink:title=" ">
<polygon fill="white" stroke="red" points="4507,-67.5 4507,-97.5 4614,-97.5 4614,-67.5 4507,-67.5"/>
<text text-anchor="start" x="4515" y="-85.5" font-family="Helvetica,sans-Serif" font-size="10.00">src/libs/vgeometry</text>
<text text-anchor="middle" x="4560.5" y="-74.5" font-family="Helvetica,sans-Serif" font-size="10.00">/vabstractarc_p.h</text>
</a>
</g>
</g>
<!-- Node26&#45;&gt;Node29 -->
<g id="edge28" class="edge">
<title>Node26&#45;&gt;Node29</title>
<path fill="none" stroke="midnightblue" d="M5674.82,-146.38C5427.32,-141.08 4823.78,-125.67 4622.5,-98 4619.76,-97.62 4616.97,-97.18 4614.15,-96.69"/>
<polygon fill="midnightblue" stroke="midnightblue" points="5674.83,-149.88 5684.9,-146.59 5674.98,-142.88 5674.83,-149.88"/>
</g>
<!-- Node31 -->
<g id="node30" class="node">
<title>Node31</title>
<g id="a_node30"><a xlink:href="../../d5/d8e/vcubicbezier__p_8h.html" target="_top" xlink:title=" ">
<polygon fill="white" stroke="red" points="4632,-67.5 4632,-97.5 4739,-97.5 4739,-67.5 4632,-67.5"/>
<text text-anchor="start" x="4640" y="-85.5" font-family="Helvetica,sans-Serif" font-size="10.00">src/libs/vgeometry</text>
<text text-anchor="middle" x="4685.5" y="-74.5" font-family="Helvetica,sans-Serif" font-size="10.00">/vcubicbezier_p.h</text>
</a>
</g>
</g>
<!-- Node26&#45;&gt;Node31 -->
<g id="edge29" class="edge">
<title>Node26&#45;&gt;Node31</title>
<path fill="none" stroke="midnightblue" d="M5674.63,-145.71C5446.99,-139.42 4923.95,-122.73 4747.5,-98 4744.76,-97.62 4741.97,-97.17 4739.16,-96.68"/>
<polygon fill="midnightblue" stroke="midnightblue" points="5674.82,-149.22 5684.92,-145.99 5675.02,-142.22 5674.82,-149.22"/>
</g>
<!-- Node33 -->
<g id="node31" class="node">
<title>Node33</title>
<g id="a_node31"><a xlink:href="../../dc/da3/varc__p_8h.html" target="_top" xlink:title=" ">
<polygon fill="white" stroke="red" points="4757,-67.5 4757,-97.5 4864,-97.5 4864,-67.5 4757,-67.5"/>
<text text-anchor="start" x="4765" y="-85.5" font-family="Helvetica,sans-Serif" font-size="10.00">src/libs/vgeometry</text>
<text text-anchor="middle" x="4810.5" y="-74.5" font-family="Helvetica,sans-Serif" font-size="10.00">/varc_p.h</text>
</a>
</g>
</g>
<!-- Node26&#45;&gt;Node33 -->
<g id="edge30" class="edge">
<title>Node26&#45;&gt;Node33</title>
<path fill="none" stroke="midnightblue" d="M5674.51,-147.84C5504.46,-145.59 5164.21,-136.21 4878.5,-98 4873.83,-97.38 4869.01,-96.61 4864.19,-95.75"/>
<polygon fill="midnightblue" stroke="midnightblue" points="5674.67,-151.34 5684.71,-147.97 5674.76,-144.34 5674.67,-151.34"/>
</g>
<!-- Node35 -->
<g id="node32" class="node">
<title>Node35</title>
<g id="a_node32"><a xlink:href="../../d6/dfb/vellipticalarc_8cpp.html" target="_top" xlink:title=" ">
<polygon fill="white" stroke="black" points="4880,-0.5 4880,-30.5 4987,-30.5 4987,-0.5 4880,-0.5"/>
<text text-anchor="start" x="4888" y="-18.5" font-family="Helvetica,sans-Serif" font-size="10.00">src/libs/vgeometry</text>
<text text-anchor="middle" x="4933.5" y="-7.5" font-family="Helvetica,sans-Serif" font-size="10.00">/vellipticalarc.cpp</text>
</a>
</g>
</g>
<!-- Node26&#45;&gt;Node35 -->
<g id="edge31" class="edge">
<title>Node26&#45;&gt;Node35</title>
<path fill="none" stroke="midnightblue" d="M5674.57,-146.14C5447.13,-140.65 4937.3,-125.34 4911.5,-98 4894,-79.45 4910.45,-48.47 4922.79,-30.52"/>
<polygon fill="midnightblue" stroke="midnightblue" points="5674.77,-149.65 5684.85,-146.39 5674.94,-142.65 5674.77,-149.65"/>
</g>
<!-- Node36 -->
<g id="node33" class="node">
<title>Node36</title>
<g id="a_node33"><a xlink:href="../../df/dde/vellipticalarc__p_8h.html" target="_top" xlink:title=" ">
<polygon fill="white" stroke="black" points="4921,-67.5 4921,-97.5 5028,-97.5 5028,-67.5 4921,-67.5"/>
<text text-anchor="start" x="4929" y="-85.5" font-family="Helvetica,sans-Serif" font-size="10.00">src/libs/vgeometry</text>
<text text-anchor="middle" x="4974.5" y="-74.5" font-family="Helvetica,sans-Serif" font-size="10.00">/vellipticalarc_p.h</text>
</a>
</g>
</g>
<!-- Node26&#45;&gt;Node36 -->
<g id="edge32" class="edge">
<title>Node26&#45;&gt;Node36</title>
<path fill="none" stroke="midnightblue" d="M5674.52,-146.67C5528.91,-142.96 5261.85,-131.75 5036.5,-98 5033.77,-97.59 5030.98,-97.12 5028.17,-96.61"/>
<polygon fill="midnightblue" stroke="midnightblue" points="5674.71,-150.18 5684.8,-146.93 5674.89,-143.18 5674.71,-150.18"/>
</g>
<!-- Node37 -->
<g id="node34" class="node">
<title>Node37</title>
<g id="a_node34"><a xlink:href="../../d1/d76/vspline__p_8h.html" target="_top" xlink:title=" ">
<polygon fill="white" stroke="red" points="5046,-67.5 5046,-97.5 5153,-97.5 5153,-67.5 5046,-67.5"/>
<text text-anchor="start" x="5054" y="-85.5" font-family="Helvetica,sans-Serif" font-size="10.00">src/libs/vgeometry</text>
<text text-anchor="middle" x="5099.5" y="-74.5" font-family="Helvetica,sans-Serif" font-size="10.00">/vspline_p.h</text>
</a>
</g>
</g>
<!-- Node26&#45;&gt;Node37 -->
<g id="edge34" class="edge">
<title>Node26&#45;&gt;Node37</title>
<path fill="none" stroke="midnightblue" d="M5674.54,-144.45C5550.4,-138.7 5340.78,-125.63 5162.5,-98 5159.39,-97.52 5156.21,-96.97 5153.01,-96.37"/>
<polygon fill="midnightblue" stroke="midnightblue" points="5674.65,-147.96 5684.8,-144.92 5674.97,-140.97 5674.65,-147.96"/>
</g>
<!-- Node39 -->
<g id="node35" class="node">
<title>Node39</title>
<g id="a_node35"><a xlink:href="../../d9/d15/vabstractpiece_8cpp.html" target="_top" xlink:title=" ">
<polygon fill="white" stroke="black" points="5171.5,-73 5171.5,-92 5357.5,-92 5357.5,-73 5171.5,-73"/>
<text text-anchor="middle" x="5264.5" y="-80" font-family="Helvetica,sans-Serif" font-size="10.00">src/libs/vlayout/vabstractpiece.cpp</text>
</a>
</g>
</g>
<!-- Node26&#45;&gt;Node39 -->
<g id="edge35" class="edge">
<title>Node26&#45;&gt;Node39</title>
<path fill="none" stroke="midnightblue" d="M5698.42,-138.8C5614.34,-128.99 5481.38,-113.14 5366.5,-98 5352.4,-96.14 5337.22,-94.04 5323,-92.02"/>
<polygon fill="midnightblue" stroke="midnightblue" points="5698.09,-142.29 5708.42,-139.97 5698.9,-135.33 5698.09,-142.29"/>
</g>
<!-- Node40 -->
<g id="node36" class="node">
<title>Node40</title>
<g id="a_node36"><a xlink:href="../../d8/d70/vtextmanager_8cpp.html" target="_top" xlink:title=" ">
<polygon fill="white" stroke="black" points="5375.5,-73 5375.5,-92 5557.5,-92 5557.5,-73 5375.5,-73"/>
<text text-anchor="middle" x="5466.5" y="-80" font-family="Helvetica,sans-Serif" font-size="10.00">src/libs/vlayout/vtextmanager.cpp</text>
</a>
</g>
</g>
<!-- Node26&#45;&gt;Node40 -->
<g id="edge36" class="edge">
<title>Node26&#45;&gt;Node40</title>
<path fill="none" stroke="midnightblue" d="M5730.87,-137.88C5668.63,-125.08 5565.28,-103.82 5507.98,-92.03"/>
<polygon fill="midnightblue" stroke="midnightblue" points="5730.36,-141.35 5740.86,-139.94 5731.77,-134.49 5730.36,-141.35"/>
</g>
<!-- Node41 -->
<g id="node37" class="node">
<title>Node41</title>
<g id="a_node37"><a xlink:href="../../db/d65/dialogexporttocsv_8cpp.html" target="_top" xlink:title=" ">
<polygon fill="white" stroke="black" points="5576,-67.5 5576,-97.5 5703,-97.5 5703,-67.5 5576,-67.5"/>
<text text-anchor="start" x="5584" y="-85.5" font-family="Helvetica,sans-Serif" font-size="10.00">src/libs/vmisc/dialogs</text>
<text text-anchor="middle" x="5639.5" y="-74.5" font-family="Helvetica,sans-Serif" font-size="10.00">/dialogexporttocsv.cpp</text>
</a>
</g>
</g>
<!-- Node26&#45;&gt;Node41 -->
<g id="edge37" class="edge">
<title>Node26&#45;&gt;Node41</title>
<path fill="none" stroke="midnightblue" d="M5754.17,-135.62C5729.98,-124.63 5695.25,-108.84 5670.36,-97.53"/>
<polygon fill="midnightblue" stroke="midnightblue" points="5752.96,-138.92 5763.51,-139.87 5755.86,-132.54 5752.96,-138.92"/>
</g>
<!-- Node42 -->
<g id="node38" class="node">
<title>Node42</title>
<g id="a_node38"><a xlink:href="../../d6/d0b/def_8cpp.html" target="_top" xlink:title=" ">
<polygon fill="white" stroke="black" points="5721.5,-73 5721.5,-92 5843.5,-92 5843.5,-73 5721.5,-73"/>
<text text-anchor="middle" x="5782.5" y="-80" font-family="Helvetica,sans-Serif" font-size="10.00">src/libs/vmisc/def.cpp</text>
</a>
</g>
</g>
<!-- Node26&#45;&gt;Node42 -->
<g id="edge38" class="edge">
<title>Node26&#45;&gt;Node42</title>
<path fill="none" stroke="midnightblue" d="M5782.5,-129.54C5782.5,-117.17 5782.5,-101.62 5782.5,-92.13"/>
<polygon fill="midnightblue" stroke="midnightblue" points="5779,-129.73 5782.5,-139.73 5786,-129.73 5779,-129.73"/>
</g>
<!-- Node43 -->
<g id="node39" class="node">
<title>Node43</title>
<g id="a_node39"><a xlink:href="../../dd/d70/vlayoutpiece_8cpp.html" target="_top" xlink:title=" ">
<polygon fill="white" stroke="black" points="5862,-73 5862,-92 6039,-92 6039,-73 5862,-73"/>
<text text-anchor="middle" x="5950.5" y="-80" font-family="Helvetica,sans-Serif" font-size="10.00">src/libs/vlayout/vlayoutpiece.cpp</text>
</a>
</g>
</g>
<!-- Node26&#45;&gt;Node43 -->
<g id="edge39" class="edge">
<title>Node26&#45;&gt;Node43</title>
<path fill="none" stroke="midnightblue" d="M5814.54,-136.1C5847.89,-123.2 5899.25,-103.33 5928.37,-92.06"/>
<polygon fill="midnightblue" stroke="midnightblue" points="5812.87,-133 5804.81,-139.87 5815.4,-139.52 5812.87,-133"/>
</g>
<!-- Node44 -->
<g id="node40" class="node">
<title>Node44</title>
<g id="a_node40"><a xlink:href="../../d0/df6/vabstractapplication_8cpp.html" target="_top" xlink:title=" ">
<polygon fill="white" stroke="black" points="6057.5,-73 6057.5,-92 6263.5,-92 6263.5,-73 6057.5,-73"/>
<text text-anchor="middle" x="6160.5" y="-80" font-family="Helvetica,sans-Serif" font-size="10.00">src/libs/vmisc/vabstractapplication.cpp</text>
</a>
</g>
</g>
<!-- Node26&#45;&gt;Node44 -->
<g id="edge40" class="edge">
<title>Node26&#45;&gt;Node44</title>
<path fill="none" stroke="midnightblue" d="M5842.43,-138.19C5916.67,-125.43 6041.77,-103.92 6110.88,-92.03"/>
<polygon fill="midnightblue" stroke="midnightblue" points="5841.57,-134.79 5832.31,-139.94 5842.75,-141.69 5841.57,-134.79"/>
</g>
<!-- Node45 -->
<g id="node41" class="node">
<title>Node45</title>
<g id="a_node41"><a xlink:href="../../d4/d4f/pmsystems_8cpp.html" target="_top" xlink:title=" ">
<polygon fill="white" stroke="black" points="6282,-67.5 6282,-97.5 6389,-97.5 6389,-67.5 6282,-67.5"/>
<text text-anchor="start" x="6290" y="-85.5" font-family="Helvetica,sans-Serif" font-size="10.00">src/libs/vpatterndb</text>
<text text-anchor="middle" x="6335.5" y="-74.5" font-family="Helvetica,sans-Serif" font-size="10.00">/pmsystems.cpp</text>
</a>
</g>
</g>
<!-- Node26&#45;&gt;Node45 -->
<g id="edge41" class="edge">
<title>Node26&#45;&gt;Node45</title>
<path fill="none" stroke="midnightblue" d="M5854.88,-138.67C5867.73,-137.03 5881,-135.41 5893.5,-134 6061.64,-115.04 6105.47,-125.03 6272.5,-98 6275.6,-97.5 6278.78,-96.93 6281.98,-96.32"/>
<polygon fill="midnightblue" stroke="midnightblue" points="5854.15,-135.24 5844.68,-139.99 5855.05,-142.18 5854.15,-135.24"/>
</g>
<!-- Node46 -->
<g id="node42" class="node">
<title>Node46</title>
<g id="a_node42"><a xlink:href="../../d6/d46/vcontainer_8cpp.html" target="_top" xlink:title=" ">
<polygon fill="white" stroke="black" points="6407,-67.5 6407,-97.5 6514,-97.5 6514,-67.5 6407,-67.5"/>
<text text-anchor="start" x="6415" y="-85.5" font-family="Helvetica,sans-Serif" font-size="10.00">src/libs/vpatterndb</text>
<text text-anchor="middle" x="6460.5" y="-74.5" font-family="Helvetica,sans-Serif" font-size="10.00">/vcontainer.cpp</text>
</a>
</g>
</g>
<!-- Node26&#45;&gt;Node46 -->
<g id="edge42" class="edge">
<title>Node26&#45;&gt;Node46</title>
<path fill="none" stroke="midnightblue" d="M5852.81,-138.68C5866.3,-136.98 5880.33,-135.33 5893.5,-134 6116.94,-111.45 6175.41,-131.28 6397.5,-98 6400.61,-97.53 6403.79,-97 6406.99,-96.41"/>
<polygon fill="midnightblue" stroke="midnightblue" points="5852.1,-135.25 5842.63,-139.99 5852.99,-142.19 5852.1,-135.25"/>
</g>
<!-- Node47 -->
<g id="node43" class="node">
<title>Node47</title>
<g id="a_node43"><a xlink:href="../../db/d11/vformula_8cpp.html" target="_top" xlink:title=" ">
<polygon fill="white" stroke="black" points="6532,-67.5 6532,-97.5 6639,-97.5 6639,-67.5 6532,-67.5"/>
<text text-anchor="start" x="6540" y="-85.5" font-family="Helvetica,sans-Serif" font-size="10.00">src/libs/vpatterndb</text>
<text text-anchor="middle" x="6585.5" y="-74.5" font-family="Helvetica,sans-Serif" font-size="10.00">/vformula.cpp</text>
</a>
</g>
</g>
<!-- Node26&#45;&gt;Node47 -->
<g id="edge43" class="edge">
<title>Node26&#45;&gt;Node47</title>
<path fill="none" stroke="midnightblue" d="M5851.45,-138.7C5865.35,-136.95 5879.88,-135.28 5893.5,-134 6172.29,-107.85 6245.29,-137.54 6522.5,-98 6525.61,-97.56 6528.8,-97.04 6532,-96.46"/>
<polygon fill="midnightblue" stroke="midnightblue" points="5850.93,-135.24 5841.46,-139.99 5851.82,-142.18 5850.93,-135.24"/>
</g>
<!-- Node48 -->
<g id="node44" class="node">
<title>Node48</title>
<g id="a_node44"><a xlink:href="../../df/d7a/vpiece_8cpp.html" target="_top" xlink:title=" ">
<polygon fill="white" stroke="black" points="6657,-67.5 6657,-97.5 6764,-97.5 6764,-67.5 6657,-67.5"/>
<text text-anchor="start" x="6665" y="-85.5" font-family="Helvetica,sans-Serif" font-size="10.00">src/libs/vpatterndb</text>
<text text-anchor="middle" x="6710.5" y="-74.5" font-family="Helvetica,sans-Serif" font-size="10.00">/vpiece.cpp</text>
</a>
</g>
</g>
<!-- Node26&#45;&gt;Node48 -->
<g id="edge44" class="edge">
<title>Node26&#45;&gt;Node48</title>
<path fill="none" stroke="midnightblue" d="M5850.72,-138.69C5864.84,-136.91 5879.64,-135.23 5893.5,-134 6227.67,-104.25 6315.15,-143.81 6647.5,-98 6650.5,-97.59 6653.57,-97.1 6656.66,-96.56"/>
<polygon fill="midnightblue" stroke="midnightblue" points="5850.06,-135.25 5840.59,-140 5850.95,-142.19 5850.06,-135.25"/>
</g>
<!-- Node49 -->
<g id="node45" class="node">
<title>Node49</title>
<g id="a_node45"><a xlink:href="../../df/dba/vpiecenode__p_8h.html" target="_top" xlink:title=" ">
<polygon fill="white" stroke="red" points="6782,-67.5 6782,-97.5 6889,-97.5 6889,-67.5 6782,-67.5"/>
<text text-anchor="start" x="6790" y="-85.5" font-family="Helvetica,sans-Serif" font-size="10.00">src/libs/vpatterndb</text>
<text text-anchor="middle" x="6835.5" y="-74.5" font-family="Helvetica,sans-Serif" font-size="10.00">/vpiecenode_p.h</text>
</a>
</g>
</g>
<!-- Node26&#45;&gt;Node49 -->
<g id="edge45" class="edge">
<title>Node26&#45;&gt;Node49</title>
<path fill="none" stroke="midnightblue" d="M5850.24,-138.68C5864.5,-136.88 5879.48,-135.2 5893.5,-134 6283.07,-100.64 6384.99,-150.07 6772.5,-98 6775.5,-97.6 6778.57,-97.12 6781.66,-96.58"/>
<polygon fill="midnightblue" stroke="midnightblue" points="5849.48,-135.25 5840.01,-140 5850.37,-142.19 5849.48,-135.25"/>
</g>
<!-- Node51 -->
<g id="node46" class="node">
<title>Node51</title>
<g id="a_node46"><a xlink:href="../../de/d3e/vtranslatevars_8cpp.html" target="_top" xlink:title=" ">
<polygon fill="white" stroke="black" points="6907.5,-67.5 6907.5,-97.5 7017.5,-97.5 7017.5,-67.5 6907.5,-67.5"/>
<text text-anchor="start" x="6915.5" y="-85.5" font-family="Helvetica,sans-Serif" font-size="10.00">src/libs/vpatterndb</text>
<text text-anchor="middle" x="6962.5" y="-74.5" font-family="Helvetica,sans-Serif" font-size="10.00">/vtranslatevars.cpp</text>
</a>
</g>
</g>
<!-- Node26&#45;&gt;Node51 -->
<g id="edge46" class="edge">
<title>Node26&#45;&gt;Node51</title>
<path fill="none" stroke="midnightblue" d="M5850,-138.65C5864.33,-136.85 5879.4,-135.17 5893.5,-134 6338.48,-97.04 6454.62,-154.85 6897.5,-98 6900.71,-97.59 6904,-97.09 6907.3,-96.54"/>
<polygon fill="midnightblue" stroke="midnightblue" points="5849.18,-135.23 5839.71,-139.98 5850.08,-142.17 5849.18,-135.23"/>
</g>
<!-- Node52 -->
<g id="node47" class="node">
<title>Node52</title>
<g id="a_node47"><a xlink:href="../../df/d40/export__format__combobox_8cpp.html" target="_top" xlink:title=" ">
<polygon fill="white" stroke="black" points="7036,-67.5 7036,-97.5 7169,-97.5 7169,-67.5 7036,-67.5"/>
<text text-anchor="start" x="7044" y="-85.5" font-family="Helvetica,sans-Serif" font-size="10.00">src/libs/vwidgets/export</text>
<text text-anchor="middle" x="7102.5" y="-74.5" font-family="Helvetica,sans-Serif" font-size="10.00">_format_combobox.cpp</text>
</a>
</g>
</g>
<!-- Node26&#45;&gt;Node52 -->
<g id="edge47" class="edge">
<title>Node26&#45;&gt;Node52</title>
<path fill="none" stroke="midnightblue" d="M5849.76,-138.64C5864.16,-136.83 5879.32,-135.15 5893.5,-134 6395.66,-93.32 6525.74,-153.38 7026.5,-98 7029.57,-97.66 7032.7,-97.26 7035.86,-96.83"/>
<polygon fill="midnightblue" stroke="midnightblue" points="5848.89,-135.22 5839.43,-139.97 5849.79,-142.16 5848.89,-135.22"/>
</g>
<!-- Node53 -->
<g id="node48" class="node">
<title>Node53</title>
<g id="a_node48"><a xlink:href="../../d3/d4f/mouse__coordinates_8cpp.html" target="_top" xlink:title=" ">
<polygon fill="white" stroke="black" points="7187.5,-67.5 7187.5,-97.5 7321.5,-97.5 7321.5,-67.5 7187.5,-67.5"/>
<text text-anchor="start" x="7195.5" y="-85.5" font-family="Helvetica,sans-Serif" font-size="10.00">src/libs/vwidgets/mouse</text>
<text text-anchor="middle" x="7254.5" y="-74.5" font-family="Helvetica,sans-Serif" font-size="10.00">_coordinates.cpp</text>
</a>
</g>
</g>
<!-- Node26&#45;&gt;Node53 -->
<g id="edge48" class="edge">
<title>Node26&#45;&gt;Node53</title>
<path fill="none" stroke="midnightblue" d="M5849.1,-138.68C5863.7,-136.84 5879.1,-135.14 5893.5,-134 6462.61,-88.97 6609.88,-159.01 7177.5,-98 7180.75,-97.65 7184.06,-97.24 7187.4,-96.78"/>
<polygon fill="midnightblue" stroke="midnightblue" points="5848.6,-135.21 5839.14,-139.97 5849.5,-142.16 5848.6,-135.21"/>
</g>
<!-- Node26&#45;&gt;Node62 -->
<g id="edge49" class="edge">
<title>Node26&#45;&gt;Node62</title>
<path fill="none" stroke="midnightblue" d="M5848.85,-138.68C5863.53,-136.83 5879.02,-135.12 5893.5,-134 6530.45,-84.56 6693.39,-145.34 7330.5,-98 7349.28,-96.6 7369.67,-94.34 7388.09,-92.01"/>
<polygon fill="midnightblue" stroke="midnightblue" points="5848.32,-135.22 5838.85,-139.98 5849.22,-142.16 5848.32,-135.22"/>
</g>
<!-- Node36&#45;&gt;Node35 -->
<g id="edge33" class="edge">
<title>Node36&#45;&gt;Node35</title>
<path fill="none" stroke="midnightblue" d="M4960.22,-58.87C4954.29,-49.46 4947.59,-38.83 4942.38,-30.58"/>
<polygon fill="midnightblue" stroke="midnightblue" points="4957.31,-60.81 4965.6,-67.4 4963.23,-57.07 4957.31,-60.81"/>
</g>
</g>
</svg>
