<?xml version="1.0" encoding="UTF-8" standalone="no"?>
<!DOCTYPE svg PUBLIC "-//W3C//DTD SVG 1.1//EN"
 "http://www.w3.org/Graphics/SVG/1.1/DTD/svg11.dtd">
<!-- Generated by graphviz version 2.43.0 (0)
 -->
<!-- Title: src/app/seamly2d/dialogs/dialoglayoutsettings.cpp Pages: 1 -->
<svg width="2065pt" height="313pt"
 viewBox="0.00 0.00 2064.67 313.00" xmlns="http://www.w3.org/2000/svg" xmlns:xlink="http://www.w3.org/1999/xlink">
<g id="graph0" class="graph" transform="scale(1 1) rotate(0) translate(4 309)">
<title>src/app/seamly2d/dialogs/dialoglayoutsettings.cpp</title>
<!-- Node1 -->
<g id="Node000001" class="node">
<title>Node1</title>
<g id="a_Node000001"><a xlink:title=" ">
<polygon fill="#999999" stroke="#666666" points="1499.17,-305 1358.17,-305 1358.17,-275 1499.17,-275 1499.17,-305"/>
<text text-anchor="start" x="1366.17" y="-293" font-family="Helvetica,sans-Serif" font-size="10.00">src/app/seamly2d/dialogs</text>
<text text-anchor="middle" x="1428.67" y="-282" font-family="Helvetica,sans-Serif" font-size="10.00">/dialoglayoutsettings.cpp</text>
</a>
</g>
</g>
<!-- Node2 -->
<g id="Node000002" class="node">
<title>Node2</title>
<g id="a_Node000002"><a xlink:href="../../d2/d2b/dialoglayoutsettings_8h.html" target="_top" xlink:title=" ">
<polygon fill="white" stroke="#666666" points="158.17,-129 33.17,-129 33.17,-110 158.17,-110 158.17,-129"/>
<text text-anchor="middle" x="95.67" y="-117" font-family="Helvetica,sans-Serif" font-size="10.00">dialoglayoutsettings.h</text>
</a>
</g>
</g>
<!-- Node1&#45;&gt;Node2 -->
<g id="edge1_Node000001_Node000002" class="edge">
<title>Node1&#45;&gt;Node2</title>
<g id="a_edge1_Node000001_Node000002"><a xlink:title=" ">
<path fill="none" stroke="#63b8ff" d="M1358.05,-284.35C1247.67,-276.77 1027.6,-260.43 841.67,-239 673.01,-219.56 631.33,-210.66 463.67,-184 353.51,-166.49 225.21,-143.83 152.91,-130.86"/>
<polygon fill="#63b8ff" stroke="#63b8ff" points="153.11,-127.34 142.65,-129.02 151.88,-134.23 153.11,-127.34"/>
</a>
</g>
</g>
<!-- Node10 -->
<g id="Node000010" class="node">
<title>Node10</title>
<g id="a_Node000010"><a xlink:title=" ">
<polygon fill="#e0e0e0" stroke="#999999" points="1127.67,-239 987.67,-239 987.67,-220 1127.67,-220 1127.67,-239"/>
<text text-anchor="middle" x="1057.67" y="-227" font-family="Helvetica,sans-Serif" font-size="10.00">ui_dialoglayoutsettings.h</text>
</a>
</g>
</g>
<!-- Node1&#45;&gt;Node10 -->
<g id="edge10_Node000001_Node000010" class="edge">
<title>Node1&#45;&gt;Node10</title>
<g id="a_edge10_Node000001_Node000010"><a xlink:title=" ">
<path fill="none" stroke="#63b8ff" d="M1358.01,-277.86C1289.96,-267.13 1187.91,-251.04 1122.05,-240.65"/>
<polygon fill="#63b8ff" stroke="#63b8ff" points="1122.23,-237.14 1111.8,-239.04 1121.14,-244.05 1122.23,-237.14"/>
</a>
</g>
</g>
<!-- Node11 -->
<g id="Node000011" class="node">
<title>Node11</title>
<g id="a_Node000011"><a xlink:href="../../d9/d02/vapplication_8h.html" target="_top" xlink:title=" ">
<polygon fill="white" stroke="#666666" points="969.17,-239 850.17,-239 850.17,-220 969.17,-220 969.17,-239"/>
<text text-anchor="middle" x="909.67" y="-227" font-family="Helvetica,sans-Serif" font-size="10.00">../core/vapplication.h</text>
</a>
</g>
</g>
<!-- Node1&#45;&gt;Node11 -->
<g id="edge11_Node000001_Node000011" class="edge">
<title>Node1&#45;&gt;Node11</title>
<g id="a_edge11_Node000001_Node000011"><a xlink:title=" ">
<path fill="none" stroke="#63b8ff" d="M1358.1,-281.42C1271.55,-272.07 1120.06,-255.51 979.59,-239.1"/>
<polygon fill="#63b8ff" stroke="#63b8ff" points="979.84,-235.6 969.5,-237.92 979.02,-242.55 979.84,-235.6"/>
</a>
</g>
</g>
<!-- Node48 -->
<g id="Node000048" class="node">
<title>Node48</title>
<g id="a_Node000048"><a xlink:title=" ">
<polygon fill="#e0e0e0" stroke="#999999" points="1293.67,-239 1145.67,-239 1145.67,-220 1293.67,-220 1293.67,-239"/>
<text text-anchor="middle" x="1219.67" y="-227" font-family="Helvetica,sans-Serif" font-size="10.00">../ifc/xml/vdomdocument.h</text>
</a>
</g>
</g>
<!-- Node1&#45;&gt;Node48 -->
<g id="edge57_Node000001_Node000048" class="edge">
<title>Node1&#45;&gt;Node48</title>
<g id="a_edge57_Node000001_Node000048"><a xlink:title=" ">
<path fill="none" stroke="#63b8ff" d="M1378.6,-274.99C1342.38,-264.85 1294.05,-251.32 1260.22,-241.85"/>
<polygon fill="#63b8ff" stroke="#63b8ff" points="1260.8,-238.38 1250.22,-239.05 1258.91,-245.12 1260.8,-238.38"/>
</a>
</g>
</g>
<!-- Node49 -->
<g id="Node000049" class="node">
<title>Node49</title>
<g id="a_Node000049"><a xlink:title=" ">
<polygon fill="#e0e0e0" stroke="#999999" points="1423.67,-239 1311.67,-239 1311.67,-220 1423.67,-220 1423.67,-239"/>
<text text-anchor="middle" x="1367.67" y="-227" font-family="Helvetica,sans-Serif" font-size="10.00">../vmisc/vsettings.h</text>
</a>
</g>
</g>
<!-- Node1&#45;&gt;Node49 -->
<g id="edge58_Node000001_Node000049" class="edge">
<title>Node1&#45;&gt;Node49</title>
<g id="a_edge58_Node000001_Node000049"><a xlink:title=" ">
<path fill="none" stroke="#63b8ff" d="M1413.9,-274.84C1404.95,-266.26 1393.52,-255.3 1384.26,-246.42"/>
<polygon fill="#63b8ff" stroke="#63b8ff" points="1386.45,-243.66 1376.81,-239.27 1381.6,-248.71 1386.45,-243.66"/>
</a>
</g>
</g>
<!-- Node50 -->
<g id="Node000050" class="node">
<title>Node50</title>
<g id="a_Node000050"><a xlink:title=" ">
<polygon fill="#e0e0e0" stroke="#999999" points="1539.67,-239 1441.67,-239 1441.67,-220 1539.67,-220 1539.67,-239"/>
<text text-anchor="middle" x="1490.67" y="-227" font-family="Helvetica,sans-Serif" font-size="10.00">../vmisc/vmath.h</text>
</a>
</g>
</g>
<!-- Node1&#45;&gt;Node50 -->
<g id="edge59_Node000001_Node000050" class="edge">
<title>Node1&#45;&gt;Node50</title>
<g id="a_edge59_Node000001_Node000050"><a xlink:title=" ">
<path fill="none" stroke="#63b8ff" d="M1443.67,-274.84C1452.86,-266.17 1464.62,-255.08 1474.08,-246.15"/>
<polygon fill="#63b8ff" stroke="#63b8ff" points="1476.5,-248.67 1481.37,-239.27 1471.7,-243.58 1476.5,-248.67"/>
</a>
</g>
</g>
<!-- Node51 -->
<g id="Node000051" class="node">
<title>Node51</title>
<g id="a_Node000051"><a xlink:title=" ">
<polygon fill="#e0e0e0" stroke="#999999" points="1715.67,-239 1557.67,-239 1557.67,-220 1715.67,-220 1715.67,-239"/>
<text text-anchor="middle" x="1636.67" y="-227" font-family="Helvetica,sans-Serif" font-size="10.00">../vlayout/vlayoutgenerator.h</text>
</a>
</g>
</g>
<!-- Node1&#45;&gt;Node51 -->
<g id="edge60_Node000001_Node000051" class="edge">
<title>Node1&#45;&gt;Node51</title>
<g id="a_edge60_Node000001_Node000051"><a xlink:title=" ">
<path fill="none" stroke="#63b8ff" d="M1478.49,-274.99C1514.54,-264.85 1562.64,-251.32 1596.3,-241.85"/>
<polygon fill="#63b8ff" stroke="#63b8ff" points="1597.57,-245.13 1606.25,-239.05 1595.68,-238.39 1597.57,-245.13"/>
</a>
</g>
</g>
<!-- Node52 -->
<g id="Node000052" class="node">
<title>Node52</title>
<g id="a_Node000052"><a xlink:title=" ">
<polygon fill="#e0e0e0" stroke="#999999" points="1819.67,-239 1733.67,-239 1733.67,-220 1819.67,-220 1819.67,-239"/>
<text text-anchor="middle" x="1776.67" y="-227" font-family="Helvetica,sans-Serif" font-size="10.00">QMessageBox</text>
</a>
</g>
</g>
<!-- Node1&#45;&gt;Node52 -->
<g id="edge61_Node000001_Node000052" class="edge">
<title>Node1&#45;&gt;Node52</title>
<g id="a_edge61_Node000001_Node000052"><a xlink:title=" ">
<path fill="none" stroke="#63b8ff" d="M1499.51,-277.09C1565.82,-265.94 1663.43,-249.54 1723.37,-239.46"/>
<polygon fill="#63b8ff" stroke="#63b8ff" points="1724.09,-242.89 1733.38,-237.78 1722.93,-235.98 1724.09,-242.89"/>
</a>
</g>
</g>
<!-- Node53 -->
<g id="Node000053" class="node">
<title>Node53</title>
<g id="a_Node000053"><a xlink:title=" ">
<polygon fill="#e0e0e0" stroke="#999999" points="1917.67,-239 1837.67,-239 1837.67,-220 1917.67,-220 1917.67,-239"/>
<text text-anchor="middle" x="1877.67" y="-227" font-family="Helvetica,sans-Serif" font-size="10.00">QPushButton</text>
</a>
</g>
</g>
<!-- Node1&#45;&gt;Node53 -->
<g id="edge62_Node000001_Node000053" class="edge">
<title>Node1&#45;&gt;Node53</title>
<g id="a_edge62_Node000001_Node000053"><a xlink:title=" ">
<path fill="none" stroke="#63b8ff" d="M1499.25,-281.2C1577.09,-272.37 1706.28,-257.03 1827.39,-239.13"/>
<polygon fill="#63b8ff" stroke="#63b8ff" points="1828.2,-242.55 1837.58,-237.61 1827.17,-235.62 1828.2,-242.55"/>
</a>
</g>
</g>
<!-- Node54 -->
<g id="Node000054" class="node">
<title>Node54</title>
<g id="a_Node000054"><a xlink:title=" ">
<polygon fill="#e0e0e0" stroke="#999999" points="2011.17,-239 1936.17,-239 1936.17,-220 2011.17,-220 2011.17,-239"/>
<text text-anchor="middle" x="1973.67" y="-227" font-family="Helvetica,sans-Serif" font-size="10.00">QPrinterInfo</text>
</a>
</g>
</g>
<!-- Node1&#45;&gt;Node54 -->
<g id="edge63_Node000001_Node000054" class="edge">
<title>Node1&#45;&gt;Node54</title>
<g id="a_edge63_Node000001_Node000054"><a xlink:title=" ">
<path fill="none" stroke="#63b8ff" d="M1499.39,-283.67C1594.14,-276.12 1767.7,-260.93 1926.07,-238.97"/>
<polygon fill="#63b8ff" stroke="#63b8ff" points="1926.58,-242.43 1936,-237.58 1925.61,-235.5 1926.58,-242.43"/>
</a>
</g>
</g>
<!-- Node3 -->
<g id="Node000003" class="node">
<title>Node3</title>
<g id="a_Node000003"><a xlink:href="../../d5/d48/vabstractlayoutdialog_8h.html" target="_top" xlink:title=" ">
<polygon fill="white" stroke="#666666" points="485.67,-74 353.67,-74 353.67,-55 485.67,-55 485.67,-74"/>
<text text-anchor="middle" x="419.67" y="-62" font-family="Helvetica,sans-Serif" font-size="10.00">vabstractlayoutdialog.h</text>
</a>
</g>
</g>
<!-- Node2&#45;&gt;Node3 -->
<g id="edge2_Node000002_Node000003" class="edge">
<title>Node2&#45;&gt;Node3</title>
<g id="a_edge2_Node000002_Node000003"><a xlink:title=" ">
<path fill="none" stroke="#63b8ff" d="M147.72,-109.98C204.91,-100.63 296.71,-85.61 357.6,-75.65"/>
<polygon fill="#63b8ff" stroke="#63b8ff" points="358.17,-79.11 367.47,-74.04 357.04,-72.2 358.17,-79.11"/>
</a>
</g>
</g>
<!-- Node4 -->
<g id="Node000004" class="node">
<title>Node4</title>
<g id="a_Node000004"><a xlink:title=" ">
<polygon fill="#e0e0e0" stroke="#999999" points="363.17,-19 286.17,-19 286.17,0 363.17,0 363.17,-19"/>
<text text-anchor="middle" x="324.67" y="-7" font-family="Helvetica,sans-Serif" font-size="10.00">../ifc/ifcdef.h</text>
</a>
</g>
</g>
<!-- Node2&#45;&gt;Node4 -->
<g id="edge7_Node000002_Node000004" class="edge">
<title>Node2&#45;&gt;Node4</title>
<g id="a_edge7_Node000002_Node000004"><a xlink:title=" ">
<path fill="none" stroke="#63b8ff" d="M64.2,-109.93C30.47,-99.24 -15.55,-79.38 5.67,-55 40.05,-15.49 194.94,-9.97 275.55,-9.86"/>
<polygon fill="#63b8ff" stroke="#63b8ff" points="275.94,-13.36 285.94,-9.87 275.95,-6.36 275.94,-13.36"/>
</a>
</g>
</g>
<!-- Node7 -->
<g id="Node000007" class="node">
<title>Node7</title>
<g id="a_Node000007"><a xlink:title=" ">
<polygon fill="#e0e0e0" stroke="#999999" points="118.67,-74 14.67,-74 14.67,-55 118.67,-55 118.67,-74"/>
<text text-anchor="middle" x="66.67" y="-62" font-family="Helvetica,sans-Serif" font-size="10.00">../vlayout/vbank.h</text>
</a>
</g>
</g>
<!-- Node2&#45;&gt;Node7 -->
<g id="edge6_Node000002_Node000007" class="edge">
<title>Node2&#45;&gt;Node7</title>
<g id="a_edge6_Node000002_Node000007"><a xlink:title=" ">
<path fill="none" stroke="#63b8ff" d="M90.88,-109.75C86.91,-102.49 81.14,-91.95 76.23,-82.98"/>
<polygon fill="#63b8ff" stroke="#63b8ff" points="79.24,-81.18 71.37,-74.09 73.09,-84.54 79.24,-81.18"/>
</a>
</g>
</g>
<!-- Node8 -->
<g id="Node000008" class="node">
<title>Node8</title>
<g id="a_Node000008"><a xlink:title=" ">
<polygon fill="#e0e0e0" stroke="#999999" points="216.17,-74 137.17,-74 137.17,-55 216.17,-55 216.17,-74"/>
<text text-anchor="middle" x="176.67" y="-62" font-family="Helvetica,sans-Serif" font-size="10.00">QCloseEvent</text>
</a>
</g>
</g>
<!-- Node2&#45;&gt;Node8 -->
<g id="edge8_Node000002_Node000008" class="edge">
<title>Node2&#45;&gt;Node8</title>
<g id="a_edge8_Node000002_Node000008"><a xlink:title=" ">
<path fill="none" stroke="#63b8ff" d="M108.68,-109.98C121.12,-101.84 140.12,-89.41 154.87,-79.76"/>
<polygon fill="#63b8ff" stroke="#63b8ff" points="156.96,-82.57 163.41,-74.17 153.13,-76.72 156.96,-82.57"/>
</a>
</g>
</g>
<!-- Node9 -->
<g id="Node000009" class="node">
<title>Node9</title>
<g id="a_Node000009"><a xlink:title=" ">
<polygon fill="#e0e0e0" stroke="#999999" points="297.17,-74 234.17,-74 234.17,-55 297.17,-55 297.17,-74"/>
<text text-anchor="middle" x="265.67" y="-62" font-family="Helvetica,sans-Serif" font-size="10.00">QMargins</text>
</a>
</g>
</g>
<!-- Node2&#45;&gt;Node9 -->
<g id="edge9_Node000002_Node000009" class="edge">
<title>Node2&#45;&gt;Node9</title>
<g id="a_edge9_Node000002_Node000009"><a xlink:title=" ">
<path fill="none" stroke="#63b8ff" d="M122.98,-109.98C151.52,-101.09 196.49,-87.07 228.31,-77.15"/>
<polygon fill="#63b8ff" stroke="#63b8ff" points="229.63,-80.4 238.14,-74.08 227.55,-73.72 229.63,-80.4"/>
</a>
</g>
</g>
<!-- Node3&#45;&gt;Node4 -->
<g id="edge3_Node000003_Node000004" class="edge">
<title>Node3&#45;&gt;Node4</title>
<g id="a_edge3_Node000003_Node000004"><a xlink:title=" ">
<path fill="none" stroke="#63b8ff" d="M404.4,-54.98C389.53,-46.69 366.68,-33.94 349.25,-24.22"/>
<polygon fill="#63b8ff" stroke="#63b8ff" points="350.64,-20.99 340.21,-19.17 347.23,-27.1 350.64,-20.99"/>
</a>
</g>
</g>
<!-- Node5 -->
<g id="Node000005" class="node">
<title>Node5</title>
<g id="a_Node000005"><a xlink:title=" ">
<polygon fill="#e0e0e0" stroke="#999999" points="458.17,-19 381.17,-19 381.17,0 458.17,0 458.17,-19"/>
<text text-anchor="middle" x="419.67" y="-7" font-family="Helvetica,sans-Serif" font-size="10.00">QComboBox</text>
</a>
</g>
</g>
<!-- Node3&#45;&gt;Node5 -->
<g id="edge4_Node000003_Node000005" class="edge">
<title>Node3&#45;&gt;Node5</title>
<g id="a_edge4_Node000003_Node000005"><a xlink:title=" ">
<path fill="none" stroke="#63b8ff" d="M419.67,-54.75C419.67,-47.8 419.67,-37.85 419.67,-29.13"/>
<polygon fill="#63b8ff" stroke="#63b8ff" points="423.17,-29.09 419.67,-19.09 416.17,-29.09 423.17,-29.09"/>
</a>
</g>
</g>
<!-- Node6 -->
<g id="Node000006" class="node">
<title>Node6</title>
<g id="a_Node000006"><a xlink:title=" ">
<polygon fill="#e0e0e0" stroke="#999999" points="532.67,-19 476.67,-19 476.67,0 532.67,0 532.67,-19"/>
<text text-anchor="middle" x="504.67" y="-7" font-family="Helvetica,sans-Serif" font-size="10.00">QDialog</text>
</a>
</g>
</g>
<!-- Node3&#45;&gt;Node6 -->
<g id="edge5_Node000003_Node000006" class="edge">
<title>Node3&#45;&gt;Node6</title>
<g id="a_edge5_Node000003_Node000006"><a xlink:title=" ">
<path fill="none" stroke="#63b8ff" d="M433.32,-54.98C446.5,-46.77 466.69,-34.18 482.23,-24.49"/>
<polygon fill="#63b8ff" stroke="#63b8ff" points="484.13,-27.43 490.76,-19.17 480.42,-21.49 484.13,-27.43"/>
</a>
</g>
</g>
<!-- Node12 -->
<g id="Node000012" class="node">
<title>Node12</title>
<g id="a_Node000012"><a xlink:title=" ">
<polygon fill="#e0e0e0" stroke="#999999" points="804.17,-184 637.17,-184 637.17,-165 804.17,-165 804.17,-184"/>
<text text-anchor="middle" x="720.67" y="-172" font-family="Helvetica,sans-Serif" font-size="10.00">../vmisc/vabstractapplication.h</text>
</a>
</g>
</g>
<!-- Node11&#45;&gt;Node12 -->
<g id="edge12_Node000011_Node000012" class="edge">
<title>Node11&#45;&gt;Node12</title>
<g id="a_edge12_Node000011_Node000012"><a xlink:title=" ">
<path fill="none" stroke="#63b8ff" d="M879.3,-219.98C847.29,-211.01 796.7,-196.82 761.28,-186.89"/>
<polygon fill="#63b8ff" stroke="#63b8ff" points="761.84,-183.41 751.27,-184.08 759.95,-190.15 761.84,-183.41"/>
</a>
</g>
</g>
<!-- Node13 -->
<g id="Node000013" class="node">
<title>Node13</title>
<g id="a_Node000013"><a xlink:href="../../d7/d5b/options_8h.html" target="_top" xlink:title=" ">
<polygon fill="white" stroke="#666666" points="1767.17,-184 1696.17,-184 1696.17,-165 1767.17,-165 1767.17,-184"/>
<text text-anchor="middle" x="1731.67" y="-172" font-family="Helvetica,sans-Serif" font-size="10.00">../options.h</text>
</a>
</g>
</g>
<!-- Node11&#45;&gt;Node13 -->
<g id="edge13_Node000011_Node000013" class="edge">
<title>Node11&#45;&gt;Node13</title>
<g id="a_edge13_Node000011_Node000013"><a xlink:title=" ">
<path fill="none" stroke="#63b8ff" d="M969.48,-220.9C972.58,-220.57 975.66,-220.27 978.67,-220 1246.1,-195.65 1568.24,-181.76 1685.85,-177.19"/>
<polygon fill="#63b8ff" stroke="#63b8ff" points="1686.08,-180.69 1695.94,-176.8 1685.81,-173.69 1686.08,-180.69"/>
</a>
</g>
</g>
<!-- Node17 -->
<g id="Node000017" class="node">
<title>Node17</title>
<g id="a_Node000017"><a xlink:title=" ">
<polygon fill="#e0e0e0" stroke="#999999" points="997.67,-184 821.67,-184 821.67,-165 997.67,-165 997.67,-184"/>
<text text-anchor="middle" x="909.67" y="-172" font-family="Helvetica,sans-Serif" font-size="10.00">../vwidgets/vmaingraphicsview.h</text>
</a>
</g>
</g>
<!-- Node11&#45;&gt;Node17 -->
<g id="edge18_Node000011_Node000017" class="edge">
<title>Node11&#45;&gt;Node17</title>
<g id="a_edge18_Node000011_Node000017"><a xlink:title=" ">
<path fill="none" stroke="#63b8ff" d="M909.67,-219.75C909.67,-212.8 909.67,-202.85 909.67,-194.13"/>
<polygon fill="#63b8ff" stroke="#63b8ff" points="913.17,-194.09 909.67,-184.09 906.17,-194.09 913.17,-194.09"/>
</a>
</g>
</g>
<!-- Node18 -->
<g id="Node000018" class="node">
<title>Node18</title>
<g id="a_Node000018"><a xlink:title=" ">
<polygon fill="#e0e0e0" stroke="#999999" points="1177.17,-184 1016.17,-184 1016.17,-165 1177.17,-165 1177.17,-184"/>
<text text-anchor="middle" x="1096.67" y="-172" font-family="Helvetica,sans-Serif" font-size="10.00">../vpatterndb/vtranslatevars.h</text>
</a>
</g>
</g>
<!-- Node11&#45;&gt;Node18 -->
<g id="edge19_Node000011_Node000018" class="edge">
<title>Node11&#45;&gt;Node18</title>
<g id="a_edge19_Node000011_Node000018"><a xlink:title=" ">
<path fill="none" stroke="#63b8ff" d="M939.71,-219.98C971.38,-211.01 1021.43,-196.82 1056.48,-186.89"/>
<polygon fill="#63b8ff" stroke="#63b8ff" points="1057.72,-190.18 1066.39,-184.08 1055.81,-183.44 1057.72,-190.18"/>
</a>
</g>
</g>
<!-- Node19 -->
<g id="Node000019" class="node">
<title>Node19</title>
<g id="a_Node000019"><a xlink:href="../../dd/db2/vsettings_8h.html" target="_top" xlink:title=" ">
<polygon fill="white" stroke="#666666" points="1316.17,-184 1245.17,-184 1245.17,-165 1316.17,-165 1316.17,-184"/>
<text text-anchor="middle" x="1280.67" y="-172" font-family="Helvetica,sans-Serif" font-size="10.00">vsettings.h</text>
</a>
</g>
</g>
<!-- Node11&#45;&gt;Node19 -->
<g id="edge20_Node000011_Node000019" class="edge">
<title>Node11&#45;&gt;Node19</title>
<g id="a_edge20_Node000011_Node000019"><a xlink:title=" ">
<path fill="none" stroke="#63b8ff" d="M969.27,-219.98C1043.16,-209.43 1167.49,-191.67 1234.52,-182.09"/>
<polygon fill="#63b8ff" stroke="#63b8ff" points="1235.36,-185.51 1244.77,-180.63 1234.37,-178.58 1235.36,-185.51"/>
</a>
</g>
</g>
<!-- Node41 -->
<g id="Node000041" class="node">
<title>Node41</title>
<g id="a_Node000041"><a xlink:href="../../dd/d57/vcmdexport_8h.html" target="_top" xlink:title=" ">
<polygon fill="white" stroke="#666666" points="556.67,-184 472.67,-184 472.67,-165 556.67,-165 556.67,-184"/>
<text text-anchor="middle" x="514.67" y="-172" font-family="Helvetica,sans-Serif" font-size="10.00">vcmdexport.h</text>
</a>
</g>
</g>
<!-- Node11&#45;&gt;Node41 -->
<g id="edge49_Node000011_Node000041" class="edge">
<title>Node11&#45;&gt;Node41</title>
<g id="a_edge49_Node000011_Node000041"><a xlink:title=" ">
<path fill="none" stroke="#63b8ff" d="M850.1,-220.51C773.02,-210.16 639.93,-192.31 566.71,-182.48"/>
<polygon fill="#63b8ff" stroke="#63b8ff" points="567.16,-179.01 556.78,-181.15 566.23,-185.95 567.16,-179.01"/>
</a>
</g>
</g>
<!-- Node13&#45;&gt;Node4 -->
<g id="edge14_Node000013_Node000004" class="edge">
<title>Node13&#45;&gt;Node4</title>
<g id="a_edge14_Node000013_Node000004"><a xlink:title=" ">
<path fill="none" stroke="#63b8ff" d="M1695.9,-172.91C1556.6,-170.39 1050.23,-159.31 892.67,-129 866.86,-124.04 862.42,-115.22 836.67,-110 729.23,-88.21 430.64,-142.02 344.67,-74 331.23,-63.37 326.65,-43.76 325.17,-29.14"/>
<polygon fill="#63b8ff" stroke="#63b8ff" points="328.66,-28.92 324.55,-19.15 321.68,-29.35 328.66,-28.92"/>
</a>
</g>
</g>
<!-- Node14 -->
<g id="Node000014" class="node">
<title>Node14</title>
<g id="a_Node000014"><a xlink:title=" ">
<polygon fill="#e0e0e0" stroke="#999999" points="1811.17,-129 1652.17,-129 1652.17,-110 1811.17,-110 1811.17,-129"/>
<text text-anchor="middle" x="1731.67" y="-117" font-family="Helvetica,sans-Serif" font-size="10.00">../vgeometry/vgeometrydef.h</text>
</a>
</g>
</g>
<!-- Node13&#45;&gt;Node14 -->
<g id="edge15_Node000013_Node000014" class="edge">
<title>Node13&#45;&gt;Node14</title>
<g id="a_edge15_Node000013_Node000014"><a xlink:title=" ">
<path fill="none" stroke="#63b8ff" d="M1731.67,-164.75C1731.67,-157.8 1731.67,-147.85 1731.67,-139.13"/>
<polygon fill="#63b8ff" stroke="#63b8ff" points="1735.17,-139.09 1731.67,-129.09 1728.17,-139.09 1735.17,-139.09"/>
</a>
</g>
</g>
<!-- Node15 -->
<g id="Node000015" class="node">
<title>Node15</title>
<g id="a_Node000015"><a xlink:title=" ">
<polygon fill="#e0e0e0" stroke="#999999" points="1956.17,-129 1829.17,-129 1829.17,-110 1956.17,-110 1956.17,-129"/>
<text text-anchor="middle" x="1892.67" y="-117" font-family="Helvetica,sans-Serif" font-size="10.00">../qmuparser/qmudef.h</text>
</a>
</g>
</g>
<!-- Node13&#45;&gt;Node15 -->
<g id="edge16_Node000013_Node000015" class="edge">
<title>Node13&#45;&gt;Node15</title>
<g id="a_edge16_Node000013_Node000015"><a xlink:title=" ">
<path fill="none" stroke="#63b8ff" d="M1757.53,-164.98C1784.45,-156.13 1826.78,-142.19 1856.89,-132.28"/>
<polygon fill="#63b8ff" stroke="#63b8ff" points="1858.19,-135.53 1866.6,-129.08 1856,-128.88 1858.19,-135.53"/>
</a>
</g>
</g>
<!-- Node16 -->
<g id="Node000016" class="node">
<title>Node16</title>
<g id="a_Node000016"><a xlink:title=" ">
<polygon fill="#e0e0e0" stroke="#999999" points="2056.67,-129 1974.67,-129 1974.67,-110 2056.67,-110 2056.67,-129"/>
<text text-anchor="middle" x="2015.67" y="-117" font-family="Helvetica,sans-Serif" font-size="10.00">../vmisc/def.h</text>
</a>
</g>
</g>
<!-- Node13&#45;&gt;Node16 -->
<g id="edge17_Node000013_Node000016" class="edge">
<title>Node13&#45;&gt;Node16</title>
<g id="a_edge17_Node000013_Node000016"><a xlink:title=" ">
<path fill="none" stroke="#63b8ff" d="M1767.35,-166.84C1817.1,-157.56 1907.59,-140.67 1964.51,-130.05"/>
<polygon fill="#63b8ff" stroke="#63b8ff" points="1965.2,-133.48 1974.38,-128.2 1963.91,-126.6 1965.2,-133.48"/>
</a>
</g>
</g>
<!-- Node19&#45;&gt;Node9 -->
<g id="edge26_Node000019_Node000009" class="edge">
<title>Node19&#45;&gt;Node9</title>
<g id="a_edge26_Node000019_Node000009"><a xlink:title=" ">
<path fill="none" stroke="#63b8ff" d="M1245,-170.17C1144.33,-160.72 863.95,-134.11 844.67,-129 824.47,-123.65 821.94,-115.06 801.67,-110 589.81,-57.1 528.24,-101.88 311.67,-74 310.21,-73.81 308.72,-73.61 307.22,-73.39"/>
<polygon fill="#63b8ff" stroke="#63b8ff" points="307.69,-69.92 297.27,-71.81 306.59,-76.84 307.69,-69.92"/>
</a>
</g>
</g>
<!-- Node20 -->
<g id="Node000020" class="node">
<title>Node20</title>
<g id="a_Node000020"><a xlink:title=" ">
<polygon fill="#e0e0e0" stroke="#999999" points="1440.67,-74 1360.67,-74 1360.67,-55 1440.67,-55 1440.67,-74"/>
<text text-anchor="middle" x="1400.67" y="-62" font-family="Helvetica,sans-Serif" font-size="10.00">QMetaObject</text>
</a>
</g>
</g>
<!-- Node19&#45;&gt;Node20 -->
<g id="edge21_Node000019_Node000020" class="edge">
<title>Node19&#45;&gt;Node20</title>
<g id="a_edge21_Node000019_Node000020"><a xlink:title=" ">
<path fill="none" stroke="#63b8ff" d="M1316.22,-168.16C1340.59,-162.6 1371.67,-151.38 1389.67,-129 1399.64,-116.6 1401.92,-98.39 1401.99,-84.64"/>
<polygon fill="#63b8ff" stroke="#63b8ff" points="1405.48,-84.25 1401.64,-74.37 1398.48,-84.49 1405.48,-84.25"/>
</a>
</g>
</g>
<!-- Node21 -->
<g id="Node000021" class="node">
<title>Node21</title>
<g id="a_Node000021"><a xlink:title=" ">
<polygon fill="#e0e0e0" stroke="#999999" points="1514.67,-74 1458.67,-74 1458.67,-55 1514.67,-55 1514.67,-74"/>
<text text-anchor="middle" x="1486.67" y="-62" font-family="Helvetica,sans-Serif" font-size="10.00">QObject</text>
</a>
</g>
</g>
<!-- Node19&#45;&gt;Node21 -->
<g id="edge22_Node000019_Node000021" class="edge">
<title>Node19&#45;&gt;Node21</title>
<g id="a_edge22_Node000019_Node000021"><a xlink:title=" ">
<path fill="none" stroke="#63b8ff" d="M1314.89,-164.93C1341.24,-157.54 1378.05,-145.45 1407.67,-129 1431.55,-115.73 1455.52,-95.2 1470.69,-81.1"/>
<polygon fill="#63b8ff" stroke="#63b8ff" points="1473.31,-83.44 1478.15,-74.01 1468.49,-78.36 1473.31,-83.44"/>
</a>
</g>
</g>
<!-- Node22 -->
<g id="Node000022" class="node">
<title>Node22</title>
<g id="a_Node000022"><a xlink:title=" ">
<polygon fill="#e0e0e0" stroke="#999999" points="1596.67,-74 1532.67,-74 1532.67,-55 1596.67,-55 1596.67,-74"/>
<text text-anchor="middle" x="1564.67" y="-62" font-family="Helvetica,sans-Serif" font-size="10.00">QSettings</text>
</a>
</g>
</g>
<!-- Node19&#45;&gt;Node22 -->
<g id="edge23_Node000019_Node000022" class="edge">
<title>Node19&#45;&gt;Node22</title>
<g id="a_edge23_Node000019_Node000022"><a xlink:title=" ">
<path fill="none" stroke="#63b8ff" d="M1316.41,-165.04C1347.99,-157.13 1395.06,-144.26 1434.67,-129 1472.7,-114.34 1514.75,-92.75 1540.44,-78.91"/>
<polygon fill="#63b8ff" stroke="#63b8ff" points="1542.33,-81.87 1549.44,-74.01 1538.99,-75.72 1542.33,-81.87"/>
</a>
</g>
</g>
<!-- Node23 -->
<g id="Node000023" class="node">
<title>Node23</title>
<g id="a_Node000023"><a xlink:title=" ">
<polygon fill="#e0e0e0" stroke="#999999" points="1094.17,-74 1041.17,-74 1041.17,-55 1094.17,-55 1094.17,-74"/>
<text text-anchor="middle" x="1067.67" y="-62" font-family="Helvetica,sans-Serif" font-size="10.00">QString</text>
</a>
</g>
</g>
<!-- Node19&#45;&gt;Node23 -->
<g id="edge24_Node000019_Node000023" class="edge">
<title>Node19&#45;&gt;Node23</title>
<g id="a_edge24_Node000019_Node000023"><a xlink:title=" ">
<path fill="none" stroke="#63b8ff" d="M1263.59,-164.84C1226.35,-145.96 1137.59,-100.96 1093.47,-78.59"/>
<polygon fill="#63b8ff" stroke="#63b8ff" points="1095.02,-75.45 1084.52,-74.05 1091.86,-81.69 1095.02,-75.45"/>
</a>
</g>
</g>
<!-- Node24 -->
<g id="Node000024" class="node">
<title>Node24</title>
<g id="a_Node000024"><a xlink:title=" ">
<polygon fill="#e0e0e0" stroke="#999999" points="1360.17,-19 1301.17,-19 1301.17,0 1360.17,0 1360.17,-19"/>
<text text-anchor="middle" x="1330.67" y="-7" font-family="Helvetica,sans-Serif" font-size="10.00">QtGlobal</text>
</a>
</g>
</g>
<!-- Node19&#45;&gt;Node24 -->
<g id="edge25_Node000019_Node000024" class="edge">
<title>Node19&#45;&gt;Node24</title>
<g id="a_edge25_Node000019_Node000024"><a xlink:title=" ">
<path fill="none" stroke="#63b8ff" d="M1316.36,-168.23C1393.77,-155.97 1572.76,-122.8 1605.67,-74 1610.39,-67 1611.14,-61.43 1605.67,-55 1575.92,-20.06 1439.18,-12.47 1370.4,-10.88"/>
<polygon fill="#63b8ff" stroke="#63b8ff" points="1370.44,-7.38 1360.37,-10.68 1370.3,-14.38 1370.44,-7.38"/>
</a>
</g>
</g>
<!-- Node25 -->
<g id="Node000025" class="node">
<title>Node25</title>
<g id="a_Node000025"><a xlink:href="../../d4/da4/def_8h.html" target="_top" xlink:title=" ">
<polygon fill="white" stroke="#666666" points="983.67,-129 901.67,-129 901.67,-110 983.67,-110 983.67,-129"/>
<text text-anchor="middle" x="942.67" y="-117" font-family="Helvetica,sans-Serif" font-size="10.00">../vmisc/def.h</text>
</a>
</g>
</g>
<!-- Node19&#45;&gt;Node25 -->
<g id="edge27_Node000019_Node000025" class="edge">
<title>Node19&#45;&gt;Node25</title>
<g id="a_edge27_Node000019_Node000025"><a xlink:title=" ">
<path fill="none" stroke="#63b8ff" d="M1245.13,-167.93C1185.08,-158.51 1063.29,-139.42 993.98,-128.55"/>
<polygon fill="#63b8ff" stroke="#63b8ff" points="994.15,-125.03 983.73,-126.94 993.07,-131.95 994.15,-125.03"/>
</a>
</g>
</g>
<!-- Node34 -->
<g id="Node000034" class="node">
<title>Node34</title>
<g id="a_Node000034"><a xlink:href="../../de/dec/vbank_8h.html" target="_top" xlink:title=" ">
<polygon fill="#fff0f0" stroke="red" points="1304.67,-74 1200.67,-74 1200.67,-55 1304.67,-55 1304.67,-74"/>
<text text-anchor="middle" x="1252.67" y="-62" font-family="Helvetica,sans-Serif" font-size="10.00">../vlayout/vbank.h</text>
</a>
</g>
</g>
<!-- Node19&#45;&gt;Node34 -->
<g id="edge37_Node000019_Node000034" class="edge">
<title>Node19&#45;&gt;Node34</title>
<g id="a_edge37_Node000019_Node000034"><a xlink:title=" ">
<path fill="none" stroke="#63b8ff" d="M1275.1,-164.69C1269.89,-155.98 1262.38,-142.1 1258.67,-129 1254.54,-114.48 1253.11,-97.43 1252.67,-84.65"/>
<polygon fill="#63b8ff" stroke="#63b8ff" points="1256.16,-84.25 1252.5,-74.31 1249.16,-84.37 1256.16,-84.25"/>
</a>
</g>
</g>
<!-- Node38 -->
<g id="Node000038" class="node">
<title>Node38</title>
<g id="a_Node000038"><a xlink:href="../../d4/d5c/vcommonsettings_8h.html" target="_top" xlink:title=" ">
<polygon fill="#fff0f0" stroke="red" points="1380.17,-129 1267.17,-129 1267.17,-110 1380.17,-110 1380.17,-129"/>
<text text-anchor="middle" x="1323.67" y="-117" font-family="Helvetica,sans-Serif" font-size="10.00">vcommonsettings.h</text>
</a>
</g>
</g>
<!-- Node19&#45;&gt;Node38 -->
<g id="edge41_Node000019_Node000038" class="edge">
<title>Node19&#45;&gt;Node38</title>
<g id="a_edge41_Node000019_Node000038"><a xlink:title=" ">
<path fill="none" stroke="#63b8ff" d="M1287.77,-164.75C1293.84,-157.26 1302.75,-146.28 1310.18,-137.13"/>
<polygon fill="#63b8ff" stroke="#63b8ff" points="1313.11,-139.06 1316.7,-129.09 1307.68,-134.65 1313.11,-139.06"/>
</a>
</g>
</g>
<!-- Node25&#45;&gt;Node23 -->
<g id="edge30_Node000025_Node000023" class="edge">
<title>Node25&#45;&gt;Node23</title>
<g id="a_edge30_Node000025_Node000023"><a xlink:title=" ">
<path fill="none" stroke="#63b8ff" d="M962.75,-109.98C983.04,-101.38 1014.62,-87.99 1037.84,-78.15"/>
<polygon fill="#63b8ff" stroke="#63b8ff" points="1039.38,-81.3 1047.22,-74.17 1036.64,-74.85 1039.38,-81.3"/>
</a>
</g>
</g>
<!-- Node25&#45;&gt;Node24 -->
<g id="edge33_Node000025_Node000024" class="edge">
<title>Node25&#45;&gt;Node24</title>
<g id="a_edge33_Node000025_Node000024"><a xlink:title=" ">
<path fill="none" stroke="#63b8ff" d="M951.76,-109.79C967.07,-95.68 999.6,-68.1 1032.67,-55 1139.49,-12.69 1175.42,-38.4 1288.67,-19 1289.41,-18.87 1290.16,-18.74 1290.91,-18.61"/>
<polygon fill="#63b8ff" stroke="#63b8ff" points="1291.69,-22.03 1300.88,-16.76 1290.41,-15.14 1291.69,-22.03"/>
</a>
</g>
</g>
<!-- Node26 -->
<g id="Node000026" class="node">
<title>Node26</title>
<g id="a_Node000026"><a xlink:title=" ">
<polygon fill="#e0e0e0" stroke="#999999" points="794.67,-74 674.67,-74 674.67,-55 794.67,-55 794.67,-74"/>
<text text-anchor="middle" x="734.67" y="-62" font-family="Helvetica,sans-Serif" font-size="10.00">qcompilerdetection.h</text>
</a>
</g>
</g>
<!-- Node25&#45;&gt;Node26 -->
<g id="edge28_Node000025_Node000026" class="edge">
<title>Node25&#45;&gt;Node26</title>
<g id="a_edge28_Node000025_Node000026"><a xlink:title=" ">
<path fill="none" stroke="#63b8ff" d="M909.25,-109.98C873.72,-100.93 817.39,-86.58 778.37,-76.64"/>
<polygon fill="#63b8ff" stroke="#63b8ff" points="778.9,-73.16 768.35,-74.08 777.17,-79.94 778.9,-73.16"/>
</a>
</g>
</g>
<!-- Node27 -->
<g id="Node000027" class="node">
<title>Node27</title>
<g id="a_Node000027"><a xlink:title=" ">
<polygon fill="#e0e0e0" stroke="#999999" points="862.67,-74 812.67,-74 812.67,-55 862.67,-55 862.67,-74"/>
<text text-anchor="middle" x="837.67" y="-62" font-family="Helvetica,sans-Serif" font-size="10.00">QLineF</text>
</a>
</g>
</g>
<!-- Node25&#45;&gt;Node27 -->
<g id="edge29_Node000025_Node000027" class="edge">
<title>Node25&#45;&gt;Node27</title>
<g id="a_edge29_Node000025_Node000027"><a xlink:title=" ">
<path fill="none" stroke="#63b8ff" d="M925.8,-109.98C909.06,-101.54 883.17,-88.47 863.77,-78.68"/>
<polygon fill="#63b8ff" stroke="#63b8ff" points="865.35,-75.55 854.84,-74.17 862.19,-81.8 865.35,-75.55"/>
</a>
</g>
</g>
<!-- Node28 -->
<g id="Node000028" class="node">
<title>Node28</title>
<g id="a_Node000028"><a xlink:title=" ">
<polygon fill="#e0e0e0" stroke="#999999" points="1182.67,-74 1112.67,-74 1112.67,-55 1182.67,-55 1182.67,-74"/>
<text text-anchor="middle" x="1147.67" y="-62" font-family="Helvetica,sans-Serif" font-size="10.00">QStringList</text>
</a>
</g>
</g>
<!-- Node25&#45;&gt;Node28 -->
<g id="edge31_Node000025_Node000028" class="edge">
<title>Node25&#45;&gt;Node28</title>
<g id="a_edge31_Node000025_Node000028"><a xlink:title=" ">
<path fill="none" stroke="#63b8ff" d="M975.6,-109.98C1010.62,-100.93 1066.13,-86.58 1104.59,-76.64"/>
<polygon fill="#63b8ff" stroke="#63b8ff" points="1105.66,-79.97 1114.47,-74.08 1103.91,-73.2 1105.66,-79.97"/>
</a>
</g>
</g>
<!-- Node29 -->
<g id="Node000029" class="node">
<title>Node29</title>
<g id="a_Node000029"><a xlink:title=" ">
<polygon fill="#e0e0e0" stroke="#999999" points="910.17,-74 881.17,-74 881.17,-55 910.17,-55 910.17,-74"/>
<text text-anchor="middle" x="895.67" y="-62" font-family="Helvetica,sans-Serif" font-size="10.00">Qt</text>
</a>
</g>
</g>
<!-- Node25&#45;&gt;Node29 -->
<g id="edge32_Node000025_Node000029" class="edge">
<title>Node25&#45;&gt;Node29</title>
<g id="a_edge32_Node000025_Node000029"><a xlink:title=" ">
<path fill="none" stroke="#63b8ff" d="M934.9,-109.75C928.2,-102.18 918.32,-91.05 910.16,-81.84"/>
<polygon fill="#63b8ff" stroke="#63b8ff" points="912.54,-79.25 903.28,-74.09 907.3,-83.89 912.54,-79.25"/>
</a>
</g>
</g>
<!-- Node30 -->
<g id="Node000030" class="node">
<title>Node30</title>
<g id="a_Node000030"><a xlink:title=" ">
<polygon fill="#e0e0e0" stroke="#999999" points="984.67,-74 928.67,-74 928.67,-55 984.67,-55 984.67,-74"/>
<text text-anchor="middle" x="956.67" y="-62" font-family="Helvetica,sans-Serif" font-size="10.00">QPrinter</text>
</a>
</g>
</g>
<!-- Node25&#45;&gt;Node30 -->
<g id="edge34_Node000025_Node000030" class="edge">
<title>Node25&#45;&gt;Node30</title>
<g id="a_edge34_Node000025_Node000030"><a xlink:title=" ">
<path fill="none" stroke="#63b8ff" d="M944.98,-109.75C946.83,-102.72 949.5,-92.62 951.82,-83.84"/>
<polygon fill="#63b8ff" stroke="#63b8ff" points="955.23,-84.65 954.4,-74.09 948.46,-82.86 955.23,-84.65"/>
</a>
</g>
</g>
<!-- Node31 -->
<g id="Node000031" class="node">
<title>Node31</title>
<g id="a_Node000031"><a xlink:title=" ">
<polygon fill="#e0e0e0" stroke="#999999" points="555.17,-74 504.17,-74 504.17,-55 555.17,-55 555.17,-74"/>
<text text-anchor="middle" x="529.67" y="-62" font-family="Helvetica,sans-Serif" font-size="10.00">csignal</text>
</a>
</g>
</g>
<!-- Node25&#45;&gt;Node31 -->
<g id="edge35_Node000025_Node000031" class="edge">
<title>Node25&#45;&gt;Node31</title>
<g id="a_edge35_Node000025_Node000031"><a xlink:title=" ">
<path fill="none" stroke="#63b8ff" d="M901.58,-113.48C892.09,-112.33 882.03,-111.12 872.67,-110 739.02,-94.08 702.04,-98.1 565.23,-73.88"/>
<polygon fill="#63b8ff" stroke="#63b8ff" points="565.66,-70.4 555.2,-72.08 564.43,-77.29 565.66,-70.4"/>
</a>
</g>
</g>
<!-- Node32 -->
<g id="Node000032" class="node">
<title>Node32</title>
<g id="a_Node000032"><a xlink:href="../../d4/d82/debugbreak_8h.html" target="_top" xlink:title=" ">
<polygon fill="#fff0f0" stroke="red" points="656.17,-74 573.17,-74 573.17,-55 656.17,-55 656.17,-74"/>
<text text-anchor="middle" x="614.67" y="-62" font-family="Helvetica,sans-Serif" font-size="10.00">debugbreak.h</text>
</a>
</g>
</g>
<!-- Node25&#45;&gt;Node32 -->
<g id="edge36_Node000025_Node000032" class="edge">
<title>Node25&#45;&gt;Node32</title>
<g id="a_edge36_Node000025_Node000032"><a xlink:title=" ">
<path fill="none" stroke="#63b8ff" d="M901.35,-111.94C849.17,-103.64 756.32,-88.81 666.5,-74.13"/>
<polygon fill="#63b8ff" stroke="#63b8ff" points="666.84,-70.64 656.41,-72.48 665.71,-77.55 666.84,-70.64"/>
</a>
</g>
</g>
<!-- Node34&#45;&gt;Node24 -->
<g id="edge40_Node000034_Node000024" class="edge">
<title>Node34&#45;&gt;Node24</title>
<g id="a_edge40_Node000034_Node000024"><a xlink:title=" ">
<path fill="none" stroke="#63b8ff" d="M1265.2,-54.98C1277.07,-46.92 1295.13,-34.65 1309.28,-25.03"/>
<polygon fill="#63b8ff" stroke="#63b8ff" points="1311.6,-27.69 1317.91,-19.17 1307.67,-21.9 1311.6,-27.69"/>
</a>
</g>
</g>
<!-- Node35 -->
<g id="Node000035" class="node">
<title>Node35</title>
<g id="a_Node000035"><a xlink:title=" ">
<polygon fill="#e0e0e0" stroke="#999999" points="1279.17,-19 1230.17,-19 1230.17,0 1279.17,0 1279.17,-19"/>
<text text-anchor="middle" x="1254.67" y="-7" font-family="Helvetica,sans-Serif" font-size="10.00">QHash</text>
</a>
</g>
</g>
<!-- Node34&#45;&gt;Node35 -->
<g id="edge38_Node000034_Node000035" class="edge">
<title>Node34&#45;&gt;Node35</title>
<g id="a_edge38_Node000034_Node000035"><a xlink:title=" ">
<path fill="none" stroke="#63b8ff" d="M1253,-54.75C1253.26,-47.8 1253.63,-37.85 1253.96,-29.13"/>
<polygon fill="#63b8ff" stroke="#63b8ff" points="1257.46,-29.21 1254.34,-19.09 1250.47,-28.95 1257.46,-29.21"/>
</a>
</g>
</g>
<!-- Node36 -->
<g id="Node000036" class="node">
<title>Node36</title>
<g id="a_Node000036"><a xlink:title=" ">
<polygon fill="#e0e0e0" stroke="#999999" points="1211.67,-19 1159.67,-19 1159.67,0 1211.67,0 1211.67,-19"/>
<text text-anchor="middle" x="1185.67" y="-7" font-family="Helvetica,sans-Serif" font-size="10.00">QRectF</text>
</a>
</g>
</g>
<!-- Node34&#45;&gt;Node36 -->
<g id="edge39_Node000034_Node000036" class="edge">
<title>Node34&#45;&gt;Node36</title>
<g id="a_edge39_Node000034_Node000036"><a xlink:title=" ">
<path fill="none" stroke="#63b8ff" d="M1241.9,-54.98C1231.9,-47.07 1216.78,-35.11 1204.73,-25.58"/>
<polygon fill="#63b8ff" stroke="#63b8ff" points="1206.64,-22.63 1196.63,-19.17 1202.3,-28.12 1206.64,-22.63"/>
</a>
</g>
</g>
<!-- Node38&#45;&gt;Node20 -->
<g id="edge42_Node000038_Node000020" class="edge">
<title>Node38&#45;&gt;Node20</title>
<g id="a_edge42_Node000038_Node000020"><a xlink:title=" ">
<path fill="none" stroke="#63b8ff" d="M1336.04,-109.98C1347.75,-101.92 1365.59,-89.65 1379.55,-80.03"/>
<polygon fill="#63b8ff" stroke="#63b8ff" points="1381.82,-82.72 1388.07,-74.17 1377.85,-76.96 1381.82,-82.72"/>
</a>
</g>
</g>
<!-- Node38&#45;&gt;Node21 -->
<g id="edge43_Node000038_Node000021" class="edge">
<title>Node38&#45;&gt;Node21</title>
<g id="a_edge43_Node000038_Node000021"><a xlink:title=" ">
<path fill="none" stroke="#63b8ff" d="M1349.85,-109.98C1377.1,-101.13 1419.97,-87.19 1450.45,-77.28"/>
<polygon fill="#63b8ff" stroke="#63b8ff" points="1451.84,-80.5 1460.27,-74.08 1449.68,-73.85 1451.84,-80.5"/>
</a>
</g>
</g>
<!-- Node38&#45;&gt;Node22 -->
<g id="edge44_Node000038_Node000022" class="edge">
<title>Node38&#45;&gt;Node22</title>
<g id="a_edge44_Node000038_Node000022"><a xlink:title=" ">
<path fill="none" stroke="#63b8ff" d="M1362.39,-109.98C1406.3,-100.33 1477.65,-84.64 1522.82,-74.7"/>
<polygon fill="#63b8ff" stroke="#63b8ff" points="1523.58,-78.12 1532.59,-72.55 1522.08,-71.28 1523.58,-78.12"/>
</a>
</g>
</g>
<!-- Node38&#45;&gt;Node23 -->
<g id="edge45_Node000038_Node000023" class="edge">
<title>Node38&#45;&gt;Node23</title>
<g id="a_edge45_Node000038_Node000023"><a xlink:title=" ">
<path fill="none" stroke="#63b8ff" d="M1279.33,-109.97C1236.92,-101.71 1170.93,-88.61 1104.22,-74.06"/>
<polygon fill="#63b8ff" stroke="#63b8ff" points="1104.9,-70.63 1094.38,-71.91 1103.4,-77.47 1104.9,-70.63"/>
</a>
</g>
</g>
<!-- Node38&#45;&gt;Node24 -->
<g id="edge47_Node000038_Node000024" class="edge">
<title>Node38&#45;&gt;Node24</title>
<g id="a_edge47_Node000038_Node000024"><a xlink:title=" ">
<path fill="none" stroke="#63b8ff" d="M1324.24,-109.66C1325.37,-92.17 1327.92,-52.8 1329.45,-29.27"/>
<polygon fill="#63b8ff" stroke="#63b8ff" points="1332.95,-29.36 1330.1,-19.16 1325.96,-28.91 1332.95,-29.36"/>
</a>
</g>
</g>
<!-- Node38&#45;&gt;Node28 -->
<g id="edge46_Node000038_Node000028" class="edge">
<title>Node38&#45;&gt;Node28</title>
<g id="a_edge46_Node000038_Node000028"><a xlink:title=" ">
<path fill="none" stroke="#63b8ff" d="M1295.39,-109.98C1265.71,-101.05 1218.88,-86.94 1185.91,-77.02"/>
<polygon fill="#63b8ff" stroke="#63b8ff" points="1186.75,-73.61 1176.16,-74.08 1184.73,-80.32 1186.75,-73.61"/>
</a>
</g>
</g>
<!-- Node38&#45;&gt;Node34 -->
<g id="edge48_Node000038_Node000034" class="edge">
<title>Node38&#45;&gt;Node34</title>
<g id="a_edge48_Node000038_Node000034"><a xlink:title=" ">
<path fill="none" stroke="#63b8ff" d="M1312.26,-109.98C1301.56,-102 1285.32,-89.88 1272.5,-80.31"/>
<polygon fill="#63b8ff" stroke="#63b8ff" points="1274.39,-77.35 1264.28,-74.17 1270.2,-82.96 1274.39,-77.35"/>
</a>
</g>
</g>
<!-- Node41&#45;&gt;Node2 -->
<g id="edge55_Node000041_Node000002" class="edge">
<title>Node41&#45;&gt;Node2</title>
<g id="a_edge55_Node000041_Node000002"><a xlink:title=" ">
<path fill="none" stroke="#63b8ff" d="M472.57,-168.18C401.41,-159.17 256.49,-140.84 168.54,-129.72"/>
<polygon fill="#63b8ff" stroke="#63b8ff" points="168.73,-126.21 158.37,-128.43 167.85,-133.16 168.73,-126.21"/>
</a>
</g>
</g>
<!-- Node42 -->
<g id="Node000042" class="node">
<title>Node42</title>
<g id="a_Node000042"><a xlink:title=" ">
<polygon fill="#e0e0e0" stroke="#999999" points="508.67,-129 450.67,-129 450.67,-110 508.67,-110 508.67,-129"/>
<text text-anchor="middle" x="479.67" y="-117" font-family="Helvetica,sans-Serif" font-size="10.00">memory</text>
</a>
</g>
</g>
<!-- Node41&#45;&gt;Node42 -->
<g id="edge50_Node000041_Node000042" class="edge">
<title>Node41&#45;&gt;Node42</title>
<g id="a_edge50_Node000041_Node000042"><a xlink:title=" ">
<path fill="none" stroke="#63b8ff" d="M508.89,-164.75C504.04,-157.42 496.99,-146.73 491.02,-137.7"/>
<polygon fill="#63b8ff" stroke="#63b8ff" points="493.77,-135.5 485.34,-129.09 487.93,-139.36 493.77,-135.5"/>
</a>
</g>
</g>
<!-- Node43 -->
<g id="Node000043" class="node">
<title>Node43</title>
<g id="a_Node000043"><a xlink:title=" ">
<polygon fill="#e0e0e0" stroke="#999999" points="574.17,-129 527.17,-129 527.17,-110 574.17,-110 574.17,-129"/>
<text text-anchor="middle" x="550.67" y="-117" font-family="Helvetica,sans-Serif" font-size="10.00">vector</text>
</a>
</g>
</g>
<!-- Node41&#45;&gt;Node43 -->
<g id="edge51_Node000041_Node000043" class="edge">
<title>Node41&#45;&gt;Node43</title>
<g id="a_edge51_Node000041_Node000043"><a xlink:title=" ">
<path fill="none" stroke="#63b8ff" d="M520.61,-164.75C525.64,-157.34 533,-146.5 539.18,-137.41"/>
<polygon fill="#63b8ff" stroke="#63b8ff" points="542.11,-139.33 544.83,-129.09 536.32,-135.39 542.11,-139.33"/>
</a>
</g>
</g>
<!-- Node44 -->
<g id="Node000044" class="node">
<title>Node44</title>
<g id="a_Node000044"><a xlink:title=" ">
<polygon fill="#e0e0e0" stroke="#999999" points="672.67,-129 592.67,-129 592.67,-110 672.67,-110 672.67,-129"/>
<text text-anchor="middle" x="632.67" y="-117" font-family="Helvetica,sans-Serif" font-size="10.00">QTextStream</text>
</a>
</g>
</g>
<!-- Node41&#45;&gt;Node44 -->
<g id="edge52_Node000041_Node000044" class="edge">
<title>Node41&#45;&gt;Node44</title>
<g id="a_edge52_Node000041_Node000044"><a xlink:title=" ">
<path fill="none" stroke="#63b8ff" d="M533.62,-164.98C552.69,-156.42 582.33,-143.11 604.21,-133.28"/>
<polygon fill="#63b8ff" stroke="#63b8ff" points="605.67,-136.46 613.36,-129.17 602.81,-130.07 605.67,-136.46"/>
</a>
</g>
</g>
<!-- Node45 -->
<g id="Node000045" class="node">
<title>Node45</title>
<g id="a_Node000045"><a xlink:title=" ">
<polygon fill="#e0e0e0" stroke="#999999" points="792.17,-129 691.17,-129 691.17,-110 792.17,-110 792.17,-129"/>
<text text-anchor="middle" x="741.67" y="-117" font-family="Helvetica,sans-Serif" font-size="10.00">QCoreApplication</text>
</a>
</g>
</g>
<!-- Node41&#45;&gt;Node45 -->
<g id="edge53_Node000041_Node000045" class="edge">
<title>Node41&#45;&gt;Node45</title>
<g id="a_edge53_Node000041_Node000045"><a xlink:title=" ">
<path fill="none" stroke="#63b8ff" d="M551.14,-164.98C590.24,-155.86 652.43,-141.33 695.06,-131.38"/>
<polygon fill="#63b8ff" stroke="#63b8ff" points="695.97,-134.76 704.91,-129.08 694.37,-127.95 695.97,-134.76"/>
</a>
</g>
</g>
<!-- Node46 -->
<g id="Node000046" class="node">
<title>Node46</title>
<g id="a_Node000046"><a xlink:title=" ">
<polygon fill="#e0e0e0" stroke="#999999" points="301.17,-129 176.17,-129 176.17,-110 301.17,-110 301.17,-129"/>
<text text-anchor="middle" x="238.67" y="-117" font-family="Helvetica,sans-Serif" font-size="10.00">QCommandLineParser</text>
</a>
</g>
</g>
<!-- Node41&#45;&gt;Node46 -->
<g id="edge54_Node000041_Node000046" class="edge">
<title>Node41&#45;&gt;Node46</title>
<g id="a_edge54_Node000041_Node000046"><a xlink:title=" ">
<path fill="none" stroke="#63b8ff" d="M472.45,-165.39C424.35,-156.16 345.64,-141.04 293,-130.93"/>
<polygon fill="#63b8ff" stroke="#63b8ff" points="293.65,-127.49 283.17,-129.05 292.33,-134.37 293.65,-127.49"/>
</a>
</g>
</g>
<!-- Node47 -->
<g id="Node000047" class="node">
<title>Node47</title>
<g id="a_Node000047"><a xlink:title=" ">
<polygon fill="#e0e0e0" stroke="#999999" points="432.17,-129 319.17,-129 319.17,-110 432.17,-110 432.17,-129"/>
<text text-anchor="middle" x="375.67" y="-117" font-family="Helvetica,sans-Serif" font-size="10.00">../vmisc/vsysexits.h</text>
</a>
</g>
</g>
<!-- Node41&#45;&gt;Node47 -->
<g id="edge56_Node000041_Node000047" class="edge">
<title>Node41&#45;&gt;Node47</title>
<g id="a_edge56_Node000041_Node000047"><a xlink:title=" ">
<path fill="none" stroke="#63b8ff" d="M492.33,-164.98C469.47,-156.27 433.71,-142.63 407.8,-132.75"/>
<polygon fill="#63b8ff" stroke="#63b8ff" points="409,-129.46 398.4,-129.17 406.5,-136 409,-129.46"/>
</a>
</g>
</g>
</g>
</svg>
