<?xml version="1.0" encoding="UTF-8" standalone="no"?>
<!DOCTYPE svg PUBLIC "-//W3C//DTD SVG 1.1//EN"
 "http://www.w3.org/Graphics/SVG/1.1/DTD/svg11.dtd">
<!-- Generated by graphviz version 2.43.0 (0)
 -->
<!-- Title: src/app/seamly2d/core/vapplication.cpp Pages: 1 -->
<svg width="3145pt" height="313pt"
 viewBox="0.00 0.00 3144.82 313.00" xmlns="http://www.w3.org/2000/svg" xmlns:xlink="http://www.w3.org/1999/xlink">
<g id="graph0" class="graph" transform="scale(1 1) rotate(0) translate(4 309)">
<title>src/app/seamly2d/core/vapplication.cpp</title>
<!-- Node1 -->
<g id="Node000001" class="node">
<title>Node1</title>
<g id="a_Node000001"><a xlink:title=" ">
<polygon fill="#999999" stroke="#666666" points="2122.32,-305 1995.32,-305 1995.32,-275 2122.32,-275 2122.32,-305"/>
<text text-anchor="start" x="2003.32" y="-293" font-family="Helvetica,sans-Serif" font-size="10.00">src/app/seamly2d/core</text>
<text text-anchor="middle" x="2058.82" y="-282" font-family="Helvetica,sans-Serif" font-size="10.00">/vapplication.cpp</text>
</a>
</g>
</g>
<!-- Node2 -->
<g id="Node000002" class="node">
<title>Node2</title>
<g id="a_Node000002"><a xlink:href="../../d9/d02/vapplication_8h.html" target="_top" xlink:title=" ">
<polygon fill="white" stroke="#666666" points="341.82,-239 255.82,-239 255.82,-220 341.82,-220 341.82,-239"/>
<text text-anchor="middle" x="298.82" y="-227" font-family="Helvetica,sans-Serif" font-size="10.00">vapplication.h</text>
</a>
</g>
</g>
<!-- Node1&#45;&gt;Node2 -->
<g id="edge1_Node000001_Node000002" class="edge">
<title>Node1&#45;&gt;Node2</title>
<g id="a_edge1_Node000001_Node000002"><a xlink:title=" ">
<path fill="none" stroke="#63b8ff" d="M1995.15,-288.27C1728.48,-285.03 699.52,-270.78 351.97,-238.94"/>
<polygon fill="#63b8ff" stroke="#63b8ff" points="352.17,-235.44 341.89,-237.99 351.52,-242.41 352.17,-235.44"/>
</a>
</g>
</g>
<!-- Node9 -->
<g id="Node000009" class="node">
<title>Node9</title>
<g id="a_Node000009"><a xlink:title=" ">
<polygon fill="#e0e0e0" stroke="#999999" points="197.82,-184 21.82,-184 21.82,-165 197.82,-165 197.82,-184"/>
<text text-anchor="middle" x="109.82" y="-172" font-family="Helvetica,sans-Serif" font-size="10.00">../vwidgets/vmaingraphicsview.h</text>
</a>
</g>
</g>
<!-- Node1&#45;&gt;Node9 -->
<g id="edge38_Node000001_Node000009" class="edge">
<title>Node1&#45;&gt;Node9</title>
<g id="a_edge38_Node000001_Node000009"><a xlink:title=" ">
<path fill="none" stroke="#63b8ff" d="M1995.14,-288.77C1693.93,-287.47 419.53,-279.59 246.82,-239 204.09,-228.96 158.65,-204.89 132.32,-189.44"/>
<polygon fill="#63b8ff" stroke="#63b8ff" points="133.9,-186.3 123.53,-184.17 130.31,-192.31 133.9,-186.3"/>
</a>
</g>
</g>
<!-- Node22 -->
<g id="Node000022" class="node">
<title>Node22</title>
<g id="a_Node000022"><a xlink:title=" ">
<polygon fill="#e0e0e0" stroke="#999999" points="338.32,-74 309.32,-74 309.32,-55 338.32,-55 338.32,-74"/>
<text text-anchor="middle" x="323.82" y="-62" font-family="Helvetica,sans-Serif" font-size="10.00">Qt</text>
</a>
</g>
</g>
<!-- Node1&#45;&gt;Node22 -->
<g id="edge49_Node000001_Node000022" class="edge">
<title>Node1&#45;&gt;Node22</title>
<g id="a_edge49_Node000001_Node000022"><a xlink:title=" ">
<path fill="none" stroke="#63b8ff" d="M1995.25,-288.34C1688.64,-285.02 369.83,-269.1 188.82,-239 107.97,-225.55 61.36,-250.03 12.82,-184 -61.45,-82.99 213.62,-68.08 299.18,-65.88"/>
<polygon fill="#63b8ff" stroke="#63b8ff" points="299.37,-69.38 309.29,-65.66 299.22,-62.38 299.37,-69.38"/>
</a>
</g>
</g>
<!-- Node47 -->
<g id="Node000047" class="node">
<title>Node47</title>
<g id="a_Node000047"><a xlink:title=" ">
<polygon fill="#e0e0e0" stroke="#999999" points="567.32,-239 360.32,-239 360.32,-220 567.32,-220 567.32,-239"/>
<text text-anchor="middle" x="463.82" y="-227" font-family="Helvetica,sans-Serif" font-size="10.00">../ifc/exception/vexceptionobjecterror.h</text>
</a>
</g>
</g>
<!-- Node1&#45;&gt;Node47 -->
<g id="edge33_Node000001_Node000047" class="edge">
<title>Node1&#45;&gt;Node47</title>
<g id="a_edge33_Node000001_Node000047"><a xlink:title=" ">
<path fill="none" stroke="#63b8ff" d="M1995.22,-287.79C1791.07,-283.72 1133.72,-269.07 577.79,-239.03"/>
<polygon fill="#63b8ff" stroke="#63b8ff" points="577.74,-235.52 567.56,-238.47 577.36,-242.51 577.74,-235.52"/>
</a>
</g>
</g>
<!-- Node48 -->
<g id="Node000048" class="node">
<title>Node48</title>
<g id="a_Node000048"><a xlink:title=" ">
<polygon fill="#e0e0e0" stroke="#999999" points="767.82,-239 585.82,-239 585.82,-220 767.82,-220 767.82,-239"/>
<text text-anchor="middle" x="676.82" y="-227" font-family="Helvetica,sans-Serif" font-size="10.00">../ifc/exception/vexceptionbadid.h</text>
</a>
</g>
</g>
<!-- Node1&#45;&gt;Node48 -->
<g id="edge34_Node000001_Node000048" class="edge">
<title>Node1&#45;&gt;Node48</title>
<g id="a_edge34_Node000001_Node000048"><a xlink:title=" ">
<path fill="none" stroke="#63b8ff" d="M1995.07,-287.55C1809.26,-283.09 1251.92,-268.16 777.95,-239.04"/>
<polygon fill="#63b8ff" stroke="#63b8ff" points="778.02,-235.54 767.82,-238.41 777.59,-242.52 778.02,-235.54"/>
</a>
</g>
</g>
<!-- Node49 -->
<g id="Node000049" class="node">
<title>Node49</title>
<g id="a_Node000049"><a xlink:title=" ">
<polygon fill="#e0e0e0" stroke="#999999" points="1015.82,-239 785.82,-239 785.82,-220 1015.82,-220 1015.82,-239"/>
<text text-anchor="middle" x="900.82" y="-227" font-family="Helvetica,sans-Serif" font-size="10.00">../ifc/exception/vexceptionconversionerror.h</text>
</a>
</g>
</g>
<!-- Node1&#45;&gt;Node49 -->
<g id="edge35_Node000001_Node000049" class="edge">
<title>Node1&#45;&gt;Node49</title>
<g id="a_edge35_Node000001_Node000049"><a xlink:title=" ">
<path fill="none" stroke="#63b8ff" d="M1995.26,-286.37C1834.8,-279.64 1400.12,-260.81 1026.2,-239.07"/>
<polygon fill="#63b8ff" stroke="#63b8ff" points="1026.18,-235.56 1015.99,-238.47 1025.77,-242.55 1026.18,-235.56"/>
</a>
</g>
</g>
<!-- Node50 -->
<g id="Node000050" class="node">
<title>Node50</title>
<g id="a_Node000050"><a xlink:title=" ">
<polygon fill="#e0e0e0" stroke="#999999" points="1269.82,-239 1033.82,-239 1033.82,-220 1269.82,-220 1269.82,-239"/>
<text text-anchor="middle" x="1151.82" y="-227" font-family="Helvetica,sans-Serif" font-size="10.00">../ifc/exception/vexceptionemptyparameter.h</text>
</a>
</g>
</g>
<!-- Node1&#45;&gt;Node50 -->
<g id="edge36_Node000001_Node000050" class="edge">
<title>Node1&#45;&gt;Node50</title>
<g id="a_edge36_Node000001_Node000050"><a xlink:title=" ">
<path fill="none" stroke="#63b8ff" d="M1995.12,-284.98C1863.68,-276.66 1552.6,-256.92 1280.2,-239.09"/>
<polygon fill="#63b8ff" stroke="#63b8ff" points="1280.33,-235.59 1270.12,-238.43 1279.87,-242.57 1280.33,-235.59"/>
</a>
</g>
</g>
<!-- Node51 -->
<g id="Node000051" class="node">
<title>Node51</title>
<g id="a_Node000051"><a xlink:title=" ">
<polygon fill="#e0e0e0" stroke="#999999" points="1481.82,-239 1287.82,-239 1287.82,-220 1481.82,-220 1481.82,-239"/>
<text text-anchor="middle" x="1384.82" y="-227" font-family="Helvetica,sans-Serif" font-size="10.00">../ifc/exception/vexceptionwrongid.h</text>
</a>
</g>
</g>
<!-- Node1&#45;&gt;Node51 -->
<g id="edge37_Node000001_Node000051" class="edge">
<title>Node1&#45;&gt;Node51</title>
<g id="a_edge37_Node000001_Node000051"><a xlink:title=" ">
<path fill="none" stroke="#63b8ff" d="M1995.11,-283.47C1879.42,-273.43 1633.7,-252.1 1491.87,-239.79"/>
<polygon fill="#63b8ff" stroke="#63b8ff" points="1492.11,-236.3 1481.84,-238.92 1491.5,-243.27 1492.11,-236.3"/>
</a>
</g>
</g>
<!-- Node52 -->
<g id="Node000052" class="node">
<title>Node52</title>
<g id="a_Node000052"><a xlink:href="../../d1/d9f/seamly2d_2version_8h.html" target="_top" xlink:title=" ">
<polygon fill="white" stroke="#666666" points="1571.32,-239 1500.32,-239 1500.32,-220 1571.32,-220 1571.32,-239"/>
<text text-anchor="middle" x="1535.82" y="-227" font-family="Helvetica,sans-Serif" font-size="10.00">../version.h</text>
</a>
</g>
</g>
<!-- Node1&#45;&gt;Node52 -->
<g id="edge39_Node000001_Node000052" class="edge">
<title>Node1&#45;&gt;Node52</title>
<g id="a_edge39_Node000001_Node000052"><a xlink:title=" ">
<path fill="none" stroke="#63b8ff" d="M1995.06,-284.12C1905.04,-276.83 1735.35,-261.65 1581.88,-239.2"/>
<polygon fill="#63b8ff" stroke="#63b8ff" points="1582.2,-235.71 1571.79,-237.71 1581.17,-242.64 1582.2,-235.71"/>
</a>
</g>
</g>
<!-- Node54 -->
<g id="Node000054" class="node">
<title>Node54</title>
<g id="a_Node000054"><a xlink:title=" ">
<polygon fill="#e0e0e0" stroke="#999999" points="1692.32,-239 1589.32,-239 1589.32,-220 1692.32,-220 1692.32,-239"/>
<text text-anchor="middle" x="1640.82" y="-227" font-family="Helvetica,sans-Serif" font-size="10.00">../vmisc/logging.h</text>
</a>
</g>
</g>
<!-- Node1&#45;&gt;Node54 -->
<g id="edge41_Node000001_Node000054" class="edge">
<title>Node1&#45;&gt;Node54</title>
<g id="a_edge41_Node000001_Node000054"><a xlink:title=" ">
<path fill="none" stroke="#63b8ff" d="M1994.88,-280.05C1915.54,-268.95 1781.16,-250.14 1702.76,-239.17"/>
<polygon fill="#63b8ff" stroke="#63b8ff" points="1702.93,-235.66 1692.54,-237.74 1701.96,-242.59 1702.93,-235.66"/>
</a>
</g>
</g>
<!-- Node55 -->
<g id="Node000055" class="node">
<title>Node55</title>
<g id="a_Node000055"><a xlink:title=" ">
<polygon fill="#e0e0e0" stroke="#999999" points="1808.82,-239 1710.82,-239 1710.82,-220 1808.82,-220 1808.82,-239"/>
<text text-anchor="middle" x="1759.82" y="-227" font-family="Helvetica,sans-Serif" font-size="10.00">../vmisc/vmath.h</text>
</a>
</g>
</g>
<!-- Node1&#45;&gt;Node55 -->
<g id="edge42_Node000001_Node000055" class="edge">
<title>Node1&#45;&gt;Node55</title>
<g id="a_edge42_Node000001_Node000055"><a xlink:title=" ">
<path fill="none" stroke="#63b8ff" d="M1995.04,-276.52C1941.02,-265.95 1864.43,-250.97 1813.5,-241"/>
<polygon fill="#63b8ff" stroke="#63b8ff" points="1814.15,-237.56 1803.66,-239.08 1812.81,-244.43 1814.15,-237.56"/>
</a>
</g>
</g>
<!-- Node56 -->
<g id="Node000056" class="node">
<title>Node56</title>
<g id="a_Node000056"><a xlink:title=" ">
<polygon fill="#e0e0e0" stroke="#999999" points="1992.32,-239 1827.32,-239 1827.32,-220 1992.32,-220 1992.32,-239"/>
<text text-anchor="middle" x="1909.82" y="-227" font-family="Helvetica,sans-Serif" font-size="10.00">../qmuparser/qmuparsererror.h</text>
</a>
</g>
</g>
<!-- Node1&#45;&gt;Node56 -->
<g id="edge43_Node000001_Node000056" class="edge">
<title>Node1&#45;&gt;Node56</title>
<g id="a_edge43_Node000001_Node000056"><a xlink:title=" ">
<path fill="none" stroke="#63b8ff" d="M2023.13,-274.99C1998.16,-265.18 1965.12,-252.21 1941.16,-242.81"/>
<polygon fill="#63b8ff" stroke="#63b8ff" points="1942.41,-239.54 1931.82,-239.14 1939.85,-246.05 1942.41,-239.54"/>
</a>
</g>
</g>
<!-- Node57 -->
<g id="Node000057" class="node">
<title>Node57</title>
<g id="a_Node000057"><a xlink:href="../../d9/d53/mainwindow_8h.html" target="_top" xlink:title=" ">
<polygon fill="white" stroke="#666666" points="2106.82,-239 2010.82,-239 2010.82,-220 2106.82,-220 2106.82,-239"/>
<text text-anchor="middle" x="2058.82" y="-227" font-family="Helvetica,sans-Serif" font-size="10.00">../mainwindow.h</text>
</a>
</g>
</g>
<!-- Node1&#45;&gt;Node57 -->
<g id="edge44_Node000001_Node000057" class="edge">
<title>Node1&#45;&gt;Node57</title>
<g id="a_edge44_Node000001_Node000057"><a xlink:title=" ">
<path fill="none" stroke="#63b8ff" d="M2058.82,-274.84C2058.82,-267.21 2058.82,-257.7 2058.82,-249.45"/>
<polygon fill="#63b8ff" stroke="#63b8ff" points="2062.32,-249.27 2058.82,-239.27 2055.32,-249.27 2062.32,-249.27"/>
</a>
</g>
</g>
<!-- Node73 -->
<g id="Node000073" class="node">
<title>Node73</title>
<g id="a_Node000073"><a xlink:title=" ">
<polygon fill="#e0e0e0" stroke="#999999" points="2184.32,-239 2125.32,-239 2125.32,-220 2184.32,-220 2184.32,-239"/>
<text text-anchor="middle" x="2154.82" y="-227" font-family="Helvetica,sans-Serif" font-size="10.00">QtDebug</text>
</a>
</g>
</g>
<!-- Node1&#45;&gt;Node73 -->
<g id="edge50_Node000001_Node000073" class="edge">
<title>Node1&#45;&gt;Node73</title>
<g id="a_edge50_Node000001_Node000073"><a xlink:title=" ">
<path fill="none" stroke="#63b8ff" d="M2082.06,-274.84C2097.22,-265.6 2116.93,-253.59 2132,-244.4"/>
<polygon fill="#63b8ff" stroke="#63b8ff" points="2134,-247.29 2140.71,-239.09 2130.35,-241.31 2134,-247.29"/>
</a>
</g>
</g>
<!-- Node74 -->
<g id="Node000074" class="node">
<title>Node74</title>
<g id="a_Node000074"><a xlink:title=" ">
<polygon fill="#e0e0e0" stroke="#999999" points="2240.82,-239 2202.82,-239 2202.82,-220 2240.82,-220 2240.82,-239"/>
<text text-anchor="middle" x="2221.82" y="-227" font-family="Helvetica,sans-Serif" font-size="10.00">QDir</text>
</a>
</g>
</g>
<!-- Node1&#45;&gt;Node74 -->
<g id="edge51_Node000001_Node000074" class="edge">
<title>Node1&#45;&gt;Node74</title>
<g id="a_edge51_Node000001_Node000074"><a xlink:title=" ">
<path fill="none" stroke="#63b8ff" d="M2097.86,-274.99C2127.26,-264.44 2166.88,-250.22 2193.33,-240.72"/>
<polygon fill="#63b8ff" stroke="#63b8ff" points="2194.55,-244 2202.78,-237.33 2192.19,-237.42 2194.55,-244"/>
</a>
</g>
</g>
<!-- Node75 -->
<g id="Node000075" class="node">
<title>Node75</title>
<g id="a_Node000075"><a xlink:title=" ">
<polygon fill="#e0e0e0" stroke="#999999" points="2320.82,-239 2258.82,-239 2258.82,-220 2320.82,-220 2320.82,-239"/>
<text text-anchor="middle" x="2289.82" y="-227" font-family="Helvetica,sans-Serif" font-size="10.00">QProcess</text>
</a>
</g>
</g>
<!-- Node1&#45;&gt;Node75 -->
<g id="edge52_Node000001_Node000075" class="edge">
<title>Node1&#45;&gt;Node75</title>
<g id="a_edge52_Node000001_Node000075"><a xlink:title=" ">
<path fill="none" stroke="#63b8ff" d="M2114.15,-274.99C2155.51,-264.51 2211.15,-250.42 2248.64,-240.93"/>
<polygon fill="#63b8ff" stroke="#63b8ff" points="2249.87,-244.23 2258.7,-238.38 2248.15,-237.44 2249.87,-244.23"/>
</a>
</g>
</g>
<!-- Node76 -->
<g id="Node000076" class="node">
<title>Node76</title>
<g id="a_Node000076"><a xlink:title=" ">
<polygon fill="#e0e0e0" stroke="#999999" points="2432.32,-239 2339.32,-239 2339.32,-220 2432.32,-220 2432.32,-239"/>
<text text-anchor="middle" x="2385.82" y="-227" font-family="Helvetica,sans-Serif" font-size="10.00">QTemporaryFile</text>
</a>
</g>
</g>
<!-- Node1&#45;&gt;Node76 -->
<g id="edge53_Node000001_Node000076" class="edge">
<title>Node1&#45;&gt;Node76</title>
<g id="a_edge53_Node000001_Node000076"><a xlink:title=" ">
<path fill="none" stroke="#63b8ff" d="M2122.64,-277.58C2182.61,-266.85 2271.5,-250.95 2329.05,-240.66"/>
<polygon fill="#63b8ff" stroke="#63b8ff" points="2329.84,-244.07 2339.07,-238.86 2328.61,-237.18 2329.84,-244.07"/>
</a>
</g>
</g>
<!-- Node77 -->
<g id="Node000077" class="node">
<title>Node77</title>
<g id="a_Node000077"><a xlink:title=" ">
<polygon fill="#e0e0e0" stroke="#999999" points="2527.32,-239 2450.32,-239 2450.32,-220 2527.32,-220 2527.32,-239"/>
<text text-anchor="middle" x="2488.82" y="-227" font-family="Helvetica,sans-Serif" font-size="10.00">QUndoStack</text>
</a>
</g>
</g>
<!-- Node1&#45;&gt;Node77 -->
<g id="edge54_Node000001_Node000077" class="edge">
<title>Node1&#45;&gt;Node77</title>
<g id="a_edge54_Node000001_Node000077"><a xlink:title=" ">
<path fill="none" stroke="#63b8ff" d="M2122.32,-281.68C2196.32,-272.93 2322.53,-257.33 2440.21,-239.19"/>
<polygon fill="#63b8ff" stroke="#63b8ff" points="2440.77,-242.65 2450.11,-237.65 2439.7,-235.73 2440.77,-242.65"/>
</a>
</g>
</g>
<!-- Node78 -->
<g id="Node000078" class="node">
<title>Node78</title>
<g id="a_Node000078"><a xlink:title=" ">
<polygon fill="#e0e0e0" stroke="#999999" points="2586.32,-239 2545.32,-239 2545.32,-220 2586.32,-220 2586.32,-239"/>
<text text-anchor="middle" x="2565.82" y="-227" font-family="Helvetica,sans-Serif" font-size="10.00">QFile</text>
</a>
</g>
</g>
<!-- Node1&#45;&gt;Node78 -->
<g id="edge55_Node000001_Node000078" class="edge">
<title>Node1&#45;&gt;Node78</title>
<g id="a_edge55_Node000001_Node000078"><a xlink:title=" ">
<path fill="none" stroke="#63b8ff" d="M2122.38,-286.01C2212.5,-280.97 2382.57,-268.48 2535.01,-239.05"/>
<polygon fill="#63b8ff" stroke="#63b8ff" points="2535.88,-242.44 2545.02,-237.08 2534.53,-235.57 2535.88,-242.44"/>
</a>
</g>
</g>
<!-- Node79 -->
<g id="Node000079" class="node">
<title>Node79</title>
<g id="a_Node000079"><a xlink:title=" ">
<polygon fill="#e0e0e0" stroke="#999999" points="2698.82,-239 2604.82,-239 2604.82,-220 2698.82,-220 2698.82,-239"/>
<text text-anchor="middle" x="2651.82" y="-227" font-family="Helvetica,sans-Serif" font-size="10.00">QStandardPaths</text>
</a>
</g>
</g>
<!-- Node1&#45;&gt;Node79 -->
<g id="edge56_Node000001_Node000079" class="edge">
<title>Node1&#45;&gt;Node79</title>
<g id="a_edge56_Node000001_Node000079"><a xlink:title=" ">
<path fill="none" stroke="#63b8ff" d="M2122.6,-284.26C2221.44,-276.65 2417.81,-260.48 2594.78,-239.06"/>
<polygon fill="#63b8ff" stroke="#63b8ff" points="2595.29,-242.52 2604.79,-237.84 2594.44,-235.58 2595.29,-242.52"/>
</a>
</g>
</g>
<!-- Node80 -->
<g id="Node000080" class="node">
<title>Node80</title>
<g id="a_Node000080"><a xlink:title=" ">
<polygon fill="#e0e0e0" stroke="#999999" points="2802.82,-239 2716.82,-239 2716.82,-220 2802.82,-220 2802.82,-239"/>
<text text-anchor="middle" x="2759.82" y="-227" font-family="Helvetica,sans-Serif" font-size="10.00">QMessageBox</text>
</a>
</g>
</g>
<!-- Node1&#45;&gt;Node80 -->
<g id="edge57_Node000001_Node000080" class="edge">
<title>Node1&#45;&gt;Node80</title>
<g id="a_edge57_Node000001_Node000080"><a xlink:title=" ">
<path fill="none" stroke="#63b8ff" d="M2122.56,-285.89C2237.3,-279.91 2486.38,-265.11 2706.59,-239.04"/>
<polygon fill="#63b8ff" stroke="#63b8ff" points="2707.21,-242.49 2716.73,-237.83 2706.38,-235.54 2707.21,-242.49"/>
</a>
</g>
</g>
<!-- Node81 -->
<g id="Node000081" class="node">
<title>Node81</title>
<g id="a_Node000081"><a xlink:title=" ">
<polygon fill="#e0e0e0" stroke="#999999" points="2878.82,-239 2820.82,-239 2820.82,-220 2878.82,-220 2878.82,-239"/>
<text text-anchor="middle" x="2849.82" y="-227" font-family="Helvetica,sans-Serif" font-size="10.00">QThread</text>
</a>
</g>
</g>
<!-- Node1&#45;&gt;Node81 -->
<g id="edge58_Node000001_Node000081" class="edge">
<title>Node1&#45;&gt;Node81</title>
<g id="a_edge58_Node000001_Node000081"><a xlink:title=" ">
<path fill="none" stroke="#63b8ff" d="M2122.63,-288.07C2251.19,-285.47 2550.57,-275.8 2810.44,-238.97"/>
<polygon fill="#63b8ff" stroke="#63b8ff" points="2811.04,-242.42 2820.44,-237.54 2810.05,-235.49 2811.04,-242.42"/>
</a>
</g>
</g>
<!-- Node82 -->
<g id="Node000082" class="node">
<title>Node82</title>
<g id="a_Node000082"><a xlink:title=" ">
<polygon fill="#e0e0e0" stroke="#999999" points="2968.82,-239 2896.82,-239 2896.82,-220 2968.82,-220 2968.82,-239"/>
<text text-anchor="middle" x="2932.82" y="-227" font-family="Helvetica,sans-Serif" font-size="10.00">QDateTime</text>
</a>
</g>
</g>
<!-- Node1&#45;&gt;Node82 -->
<g id="edge59_Node000001_Node000082" class="edge">
<title>Node1&#45;&gt;Node82</title>
<g id="a_edge59_Node000001_Node000082"><a xlink:title=" ">
<path fill="none" stroke="#63b8ff" d="M2122.51,-287.9C2260.17,-284.93 2595.8,-274.5 2886.22,-239.03"/>
<polygon fill="#63b8ff" stroke="#63b8ff" points="2887.03,-242.46 2896.53,-237.76 2886.18,-235.51 2887.03,-242.46"/>
</a>
</g>
</g>
<!-- Node83 -->
<g id="Node000083" class="node">
<title>Node83</title>
<g id="a_Node000083"><a xlink:title=" ">
<polygon fill="#e0e0e0" stroke="#999999" points="3074.32,-239 2987.32,-239 2987.32,-220 3074.32,-220 3074.32,-239"/>
<text text-anchor="middle" x="3030.82" y="-227" font-family="Helvetica,sans-Serif" font-size="10.00">QtXmlPatterns</text>
</a>
</g>
</g>
<!-- Node1&#45;&gt;Node83 -->
<g id="edge60_Node000001_Node000083" class="edge">
<title>Node1&#45;&gt;Node83</title>
<g id="a_edge60_Node000001_Node000083"><a xlink:title=" ">
<path fill="none" stroke="#63b8ff" d="M2122.51,-287.83C2270.62,-284.61 2649.8,-273.52 2977.04,-238.95"/>
<polygon fill="#63b8ff" stroke="#63b8ff" points="2977.62,-242.41 2987.19,-237.87 2976.88,-235.45 2977.62,-242.41"/>
</a>
</g>
</g>
<!-- Node84 -->
<g id="Node000084" class="node">
<title>Node84</title>
<g id="a_Node000084"><a xlink:title=" ">
<polygon fill="#e0e0e0" stroke="#999999" points="3136.82,-239 3092.82,-239 3092.82,-220 3136.82,-220 3136.82,-239"/>
<text text-anchor="middle" x="3114.82" y="-227" font-family="Helvetica,sans-Serif" font-size="10.00">QIcon</text>
</a>
</g>
</g>
<!-- Node1&#45;&gt;Node84 -->
<g id="edge61_Node000001_Node000084" class="edge">
<title>Node1&#45;&gt;Node84</title>
<g id="a_edge61_Node000001_Node000084"><a xlink:title=" ">
<path fill="none" stroke="#63b8ff" d="M2122.38,-287.72C2312.87,-283.6 2878.02,-269.25 3082.55,-238.78"/>
<polygon fill="#63b8ff" stroke="#63b8ff" points="3083.25,-242.21 3092.59,-237.22 3082.18,-235.29 3083.25,-242.21"/>
</a>
</g>
</g>
<!-- Node3 -->
<g id="Node000003" class="node">
<title>Node3</title>
<g id="a_Node000003"><a xlink:title=" ">
<polygon fill="#e0e0e0" stroke="#999999" points="382.32,-184 215.32,-184 215.32,-165 382.32,-165 382.32,-184"/>
<text text-anchor="middle" x="298.82" y="-172" font-family="Helvetica,sans-Serif" font-size="10.00">../vmisc/vabstractapplication.h</text>
</a>
</g>
</g>
<!-- Node2&#45;&gt;Node3 -->
<g id="edge2_Node000002_Node000003" class="edge">
<title>Node2&#45;&gt;Node3</title>
<g id="a_edge2_Node000002_Node000003"><a xlink:title=" ">
<path fill="none" stroke="#63b8ff" d="M298.82,-219.75C298.82,-212.8 298.82,-202.85 298.82,-194.13"/>
<polygon fill="#63b8ff" stroke="#63b8ff" points="302.32,-194.09 298.82,-184.09 295.32,-194.09 302.32,-194.09"/>
</a>
</g>
</g>
<!-- Node4 -->
<g id="Node000004" class="node">
<title>Node4</title>
<g id="a_Node000004"><a xlink:href="../../d7/d5b/options_8h.html" target="_top" xlink:title=" ">
<polygon fill="white" stroke="#666666" points="650.32,-184 579.32,-184 579.32,-165 650.32,-165 650.32,-184"/>
<text text-anchor="middle" x="614.82" y="-172" font-family="Helvetica,sans-Serif" font-size="10.00">../options.h</text>
</a>
</g>
</g>
<!-- Node2&#45;&gt;Node4 -->
<g id="edge3_Node000002_Node000004" class="edge">
<title>Node2&#45;&gt;Node4</title>
<g id="a_edge3_Node000002_Node000004"><a xlink:title=" ">
<path fill="none" stroke="#63b8ff" d="M341.93,-221.45C407.92,-210.65 529.8,-190.69 568.94,-184.08"/>
<polygon fill="#63b8ff" stroke="#63b8ff" points="569.71,-187.49 578.97,-182.35 568.52,-180.6 569.71,-187.49"/>
</a>
</g>
</g>
<!-- Node2&#45;&gt;Node9 -->
<g id="edge8_Node000002_Node000009" class="edge">
<title>Node2&#45;&gt;Node9</title>
<g id="a_edge8_Node000002_Node000009"><a xlink:title=" ">
<path fill="none" stroke="#63b8ff" d="M268.45,-219.98C236.45,-211.01 185.86,-196.82 150.43,-186.89"/>
<polygon fill="#63b8ff" stroke="#63b8ff" points="150.99,-183.41 140.42,-184.08 149.1,-190.15 150.99,-183.41"/>
</a>
</g>
</g>
<!-- Node10 -->
<g id="Node000010" class="node">
<title>Node10</title>
<g id="a_Node000010"><a xlink:title=" ">
<polygon fill="#e0e0e0" stroke="#999999" points="561.32,-184 400.32,-184 400.32,-165 561.32,-165 561.32,-184"/>
<text text-anchor="middle" x="480.82" y="-172" font-family="Helvetica,sans-Serif" font-size="10.00">../vpatterndb/vtranslatevars.h</text>
</a>
</g>
</g>
<!-- Node2&#45;&gt;Node10 -->
<g id="edge9_Node000002_Node000010" class="edge">
<title>Node2&#45;&gt;Node10</title>
<g id="a_edge9_Node000002_Node000010"><a xlink:title=" ">
<path fill="none" stroke="#63b8ff" d="M328.06,-219.98C358.88,-211.01 407.59,-196.82 441.7,-186.89"/>
<polygon fill="#63b8ff" stroke="#63b8ff" points="442.72,-190.24 451.35,-184.08 440.77,-183.52 442.72,-190.24"/>
</a>
</g>
</g>
<!-- Node11 -->
<g id="Node000011" class="node">
<title>Node11</title>
<g id="a_Node000011"><a xlink:href="../../dd/db2/vsettings_8h.html" target="_top" xlink:title=" ">
<polygon fill="white" stroke="#666666" points="979.32,-184 908.32,-184 908.32,-165 979.32,-165 979.32,-184"/>
<text text-anchor="middle" x="943.82" y="-172" font-family="Helvetica,sans-Serif" font-size="10.00">vsettings.h</text>
</a>
</g>
</g>
<!-- Node2&#45;&gt;Node11 -->
<g id="edge10_Node000002_Node000011" class="edge">
<title>Node2&#45;&gt;Node11</title>
<g id="a_edge10_Node000002_Node000011"><a xlink:title=" ">
<path fill="none" stroke="#63b8ff" d="M341.91,-221.16C344.92,-220.74 347.91,-220.35 350.82,-220 554.29,-195.78 798.7,-182.37 898.27,-177.56"/>
<polygon fill="#63b8ff" stroke="#63b8ff" points="898.47,-181.06 908.29,-177.08 898.13,-174.07 898.47,-181.06"/>
</a>
</g>
</g>
<!-- Node34 -->
<g id="Node000034" class="node">
<title>Node34</title>
<g id="a_Node000034"><a xlink:href="../../dd/d57/vcmdexport_8h.html" target="_top" xlink:title=" ">
<polygon fill="#fff0f0" stroke="red" points="1408.82,-184 1324.82,-184 1324.82,-165 1408.82,-165 1408.82,-184"/>
<text text-anchor="middle" x="1366.82" y="-172" font-family="Helvetica,sans-Serif" font-size="10.00">vcmdexport.h</text>
</a>
</g>
</g>
<!-- Node2&#45;&gt;Node34 -->
<g id="edge30_Node000002_Node000034" class="edge">
<title>Node2&#45;&gt;Node34</title>
<g id="a_edge30_Node000002_Node000034"><a xlink:title=" ">
<path fill="none" stroke="#63b8ff" d="M341.89,-221.06C344.91,-220.66 347.91,-220.3 350.82,-220 540.66,-200.4 1134.46,-182.17 1314.53,-176.97"/>
<polygon fill="#63b8ff" stroke="#63b8ff" points="1314.9,-180.46 1324.79,-176.68 1314.7,-173.47 1314.9,-180.46"/>
</a>
</g>
</g>
<!-- Node5 -->
<g id="Node000005" class="node">
<title>Node5</title>
<g id="a_Node000005"><a xlink:title=" ">
<polygon fill="#e0e0e0" stroke="#999999" points="369.32,-129 292.32,-129 292.32,-110 369.32,-110 369.32,-129"/>
<text text-anchor="middle" x="330.82" y="-117" font-family="Helvetica,sans-Serif" font-size="10.00">../ifc/ifcdef.h</text>
</a>
</g>
</g>
<!-- Node4&#45;&gt;Node5 -->
<g id="edge4_Node000004_Node000005" class="edge">
<title>Node4&#45;&gt;Node5</title>
<g id="a_edge4_Node000004_Node000005"><a xlink:title=" ">
<path fill="none" stroke="#63b8ff" d="M578.96,-166.72C575.87,-166.14 572.79,-165.56 569.82,-165 503.79,-152.62 427.47,-138.43 379.18,-129.47"/>
<polygon fill="#63b8ff" stroke="#63b8ff" points="379.79,-126.02 369.32,-127.64 378.51,-132.9 379.79,-126.02"/>
</a>
</g>
</g>
<!-- Node6 -->
<g id="Node000006" class="node">
<title>Node6</title>
<g id="a_Node000006"><a xlink:title=" ">
<polygon fill="#e0e0e0" stroke="#999999" points="546.32,-129 387.32,-129 387.32,-110 546.32,-110 546.32,-129"/>
<text text-anchor="middle" x="466.82" y="-117" font-family="Helvetica,sans-Serif" font-size="10.00">../vgeometry/vgeometrydef.h</text>
</a>
</g>
</g>
<!-- Node4&#45;&gt;Node6 -->
<g id="edge5_Node000004_Node000006" class="edge">
<title>Node4&#45;&gt;Node6</title>
<g id="a_edge5_Node000004_Node000006"><a xlink:title=" ">
<path fill="none" stroke="#63b8ff" d="M591.04,-164.98C566.59,-156.23 528.28,-142.51 500.67,-132.62"/>
<polygon fill="#63b8ff" stroke="#63b8ff" points="501.62,-129.25 491.03,-129.17 499.26,-135.84 501.62,-129.25"/>
</a>
</g>
</g>
<!-- Node7 -->
<g id="Node000007" class="node">
<title>Node7</title>
<g id="a_Node000007"><a xlink:title=" ">
<polygon fill="#e0e0e0" stroke="#999999" points="691.32,-129 564.32,-129 564.32,-110 691.32,-110 691.32,-129"/>
<text text-anchor="middle" x="627.82" y="-117" font-family="Helvetica,sans-Serif" font-size="10.00">../qmuparser/qmudef.h</text>
</a>
</g>
</g>
<!-- Node4&#45;&gt;Node7 -->
<g id="edge6_Node000004_Node000007" class="edge">
<title>Node4&#45;&gt;Node7</title>
<g id="a_edge6_Node000004_Node000007"><a xlink:title=" ">
<path fill="none" stroke="#63b8ff" d="M616.96,-164.75C618.69,-157.72 621.16,-147.62 623.32,-138.84"/>
<polygon fill="#63b8ff" stroke="#63b8ff" points="626.73,-139.63 625.71,-129.09 619.93,-137.97 626.73,-139.63"/>
</a>
</g>
</g>
<!-- Node8 -->
<g id="Node000008" class="node">
<title>Node8</title>
<g id="a_Node000008"><a xlink:title=" ">
<polygon fill="#e0e0e0" stroke="#999999" points="273.82,-129 191.82,-129 191.82,-110 273.82,-110 273.82,-129"/>
<text text-anchor="middle" x="232.82" y="-117" font-family="Helvetica,sans-Serif" font-size="10.00">../vmisc/def.h</text>
</a>
</g>
</g>
<!-- Node4&#45;&gt;Node8 -->
<g id="edge7_Node000004_Node000008" class="edge">
<title>Node4&#45;&gt;Node8</title>
<g id="a_edge7_Node000004_Node000008"><a xlink:title=" ">
<path fill="none" stroke="#63b8ff" d="M578.99,-166.53C575.89,-165.99 572.8,-165.47 569.82,-165 446.04,-145.57 411.72,-147.65 284.16,-129.14"/>
<polygon fill="#63b8ff" stroke="#63b8ff" points="284.4,-125.63 274,-127.65 283.38,-132.56 284.4,-125.63"/>
</a>
</g>
</g>
<!-- Node12 -->
<g id="Node000012" class="node">
<title>Node12</title>
<g id="a_Node000012"><a xlink:title=" ">
<polygon fill="#e0e0e0" stroke="#999999" points="1111.82,-74 1031.82,-74 1031.82,-55 1111.82,-55 1111.82,-74"/>
<text text-anchor="middle" x="1071.82" y="-62" font-family="Helvetica,sans-Serif" font-size="10.00">QMetaObject</text>
</a>
</g>
</g>
<!-- Node11&#45;&gt;Node12 -->
<g id="edge11_Node000011_Node000012" class="edge">
<title>Node11&#45;&gt;Node12</title>
<g id="a_edge11_Node000011_Node000012"><a xlink:title=" ">
<path fill="none" stroke="#63b8ff" d="M979.44,-166.99C1002.99,-160.94 1032.89,-149.62 1051.82,-129 1063.05,-116.76 1067.98,-98.24 1070.13,-84.36"/>
<polygon fill="#63b8ff" stroke="#63b8ff" points="1073.66,-84.37 1071.37,-74.03 1066.71,-83.54 1073.66,-84.37"/>
</a>
</g>
</g>
<!-- Node13 -->
<g id="Node000013" class="node">
<title>Node13</title>
<g id="a_Node000013"><a xlink:title=" ">
<polygon fill="#e0e0e0" stroke="#999999" points="1185.82,-74 1129.82,-74 1129.82,-55 1185.82,-55 1185.82,-74"/>
<text text-anchor="middle" x="1157.82" y="-62" font-family="Helvetica,sans-Serif" font-size="10.00">QObject</text>
</a>
</g>
</g>
<!-- Node11&#45;&gt;Node13 -->
<g id="edge12_Node000011_Node000013" class="edge">
<title>Node11&#45;&gt;Node13</title>
<g id="a_edge12_Node000011_Node000013"><a xlink:title=" ">
<path fill="none" stroke="#63b8ff" d="M977.03,-164.94C1003.56,-157.41 1041.23,-145.13 1071.82,-129 1097.4,-115.51 1123.7,-94.91 1140.37,-80.86"/>
<polygon fill="#63b8ff" stroke="#63b8ff" points="1142.85,-83.35 1148.15,-74.18 1138.29,-78.04 1142.85,-83.35"/>
</a>
</g>
</g>
<!-- Node14 -->
<g id="Node000014" class="node">
<title>Node14</title>
<g id="a_Node000014"><a xlink:title=" ">
<polygon fill="#e0e0e0" stroke="#999999" points="975.82,-74 911.82,-74 911.82,-55 975.82,-55 975.82,-74"/>
<text text-anchor="middle" x="943.82" y="-62" font-family="Helvetica,sans-Serif" font-size="10.00">QSettings</text>
</a>
</g>
</g>
<!-- Node11&#45;&gt;Node14 -->
<g id="edge13_Node000011_Node000014" class="edge">
<title>Node11&#45;&gt;Node14</title>
<g id="a_edge13_Node000011_Node000014"><a xlink:title=" ">
<path fill="none" stroke="#63b8ff" d="M937.05,-164.65C928.64,-152.55 915.94,-130.05 920.82,-110 923.13,-100.51 927.84,-90.78 932.4,-82.85"/>
<polygon fill="#63b8ff" stroke="#63b8ff" points="935.46,-84.55 937.71,-74.2 929.49,-80.89 935.46,-84.55"/>
</a>
</g>
</g>
<!-- Node15 -->
<g id="Node000015" class="node">
<title>Node15</title>
<g id="a_Node000015"><a xlink:title=" ">
<polygon fill="#e0e0e0" stroke="#999999" points="771.32,-74 718.32,-74 718.32,-55 771.32,-55 771.32,-74"/>
<text text-anchor="middle" x="744.82" y="-62" font-family="Helvetica,sans-Serif" font-size="10.00">QString</text>
</a>
</g>
</g>
<!-- Node11&#45;&gt;Node15 -->
<g id="edge14_Node000011_Node000015" class="edge">
<title>Node11&#45;&gt;Node15</title>
<g id="a_edge14_Node000011_Node000015"><a xlink:title=" ">
<path fill="none" stroke="#63b8ff" d="M927.87,-164.84C893.21,-146.04 810.84,-101.33 769.45,-78.87"/>
<polygon fill="#63b8ff" stroke="#63b8ff" points="771.02,-75.74 760.57,-74.05 767.69,-81.89 771.02,-75.74"/>
</a>
</g>
</g>
<!-- Node16 -->
<g id="Node000016" class="node">
<title>Node16</title>
<g id="a_Node000016"><a xlink:title=" ">
<polygon fill="#e0e0e0" stroke="#999999" points="952.32,-19 893.32,-19 893.32,0 952.32,0 952.32,-19"/>
<text text-anchor="middle" x="922.82" y="-7" font-family="Helvetica,sans-Serif" font-size="10.00">QtGlobal</text>
</a>
</g>
</g>
<!-- Node11&#45;&gt;Node16 -->
<g id="edge15_Node000011_Node000016" class="edge">
<title>Node11&#45;&gt;Node16</title>
<g id="a_edge15_Node000011_Node000016"><a xlink:title=" ">
<path fill="none" stroke="#63b8ff" d="M979.47,-169.99C1062.74,-160.46 1258.24,-129.64 1194.82,-55 1165.55,-20.56 1031.39,-12.72 963.06,-10.97"/>
<polygon fill="#63b8ff" stroke="#63b8ff" points="962.76,-7.46 952.68,-10.74 962.6,-14.46 962.76,-7.46"/>
</a>
</g>
</g>
<!-- Node17 -->
<g id="Node000017" class="node">
<title>Node17</title>
<g id="a_Node000017"><a xlink:title=" ">
<polygon fill="#e0e0e0" stroke="#999999" points="1305.32,-129 1242.32,-129 1242.32,-110 1305.32,-110 1305.32,-129"/>
<text text-anchor="middle" x="1273.82" y="-117" font-family="Helvetica,sans-Serif" font-size="10.00">QMargins</text>
</a>
</g>
</g>
<!-- Node11&#45;&gt;Node17 -->
<g id="edge16_Node000011_Node000017" class="edge">
<title>Node11&#45;&gt;Node17</title>
<g id="a_edge16_Node000011_Node000017"><a xlink:title=" ">
<path fill="none" stroke="#63b8ff" d="M979.73,-168.19C1033.67,-160.15 1138.77,-144.2 1227.82,-129 1229.27,-128.75 1230.74,-128.5 1232.23,-128.24"/>
<polygon fill="#63b8ff" stroke="#63b8ff" points="1232.93,-131.67 1242.16,-126.47 1231.7,-124.78 1232.93,-131.67"/>
</a>
</g>
</g>
<!-- Node18 -->
<g id="Node000018" class="node">
<title>Node18</title>
<g id="a_Node000018"><a xlink:href="../../d4/da4/def_8h.html" target="_top" xlink:title=" ">
<polygon fill="#fff0f0" stroke="red" points="791.82,-129 709.82,-129 709.82,-110 791.82,-110 791.82,-129"/>
<text text-anchor="middle" x="750.82" y="-117" font-family="Helvetica,sans-Serif" font-size="10.00">../vmisc/def.h</text>
</a>
</g>
</g>
<!-- Node11&#45;&gt;Node18 -->
<g id="edge17_Node000011_Node000018" class="edge">
<title>Node11&#45;&gt;Node18</title>
<g id="a_edge17_Node000011_Node000018"><a xlink:title=" ">
<path fill="none" stroke="#63b8ff" d="M912.81,-164.98C879.99,-155.97 828.02,-141.7 791.83,-131.76"/>
<polygon fill="#63b8ff" stroke="#63b8ff" points="792.64,-128.36 782.07,-129.08 790.79,-135.11 792.64,-128.36"/>
</a>
</g>
</g>
<!-- Node27 -->
<g id="Node000027" class="node">
<title>Node27</title>
<g id="a_Node000027"><a xlink:href="../../de/dec/vbank_8h.html" target="_top" xlink:title=" ">
<polygon fill="#fff0f0" stroke="red" points="893.82,-74 789.82,-74 789.82,-55 893.82,-55 893.82,-74"/>
<text text-anchor="middle" x="841.82" y="-62" font-family="Helvetica,sans-Serif" font-size="10.00">../vlayout/vbank.h</text>
</a>
</g>
</g>
<!-- Node11&#45;&gt;Node27 -->
<g id="edge21_Node000011_Node000027" class="edge">
<title>Node11&#45;&gt;Node27</title>
<g id="a_edge21_Node000011_Node000027"><a xlink:title=" ">
<path fill="none" stroke="#63b8ff" d="M935.47,-164.66C918.28,-146.46 878.7,-104.55 856.9,-81.47"/>
<polygon fill="#63b8ff" stroke="#63b8ff" points="859.41,-79.03 849.99,-74.16 854.32,-83.83 859.41,-79.03"/>
</a>
</g>
</g>
<!-- Node31 -->
<g id="Node000031" class="node">
<title>Node31</title>
<g id="a_Node000031"><a xlink:href="../../d4/d5c/vcommonsettings_8h.html" target="_top" xlink:title=" ">
<polygon fill="#fff0f0" stroke="red" points="1043.32,-129 930.32,-129 930.32,-110 1043.32,-110 1043.32,-129"/>
<text text-anchor="middle" x="986.82" y="-117" font-family="Helvetica,sans-Serif" font-size="10.00">vcommonsettings.h</text>
</a>
</g>
</g>
<!-- Node11&#45;&gt;Node31 -->
<g id="edge23_Node000011_Node000031" class="edge">
<title>Node11&#45;&gt;Node31</title>
<g id="a_edge23_Node000011_Node000031"><a xlink:title=" ">
<path fill="none" stroke="#63b8ff" d="M950.92,-164.75C956.99,-157.26 965.9,-146.28 973.33,-137.13"/>
<polygon fill="#63b8ff" stroke="#63b8ff" points="976.27,-139.06 979.85,-129.09 970.83,-134.65 976.27,-139.06"/>
</a>
</g>
</g>
<!-- Node18&#45;&gt;Node15 -->
<g id="edge18_Node000018_Node000015" class="edge">
<title>Node18&#45;&gt;Node15</title>
<g id="a_edge18_Node000018_Node000015"><a xlink:title=" ">
<path fill="none" stroke="#63b8ff" d="M749.83,-109.75C749.04,-102.8 747.91,-92.85 746.93,-84.13"/>
<polygon fill="#63b8ff" stroke="#63b8ff" points="750.39,-83.63 745.79,-74.09 743.44,-84.42 750.39,-83.63"/>
</a>
</g>
</g>
<!-- Node18&#45;&gt;Node16 -->
<g id="edge20_Node000018_Node000016" class="edge">
<title>Node18&#45;&gt;Node16</title>
<g id="a_edge20_Node000018_Node000016"><a xlink:title=" ">
<path fill="none" stroke="#63b8ff" d="M737.94,-109.91C720.67,-97.35 693.8,-73.46 708.82,-55 730.36,-28.52 827.31,-17.28 883.04,-12.94"/>
<polygon fill="#63b8ff" stroke="#63b8ff" points="883.56,-16.41 893.27,-12.18 883.04,-9.43 883.56,-16.41"/>
</a>
</g>
</g>
<!-- Node18&#45;&gt;Node22 -->
<g id="edge19_Node000018_Node000022" class="edge">
<title>Node18&#45;&gt;Node22</title>
<g id="a_edge19_Node000018_Node000022"><a xlink:title=" ">
<path fill="none" stroke="#63b8ff" d="M709.65,-111.47C706.32,-110.95 703.02,-110.46 699.82,-110 567.79,-91.2 408.89,-74.25 348.62,-68.02"/>
<polygon fill="#63b8ff" stroke="#63b8ff" points="348.85,-64.53 338.54,-66.99 348.13,-71.49 348.85,-64.53"/>
</a>
</g>
</g>
<!-- Node27&#45;&gt;Node16 -->
<g id="edge22_Node000027_Node000016" class="edge">
<title>Node27&#45;&gt;Node16</title>
<g id="a_edge22_Node000027_Node000016"><a xlink:title=" ">
<path fill="none" stroke="#63b8ff" d="M854.83,-54.98C867.27,-46.84 886.27,-34.41 901.03,-24.76"/>
<polygon fill="#63b8ff" stroke="#63b8ff" points="903.11,-27.57 909.57,-19.17 899.28,-21.72 903.11,-27.57"/>
</a>
</g>
</g>
<!-- Node31&#45;&gt;Node12 -->
<g id="edge24_Node000031_Node000012" class="edge">
<title>Node31&#45;&gt;Node12</title>
<g id="a_edge24_Node000031_Node000012"><a xlink:title=" ">
<path fill="none" stroke="#63b8ff" d="M1000.47,-109.98C1013.66,-101.77 1033.84,-89.18 1049.39,-79.49"/>
<polygon fill="#63b8ff" stroke="#63b8ff" points="1051.28,-82.43 1057.91,-74.17 1047.57,-76.49 1051.28,-82.43"/>
</a>
</g>
</g>
<!-- Node31&#45;&gt;Node13 -->
<g id="edge25_Node000031_Node000013" class="edge">
<title>Node31&#45;&gt;Node13</title>
<g id="a_edge25_Node000031_Node000013"><a xlink:title=" ">
<path fill="none" stroke="#63b8ff" d="M1014.29,-109.98C1043,-101.09 1088.24,-87.07 1120.24,-77.15"/>
<polygon fill="#63b8ff" stroke="#63b8ff" points="1121.61,-80.39 1130.13,-74.08 1119.54,-73.7 1121.61,-80.39"/>
</a>
</g>
</g>
<!-- Node31&#45;&gt;Node14 -->
<g id="edge26_Node000031_Node000014" class="edge">
<title>Node31&#45;&gt;Node14</title>
<g id="a_edge26_Node000031_Node000014"><a xlink:title=" ">
<path fill="none" stroke="#63b8ff" d="M979.72,-109.75C973.64,-102.26 964.73,-91.28 957.31,-82.13"/>
<polygon fill="#63b8ff" stroke="#63b8ff" points="959.8,-79.65 950.79,-74.09 954.37,-84.06 959.8,-79.65"/>
</a>
</g>
</g>
<!-- Node31&#45;&gt;Node15 -->
<g id="edge27_Node000031_Node000015" class="edge">
<title>Node31&#45;&gt;Node15</title>
<g id="a_edge27_Node000031_Node000015"><a xlink:title=" ">
<path fill="none" stroke="#63b8ff" d="M946.12,-109.95C906.64,-101.6 844.78,-88.38 781.68,-74.16"/>
<polygon fill="#63b8ff" stroke="#63b8ff" points="782.07,-70.66 771.54,-71.87 780.52,-77.49 782.07,-70.66"/>
</a>
</g>
</g>
<!-- Node31&#45;&gt;Node16 -->
<g id="edge28_Node000031_Node000016" class="edge">
<title>Node31&#45;&gt;Node16</title>
<g id="a_edge28_Node000031_Node000016"><a xlink:title=" ">
<path fill="none" stroke="#63b8ff" d="M988.86,-109.67C991.35,-96.8 994.16,-72.52 984.82,-55 977.64,-41.55 964.39,-31.2 951.98,-23.88"/>
<polygon fill="#63b8ff" stroke="#63b8ff" points="953.64,-20.8 943.18,-19.08 950.29,-26.94 953.64,-20.8"/>
</a>
</g>
</g>
<!-- Node31&#45;&gt;Node27 -->
<g id="edge29_Node000031_Node000027" class="edge">
<title>Node31&#45;&gt;Node27</title>
<g id="a_edge29_Node000031_Node000027"><a xlink:title=" ">
<path fill="none" stroke="#63b8ff" d="M963.52,-109.98C939.56,-101.23 902.04,-87.51 874.99,-77.62"/>
<polygon fill="#63b8ff" stroke="#63b8ff" points="876.13,-74.32 865.54,-74.17 873.73,-80.89 876.13,-74.32"/>
</a>
</g>
</g>
<!-- Node35 -->
<g id="Node000035" class="node">
<title>Node35</title>
<g id="a_Node000035"><a xlink:title=" ">
<polygon fill="#e0e0e0" stroke="#999999" points="1388.82,-129 1330.82,-129 1330.82,-110 1388.82,-110 1388.82,-129"/>
<text text-anchor="middle" x="1359.82" y="-117" font-family="Helvetica,sans-Serif" font-size="10.00">memory</text>
</a>
</g>
</g>
<!-- Node34&#45;&gt;Node35 -->
<g id="edge31_Node000034_Node000035" class="edge">
<title>Node34&#45;&gt;Node35</title>
<g id="a_edge31_Node000034_Node000035"><a xlink:title=" ">
<path fill="none" stroke="#63b8ff" d="M1365.66,-164.75C1364.74,-157.8 1363.43,-147.85 1362.28,-139.13"/>
<polygon fill="#63b8ff" stroke="#63b8ff" points="1365.73,-138.54 1360.95,-129.09 1358.79,-139.46 1365.73,-138.54"/>
</a>
</g>
</g>
<!-- Node36 -->
<g id="Node000036" class="node">
<title>Node36</title>
<g id="a_Node000036"><a xlink:title=" ">
<polygon fill="#e0e0e0" stroke="#999999" points="1454.32,-129 1407.32,-129 1407.32,-110 1454.32,-110 1454.32,-129"/>
<text text-anchor="middle" x="1430.82" y="-117" font-family="Helvetica,sans-Serif" font-size="10.00">vector</text>
</a>
</g>
</g>
<!-- Node34&#45;&gt;Node36 -->
<g id="edge32_Node000034_Node000036" class="edge">
<title>Node34&#45;&gt;Node36</title>
<g id="a_edge32_Node000034_Node000036"><a xlink:title=" ">
<path fill="none" stroke="#63b8ff" d="M1377.1,-164.98C1386.65,-157.07 1401.1,-145.11 1412.6,-135.58"/>
<polygon fill="#63b8ff" stroke="#63b8ff" points="1414.88,-138.24 1420.35,-129.17 1410.41,-132.85 1414.88,-138.24"/>
</a>
</g>
</g>
<!-- Node53 -->
<g id="Node000053" class="node">
<title>Node53</title>
<g id="a_Node000053"><a xlink:href="../../dc/d73/projectversion_8h.html" target="_top" xlink:title=" ">
<polygon fill="white" stroke="#666666" points="1618.82,-184 1452.82,-184 1452.82,-165 1618.82,-165 1618.82,-184"/>
<text text-anchor="middle" x="1535.82" y="-172" font-family="Helvetica,sans-Serif" font-size="10.00">../../libs/vmisc/projectversion.h</text>
</a>
</g>
</g>
<!-- Node52&#45;&gt;Node53 -->
<g id="edge40_Node000052_Node000053" class="edge">
<title>Node52&#45;&gt;Node53</title>
<g id="a_edge40_Node000052_Node000053"><a xlink:title=" ">
<path fill="none" stroke="#63b8ff" d="M1535.82,-219.75C1535.82,-212.8 1535.82,-202.85 1535.82,-194.13"/>
<polygon fill="#63b8ff" stroke="#63b8ff" points="1539.32,-194.09 1535.82,-184.09 1532.32,-194.09 1539.32,-194.09"/>
</a>
</g>
</g>
<!-- Node57&#45;&gt;Node34 -->
<g id="edge46_Node000057_Node000034" class="edge">
<title>Node57&#45;&gt;Node34</title>
<g id="a_edge46_Node000057_Node000034"><a xlink:title=" ">
<path fill="none" stroke="#63b8ff" d="M2010.65,-221.03C2007.67,-220.65 2004.7,-220.31 2001.82,-220 1754.7,-193.65 1691.39,-205.64 1443.82,-184 1435.82,-183.3 1427.36,-182.47 1419.09,-181.59"/>
<polygon fill="#63b8ff" stroke="#63b8ff" points="1419.46,-178.11 1409.15,-180.52 1418.71,-185.07 1419.46,-178.11"/>
</a>
</g>
</g>
<!-- Node58 -->
<g id="Node000058" class="node">
<title>Node58</title>
<g id="a_Node000058"><a xlink:href="../../d1/d82/mainwindowsnogui_8h.html" target="_top" xlink:title=" ">
<polygon fill="#fff0f0" stroke="red" points="2118.82,-184 1998.82,-184 1998.82,-165 2118.82,-165 2118.82,-184"/>
<text text-anchor="middle" x="2058.82" y="-172" font-family="Helvetica,sans-Serif" font-size="10.00">mainwindowsnogui.h</text>
</a>
</g>
</g>
<!-- Node57&#45;&gt;Node58 -->
<g id="edge45_Node000057_Node000058" class="edge">
<title>Node57&#45;&gt;Node58</title>
<g id="a_edge45_Node000057_Node000058"><a xlink:title=" ">
<path fill="none" stroke="#63b8ff" d="M2058.82,-219.75C2058.82,-212.8 2058.82,-202.85 2058.82,-194.13"/>
<polygon fill="#63b8ff" stroke="#63b8ff" points="2062.32,-194.09 2058.82,-184.09 2055.32,-194.09 2062.32,-194.09"/>
</a>
</g>
</g>
<!-- Node71 -->
<g id="Node000071" class="node">
<title>Node71</title>
<g id="a_Node000071"><a xlink:title=" ">
<polygon fill="#e0e0e0" stroke="#999999" points="2258.32,-184 2137.32,-184 2137.32,-165 2258.32,-165 2258.32,-184"/>
<text text-anchor="middle" x="2197.82" y="-172" font-family="Helvetica,sans-Serif" font-size="10.00">../vmisc/vlockguard.h</text>
</a>
</g>
</g>
<!-- Node57&#45;&gt;Node71 -->
<g id="edge47_Node000057_Node000071" class="edge">
<title>Node57&#45;&gt;Node71</title>
<g id="a_edge47_Node000057_Node000071"><a xlink:title=" ">
<path fill="none" stroke="#63b8ff" d="M2081.15,-219.98C2104.01,-211.27 2139.77,-197.63 2165.68,-187.75"/>
<polygon fill="#63b8ff" stroke="#63b8ff" points="2166.98,-191 2175.08,-184.17 2164.49,-184.46 2166.98,-191"/>
</a>
</g>
</g>
<!-- Node72 -->
<g id="Node000072" class="node">
<title>Node72</title>
<g id="a_Node000072"><a xlink:title=" ">
<polygon fill="#e0e0e0" stroke="#999999" points="1980.32,-184 1921.32,-184 1921.32,-165 1980.32,-165 1980.32,-184"/>
<text text-anchor="middle" x="1950.82" y="-172" font-family="Helvetica,sans-Serif" font-size="10.00">QPointer</text>
</a>
</g>
</g>
<!-- Node57&#45;&gt;Node72 -->
<g id="edge48_Node000057_Node000072" class="edge">
<title>Node57&#45;&gt;Node72</title>
<g id="a_edge48_Node000057_Node000072"><a xlink:title=" ">
<path fill="none" stroke="#63b8ff" d="M2041.47,-219.98C2024.25,-211.54 1997.62,-198.47 1977.67,-188.68"/>
<polygon fill="#63b8ff" stroke="#63b8ff" points="1979,-185.43 1968.49,-184.17 1975.92,-191.72 1979,-185.43"/>
</a>
</g>
</g>
</g>
</svg>
