<?xml version="1.0" encoding="UTF-8" standalone="no"?>
<!DOCTYPE svg PUBLIC "-//W3C//DTD SVG 1.1//EN"
 "http://www.w3.org/Graphics/SVG/1.1/DTD/svg11.dtd">
<!-- Generated by graphviz version 2.43.0 (0)
 -->
<!-- Title: src/libs/vgeometry/vpointf.h Pages: 1 -->
<svg width="3748pt" height="307pt"
 viewBox="0.00 0.00 3748.00 307.00" xmlns="http://www.w3.org/2000/svg" xmlns:xlink="http://www.w3.org/1999/xlink">
<g id="graph0" class="graph" transform="scale(1 1) rotate(0) translate(4 303)">
<title>src/libs/vgeometry/vpointf.h</title>
<polygon fill="white" stroke="transparent" points="-4,4 -4,-303 3744,-303 3744,4 -4,4"/>
<!-- Node1 -->
<g id="node1" class="node">
<title>Node1</title>
<g id="a_node1"><a xlink:title=" ">
<polygon fill="#bfbfbf" stroke="black" points="1460,-268.5 1460,-298.5 1567,-298.5 1567,-268.5 1460,-268.5"/>
<text text-anchor="start" x="1468" y="-286.5" font-family="Helvetica,sans-Serif" font-size="10.00">src/libs/vgeometry</text>
<text text-anchor="middle" x="1513.5" y="-275.5" font-family="Helvetica,sans-Serif" font-size="10.00">/vpointf.h</text>
</a>
</g>
</g>
<!-- Node2 -->
<g id="node2" class="node">
<title>Node2</title>
<g id="a_node2"><a xlink:href="../../da/d75/vabstractarc__p_8h.html" target="_top" xlink:title=" ">
<polygon fill="white" stroke="black" points="41,-196 41,-226 148,-226 148,-196 41,-196"/>
<text text-anchor="start" x="49" y="-214" font-family="Helvetica,sans-Serif" font-size="10.00">src/libs/vgeometry</text>
<text text-anchor="middle" x="94.5" y="-203" font-family="Helvetica,sans-Serif" font-size="10.00">/vabstractarc_p.h</text>
</a>
</g>
</g>
<!-- Node1&#45;&gt;Node2 -->
<g id="edge1" class="edge">
<title>Node1&#45;&gt;Node2</title>
<path fill="none" stroke="midnightblue" d="M1449.88,-282.4C1216.9,-281.7 410.63,-276.05 157.5,-232 149.47,-230.6 141.05,-228.44 133.07,-226.05"/>
<polygon fill="midnightblue" stroke="midnightblue" points="1449.88,-285.9 1459.89,-282.43 1449.9,-278.9 1449.88,-285.9"/>
</g>
<!-- Node3 -->
<g id="node3" class="node">
<title>Node3</title>
<g id="a_node3"><a xlink:href="../../d4/da1/vabstractarc_8cpp.html" target="_top" xlink:title=" ">
<polygon fill="white" stroke="black" points="0,-123.5 0,-153.5 107,-153.5 107,-123.5 0,-123.5"/>
<text text-anchor="start" x="8" y="-141.5" font-family="Helvetica,sans-Serif" font-size="10.00">src/libs/vgeometry</text>
<text text-anchor="middle" x="53.5" y="-130.5" font-family="Helvetica,sans-Serif" font-size="10.00">/vabstractarc.cpp</text>
</a>
</g>
</g>
<!-- Node1&#45;&gt;Node3 -->
<g id="edge3" class="edge">
<title>Node1&#45;&gt;Node3</title>
<path fill="none" stroke="midnightblue" d="M1449.41,-282.77C1171.39,-283.62 81.43,-283.66 31.5,-232 10.97,-210.75 29.9,-174 43.15,-153.8"/>
<polygon fill="midnightblue" stroke="midnightblue" points="1449.74,-286.27 1459.73,-282.74 1449.72,-279.27 1449.74,-286.27"/>
</g>
<!-- Node4 -->
<g id="node4" class="node">
<title>Node4</title>
<g id="a_node4"><a xlink:href="../../d5/d5a/vabstractcubicbezier_8cpp.html" target="_top" xlink:title=" ">
<polygon fill="white" stroke="black" points="166.5,-196 166.5,-226 306.5,-226 306.5,-196 166.5,-196"/>
<text text-anchor="start" x="174.5" y="-214" font-family="Helvetica,sans-Serif" font-size="10.00">src/libs/vgeometry</text>
<text text-anchor="middle" x="236.5" y="-203" font-family="Helvetica,sans-Serif" font-size="10.00">/vabstractcubicbezier.cpp</text>
</a>
</g>
</g>
<!-- Node1&#45;&gt;Node4 -->
<g id="edge4" class="edge">
<title>Node1&#45;&gt;Node4</title>
<path fill="none" stroke="midnightblue" d="M1449.61,-281.54C1234.47,-278.04 537.42,-264.42 315.5,-232 305.7,-230.57 295.35,-228.42 285.49,-226.06"/>
<polygon fill="midnightblue" stroke="midnightblue" points="1449.74,-285.04 1459.79,-281.7 1449.85,-278.04 1449.74,-285.04"/>
</g>
<!-- Node5 -->
<g id="node5" class="node">
<title>Node5</title>
<g id="a_node5"><a xlink:href="../../db/d0a/vabstractcubicbezierpath_8cpp.html" target="_top" xlink:title=" ">
<polygon fill="white" stroke="black" points="915,-123.5 915,-153.5 1078,-153.5 1078,-123.5 915,-123.5"/>
<text text-anchor="start" x="923" y="-141.5" font-family="Helvetica,sans-Serif" font-size="10.00">src/libs/vgeometry</text>
<text text-anchor="middle" x="996.5" y="-130.5" font-family="Helvetica,sans-Serif" font-size="10.00">/vabstractcubicbezierpath.cpp</text>
</a>
</g>
</g>
<!-- Node1&#45;&gt;Node5 -->
<g id="edge5" class="edge">
<title>Node1&#45;&gt;Node5</title>
<path fill="none" stroke="midnightblue" d="M1449.44,-281.49C1309.32,-278.61 985.49,-268.09 952.5,-232 931.14,-208.64 960.76,-173.04 980.79,-153.52"/>
<polygon fill="midnightblue" stroke="midnightblue" points="1449.53,-284.99 1459.6,-281.69 1449.67,-277.99 1449.53,-284.99"/>
</g>
<!-- Node6 -->
<g id="node6" class="node">
<title>Node6</title>
<g id="a_node6"><a xlink:href="../../d5/dd5/vcubicbezier_8h.html" target="_top" xlink:title=" ">
<polygon fill="white" stroke="black" points="1665,-196 1665,-226 1772,-226 1772,-196 1665,-196"/>
<text text-anchor="start" x="1673" y="-214" font-family="Helvetica,sans-Serif" font-size="10.00">src/libs/vgeometry</text>
<text text-anchor="middle" x="1718.5" y="-203" font-family="Helvetica,sans-Serif" font-size="10.00">/vcubicbezier.h</text>
</a>
</g>
</g>
<!-- Node1&#45;&gt;Node6 -->
<g id="edge6" class="edge">
<title>Node1&#45;&gt;Node6</title>
<path fill="none" stroke="midnightblue" d="M1564.04,-265.12C1599,-253.1 1644.92,-237.31 1677.58,-226.07"/>
<polygon fill="midnightblue" stroke="midnightblue" points="1562.81,-261.84 1554.49,-268.4 1565.09,-268.46 1562.81,-261.84"/>
</g>
<!-- Node8 -->
<g id="node8" class="node">
<title>Node8</title>
<g id="a_node8"><a xlink:href="../../d5/d8e/vcubicbezier__p_8h.html" target="_top" xlink:title=" ">
<polygon fill="white" stroke="black" points="1790,-196 1790,-226 1897,-226 1897,-196 1790,-196"/>
<text text-anchor="start" x="1798" y="-214" font-family="Helvetica,sans-Serif" font-size="10.00">src/libs/vgeometry</text>
<text text-anchor="middle" x="1843.5" y="-203" font-family="Helvetica,sans-Serif" font-size="10.00">/vcubicbezier_p.h</text>
</a>
</g>
</g>
<!-- Node1&#45;&gt;Node8 -->
<g id="edge8" class="edge">
<title>Node1&#45;&gt;Node8</title>
<path fill="none" stroke="midnightblue" d="M1577.29,-272.66C1631.68,-263.73 1711.74,-249.35 1780.5,-232 1787.4,-230.26 1794.65,-228.19 1801.68,-226.05"/>
<polygon fill="midnightblue" stroke="midnightblue" points="1576.41,-269.25 1567.1,-274.31 1577.54,-276.16 1576.41,-269.25"/>
</g>
<!-- Node9 -->
<g id="node9" class="node">
<title>Node9</title>
<g id="a_node9"><a xlink:href="../../d7/dbf/vcubicbezierpath__p_8h.html" target="_top" xlink:title=" ">
<polygon fill="white" stroke="black" points="325,-196 325,-226 448,-226 448,-196 325,-196"/>
<text text-anchor="start" x="333" y="-214" font-family="Helvetica,sans-Serif" font-size="10.00">src/libs/vgeometry</text>
<text text-anchor="middle" x="386.5" y="-203" font-family="Helvetica,sans-Serif" font-size="10.00">/vcubicbezierpath_p.h</text>
</a>
</g>
</g>
<!-- Node1&#45;&gt;Node9 -->
<g id="edge10" class="edge">
<title>Node1&#45;&gt;Node9</title>
<path fill="none" stroke="midnightblue" d="M1449.61,-281.34C1251.63,-277.46 650.16,-263.33 457.5,-232 448.65,-230.56 439.33,-228.41 430.46,-226.05"/>
<polygon fill="midnightblue" stroke="midnightblue" points="1449.78,-284.85 1459.84,-281.54 1449.91,-277.85 1449.78,-284.85"/>
</g>
<!-- Node11 -->
<g id="node11" class="node">
<title>Node11</title>
<g id="a_node11"><a xlink:href="../../dd/dbe/vcubicbezierpath_8h.html" target="_top" xlink:title=" ">
<polygon fill="white" stroke="black" points="466.5,-196 466.5,-226 578.5,-226 578.5,-196 466.5,-196"/>
<text text-anchor="start" x="474.5" y="-214" font-family="Helvetica,sans-Serif" font-size="10.00">src/libs/vgeometry</text>
<text text-anchor="middle" x="522.5" y="-203" font-family="Helvetica,sans-Serif" font-size="10.00">/vcubicbezierpath.h</text>
</a>
</g>
</g>
<!-- Node1&#45;&gt;Node11 -->
<g id="edge12" class="edge">
<title>Node1&#45;&gt;Node11</title>
<path fill="none" stroke="midnightblue" d="M1449.53,-281.04C1268.25,-276.59 753.58,-261.62 587.5,-232 579.36,-230.55 570.82,-228.4 562.69,-226.03"/>
<polygon fill="midnightblue" stroke="midnightblue" points="1449.62,-284.54 1459.7,-281.29 1449.79,-277.55 1449.62,-284.54"/>
</g>
<!-- Node12 -->
<g id="node12" class="node">
<title>Node12</title>
<g id="a_node12"><a xlink:href="../../da/ddf/vellipticalarc_8h.html" target="_top" xlink:title=" ">
<polygon fill="white" stroke="black" points="1337,-196 1337,-226 1444,-226 1444,-196 1337,-196"/>
<text text-anchor="start" x="1345" y="-214" font-family="Helvetica,sans-Serif" font-size="10.00">src/libs/vgeometry</text>
<text text-anchor="middle" x="1390.5" y="-203" font-family="Helvetica,sans-Serif" font-size="10.00">/vellipticalarc.h</text>
</a>
</g>
</g>
<!-- Node1&#45;&gt;Node12 -->
<g id="edge14" class="edge">
<title>Node1&#45;&gt;Node12</title>
<path fill="none" stroke="midnightblue" d="M1480.18,-263.4C1459.63,-251.62 1433.73,-236.78 1415.05,-226.07"/>
<polygon fill="midnightblue" stroke="midnightblue" points="1478.49,-266.47 1488.9,-268.4 1481.97,-260.39 1478.49,-266.47"/>
</g>
<!-- Node14 -->
<g id="node14" class="node">
<title>Node14</title>
<g id="a_node14"><a xlink:href="../../d6/d46/vcontainer_8cpp.html" target="_top" xlink:title=" ">
<polygon fill="white" stroke="black" points="1385,-123.5 1385,-153.5 1492,-153.5 1492,-123.5 1385,-123.5"/>
<text text-anchor="start" x="1393" y="-141.5" font-family="Helvetica,sans-Serif" font-size="10.00">src/libs/vpatterndb</text>
<text text-anchor="middle" x="1438.5" y="-130.5" font-family="Helvetica,sans-Serif" font-size="10.00">/vcontainer.cpp</text>
</a>
</g>
</g>
<!-- Node1&#45;&gt;Node14 -->
<g id="edge50" class="edge">
<title>Node1&#45;&gt;Node14</title>
<path fill="none" stroke="midnightblue" d="M1501.37,-259.37C1485.69,-229.48 1458.89,-178.37 1445.94,-153.68"/>
<polygon fill="midnightblue" stroke="midnightblue" points="1498.29,-261.04 1506.03,-268.27 1504.49,-257.78 1498.29,-261.04"/>
</g>
<!-- Node15 -->
<g id="node15" class="node">
<title>Node15</title>
<g id="a_node15"><a xlink:href="../../de/d12/varc_8h.html" target="_top" xlink:title=" ">
<polygon fill="white" stroke="black" points="1501,-196 1501,-226 1608,-226 1608,-196 1501,-196"/>
<text text-anchor="start" x="1509" y="-214" font-family="Helvetica,sans-Serif" font-size="10.00">src/libs/vgeometry</text>
<text text-anchor="middle" x="1554.5" y="-203" font-family="Helvetica,sans-Serif" font-size="10.00">/varc.h</text>
</a>
</g>
</g>
<!-- Node1&#45;&gt;Node15 -->
<g id="edge17" class="edge">
<title>Node1&#45;&gt;Node15</title>
<path fill="none" stroke="midnightblue" d="M1526.84,-259.56C1533.22,-248.59 1540.66,-235.8 1546.22,-226.25"/>
<polygon fill="midnightblue" stroke="midnightblue" points="1523.8,-257.83 1521.8,-268.23 1529.85,-261.35 1523.8,-257.83"/>
</g>
<!-- Node17 -->
<g id="node17" class="node">
<title>Node17</title>
<g id="a_node17"><a xlink:href="../../df/d7a/vpiece_8cpp.html" target="_top" xlink:title=" ">
<polygon fill="white" stroke="black" points="1635,-123.5 1635,-153.5 1742,-153.5 1742,-123.5 1635,-123.5"/>
<text text-anchor="start" x="1643" y="-141.5" font-family="Helvetica,sans-Serif" font-size="10.00">src/libs/vpatterndb</text>
<text text-anchor="middle" x="1688.5" y="-130.5" font-family="Helvetica,sans-Serif" font-size="10.00">/vpiece.cpp</text>
</a>
</g>
</g>
<!-- Node1&#45;&gt;Node17 -->
<g id="edge52" class="edge">
<title>Node1&#45;&gt;Node17</title>
<path fill="none" stroke="midnightblue" d="M1561.49,-264.43C1579.8,-256.18 1600.18,-245.27 1616.5,-232 1631.19,-220.06 1662.54,-176.64 1678.59,-153.79"/>
<polygon fill="midnightblue" stroke="midnightblue" points="1559.91,-261.3 1552.13,-268.49 1562.7,-267.72 1559.91,-261.3"/>
</g>
<!-- Node18 -->
<g id="node18" class="node">
<title>Node18</title>
<g id="a_node18"><a xlink:href="../../df/dde/vellipticalarc__p_8h.html" target="_top" xlink:title=" ">
<polygon fill="white" stroke="black" points="1212,-196 1212,-226 1319,-226 1319,-196 1212,-196"/>
<text text-anchor="start" x="1220" y="-214" font-family="Helvetica,sans-Serif" font-size="10.00">src/libs/vgeometry</text>
<text text-anchor="middle" x="1265.5" y="-203" font-family="Helvetica,sans-Serif" font-size="10.00">/vellipticalarc_p.h</text>
</a>
</g>
</g>
<!-- Node1&#45;&gt;Node18 -->
<g id="edge21" class="edge">
<title>Node1&#45;&gt;Node18</title>
<path fill="none" stroke="midnightblue" d="M1450.1,-266.08C1414.04,-256.54 1368.11,-244.06 1327.5,-232 1321.21,-230.13 1314.59,-228.09 1308.11,-226.04"/>
<polygon fill="midnightblue" stroke="midnightblue" points="1449.43,-269.52 1460,-268.69 1451.22,-262.75 1449.43,-269.52"/>
</g>
<!-- Node19 -->
<g id="node19" class="node">
<title>Node19</title>
<g id="a_node19"><a xlink:href="../../dd/da8/vpointf_8cpp.html" target="_top" xlink:title=" ">
<polygon fill="white" stroke="black" points="1915,-196 1915,-226 2022,-226 2022,-196 1915,-196"/>
<text text-anchor="start" x="1923" y="-214" font-family="Helvetica,sans-Serif" font-size="10.00">src/libs/vgeometry</text>
<text text-anchor="middle" x="1968.5" y="-203" font-family="Helvetica,sans-Serif" font-size="10.00">/vpointf.cpp</text>
</a>
</g>
</g>
<!-- Node1&#45;&gt;Node19 -->
<g id="edge23" class="edge">
<title>Node1&#45;&gt;Node19</title>
<path fill="none" stroke="midnightblue" d="M1577.3,-277.94C1655.57,-271.51 1791.98,-257.6 1906.5,-232 1913.78,-230.37 1921.43,-228.25 1928.78,-226.01"/>
<polygon fill="midnightblue" stroke="midnightblue" points="1576.8,-274.46 1567.12,-278.76 1577.37,-281.44 1576.8,-274.46"/>
</g>
<!-- Node20 -->
<g id="node20" class="node">
<title>Node20</title>
<g id="a_node20"><a xlink:href="../../d8/dfd/vspline_8h.html" target="_top" xlink:title=" ">
<polygon fill="white" stroke="black" points="962,-196 962,-226 1069,-226 1069,-196 962,-196"/>
<text text-anchor="start" x="970" y="-214" font-family="Helvetica,sans-Serif" font-size="10.00">src/libs/vgeometry</text>
<text text-anchor="middle" x="1015.5" y="-203" font-family="Helvetica,sans-Serif" font-size="10.00">/vspline.h</text>
</a>
</g>
</g>
<!-- Node1&#45;&gt;Node20 -->
<g id="edge24" class="edge">
<title>Node1&#45;&gt;Node20</title>
<path fill="none" stroke="midnightblue" d="M1449.86,-279.06C1364.37,-273.55 1208.09,-260.34 1077.5,-232 1070.21,-230.42 1062.55,-228.32 1055.21,-226.08"/>
<polygon fill="midnightblue" stroke="midnightblue" points="1449.72,-282.56 1459.93,-279.69 1450.16,-275.57 1449.72,-282.56"/>
</g>
<!-- Node22 -->
<g id="node22" class="node">
<title>Node22</title>
<g id="a_node22"><a xlink:href="../../d0/d39/vsplinepath_8h.html" target="_top" xlink:title=" ">
<polygon fill="white" stroke="black" points="751,-123.5 751,-153.5 858,-153.5 858,-123.5 751,-123.5"/>
<text text-anchor="start" x="759" y="-141.5" font-family="Helvetica,sans-Serif" font-size="10.00">src/libs/vgeometry</text>
<text text-anchor="middle" x="804.5" y="-130.5" font-family="Helvetica,sans-Serif" font-size="10.00">/vsplinepath.h</text>
</a>
</g>
</g>
<!-- Node1&#45;&gt;Node22 -->
<g id="edge47" class="edge">
<title>Node1&#45;&gt;Node22</title>
<path fill="none" stroke="midnightblue" d="M1449.74,-280.2C1299.3,-274.39 931.09,-257.7 881.5,-232 864.06,-222.96 830.71,-177.31 814.22,-153.7"/>
<polygon fill="midnightblue" stroke="midnightblue" points="1449.63,-283.7 1459.76,-280.59 1449.9,-276.71 1449.63,-283.7"/>
</g>
<!-- Node24 -->
<g id="node24" class="node">
<title>Node24</title>
<g id="a_node24"><a xlink:href="../../d1/d3a/abstracttest_8cpp.html" target="_top" xlink:title=" ">
<polygon fill="white" stroke="black" points="906,-62 906,-81 1067,-81 1067,-62 906,-62"/>
<text text-anchor="middle" x="986.5" y="-69" font-family="Helvetica,sans-Serif" font-size="10.00">src/libs/vtest/abstracttest.cpp</text>
</a>
</g>
</g>
<!-- Node1&#45;&gt;Node24 -->
<g id="edge54" class="edge">
<title>Node1&#45;&gt;Node24</title>
<path fill="none" stroke="midnightblue" d="M1449.72,-280.44C1309.24,-275.41 982.31,-260.72 941.5,-232 899.78,-202.64 880.74,-167.61 905.5,-123 917.08,-102.13 941.26,-88.76 960.2,-81.06"/>
<polygon fill="midnightblue" stroke="midnightblue" points="1449.79,-283.95 1459.91,-280.8 1450.04,-276.95 1449.79,-283.95"/>
</g>
<!-- Node27 -->
<g id="node27" class="node">
<title>Node27</title>
<g id="a_node27"><a xlink:href="../../d1/d76/vspline__p_8h.html" target="_top" xlink:title=" ">
<polygon fill="white" stroke="black" points="1087,-196 1087,-226 1194,-226 1194,-196 1087,-196"/>
<text text-anchor="start" x="1095" y="-214" font-family="Helvetica,sans-Serif" font-size="10.00">src/libs/vgeometry</text>
<text text-anchor="middle" x="1140.5" y="-203" font-family="Helvetica,sans-Serif" font-size="10.00">/vspline_p.h</text>
</a>
</g>
</g>
<!-- Node1&#45;&gt;Node27 -->
<g id="edge37" class="edge">
<title>Node1&#45;&gt;Node27</title>
<path fill="none" stroke="midnightblue" d="M1449.69,-275.01C1386.42,-266.91 1287,-252.37 1202.5,-232 1195.46,-230.3 1188.07,-228.21 1180.94,-226.01"/>
<polygon fill="midnightblue" stroke="midnightblue" points="1449.55,-278.52 1459.91,-276.3 1450.43,-271.57 1449.55,-278.52"/>
</g>
<!-- Node28 -->
<g id="node28" class="node">
<title>Node28</title>
<g id="a_node28"><a xlink:href="../../df/d4b/vsplinepoint_8h.html" target="_top" xlink:title=" ">
<polygon fill="white" stroke="black" points="597,-196 597,-226 704,-226 704,-196 597,-196"/>
<text text-anchor="start" x="605" y="-214" font-family="Helvetica,sans-Serif" font-size="10.00">src/libs/vgeometry</text>
<text text-anchor="middle" x="650.5" y="-203" font-family="Helvetica,sans-Serif" font-size="10.00">/vsplinepoint.h</text>
</a>
</g>
</g>
<!-- Node1&#45;&gt;Node28 -->
<g id="edge39" class="edge">
<title>Node1&#45;&gt;Node28</title>
<path fill="none" stroke="midnightblue" d="M1449.56,-280.52C1285.64,-275.13 853.4,-258.73 712.5,-232 704.83,-230.55 696.79,-228.42 689.14,-226.1"/>
<polygon fill="midnightblue" stroke="midnightblue" points="1449.85,-284.03 1459.96,-280.86 1450.08,-277.04 1449.85,-284.03"/>
</g>
<!-- Node31 -->
<g id="node31" class="node">
<title>Node31</title>
<g id="a_node31"><a xlink:href="../../da/db2/vsplinepoint__p_8h.html" target="_top" xlink:title=" ">
<polygon fill="white" stroke="black" points="722,-196 722,-226 829,-226 829,-196 722,-196"/>
<text text-anchor="start" x="730" y="-214" font-family="Helvetica,sans-Serif" font-size="10.00">src/libs/vgeometry</text>
<text text-anchor="middle" x="775.5" y="-203" font-family="Helvetica,sans-Serif" font-size="10.00">/vsplinepoint_p.h</text>
</a>
</g>
</g>
<!-- Node1&#45;&gt;Node31 -->
<g id="edge45" class="edge">
<title>Node1&#45;&gt;Node31</title>
<path fill="none" stroke="midnightblue" d="M1449.49,-282.15C1329.6,-280.5 1063.44,-272.17 843.5,-232 835.27,-230.5 826.61,-228.38 818.34,-226.08"/>
<polygon fill="midnightblue" stroke="midnightblue" points="1449.56,-285.65 1459.6,-282.27 1449.64,-278.65 1449.56,-285.65"/>
</g>
<!-- Node32 -->
<g id="node32" class="node">
<title>Node32</title>
<g id="a_node32"><a xlink:href="../../d9/d15/vabstractpiece_8cpp.html" target="_top" xlink:title=" ">
<polygon fill="white" stroke="black" points="2040.5,-201.5 2040.5,-220.5 2226.5,-220.5 2226.5,-201.5 2040.5,-201.5"/>
<text text-anchor="middle" x="2133.5" y="-208.5" font-family="Helvetica,sans-Serif" font-size="10.00">src/libs/vlayout/vabstractpiece.cpp</text>
</a>
</g>
</g>
<!-- Node1&#45;&gt;Node32 -->
<g id="edge48" class="edge">
<title>Node1&#45;&gt;Node32</title>
<path fill="none" stroke="midnightblue" d="M1577.06,-278.29C1674.98,-271.35 1868.52,-255.87 2031.5,-232 2052.39,-228.94 2075.49,-224.5 2094.42,-220.58"/>
<polygon fill="midnightblue" stroke="midnightblue" points="1576.75,-274.8 1567.02,-278.99 1577.24,-281.78 1576.75,-274.8"/>
</g>
<!-- Node33 -->
<g id="node33" class="node">
<title>Node33</title>
<g id="a_node33"><a xlink:href="../../dd/d70/vlayoutpiece_8cpp.html" target="_top" xlink:title=" ">
<polygon fill="white" stroke="black" points="2244,-201.5 2244,-220.5 2421,-220.5 2421,-201.5 2244,-201.5"/>
<text text-anchor="middle" x="2332.5" y="-208.5" font-family="Helvetica,sans-Serif" font-size="10.00">src/libs/vlayout/vlayoutpiece.cpp</text>
</a>
</g>
</g>
<!-- Node1&#45;&gt;Node33 -->
<g id="edge49" class="edge">
<title>Node1&#45;&gt;Node33</title>
<path fill="none" stroke="midnightblue" d="M1577.45,-280.89C1703.76,-277.08 1993.95,-265.2 2235.5,-232 2255.94,-229.19 2278.53,-224.62 2296.77,-220.56"/>
<polygon fill="midnightblue" stroke="midnightblue" points="1577.08,-277.4 1567.19,-281.19 1577.29,-284.4 1577.08,-277.4"/>
</g>
<!-- Node34 -->
<g id="node34" class="node">
<title>Node34</title>
<g id="a_node34"><a xlink:href="../../d6/d91/vnodedetail_8cpp.html" target="_top" xlink:title=" ">
<polygon fill="white" stroke="black" points="2439,-196 2439,-226 2546,-226 2546,-196 2439,-196"/>
<text text-anchor="start" x="2447" y="-214" font-family="Helvetica,sans-Serif" font-size="10.00">src/libs/vpatterndb</text>
<text text-anchor="middle" x="2492.5" y="-203" font-family="Helvetica,sans-Serif" font-size="10.00">/vnodedetail.cpp</text>
</a>
</g>
</g>
<!-- Node1&#45;&gt;Node34 -->
<g id="edge51" class="edge">
<title>Node1&#45;&gt;Node34</title>
<path fill="none" stroke="midnightblue" d="M1577.19,-281.12C1757.04,-276.88 2266.34,-262.47 2430.5,-232 2438.28,-230.56 2446.45,-228.41 2454.2,-226.04"/>
<polygon fill="midnightblue" stroke="midnightblue" points="1577.01,-277.62 1567.09,-281.35 1577.17,-284.62 1577.01,-277.62"/>
</g>
<!-- Node35 -->
<g id="node35" class="node">
<title>Node35</title>
<g id="a_node35"><a xlink:href="../../da/de1/vpiecepath_8cpp.html" target="_top" xlink:title=" ">
<polygon fill="white" stroke="black" points="2564,-196 2564,-226 2671,-226 2671,-196 2564,-196"/>
<text text-anchor="start" x="2572" y="-214" font-family="Helvetica,sans-Serif" font-size="10.00">src/libs/vpatterndb</text>
<text text-anchor="middle" x="2617.5" y="-203" font-family="Helvetica,sans-Serif" font-size="10.00">/vpiecepath.cpp</text>
</a>
</g>
</g>
<!-- Node1&#45;&gt;Node35 -->
<g id="edge53" class="edge">
<title>Node1&#45;&gt;Node35</title>
<path fill="none" stroke="midnightblue" d="M1577.28,-281.61C1773.48,-278.51 2366.23,-266.49 2555.5,-232 2563.29,-230.58 2571.45,-228.44 2579.21,-226.08"/>
<polygon fill="midnightblue" stroke="midnightblue" points="1577.08,-278.11 1567.13,-281.76 1577.18,-285.11 1577.08,-278.11"/>
</g>
<!-- Node36 -->
<g id="node36" class="node">
<title>Node36</title>
<g id="a_node36"><a xlink:href="../../d3/d22/insert__nodes__dialog_8cpp.html" target="_top" xlink:title=" ">
<polygon fill="white" stroke="black" points="2689.5,-196 2689.5,-226 2853.5,-226 2853.5,-196 2689.5,-196"/>
<text text-anchor="start" x="2697.5" y="-214" font-family="Helvetica,sans-Serif" font-size="10.00">src/libs/vtools/dialogs</text>
<text text-anchor="middle" x="2771.5" y="-203" font-family="Helvetica,sans-Serif" font-size="10.00">/tools/insert_nodes_dialog.cpp</text>
</a>
</g>
</g>
<!-- Node1&#45;&gt;Node36 -->
<g id="edge55" class="edge">
<title>Node1&#45;&gt;Node36</title>
<path fill="none" stroke="midnightblue" d="M1577.45,-281.19C1788.93,-276.64 2464.46,-260.2 2680.5,-232 2691.73,-230.53 2703.62,-228.38 2714.97,-226.01"/>
<polygon fill="midnightblue" stroke="midnightblue" points="1577.07,-277.7 1567.15,-281.41 1577.22,-284.7 1577.07,-277.7"/>
</g>
<!-- Node37 -->
<g id="node37" class="node">
<title>Node37</title>
<g id="a_node37"><a xlink:href="../../de/d46/pattern__piece__dialog_8cpp.html" target="_top" xlink:title=" ">
<polygon fill="white" stroke="black" points="2872,-190.5 2872,-231.5 3015,-231.5 3015,-190.5 2872,-190.5"/>
<text text-anchor="start" x="2880" y="-219.5" font-family="Helvetica,sans-Serif" font-size="10.00">src/libs/vtools/dialogs</text>
<text text-anchor="start" x="2880" y="-208.5" font-family="Helvetica,sans-Serif" font-size="10.00">/tools/piece/pattern_piece</text>
<text text-anchor="middle" x="2943.5" y="-197.5" font-family="Helvetica,sans-Serif" font-size="10.00">_dialog.cpp</text>
</a>
</g>
</g>
<!-- Node1&#45;&gt;Node37 -->
<g id="edge56" class="edge">
<title>Node1&#45;&gt;Node37</title>
<path fill="none" stroke="midnightblue" d="M1577.44,-281.84C1809.89,-279.17 2609.65,-267.57 2862.5,-232 2865.51,-231.58 2868.58,-231.09 2871.66,-230.55"/>
<polygon fill="midnightblue" stroke="midnightblue" points="1577.09,-278.34 1567.13,-281.96 1577.17,-285.34 1577.09,-278.34"/>
</g>
<!-- Node38 -->
<g id="node38" class="node">
<title>Node38</title>
<g id="a_node38"><a xlink:href="../../d4/d7b/vnodepoint_8cpp.html" target="_top" xlink:title=" ">
<polygon fill="white" stroke="black" points="3033.5,-196 3033.5,-226 3189.5,-226 3189.5,-196 3033.5,-196"/>
<text text-anchor="start" x="3041.5" y="-214" font-family="Helvetica,sans-Serif" font-size="10.00">src/libs/vtools/tools</text>
<text text-anchor="middle" x="3111.5" y="-203" font-family="Helvetica,sans-Serif" font-size="10.00">/nodeDetails/vnodepoint.cpp</text>
</a>
</g>
</g>
<!-- Node1&#45;&gt;Node38 -->
<g id="edge57" class="edge">
<title>Node1&#45;&gt;Node38</title>
<path fill="none" stroke="midnightblue" d="M1577.45,-282C1827.33,-279.81 2738.09,-269.35 3024.5,-232 3035.41,-230.58 3046.96,-228.4 3057.96,-226.01"/>
<polygon fill="midnightblue" stroke="midnightblue" points="1577.07,-278.51 1567.1,-282.09 1577.13,-285.51 1577.07,-278.51"/>
</g>
<!-- Node39 -->
<g id="node39" class="node">
<title>Node39</title>
<g id="a_node39"><a xlink:href="../../d8/d76/scene__rect_8cpp.html" target="_top" xlink:title=" ">
<polygon fill="white" stroke="black" points="3207.5,-196 3207.5,-226 3337.5,-226 3337.5,-196 3207.5,-196"/>
<text text-anchor="start" x="3215.5" y="-214" font-family="Helvetica,sans-Serif" font-size="10.00">src/libs/vwidgets/scene</text>
<text text-anchor="middle" x="3272.5" y="-203" font-family="Helvetica,sans-Serif" font-size="10.00">_rect.cpp</text>
</a>
</g>
</g>
<!-- Node1&#45;&gt;Node39 -->
<g id="edge58" class="edge">
<title>Node1&#45;&gt;Node39</title>
<path fill="none" stroke="midnightblue" d="M1577.64,-282.58C1845.68,-282.61 2877.09,-279.58 3198.5,-232 3207.85,-230.62 3217.7,-228.46 3227.06,-226.07"/>
<polygon fill="midnightblue" stroke="midnightblue" points="1577.31,-279.08 1567.31,-282.58 1577.31,-286.08 1577.31,-279.08"/>
</g>
<!-- Node40 -->
<g id="node40" class="node">
<title>Node40</title>
<g id="a_node40"><a xlink:href="../../d0/d5d/vscenepoint_8cpp.html" target="_top" xlink:title=" ">
<polygon fill="white" stroke="black" points="3356,-201.5 3356,-220.5 3537,-220.5 3537,-201.5 3356,-201.5"/>
<text text-anchor="middle" x="3446.5" y="-208.5" font-family="Helvetica,sans-Serif" font-size="10.00">src/libs/vwidgets/vscenepoint.cpp</text>
</a>
</g>
</g>
<!-- Node1&#45;&gt;Node40 -->
<g id="edge59" class="edge">
<title>Node1&#45;&gt;Node40</title>
<path fill="none" stroke="midnightblue" d="M1577.11,-282.2C1858.48,-280.64 2992.82,-271.95 3346.5,-232 3368.32,-229.54 3392.46,-224.77 3411.56,-220.5"/>
<polygon fill="midnightblue" stroke="midnightblue" points="1577.06,-278.7 1567.07,-282.25 1577.09,-285.7 1577.06,-278.7"/>
</g>
<!-- Node41 -->
<g id="node41" class="node">
<title>Node41</title>
<g id="a_node41"><a xlink:href="../../df/d38/vsimplepoint_8cpp.html" target="_top" xlink:title=" ">
<polygon fill="white" stroke="black" points="3555,-201.5 3555,-220.5 3740,-220.5 3740,-201.5 3555,-201.5"/>
<text text-anchor="middle" x="3647.5" y="-208.5" font-family="Helvetica,sans-Serif" font-size="10.00">src/libs/vwidgets/vsimplepoint.cpp</text>
</a>
</g>
</g>
<!-- Node1&#45;&gt;Node41 -->
<g id="edge60" class="edge">
<title>Node1&#45;&gt;Node41</title>
<path fill="none" stroke="midnightblue" d="M1577.53,-282.38C1878.13,-281.6 3151.36,-275.71 3546.5,-232 3568.53,-229.56 3592.92,-224.79 3612.21,-220.52"/>
<polygon fill="midnightblue" stroke="midnightblue" points="1577.24,-278.88 1567.25,-282.41 1577.25,-285.88 1577.24,-278.88"/>
</g>
<!-- Node2&#45;&gt;Node3 -->
<g id="edge2" class="edge">
<title>Node2&#45;&gt;Node3</title>
<path fill="none" stroke="midnightblue" d="M81.16,-187.06C74.78,-176.09 67.34,-163.3 61.78,-153.75"/>
<polygon fill="midnightblue" stroke="midnightblue" points="78.15,-188.85 86.2,-195.73 84.2,-185.33 78.15,-188.85"/>
</g>
<!-- Node7 -->
<g id="node7" class="node">
<title>Node7</title>
<g id="a_node7"><a xlink:href="../../d2/d26/vcubicbezier_8cpp.html" target="_top" xlink:title=" ">
<polygon fill="white" stroke="black" points="1779,-123.5 1779,-153.5 1886,-153.5 1886,-123.5 1779,-123.5"/>
<text text-anchor="start" x="1787" y="-141.5" font-family="Helvetica,sans-Serif" font-size="10.00">src/libs/vgeometry</text>
<text text-anchor="middle" x="1832.5" y="-130.5" font-family="Helvetica,sans-Serif" font-size="10.00">/vcubicbezier.cpp</text>
</a>
</g>
</g>
<!-- Node6&#45;&gt;Node7 -->
<g id="edge7" class="edge">
<title>Node6&#45;&gt;Node7</title>
<path fill="none" stroke="midnightblue" d="M1749.9,-190.58C1768.86,-178.86 1792.59,-164.18 1809.74,-153.57"/>
<polygon fill="midnightblue" stroke="midnightblue" points="1747.96,-187.67 1741.3,-195.9 1751.64,-193.62 1747.96,-187.67"/>
</g>
<!-- Node8&#45;&gt;Node7 -->
<g id="edge9" class="edge">
<title>Node8&#45;&gt;Node7</title>
<path fill="none" stroke="midnightblue" d="M1839.71,-185.73C1838.05,-175.07 1836.15,-162.91 1834.72,-153.75"/>
<polygon fill="midnightblue" stroke="midnightblue" points="1836.27,-186.39 1841.27,-195.73 1843.19,-185.31 1836.27,-186.39"/>
</g>
<!-- Node10 -->
<g id="node10" class="node">
<title>Node10</title>
<g id="a_node10"><a xlink:href="../../de/df0/vcubicbezierpath_8cpp.html" target="_top" xlink:title=" ">
<polygon fill="white" stroke="black" points="360,-123.5 360,-153.5 483,-153.5 483,-123.5 360,-123.5"/>
<text text-anchor="start" x="368" y="-141.5" font-family="Helvetica,sans-Serif" font-size="10.00">src/libs/vgeometry</text>
<text text-anchor="middle" x="421.5" y="-130.5" font-family="Helvetica,sans-Serif" font-size="10.00">/vcubicbezierpath.cpp</text>
</a>
</g>
</g>
<!-- Node9&#45;&gt;Node10 -->
<g id="edge11" class="edge">
<title>Node9&#45;&gt;Node10</title>
<path fill="none" stroke="midnightblue" d="M398.05,-186.73C403.46,-175.83 409.73,-163.2 414.43,-153.75"/>
<polygon fill="midnightblue" stroke="midnightblue" points="394.89,-185.22 393.58,-195.73 401.16,-188.33 394.89,-185.22"/>
</g>
<!-- Node11&#45;&gt;Node10 -->
<g id="edge13" class="edge">
<title>Node11&#45;&gt;Node10</title>
<path fill="none" stroke="midnightblue" d="M493.75,-189.93C477.07,-178.29 456.49,-163.92 441.56,-153.5"/>
<polygon fill="midnightblue" stroke="midnightblue" points="491.86,-192.88 502.06,-195.73 495.86,-187.14 491.86,-192.88"/>
</g>
<!-- Node13 -->
<g id="node13" class="node">
<title>Node13</title>
<g id="a_node13"><a xlink:href="../../d6/dfb/vellipticalarc_8cpp.html" target="_top" xlink:title=" ">
<polygon fill="white" stroke="black" points="1260,-123.5 1260,-153.5 1367,-153.5 1367,-123.5 1260,-123.5"/>
<text text-anchor="start" x="1268" y="-141.5" font-family="Helvetica,sans-Serif" font-size="10.00">src/libs/vgeometry</text>
<text text-anchor="middle" x="1313.5" y="-130.5" font-family="Helvetica,sans-Serif" font-size="10.00">/vellipticalarc.cpp</text>
</a>
</g>
</g>
<!-- Node12&#45;&gt;Node13 -->
<g id="edge15" class="edge">
<title>Node12&#45;&gt;Node13</title>
<path fill="none" stroke="midnightblue" d="M1367.52,-188.96C1355.01,-177.5 1339.86,-163.64 1328.8,-153.5"/>
<polygon fill="midnightblue" stroke="midnightblue" points="1365.18,-191.56 1374.92,-195.73 1369.91,-186.4 1365.18,-191.56"/>
</g>
<!-- Node12&#45;&gt;Node14 -->
<g id="edge16" class="edge">
<title>Node12&#45;&gt;Node14</title>
<path fill="none" stroke="midnightblue" d="M1405.9,-187.39C1413.42,-176.34 1422.23,-163.39 1428.8,-153.75"/>
<polygon fill="midnightblue" stroke="midnightblue" points="1402.95,-185.5 1400.21,-195.73 1408.73,-189.44 1402.95,-185.5"/>
</g>
<!-- Node15&#45;&gt;Node14 -->
<g id="edge19" class="edge">
<title>Node15&#45;&gt;Node14</title>
<path fill="none" stroke="midnightblue" d="M1522.55,-190.58C1503.26,-178.86 1479.11,-164.18 1461.66,-153.57"/>
<polygon fill="midnightblue" stroke="midnightblue" points="1520.94,-193.7 1531.3,-195.9 1524.58,-187.72 1520.94,-193.7"/>
</g>
<!-- Node16 -->
<g id="node16" class="node">
<title>Node16</title>
<g id="a_node16"><a xlink:href="../../d5/ded/varc_8cpp.html" target="_top" xlink:title=" ">
<polygon fill="white" stroke="black" points="1510,-123.5 1510,-153.5 1617,-153.5 1617,-123.5 1510,-123.5"/>
<text text-anchor="start" x="1518" y="-141.5" font-family="Helvetica,sans-Serif" font-size="10.00">src/libs/vgeometry</text>
<text text-anchor="middle" x="1563.5" y="-130.5" font-family="Helvetica,sans-Serif" font-size="10.00">/varc.cpp</text>
</a>
</g>
</g>
<!-- Node15&#45;&gt;Node16 -->
<g id="edge18" class="edge">
<title>Node15&#45;&gt;Node16</title>
<path fill="none" stroke="midnightblue" d="M1557.6,-185.73C1558.96,-175.07 1560.51,-162.91 1561.68,-153.75"/>
<polygon fill="midnightblue" stroke="midnightblue" points="1554.12,-185.37 1556.32,-195.73 1561.06,-186.26 1554.12,-185.37"/>
</g>
<!-- Node15&#45;&gt;Node17 -->
<g id="edge20" class="edge">
<title>Node15&#45;&gt;Node17</title>
<path fill="none" stroke="midnightblue" d="M1590.2,-191.22C1612.68,-179.39 1641.22,-164.37 1661.75,-153.57"/>
<polygon fill="midnightblue" stroke="midnightblue" points="1588.52,-188.15 1581.29,-195.9 1591.77,-194.34 1588.52,-188.15"/>
</g>
<!-- Node18&#45;&gt;Node13 -->
<g id="edge22" class="edge">
<title>Node18&#45;&gt;Node13</title>
<path fill="none" stroke="midnightblue" d="M1280.9,-187.39C1288.42,-176.34 1297.23,-163.39 1303.8,-153.75"/>
<polygon fill="midnightblue" stroke="midnightblue" points="1277.95,-185.5 1275.21,-195.73 1283.73,-189.44 1277.95,-185.5"/>
</g>
<!-- Node20&#45;&gt;Node5 -->
<g id="edge25" class="edge">
<title>Node20&#45;&gt;Node5</title>
<path fill="none" stroke="midnightblue" d="M1009.05,-186.06C1006.15,-175.32 1002.84,-163.01 1000.34,-153.75"/>
<polygon fill="midnightblue" stroke="midnightblue" points="1005.67,-186.99 1011.66,-195.73 1012.43,-185.17 1005.67,-186.99"/>
</g>
<!-- Node20&#45;&gt;Node10 -->
<g id="edge28" class="edge">
<title>Node20&#45;&gt;Node10</title>
<path fill="none" stroke="midnightblue" d="M951.54,-202.68C917.65,-198.84 875.32,-194.09 837.5,-190 683.79,-173.37 644.28,-177.71 491.5,-154 488.8,-153.58 486.05,-153.13 483.28,-152.65"/>
<polygon fill="midnightblue" stroke="midnightblue" points="951.44,-206.2 961.77,-203.85 952.23,-199.24 951.44,-206.2"/>
</g>
<!-- Node20&#45;&gt;Node13 -->
<g id="edge27" class="edge">
<title>Node20&#45;&gt;Node13</title>
<path fill="none" stroke="midnightblue" d="M1066.66,-193.03C1070.32,-191.96 1073.96,-190.94 1077.5,-190 1153.42,-169.92 1173.78,-170.81 1250.5,-154 1253.57,-153.33 1256.72,-152.63 1259.9,-151.92"/>
<polygon fill="midnightblue" stroke="midnightblue" points="1065.57,-189.7 1057.01,-195.94 1067.59,-196.4 1065.57,-189.7"/>
</g>
<!-- Node20&#45;&gt;Node14 -->
<g id="edge35" class="edge">
<title>Node20&#45;&gt;Node14</title>
<path fill="none" stroke="midnightblue" d="M1064.97,-193.11C1069.18,-191.96 1073.4,-190.9 1077.5,-190 1207.8,-161.39 1244.09,-176.99 1375.5,-154 1378.6,-153.46 1381.77,-152.86 1384.96,-152.23"/>
<polygon fill="midnightblue" stroke="midnightblue" points="1063.84,-189.8 1055.21,-195.95 1065.79,-196.52 1063.84,-189.8"/>
</g>
<!-- Node20&#45;&gt;Node16 -->
<g id="edge26" class="edge">
<title>Node20&#45;&gt;Node16</title>
<path fill="none" stroke="midnightblue" d="M1064.19,-193.15C1068.66,-191.96 1073.14,-190.88 1077.5,-190 1262.48,-152.8 1314.1,-183.23 1500.5,-154 1503.6,-153.51 1506.78,-152.96 1509.98,-152.36"/>
<polygon fill="midnightblue" stroke="midnightblue" points="1063.15,-189.81 1054.5,-195.94 1065.08,-196.54 1063.15,-189.81"/>
</g>
<!-- Node21 -->
<g id="node21" class="node">
<title>Node21</title>
<g id="a_node21"><a xlink:href="../../d5/dd2/vspline_8cpp.html" target="_top" xlink:title=" ">
<polygon fill="white" stroke="black" points="1135,-123.5 1135,-153.5 1242,-153.5 1242,-123.5 1135,-123.5"/>
<text text-anchor="start" x="1143" y="-141.5" font-family="Helvetica,sans-Serif" font-size="10.00">src/libs/vgeometry</text>
<text text-anchor="middle" x="1188.5" y="-130.5" font-family="Helvetica,sans-Serif" font-size="10.00">/vspline.cpp</text>
</a>
</g>
</g>
<!-- Node20&#45;&gt;Node21 -->
<g id="edge29" class="edge">
<title>Node20&#45;&gt;Node21</title>
<path fill="none" stroke="midnightblue" d="M1059.67,-192C1088.97,-180.06 1126.87,-164.61 1153.97,-153.57"/>
<polygon fill="midnightblue" stroke="midnightblue" points="1058.03,-188.89 1050.09,-195.9 1060.67,-195.37 1058.03,-188.89"/>
</g>
<!-- Node20&#45;&gt;Node22 -->
<g id="edge30" class="edge">
<title>Node20&#45;&gt;Node22</title>
<path fill="none" stroke="midnightblue" d="M963.74,-192.7C927.76,-180.68 880.41,-164.86 846.72,-153.61"/>
<polygon fill="midnightblue" stroke="midnightblue" points="962.97,-196.14 973.56,-195.99 965.19,-189.5 962.97,-196.14"/>
</g>
<!-- Node20&#45;&gt;Node24 -->
<g id="edge36" class="edge">
<title>Node20&#45;&gt;Node24</title>
<path fill="none" stroke="midnightblue" d="M1050.13,-190.21C1075.03,-173.29 1101.76,-147.8 1086.5,-123 1072.94,-100.97 1046.48,-88.2 1024.18,-81.01"/>
<polygon fill="midnightblue" stroke="midnightblue" points="1047.95,-187.44 1041.46,-195.82 1051.76,-193.32 1047.95,-187.44"/>
</g>
<!-- Node23 -->
<g id="node23" class="node">
<title>Node23</title>
<g id="a_node23"><a xlink:href="../../db/d6a/vsplinepath_8cpp.html" target="_top" xlink:title=" ">
<polygon fill="white" stroke="black" points="539,-56.5 539,-86.5 646,-86.5 646,-56.5 539,-56.5"/>
<text text-anchor="start" x="547" y="-74.5" font-family="Helvetica,sans-Serif" font-size="10.00">src/libs/vgeometry</text>
<text text-anchor="middle" x="592.5" y="-63.5" font-family="Helvetica,sans-Serif" font-size="10.00">/vsplinepath.cpp</text>
</a>
</g>
</g>
<!-- Node22&#45;&gt;Node23 -->
<g id="edge31" class="edge">
<title>Node22&#45;&gt;Node23</title>
<path fill="none" stroke="midnightblue" d="M748.87,-120.44C714.51,-109.91 670.94,-96.55 638.52,-86.61"/>
<polygon fill="midnightblue" stroke="midnightblue" points="748.17,-123.89 758.76,-123.48 750.23,-117.2 748.17,-123.89"/>
</g>
<!-- Node22&#45;&gt;Node24 -->
<g id="edge32" class="edge">
<title>Node22&#45;&gt;Node24</title>
<path fill="none" stroke="midnightblue" d="M853.65,-119.95C889,-107.32 935.12,-90.85 962.68,-81.01"/>
<polygon fill="midnightblue" stroke="midnightblue" points="852.23,-116.74 843.99,-123.4 854.59,-123.33 852.23,-116.74"/>
</g>
<!-- Node25 -->
<g id="node25" class="node">
<title>Node25</title>
<g id="a_node25"><a xlink:href="../../d8/d13/vcontrolpointspline_8h.html" target="_top" xlink:title=" ">
<polygon fill="white" stroke="black" points="683.5,-62 683.5,-81 887.5,-81 887.5,-62 683.5,-62"/>
<text text-anchor="middle" x="785.5" y="-69" font-family="Helvetica,sans-Serif" font-size="10.00">src/libs/vwidgets/vcontrolpointspline.h</text>
</a>
</g>
</g>
<!-- Node22&#45;&gt;Node25 -->
<g id="edge33" class="edge">
<title>Node22&#45;&gt;Node25</title>
<path fill="none" stroke="midnightblue" d="M797.51,-113.6C794.2,-102.28 790.46,-89.46 788.04,-81.19"/>
<polygon fill="midnightblue" stroke="midnightblue" points="794.21,-114.78 800.38,-123.4 800.93,-112.82 794.21,-114.78"/>
</g>
<!-- Node26 -->
<g id="node26" class="node">
<title>Node26</title>
<g id="a_node26"><a xlink:href="../../de/d45/vcontrolpointspline_8cpp.html" target="_top" xlink:title=" ">
<polygon fill="white" stroke="black" points="678,-0.5 678,-19.5 893,-19.5 893,-0.5 678,-0.5"/>
<text text-anchor="middle" x="785.5" y="-7.5" font-family="Helvetica,sans-Serif" font-size="10.00">src/libs/vwidgets/vcontrolpointspline.cpp</text>
</a>
</g>
</g>
<!-- Node25&#45;&gt;Node26 -->
<g id="edge34" class="edge">
<title>Node25&#45;&gt;Node26</title>
<path fill="none" stroke="midnightblue" d="M785.5,-51.82C785.5,-41 785.5,-27.9 785.5,-19.51"/>
<polygon fill="midnightblue" stroke="midnightblue" points="782,-51.98 785.5,-61.98 789,-51.98 782,-51.98"/>
</g>
<!-- Node27&#45;&gt;Node21 -->
<g id="edge38" class="edge">
<title>Node27&#45;&gt;Node21</title>
<path fill="none" stroke="midnightblue" d="M1155.9,-187.39C1163.42,-176.34 1172.23,-163.39 1178.8,-153.75"/>
<polygon fill="midnightblue" stroke="midnightblue" points="1152.95,-185.5 1150.21,-195.73 1158.73,-189.44 1152.95,-185.5"/>
</g>
<!-- Node28&#45;&gt;Node10 -->
<g id="edge40" class="edge">
<title>Node28&#45;&gt;Node10</title>
<path fill="none" stroke="midnightblue" d="M596.9,-192.93C593.72,-191.94 590.57,-190.95 587.5,-190 547.37,-177.53 501.68,-163.65 468.41,-153.61"/>
<polygon fill="midnightblue" stroke="midnightblue" points="595.87,-196.28 606.46,-195.94 597.97,-189.6 595.87,-196.28"/>
</g>
<!-- Node28&#45;&gt;Node22 -->
<g id="edge44" class="edge">
<title>Node28&#45;&gt;Node22</title>
<path fill="none" stroke="midnightblue" d="M690.5,-191.69C716.49,-179.79 749.85,-164.52 773.76,-153.57"/>
<polygon fill="midnightblue" stroke="midnightblue" points="688.93,-188.56 681.29,-195.9 691.84,-194.92 688.93,-188.56"/>
</g>
<!-- Node29 -->
<g id="node29" class="node">
<title>Node29</title>
<g id="a_node29"><a xlink:href="../../d0/dd8/vsplinepath__p_8h.html" target="_top" xlink:title=" ">
<polygon fill="white" stroke="black" points="501,-123.5 501,-153.5 608,-153.5 608,-123.5 501,-123.5"/>
<text text-anchor="start" x="509" y="-141.5" font-family="Helvetica,sans-Serif" font-size="10.00">src/libs/vgeometry</text>
<text text-anchor="middle" x="554.5" y="-130.5" font-family="Helvetica,sans-Serif" font-size="10.00">/vsplinepath_p.h</text>
</a>
</g>
</g>
<!-- Node28&#45;&gt;Node29 -->
<g id="edge41" class="edge">
<title>Node28&#45;&gt;Node29</title>
<path fill="none" stroke="midnightblue" d="M622.73,-189.61C606.96,-178.03 587.63,-163.83 573.57,-153.5"/>
<polygon fill="midnightblue" stroke="midnightblue" points="620.94,-192.64 631.07,-195.73 625.08,-186.99 620.94,-192.64"/>
</g>
<!-- Node30 -->
<g id="node30" class="node">
<title>Node30</title>
<g id="a_node30"><a xlink:href="../../d5/d81/vsplinepoint_8cpp.html" target="_top" xlink:title=" ">
<polygon fill="white" stroke="black" points="626,-123.5 626,-153.5 733,-153.5 733,-123.5 626,-123.5"/>
<text text-anchor="start" x="634" y="-141.5" font-family="Helvetica,sans-Serif" font-size="10.00">src/libs/vgeometry</text>
<text text-anchor="middle" x="679.5" y="-130.5" font-family="Helvetica,sans-Serif" font-size="10.00">/vsplinepoint.cpp</text>
</a>
</g>
</g>
<!-- Node28&#45;&gt;Node30 -->
<g id="edge43" class="edge">
<title>Node28&#45;&gt;Node30</title>
<path fill="none" stroke="midnightblue" d="M660.21,-186.4C664.66,-175.58 669.79,-163.11 673.64,-153.75"/>
<polygon fill="midnightblue" stroke="midnightblue" points="656.94,-185.15 656.37,-195.73 663.41,-187.82 656.94,-185.15"/>
</g>
<!-- Node29&#45;&gt;Node23 -->
<g id="edge42" class="edge">
<title>Node29&#45;&gt;Node23</title>
<path fill="none" stroke="midnightblue" d="M567.9,-114.58C573.36,-105.24 579.49,-94.75 584.27,-86.58"/>
<polygon fill="midnightblue" stroke="midnightblue" points="564.77,-113 562.75,-123.4 570.81,-116.53 564.77,-113"/>
</g>
<!-- Node31&#45;&gt;Node30 -->
<g id="edge46" class="edge">
<title>Node31&#45;&gt;Node30</title>
<path fill="none" stroke="midnightblue" d="M747.73,-189.61C731.96,-178.03 712.63,-163.83 698.57,-153.5"/>
<polygon fill="midnightblue" stroke="midnightblue" points="745.94,-192.64 756.07,-195.73 750.08,-186.99 745.94,-192.64"/>
</g>
</g>
</svg>
