<?xml version="1.0" encoding="UTF-8" standalone="no"?>
<!DOCTYPE svg PUBLIC "-//W3C//DTD SVG 1.1//EN"
 "http://www.w3.org/Graphics/SVG/1.1/DTD/svg11.dtd">
<!-- Generated by graphviz version 2.43.0 (0)
 -->
<!-- Title: src/libs/vpatterndb/vcontainer.h Pages: 1 -->
<svg width="7204pt" height="240pt"
 viewBox="0.00 0.00 7204.00 240.00" xmlns="http://www.w3.org/2000/svg" xmlns:xlink="http://www.w3.org/1999/xlink">
<g id="graph0" class="graph" transform="scale(1 1) rotate(0) translate(4 236)">
<title>src/libs/vpatterndb/vcontainer.h</title>
<polygon fill="white" stroke="transparent" points="-4,4 -4,-236 7200,-236 7200,4 -4,4"/>
<!-- Node1 -->
<g id="node1" class="node">
<title>Node1</title>
<g id="a_node1"><a xlink:title=" ">
<polygon fill="#bfbfbf" stroke="black" points="6176.5,-201.5 6176.5,-231.5 6283.5,-231.5 6283.5,-201.5 6176.5,-201.5"/>
<text text-anchor="start" x="6184.5" y="-219.5" font-family="Helvetica,sans-Serif" font-size="10.00">src/libs/vpatterndb</text>
<text text-anchor="middle" x="6230" y="-208.5" font-family="Helvetica,sans-Serif" font-size="10.00">/vcontainer.h</text>
</a>
</g>
</g>
<!-- Node2 -->
<g id="node2" class="node">
<title>Node2</title>
<g id="a_node2"><a xlink:href="../../d4/dd6/vmeasurements_8h.html" target="_top" xlink:title=" ">
<polygon fill="white" stroke="black" points="147.5,-140 147.5,-159 332.5,-159 332.5,-140 147.5,-140"/>
<text text-anchor="middle" x="240" y="-147" font-family="Helvetica,sans-Serif" font-size="10.00">src/libs/vformat/vmeasurements.h</text>
</a>
</g>
</g>
<!-- Node1&#45;&gt;Node2 -->
<g id="edge1" class="edge">
<title>Node1&#45;&gt;Node2</title>
<path fill="none" stroke="midnightblue" d="M6166.15,-215.61C5710.74,-216.26 2907.83,-217.87 628,-165 527.08,-162.66 411.47,-158.1 332.88,-154.71"/>
<polygon fill="midnightblue" stroke="midnightblue" points="6166.47,-219.11 6176.47,-215.6 6166.46,-212.11 6166.47,-219.11"/>
</g>
<!-- Node3 -->
<g id="node3" class="node">
<title>Node3</title>
<g id="a_node3"><a xlink:href="../../de/db3/vmeasurements_8cpp.html" target="_top" xlink:title=" ">
<polygon fill="white" stroke="black" points="0,-73 0,-92 196,-92 196,-73 0,-73"/>
<text text-anchor="middle" x="98" y="-80" font-family="Helvetica,sans-Serif" font-size="10.00">src/libs/vformat/vmeasurements.cpp</text>
</a>
</g>
</g>
<!-- Node1&#45;&gt;Node3 -->
<g id="edge3" class="edge">
<title>Node1&#45;&gt;Node3</title>
<path fill="none" stroke="midnightblue" d="M6166.38,-215.3C5595.59,-213.5 1363.25,-199.02 802,-165 559.44,-150.3 272.13,-109.77 153.49,-92.02"/>
<polygon fill="midnightblue" stroke="midnightblue" points="6166.47,-218.8 6176.48,-215.34 6166.5,-211.8 6166.47,-218.8"/>
</g>
<!-- Node4 -->
<g id="node4" class="node">
<title>Node4</title>
<g id="a_node4"><a xlink:href="../../d6/de0/vlayoutpiece_8h.html" target="_top" xlink:title=" ">
<polygon fill="white" stroke="black" points="811,-140 811,-159 977,-159 977,-140 811,-140"/>
<text text-anchor="middle" x="894" y="-147" font-family="Helvetica,sans-Serif" font-size="10.00">src/libs/vlayout/vlayoutpiece.h</text>
</a>
</g>
</g>
<!-- Node1&#45;&gt;Node4 -->
<g id="edge4" class="edge">
<title>Node1&#45;&gt;Node4</title>
<path fill="none" stroke="midnightblue" d="M6166.1,-214.72C5610.61,-207.96 1605.92,-159.17 977.01,-151.51"/>
<polygon fill="midnightblue" stroke="midnightblue" points="6166.28,-218.22 6176.32,-214.85 6166.37,-211.22 6166.28,-218.22"/>
</g>
<!-- Node14 -->
<g id="node13" class="node">
<title>Node14</title>
<g id="a_node13"><a xlink:href="../../d8/d70/vtextmanager_8cpp.html" target="_top" xlink:title=" ">
<polygon fill="white" stroke="black" points="1536,-73 1536,-92 1718,-92 1718,-73 1536,-73"/>
<text text-anchor="middle" x="1627" y="-80" font-family="Helvetica,sans-Serif" font-size="10.00">src/libs/vlayout/vtextmanager.cpp</text>
</a>
</g>
</g>
<!-- Node1&#45;&gt;Node14 -->
<g id="edge15" class="edge">
<title>Node1&#45;&gt;Node14</title>
<path fill="none" stroke="midnightblue" d="M6165.88,-213.9C5917.81,-207.72 4997.19,-184.73 4239,-165 3122.54,-135.95 2839.78,-193.19 1727,-98 1710.92,-96.62 1693.48,-94.36 1677.74,-92.03"/>
<polygon fill="midnightblue" stroke="midnightblue" points="6166.07,-217.41 6176.15,-214.16 6166.24,-210.41 6166.07,-217.41"/>
</g>
<!-- Node15 -->
<g id="node14" class="node">
<title>Node15</title>
<g id="a_node14"><a xlink:href="../../d5/d74/vabstractapplication_8h.html" target="_top" xlink:title=" ">
<polygon fill="white" stroke="red" points="4248.5,-140 4248.5,-159 4443.5,-159 4443.5,-140 4248.5,-140"/>
<text text-anchor="middle" x="4346" y="-147" font-family="Helvetica,sans-Serif" font-size="10.00">src/libs/vmisc/vabstractapplication.h</text>
</a>
</g>
</g>
<!-- Node1&#45;&gt;Node15 -->
<g id="edge16" class="edge">
<title>Node1&#45;&gt;Node15</title>
<path fill="none" stroke="midnightblue" d="M6166.08,-213.29C5887.71,-203.69 4780.17,-165.48 4443.55,-153.87"/>
<polygon fill="midnightblue" stroke="midnightblue" points="6166.29,-216.8 6176.4,-213.65 6166.53,-209.81 6166.29,-216.8"/>
</g>
<!-- Node33 -->
<g id="node28" class="node">
<title>Node33</title>
<g id="a_node28"><a xlink:href="../../db/d11/vformula_8cpp.html" target="_top" xlink:title=" ">
<polygon fill="white" stroke="black" points="6035.5,-67.5 6035.5,-97.5 6142.5,-97.5 6142.5,-67.5 6035.5,-67.5"/>
<text text-anchor="start" x="6043.5" y="-85.5" font-family="Helvetica,sans-Serif" font-size="10.00">src/libs/vpatterndb</text>
<text text-anchor="middle" x="6089" y="-74.5" font-family="Helvetica,sans-Serif" font-size="10.00">/vformula.cpp</text>
</a>
</g>
</g>
<!-- Node1&#45;&gt;Node33 -->
<g id="edge52" class="edge">
<title>Node1&#45;&gt;Node33</title>
<path fill="none" stroke="midnightblue" d="M6207.3,-194.25C6178.24,-167.04 6128.71,-120.68 6103.98,-97.52"/>
<polygon fill="midnightblue" stroke="midnightblue" points="6205.22,-197.09 6214.91,-201.37 6210,-191.98 6205.22,-197.09"/>
</g>
<!-- Node34 -->
<g id="node29" class="node">
<title>Node34</title>
<g id="a_node29"><a xlink:href="../../d6/d46/vcontainer_8cpp.html" target="_top" xlink:title=" ">
<polygon fill="white" stroke="black" points="6160.5,-67.5 6160.5,-97.5 6267.5,-97.5 6267.5,-67.5 6160.5,-67.5"/>
<text text-anchor="start" x="6168.5" y="-85.5" font-family="Helvetica,sans-Serif" font-size="10.00">src/libs/vpatterndb</text>
<text text-anchor="middle" x="6214" y="-74.5" font-family="Helvetica,sans-Serif" font-size="10.00">/vcontainer.cpp</text>
</a>
</g>
</g>
<!-- Node1&#45;&gt;Node34 -->
<g id="edge53" class="edge">
<title>Node1&#45;&gt;Node34</title>
<path fill="none" stroke="midnightblue" d="M6222.01,-191.37C6219.62,-183.1 6217.3,-173.73 6216,-165 6212.53,-141.62 6212.73,-114.06 6213.3,-97.72"/>
<polygon fill="midnightblue" stroke="midnightblue" points="6218.72,-192.58 6224.99,-201.12 6225.41,-190.53 6218.72,-192.58"/>
</g>
<!-- Node35 -->
<g id="node30" class="node">
<title>Node35</title>
<g id="a_node30"><a xlink:href="../../df/d7a/vpiece_8cpp.html" target="_top" xlink:title=" ">
<polygon fill="white" stroke="black" points="6285.5,-67.5 6285.5,-97.5 6392.5,-97.5 6392.5,-67.5 6285.5,-67.5"/>
<text text-anchor="start" x="6293.5" y="-85.5" font-family="Helvetica,sans-Serif" font-size="10.00">src/libs/vpatterndb</text>
<text text-anchor="middle" x="6339" y="-74.5" font-family="Helvetica,sans-Serif" font-size="10.00">/vpiece.cpp</text>
</a>
</g>
</g>
<!-- Node1&#45;&gt;Node35 -->
<g id="edge56" class="edge">
<title>Node1&#45;&gt;Node35</title>
<path fill="none" stroke="midnightblue" d="M6232.37,-191.41C6235.13,-173.95 6241.11,-150.59 6254,-134 6266.53,-117.87 6285.78,-105.82 6302.79,-97.55"/>
<polygon fill="midnightblue" stroke="midnightblue" points="6228.89,-191.03 6231.03,-201.4 6235.83,-191.96 6228.89,-191.03"/>
</g>
<!-- Node37 -->
<g id="node32" class="node">
<title>Node37</title>
<g id="a_node32"><a xlink:href="../../d8/dba/vpiecenode_8cpp.html" target="_top" xlink:title=" ">
<polygon fill="white" stroke="black" points="5998.5,-0.5 5998.5,-30.5 6105.5,-30.5 6105.5,-0.5 5998.5,-0.5"/>
<text text-anchor="start" x="6006.5" y="-18.5" font-family="Helvetica,sans-Serif" font-size="10.00">src/libs/vpatterndb</text>
<text text-anchor="middle" x="6052" y="-7.5" font-family="Helvetica,sans-Serif" font-size="10.00">/vpiecenode.cpp</text>
</a>
</g>
</g>
<!-- Node1&#45;&gt;Node37 -->
<g id="edge55" class="edge">
<title>Node1&#45;&gt;Node37</title>
<path fill="none" stroke="midnightblue" d="M6240.98,-192.11C6250.68,-173.83 6266.47,-149.07 6287,-134 6329.83,-102.56 6369.59,-140.86 6401,-98 6409.14,-86.89 6410.02,-77.42 6401,-67 6363.43,-23.61 6193.68,-16.69 6105.52,-16.09"/>
<polygon fill="midnightblue" stroke="midnightblue" points="6237.74,-190.74 6236.34,-201.24 6243.99,-193.91 6237.74,-190.74"/>
</g>
<!-- Node53 -->
<g id="node45" class="node">
<title>Node53</title>
<g id="a_node45"><a xlink:href="../../d1/de1/vincrement__p_8h.html" target="_top" xlink:title=" ">
<polygon fill="white" stroke="red" points="6296.5,-134.5 6296.5,-164.5 6439.5,-164.5 6439.5,-134.5 6296.5,-134.5"/>
<text text-anchor="start" x="6304.5" y="-152.5" font-family="Helvetica,sans-Serif" font-size="10.00">src/libs/vpatterndb</text>
<text text-anchor="middle" x="6368" y="-141.5" font-family="Helvetica,sans-Serif" font-size="10.00">/variables/vincrement_p.h</text>
</a>
</g>
</g>
<!-- Node1&#45;&gt;Node53 -->
<g id="edge50" class="edge">
<title>Node1&#45;&gt;Node53</title>
<path fill="none" stroke="midnightblue" d="M6269,-197.13C6290.93,-186.8 6317.87,-174.11 6338.11,-164.58"/>
<polygon fill="midnightblue" stroke="midnightblue" points="6267.5,-193.97 6259.94,-201.4 6270.48,-200.3 6267.5,-193.97"/>
</g>
<!-- Node55 -->
<g id="node46" class="node">
<title>Node55</title>
<g id="a_node46"><a xlink:href="../../d6/dc1/vmeasurement__p_8h.html" target="_top" xlink:title=" ">
<polygon fill="white" stroke="red" points="6458,-134.5 6458,-164.5 6620,-164.5 6620,-134.5 6458,-134.5"/>
<text text-anchor="start" x="6466" y="-152.5" font-family="Helvetica,sans-Serif" font-size="10.00">src/libs/vpatterndb</text>
<text text-anchor="middle" x="6539" y="-141.5" font-family="Helvetica,sans-Serif" font-size="10.00">/variables/vmeasurement_p.h</text>
</a>
</g>
</g>
<!-- Node1&#45;&gt;Node55 -->
<g id="edge51" class="edge">
<title>Node1&#45;&gt;Node55</title>
<path fill="none" stroke="midnightblue" d="M6293.63,-202.12C6345.79,-191.14 6419.38,-175.66 6472.34,-164.52"/>
<polygon fill="midnightblue" stroke="midnightblue" points="6292.89,-198.69 6283.82,-204.18 6294.33,-205.54 6292.89,-198.69"/>
</g>
<!-- Node57 -->
<g id="node47" class="node">
<title>Node57</title>
<g id="a_node47"><a xlink:href="../../d6/d91/vnodedetail_8cpp.html" target="_top" xlink:title=" ">
<polygon fill="white" stroke="black" points="6638.5,-134.5 6638.5,-164.5 6745.5,-164.5 6745.5,-134.5 6638.5,-134.5"/>
<text text-anchor="start" x="6646.5" y="-152.5" font-family="Helvetica,sans-Serif" font-size="10.00">src/libs/vpatterndb</text>
<text text-anchor="middle" x="6692" y="-141.5" font-family="Helvetica,sans-Serif" font-size="10.00">/vnodedetail.cpp</text>
</a>
</g>
</g>
<!-- Node1&#45;&gt;Node57 -->
<g id="edge54" class="edge">
<title>Node1&#45;&gt;Node57</title>
<path fill="none" stroke="midnightblue" d="M6293.78,-209.42C6372.8,-201.43 6511.4,-185.92 6629,-165 6632.09,-164.45 6635.26,-163.85 6638.46,-163.21"/>
<polygon fill="midnightblue" stroke="midnightblue" points="6293.1,-205.97 6283.5,-210.45 6293.8,-212.94 6293.1,-205.97"/>
</g>
<!-- Node58 -->
<g id="node48" class="node">
<title>Node58</title>
<g id="a_node48"><a xlink:href="../../da/de1/vpiecepath_8cpp.html" target="_top" xlink:title=" ">
<polygon fill="white" stroke="black" points="6763.5,-134.5 6763.5,-164.5 6870.5,-164.5 6870.5,-134.5 6763.5,-134.5"/>
<text text-anchor="start" x="6771.5" y="-152.5" font-family="Helvetica,sans-Serif" font-size="10.00">src/libs/vpatterndb</text>
<text text-anchor="middle" x="6817" y="-141.5" font-family="Helvetica,sans-Serif" font-size="10.00">/vpiecepath.cpp</text>
</a>
</g>
</g>
<!-- Node1&#45;&gt;Node58 -->
<g id="edge57" class="edge">
<title>Node1&#45;&gt;Node58</title>
<path fill="none" stroke="midnightblue" d="M6293.74,-212.13C6392.89,-206.26 6589.85,-192.13 6755,-165 6757.73,-164.55 6760.51,-164.05 6763.32,-163.52"/>
<polygon fill="midnightblue" stroke="midnightblue" points="6293.37,-208.64 6283.59,-212.72 6293.78,-215.63 6293.37,-208.64"/>
</g>
<!-- Node59 -->
<g id="node49" class="node">
<title>Node59</title>
<g id="a_node49"><a xlink:href="../../d1/d3a/abstracttest_8cpp.html" target="_top" xlink:title=" ">
<polygon fill="white" stroke="black" points="6888.5,-140 6888.5,-159 7049.5,-159 7049.5,-140 6888.5,-140"/>
<text text-anchor="middle" x="6969" y="-147" font-family="Helvetica,sans-Serif" font-size="10.00">src/libs/vtest/abstracttest.cpp</text>
</a>
</g>
</g>
<!-- Node1&#45;&gt;Node59 -->
<g id="edge58" class="edge">
<title>Node1&#45;&gt;Node59</title>
<path fill="none" stroke="midnightblue" d="M6293.84,-212.32C6410.51,-206.12 6665.92,-190.71 6880,-165 6893.37,-163.39 6907.8,-161.23 6921.07,-159.07"/>
<polygon fill="midnightblue" stroke="midnightblue" points="6293.46,-208.84 6283.65,-212.86 6293.83,-215.83 6293.46,-208.84"/>
</g>
<!-- Node60 -->
<g id="node50" class="node">
<title>Node60</title>
<g id="a_node50"><a xlink:href="../../da/db4/piece__tablewidgetitem_8cpp.html" target="_top" xlink:title=" ">
<polygon fill="white" stroke="black" points="7068,-134.5 7068,-164.5 7196,-164.5 7196,-134.5 7068,-134.5"/>
<text text-anchor="start" x="7076" y="-152.5" font-family="Helvetica,sans-Serif" font-size="10.00">src/libs/vwidgets/piece</text>
<text text-anchor="middle" x="7132" y="-141.5" font-family="Helvetica,sans-Serif" font-size="10.00">_tablewidgetitem.cpp</text>
</a>
</g>
</g>
<!-- Node1&#45;&gt;Node60 -->
<g id="edge59" class="edge">
<title>Node1&#45;&gt;Node60</title>
<path fill="none" stroke="midnightblue" d="M6293.65,-214.55C6432.96,-211.84 6775.09,-201.67 7059,-165 7061.95,-164.62 7064.95,-164.19 7067.99,-163.72"/>
<polygon fill="midnightblue" stroke="midnightblue" points="6293.51,-211.05 6283.58,-214.74 6293.64,-218.05 6293.51,-211.05"/>
</g>
<!-- Node2&#45;&gt;Node3 -->
<g id="edge2" class="edge">
<title>Node2&#45;&gt;Node3</title>
<path fill="none" stroke="midnightblue" d="M211.85,-135.61C183.72,-122.74 141.27,-103.31 116.93,-92.17"/>
<polygon fill="midnightblue" stroke="midnightblue" points="210.59,-138.89 221.14,-139.87 213.51,-132.52 210.59,-138.89"/>
</g>
<!-- Node5 -->
<g id="node5" class="node">
<title>Node5</title>
<g id="a_node5"><a xlink:href="../../dd/d66/vdxfengine_8cpp.html" target="_top" xlink:title=" ">
<polygon fill="white" stroke="black" points="1168,-73 1168,-92 1322,-92 1322,-73 1168,-73"/>
<text text-anchor="middle" x="1245" y="-80" font-family="Helvetica,sans-Serif" font-size="10.00">src/libs/vdxf/vdxfengine.cpp</text>
</a>
</g>
</g>
<!-- Node4&#45;&gt;Node5 -->
<g id="edge5" class="edge">
<title>Node4&#45;&gt;Node5</title>
<path fill="none" stroke="midnightblue" d="M950.5,-138.04C1019.54,-125.25 1135.01,-103.87 1198.93,-92.03"/>
<polygon fill="midnightblue" stroke="midnightblue" points="949.44,-134.67 940.25,-139.94 950.72,-141.56 949.44,-134.67"/>
</g>
<!-- Node6 -->
<g id="node6" class="node">
<title>Node6</title>
<g id="a_node6"><a xlink:href="../../de/da8/vbank_8cpp.html" target="_top" xlink:title=" ">
<polygon fill="white" stroke="black" points="214,-73 214,-92 358,-92 358,-73 214,-73"/>
<text text-anchor="middle" x="286" y="-80" font-family="Helvetica,sans-Serif" font-size="10.00">src/libs/vlayout/vbank.cpp</text>
</a>
</g>
</g>
<!-- Node4&#45;&gt;Node6 -->
<g id="edge6" class="edge">
<title>Node4&#45;&gt;Node6</title>
<path fill="none" stroke="midnightblue" d="M800.71,-141.87C695.17,-133.84 518.29,-118.75 367,-98 354.97,-96.35 342,-94.2 330.04,-92.06"/>
<polygon fill="midnightblue" stroke="midnightblue" points="800.46,-145.36 810.7,-142.63 800.99,-138.38 800.46,-145.36"/>
</g>
<!-- Node7 -->
<g id="node7" class="node">
<title>Node7</title>
<g id="a_node7"><a xlink:href="../../df/d5d/vcontour_8cpp.html" target="_top" xlink:title=" ">
<polygon fill="white" stroke="black" points="376,-73 376,-92 532,-92 532,-73 376,-73"/>
<text text-anchor="middle" x="454" y="-80" font-family="Helvetica,sans-Serif" font-size="10.00">src/libs/vlayout/vcontour.cpp</text>
</a>
</g>
</g>
<!-- Node4&#45;&gt;Node7 -->
<g id="edge7" class="edge">
<title>Node4&#45;&gt;Node7</title>
<path fill="none" stroke="midnightblue" d="M821.21,-138.59C749.78,-128.74 637.8,-112.99 541,-98 529.05,-96.15 516.18,-94.06 504.11,-92.06"/>
<polygon fill="midnightblue" stroke="midnightblue" points="821.06,-142.1 831.45,-139.99 822.02,-135.16 821.06,-142.1"/>
</g>
<!-- Node8 -->
<g id="node8" class="node">
<title>Node8</title>
<g id="a_node8"><a xlink:href="../../d3/d39/vlayoutgenerator_8cpp.html" target="_top" xlink:title=" ">
<polygon fill="white" stroke="black" points="550.5,-73 550.5,-92 747.5,-92 747.5,-73 550.5,-73"/>
<text text-anchor="middle" x="649" y="-80" font-family="Helvetica,sans-Serif" font-size="10.00">src/libs/vlayout/vlayoutgenerator.cpp</text>
</a>
</g>
</g>
<!-- Node4&#45;&gt;Node8 -->
<g id="edge8" class="edge">
<title>Node4&#45;&gt;Node8</title>
<path fill="none" stroke="midnightblue" d="M851.87,-137.32C803.5,-124.49 725.18,-103.71 681.35,-92.08"/>
<polygon fill="midnightblue" stroke="midnightblue" points="851.16,-140.75 861.72,-139.94 852.95,-133.99 851.16,-140.75"/>
</g>
<!-- Node9 -->
<g id="node9" class="node">
<title>Node9</title>
<g id="a_node9"><a xlink:href="../../d1/dd1/vlayoutpaper_8cpp.html" target="_top" xlink:title=" ">
<polygon fill="white" stroke="black" points="805,-6 805,-25 983,-25 983,-6 805,-6"/>
<text text-anchor="middle" x="894" y="-13" font-family="Helvetica,sans-Serif" font-size="10.00">src/libs/vlayout/vlayoutpaper.cpp</text>
</a>
</g>
</g>
<!-- Node4&#45;&gt;Node9 -->
<g id="edge9" class="edge">
<title>Node4&#45;&gt;Node9</title>
<path fill="none" stroke="midnightblue" d="M847.17,-136.5C827.49,-128.89 806.52,-116.81 795,-98 787.8,-86.25 787.8,-78.75 795,-67 808.4,-45.12 834.6,-32.34 856.68,-25.12"/>
<polygon fill="midnightblue" stroke="midnightblue" points="846.09,-139.83 856.68,-139.88 848.43,-133.23 846.09,-139.83"/>
</g>
<!-- Node10 -->
<g id="node10" class="node">
<title>Node10</title>
<g id="a_node10"><a xlink:href="../../d2/d2d/vlayoutpaper__p_8h.html" target="_top" xlink:title=" ">
<polygon fill="white" stroke="black" points="804.5,-73 804.5,-92 983.5,-92 983.5,-73 804.5,-73"/>
<text text-anchor="middle" x="894" y="-80" font-family="Helvetica,sans-Serif" font-size="10.00">src/libs/vlayout/vlayoutpaper_p.h</text>
</a>
</g>
</g>
<!-- Node4&#45;&gt;Node10 -->
<g id="edge10" class="edge">
<title>Node4&#45;&gt;Node10</title>
<path fill="none" stroke="midnightblue" d="M894,-129.54C894,-117.17 894,-101.62 894,-92.13"/>
<polygon fill="midnightblue" stroke="midnightblue" points="890.5,-129.73 894,-139.73 897.5,-129.73 890.5,-129.73"/>
</g>
<!-- Node11 -->
<g id="node11" class="node">
<title>Node11</title>
<g id="a_node11"><a xlink:href="../../dd/d70/vlayoutpiece_8cpp.html" target="_top" xlink:title=" ">
<polygon fill="white" stroke="black" points="1340.5,-73 1340.5,-92 1517.5,-92 1517.5,-73 1340.5,-73"/>
<text text-anchor="middle" x="1429" y="-80" font-family="Helvetica,sans-Serif" font-size="10.00">src/libs/vlayout/vlayoutpiece.cpp</text>
</a>
</g>
</g>
<!-- Node4&#45;&gt;Node11 -->
<g id="edge12" class="edge">
<title>Node4&#45;&gt;Node11</title>
<path fill="none" stroke="midnightblue" d="M984.64,-138.88C1073.09,-129.29 1211.43,-113.75 1331,-98 1344.81,-96.18 1359.69,-94.06 1373.59,-92.01"/>
<polygon fill="midnightblue" stroke="midnightblue" points="984.2,-135.4 974.64,-139.96 984.96,-142.36 984.2,-135.4"/>
</g>
<!-- Node12 -->
<g id="node12" class="node">
<title>Node12</title>
<g id="a_node12"><a xlink:href="../../db/d5c/vposition_8h.html" target="_top" xlink:title=" ">
<polygon fill="white" stroke="red" points="1002,-73 1002,-92 1150,-92 1150,-73 1002,-73"/>
<text text-anchor="middle" x="1076" y="-80" font-family="Helvetica,sans-Serif" font-size="10.00">src/libs/vlayout/vposition.h</text>
</a>
</g>
</g>
<!-- Node4&#45;&gt;Node12 -->
<g id="edge13" class="edge">
<title>Node4&#45;&gt;Node12</title>
<path fill="none" stroke="midnightblue" d="M927.78,-136.44C963.88,-123.54 1020.21,-103.42 1052.02,-92.06"/>
<polygon fill="midnightblue" stroke="midnightblue" points="926.41,-133.21 918.17,-139.87 928.76,-139.8 926.41,-133.21"/>
</g>
<!-- Node10&#45;&gt;Node9 -->
<g id="edge11" class="edge">
<title>Node10&#45;&gt;Node9</title>
<path fill="none" stroke="midnightblue" d="M894,-62.54C894,-50.17 894,-34.62 894,-25.13"/>
<polygon fill="midnightblue" stroke="midnightblue" points="890.5,-62.73 894,-72.73 897.5,-62.73 890.5,-62.73"/>
</g>
<!-- Node12&#45;&gt;Node9 -->
<g id="edge14" class="edge">
<title>Node12&#45;&gt;Node9</title>
<path fill="none" stroke="midnightblue" d="M1042.22,-69.44C1006.12,-56.54 949.79,-36.42 917.98,-25.06"/>
<polygon fill="midnightblue" stroke="midnightblue" points="1041.24,-72.8 1051.83,-72.87 1043.59,-66.21 1041.24,-72.8"/>
</g>
<!-- Node15&#45;&gt;Node11 -->
<g id="edge27" class="edge">
<title>Node15&#45;&gt;Node11</title>
<path fill="none" stroke="midnightblue" d="M4238.28,-148.43C3789.71,-147.85 2068.32,-142.71 1527,-98 1510.97,-96.68 1493.58,-94.39 1477.96,-92.01"/>
<polygon fill="midnightblue" stroke="midnightblue" points="4238.31,-151.93 4248.32,-148.44 4238.32,-144.93 4238.31,-151.93"/>
</g>
<!-- Node15&#45;&gt;Node14 -->
<g id="edge28" class="edge">
<title>Node15&#45;&gt;Node14</title>
<path fill="none" stroke="midnightblue" d="M4238.02,-147.21C3776.24,-141.61 1979.47,-118.66 1727,-98 1710.74,-96.67 1693.1,-94.39 1677.22,-92.03"/>
<polygon fill="midnightblue" stroke="midnightblue" points="4238.31,-150.72 4248.35,-147.34 4238.4,-143.72 4238.31,-150.72"/>
</g>
<!-- Node16 -->
<g id="node15" class="node">
<title>Node16</title>
<g id="a_node15"><a xlink:href="../../d4/d90/fvupdater_8cpp.html" target="_top" xlink:title=" ">
<polygon fill="white" stroke="black" points="3802.5,-73 3802.5,-92 3955.5,-92 3955.5,-73 3802.5,-73"/>
<text text-anchor="middle" x="3879" y="-80" font-family="Helvetica,sans-Serif" font-size="10.00">src/libs/fervor/fvupdater.cpp</text>
</a>
</g>
</g>
<!-- Node15&#45;&gt;Node16 -->
<g id="edge17" class="edge">
<title>Node15&#45;&gt;Node16</title>
<path fill="none" stroke="midnightblue" d="M4265.32,-138.73C4187.92,-129.14 4067.81,-113.71 3964,-98 3952.01,-96.19 3939.1,-94.07 3927.05,-92.02"/>
<polygon fill="midnightblue" stroke="midnightblue" points="4265.13,-142.23 4275.48,-139.98 4265.99,-135.28 4265.13,-142.23"/>
</g>
<!-- Node17 -->
<g id="node16" class="node">
<title>Node17</title>
<g id="a_node16"><a xlink:href="../../d9/dc8/dxiface_8cpp.html" target="_top" xlink:title=" ">
<polygon fill="white" stroke="black" points="3973.5,-73 3973.5,-92 4108.5,-92 4108.5,-73 3973.5,-73"/>
<text text-anchor="middle" x="4041" y="-80" font-family="Helvetica,sans-Serif" font-size="10.00">src/libs/vdxf/dxiface.cpp</text>
</a>
</g>
</g>
<!-- Node15&#45;&gt;Node17 -->
<g id="edge18" class="edge">
<title>Node15&#45;&gt;Node17</title>
<path fill="none" stroke="midnightblue" d="M4295.81,-137.8C4235.79,-125.01 4136.52,-103.86 4081.28,-92.08"/>
<polygon fill="midnightblue" stroke="midnightblue" points="4295.3,-141.27 4305.81,-139.94 4296.76,-134.43 4295.3,-141.27"/>
</g>
<!-- Node18 -->
<g id="node17" class="node">
<title>Node18</title>
<g id="a_node17"><a xlink:href="../../da/d75/vabstractarc__p_8h.html" target="_top" xlink:title=" ">
<polygon fill="white" stroke="red" points="4126.5,-67.5 4126.5,-97.5 4233.5,-97.5 4233.5,-67.5 4126.5,-67.5"/>
<text text-anchor="start" x="4134.5" y="-85.5" font-family="Helvetica,sans-Serif" font-size="10.00">src/libs/vgeometry</text>
<text text-anchor="middle" x="4180" y="-74.5" font-family="Helvetica,sans-Serif" font-size="10.00">/vabstractarc_p.h</text>
</a>
</g>
</g>
<!-- Node15&#45;&gt;Node18 -->
<g id="edge19" class="edge">
<title>Node15&#45;&gt;Node18</title>
<path fill="none" stroke="midnightblue" d="M4314.59,-136.2C4286.46,-125.19 4245.23,-109.04 4215.83,-97.53"/>
<polygon fill="midnightblue" stroke="midnightblue" points="4313.37,-139.48 4323.96,-139.87 4315.92,-132.96 4313.37,-139.48"/>
</g>
<!-- Node20 -->
<g id="node18" class="node">
<title>Node20</title>
<g id="a_node18"><a xlink:href="../../dc/da3/varc__p_8h.html" target="_top" xlink:title=" ">
<polygon fill="white" stroke="red" points="4251.5,-67.5 4251.5,-97.5 4358.5,-97.5 4358.5,-67.5 4251.5,-67.5"/>
<text text-anchor="start" x="4259.5" y="-85.5" font-family="Helvetica,sans-Serif" font-size="10.00">src/libs/vgeometry</text>
<text text-anchor="middle" x="4305" y="-74.5" font-family="Helvetica,sans-Serif" font-size="10.00">/varc_p.h</text>
</a>
</g>
</g>
<!-- Node15&#45;&gt;Node20 -->
<g id="edge20" class="edge">
<title>Node15&#45;&gt;Node20</title>
<path fill="none" stroke="midnightblue" d="M4334.98,-131.03C4328.37,-120.56 4320.08,-107.4 4313.89,-97.59"/>
<polygon fill="midnightblue" stroke="midnightblue" points="4332.18,-133.14 4340.47,-139.73 4338.1,-129.41 4332.18,-133.14"/>
</g>
<!-- Node22 -->
<g id="node19" class="node">
<title>Node22</title>
<g id="a_node19"><a xlink:href="../../df/dde/vellipticalarc__p_8h.html" target="_top" xlink:title=" ">
<polygon fill="white" stroke="black" points="4415.5,-67.5 4415.5,-97.5 4522.5,-97.5 4522.5,-67.5 4415.5,-67.5"/>
<text text-anchor="start" x="4423.5" y="-85.5" font-family="Helvetica,sans-Serif" font-size="10.00">src/libs/vgeometry</text>
<text text-anchor="middle" x="4469" y="-74.5" font-family="Helvetica,sans-Serif" font-size="10.00">/vellipticalarc_p.h</text>
</a>
</g>
</g>
<!-- Node15&#45;&gt;Node22 -->
<g id="edge21" class="edge">
<title>Node15&#45;&gt;Node22</title>
<path fill="none" stroke="midnightblue" d="M4371.18,-135.19C4391.87,-124.26 4421.11,-108.81 4442.22,-97.65"/>
<polygon fill="midnightblue" stroke="midnightblue" points="4369.54,-132.1 4362.33,-139.87 4372.81,-138.29 4369.54,-132.1"/>
</g>
<!-- Node23 -->
<g id="node20" class="node">
<title>Node23</title>
<g id="a_node20"><a xlink:href="../../d6/dfb/vellipticalarc_8cpp.html" target="_top" xlink:title=" ">
<polygon fill="white" stroke="black" points="4374.5,-0.5 4374.5,-30.5 4481.5,-30.5 4481.5,-0.5 4374.5,-0.5"/>
<text text-anchor="start" x="4382.5" y="-18.5" font-family="Helvetica,sans-Serif" font-size="10.00">src/libs/vgeometry</text>
<text text-anchor="middle" x="4428" y="-7.5" font-family="Helvetica,sans-Serif" font-size="10.00">/vellipticalarc.cpp</text>
</a>
</g>
</g>
<!-- Node15&#45;&gt;Node23 -->
<g id="edge24" class="edge">
<title>Node15&#45;&gt;Node23</title>
<path fill="none" stroke="midnightblue" d="M4356.69,-131.3C4373.03,-104.98 4403.94,-55.23 4419.13,-30.78"/>
<polygon fill="midnightblue" stroke="midnightblue" points="4353.68,-129.5 4351.38,-139.84 4359.63,-133.19 4353.68,-129.5"/>
</g>
<!-- Node24 -->
<g id="node21" class="node">
<title>Node24</title>
<g id="a_node21"><a xlink:href="../../d5/d8e/vcubicbezier__p_8h.html" target="_top" xlink:title=" ">
<polygon fill="white" stroke="red" points="4540.5,-67.5 4540.5,-97.5 4647.5,-97.5 4647.5,-67.5 4540.5,-67.5"/>
<text text-anchor="start" x="4548.5" y="-85.5" font-family="Helvetica,sans-Serif" font-size="10.00">src/libs/vgeometry</text>
<text text-anchor="middle" x="4594" y="-74.5" font-family="Helvetica,sans-Serif" font-size="10.00">/vcubicbezier_p.h</text>
</a>
</g>
</g>
<!-- Node15&#45;&gt;Node24 -->
<g id="edge23" class="edge">
<title>Node15&#45;&gt;Node24</title>
<path fill="none" stroke="midnightblue" d="M4388.59,-137.34C4430.58,-126.33 4494.9,-109.47 4540.36,-97.56"/>
<polygon fill="midnightblue" stroke="midnightblue" points="4387.46,-134.01 4378.68,-139.94 4389.24,-140.79 4387.46,-134.01"/>
</g>
<!-- Node26 -->
<g id="node22" class="node">
<title>Node26</title>
<g id="a_node22"><a xlink:href="../../d1/d76/vspline__p_8h.html" target="_top" xlink:title=" ">
<polygon fill="white" stroke="red" points="4665.5,-67.5 4665.5,-97.5 4772.5,-97.5 4772.5,-67.5 4665.5,-67.5"/>
<text text-anchor="start" x="4673.5" y="-85.5" font-family="Helvetica,sans-Serif" font-size="10.00">src/libs/vgeometry</text>
<text text-anchor="middle" x="4719" y="-74.5" font-family="Helvetica,sans-Serif" font-size="10.00">/vspline_p.h</text>
</a>
</g>
</g>
<!-- Node15&#45;&gt;Node26 -->
<g id="edge25" class="edge">
<title>Node15&#45;&gt;Node26</title>
<path fill="none" stroke="midnightblue" d="M4415.55,-138.49C4478.53,-129.11 4573.76,-114.14 4656,-98 4659.08,-97.39 4662.25,-96.75 4665.43,-96.08"/>
<polygon fill="midnightblue" stroke="midnightblue" points="4414.72,-135.07 4405.34,-140 4415.75,-142 4414.72,-135.07"/>
</g>
<!-- Node28 -->
<g id="node23" class="node">
<title>Node28</title>
<g id="a_node23"><a xlink:href="../../d9/d15/vabstractpiece_8cpp.html" target="_top" xlink:title=" ">
<polygon fill="white" stroke="black" points="4791,-73 4791,-92 4977,-92 4977,-73 4791,-73"/>
<text text-anchor="middle" x="4884" y="-80" font-family="Helvetica,sans-Serif" font-size="10.00">src/libs/vlayout/vabstractpiece.cpp</text>
</a>
</g>
</g>
<!-- Node15&#45;&gt;Node28 -->
<g id="edge26" class="edge">
<title>Node15&#45;&gt;Node28</title>
<path fill="none" stroke="midnightblue" d="M4434.46,-138.87C4522.41,-129.14 4661.13,-113.39 4781,-98 4795.33,-96.16 4810.76,-94.05 4825.21,-92.03"/>
<polygon fill="midnightblue" stroke="midnightblue" points="4433.81,-135.42 4424.26,-139.99 4434.58,-142.38 4433.81,-135.42"/>
</g>
<!-- Node29 -->
<g id="node24" class="node">
<title>Node29</title>
<g id="a_node24"><a xlink:href="../../db/d65/dialogexporttocsv_8cpp.html" target="_top" xlink:title=" ">
<polygon fill="white" stroke="black" points="4995.5,-67.5 4995.5,-97.5 5122.5,-97.5 5122.5,-67.5 4995.5,-67.5"/>
<text text-anchor="start" x="5003.5" y="-85.5" font-family="Helvetica,sans-Serif" font-size="10.00">src/libs/vmisc/dialogs</text>
<text text-anchor="middle" x="5059" y="-74.5" font-family="Helvetica,sans-Serif" font-size="10.00">/dialogexporttocsv.cpp</text>
</a>
</g>
</g>
<!-- Node15&#45;&gt;Node29 -->
<g id="edge29" class="edge">
<title>Node15&#45;&gt;Node29</title>
<path fill="none" stroke="midnightblue" d="M4453.86,-143.86C4581.4,-137.47 4799.9,-123.73 4986,-98 4989.07,-97.58 4992.21,-97.1 4995.37,-96.59"/>
<polygon fill="midnightblue" stroke="midnightblue" points="4453.51,-140.37 4443.7,-144.36 4453.86,-147.36 4453.51,-140.37"/>
</g>
<!-- Node30 -->
<g id="node25" class="node">
<title>Node30</title>
<g id="a_node25"><a xlink:href="../../d6/d0b/def_8cpp.html" target="_top" xlink:title=" ">
<polygon fill="white" stroke="black" points="5141,-73 5141,-92 5263,-92 5263,-73 5141,-73"/>
<text text-anchor="middle" x="5202" y="-80" font-family="Helvetica,sans-Serif" font-size="10.00">src/libs/vmisc/def.cpp</text>
</a>
</g>
</g>
<!-- Node15&#45;&gt;Node30 -->
<g id="edge30" class="edge">
<title>Node15&#45;&gt;Node30</title>
<path fill="none" stroke="midnightblue" d="M4453.96,-146.24C4605.72,-141.99 4890.5,-130.14 5131,-98 5142.1,-96.52 5154.06,-94.31 5164.95,-92.07"/>
<polygon fill="midnightblue" stroke="midnightblue" points="4453.61,-142.74 4443.71,-146.52 4453.81,-149.74 4453.61,-142.74"/>
</g>
<!-- Node31 -->
<g id="node26" class="node">
<title>Node31</title>
<g id="a_node26"><a xlink:href="../../d0/df6/vabstractapplication_8cpp.html" target="_top" xlink:title=" ">
<polygon fill="white" stroke="black" points="5281,-73 5281,-92 5487,-92 5487,-73 5281,-73"/>
<text text-anchor="middle" x="5384" y="-80" font-family="Helvetica,sans-Serif" font-size="10.00">src/libs/vmisc/vabstractapplication.cpp</text>
</a>
</g>
</g>
<!-- Node15&#45;&gt;Node31 -->
<g id="edge31" class="edge">
<title>Node15&#45;&gt;Node31</title>
<path fill="none" stroke="midnightblue" d="M4453.96,-145.21C4626.91,-139.37 4976.67,-125.13 5272,-98 5289.08,-96.43 5307.57,-94.24 5324.51,-92.04"/>
<polygon fill="midnightblue" stroke="midnightblue" points="4453.71,-141.72 4443.83,-145.55 4453.95,-148.72 4453.71,-141.72"/>
</g>
<!-- Node32 -->
<g id="node27" class="node">
<title>Node32</title>
<g id="a_node27"><a xlink:href="../../d4/d4f/pmsystems_8cpp.html" target="_top" xlink:title=" ">
<polygon fill="white" stroke="black" points="5505.5,-67.5 5505.5,-97.5 5612.5,-97.5 5612.5,-67.5 5505.5,-67.5"/>
<text text-anchor="start" x="5513.5" y="-85.5" font-family="Helvetica,sans-Serif" font-size="10.00">src/libs/vpatterndb</text>
<text text-anchor="middle" x="5559" y="-74.5" font-family="Helvetica,sans-Serif" font-size="10.00">/pmsystems.cpp</text>
</a>
</g>
</g>
<!-- Node15&#45;&gt;Node32 -->
<g id="edge32" class="edge">
<title>Node15&#45;&gt;Node32</title>
<path fill="none" stroke="midnightblue" d="M4453.65,-146.28C4699.56,-140.8 5296.65,-125.09 5496,-98 5499,-97.59 5502.07,-97.11 5505.16,-96.57"/>
<polygon fill="midnightblue" stroke="midnightblue" points="4453.55,-142.78 4443.63,-146.5 4453.7,-149.78 4453.55,-142.78"/>
</g>
<!-- Node15&#45;&gt;Node33 -->
<g id="edge33" class="edge">
<title>Node15&#45;&gt;Node33</title>
<path fill="none" stroke="midnightblue" d="M4453.95,-148.02C4774.97,-146.16 5720.29,-137.39 6026,-98 6029.01,-97.61 6032.08,-97.15 6035.17,-96.62"/>
<polygon fill="midnightblue" stroke="midnightblue" points="4453.7,-144.52 4443.72,-148.08 4453.74,-151.52 4453.7,-144.52"/>
</g>
<!-- Node15&#45;&gt;Node34 -->
<g id="edge34" class="edge">
<title>Node15&#45;&gt;Node34</title>
<path fill="none" stroke="midnightblue" d="M4454.02,-148.28C4790.97,-147.17 5819.95,-140.3 6151,-98 6154.01,-97.62 6157.08,-97.15 6160.17,-96.63"/>
<polygon fill="midnightblue" stroke="midnightblue" points="4453.76,-144.79 4443.77,-148.32 4453.78,-151.79 4453.76,-144.79"/>
</g>
<!-- Node15&#45;&gt;Node35 -->
<g id="edge35" class="edge">
<title>Node15&#45;&gt;Node35</title>
<path fill="none" stroke="midnightblue" d="M4453.86,-148.52C4805.94,-148.12 5919.46,-143.23 6276,-98 6279.01,-97.62 6282.08,-97.16 6285.17,-96.63"/>
<polygon fill="midnightblue" stroke="midnightblue" points="4453.66,-145.02 4443.66,-148.53 4453.67,-152.02 4453.66,-145.02"/>
</g>
<!-- Node36 -->
<g id="node31" class="node">
<title>Node36</title>
<g id="a_node31"><a xlink:href="../../df/dba/vpiecenode__p_8h.html" target="_top" xlink:title=" ">
<polygon fill="white" stroke="black" points="5630.5,-67.5 5630.5,-97.5 5737.5,-97.5 5737.5,-67.5 5630.5,-67.5"/>
<text text-anchor="start" x="5638.5" y="-85.5" font-family="Helvetica,sans-Serif" font-size="10.00">src/libs/vpatterndb</text>
<text text-anchor="middle" x="5684" y="-74.5" font-family="Helvetica,sans-Serif" font-size="10.00">/vpiecenode_p.h</text>
</a>
</g>
</g>
<!-- Node15&#45;&gt;Node36 -->
<g id="edge36" class="edge">
<title>Node15&#45;&gt;Node36</title>
<path fill="none" stroke="midnightblue" d="M4453.76,-146.82C4718.73,-142.27 5396.76,-127.98 5621,-98 5624,-97.6 5627.07,-97.12 5630.16,-96.59"/>
<polygon fill="midnightblue" stroke="midnightblue" points="4453.68,-143.32 4443.74,-146.99 4453.8,-150.32 4453.68,-143.32"/>
</g>
<!-- Node38 -->
<g id="node33" class="node">
<title>Node38</title>
<g id="a_node33"><a xlink:href="../../de/d3e/vtranslatevars_8cpp.html" target="_top" xlink:title=" ">
<polygon fill="white" stroke="black" points="5756,-67.5 5756,-97.5 5866,-97.5 5866,-67.5 5756,-67.5"/>
<text text-anchor="start" x="5764" y="-85.5" font-family="Helvetica,sans-Serif" font-size="10.00">src/libs/vpatterndb</text>
<text text-anchor="middle" x="5811" y="-74.5" font-family="Helvetica,sans-Serif" font-size="10.00">/vtranslatevars.cpp</text>
</a>
</g>
</g>
<!-- Node15&#45;&gt;Node38 -->
<g id="edge38" class="edge">
<title>Node15&#45;&gt;Node38</title>
<path fill="none" stroke="midnightblue" d="M4454.04,-147.17C4737.31,-143.26 5496.69,-130.03 5746,-98 5749.21,-97.59 5752.5,-97.09 5755.8,-96.54"/>
<polygon fill="midnightblue" stroke="midnightblue" points="4453.71,-143.67 4443.76,-147.31 4453.81,-150.67 4453.71,-143.67"/>
</g>
<!-- Node39 -->
<g id="node34" class="node">
<title>Node39</title>
<g id="a_node34"><a xlink:href="../../df/d40/export__format__combobox_8cpp.html" target="_top" xlink:title=" ">
<polygon fill="white" stroke="black" points="5884.5,-67.5 5884.5,-97.5 6017.5,-97.5 6017.5,-67.5 5884.5,-67.5"/>
<text text-anchor="start" x="5892.5" y="-85.5" font-family="Helvetica,sans-Serif" font-size="10.00">src/libs/vwidgets/export</text>
<text text-anchor="middle" x="5951" y="-74.5" font-family="Helvetica,sans-Serif" font-size="10.00">_format_combobox.cpp</text>
</a>
</g>
</g>
<!-- Node15&#45;&gt;Node39 -->
<g id="edge39" class="edge">
<title>Node15&#45;&gt;Node39</title>
<path fill="none" stroke="midnightblue" d="M4453.79,-147.12C4754.6,-142.93 5599.15,-128.68 5875,-98 5878.07,-97.66 5881.2,-97.26 5884.36,-96.82"/>
<polygon fill="midnightblue" stroke="midnightblue" points="4453.7,-143.62 4443.75,-147.26 4453.8,-150.62 4453.7,-143.62"/>
</g>
<!-- Node40 -->
<g id="node35" class="node">
<title>Node40</title>
<g id="a_node35"><a xlink:href="../../d7/d1b/pen__toolbar_8cpp.html" target="_top" xlink:title=" ">
<polygon fill="white" stroke="black" points="1736.5,-67.5 1736.5,-97.5 1855.5,-97.5 1855.5,-67.5 1736.5,-67.5"/>
<text text-anchor="start" x="1744.5" y="-85.5" font-family="Helvetica,sans-Serif" font-size="10.00">src/libs/vwidgets/pen</text>
<text text-anchor="middle" x="1796" y="-74.5" font-family="Helvetica,sans-Serif" font-size="10.00">_toolbar.cpp</text>
</a>
</g>
</g>
<!-- Node15&#45;&gt;Node40 -->
<g id="edge40" class="edge">
<title>Node15&#45;&gt;Node40</title>
<path fill="none" stroke="midnightblue" d="M4238.17,-147.49C3791.99,-143.17 2102.43,-125.12 1865,-98 1861.96,-97.65 1858.85,-97.23 1855.73,-96.76"/>
<polygon fill="midnightblue" stroke="midnightblue" points="4238.45,-151 4248.48,-147.59 4238.51,-144 4238.45,-151"/>
</g>
<!-- Node41 -->
<g id="node36" class="node">
<title>Node41</title>
<g id="a_node36"><a xlink:href="../../d8/d76/scene__rect_8cpp.html" target="_top" xlink:title=" ">
<polygon fill="white" stroke="black" points="1874,-67.5 1874,-97.5 2004,-97.5 2004,-67.5 1874,-67.5"/>
<text text-anchor="start" x="1882" y="-85.5" font-family="Helvetica,sans-Serif" font-size="10.00">src/libs/vwidgets/scene</text>
<text text-anchor="middle" x="1939" y="-74.5" font-family="Helvetica,sans-Serif" font-size="10.00">_rect.cpp</text>
</a>
</g>
</g>
<!-- Node15&#45;&gt;Node41 -->
<g id="edge41" class="edge">
<title>Node15&#45;&gt;Node41</title>
<path fill="none" stroke="midnightblue" d="M4238.24,-147.26C3809.24,-142.16 2235.31,-122.01 2013,-98 2010.14,-97.69 2007.22,-97.33 2004.28,-96.92"/>
<polygon fill="midnightblue" stroke="midnightblue" points="4238.42,-150.76 4248.46,-147.38 4238.5,-143.76 4238.42,-150.76"/>
</g>
<!-- Node42 -->
<g id="node37" class="node">
<title>Node42</title>
<g id="a_node37"><a xlink:href="../../d3/d4f/mouse__coordinates_8cpp.html" target="_top" xlink:title=" ">
<polygon fill="white" stroke="black" points="2022,-67.5 2022,-97.5 2156,-97.5 2156,-67.5 2022,-67.5"/>
<text text-anchor="start" x="2030" y="-85.5" font-family="Helvetica,sans-Serif" font-size="10.00">src/libs/vwidgets/mouse</text>
<text text-anchor="middle" x="2089" y="-74.5" font-family="Helvetica,sans-Serif" font-size="10.00">_coordinates.cpp</text>
</a>
</g>
</g>
<!-- Node15&#45;&gt;Node42 -->
<g id="edge42" class="edge">
<title>Node15&#45;&gt;Node42</title>
<path fill="none" stroke="midnightblue" d="M4238.14,-148.36C3856.86,-147.51 2573.68,-141.42 2165,-98 2162.06,-97.69 2159.07,-97.32 2156.05,-96.91"/>
<polygon fill="midnightblue" stroke="midnightblue" points="4238.33,-151.86 4248.34,-148.39 4238.34,-144.86 4238.33,-151.86"/>
</g>
<!-- Node43 -->
<g id="node38" class="node">
<title>Node43</title>
<g id="a_node38"><a xlink:href="../../dd/df6/vabstractmainwindow_8cpp.html" target="_top" xlink:title=" ">
<polygon fill="white" stroke="black" points="2174.5,-73 2174.5,-92 2403.5,-92 2403.5,-73 2174.5,-73"/>
<text text-anchor="middle" x="2289" y="-80" font-family="Helvetica,sans-Serif" font-size="10.00">src/libs/vwidgets/vabstractmainwindow.cpp</text>
</a>
</g>
</g>
<!-- Node15&#45;&gt;Node43 -->
<g id="edge43" class="edge">
<title>Node15&#45;&gt;Node43</title>
<path fill="none" stroke="midnightblue" d="M4238.29,-149.13C3944.83,-150.1 3106.67,-147.91 2412,-98 2392.38,-96.59 2371.07,-94.34 2351.78,-92.02"/>
<polygon fill="midnightblue" stroke="midnightblue" points="4238.51,-152.63 4248.49,-149.09 4238.48,-145.63 4238.51,-152.63"/>
</g>
<!-- Node44 -->
<g id="node39" class="node">
<title>Node44</title>
<g id="a_node39"><a xlink:href="../../de/d45/vcontrolpointspline_8cpp.html" target="_top" xlink:title=" ">
<polygon fill="white" stroke="black" points="2421.5,-73 2421.5,-92 2636.5,-92 2636.5,-73 2421.5,-73"/>
<text text-anchor="middle" x="2529" y="-80" font-family="Helvetica,sans-Serif" font-size="10.00">src/libs/vwidgets/vcontrolpointspline.cpp</text>
</a>
</g>
</g>
<!-- Node15&#45;&gt;Node44 -->
<g id="edge44" class="edge">
<title>Node15&#45;&gt;Node44</title>
<path fill="none" stroke="midnightblue" d="M4237.93,-148.79C3968.64,-148.76 3246.23,-144.01 2646,-98 2627.43,-96.58 2607.28,-94.33 2589.01,-92.03"/>
<polygon fill="midnightblue" stroke="midnightblue" points="4238.09,-152.29 4248.09,-148.79 4238.09,-145.29 4238.09,-152.29"/>
</g>
<!-- Node45 -->
<g id="node40" class="node">
<title>Node45</title>
<g id="a_node40"><a xlink:href="../../de/dec/vgraphicssimpletextitem_8cpp.html" target="_top" xlink:title=" ">
<polygon fill="white" stroke="black" points="2655,-73 2655,-92 2899,-92 2899,-73 2655,-73"/>
<text text-anchor="middle" x="2777" y="-80" font-family="Helvetica,sans-Serif" font-size="10.00">src/libs/vwidgets/vgraphicssimpletextitem.cpp</text>
</a>
</g>
</g>
<!-- Node15&#45;&gt;Node45 -->
<g id="edge45" class="edge">
<title>Node15&#45;&gt;Node45</title>
<path fill="none" stroke="midnightblue" d="M4238.12,-147.48C3998.55,-144.6 3404.15,-134.12 2908,-98 2887.57,-96.51 2865.42,-94.29 2845.24,-92.04"/>
<polygon fill="midnightblue" stroke="midnightblue" points="4238.18,-150.98 4248.22,-147.6 4238.26,-143.98 4238.18,-150.98"/>
</g>
<!-- Node46 -->
<g id="node41" class="node">
<title>Node46</title>
<g id="a_node41"><a xlink:href="../../d1/d90/vgrainlineitem_8cpp.html" target="_top" xlink:title=" ">
<polygon fill="white" stroke="black" points="2917.5,-73 2917.5,-92 3110.5,-92 3110.5,-73 2917.5,-73"/>
<text text-anchor="middle" x="3014" y="-80" font-family="Helvetica,sans-Serif" font-size="10.00">src/libs/vwidgets/vgrainlineitem.cpp</text>
</a>
</g>
</g>
<!-- Node15&#45;&gt;Node46 -->
<g id="edge46" class="edge">
<title>Node15&#45;&gt;Node46</title>
<path fill="none" stroke="midnightblue" d="M4238.18,-147.49C4024.45,-144.73 3532.07,-134.59 3120,-98 3103.35,-96.52 3085.3,-94.29 3068.9,-92.02"/>
<polygon fill="midnightblue" stroke="midnightblue" points="4238.41,-150.99 4248.45,-147.62 4238.5,-143.99 4238.41,-150.99"/>
</g>
<!-- Node47 -->
<g id="node42" class="node">
<title>Node47</title>
<g id="a_node42"><a xlink:href="../../d1/d88/vmaingraphicsscene_8cpp.html" target="_top" xlink:title=" ">
<polygon fill="white" stroke="black" points="3129,-73 3129,-92 3351,-92 3351,-73 3129,-73"/>
<text text-anchor="middle" x="3240" y="-80" font-family="Helvetica,sans-Serif" font-size="10.00">src/libs/vwidgets/vmaingraphicsscene.cpp</text>
</a>
</g>
</g>
<!-- Node15&#45;&gt;Node47 -->
<g id="edge47" class="edge">
<title>Node15&#45;&gt;Node47</title>
<path fill="none" stroke="midnightblue" d="M4238.15,-145.41C4056.63,-139.68 3678.66,-125.38 3360,-98 3341.71,-96.43 3321.9,-94.24 3303.75,-92.03"/>
<polygon fill="midnightblue" stroke="midnightblue" points="4238.13,-148.92 4248.23,-145.73 4238.35,-141.92 4238.13,-148.92"/>
</g>
<!-- Node48 -->
<g id="node43" class="node">
<title>Node48</title>
<g id="a_node43"><a xlink:href="../../d2/d31/vmaingraphicsview_8cpp.html" target="_top" xlink:title=" ">
<polygon fill="white" stroke="black" points="3369,-73 3369,-92 3585,-92 3585,-73 3369,-73"/>
<text text-anchor="middle" x="3477" y="-80" font-family="Helvetica,sans-Serif" font-size="10.00">src/libs/vwidgets/vmaingraphicsview.cpp</text>
</a>
</g>
</g>
<!-- Node15&#45;&gt;Node48 -->
<g id="edge48" class="edge">
<title>Node15&#45;&gt;Node48</title>
<path fill="none" stroke="midnightblue" d="M4237.9,-143.15C4091.68,-135.49 3822.81,-119.84 3594,-98 3576.58,-96.34 3557.74,-94.17 3540.38,-92.01"/>
<polygon fill="midnightblue" stroke="midnightblue" points="4238.05,-146.67 4248.21,-143.69 4238.41,-139.68 4238.05,-146.67"/>
</g>
<!-- Node49 -->
<g id="node44" class="node">
<title>Node49</title>
<g id="a_node44"><a xlink:href="../../d0/d5d/vscenepoint_8cpp.html" target="_top" xlink:title=" ">
<polygon fill="white" stroke="black" points="3603.5,-73 3603.5,-92 3784.5,-92 3784.5,-73 3603.5,-73"/>
<text text-anchor="middle" x="3694" y="-80" font-family="Helvetica,sans-Serif" font-size="10.00">src/libs/vwidgets/vscenepoint.cpp</text>
</a>
</g>
</g>
<!-- Node15&#45;&gt;Node49 -->
<g id="edge49" class="edge">
<title>Node15&#45;&gt;Node49</title>
<path fill="none" stroke="midnightblue" d="M4238.19,-140.4C4126.6,-131.61 3947.34,-116.34 3793,-98 3778.51,-96.28 3762.87,-94.13 3748.4,-92.01"/>
<polygon fill="midnightblue" stroke="midnightblue" points="4238.19,-143.91 4248.44,-141.2 4238.74,-136.93 4238.19,-143.91"/>
</g>
<!-- Node22&#45;&gt;Node23 -->
<g id="edge22" class="edge">
<title>Node22&#45;&gt;Node23</title>
<path fill="none" stroke="midnightblue" d="M4454.72,-58.87C4448.79,-49.46 4442.09,-38.83 4436.88,-30.58"/>
<polygon fill="midnightblue" stroke="midnightblue" points="4451.81,-60.81 4460.1,-67.4 4457.73,-57.07 4451.81,-60.81"/>
</g>
<!-- Node36&#45;&gt;Node37 -->
<g id="edge37" class="edge">
<title>Node36&#45;&gt;Node37</title>
<path fill="none" stroke="midnightblue" d="M5747.54,-66.97C5841.64,-48.58 5939.4,-33.21 5998.37,-24.35"/>
<polygon fill="midnightblue" stroke="midnightblue" points="5746.7,-63.57 5737.57,-68.93 5748.06,-70.43 5746.7,-63.57"/>
</g>
</g>
</svg>
