<?xml version="1.0" encoding="UTF-8" standalone="no"?>
<!DOCTYPE svg PUBLIC "-//W3C//DTD SVG 1.1//EN"
 "http://www.w3.org/Graphics/SVG/1.1/DTD/svg11.dtd">
<!-- Generated by graphviz version 2.43.0 (0)
 -->
<!-- Title: src/app/seamly2d/core/vcmdexport.h Pages: 1 -->
<svg width="4174pt" height="173pt"
 viewBox="0.00 0.00 4174.00 173.00" xmlns="http://www.w3.org/2000/svg" xmlns:xlink="http://www.w3.org/1999/xlink">
<g id="graph0" class="graph" transform="scale(1 1) rotate(0) translate(4 169)">
<title>src/app/seamly2d/core/vcmdexport.h</title>
<polygon fill="white" stroke="transparent" points="-4,4 -4,-169 4170,-169 4170,4 -4,4"/>
<!-- Node1 -->
<g id="node1" class="node">
<title>Node1</title>
<g id="a_node1"><a xlink:title=" ">
<polygon fill="#bfbfbf" stroke="black" points="1801,-134.5 1801,-164.5 1928,-164.5 1928,-134.5 1801,-134.5"/>
<text text-anchor="start" x="1809" y="-152.5" font-family="Helvetica,sans-Serif" font-size="10.00">src/app/seamly2d/core</text>
<text text-anchor="middle" x="1864.5" y="-141.5" font-family="Helvetica,sans-Serif" font-size="10.00">/vcmdexport.h</text>
</a>
</g>
</g>
<!-- Node2 -->
<g id="node2" class="node">
<title>Node2</title>
<g id="a_node2"><a xlink:href="../../d9/d02/vapplication_8h.html" target="_top" xlink:title=" ">
<polygon fill="white" stroke="black" points="1801,-67.5 1801,-97.5 1928,-97.5 1928,-67.5 1801,-67.5"/>
<text text-anchor="start" x="1809" y="-85.5" font-family="Helvetica,sans-Serif" font-size="10.00">src/app/seamly2d/core</text>
<text text-anchor="middle" x="1864.5" y="-74.5" font-family="Helvetica,sans-Serif" font-size="10.00">/vapplication.h</text>
</a>
</g>
</g>
<!-- Node1&#45;&gt;Node2 -->
<g id="edge1" class="edge">
<title>Node1&#45;&gt;Node2</title>
<path fill="none" stroke="midnightblue" d="M1864.5,-124.11C1864.5,-115.15 1864.5,-105.32 1864.5,-97.58"/>
<polygon fill="midnightblue" stroke="midnightblue" points="1861,-124.4 1864.5,-134.4 1868,-124.4 1861,-124.4"/>
</g>
<!-- Node26 -->
<g id="node26" class="node">
<title>Node26</title>
<g id="a_node26"><a xlink:href="../../df/d9b/vcmdexport_8cpp.html" target="_top" xlink:title=" ">
<polygon fill="white" stroke="black" points="1946,-67.5 1946,-97.5 2073,-97.5 2073,-67.5 1946,-67.5"/>
<text text-anchor="start" x="1954" y="-85.5" font-family="Helvetica,sans-Serif" font-size="10.00">src/app/seamly2d/core</text>
<text text-anchor="middle" x="2009.5" y="-74.5" font-family="Helvetica,sans-Serif" font-size="10.00">/vcmdexport.cpp</text>
</a>
</g>
</g>
<!-- Node1&#45;&gt;Node26 -->
<g id="edge25" class="edge">
<title>Node1&#45;&gt;Node26</title>
<path fill="none" stroke="midnightblue" d="M1905.17,-130.27C1928.26,-119.92 1956.74,-107.15 1978.1,-97.58"/>
<polygon fill="midnightblue" stroke="midnightblue" points="1903.66,-127.11 1895.96,-134.4 1906.52,-133.5 1903.66,-127.11"/>
</g>
<!-- Node27 -->
<g id="node27" class="node">
<title>Node27</title>
<g id="a_node27"><a xlink:href="../../d9/d53/mainwindow_8h.html" target="_top" xlink:title=" ">
<polygon fill="white" stroke="black" points="226.5,-73 226.5,-92 402.5,-92 402.5,-73 226.5,-73"/>
<text text-anchor="middle" x="314.5" y="-80" font-family="Helvetica,sans-Serif" font-size="10.00">src/app/seamly2d/mainwindow.h</text>
</a>
</g>
</g>
<!-- Node1&#45;&gt;Node27 -->
<g id="edge26" class="edge">
<title>Node1&#45;&gt;Node27</title>
<path fill="none" stroke="midnightblue" d="M1790.51,-145.4C1533.55,-134.62 680.39,-98.84 402.69,-87.2"/>
<polygon fill="midnightblue" stroke="midnightblue" points="1790.71,-148.91 1800.85,-145.83 1791,-141.91 1790.71,-148.91"/>
</g>
<!-- Node3 -->
<g id="node3" class="node">
<title>Node3</title>
<g id="a_node3"><a xlink:href="../../d3/dd8/vapplication_8cpp.html" target="_top" xlink:title=" ">
<polygon fill="white" stroke="black" points="0,-0.5 0,-30.5 127,-30.5 127,-0.5 0,-0.5"/>
<text text-anchor="start" x="8" y="-18.5" font-family="Helvetica,sans-Serif" font-size="10.00">src/app/seamly2d/core</text>
<text text-anchor="middle" x="63.5" y="-7.5" font-family="Helvetica,sans-Serif" font-size="10.00">/vapplication.cpp</text>
</a>
</g>
</g>
<!-- Node2&#45;&gt;Node3 -->
<g id="edge2" class="edge">
<title>Node2&#45;&gt;Node3</title>
<path fill="none" stroke="midnightblue" d="M1790.65,-81.01C1503.84,-78.85 463.55,-68.55 135.5,-31 132.71,-30.68 129.87,-30.31 127.01,-29.9"/>
<polygon fill="midnightblue" stroke="midnightblue" points="1790.91,-84.51 1800.93,-81.09 1790.96,-77.51 1790.91,-84.51"/>
</g>
<!-- Node4 -->
<g id="node4" class="node">
<title>Node4</title>
<g id="a_node4"><a xlink:href="../../d7/dfa/calculator__dialog_8cpp.html" target="_top" xlink:title=" ">
<polygon fill="white" stroke="black" points="2395,-0.5 2395,-30.5 2536,-30.5 2536,-0.5 2395,-0.5"/>
<text text-anchor="start" x="2403" y="-18.5" font-family="Helvetica,sans-Serif" font-size="10.00">src/app/seamly2d/dialogs</text>
<text text-anchor="middle" x="2465.5" y="-7.5" font-family="Helvetica,sans-Serif" font-size="10.00">/calculator_dialog.cpp</text>
</a>
</g>
</g>
<!-- Node2&#45;&gt;Node4 -->
<g id="edge3" class="edge">
<title>Node2&#45;&gt;Node4</title>
<path fill="none" stroke="midnightblue" d="M1938.05,-67.05C2137.51,-40.01 2191.21,-56.68 2386.5,-31 2389.27,-30.64 2392.08,-30.24 2394.92,-29.82"/>
<polygon fill="midnightblue" stroke="midnightblue" points="1937.56,-63.58 1928.13,-68.41 1938.51,-70.51 1937.56,-63.58"/>
</g>
<!-- Node5 -->
<g id="node5" class="node">
<title>Node5</title>
<g id="a_node5"><a xlink:href="../../d2/d2d/preferencesconfigurationpage_8cpp.html" target="_top" xlink:title=" ">
<polygon fill="white" stroke="black" points="2554,-0.5 2554,-30.5 2801,-30.5 2801,-0.5 2554,-0.5"/>
<text text-anchor="start" x="2562" y="-18.5" font-family="Helvetica,sans-Serif" font-size="10.00">src/app/seamly2d/dialogs</text>
<text text-anchor="middle" x="2677.5" y="-7.5" font-family="Helvetica,sans-Serif" font-size="10.00">/configpages/preferencesconfigurationpage.cpp</text>
</a>
</g>
</g>
<!-- Node2&#45;&gt;Node5 -->
<g id="edge4" class="edge">
<title>Node2&#45;&gt;Node5</title>
<path fill="none" stroke="midnightblue" d="M1938.2,-67.05C2207.73,-33.06 2279.06,-53.51 2545.5,-31 2548.26,-30.77 2551.05,-30.52 2553.86,-30.27"/>
<polygon fill="midnightblue" stroke="midnightblue" points="1937.59,-63.59 1928.12,-68.33 1938.48,-70.54 1937.59,-63.59"/>
</g>
<!-- Node6 -->
<g id="node6" class="node">
<title>Node6</title>
<g id="a_node6"><a xlink:href="../../d9/d70/preferencesgraphicsviewpage_8cpp.html" target="_top" xlink:title=" ">
<polygon fill="white" stroke="black" points="2819.5,-0.5 2819.5,-30.5 3067.5,-30.5 3067.5,-0.5 2819.5,-0.5"/>
<text text-anchor="start" x="2827.5" y="-18.5" font-family="Helvetica,sans-Serif" font-size="10.00">src/app/seamly2d/dialogs</text>
<text text-anchor="middle" x="2943.5" y="-7.5" font-family="Helvetica,sans-Serif" font-size="10.00">/configpages/preferencesgraphicsviewpage.cpp</text>
</a>
</g>
</g>
<!-- Node2&#45;&gt;Node6 -->
<g id="edge5" class="edge">
<title>Node2&#45;&gt;Node6</title>
<path fill="none" stroke="midnightblue" d="M1938.17,-67.07C2324.83,-21.7 2426.57,-59.81 2810.5,-31 2813.4,-30.78 2816.32,-30.55 2819.28,-30.31"/>
<polygon fill="midnightblue" stroke="midnightblue" points="1937.63,-63.61 1928.11,-68.26 1938.45,-70.56 1937.63,-63.61"/>
</g>
<!-- Node7 -->
<g id="node7" class="node">
<title>Node7</title>
<g id="a_node7"><a xlink:href="../../dc/d20/preferencespathpage_8cpp.html" target="_top" xlink:title=" ">
<polygon fill="white" stroke="black" points="3086,-0.5 3086,-30.5 3291,-30.5 3291,-0.5 3086,-0.5"/>
<text text-anchor="start" x="3094" y="-18.5" font-family="Helvetica,sans-Serif" font-size="10.00">src/app/seamly2d/dialogs</text>
<text text-anchor="middle" x="3188.5" y="-7.5" font-family="Helvetica,sans-Serif" font-size="10.00">/configpages/preferencespathpage.cpp</text>
</a>
</g>
</g>
<!-- Node2&#45;&gt;Node7 -->
<g id="edge6" class="edge">
<title>Node2&#45;&gt;Node7</title>
<path fill="none" stroke="midnightblue" d="M1938.19,-67.08C2442.44,-10.28 2574.98,-71.29 3076.5,-31 3079.53,-30.76 3082.6,-30.49 3085.7,-30.2"/>
<polygon fill="midnightblue" stroke="midnightblue" points="1937.65,-63.62 1928.1,-68.23 1938.44,-70.57 1937.65,-63.62"/>
</g>
<!-- Node8 -->
<g id="node8" class="node">
<title>Node8</title>
<g id="a_node8"><a xlink:href="../../dd/dc2/decimalchart__dialog_8cpp.html" target="_top" xlink:title=" ">
<polygon fill="white" stroke="black" points="3309,-0.5 3309,-30.5 3450,-30.5 3450,-0.5 3309,-0.5"/>
<text text-anchor="start" x="3317" y="-18.5" font-family="Helvetica,sans-Serif" font-size="10.00">src/app/seamly2d/dialogs</text>
<text text-anchor="middle" x="3379.5" y="-7.5" font-family="Helvetica,sans-Serif" font-size="10.00">/decimalchart_dialog.cpp</text>
</a>
</g>
</g>
<!-- Node2&#45;&gt;Node8 -->
<g id="edge7" class="edge">
<title>Node2&#45;&gt;Node8</title>
<path fill="none" stroke="midnightblue" d="M1938.36,-67.07C2541.53,-0.78 2701.17,-93.54 3300.5,-31 3303.27,-30.71 3306.1,-30.38 3308.94,-30.01"/>
<polygon fill="midnightblue" stroke="midnightblue" points="1937.66,-63.63 1928.1,-68.21 1938.43,-70.58 1937.66,-63.63"/>
</g>
<!-- Node9 -->
<g id="node9" class="node">
<title>Node9</title>
<g id="a_node9"><a xlink:href="../../dc/d63/preferencespatternpage_8cpp.html" target="_top" xlink:title=" ">
<polygon fill="white" stroke="black" points="3468.5,-0.5 3468.5,-30.5 3686.5,-30.5 3686.5,-0.5 3468.5,-0.5"/>
<text text-anchor="start" x="3476.5" y="-18.5" font-family="Helvetica,sans-Serif" font-size="10.00">src/app/seamly2d/dialogs</text>
<text text-anchor="middle" x="3577.5" y="-7.5" font-family="Helvetica,sans-Serif" font-size="10.00">/configpages/preferencespatternpage.cpp</text>
</a>
</g>
</g>
<!-- Node2&#45;&gt;Node9 -->
<g id="edge8" class="edge">
<title>Node2&#45;&gt;Node9</title>
<path fill="none" stroke="midnightblue" d="M1938.05,-67.1C2611.77,6.34 2787.96,-80.08 3459.5,-31 3462.38,-30.79 3465.3,-30.56 3468.25,-30.31"/>
<polygon fill="midnightblue" stroke="midnightblue" points="1937.66,-63.63 1928.1,-68.2 1938.42,-70.58 1937.66,-63.63"/>
</g>
<!-- Node10 -->
<g id="node10" class="node">
<title>Node10</title>
<g id="a_node10"><a xlink:href="../../dd/d64/dialogaboutapp_8cpp.html" target="_top" xlink:title=" ">
<polygon fill="white" stroke="black" points="3705,-0.5 3705,-30.5 3846,-30.5 3846,-0.5 3705,-0.5"/>
<text text-anchor="start" x="3713" y="-18.5" font-family="Helvetica,sans-Serif" font-size="10.00">src/app/seamly2d/dialogs</text>
<text text-anchor="middle" x="3775.5" y="-7.5" font-family="Helvetica,sans-Serif" font-size="10.00">/dialogaboutapp.cpp</text>
</a>
</g>
</g>
<!-- Node2&#45;&gt;Node10 -->
<g id="edge9" class="edge">
<title>Node2&#45;&gt;Node10</title>
<path fill="none" stroke="midnightblue" d="M1938.15,-67.1C2716.17,16.38 2921.22,-108.6 3695.5,-31 3698.59,-30.69 3701.74,-30.33 3704.92,-29.92"/>
<polygon fill="midnightblue" stroke="midnightblue" points="1937.67,-63.63 1928.1,-68.18 1938.42,-70.59 1937.67,-63.63"/>
</g>
<!-- Node11 -->
<g id="node11" class="node">
<title>Node11</title>
<g id="a_node11"><a xlink:href="../../d6/d89/dialoglayoutprogress_8cpp.html" target="_top" xlink:title=" ">
<polygon fill="white" stroke="black" points="3864,-0.5 3864,-30.5 4007,-30.5 4007,-0.5 3864,-0.5"/>
<text text-anchor="start" x="3872" y="-18.5" font-family="Helvetica,sans-Serif" font-size="10.00">src/app/seamly2d/dialogs</text>
<text text-anchor="middle" x="3935.5" y="-7.5" font-family="Helvetica,sans-Serif" font-size="10.00">/dialoglayoutprogress.cpp</text>
</a>
</g>
</g>
<!-- Node2&#45;&gt;Node11 -->
<g id="edge10" class="edge">
<title>Node2&#45;&gt;Node11</title>
<path fill="none" stroke="midnightblue" d="M1938.11,-67.1C2786.92,23.32 3010.4,-114.97 3855.5,-31 3858.17,-30.73 3860.88,-30.43 3863.62,-30.09"/>
<polygon fill="midnightblue" stroke="midnightblue" points="1937.67,-63.63 1928.1,-68.18 1938.42,-70.59 1937.67,-63.63"/>
</g>
<!-- Node12 -->
<g id="node12" class="node">
<title>Node12</title>
<g id="a_node12"><a xlink:href="../../db/def/dialoglayoutsettings_8cpp.html" target="_top" xlink:title=" ">
<polygon fill="white" stroke="black" points="4025,-0.5 4025,-30.5 4166,-30.5 4166,-0.5 4025,-0.5"/>
<text text-anchor="start" x="4033" y="-18.5" font-family="Helvetica,sans-Serif" font-size="10.00">src/app/seamly2d/dialogs</text>
<text text-anchor="middle" x="4095.5" y="-7.5" font-family="Helvetica,sans-Serif" font-size="10.00">/dialoglayoutsettings.cpp</text>
</a>
</g>
</g>
<!-- Node2&#45;&gt;Node12 -->
<g id="edge11" class="edge">
<title>Node2&#45;&gt;Node12</title>
<path fill="none" stroke="midnightblue" d="M1938.27,-67.09C2858.15,30.29 3100.29,-122.39 4016.5,-31 4019.28,-30.72 4022.1,-30.4 4024.95,-30.04"/>
<polygon fill="midnightblue" stroke="midnightblue" points="1937.67,-63.63 1928.1,-68.17 1938.41,-70.59 1937.67,-63.63"/>
</g>
<!-- Node13 -->
<g id="node13" class="node">
<title>Node13</title>
<g id="a_node13"><a xlink:href="../../d2/d00/vtooloptionspropertybrowser_8cpp.html" target="_top" xlink:title=" ">
<polygon fill="white" stroke="black" points="520.5,-0.5 520.5,-30.5 700.5,-30.5 700.5,-0.5 520.5,-0.5"/>
<text text-anchor="start" x="528.5" y="-18.5" font-family="Helvetica,sans-Serif" font-size="10.00">src/app/seamly2d/core</text>
<text text-anchor="middle" x="610.5" y="-7.5" font-family="Helvetica,sans-Serif" font-size="10.00">/vtooloptionspropertybrowser.cpp</text>
</a>
</g>
</g>
<!-- Node2&#45;&gt;Node13 -->
<g id="edge12" class="edge">
<title>Node2&#45;&gt;Node13</title>
<path fill="none" stroke="midnightblue" d="M1790.8,-80.83C1607.67,-78.62 1117.34,-69.3 710.5,-31 707.27,-30.7 703.98,-30.36 700.67,-30"/>
<polygon fill="midnightblue" stroke="midnightblue" points="1790.82,-84.33 1800.86,-80.95 1790.9,-77.34 1790.82,-84.33"/>
</g>
<!-- Node14 -->
<g id="node14" class="node">
<title>Node14</title>
<g id="a_node14"><a xlink:href="../../de/d87/dialognewpattern_8cpp.html" target="_top" xlink:title=" ">
<polygon fill="white" stroke="black" points="719,-0.5 719,-30.5 860,-30.5 860,-0.5 719,-0.5"/>
<text text-anchor="start" x="727" y="-18.5" font-family="Helvetica,sans-Serif" font-size="10.00">src/app/seamly2d/dialogs</text>
<text text-anchor="middle" x="789.5" y="-7.5" font-family="Helvetica,sans-Serif" font-size="10.00">/dialognewpattern.cpp</text>
</a>
</g>
</g>
<!-- Node2&#45;&gt;Node14 -->
<g id="edge13" class="edge">
<title>Node2&#45;&gt;Node14</title>
<path fill="none" stroke="midnightblue" d="M1790.76,-80.99C1625.37,-79.15 1212.41,-70.61 869.5,-31 866.42,-30.64 863.27,-30.24 860.1,-29.8"/>
<polygon fill="midnightblue" stroke="midnightblue" points="1790.79,-84.49 1800.82,-81.1 1790.86,-77.5 1790.79,-84.49"/>
</g>
<!-- Node15 -->
<g id="node15" class="node">
<title>Node15</title>
<g id="a_node15"><a xlink:href="../../d5/d18/dialogpatternproperties_8cpp.html" target="_top" xlink:title=" ">
<polygon fill="white" stroke="black" points="878,-0.5 878,-30.5 1033,-30.5 1033,-0.5 878,-0.5"/>
<text text-anchor="start" x="886" y="-18.5" font-family="Helvetica,sans-Serif" font-size="10.00">src/app/seamly2d/dialogs</text>
<text text-anchor="middle" x="955.5" y="-7.5" font-family="Helvetica,sans-Serif" font-size="10.00">/dialogpatternproperties.cpp</text>
</a>
</g>
</g>
<!-- Node2&#45;&gt;Node15 -->
<g id="edge14" class="edge">
<title>Node2&#45;&gt;Node15</title>
<path fill="none" stroke="midnightblue" d="M1790.82,-79.54C1646.7,-75.13 1317.54,-62.28 1042.5,-31 1039.46,-30.65 1036.36,-30.27 1033.23,-29.87"/>
<polygon fill="midnightblue" stroke="midnightblue" points="1790.78,-83.04 1800.88,-79.84 1790.99,-76.04 1790.78,-83.04"/>
</g>
<!-- Node16 -->
<g id="node16" class="node">
<title>Node16</title>
<g id="a_node16"><a xlink:href="../../d5/dc5/dialogpreferences_8cpp.html" target="_top" xlink:title=" ">
<polygon fill="white" stroke="black" points="1051,-0.5 1051,-30.5 1192,-30.5 1192,-0.5 1051,-0.5"/>
<text text-anchor="start" x="1059" y="-18.5" font-family="Helvetica,sans-Serif" font-size="10.00">src/app/seamly2d/dialogs</text>
<text text-anchor="middle" x="1121.5" y="-7.5" font-family="Helvetica,sans-Serif" font-size="10.00">/dialogpreferences.cpp</text>
</a>
</g>
</g>
<!-- Node2&#45;&gt;Node16 -->
<g id="edge15" class="edge">
<title>Node2&#45;&gt;Node16</title>
<path fill="none" stroke="midnightblue" d="M1790.71,-78.37C1668.02,-72.61 1414.49,-58.34 1201.5,-31 1198.42,-30.6 1195.28,-30.17 1192.11,-29.71"/>
<polygon fill="midnightblue" stroke="midnightblue" points="1790.59,-81.87 1800.74,-78.84 1790.91,-74.88 1790.59,-81.87"/>
</g>
<!-- Node17 -->
<g id="node17" class="node">
<title>Node17</title>
<g id="a_node17"><a xlink:href="../../dd/d54/export__layout__dialog_8cpp.html" target="_top" xlink:title=" ">
<polygon fill="white" stroke="black" points="1210,-0.5 1210,-30.5 1353,-30.5 1353,-0.5 1210,-0.5"/>
<text text-anchor="start" x="1218" y="-18.5" font-family="Helvetica,sans-Serif" font-size="10.00">src/app/seamly2d/dialogs</text>
<text text-anchor="middle" x="1281.5" y="-7.5" font-family="Helvetica,sans-Serif" font-size="10.00">/export_layout_dialog.cpp</text>
</a>
</g>
</g>
<!-- Node2&#45;&gt;Node17 -->
<g id="edge16" class="edge">
<title>Node2&#45;&gt;Node17</title>
<path fill="none" stroke="midnightblue" d="M1790.82,-75.87C1692.77,-67.98 1514.15,-52.17 1362.5,-31 1359.39,-30.57 1356.21,-30.1 1353.01,-29.61"/>
<polygon fill="midnightblue" stroke="midnightblue" points="1790.67,-79.37 1800.92,-76.68 1791.23,-72.39 1790.67,-79.37"/>
</g>
<!-- Node18 -->
<g id="node18" class="node">
<title>Node18</title>
<g id="a_node18"><a xlink:href="../../dd/d84/shortcuts__dialog_8cpp.html" target="_top" xlink:title=" ">
<polygon fill="white" stroke="black" points="1371,-0.5 1371,-30.5 1512,-30.5 1512,-0.5 1371,-0.5"/>
<text text-anchor="start" x="1379" y="-18.5" font-family="Helvetica,sans-Serif" font-size="10.00">src/app/seamly2d/dialogs</text>
<text text-anchor="middle" x="1441.5" y="-7.5" font-family="Helvetica,sans-Serif" font-size="10.00">/shortcuts_dialog.cpp</text>
</a>
</g>
</g>
<!-- Node2&#45;&gt;Node18 -->
<g id="edge17" class="edge">
<title>Node2&#45;&gt;Node18</title>
<path fill="none" stroke="midnightblue" d="M1790.89,-71.38C1721.36,-61.65 1614.2,-46.22 1521.5,-31 1518.44,-30.5 1515.31,-29.97 1512.15,-29.44"/>
<polygon fill="midnightblue" stroke="midnightblue" points="1790.48,-74.86 1800.87,-72.77 1791.45,-67.93 1790.48,-74.86"/>
</g>
<!-- Node19 -->
<g id="node19" class="node">
<title>Node19</title>
<g id="a_node19"><a xlink:href="../../d5/de4/vabstractlayoutdialog_8cpp.html" target="_top" xlink:title=" ">
<polygon fill="white" stroke="black" points="1530.5,-0.5 1530.5,-30.5 1676.5,-30.5 1676.5,-0.5 1530.5,-0.5"/>
<text text-anchor="start" x="1538.5" y="-18.5" font-family="Helvetica,sans-Serif" font-size="10.00">src/app/seamly2d/dialogs</text>
<text text-anchor="middle" x="1603.5" y="-7.5" font-family="Helvetica,sans-Serif" font-size="10.00">/vabstractlayoutdialog.cpp</text>
</a>
</g>
</g>
<!-- Node2&#45;&gt;Node19 -->
<g id="edge18" class="edge">
<title>Node2&#45;&gt;Node19</title>
<path fill="none" stroke="midnightblue" d="M1798.45,-65.05C1755.78,-54.43 1700.84,-40.74 1660.16,-30.61"/>
<polygon fill="midnightblue" stroke="midnightblue" points="1797.64,-68.46 1808.19,-67.48 1799.33,-61.66 1797.64,-68.46"/>
</g>
<!-- Node20 -->
<g id="node20" class="node">
<title>Node20</title>
<g id="a_node20"><a xlink:href="../../d2/df4/show__info__dialog_8cpp.html" target="_top" xlink:title=" ">
<polygon fill="white" stroke="black" points="1695,-0.5 1695,-30.5 1836,-30.5 1836,-0.5 1695,-0.5"/>
<text text-anchor="start" x="1703" y="-18.5" font-family="Helvetica,sans-Serif" font-size="10.00">src/app/seamly2d/dialogs</text>
<text text-anchor="middle" x="1765.5" y="-7.5" font-family="Helvetica,sans-Serif" font-size="10.00">/show_info_dialog.cpp</text>
</a>
</g>
</g>
<!-- Node2&#45;&gt;Node20 -->
<g id="edge19" class="edge">
<title>Node2&#45;&gt;Node20</title>
<path fill="none" stroke="midnightblue" d="M1834.39,-61.73C1819.08,-51.68 1800.81,-39.68 1786.94,-30.58"/>
<polygon fill="midnightblue" stroke="midnightblue" points="1832.74,-64.83 1843.02,-67.4 1836.58,-58.98 1832.74,-64.83"/>
</g>
<!-- Node21 -->
<g id="node21" class="node">
<title>Node21</title>
<g id="a_node21"><a xlink:href="../../dc/d14/app_2seamly2d_2main_8cpp.html" target="_top" xlink:title=" ">
<polygon fill="white" stroke="black" points="145,-6 145,-25 296,-25 296,-6 145,-6"/>
<text text-anchor="middle" x="220.5" y="-13" font-family="Helvetica,sans-Serif" font-size="10.00">src/app/seamly2d/main.cpp</text>
</a>
</g>
</g>
<!-- Node2&#45;&gt;Node21 -->
<g id="edge20" class="edge">
<title>Node2&#45;&gt;Node21</title>
<path fill="none" stroke="midnightblue" d="M1790.87,-80.45C1522.76,-76.42 599.11,-60.66 305.5,-31 291.8,-29.62 276.97,-27.35 263.59,-25.02"/>
<polygon fill="midnightblue" stroke="midnightblue" points="1790.83,-83.95 1800.88,-80.6 1790.93,-76.95 1790.83,-83.95"/>
</g>
<!-- Node22 -->
<g id="node22" class="node">
<title>Node22</title>
<g id="a_node22"><a xlink:href="../../d8/de8/mainwindowsnogui_8cpp.html" target="_top" xlink:title=" ">
<polygon fill="white" stroke="black" points="1854,-6 1854,-25 2075,-25 2075,-6 1854,-6"/>
<text text-anchor="middle" x="1964.5" y="-13" font-family="Helvetica,sans-Serif" font-size="10.00">src/app/seamly2d/mainwindowsnogui.cpp</text>
</a>
</g>
</g>
<!-- Node2&#45;&gt;Node22 -->
<g id="edge21" class="edge">
<title>Node2&#45;&gt;Node22</title>
<path fill="none" stroke="midnightblue" d="M1894.8,-61.81C1913.71,-49.51 1937.11,-34.3 1951.41,-25.01"/>
<polygon fill="midnightblue" stroke="midnightblue" points="1892.68,-59.01 1886.2,-67.4 1896.49,-64.88 1892.68,-59.01"/>
</g>
<!-- Node23 -->
<g id="node23" class="node">
<title>Node23</title>
<g id="a_node23"><a xlink:href="../../db/d5c/groups__widget_8cpp.html" target="_top" xlink:title=" ">
<polygon fill="white" stroke="black" points="2093,-0.5 2093,-30.5 2234,-30.5 2234,-0.5 2093,-0.5"/>
<text text-anchor="start" x="2101" y="-18.5" font-family="Helvetica,sans-Serif" font-size="10.00">src/app/seamly2d/dialogs</text>
<text text-anchor="middle" x="2163.5" y="-7.5" font-family="Helvetica,sans-Serif" font-size="10.00">/groups_widget.cpp</text>
</a>
</g>
</g>
<!-- Node2&#45;&gt;Node23 -->
<g id="edge22" class="edge">
<title>Node2&#45;&gt;Node23</title>
<path fill="none" stroke="midnightblue" d="M1938.24,-65.47C1987.55,-54.75 2051.79,-40.78 2099.05,-30.51"/>
<polygon fill="midnightblue" stroke="midnightblue" points="1937.3,-62.09 1928.28,-67.64 1938.79,-68.93 1937.3,-62.09"/>
</g>
<!-- Node24 -->
<g id="node24" class="node">
<title>Node24</title>
<g id="a_node24"><a xlink:href="../../d3/d49/vpattern_8cpp.html" target="_top" xlink:title=" ">
<polygon fill="white" stroke="black" points="2252,-0.5 2252,-30.5 2377,-30.5 2377,-0.5 2252,-0.5"/>
<text text-anchor="start" x="2260" y="-18.5" font-family="Helvetica,sans-Serif" font-size="10.00">src/app/seamly2d/xml</text>
<text text-anchor="middle" x="2314.5" y="-7.5" font-family="Helvetica,sans-Serif" font-size="10.00">/vpattern.cpp</text>
</a>
</g>
</g>
<!-- Node2&#45;&gt;Node24 -->
<g id="edge23" class="edge">
<title>Node2&#45;&gt;Node24</title>
<path fill="none" stroke="midnightblue" d="M1938.14,-66.99C2074.48,-45.96 2111.46,-52.21 2243.5,-31 2246.23,-30.56 2249.02,-30.09 2251.83,-29.6"/>
<polygon fill="midnightblue" stroke="midnightblue" points="1937.49,-63.55 1928.15,-68.55 1938.57,-70.46 1937.49,-63.55"/>
</g>
<!-- Node25 -->
<g id="node25" class="node">
<title>Node25</title>
<g id="a_node25"><a xlink:href="../../d8/dd9/mainwindow_8cpp.html" target="_top" xlink:title=" ">
<polygon fill="white" stroke="black" points="314.5,-6 314.5,-25 502.5,-25 502.5,-6 314.5,-6"/>
<text text-anchor="middle" x="408.5" y="-13" font-family="Helvetica,sans-Serif" font-size="10.00">src/app/seamly2d/mainwindow.cpp</text>
</a>
</g>
</g>
<!-- Node2&#45;&gt;Node25 -->
<g id="edge24" class="edge">
<title>Node2&#45;&gt;Node25</title>
<path fill="none" stroke="midnightblue" d="M1790.67,-81.4C1586.67,-80.55 998.24,-74.23 511.5,-31 495.22,-29.55 477.58,-27.32 461.57,-25.03"/>
<polygon fill="midnightblue" stroke="midnightblue" points="1790.94,-84.9 1800.95,-81.44 1790.97,-77.9 1790.94,-84.9"/>
</g>
<!-- Node27&#45;&gt;Node3 -->
<g id="edge27" class="edge">
<title>Node27&#45;&gt;Node3</title>
<path fill="none" stroke="midnightblue" d="M271.67,-70.41C229.17,-59.4 163.9,-42.5 117.79,-30.56"/>
<polygon fill="midnightblue" stroke="midnightblue" points="270.87,-73.82 281.43,-72.94 272.62,-67.04 270.87,-73.82"/>
</g>
<!-- Node27&#45;&gt;Node21 -->
<g id="edge28" class="edge">
<title>Node27&#45;&gt;Node21</title>
<path fill="none" stroke="midnightblue" d="M293.41,-66.92C274.83,-54.07 248.38,-35.78 232.98,-25.13"/>
<polygon fill="midnightblue" stroke="midnightblue" points="291.61,-69.93 301.82,-72.73 295.59,-64.17 291.61,-69.93"/>
</g>
<!-- Node27&#45;&gt;Node25 -->
<g id="edge29" class="edge">
<title>Node27&#45;&gt;Node25</title>
<path fill="none" stroke="midnightblue" d="M335.59,-66.92C354.17,-54.07 380.62,-35.78 396.02,-25.13"/>
<polygon fill="midnightblue" stroke="midnightblue" points="333.41,-64.17 327.18,-72.73 337.39,-69.93 333.41,-64.17"/>
</g>
</g>
</svg>
