<?xml version="1.0" encoding="UTF-8" standalone="no"?>
<!DOCTYPE svg PUBLIC "-//W3C//DTD SVG 1.1//EN"
 "http://www.w3.org/Graphics/SVG/1.1/DTD/svg11.dtd">
<!-- Generated by graphviz version 2.43.0 (0)
 -->
<!-- Title: src/libs/vpatterndb/variables/vcurvelength.h Pages: 1 -->
<svg width="5763pt" height="374pt"
 viewBox="0.00 0.00 5762.50 374.00" xmlns="http://www.w3.org/2000/svg" xmlns:xlink="http://www.w3.org/1999/xlink">
<g id="graph0" class="graph" transform="scale(1 1) rotate(0) translate(4 370)">
<title>src/libs/vpatterndb/variables/vcurvelength.h</title>
<polygon fill="white" stroke="transparent" points="-4,4 -4,-370 5758.5,-370 5758.5,4 -4,4"/>
<!-- Node1 -->
<g id="node1" class="node">
<title>Node1</title>
<g id="a_node1"><a xlink:title=" ">
<polygon fill="#bfbfbf" stroke="black" points="224.5,-335.5 224.5,-365.5 364.5,-365.5 364.5,-335.5 224.5,-335.5"/>
<text text-anchor="start" x="232.5" y="-353.5" font-family="Helvetica,sans-Serif" font-size="10.00">src/libs/vpatterndb</text>
<text text-anchor="middle" x="294.5" y="-342.5" font-family="Helvetica,sans-Serif" font-size="10.00">/variables/vcurvelength.h</text>
</a>
</g>
</g>
<!-- Node2 -->
<g id="node2" class="node">
<title>Node2</title>
<g id="a_node2"><a xlink:href="../../d6/dd4/vcurvelength_8cpp.html" target="_top" xlink:title=" ">
<polygon fill="white" stroke="black" points="114.5,-268.5 114.5,-298.5 266.5,-298.5 266.5,-268.5 114.5,-268.5"/>
<text text-anchor="start" x="122.5" y="-286.5" font-family="Helvetica,sans-Serif" font-size="10.00">src/libs/vpatterndb</text>
<text text-anchor="middle" x="190.5" y="-275.5" font-family="Helvetica,sans-Serif" font-size="10.00">/variables/vcurvelength.cpp</text>
</a>
</g>
</g>
<!-- Node1&#45;&gt;Node2 -->
<g id="edge1" class="edge">
<title>Node1&#45;&gt;Node2</title>
<path fill="none" stroke="midnightblue" d="M263.32,-330.02C247.14,-319.9 227.73,-307.77 213.02,-298.58"/>
<polygon fill="midnightblue" stroke="midnightblue" points="261.6,-333.06 271.93,-335.4 265.31,-327.13 261.6,-333.06"/>
</g>
<!-- Node3 -->
<g id="node3" class="node">
<title>Node3</title>
<g id="a_node3"><a xlink:href="../../d6/d46/vcontainer_8cpp.html" target="_top" xlink:title=" ">
<polygon fill="white" stroke="black" points="0,-67.5 0,-97.5 107,-97.5 107,-67.5 0,-67.5"/>
<text text-anchor="start" x="8" y="-85.5" font-family="Helvetica,sans-Serif" font-size="10.00">src/libs/vpatterndb</text>
<text text-anchor="middle" x="53.5" y="-74.5" font-family="Helvetica,sans-Serif" font-size="10.00">/vcontainer.cpp</text>
</a>
</g>
</g>
<!-- Node1&#45;&gt;Node3 -->
<g id="edge2" class="edge">
<title>Node1&#45;&gt;Node3</title>
<path fill="none" stroke="midnightblue" d="M292.89,-324.92C290.83,-307.88 286.15,-285.24 275.5,-268 225.34,-186.77 126.9,-124.27 79.81,-97.6"/>
<polygon fill="midnightblue" stroke="midnightblue" points="289.44,-325.59 293.9,-335.2 296.41,-324.91 289.44,-325.59"/>
</g>
<!-- Node4 -->
<g id="node4" class="node">
<title>Node4</title>
<g id="a_node4"><a xlink:href="../../de/dca/variables_8h.html" target="_top" xlink:title=" ">
<polygon fill="white" stroke="black" points="2071,-268.5 2071,-298.5 2178,-298.5 2178,-268.5 2071,-268.5"/>
<text text-anchor="start" x="2079" y="-286.5" font-family="Helvetica,sans-Serif" font-size="10.00">src/libs/vpatterndb</text>
<text text-anchor="middle" x="2124.5" y="-275.5" font-family="Helvetica,sans-Serif" font-size="10.00">/variables.h</text>
</a>
</g>
</g>
<!-- Node1&#45;&gt;Node4 -->
<g id="edge3" class="edge">
<title>Node1&#45;&gt;Node4</title>
<path fill="none" stroke="midnightblue" d="M374.86,-346.65C686.54,-335.57 1811.04,-295.63 2070.73,-286.41"/>
<polygon fill="midnightblue" stroke="midnightblue" points="374.43,-343.16 364.56,-347.01 374.68,-350.15 374.43,-343.16"/>
</g>
<!-- Node5 -->
<g id="node5" class="node">
<title>Node5</title>
<g id="a_node5"><a xlink:href="../../d3/df7/vcontainer_8h.html" target="_top" xlink:title=" ">
<polygon fill="white" stroke="black" points="3743,-201.5 3743,-231.5 3850,-231.5 3850,-201.5 3743,-201.5"/>
<text text-anchor="start" x="3751" y="-219.5" font-family="Helvetica,sans-Serif" font-size="10.00">src/libs/vpatterndb</text>
<text text-anchor="middle" x="3796.5" y="-208.5" font-family="Helvetica,sans-Serif" font-size="10.00">/vcontainer.h</text>
</a>
</g>
</g>
<!-- Node4&#45;&gt;Node5 -->
<g id="edge4" class="edge">
<title>Node4&#45;&gt;Node5</title>
<path fill="none" stroke="midnightblue" d="M2188.61,-280.01C2457.9,-269.54 3494.89,-229.23 3742.96,-219.58"/>
<polygon fill="midnightblue" stroke="midnightblue" points="2188.09,-276.53 2178.24,-280.41 2188.37,-283.52 2188.09,-276.53"/>
</g>
<!-- Node5&#45;&gt;Node3 -->
<g id="edge54" class="edge">
<title>Node5&#45;&gt;Node3</title>
<path fill="none" stroke="midnightblue" d="M3732.55,-215.04C3448.59,-212.84 2273.42,-201.84 1309.5,-165 778.83,-144.72 642.28,-172.72 116.5,-98 113.39,-97.56 110.2,-97.04 107,-96.47"/>
<polygon fill="midnightblue" stroke="midnightblue" points="3732.64,-218.54 3742.66,-215.12 3732.69,-211.54 3732.64,-218.54"/>
</g>
<!-- Node6 -->
<g id="node6" class="node">
<title>Node6</title>
<g id="a_node6"><a xlink:href="../../d4/dd6/vmeasurements_8h.html" target="_top" xlink:title=" ">
<polygon fill="white" stroke="black" points="4471,-140 4471,-159 4656,-159 4656,-140 4471,-140"/>
<text text-anchor="middle" x="4563.5" y="-147" font-family="Helvetica,sans-Serif" font-size="10.00">src/libs/vformat/vmeasurements.h</text>
</a>
</g>
</g>
<!-- Node5&#45;&gt;Node6 -->
<g id="edge5" class="edge">
<title>Node5&#45;&gt;Node6</title>
<path fill="none" stroke="midnightblue" d="M3860.45,-211.89C3978.59,-204.93 4238.93,-188.28 4457.5,-165 4473.2,-163.33 4490.16,-161.17 4505.81,-159.03"/>
<polygon fill="midnightblue" stroke="midnightblue" points="3859.93,-208.41 3850.15,-212.49 3860.34,-215.4 3859.93,-208.41"/>
</g>
<!-- Node7 -->
<g id="node7" class="node">
<title>Node7</title>
<g id="a_node7"><a xlink:href="../../de/db3/vmeasurements_8cpp.html" target="_top" xlink:title=" ">
<polygon fill="white" stroke="black" points="4433.5,-73 4433.5,-92 4629.5,-92 4629.5,-73 4433.5,-73"/>
<text text-anchor="middle" x="4531.5" y="-80" font-family="Helvetica,sans-Serif" font-size="10.00">src/libs/vformat/vmeasurements.cpp</text>
</a>
</g>
</g>
<!-- Node5&#45;&gt;Node7 -->
<g id="edge7" class="edge">
<title>Node5&#45;&gt;Node7</title>
<path fill="none" stroke="midnightblue" d="M3860.72,-214.68C3998.54,-212.21 4318.35,-202.49 4419.5,-165 4420.94,-164.47 4491.21,-113.03 4519.69,-92.16"/>
<polygon fill="midnightblue" stroke="midnightblue" points="3860.26,-211.19 3850.33,-214.86 3860.38,-218.18 3860.26,-211.19"/>
</g>
<!-- Node8 -->
<g id="node8" class="node">
<title>Node8</title>
<g id="a_node8"><a xlink:href="../../d6/de0/vlayoutpiece_8h.html" target="_top" xlink:title=" ">
<polygon fill="white" stroke="black" points="4846.5,-140 4846.5,-159 5012.5,-159 5012.5,-140 4846.5,-140"/>
<text text-anchor="middle" x="4929.5" y="-147" font-family="Helvetica,sans-Serif" font-size="10.00">src/libs/vlayout/vlayoutpiece.h</text>
</a>
</g>
</g>
<!-- Node5&#45;&gt;Node8 -->
<g id="edge8" class="edge">
<title>Node5&#45;&gt;Node8</title>
<path fill="none" stroke="midnightblue" d="M3860.25,-211.84C4053.06,-200.78 4630.02,-167.68 4846.35,-155.27"/>
<polygon fill="midnightblue" stroke="midnightblue" points="3859.79,-208.36 3850.01,-212.43 3860.19,-215.35 3859.79,-208.36"/>
</g>
<!-- Node18 -->
<g id="node17" class="node">
<title>Node18</title>
<g id="a_node17"><a xlink:href="../../d8/d70/vtextmanager_8cpp.html" target="_top" xlink:title=" ">
<polygon fill="white" stroke="black" points="125.5,-73 125.5,-92 307.5,-92 307.5,-73 125.5,-73"/>
<text text-anchor="middle" x="216.5" y="-80" font-family="Helvetica,sans-Serif" font-size="10.00">src/libs/vlayout/vtextmanager.cpp</text>
</a>
</g>
</g>
<!-- Node5&#45;&gt;Node18 -->
<g id="edge19" class="edge">
<title>Node5&#45;&gt;Node18</title>
<path fill="none" stroke="midnightblue" d="M3732.88,-213.89C3506.86,-208.13 2721.51,-187.64 2073.5,-165 1733.87,-153.13 1649.08,-147.22 1309.5,-134 880.19,-117.29 771.91,-130.39 343.5,-98 323.69,-96.5 302.22,-94.28 282.65,-92.02"/>
<polygon fill="midnightblue" stroke="midnightblue" points="3732.81,-217.39 3742.9,-214.15 3732.99,-210.4 3732.81,-217.39"/>
</g>
<!-- Node19 -->
<g id="node18" class="node">
<title>Node19</title>
<g id="a_node18"><a xlink:href="../../d5/d74/vabstractapplication_8h.html" target="_top" xlink:title=" ">
<polygon fill="white" stroke="red" points="2083,-140 2083,-159 2278,-159 2278,-140 2083,-140"/>
<text text-anchor="middle" x="2180.5" y="-147" font-family="Helvetica,sans-Serif" font-size="10.00">src/libs/vmisc/vabstractapplication.h</text>
</a>
</g>
</g>
<!-- Node5&#45;&gt;Node19 -->
<g id="edge20" class="edge">
<title>Node5&#45;&gt;Node19</title>
<path fill="none" stroke="midnightblue" d="M3732.41,-212.92C3483.31,-202.9 2578.55,-166.51 2278.17,-154.43"/>
<polygon fill="midnightblue" stroke="midnightblue" points="3732.6,-216.43 3742.73,-213.34 3732.88,-209.44 3732.6,-216.43"/>
</g>
<!-- Node37 -->
<g id="node32" class="node">
<title>Node37</title>
<g id="a_node32"><a xlink:href="../../db/d11/vformula_8cpp.html" target="_top" xlink:title=" ">
<polygon fill="white" stroke="black" points="3951,-67.5 3951,-97.5 4058,-97.5 4058,-67.5 3951,-67.5"/>
<text text-anchor="start" x="3959" y="-85.5" font-family="Helvetica,sans-Serif" font-size="10.00">src/libs/vpatterndb</text>
<text text-anchor="middle" x="4004.5" y="-74.5" font-family="Helvetica,sans-Serif" font-size="10.00">/vformula.cpp</text>
</a>
</g>
</g>
<!-- Node5&#45;&gt;Node37 -->
<g id="edge53" class="edge">
<title>Node5&#45;&gt;Node37</title>
<path fill="none" stroke="midnightblue" d="M3732.81,-216.17C3639.68,-215.64 3473.28,-208.43 3435.5,-165 3426.46,-154.6 3426.11,-144.08 3435.5,-134 3473.99,-92.68 3886.66,-106.46 3942.5,-98 3945.23,-97.59 3948.02,-97.11 3950.83,-96.6"/>
<polygon fill="midnightblue" stroke="midnightblue" points="3732.96,-219.67 3742.97,-216.21 3732.98,-212.67 3732.96,-219.67"/>
</g>
<!-- Node38 -->
<g id="node33" class="node">
<title>Node38</title>
<g id="a_node33"><a xlink:href="../../df/d7a/vpiece_8cpp.html" target="_top" xlink:title=" ">
<polygon fill="white" stroke="black" points="4076,-67.5 4076,-97.5 4183,-97.5 4183,-67.5 4076,-67.5"/>
<text text-anchor="start" x="4084" y="-85.5" font-family="Helvetica,sans-Serif" font-size="10.00">src/libs/vpatterndb</text>
<text text-anchor="middle" x="4129.5" y="-74.5" font-family="Helvetica,sans-Serif" font-size="10.00">/vpiece.cpp</text>
</a>
</g>
</g>
<!-- Node5&#45;&gt;Node38 -->
<g id="edge56" class="edge">
<title>Node5&#45;&gt;Node38</title>
<path fill="none" stroke="midnightblue" d="M3732.87,-215.09C3647.5,-213.04 3502.74,-203.76 3469.5,-165 3460.53,-154.54 3460.05,-144.03 3469.5,-134 3515.13,-85.54 4001.63,-107.61 4067.5,-98 4070.23,-97.6 4073.03,-97.14 4075.84,-96.64"/>
<polygon fill="midnightblue" stroke="midnightblue" points="3732.9,-218.6 3742.97,-215.31 3733.05,-211.6 3732.9,-218.6"/>
</g>
<!-- Node40 -->
<g id="node35" class="node">
<title>Node40</title>
<g id="a_node35"><a xlink:href="../../d8/dba/vpiecenode_8cpp.html" target="_top" xlink:title=" ">
<polygon fill="white" stroke="black" points="3007,-0.5 3007,-30.5 3114,-30.5 3114,-0.5 3007,-0.5"/>
<text text-anchor="start" x="3015" y="-18.5" font-family="Helvetica,sans-Serif" font-size="10.00">src/libs/vpatterndb</text>
<text text-anchor="middle" x="3060.5" y="-7.5" font-family="Helvetica,sans-Serif" font-size="10.00">/vpiecenode.cpp</text>
</a>
</g>
</g>
<!-- Node5&#45;&gt;Node40 -->
<g id="edge57" class="edge">
<title>Node5&#45;&gt;Node40</title>
<path fill="none" stroke="midnightblue" d="M3860.19,-214.77C4005.39,-212.43 4351.16,-202.92 4386.5,-165 4416.2,-133.13 4417.71,-98.38 4387.5,-67 4342.66,-20.42 3357.03,-16.7 3114.2,-16.49"/>
<polygon fill="midnightblue" stroke="midnightblue" points="3860.03,-211.27 3850.09,-214.92 3860.14,-218.27 3860.03,-211.27"/>
</g>
<!-- Node56 -->
<g id="node45" class="node">
<title>Node56</title>
<g id="a_node45"><a xlink:href="../../d1/de1/vincrement__p_8h.html" target="_top" xlink:title=" ">
<polygon fill="white" stroke="red" points="3478,-134.5 3478,-164.5 3621,-164.5 3621,-134.5 3478,-134.5"/>
<text text-anchor="start" x="3486" y="-152.5" font-family="Helvetica,sans-Serif" font-size="10.00">src/libs/vpatterndb</text>
<text text-anchor="middle" x="3549.5" y="-141.5" font-family="Helvetica,sans-Serif" font-size="10.00">/variables/vincrement_p.h</text>
</a>
</g>
</g>
<!-- Node5&#45;&gt;Node56 -->
<g id="edge51" class="edge">
<title>Node5&#45;&gt;Node56</title>
<path fill="none" stroke="midnightblue" d="M3733.49,-198.92C3693.18,-188.31 3641.46,-174.7 3603.12,-164.61"/>
<polygon fill="midnightblue" stroke="midnightblue" points="3732.65,-202.32 3743.21,-201.48 3734.43,-195.55 3732.65,-202.32"/>
</g>
<!-- Node58 -->
<g id="node46" class="node">
<title>Node58</title>
<g id="a_node46"><a xlink:href="../../d6/dc1/vmeasurement__p_8h.html" target="_top" xlink:title=" ">
<polygon fill="white" stroke="red" points="3639.5,-134.5 3639.5,-164.5 3801.5,-164.5 3801.5,-134.5 3639.5,-134.5"/>
<text text-anchor="start" x="3647.5" y="-152.5" font-family="Helvetica,sans-Serif" font-size="10.00">src/libs/vpatterndb</text>
<text text-anchor="middle" x="3720.5" y="-141.5" font-family="Helvetica,sans-Serif" font-size="10.00">/variables/vmeasurement_p.h</text>
</a>
</g>
</g>
<!-- Node5&#45;&gt;Node58 -->
<g id="edge52" class="edge">
<title>Node5&#45;&gt;Node58</title>
<path fill="none" stroke="midnightblue" d="M3772.39,-194.88C3760.84,-185.01 3747.31,-173.43 3736.96,-164.58"/>
<polygon fill="midnightblue" stroke="midnightblue" points="3770.13,-197.56 3780.01,-201.4 3774.68,-192.24 3770.13,-197.56"/>
</g>
<!-- Node60 -->
<g id="node47" class="node">
<title>Node60</title>
<g id="a_node47"><a xlink:href="../../d6/d91/vnodedetail_8cpp.html" target="_top" xlink:title=" ">
<polygon fill="white" stroke="black" points="3820,-134.5 3820,-164.5 3927,-164.5 3927,-134.5 3820,-134.5"/>
<text text-anchor="start" x="3828" y="-152.5" font-family="Helvetica,sans-Serif" font-size="10.00">src/libs/vpatterndb</text>
<text text-anchor="middle" x="3873.5" y="-141.5" font-family="Helvetica,sans-Serif" font-size="10.00">/vnodedetail.cpp</text>
</a>
</g>
</g>
<!-- Node5&#45;&gt;Node60 -->
<g id="edge55" class="edge">
<title>Node5&#45;&gt;Node60</title>
<path fill="none" stroke="midnightblue" d="M3820.92,-194.88C3832.62,-185.01 3846.34,-173.43 3856.82,-164.58"/>
<polygon fill="midnightblue" stroke="midnightblue" points="3818.59,-192.27 3813.21,-201.4 3823.11,-197.62 3818.59,-192.27"/>
</g>
<!-- Node61 -->
<g id="node48" class="node">
<title>Node61</title>
<g id="a_node48"><a xlink:href="../../da/de1/vpiecepath_8cpp.html" target="_top" xlink:title=" ">
<polygon fill="white" stroke="black" points="3945,-134.5 3945,-164.5 4052,-164.5 4052,-134.5 3945,-134.5"/>
<text text-anchor="start" x="3953" y="-152.5" font-family="Helvetica,sans-Serif" font-size="10.00">src/libs/vpatterndb</text>
<text text-anchor="middle" x="3998.5" y="-141.5" font-family="Helvetica,sans-Serif" font-size="10.00">/vpiecepath.cpp</text>
</a>
</g>
</g>
<!-- Node5&#45;&gt;Node61 -->
<g id="edge58" class="edge">
<title>Node5&#45;&gt;Node61</title>
<path fill="none" stroke="midnightblue" d="M3850.18,-198.23C3882.85,-187.71 3924.07,-174.45 3954.75,-164.58"/>
<polygon fill="midnightblue" stroke="midnightblue" points="3848.78,-195 3840.33,-201.4 3850.92,-201.66 3848.78,-195"/>
</g>
<!-- Node62 -->
<g id="node49" class="node">
<title>Node62</title>
<g id="a_node49"><a xlink:href="../../d1/d3a/abstracttest_8cpp.html" target="_top" xlink:title=" ">
<polygon fill="white" stroke="black" points="4070,-140 4070,-159 4231,-159 4231,-140 4070,-140"/>
<text text-anchor="middle" x="4150.5" y="-147" font-family="Helvetica,sans-Serif" font-size="10.00">src/libs/vtest/abstracttest.cpp</text>
</a>
</g>
</g>
<!-- Node5&#45;&gt;Node62 -->
<g id="edge59" class="edge">
<title>Node5&#45;&gt;Node62</title>
<path fill="none" stroke="midnightblue" d="M3860.32,-203.78C3930.57,-190.88 4041.77,-170.46 4104.15,-159.01"/>
<polygon fill="midnightblue" stroke="midnightblue" points="3859.47,-200.38 3850.26,-205.63 3860.73,-207.26 3859.47,-200.38"/>
</g>
<!-- Node63 -->
<g id="node50" class="node">
<title>Node63</title>
<g id="a_node50"><a xlink:href="../../da/db4/piece__tablewidgetitem_8cpp.html" target="_top" xlink:title=" ">
<polygon fill="white" stroke="black" points="4249.5,-134.5 4249.5,-164.5 4377.5,-164.5 4377.5,-134.5 4249.5,-134.5"/>
<text text-anchor="start" x="4257.5" y="-152.5" font-family="Helvetica,sans-Serif" font-size="10.00">src/libs/vwidgets/piece</text>
<text text-anchor="middle" x="4313.5" y="-141.5" font-family="Helvetica,sans-Serif" font-size="10.00">_tablewidgetitem.cpp</text>
</a>
</g>
</g>
<!-- Node5&#45;&gt;Node63 -->
<g id="edge60" class="edge">
<title>Node5&#45;&gt;Node63</title>
<path fill="none" stroke="midnightblue" d="M3860.17,-209.93C3946.59,-201.99 4105.7,-186.02 4240.5,-165 4243.44,-164.54 4246.43,-164.05 4249.46,-163.53"/>
<polygon fill="midnightblue" stroke="midnightblue" points="3859.64,-206.46 3850,-210.86 3860.28,-213.43 3859.64,-206.46"/>
</g>
<!-- Node6&#45;&gt;Node7 -->
<g id="edge6" class="edge">
<title>Node6&#45;&gt;Node7</title>
<path fill="none" stroke="midnightblue" d="M4554.72,-130.66C4548.55,-118.13 4540.56,-101.91 4535.75,-92.13"/>
<polygon fill="midnightblue" stroke="midnightblue" points="4551.63,-132.31 4559.18,-139.73 4557.91,-129.22 4551.63,-132.31"/>
</g>
<!-- Node9 -->
<g id="node9" class="node">
<title>Node9</title>
<g id="a_node9"><a xlink:href="../../dd/d66/vdxfengine_8cpp.html" target="_top" xlink:title=" ">
<polygon fill="white" stroke="black" points="4685.5,-73 4685.5,-92 4839.5,-92 4839.5,-73 4685.5,-73"/>
<text text-anchor="middle" x="4762.5" y="-80" font-family="Helvetica,sans-Serif" font-size="10.00">src/libs/vdxf/vdxfengine.cpp</text>
</a>
</g>
</g>
<!-- Node8&#45;&gt;Node9 -->
<g id="edge9" class="edge">
<title>Node8&#45;&gt;Node9</title>
<path fill="none" stroke="midnightblue" d="M4897.65,-136.1C4864.49,-123.2 4813.44,-103.33 4784.5,-92.06"/>
<polygon fill="midnightblue" stroke="midnightblue" points="4896.74,-139.5 4907.32,-139.87 4899.27,-132.98 4896.74,-139.5"/>
</g>
<!-- Node10 -->
<g id="node10" class="node">
<title>Node10</title>
<g id="a_node10"><a xlink:href="../../de/da8/vbank_8cpp.html" target="_top" xlink:title=" ">
<polygon fill="white" stroke="black" points="4857.5,-73 4857.5,-92 5001.5,-92 5001.5,-73 4857.5,-73"/>
<text text-anchor="middle" x="4929.5" y="-80" font-family="Helvetica,sans-Serif" font-size="10.00">src/libs/vlayout/vbank.cpp</text>
</a>
</g>
</g>
<!-- Node8&#45;&gt;Node10 -->
<g id="edge10" class="edge">
<title>Node8&#45;&gt;Node10</title>
<path fill="none" stroke="midnightblue" d="M4929.5,-129.54C4929.5,-117.17 4929.5,-101.62 4929.5,-92.13"/>
<polygon fill="midnightblue" stroke="midnightblue" points="4926,-129.73 4929.5,-139.73 4933,-129.73 4926,-129.73"/>
</g>
<!-- Node11 -->
<g id="node11" class="node">
<title>Node11</title>
<g id="a_node11"><a xlink:href="../../df/d5d/vcontour_8cpp.html" target="_top" xlink:title=" ">
<polygon fill="white" stroke="black" points="5019.5,-73 5019.5,-92 5175.5,-92 5175.5,-73 5019.5,-73"/>
<text text-anchor="middle" x="5097.5" y="-80" font-family="Helvetica,sans-Serif" font-size="10.00">src/libs/vlayout/vcontour.cpp</text>
</a>
</g>
</g>
<!-- Node8&#45;&gt;Node11 -->
<g id="edge11" class="edge">
<title>Node8&#45;&gt;Node11</title>
<path fill="none" stroke="midnightblue" d="M4961.54,-136.1C4994.89,-123.2 5046.25,-103.33 5075.37,-92.06"/>
<polygon fill="midnightblue" stroke="midnightblue" points="4959.87,-133 4951.81,-139.87 4962.4,-139.52 4959.87,-133"/>
</g>
<!-- Node12 -->
<g id="node12" class="node">
<title>Node12</title>
<g id="a_node12"><a xlink:href="../../d3/d39/vlayoutgenerator_8cpp.html" target="_top" xlink:title=" ">
<polygon fill="white" stroke="black" points="5194,-73 5194,-92 5391,-92 5391,-73 5194,-73"/>
<text text-anchor="middle" x="5292.5" y="-80" font-family="Helvetica,sans-Serif" font-size="10.00">src/libs/vlayout/vlayoutgenerator.cpp</text>
</a>
</g>
</g>
<!-- Node8&#45;&gt;Node12 -->
<g id="edge12" class="edge">
<title>Node8&#45;&gt;Node12</title>
<path fill="none" stroke="midnightblue" d="M4987.49,-138.12C5058.84,-125.34 5178.62,-103.89 5244.85,-92.03"/>
<polygon fill="midnightblue" stroke="midnightblue" points="4986.56,-134.73 4977.33,-139.94 4987.79,-141.62 4986.56,-134.73"/>
</g>
<!-- Node13 -->
<g id="node13" class="node">
<title>Node13</title>
<g id="a_node13"><a xlink:href="../../d2/d2d/vlayoutpaper__p_8h.html" target="_top" xlink:title=" ">
<polygon fill="white" stroke="black" points="5409,-73 5409,-92 5588,-92 5588,-73 5409,-73"/>
<text text-anchor="middle" x="5498.5" y="-80" font-family="Helvetica,sans-Serif" font-size="10.00">src/libs/vlayout/vlayoutpaper_p.h</text>
</a>
</g>
</g>
<!-- Node8&#45;&gt;Node13 -->
<g id="edge13" class="edge">
<title>Node8&#45;&gt;Node13</title>
<path fill="none" stroke="midnightblue" d="M5022.74,-139.62C5117.85,-130.29 5269.64,-114.69 5400.5,-98 5414.49,-96.22 5429.57,-94.09 5443.61,-92.02"/>
<polygon fill="midnightblue" stroke="midnightblue" points="5022.18,-136.15 5012.57,-140.61 5022.87,-143.12 5022.18,-136.15"/>
</g>
<!-- Node14 -->
<g id="node14" class="node">
<title>Node14</title>
<g id="a_node14"><a xlink:href="../../d1/dd1/vlayoutpaper_8cpp.html" target="_top" xlink:title=" ">
<polygon fill="white" stroke="black" points="5409.5,-6 5409.5,-25 5587.5,-25 5587.5,-6 5409.5,-6"/>
<text text-anchor="middle" x="5498.5" y="-13" font-family="Helvetica,sans-Serif" font-size="10.00">src/libs/vlayout/vlayoutpaper.cpp</text>
</a>
</g>
</g>
<!-- Node8&#45;&gt;Node14 -->
<g id="edge15" class="edge">
<title>Node8&#45;&gt;Node14</title>
<path fill="none" stroke="midnightblue" d="M4836.25,-145.93C4744.26,-140.25 4624.39,-122.41 4676.5,-67 4701.31,-40.62 5201.81,-24.36 5409.44,-18.73"/>
<polygon fill="midnightblue" stroke="midnightblue" points="4836.28,-149.44 4846.47,-146.52 4836.68,-142.45 4836.28,-149.44"/>
</g>
<!-- Node15 -->
<g id="node15" class="node">
<title>Node15</title>
<g id="a_node15"><a xlink:href="../../dd/d70/vlayoutpiece_8cpp.html" target="_top" xlink:title=" ">
<polygon fill="white" stroke="black" points="4201,-73 4201,-92 4378,-92 4378,-73 4201,-73"/>
<text text-anchor="middle" x="4289.5" y="-80" font-family="Helvetica,sans-Serif" font-size="10.00">src/libs/vlayout/vlayoutpiece.cpp</text>
</a>
</g>
</g>
<!-- Node8&#45;&gt;Node15 -->
<g id="edge16" class="edge">
<title>Node8&#45;&gt;Node15</title>
<path fill="none" stroke="midnightblue" d="M4836.17,-139.37C4734.8,-129.41 4568.12,-112.89 4424.5,-98 4406.21,-96.1 4386.54,-94.02 4368.01,-92.03"/>
<polygon fill="midnightblue" stroke="midnightblue" points="4836.08,-142.88 4846.38,-140.38 4836.77,-135.92 4836.08,-142.88"/>
</g>
<!-- Node16 -->
<g id="node16" class="node">
<title>Node16</title>
<g id="a_node16"><a xlink:href="../../db/d5c/vposition_8h.html" target="_top" xlink:title=" ">
<polygon fill="white" stroke="red" points="5606.5,-73 5606.5,-92 5754.5,-92 5754.5,-73 5606.5,-73"/>
<text text-anchor="middle" x="5680.5" y="-80" font-family="Helvetica,sans-Serif" font-size="10.00">src/libs/vlayout/vposition.h</text>
</a>
</g>
</g>
<!-- Node8&#45;&gt;Node16 -->
<g id="edge17" class="edge">
<title>Node8&#45;&gt;Node16</title>
<path fill="none" stroke="midnightblue" d="M5022.81,-144.32C5152.21,-137.87 5393.28,-123.5 5597.5,-98 5610.13,-96.42 5623.76,-94.24 5636.25,-92.05"/>
<polygon fill="midnightblue" stroke="midnightblue" points="5022.37,-140.84 5012.55,-144.83 5022.71,-147.83 5022.37,-140.84"/>
</g>
<!-- Node13&#45;&gt;Node14 -->
<g id="edge14" class="edge">
<title>Node13&#45;&gt;Node14</title>
<path fill="none" stroke="midnightblue" d="M5498.5,-62.54C5498.5,-50.17 5498.5,-34.62 5498.5,-25.13"/>
<polygon fill="midnightblue" stroke="midnightblue" points="5495,-62.73 5498.5,-72.73 5502,-62.73 5495,-62.73"/>
</g>
<!-- Node16&#45;&gt;Node14 -->
<g id="edge18" class="edge">
<title>Node16&#45;&gt;Node14</title>
<path fill="none" stroke="midnightblue" d="M5646.72,-69.44C5610.62,-56.54 5554.29,-36.42 5522.48,-25.06"/>
<polygon fill="midnightblue" stroke="midnightblue" points="5645.74,-72.8 5656.33,-72.87 5648.09,-66.21 5645.74,-72.8"/>
</g>
<!-- Node19&#45;&gt;Node3 -->
<g id="edge38" class="edge">
<title>Node19&#45;&gt;Node3</title>
<path fill="none" stroke="midnightblue" d="M2072.75,-146.47C1662.21,-138.64 214.09,-110.3 116.5,-98 113.49,-97.62 110.42,-97.16 107.33,-96.64"/>
<polygon fill="midnightblue" stroke="midnightblue" points="2072.78,-149.97 2082.84,-146.66 2072.91,-142.97 2072.78,-149.97"/>
</g>
<!-- Node19&#45;&gt;Node15 -->
<g id="edge31" class="edge">
<title>Node19&#45;&gt;Node15</title>
<path fill="none" stroke="midnightblue" d="M2288.45,-147.55C2650.19,-144.08 3817.76,-130.59 4192.5,-98 4208.11,-96.64 4225.02,-94.39 4240.29,-92.06"/>
<polygon fill="midnightblue" stroke="midnightblue" points="2288.21,-144.05 2278.25,-147.64 2288.28,-151.05 2288.21,-144.05"/>
</g>
<!-- Node19&#45;&gt;Node18 -->
<g id="edge32" class="edge">
<title>Node19&#45;&gt;Node18</title>
<path fill="none" stroke="midnightblue" d="M2072.54,-143.57C2002.9,-140.51 1910.36,-136.66 1828.5,-134 1158.89,-112.21 989.3,-151.91 321.5,-98 304.53,-96.63 286.12,-94.36 269.52,-92.01"/>
<polygon fill="midnightblue" stroke="midnightblue" points="2072.5,-147.07 2082.65,-144.02 2072.81,-140.08 2072.5,-147.07"/>
</g>
<!-- Node20 -->
<g id="node19" class="node">
<title>Node20</title>
<g id="a_node19"><a xlink:href="../../d4/d90/fvupdater_8cpp.html" target="_top" xlink:title=" ">
<polygon fill="white" stroke="black" points="838,-73 838,-92 991,-92 991,-73 838,-73"/>
<text text-anchor="middle" x="914.5" y="-80" font-family="Helvetica,sans-Serif" font-size="10.00">src/libs/fervor/fvupdater.cpp</text>
</a>
</g>
</g>
<!-- Node19&#45;&gt;Node20 -->
<g id="edge21" class="edge">
<title>Node19&#45;&gt;Node20</title>
<path fill="none" stroke="midnightblue" d="M2072.49,-144.06C1785.87,-132.26 1025.97,-100.81 999.5,-98 985.95,-96.56 971.3,-94.31 958.03,-92.01"/>
<polygon fill="midnightblue" stroke="midnightblue" points="2072.76,-147.58 2082.9,-144.49 2073.05,-140.58 2072.76,-147.58"/>
</g>
<!-- Node21 -->
<g id="node20" class="node">
<title>Node21</title>
<g id="a_node20"><a xlink:href="../../d9/dc8/dxiface_8cpp.html" target="_top" xlink:title=" ">
<polygon fill="white" stroke="black" points="1009,-73 1009,-92 1144,-92 1144,-73 1009,-73"/>
<text text-anchor="middle" x="1076.5" y="-80" font-family="Helvetica,sans-Serif" font-size="10.00">src/libs/vdxf/dxiface.cpp</text>
</a>
</g>
</g>
<!-- Node19&#45;&gt;Node21 -->
<g id="edge22" class="edge">
<title>Node19&#45;&gt;Node21</title>
<path fill="none" stroke="midnightblue" d="M2072.56,-144.05C1827.2,-133.82 1241.86,-108.67 1152.5,-98 1140.36,-96.55 1127.25,-94.3 1115.39,-92"/>
<polygon fill="midnightblue" stroke="midnightblue" points="2072.43,-147.55 2082.57,-144.47 2072.72,-140.56 2072.43,-147.55"/>
</g>
<!-- Node22 -->
<g id="node21" class="node">
<title>Node22</title>
<g id="a_node21"><a xlink:href="../../da/d75/vabstractarc__p_8h.html" target="_top" xlink:title=" ">
<polygon fill="white" stroke="red" points="1162,-67.5 1162,-97.5 1269,-97.5 1269,-67.5 1162,-67.5"/>
<text text-anchor="start" x="1170" y="-85.5" font-family="Helvetica,sans-Serif" font-size="10.00">src/libs/vgeometry</text>
<text text-anchor="middle" x="1215.5" y="-74.5" font-family="Helvetica,sans-Serif" font-size="10.00">/vabstractarc_p.h</text>
</a>
</g>
</g>
<!-- Node19&#45;&gt;Node22 -->
<g id="edge23" class="edge">
<title>Node19&#45;&gt;Node22</title>
<path fill="none" stroke="midnightblue" d="M2072.91,-143.54C1850.47,-133.12 1354.27,-109.04 1277.5,-98 1274.76,-97.61 1271.97,-97.15 1269.16,-96.65"/>
<polygon fill="midnightblue" stroke="midnightblue" points="2072.82,-147.04 2082.97,-144.01 2073.14,-140.04 2072.82,-147.04"/>
</g>
<!-- Node24 -->
<g id="node22" class="node">
<title>Node24</title>
<g id="a_node22"><a xlink:href="../../dc/da3/varc__p_8h.html" target="_top" xlink:title=" ">
<polygon fill="white" stroke="red" points="1412,-67.5 1412,-97.5 1519,-97.5 1519,-67.5 1412,-67.5"/>
<text text-anchor="start" x="1420" y="-85.5" font-family="Helvetica,sans-Serif" font-size="10.00">src/libs/vgeometry</text>
<text text-anchor="middle" x="1465.5" y="-74.5" font-family="Helvetica,sans-Serif" font-size="10.00">/varc_p.h</text>
</a>
</g>
</g>
<!-- Node19&#45;&gt;Node24 -->
<g id="edge24" class="edge">
<title>Node19&#45;&gt;Node24</title>
<path fill="none" stroke="midnightblue" d="M2072.54,-145.19C1942.57,-140.05 1718.01,-127.47 1527.5,-98 1524.77,-97.58 1521.98,-97.1 1519.17,-96.58"/>
<polygon fill="midnightblue" stroke="midnightblue" points="2072.76,-148.7 2082.89,-145.59 2073.03,-141.71 2072.76,-148.7"/>
</g>
<!-- Node26 -->
<g id="node23" class="node">
<title>Node26</title>
<g id="a_node23"><a xlink:href="../../d5/d8e/vcubicbezier__p_8h.html" target="_top" xlink:title=" ">
<polygon fill="white" stroke="red" points="1537,-67.5 1537,-97.5 1644,-97.5 1644,-67.5 1537,-67.5"/>
<text text-anchor="start" x="1545" y="-85.5" font-family="Helvetica,sans-Serif" font-size="10.00">src/libs/vgeometry</text>
<text text-anchor="middle" x="1590.5" y="-74.5" font-family="Helvetica,sans-Serif" font-size="10.00">/vcubicbezier_p.h</text>
</a>
</g>
</g>
<!-- Node19&#45;&gt;Node26 -->
<g id="edge25" class="edge">
<title>Node19&#45;&gt;Node26</title>
<path fill="none" stroke="midnightblue" d="M2072.51,-142.43C1965.41,-135.42 1796.87,-121.68 1652.5,-98 1649.77,-97.55 1646.99,-97.05 1644.18,-96.52"/>
<polygon fill="midnightblue" stroke="midnightblue" points="2072.47,-145.94 2082.68,-143.09 2072.93,-138.95 2072.47,-145.94"/>
</g>
<!-- Node28 -->
<g id="node24" class="node">
<title>Node28</title>
<g id="a_node24"><a xlink:href="../../df/dde/vellipticalarc__p_8h.html" target="_top" xlink:title=" ">
<polygon fill="white" stroke="black" points="1287,-67.5 1287,-97.5 1394,-97.5 1394,-67.5 1287,-67.5"/>
<text text-anchor="start" x="1295" y="-85.5" font-family="Helvetica,sans-Serif" font-size="10.00">src/libs/vgeometry</text>
<text text-anchor="middle" x="1340.5" y="-74.5" font-family="Helvetica,sans-Serif" font-size="10.00">/vellipticalarc_p.h</text>
</a>
</g>
</g>
<!-- Node19&#45;&gt;Node28 -->
<g id="edge26" class="edge">
<title>Node19&#45;&gt;Node28</title>
<path fill="none" stroke="midnightblue" d="M2072.54,-143.7C1890.15,-135.22 1528.57,-116.7 1402.5,-98 1399.77,-97.59 1396.98,-97.13 1394.16,-96.62"/>
<polygon fill="midnightblue" stroke="midnightblue" points="2072.54,-147.2 2082.69,-144.17 2072.86,-140.21 2072.54,-147.2"/>
</g>
<!-- Node29 -->
<g id="node25" class="node">
<title>Node29</title>
<g id="a_node25"><a xlink:href="../../d6/dfb/vellipticalarc_8cpp.html" target="_top" xlink:title=" ">
<polygon fill="white" stroke="black" points="785,-0.5 785,-30.5 892,-30.5 892,-0.5 785,-0.5"/>
<text text-anchor="start" x="793" y="-18.5" font-family="Helvetica,sans-Serif" font-size="10.00">src/libs/vgeometry</text>
<text text-anchor="middle" x="838.5" y="-7.5" font-family="Helvetica,sans-Serif" font-size="10.00">/vellipticalarc.cpp</text>
</a>
</g>
</g>
<!-- Node19&#45;&gt;Node29 -->
<g id="edge28" class="edge">
<title>Node19&#45;&gt;Node29</title>
<path fill="none" stroke="midnightblue" d="M2072.54,-143.58C2002.9,-140.53 1910.36,-136.69 1828.5,-134 1787.57,-132.66 383.1,-127.31 354.5,-98 344.88,-88.14 345.28,-77.24 354.5,-67 382.88,-35.5 664.38,-22.35 784.57,-18.14"/>
<polygon fill="midnightblue" stroke="midnightblue" points="2072.5,-147.09 2082.65,-144.03 2072.81,-140.09 2072.5,-147.09"/>
</g>
<!-- Node30 -->
<g id="node26" class="node">
<title>Node30</title>
<g id="a_node26"><a xlink:href="../../d1/d76/vspline__p_8h.html" target="_top" xlink:title=" ">
<polygon fill="white" stroke="red" points="1787,-67.5 1787,-97.5 1894,-97.5 1894,-67.5 1787,-67.5"/>
<text text-anchor="start" x="1795" y="-85.5" font-family="Helvetica,sans-Serif" font-size="10.00">src/libs/vgeometry</text>
<text text-anchor="middle" x="1840.5" y="-74.5" font-family="Helvetica,sans-Serif" font-size="10.00">/vspline_p.h</text>
</a>
</g>
</g>
<!-- Node19&#45;&gt;Node30 -->
<g id="edge29" class="edge">
<title>Node19&#45;&gt;Node30</title>
<path fill="none" stroke="midnightblue" d="M2119.67,-138.24C2063.45,-128.56 1977.64,-113.28 1903.5,-98 1900.42,-97.37 1897.26,-96.7 1894.08,-96.01"/>
<polygon fill="midnightblue" stroke="midnightblue" points="2119.37,-141.74 2129.82,-139.98 2120.56,-134.84 2119.37,-141.74"/>
</g>
<!-- Node32 -->
<g id="node27" class="node">
<title>Node32</title>
<g id="a_node27"><a xlink:href="../../d9/d15/vabstractpiece_8cpp.html" target="_top" xlink:title=" ">
<polygon fill="white" stroke="black" points="1912.5,-73 1912.5,-92 2098.5,-92 2098.5,-73 1912.5,-73"/>
<text text-anchor="middle" x="2005.5" y="-80" font-family="Helvetica,sans-Serif" font-size="10.00">src/libs/vlayout/vabstractpiece.cpp</text>
</a>
</g>
</g>
<!-- Node19&#45;&gt;Node32 -->
<g id="edge30" class="edge">
<title>Node19&#45;&gt;Node32</title>
<path fill="none" stroke="midnightblue" d="M2147.57,-136.27C2112.84,-123.37 2059.01,-103.38 2028.56,-92.06"/>
<polygon fill="midnightblue" stroke="midnightblue" points="2146.67,-139.67 2157.26,-139.87 2149.11,-133.11 2146.67,-139.67"/>
</g>
<!-- Node33 -->
<g id="node28" class="node">
<title>Node33</title>
<g id="a_node28"><a xlink:href="../../db/d65/dialogexporttocsv_8cpp.html" target="_top" xlink:title=" ">
<polygon fill="white" stroke="black" points="2117,-67.5 2117,-97.5 2244,-97.5 2244,-67.5 2117,-67.5"/>
<text text-anchor="start" x="2125" y="-85.5" font-family="Helvetica,sans-Serif" font-size="10.00">src/libs/vmisc/dialogs</text>
<text text-anchor="middle" x="2180.5" y="-74.5" font-family="Helvetica,sans-Serif" font-size="10.00">/dialogexporttocsv.cpp</text>
</a>
</g>
</g>
<!-- Node19&#45;&gt;Node33 -->
<g id="edge33" class="edge">
<title>Node19&#45;&gt;Node33</title>
<path fill="none" stroke="midnightblue" d="M2180.5,-129.41C2180.5,-119.22 2180.5,-106.9 2180.5,-97.59"/>
<polygon fill="midnightblue" stroke="midnightblue" points="2177,-129.73 2180.5,-139.73 2184,-129.73 2177,-129.73"/>
</g>
<!-- Node34 -->
<g id="node29" class="node">
<title>Node34</title>
<g id="a_node29"><a xlink:href="../../d6/d0b/def_8cpp.html" target="_top" xlink:title=" ">
<polygon fill="white" stroke="black" points="2262.5,-73 2262.5,-92 2384.5,-92 2384.5,-73 2262.5,-73"/>
<text text-anchor="middle" x="2323.5" y="-80" font-family="Helvetica,sans-Serif" font-size="10.00">src/libs/vmisc/def.cpp</text>
</a>
</g>
</g>
<!-- Node19&#45;&gt;Node34 -->
<g id="edge34" class="edge">
<title>Node19&#45;&gt;Node34</title>
<path fill="none" stroke="midnightblue" d="M2208.85,-135.61C2237.17,-122.74 2279.93,-103.31 2304.43,-92.17"/>
<polygon fill="midnightblue" stroke="midnightblue" points="2207.14,-132.54 2199.49,-139.87 2210.04,-138.92 2207.14,-132.54"/>
</g>
<!-- Node35 -->
<g id="node30" class="node">
<title>Node35</title>
<g id="a_node30"><a xlink:href="../../d0/df6/vabstractapplication_8cpp.html" target="_top" xlink:title=" ">
<polygon fill="white" stroke="black" points="2402.5,-73 2402.5,-92 2608.5,-92 2608.5,-73 2402.5,-73"/>
<text text-anchor="middle" x="2505.5" y="-80" font-family="Helvetica,sans-Serif" font-size="10.00">src/libs/vmisc/vabstractapplication.cpp</text>
</a>
</g>
</g>
<!-- Node19&#45;&gt;Node35 -->
<g id="edge35" class="edge">
<title>Node19&#45;&gt;Node35</title>
<path fill="none" stroke="midnightblue" d="M2233.21,-137.96C2297.18,-125.16 2403.78,-103.84 2462.84,-92.03"/>
<polygon fill="midnightblue" stroke="midnightblue" points="2232.44,-134.54 2223.32,-139.94 2233.81,-141.41 2232.44,-134.54"/>
</g>
<!-- Node36 -->
<g id="node31" class="node">
<title>Node36</title>
<g id="a_node31"><a xlink:href="../../d4/d4f/pmsystems_8cpp.html" target="_top" xlink:title=" ">
<polygon fill="white" stroke="black" points="2627,-67.5 2627,-97.5 2734,-97.5 2734,-67.5 2627,-67.5"/>
<text text-anchor="start" x="2635" y="-85.5" font-family="Helvetica,sans-Serif" font-size="10.00">src/libs/vpatterndb</text>
<text text-anchor="middle" x="2680.5" y="-74.5" font-family="Helvetica,sans-Serif" font-size="10.00">/pmsystems.cpp</text>
</a>
</g>
</g>
<!-- Node19&#45;&gt;Node36 -->
<g id="edge36" class="edge">
<title>Node19&#45;&gt;Node36</title>
<path fill="none" stroke="midnightblue" d="M2288.22,-139.42C2376.96,-131.13 2505.89,-117.23 2617.5,-98 2620.6,-97.47 2623.77,-96.88 2626.97,-96.25"/>
<polygon fill="midnightblue" stroke="midnightblue" points="2287.77,-135.94 2278.14,-140.35 2288.42,-142.91 2287.77,-135.94"/>
</g>
<!-- Node19&#45;&gt;Node37 -->
<g id="edge37" class="edge">
<title>Node19&#45;&gt;Node37</title>
<path fill="none" stroke="midnightblue" d="M2288.26,-148.25C2619.56,-147.03 3620.17,-139.88 3942.5,-98 3945.24,-97.64 3948.04,-97.22 3950.85,-96.74"/>
<polygon fill="midnightblue" stroke="midnightblue" points="2288.17,-144.75 2278.18,-148.28 2288.19,-151.75 2288.17,-144.75"/>
</g>
<!-- Node19&#45;&gt;Node38 -->
<g id="edge39" class="edge">
<title>Node19&#45;&gt;Node38</title>
<path fill="none" stroke="midnightblue" d="M2288.06,-148.49C2634.62,-148.01 3719.69,-142.85 4067.5,-98 4070.24,-97.65 4073.04,-97.22 4075.85,-96.75"/>
<polygon fill="midnightblue" stroke="midnightblue" points="2288.01,-144.99 2278.02,-148.5 2288.02,-151.99 2288.01,-144.99"/>
</g>
<!-- Node39 -->
<g id="node34" class="node">
<title>Node39</title>
<g id="a_node34"><a xlink:href="../../df/dba/vpiecenode__p_8h.html" target="_top" xlink:title=" ">
<polygon fill="white" stroke="black" points="1662,-67.5 1662,-97.5 1769,-97.5 1769,-67.5 1662,-67.5"/>
<text text-anchor="start" x="1670" y="-85.5" font-family="Helvetica,sans-Serif" font-size="10.00">src/libs/vpatterndb</text>
<text text-anchor="middle" x="1715.5" y="-74.5" font-family="Helvetica,sans-Serif" font-size="10.00">/vpiecenode_p.h</text>
</a>
</g>
</g>
<!-- Node19&#45;&gt;Node39 -->
<g id="edge40" class="edge">
<title>Node19&#45;&gt;Node39</title>
<path fill="none" stroke="midnightblue" d="M2080.81,-138.95C1998.99,-130.41 1880.28,-116.4 1777.5,-98 1774.78,-97.51 1772,-96.98 1769.2,-96.42"/>
<polygon fill="midnightblue" stroke="midnightblue" points="2080.55,-142.45 2090.86,-139.99 2081.27,-135.48 2080.55,-142.45"/>
</g>
<!-- Node41 -->
<g id="node36" class="node">
<title>Node41</title>
<g id="a_node36"><a xlink:href="../../de/d3e/vtranslatevars_8cpp.html" target="_top" xlink:title=" ">
<polygon fill="white" stroke="black" points="2752.5,-67.5 2752.5,-97.5 2862.5,-97.5 2862.5,-67.5 2752.5,-67.5"/>
<text text-anchor="start" x="2760.5" y="-85.5" font-family="Helvetica,sans-Serif" font-size="10.00">src/libs/vpatterndb</text>
<text text-anchor="middle" x="2807.5" y="-74.5" font-family="Helvetica,sans-Serif" font-size="10.00">/vtranslatevars.cpp</text>
</a>
</g>
</g>
<!-- Node19&#45;&gt;Node41 -->
<g id="edge42" class="edge">
<title>Node19&#45;&gt;Node41</title>
<path fill="none" stroke="midnightblue" d="M2288.27,-142.98C2401.77,-136.2 2585.47,-122.46 2742.5,-98 2745.7,-97.5 2748.98,-96.94 2752.27,-96.33"/>
<polygon fill="midnightblue" stroke="midnightblue" points="2287.96,-139.5 2278.18,-143.58 2288.37,-146.48 2287.96,-139.5"/>
</g>
<!-- Node42 -->
<g id="node37" class="node">
<title>Node42</title>
<g id="a_node37"><a xlink:href="../../df/d40/export__format__combobox_8cpp.html" target="_top" xlink:title=" ">
<polygon fill="white" stroke="black" points="2881,-67.5 2881,-97.5 3014,-97.5 3014,-67.5 2881,-67.5"/>
<text text-anchor="start" x="2889" y="-85.5" font-family="Helvetica,sans-Serif" font-size="10.00">src/libs/vwidgets/export</text>
<text text-anchor="middle" x="2947.5" y="-74.5" font-family="Helvetica,sans-Serif" font-size="10.00">_format_combobox.cpp</text>
</a>
</g>
</g>
<!-- Node19&#45;&gt;Node42 -->
<g id="edge43" class="edge">
<title>Node19&#45;&gt;Node42</title>
<path fill="none" stroke="midnightblue" d="M2288.16,-144.49C2424.42,-138.53 2666.15,-125 2871.5,-98 2874.56,-97.6 2877.69,-97.15 2880.84,-96.67"/>
<polygon fill="midnightblue" stroke="midnightblue" points="2287.97,-140.99 2278.13,-144.92 2288.27,-147.99 2287.97,-140.99"/>
</g>
<!-- Node43 -->
<g id="node38" class="node">
<title>Node43</title>
<g id="a_node38"><a xlink:href="../../d3/d4f/mouse__coordinates_8cpp.html" target="_top" xlink:title=" ">
<polygon fill="white" stroke="black" points="3032.5,-67.5 3032.5,-97.5 3166.5,-97.5 3166.5,-67.5 3032.5,-67.5"/>
<text text-anchor="start" x="3040.5" y="-85.5" font-family="Helvetica,sans-Serif" font-size="10.00">src/libs/vwidgets/mouse</text>
<text text-anchor="middle" x="3099.5" y="-74.5" font-family="Helvetica,sans-Serif" font-size="10.00">_coordinates.cpp</text>
</a>
</g>
</g>
<!-- Node19&#45;&gt;Node43 -->
<g id="edge44" class="edge">
<title>Node19&#45;&gt;Node43</title>
<path fill="none" stroke="midnightblue" d="M2288.46,-146.38C2449.05,-142.24 2760.12,-130.44 3022.5,-98 3025.74,-97.6 3029.05,-97.15 3032.39,-96.65"/>
<polygon fill="midnightblue" stroke="midnightblue" points="2288.01,-142.89 2278.1,-146.64 2288.19,-149.89 2288.01,-142.89"/>
</g>
<!-- Node44 -->
<g id="node39" class="node">
<title>Node44</title>
<g id="a_node39"><a xlink:href="../../d7/d1b/pen__toolbar_8cpp.html" target="_top" xlink:title=" ">
<polygon fill="white" stroke="black" points="3185,-67.5 3185,-97.5 3304,-97.5 3304,-67.5 3185,-67.5"/>
<text text-anchor="start" x="3193" y="-85.5" font-family="Helvetica,sans-Serif" font-size="10.00">src/libs/vwidgets/pen</text>
<text text-anchor="middle" x="3244.5" y="-74.5" font-family="Helvetica,sans-Serif" font-size="10.00">_toolbar.cpp</text>
</a>
</g>
</g>
<!-- Node19&#45;&gt;Node44 -->
<g id="edge45" class="edge">
<title>Node19&#45;&gt;Node44</title>
<path fill="none" stroke="midnightblue" d="M2288.22,-148.54C2471.31,-147.37 2854.59,-139.6 3175.5,-98 3178.53,-97.61 3181.63,-97.15 3184.76,-96.65"/>
<polygon fill="midnightblue" stroke="midnightblue" points="2288.03,-145.04 2278.05,-148.6 2288.07,-152.04 2288.03,-145.04"/>
</g>
<!-- Node45 -->
<g id="node40" class="node">
<title>Node45</title>
<g id="a_node40"><a xlink:href="../../d8/d76/scene__rect_8cpp.html" target="_top" xlink:title=" ">
<polygon fill="white" stroke="black" points="3322.5,-67.5 3322.5,-97.5 3452.5,-97.5 3452.5,-67.5 3322.5,-67.5"/>
<text text-anchor="start" x="3330.5" y="-85.5" font-family="Helvetica,sans-Serif" font-size="10.00">src/libs/vwidgets/scene</text>
<text text-anchor="middle" x="3387.5" y="-74.5" font-family="Helvetica,sans-Serif" font-size="10.00">_rect.cpp</text>
</a>
</g>
</g>
<!-- Node19&#45;&gt;Node45 -->
<g id="edge46" class="edge">
<title>Node19&#45;&gt;Node45</title>
<path fill="none" stroke="midnightblue" d="M2288.18,-148.93C2489.89,-148.57 2938.11,-142.3 3312.5,-98 3315.66,-97.63 3318.89,-97.19 3322.14,-96.72"/>
<polygon fill="midnightblue" stroke="midnightblue" points="2288.17,-145.43 2278.18,-148.94 2288.18,-152.43 2288.17,-145.43"/>
</g>
<!-- Node46 -->
<g id="node41" class="node">
<title>Node46</title>
<g id="a_node41"><a xlink:href="../../dd/df6/vabstractmainwindow_8cpp.html" target="_top" xlink:title=" ">
<polygon fill="white" stroke="black" points="3471,-73 3471,-92 3700,-92 3700,-73 3471,-73"/>
<text text-anchor="middle" x="3585.5" y="-80" font-family="Helvetica,sans-Serif" font-size="10.00">src/libs/vwidgets/vabstractmainwindow.cpp</text>
</a>
</g>
</g>
<!-- Node19&#45;&gt;Node46 -->
<g id="edge47" class="edge">
<title>Node19&#45;&gt;Node46</title>
<path fill="none" stroke="midnightblue" d="M2288.56,-147.05C2509.27,-143.46 3027.65,-131.87 3461.5,-98 3480.84,-96.49 3501.81,-94.26 3520.91,-92.01"/>
<polygon fill="midnightblue" stroke="midnightblue" points="2288.22,-143.55 2278.28,-147.21 2288.33,-150.55 2288.22,-143.55"/>
</g>
<!-- Node47 -->
<g id="node42" class="node">
<title>Node47</title>
<g id="a_node42"><a xlink:href="../../de/d45/vcontrolpointspline_8cpp.html" target="_top" xlink:title=" ">
<polygon fill="white" stroke="black" points="3718,-73 3718,-92 3933,-92 3933,-73 3718,-73"/>
<text text-anchor="middle" x="3825.5" y="-80" font-family="Helvetica,sans-Serif" font-size="10.00">src/libs/vwidgets/vcontrolpointspline.cpp</text>
</a>
</g>
</g>
<!-- Node19&#45;&gt;Node47 -->
<g id="edge48" class="edge">
<title>Node19&#45;&gt;Node47</title>
<path fill="none" stroke="midnightblue" d="M2288.34,-148.32C2538.47,-147.16 3177.4,-139.96 3709.5,-98 3727.81,-96.56 3747.67,-94.32 3765.7,-92.03"/>
<polygon fill="midnightblue" stroke="midnightblue" points="2288.15,-144.82 2278.16,-148.36 2288.18,-151.82 2288.15,-144.82"/>
</g>
<!-- Node48 -->
<g id="node43" class="node">
<title>Node48</title>
<g id="a_node43"><a xlink:href="../../d1/d90/vgrainlineitem_8cpp.html" target="_top" xlink:title=" ">
<polygon fill="white" stroke="black" points="364,-73 364,-92 557,-92 557,-73 364,-73"/>
<text text-anchor="middle" x="460.5" y="-80" font-family="Helvetica,sans-Serif" font-size="10.00">src/libs/vwidgets/vgrainlineitem.cpp</text>
</a>
</g>
</g>
<!-- Node19&#45;&gt;Node48 -->
<g id="edge49" class="edge">
<title>Node19&#45;&gt;Node48</title>
<path fill="none" stroke="midnightblue" d="M2072.54,-143.7C2002.89,-140.69 1910.36,-136.85 1828.5,-134 1267.72,-114.45 1125.72,-144.09 566.5,-98 549.56,-96.6 531.19,-94.35 514.57,-92.04"/>
<polygon fill="midnightblue" stroke="midnightblue" points="2072.5,-147.2 2082.64,-144.14 2072.81,-140.21 2072.5,-147.2"/>
</g>
<!-- Node49 -->
<g id="node44" class="node">
<title>Node49</title>
<g id="a_node44"><a xlink:href="../../de/dec/vgraphicssimpletextitem_8cpp.html" target="_top" xlink:title=" ">
<polygon fill="white" stroke="black" points="575.5,-73 575.5,-92 819.5,-92 819.5,-73 575.5,-73"/>
<text text-anchor="middle" x="697.5" y="-80" font-family="Helvetica,sans-Serif" font-size="10.00">src/libs/vwidgets/vgraphicssimpletextitem.cpp</text>
</a>
</g>
</g>
<!-- Node19&#45;&gt;Node49 -->
<g id="edge50" class="edge">
<title>Node19&#45;&gt;Node49</title>
<path fill="none" stroke="midnightblue" d="M2072.53,-143.91C2002.88,-140.98 1910.34,-137.16 1828.5,-134 1384.1,-116.85 1272.04,-130.49 828.5,-98 808.08,-96.5 785.92,-94.28 765.74,-92.02"/>
<polygon fill="midnightblue" stroke="midnightblue" points="2072.5,-147.41 2082.64,-144.33 2072.79,-140.42 2072.5,-147.41"/>
</g>
<!-- Node28&#45;&gt;Node29 -->
<g id="edge27" class="edge">
<title>Node28&#45;&gt;Node29</title>
<path fill="none" stroke="midnightblue" d="M1277.01,-67.05C1132.17,-42.57 973.3,-27.55 892.16,-20.73"/>
<polygon fill="midnightblue" stroke="midnightblue" points="1276.52,-70.52 1286.97,-68.75 1277.7,-63.62 1276.52,-70.52"/>
</g>
<!-- Node39&#45;&gt;Node40 -->
<g id="edge41" class="edge">
<title>Node39&#45;&gt;Node40</title>
<path fill="none" stroke="midnightblue" d="M1779.37,-66.95C2041.09,-33.71 2797.92,-20.38 3006.66,-17.25"/>
<polygon fill="midnightblue" stroke="midnightblue" points="1778.61,-63.52 1769.15,-68.29 1779.52,-70.46 1778.61,-63.52"/>
</g>
</g>
</svg>
