<?xml version="1.0" encoding="UTF-8" standalone="no"?>
<!DOCTYPE svg PUBLIC "-//W3C//DTD SVG 1.1//EN"
 "http://www.w3.org/Graphics/SVG/1.1/DTD/svg11.dtd">
<!-- Generated by graphviz version 2.43.0 (0)
 -->
<!-- Title: src/libs/qmuparser/qmuparserfixes.h Pages: 1 -->
<!--zoomable 709 -->
<svg id="main" version="1.1" xmlns="http://www.w3.org/2000/svg" xmlns:xlink="http://www.w3.org/1999/xlink" xml:space="preserve" onload="init(evt)">
<style type="text/css"><![CDATA[
.edge:hover path { stroke: red; }
.edge:hover polygon { stroke: red; fill: red; }
]]></style>
<script type="text/javascript"><![CDATA[
var edges = document.getElementsByTagName('g');
if (edges && edges.length) {
  for (var i=0;i<edges.length;i++) {
    if (edges[i].id.substr(0,4)=='edge') {
      edges[i].setAttribute('class','edge');
    }
  }
}
]]></script>
        <defs>
                <circle id="rim" cx="0" cy="0" r="7"/>
                <circle id="rim2" cx="0" cy="0" r="3.5"/>
                <g id="zoomPlus">
                        <use xlink:href="#rim" fill="#404040">
                                <set attributeName="fill" to="#808080" begin="zoomplus.mouseover" end="zoomplus.mouseout"/>
                        </use>
                        <path d="M-4,0h8M0,-4v8" fill="none" stroke="white" stroke-width="1.5" pointer-events="none"/>
                </g>
                <g id="zoomMin">
                        <use xlink:href="#rim" fill="#404040">
                                <set attributeName="fill" to="#808080" begin="zoomminus.mouseover" end="zoomminus.mouseout"/>
                        </use>
                        <path d="M-4,0h8" fill="none" stroke="white" stroke-width="1.5" pointer-events="none"/>
                </g>
                <g id="dirArrow">
                        <path fill="none" stroke="white" stroke-width="1.5" d="M0,-3.0v7 M-2.5,-0.5L0,-3.0L2.5,-0.5"/>
                </g>
               <g id="resetDef">
                       <use xlink:href="#rim2" fill="#404040">
                               <set attributeName="fill" to="#808080" begin="reset.mouseover" end="reset.mouseout"/>
                       </use>
               </g>
        </defs>

<script type="text/javascript">
var viewWidth = 1256;
var viewHeight = 709;
var sectionId = 'dynsection-0';
</script>
<script xlink:href="../../svgpan.js"/>
<svg id="graph" class="graph">
<g id="viewport">
<title>src/libs/qmuparser/qmuparserfixes.h</title>
<polygon fill="white" stroke="transparent" points="-4,4 -4,-705 1252.46,-705 1252.46,4 -4,4"/>
<!-- Node1 -->
<g id="node1" class="node">
<title>Node1</title>
<g id="a_node1"><a xlink:title="This file contains compatibility fixes for some platforms.">
<polygon fill="#bfbfbf" stroke="black" points="371.46,-670.5 371.46,-700.5 478.46,-700.5 478.46,-670.5 371.46,-670.5"/>
<text text-anchor="start" x="379.46" y="-688.5" font-family="Helvetica,sans-Serif" font-size="10.00">src/libs/qmuparser</text>
<text text-anchor="middle" x="424.96" y="-677.5" font-family="Helvetica,sans-Serif" font-size="10.00">/qmuparserfixes.h</text>
</a>
</g>
</g>
<!-- Node2 -->
<g id="node2" class="node">
<title>Node2</title>
<g id="a_node2"><a xlink:href="../../de/d28/qmuparserdef_8h.html" target="_top" xlink:title="This file contains standard definitions used by the parser.">
<polygon fill="white" stroke="black" points="371.46,-603.5 371.46,-633.5 478.46,-633.5 478.46,-603.5 371.46,-603.5"/>
<text text-anchor="start" x="379.46" y="-621.5" font-family="Helvetica,sans-Serif" font-size="10.00">src/libs/qmuparser</text>
<text text-anchor="middle" x="424.96" y="-610.5" font-family="Helvetica,sans-Serif" font-size="10.00">/qmuparserdef.h</text>
</a>
</g>
</g>
<!-- Node1&#45;&gt;Node2 -->
<g id="edge1" class="edge">
<title>Node1&#45;&gt;Node2</title>
<path fill="none" stroke="midnightblue" d="M424.96,-660.11C424.96,-651.15 424.96,-641.32 424.96,-633.58"/>
<polygon fill="midnightblue" stroke="midnightblue" points="421.46,-660.4 424.96,-670.4 428.46,-660.4 421.46,-660.4"/>
</g>
<!-- Node3 -->
<g id="node3" class="node">
<title>Node3</title>
<g id="a_node3"><a xlink:href="../../df/d18/qmuparserbase_8h.html" target="_top" xlink:title="This file contains the class definition of the qmuparser engine.">
<polygon fill="white" stroke="black" points="204.46,-335.5 204.46,-365.5 311.46,-365.5 311.46,-335.5 204.46,-335.5"/>
<text text-anchor="start" x="212.46" y="-353.5" font-family="Helvetica,sans-Serif" font-size="10.00">src/libs/qmuparser</text>
<text text-anchor="middle" x="257.96" y="-342.5" font-family="Helvetica,sans-Serif" font-size="10.00">/qmuparserbase.h</text>
</a>
</g>
</g>
<!-- Node2&#45;&gt;Node3 -->
<g id="edge2" class="edge">
<title>Node2&#45;&gt;Node3</title>
<path fill="none" stroke="midnightblue" d="M388.56,-598.53C354.55,-578.76 305.31,-544.44 279.96,-500 254.91,-456.08 255.19,-393.45 256.8,-365.68"/>
<polygon fill="midnightblue" stroke="midnightblue" points="386.86,-601.59 397.29,-603.49 390.32,-595.51 386.86,-601.59"/>
</g>
<!-- Node18 -->
<g id="node18" class="node">
<title>Node18</title>
<g id="a_node18"><a xlink:href="../../da/d59/qmuparser_8cpp.html" target="_top" xlink:title="Implementation of the standard floating point QmuParser.">
<polygon fill="white" stroke="black" points="765.46,-201.5 765.46,-231.5 872.46,-231.5 872.46,-201.5 765.46,-201.5"/>
<text text-anchor="start" x="773.46" y="-219.5" font-family="Helvetica,sans-Serif" font-size="10.00">src/libs/qmuparser</text>
<text text-anchor="middle" x="818.96" y="-208.5" font-family="Helvetica,sans-Serif" font-size="10.00">/qmuparser.cpp</text>
</a>
</g>
</g>
<!-- Node2&#45;&gt;Node18 -->
<g id="edge28" class="edge">
<title>Node2&#45;&gt;Node18</title>
<path fill="none" stroke="midnightblue" d="M488.51,-611.23C602.62,-598.43 834.33,-564.87 876.96,-500 935.25,-411.3 857.22,-275.77 828.68,-231.81"/>
<polygon fill="midnightblue" stroke="midnightblue" points="488.07,-607.76 478.51,-612.33 488.83,-614.72 488.07,-607.76"/>
</g>
<!-- Node20 -->
<g id="node20" class="node">
<title>Node20</title>
<g id="a_node20"><a xlink:href="../../db/dfa/qmuparsertest_8h.html" target="_top" xlink:title="This file contains the parser test class.">
<polygon fill="white" stroke="black" points="523.46,-201.5 523.46,-231.5 630.46,-231.5 630.46,-201.5 523.46,-201.5"/>
<text text-anchor="start" x="531.46" y="-219.5" font-family="Helvetica,sans-Serif" font-size="10.00">src/libs/qmuparser</text>
<text text-anchor="middle" x="576.96" y="-208.5" font-family="Helvetica,sans-Serif" font-size="10.00">/qmuparsertest.h</text>
</a>
</g>
</g>
<!-- Node2&#45;&gt;Node20 -->
<g id="edge54" class="edge">
<title>Node2&#45;&gt;Node20</title>
<path fill="none" stroke="midnightblue" d="M472.96,-599.37C517.5,-579.06 576.96,-541.46 576.96,-485.5 576.96,-485.5 576.96,-485.5 576.96,-349.5 576.96,-306.65 576.96,-255.97 576.96,-231.76"/>
<polygon fill="midnightblue" stroke="midnightblue" points="471.45,-596.21 463.71,-603.44 474.27,-602.62 471.45,-596.21"/>
</g>
<!-- Node23 -->
<g id="node23" class="node">
<title>Node23</title>
<g id="a_node23"><a xlink:href="../../dd/da6/qmuparserbytecode_8h.html" target="_top" xlink:title="Definition of the parser bytecode class.">
<polygon fill="white" stroke="black" points="308.96,-402.5 308.96,-432.5 434.96,-432.5 434.96,-402.5 308.96,-402.5"/>
<text text-anchor="start" x="316.96" y="-420.5" font-family="Helvetica,sans-Serif" font-size="10.00">src/libs/qmuparser</text>
<text text-anchor="middle" x="371.96" y="-409.5" font-family="Helvetica,sans-Serif" font-size="10.00">/qmuparserbytecode.h</text>
</a>
</g>
</g>
<!-- Node2&#45;&gt;Node23 -->
<g id="edge25" class="edge">
<title>Node2&#45;&gt;Node23</title>
<path fill="none" stroke="midnightblue" d="M425.24,-593.09C424.84,-562.97 421.63,-510.63 405.96,-469 400.9,-455.55 391.62,-442.14 384.03,-432.52"/>
<polygon fill="midnightblue" stroke="midnightblue" points="421.75,-593.49 425.28,-603.48 428.75,-593.46 421.75,-593.49"/>
</g>
<!-- Node25 -->
<g id="node25" class="node">
<title>Node25</title>
<g id="a_node25"><a xlink:href="../../db/d3a/qmuparsercallback_8h.html" target="_top" xlink:title="Definition of the parser callback class.">
<polygon fill="white" stroke="black" points="110.96,-536.5 110.96,-566.5 232.96,-566.5 232.96,-536.5 110.96,-536.5"/>
<text text-anchor="start" x="118.96" y="-554.5" font-family="Helvetica,sans-Serif" font-size="10.00">src/libs/qmuparser</text>
<text text-anchor="middle" x="171.96" y="-543.5" font-family="Helvetica,sans-Serif" font-size="10.00">/qmuparsercallback.h</text>
</a>
</g>
</g>
<!-- Node2&#45;&gt;Node25 -->
<g id="edge29" class="edge">
<title>Node2&#45;&gt;Node25</title>
<path fill="none" stroke="midnightblue" d="M361.58,-601.22C320.12,-590.56 266.49,-576.79 226.85,-566.6"/>
<polygon fill="midnightblue" stroke="midnightblue" points="360.75,-604.62 371.3,-603.72 362.49,-597.84 360.75,-604.62"/>
</g>
<!-- Node28 -->
<g id="node28" class="node">
<title>Node28</title>
<g id="a_node28"><a xlink:href="../../db/d1b/qmuparsertokenreader_8h.html" target="_top" xlink:title="This file contains the parser token reader definition.">
<polygon fill="white" stroke="black" points="17.46,-402.5 17.46,-432.5 156.46,-432.5 156.46,-402.5 17.46,-402.5"/>
<text text-anchor="start" x="25.46" y="-420.5" font-family="Helvetica,sans-Serif" font-size="10.00">src/libs/qmuparser</text>
<text text-anchor="middle" x="86.96" y="-409.5" font-family="Helvetica,sans-Serif" font-size="10.00">/qmuparsertokenreader.h</text>
</a>
</g>
</g>
<!-- Node2&#45;&gt;Node28 -->
<g id="edge53" class="edge">
<title>Node2&#45;&gt;Node28</title>
<path fill="none" stroke="midnightblue" d="M360.93,-615.87C294.12,-612.27 187.4,-601.1 101.96,-567 53.3,-547.58 29.3,-546.4 4.96,-500 -1.44,-487.8 -1.76,-481.03 4.96,-469 14.25,-452.36 31.53,-440.53 47.84,-432.52"/>
<polygon fill="midnightblue" stroke="midnightblue" points="361.14,-619.38 371.3,-616.38 361.49,-612.39 361.14,-619.38"/>
</g>
<!-- Node29 -->
<g id="node29" class="node">
<title>Node29</title>
<g id="a_node29"><a xlink:href="../../da/d49/qmuparsererror_8h.html" target="_top" xlink:title="This file defines the error class used by the parser.">
<polygon fill="white" stroke="black" points="605.46,-536.5 605.46,-566.5 712.46,-566.5 712.46,-536.5 605.46,-536.5"/>
<text text-anchor="start" x="613.46" y="-554.5" font-family="Helvetica,sans-Serif" font-size="10.00">src/libs/qmuparser</text>
<text text-anchor="middle" x="658.96" y="-543.5" font-family="Helvetica,sans-Serif" font-size="10.00">/qmuparsererror.h</text>
</a>
</g>
</g>
<!-- Node2&#45;&gt;Node29 -->
<g id="edge39" class="edge">
<title>Node2&#45;&gt;Node29</title>
<path fill="none" stroke="midnightblue" d="M485.39,-600.71C523.47,-590.14 572.07,-576.63 608.16,-566.61"/>
<polygon fill="midnightblue" stroke="midnightblue" points="484.14,-597.43 475.45,-603.48 486.02,-604.17 484.14,-597.43"/>
</g>
<!-- Node4 -->
<g id="node4" class="node">
<title>Node4</title>
<g id="a_node4"><a xlink:href="../../d6/dc3/qmuparser_8h.html" target="_top" xlink:title="Definition of the standard floating point parser.">
<polygon fill="white" stroke="black" points="441.46,-268.5 441.46,-298.5 548.46,-298.5 548.46,-268.5 441.46,-268.5"/>
<text text-anchor="start" x="449.46" y="-286.5" font-family="Helvetica,sans-Serif" font-size="10.00">src/libs/qmuparser</text>
<text text-anchor="middle" x="494.96" y="-275.5" font-family="Helvetica,sans-Serif" font-size="10.00">/qmuparser.h</text>
</a>
</g>
</g>
<!-- Node3&#45;&gt;Node4 -->
<g id="edge3" class="edge">
<title>Node3&#45;&gt;Node4</title>
<path fill="none" stroke="midnightblue" d="M319.16,-332.71C357.73,-322.14 406.96,-308.63 443.51,-298.61"/>
<polygon fill="midnightblue" stroke="midnightblue" points="317.81,-329.46 309.09,-335.48 319.66,-336.21 317.81,-329.46"/>
</g>
<!-- Node21 -->
<g id="node21" class="node">
<title>Node21</title>
<g id="a_node21"><a xlink:href="../../d0/d70/qmuparserbase_8cpp.html" target="_top" xlink:title="This file contains the basic implementation of the muparser engine.">
<polygon fill="white" stroke="black" points="199.96,-268.5 199.96,-298.5 315.96,-298.5 315.96,-268.5 199.96,-268.5"/>
<text text-anchor="start" x="207.96" y="-286.5" font-family="Helvetica,sans-Serif" font-size="10.00">src/libs/qmuparser</text>
<text text-anchor="middle" x="257.96" y="-275.5" font-family="Helvetica,sans-Serif" font-size="10.00">/qmuparserbase.cpp</text>
</a>
</g>
</g>
<!-- Node3&#45;&gt;Node21 -->
<g id="edge23" class="edge">
<title>Node3&#45;&gt;Node21</title>
<path fill="none" stroke="midnightblue" d="M257.96,-325.11C257.96,-316.15 257.96,-306.32 257.96,-298.58"/>
<polygon fill="midnightblue" stroke="midnightblue" points="254.46,-325.4 257.96,-335.4 261.46,-325.4 254.46,-325.4"/>
</g>
<!-- Node22 -->
<g id="node22" class="node">
<title>Node22</title>
<g id="a_node22"><a xlink:href="../../df/d10/qmuparsertokenreader_8cpp.html" target="_top" xlink:title="This file contains the parser token reader implementation.">
<polygon fill="white" stroke="black" points="30.96,-268.5 30.96,-298.5 180.96,-298.5 180.96,-268.5 30.96,-268.5"/>
<text text-anchor="start" x="38.96" y="-286.5" font-family="Helvetica,sans-Serif" font-size="10.00">src/libs/qmuparser</text>
<text text-anchor="middle" x="105.96" y="-275.5" font-family="Helvetica,sans-Serif" font-size="10.00">/qmuparsertokenreader.cpp</text>
</a>
</g>
</g>
<!-- Node3&#45;&gt;Node22 -->
<g id="edge24" class="edge">
<title>Node3&#45;&gt;Node22</title>
<path fill="none" stroke="midnightblue" d="M215.65,-331.41C191.38,-321.03 161.37,-308.2 138.88,-298.58"/>
<polygon fill="midnightblue" stroke="midnightblue" points="214.41,-334.68 224.98,-335.4 217.16,-328.25 214.41,-334.68"/>
</g>
<!-- Node5 -->
<g id="node5" class="node">
<title>Node5</title>
<g id="a_node5"><a xlink:href="../../d7/da3/qmuformulabase_8h.html" target="_top" xlink:title=" ">
<polygon fill="white" stroke="black" points="354.96,-201.5 354.96,-231.5 466.96,-231.5 466.96,-201.5 354.96,-201.5"/>
<text text-anchor="start" x="362.96" y="-219.5" font-family="Helvetica,sans-Serif" font-size="10.00">src/libs/qmuparser</text>
<text text-anchor="middle" x="410.96" y="-208.5" font-family="Helvetica,sans-Serif" font-size="10.00">/qmuformulabase.h</text>
</a>
</g>
</g>
<!-- Node4&#45;&gt;Node5 -->
<g id="edge4" class="edge">
<title>Node4&#45;&gt;Node5</title>
<path fill="none" stroke="midnightblue" d="M468.68,-262.17C455.84,-252.23 440.7,-240.51 429.15,-231.58"/>
<polygon fill="midnightblue" stroke="midnightblue" points="466.68,-265.04 476.73,-268.4 470.97,-259.51 466.68,-265.04"/>
</g>
<!-- Node4&#45;&gt;Node18 -->
<g id="edge19" class="edge">
<title>Node4&#45;&gt;Node18</title>
<path fill="none" stroke="midnightblue" d="M558.63,-269.73C618.97,-257.62 708.6,-239.64 765.38,-228.25"/>
<polygon fill="midnightblue" stroke="midnightblue" points="557.58,-266.37 548.46,-271.77 558.95,-273.23 557.58,-266.37"/>
</g>
<!-- Node19 -->
<g id="node19" class="node">
<title>Node19</title>
<g id="a_node19"><a xlink:href="../../df/dbf/qmuparsertest_8cpp.html" target="_top" xlink:title="This file contains the implementation of parser test cases.">
<polygon fill="white" stroke="black" points="648.46,-134.5 648.46,-164.5 759.46,-164.5 759.46,-134.5 648.46,-134.5"/>
<text text-anchor="start" x="656.46" y="-152.5" font-family="Helvetica,sans-Serif" font-size="10.00">src/libs/qmuparser</text>
<text text-anchor="middle" x="703.96" y="-141.5" font-family="Helvetica,sans-Serif" font-size="10.00">/qmuparsertest.cpp</text>
</a>
</g>
</g>
<!-- Node4&#45;&gt;Node19 -->
<g id="edge20" class="edge">
<title>Node4&#45;&gt;Node19</title>
<path fill="none" stroke="midnightblue" d="M494.65,-258.25C495.74,-240.16 500.2,-216.07 514.96,-201 519.77,-196.09 594.18,-177.17 648.17,-163.94"/>
<polygon fill="midnightblue" stroke="midnightblue" points="491.14,-258.24 494.34,-268.34 498.14,-258.46 491.14,-258.24"/>
</g>
<!-- Node4&#45;&gt;Node20 -->
<g id="edge21" class="edge">
<title>Node4&#45;&gt;Node20</title>
<path fill="none" stroke="midnightblue" d="M520.61,-262.17C533.15,-252.23 547.93,-240.51 559.2,-231.58"/>
<polygon fill="midnightblue" stroke="midnightblue" points="518.41,-259.44 512.75,-268.4 522.76,-264.93 518.41,-259.44"/>
</g>
<!-- Node6 -->
<g id="node6" class="node">
<title>Node6</title>
<g id="a_node6"><a xlink:href="../../d4/d67/qmuformulabase_8cpp.html" target="_top" xlink:title=" ">
<polygon fill="white" stroke="black" points="382.46,-134.5 382.46,-164.5 505.46,-164.5 505.46,-134.5 382.46,-134.5"/>
<text text-anchor="start" x="390.46" y="-152.5" font-family="Helvetica,sans-Serif" font-size="10.00">src/libs/qmuparser</text>
<text text-anchor="middle" x="443.96" y="-141.5" font-family="Helvetica,sans-Serif" font-size="10.00">/qmuformulabase.cpp</text>
</a>
</g>
</g>
<!-- Node5&#45;&gt;Node6 -->
<g id="edge5" class="edge">
<title>Node5&#45;&gt;Node6</title>
<path fill="none" stroke="midnightblue" d="M422.75,-192.28C427.45,-183.02 432.71,-172.66 436.81,-164.58"/>
<polygon fill="midnightblue" stroke="midnightblue" points="419.53,-190.89 418.12,-201.4 425.77,-194.06 419.53,-190.89"/>
</g>
<!-- Node7 -->
<g id="node7" class="node">
<title>Node7</title>
<g id="a_node7"><a xlink:href="../../db/d75/qmutokenparser_8h.html" target="_top" xlink:title=" ">
<polygon fill="white" stroke="black" points="257.46,-134.5 257.46,-164.5 364.46,-164.5 364.46,-134.5 257.46,-134.5"/>
<text text-anchor="start" x="265.46" y="-152.5" font-family="Helvetica,sans-Serif" font-size="10.00">src/libs/qmuparser</text>
<text text-anchor="middle" x="310.96" y="-141.5" font-family="Helvetica,sans-Serif" font-size="10.00">/qmutokenparser.h</text>
</a>
</g>
</g>
<!-- Node5&#45;&gt;Node7 -->
<g id="edge6" class="edge">
<title>Node5&#45;&gt;Node7</title>
<path fill="none" stroke="midnightblue" d="M380.55,-195.73C365.08,-185.68 346.63,-173.68 332.62,-164.58"/>
<polygon fill="midnightblue" stroke="midnightblue" points="378.97,-198.88 389.26,-201.4 382.78,-193.01 378.97,-198.88"/>
</g>
<!-- Node13 -->
<g id="node13" class="node">
<title>Node13</title>
<g id="a_node13"><a xlink:href="../../db/db8/vpatterndb_2calculator_8h.html" target="_top" xlink:title=" ">
<polygon fill="white" stroke="black" points="523.46,-134.5 523.46,-164.5 630.46,-164.5 630.46,-134.5 523.46,-134.5"/>
<text text-anchor="start" x="531.46" y="-152.5" font-family="Helvetica,sans-Serif" font-size="10.00">src/libs/vpatterndb</text>
<text text-anchor="middle" x="576.96" y="-141.5" font-family="Helvetica,sans-Serif" font-size="10.00">/calculator.h</text>
</a>
</g>
</g>
<!-- Node5&#45;&gt;Node13 -->
<g id="edge13" class="edge">
<title>Node5&#45;&gt;Node13</title>
<path fill="none" stroke="midnightblue" d="M456.47,-197.68C483.09,-187.26 516.23,-174.28 541.01,-164.58"/>
<polygon fill="midnightblue" stroke="midnightblue" points="455.01,-194.49 446.98,-201.4 457.57,-201.01 455.01,-194.49"/>
</g>
<!-- Node8 -->
<g id="node8" class="node">
<title>Node8</title>
<g id="a_node8"><a xlink:href="../../dd/d20/qmutokenparser_8cpp.html" target="_top" xlink:title=" ">
<polygon fill="white" stroke="black" points="52.46,-67.5 52.46,-97.5 171.46,-97.5 171.46,-67.5 52.46,-67.5"/>
<text text-anchor="start" x="60.46" y="-85.5" font-family="Helvetica,sans-Serif" font-size="10.00">src/libs/qmuparser</text>
<text text-anchor="middle" x="111.96" y="-74.5" font-family="Helvetica,sans-Serif" font-size="10.00">/qmutokenparser.cpp</text>
</a>
</g>
</g>
<!-- Node7&#45;&gt;Node8 -->
<g id="edge7" class="edge">
<title>Node7&#45;&gt;Node8</title>
<path fill="none" stroke="midnightblue" d="M258.08,-131.23C225.89,-120.71 185.29,-107.45 155.06,-97.58"/>
<polygon fill="midnightblue" stroke="midnightblue" points="257.19,-134.62 267.78,-134.4 259.36,-127.96 257.19,-134.62"/>
</g>
<!-- Node9 -->
<g id="node9" class="node">
<title>Node9</title>
<g id="a_node9"><a xlink:href="../../de/db3/vmeasurements_8cpp.html" target="_top" xlink:title=" ">
<polygon fill="white" stroke="black" points="478.96,-73 478.96,-92 674.96,-92 674.96,-73 478.96,-73"/>
<text text-anchor="middle" x="576.96" y="-80" font-family="Helvetica,sans-Serif" font-size="10.00">src/libs/vformat/vmeasurements.cpp</text>
</a>
</g>
</g>
<!-- Node7&#45;&gt;Node9 -->
<g id="edge8" class="edge">
<title>Node7&#45;&gt;Node9</title>
<path fill="none" stroke="midnightblue" d="M374.36,-133.01C426.92,-120.16 499.65,-102.39 542.16,-92"/>
<polygon fill="midnightblue" stroke="midnightblue" points="373.35,-129.65 364.47,-135.42 375.01,-136.45 373.35,-129.65"/>
</g>
<!-- Node10 -->
<g id="node10" class="node">
<title>Node10</title>
<g id="a_node10"><a xlink:href="../../d5/d81/vsplinepoint_8cpp.html" target="_top" xlink:title=" ">
<polygon fill="white" stroke="black" points="187.46,-0.5 187.46,-30.5 294.46,-30.5 294.46,-0.5 187.46,-0.5"/>
<text text-anchor="start" x="195.46" y="-18.5" font-family="Helvetica,sans-Serif" font-size="10.00">src/libs/vgeometry</text>
<text text-anchor="middle" x="240.96" y="-7.5" font-family="Helvetica,sans-Serif" font-size="10.00">/vsplinepoint.cpp</text>
</a>
</g>
</g>
<!-- Node7&#45;&gt;Node10 -->
<g id="edge9" class="edge">
<title>Node7&#45;&gt;Node10</title>
<path fill="none" stroke="midnightblue" d="M255.92,-129.86C241.73,-122.28 228.16,-111.92 219.96,-98 207.36,-76.59 220.75,-47.68 231.18,-30.67"/>
<polygon fill="midnightblue" stroke="midnightblue" points="254.77,-133.2 265.29,-134.46 257.85,-126.91 254.77,-133.2"/>
</g>
<!-- Node11 -->
<g id="node11" class="node">
<title>Node11</title>
<g id="a_node11"><a xlink:href="../../da/db2/vsplinepoint__p_8h.html" target="_top" xlink:title=" ">
<polygon fill="white" stroke="black" points="228.46,-67.5 228.46,-97.5 335.46,-97.5 335.46,-67.5 228.46,-67.5"/>
<text text-anchor="start" x="236.46" y="-85.5" font-family="Helvetica,sans-Serif" font-size="10.00">src/libs/vgeometry</text>
<text text-anchor="middle" x="281.96" y="-74.5" font-family="Helvetica,sans-Serif" font-size="10.00">/vsplinepoint_p.h</text>
</a>
</g>
</g>
<!-- Node7&#45;&gt;Node11 -->
<g id="edge10" class="edge">
<title>Node7&#45;&gt;Node11</title>
<path fill="none" stroke="midnightblue" d="M300.47,-124.99C296.37,-115.8 291.81,-105.58 288.24,-97.58"/>
<polygon fill="midnightblue" stroke="midnightblue" points="297.4,-126.69 304.67,-134.4 303.79,-123.84 297.4,-126.69"/>
</g>
<!-- Node12 -->
<g id="node12" class="node">
<title>Node12</title>
<g id="a_node12"><a xlink:href="../../de/d3e/vtranslatevars_8cpp.html" target="_top" xlink:title=" ">
<polygon fill="white" stroke="black" points="692.96,-67.5 692.96,-97.5 802.96,-97.5 802.96,-67.5 692.96,-67.5"/>
<text text-anchor="start" x="700.96" y="-85.5" font-family="Helvetica,sans-Serif" font-size="10.00">src/libs/vpatterndb</text>
<text text-anchor="middle" x="747.96" y="-74.5" font-family="Helvetica,sans-Serif" font-size="10.00">/vtranslatevars.cpp</text>
</a>
</g>
</g>
<!-- Node7&#45;&gt;Node12 -->
<g id="edge12" class="edge">
<title>Node7&#45;&gt;Node12</title>
<path fill="none" stroke="midnightblue" d="M374.59,-134.03C512.41,-110.9 550.44,-120.81 683.96,-98 686.88,-97.5 689.87,-96.95 692.88,-96.37"/>
<polygon fill="midnightblue" stroke="midnightblue" points="373.76,-130.62 364.49,-135.75 374.94,-137.52 373.76,-130.62"/>
</g>
<!-- Node11&#45;&gt;Node10 -->
<g id="edge11" class="edge">
<title>Node11&#45;&gt;Node10</title>
<path fill="none" stroke="midnightblue" d="M267.68,-58.87C261.75,-49.46 255.05,-38.83 249.84,-30.58"/>
<polygon fill="midnightblue" stroke="midnightblue" points="264.77,-60.81 273.06,-67.4 270.69,-57.07 264.77,-60.81"/>
</g>
<!-- Node13&#45;&gt;Node9 -->
<g id="edge14" class="edge">
<title>Node13&#45;&gt;Node9</title>
<path fill="none" stroke="midnightblue" d="M576.96,-124.25C576.96,-113.02 576.96,-100.38 576.96,-92.19"/>
<polygon fill="midnightblue" stroke="midnightblue" points="573.46,-124.4 576.96,-134.4 580.46,-124.4 573.46,-124.4"/>
</g>
<!-- Node14 -->
<g id="node14" class="node">
<title>Node14</title>
<g id="a_node14"><a xlink:href="../../dd/d70/vlayoutpiece_8cpp.html" target="_top" xlink:title=" ">
<polygon fill="white" stroke="black" points="821.46,-73 821.46,-92 998.46,-92 998.46,-73 821.46,-73"/>
<text text-anchor="middle" x="909.96" y="-80" font-family="Helvetica,sans-Serif" font-size="10.00">src/libs/vlayout/vlayoutpiece.cpp</text>
</a>
</g>
</g>
<!-- Node13&#45;&gt;Node14 -->
<g id="edge15" class="edge">
<title>Node13&#45;&gt;Node14</title>
<path fill="none" stroke="midnightblue" d="M640.43,-133.95C723.78,-116.7 808.95,-101.24 861.06,-92.02"/>
<polygon fill="midnightblue" stroke="midnightblue" points="639.62,-130.55 630.54,-136.01 641.05,-137.4 639.62,-130.55"/>
</g>
<!-- Node15 -->
<g id="node15" class="node">
<title>Node15</title>
<g id="a_node15"><a xlink:href="../../db/d8e/vpatterndb_2calculator_8cpp.html" target="_top" xlink:title=" ">
<polygon fill="white" stroke="black" points="1016.46,-67.5 1016.46,-97.5 1123.46,-97.5 1123.46,-67.5 1016.46,-67.5"/>
<text text-anchor="start" x="1024.46" y="-85.5" font-family="Helvetica,sans-Serif" font-size="10.00">src/libs/vpatterndb</text>
<text text-anchor="middle" x="1069.96" y="-74.5" font-family="Helvetica,sans-Serif" font-size="10.00">/calculator.cpp</text>
</a>
</g>
</g>
<!-- Node13&#45;&gt;Node15 -->
<g id="edge16" class="edge">
<title>Node13&#45;&gt;Node15</title>
<path fill="none" stroke="midnightblue" d="M640.4,-134.09C803.9,-108.17 848.99,-124.25 1007.96,-98 1010.69,-97.55 1013.47,-97.05 1016.28,-96.51"/>
<polygon fill="midnightblue" stroke="midnightblue" points="639.8,-130.64 630.48,-135.69 640.91,-137.55 639.8,-130.64"/>
</g>
<!-- Node16 -->
<g id="node16" class="node">
<title>Node16</title>
<g id="a_node16"><a xlink:href="../../db/d11/vformula_8cpp.html" target="_top" xlink:title=" ">
<polygon fill="white" stroke="black" points="1141.46,-67.5 1141.46,-97.5 1248.46,-97.5 1248.46,-67.5 1141.46,-67.5"/>
<text text-anchor="start" x="1149.46" y="-85.5" font-family="Helvetica,sans-Serif" font-size="10.00">src/libs/vpatterndb</text>
<text text-anchor="middle" x="1194.96" y="-74.5" font-family="Helvetica,sans-Serif" font-size="10.00">/vformula.cpp</text>
</a>
</g>
</g>
<!-- Node13&#45;&gt;Node16 -->
<g id="edge17" class="edge">
<title>Node13&#45;&gt;Node16</title>
<path fill="none" stroke="midnightblue" d="M640.65,-134.08C859.01,-102.15 919.06,-130.62 1132.96,-98 1135.69,-97.58 1138.48,-97.11 1141.29,-96.59"/>
<polygon fill="midnightblue" stroke="midnightblue" points="639.84,-130.66 630.47,-135.6 640.88,-137.59 639.84,-130.66"/>
</g>
<!-- Node17 -->
<g id="node17" class="node">
<title>Node17</title>
<g id="a_node17"><a xlink:href="../../d8/dba/vpiecenode_8cpp.html" target="_top" xlink:title=" ">
<polygon fill="white" stroke="black" points="353.46,-67.5 353.46,-97.5 460.46,-97.5 460.46,-67.5 353.46,-67.5"/>
<text text-anchor="start" x="361.46" y="-85.5" font-family="Helvetica,sans-Serif" font-size="10.00">src/libs/vpatterndb</text>
<text text-anchor="middle" x="406.96" y="-74.5" font-family="Helvetica,sans-Serif" font-size="10.00">/vpiecenode.cpp</text>
</a>
</g>
</g>
<!-- Node13&#45;&gt;Node17 -->
<g id="edge18" class="edge">
<title>Node13&#45;&gt;Node17</title>
<path fill="none" stroke="midnightblue" d="M530.72,-130.82C503.39,-120.37 469.27,-107.32 443.78,-97.58"/>
<polygon fill="midnightblue" stroke="midnightblue" points="529.48,-134.09 540.07,-134.4 531.98,-127.56 529.48,-134.09"/>
</g>
<!-- Node20&#45;&gt;Node19 -->
<g id="edge22" class="edge">
<title>Node20&#45;&gt;Node19</title>
<path fill="none" stroke="midnightblue" d="M613.66,-196.71C633.69,-186.46 658.08,-173.98 676.46,-164.58"/>
<polygon fill="midnightblue" stroke="midnightblue" points="611.82,-193.72 604.52,-201.4 615.01,-199.96 611.82,-193.72"/>
</g>
<!-- Node23&#45;&gt;Node3 -->
<g id="edge26" class="edge">
<title>Node23&#45;&gt;Node3</title>
<path fill="none" stroke="midnightblue" d="M338.28,-397.3C320.44,-387.12 298.92,-374.85 282.65,-365.58"/>
<polygon fill="midnightblue" stroke="midnightblue" points="336.8,-400.48 347.22,-402.4 340.27,-394.4 336.8,-400.48"/>
</g>
<!-- Node24 -->
<g id="node24" class="node">
<title>Node24</title>
<g id="a_node24"><a xlink:href="../../d1/d4b/qmuparserbytecode_8cpp.html" target="_top" xlink:title=" ">
<polygon fill="white" stroke="black" points="337.46,-335.5 337.46,-365.5 474.46,-365.5 474.46,-335.5 337.46,-335.5"/>
<text text-anchor="start" x="345.46" y="-353.5" font-family="Helvetica,sans-Serif" font-size="10.00">src/libs/qmuparser</text>
<text text-anchor="middle" x="405.96" y="-342.5" font-family="Helvetica,sans-Serif" font-size="10.00">/qmuparserbytecode.cpp</text>
</a>
</g>
</g>
<!-- Node23&#45;&gt;Node24 -->
<g id="edge27" class="edge">
<title>Node23&#45;&gt;Node24</title>
<path fill="none" stroke="midnightblue" d="M384.1,-393.28C388.95,-384.02 394.37,-373.66 398.6,-365.58"/>
<polygon fill="midnightblue" stroke="midnightblue" points="380.87,-391.91 379.34,-402.4 387.07,-395.16 380.87,-391.91"/>
</g>
<!-- Node25&#45;&gt;Node3 -->
<g id="edge30" class="edge">
<title>Node25&#45;&gt;Node3</title>
<path fill="none" stroke="midnightblue" d="M179.8,-526.75C189.9,-497.03 208.59,-444.83 228.96,-402 234.95,-389.4 242.91,-375.71 248.97,-365.77"/>
<polygon fill="midnightblue" stroke="midnightblue" points="176.47,-525.68 176.6,-536.27 183.1,-527.91 176.47,-525.68"/>
</g>
<!-- Node26 -->
<g id="node26" class="node">
<title>Node26</title>
<g id="a_node26"><a xlink:href="../../db/d3d/qmuparsercallback_8cpp.html" target="_top" xlink:title="Implementation of the parser callback class.">
<polygon fill="white" stroke="black" points="23.46,-469.5 23.46,-499.5 156.46,-499.5 156.46,-469.5 23.46,-469.5"/>
<text text-anchor="start" x="31.46" y="-487.5" font-family="Helvetica,sans-Serif" font-size="10.00">src/libs/qmuparser</text>
<text text-anchor="middle" x="89.96" y="-476.5" font-family="Helvetica,sans-Serif" font-size="10.00">/qmuparsercallback.cpp</text>
</a>
</g>
</g>
<!-- Node25&#45;&gt;Node26 -->
<g id="edge31" class="edge">
<title>Node25&#45;&gt;Node26</title>
<path fill="none" stroke="midnightblue" d="M146.31,-530.17C133.77,-520.23 118.99,-508.51 107.72,-499.58"/>
<polygon fill="midnightblue" stroke="midnightblue" points="144.16,-532.93 154.17,-536.4 148.5,-527.44 144.16,-532.93"/>
</g>
<!-- Node27 -->
<g id="node27" class="node">
<title>Node27</title>
<g id="a_node27"><a xlink:href="../../d7/ddf/qmuparsertoken_8h.html" target="_top" xlink:title="This file contains the parser token definition.">
<polygon fill="white" stroke="black" points="288.96,-469.5 288.96,-499.5 396.96,-499.5 396.96,-469.5 288.96,-469.5"/>
<text text-anchor="start" x="296.96" y="-487.5" font-family="Helvetica,sans-Serif" font-size="10.00">src/libs/qmuparser</text>
<text text-anchor="middle" x="342.96" y="-476.5" font-family="Helvetica,sans-Serif" font-size="10.00">/qmuparsertoken.h</text>
</a>
</g>
</g>
<!-- Node25&#45;&gt;Node27 -->
<g id="edge32" class="edge">
<title>Node25&#45;&gt;Node27</title>
<path fill="none" stroke="midnightblue" d="M218.48,-532.82C245.96,-522.37 280.29,-509.32 305.93,-499.58"/>
<polygon fill="midnightblue" stroke="midnightblue" points="217.17,-529.57 209.06,-536.4 219.66,-536.11 217.17,-529.57"/>
</g>
<!-- Node25&#45;&gt;Node28 -->
<g id="edge38" class="edge">
<title>Node25&#45;&gt;Node28</title>
<path fill="none" stroke="midnightblue" d="M100.62,-546.12C68.72,-540.16 33.88,-527.28 13.96,-500 5.83,-488.87 7.56,-481.2 13.96,-469 22.4,-452.89 38.57,-440.91 53.55,-432.66"/>
<polygon fill="midnightblue" stroke="midnightblue" points="100.42,-549.63 110.86,-547.81 101.56,-542.72 100.42,-549.63"/>
</g>
<!-- Node27&#45;&gt;Node3 -->
<g id="edge33" class="edge">
<title>Node27&#45;&gt;Node3</title>
<path fill="none" stroke="midnightblue" d="M322.33,-461.52C314.83,-452.96 306.57,-442.86 299.96,-433 284.98,-410.66 271.47,-382.29 264.02,-365.6"/>
<polygon fill="midnightblue" stroke="midnightblue" points="319.93,-464.09 329.22,-469.19 325.14,-459.41 319.93,-464.09"/>
</g>
<!-- Node27&#45;&gt;Node23 -->
<g id="edge34" class="edge">
<title>Node27&#45;&gt;Node23</title>
<path fill="none" stroke="midnightblue" d="M353.45,-459.99C357.55,-450.8 362.11,-440.58 365.68,-432.58"/>
<polygon fill="midnightblue" stroke="midnightblue" points="350.13,-458.84 349.25,-469.4 356.52,-461.69 350.13,-458.84"/>
</g>
<!-- Node27&#45;&gt;Node28 -->
<g id="edge35" class="edge">
<title>Node27&#45;&gt;Node28</title>
<path fill="none" stroke="midnightblue" d="M278.83,-467.22C236.87,-456.56 182.61,-442.79 142.5,-432.6"/>
<polygon fill="midnightblue" stroke="midnightblue" points="278.11,-470.65 288.67,-469.72 279.84,-463.86 278.11,-470.65"/>
</g>
<!-- Node28&#45;&gt;Node3 -->
<g id="edge36" class="edge">
<title>Node28&#45;&gt;Node3</title>
<path fill="none" stroke="midnightblue" d="M133.48,-398.82C160.96,-388.37 195.29,-375.32 220.93,-365.58"/>
<polygon fill="midnightblue" stroke="midnightblue" points="132.17,-395.57 124.06,-402.4 134.66,-402.11 132.17,-395.57"/>
</g>
<!-- Node28&#45;&gt;Node22 -->
<g id="edge37" class="edge">
<title>Node28&#45;&gt;Node22</title>
<path fill="none" stroke="midnightblue" d="M90.43,-392.39C94.39,-364.9 100.72,-320.89 103.94,-298.52"/>
<polygon fill="midnightblue" stroke="midnightblue" points="86.95,-391.98 88.99,-402.37 93.88,-392.97 86.95,-391.98"/>
</g>
<!-- Node29&#45;&gt;Node3 -->
<g id="edge40" class="edge">
<title>Node29&#45;&gt;Node3</title>
<path fill="none" stroke="midnightblue" d="M595.27,-541.46C563.9,-534.4 527.1,-521.93 499.96,-500 460.94,-468.47 483.64,-432.69 443.96,-402 433.34,-393.79 362.93,-376.02 311.87,-363.91"/>
<polygon fill="midnightblue" stroke="midnightblue" points="594.73,-544.93 605.24,-543.57 596.18,-538.08 594.73,-544.93"/>
</g>
<!-- Node29&#45;&gt;Node8 -->
<g id="edge46" class="edge">
<title>Node29&#45;&gt;Node8</title>
<path fill="none" stroke="midnightblue" d="M641.4,-528.53C598.85,-475.32 493.03,-343.3 483.96,-335 476.11,-327.81 210.66,-149.68 133.06,-97.65"/>
<polygon fill="midnightblue" stroke="midnightblue" points="638.69,-530.74 647.67,-536.36 644.16,-526.36 638.69,-530.74"/>
</g>
<!-- Node29&#45;&gt;Node9 -->
<g id="edge49" class="edge">
<title>Node29&#45;&gt;Node9</title>
<path fill="none" stroke="midnightblue" d="M722.48,-538.59C764.14,-529.5 813.49,-515.86 827.96,-500 873.47,-450.12 915.38,-259.67 881.96,-201 853.06,-150.27 822.82,-156.53 768.96,-134 721.26,-114.05 663.54,-100.14 623.92,-92.04"/>
<polygon fill="midnightblue" stroke="midnightblue" points="721.69,-535.19 712.63,-540.69 723.14,-542.03 721.69,-535.19"/>
</g>
<!-- Node29&#45;&gt;Node12 -->
<g id="edge52" class="edge">
<title>Node29&#45;&gt;Node12</title>
<path fill="none" stroke="midnightblue" d="M722.63,-536.59C774.54,-524.78 840.88,-508.45 850.96,-500 881.25,-474.63 938.96,-331.92 938.96,-284.5 938.96,-284.5 938.96,-284.5 938.96,-215.5 938.96,-148.99 859.61,-113.38 803.2,-96.47"/>
<polygon fill="midnightblue" stroke="midnightblue" points="721.77,-533.19 712.79,-538.81 723.32,-540.02 721.77,-533.19"/>
</g>
<!-- Node29&#45;&gt;Node15 -->
<g id="edge50" class="edge">
<title>Node29&#45;&gt;Node15</title>
<path fill="none" stroke="midnightblue" d="M723,-547.83C769.04,-543.17 830.73,-531.01 875.96,-500 941.79,-454.86 976.96,-431.32 976.96,-351.5 976.96,-351.5 976.96,-351.5 976.96,-215.5 976.96,-164.76 1023.45,-119.78 1050.69,-97.79"/>
<polygon fill="midnightblue" stroke="midnightblue" points="722.47,-544.37 712.83,-548.77 723.11,-551.34 722.47,-544.37"/>
</g>
<!-- Node29&#45;&gt;Node16 -->
<g id="edge51" class="edge">
<title>Node29&#45;&gt;Node16</title>
<path fill="none" stroke="midnightblue" d="M722.83,-545C846.14,-532.62 1104.96,-497.24 1104.96,-418.5 1104.96,-418.5 1104.96,-418.5 1104.96,-215.5 1104.96,-165.02 1150.45,-119.6 1176.75,-97.56"/>
<polygon fill="midnightblue" stroke="midnightblue" points="722.37,-541.53 712.76,-545.99 723.05,-548.5 722.37,-541.53"/>
</g>
<!-- Node29&#45;&gt;Node18 -->
<g id="edge42" class="edge">
<title>Node29&#45;&gt;Node18</title>
<path fill="none" stroke="midnightblue" d="M722.73,-542.84C751.93,-536.13 784.69,-523.56 805.96,-500 830.89,-472.4 824.96,-455.69 824.96,-418.5 824.96,-418.5 824.96,-418.5 824.96,-349.5 824.96,-306.6 821.76,-255.94 820.03,-231.75"/>
<polygon fill="midnightblue" stroke="midnightblue" points="721.64,-539.49 712.57,-544.97 723.08,-546.34 721.64,-539.49"/>
</g>
<!-- Node29&#45;&gt;Node19 -->
<g id="edge47" class="edge">
<title>Node29&#45;&gt;Node19</title>
<path fill="none" stroke="midnightblue" d="M661.73,-525.87C670.23,-450.32 695.76,-223.41 702.38,-164.57"/>
<polygon fill="midnightblue" stroke="midnightblue" points="658.2,-525.94 660.56,-536.26 665.16,-526.72 658.2,-525.94"/>
</g>
<!-- Node29&#45;&gt;Node20 -->
<g id="edge48" class="edge">
<title>Node29&#45;&gt;Node20</title>
<path fill="none" stroke="midnightblue" d="M646.22,-527.4C633.22,-501.64 614.96,-458.34 614.96,-418.5 614.96,-418.5 614.96,-418.5 614.96,-349.5 614.96,-305.14 594.9,-255.56 583.93,-231.76"/>
<polygon fill="midnightblue" stroke="midnightblue" points="643.17,-529.12 650.89,-536.37 649.37,-525.88 643.17,-529.12"/>
</g>
<!-- Node29&#45;&gt;Node24 -->
<g id="edge41" class="edge">
<title>Node29&#45;&gt;Node24</title>
<path fill="none" stroke="midnightblue" d="M595.48,-537.23C571.17,-529.61 544.6,-517.86 524.96,-500 489.07,-467.37 508.35,-438.97 476.96,-402 464.43,-387.24 446.68,-374.62 432.06,-365.68"/>
<polygon fill="midnightblue" stroke="midnightblue" points="594.79,-540.68 605.37,-540.16 596.77,-533.97 594.79,-540.68"/>
</g>
<!-- Node29&#45;&gt;Node27 -->
<g id="edge44" class="edge">
<title>Node29&#45;&gt;Node27</title>
<path fill="none" stroke="midnightblue" d="M595.54,-537.46C537.37,-525.49 452.13,-507.96 397.09,-496.63"/>
<polygon fill="midnightblue" stroke="midnightblue" points="594.85,-540.89 605.35,-539.47 596.26,-534.03 594.85,-540.89"/>
</g>
<!-- Node29&#45;&gt;Node28 -->
<g id="edge45" class="edge">
<title>Node29&#45;&gt;Node28</title>
<path fill="none" stroke="midnightblue" d="M594.96,-547.19C518.77,-542.06 388.23,-529.5 279.96,-500 218.37,-483.22 150.52,-451.14 113.94,-432.63"/>
<polygon fill="midnightblue" stroke="midnightblue" points="595.14,-550.71 605.34,-547.87 595.59,-543.72 595.14,-550.71"/>
</g>
<!-- Node30 -->
<g id="node30" class="node">
<title>Node30</title>
<g id="a_node30"><a xlink:href="../../dd/d4f/qmuparsererror_8cpp.html" target="_top" xlink:title=" ">
<polygon fill="white" stroke="black" points="681.46,-469.5 681.46,-499.5 796.46,-499.5 796.46,-469.5 681.46,-469.5"/>
<text text-anchor="start" x="689.46" y="-487.5" font-family="Helvetica,sans-Serif" font-size="10.00">src/libs/qmuparser</text>
<text text-anchor="middle" x="738.96" y="-476.5" font-family="Helvetica,sans-Serif" font-size="10.00">/qmuparsererror.cpp</text>
</a>
</g>
</g>
<!-- Node29&#45;&gt;Node30 -->
<g id="edge43" class="edge">
<title>Node29&#45;&gt;Node30</title>
<path fill="none" stroke="midnightblue" d="M684.33,-529.88C696.49,-520.01 710.74,-508.43 721.63,-499.58"/>
<polygon fill="midnightblue" stroke="midnightblue" points="681.87,-527.37 676.32,-536.4 686.29,-532.81 681.87,-527.37"/>
</g>
</g>
</svg>
        <g id="navigator" transform="translate(0 0)" fill="#404254">
                <rect fill="#f2f5e9" fill-opacity="0.5" stroke="#606060" stroke-width=".5" x="0" y="0" width="60" height="60"/>
                <use id="zoomplus" xlink:href="#zoomPlus" x="17" y="9" onmousedown="handleZoom(evt,'in')"/>
                <use id="zoomminus" xlink:href="#zoomMin" x="42" y="9" onmousedown="handleZoom(evt,'out')"/>
                <use id="reset" xlink:href="#resetDef" x="30" y="36" onmousedown="handleReset()"/>
                <g id="arrowUp" xlink:href="#dirArrow" transform="translate(30 24)" onmousedown="handlePan(0,-1)">
                  <use xlink:href="#rim" fill="#404040">
                        <set attributeName="fill" to="#808080" begin="arrowUp.mouseover" end="arrowUp.mouseout"/>
                  </use>
                  <path fill="none" stroke="white" stroke-width="1.5" d="M0,-3.0v7 M-2.5,-0.5L0,-3.0L2.5,-0.5"/>
                </g>
                <g id="arrowRight" xlink:href="#dirArrow" transform="rotate(90) translate(36 -43)" onmousedown="handlePan(1,0)">
                  <use xlink:href="#rim" fill="#404040">
                        <set attributeName="fill" to="#808080" begin="arrowRight.mouseover" end="arrowRight.mouseout"/>
                  </use>
                  <path fill="none" stroke="white" stroke-width="1.5" d="M0,-3.0v7 M-2.5,-0.5L0,-3.0L2.5,-0.5"/>
                </g>
                <g id="arrowDown" xlink:href="#dirArrow" transform="rotate(180) translate(-30 -48)" onmousedown="handlePan(0,1)">
                  <use xlink:href="#rim" fill="#404040">
                        <set attributeName="fill" to="#808080" begin="arrowDown.mouseover" end="arrowDown.mouseout"/>
                  </use>
                  <path fill="none" stroke="white" stroke-width="1.5" d="M0,-3.0v7 M-2.5,-0.5L0,-3.0L2.5,-0.5"/>
                </g>
                <g id="arrowLeft" xlink:href="#dirArrow" transform="rotate(270) translate(-36 17)" onmousedown="handlePan(-1,0)">
                  <use xlink:href="#rim" fill="#404040">
                        <set attributeName="fill" to="#808080" begin="arrowLeft.mouseover" end="arrowLeft.mouseout"/>
                  </use>
                  <path fill="none" stroke="white" stroke-width="1.5" d="M0,-3.0v7 M-2.5,-0.5L0,-3.0L2.5,-0.5"/>
                </g>
        </g>
        <svg viewBox="0 0 15 15" width="100%" height="30px" preserveAspectRatio="xMaxYMin meet">
         <g id="arrow_out" transform="scale(0.3 0.3)">
          <a xlink:href="qmuparserfixes_8h__dep__incl_org.svg" target="_base">
           <rect id="button" ry="5" rx="5" y="6" x="6" height="38" width="38"
                fill="#f2f5e9" fill-opacity="0.5" stroke="#606060" stroke-width="1.0"/>
           <path id="arrow"
             d="M 11.500037,31.436501 C 11.940474,20.09759 22.043105,11.32322 32.158766,21.979434 L 37.068811,17.246167 C 37.068811,17.246167 37.088388,32 37.088388,32 L 22.160133,31.978069 C 22.160133,31.978069 26.997745,27.140456 26.997745,27.140456 C 18.528582,18.264221 13.291696,25.230495 11.500037,31.436501 z"
             style="fill:#404040;"/>
          </a>
         </g>
        </svg>
</svg>
