<?xml version="1.0" encoding="UTF-8" standalone="no"?>
<!DOCTYPE svg PUBLIC "-//W3C//DTD SVG 1.1//EN"
 "http://www.w3.org/Graphics/SVG/1.1/DTD/svg11.dtd">
<!-- Generated by graphviz version 2.43.0 (0)
 -->
<!-- Title: src/app/seamlyme/dialogs/me_shortcuts_dialog.cpp Pages: 1 -->
<!--zoomable 203 -->

<svg id="main" version="1.1" xmlns="http://www.w3.org/2000/svg" xmlns:xlink="http://www.w3.org/1999/xlink" xml:space="preserve" onload="init(evt)">
<style type="text/css"><![CDATA[
.node, .edge {opacity: 0.7;}
.node.selected, .edge.selected {opacity: 1;}
.edge:hover path { stroke: red; }
.edge:hover polygon { stroke: red; fill: red; }
]]></style>

<defs>
  <circle id="rim" cx="0" cy="0" r="7"/>
  <circle id="rim2" cx="0" cy="0" r="3.5"/>
  <g id="zoomPlus">
    <use xlink:href="#rim" fill="#404040"><set attributeName="fill" to="#808080" begin="zoomplus.mouseover" end="zoomplus.mouseout"/></use>
    <path d="M-4,0h8M0,-4v8" fill="none" stroke="white" stroke-width="1.5" pointer-events="none"/>
  </g>
  <g id="zoomMin">
    <use xlink:href="#rim" fill="#404040"><set attributeName="fill" to="#808080" begin="zoomminus.mouseover" end="zoomminus.mouseout"/></use>
    <path d="M-4,0h8" fill="none" stroke="white" stroke-width="1.5" pointer-events="none"/>
  </g>
  <g id="arrowUp" transform="translate(30 24)">
    <use xlink:href="#rim"/>
    <path pointer-events="none" fill="none" stroke="white" stroke-width="1.5" d="M0,-3.0v7 M-2.5,-0.5L0,-3.0L2.5,-0.5"/>
  </g>
  <g id="arrowRight" transform="rotate(90) translate(36 -43)">
    <use xlink:href="#rim"/>
    <path pointer-events="none" fill="none" stroke="white" stroke-width="1.5" d="M0,-3.0v7 M-2.5,-0.5L0,-3.0L2.5,-0.5"/>
  </g>
  <g id="arrowDown" transform="rotate(180) translate(-30 -48)">
    <use xlink:href="#rim"/>
    <path pointer-events="none" fill="none" stroke="white" stroke-width="1.5" d="M0,-3.0v7 M-2.5,-0.5L0,-3.0L2.5,-0.5"/>
  </g>
  <g id="arrowLeft" transform="rotate(270) translate(-36 17)">
    <use xlink:href="#rim"/>
    <path pointer-events="none" fill="none" stroke="white" stroke-width="1.5" d="M0,-3.0v7 M-2.5,-0.5L0,-3.0L2.5,-0.5"/>
  </g>
  <g id="resetDef">
    <use xlink:href="#rim2" fill="#404040"><set attributeName="fill" to="#808080" begin="reset.mouseover" end="reset.mouseout"/></use>
  </g>
</defs>
<script type="application/ecmascript">
var viewWidth = 1873;
var viewHeight = 203;
var sectionId = 'dynsection-0';
</script>
<script type="application/ecmascript" xlink:href="../../svg.min.js"/>
<svg id="graph" class="graph">
<g id="viewport">
<title>src/app/seamlyme/dialogs/me_shortcuts_dialog.cpp</title>
<!-- Node1 -->
<g id="Node000001" class="node">
<title>Node1</title>
<g id="a_Node000001"><a xlink:title=" ">
<polygon fill="#999999" stroke="#666666" points="851.82,-195 706.82,-195 706.82,-165 851.82,-165 851.82,-195"/>
<text text-anchor="start" x="714.82" y="-183" font-family="Helvetica,sans-Serif" font-size="10.00">src/app/seamlyme/dialogs</text>
<text text-anchor="middle" x="779.32" y="-172" font-family="Helvetica,sans-Serif" font-size="10.00">/me_shortcuts_dialog.cpp</text>
</a>
</g>
</g>
<!-- Node2 -->
<g id="Node000002" class="node">
<title>Node2</title>
<g id="a_Node000002"><a xlink:href="../../d3/d41/me__shortcuts__dialog_8h.html" target="_top" xlink:title=" ">
<polygon fill="white" stroke="#666666" points="595.82,-74 468.82,-74 468.82,-55 595.82,-55 595.82,-74"/>
<text text-anchor="middle" x="532.32" y="-62" font-family="Helvetica,sans-Serif" font-size="10.00">me_shortcuts_dialog.h</text>
</a>
</g>
</g>
<!-- Node1&#45;&gt;Node2 -->
<g id="edge1_Node000001_Node000002" class="edge">
<title>Node1&#45;&gt;Node2</title>
<g id="a_edge1_Node000001_Node000002"><a xlink:title=" ">
<path fill="none" stroke="#63b8ff" d="M706.61,-176.97C518.38,-171.37 28.13,-154.4 4.32,-129 -1.46,-122.84 -1.4,-116.22 4.32,-110 34.44,-77.23 320.77,-68.58 458.72,-66.3"/>
<polygon fill="#63b8ff" stroke="#63b8ff" points="458.85,-69.8 468.79,-66.14 458.74,-62.8 458.85,-69.8"/>
</a>
</g>
</g>
<!-- Node4 -->
<g id="Node000004" class="node">
<title>Node4</title>
<g id="a_Node000004"><a xlink:title=" ">
<polygon fill="#e0e0e0" stroke="#999999" points="154.82,-129 13.82,-129 13.82,-110 154.82,-110 154.82,-129"/>
<text text-anchor="middle" x="84.32" y="-117" font-family="Helvetica,sans-Serif" font-size="10.00">ui_me_shortcuts_dialog.h</text>
</a>
</g>
</g>
<!-- Node1&#45;&gt;Node4 -->
<g id="edge3_Node000001_Node000004" class="edge">
<title>Node1&#45;&gt;Node4</title>
<g id="a_edge3_Node000001_Node000004"><a xlink:title=" ">
<path fill="none" stroke="#63b8ff" d="M706.72,-173.73C593.39,-165.36 367.27,-148.11 165.16,-129.15"/>
<polygon fill="#63b8ff" stroke="#63b8ff" points="165.23,-125.64 154.94,-128.19 164.57,-132.61 165.23,-125.64"/>
</a>
</g>
</g>
<!-- Node5 -->
<g id="Node000005" class="node">
<title>Node5</title>
<g id="a_Node000005"><a xlink:title=" ">
<polygon fill="#e0e0e0" stroke="#999999" points="251.82,-129 172.82,-129 172.82,-110 251.82,-110 251.82,-129"/>
<text text-anchor="middle" x="212.32" y="-117" font-family="Helvetica,sans-Serif" font-size="10.00">QApplication</text>
</a>
</g>
</g>
<!-- Node1&#45;&gt;Node5 -->
<g id="edge4_Node000001_Node000005" class="edge">
<title>Node1&#45;&gt;Node5</title>
<g id="a_edge4_Node000001_Node000005"><a xlink:title=" ">
<path fill="none" stroke="#63b8ff" d="M706.47,-173.81C607.93,-166.39 426.48,-151.27 262.13,-129.15"/>
<polygon fill="#63b8ff" stroke="#63b8ff" points="262.21,-125.63 251.83,-127.75 261.27,-132.57 262.21,-125.63"/>
</a>
</g>
</g>
<!-- Node6 -->
<g id="Node000006" class="node">
<title>Node6</title>
<g id="a_Node000006"><a xlink:title=" ">
<polygon fill="#e0e0e0" stroke="#999999" points="340.82,-129 269.82,-129 269.82,-110 340.82,-110 340.82,-129"/>
<text text-anchor="middle" x="305.32" y="-117" font-family="Helvetica,sans-Serif" font-size="10.00">QClipboard</text>
</a>
</g>
</g>
<!-- Node1&#45;&gt;Node6 -->
<g id="edge5_Node000001_Node000006" class="edge">
<title>Node1&#45;&gt;Node6</title>
<g id="a_edge5_Node000001_Node000006"><a xlink:title=" ">
<path fill="none" stroke="#63b8ff" d="M706.82,-172.25C623.33,-164.09 481.88,-149.12 351.02,-129.17"/>
<polygon fill="#63b8ff" stroke="#63b8ff" points="351.23,-125.66 340.82,-127.6 350.17,-132.58 351.23,-125.66"/>
</a>
</g>
</g>
<!-- Node7 -->
<g id="Node000007" class="node">
<title>Node7</title>
<g id="a_Node000007"><a xlink:title=" ">
<polygon fill="#e0e0e0" stroke="#999999" points="431.82,-129 358.82,-129 358.82,-110 431.82,-110 431.82,-129"/>
<text text-anchor="middle" x="395.32" y="-117" font-family="Helvetica,sans-Serif" font-size="10.00">QFileDialog</text>
</a>
</g>
</g>
<!-- Node1&#45;&gt;Node7 -->
<g id="edge6_Node000001_Node000007" class="edge">
<title>Node1&#45;&gt;Node7</title>
<g id="a_edge6_Node000001_Node000007"><a xlink:title=" ">
<path fill="none" stroke="#63b8ff" d="M706.77,-169.16C640.32,-159.95 538.99,-145.42 442.1,-129.25"/>
<polygon fill="#63b8ff" stroke="#63b8ff" points="442.57,-125.78 432.13,-127.58 441.42,-132.68 442.57,-125.78"/>
</a>
</g>
</g>
<!-- Node8 -->
<g id="Node000008" class="node">
<title>Node8</title>
<g id="a_Node000008"><a xlink:title=" ">
<polygon fill="#e0e0e0" stroke="#999999" points="494.82,-129 449.82,-129 449.82,-110 494.82,-110 494.82,-129"/>
<text text-anchor="middle" x="472.32" y="-117" font-family="Helvetica,sans-Serif" font-size="10.00">QFont</text>
</a>
</g>
</g>
<!-- Node1&#45;&gt;Node8 -->
<g id="edge7_Node000001_Node000008" class="edge">
<title>Node1&#45;&gt;Node8</title>
<g id="a_edge7_Node000001_Node000008"><a xlink:title=" ">
<path fill="none" stroke="#63b8ff" d="M706.61,-167.63C653.15,-158.86 578.56,-145.75 504.86,-129.2"/>
<polygon fill="#63b8ff" stroke="#63b8ff" points="505.47,-125.75 494.95,-126.95 503.92,-132.58 505.47,-125.75"/>
</a>
</g>
</g>
<!-- Node9 -->
<g id="Node000009" class="node">
<title>Node9</title>
<g id="a_Node000009"><a xlink:title=" ">
<polygon fill="#e0e0e0" stroke="#999999" points="607.82,-129 512.82,-129 512.82,-110 607.82,-110 607.82,-129"/>
<text text-anchor="middle" x="560.32" y="-117" font-family="Helvetica,sans-Serif" font-size="10.00">QGuiApplication</text>
</a>
</g>
</g>
<!-- Node1&#45;&gt;Node9 -->
<g id="edge8_Node000001_Node000009" class="edge">
<title>Node1&#45;&gt;Node9</title>
<g id="a_edge8_Node000001_Node000009"><a xlink:title=" ">
<path fill="none" stroke="#63b8ff" d="M726.86,-164.99C688.74,-154.8 637.82,-141.2 602.36,-131.73"/>
<polygon fill="#63b8ff" stroke="#63b8ff" points="602.9,-128.25 592.34,-129.05 601.1,-135.02 602.9,-128.25"/>
</a>
</g>
</g>
<!-- Node10 -->
<g id="Node000010" class="node">
<title>Node10</title>
<g id="a_Node000010"><a xlink:title=" ">
<polygon fill="#e0e0e0" stroke="#999999" points="720.82,-129 625.82,-129 625.82,-110 720.82,-110 720.82,-129"/>
<text text-anchor="middle" x="673.32" y="-117" font-family="Helvetica,sans-Serif" font-size="10.00">QTextDocument</text>
</a>
</g>
</g>
<!-- Node1&#45;&gt;Node10 -->
<g id="edge9_Node000001_Node000010" class="edge">
<title>Node1&#45;&gt;Node10</title>
<g id="a_edge9_Node000001_Node000010"><a xlink:title=" ">
<path fill="none" stroke="#63b8ff" d="M753.93,-164.99C737.03,-155.66 714.94,-143.47 698.16,-134.21"/>
<polygon fill="#63b8ff" stroke="#63b8ff" points="699.42,-130.91 688.97,-129.14 696.03,-137.04 699.42,-130.91"/>
</a>
</g>
</g>
<!-- Node11 -->
<g id="Node000011" class="node">
<title>Node11</title>
<g id="a_Node000011"><a xlink:title=" ">
<polygon fill="#e0e0e0" stroke="#999999" points="819.32,-129 739.32,-129 739.32,-110 819.32,-110 819.32,-129"/>
<text text-anchor="middle" x="779.32" y="-117" font-family="Helvetica,sans-Serif" font-size="10.00">QPageLayout</text>
</a>
</g>
</g>
<!-- Node1&#45;&gt;Node11 -->
<g id="edge10_Node000001_Node000011" class="edge">
<title>Node1&#45;&gt;Node11</title>
<g id="a_edge10_Node000001_Node000011"><a xlink:title=" ">
<path fill="none" stroke="#63b8ff" d="M779.32,-164.84C779.32,-157.21 779.32,-147.7 779.32,-139.45"/>
<polygon fill="#63b8ff" stroke="#63b8ff" points="782.82,-139.27 779.32,-129.27 775.82,-139.27 782.82,-139.27"/>
</a>
</g>
</g>
<!-- Node12 -->
<g id="Node000012" class="node">
<title>Node12</title>
<g id="a_Node000012"><a xlink:title=" ">
<polygon fill="#e0e0e0" stroke="#999999" points="893.32,-129 837.32,-129 837.32,-110 893.32,-110 893.32,-129"/>
<text text-anchor="middle" x="865.32" y="-117" font-family="Helvetica,sans-Serif" font-size="10.00">QPrinter</text>
</a>
</g>
</g>
<!-- Node1&#45;&gt;Node12 -->
<g id="edge11_Node000001_Node000012" class="edge">
<title>Node1&#45;&gt;Node12</title>
<g id="a_edge11_Node000001_Node000012"><a xlink:title=" ">
<path fill="none" stroke="#63b8ff" d="M800.13,-164.84C813.46,-155.77 830.71,-144.04 844.11,-134.92"/>
<polygon fill="#63b8ff" stroke="#63b8ff" points="846.38,-137.61 852.68,-129.09 842.44,-131.83 846.38,-137.61"/>
</a>
</g>
</g>
<!-- Node13 -->
<g id="Node000013" class="node">
<title>Node13</title>
<g id="a_Node000013"><a xlink:title=" ">
<polygon fill="#e0e0e0" stroke="#999999" points="1028.82,-129 911.82,-129 911.82,-110 1028.82,-110 1028.82,-129"/>
<text text-anchor="middle" x="970.32" y="-117" font-family="Helvetica,sans-Serif" font-size="10.00">QPrintPreviewDialog</text>
</a>
</g>
</g>
<!-- Node1&#45;&gt;Node13 -->
<g id="edge12_Node000001_Node000013" class="edge">
<title>Node1&#45;&gt;Node13</title>
<g id="a_edge12_Node000001_Node000013"><a xlink:title=" ">
<path fill="none" stroke="#63b8ff" d="M825.07,-164.99C857.89,-154.94 901.58,-141.55 932.45,-132.1"/>
<polygon fill="#63b8ff" stroke="#63b8ff" points="933.85,-135.33 942.39,-129.05 931.8,-128.64 933.85,-135.33"/>
</a>
</g>
</g>
<!-- Node14 -->
<g id="Node000014" class="node">
<title>Node14</title>
<g id="a_Node000014"><a xlink:title=" ">
<polygon fill="#e0e0e0" stroke="#999999" points="1125.32,-129 1047.32,-129 1047.32,-110 1125.32,-110 1125.32,-129"/>
<text text-anchor="middle" x="1086.32" y="-117" font-family="Helvetica,sans-Serif" font-size="10.00">QPrintDialog</text>
</a>
</g>
</g>
<!-- Node1&#45;&gt;Node14 -->
<g id="edge13_Node000001_Node000014" class="edge">
<title>Node1&#45;&gt;Node14</title>
<g id="a_edge13_Node000001_Node000014"><a xlink:title=" ">
<path fill="none" stroke="#63b8ff" d="M852.07,-165.14C909.14,-154.26 987.01,-139.42 1036.99,-129.9"/>
<polygon fill="#63b8ff" stroke="#63b8ff" points="1037.74,-133.32 1046.91,-128.01 1036.43,-126.44 1037.74,-133.32"/>
</a>
</g>
</g>
<!-- Node15 -->
<g id="Node000015" class="node">
<title>Node15</title>
<g id="a_Node000015"><a xlink:title=" ">
<polygon fill="#e0e0e0" stroke="#999999" points="1200.82,-129 1143.82,-129 1143.82,-110 1200.82,-110 1200.82,-129"/>
<text text-anchor="middle" x="1172.32" y="-117" font-family="Helvetica,sans-Serif" font-size="10.00">QScreen</text>
</a>
</g>
</g>
<!-- Node1&#45;&gt;Node15 -->
<g id="edge14_Node000001_Node000015" class="edge">
<title>Node1&#45;&gt;Node15</title>
<g id="a_edge14_Node000001_Node000015"><a xlink:title=" ">
<path fill="none" stroke="#63b8ff" d="M852,-170.49C921.7,-161.94 1030.07,-147.62 1133.72,-128.97"/>
<polygon fill="#63b8ff" stroke="#63b8ff" points="1134.52,-132.38 1143.73,-127.15 1133.27,-125.49 1134.52,-132.38"/>
</a>
</g>
</g>
<!-- Node16 -->
<g id="Node000016" class="node">
<title>Node16</title>
<g id="a_Node000016"><a xlink:title=" ">
<polygon fill="#e0e0e0" stroke="#999999" points="1297.32,-129 1219.32,-129 1219.32,-110 1297.32,-110 1297.32,-129"/>
<text text-anchor="middle" x="1258.32" y="-117" font-family="Helvetica,sans-Serif" font-size="10.00">QShowEvent</text>
</a>
</g>
</g>
<!-- Node1&#45;&gt;Node16 -->
<g id="edge15_Node000001_Node000016" class="edge">
<title>Node1&#45;&gt;Node16</title>
<g id="a_edge15_Node000001_Node000016"><a xlink:title=" ">
<path fill="none" stroke="#63b8ff" d="M852.14,-171.79C937.79,-163.02 1084.17,-147.12 1209.32,-129 1209.42,-128.99 1209.52,-128.97 1209.62,-128.96"/>
<polygon fill="#63b8ff" stroke="#63b8ff" points="1209.95,-132.45 1219.3,-127.47 1208.88,-125.53 1209.95,-132.45"/>
</a>
</g>
</g>
<!-- Node17 -->
<g id="Node000017" class="node">
<title>Node17</title>
<g id="a_Node000017"><a xlink:title=" ">
<polygon fill="#e0e0e0" stroke="#999999" points="1368.82,-129 1315.82,-129 1315.82,-110 1368.82,-110 1368.82,-129"/>
<text text-anchor="middle" x="1342.32" y="-117" font-family="Helvetica,sans-Serif" font-size="10.00">QString</text>
</a>
</g>
</g>
<!-- Node1&#45;&gt;Node17 -->
<g id="edge16_Node000001_Node000017" class="edge">
<title>Node1&#45;&gt;Node17</title>
<g id="a_edge16_Node000001_Node000017"><a xlink:title=" ">
<path fill="none" stroke="#63b8ff" d="M852.18,-175.26C952.25,-169.41 1137.92,-156.04 1305.66,-128.86"/>
<polygon fill="#63b8ff" stroke="#63b8ff" points="1306.36,-132.3 1315.66,-127.22 1305.23,-125.39 1306.36,-132.3"/>
</a>
</g>
</g>
<!-- Node18 -->
<g id="Node000018" class="node">
<title>Node18</title>
<g id="a_Node000018"><a xlink:title=" ">
<polygon fill="#e0e0e0" stroke="#999999" points="1455.32,-129 1387.32,-129 1387.32,-110 1455.32,-110 1455.32,-129"/>
<text text-anchor="middle" x="1421.32" y="-117" font-family="Helvetica,sans-Serif" font-size="10.00">QtWidgets</text>
</a>
</g>
</g>
<!-- Node1&#45;&gt;Node18 -->
<g id="edge17_Node000001_Node000018" class="edge">
<title>Node1&#45;&gt;Node18</title>
<g id="a_edge17_Node000001_Node000018"><a xlink:title=" ">
<path fill="none" stroke="#63b8ff" d="M851.99,-175.56C963.05,-169.73 1181.81,-155.95 1376.95,-129.04"/>
<polygon fill="#63b8ff" stroke="#63b8ff" points="1377.69,-132.47 1387.11,-127.62 1376.72,-125.53 1377.69,-132.47"/>
</a>
</g>
</g>
<!-- Node19 -->
<g id="Node000019" class="node">
<title>Node19</title>
<g id="a_Node000019"><a xlink:href="../../df/da4/mapplication_8h.html" target="_top" xlink:title=" ">
<polygon fill="white" stroke="#666666" points="1571.32,-129 1473.32,-129 1473.32,-110 1571.32,-110 1571.32,-129"/>
<text text-anchor="middle" x="1522.32" y="-117" font-family="Helvetica,sans-Serif" font-size="10.00">../mapplication.h</text>
</a>
</g>
</g>
<!-- Node1&#45;&gt;Node19 -->
<g id="edge18_Node000001_Node000019" class="edge">
<title>Node1&#45;&gt;Node19</title>
<g id="a_edge18_Node000001_Node000019"><a xlink:title=" ">
<path fill="none" stroke="#63b8ff" d="M851.97,-175.44C975.38,-169 1234.06,-153.85 1463.11,-129.05"/>
<polygon fill="#63b8ff" stroke="#63b8ff" points="1463.74,-132.5 1473.3,-127.94 1462.98,-125.54 1463.74,-132.5"/>
</a>
</g>
</g>
<!-- Node3 -->
<g id="Node000003" class="node">
<title>Node3</title>
<g id="a_Node000003"><a xlink:title=" ">
<polygon fill="#e0e0e0" stroke="#999999" points="961.32,-19 905.32,-19 905.32,0 961.32,0 961.32,-19"/>
<text text-anchor="middle" x="933.32" y="-7" font-family="Helvetica,sans-Serif" font-size="10.00">QDialog</text>
</a>
</g>
</g>
<!-- Node2&#45;&gt;Node3 -->
<g id="edge2_Node000002_Node000003" class="edge">
<title>Node2&#45;&gt;Node3</title>
<g id="a_edge2_Node000002_Node000003"><a xlink:title=" ">
<path fill="none" stroke="#63b8ff" d="M595.86,-55.1C680.09,-43.97 826.1,-24.67 895.1,-15.55"/>
<polygon fill="#63b8ff" stroke="#63b8ff" points="895.64,-19.01 905.1,-14.23 894.73,-12.07 895.64,-19.01"/>
</a>
</g>
</g>
<!-- Node20 -->
<g id="Node000020" class="node">
<title>Node20</title>
<g id="a_Node000020"><a xlink:title=" ">
<polygon fill="#e0e0e0" stroke="#999999" points="1229.82,-74 1068.82,-74 1068.82,-55 1229.82,-55 1229.82,-74"/>
<text text-anchor="middle" x="1149.32" y="-62" font-family="Helvetica,sans-Serif" font-size="10.00">../vpatterndb/vtranslatevars.h</text>
</a>
</g>
</g>
<!-- Node19&#45;&gt;Node20 -->
<g id="edge19_Node000019_Node000020" class="edge">
<title>Node19&#45;&gt;Node20</title>
<g id="a_edge19_Node000019_Node000020"><a xlink:title=" ">
<path fill="none" stroke="#63b8ff" d="M1473.27,-111.29C1470.24,-110.85 1467.24,-110.42 1464.32,-110 1380.51,-97.94 1284.12,-84.37 1220.27,-75.42"/>
<polygon fill="#63b8ff" stroke="#63b8ff" points="1220.69,-71.94 1210.31,-74.02 1219.72,-78.87 1220.69,-71.94"/>
</a>
</g>
</g>
<!-- Node21 -->
<g id="Node000021" class="node">
<title>Node21</title>
<g id="a_Node000021"><a xlink:title=" ">
<polygon fill="#e0e0e0" stroke="#999999" points="1330.32,-74 1248.32,-74 1248.32,-55 1330.32,-55 1330.32,-74"/>
<text text-anchor="middle" x="1289.32" y="-62" font-family="Helvetica,sans-Serif" font-size="10.00">../vmisc/def.h</text>
</a>
</g>
</g>
<!-- Node19&#45;&gt;Node21 -->
<g id="edge20_Node000019_Node000021" class="edge">
<title>Node19&#45;&gt;Node21</title>
<g id="a_edge20_Node000019_Node000021"><a xlink:title=" ">
<path fill="none" stroke="#63b8ff" d="M1484.88,-109.98C1444.66,-100.84 1380.64,-86.27 1336.88,-76.32"/>
<polygon fill="#63b8ff" stroke="#63b8ff" points="1337.57,-72.89 1327.05,-74.08 1336.02,-79.71 1337.57,-72.89"/>
</a>
</g>
</g>
<!-- Node22 -->
<g id="Node000022" class="node">
<title>Node22</title>
<g id="a_Node000022"><a xlink:title=" ">
<polygon fill="#e0e0e0" stroke="#999999" points="1512.32,-74 1348.32,-74 1348.32,-55 1512.32,-55 1512.32,-74"/>
<text text-anchor="middle" x="1430.32" y="-62" font-family="Helvetica,sans-Serif" font-size="10.00">../vmisc/vseamlymesettings.h</text>
</a>
</g>
</g>
<!-- Node19&#45;&gt;Node22 -->
<g id="edge21_Node000019_Node000022" class="edge">
<title>Node19&#45;&gt;Node22</title>
<g id="a_edge21_Node000019_Node000022"><a xlink:title=" ">
<path fill="none" stroke="#63b8ff" d="M1507.54,-109.98C1493.14,-101.69 1471.01,-88.94 1454.12,-79.22"/>
<polygon fill="#63b8ff" stroke="#63b8ff" points="1455.78,-76.13 1445.37,-74.17 1452.28,-82.19 1455.78,-76.13"/>
</a>
</g>
</g>
<!-- Node23 -->
<g id="Node000023" class="node">
<title>Node23</title>
<g id="a_Node000023"><a xlink:title=" ">
<polygon fill="#e0e0e0" stroke="#999999" points="1697.82,-74 1530.82,-74 1530.82,-55 1697.82,-55 1697.82,-74"/>
<text text-anchor="middle" x="1614.32" y="-62" font-family="Helvetica,sans-Serif" font-size="10.00">../vmisc/vabstractapplication.h</text>
</a>
</g>
</g>
<!-- Node19&#45;&gt;Node23 -->
<g id="edge22_Node000019_Node000023" class="edge">
<title>Node19&#45;&gt;Node23</title>
<g id="a_edge22_Node000019_Node000023"><a xlink:title=" ">
<path fill="none" stroke="#63b8ff" d="M1537.1,-109.98C1551.5,-101.69 1573.63,-88.94 1590.51,-79.22"/>
<polygon fill="#63b8ff" stroke="#63b8ff" points="1592.35,-82.19 1599.27,-74.17 1588.85,-76.13 1592.35,-82.19"/>
</a>
</g>
</g>
<!-- Node24 -->
<g id="Node000024" class="node">
<title>Node24</title>
<g id="a_Node000024"><a xlink:href="../../d0/d0b/dialogmdatabase_8h.html" target="_top" xlink:title=" ">
<polygon fill="white" stroke="#666666" points="1864.82,-74 1715.82,-74 1715.82,-55 1864.82,-55 1864.82,-74"/>
<text text-anchor="middle" x="1790.32" y="-62" font-family="Helvetica,sans-Serif" font-size="10.00">dialogs/dialogmdatabase.h</text>
</a>
</g>
</g>
<!-- Node19&#45;&gt;Node24 -->
<g id="edge23_Node000019_Node000024" class="edge">
<title>Node19&#45;&gt;Node24</title>
<g id="a_edge23_Node000019_Node000024"><a xlink:title=" ">
<path fill="none" stroke="#63b8ff" d="M1565.38,-109.98C1612.03,-100.76 1686.52,-86.03 1736.87,-76.07"/>
<polygon fill="#63b8ff" stroke="#63b8ff" points="1737.79,-79.46 1746.92,-74.08 1736.43,-72.59 1737.79,-79.46"/>
</a>
</g>
</g>
<!-- Node24&#45;&gt;Node3 -->
<g id="edge24_Node000024_Node000003" class="edge">
<title>Node24&#45;&gt;Node3</title>
<g id="a_edge24_Node000024_Node000003"><a xlink:title=" ">
<path fill="none" stroke="#63b8ff" d="M1715.67,-55.7C1712.85,-55.45 1710.06,-55.22 1707.32,-55 1425.27,-32.46 1084.52,-16.93 971.66,-12.1"/>
<polygon fill="#63b8ff" stroke="#63b8ff" points="971.6,-8.59 961.46,-11.66 971.3,-15.59 971.6,-8.59"/>
</a>
</g>
</g>
</g>
</svg>

<g id="navigator" transform="translate(0 0)" fill="#404254">
  <rect fill="#f2f5e9" fill-opacity="0.5" stroke="#606060" stroke-width=".5" x="0" y="0" width="60" height="60"/>
  <use id="zoomplus" xlink:href="#zoomPlus" x="17" y="9" onmousedown="handleZoom(evt,'in')"/>
  <use id="zoomminus" xlink:href="#zoomMin" x="42" y="9" onmousedown="handleZoom(evt,'out')"/>
  <use id="reset" xlink:href="#resetDef" x="30" y="36" onmousedown="handleReset()"/>
   <use id="arrowup" xlink:href="#arrowUp" x="0" y="0" onmousedown="handlePan(0,-1)"/>
  <use id="arrowright" xlink:href="#arrowRight" x="0" y="0" onmousedown="handlePan(1,0)"/>
  <use id="arrowdown" xlink:href="#arrowDown" x="0" y="0" onmousedown="handlePan(0,1)"/>
  <use id="arrowleft" xlink:href="#arrowLeft" x="0" y="0" onmousedown="handlePan(-1,0)"/>
</g>
<svg viewBox="0 0 15 15" width="100%" height="30px" preserveAspectRatio="xMaxYMin meet">
 <g id="arrow_out" transform="scale(0.3 0.3)">
  <a xlink:href="me__shortcuts__dialog_8cpp__incl_org.svg" target="_base">
   <rect id="button" ry="5" rx="5" y="6" x="6" height="38" width="38"
        fill="#f2f5e9" fill-opacity="0.5" stroke="#606060" stroke-width="1.0"/>
   <path id="arrow"
     d="M 11.500037,31.436501 C 11.940474,20.09759 22.043105,11.32322 32.158766,21.979434 L 37.068811,17.246167 C 37.068811,17.246167 37.088388,32 37.088388,32 L 22.160133,31.978069 C 22.160133,31.978069 26.997745,27.140456 26.997745,27.140456 C 18.528582,18.264221 13.291696,25.230495 11.500037,31.436501 z"
     style="fill:#404040;"/>
  </a>
 </g>
</svg>

<style type='text/css'>
<![CDATA[
[data-mouse-over-selected='false'] { opacity: 0.7; }
[data-mouse-over-selected='true']  { opacity: 1.0; }
]]>
</style>
<script type="application/ecmascript"><![CDATA[
document.addEventListener('DOMContentLoaded', (event) => {
  highlightEdges();
  highlightAdjacentNodes();
});
]]></script>
</svg>
