<?xml version="1.0" encoding="UTF-8" standalone="no"?>
<!DOCTYPE svg PUBLIC "-//W3C//DTD SVG 1.1//EN"
 "http://www.w3.org/Graphics/SVG/1.1/DTD/svg11.dtd">
<!-- Generated by graphviz version 2.43.0 (0)
 -->
<!-- Title: src/libs/vtools/visualization/line/operation/visoperation.h Pages: 1 -->
<!--zoomable 184 -->
<svg id="main" version="1.1" xmlns="http://www.w3.org/2000/svg" xmlns:xlink="http://www.w3.org/1999/xlink" xml:space="preserve" onload="init(evt)">
<style type="text/css"><![CDATA[
.edge:hover path { stroke: red; }
.edge:hover polygon { stroke: red; fill: red; }
]]></style>
<script type="text/javascript"><![CDATA[
var edges = document.getElementsByTagName('g');
if (edges && edges.length) {
  for (var i=0;i<edges.length;i++) {
    if (edges[i].id.substr(0,4)=='edge') {
      edges[i].setAttribute('class','edge');
    }
  }
}
]]></script>
        <defs>
                <circle id="rim" cx="0" cy="0" r="7"/>
                <circle id="rim2" cx="0" cy="0" r="3.5"/>
                <g id="zoomPlus">
                        <use xlink:href="#rim" fill="#404040">
                                <set attributeName="fill" to="#808080" begin="zoomplus.mouseover" end="zoomplus.mouseout"/>
                        </use>
                        <path d="M-4,0h8M0,-4v8" fill="none" stroke="white" stroke-width="1.5" pointer-events="none"/>
                </g>
                <g id="zoomMin">
                        <use xlink:href="#rim" fill="#404040">
                                <set attributeName="fill" to="#808080" begin="zoomminus.mouseover" end="zoomminus.mouseout"/>
                        </use>
                        <path d="M-4,0h8" fill="none" stroke="white" stroke-width="1.5" pointer-events="none"/>
                </g>
                <g id="dirArrow">
                        <path fill="none" stroke="white" stroke-width="1.5" d="M0,-3.0v7 M-2.5,-0.5L0,-3.0L2.5,-0.5"/>
                </g>
               <g id="resetDef">
                       <use xlink:href="#rim2" fill="#404040">
                               <set attributeName="fill" to="#808080" begin="reset.mouseover" end="reset.mouseout"/>
                       </use>
               </g>
        </defs>

<script type="text/javascript">
var viewWidth = 2101;
var viewHeight = 184;
var sectionId = 'dynsection-1';
</script>
<script xlink:href="../../svgpan.js"/>
<svg id="graph" class="graph">
<g id="viewport">
<title>src/libs/vtools/visualization/line/operation/visoperation.h</title>
<polygon fill="white" stroke="transparent" points="-4,4 -4,-180 2096.5,-180 2096.5,4 -4,4"/>
<!-- Node1 -->
<g id="node1" class="node">
<title>Node1</title>
<g id="a_node1"><a xlink:title=" ">
<polygon fill="#bfbfbf" stroke="black" points="1171.5,-145.5 1171.5,-175.5 1331.5,-175.5 1331.5,-145.5 1171.5,-145.5"/>
<text text-anchor="start" x="1179.5" y="-163.5" font-family="Helvetica,sans-Serif" font-size="10.00">src/libs/vtools/visualization</text>
<text text-anchor="middle" x="1251.5" y="-152.5" font-family="Helvetica,sans-Serif" font-size="10.00">/line/operation/visoperation.h</text>
</a>
</g>
</g>
<!-- Node2 -->
<g id="node2" class="node">
<title>Node2</title>
<g id="a_node2"><a xlink:href="../../da/d4d/vistoolmirrorbyaxis_8h.html" target="_top" xlink:title=" ">
<polygon fill="white" stroke="black" points="261.5,-78.5 261.5,-108.5 455.5,-108.5 455.5,-78.5 261.5,-78.5"/>
<text text-anchor="start" x="269.5" y="-96.5" font-family="Helvetica,sans-Serif" font-size="10.00">src/libs/vtools/visualization</text>
<text text-anchor="middle" x="358.5" y="-85.5" font-family="Helvetica,sans-Serif" font-size="10.00">/line/operation/vistoolmirrorbyaxis.h</text>
</a>
</g>
</g>
<!-- Node1&#45;&gt;Node2 -->
<g id="edge1" class="edge">
<title>Node1&#45;&gt;Node2</title>
<path fill="none" stroke="midnightblue" d="M1161.36,-152.94C992.5,-140.65 629.88,-114.25 455.74,-101.58"/>
<polygon fill="midnightblue" stroke="midnightblue" points="1161.24,-156.44 1171.47,-153.67 1161.75,-149.46 1161.24,-156.44"/>
</g>
<!-- Node6 -->
<g id="node6" class="node">
<title>Node6</title>
<g id="a_node6"><a xlink:href="../../d8/d1e/vistoolmirrorbyline_8h.html" target="_top" xlink:title=" ">
<polygon fill="white" stroke="black" points="782.5,-78.5 782.5,-108.5 974.5,-108.5 974.5,-78.5 782.5,-78.5"/>
<text text-anchor="start" x="790.5" y="-96.5" font-family="Helvetica,sans-Serif" font-size="10.00">src/libs/vtools/visualization</text>
<text text-anchor="middle" x="878.5" y="-85.5" font-family="Helvetica,sans-Serif" font-size="10.00">/line/operation/vistoolmirrorbyline.h</text>
</a>
</g>
</g>
<!-- Node1&#45;&gt;Node6 -->
<g id="edge5" class="edge">
<title>Node1&#45;&gt;Node6</title>
<path fill="none" stroke="midnightblue" d="M1161.37,-143.79C1099.67,-133.04 1018.56,-118.91 959.03,-108.53"/>
<polygon fill="midnightblue" stroke="midnightblue" points="1161.03,-147.29 1171.48,-145.56 1162.23,-140.39 1161.03,-147.29"/>
</g>
<!-- Node10 -->
<g id="node10" class="node">
<title>Node10</title>
<g id="a_node10"><a xlink:href="../../d5/de2/visoperation_8cpp.html" target="_top" xlink:title=" ">
<polygon fill="white" stroke="black" points="1052,-78.5 1052,-108.5 1223,-108.5 1223,-78.5 1052,-78.5"/>
<text text-anchor="start" x="1060" y="-96.5" font-family="Helvetica,sans-Serif" font-size="10.00">src/libs/vtools/visualization</text>
<text text-anchor="middle" x="1137.5" y="-85.5" font-family="Helvetica,sans-Serif" font-size="10.00">/line/operation/visoperation.cpp</text>
</a>
</g>
</g>
<!-- Node1&#45;&gt;Node10 -->
<g id="edge9" class="edge">
<title>Node1&#45;&gt;Node10</title>
<path fill="none" stroke="midnightblue" d="M1217.82,-140.3C1199.98,-130.12 1178.46,-117.85 1162.19,-108.58"/>
<polygon fill="midnightblue" stroke="midnightblue" points="1216.34,-143.48 1226.76,-145.4 1219.81,-137.4 1216.34,-143.48"/>
</g>
<!-- Node11 -->
<g id="node11" class="node">
<title>Node11</title>
<g id="a_node11"><a xlink:href="../../d1/df2/vistoolrotation_8cpp.html" target="_top" xlink:title=" ">
<polygon fill="white" stroke="black" points="1620.5,-6 1620.5,-36 1802.5,-36 1802.5,-6 1620.5,-6"/>
<text text-anchor="start" x="1628.5" y="-24" font-family="Helvetica,sans-Serif" font-size="10.00">src/libs/vtools/visualization</text>
<text text-anchor="middle" x="1711.5" y="-13" font-family="Helvetica,sans-Serif" font-size="10.00">/line/operation/vistoolrotation.cpp</text>
</a>
</g>
</g>
<!-- Node1&#45;&gt;Node11 -->
<g id="edge10" class="edge">
<title>Node1&#45;&gt;Node11</title>
<path fill="none" stroke="midnightblue" d="M1328.14,-143.26C1368.65,-134.16 1419.06,-122.05 1463.5,-109 1539.9,-86.57 1627.37,-54.29 1675.33,-36.02"/>
<polygon fill="midnightblue" stroke="midnightblue" points="1327.33,-139.85 1318.33,-145.44 1328.85,-146.68 1327.33,-139.85"/>
</g>
<!-- Node12 -->
<g id="node12" class="node">
<title>Node12</title>
<g id="a_node12"><a xlink:href="../../df/d46/vistoolmove_8cpp.html" target="_top" xlink:title=" ">
<polygon fill="white" stroke="black" points="1152,-6 1152,-36 1323,-36 1323,-6 1152,-6"/>
<text text-anchor="start" x="1160" y="-24" font-family="Helvetica,sans-Serif" font-size="10.00">src/libs/vtools/visualization</text>
<text text-anchor="middle" x="1237.5" y="-13" font-family="Helvetica,sans-Serif" font-size="10.00">/line/operation/vistoolmove.cpp</text>
</a>
</g>
</g>
<!-- Node1&#45;&gt;Node12 -->
<g id="edge11" class="edge">
<title>Node1&#45;&gt;Node12</title>
<path fill="none" stroke="midnightblue" d="M1249.03,-135.29C1246.11,-106.61 1241.35,-59.78 1238.96,-36.33"/>
<polygon fill="midnightblue" stroke="midnightblue" points="1245.56,-135.71 1250.05,-145.3 1252.52,-135 1245.56,-135.71"/>
</g>
<!-- Node13 -->
<g id="node13" class="node">
<title>Node13</title>
<g id="a_node13"><a xlink:href="../../d0/d44/vistoolmove_8h.html" target="_top" xlink:title=" ">
<polygon fill="white" stroke="black" points="1294.5,-78.5 1294.5,-108.5 1454.5,-108.5 1454.5,-78.5 1294.5,-78.5"/>
<text text-anchor="start" x="1302.5" y="-96.5" font-family="Helvetica,sans-Serif" font-size="10.00">src/libs/vtools/visualization</text>
<text text-anchor="middle" x="1374.5" y="-85.5" font-family="Helvetica,sans-Serif" font-size="10.00">/line/operation/vistoolmove.h</text>
</a>
</g>
</g>
<!-- Node1&#45;&gt;Node13 -->
<g id="edge12" class="edge">
<title>Node1&#45;&gt;Node13</title>
<path fill="none" stroke="midnightblue" d="M1287.05,-140.71C1306.45,-130.46 1330.06,-117.98 1347.86,-108.58"/>
<polygon fill="midnightblue" stroke="midnightblue" points="1285.4,-137.63 1278.19,-145.4 1288.67,-143.82 1285.4,-137.63"/>
</g>
<!-- Node16 -->
<g id="node16" class="node">
<title>Node16</title>
<g id="a_node16"><a xlink:href="../../de/d9c/vistoolrotation_8h.html" target="_top" xlink:title=" ">
<polygon fill="white" stroke="black" points="1711.5,-78.5 1711.5,-108.5 1881.5,-108.5 1881.5,-78.5 1711.5,-78.5"/>
<text text-anchor="start" x="1719.5" y="-96.5" font-family="Helvetica,sans-Serif" font-size="10.00">src/libs/vtools/visualization</text>
<text text-anchor="middle" x="1796.5" y="-85.5" font-family="Helvetica,sans-Serif" font-size="10.00">/line/operation/vistoolrotation.h</text>
</a>
</g>
</g>
<!-- Node1&#45;&gt;Node16 -->
<g id="edge16" class="edge">
<title>Node1&#45;&gt;Node16</title>
<path fill="none" stroke="midnightblue" d="M1341.66,-148.75C1444.26,-136.51 1610.6,-116.67 1711.16,-104.68"/>
<polygon fill="midnightblue" stroke="midnightblue" points="1341.14,-145.28 1331.62,-149.94 1341.97,-152.23 1341.14,-145.28"/>
</g>
<!-- Node3 -->
<g id="node3" class="node">
<title>Node3</title>
<g id="a_node3"><a xlink:href="../../d9/d34/dialogmirrorbyaxis_8cpp.html" target="_top" xlink:title=" ">
<polygon fill="white" stroke="black" points="0,-6 0,-36 159,-36 159,-6 0,-6"/>
<text text-anchor="start" x="8" y="-24" font-family="Helvetica,sans-Serif" font-size="10.00">src/libs/vtools/dialogs</text>
<text text-anchor="middle" x="79.5" y="-13" font-family="Helvetica,sans-Serif" font-size="10.00">/tools/dialogmirrorbyaxis.cpp</text>
</a>
</g>
</g>
<!-- Node2&#45;&gt;Node3 -->
<g id="edge2" class="edge">
<title>Node2&#45;&gt;Node3</title>
<path fill="none" stroke="midnightblue" d="M293.08,-75.97C245.17,-63.86 180.83,-47.6 135.33,-36.11"/>
<polygon fill="midnightblue" stroke="midnightblue" points="292.49,-79.43 303.05,-78.49 294.21,-72.64 292.49,-79.43"/>
</g>
<!-- Node4 -->
<g id="node4" class="node">
<title>Node4</title>
<g id="a_node4"><a xlink:href="../../d5/d3b/vtoolmirrorbyaxis_8cpp.html" target="_top" xlink:title=" ">
<polygon fill="white" stroke="black" points="177.5,-0.5 177.5,-41.5 337.5,-41.5 337.5,-0.5 177.5,-0.5"/>
<text text-anchor="start" x="185.5" y="-29.5" font-family="Helvetica,sans-Serif" font-size="10.00">src/libs/vtools/tools</text>
<text text-anchor="start" x="185.5" y="-18.5" font-family="Helvetica,sans-Serif" font-size="10.00">/drawTools/operation</text>
<text text-anchor="middle" x="257.5" y="-7.5" font-family="Helvetica,sans-Serif" font-size="10.00">/mirror/vtoolmirrorbyaxis.cpp</text>
</a>
</g>
</g>
<!-- Node2&#45;&gt;Node4 -->
<g id="edge3" class="edge">
<title>Node2&#45;&gt;Node4</title>
<path fill="none" stroke="midnightblue" d="M329.82,-72.48C315.95,-62.8 299.36,-51.22 285.56,-41.59"/>
<polygon fill="midnightblue" stroke="midnightblue" points="327.86,-75.38 338.06,-78.23 331.86,-69.64 327.86,-75.38"/>
</g>
<!-- Node5 -->
<g id="node5" class="node">
<title>Node5</title>
<g id="a_node5"><a xlink:href="../../de/da4/vistoolmirrorbyaxis_8cpp.html" target="_top" xlink:title=" ">
<polygon fill="white" stroke="black" points="355.5,-6 355.5,-36 561.5,-36 561.5,-6 355.5,-6"/>
<text text-anchor="start" x="363.5" y="-24" font-family="Helvetica,sans-Serif" font-size="10.00">src/libs/vtools/visualization</text>
<text text-anchor="middle" x="458.5" y="-13" font-family="Helvetica,sans-Serif" font-size="10.00">/line/operation/vistoolmirrorbyaxis.cpp</text>
</a>
</g>
</g>
<!-- Node2&#45;&gt;Node5 -->
<g id="edge4" class="edge">
<title>Node2&#45;&gt;Node5</title>
<path fill="none" stroke="midnightblue" d="M386.97,-72.43C403.48,-60.79 423.86,-46.42 438.63,-36"/>
<polygon fill="midnightblue" stroke="midnightblue" points="384.89,-69.61 378.74,-78.23 388.93,-75.33 384.89,-69.61"/>
</g>
<!-- Node7 -->
<g id="node7" class="node">
<title>Node7</title>
<g id="a_node7"><a xlink:href="../../df/d5e/dialogmirrorbyline_8cpp.html" target="_top" xlink:title=" ">
<polygon fill="white" stroke="black" points="580,-6 580,-36 737,-36 737,-6 580,-6"/>
<text text-anchor="start" x="588" y="-24" font-family="Helvetica,sans-Serif" font-size="10.00">src/libs/vtools/dialogs</text>
<text text-anchor="middle" x="658.5" y="-13" font-family="Helvetica,sans-Serif" font-size="10.00">/tools/dialogmirrorbyline.cpp</text>
</a>
</g>
</g>
<!-- Node6&#45;&gt;Node7 -->
<g id="edge6" class="edge">
<title>Node6&#45;&gt;Node7</title>
<path fill="none" stroke="midnightblue" d="M825.01,-75.36C787.44,-63.32 737.8,-47.41 702.52,-36.11"/>
<polygon fill="midnightblue" stroke="midnightblue" points="824.18,-78.77 834.77,-78.49 826.32,-72.1 824.18,-78.77"/>
</g>
<!-- Node8 -->
<g id="node8" class="node">
<title>Node8</title>
<g id="a_node8"><a xlink:href="../../d2/d3c/vtoolmirrorbyline_8cpp.html" target="_top" xlink:title=" ">
<polygon fill="white" stroke="black" points="755.5,-0.5 755.5,-41.5 913.5,-41.5 913.5,-0.5 755.5,-0.5"/>
<text text-anchor="start" x="763.5" y="-29.5" font-family="Helvetica,sans-Serif" font-size="10.00">src/libs/vtools/tools</text>
<text text-anchor="start" x="763.5" y="-18.5" font-family="Helvetica,sans-Serif" font-size="10.00">/drawTools/operation</text>
<text text-anchor="middle" x="834.5" y="-7.5" font-family="Helvetica,sans-Serif" font-size="10.00">/mirror/vtoolmirrorbyline.cpp</text>
</a>
</g>
</g>
<!-- Node6&#45;&gt;Node8 -->
<g id="edge7" class="edge">
<title>Node6&#45;&gt;Node8</title>
<path fill="none" stroke="midnightblue" d="M864.27,-69.7C858.61,-60.63 852.17,-50.31 846.73,-41.59"/>
<polygon fill="midnightblue" stroke="midnightblue" points="861.33,-71.6 869.6,-78.23 867.27,-67.9 861.33,-71.6"/>
</g>
<!-- Node9 -->
<g id="node9" class="node">
<title>Node9</title>
<g id="a_node9"><a xlink:href="../../d0/d35/vistoolmirrorbyline_8cpp.html" target="_top" xlink:title=" ">
<polygon fill="white" stroke="black" points="931,-6 931,-36 1134,-36 1134,-6 931,-6"/>
<text text-anchor="start" x="939" y="-24" font-family="Helvetica,sans-Serif" font-size="10.00">src/libs/vtools/visualization</text>
<text text-anchor="middle" x="1032.5" y="-13" font-family="Helvetica,sans-Serif" font-size="10.00">/line/operation/vistoolmirrorbyline.cpp</text>
</a>
</g>
</g>
<!-- Node6&#45;&gt;Node9 -->
<g id="edge8" class="edge">
<title>Node6&#45;&gt;Node9</title>
<path fill="none" stroke="midnightblue" d="M918.5,-74.19C944.49,-62.29 977.85,-47.02 1001.76,-36.07"/>
<polygon fill="midnightblue" stroke="midnightblue" points="916.93,-71.06 909.29,-78.4 919.84,-77.42 916.93,-71.06"/>
</g>
<!-- Node13&#45;&gt;Node12 -->
<g id="edge15" class="edge">
<title>Node13&#45;&gt;Node12</title>
<path fill="none" stroke="midnightblue" d="M1338,-73.72C1315.01,-61.89 1285.84,-46.87 1264.85,-36.07"/>
<polygon fill="midnightblue" stroke="midnightblue" points="1336.61,-76.94 1347.11,-78.4 1339.82,-70.71 1336.61,-76.94"/>
</g>
<!-- Node14 -->
<g id="node14" class="node">
<title>Node14</title>
<g id="a_node14"><a xlink:href="../../d2/d51/dialogmove_8cpp.html" target="_top" xlink:title=" ">
<polygon fill="white" stroke="black" points="1341,-6 1341,-36 1466,-36 1466,-6 1341,-6"/>
<text text-anchor="start" x="1349" y="-24" font-family="Helvetica,sans-Serif" font-size="10.00">src/libs/vtools/dialogs</text>
<text text-anchor="middle" x="1403.5" y="-13" font-family="Helvetica,sans-Serif" font-size="10.00">/tools/dialogmove.cpp</text>
</a>
</g>
</g>
<!-- Node13&#45;&gt;Node14 -->
<g id="edge13" class="edge">
<title>Node13&#45;&gt;Node14</title>
<path fill="none" stroke="midnightblue" d="M1384.21,-68.9C1388.66,-58.08 1393.79,-45.61 1397.64,-36.25"/>
<polygon fill="midnightblue" stroke="midnightblue" points="1380.94,-67.65 1380.37,-78.23 1387.41,-70.32 1380.94,-67.65"/>
</g>
<!-- Node15 -->
<g id="node15" class="node">
<title>Node15</title>
<g id="a_node15"><a xlink:href="../../d3/d2b/vtoolmove_8cpp.html" target="_top" xlink:title=" ">
<polygon fill="white" stroke="black" points="1484.5,-0.5 1484.5,-41.5 1602.5,-41.5 1602.5,-0.5 1484.5,-0.5"/>
<text text-anchor="start" x="1492.5" y="-29.5" font-family="Helvetica,sans-Serif" font-size="10.00">src/libs/vtools/tools</text>
<text text-anchor="start" x="1492.5" y="-18.5" font-family="Helvetica,sans-Serif" font-size="10.00">/drawTools/operation</text>
<text text-anchor="middle" x="1543.5" y="-7.5" font-family="Helvetica,sans-Serif" font-size="10.00">/vtoolmove.cpp</text>
</a>
</g>
</g>
<!-- Node13&#45;&gt;Node15 -->
<g id="edge14" class="edge">
<title>Node13&#45;&gt;Node15</title>
<path fill="none" stroke="midnightblue" d="M1417.57,-74.53C1441.73,-64.45 1471.9,-51.87 1496.64,-41.55"/>
<polygon fill="midnightblue" stroke="midnightblue" points="1416.18,-71.32 1408.29,-78.4 1418.87,-77.78 1416.18,-71.32"/>
</g>
<!-- Node16&#45;&gt;Node11 -->
<g id="edge19" class="edge">
<title>Node16&#45;&gt;Node11</title>
<path fill="none" stroke="midnightblue" d="M1771.53,-71.79C1757.64,-60.27 1740.72,-46.23 1728.39,-36"/>
<polygon fill="midnightblue" stroke="midnightblue" points="1769.37,-74.54 1779.3,-78.23 1773.84,-69.16 1769.37,-74.54"/>
</g>
<!-- Node17 -->
<g id="node17" class="node">
<title>Node17</title>
<g id="a_node17"><a xlink:href="../../dc/d64/dialogrotation_8cpp.html" target="_top" xlink:title=" ">
<polygon fill="white" stroke="black" points="1821,-6 1821,-36 1956,-36 1956,-6 1821,-6"/>
<text text-anchor="start" x="1829" y="-24" font-family="Helvetica,sans-Serif" font-size="10.00">src/libs/vtools/dialogs</text>
<text text-anchor="middle" x="1888.5" y="-13" font-family="Helvetica,sans-Serif" font-size="10.00">/tools/dialogrotation.cpp</text>
</a>
</g>
</g>
<!-- Node16&#45;&gt;Node17 -->
<g id="edge17" class="edge">
<title>Node16&#45;&gt;Node17</title>
<path fill="none" stroke="midnightblue" d="M1823.11,-72.11C1838.22,-60.53 1856.75,-46.33 1870.22,-36"/>
<polygon fill="midnightblue" stroke="midnightblue" points="1820.93,-69.37 1815.12,-78.23 1825.18,-74.93 1820.93,-69.37"/>
</g>
<!-- Node18 -->
<g id="node18" class="node">
<title>Node18</title>
<g id="a_node18"><a xlink:href="../../df/dd2/vtoolrotation_8cpp.html" target="_top" xlink:title=" ">
<polygon fill="white" stroke="black" points="1974.5,-0.5 1974.5,-41.5 2092.5,-41.5 2092.5,-0.5 1974.5,-0.5"/>
<text text-anchor="start" x="1982.5" y="-29.5" font-family="Helvetica,sans-Serif" font-size="10.00">src/libs/vtools/tools</text>
<text text-anchor="start" x="1982.5" y="-18.5" font-family="Helvetica,sans-Serif" font-size="10.00">/drawTools/operation</text>
<text text-anchor="middle" x="2033.5" y="-7.5" font-family="Helvetica,sans-Serif" font-size="10.00">/vtoolrotation.cpp</text>
</a>
</g>
</g>
<!-- Node16&#45;&gt;Node18 -->
<g id="edge18" class="edge">
<title>Node16&#45;&gt;Node18</title>
<path fill="none" stroke="midnightblue" d="M1853.6,-75.51C1890.11,-64.65 1937.36,-50.6 1974.28,-39.62"/>
<polygon fill="midnightblue" stroke="midnightblue" points="1852.19,-72.28 1843.61,-78.49 1854.19,-78.99 1852.19,-72.28"/>
</g>
</g>
</svg>
        <g id="navigator" transform="translate(0 0)" fill="#404254">
                <rect fill="#f2f5e9" fill-opacity="0.5" stroke="#606060" stroke-width=".5" x="0" y="0" width="60" height="60"/>
                <use id="zoomplus" xlink:href="#zoomPlus" x="17" y="9" onmousedown="handleZoom(evt,'in')"/>
                <use id="zoomminus" xlink:href="#zoomMin" x="42" y="9" onmousedown="handleZoom(evt,'out')"/>
                <use id="reset" xlink:href="#resetDef" x="30" y="36" onmousedown="handleReset()"/>
                <g id="arrowUp" xlink:href="#dirArrow" transform="translate(30 24)" onmousedown="handlePan(0,-1)">
                  <use xlink:href="#rim" fill="#404040">
                        <set attributeName="fill" to="#808080" begin="arrowUp.mouseover" end="arrowUp.mouseout"/>
                  </use>
                  <path fill="none" stroke="white" stroke-width="1.5" d="M0,-3.0v7 M-2.5,-0.5L0,-3.0L2.5,-0.5"/>
                </g>
                <g id="arrowRight" xlink:href="#dirArrow" transform="rotate(90) translate(36 -43)" onmousedown="handlePan(1,0)">
                  <use xlink:href="#rim" fill="#404040">
                        <set attributeName="fill" to="#808080" begin="arrowRight.mouseover" end="arrowRight.mouseout"/>
                  </use>
                  <path fill="none" stroke="white" stroke-width="1.5" d="M0,-3.0v7 M-2.5,-0.5L0,-3.0L2.5,-0.5"/>
                </g>
                <g id="arrowDown" xlink:href="#dirArrow" transform="rotate(180) translate(-30 -48)" onmousedown="handlePan(0,1)">
                  <use xlink:href="#rim" fill="#404040">
                        <set attributeName="fill" to="#808080" begin="arrowDown.mouseover" end="arrowDown.mouseout"/>
                  </use>
                  <path fill="none" stroke="white" stroke-width="1.5" d="M0,-3.0v7 M-2.5,-0.5L0,-3.0L2.5,-0.5"/>
                </g>
                <g id="arrowLeft" xlink:href="#dirArrow" transform="rotate(270) translate(-36 17)" onmousedown="handlePan(-1,0)">
                  <use xlink:href="#rim" fill="#404040">
                        <set attributeName="fill" to="#808080" begin="arrowLeft.mouseover" end="arrowLeft.mouseout"/>
                  </use>
                  <path fill="none" stroke="white" stroke-width="1.5" d="M0,-3.0v7 M-2.5,-0.5L0,-3.0L2.5,-0.5"/>
                </g>
        </g>
        <svg viewBox="0 0 15 15" width="100%" height="30px" preserveAspectRatio="xMaxYMin meet">
         <g id="arrow_out" transform="scale(0.3 0.3)">
          <a xlink:href="visoperation_8h__dep__incl_org.svg" target="_base">
           <rect id="button" ry="5" rx="5" y="6" x="6" height="38" width="38"
                fill="#f2f5e9" fill-opacity="0.5" stroke="#606060" stroke-width="1.0"/>
           <path id="arrow"
             d="M 11.500037,31.436501 C 11.940474,20.09759 22.043105,11.32322 32.158766,21.979434 L 37.068811,17.246167 C 37.068811,17.246167 37.088388,32 37.088388,32 L 22.160133,31.978069 C 22.160133,31.978069 26.997745,27.140456 26.997745,27.140456 C 18.528582,18.264221 13.291696,25.230495 11.500037,31.436501 z"
             style="fill:#404040;"/>
          </a>
         </g>
        </svg>
</svg>
