<?xml version="1.0" encoding="UTF-8" standalone="no"?>
<!DOCTYPE svg PUBLIC "-//W3C//DTD SVG 1.1//EN"
 "http://www.w3.org/Graphics/SVG/1.1/DTD/svg11.dtd">
<!-- Generated by graphviz version 2.43.0 (0)
 -->
<!-- Title: src/app/seamlyme/tmainwindow.cpp Pages: 1 -->
<!--zoomable 214 -->

<svg id="main" version="1.1" xmlns="http://www.w3.org/2000/svg" xmlns:xlink="http://www.w3.org/1999/xlink" xml:space="preserve" onload="init(evt)">
<style type="text/css"><![CDATA[
.node, .edge {opacity: 0.7;}
.node.selected, .edge.selected {opacity: 1;}
.edge:hover path { stroke: red; }
.edge:hover polygon { stroke: red; fill: red; }
]]></style>

<defs>
  <circle id="rim" cx="0" cy="0" r="7"/>
  <circle id="rim2" cx="0" cy="0" r="3.5"/>
  <g id="zoomPlus">
    <use xlink:href="#rim" fill="#404040"><set attributeName="fill" to="#808080" begin="zoomplus.mouseover" end="zoomplus.mouseout"/></use>
    <path d="M-4,0h8M0,-4v8" fill="none" stroke="white" stroke-width="1.5" pointer-events="none"/>
  </g>
  <g id="zoomMin">
    <use xlink:href="#rim" fill="#404040"><set attributeName="fill" to="#808080" begin="zoomminus.mouseover" end="zoomminus.mouseout"/></use>
    <path d="M-4,0h8" fill="none" stroke="white" stroke-width="1.5" pointer-events="none"/>
  </g>
  <g id="arrowUp" transform="translate(30 24)">
    <use xlink:href="#rim"/>
    <path pointer-events="none" fill="none" stroke="white" stroke-width="1.5" d="M0,-3.0v7 M-2.5,-0.5L0,-3.0L2.5,-0.5"/>
  </g>
  <g id="arrowRight" transform="rotate(90) translate(36 -43)">
    <use xlink:href="#rim"/>
    <path pointer-events="none" fill="none" stroke="white" stroke-width="1.5" d="M0,-3.0v7 M-2.5,-0.5L0,-3.0L2.5,-0.5"/>
  </g>
  <g id="arrowDown" transform="rotate(180) translate(-30 -48)">
    <use xlink:href="#rim"/>
    <path pointer-events="none" fill="none" stroke="white" stroke-width="1.5" d="M0,-3.0v7 M-2.5,-0.5L0,-3.0L2.5,-0.5"/>
  </g>
  <g id="arrowLeft" transform="rotate(270) translate(-36 17)">
    <use xlink:href="#rim"/>
    <path pointer-events="none" fill="none" stroke="white" stroke-width="1.5" d="M0,-3.0v7 M-2.5,-0.5L0,-3.0L2.5,-0.5"/>
  </g>
  <g id="resetDef">
    <use xlink:href="#rim2" fill="#404040"><set attributeName="fill" to="#808080" begin="reset.mouseover" end="reset.mouseout"/></use>
  </g>
</defs>
<script type="application/ecmascript">
var viewWidth = 4009;
var viewHeight = 214;
var sectionId = 'dynsection-0';
</script>
<script type="application/ecmascript" xlink:href="../../svg.min.js"/>
<svg id="graph" class="graph">
<g id="viewport">
<title>src/app/seamlyme/tmainwindow.cpp</title>
<!-- Node1 -->
<g id="Node000001" class="node">
<title>Node1</title>
<g id="a_Node000001"><a xlink:title=" ">
<polygon fill="#999999" stroke="#666666" points="2452,-206 2257,-206 2257,-187 2452,-187 2452,-206"/>
<text text-anchor="middle" x="2354.5" y="-194" font-family="Helvetica,sans-Serif" font-size="10.00">src/app/seamlyme/tmainwindow.cpp</text>
</a>
</g>
</g>
<!-- Node2 -->
<g id="Node000002" class="node">
<title>Node2</title>
<g id="a_Node000002"><a xlink:href="../../dc/dc0/tmainwindow_8h.html" target="_top" xlink:title=" ">
<polygon fill="white" stroke="#666666" points="643,-145.5 552,-145.5 552,-126.5 643,-126.5 643,-145.5"/>
<text text-anchor="middle" x="597.5" y="-133.5" font-family="Helvetica,sans-Serif" font-size="10.00">tmainwindow.h</text>
</a>
</g>
</g>
<!-- Node1&#45;&gt;Node2 -->
<g id="edge1_Node000001_Node000002" class="edge">
<title>Node1&#45;&gt;Node2</title>
<g id="a_edge1_Node000001_Node000002"><a xlink:title=" ">
<path fill="none" stroke="#63b8ff" d="M2256.84,-195.49C2004.08,-194.88 1307.84,-189.53 729.5,-151 704.46,-149.33 676.84,-146.55 653.37,-143.9"/>
<polygon fill="#63b8ff" stroke="#63b8ff" points="653.57,-140.4 643.24,-142.74 652.78,-147.36 653.57,-140.4"/>
</a>
</g>
</g>
<!-- Node5 -->
<g id="Node000005" class="node">
<title>Node5</title>
<g id="a_Node000005"><a xlink:title=" ">
<polygon fill="#e0e0e0" stroke="#999999" points="121,-79.5 0,-79.5 0,-60.5 121,-60.5 121,-79.5"/>
<text text-anchor="middle" x="60.5" y="-67.5" font-family="Helvetica,sans-Serif" font-size="10.00">../vmisc/vlockguard.h</text>
</a>
</g>
</g>
<!-- Node1&#45;&gt;Node5 -->
<g id="edge29_Node000001_Node000005" class="edge">
<title>Node1&#45;&gt;Node5</title>
<g id="a_edge29_Node000001_Node000005"><a xlink:title=" ">
<path fill="none" stroke="#63b8ff" d="M2256.73,-194.83C1930.3,-192.31 879.66,-181.94 542.5,-151 383.04,-136.37 196.66,-99.81 109.77,-81.63"/>
<polygon fill="#63b8ff" stroke="#63b8ff" points="110.43,-78.19 99.92,-79.55 108.99,-85.04 110.43,-78.19"/>
</a>
</g>
</g>
<!-- Node9 -->
<g id="Node000009" class="node">
<title>Node9</title>
<g id="a_Node000009"><a xlink:href="../../d3/d41/me__shortcuts__dialog_8h.html" target="_top" xlink:title=" ">
<polygon fill="white" stroke="#666666" points="892,-85 771,-85 771,-55 892,-55 892,-85"/>
<text text-anchor="start" x="779" y="-73" font-family="Helvetica,sans-Serif" font-size="10.00">dialogs/me_shortcuts</text>
<text text-anchor="middle" x="831.5" y="-62" font-family="Helvetica,sans-Serif" font-size="10.00">_dialog.h</text>
</a>
</g>
</g>
<!-- Node1&#45;&gt;Node9 -->
<g id="edge22_Node000001_Node000009" class="edge">
<title>Node1&#45;&gt;Node9</title>
<g id="a_edge22_Node000001_Node000009"><a xlink:title=" ">
<path fill="none" stroke="#63b8ff" d="M2256.73,-194.59C1914.35,-191.17 788.64,-177.88 762.5,-151 743.2,-131.15 770.64,-106.9 796.42,-90.33"/>
<polygon fill="#63b8ff" stroke="#63b8ff" points="798.35,-93.26 805.03,-85.03 794.68,-87.3 798.35,-93.26"/>
</a>
</g>
</g>
<!-- Node11 -->
<g id="Node000011" class="node">
<title>Node11</title>
<g id="a_Node000011"><a xlink:title=" ">
<polygon fill="#e0e0e0" stroke="#999999" points="877,-145.5 772,-145.5 772,-126.5 877,-126.5 877,-145.5"/>
<text text-anchor="middle" x="824.5" y="-133.5" font-family="Helvetica,sans-Serif" font-size="10.00">ui_tmainwindow.h</text>
</a>
</g>
</g>
<!-- Node1&#45;&gt;Node11 -->
<g id="edge10_Node000001_Node000011" class="edge">
<title>Node1&#45;&gt;Node11</title>
<g id="a_edge10_Node000001_Node000011"><a xlink:title=" ">
<path fill="none" stroke="#63b8ff" d="M2256.84,-194.98C1973.19,-193.09 1152.65,-184.77 886.5,-151 880.11,-150.19 873.4,-149.02 866.86,-147.7"/>
<polygon fill="#63b8ff" stroke="#63b8ff" points="867.3,-144.21 856.79,-145.52 865.83,-151.05 867.3,-144.21"/>
</a>
</g>
</g>
<!-- Node12 -->
<g id="Node000012" class="node">
<title>Node12</title>
<g id="a_Node000012"><a xlink:href="../../d4/dcc/dialogaboutseamlyme_8h.html" target="_top" xlink:title=" ">
<polygon fill="white" stroke="#666666" points="1222,-79.5 1049,-79.5 1049,-60.5 1222,-60.5 1222,-79.5"/>
<text text-anchor="middle" x="1135.5" y="-67.5" font-family="Helvetica,sans-Serif" font-size="10.00">dialogs/dialogaboutseamlyme.h</text>
</a>
</g>
</g>
<!-- Node1&#45;&gt;Node12 -->
<g id="edge11_Node000001_Node000012" class="edge">
<title>Node1&#45;&gt;Node12</title>
<g id="a_edge11_Node000001_Node000012"><a xlink:title=" ">
<path fill="none" stroke="#63b8ff" d="M2256.81,-195.81C1997.89,-196.07 1307.41,-192.77 1213.5,-151 1183.65,-137.72 1159.31,-107.28 1146.16,-88.02"/>
<polygon fill="#63b8ff" stroke="#63b8ff" points="1149.03,-86.02 1140.62,-79.58 1143.18,-89.86 1149.03,-86.02"/>
</a>
</g>
</g>
<!-- Node13 -->
<g id="Node000013" class="node">
<title>Node13</title>
<g id="a_Node000013"><a xlink:href="../../db/deb/dialognewmeasurements_8h.html" target="_top" xlink:title=" ">
<polygon fill="white" stroke="#666666" points="1083.5,-145.5 895.5,-145.5 895.5,-126.5 1083.5,-126.5 1083.5,-145.5"/>
<text text-anchor="middle" x="989.5" y="-133.5" font-family="Helvetica,sans-Serif" font-size="10.00">dialogs/dialognewmeasurements.h</text>
</a>
</g>
</g>
<!-- Node1&#45;&gt;Node13 -->
<g id="edge13_Node000001_Node000013" class="edge">
<title>Node1&#45;&gt;Node13</title>
<g id="a_edge13_Node000001_Node000013"><a xlink:title=" ">
<path fill="none" stroke="#63b8ff" d="M2256.93,-195.15C2045.35,-193.71 1528.68,-186.5 1097.5,-151 1084.51,-149.93 1070.69,-148.42 1057.42,-146.79"/>
<polygon fill="#63b8ff" stroke="#63b8ff" points="1057.77,-143.3 1047.41,-145.52 1056.89,-150.25 1057.77,-143.3"/>
</a>
</g>
</g>
<!-- Node14 -->
<g id="Node000014" class="node">
<title>Node14</title>
<g id="a_Node000014"><a xlink:href="../../d0/d0b/dialogmdatabase_8h.html" target="_top" xlink:title=" ">
<polygon fill="white" stroke="#666666" points="1779,-79.5 1630,-79.5 1630,-60.5 1779,-60.5 1779,-79.5"/>
<text text-anchor="middle" x="1704.5" y="-67.5" font-family="Helvetica,sans-Serif" font-size="10.00">dialogs/dialogmdatabase.h</text>
</a>
</g>
</g>
<!-- Node1&#45;&gt;Node14 -->
<g id="edge16_Node000001_Node000014" class="edge">
<title>Node1&#45;&gt;Node14</title>
<g id="a_edge16_Node000001_Node000014"><a xlink:title=" ">
<path fill="none" stroke="#63b8ff" d="M2256.68,-195.21C1992.01,-193.95 1279.28,-187.2 1244.5,-151 1235.26,-141.38 1235.53,-130.87 1244.5,-121 1272.73,-89.94 1578.89,-90.45 1620.5,-85 1629.13,-83.87 1638.23,-82.52 1647.13,-81.11"/>
<polygon fill="#63b8ff" stroke="#63b8ff" points="1647.74,-84.56 1657.05,-79.5 1646.62,-77.65 1647.74,-84.56"/>
</a>
</g>
</g>
<!-- Node15 -->
<g id="Node000015" class="node">
<title>Node15</title>
<g id="a_Node000015"><a xlink:href="../../d0/d74/dialogseamlymepreferences_8h.html" target="_top" xlink:title=" ">
<polygon fill="white" stroke="#666666" points="1443,-79.5 1240,-79.5 1240,-60.5 1443,-60.5 1443,-79.5"/>
<text text-anchor="middle" x="1341.5" y="-67.5" font-family="Helvetica,sans-Serif" font-size="10.00">dialogs/dialogseamlymepreferences.h</text>
</a>
</g>
</g>
<!-- Node1&#45;&gt;Node15 -->
<g id="edge18_Node000001_Node000015" class="edge">
<title>Node1&#45;&gt;Node15</title>
<g id="a_edge18_Node000001_Node000015"><a xlink:title=" ">
<path fill="none" stroke="#63b8ff" d="M2256.85,-195.29C1988.97,-194.22 1260.01,-187.93 1224.5,-151 1195.96,-121.32 1254.73,-96.26 1298.85,-82.46"/>
<polygon fill="#63b8ff" stroke="#63b8ff" points="1300.01,-85.77 1308.57,-79.52 1297.99,-79.06 1300.01,-85.77"/>
</a>
</g>
</g>
<!-- Node16 -->
<g id="Node000016" class="node">
<title>Node16</title>
<g id="a_Node000016"><a xlink:href="../../dd/da4/dialogexporttocsv_8h.html" target="_top" xlink:title=" ">
<polygon fill="white" stroke="#666666" points="1612,-79.5 1461,-79.5 1461,-60.5 1612,-60.5 1612,-79.5"/>
<text text-anchor="middle" x="1536.5" y="-67.5" font-family="Helvetica,sans-Serif" font-size="10.00">dialogs/dialogexporttocsv.h</text>
</a>
</g>
</g>
<!-- Node1&#45;&gt;Node16 -->
<g id="edge20_Node000001_Node000016" class="edge">
<title>Node1&#45;&gt;Node16</title>
<g id="a_edge20_Node000001_Node000016"><a xlink:title=" ">
<path fill="none" stroke="#63b8ff" d="M2256.76,-195.25C1990.48,-194.09 1269.64,-187.57 1234.5,-151 1225.26,-141.39 1225.88,-131.17 1234.5,-121 1234.62,-120.86 1386.78,-95.72 1475.05,-81.14"/>
<polygon fill="#63b8ff" stroke="#63b8ff" points="1475.66,-84.59 1484.95,-79.51 1474.52,-77.68 1475.66,-84.59"/>
</a>
</g>
</g>
<!-- Node17 -->
<g id="Node000017" class="node">
<title>Node17</title>
<g id="a_Node000017"><a xlink:title=" ">
<polygon fill="#e0e0e0" stroke="#999999" points="1391.5,-145.5 1253.5,-145.5 1253.5,-126.5 1391.5,-126.5 1391.5,-145.5"/>
<text text-anchor="middle" x="1322.5" y="-133.5" font-family="Helvetica,sans-Serif" font-size="10.00">../vpatterndb/calculator.h</text>
</a>
</g>
</g>
<!-- Node1&#45;&gt;Node17 -->
<g id="edge23_Node000001_Node000017" class="edge">
<title>Node1&#45;&gt;Node17</title>
<g id="a_edge23_Node000001_Node000017"><a xlink:title=" ">
<path fill="none" stroke="#63b8ff" d="M2256.66,-195.15C2083.49,-193.61 1711.9,-186.06 1400.5,-151 1392.05,-150.05 1383.13,-148.74 1374.47,-147.3"/>
<polygon fill="#63b8ff" stroke="#63b8ff" points="1374.9,-143.83 1364.45,-145.57 1373.71,-150.72 1374.9,-143.83"/>
</a>
</g>
</g>
<!-- Node18 -->
<g id="Node000018" class="node">
<title>Node18</title>
<g id="a_Node000018"><a xlink:title=" ">
<polygon fill="#e0e0e0" stroke="#999999" points="1557.5,-145.5 1409.5,-145.5 1409.5,-126.5 1557.5,-126.5 1557.5,-145.5"/>
<text text-anchor="middle" x="1483.5" y="-133.5" font-family="Helvetica,sans-Serif" font-size="10.00">../vpatterndb/pmsystems.h</text>
</a>
</g>
</g>
<!-- Node1&#45;&gt;Node18 -->
<g id="edge24_Node000001_Node000018" class="edge">
<title>Node1&#45;&gt;Node18</title>
<g id="a_edge24_Node000001_Node000018"><a xlink:title=" ">
<path fill="none" stroke="#63b8ff" d="M2256.85,-193.46C2107.65,-189.56 1814.16,-178.79 1566.5,-151 1557.44,-149.98 1547.86,-148.63 1538.55,-147.16"/>
<polygon fill="#63b8ff" stroke="#63b8ff" points="1539.04,-143.7 1528.6,-145.54 1537.91,-150.61 1539.04,-143.7"/>
</a>
</g>
</g>
<!-- Node19 -->
<g id="Node000019" class="node">
<title>Node19</title>
<g id="a_Node000019"><a xlink:title=" ">
<polygon fill="#e0e0e0" stroke="#999999" points="1653,-145.5 1576,-145.5 1576,-126.5 1653,-126.5 1653,-145.5"/>
<text text-anchor="middle" x="1614.5" y="-133.5" font-family="Helvetica,sans-Serif" font-size="10.00">../ifc/ifcdef.h</text>
</a>
</g>
</g>
<!-- Node1&#45;&gt;Node19 -->
<g id="edge25_Node000001_Node000019" class="edge">
<title>Node1&#45;&gt;Node19</title>
<g id="a_edge25_Node000001_Node000019"><a xlink:title=" ">
<path fill="none" stroke="#63b8ff" d="M2256.86,-195.94C2122.13,-195.02 1872.07,-187.84 1662.5,-151 1658.32,-150.26 1653.98,-149.3 1649.7,-148.22"/>
<polygon fill="#63b8ff" stroke="#63b8ff" points="1650.48,-144.8 1639.91,-145.54 1648.63,-151.56 1650.48,-144.8"/>
</a>
</g>
</g>
<!-- Node20 -->
<g id="Node000020" class="node">
<title>Node20</title>
<g id="a_Node000020"><a xlink:title=" ">
<polygon fill="#e0e0e0" stroke="#999999" points="1807.5,-145.5 1671.5,-145.5 1671.5,-126.5 1807.5,-126.5 1807.5,-145.5"/>
<text text-anchor="middle" x="1739.5" y="-133.5" font-family="Helvetica,sans-Serif" font-size="10.00">../ifc/xml/vvitconverter.h</text>
</a>
</g>
</g>
<!-- Node1&#45;&gt;Node20 -->
<g id="edge26_Node000001_Node000020" class="edge">
<title>Node1&#45;&gt;Node20</title>
<g id="a_edge26_Node000001_Node000020"><a xlink:title=" ">
<path fill="none" stroke="#63b8ff" d="M2256.51,-190.27C2148.45,-183.83 1969.58,-171.2 1816.5,-151 1808.64,-149.96 1800.36,-148.67 1792.26,-147.29"/>
<polygon fill="#63b8ff" stroke="#63b8ff" points="1792.6,-143.8 1782.15,-145.52 1791.39,-150.7 1792.6,-143.8"/>
</a>
</g>
</g>
<!-- Node21 -->
<g id="Node000021" class="node">
<title>Node21</title>
<g id="a_Node000021"><a xlink:title=" ">
<polygon fill="#e0e0e0" stroke="#999999" points="1963.5,-145.5 1825.5,-145.5 1825.5,-126.5 1963.5,-126.5 1963.5,-145.5"/>
<text text-anchor="middle" x="1894.5" y="-133.5" font-family="Helvetica,sans-Serif" font-size="10.00">../ifc/xml/vvstconverter.h</text>
</a>
</g>
</g>
<!-- Node1&#45;&gt;Node21 -->
<g id="edge27_Node000001_Node000021" class="edge">
<title>Node1&#45;&gt;Node21</title>
<g id="a_edge27_Node000001_Node000021"><a xlink:title=" ">
<path fill="none" stroke="#63b8ff" d="M2268.2,-186.98C2190.65,-178.96 2073.72,-165.97 1972.5,-151 1965.02,-149.89 1957.17,-148.62 1949.43,-147.3"/>
<polygon fill="#63b8ff" stroke="#63b8ff" points="1949.83,-143.81 1939.38,-145.54 1948.63,-150.71 1949.83,-143.81"/>
</a>
</g>
</g>
<!-- Node22 -->
<g id="Node000022" class="node">
<title>Node22</title>
<g id="a_Node000022"><a xlink:title=" ">
<polygon fill="#e0e0e0" stroke="#999999" points="2139.5,-145.5 1981.5,-145.5 1981.5,-126.5 2139.5,-126.5 2139.5,-145.5"/>
<text text-anchor="middle" x="2060.5" y="-133.5" font-family="Helvetica,sans-Serif" font-size="10.00">../ifc/xml/vpatternconverter.h</text>
</a>
</g>
</g>
<!-- Node1&#45;&gt;Node22 -->
<g id="edge28_Node000001_Node000022" class="edge">
<title>Node1&#45;&gt;Node22</title>
<g id="a_edge28_Node000001_Node000022"><a xlink:title=" ">
<path fill="none" stroke="#63b8ff" d="M2311.75,-186.99C2259.17,-176.53 2169.92,-158.77 2113.16,-147.48"/>
<polygon fill="#63b8ff" stroke="#63b8ff" points="2113.79,-144.04 2103.3,-145.52 2112.43,-150.9 2113.79,-144.04"/>
</a>
</g>
</g>
<!-- Node23 -->
<g id="Node000023" class="node">
<title>Node23</title>
<g id="a_Node000023"><a xlink:title=" ">
<polygon fill="#e0e0e0" stroke="#999999" points="2271,-145.5 2158,-145.5 2158,-126.5 2271,-126.5 2271,-145.5"/>
<text text-anchor="middle" x="2214.5" y="-133.5" font-family="Helvetica,sans-Serif" font-size="10.00">../vmisc/vsysexits.h</text>
</a>
</g>
</g>
<!-- Node1&#45;&gt;Node23 -->
<g id="edge30_Node000001_Node000023" class="edge">
<title>Node1&#45;&gt;Node23</title>
<g id="a_edge30_Node000001_Node000023"><a xlink:title=" ">
<path fill="none" stroke="#63b8ff" d="M2334.14,-186.99C2310.5,-177.12 2271.3,-160.73 2244.25,-149.43"/>
<polygon fill="#63b8ff" stroke="#63b8ff" points="2245.46,-146.14 2234.88,-145.52 2242.76,-152.6 2245.46,-146.14"/>
</a>
</g>
</g>
<!-- Node24 -->
<g id="Node000024" class="node">
<title>Node24</title>
<g id="a_Node000024"><a xlink:title=" ">
<polygon fill="#e0e0e0" stroke="#999999" points="2419.5,-145.5 2289.5,-145.5 2289.5,-126.5 2419.5,-126.5 2419.5,-145.5"/>
<text text-anchor="middle" x="2354.5" y="-133.5" font-family="Helvetica,sans-Serif" font-size="10.00">../vmisc/qxtcsvmodel.h</text>
</a>
</g>
</g>
<!-- Node1&#45;&gt;Node24 -->
<g id="edge31_Node000001_Node000024" class="edge">
<title>Node1&#45;&gt;Node24</title>
<g id="a_edge31_Node000001_Node000024"><a xlink:title=" ">
<path fill="none" stroke="#63b8ff" d="M2354.5,-186.87C2354.5,-178.75 2354.5,-166.31 2354.5,-155.89"/>
<polygon fill="#63b8ff" stroke="#63b8ff" points="2358,-155.67 2354.5,-145.67 2351,-155.67 2358,-155.67"/>
</a>
</g>
</g>
<!-- Node25 -->
<g id="Node000025" class="node">
<title>Node25</title>
<g id="a_Node000025"><a xlink:href="../../d6/da4/vlitepattern_8h.html" target="_top" xlink:title=" ">
<polygon fill="white" stroke="#666666" points="2521,-145.5 2438,-145.5 2438,-126.5 2521,-126.5 2521,-145.5"/>
<text text-anchor="middle" x="2479.5" y="-133.5" font-family="Helvetica,sans-Serif" font-size="10.00">vlitepattern.h</text>
</a>
</g>
</g>
<!-- Node1&#45;&gt;Node25 -->
<g id="edge32_Node000001_Node000025" class="edge">
<title>Node1&#45;&gt;Node25</title>
<g id="a_edge32_Node000001_Node000025"><a xlink:title=" ">
<path fill="none" stroke="#63b8ff" d="M2372.68,-186.99C2393.51,-177.25 2427.87,-161.16 2451.98,-149.88"/>
<polygon fill="#63b8ff" stroke="#63b8ff" points="2453.73,-152.93 2461.3,-145.52 2450.76,-146.59 2453.73,-152.93"/>
</a>
</g>
</g>
<!-- Node27 -->
<g id="Node000027" class="node">
<title>Node27</title>
<g id="a_Node000027"><a xlink:title=" ">
<polygon fill="#e0e0e0" stroke="#999999" points="2666,-145.5 2539,-145.5 2539,-126.5 2666,-126.5 2666,-145.5"/>
<text text-anchor="middle" x="2602.5" y="-133.5" font-family="Helvetica,sans-Serif" font-size="10.00">../qmuparser/qmudef.h</text>
</a>
</g>
</g>
<!-- Node1&#45;&gt;Node27 -->
<g id="edge34_Node000001_Node000027" class="edge">
<title>Node1&#45;&gt;Node27</title>
<g id="a_edge34_Node000001_Node000027"><a xlink:title=" ">
<path fill="none" stroke="#63b8ff" d="M2390.56,-186.99C2434.46,-176.64 2508.65,-159.14 2556.58,-147.83"/>
<polygon fill="#63b8ff" stroke="#63b8ff" points="2557.47,-151.22 2566.4,-145.52 2555.86,-144.41 2557.47,-151.22"/>
</a>
</g>
</g>
<!-- Node28 -->
<g id="Node000028" class="node">
<title>Node28</title>
<g id="a_Node000028"><a xlink:title=" ">
<polygon fill="#e0e0e0" stroke="#999999" points="2818.5,-151 2684.5,-151 2684.5,-121 2818.5,-121 2818.5,-151"/>
<text text-anchor="start" x="2692.5" y="-139" font-family="Helvetica,sans-Serif" font-size="10.00">../vtools/dialogs/support</text>
<text text-anchor="middle" x="2751.5" y="-128" font-family="Helvetica,sans-Serif" font-size="10.00">/edit_formula_dialog.h</text>
</a>
</g>
</g>
<!-- Node1&#45;&gt;Node28 -->
<g id="edge35_Node000001_Node000028" class="edge">
<title>Node1&#45;&gt;Node28</title>
<g id="a_edge35_Node000001_Node000028"><a xlink:title=" ">
<path fill="none" stroke="#63b8ff" d="M2422.26,-186.99C2485.03,-178.91 2581.24,-166.02 2674.24,-151.16"/>
<polygon fill="#63b8ff" stroke="#63b8ff" points="2675.07,-154.57 2684.39,-149.53 2673.96,-147.66 2675.07,-154.57"/>
</a>
</g>
</g>
<!-- Node29 -->
<g id="Node000029" class="node">
<title>Node29</title>
<g id="a_Node000029"><a xlink:href="../../d0/d0c/seamlyme_2version_8h.html" target="_top" xlink:title=" ">
<polygon fill="white" stroke="#666666" points="2898.5,-145.5 2836.5,-145.5 2836.5,-126.5 2898.5,-126.5 2898.5,-145.5"/>
<text text-anchor="middle" x="2867.5" y="-133.5" font-family="Helvetica,sans-Serif" font-size="10.00">version.h</text>
</a>
</g>
</g>
<!-- Node1&#45;&gt;Node29 -->
<g id="edge36_Node000001_Node000029" class="edge">
<title>Node1&#45;&gt;Node29</title>
<g id="a_edge36_Node000001_Node000029"><a xlink:title=" ">
<path fill="none" stroke="#63b8ff" d="M2452.04,-193.22C2548.42,-189.36 2699.58,-178.97 2827.5,-151 2830.49,-150.35 2833.57,-149.53 2836.63,-148.63"/>
<polygon fill="#63b8ff" stroke="#63b8ff" points="2837.75,-151.95 2846.19,-145.53 2835.6,-145.29 2837.75,-151.95"/>
</a>
</g>
</g>
<!-- Node31 -->
<g id="Node000031" class="node">
<title>Node31</title>
<g id="a_Node000031"><a xlink:href="../../df/da4/mapplication_8h.html" target="_top" xlink:title=" ">
<polygon fill="white" stroke="#666666" points="3006,-145.5 2917,-145.5 2917,-126.5 3006,-126.5 3006,-145.5"/>
<text text-anchor="middle" x="2961.5" y="-133.5" font-family="Helvetica,sans-Serif" font-size="10.00">mapplication.h</text>
</a>
</g>
</g>
<!-- Node1&#45;&gt;Node31 -->
<g id="edge38_Node000001_Node000031" class="edge">
<title>Node1&#45;&gt;Node31</title>
<g id="a_edge38_Node000001_Node000031"><a xlink:title=" ">
<path fill="none" stroke="#63b8ff" d="M2452.03,-192.76C2563,-188.46 2749.36,-177.65 2907.5,-151 2912.32,-150.19 2917.34,-149.15 2922.29,-148.01"/>
<polygon fill="#63b8ff" stroke="#63b8ff" points="2923.39,-151.34 2932.27,-145.56 2921.73,-144.55 2923.39,-151.34"/>
</a>
</g>
</g>
<!-- Node35 -->
<g id="Node000035" class="node">
<title>Node35</title>
<g id="a_Node000035"><a xlink:title=" ">
<polygon fill="#e0e0e0" stroke="#999999" points="3095,-145.5 3024,-145.5 3024,-126.5 3095,-126.5 3095,-145.5"/>
<text text-anchor="middle" x="3059.5" y="-133.5" font-family="Helvetica,sans-Serif" font-size="10.00">QClipboard</text>
</a>
</g>
</g>
<!-- Node1&#45;&gt;Node35 -->
<g id="edge44_Node000001_Node000035" class="edge">
<title>Node1&#45;&gt;Node35</title>
<g id="a_edge44_Node000001_Node000035"><a xlink:title=" ">
<path fill="none" stroke="#63b8ff" d="M2452.04,-196.23C2581.82,-195.54 2817.89,-188.52 3015.5,-151 3018.99,-150.34 3022.59,-149.48 3026.16,-148.53"/>
<polygon fill="#63b8ff" stroke="#63b8ff" points="3027.42,-151.81 3036.02,-145.62 3025.44,-145.09 3027.42,-151.81"/>
</a>
</g>
</g>
<!-- Node36 -->
<g id="Node000036" class="node">
<title>Node36</title>
<g id="a_Node000036"><a xlink:title=" ">
<polygon fill="#e0e0e0" stroke="#999999" points="3190,-145.5 3113,-145.5 3113,-126.5 3190,-126.5 3190,-145.5"/>
<text text-anchor="middle" x="3151.5" y="-133.5" font-family="Helvetica,sans-Serif" font-size="10.00">QComboBox</text>
</a>
</g>
</g>
<!-- Node1&#45;&gt;Node36 -->
<g id="edge45_Node000001_Node000036" class="edge">
<title>Node1&#45;&gt;Node36</title>
<g id="a_edge45_Node000001_Node000036"><a xlink:title=" ">
<path fill="none" stroke="#63b8ff" d="M2452.3,-192.5C2626.11,-186.69 2982.06,-172.57 3104.5,-151 3108.44,-150.31 3112.52,-149.39 3116.56,-148.37"/>
<polygon fill="#63b8ff" stroke="#63b8ff" points="3117.69,-151.69 3126.39,-145.64 3115.82,-144.94 3117.69,-151.69"/>
</a>
</g>
</g>
<!-- Node37 -->
<g id="Node000037" class="node">
<title>Node37</title>
<g id="a_Node000037"><a xlink:title=" ">
<polygon fill="#e0e0e0" stroke="#999999" points="3281,-145.5 3208,-145.5 3208,-126.5 3281,-126.5 3281,-145.5"/>
<text text-anchor="middle" x="3244.5" y="-133.5" font-family="Helvetica,sans-Serif" font-size="10.00">QFileDialog</text>
</a>
</g>
</g>
<!-- Node1&#45;&gt;Node37 -->
<g id="edge46_Node000001_Node000037" class="edge">
<title>Node1&#45;&gt;Node37</title>
<g id="a_edge46_Node000001_Node000037"><a xlink:title=" ">
<path fill="none" stroke="#63b8ff" d="M2452.29,-193.41C2643.09,-188.81 3058.69,-176.2 3199.5,-151 3203.38,-150.31 3207.38,-149.38 3211.34,-148.33"/>
<polygon fill="#63b8ff" stroke="#63b8ff" points="3212.33,-151.69 3220.95,-145.54 3210.37,-144.97 3212.33,-151.69"/>
</a>
</g>
</g>
<!-- Node38 -->
<g id="Node000038" class="node">
<title>Node38</title>
<g id="a_Node000038"><a xlink:title=" ">
<polygon fill="#e0e0e0" stroke="#999999" points="3359.5,-145.5 3299.5,-145.5 3299.5,-126.5 3359.5,-126.5 3359.5,-145.5"/>
<text text-anchor="middle" x="3329.5" y="-133.5" font-family="Helvetica,sans-Serif" font-size="10.00">QFileInfo</text>
</a>
</g>
</g>
<!-- Node1&#45;&gt;Node38 -->
<g id="edge47_Node000001_Node000038" class="edge">
<title>Node1&#45;&gt;Node38</title>
<g id="a_edge47_Node000001_Node000038"><a xlink:title=" ">
<path fill="none" stroke="#63b8ff" d="M2452.15,-194.52C2658.4,-191.85 3132.43,-182.4 3290.5,-151 3293.51,-150.4 3296.59,-149.62 3299.65,-148.72"/>
<polygon fill="#63b8ff" stroke="#63b8ff" points="3300.78,-152.03 3309.18,-145.58 3298.59,-145.39 3300.78,-152.03"/>
</a>
</g>
</g>
<!-- Node39 -->
<g id="Node000039" class="node">
<title>Node39</title>
<g id="a_Node000039"><a xlink:title=" ">
<polygon fill="#e0e0e0" stroke="#999999" points="3427.5,-145.5 3377.5,-145.5 3377.5,-126.5 3427.5,-126.5 3427.5,-145.5"/>
<text text-anchor="middle" x="3402.5" y="-133.5" font-family="Helvetica,sans-Serif" font-size="10.00">QLabel</text>
</a>
</g>
</g>
<!-- Node1&#45;&gt;Node39 -->
<g id="edge48_Node000001_Node000039" class="edge">
<title>Node1&#45;&gt;Node39</title>
<g id="a_edge48_Node000001_Node000039"><a xlink:title=" ">
<path fill="none" stroke="#63b8ff" d="M2452.08,-195.5C2671.06,-194.81 3195.89,-189.1 3368.5,-151 3370.73,-150.51 3373,-149.88 3375.25,-149.16"/>
<polygon fill="#63b8ff" stroke="#63b8ff" points="3376.71,-152.36 3384.88,-145.61 3374.28,-145.79 3376.71,-152.36"/>
</a>
</g>
</g>
<!-- Node40 -->
<g id="Node000040" class="node">
<title>Node40</title>
<g id="a_Node000040"><a xlink:title=" ">
<polygon fill="#e0e0e0" stroke="#999999" points="3531.5,-145.5 3445.5,-145.5 3445.5,-126.5 3531.5,-126.5 3531.5,-145.5"/>
<text text-anchor="middle" x="3488.5" y="-133.5" font-family="Helvetica,sans-Serif" font-size="10.00">QMessageBox</text>
</a>
</g>
</g>
<!-- Node1&#45;&gt;Node40 -->
<g id="edge49_Node000001_Node000040" class="edge">
<title>Node1&#45;&gt;Node40</title>
<g id="a_edge49_Node000001_Node000040"><a xlink:title=" ">
<path fill="none" stroke="#63b8ff" d="M2452.29,-194.25C2681.54,-190.88 3248.46,-179.81 3436.5,-151 3441.33,-150.26 3446.35,-149.24 3451.29,-148.08"/>
<polygon fill="#63b8ff" stroke="#63b8ff" points="3452.38,-151.42 3461.22,-145.56 3450.66,-144.63 3452.38,-151.42"/>
</a>
</g>
</g>
<!-- Node41 -->
<g id="Node000041" class="node">
<title>Node41</title>
<g id="a_Node000041"><a xlink:title=" ">
<polygon fill="#e0e0e0" stroke="#999999" points="3605.5,-145.5 3549.5,-145.5 3549.5,-126.5 3605.5,-126.5 3605.5,-145.5"/>
<text text-anchor="middle" x="3577.5" y="-133.5" font-family="Helvetica,sans-Serif" font-size="10.00">QPrinter</text>
</a>
</g>
</g>
<!-- Node1&#45;&gt;Node41 -->
<g id="edge50_Node000001_Node000041" class="edge">
<title>Node1&#45;&gt;Node41</title>
<g id="a_edge50_Node000001_Node000041"><a xlink:title=" ">
<path fill="none" stroke="#63b8ff" d="M2452.31,-195.89C2697.5,-196.22 3333.49,-192.88 3540.5,-151 3543.18,-150.46 3545.93,-149.74 3548.65,-148.93"/>
<polygon fill="#63b8ff" stroke="#63b8ff" points="3549.94,-152.18 3558.26,-145.63 3547.67,-145.56 3549.94,-152.18"/>
</a>
</g>
</g>
<!-- Node42 -->
<g id="Node000042" class="node">
<title>Node42</title>
<g id="a_Node000042"><a xlink:title=" ">
<polygon fill="#e0e0e0" stroke="#999999" points="3741,-145.5 3624,-145.5 3624,-126.5 3741,-126.5 3741,-145.5"/>
<text text-anchor="middle" x="3682.5" y="-133.5" font-family="Helvetica,sans-Serif" font-size="10.00">QPrintPreviewDialog</text>
</a>
</g>
</g>
<!-- Node1&#45;&gt;Node42 -->
<g id="edge51_Node000001_Node000042" class="edge">
<title>Node1&#45;&gt;Node42</title>
<g id="a_edge51_Node000001_Node000042"><a xlink:title=" ">
<path fill="none" stroke="#63b8ff" d="M2452.44,-194.17C2707.88,-190.35 3390.1,-177.87 3614.5,-151 3621.74,-150.13 3629.36,-148.89 3636.77,-147.51"/>
<polygon fill="#63b8ff" stroke="#63b8ff" points="3637.56,-150.92 3646.69,-145.55 3636.2,-144.05 3637.56,-150.92"/>
</a>
</g>
</g>
<!-- Node43 -->
<g id="Node000043" class="node">
<title>Node43</title>
<g id="a_Node000043"><a xlink:title=" ">
<polygon fill="#e0e0e0" stroke="#999999" points="3821.5,-145.5 3759.5,-145.5 3759.5,-126.5 3821.5,-126.5 3821.5,-145.5"/>
<text text-anchor="middle" x="3790.5" y="-133.5" font-family="Helvetica,sans-Serif" font-size="10.00">QProcess</text>
</a>
</g>
</g>
<!-- Node1&#45;&gt;Node43 -->
<g id="edge52_Node000001_Node000043" class="edge">
<title>Node1&#45;&gt;Node43</title>
<g id="a_edge52_Node000001_Node000043"><a xlink:title=" ">
<path fill="none" stroke="#63b8ff" d="M2452.06,-194.11C2748.16,-189.64 3624.05,-174.57 3750.5,-151 3753.58,-150.43 3756.75,-149.65 3759.88,-148.77"/>
<polygon fill="#63b8ff" stroke="#63b8ff" points="3761.2,-152.02 3769.65,-145.64 3759.06,-145.35 3761.2,-152.02"/>
</a>
</g>
</g>
<!-- Node44 -->
<g id="Node000044" class="node">
<title>Node44</title>
<g id="a_Node000044"><a xlink:title=" ">
<polygon fill="#e0e0e0" stroke="#999999" points="3913.5,-145.5 3839.5,-145.5 3839.5,-126.5 3913.5,-126.5 3913.5,-145.5"/>
<text text-anchor="middle" x="3876.5" y="-133.5" font-family="Helvetica,sans-Serif" font-size="10.00">QTextCodec</text>
</a>
</g>
</g>
<!-- Node1&#45;&gt;Node44 -->
<g id="edge53_Node000001_Node000044" class="edge">
<title>Node1&#45;&gt;Node44</title>
<g id="a_edge53_Node000001_Node000044"><a xlink:title=" ">
<path fill="none" stroke="#63b8ff" d="M2452.06,-195.93C2736.92,-196.63 3564.08,-194.76 3830.5,-151 3834.46,-150.35 3838.56,-149.45 3842.61,-148.41"/>
<polygon fill="#63b8ff" stroke="#63b8ff" points="3843.76,-151.72 3852.44,-145.64 3841.86,-144.99 3843.76,-151.72"/>
</a>
</g>
</g>
<!-- Node45 -->
<g id="Node000045" class="node">
<title>Node45</title>
<g id="a_Node000045"><a xlink:title=" ">
<polygon fill="#e0e0e0" stroke="#999999" points="4001,-145.5 3932,-145.5 3932,-126.5 4001,-126.5 4001,-145.5"/>
<text text-anchor="middle" x="3966.5" y="-133.5" font-family="Helvetica,sans-Serif" font-size="10.00">QtNumeric</text>
</a>
</g>
</g>
<!-- Node1&#45;&gt;Node45 -->
<g id="edge54_Node000001_Node000045" class="edge">
<title>Node1&#45;&gt;Node45</title>
<g id="a_edge54_Node000001_Node000045"><a xlink:title=" ">
<path fill="none" stroke="#63b8ff" d="M2452.01,-194.32C2772.06,-190.21 3778.31,-175.49 3922.5,-151 3926.39,-150.34 3930.41,-149.42 3934.37,-148.35"/>
<polygon fill="#63b8ff" stroke="#63b8ff" points="3935.37,-151.71 3943.96,-145.5 3933.38,-145 3935.37,-151.71"/>
</a>
</g>
</g>
<!-- Node3 -->
<g id="Node000003" class="node">
<title>Node3</title>
<g id="a_Node000003"><a xlink:title=" ">
<polygon fill="#e0e0e0" stroke="#999999" points="430.5,-79.5 346.5,-79.5 346.5,-60.5 430.5,-60.5 430.5,-79.5"/>
<text text-anchor="middle" x="388.5" y="-67.5" font-family="Helvetica,sans-Serif" font-size="10.00">QTableWidget</text>
</a>
</g>
</g>
<!-- Node2&#45;&gt;Node3 -->
<g id="edge2_Node000002_Node000003" class="edge">
<title>Node2&#45;&gt;Node3</title>
<g id="a_edge2_Node000002_Node000003"><a xlink:title=" ">
<path fill="none" stroke="#63b8ff" d="M569.31,-126.37C532.36,-115.05 467.41,-95.16 426.24,-82.56"/>
<polygon fill="#63b8ff" stroke="#63b8ff" points="427.16,-79.18 416.57,-79.6 425.11,-85.87 427.16,-79.18"/>
</a>
</g>
</g>
<!-- Node4 -->
<g id="Node000004" class="node">
<title>Node4</title>
<g id="a_Node000004"><a xlink:title=" ">
<polygon fill="#e0e0e0" stroke="#999999" points="1030.5,-79.5 948.5,-79.5 948.5,-60.5 1030.5,-60.5 1030.5,-79.5"/>
<text text-anchor="middle" x="989.5" y="-67.5" font-family="Helvetica,sans-Serif" font-size="10.00">../vmisc/def.h</text>
</a>
</g>
</g>
<!-- Node2&#45;&gt;Node4 -->
<g id="edge3_Node000002_Node000004" class="edge">
<title>Node2&#45;&gt;Node4</title>
<g id="a_edge3_Node000002_Node000004"><a xlink:title=" ">
<path fill="none" stroke="#63b8ff" d="M643.23,-127.53C716.97,-115.49 861.63,-91.88 938.56,-79.32"/>
<polygon fill="#63b8ff" stroke="#63b8ff" points="939.19,-82.76 948.5,-77.69 938.06,-75.85 939.19,-82.76"/>
</a>
</g>
</g>
<!-- Node2&#45;&gt;Node5 -->
<g id="edge4_Node000002_Node000005" class="edge">
<title>Node2&#45;&gt;Node5</title>
<g id="a_edge4_Node000002_Node000005"><a xlink:title=" ">
<path fill="none" stroke="#63b8ff" d="M551.81,-131.55C467.86,-124.89 283.54,-108.8 129.5,-85 123.08,-84.01 116.35,-82.82 109.72,-81.57"/>
<polygon fill="#63b8ff" stroke="#63b8ff" points="109.92,-78.04 99.43,-79.56 108.57,-84.91 109.92,-78.04"/>
</a>
</g>
</g>
<!-- Node6 -->
<g id="Node000006" class="node">
<title>Node6</title>
<g id="a_Node000006"><a xlink:title=" ">
<polygon fill="#e0e0e0" stroke="#999999" points="604.5,-79.5 448.5,-79.5 448.5,-60.5 604.5,-60.5 604.5,-79.5"/>
<text text-anchor="middle" x="526.5" y="-67.5" font-family="Helvetica,sans-Serif" font-size="10.00">../vformat/vmeasurements.h</text>
</a>
</g>
</g>
<!-- Node2&#45;&gt;Node6 -->
<g id="edge5_Node000002_Node000006" class="edge">
<title>Node2&#45;&gt;Node6</title>
<g id="a_edge5_Node000002_Node000006"><a xlink:title=" ">
<path fill="none" stroke="#63b8ff" d="M587.92,-126.37C576.66,-116.21 557.74,-99.16 543.87,-86.65"/>
<polygon fill="#63b8ff" stroke="#63b8ff" points="546.15,-84 536.38,-79.91 541.46,-89.2 546.15,-84"/>
</a>
</g>
</g>
<!-- Node7 -->
<g id="Node000007" class="node">
<title>Node7</title>
<g id="a_Node000007"><a xlink:title=" ">
<polygon fill="#e0e0e0" stroke="#999999" points="752.5,-79.5 622.5,-79.5 622.5,-60.5 752.5,-60.5 752.5,-79.5"/>
<text text-anchor="middle" x="687.5" y="-67.5" font-family="Helvetica,sans-Serif" font-size="10.00">../vmisc/vtablesearch.h</text>
</a>
</g>
</g>
<!-- Node2&#45;&gt;Node7 -->
<g id="edge6_Node000002_Node000007" class="edge">
<title>Node2&#45;&gt;Node7</title>
<g id="a_edge6_Node000002_Node000007"><a xlink:title=" ">
<path fill="none" stroke="#63b8ff" d="M609.64,-126.37C624.27,-115.97 649.08,-98.32 666.76,-85.75"/>
<polygon fill="#63b8ff" stroke="#63b8ff" points="669.15,-88.35 675.27,-79.7 665.09,-82.64 669.15,-88.35"/>
</a>
</g>
</g>
<!-- Node8 -->
<g id="Node000008" class="node">
<title>Node8</title>
<g id="a_Node000008"><a xlink:title=" ">
<polygon fill="#e0e0e0" stroke="#999999" points="328,-79.5 139,-79.5 139,-60.5 328,-60.5 328,-79.5"/>
<text text-anchor="middle" x="233.5" y="-67.5" font-family="Helvetica,sans-Serif" font-size="10.00">../vwidgets/vabstractmainwindow.h</text>
</a>
</g>
</g>
<!-- Node2&#45;&gt;Node8 -->
<g id="edge7_Node000002_Node000008" class="edge">
<title>Node2&#45;&gt;Node8</title>
<g id="a_edge7_Node000002_Node000008"><a xlink:title=" ">
<path fill="none" stroke="#63b8ff" d="M551.77,-126.96C485.84,-115.37 364.1,-93.96 291.8,-81.25"/>
<polygon fill="#63b8ff" stroke="#63b8ff" points="292.39,-77.8 281.94,-79.52 291.18,-84.7 292.39,-77.8"/>
</a>
</g>
</g>
<!-- Node2&#45;&gt;Node9 -->
<g id="edge8_Node000002_Node000009" class="edge">
<title>Node2&#45;&gt;Node9</title>
<g id="a_edge8_Node000002_Node000009"><a xlink:title=" ">
<path fill="none" stroke="#63b8ff" d="M629.06,-126.37C665.09,-116.51 724.88,-100.16 770.17,-87.77"/>
<polygon fill="#63b8ff" stroke="#63b8ff" points="771.17,-91.13 779.89,-85.12 769.32,-84.38 771.17,-91.13"/>
</a>
</g>
</g>
<!-- Node10 -->
<g id="Node000010" class="node">
<title>Node10</title>
<g id="a_Node000010"><a xlink:title=" ">
<polygon fill="#e0e0e0" stroke="#999999" points="1266.5,-19 1210.5,-19 1210.5,0 1266.5,0 1266.5,-19"/>
<text text-anchor="middle" x="1238.5" y="-7" font-family="Helvetica,sans-Serif" font-size="10.00">QDialog</text>
</a>
</g>
</g>
<!-- Node9&#45;&gt;Node10 -->
<g id="edge9_Node000009_Node000010" class="edge">
<title>Node9&#45;&gt;Node10</title>
<g id="a_edge9_Node000009_Node000010"><a xlink:title=" ">
<path fill="none" stroke="#63b8ff" d="M892.04,-57.42C896.92,-56.57 901.79,-55.75 906.5,-55 1012.62,-37.99 1138.54,-22.35 1200.37,-14.96"/>
<polygon fill="#63b8ff" stroke="#63b8ff" points="1200.93,-18.42 1210.45,-13.77 1200.1,-11.47 1200.93,-18.42"/>
</a>
</g>
</g>
<!-- Node12&#45;&gt;Node10 -->
<g id="edge12_Node000012_Node000010" class="edge">
<title>Node12&#45;&gt;Node10</title>
<g id="a_edge12_Node000012_Node000010"><a xlink:title=" ">
<path fill="none" stroke="#63b8ff" d="M1150.7,-60.37C1167.51,-50.82 1194.82,-35.31 1214.52,-24.12"/>
<polygon fill="#63b8ff" stroke="#63b8ff" points="1216.27,-27.15 1223.24,-19.17 1212.82,-21.06 1216.27,-27.15"/>
</a>
</g>
</g>
<!-- Node13&#45;&gt;Node4 -->
<g id="edge15_Node000013_Node000004" class="edge">
<title>Node13&#45;&gt;Node4</title>
<g id="a_edge15_Node000013_Node000004"><a xlink:title=" ">
<path fill="none" stroke="#63b8ff" d="M989.5,-126.37C989.5,-117.16 989.5,-102.29 989.5,-90.27"/>
<polygon fill="#63b8ff" stroke="#63b8ff" points="993,-89.91 989.5,-79.91 986,-89.91 993,-89.91"/>
</a>
</g>
</g>
<!-- Node13&#45;&gt;Node10 -->
<g id="edge14_Node000013_Node000010" class="edge">
<title>Node13&#45;&gt;Node10</title>
<g id="a_edge14_Node000013_Node000010"><a xlink:title=" ">
<path fill="none" stroke="#63b8ff" d="M977.19,-126.49C956.56,-111.22 919.18,-78.57 939.5,-55 972.74,-16.45 1127.25,-10.77 1200.19,-10.28"/>
<polygon fill="#63b8ff" stroke="#63b8ff" points="1200.35,-13.78 1210.33,-10.24 1200.32,-6.78 1200.35,-13.78"/>
</a>
</g>
</g>
<!-- Node14&#45;&gt;Node10 -->
<g id="edge17_Node000014_Node000010" class="edge">
<title>Node14&#45;&gt;Node10</title>
<g id="a_edge17_Node000014_Node000010"><a xlink:title=" ">
<path fill="none" stroke="#63b8ff" d="M1655.7,-60.45C1644.18,-58.55 1631.92,-56.62 1620.5,-55 1495.05,-37.25 1345.69,-21.36 1276.8,-14.33"/>
<polygon fill="#63b8ff" stroke="#63b8ff" points="1277.14,-10.85 1266.84,-13.32 1276.43,-17.81 1277.14,-10.85"/>
</a>
</g>
</g>
<!-- Node15&#45;&gt;Node10 -->
<g id="edge19_Node000015_Node000010" class="edge">
<title>Node15&#45;&gt;Node10</title>
<g id="a_edge19_Node000015_Node000010"><a xlink:title=" ">
<path fill="none" stroke="#63b8ff" d="M1326.3,-60.37C1309.49,-50.82 1282.18,-35.31 1262.48,-24.12"/>
<polygon fill="#63b8ff" stroke="#63b8ff" points="1264.18,-21.06 1253.76,-19.17 1260.73,-27.15 1264.18,-21.06"/>
</a>
</g>
</g>
<!-- Node16&#45;&gt;Node10 -->
<g id="edge21_Node000016_Node000010" class="edge">
<title>Node16&#45;&gt;Node10</title>
<g id="a_edge21_Node000016_Node000010"><a xlink:title=" ">
<path fill="none" stroke="#63b8ff" d="M1493.17,-60.49C1434.93,-49.06 1332.33,-28.92 1276.8,-18.02"/>
<polygon fill="#63b8ff" stroke="#63b8ff" points="1277.16,-14.52 1266.67,-16.03 1275.81,-21.39 1277.16,-14.52"/>
</a>
</g>
</g>
<!-- Node26 -->
<g id="Node000026" class="node">
<title>Node26</title>
<g id="a_Node000026"><a xlink:title=" ">
<polygon fill="#e0e0e0" stroke="#999999" points="2555.5,-79.5 2403.5,-79.5 2403.5,-60.5 2555.5,-60.5 2555.5,-79.5"/>
<text text-anchor="middle" x="2479.5" y="-67.5" font-family="Helvetica,sans-Serif" font-size="10.00">../ifc/xml/vabstractpattern.h</text>
</a>
</g>
</g>
<!-- Node25&#45;&gt;Node26 -->
<g id="edge33_Node000025_Node000026" class="edge">
<title>Node25&#45;&gt;Node26</title>
<g id="a_edge33_Node000025_Node000026"><a xlink:title=" ">
<path fill="none" stroke="#63b8ff" d="M2479.5,-126.37C2479.5,-117.16 2479.5,-102.29 2479.5,-90.27"/>
<polygon fill="#63b8ff" stroke="#63b8ff" points="2483,-89.91 2479.5,-79.91 2476,-89.91 2483,-89.91"/>
</a>
</g>
</g>
<!-- Node30 -->
<g id="Node000030" class="node">
<title>Node30</title>
<g id="a_Node000030"><a xlink:href="../../dc/d73/projectversion_8h.html" target="_top" xlink:title=" ">
<polygon fill="white" stroke="#666666" points="2800.5,-79.5 2634.5,-79.5 2634.5,-60.5 2800.5,-60.5 2800.5,-79.5"/>
<text text-anchor="middle" x="2717.5" y="-67.5" font-family="Helvetica,sans-Serif" font-size="10.00">../../libs/vmisc/projectversion.h</text>
</a>
</g>
</g>
<!-- Node29&#45;&gt;Node30 -->
<g id="edge37_Node000029_Node000030" class="edge">
<title>Node29&#45;&gt;Node30</title>
<g id="a_edge37_Node000029_Node000030"><a xlink:title=" ">
<path fill="none" stroke="#63b8ff" d="M2847.27,-126.37C2821.55,-115.39 2776.93,-96.36 2747.31,-83.72"/>
<polygon fill="#63b8ff" stroke="#63b8ff" points="2748.46,-80.4 2737.89,-79.7 2745.71,-86.84 2748.46,-80.4"/>
</a>
</g>
</g>
<!-- Node31&#45;&gt;Node4 -->
<g id="edge40_Node000031_Node000004" class="edge">
<title>Node31&#45;&gt;Node4</title>
<g id="a_edge40_Node000031_Node000004"><a xlink:title=" ">
<path fill="none" stroke="#63b8ff" d="M2933.72,-126.47C2925.37,-124.27 2916.14,-122.19 2907.5,-121 2496.17,-64.51 1450.26,-145.46 1039.5,-85 1034.73,-84.3 1029.78,-83.28 1024.92,-82.11"/>
<polygon fill="#63b8ff" stroke="#63b8ff" points="1025.74,-78.7 1015.18,-79.54 1023.96,-85.47 1025.74,-78.7"/>
</a>
</g>
</g>
<!-- Node31&#45;&gt;Node14 -->
<g id="edge43_Node000031_Node000014" class="edge">
<title>Node31&#45;&gt;Node14</title>
<g id="a_edge43_Node000031_Node000014"><a xlink:title=" ">
<path fill="none" stroke="#63b8ff" d="M2933.15,-126.45C2924.95,-124.3 2915.93,-122.25 2907.5,-121 2691.42,-88.87 2026.23,-75.88 1789.35,-72.19"/>
<polygon fill="#63b8ff" stroke="#63b8ff" points="1789.12,-68.68 1779.07,-72.03 1789.02,-75.68 1789.12,-68.68"/>
</a>
</g>
</g>
<!-- Node32 -->
<g id="Node000032" class="node">
<title>Node32</title>
<g id="a_Node000032"><a xlink:title=" ">
<polygon fill="#e0e0e0" stroke="#999999" points="2980,-79.5 2819,-79.5 2819,-60.5 2980,-60.5 2980,-79.5"/>
<text text-anchor="middle" x="2899.5" y="-67.5" font-family="Helvetica,sans-Serif" font-size="10.00">../vpatterndb/vtranslatevars.h</text>
</a>
</g>
</g>
<!-- Node31&#45;&gt;Node32 -->
<g id="edge39_Node000031_Node000032" class="edge">
<title>Node31&#45;&gt;Node32</title>
<g id="a_edge39_Node000031_Node000032"><a xlink:title=" ">
<path fill="none" stroke="#63b8ff" d="M2953.14,-126.37C2943.49,-116.4 2927.39,-99.79 2915.35,-87.36"/>
<polygon fill="#63b8ff" stroke="#63b8ff" points="2917.6,-84.65 2908.13,-79.91 2912.57,-89.52 2917.6,-84.65"/>
</a>
</g>
</g>
<!-- Node33 -->
<g id="Node000033" class="node">
<title>Node33</title>
<g id="a_Node000033"><a xlink:title=" ">
<polygon fill="#e0e0e0" stroke="#999999" points="3162.5,-79.5 2998.5,-79.5 2998.5,-60.5 3162.5,-60.5 3162.5,-79.5"/>
<text text-anchor="middle" x="3080.5" y="-67.5" font-family="Helvetica,sans-Serif" font-size="10.00">../vmisc/vseamlymesettings.h</text>
</a>
</g>
</g>
<!-- Node31&#45;&gt;Node33 -->
<g id="edge41_Node000031_Node000033" class="edge">
<title>Node31&#45;&gt;Node33</title>
<g id="a_edge41_Node000031_Node000033"><a xlink:title=" ">
<path fill="none" stroke="#63b8ff" d="M2977.55,-126.37C2997.51,-115.63 3031.82,-97.18 3055.3,-84.55"/>
<polygon fill="#63b8ff" stroke="#63b8ff" points="3057.18,-87.52 3064.33,-79.7 3053.86,-81.35 3057.18,-87.52"/>
</a>
</g>
</g>
<!-- Node34 -->
<g id="Node000034" class="node">
<title>Node34</title>
<g id="a_Node000034"><a xlink:title=" ">
<polygon fill="#e0e0e0" stroke="#999999" points="3348,-79.5 3181,-79.5 3181,-60.5 3348,-60.5 3348,-79.5"/>
<text text-anchor="middle" x="3264.5" y="-67.5" font-family="Helvetica,sans-Serif" font-size="10.00">../vmisc/vabstractapplication.h</text>
</a>
</g>
</g>
<!-- Node31&#45;&gt;Node34 -->
<g id="edge42_Node000031_Node000034" class="edge">
<title>Node31&#45;&gt;Node34</title>
<g id="a_edge42_Node000031_Node000034"><a xlink:title=" ">
<path fill="none" stroke="#63b8ff" d="M2993.12,-126.49C3000.45,-124.6 3008.23,-122.67 3015.5,-121 3081.23,-105.89 3157.31,-90.99 3207.9,-81.44"/>
<polygon fill="#63b8ff" stroke="#63b8ff" points="3208.8,-84.83 3217.98,-79.54 3207.51,-77.95 3208.8,-84.83"/>
</a>
</g>
</g>
</g>
</svg>

<g id="navigator" transform="translate(0 0)" fill="#404254">
  <rect fill="#f2f5e9" fill-opacity="0.5" stroke="#606060" stroke-width=".5" x="0" y="0" width="60" height="60"/>
  <use id="zoomplus" xlink:href="#zoomPlus" x="17" y="9" onmousedown="handleZoom(evt,'in')"/>
  <use id="zoomminus" xlink:href="#zoomMin" x="42" y="9" onmousedown="handleZoom(evt,'out')"/>
  <use id="reset" xlink:href="#resetDef" x="30" y="36" onmousedown="handleReset()"/>
   <use id="arrowup" xlink:href="#arrowUp" x="0" y="0" onmousedown="handlePan(0,-1)"/>
  <use id="arrowright" xlink:href="#arrowRight" x="0" y="0" onmousedown="handlePan(1,0)"/>
  <use id="arrowdown" xlink:href="#arrowDown" x="0" y="0" onmousedown="handlePan(0,1)"/>
  <use id="arrowleft" xlink:href="#arrowLeft" x="0" y="0" onmousedown="handlePan(-1,0)"/>
</g>
<svg viewBox="0 0 15 15" width="100%" height="30px" preserveAspectRatio="xMaxYMin meet">
 <g id="arrow_out" transform="scale(0.3 0.3)">
  <a xlink:href="tmainwindow_8cpp__incl_org.svg" target="_base">
   <rect id="button" ry="5" rx="5" y="6" x="6" height="38" width="38"
        fill="#f2f5e9" fill-opacity="0.5" stroke="#606060" stroke-width="1.0"/>
   <path id="arrow"
     d="M 11.500037,31.436501 C 11.940474,20.09759 22.043105,11.32322 32.158766,21.979434 L 37.068811,17.246167 C 37.068811,17.246167 37.088388,32 37.088388,32 L 22.160133,31.978069 C 22.160133,31.978069 26.997745,27.140456 26.997745,27.140456 C 18.528582,18.264221 13.291696,25.230495 11.500037,31.436501 z"
     style="fill:#404040;"/>
  </a>
 </g>
</svg>

<style type='text/css'>
<![CDATA[
[data-mouse-over-selected='false'] { opacity: 0.7; }
[data-mouse-over-selected='true']  { opacity: 1.0; }
]]>
</style>
<script type="application/ecmascript"><![CDATA[
document.addEventListener('DOMContentLoaded', (event) => {
  highlightEdges();
  highlightAdjacentNodes();
});
]]></script>
</svg>
