<?xml version="1.0" encoding="UTF-8" standalone="no"?>
<!DOCTYPE svg PUBLIC "-//W3C//DTD SVG 1.1//EN"
 "http://www.w3.org/Graphics/SVG/1.1/DTD/svg11.dtd">
<!-- Generated by graphviz version 2.43.0 (0)
 -->
<!-- Title: src/app/seamly2d/core/vapplication.h Pages: 1 -->
<svg width="4174pt" height="106pt"
 viewBox="0.00 0.00 4173.50 106.00" xmlns="http://www.w3.org/2000/svg" xmlns:xlink="http://www.w3.org/1999/xlink">
<g id="graph0" class="graph" transform="scale(1 1) rotate(0) translate(4 102)">
<title>src/app/seamly2d/core/vapplication.h</title>
<polygon fill="white" stroke="transparent" points="-4,4 -4,-102 4169.5,-102 4169.5,4 -4,4"/>
<!-- Node1 -->
<g id="node1" class="node">
<title>Node1</title>
<g id="a_node1"><a xlink:title=" ">
<polygon fill="#bfbfbf" stroke="black" points="2139,-67.5 2139,-97.5 2266,-97.5 2266,-67.5 2139,-67.5"/>
<text text-anchor="start" x="2147" y="-85.5" font-family="Helvetica,sans-Serif" font-size="10.00">src/app/seamly2d/core</text>
<text text-anchor="middle" x="2202.5" y="-74.5" font-family="Helvetica,sans-Serif" font-size="10.00">/vapplication.h</text>
</a>
</g>
</g>
<!-- Node2 -->
<g id="node2" class="node">
<title>Node2</title>
<g id="a_node2"><a xlink:href="../../d3/dd8/vapplication_8cpp.html" target="_top" xlink:title=" ">
<polygon fill="white" stroke="black" points="0,-0.5 0,-30.5 127,-30.5 127,-0.5 0,-0.5"/>
<text text-anchor="start" x="8" y="-18.5" font-family="Helvetica,sans-Serif" font-size="10.00">src/app/seamly2d/core</text>
<text text-anchor="middle" x="63.5" y="-7.5" font-family="Helvetica,sans-Serif" font-size="10.00">/vapplication.cpp</text>
</a>
</g>
</g>
<!-- Node1&#45;&gt;Node2 -->
<g id="edge1" class="edge">
<title>Node1&#45;&gt;Node2</title>
<path fill="none" stroke="midnightblue" d="M2128.74,-81.42C1808.09,-80.82 533.5,-75.59 135.5,-31 132.71,-30.69 129.87,-30.32 127.01,-29.91"/>
<polygon fill="midnightblue" stroke="midnightblue" points="2128.84,-84.92 2138.85,-81.44 2128.86,-77.92 2128.84,-84.92"/>
</g>
<!-- Node3 -->
<g id="node3" class="node">
<title>Node3</title>
<g id="a_node3"><a xlink:href="../../d7/dfa/calculator__dialog_8cpp.html" target="_top" xlink:title=" ">
<polygon fill="white" stroke="black" points="145,-0.5 145,-30.5 286,-30.5 286,-0.5 145,-0.5"/>
<text text-anchor="start" x="153" y="-18.5" font-family="Helvetica,sans-Serif" font-size="10.00">src/app/seamly2d/dialogs</text>
<text text-anchor="middle" x="215.5" y="-7.5" font-family="Helvetica,sans-Serif" font-size="10.00">/calculator_dialog.cpp</text>
</a>
</g>
</g>
<!-- Node1&#45;&gt;Node3 -->
<g id="edge2" class="edge">
<title>Node1&#45;&gt;Node3</title>
<path fill="none" stroke="midnightblue" d="M2128.73,-81.08C1823.7,-79.09 659.89,-69.14 294.5,-31 291.73,-30.71 288.9,-30.38 286.06,-30.01"/>
<polygon fill="midnightblue" stroke="midnightblue" points="2128.76,-84.58 2138.79,-81.14 2128.81,-77.58 2128.76,-84.58"/>
</g>
<!-- Node4 -->
<g id="node4" class="node">
<title>Node4</title>
<g id="a_node4"><a xlink:href="../../d2/d2d/preferencesconfigurationpage_8cpp.html" target="_top" xlink:title=" ">
<polygon fill="white" stroke="black" points="304,-0.5 304,-30.5 551,-30.5 551,-0.5 304,-0.5"/>
<text text-anchor="start" x="312" y="-18.5" font-family="Helvetica,sans-Serif" font-size="10.00">src/app/seamly2d/dialogs</text>
<text text-anchor="middle" x="427.5" y="-7.5" font-family="Helvetica,sans-Serif" font-size="10.00">/configpages/preferencesconfigurationpage.cpp</text>
</a>
</g>
</g>
<!-- Node1&#45;&gt;Node4 -->
<g id="edge3" class="edge">
<title>Node1&#45;&gt;Node4</title>
<path fill="none" stroke="midnightblue" d="M2128.65,-81.3C1897.05,-80.22 1164.39,-73.45 559.5,-31 556.74,-30.81 553.95,-30.6 551.14,-30.38"/>
<polygon fill="midnightblue" stroke="midnightblue" points="2128.96,-84.8 2138.97,-81.34 2128.99,-77.8 2128.96,-84.8"/>
</g>
<!-- Node5 -->
<g id="node5" class="node">
<title>Node5</title>
<g id="a_node5"><a xlink:href="../../dc/d20/preferencespathpage_8cpp.html" target="_top" xlink:title=" ">
<polygon fill="white" stroke="black" points="569,-0.5 569,-30.5 774,-30.5 774,-0.5 569,-0.5"/>
<text text-anchor="start" x="577" y="-18.5" font-family="Helvetica,sans-Serif" font-size="10.00">src/app/seamly2d/dialogs</text>
<text text-anchor="middle" x="671.5" y="-7.5" font-family="Helvetica,sans-Serif" font-size="10.00">/configpages/preferencespathpage.cpp</text>
</a>
</g>
</g>
<!-- Node1&#45;&gt;Node5 -->
<g id="edge4" class="edge">
<title>Node1&#45;&gt;Node5</title>
<path fill="none" stroke="midnightblue" d="M2128.72,-81.3C1918.28,-80.19 1297.15,-73.3 783.5,-31 780.47,-30.75 777.4,-30.48 774.3,-30.19"/>
<polygon fill="midnightblue" stroke="midnightblue" points="2128.71,-84.8 2138.73,-81.35 2128.75,-77.8 2128.71,-84.8"/>
</g>
<!-- Node6 -->
<g id="node6" class="node">
<title>Node6</title>
<g id="a_node6"><a xlink:href="../../d2/d00/vtooloptionspropertybrowser_8cpp.html" target="_top" xlink:title=" ">
<polygon fill="white" stroke="black" points="792.5,-0.5 792.5,-30.5 972.5,-30.5 972.5,-0.5 792.5,-0.5"/>
<text text-anchor="start" x="800.5" y="-18.5" font-family="Helvetica,sans-Serif" font-size="10.00">src/app/seamly2d/core</text>
<text text-anchor="middle" x="882.5" y="-7.5" font-family="Helvetica,sans-Serif" font-size="10.00">/vtooloptionspropertybrowser.cpp</text>
</a>
</g>
</g>
<!-- Node1&#45;&gt;Node6 -->
<g id="edge5" class="edge">
<title>Node1&#45;&gt;Node6</title>
<path fill="none" stroke="midnightblue" d="M2128.61,-81.12C1938.15,-79.56 1415.01,-71.6 981.5,-31 978.56,-30.72 975.57,-30.42 972.56,-30.1"/>
<polygon fill="midnightblue" stroke="midnightblue" points="2128.76,-84.62 2138.79,-81.2 2128.81,-77.62 2128.76,-84.62"/>
</g>
<!-- Node7 -->
<g id="node7" class="node">
<title>Node7</title>
<g id="a_node7"><a xlink:href="../../d9/d70/preferencesgraphicsviewpage_8cpp.html" target="_top" xlink:title=" ">
<polygon fill="white" stroke="black" points="990.5,-0.5 990.5,-30.5 1238.5,-30.5 1238.5,-0.5 990.5,-0.5"/>
<text text-anchor="start" x="998.5" y="-18.5" font-family="Helvetica,sans-Serif" font-size="10.00">src/app/seamly2d/dialogs</text>
<text text-anchor="middle" x="1114.5" y="-7.5" font-family="Helvetica,sans-Serif" font-size="10.00">/configpages/preferencesgraphicsviewpage.cpp</text>
</a>
</g>
</g>
<!-- Node1&#45;&gt;Node7 -->
<g id="edge6" class="edge">
<title>Node1&#45;&gt;Node7</title>
<path fill="none" stroke="midnightblue" d="M2128.77,-79C1968.34,-73.26 1575.62,-57.54 1247.5,-31 1244.61,-30.77 1241.68,-30.52 1238.73,-30.26"/>
<polygon fill="midnightblue" stroke="midnightblue" points="2128.88,-82.51 2139,-79.37 2129.13,-75.51 2128.88,-82.51"/>
</g>
<!-- Node8 -->
<g id="node8" class="node">
<title>Node8</title>
<g id="a_node8"><a xlink:href="../../dd/dc2/decimalchart__dialog_8cpp.html" target="_top" xlink:title=" ">
<polygon fill="white" stroke="black" points="1257,-0.5 1257,-30.5 1398,-30.5 1398,-0.5 1257,-0.5"/>
<text text-anchor="start" x="1265" y="-18.5" font-family="Helvetica,sans-Serif" font-size="10.00">src/app/seamly2d/dialogs</text>
<text text-anchor="middle" x="1327.5" y="-7.5" font-family="Helvetica,sans-Serif" font-size="10.00">/decimalchart_dialog.cpp</text>
</a>
</g>
</g>
<!-- Node1&#45;&gt;Node8 -->
<g id="edge7" class="edge">
<title>Node1&#45;&gt;Node8</title>
<path fill="none" stroke="midnightblue" d="M2128.66,-79.67C1987.91,-75.54 1671.68,-63.22 1407.5,-31 1404.42,-30.62 1401.27,-30.21 1398.1,-29.75"/>
<polygon fill="midnightblue" stroke="midnightblue" points="2128.8,-83.17 2138.89,-79.96 2129,-76.17 2128.8,-83.17"/>
</g>
<!-- Node9 -->
<g id="node9" class="node">
<title>Node9</title>
<g id="a_node9"><a xlink:href="../../dc/d63/preferencespatternpage_8cpp.html" target="_top" xlink:title=" ">
<polygon fill="white" stroke="black" points="1416.5,-0.5 1416.5,-30.5 1634.5,-30.5 1634.5,-0.5 1416.5,-0.5"/>
<text text-anchor="start" x="1424.5" y="-18.5" font-family="Helvetica,sans-Serif" font-size="10.00">src/app/seamly2d/dialogs</text>
<text text-anchor="middle" x="1525.5" y="-7.5" font-family="Helvetica,sans-Serif" font-size="10.00">/configpages/preferencespatternpage.cpp</text>
</a>
</g>
</g>
<!-- Node1&#45;&gt;Node9 -->
<g id="edge8" class="edge">
<title>Node1&#45;&gt;Node9</title>
<path fill="none" stroke="midnightblue" d="M2128.67,-75.59C2021.63,-66.85 1817.15,-49.51 1643.5,-31 1640.63,-30.69 1637.71,-30.38 1634.78,-30.05"/>
<polygon fill="midnightblue" stroke="midnightblue" points="2128.47,-79.09 2138.72,-76.41 2129.04,-72.11 2128.47,-79.09"/>
</g>
<!-- Node10 -->
<g id="node10" class="node">
<title>Node10</title>
<g id="a_node10"><a xlink:href="../../dd/d64/dialogaboutapp_8cpp.html" target="_top" xlink:title=" ">
<polygon fill="white" stroke="black" points="1653,-0.5 1653,-30.5 1794,-30.5 1794,-0.5 1653,-0.5"/>
<text text-anchor="start" x="1661" y="-18.5" font-family="Helvetica,sans-Serif" font-size="10.00">src/app/seamly2d/dialogs</text>
<text text-anchor="middle" x="1723.5" y="-7.5" font-family="Helvetica,sans-Serif" font-size="10.00">/dialogaboutapp.cpp</text>
</a>
</g>
</g>
<!-- Node1&#45;&gt;Node10 -->
<g id="edge9" class="edge">
<title>Node1&#45;&gt;Node10</title>
<path fill="none" stroke="midnightblue" d="M2128.94,-73.46C2048.56,-64.39 1916.1,-48.58 1802.5,-31 1799.74,-30.57 1796.94,-30.13 1794.1,-29.66"/>
<polygon fill="midnightblue" stroke="midnightblue" points="2128.63,-76.95 2138.96,-74.59 2129.41,-69.99 2128.63,-76.95"/>
</g>
<!-- Node11 -->
<g id="node11" class="node">
<title>Node11</title>
<g id="a_node11"><a xlink:href="../../d6/d89/dialoglayoutprogress_8cpp.html" target="_top" xlink:title=" ">
<polygon fill="white" stroke="black" points="1812,-0.5 1812,-30.5 1955,-30.5 1955,-0.5 1812,-0.5"/>
<text text-anchor="start" x="1820" y="-18.5" font-family="Helvetica,sans-Serif" font-size="10.00">src/app/seamly2d/dialogs</text>
<text text-anchor="middle" x="1883.5" y="-7.5" font-family="Helvetica,sans-Serif" font-size="10.00">/dialoglayoutprogress.cpp</text>
</a>
</g>
</g>
<!-- Node1&#45;&gt;Node11 -->
<g id="edge10" class="edge">
<title>Node1&#45;&gt;Node11</title>
<path fill="none" stroke="midnightblue" d="M2128.68,-66.46C2075.55,-55.63 2004.39,-41.13 1952.43,-30.54"/>
<polygon fill="midnightblue" stroke="midnightblue" points="2128.21,-69.94 2138.71,-68.5 2129.61,-63.08 2128.21,-69.94"/>
</g>
<!-- Node12 -->
<g id="node12" class="node">
<title>Node12</title>
<g id="a_node12"><a xlink:href="../../db/def/dialoglayoutsettings_8cpp.html" target="_top" xlink:title=" ">
<polygon fill="white" stroke="black" points="1973,-0.5 1973,-30.5 2114,-30.5 2114,-0.5 1973,-0.5"/>
<text text-anchor="start" x="1981" y="-18.5" font-family="Helvetica,sans-Serif" font-size="10.00">src/app/seamly2d/dialogs</text>
<text text-anchor="middle" x="2043.5" y="-7.5" font-family="Helvetica,sans-Serif" font-size="10.00">/dialoglayoutsettings.cpp</text>
</a>
</g>
</g>
<!-- Node1&#45;&gt;Node12 -->
<g id="edge11" class="edge">
<title>Node1&#45;&gt;Node12</title>
<path fill="none" stroke="midnightblue" d="M2158.58,-63.54C2133.13,-53.14 2101.57,-40.24 2077.93,-30.58"/>
<polygon fill="midnightblue" stroke="midnightblue" points="2157.42,-66.85 2168,-67.4 2160.07,-60.37 2157.42,-66.85"/>
</g>
<!-- Node13 -->
<g id="node13" class="node">
<title>Node13</title>
<g id="a_node13"><a xlink:href="../../de/d87/dialognewpattern_8cpp.html" target="_top" xlink:title=" ">
<polygon fill="white" stroke="black" points="2132,-0.5 2132,-30.5 2273,-30.5 2273,-0.5 2132,-0.5"/>
<text text-anchor="start" x="2140" y="-18.5" font-family="Helvetica,sans-Serif" font-size="10.00">src/app/seamly2d/dialogs</text>
<text text-anchor="middle" x="2202.5" y="-7.5" font-family="Helvetica,sans-Serif" font-size="10.00">/dialognewpattern.cpp</text>
</a>
</g>
</g>
<!-- Node1&#45;&gt;Node13 -->
<g id="edge12" class="edge">
<title>Node1&#45;&gt;Node13</title>
<path fill="none" stroke="midnightblue" d="M2202.5,-57.11C2202.5,-48.15 2202.5,-38.32 2202.5,-30.58"/>
<polygon fill="midnightblue" stroke="midnightblue" points="2199,-57.4 2202.5,-67.4 2206,-57.4 2199,-57.4"/>
</g>
<!-- Node14 -->
<g id="node14" class="node">
<title>Node14</title>
<g id="a_node14"><a xlink:href="../../d5/d18/dialogpatternproperties_8cpp.html" target="_top" xlink:title=" ">
<polygon fill="white" stroke="black" points="2291,-0.5 2291,-30.5 2446,-30.5 2446,-0.5 2291,-0.5"/>
<text text-anchor="start" x="2299" y="-18.5" font-family="Helvetica,sans-Serif" font-size="10.00">src/app/seamly2d/dialogs</text>
<text text-anchor="middle" x="2368.5" y="-7.5" font-family="Helvetica,sans-Serif" font-size="10.00">/dialogpatternproperties.cpp</text>
</a>
</g>
</g>
<!-- Node1&#45;&gt;Node14 -->
<g id="edge13" class="edge">
<title>Node1&#45;&gt;Node14</title>
<path fill="none" stroke="midnightblue" d="M2248.01,-63.68C2274.63,-53.26 2307.77,-40.28 2332.55,-30.58"/>
<polygon fill="midnightblue" stroke="midnightblue" points="2246.55,-60.49 2238.52,-67.4 2249.11,-67.01 2246.55,-60.49"/>
</g>
<!-- Node15 -->
<g id="node15" class="node">
<title>Node15</title>
<g id="a_node15"><a xlink:href="../../d5/dc5/dialogpreferences_8cpp.html" target="_top" xlink:title=" ">
<polygon fill="white" stroke="black" points="2464,-0.5 2464,-30.5 2605,-30.5 2605,-0.5 2464,-0.5"/>
<text text-anchor="start" x="2472" y="-18.5" font-family="Helvetica,sans-Serif" font-size="10.00">src/app/seamly2d/dialogs</text>
<text text-anchor="middle" x="2534.5" y="-7.5" font-family="Helvetica,sans-Serif" font-size="10.00">/dialogpreferences.cpp</text>
</a>
</g>
</g>
<!-- Node1&#45;&gt;Node15 -->
<g id="edge14" class="edge">
<title>Node1&#45;&gt;Node15</title>
<path fill="none" stroke="midnightblue" d="M2275.98,-67.11C2331.98,-56.15 2408.63,-41.14 2463.91,-30.32"/>
<polygon fill="midnightblue" stroke="midnightblue" points="2275.26,-63.69 2266.12,-69.04 2276.61,-70.56 2275.26,-63.69"/>
</g>
<!-- Node16 -->
<g id="node16" class="node">
<title>Node16</title>
<g id="a_node16"><a xlink:href="../../dd/d54/export__layout__dialog_8cpp.html" target="_top" xlink:title=" ">
<polygon fill="white" stroke="black" points="2623,-0.5 2623,-30.5 2766,-30.5 2766,-0.5 2623,-0.5"/>
<text text-anchor="start" x="2631" y="-18.5" font-family="Helvetica,sans-Serif" font-size="10.00">src/app/seamly2d/dialogs</text>
<text text-anchor="middle" x="2694.5" y="-7.5" font-family="Helvetica,sans-Serif" font-size="10.00">/export_layout_dialog.cpp</text>
</a>
</g>
</g>
<!-- Node1&#45;&gt;Node16 -->
<g id="edge15" class="edge">
<title>Node1&#45;&gt;Node16</title>
<path fill="none" stroke="midnightblue" d="M2276.21,-73.75C2358.78,-64.78 2496.52,-48.91 2614.5,-31 2617.15,-30.6 2619.85,-30.17 2622.57,-29.74"/>
<polygon fill="midnightblue" stroke="midnightblue" points="2275.74,-70.28 2266.18,-74.84 2276.5,-77.24 2275.74,-70.28"/>
</g>
<!-- Node17 -->
<g id="node17" class="node">
<title>Node17</title>
<g id="a_node17"><a xlink:href="../../dd/d84/shortcuts__dialog_8cpp.html" target="_top" xlink:title=" ">
<polygon fill="white" stroke="black" points="2784,-0.5 2784,-30.5 2925,-30.5 2925,-0.5 2784,-0.5"/>
<text text-anchor="start" x="2792" y="-18.5" font-family="Helvetica,sans-Serif" font-size="10.00">src/app/seamly2d/dialogs</text>
<text text-anchor="middle" x="2854.5" y="-7.5" font-family="Helvetica,sans-Serif" font-size="10.00">/shortcuts_dialog.cpp</text>
</a>
</g>
</g>
<!-- Node1&#45;&gt;Node17 -->
<g id="edge16" class="edge">
<title>Node1&#45;&gt;Node17</title>
<path fill="none" stroke="midnightblue" d="M2276.58,-77.2C2386.01,-70.33 2597.19,-55.17 2775.5,-31 2778.26,-30.63 2781.08,-30.22 2783.92,-29.79"/>
<polygon fill="midnightblue" stroke="midnightblue" points="2276.07,-73.72 2266.31,-77.83 2276.51,-80.71 2276.07,-73.72"/>
</g>
<!-- Node18 -->
<g id="node18" class="node">
<title>Node18</title>
<g id="a_node18"><a xlink:href="../../d5/de4/vabstractlayoutdialog_8cpp.html" target="_top" xlink:title=" ">
<polygon fill="white" stroke="black" points="2943.5,-0.5 2943.5,-30.5 3089.5,-30.5 3089.5,-0.5 2943.5,-0.5"/>
<text text-anchor="start" x="2951.5" y="-18.5" font-family="Helvetica,sans-Serif" font-size="10.00">src/app/seamly2d/dialogs</text>
<text text-anchor="middle" x="3016.5" y="-7.5" font-family="Helvetica,sans-Serif" font-size="10.00">/vabstractlayoutdialog.cpp</text>
</a>
</g>
</g>
<!-- Node1&#45;&gt;Node18 -->
<g id="edge17" class="edge">
<title>Node1&#45;&gt;Node18</title>
<path fill="none" stroke="midnightblue" d="M2276.39,-79C2408.74,-73.94 2694.82,-60.37 2934.5,-31 2937.37,-30.65 2940.29,-30.26 2943.24,-29.85"/>
<polygon fill="midnightblue" stroke="midnightblue" points="2276.22,-75.5 2266.36,-79.38 2276.49,-82.5 2276.22,-75.5"/>
</g>
<!-- Node19 -->
<g id="node19" class="node">
<title>Node19</title>
<g id="a_node19"><a xlink:href="../../d2/df4/show__info__dialog_8cpp.html" target="_top" xlink:title=" ">
<polygon fill="white" stroke="black" points="3108,-0.5 3108,-30.5 3249,-30.5 3249,-0.5 3108,-0.5"/>
<text text-anchor="start" x="3116" y="-18.5" font-family="Helvetica,sans-Serif" font-size="10.00">src/app/seamly2d/dialogs</text>
<text text-anchor="middle" x="3178.5" y="-7.5" font-family="Helvetica,sans-Serif" font-size="10.00">/show_info_dialog.cpp</text>
</a>
</g>
</g>
<!-- Node1&#45;&gt;Node19 -->
<g id="edge18" class="edge">
<title>Node1&#45;&gt;Node19</title>
<path fill="none" stroke="midnightblue" d="M2276.26,-80.41C2429.78,-77.46 2794.68,-66.96 3098.5,-31 3101.58,-30.64 3104.73,-30.23 3107.9,-29.78"/>
<polygon fill="midnightblue" stroke="midnightblue" points="2275.94,-76.91 2266.01,-80.6 2276.07,-83.91 2275.94,-76.91"/>
</g>
<!-- Node20 -->
<g id="node20" class="node">
<title>Node20</title>
<g id="a_node20"><a xlink:href="../../dc/d14/app_2seamly2d_2main_8cpp.html" target="_top" xlink:title=" ">
<polygon fill="white" stroke="black" points="3267,-6 3267,-25 3418,-25 3418,-6 3267,-6"/>
<text text-anchor="middle" x="3342.5" y="-13" font-family="Helvetica,sans-Serif" font-size="10.00">src/app/seamly2d/main.cpp</text>
</a>
</g>
</g>
<!-- Node1&#45;&gt;Node20 -->
<g id="edge19" class="edge">
<title>Node1&#45;&gt;Node20</title>
<path fill="none" stroke="midnightblue" d="M2276.32,-81.09C2448.77,-79.45 2891.3,-71.32 3258.5,-31 3271.74,-29.55 3286.05,-27.32 3299.05,-25.05"/>
<polygon fill="midnightblue" stroke="midnightblue" points="2276.06,-77.59 2266.1,-81.18 2276.13,-84.59 2276.06,-77.59"/>
</g>
<!-- Node21 -->
<g id="node21" class="node">
<title>Node21</title>
<g id="a_node21"><a xlink:href="../../db/d5c/groups__widget_8cpp.html" target="_top" xlink:title=" ">
<polygon fill="white" stroke="black" points="3436,-0.5 3436,-30.5 3577,-30.5 3577,-0.5 3436,-0.5"/>
<text text-anchor="start" x="3444" y="-18.5" font-family="Helvetica,sans-Serif" font-size="10.00">src/app/seamly2d/dialogs</text>
<text text-anchor="middle" x="3506.5" y="-7.5" font-family="Helvetica,sans-Serif" font-size="10.00">/groups_widget.cpp</text>
</a>
</g>
</g>
<!-- Node1&#45;&gt;Node21 -->
<g id="edge20" class="edge">
<title>Node1&#45;&gt;Node21</title>
<path fill="none" stroke="midnightblue" d="M2276.38,-82.06C2467.41,-82.72 2993.12,-79.57 3427.5,-31 3430.27,-30.69 3433.09,-30.34 3435.94,-29.96"/>
<polygon fill="midnightblue" stroke="midnightblue" points="2276.19,-78.56 2266.18,-82.02 2276.16,-85.56 2276.19,-78.56"/>
</g>
<!-- Node22 -->
<g id="node22" class="node">
<title>Node22</title>
<g id="a_node22"><a xlink:href="../../d8/de8/mainwindowsnogui_8cpp.html" target="_top" xlink:title=" ">
<polygon fill="white" stroke="black" points="3595,-6 3595,-25 3816,-25 3816,-6 3595,-6"/>
<text text-anchor="middle" x="3705.5" y="-13" font-family="Helvetica,sans-Serif" font-size="10.00">src/app/seamly2d/mainwindowsnogui.cpp</text>
</a>
</g>
</g>
<!-- Node1&#45;&gt;Node22 -->
<g id="edge21" class="edge">
<title>Node1&#45;&gt;Node22</title>
<path fill="none" stroke="midnightblue" d="M2276.2,-81.01C2483.1,-79.15 3086.79,-70.49 3586.5,-31 3605.17,-29.52 3625.42,-27.29 3643.84,-25.02"/>
<polygon fill="midnightblue" stroke="midnightblue" points="2276.04,-77.51 2266.07,-81.1 2276.1,-84.51 2276.04,-77.51"/>
</g>
<!-- Node23 -->
<g id="node23" class="node">
<title>Node23</title>
<g id="a_node23"><a xlink:href="../../d3/d49/vpattern_8cpp.html" target="_top" xlink:title=" ">
<polygon fill="white" stroke="black" points="3834,-0.5 3834,-30.5 3959,-30.5 3959,-0.5 3834,-0.5"/>
<text text-anchor="start" x="3842" y="-18.5" font-family="Helvetica,sans-Serif" font-size="10.00">src/app/seamly2d/xml</text>
<text text-anchor="middle" x="3896.5" y="-7.5" font-family="Helvetica,sans-Serif" font-size="10.00">/vpattern.cpp</text>
</a>
</g>
</g>
<!-- Node1&#45;&gt;Node23 -->
<g id="edge22" class="edge">
<title>Node1&#45;&gt;Node23</title>
<path fill="none" stroke="midnightblue" d="M2276.37,-80.87C2551.88,-78.28 3519.33,-66.76 3825.5,-31 3828.25,-30.68 3831.05,-30.31 3833.87,-29.89"/>
<polygon fill="midnightblue" stroke="midnightblue" points="2276.06,-77.38 2266.09,-80.97 2276.12,-84.38 2276.06,-77.38"/>
</g>
<!-- Node24 -->
<g id="node24" class="node">
<title>Node24</title>
<g id="a_node24"><a xlink:href="../../d8/dd9/mainwindow_8cpp.html" target="_top" xlink:title=" ">
<polygon fill="white" stroke="black" points="3977.5,-6 3977.5,-25 4165.5,-25 4165.5,-6 3977.5,-6"/>
<text text-anchor="middle" x="4071.5" y="-13" font-family="Helvetica,sans-Serif" font-size="10.00">src/app/seamly2d/mainwindow.cpp</text>
</a>
</g>
</g>
<!-- Node1&#45;&gt;Node24 -->
<g id="edge23" class="edge">
<title>Node1&#45;&gt;Node24</title>
<path fill="none" stroke="midnightblue" d="M2276.46,-80.48C2567.16,-76.32 3631.9,-59.42 3968.5,-31 3985.05,-29.6 4003.01,-27.34 4019.23,-25.01"/>
<polygon fill="midnightblue" stroke="midnightblue" points="2276.39,-76.98 2266.44,-80.63 2276.49,-83.98 2276.39,-76.98"/>
</g>
</g>
</svg>
