<?xml version="1.0" encoding="UTF-8" standalone="no"?>
<!DOCTYPE svg PUBLIC "-//W3C//DTD SVG 1.1//EN"
 "http://www.w3.org/Graphics/SVG/1.1/DTD/svg11.dtd">
<!-- Generated by graphviz version 2.43.0 (0)
 -->
<!-- Title: src/app/seamly2d/core/vapplication.h Pages: 1 -->
<svg width="4175pt" height="106pt"
 viewBox="0.00 0.00 4174.50 106.00" xmlns="http://www.w3.org/2000/svg" xmlns:xlink="http://www.w3.org/1999/xlink">
<g id="graph0" class="graph" transform="scale(1 1) rotate(0) translate(4 102)">
<title>src/app/seamly2d/core/vapplication.h</title>
<polygon fill="white" stroke="transparent" points="-4,4 -4,-102 4170.5,-102 4170.5,4 -4,4"/>
<!-- Node1 -->
<g id="node1" class="node">
<title>Node1</title>
<g id="a_node1"><a xlink:title=" ">
<polygon fill="#bfbfbf" stroke="black" points="2140,-67.5 2140,-97.5 2267,-97.5 2267,-67.5 2140,-67.5"/>
<text text-anchor="start" x="2148" y="-85.5" font-family="Helvetica,sans-Serif" font-size="10.00">src/app/seamly2d/core</text>
<text text-anchor="middle" x="2203.5" y="-74.5" font-family="Helvetica,sans-Serif" font-size="10.00">/vapplication.h</text>
</a>
</g>
</g>
<!-- Node2 -->
<g id="node2" class="node">
<title>Node2</title>
<g id="a_node2"><a xlink:href="../../d7/dfa/calculator__dialog_8cpp.html" target="_top" xlink:title=" ">
<polygon fill="white" stroke="black" points="0,-0.5 0,-30.5 141,-30.5 141,-0.5 0,-0.5"/>
<text text-anchor="start" x="8" y="-18.5" font-family="Helvetica,sans-Serif" font-size="10.00">src/app/seamly2d/dialogs</text>
<text text-anchor="middle" x="70.5" y="-7.5" font-family="Helvetica,sans-Serif" font-size="10.00">/calculator_dialog.cpp</text>
</a>
</g>
</g>
<!-- Node1&#45;&gt;Node2 -->
<g id="edge1" class="edge">
<title>Node1&#45;&gt;Node2</title>
<path fill="none" stroke="midnightblue" d="M2129.7,-81.24C1810.26,-79.87 545.14,-71.92 149.5,-31 146.73,-30.71 143.9,-30.38 141.06,-30.02"/>
<polygon fill="midnightblue" stroke="midnightblue" points="2129.75,-84.74 2139.77,-81.28 2129.78,-77.74 2129.75,-84.74"/>
</g>
<!-- Node3 -->
<g id="node3" class="node">
<title>Node3</title>
<g id="a_node3"><a xlink:href="../../d3/dd8/vapplication_8cpp.html" target="_top" xlink:title=" ">
<polygon fill="white" stroke="black" points="159,-0.5 159,-30.5 286,-30.5 286,-0.5 159,-0.5"/>
<text text-anchor="start" x="167" y="-18.5" font-family="Helvetica,sans-Serif" font-size="10.00">src/app/seamly2d/core</text>
<text text-anchor="middle" x="222.5" y="-7.5" font-family="Helvetica,sans-Serif" font-size="10.00">/vapplication.cpp</text>
</a>
</g>
</g>
<!-- Node1&#45;&gt;Node3 -->
<g id="edge2" class="edge">
<title>Node1&#45;&gt;Node3</title>
<path fill="none" stroke="midnightblue" d="M2129.71,-81.22C1824.62,-79.81 660.6,-71.79 295.5,-31 292.42,-30.66 289.27,-30.25 286.1,-29.79"/>
<polygon fill="midnightblue" stroke="midnightblue" points="2129.76,-84.72 2139.77,-81.27 2129.79,-77.72 2129.76,-84.72"/>
</g>
<!-- Node4 -->
<g id="node4" class="node">
<title>Node4</title>
<g id="a_node4"><a xlink:href="../../d9/d70/preferencesgraphicsviewpage_8cpp.html" target="_top" xlink:title=" ">
<polygon fill="white" stroke="black" points="304.5,-0.5 304.5,-30.5 552.5,-30.5 552.5,-0.5 304.5,-0.5"/>
<text text-anchor="start" x="312.5" y="-18.5" font-family="Helvetica,sans-Serif" font-size="10.00">src/app/seamly2d/dialogs</text>
<text text-anchor="middle" x="428.5" y="-7.5" font-family="Helvetica,sans-Serif" font-size="10.00">/configpages/preferencesgraphicsviewpage.cpp</text>
</a>
</g>
</g>
<!-- Node1&#45;&gt;Node4 -->
<g id="edge3" class="edge">
<title>Node1&#45;&gt;Node4</title>
<path fill="none" stroke="midnightblue" d="M2129.3,-81.27C1897.4,-80.12 1165.69,-73.16 561.5,-31 558.6,-30.8 555.67,-30.58 552.72,-30.35"/>
<polygon fill="midnightblue" stroke="midnightblue" points="2129.62,-84.77 2139.63,-81.32 2129.65,-77.77 2129.62,-84.77"/>
</g>
<!-- Node5 -->
<g id="node5" class="node">
<title>Node5</title>
<g id="a_node5"><a xlink:href="../../d2/d2d/preferencesconfigurationpage_8cpp.html" target="_top" xlink:title=" ">
<polygon fill="white" stroke="black" points="571,-0.5 571,-30.5 818,-30.5 818,-0.5 571,-0.5"/>
<text text-anchor="start" x="579" y="-18.5" font-family="Helvetica,sans-Serif" font-size="10.00">src/app/seamly2d/dialogs</text>
<text text-anchor="middle" x="694.5" y="-7.5" font-family="Helvetica,sans-Serif" font-size="10.00">/configpages/preferencesconfigurationpage.cpp</text>
</a>
</g>
</g>
<!-- Node1&#45;&gt;Node5 -->
<g id="edge4" class="edge">
<title>Node1&#45;&gt;Node5</title>
<path fill="none" stroke="midnightblue" d="M2129.83,-80.68C1923.69,-77.99 1323.61,-67.37 826.5,-31 823.74,-30.8 820.95,-30.58 818.14,-30.36"/>
<polygon fill="midnightblue" stroke="midnightblue" points="2129.88,-84.18 2139.93,-80.81 2129.97,-77.18 2129.88,-84.18"/>
</g>
<!-- Node6 -->
<g id="node6" class="node">
<title>Node6</title>
<g id="a_node6"><a xlink:href="../../dc/d20/preferencespathpage_8cpp.html" target="_top" xlink:title=" ">
<polygon fill="white" stroke="black" points="836,-0.5 836,-30.5 1041,-30.5 1041,-0.5 836,-0.5"/>
<text text-anchor="start" x="844" y="-18.5" font-family="Helvetica,sans-Serif" font-size="10.00">src/app/seamly2d/dialogs</text>
<text text-anchor="middle" x="938.5" y="-7.5" font-family="Helvetica,sans-Serif" font-size="10.00">/configpages/preferencespathpage.cpp</text>
</a>
</g>
</g>
<!-- Node1&#45;&gt;Node6 -->
<g id="edge5" class="edge">
<title>Node1&#45;&gt;Node6</title>
<path fill="none" stroke="midnightblue" d="M2129.84,-80.48C1946.78,-77.45 1456.6,-66.43 1049.5,-31 1046.79,-30.76 1044.04,-30.51 1041.27,-30.24"/>
<polygon fill="midnightblue" stroke="midnightblue" points="2129.83,-83.98 2139.89,-80.64 2129.95,-76.98 2129.83,-83.98"/>
</g>
<!-- Node7 -->
<g id="node7" class="node">
<title>Node7</title>
<g id="a_node7"><a xlink:href="../../dd/dc2/decimalchart__dialog_8cpp.html" target="_top" xlink:title=" ">
<polygon fill="white" stroke="black" points="1059,-0.5 1059,-30.5 1200,-30.5 1200,-0.5 1059,-0.5"/>
<text text-anchor="start" x="1067" y="-18.5" font-family="Helvetica,sans-Serif" font-size="10.00">src/app/seamly2d/dialogs</text>
<text text-anchor="middle" x="1129.5" y="-7.5" font-family="Helvetica,sans-Serif" font-size="10.00">/decimalchart_dialog.cpp</text>
</a>
</g>
</g>
<!-- Node1&#45;&gt;Node7 -->
<g id="edge6" class="edge">
<title>Node1&#45;&gt;Node7</title>
<path fill="none" stroke="midnightblue" d="M2129.84,-80.99C1964.61,-79.14 1552.06,-70.58 1209.5,-31 1206.42,-30.64 1203.27,-30.24 1200.1,-29.8"/>
<polygon fill="midnightblue" stroke="midnightblue" points="2129.85,-84.49 2139.89,-81.1 2129.93,-77.49 2129.85,-84.49"/>
</g>
<!-- Node8 -->
<g id="node8" class="node">
<title>Node8</title>
<g id="a_node8"><a xlink:href="../../dc/d63/preferencespatternpage_8cpp.html" target="_top" xlink:title=" ">
<polygon fill="white" stroke="black" points="1218.5,-0.5 1218.5,-30.5 1436.5,-30.5 1436.5,-0.5 1218.5,-0.5"/>
<text text-anchor="start" x="1226.5" y="-18.5" font-family="Helvetica,sans-Serif" font-size="10.00">src/app/seamly2d/dialogs</text>
<text text-anchor="middle" x="1327.5" y="-7.5" font-family="Helvetica,sans-Serif" font-size="10.00">/configpages/preferencespatternpage.cpp</text>
</a>
</g>
</g>
<!-- Node1&#45;&gt;Node8 -->
<g id="edge7" class="edge">
<title>Node1&#45;&gt;Node8</title>
<path fill="none" stroke="midnightblue" d="M2129.49,-77.94C1993.73,-71.11 1695.84,-54.7 1445.5,-31 1442.62,-30.73 1439.71,-30.44 1436.77,-30.14"/>
<polygon fill="midnightblue" stroke="midnightblue" points="2129.6,-81.45 2139.77,-78.46 2129.95,-74.46 2129.6,-81.45"/>
</g>
<!-- Node9 -->
<g id="node9" class="node">
<title>Node9</title>
<g id="a_node9"><a xlink:href="../../dd/d64/dialogaboutapp_8cpp.html" target="_top" xlink:title=" ">
<polygon fill="white" stroke="black" points="1455,-0.5 1455,-30.5 1596,-30.5 1596,-0.5 1455,-0.5"/>
<text text-anchor="start" x="1463" y="-18.5" font-family="Helvetica,sans-Serif" font-size="10.00">src/app/seamly2d/dialogs</text>
<text text-anchor="middle" x="1525.5" y="-7.5" font-family="Helvetica,sans-Serif" font-size="10.00">/dialogaboutapp.cpp</text>
</a>
</g>
</g>
<!-- Node1&#45;&gt;Node9 -->
<g id="edge8" class="edge">
<title>Node1&#45;&gt;Node9</title>
<path fill="none" stroke="midnightblue" d="M2129.6,-77.59C2016.26,-71.08 1792.83,-56.16 1604.5,-31 1601.74,-30.63 1598.92,-30.23 1596.08,-29.81"/>
<polygon fill="midnightblue" stroke="midnightblue" points="2129.71,-81.1 2139.89,-78.18 2130.1,-74.12 2129.71,-81.1"/>
</g>
<!-- Node10 -->
<g id="node10" class="node">
<title>Node10</title>
<g id="a_node10"><a xlink:href="../../d6/d89/dialoglayoutprogress_8cpp.html" target="_top" xlink:title=" ">
<polygon fill="white" stroke="black" points="1614,-0.5 1614,-30.5 1757,-30.5 1757,-0.5 1614,-0.5"/>
<text text-anchor="start" x="1622" y="-18.5" font-family="Helvetica,sans-Serif" font-size="10.00">src/app/seamly2d/dialogs</text>
<text text-anchor="middle" x="1685.5" y="-7.5" font-family="Helvetica,sans-Serif" font-size="10.00">/dialoglayoutprogress.cpp</text>
</a>
</g>
</g>
<!-- Node1&#45;&gt;Node10 -->
<g id="edge9" class="edge">
<title>Node1&#45;&gt;Node10</title>
<path fill="none" stroke="midnightblue" d="M2129.61,-74.37C2042.56,-65.65 1893.69,-49.72 1766.5,-31 1763.39,-30.54 1760.22,-30.06 1757.01,-29.55"/>
<polygon fill="midnightblue" stroke="midnightblue" points="2129.35,-77.87 2139.65,-75.38 2130.05,-70.9 2129.35,-77.87"/>
</g>
<!-- Node11 -->
<g id="node11" class="node">
<title>Node11</title>
<g id="a_node11"><a xlink:href="../../d2/d00/vtooloptionspropertybrowser_8cpp.html" target="_top" xlink:title=" ">
<polygon fill="white" stroke="black" points="1775.5,-0.5 1775.5,-30.5 1955.5,-30.5 1955.5,-0.5 1775.5,-0.5"/>
<text text-anchor="start" x="1783.5" y="-18.5" font-family="Helvetica,sans-Serif" font-size="10.00">src/app/seamly2d/core</text>
<text text-anchor="middle" x="1865.5" y="-7.5" font-family="Helvetica,sans-Serif" font-size="10.00">/vtooloptionspropertybrowser.cpp</text>
</a>
</g>
</g>
<!-- Node1&#45;&gt;Node11 -->
<g id="edge10" class="edge">
<title>Node1&#45;&gt;Node11</title>
<path fill="none" stroke="midnightblue" d="M2129.94,-67.35C2073.19,-56.44 1995.08,-41.42 1938.48,-30.53"/>
<polygon fill="midnightblue" stroke="midnightblue" points="2129.44,-70.82 2139.92,-69.27 2130.77,-63.95 2129.44,-70.82"/>
</g>
<!-- Node12 -->
<g id="node12" class="node">
<title>Node12</title>
<g id="a_node12"><a xlink:href="../../de/d87/dialognewpattern_8cpp.html" target="_top" xlink:title=" ">
<polygon fill="white" stroke="black" points="1974,-0.5 1974,-30.5 2115,-30.5 2115,-0.5 1974,-0.5"/>
<text text-anchor="start" x="1982" y="-18.5" font-family="Helvetica,sans-Serif" font-size="10.00">src/app/seamly2d/dialogs</text>
<text text-anchor="middle" x="2044.5" y="-7.5" font-family="Helvetica,sans-Serif" font-size="10.00">/dialognewpattern.cpp</text>
</a>
</g>
</g>
<!-- Node1&#45;&gt;Node12 -->
<g id="edge11" class="edge">
<title>Node1&#45;&gt;Node12</title>
<path fill="none" stroke="midnightblue" d="M2159.58,-63.54C2134.13,-53.14 2102.57,-40.24 2078.93,-30.58"/>
<polygon fill="midnightblue" stroke="midnightblue" points="2158.42,-66.85 2169,-67.4 2161.07,-60.37 2158.42,-66.85"/>
</g>
<!-- Node13 -->
<g id="node13" class="node">
<title>Node13</title>
<g id="a_node13"><a xlink:href="../../db/def/dialoglayoutsettings_8cpp.html" target="_top" xlink:title=" ">
<polygon fill="white" stroke="black" points="2133,-0.5 2133,-30.5 2274,-30.5 2274,-0.5 2133,-0.5"/>
<text text-anchor="start" x="2141" y="-18.5" font-family="Helvetica,sans-Serif" font-size="10.00">src/app/seamly2d/dialogs</text>
<text text-anchor="middle" x="2203.5" y="-7.5" font-family="Helvetica,sans-Serif" font-size="10.00">/dialoglayoutsettings.cpp</text>
</a>
</g>
</g>
<!-- Node1&#45;&gt;Node13 -->
<g id="edge12" class="edge">
<title>Node1&#45;&gt;Node13</title>
<path fill="none" stroke="midnightblue" d="M2203.5,-57.11C2203.5,-48.15 2203.5,-38.32 2203.5,-30.58"/>
<polygon fill="midnightblue" stroke="midnightblue" points="2200,-57.4 2203.5,-67.4 2207,-57.4 2200,-57.4"/>
</g>
<!-- Node14 -->
<g id="node14" class="node">
<title>Node14</title>
<g id="a_node14"><a xlink:href="../../d5/d18/dialogpatternproperties_8cpp.html" target="_top" xlink:title=" ">
<polygon fill="white" stroke="black" points="2292,-0.5 2292,-30.5 2447,-30.5 2447,-0.5 2292,-0.5"/>
<text text-anchor="start" x="2300" y="-18.5" font-family="Helvetica,sans-Serif" font-size="10.00">src/app/seamly2d/dialogs</text>
<text text-anchor="middle" x="2369.5" y="-7.5" font-family="Helvetica,sans-Serif" font-size="10.00">/dialogpatternproperties.cpp</text>
</a>
</g>
</g>
<!-- Node1&#45;&gt;Node14 -->
<g id="edge13" class="edge">
<title>Node1&#45;&gt;Node14</title>
<path fill="none" stroke="midnightblue" d="M2249.01,-63.68C2275.63,-53.26 2308.77,-40.28 2333.55,-30.58"/>
<polygon fill="midnightblue" stroke="midnightblue" points="2247.55,-60.49 2239.52,-67.4 2250.11,-67.01 2247.55,-60.49"/>
</g>
<!-- Node15 -->
<g id="node15" class="node">
<title>Node15</title>
<g id="a_node15"><a xlink:href="../../d5/dc5/dialogpreferences_8cpp.html" target="_top" xlink:title=" ">
<polygon fill="white" stroke="black" points="2465,-0.5 2465,-30.5 2606,-30.5 2606,-0.5 2465,-0.5"/>
<text text-anchor="start" x="2473" y="-18.5" font-family="Helvetica,sans-Serif" font-size="10.00">src/app/seamly2d/dialogs</text>
<text text-anchor="middle" x="2535.5" y="-7.5" font-family="Helvetica,sans-Serif" font-size="10.00">/dialogpreferences.cpp</text>
</a>
</g>
</g>
<!-- Node1&#45;&gt;Node15 -->
<g id="edge14" class="edge">
<title>Node1&#45;&gt;Node15</title>
<path fill="none" stroke="midnightblue" d="M2276.98,-67.11C2332.98,-56.15 2409.63,-41.14 2464.91,-30.32"/>
<polygon fill="midnightblue" stroke="midnightblue" points="2276.26,-63.69 2267.12,-69.04 2277.61,-70.56 2276.26,-63.69"/>
</g>
<!-- Node16 -->
<g id="node16" class="node">
<title>Node16</title>
<g id="a_node16"><a xlink:href="../../dd/d54/export__layout__dialog_8cpp.html" target="_top" xlink:title=" ">
<polygon fill="white" stroke="black" points="2624,-0.5 2624,-30.5 2767,-30.5 2767,-0.5 2624,-0.5"/>
<text text-anchor="start" x="2632" y="-18.5" font-family="Helvetica,sans-Serif" font-size="10.00">src/app/seamly2d/dialogs</text>
<text text-anchor="middle" x="2695.5" y="-7.5" font-family="Helvetica,sans-Serif" font-size="10.00">/export_layout_dialog.cpp</text>
</a>
</g>
</g>
<!-- Node1&#45;&gt;Node16 -->
<g id="edge15" class="edge">
<title>Node1&#45;&gt;Node16</title>
<path fill="none" stroke="midnightblue" d="M2277.21,-73.75C2359.78,-64.78 2497.52,-48.91 2615.5,-31 2618.15,-30.6 2620.85,-30.17 2623.57,-29.74"/>
<polygon fill="midnightblue" stroke="midnightblue" points="2276.74,-70.28 2267.18,-74.84 2277.5,-77.24 2276.74,-70.28"/>
</g>
<!-- Node17 -->
<g id="node17" class="node">
<title>Node17</title>
<g id="a_node17"><a xlink:href="../../db/d5c/groups__widget_8cpp.html" target="_top" xlink:title=" ">
<polygon fill="white" stroke="black" points="2785,-0.5 2785,-30.5 2926,-30.5 2926,-0.5 2785,-0.5"/>
<text text-anchor="start" x="2793" y="-18.5" font-family="Helvetica,sans-Serif" font-size="10.00">src/app/seamly2d/dialogs</text>
<text text-anchor="middle" x="2855.5" y="-7.5" font-family="Helvetica,sans-Serif" font-size="10.00">/groups_widget.cpp</text>
</a>
</g>
</g>
<!-- Node1&#45;&gt;Node17 -->
<g id="edge16" class="edge">
<title>Node1&#45;&gt;Node17</title>
<path fill="none" stroke="midnightblue" d="M2277.58,-77.2C2387.01,-70.33 2598.19,-55.17 2776.5,-31 2779.26,-30.63 2782.08,-30.22 2784.92,-29.79"/>
<polygon fill="midnightblue" stroke="midnightblue" points="2277.07,-73.72 2267.31,-77.83 2277.51,-80.71 2277.07,-73.72"/>
</g>
<!-- Node18 -->
<g id="node18" class="node">
<title>Node18</title>
<g id="a_node18"><a xlink:href="../../dd/d84/shortcuts__dialog_8cpp.html" target="_top" xlink:title=" ">
<polygon fill="white" stroke="black" points="2944,-0.5 2944,-30.5 3085,-30.5 3085,-0.5 2944,-0.5"/>
<text text-anchor="start" x="2952" y="-18.5" font-family="Helvetica,sans-Serif" font-size="10.00">src/app/seamly2d/dialogs</text>
<text text-anchor="middle" x="3014.5" y="-7.5" font-family="Helvetica,sans-Serif" font-size="10.00">/shortcuts_dialog.cpp</text>
</a>
</g>
</g>
<!-- Node1&#45;&gt;Node18 -->
<g id="edge17" class="edge">
<title>Node1&#45;&gt;Node18</title>
<path fill="none" stroke="midnightblue" d="M2277.41,-79.15C2409.79,-74.34 2695.92,-61.15 2935.5,-31 2938.27,-30.65 2941.08,-30.27 2943.93,-29.86"/>
<polygon fill="midnightblue" stroke="midnightblue" points="2277.25,-75.66 2267.38,-79.51 2277.5,-82.65 2277.25,-75.66"/>
</g>
<!-- Node19 -->
<g id="node19" class="node">
<title>Node19</title>
<g id="a_node19"><a xlink:href="../../d2/df4/show__info__dialog_8cpp.html" target="_top" xlink:title=" ">
<polygon fill="white" stroke="black" points="3103,-0.5 3103,-30.5 3244,-30.5 3244,-0.5 3103,-0.5"/>
<text text-anchor="start" x="3111" y="-18.5" font-family="Helvetica,sans-Serif" font-size="10.00">src/app/seamly2d/dialogs</text>
<text text-anchor="middle" x="3173.5" y="-7.5" font-family="Helvetica,sans-Serif" font-size="10.00">/show_info_dialog.cpp</text>
</a>
</g>
</g>
<!-- Node1&#45;&gt;Node19 -->
<g id="edge18" class="edge">
<title>Node1&#45;&gt;Node19</title>
<path fill="none" stroke="midnightblue" d="M2277.42,-80.43C2430.43,-77.52 2792.79,-67.1 3094.5,-31 3097.27,-30.67 3100.09,-30.3 3102.93,-29.9"/>
<polygon fill="midnightblue" stroke="midnightblue" points="2277.14,-76.93 2267.21,-80.62 2277.27,-83.93 2277.14,-76.93"/>
</g>
<!-- Node20 -->
<g id="node20" class="node">
<title>Node20</title>
<g id="a_node20"><a xlink:href="../../d5/de4/vabstractlayoutdialog_8cpp.html" target="_top" xlink:title=" ">
<polygon fill="white" stroke="black" points="3262.5,-0.5 3262.5,-30.5 3408.5,-30.5 3408.5,-0.5 3262.5,-0.5"/>
<text text-anchor="start" x="3270.5" y="-18.5" font-family="Helvetica,sans-Serif" font-size="10.00">src/app/seamly2d/dialogs</text>
<text text-anchor="middle" x="3335.5" y="-7.5" font-family="Helvetica,sans-Serif" font-size="10.00">/vabstractlayoutdialog.cpp</text>
</a>
</g>
</g>
<!-- Node1&#45;&gt;Node20 -->
<g id="edge19" class="edge">
<title>Node1&#45;&gt;Node20</title>
<path fill="none" stroke="midnightblue" d="M2277.23,-81.17C2448.95,-79.69 2888.69,-71.86 3253.5,-31 3256.37,-30.68 3259.3,-30.32 3262.25,-29.93"/>
<polygon fill="midnightblue" stroke="midnightblue" points="2277.02,-77.67 2267.04,-81.25 2277.07,-84.67 2277.02,-77.67"/>
</g>
<!-- Node21 -->
<g id="node21" class="node">
<title>Node21</title>
<g id="a_node21"><a xlink:href="../../dc/d14/app_2seamly2d_2main_8cpp.html" target="_top" xlink:title=" ">
<polygon fill="white" stroke="black" points="3427,-6 3427,-25 3578,-25 3578,-6 3427,-6"/>
<text text-anchor="middle" x="3502.5" y="-13" font-family="Helvetica,sans-Serif" font-size="10.00">src/app/seamly2d/main.cpp</text>
</a>
</g>
</g>
<!-- Node1&#45;&gt;Node21 -->
<g id="edge20" class="edge">
<title>Node1&#45;&gt;Node21</title>
<path fill="none" stroke="midnightblue" d="M2277.36,-81.7C2467.16,-81.49 2987.24,-76.46 3417.5,-31 3431.05,-29.57 3445.7,-27.32 3458.97,-25.02"/>
<polygon fill="midnightblue" stroke="midnightblue" points="2277.22,-78.2 2267.22,-81.7 2277.23,-85.2 2277.22,-78.2"/>
</g>
<!-- Node22 -->
<g id="node22" class="node">
<title>Node22</title>
<g id="a_node22"><a xlink:href="../../d8/de8/mainwindowsnogui_8cpp.html" target="_top" xlink:title=" ">
<polygon fill="white" stroke="black" points="3596,-6 3596,-25 3817,-25 3817,-6 3596,-6"/>
<text text-anchor="middle" x="3706.5" y="-13" font-family="Helvetica,sans-Serif" font-size="10.00">src/app/seamly2d/mainwindowsnogui.cpp</text>
</a>
</g>
</g>
<!-- Node1&#45;&gt;Node22 -->
<g id="edge21" class="edge">
<title>Node1&#45;&gt;Node22</title>
<path fill="none" stroke="midnightblue" d="M2277.2,-81.01C2484.1,-79.15 3087.79,-70.49 3587.5,-31 3606.17,-29.52 3626.42,-27.29 3644.84,-25.02"/>
<polygon fill="midnightblue" stroke="midnightblue" points="2277.04,-77.51 2267.07,-81.1 2277.1,-84.51 2277.04,-77.51"/>
</g>
<!-- Node23 -->
<g id="node23" class="node">
<title>Node23</title>
<g id="a_node23"><a xlink:href="../../d3/d49/vpattern_8cpp.html" target="_top" xlink:title=" ">
<polygon fill="white" stroke="black" points="3835,-0.5 3835,-30.5 3960,-30.5 3960,-0.5 3835,-0.5"/>
<text text-anchor="start" x="3843" y="-18.5" font-family="Helvetica,sans-Serif" font-size="10.00">src/app/seamly2d/xml</text>
<text text-anchor="middle" x="3897.5" y="-7.5" font-family="Helvetica,sans-Serif" font-size="10.00">/vpattern.cpp</text>
</a>
</g>
</g>
<!-- Node1&#45;&gt;Node23 -->
<g id="edge22" class="edge">
<title>Node1&#45;&gt;Node23</title>
<path fill="none" stroke="midnightblue" d="M2277.37,-80.87C2552.88,-78.28 3520.33,-66.76 3826.5,-31 3829.25,-30.68 3832.05,-30.31 3834.87,-29.89"/>
<polygon fill="midnightblue" stroke="midnightblue" points="2277.06,-77.38 2267.09,-80.97 2277.12,-84.38 2277.06,-77.38"/>
</g>
<!-- Node24 -->
<g id="node24" class="node">
<title>Node24</title>
<g id="a_node24"><a xlink:href="../../d8/dd9/mainwindow_8cpp.html" target="_top" xlink:title=" ">
<polygon fill="white" stroke="black" points="3978.5,-6 3978.5,-25 4166.5,-25 4166.5,-6 3978.5,-6"/>
<text text-anchor="middle" x="4072.5" y="-13" font-family="Helvetica,sans-Serif" font-size="10.00">src/app/seamly2d/mainwindow.cpp</text>
</a>
</g>
</g>
<!-- Node1&#45;&gt;Node24 -->
<g id="edge23" class="edge">
<title>Node1&#45;&gt;Node24</title>
<path fill="none" stroke="midnightblue" d="M2277.46,-80.48C2568.16,-76.32 3632.9,-59.42 3969.5,-31 3986.05,-29.6 4004.01,-27.34 4020.23,-25.01"/>
<polygon fill="midnightblue" stroke="midnightblue" points="2277.39,-76.98 2267.44,-80.63 2277.49,-83.98 2277.39,-76.98"/>
</g>
</g>
</svg>
