<?xml version="1.0" encoding="UTF-8" standalone="no"?>
<!DOCTYPE svg PUBLIC "-//W3C//DTD SVG 1.1//EN"
 "http://www.w3.org/Graphics/SVG/1.1/DTD/svg11.dtd">
<!-- Generated by graphviz version 2.43.0 (0)
 -->
<!-- Title: src/app/seamly2d/core/vapplication.h Pages: 1 -->
<svg width="4173pt" height="106pt"
 viewBox="0.00 0.00 4172.50 106.00" xmlns="http://www.w3.org/2000/svg" xmlns:xlink="http://www.w3.org/1999/xlink">
<g id="graph0" class="graph" transform="scale(1 1) rotate(0) translate(4 102)">
<title>src/app/seamly2d/core/vapplication.h</title>
<polygon fill="white" stroke="transparent" points="-4,4 -4,-102 4168.5,-102 4168.5,4 -4,4"/>
<!-- Node1 -->
<g id="node1" class="node">
<title>Node1</title>
<g id="a_node1"><a xlink:title=" ">
<polygon fill="#bfbfbf" stroke="black" points="2145,-67.5 2145,-97.5 2272,-97.5 2272,-67.5 2145,-67.5"/>
<text text-anchor="start" x="2153" y="-85.5" font-family="Helvetica,sans-Serif" font-size="10.00">src/app/seamly2d/core</text>
<text text-anchor="middle" x="2208.5" y="-74.5" font-family="Helvetica,sans-Serif" font-size="10.00">/vapplication.h</text>
</a>
</g>
</g>
<!-- Node2 -->
<g id="node2" class="node">
<title>Node2</title>
<g id="a_node2"><a xlink:href="../../d3/dd8/vapplication_8cpp.html" target="_top" xlink:title=" ">
<polygon fill="white" stroke="black" points="0,-0.5 0,-30.5 127,-30.5 127,-0.5 0,-0.5"/>
<text text-anchor="start" x="8" y="-18.5" font-family="Helvetica,sans-Serif" font-size="10.00">src/app/seamly2d/core</text>
<text text-anchor="middle" x="63.5" y="-7.5" font-family="Helvetica,sans-Serif" font-size="10.00">/vapplication.cpp</text>
</a>
</g>
</g>
<!-- Node1&#45;&gt;Node2 -->
<g id="edge1" class="edge">
<title>Node1&#45;&gt;Node2</title>
<path fill="none" stroke="midnightblue" d="M2134.8,-81.43C1813.65,-80.85 534.77,-75.72 135.5,-31 132.71,-30.69 129.87,-30.32 127.01,-29.91"/>
<polygon fill="midnightblue" stroke="midnightblue" points="2134.91,-84.93 2144.92,-81.45 2134.92,-77.93 2134.91,-84.93"/>
</g>
<!-- Node3 -->
<g id="node3" class="node">
<title>Node3</title>
<g id="a_node3"><a xlink:href="../../d7/dfa/calculator__dialog_8cpp.html" target="_top" xlink:title=" ">
<polygon fill="white" stroke="black" points="145,-0.5 145,-30.5 286,-30.5 286,-0.5 145,-0.5"/>
<text text-anchor="start" x="153" y="-18.5" font-family="Helvetica,sans-Serif" font-size="10.00">src/app/seamly2d/dialogs</text>
<text text-anchor="middle" x="215.5" y="-7.5" font-family="Helvetica,sans-Serif" font-size="10.00">/calculator_dialog.cpp</text>
</a>
</g>
</g>
<!-- Node1&#45;&gt;Node3 -->
<g id="edge2" class="edge">
<title>Node1&#45;&gt;Node3</title>
<path fill="none" stroke="midnightblue" d="M2134.5,-81.08C1828.51,-79.12 661.04,-69.24 294.5,-31 291.73,-30.71 288.9,-30.38 286.06,-30.01"/>
<polygon fill="midnightblue" stroke="midnightblue" points="2134.56,-84.58 2144.59,-81.15 2134.61,-77.58 2134.56,-84.58"/>
</g>
<!-- Node4 -->
<g id="node4" class="node">
<title>Node4</title>
<g id="a_node4"><a xlink:href="../../dc/d20/preferencespathpage_8cpp.html" target="_top" xlink:title=" ">
<polygon fill="white" stroke="black" points="304,-0.5 304,-30.5 509,-30.5 509,-0.5 304,-0.5"/>
<text text-anchor="start" x="312" y="-18.5" font-family="Helvetica,sans-Serif" font-size="10.00">src/app/seamly2d/dialogs</text>
<text text-anchor="middle" x="406.5" y="-7.5" font-family="Helvetica,sans-Serif" font-size="10.00">/configpages/preferencespathpage.cpp</text>
</a>
</g>
</g>
<!-- Node1&#45;&gt;Node4 -->
<g id="edge3" class="edge">
<title>Node1&#45;&gt;Node4</title>
<path fill="none" stroke="midnightblue" d="M2134.46,-81.93C1898.21,-82.73 1141.34,-80.94 517.5,-31 514.79,-30.78 512.04,-30.55 509.27,-30.29"/>
<polygon fill="midnightblue" stroke="midnightblue" points="2134.66,-85.43 2144.64,-81.89 2134.63,-78.43 2134.66,-85.43"/>
</g>
<!-- Node5 -->
<g id="node5" class="node">
<title>Node5</title>
<g id="a_node5"><a xlink:href="../../d9/d70/preferencesgraphicsviewpage_8cpp.html" target="_top" xlink:title=" ">
<polygon fill="white" stroke="black" points="526.5,-0.5 526.5,-30.5 774.5,-30.5 774.5,-0.5 526.5,-0.5"/>
<text text-anchor="start" x="534.5" y="-18.5" font-family="Helvetica,sans-Serif" font-size="10.00">src/app/seamly2d/dialogs</text>
<text text-anchor="middle" x="650.5" y="-7.5" font-family="Helvetica,sans-Serif" font-size="10.00">/configpages/preferencesgraphicsviewpage.cpp</text>
</a>
</g>
</g>
<!-- Node1&#45;&gt;Node5 -->
<g id="edge4" class="edge">
<title>Node1&#45;&gt;Node5</title>
<path fill="none" stroke="midnightblue" d="M2134.83,-80.79C1923.96,-78.35 1300.03,-68.26 783.5,-31 780.6,-30.79 777.67,-30.57 774.72,-30.33"/>
<polygon fill="midnightblue" stroke="midnightblue" points="2134.81,-84.29 2144.85,-80.9 2134.89,-77.29 2134.81,-84.29"/>
</g>
<!-- Node6 -->
<g id="node6" class="node">
<title>Node6</title>
<g id="a_node6"><a xlink:href="../../dd/dc2/decimalchart__dialog_8cpp.html" target="_top" xlink:title=" ">
<polygon fill="white" stroke="black" points="793,-0.5 793,-30.5 934,-30.5 934,-0.5 793,-0.5"/>
<text text-anchor="start" x="801" y="-18.5" font-family="Helvetica,sans-Serif" font-size="10.00">src/app/seamly2d/dialogs</text>
<text text-anchor="middle" x="863.5" y="-7.5" font-family="Helvetica,sans-Serif" font-size="10.00">/decimalchart_dialog.cpp</text>
</a>
</g>
</g>
<!-- Node1&#45;&gt;Node6 -->
<g id="edge5" class="edge">
<title>Node1&#45;&gt;Node6</title>
<path fill="none" stroke="midnightblue" d="M2134.62,-82.14C1939.4,-83.05 1393.96,-80.57 943.5,-31 940.41,-30.66 937.27,-30.27 934.09,-29.85"/>
<polygon fill="midnightblue" stroke="midnightblue" points="2134.77,-85.64 2144.76,-82.09 2134.74,-78.64 2134.77,-85.64"/>
</g>
<!-- Node7 -->
<g id="node7" class="node">
<title>Node7</title>
<g id="a_node7"><a xlink:href="../../dc/d63/preferencespatternpage_8cpp.html" target="_top" xlink:title=" ">
<polygon fill="white" stroke="black" points="952.5,-0.5 952.5,-30.5 1170.5,-30.5 1170.5,-0.5 952.5,-0.5"/>
<text text-anchor="start" x="960.5" y="-18.5" font-family="Helvetica,sans-Serif" font-size="10.00">src/app/seamly2d/dialogs</text>
<text text-anchor="middle" x="1061.5" y="-7.5" font-family="Helvetica,sans-Serif" font-size="10.00">/configpages/preferencespatternpage.cpp</text>
</a>
</g>
</g>
<!-- Node1&#45;&gt;Node7 -->
<g id="edge6" class="edge">
<title>Node1&#45;&gt;Node7</title>
<path fill="none" stroke="midnightblue" d="M2134.83,-79.74C1965.74,-75.28 1536.85,-61.68 1179.5,-31 1176.62,-30.75 1173.7,-30.49 1170.76,-30.21"/>
<polygon fill="midnightblue" stroke="midnightblue" points="2134.78,-83.24 2144.87,-80 2134.96,-76.24 2134.78,-83.24"/>
</g>
<!-- Node8 -->
<g id="node8" class="node">
<title>Node8</title>
<g id="a_node8"><a xlink:href="../../d2/d00/vtooloptionspropertybrowser_8cpp.html" target="_top" xlink:title=" ">
<polygon fill="white" stroke="black" points="1188.5,-0.5 1188.5,-30.5 1368.5,-30.5 1368.5,-0.5 1188.5,-0.5"/>
<text text-anchor="start" x="1196.5" y="-18.5" font-family="Helvetica,sans-Serif" font-size="10.00">src/app/seamly2d/core</text>
<text text-anchor="middle" x="1278.5" y="-7.5" font-family="Helvetica,sans-Serif" font-size="10.00">/vtooloptionspropertybrowser.cpp</text>
</a>
</g>
</g>
<!-- Node1&#45;&gt;Node8 -->
<g id="edge7" class="edge">
<title>Node1&#45;&gt;Node8</title>
<path fill="none" stroke="midnightblue" d="M2134.62,-79.11C1989.3,-73.95 1656.19,-59.83 1377.5,-31 1374.56,-30.7 1371.58,-30.37 1368.57,-30.02"/>
<polygon fill="midnightblue" stroke="midnightblue" points="2134.64,-82.62 2144.75,-79.47 2134.88,-75.62 2134.64,-82.62"/>
</g>
<!-- Node9 -->
<g id="node9" class="node">
<title>Node9</title>
<g id="a_node9"><a xlink:href="../../dd/d64/dialogaboutapp_8cpp.html" target="_top" xlink:title=" ">
<polygon fill="white" stroke="black" points="1387,-0.5 1387,-30.5 1528,-30.5 1528,-0.5 1387,-0.5"/>
<text text-anchor="start" x="1395" y="-18.5" font-family="Helvetica,sans-Serif" font-size="10.00">src/app/seamly2d/dialogs</text>
<text text-anchor="middle" x="1457.5" y="-7.5" font-family="Helvetica,sans-Serif" font-size="10.00">/dialogaboutapp.cpp</text>
</a>
</g>
</g>
<!-- Node1&#45;&gt;Node9 -->
<g id="edge8" class="edge">
<title>Node1&#45;&gt;Node9</title>
<path fill="none" stroke="midnightblue" d="M2134.67,-78.53C2010.67,-72.96 1752.91,-58.91 1536.5,-31 1533.73,-30.64 1530.92,-30.25 1528.08,-29.84"/>
<polygon fill="midnightblue" stroke="midnightblue" points="2134.66,-82.03 2144.81,-78.98 2134.97,-75.04 2134.66,-82.03"/>
</g>
<!-- Node10 -->
<g id="node10" class="node">
<title>Node10</title>
<g id="a_node10"><a xlink:href="../../d2/d2d/preferencesconfigurationpage_8cpp.html" target="_top" xlink:title=" ">
<polygon fill="white" stroke="black" points="1546,-0.5 1546,-30.5 1793,-30.5 1793,-0.5 1546,-0.5"/>
<text text-anchor="start" x="1554" y="-18.5" font-family="Helvetica,sans-Serif" font-size="10.00">src/app/seamly2d/dialogs</text>
<text text-anchor="middle" x="1669.5" y="-7.5" font-family="Helvetica,sans-Serif" font-size="10.00">/configpages/preferencesconfigurationpage.cpp</text>
</a>
</g>
</g>
<!-- Node1&#45;&gt;Node10 -->
<g id="edge9" class="edge">
<title>Node1&#45;&gt;Node10</title>
<path fill="none" stroke="midnightblue" d="M2134.7,-72.6C2044.7,-61.75 1891.52,-43.27 1785.65,-30.51"/>
<polygon fill="midnightblue" stroke="midnightblue" points="2134.47,-76.1 2144.82,-73.82 2135.31,-69.15 2134.47,-76.1"/>
</g>
<!-- Node11 -->
<g id="node11" class="node">
<title>Node11</title>
<g id="a_node11"><a xlink:href="../../d6/d89/dialoglayoutprogress_8cpp.html" target="_top" xlink:title=" ">
<polygon fill="white" stroke="black" points="1811,-0.5 1811,-30.5 1954,-30.5 1954,-0.5 1811,-0.5"/>
<text text-anchor="start" x="1819" y="-18.5" font-family="Helvetica,sans-Serif" font-size="10.00">src/app/seamly2d/dialogs</text>
<text text-anchor="middle" x="1882.5" y="-7.5" font-family="Helvetica,sans-Serif" font-size="10.00">/dialoglayoutprogress.cpp</text>
</a>
</g>
</g>
<!-- Node1&#45;&gt;Node11 -->
<g id="edge10" class="edge">
<title>Node1&#45;&gt;Node11</title>
<path fill="none" stroke="midnightblue" d="M2134.92,-66.83C2080.38,-55.95 2006.49,-41.22 1952.75,-30.51"/>
<polygon fill="midnightblue" stroke="midnightblue" points="2134.38,-70.29 2144.87,-68.81 2135.75,-63.43 2134.38,-70.29"/>
</g>
<!-- Node12 -->
<g id="node12" class="node">
<title>Node12</title>
<g id="a_node12"><a xlink:href="../../de/d87/dialognewpattern_8cpp.html" target="_top" xlink:title=" ">
<polygon fill="white" stroke="black" points="1972,-0.5 1972,-30.5 2113,-30.5 2113,-0.5 1972,-0.5"/>
<text text-anchor="start" x="1980" y="-18.5" font-family="Helvetica,sans-Serif" font-size="10.00">src/app/seamly2d/dialogs</text>
<text text-anchor="middle" x="2042.5" y="-7.5" font-family="Helvetica,sans-Serif" font-size="10.00">/dialognewpattern.cpp</text>
</a>
</g>
</g>
<!-- Node1&#45;&gt;Node12 -->
<g id="edge11" class="edge">
<title>Node1&#45;&gt;Node12</title>
<path fill="none" stroke="midnightblue" d="M2162.99,-63.68C2136.37,-53.26 2103.23,-40.28 2078.45,-30.58"/>
<polygon fill="midnightblue" stroke="midnightblue" points="2161.89,-67.01 2172.48,-67.4 2164.45,-60.49 2161.89,-67.01"/>
</g>
<!-- Node13 -->
<g id="node13" class="node">
<title>Node13</title>
<g id="a_node13"><a xlink:href="../../d5/d18/dialogpatternproperties_8cpp.html" target="_top" xlink:title=" ">
<polygon fill="white" stroke="black" points="2131,-0.5 2131,-30.5 2286,-30.5 2286,-0.5 2131,-0.5"/>
<text text-anchor="start" x="2139" y="-18.5" font-family="Helvetica,sans-Serif" font-size="10.00">src/app/seamly2d/dialogs</text>
<text text-anchor="middle" x="2208.5" y="-7.5" font-family="Helvetica,sans-Serif" font-size="10.00">/dialogpatternproperties.cpp</text>
</a>
</g>
</g>
<!-- Node1&#45;&gt;Node13 -->
<g id="edge12" class="edge">
<title>Node1&#45;&gt;Node13</title>
<path fill="none" stroke="midnightblue" d="M2208.5,-57.11C2208.5,-48.15 2208.5,-38.32 2208.5,-30.58"/>
<polygon fill="midnightblue" stroke="midnightblue" points="2205,-57.4 2208.5,-67.4 2212,-57.4 2205,-57.4"/>
</g>
<!-- Node14 -->
<g id="node14" class="node">
<title>Node14</title>
<g id="a_node14"><a xlink:href="../../d5/dc5/dialogpreferences_8cpp.html" target="_top" xlink:title=" ">
<polygon fill="white" stroke="black" points="2304,-0.5 2304,-30.5 2445,-30.5 2445,-0.5 2304,-0.5"/>
<text text-anchor="start" x="2312" y="-18.5" font-family="Helvetica,sans-Serif" font-size="10.00">src/app/seamly2d/dialogs</text>
<text text-anchor="middle" x="2374.5" y="-7.5" font-family="Helvetica,sans-Serif" font-size="10.00">/dialogpreferences.cpp</text>
</a>
</g>
</g>
<!-- Node1&#45;&gt;Node14 -->
<g id="edge13" class="edge">
<title>Node1&#45;&gt;Node14</title>
<path fill="none" stroke="midnightblue" d="M2254.01,-63.68C2280.63,-53.26 2313.77,-40.28 2338.55,-30.58"/>
<polygon fill="midnightblue" stroke="midnightblue" points="2252.55,-60.49 2244.52,-67.4 2255.11,-67.01 2252.55,-60.49"/>
</g>
<!-- Node15 -->
<g id="node15" class="node">
<title>Node15</title>
<g id="a_node15"><a xlink:href="../../db/def/dialoglayoutsettings_8cpp.html" target="_top" xlink:title=" ">
<polygon fill="white" stroke="black" points="2463,-0.5 2463,-30.5 2604,-30.5 2604,-0.5 2463,-0.5"/>
<text text-anchor="start" x="2471" y="-18.5" font-family="Helvetica,sans-Serif" font-size="10.00">src/app/seamly2d/dialogs</text>
<text text-anchor="middle" x="2533.5" y="-7.5" font-family="Helvetica,sans-Serif" font-size="10.00">/dialoglayoutsettings.cpp</text>
</a>
</g>
</g>
<!-- Node1&#45;&gt;Node15 -->
<g id="edge14" class="edge">
<title>Node1&#45;&gt;Node15</title>
<path fill="none" stroke="midnightblue" d="M2282.23,-66.75C2336.53,-55.89 2409.91,-41.22 2463.35,-30.53"/>
<polygon fill="midnightblue" stroke="midnightblue" points="2281.44,-63.34 2272.32,-68.74 2282.81,-70.21 2281.44,-63.34"/>
</g>
<!-- Node16 -->
<g id="node16" class="node">
<title>Node16</title>
<g id="a_node16"><a xlink:href="../../dd/d54/export__layout__dialog_8cpp.html" target="_top" xlink:title=" ">
<polygon fill="white" stroke="black" points="2622,-0.5 2622,-30.5 2765,-30.5 2765,-0.5 2622,-0.5"/>
<text text-anchor="start" x="2630" y="-18.5" font-family="Helvetica,sans-Serif" font-size="10.00">src/app/seamly2d/dialogs</text>
<text text-anchor="middle" x="2693.5" y="-7.5" font-family="Helvetica,sans-Serif" font-size="10.00">/export_layout_dialog.cpp</text>
</a>
</g>
</g>
<!-- Node1&#45;&gt;Node16 -->
<g id="edge15" class="edge">
<title>Node1&#45;&gt;Node16</title>
<path fill="none" stroke="midnightblue" d="M2282.27,-73.54C2363.57,-64.48 2498.13,-48.63 2613.5,-31 2616.15,-30.59 2618.85,-30.17 2621.57,-29.73"/>
<polygon fill="midnightblue" stroke="midnightblue" points="2281.69,-70.08 2272.13,-74.67 2282.46,-77.04 2281.69,-70.08"/>
</g>
<!-- Node17 -->
<g id="node17" class="node">
<title>Node17</title>
<g id="a_node17"><a xlink:href="../../dd/d84/shortcuts__dialog_8cpp.html" target="_top" xlink:title=" ">
<polygon fill="white" stroke="black" points="2783,-0.5 2783,-30.5 2924,-30.5 2924,-0.5 2783,-0.5"/>
<text text-anchor="start" x="2791" y="-18.5" font-family="Helvetica,sans-Serif" font-size="10.00">src/app/seamly2d/dialogs</text>
<text text-anchor="middle" x="2853.5" y="-7.5" font-family="Helvetica,sans-Serif" font-size="10.00">/shortcuts_dialog.cpp</text>
</a>
</g>
</g>
<!-- Node1&#45;&gt;Node17 -->
<g id="edge16" class="edge">
<title>Node1&#45;&gt;Node17</title>
<path fill="none" stroke="midnightblue" d="M2282.55,-77.09C2390.89,-70.13 2598.83,-54.91 2774.5,-31 2777.26,-30.62 2780.08,-30.22 2782.92,-29.79"/>
<polygon fill="midnightblue" stroke="midnightblue" points="2282.13,-73.61 2272.38,-77.73 2282.58,-80.59 2282.13,-73.61"/>
</g>
<!-- Node18 -->
<g id="node18" class="node">
<title>Node18</title>
<g id="a_node18"><a xlink:href="../../db/d5c/groups__widget_8cpp.html" target="_top" xlink:title=" ">
<polygon fill="white" stroke="black" points="2942,-0.5 2942,-30.5 3083,-30.5 3083,-0.5 2942,-0.5"/>
<text text-anchor="start" x="2950" y="-18.5" font-family="Helvetica,sans-Serif" font-size="10.00">src/app/seamly2d/dialogs</text>
<text text-anchor="middle" x="3012.5" y="-7.5" font-family="Helvetica,sans-Serif" font-size="10.00">/groups_widget.cpp</text>
</a>
</g>
</g>
<!-- Node1&#45;&gt;Node18 -->
<g id="edge17" class="edge">
<title>Node1&#45;&gt;Node18</title>
<path fill="none" stroke="midnightblue" d="M2282.6,-79.08C2414.11,-74.17 2696.75,-60.88 2933.5,-31 2936.27,-30.65 2939.08,-30.27 2941.93,-29.86"/>
<polygon fill="midnightblue" stroke="midnightblue" points="2282.12,-75.59 2272.25,-79.46 2282.38,-82.59 2282.12,-75.59"/>
</g>
<!-- Node19 -->
<g id="node19" class="node">
<title>Node19</title>
<g id="a_node19"><a xlink:href="../../d5/de4/vabstractlayoutdialog_8cpp.html" target="_top" xlink:title=" ">
<polygon fill="white" stroke="black" points="3101.5,-0.5 3101.5,-30.5 3247.5,-30.5 3247.5,-0.5 3101.5,-0.5"/>
<text text-anchor="start" x="3109.5" y="-18.5" font-family="Helvetica,sans-Serif" font-size="10.00">src/app/seamly2d/dialogs</text>
<text text-anchor="middle" x="3174.5" y="-7.5" font-family="Helvetica,sans-Serif" font-size="10.00">/vabstractlayoutdialog.cpp</text>
</a>
</g>
</g>
<!-- Node1&#45;&gt;Node19 -->
<g id="edge18" class="edge">
<title>Node1&#45;&gt;Node19</title>
<path fill="none" stroke="midnightblue" d="M2282.39,-80.22C2434.49,-76.94 2793.42,-65.86 3092.5,-31 3095.37,-30.67 3098.3,-30.29 3101.25,-29.89"/>
<polygon fill="midnightblue" stroke="midnightblue" points="2282.16,-76.72 2272.24,-80.43 2282.31,-83.72 2282.16,-76.72"/>
</g>
<!-- Node20 -->
<g id="node20" class="node">
<title>Node20</title>
<g id="a_node20"><a xlink:href="../../d2/df4/show__info__dialog_8cpp.html" target="_top" xlink:title=" ">
<polygon fill="white" stroke="black" points="3266,-0.5 3266,-30.5 3407,-30.5 3407,-0.5 3266,-0.5"/>
<text text-anchor="start" x="3274" y="-18.5" font-family="Helvetica,sans-Serif" font-size="10.00">src/app/seamly2d/dialogs</text>
<text text-anchor="middle" x="3336.5" y="-7.5" font-family="Helvetica,sans-Serif" font-size="10.00">/show_info_dialog.cpp</text>
</a>
</g>
</g>
<!-- Node1&#45;&gt;Node20 -->
<g id="edge19" class="edge">
<title>Node1&#45;&gt;Node20</title>
<path fill="none" stroke="midnightblue" d="M2282.42,-81.26C2454.05,-79.99 2892.7,-72.55 3256.5,-31 3259.59,-30.65 3262.73,-30.25 3265.9,-29.81"/>
<polygon fill="midnightblue" stroke="midnightblue" points="2282.21,-77.76 2272.23,-81.33 2282.26,-84.76 2282.21,-77.76"/>
</g>
<!-- Node21 -->
<g id="node21" class="node">
<title>Node21</title>
<g id="a_node21"><a xlink:href="../../dc/d14/app_2seamly2d_2main_8cpp.html" target="_top" xlink:title=" ">
<polygon fill="white" stroke="black" points="3425,-6 3425,-25 3576,-25 3576,-6 3425,-6"/>
<text text-anchor="middle" x="3500.5" y="-13" font-family="Helvetica,sans-Serif" font-size="10.00">src/app/seamly2d/main.cpp</text>
</a>
</g>
</g>
<!-- Node1&#45;&gt;Node21 -->
<g id="edge20" class="edge">
<title>Node1&#45;&gt;Node21</title>
<path fill="none" stroke="midnightblue" d="M2282.34,-81.72C2471.5,-81.58 2988.67,-76.68 3416.5,-31 3429.89,-29.57 3444.38,-27.32 3457.48,-25.02"/>
<polygon fill="midnightblue" stroke="midnightblue" points="2282.24,-78.22 2272.24,-81.73 2282.24,-85.22 2282.24,-78.22"/>
</g>
<!-- Node22 -->
<g id="node22" class="node">
<title>Node22</title>
<g id="a_node22"><a xlink:href="../../d8/de8/mainwindowsnogui_8cpp.html" target="_top" xlink:title=" ">
<polygon fill="white" stroke="black" points="3594,-6 3594,-25 3815,-25 3815,-6 3594,-6"/>
<text text-anchor="middle" x="3704.5" y="-13" font-family="Helvetica,sans-Serif" font-size="10.00">src/app/seamly2d/mainwindowsnogui.cpp</text>
</a>
</g>
</g>
<!-- Node1&#45;&gt;Node22 -->
<g id="edge21" class="edge">
<title>Node1&#45;&gt;Node22</title>
<path fill="none" stroke="midnightblue" d="M2282.2,-80.99C2488.39,-79.09 3088.61,-70.31 3585.5,-31 3604.17,-29.52 3624.42,-27.29 3642.84,-25.02"/>
<polygon fill="midnightblue" stroke="midnightblue" points="2282.06,-77.49 2272.09,-81.08 2282.12,-84.49 2282.06,-77.49"/>
</g>
<!-- Node23 -->
<g id="node23" class="node">
<title>Node23</title>
<g id="a_node23"><a xlink:href="../../d3/d49/vpattern_8cpp.html" target="_top" xlink:title=" ">
<polygon fill="white" stroke="black" points="3833,-0.5 3833,-30.5 3958,-30.5 3958,-0.5 3833,-0.5"/>
<text text-anchor="start" x="3841" y="-18.5" font-family="Helvetica,sans-Serif" font-size="10.00">src/app/seamly2d/xml</text>
<text text-anchor="middle" x="3895.5" y="-7.5" font-family="Helvetica,sans-Serif" font-size="10.00">/vpattern.cpp</text>
</a>
</g>
</g>
<!-- Node1&#45;&gt;Node23 -->
<g id="edge22" class="edge">
<title>Node1&#45;&gt;Node23</title>
<path fill="none" stroke="midnightblue" d="M2282.52,-80.86C2557.46,-78.22 3519.83,-66.61 3824.5,-31 3827.25,-30.68 3830.05,-30.31 3832.87,-29.89"/>
<polygon fill="midnightblue" stroke="midnightblue" points="2282.22,-77.36 2272.25,-80.96 2282.29,-84.36 2282.22,-77.36"/>
</g>
<!-- Node24 -->
<g id="node24" class="node">
<title>Node24</title>
<g id="a_node24"><a xlink:href="../../d8/dd9/mainwindow_8cpp.html" target="_top" xlink:title=" ">
<polygon fill="white" stroke="black" points="3976.5,-6 3976.5,-25 4164.5,-25 4164.5,-6 3976.5,-6"/>
<text text-anchor="middle" x="4070.5" y="-13" font-family="Helvetica,sans-Serif" font-size="10.00">src/app/seamly2d/mainwindow.cpp</text>
</a>
</g>
</g>
<!-- Node1&#45;&gt;Node24 -->
<g id="edge23" class="edge">
<title>Node1&#45;&gt;Node24</title>
<path fill="none" stroke="midnightblue" d="M2282.59,-80.47C2572.77,-76.28 3632.4,-59.31 3967.5,-31 3984.05,-29.6 4002.01,-27.34 4018.23,-25.01"/>
<polygon fill="midnightblue" stroke="midnightblue" points="2282.14,-76.98 2272.19,-80.62 2282.24,-83.98 2282.14,-76.98"/>
</g>
</g>
</svg>
