<?xml version="1.0" encoding="UTF-8" standalone="no"?>
<!DOCTYPE svg PUBLIC "-//W3C//DTD SVG 1.1//EN"
 "http://www.w3.org/Graphics/SVG/1.1/DTD/svg11.dtd">
<!-- Generated by graphviz version 2.43.0 (0)
 -->
<!-- Title: src/app/seamly2d/core/vapplication.h Pages: 1 -->
<svg width="4174pt" height="106pt"
 viewBox="0.00 0.00 4173.50 106.00" xmlns="http://www.w3.org/2000/svg" xmlns:xlink="http://www.w3.org/1999/xlink">
<g id="graph0" class="graph" transform="scale(1 1) rotate(0) translate(4 102)">
<title>src/app/seamly2d/core/vapplication.h</title>
<polygon fill="white" stroke="transparent" points="-4,4 -4,-102 4169.5,-102 4169.5,4 -4,4"/>
<!-- Node1 -->
<g id="node1" class="node">
<title>Node1</title>
<g id="a_node1"><a xlink:title=" ">
<polygon fill="#bfbfbf" stroke="black" points="2144,-67.5 2144,-97.5 2271,-97.5 2271,-67.5 2144,-67.5"/>
<text text-anchor="start" x="2152" y="-85.5" font-family="Helvetica,sans-Serif" font-size="10.00">src/app/seamly2d/core</text>
<text text-anchor="middle" x="2207.5" y="-74.5" font-family="Helvetica,sans-Serif" font-size="10.00">/vapplication.h</text>
</a>
</g>
</g>
<!-- Node2 -->
<g id="node2" class="node">
<title>Node2</title>
<g id="a_node2"><a xlink:href="../../d3/dd8/vapplication_8cpp.html" target="_top" xlink:title=" ">
<polygon fill="white" stroke="black" points="0,-0.5 0,-30.5 127,-30.5 127,-0.5 0,-0.5"/>
<text text-anchor="start" x="8" y="-18.5" font-family="Helvetica,sans-Serif" font-size="10.00">src/app/seamly2d/core</text>
<text text-anchor="middle" x="63.5" y="-7.5" font-family="Helvetica,sans-Serif" font-size="10.00">/vapplication.cpp</text>
</a>
</g>
</g>
<!-- Node1&#45;&gt;Node2 -->
<g id="edge1" class="edge">
<title>Node1&#45;&gt;Node2</title>
<path fill="none" stroke="midnightblue" d="M2133.83,-81.43C1812.84,-80.84 534.58,-75.7 135.5,-31 132.71,-30.69 129.87,-30.32 127.01,-29.91"/>
<polygon fill="midnightblue" stroke="midnightblue" points="2133.94,-84.93 2143.95,-81.44 2133.96,-77.93 2133.94,-84.93"/>
</g>
<!-- Node3 -->
<g id="node3" class="node">
<title>Node3</title>
<g id="a_node3"><a xlink:href="../../d7/dfa/calculator__dialog_8cpp.html" target="_top" xlink:title=" ">
<polygon fill="white" stroke="black" points="145,-0.5 145,-30.5 286,-30.5 286,-0.5 145,-0.5"/>
<text text-anchor="start" x="153" y="-18.5" font-family="Helvetica,sans-Serif" font-size="10.00">src/app/seamly2d/dialogs</text>
<text text-anchor="middle" x="215.5" y="-7.5" font-family="Helvetica,sans-Serif" font-size="10.00">/calculator_dialog.cpp</text>
</a>
</g>
</g>
<!-- Node1&#45;&gt;Node3 -->
<g id="edge2" class="edge">
<title>Node1&#45;&gt;Node3</title>
<path fill="none" stroke="midnightblue" d="M2133.53,-81.08C1827.7,-79.12 660.85,-69.22 294.5,-31 291.73,-30.71 288.9,-30.38 286.06,-30.01"/>
<polygon fill="midnightblue" stroke="midnightblue" points="2133.6,-84.58 2143.62,-81.15 2133.64,-77.58 2133.6,-84.58"/>
</g>
<!-- Node4 -->
<g id="node4" class="node">
<title>Node4</title>
<g id="a_node4"><a xlink:href="../../d2/d2d/preferencesconfigurationpage_8cpp.html" target="_top" xlink:title=" ">
<polygon fill="white" stroke="black" points="304,-0.5 304,-30.5 551,-30.5 551,-0.5 304,-0.5"/>
<text text-anchor="start" x="312" y="-18.5" font-family="Helvetica,sans-Serif" font-size="10.00">src/app/seamly2d/dialogs</text>
<text text-anchor="middle" x="427.5" y="-7.5" font-family="Helvetica,sans-Serif" font-size="10.00">/configpages/preferencesconfigurationpage.cpp</text>
</a>
</g>
</g>
<!-- Node1&#45;&gt;Node4 -->
<g id="edge3" class="edge">
<title>Node1&#45;&gt;Node4</title>
<path fill="none" stroke="midnightblue" d="M2133.82,-81.29C1902.04,-80.17 1167.19,-73.31 560.5,-31 557.37,-30.78 554.2,-30.55 551.01,-30.3"/>
<polygon fill="midnightblue" stroke="midnightblue" points="2133.81,-84.79 2143.82,-81.33 2133.84,-77.79 2133.81,-84.79"/>
</g>
<!-- Node5 -->
<g id="node5" class="node">
<title>Node5</title>
<g id="a_node5"><a xlink:href="../../d9/d70/preferencesgraphicsviewpage_8cpp.html" target="_top" xlink:title=" ">
<polygon fill="white" stroke="black" points="569.5,-0.5 569.5,-30.5 817.5,-30.5 817.5,-0.5 569.5,-0.5"/>
<text text-anchor="start" x="577.5" y="-18.5" font-family="Helvetica,sans-Serif" font-size="10.00">src/app/seamly2d/dialogs</text>
<text text-anchor="middle" x="693.5" y="-7.5" font-family="Helvetica,sans-Serif" font-size="10.00">/configpages/preferencesgraphicsviewpage.cpp</text>
</a>
</g>
</g>
<!-- Node1&#45;&gt;Node5 -->
<g id="edge4" class="edge">
<title>Node1&#45;&gt;Node5</title>
<path fill="none" stroke="midnightblue" d="M2133.62,-80.67C1926.88,-77.94 1325.07,-67.25 826.5,-31 823.6,-30.79 820.67,-30.56 817.72,-30.33"/>
<polygon fill="midnightblue" stroke="midnightblue" points="2133.7,-84.17 2143.75,-80.8 2133.79,-77.17 2133.7,-84.17"/>
</g>
<!-- Node6 -->
<g id="node6" class="node">
<title>Node6</title>
<g id="a_node6"><a xlink:href="../../dc/d20/preferencespathpage_8cpp.html" target="_top" xlink:title=" ">
<polygon fill="white" stroke="black" points="836,-0.5 836,-30.5 1041,-30.5 1041,-0.5 836,-0.5"/>
<text text-anchor="start" x="844" y="-18.5" font-family="Helvetica,sans-Serif" font-size="10.00">src/app/seamly2d/dialogs</text>
<text text-anchor="middle" x="938.5" y="-7.5" font-family="Helvetica,sans-Serif" font-size="10.00">/configpages/preferencespathpage.cpp</text>
</a>
</g>
</g>
<!-- Node1&#45;&gt;Node6 -->
<g id="edge5" class="edge">
<title>Node1&#45;&gt;Node6</title>
<path fill="none" stroke="midnightblue" d="M2133.91,-80.49C1950.48,-77.5 1458.26,-66.54 1049.5,-31 1046.79,-30.76 1044.04,-30.51 1041.27,-30.24"/>
<polygon fill="midnightblue" stroke="midnightblue" points="2133.93,-83.99 2143.98,-80.65 2134.04,-76.99 2133.93,-83.99"/>
</g>
<!-- Node7 -->
<g id="node7" class="node">
<title>Node7</title>
<g id="a_node7"><a xlink:href="../../dd/dc2/decimalchart__dialog_8cpp.html" target="_top" xlink:title=" ">
<polygon fill="white" stroke="black" points="1059,-0.5 1059,-30.5 1200,-30.5 1200,-0.5 1059,-0.5"/>
<text text-anchor="start" x="1067" y="-18.5" font-family="Helvetica,sans-Serif" font-size="10.00">src/app/seamly2d/dialogs</text>
<text text-anchor="middle" x="1129.5" y="-7.5" font-family="Helvetica,sans-Serif" font-size="10.00">/decimalchart_dialog.cpp</text>
</a>
</g>
</g>
<!-- Node1&#45;&gt;Node7 -->
<g id="edge6" class="edge">
<title>Node1&#45;&gt;Node7</title>
<path fill="none" stroke="midnightblue" d="M2133.77,-81.07C1967.9,-79.39 1552.96,-71.14 1208.5,-31 1205.73,-30.68 1202.91,-30.32 1200.07,-29.93"/>
<polygon fill="midnightblue" stroke="midnightblue" points="2133.82,-84.57 2143.85,-81.17 2133.89,-77.57 2133.82,-84.57"/>
</g>
<!-- Node8 -->
<g id="node8" class="node">
<title>Node8</title>
<g id="a_node8"><a xlink:href="../../dd/d64/dialogaboutapp_8cpp.html" target="_top" xlink:title=" ">
<polygon fill="white" stroke="black" points="1218,-0.5 1218,-30.5 1359,-30.5 1359,-0.5 1218,-0.5"/>
<text text-anchor="start" x="1226" y="-18.5" font-family="Helvetica,sans-Serif" font-size="10.00">src/app/seamly2d/dialogs</text>
<text text-anchor="middle" x="1288.5" y="-7.5" font-family="Helvetica,sans-Serif" font-size="10.00">/dialogaboutapp.cpp</text>
</a>
</g>
</g>
<!-- Node1&#45;&gt;Node8 -->
<g id="edge7" class="edge">
<title>Node1&#45;&gt;Node8</title>
<path fill="none" stroke="midnightblue" d="M2133.64,-80.01C1987.2,-76.4 1649.88,-64.85 1368.5,-31 1365.42,-30.63 1362.27,-30.21 1359.1,-29.77"/>
<polygon fill="midnightblue" stroke="midnightblue" points="2133.77,-83.51 2143.86,-80.26 2133.94,-76.52 2133.77,-83.51"/>
</g>
<!-- Node9 -->
<g id="node9" class="node">
<title>Node9</title>
<g id="a_node9"><a xlink:href="../../dc/d63/preferencespatternpage_8cpp.html" target="_top" xlink:title=" ">
<polygon fill="white" stroke="black" points="1377.5,-0.5 1377.5,-30.5 1595.5,-30.5 1595.5,-0.5 1377.5,-0.5"/>
<text text-anchor="start" x="1385.5" y="-18.5" font-family="Helvetica,sans-Serif" font-size="10.00">src/app/seamly2d/dialogs</text>
<text text-anchor="middle" x="1486.5" y="-7.5" font-family="Helvetica,sans-Serif" font-size="10.00">/configpages/preferencespatternpage.cpp</text>
</a>
</g>
</g>
<!-- Node1&#45;&gt;Node9 -->
<g id="edge8" class="edge">
<title>Node1&#45;&gt;Node9</title>
<path fill="none" stroke="midnightblue" d="M2133.62,-76.24C2019.84,-67.93 1794.95,-50.67 1604.5,-31 1601.63,-30.7 1598.71,-30.4 1595.77,-30.08"/>
<polygon fill="midnightblue" stroke="midnightblue" points="2133.38,-79.73 2143.61,-76.97 2133.89,-72.75 2133.38,-79.73"/>
</g>
<!-- Node10 -->
<g id="node10" class="node">
<title>Node10</title>
<g id="a_node10"><a xlink:href="../../d2/d00/vtooloptionspropertybrowser_8cpp.html" target="_top" xlink:title=" ">
<polygon fill="white" stroke="black" points="1613.5,-0.5 1613.5,-30.5 1793.5,-30.5 1793.5,-0.5 1613.5,-0.5"/>
<text text-anchor="start" x="1621.5" y="-18.5" font-family="Helvetica,sans-Serif" font-size="10.00">src/app/seamly2d/core</text>
<text text-anchor="middle" x="1703.5" y="-7.5" font-family="Helvetica,sans-Serif" font-size="10.00">/vtooloptionspropertybrowser.cpp</text>
</a>
</g>
</g>
<!-- Node1&#45;&gt;Node10 -->
<g id="edge9" class="edge">
<title>Node1&#45;&gt;Node10</title>
<path fill="none" stroke="midnightblue" d="M2133.84,-72.79C2052.63,-63.09 1918.15,-46.68 1802.5,-31 1799.57,-30.6 1796.6,-30.2 1793.6,-29.78"/>
<polygon fill="midnightblue" stroke="midnightblue" points="2133.62,-76.29 2143.96,-74 2134.45,-69.34 2133.62,-76.29"/>
</g>
<!-- Node11 -->
<g id="node11" class="node">
<title>Node11</title>
<g id="a_node11"><a xlink:href="../../db/def/dialoglayoutsettings_8cpp.html" target="_top" xlink:title=" ">
<polygon fill="white" stroke="black" points="1812,-0.5 1812,-30.5 1953,-30.5 1953,-0.5 1812,-0.5"/>
<text text-anchor="start" x="1820" y="-18.5" font-family="Helvetica,sans-Serif" font-size="10.00">src/app/seamly2d/dialogs</text>
<text text-anchor="middle" x="1882.5" y="-7.5" font-family="Helvetica,sans-Serif" font-size="10.00">/dialoglayoutsettings.cpp</text>
</a>
</g>
</g>
<!-- Node1&#45;&gt;Node11 -->
<g id="edge10" class="edge">
<title>Node1&#45;&gt;Node11</title>
<path fill="none" stroke="midnightblue" d="M2133.77,-66.75C2079.47,-55.89 2006.09,-41.22 1952.65,-30.53"/>
<polygon fill="midnightblue" stroke="midnightblue" points="2133.19,-70.21 2143.68,-68.74 2134.56,-63.34 2133.19,-70.21"/>
</g>
<!-- Node12 -->
<g id="node12" class="node">
<title>Node12</title>
<g id="a_node12"><a xlink:href="../../de/d87/dialognewpattern_8cpp.html" target="_top" xlink:title=" ">
<polygon fill="white" stroke="black" points="1971,-0.5 1971,-30.5 2112,-30.5 2112,-0.5 1971,-0.5"/>
<text text-anchor="start" x="1979" y="-18.5" font-family="Helvetica,sans-Serif" font-size="10.00">src/app/seamly2d/dialogs</text>
<text text-anchor="middle" x="2041.5" y="-7.5" font-family="Helvetica,sans-Serif" font-size="10.00">/dialognewpattern.cpp</text>
</a>
</g>
</g>
<!-- Node1&#45;&gt;Node12 -->
<g id="edge11" class="edge">
<title>Node1&#45;&gt;Node12</title>
<path fill="none" stroke="midnightblue" d="M2161.99,-63.68C2135.37,-53.26 2102.23,-40.28 2077.45,-30.58"/>
<polygon fill="midnightblue" stroke="midnightblue" points="2160.89,-67.01 2171.48,-67.4 2163.45,-60.49 2160.89,-67.01"/>
</g>
<!-- Node13 -->
<g id="node13" class="node">
<title>Node13</title>
<g id="a_node13"><a xlink:href="../../d5/d18/dialogpatternproperties_8cpp.html" target="_top" xlink:title=" ">
<polygon fill="white" stroke="black" points="2130,-0.5 2130,-30.5 2285,-30.5 2285,-0.5 2130,-0.5"/>
<text text-anchor="start" x="2138" y="-18.5" font-family="Helvetica,sans-Serif" font-size="10.00">src/app/seamly2d/dialogs</text>
<text text-anchor="middle" x="2207.5" y="-7.5" font-family="Helvetica,sans-Serif" font-size="10.00">/dialogpatternproperties.cpp</text>
</a>
</g>
</g>
<!-- Node1&#45;&gt;Node13 -->
<g id="edge12" class="edge">
<title>Node1&#45;&gt;Node13</title>
<path fill="none" stroke="midnightblue" d="M2207.5,-57.11C2207.5,-48.15 2207.5,-38.32 2207.5,-30.58"/>
<polygon fill="midnightblue" stroke="midnightblue" points="2204,-57.4 2207.5,-67.4 2211,-57.4 2204,-57.4"/>
</g>
<!-- Node14 -->
<g id="node14" class="node">
<title>Node14</title>
<g id="a_node14"><a xlink:href="../../d5/dc5/dialogpreferences_8cpp.html" target="_top" xlink:title=" ">
<polygon fill="white" stroke="black" points="2303,-0.5 2303,-30.5 2444,-30.5 2444,-0.5 2303,-0.5"/>
<text text-anchor="start" x="2311" y="-18.5" font-family="Helvetica,sans-Serif" font-size="10.00">src/app/seamly2d/dialogs</text>
<text text-anchor="middle" x="2373.5" y="-7.5" font-family="Helvetica,sans-Serif" font-size="10.00">/dialogpreferences.cpp</text>
</a>
</g>
</g>
<!-- Node1&#45;&gt;Node14 -->
<g id="edge13" class="edge">
<title>Node1&#45;&gt;Node14</title>
<path fill="none" stroke="midnightblue" d="M2253.01,-63.68C2279.63,-53.26 2312.77,-40.28 2337.55,-30.58"/>
<polygon fill="midnightblue" stroke="midnightblue" points="2251.55,-60.49 2243.52,-67.4 2254.11,-67.01 2251.55,-60.49"/>
</g>
<!-- Node15 -->
<g id="node15" class="node">
<title>Node15</title>
<g id="a_node15"><a xlink:href="../../d6/d89/dialoglayoutprogress_8cpp.html" target="_top" xlink:title=" ">
<polygon fill="white" stroke="black" points="2462,-0.5 2462,-30.5 2605,-30.5 2605,-0.5 2462,-0.5"/>
<text text-anchor="start" x="2470" y="-18.5" font-family="Helvetica,sans-Serif" font-size="10.00">src/app/seamly2d/dialogs</text>
<text text-anchor="middle" x="2533.5" y="-7.5" font-family="Helvetica,sans-Serif" font-size="10.00">/dialoglayoutprogress.cpp</text>
</a>
</g>
</g>
<!-- Node1&#45;&gt;Node15 -->
<g id="edge14" class="edge">
<title>Node1&#45;&gt;Node15</title>
<path fill="none" stroke="midnightblue" d="M2281.08,-66.83C2335.62,-55.95 2409.51,-41.22 2463.25,-30.51"/>
<polygon fill="midnightblue" stroke="midnightblue" points="2280.25,-63.43 2271.13,-68.81 2281.62,-70.29 2280.25,-63.43"/>
</g>
<!-- Node16 -->
<g id="node16" class="node">
<title>Node16</title>
<g id="a_node16"><a xlink:href="../../dd/d54/export__layout__dialog_8cpp.html" target="_top" xlink:title=" ">
<polygon fill="white" stroke="black" points="2623,-0.5 2623,-30.5 2766,-30.5 2766,-0.5 2623,-0.5"/>
<text text-anchor="start" x="2631" y="-18.5" font-family="Helvetica,sans-Serif" font-size="10.00">src/app/seamly2d/dialogs</text>
<text text-anchor="middle" x="2694.5" y="-7.5" font-family="Helvetica,sans-Serif" font-size="10.00">/export_layout_dialog.cpp</text>
</a>
</g>
</g>
<!-- Node1&#45;&gt;Node16 -->
<g id="edge15" class="edge">
<title>Node1&#45;&gt;Node16</title>
<path fill="none" stroke="midnightblue" d="M2281.28,-73.6C2362.95,-64.56 2498.4,-48.71 2614.5,-31 2617.15,-30.6 2619.85,-30.17 2622.57,-29.73"/>
<polygon fill="midnightblue" stroke="midnightblue" points="2280.66,-70.15 2271.1,-74.72 2281.42,-77.11 2280.66,-70.15"/>
</g>
<!-- Node17 -->
<g id="node17" class="node">
<title>Node17</title>
<g id="a_node17"><a xlink:href="../../dd/d84/shortcuts__dialog_8cpp.html" target="_top" xlink:title=" ">
<polygon fill="white" stroke="black" points="2784,-0.5 2784,-30.5 2925,-30.5 2925,-0.5 2784,-0.5"/>
<text text-anchor="start" x="2792" y="-18.5" font-family="Helvetica,sans-Serif" font-size="10.00">src/app/seamly2d/dialogs</text>
<text text-anchor="middle" x="2854.5" y="-7.5" font-family="Helvetica,sans-Serif" font-size="10.00">/shortcuts_dialog.cpp</text>
</a>
</g>
</g>
<!-- Node1&#45;&gt;Node17 -->
<g id="edge16" class="edge">
<title>Node1&#45;&gt;Node17</title>
<path fill="none" stroke="midnightblue" d="M2281.37,-77.13C2389.97,-70.21 2598.98,-54.99 2775.5,-31 2778.26,-30.62 2781.08,-30.22 2783.92,-29.79"/>
<polygon fill="midnightblue" stroke="midnightblue" points="2280.94,-73.65 2271.18,-77.77 2281.38,-80.64 2280.94,-73.65"/>
</g>
<!-- Node18 -->
<g id="node18" class="node">
<title>Node18</title>
<g id="a_node18"><a xlink:href="../../db/d5c/groups__widget_8cpp.html" target="_top" xlink:title=" ">
<polygon fill="white" stroke="black" points="2943,-0.5 2943,-30.5 3084,-30.5 3084,-0.5 2943,-0.5"/>
<text text-anchor="start" x="2951" y="-18.5" font-family="Helvetica,sans-Serif" font-size="10.00">src/app/seamly2d/dialogs</text>
<text text-anchor="middle" x="3013.5" y="-7.5" font-family="Helvetica,sans-Serif" font-size="10.00">/groups_widget.cpp</text>
</a>
</g>
</g>
<!-- Node1&#45;&gt;Node18 -->
<g id="edge17" class="edge">
<title>Node1&#45;&gt;Node18</title>
<path fill="none" stroke="midnightblue" d="M2281.81,-79.09C2413.68,-74.2 2697.1,-60.94 2934.5,-31 2937.27,-30.65 2940.08,-30.27 2942.93,-29.86"/>
<polygon fill="midnightblue" stroke="midnightblue" points="2281.3,-75.61 2271.43,-79.47 2281.55,-82.6 2281.3,-75.61"/>
</g>
<!-- Node19 -->
<g id="node19" class="node">
<title>Node19</title>
<g id="a_node19"><a xlink:href="../../d5/de4/vabstractlayoutdialog_8cpp.html" target="_top" xlink:title=" ">
<polygon fill="white" stroke="black" points="3102.5,-0.5 3102.5,-30.5 3248.5,-30.5 3248.5,-0.5 3102.5,-0.5"/>
<text text-anchor="start" x="3110.5" y="-18.5" font-family="Helvetica,sans-Serif" font-size="10.00">src/app/seamly2d/dialogs</text>
<text text-anchor="middle" x="3175.5" y="-7.5" font-family="Helvetica,sans-Serif" font-size="10.00">/vabstractlayoutdialog.cpp</text>
</a>
</g>
</g>
<!-- Node1&#45;&gt;Node19 -->
<g id="edge18" class="edge">
<title>Node1&#45;&gt;Node19</title>
<path fill="none" stroke="midnightblue" d="M2281.27,-80.24C2433.56,-76.98 2793.56,-65.94 3093.5,-31 3096.37,-30.67 3099.3,-30.29 3102.25,-29.9"/>
<polygon fill="midnightblue" stroke="midnightblue" points="2281.03,-76.74 2271.11,-80.45 2281.18,-83.74 2281.03,-76.74"/>
</g>
<!-- Node20 -->
<g id="node20" class="node">
<title>Node20</title>
<g id="a_node20"><a xlink:href="../../dc/d14/app_2seamly2d_2main_8cpp.html" target="_top" xlink:title=" ">
<polygon fill="white" stroke="black" points="3267,-6 3267,-25 3418,-25 3418,-6 3267,-6"/>
<text text-anchor="middle" x="3342.5" y="-13" font-family="Helvetica,sans-Serif" font-size="10.00">src/app/seamly2d/main.cpp</text>
</a>
</g>
</g>
<!-- Node1&#45;&gt;Node20 -->
<g id="edge19" class="edge">
<title>Node1&#45;&gt;Node20</title>
<path fill="none" stroke="midnightblue" d="M2281.21,-81.01C2452.89,-79.21 2892.57,-70.75 3257.5,-31 3270.89,-29.54 3285.38,-27.32 3298.53,-25.04"/>
<polygon fill="midnightblue" stroke="midnightblue" points="2280.99,-77.52 2271.03,-81.12 2281.06,-84.52 2280.99,-77.52"/>
</g>
<!-- Node21 -->
<g id="node21" class="node">
<title>Node21</title>
<g id="a_node21"><a xlink:href="../../d2/df4/show__info__dialog_8cpp.html" target="_top" xlink:title=" ">
<polygon fill="white" stroke="black" points="3436,-0.5 3436,-30.5 3577,-30.5 3577,-0.5 3436,-0.5"/>
<text text-anchor="start" x="3444" y="-18.5" font-family="Helvetica,sans-Serif" font-size="10.00">src/app/seamly2d/dialogs</text>
<text text-anchor="middle" x="3506.5" y="-7.5" font-family="Helvetica,sans-Serif" font-size="10.00">/show_info_dialog.cpp</text>
</a>
</g>
</g>
<!-- Node1&#45;&gt;Node21 -->
<g id="edge20" class="edge">
<title>Node1&#45;&gt;Node21</title>
<path fill="none" stroke="midnightblue" d="M2281.42,-82.04C2471.96,-82.65 2995.15,-79.38 3427.5,-31 3430.27,-30.69 3433.09,-30.34 3435.94,-29.96"/>
<polygon fill="midnightblue" stroke="midnightblue" points="2281.26,-78.54 2271.24,-82 2281.23,-85.54 2281.26,-78.54"/>
</g>
<!-- Node22 -->
<g id="node22" class="node">
<title>Node22</title>
<g id="a_node22"><a xlink:href="../../d8/de8/mainwindowsnogui_8cpp.html" target="_top" xlink:title=" ">
<polygon fill="white" stroke="black" points="3595,-6 3595,-25 3816,-25 3816,-6 3595,-6"/>
<text text-anchor="middle" x="3705.5" y="-13" font-family="Helvetica,sans-Serif" font-size="10.00">src/app/seamly2d/mainwindowsnogui.cpp</text>
</a>
</g>
</g>
<!-- Node1&#45;&gt;Node22 -->
<g id="edge21" class="edge">
<title>Node1&#45;&gt;Node22</title>
<path fill="none" stroke="midnightblue" d="M2281.3,-80.99C2487.8,-79.1 3088.89,-70.36 3586.5,-31 3605.17,-29.52 3625.42,-27.29 3643.84,-25.02"/>
<polygon fill="midnightblue" stroke="midnightblue" points="2281.15,-77.49 2271.18,-81.08 2281.22,-84.49 2281.15,-77.49"/>
</g>
<!-- Node23 -->
<g id="node23" class="node">
<title>Node23</title>
<g id="a_node23"><a xlink:href="../../d3/d49/vpattern_8cpp.html" target="_top" xlink:title=" ">
<polygon fill="white" stroke="black" points="3834,-0.5 3834,-30.5 3959,-30.5 3959,-0.5 3834,-0.5"/>
<text text-anchor="start" x="3842" y="-18.5" font-family="Helvetica,sans-Serif" font-size="10.00">src/app/seamly2d/xml</text>
<text text-anchor="middle" x="3896.5" y="-7.5" font-family="Helvetica,sans-Serif" font-size="10.00">/vpattern.cpp</text>
</a>
</g>
</g>
<!-- Node1&#45;&gt;Node23 -->
<g id="edge22" class="edge">
<title>Node1&#45;&gt;Node23</title>
<path fill="none" stroke="midnightblue" d="M2281.61,-80.86C2556.89,-78.24 3520.45,-66.65 3825.5,-31 3828.25,-30.68 3831.05,-30.31 3833.87,-29.89"/>
<polygon fill="midnightblue" stroke="midnightblue" points="2281.3,-77.37 2271.33,-80.96 2281.37,-84.37 2281.3,-77.37"/>
</g>
<!-- Node24 -->
<g id="node24" class="node">
<title>Node24</title>
<g id="a_node24"><a xlink:href="../../d8/dd9/mainwindow_8cpp.html" target="_top" xlink:title=" ">
<polygon fill="white" stroke="black" points="3977.5,-6 3977.5,-25 4165.5,-25 4165.5,-6 3977.5,-6"/>
<text text-anchor="middle" x="4071.5" y="-13" font-family="Helvetica,sans-Serif" font-size="10.00">src/app/seamly2d/mainwindow.cpp</text>
</a>
</g>
</g>
<!-- Node1&#45;&gt;Node24 -->
<g id="edge23" class="edge">
<title>Node1&#45;&gt;Node24</title>
<path fill="none" stroke="midnightblue" d="M2281.68,-80.47C2572.18,-76.28 3633.02,-59.34 3968.5,-31 3985.05,-29.6 4003.01,-27.34 4019.23,-25.01"/>
<polygon fill="midnightblue" stroke="midnightblue" points="2281.21,-76.98 2271.26,-80.62 2281.31,-83.98 2281.21,-76.98"/>
</g>
</g>
</svg>
