<?xml version="1.0" encoding="UTF-8" standalone="no"?>
<!DOCTYPE svg PUBLIC "-//W3C//DTD SVG 1.1//EN"
 "http://www.w3.org/Graphics/SVG/1.1/DTD/svg11.dtd">
<!-- Generated by graphviz version 2.43.0 (0)
 -->
<!-- Title: src/app/seamly2d/options.h Pages: 1 -->
<svg width="4189pt" height="218pt"
 viewBox="0.00 0.00 4188.50 218.00" xmlns="http://www.w3.org/2000/svg" xmlns:xlink="http://www.w3.org/1999/xlink">
<g id="graph0" class="graph" transform="scale(1 1) rotate(0) translate(4 214)">
<title>src/app/seamly2d/options.h</title>
<polygon fill="white" stroke="transparent" points="-4,4 -4,-214 4184.5,-214 4184.5,4 -4,4"/>
<!-- Node1 -->
<g id="node1" class="node">
<title>Node1</title>
<g id="a_node1"><a xlink:title=" ">
<polygon fill="#bfbfbf" stroke="black" points="1426,-190.5 1426,-209.5 1577,-209.5 1577,-190.5 1426,-190.5"/>
<text text-anchor="middle" x="1501.5" y="-197.5" font-family="Helvetica,sans-Serif" font-size="10.00">src/app/seamly2d/options.h</text>
</a>
</g>
</g>
<!-- Node2 -->
<g id="node2" class="node">
<title>Node2</title>
<g id="a_node2"><a xlink:href="../../d9/d02/vapplication_8h.html" target="_top" xlink:title=" ">
<polygon fill="white" stroke="black" points="1766,-123.5 1766,-153.5 1893,-153.5 1893,-123.5 1766,-123.5"/>
<text text-anchor="start" x="1774" y="-141.5" font-family="Helvetica,sans-Serif" font-size="10.00">src/app/seamly2d/core</text>
<text text-anchor="middle" x="1829.5" y="-130.5" font-family="Helvetica,sans-Serif" font-size="10.00">/vapplication.h</text>
</a>
</g>
</g>
<!-- Node1&#45;&gt;Node2 -->
<g id="edge1" class="edge">
<title>Node1&#45;&gt;Node2</title>
<path fill="none" stroke="midnightblue" d="M1558.57,-188.65C1616.46,-178.15 1705.88,-161.92 1765.99,-151.02"/>
<polygon fill="midnightblue" stroke="midnightblue" points="1557.71,-185.25 1548.49,-190.48 1558.96,-192.13 1557.71,-185.25"/>
</g>
<!-- Node4 -->
<g id="node4" class="node">
<title>Node4</title>
<g id="a_node4"><a xlink:href="../../d7/dfa/calculator__dialog_8cpp.html" target="_top" xlink:title=" ">
<polygon fill="white" stroke="black" points="0,-56.5 0,-86.5 141,-86.5 141,-56.5 0,-56.5"/>
<text text-anchor="start" x="8" y="-74.5" font-family="Helvetica,sans-Serif" font-size="10.00">src/app/seamly2d/dialogs</text>
<text text-anchor="middle" x="70.5" y="-63.5" font-family="Helvetica,sans-Serif" font-size="10.00">/calculator_dialog.cpp</text>
</a>
</g>
</g>
<!-- Node1&#45;&gt;Node4 -->
<g id="edge25" class="edge">
<title>Node1&#45;&gt;Node4</title>
<path fill="none" stroke="midnightblue" d="M1415.56,-198.91C1244.44,-197.87 849.18,-191.24 519.5,-154 380.35,-138.28 219.31,-105.42 132.94,-86.58"/>
<polygon fill="midnightblue" stroke="midnightblue" points="1415.75,-202.41 1425.77,-198.96 1415.79,-195.41 1415.75,-202.41"/>
</g>
<!-- Node7 -->
<g id="node7" class="node">
<title>Node7</title>
<g id="a_node7"><a xlink:href="../../dc/d20/preferencespathpage_8cpp.html" target="_top" xlink:title=" ">
<polygon fill="white" stroke="black" points="159,-56.5 159,-86.5 364,-86.5 364,-56.5 159,-56.5"/>
<text text-anchor="start" x="167" y="-74.5" font-family="Helvetica,sans-Serif" font-size="10.00">src/app/seamly2d/dialogs</text>
<text text-anchor="middle" x="261.5" y="-63.5" font-family="Helvetica,sans-Serif" font-size="10.00">/configpages/preferencespathpage.cpp</text>
</a>
</g>
</g>
<!-- Node1&#45;&gt;Node7 -->
<g id="edge26" class="edge">
<title>Node1&#45;&gt;Node7</title>
<path fill="none" stroke="midnightblue" d="M1415.79,-197.22C1272.89,-193.53 977.08,-182.83 728.5,-154 584.61,-137.31 417.84,-105.05 327.66,-86.51"/>
<polygon fill="midnightblue" stroke="midnightblue" points="1415.73,-200.72 1425.82,-197.47 1415.91,-193.72 1415.73,-200.72"/>
</g>
<!-- Node11 -->
<g id="node11" class="node">
<title>Node11</title>
<g id="a_node11"><a xlink:href="../../dd/d64/dialogaboutapp_8cpp.html" target="_top" xlink:title=" ">
<polygon fill="white" stroke="black" points="382,-56.5 382,-86.5 523,-86.5 523,-56.5 382,-56.5"/>
<text text-anchor="start" x="390" y="-74.5" font-family="Helvetica,sans-Serif" font-size="10.00">src/app/seamly2d/dialogs</text>
<text text-anchor="middle" x="452.5" y="-63.5" font-family="Helvetica,sans-Serif" font-size="10.00">/dialogaboutapp.cpp</text>
</a>
</g>
</g>
<!-- Node1&#45;&gt;Node11 -->
<g id="edge27" class="edge">
<title>Node1&#45;&gt;Node11</title>
<path fill="none" stroke="midnightblue" d="M1415.78,-194.51C1304.38,-188.16 1103.93,-174.91 933.5,-154 753.72,-131.94 709.92,-118.24 531.5,-87 528.75,-86.52 525.95,-86.02 523.12,-85.52"/>
<polygon fill="midnightblue" stroke="midnightblue" points="1415.77,-198.02 1425.95,-195.09 1416.17,-191.03 1415.77,-198.02"/>
</g>
<!-- Node12 -->
<g id="node12" class="node">
<title>Node12</title>
<g id="a_node12"><a xlink:href="../../d6/d89/dialoglayoutprogress_8cpp.html" target="_top" xlink:title=" ">
<polygon fill="white" stroke="black" points="541,-56.5 541,-86.5 684,-86.5 684,-56.5 541,-56.5"/>
<text text-anchor="start" x="549" y="-74.5" font-family="Helvetica,sans-Serif" font-size="10.00">src/app/seamly2d/dialogs</text>
<text text-anchor="middle" x="612.5" y="-63.5" font-family="Helvetica,sans-Serif" font-size="10.00">/dialoglayoutprogress.cpp</text>
</a>
</g>
</g>
<!-- Node1&#45;&gt;Node12 -->
<g id="edge28" class="edge">
<title>Node1&#45;&gt;Node12</title>
<path fill="none" stroke="midnightblue" d="M1422.78,-189.21C1277.96,-170.96 959.64,-129.68 692.5,-87 689.71,-86.55 686.87,-86.09 684,-85.61"/>
<polygon fill="midnightblue" stroke="midnightblue" points="1422.54,-192.71 1432.9,-190.48 1423.42,-185.76 1422.54,-192.71"/>
</g>
<!-- Node17 -->
<g id="node17" class="node">
<title>Node17</title>
<g id="a_node17"><a xlink:href="../../dd/d54/export__layout__dialog_8cpp.html" target="_top" xlink:title=" ">
<polygon fill="white" stroke="black" points="3682,-56.5 3682,-86.5 3825,-86.5 3825,-56.5 3682,-56.5"/>
<text text-anchor="start" x="3690" y="-74.5" font-family="Helvetica,sans-Serif" font-size="10.00">src/app/seamly2d/dialogs</text>
<text text-anchor="middle" x="3753.5" y="-63.5" font-family="Helvetica,sans-Serif" font-size="10.00">/export_layout_dialog.cpp</text>
</a>
</g>
</g>
<!-- Node1&#45;&gt;Node17 -->
<g id="edge33" class="edge">
<title>Node1&#45;&gt;Node17</title>
<path fill="none" stroke="midnightblue" d="M1587.14,-198.12C1879.04,-194.35 2861.56,-175.48 3667.5,-87 3672.17,-86.49 3676.96,-85.89 3681.79,-85.23"/>
<polygon fill="midnightblue" stroke="midnightblue" points="1587,-194.62 1577.05,-198.24 1587.09,-201.62 1587,-194.62"/>
</g>
<!-- Node24 -->
<g id="node24" class="node">
<title>Node24</title>
<g id="a_node24"><a xlink:href="../../d8/dd9/mainwindow_8cpp.html" target="_top" xlink:title=" ">
<polygon fill="white" stroke="black" points="3992.5,-0.5 3992.5,-19.5 4180.5,-19.5 4180.5,-0.5 3992.5,-0.5"/>
<text text-anchor="middle" x="4086.5" y="-7.5" font-family="Helvetica,sans-Serif" font-size="10.00">src/app/seamly2d/mainwindow.cpp</text>
</a>
</g>
</g>
<!-- Node1&#45;&gt;Node24 -->
<g id="edge34" class="edge">
<title>Node1&#45;&gt;Node24</title>
<path fill="none" stroke="midnightblue" d="M1587.28,-199.32C1998.78,-200.59 3760.46,-203.12 4000.5,-154 4078.04,-138.13 4121.3,-152.66 4165.5,-87 4173.19,-75.57 4172.42,-67.91 4165.5,-56 4154.95,-37.85 4134.04,-26.41 4116.38,-19.61"/>
<polygon fill="midnightblue" stroke="midnightblue" points="1587.25,-195.82 1577.24,-199.29 1587.22,-202.82 1587.25,-195.82"/>
</g>
<!-- Node26 -->
<g id="node26" class="node">
<title>Node26</title>
<g id="a_node26"><a xlink:href="../../d5/d4e/dialogpatternproperties_8h.html" target="_top" xlink:title=" ">
<polygon fill="white" stroke="black" points="3849,-123.5 3849,-153.5 3992,-153.5 3992,-123.5 3849,-123.5"/>
<text text-anchor="start" x="3857" y="-141.5" font-family="Helvetica,sans-Serif" font-size="10.00">src/app/seamly2d/dialogs</text>
<text text-anchor="middle" x="3920.5" y="-130.5" font-family="Helvetica,sans-Serif" font-size="10.00">/dialogpatternproperties.h</text>
</a>
</g>
</g>
<!-- Node1&#45;&gt;Node26 -->
<g id="edge29" class="edge">
<title>Node1&#45;&gt;Node26</title>
<path fill="none" stroke="midnightblue" d="M1587.33,-196.89C1967.75,-187.53 3498.31,-149.88 3848.76,-141.26"/>
<polygon fill="midnightblue" stroke="midnightblue" points="1587.13,-193.39 1577.22,-197.14 1587.3,-200.39 1587.13,-193.39"/>
</g>
<!-- Node3 -->
<g id="node3" class="node">
<title>Node3</title>
<g id="a_node3"><a xlink:href="../../d3/dd8/vapplication_8cpp.html" target="_top" xlink:title=" ">
<polygon fill="white" stroke="black" points="2054,-56.5 2054,-86.5 2181,-86.5 2181,-56.5 2054,-56.5"/>
<text text-anchor="start" x="2062" y="-74.5" font-family="Helvetica,sans-Serif" font-size="10.00">src/app/seamly2d/core</text>
<text text-anchor="middle" x="2117.5" y="-63.5" font-family="Helvetica,sans-Serif" font-size="10.00">/vapplication.cpp</text>
</a>
</g>
</g>
<!-- Node2&#45;&gt;Node3 -->
<g id="edge2" class="edge">
<title>Node2&#45;&gt;Node3</title>
<path fill="none" stroke="midnightblue" d="M1901.49,-121.25C1948.7,-110.6 2009.81,-96.81 2054.98,-86.61"/>
<polygon fill="midnightblue" stroke="midnightblue" points="1900.62,-117.86 1891.64,-123.48 1902.16,-124.69 1900.62,-117.86"/>
</g>
<!-- Node2&#45;&gt;Node4 -->
<g id="edge3" class="edge">
<title>Node2&#45;&gt;Node4</title>
<path fill="none" stroke="midnightblue" d="M1755.87,-136.77C1474.61,-133.76 467.83,-120.8 149.5,-87 146.73,-86.71 143.9,-86.37 141.06,-86"/>
<polygon fill="midnightblue" stroke="midnightblue" points="1755.93,-140.27 1765.96,-136.88 1756,-133.27 1755.93,-140.27"/>
</g>
<!-- Node5 -->
<g id="node5" class="node">
<title>Node5</title>
<g id="a_node5"><a xlink:href="../../d2/d2d/preferencesconfigurationpage_8cpp.html" target="_top" xlink:title=" ">
<polygon fill="white" stroke="black" points="2199,-56.5 2199,-86.5 2446,-86.5 2446,-56.5 2199,-56.5"/>
<text text-anchor="start" x="2207" y="-74.5" font-family="Helvetica,sans-Serif" font-size="10.00">src/app/seamly2d/dialogs</text>
<text text-anchor="middle" x="2322.5" y="-63.5" font-family="Helvetica,sans-Serif" font-size="10.00">/configpages/preferencesconfigurationpage.cpp</text>
</a>
</g>
</g>
<!-- Node2&#45;&gt;Node5 -->
<g id="edge4" class="edge">
<title>Node2&#45;&gt;Node5</title>
<path fill="none" stroke="midnightblue" d="M1903.3,-127.77C1986.3,-116.83 2121.82,-98.96 2216.22,-86.51"/>
<polygon fill="midnightblue" stroke="midnightblue" points="1902.65,-124.33 1893.19,-129.1 1903.57,-131.27 1902.65,-124.33"/>
</g>
<!-- Node6 -->
<g id="node6" class="node">
<title>Node6</title>
<g id="a_node6"><a xlink:href="../../d9/d70/preferencesgraphicsviewpage_8cpp.html" target="_top" xlink:title=" ">
<polygon fill="white" stroke="black" points="2464.5,-56.5 2464.5,-86.5 2712.5,-86.5 2712.5,-56.5 2464.5,-56.5"/>
<text text-anchor="start" x="2472.5" y="-74.5" font-family="Helvetica,sans-Serif" font-size="10.00">src/app/seamly2d/dialogs</text>
<text text-anchor="middle" x="2588.5" y="-63.5" font-family="Helvetica,sans-Serif" font-size="10.00">/configpages/preferencesgraphicsviewpage.cpp</text>
</a>
</g>
</g>
<!-- Node2&#45;&gt;Node6 -->
<g id="edge5" class="edge">
<title>Node2&#45;&gt;Node6</title>
<path fill="none" stroke="midnightblue" d="M1903.71,-132.16C2020.83,-123.58 2255.67,-105.79 2454.5,-87 2457.76,-86.69 2461.07,-86.37 2464.4,-86.05"/>
<polygon fill="midnightblue" stroke="midnightblue" points="1903.15,-128.69 1893.43,-132.91 1903.66,-135.67 1903.15,-128.69"/>
</g>
<!-- Node2&#45;&gt;Node7 -->
<g id="edge6" class="edge">
<title>Node2&#45;&gt;Node7</title>
<path fill="none" stroke="midnightblue" d="M1755.64,-137.42C1541.41,-136.66 901.44,-130.61 372.5,-87 369.79,-86.78 367.04,-86.53 364.27,-86.28"/>
<polygon fill="midnightblue" stroke="midnightblue" points="1755.81,-140.92 1765.82,-137.46 1755.83,-133.92 1755.81,-140.92"/>
</g>
<!-- Node8 -->
<g id="node8" class="node">
<title>Node8</title>
<g id="a_node8"><a xlink:href="../../dd/dc2/decimalchart__dialog_8cpp.html" target="_top" xlink:title=" ">
<polygon fill="white" stroke="black" points="2731,-56.5 2731,-86.5 2872,-86.5 2872,-56.5 2731,-56.5"/>
<text text-anchor="start" x="2739" y="-74.5" font-family="Helvetica,sans-Serif" font-size="10.00">src/app/seamly2d/dialogs</text>
<text text-anchor="middle" x="2801.5" y="-63.5" font-family="Helvetica,sans-Serif" font-size="10.00">/decimalchart_dialog.cpp</text>
</a>
</g>
</g>
<!-- Node2&#45;&gt;Node8 -->
<g id="edge7" class="edge">
<title>Node2&#45;&gt;Node8</title>
<path fill="none" stroke="midnightblue" d="M1903.21,-136.38C2056.22,-133.39 2419.23,-122.81 2721.5,-87 2724.58,-86.63 2727.73,-86.22 2730.9,-85.78"/>
<polygon fill="midnightblue" stroke="midnightblue" points="1902.93,-132.89 1893,-136.58 1903.07,-139.89 1902.93,-132.89"/>
</g>
<!-- Node9 -->
<g id="node9" class="node">
<title>Node9</title>
<g id="a_node9"><a xlink:href="../../dc/d63/preferencespatternpage_8cpp.html" target="_top" xlink:title=" ">
<polygon fill="white" stroke="black" points="2890.5,-56.5 2890.5,-86.5 3108.5,-86.5 3108.5,-56.5 2890.5,-56.5"/>
<text text-anchor="start" x="2898.5" y="-74.5" font-family="Helvetica,sans-Serif" font-size="10.00">src/app/seamly2d/dialogs</text>
<text text-anchor="middle" x="2999.5" y="-63.5" font-family="Helvetica,sans-Serif" font-size="10.00">/configpages/preferencespatternpage.cpp</text>
</a>
</g>
</g>
<!-- Node2&#45;&gt;Node9 -->
<g id="edge8" class="edge">
<title>Node2&#45;&gt;Node9</title>
<path fill="none" stroke="midnightblue" d="M1903.48,-135.81C2075.3,-131.47 2514.6,-118.04 2880.5,-87 2883.71,-86.73 2886.98,-86.43 2890.27,-86.12"/>
<polygon fill="midnightblue" stroke="midnightblue" points="1903.2,-132.31 1893.29,-136.06 1903.37,-139.31 1903.2,-132.31"/>
</g>
<!-- Node10 -->
<g id="node10" class="node">
<title>Node10</title>
<g id="a_node10"><a xlink:href="../../d2/d00/vtooloptionspropertybrowser_8cpp.html" target="_top" xlink:title=" ">
<polygon fill="white" stroke="black" points="3126.5,-56.5 3126.5,-86.5 3306.5,-86.5 3306.5,-56.5 3126.5,-56.5"/>
<text text-anchor="start" x="3134.5" y="-74.5" font-family="Helvetica,sans-Serif" font-size="10.00">src/app/seamly2d/core</text>
<text text-anchor="middle" x="3216.5" y="-63.5" font-family="Helvetica,sans-Serif" font-size="10.00">/vtooloptionspropertybrowser.cpp</text>
</a>
</g>
</g>
<!-- Node2&#45;&gt;Node10 -->
<g id="edge9" class="edge">
<title>Node2&#45;&gt;Node10</title>
<path fill="none" stroke="midnightblue" d="M1903.58,-137.34C2101.2,-136.34 2657.23,-129.61 3117.5,-87 3120.44,-86.73 3123.43,-86.43 3126.44,-86.1"/>
<polygon fill="midnightblue" stroke="midnightblue" points="1903.3,-133.85 1893.32,-137.39 1903.33,-140.85 1903.3,-133.85"/>
</g>
<!-- Node2&#45;&gt;Node11 -->
<g id="edge10" class="edge">
<title>Node2&#45;&gt;Node11</title>
<path fill="none" stroke="midnightblue" d="M1755.33,-136.01C1516.84,-130.99 771.28,-113.53 531.5,-87 528.73,-86.69 525.91,-86.35 523.06,-85.97"/>
<polygon fill="midnightblue" stroke="midnightblue" points="1755.56,-139.51 1765.63,-136.22 1755.7,-132.51 1755.56,-139.51"/>
</g>
<!-- Node2&#45;&gt;Node12 -->
<g id="edge11" class="edge">
<title>Node2&#45;&gt;Node12</title>
<path fill="none" stroke="midnightblue" d="M1755.55,-137.66C1573.93,-137.31 1091.7,-131.84 692.5,-87 689.83,-86.7 687.12,-86.37 684.39,-86"/>
<polygon fill="midnightblue" stroke="midnightblue" points="1755.78,-141.16 1765.78,-137.68 1755.79,-134.16 1755.78,-141.16"/>
</g>
<!-- Node13 -->
<g id="node13" class="node">
<title>Node13</title>
<g id="a_node13"><a xlink:href="../../db/def/dialoglayoutsettings_8cpp.html" target="_top" xlink:title=" ">
<polygon fill="white" stroke="black" points="3325,-56.5 3325,-86.5 3466,-86.5 3466,-56.5 3325,-56.5"/>
<text text-anchor="start" x="3333" y="-74.5" font-family="Helvetica,sans-Serif" font-size="10.00">src/app/seamly2d/dialogs</text>
<text text-anchor="middle" x="3395.5" y="-63.5" font-family="Helvetica,sans-Serif" font-size="10.00">/dialoglayoutsettings.cpp</text>
</a>
</g>
</g>
<!-- Node2&#45;&gt;Node13 -->
<g id="edge12" class="edge">
<title>Node2&#45;&gt;Node13</title>
<path fill="none" stroke="midnightblue" d="M1903.15,-136.42C2163.12,-132.36 3037.04,-116.81 3315.5,-87 3318.59,-86.67 3321.74,-86.29 3324.91,-85.87"/>
<polygon fill="midnightblue" stroke="midnightblue" points="1903.01,-132.92 1893.06,-136.57 1903.12,-139.92 1903.01,-132.92"/>
</g>
<!-- Node14 -->
<g id="node14" class="node">
<title>Node14</title>
<g id="a_node14"><a xlink:href="../../de/d87/dialognewpattern_8cpp.html" target="_top" xlink:title=" ">
<polygon fill="white" stroke="black" points="3484,-56.5 3484,-86.5 3625,-86.5 3625,-56.5 3484,-56.5"/>
<text text-anchor="start" x="3492" y="-74.5" font-family="Helvetica,sans-Serif" font-size="10.00">src/app/seamly2d/dialogs</text>
<text text-anchor="middle" x="3554.5" y="-63.5" font-family="Helvetica,sans-Serif" font-size="10.00">/dialognewpattern.cpp</text>
</a>
</g>
</g>
<!-- Node2&#45;&gt;Node14 -->
<g id="edge13" class="edge">
<title>Node2&#45;&gt;Node14</title>
<path fill="none" stroke="midnightblue" d="M1903.4,-136.69C2181.29,-133.43 3163.45,-119.78 3474.5,-87 3477.59,-86.67 3480.74,-86.3 3483.91,-85.88"/>
<polygon fill="midnightblue" stroke="midnightblue" points="1903,-133.2 1893.04,-136.81 1903.08,-140.2 1903,-133.2"/>
</g>
<!-- Node15 -->
<g id="node15" class="node">
<title>Node15</title>
<g id="a_node15"><a xlink:href="../../d5/d18/dialogpatternproperties_8cpp.html" target="_top" xlink:title=" ">
<polygon fill="white" stroke="black" points="3843,-56.5 3843,-86.5 3998,-86.5 3998,-56.5 3843,-56.5"/>
<text text-anchor="start" x="3851" y="-74.5" font-family="Helvetica,sans-Serif" font-size="10.00">src/app/seamly2d/dialogs</text>
<text text-anchor="middle" x="3920.5" y="-63.5" font-family="Helvetica,sans-Serif" font-size="10.00">/dialogpatternproperties.cpp</text>
</a>
</g>
</g>
<!-- Node2&#45;&gt;Node15 -->
<g id="edge14" class="edge">
<title>Node2&#45;&gt;Node15</title>
<path fill="none" stroke="midnightblue" d="M1903.78,-137.02C2219.09,-134.77 3448.12,-123.79 3833.5,-87 3836.55,-86.71 3839.65,-86.37 3842.78,-86.01"/>
<polygon fill="midnightblue" stroke="midnightblue" points="1903.37,-133.52 1893.4,-137.09 1903.42,-140.52 1903.37,-133.52"/>
</g>
<!-- Node16 -->
<g id="node16" class="node">
<title>Node16</title>
<g id="a_node16"><a xlink:href="../../d5/dc5/dialogpreferences_8cpp.html" target="_top" xlink:title=" ">
<polygon fill="white" stroke="black" points="702,-56.5 702,-86.5 843,-86.5 843,-56.5 702,-56.5"/>
<text text-anchor="start" x="710" y="-74.5" font-family="Helvetica,sans-Serif" font-size="10.00">src/app/seamly2d/dialogs</text>
<text text-anchor="middle" x="772.5" y="-63.5" font-family="Helvetica,sans-Serif" font-size="10.00">/dialogpreferences.cpp</text>
</a>
</g>
</g>
<!-- Node2&#45;&gt;Node16 -->
<g id="edge15" class="edge">
<title>Node2&#45;&gt;Node16</title>
<path fill="none" stroke="midnightblue" d="M1755.33,-136.95C1591.64,-135.03 1187.34,-126.32 851.5,-87 848.73,-86.68 845.91,-86.31 843.07,-85.92"/>
<polygon fill="midnightblue" stroke="midnightblue" points="1755.72,-140.46 1765.76,-137.07 1755.8,-133.46 1755.72,-140.46"/>
</g>
<!-- Node2&#45;&gt;Node17 -->
<g id="edge16" class="edge">
<title>Node2&#45;&gt;Node17</title>
<path fill="none" stroke="midnightblue" d="M1903.28,-136.08C2224.17,-129.83 3490.17,-104.3 3667.5,-87 3672.17,-86.54 3676.97,-85.99 3681.8,-85.36"/>
<polygon fill="midnightblue" stroke="midnightblue" points="1903.1,-132.59 1893.17,-136.28 1903.23,-139.58 1903.1,-132.59"/>
</g>
<!-- Node18 -->
<g id="node18" class="node">
<title>Node18</title>
<g id="a_node18"><a xlink:href="../../db/d5c/groups__widget_8cpp.html" target="_top" xlink:title=" ">
<polygon fill="white" stroke="black" points="861,-56.5 861,-86.5 1002,-86.5 1002,-56.5 861,-56.5"/>
<text text-anchor="start" x="869" y="-74.5" font-family="Helvetica,sans-Serif" font-size="10.00">src/app/seamly2d/dialogs</text>
<text text-anchor="middle" x="931.5" y="-63.5" font-family="Helvetica,sans-Serif" font-size="10.00">/groups_widget.cpp</text>
</a>
</g>
</g>
<!-- Node2&#45;&gt;Node18 -->
<g id="edge17" class="edge">
<title>Node2&#45;&gt;Node18</title>
<path fill="none" stroke="midnightblue" d="M1755.77,-135.92C1611.96,-132.17 1284.1,-120.42 1010.5,-87 1007.73,-86.66 1004.91,-86.29 1002.07,-85.89"/>
<polygon fill="midnightblue" stroke="midnightblue" points="1755.72,-139.42 1765.81,-136.17 1755.9,-132.42 1755.72,-139.42"/>
</g>
<!-- Node19 -->
<g id="node19" class="node">
<title>Node19</title>
<g id="a_node19"><a xlink:href="../../dd/d84/shortcuts__dialog_8cpp.html" target="_top" xlink:title=" ">
<polygon fill="white" stroke="black" points="1020,-56.5 1020,-86.5 1161,-86.5 1161,-56.5 1020,-56.5"/>
<text text-anchor="start" x="1028" y="-74.5" font-family="Helvetica,sans-Serif" font-size="10.00">src/app/seamly2d/dialogs</text>
<text text-anchor="middle" x="1090.5" y="-63.5" font-family="Helvetica,sans-Serif" font-size="10.00">/shortcuts_dialog.cpp</text>
</a>
</g>
</g>
<!-- Node2&#45;&gt;Node19 -->
<g id="edge18" class="edge">
<title>Node2&#45;&gt;Node19</title>
<path fill="none" stroke="midnightblue" d="M1755.55,-134.38C1633.23,-128.66 1381.22,-114.45 1169.5,-87 1166.73,-86.64 1163.92,-86.25 1161.08,-85.83"/>
<polygon fill="midnightblue" stroke="midnightblue" points="1755.41,-137.88 1765.56,-134.85 1755.73,-130.89 1755.41,-137.88"/>
</g>
<!-- Node20 -->
<g id="node20" class="node">
<title>Node20</title>
<g id="a_node20"><a xlink:href="../../d2/df4/show__info__dialog_8cpp.html" target="_top" xlink:title=" ">
<polygon fill="white" stroke="black" points="1179,-56.5 1179,-86.5 1320,-86.5 1320,-56.5 1179,-56.5"/>
<text text-anchor="start" x="1187" y="-74.5" font-family="Helvetica,sans-Serif" font-size="10.00">src/app/seamly2d/dialogs</text>
<text text-anchor="middle" x="1249.5" y="-63.5" font-family="Helvetica,sans-Serif" font-size="10.00">/show_info_dialog.cpp</text>
</a>
</g>
</g>
<!-- Node2&#45;&gt;Node20 -->
<g id="edge19" class="edge">
<title>Node2&#45;&gt;Node20</title>
<path fill="none" stroke="midnightblue" d="M1755.7,-131.87C1657.95,-124 1480.32,-108.25 1329.5,-87 1326.43,-86.57 1323.29,-86.1 1320.12,-85.61"/>
<polygon fill="midnightblue" stroke="midnightblue" points="1755.52,-135.37 1765.77,-132.68 1756.08,-128.39 1755.52,-135.37"/>
</g>
<!-- Node21 -->
<g id="node21" class="node">
<title>Node21</title>
<g id="a_node21"><a xlink:href="../../d5/de4/vabstractlayoutdialog_8cpp.html" target="_top" xlink:title=" ">
<polygon fill="white" stroke="black" points="1338.5,-56.5 1338.5,-86.5 1484.5,-86.5 1484.5,-56.5 1338.5,-56.5"/>
<text text-anchor="start" x="1346.5" y="-74.5" font-family="Helvetica,sans-Serif" font-size="10.00">src/app/seamly2d/dialogs</text>
<text text-anchor="middle" x="1411.5" y="-63.5" font-family="Helvetica,sans-Serif" font-size="10.00">/vabstractlayoutdialog.cpp</text>
</a>
</g>
</g>
<!-- Node2&#45;&gt;Node21 -->
<g id="edge20" class="edge">
<title>Node2&#45;&gt;Node21</title>
<path fill="none" stroke="midnightblue" d="M1755.74,-126.97C1687.61,-117.12 1583.62,-101.74 1493.5,-87 1490.65,-86.53 1487.74,-86.05 1484.8,-85.56"/>
<polygon fill="midnightblue" stroke="midnightblue" points="1755.55,-130.48 1765.95,-128.45 1756.55,-123.55 1755.55,-130.48"/>
</g>
<!-- Node22 -->
<g id="node22" class="node">
<title>Node22</title>
<g id="a_node22"><a xlink:href="../../dc/d14/app_2seamly2d_2main_8cpp.html" target="_top" xlink:title=" ">
<polygon fill="white" stroke="black" points="1503,-62 1503,-81 1654,-81 1654,-62 1503,-62"/>
<text text-anchor="middle" x="1578.5" y="-69" font-family="Helvetica,sans-Serif" font-size="10.00">src/app/seamly2d/main.cpp</text>
</a>
</g>
</g>
<!-- Node2&#45;&gt;Node22 -->
<g id="edge21" class="edge">
<title>Node2&#45;&gt;Node22</title>
<path fill="none" stroke="midnightblue" d="M1765.44,-120.91C1716.28,-108.18 1650.43,-91.13 1611.43,-81.03"/>
<polygon fill="midnightblue" stroke="midnightblue" points="1764.79,-124.36 1775.35,-123.48 1766.54,-117.58 1764.79,-124.36"/>
</g>
<!-- Node23 -->
<g id="node23" class="node">
<title>Node23</title>
<g id="a_node23"><a xlink:href="../../d3/d49/vpattern_8cpp.html" target="_top" xlink:title=" ">
<polygon fill="white" stroke="black" points="1672,-56.5 1672,-86.5 1797,-86.5 1797,-56.5 1672,-56.5"/>
<text text-anchor="start" x="1680" y="-74.5" font-family="Helvetica,sans-Serif" font-size="10.00">src/app/seamly2d/xml</text>
<text text-anchor="middle" x="1734.5" y="-63.5" font-family="Helvetica,sans-Serif" font-size="10.00">/vpattern.cpp</text>
</a>
</g>
</g>
<!-- Node2&#45;&gt;Node23 -->
<g id="edge22" class="edge">
<title>Node2&#45;&gt;Node23</title>
<path fill="none" stroke="midnightblue" d="M1800.61,-117.73C1785.91,-107.68 1768.39,-95.68 1755.07,-86.58"/>
<polygon fill="midnightblue" stroke="midnightblue" points="1798.66,-120.64 1808.89,-123.4 1802.61,-114.86 1798.66,-120.64"/>
</g>
<!-- Node2&#45;&gt;Node24 -->
<g id="edge23" class="edge">
<title>Node2&#45;&gt;Node24</title>
<path fill="none" stroke="midnightblue" d="M1903.4,-136.74C2232.38,-133.17 3551.1,-117.06 3633.5,-87 3654.3,-79.41 3652.02,-64.42 3672.5,-56 3728.5,-32.98 3888.46,-20.82 3992.36,-15.16"/>
<polygon fill="midnightblue" stroke="midnightblue" points="1903,-133.24 1893.04,-136.85 1903.08,-140.24 1903,-133.24"/>
</g>
<!-- Node25 -->
<g id="node25" class="node">
<title>Node25</title>
<g id="a_node25"><a xlink:href="../../d8/de8/mainwindowsnogui_8cpp.html" target="_top" xlink:title=" ">
<polygon fill="white" stroke="black" points="1815,-62 1815,-81 2036,-81 2036,-62 1815,-62"/>
<text text-anchor="middle" x="1925.5" y="-69" font-family="Helvetica,sans-Serif" font-size="10.00">src/app/seamly2d/mainwindowsnogui.cpp</text>
</a>
</g>
</g>
<!-- Node2&#45;&gt;Node25 -->
<g id="edge24" class="edge">
<title>Node2&#45;&gt;Node25</title>
<path fill="none" stroke="midnightblue" d="M1858.83,-117.64C1876.95,-105.37 1899.27,-90.26 1912.94,-81.01"/>
<polygon fill="midnightblue" stroke="midnightblue" points="1856.65,-114.89 1850.33,-123.4 1860.57,-120.69 1856.65,-114.89"/>
</g>
<!-- Node26&#45;&gt;Node15 -->
<g id="edge30" class="edge">
<title>Node26&#45;&gt;Node15</title>
<path fill="none" stroke="midnightblue" d="M3920.5,-113.11C3920.5,-104.15 3920.5,-94.32 3920.5,-86.58"/>
<polygon fill="midnightblue" stroke="midnightblue" points="3917,-113.4 3920.5,-123.4 3924,-113.4 3917,-113.4"/>
</g>
<!-- Node27 -->
<g id="node27" class="node">
<title>Node27</title>
<g id="a_node27"><a xlink:href="../../d6/d64/dialogs_8h.html" target="_top" xlink:title=" ">
<polygon fill="white" stroke="black" points="4016,-56.5 4016,-86.5 4157,-86.5 4157,-56.5 4016,-56.5"/>
<text text-anchor="start" x="4024" y="-74.5" font-family="Helvetica,sans-Serif" font-size="10.00">src/app/seamly2d/dialogs</text>
<text text-anchor="middle" x="4086.5" y="-63.5" font-family="Helvetica,sans-Serif" font-size="10.00">/dialogs.h</text>
</a>
</g>
</g>
<!-- Node26&#45;&gt;Node27 -->
<g id="edge31" class="edge">
<title>Node26&#45;&gt;Node27</title>
<path fill="none" stroke="midnightblue" d="M3966.01,-119.68C3992.63,-109.26 4025.77,-96.28 4050.55,-86.58"/>
<polygon fill="midnightblue" stroke="midnightblue" points="3964.55,-116.49 3956.52,-123.4 3967.11,-123.01 3964.55,-116.49"/>
</g>
<!-- Node27&#45;&gt;Node24 -->
<g id="edge32" class="edge">
<title>Node27&#45;&gt;Node24</title>
<path fill="none" stroke="midnightblue" d="M4086.5,-46.29C4086.5,-36.86 4086.5,-26.65 4086.5,-19.66"/>
<polygon fill="midnightblue" stroke="midnightblue" points="4083,-46.4 4086.5,-56.4 4090,-46.4 4083,-46.4"/>
</g>
</g>
</svg>
