<?xml version="1.0" encoding="UTF-8" standalone="no"?>
<!DOCTYPE svg PUBLIC "-//W3C//DTD SVG 1.1//EN"
 "http://www.w3.org/Graphics/SVG/1.1/DTD/svg11.dtd">
<!-- Generated by graphviz version 2.43.0 (0)
 -->
<!-- Title: src/libs/vgeometry/vspline.h Pages: 1 -->
<!--zoomable 423 -->

<svg id="main" version="1.1" xmlns="http://www.w3.org/2000/svg" xmlns:xlink="http://www.w3.org/1999/xlink" xml:space="preserve" onload="init(evt)">
<style type="text/css"><![CDATA[
.node, .edge {opacity: 0.7;}
.node.selected, .edge.selected {opacity: 1;}
.edge:hover path { stroke: red; }
.edge:hover polygon { stroke: red; fill: red; }
]]></style>

<defs>
  <circle id="rim" cx="0" cy="0" r="7"/>
  <circle id="rim2" cx="0" cy="0" r="3.5"/>
  <g id="zoomPlus">
    <use xlink:href="#rim" fill="#404040"><set attributeName="fill" to="#808080" begin="zoomplus.mouseover" end="zoomplus.mouseout"/></use>
    <path d="M-4,0h8M0,-4v8" fill="none" stroke="white" stroke-width="1.5" pointer-events="none"/>
  </g>
  <g id="zoomMin">
    <use xlink:href="#rim" fill="#404040"><set attributeName="fill" to="#808080" begin="zoomminus.mouseover" end="zoomminus.mouseout"/></use>
    <path d="M-4,0h8" fill="none" stroke="white" stroke-width="1.5" pointer-events="none"/>
  </g>
  <g id="arrowUp" transform="translate(30 24)">
    <use xlink:href="#rim"/>
    <path pointer-events="none" fill="none" stroke="white" stroke-width="1.5" d="M0,-3.0v7 M-2.5,-0.5L0,-3.0L2.5,-0.5"/>
  </g>
  <g id="arrowRight" transform="rotate(90) translate(36 -43)">
    <use xlink:href="#rim"/>
    <path pointer-events="none" fill="none" stroke="white" stroke-width="1.5" d="M0,-3.0v7 M-2.5,-0.5L0,-3.0L2.5,-0.5"/>
  </g>
  <g id="arrowDown" transform="rotate(180) translate(-30 -48)">
    <use xlink:href="#rim"/>
    <path pointer-events="none" fill="none" stroke="white" stroke-width="1.5" d="M0,-3.0v7 M-2.5,-0.5L0,-3.0L2.5,-0.5"/>
  </g>
  <g id="arrowLeft" transform="rotate(270) translate(-36 17)">
    <use xlink:href="#rim"/>
    <path pointer-events="none" fill="none" stroke="white" stroke-width="1.5" d="M0,-3.0v7 M-2.5,-0.5L0,-3.0L2.5,-0.5"/>
  </g>
  <g id="resetDef">
    <use xlink:href="#rim2" fill="#404040"><set attributeName="fill" to="#808080" begin="reset.mouseover" end="reset.mouseout"/></use>
  </g>
</defs>
<script type="application/ecmascript">
var viewWidth = 1567;
var viewHeight = 423;
var sectionId = 'dynsection-0';
</script>
<script type="application/ecmascript" xlink:href="../../svg.min.js"/>
<svg id="graph" class="graph">
<g id="viewport">
<title>src/libs/vgeometry/vspline.h</title>
<!-- Node1 -->
<g id="Node000001" class="node">
<title>Node1</title>
<g id="a_Node000001"><a xlink:title=" ">
<polygon fill="#999999" stroke="#666666" points="808.5,-415 701.5,-415 701.5,-385 808.5,-385 808.5,-415"/>
<text text-anchor="start" x="709.5" y="-403" font-family="Helvetica,sans-Serif" font-size="10.00">src/libs/vgeometry</text>
<text text-anchor="middle" x="755" y="-392" font-family="Helvetica,sans-Serif" font-size="10.00">/vspline.h</text>
</a>
</g>
</g>
<!-- Node2 -->
<g id="Node000002" class="node">
<title>Node2</title>
<g id="a_Node000002"><a xlink:title=" ">
<polygon fill="#e0e0e0" stroke="#999999" points="188,-74 68,-74 68,-55 188,-55 188,-74"/>
<text text-anchor="middle" x="128" y="-62" font-family="Helvetica,sans-Serif" font-size="10.00">qcompilerdetection.h</text>
</a>
</g>
</g>
<!-- Node1&#45;&gt;Node2 -->
<g id="edge1_Node000001_Node000002" class="edge">
<title>Node1&#45;&gt;Node2</title>
<g id="a_edge1_Node000001_Node000002"><a xlink:title=" ">
<path fill="none" stroke="#63b8ff" d="M701.31,-397.17C582.71,-392.63 301.8,-378.97 212,-349 160.99,-331.97 109,-339.28 109,-285.5 109,-285.5 109,-285.5 109,-173.5 109,-141.56 117.16,-105.1 122.78,-83.77"/>
<polygon fill="#63b8ff" stroke="#63b8ff" points="126.17,-84.66 125.44,-74.09 119.42,-82.81 126.17,-84.66"/>
</a>
</g>
</g>
<!-- Node3 -->
<g id="Node000003" class="node">
<title>Node3</title>
<g id="a_Node000003"><a xlink:title=" ">
<polygon fill="#e0e0e0" stroke="#999999" points="50,-74 0,-74 0,-55 50,-55 50,-74"/>
<text text-anchor="middle" x="25" y="-62" font-family="Helvetica,sans-Serif" font-size="10.00">QLineF</text>
</a>
</g>
</g>
<!-- Node1&#45;&gt;Node3 -->
<g id="edge2_Node000001_Node000003" class="edge">
<title>Node1&#45;&gt;Node3</title>
<g id="a_edge2_Node000001_Node000003"><a xlink:title=" ">
<path fill="none" stroke="#63b8ff" d="M701.16,-398.02C570.56,-395.11 239.99,-384.36 136,-349 86.86,-332.29 38,-337.4 38,-285.5 38,-285.5 38,-285.5 38,-173.5 38,-141.96 32.47,-105.62 28.62,-84.15"/>
<polygon fill="#63b8ff" stroke="#63b8ff" points="32.03,-83.33 26.75,-74.14 25.15,-84.61 32.03,-83.33"/>
</a>
</g>
</g>
<!-- Node4 -->
<g id="Node000004" class="node">
<title>Node4</title>
<g id="a_Node000004"><a xlink:title=" ">
<polygon fill="#e0e0e0" stroke="#999999" points="1416.5,-184 1345.5,-184 1345.5,-165 1416.5,-165 1416.5,-184"/>
<text text-anchor="middle" x="1381" y="-172" font-family="Helvetica,sans-Serif" font-size="10.00">QMetaType</text>
</a>
</g>
</g>
<!-- Node1&#45;&gt;Node4 -->
<g id="edge3_Node000001_Node000004" class="edge">
<title>Node1&#45;&gt;Node4</title>
<g id="a_edge3_Node000001_Node000004"><a xlink:title=" ">
<path fill="none" stroke="#63b8ff" d="M808.77,-389.33C853.12,-380.71 917.39,-366.72 972,-349 1120.98,-300.65 1290.97,-219.83 1354.89,-188.48"/>
<polygon fill="#63b8ff" stroke="#63b8ff" points="1356.45,-191.61 1363.88,-184.05 1353.36,-185.33 1356.45,-191.61"/>
</a>
</g>
</g>
<!-- Node5 -->
<g id="Node000005" class="node">
<title>Node5</title>
<g id="a_Node000005"><a xlink:title=" ">
<polygon fill="#e0e0e0" stroke="#999999" points="306.5,-184 251.5,-184 251.5,-165 306.5,-165 306.5,-184"/>
<text text-anchor="middle" x="279" y="-172" font-family="Helvetica,sans-Serif" font-size="10.00">QPointF</text>
</a>
</g>
</g>
<!-- Node1&#45;&gt;Node5 -->
<g id="edge4_Node000001_Node000005" class="edge">
<title>Node1&#45;&gt;Node5</title>
<g id="a_edge4_Node000001_Node000005"><a xlink:title=" ">
<path fill="none" stroke="#63b8ff" d="M701.23,-395.7C619.08,-389.87 466.93,-375.76 420,-349 354.02,-311.37 306.52,-229.9 287.81,-193.59"/>
<polygon fill="#63b8ff" stroke="#63b8ff" points="290.73,-191.61 283.11,-184.24 284.47,-194.75 290.73,-191.61"/>
</a>
</g>
</g>
<!-- Node6 -->
<g id="Node000006" class="node">
<title>Node6</title>
<g id="a_Node000006"><a xlink:title=" ">
<polygon fill="#e0e0e0" stroke="#999999" points="1309,-129 1193,-129 1193,-110 1309,-110 1309,-129"/>
<text text-anchor="middle" x="1251" y="-117" font-family="Helvetica,sans-Serif" font-size="10.00">QSharedDataPointer</text>
</a>
</g>
</g>
<!-- Node1&#45;&gt;Node6 -->
<g id="edge5_Node000001_Node000006" class="edge">
<title>Node1&#45;&gt;Node6</title>
<g id="a_edge5_Node000001_Node000006"><a xlink:title=" ">
<path fill="none" stroke="#63b8ff" d="M808.57,-395.83C970.69,-385.54 1445,-349.92 1445,-285.5 1445,-285.5 1445,-285.5 1445,-228.5 1445,-199.04 1447.26,-185.39 1426,-165 1410.5,-150.13 1361.46,-138.43 1319.23,-130.77"/>
<polygon fill="#63b8ff" stroke="#63b8ff" points="1319.68,-127.29 1309.22,-129 1318.46,-134.19 1319.68,-127.29"/>
</a>
</g>
</g>
<!-- Node7 -->
<g id="Node000007" class="node">
<title>Node7</title>
<g id="a_Node000007"><a xlink:title=" ">
<polygon fill="#e0e0e0" stroke="#999999" points="640.5,-74 587.5,-74 587.5,-55 640.5,-55 640.5,-74"/>
<text text-anchor="middle" x="614" y="-62" font-family="Helvetica,sans-Serif" font-size="10.00">QString</text>
</a>
</g>
</g>
<!-- Node1&#45;&gt;Node7 -->
<g id="edge6_Node000001_Node000007" class="edge">
<title>Node1&#45;&gt;Node7</title>
<g id="a_edge6_Node000001_Node000007"><a xlink:title=" ">
<path fill="none" stroke="#63b8ff" d="M701.38,-399.59C559.48,-399.73 185,-390.18 185,-285.5 185,-285.5 185,-285.5 185,-228.5 185,-194.16 201.39,-185.41 229,-165 271.38,-133.66 293.77,-150.27 342,-129 357.48,-122.17 359.1,-115.79 375,-110 458.16,-79.74 486.34,-91.64 577.39,-73.97"/>
<polygon fill="#63b8ff" stroke="#63b8ff" points="578.19,-77.38 587.3,-71.98 576.81,-70.52 578.19,-77.38"/>
</a>
</g>
</g>
<!-- Node8 -->
<g id="Node000008" class="node">
<title>Node8</title>
<g id="a_Node000008"><a xlink:title=" ">
<polygon fill="#e0e0e0" stroke="#999999" points="1392.5,-129 1327.5,-129 1327.5,-110 1392.5,-110 1392.5,-129"/>
<text text-anchor="middle" x="1360" y="-117" font-family="Helvetica,sans-Serif" font-size="10.00">QTypeInfo</text>
</a>
</g>
</g>
<!-- Node1&#45;&gt;Node8 -->
<g id="edge7_Node000001_Node000008" class="edge">
<title>Node1&#45;&gt;Node8</title>
<g id="a_edge7_Node000001_Node000008"><a xlink:title=" ">
<path fill="none" stroke="#63b8ff" d="M808.81,-399.87C911.92,-400.32 1143.85,-395.49 1332,-349 1402.68,-331.53 1483,-358.3 1483,-285.5 1483,-285.5 1483,-285.5 1483,-228.5 1483,-180.63 1429.75,-149 1393.32,-132.96"/>
<polygon fill="#63b8ff" stroke="#63b8ff" points="1394.58,-129.69 1384.01,-129.03 1391.86,-136.14 1394.58,-129.69"/>
</a>
</g>
</g>
<!-- Node9 -->
<g id="Node000009" class="node">
<title>Node9</title>
<g id="a_Node000009"><a xlink:title=" ">
<polygon fill="#e0e0e0" stroke="#999999" points="634.5,-129 579.5,-129 579.5,-110 634.5,-110 634.5,-129"/>
<text text-anchor="middle" x="607" y="-117" font-family="Helvetica,sans-Serif" font-size="10.00">QVector</text>
</a>
</g>
</g>
<!-- Node1&#45;&gt;Node9 -->
<g id="edge8_Node000001_Node000009" class="edge">
<title>Node1&#45;&gt;Node9</title>
<g id="a_edge8_Node000001_Node000009"><a xlink:title=" ">
<path fill="none" stroke="#63b8ff" d="M701.05,-387.37C650.61,-372.96 583,-342.92 583,-285.5 583,-285.5 583,-285.5 583,-228.5 583,-196.28 593.31,-159.91 600.41,-138.66"/>
<polygon fill="#63b8ff" stroke="#63b8ff" points="603.78,-139.63 603.76,-129.04 597.17,-137.33 603.78,-139.63"/>
</a>
</g>
</g>
<!-- Node10 -->
<g id="Node000010" class="node">
<title>Node10</title>
<g id="a_Node000010"><a xlink:title=" ">
<polygon fill="#e0e0e0" stroke="#999999" points="1107.5,-74 1048.5,-74 1048.5,-55 1107.5,-55 1107.5,-74"/>
<text text-anchor="middle" x="1078" y="-62" font-family="Helvetica,sans-Serif" font-size="10.00">QtGlobal</text>
</a>
</g>
</g>
<!-- Node1&#45;&gt;Node10 -->
<g id="edge9_Node000001_Node000010" class="edge">
<title>Node1&#45;&gt;Node10</title>
<g id="a_edge9_Node000001_Node000010"><a xlink:title=" ">
<path fill="none" stroke="#63b8ff" d="M808.53,-397.14C943.57,-392.08 1295.44,-376.59 1409,-349 1479.35,-331.91 1559,-357.89 1559,-285.5 1559,-285.5 1559,-285.5 1559,-173.5 1559,-83.35 1233.25,-68.43 1117.9,-65.98"/>
<polygon fill="#63b8ff" stroke="#63b8ff" points="1117.79,-62.48 1107.73,-65.78 1117.66,-69.48 1117.79,-62.48"/>
</a>
</g>
</g>
<!-- Node11 -->
<g id="Node000011" class="node">
<title>Node11</title>
<g id="a_Node000011"><a xlink:href="../../d6/d7c/vabstractcubicbezier_8h.html" target="_top" xlink:title=" ">
<polygon fill="white" stroke="#666666" points="555,-349 429,-349 429,-330 555,-330 555,-349"/>
<text text-anchor="middle" x="492" y="-337" font-family="Helvetica,sans-Serif" font-size="10.00">vabstractcubicbezier.h</text>
</a>
</g>
</g>
<!-- Node1&#45;&gt;Node11 -->
<g id="edge10_Node000001_Node000011" class="edge">
<title>Node1&#45;&gt;Node11</title>
<g id="a_edge10_Node000001_Node000011"><a xlink:title=" ">
<path fill="none" stroke="#63b8ff" d="M701.46,-387.09C654.27,-376.59 586.1,-361.43 540.49,-351.29"/>
<polygon fill="#63b8ff" stroke="#63b8ff" points="541.06,-347.83 530.54,-349.07 539.54,-354.66 541.06,-347.83"/>
</a>
</g>
</g>
<!-- Node25 -->
<g id="Node000025" class="node">
<title>Node25</title>
<g id="a_Node000025"><a xlink:href="../../d5/d9d/vgeometrydef_8h.html" target="_top" xlink:title=" ">
<polygon fill="white" stroke="#666666" points="925,-129 831,-129 831,-110 925,-110 925,-129"/>
<text text-anchor="middle" x="878" y="-117" font-family="Helvetica,sans-Serif" font-size="10.00">vgeometrydef.h</text>
</a>
</g>
</g>
<!-- Node1&#45;&gt;Node25 -->
<g id="edge55_Node000001_Node000025" class="edge">
<title>Node1&#45;&gt;Node25</title>
<g id="a_edge55_Node000001_Node000025"><a xlink:title=" ">
<path fill="none" stroke="#63b8ff" d="M808.95,-387.37C859.39,-372.96 927,-342.92 927,-285.5 927,-285.5 927,-285.5 927,-228.5 927,-193.68 905.62,-157.74 891.1,-137.35"/>
<polygon fill="#63b8ff" stroke="#63b8ff" points="893.79,-135.09 885.02,-129.13 888.16,-139.25 893.79,-135.09"/>
</a>
</g>
</g>
<!-- Node27 -->
<g id="Node000027" class="node">
<title>Node27</title>
<g id="a_Node000027"><a xlink:href="../../d1/d48/vpointf_8h.html" target="_top" xlink:title=" ">
<polygon fill="white" stroke="#666666" points="1158.5,-239 1099.5,-239 1099.5,-220 1158.5,-220 1158.5,-239"/>
<text text-anchor="middle" x="1129" y="-227" font-family="Helvetica,sans-Serif" font-size="10.00">vpointf.h</text>
</a>
</g>
</g>
<!-- Node1&#45;&gt;Node27 -->
<g id="edge56_Node000001_Node000027" class="edge">
<title>Node1&#45;&gt;Node27</title>
<g id="a_edge56_Node000001_Node000027"><a xlink:title=" ">
<path fill="none" stroke="#63b8ff" d="M808.54,-389.07C846.51,-380.96 898.11,-367.77 941,-349 1006.91,-320.16 1076.55,-270.46 1109.51,-245.59"/>
<polygon fill="#63b8ff" stroke="#63b8ff" points="1111.97,-248.12 1117.81,-239.28 1107.73,-242.55 1111.97,-248.12"/>
</a>
</g>
</g>
<!-- Node11&#45;&gt;Node2 -->
<g id="edge11_Node000011_Node000002" class="edge">
<title>Node11&#45;&gt;Node2</title>
<g id="a_edge11_Node000011_Node000002"><a xlink:title=" ">
<path fill="none" stroke="#63b8ff" d="M428.81,-331.51C389.62,-325.39 339.1,-314.18 298,-294 207.19,-249.41 152.95,-130.14 134.83,-84.04"/>
<polygon fill="#63b8ff" stroke="#63b8ff" points="138,-82.54 131.16,-74.44 131.46,-85.04 138,-82.54"/>
</a>
</g>
</g>
<!-- Node11&#45;&gt;Node5 -->
<g id="edge12_Node000011_Node000005" class="edge">
<title>Node11&#45;&gt;Node5</title>
<g id="a_edge12_Node000011_Node000005"><a xlink:title=" ">
<path fill="none" stroke="#63b8ff" d="M480.85,-329.97C446.49,-303.68 341.97,-223.69 298.39,-190.34"/>
<polygon fill="#63b8ff" stroke="#63b8ff" points="300.37,-187.44 290.3,-184.15 296.11,-193 300.37,-187.44"/>
</a>
</g>
</g>
<!-- Node11&#45;&gt;Node7 -->
<g id="edge13_Node000011_Node000007" class="edge">
<title>Node11&#45;&gt;Node7</title>
<g id="a_edge13_Node000011_Node000007"><a xlink:title=" ">
<path fill="none" stroke="#63b8ff" d="M454.96,-329.98C370.72,-308.88 176.93,-249.76 242,-165 242.66,-164.15 483.76,-100.07 577.41,-75.21"/>
<polygon fill="#63b8ff" stroke="#63b8ff" points="578.53,-78.53 587.3,-72.58 576.74,-71.77 578.53,-78.53"/>
</a>
</g>
</g>
<!-- Node11&#45;&gt;Node9 -->
<g id="edge14_Node000011_Node000009" class="edge">
<title>Node11&#45;&gt;Node9</title>
<g id="a_edge14_Node000011_Node000009"><a xlink:title=" ">
<path fill="none" stroke="#63b8ff" d="M498.37,-329.98C504.69,-321.26 514.36,-307.18 521,-294 548.53,-239.37 538,-217.73 569,-165 575.02,-154.75 583.48,-144.58 590.88,-136.55"/>
<polygon fill="#63b8ff" stroke="#63b8ff" points="593.43,-138.96 597.81,-129.31 588.37,-134.12 593.43,-138.96"/>
</a>
</g>
</g>
<!-- Node11&#45;&gt;Node10 -->
<g id="edge15_Node000011_Node000010" class="edge">
<title>Node11&#45;&gt;Node10</title>
<g id="a_edge15_Node000011_Node000010"><a xlink:title=" ">
<path fill="none" stroke="#63b8ff" d="M491.89,-329.59C491.98,-294.75 497.41,-166.88 570,-110 606.58,-81.34 924.82,-69.76 1038.14,-66.52"/>
<polygon fill="#63b8ff" stroke="#63b8ff" points="1038.25,-70.02 1048.14,-66.24 1038.05,-63.02 1038.25,-70.02"/>
</a>
</g>
</g>
<!-- Node12 -->
<g id="Node000012" class="node">
<title>Node12</title>
<g id="a_Node000012"><a xlink:href="../../d3/da5/ifcdef_8h.html" target="_top" xlink:title=" ">
<polygon fill="white" stroke="#666666" points="478.5,-184 401.5,-184 401.5,-165 478.5,-165 478.5,-184"/>
<text text-anchor="middle" x="440" y="-172" font-family="Helvetica,sans-Serif" font-size="10.00">../ifc/ifcdef.h</text>
</a>
</g>
</g>
<!-- Node11&#45;&gt;Node12 -->
<g id="edge16_Node000011_Node000012" class="edge">
<title>Node11&#45;&gt;Node12</title>
<g id="a_edge16_Node000011_Node000012"><a xlink:title=" ">
<path fill="none" stroke="#63b8ff" d="M489.2,-329.74C481.06,-304.2 457.2,-229.43 445.98,-194.23"/>
<polygon fill="#63b8ff" stroke="#63b8ff" points="449.18,-192.77 442.81,-184.31 442.51,-194.9 449.18,-192.77"/>
</a>
</g>
</g>
<!-- Node21 -->
<g id="Node000021" class="node">
<title>Node21</title>
<g id="a_Node000021"><a xlink:href="../../d8/d94/vabstractbezier_8h.html" target="_top" xlink:title=" ">
<polygon fill="white" stroke="#666666" points="786.5,-294 685.5,-294 685.5,-275 786.5,-275 786.5,-294"/>
<text text-anchor="middle" x="736" y="-282" font-family="Helvetica,sans-Serif" font-size="10.00">vabstractbezier.h</text>
</a>
</g>
</g>
<!-- Node11&#45;&gt;Node21 -->
<g id="edge33_Node000011_Node000021" class="edge">
<title>Node11&#45;&gt;Node21</title>
<g id="a_edge33_Node000011_Node000021"><a xlink:title=" ">
<path fill="none" stroke="#63b8ff" d="M531.2,-329.98C573.41,-320.82 640.65,-306.21 686.48,-296.26"/>
<polygon fill="#63b8ff" stroke="#63b8ff" points="687.46,-299.63 696.49,-294.08 685.97,-292.78 687.46,-299.63"/>
</a>
</g>
</g>
<!-- Node11&#45;&gt;Node25 -->
<g id="edge54_Node000011_Node000025" class="edge">
<title>Node11&#45;&gt;Node25</title>
<g id="a_edge54_Node000011_Node000025"><a xlink:title=" ">
<path fill="none" stroke="#63b8ff" d="M555.05,-336.09C632.63,-331.98 758.66,-321.22 796,-294 848.23,-255.93 868.39,-175.92 875.09,-139.4"/>
<polygon fill="#63b8ff" stroke="#63b8ff" points="878.6,-139.62 876.82,-129.18 871.7,-138.46 878.6,-139.62"/>
</a>
</g>
</g>
<!-- Node12&#45;&gt;Node7 -->
<g id="edge17_Node000012_Node000007" class="edge">
<title>Node12&#45;&gt;Node7</title>
<g id="a_edge17_Node000012_Node000007"><a xlink:title=" ">
<path fill="none" stroke="#63b8ff" d="M445.94,-164.94C455.63,-151.54 476.08,-125.54 499,-110 523.03,-93.71 553.88,-82.19 577.57,-74.96"/>
<polygon fill="#63b8ff" stroke="#63b8ff" points="578.64,-78.29 587.25,-72.12 576.67,-71.58 578.64,-78.29"/>
</a>
</g>
</g>
<!-- Node12&#45;&gt;Node10 -->
<g id="edge19_Node000012_Node000010" class="edge">
<title>Node12&#45;&gt;Node10</title>
<g id="a_edge19_Node000012_Node000010"><a xlink:title=" ">
<path fill="none" stroke="#63b8ff" d="M451.73,-164.76C473.3,-148.86 518.73,-116.28 537,-110 629.73,-78.15 929.11,-68.68 1037.96,-66.25"/>
<polygon fill="#63b8ff" stroke="#63b8ff" points="1038.27,-69.74 1048.19,-66.03 1038.11,-62.74 1038.27,-69.74"/>
</a>
</g>
</g>
<!-- Node13 -->
<g id="Node000013" class="node">
<title>Node13</title>
<g id="a_Node000013"><a xlink:title=" ">
<polygon fill="#e0e0e0" stroke="#999999" points="569,-74 499,-74 499,-55 569,-55 569,-74"/>
<text text-anchor="middle" x="534" y="-62" font-family="Helvetica,sans-Serif" font-size="10.00">QStringList</text>
</a>
</g>
</g>
<!-- Node12&#45;&gt;Node13 -->
<g id="edge18_Node000012_Node000013" class="edge">
<title>Node12&#45;&gt;Node13</title>
<g id="a_edge18_Node000012_Node000013"><a xlink:title=" ">
<path fill="none" stroke="#63b8ff" d="M440.95,-164.8C442.79,-151.66 447.85,-126.55 461,-110 471.83,-96.37 488.06,-85.88 502.47,-78.53"/>
<polygon fill="#63b8ff" stroke="#63b8ff" points="504.1,-81.63 511.6,-74.14 501.07,-75.32 504.1,-81.63"/>
</a>
</g>
</g>
<!-- Node14 -->
<g id="Node000014" class="node">
<title>Node14</title>
<g id="a_Node000014"><a xlink:href="../../d4/da4/def_8h.html" target="_top" xlink:title=" ">
<polygon fill="white" stroke="#666666" points="333,-129 251,-129 251,-110 333,-110 333,-129"/>
<text text-anchor="middle" x="292" y="-117" font-family="Helvetica,sans-Serif" font-size="10.00">../vmisc/def.h</text>
</a>
</g>
</g>
<!-- Node12&#45;&gt;Node14 -->
<g id="edge20_Node000012_Node000014" class="edge">
<title>Node12&#45;&gt;Node14</title>
<g id="a_edge20_Node000012_Node000014"><a xlink:title=" ">
<path fill="none" stroke="#63b8ff" d="M416.22,-164.98C391.77,-156.23 353.47,-142.51 325.85,-132.62"/>
<polygon fill="#63b8ff" stroke="#63b8ff" points="326.81,-129.25 316.21,-129.17 324.45,-135.84 326.81,-129.25"/>
</a>
</g>
</g>
<!-- Node20 -->
<g id="Node000020" class="node">
<title>Node20</title>
<g id="a_Node000020"><a xlink:href="../../d6/dcd/diagnostic_8h.html" target="_top" xlink:title=" ">
<polygon fill="white" stroke="#666666" points="1136.5,-129 1019.5,-129 1019.5,-110 1136.5,-110 1136.5,-129"/>
<text text-anchor="middle" x="1078" y="-117" font-family="Helvetica,sans-Serif" font-size="10.00">../vmisc/diagnostic.h</text>
</a>
</g>
</g>
<!-- Node12&#45;&gt;Node20 -->
<g id="edge31_Node000012_Node000020" class="edge">
<title>Node12&#45;&gt;Node20</title>
<g id="a_edge31_Node000012_Node000020"><a xlink:title=" ">
<path fill="none" stroke="#63b8ff" d="M478.95,-170.26C584.16,-161.52 875.12,-137.35 1008.98,-126.23"/>
<polygon fill="#63b8ff" stroke="#63b8ff" points="1009.44,-129.71 1019.12,-125.39 1008.86,-122.73 1009.44,-129.71"/>
</a>
</g>
</g>
<!-- Node14&#45;&gt;Node2 -->
<g id="edge21_Node000014_Node000002" class="edge">
<title>Node14&#45;&gt;Node2</title>
<g id="a_edge21_Node000014_Node000002"><a xlink:title=" ">
<path fill="none" stroke="#63b8ff" d="M265.65,-109.98C238.24,-101.13 195.11,-87.19 164.44,-77.28"/>
<polygon fill="#63b8ff" stroke="#63b8ff" points="165.15,-73.83 154.56,-74.08 163,-80.49 165.15,-73.83"/>
</a>
</g>
</g>
<!-- Node14&#45;&gt;Node3 -->
<g id="edge22_Node000014_Node000003" class="edge">
<title>Node14&#45;&gt;Node3</title>
<g id="a_edge22_Node000014_Node000003"><a xlink:title=" ">
<path fill="none" stroke="#63b8ff" d="M250.61,-111.32C206.01,-103.42 132.72,-89.98 60.41,-74.21"/>
<polygon fill="#63b8ff" stroke="#63b8ff" points="60.73,-70.7 50.21,-71.97 59.23,-77.54 60.73,-70.7"/>
</a>
</g>
</g>
<!-- Node14&#45;&gt;Node7 -->
<g id="edge23_Node000014_Node000007" class="edge">
<title>Node14&#45;&gt;Node7</title>
<g id="a_edge23_Node000014_Node000007"><a xlink:title=" ">
<path fill="none" stroke="#63b8ff" d="M333.15,-112.14C402.36,-101.44 537.76,-80.47 577.36,-73.81"/>
<polygon fill="#63b8ff" stroke="#63b8ff" points="578.08,-77.23 587.31,-72.04 576.86,-70.34 578.08,-77.23"/>
</a>
</g>
</g>
<!-- Node14&#45;&gt;Node10 -->
<g id="edge26_Node000014_Node000010" class="edge">
<title>Node14&#45;&gt;Node10</title>
<g id="a_edge26_Node000014_Node000010"><a xlink:title=" ">
<path fill="none" stroke="#63b8ff" d="M333.15,-115.73C469.24,-106.55 903.71,-77.25 1038.04,-68.19"/>
<polygon fill="#63b8ff" stroke="#63b8ff" points="1038.54,-71.67 1048.28,-67.5 1038.07,-64.68 1038.54,-71.67"/>
</a>
</g>
</g>
<!-- Node14&#45;&gt;Node13 -->
<g id="edge24_Node000014_Node000013" class="edge">
<title>Node14&#45;&gt;Node13</title>
<g id="a_edge24_Node000014_Node000013"><a xlink:title=" ">
<path fill="none" stroke="#63b8ff" d="M330.88,-109.98C373.98,-100.54 443.41,-85.34 488.87,-75.38"/>
<polygon fill="#63b8ff" stroke="#63b8ff" points="489.74,-78.78 498.76,-73.22 488.24,-71.94 489.74,-78.78"/>
</a>
</g>
</g>
<!-- Node15 -->
<g id="Node000015" class="node">
<title>Node15</title>
<g id="a_Node000015"><a xlink:title=" ">
<polygon fill="#e0e0e0" stroke="#999999" points="336.5,-74 307.5,-74 307.5,-55 336.5,-55 336.5,-74"/>
<text text-anchor="middle" x="322" y="-62" font-family="Helvetica,sans-Serif" font-size="10.00">Qt</text>
</a>
</g>
</g>
<!-- Node14&#45;&gt;Node15 -->
<g id="edge25_Node000014_Node000015" class="edge">
<title>Node14&#45;&gt;Node15</title>
<g id="a_edge25_Node000014_Node000015"><a xlink:title=" ">
<path fill="none" stroke="#63b8ff" d="M296.95,-109.75C301.06,-102.49 307.03,-91.95 312.1,-82.98"/>
<polygon fill="#63b8ff" stroke="#63b8ff" points="315.26,-84.52 317.14,-74.09 309.17,-81.07 315.26,-84.52"/>
</a>
</g>
</g>
<!-- Node16 -->
<g id="Node000016" class="node">
<title>Node16</title>
<g id="a_Node000016"><a xlink:title=" ">
<polygon fill="#e0e0e0" stroke="#999999" points="411,-74 355,-74 355,-55 411,-55 411,-74"/>
<text text-anchor="middle" x="383" y="-62" font-family="Helvetica,sans-Serif" font-size="10.00">QPrinter</text>
</a>
</g>
</g>
<!-- Node14&#45;&gt;Node16 -->
<g id="edge27_Node000014_Node000016" class="edge">
<title>Node14&#45;&gt;Node16</title>
<g id="a_edge27_Node000014_Node000016"><a xlink:title=" ">
<path fill="none" stroke="#63b8ff" d="M306.62,-109.98C320.86,-101.69 342.75,-88.94 359.45,-79.22"/>
<polygon fill="#63b8ff" stroke="#63b8ff" points="361.23,-82.23 368.11,-74.17 357.71,-76.18 361.23,-82.23"/>
</a>
</g>
</g>
<!-- Node17 -->
<g id="Node000017" class="node">
<title>Node17</title>
<g id="a_Node000017"><a xlink:title=" ">
<polygon fill="#e0e0e0" stroke="#999999" points="480.5,-74 429.5,-74 429.5,-55 480.5,-55 480.5,-74"/>
<text text-anchor="middle" x="455" y="-62" font-family="Helvetica,sans-Serif" font-size="10.00">csignal</text>
</a>
</g>
</g>
<!-- Node14&#45;&gt;Node17 -->
<g id="edge28_Node000014_Node000017" class="edge">
<title>Node14&#45;&gt;Node17</title>
<g id="a_edge28_Node000014_Node000017"><a xlink:title=" ">
<path fill="none" stroke="#63b8ff" d="M318.19,-109.98C345.68,-101.05 389.07,-86.94 419.59,-77.01"/>
<polygon fill="#63b8ff" stroke="#63b8ff" points="420.99,-80.24 429.41,-73.82 418.82,-73.58 420.99,-80.24"/>
</a>
</g>
</g>
<!-- Node18 -->
<g id="Node000018" class="node">
<title>Node18</title>
<g id="a_Node000018"><a xlink:href="../../d4/d82/debugbreak_8h.html" target="_top" xlink:title=" ">
<polygon fill="white" stroke="#666666" points="289.5,-74 206.5,-74 206.5,-55 289.5,-55 289.5,-74"/>
<text text-anchor="middle" x="248" y="-62" font-family="Helvetica,sans-Serif" font-size="10.00">debugbreak.h</text>
</a>
</g>
</g>
<!-- Node14&#45;&gt;Node18 -->
<g id="edge29_Node000014_Node000018" class="edge">
<title>Node14&#45;&gt;Node18</title>
<g id="a_edge29_Node000014_Node000018"><a xlink:title=" ">
<path fill="none" stroke="#63b8ff" d="M284.73,-109.75C278.46,-102.18 269.21,-91.05 261.57,-81.84"/>
<polygon fill="#63b8ff" stroke="#63b8ff" points="264.21,-79.55 255.13,-74.09 258.83,-84.02 264.21,-79.55"/>
</a>
</g>
</g>
<!-- Node19 -->
<g id="Node000019" class="node">
<title>Node19</title>
<g id="a_Node000019"><a xlink:title=" ">
<polygon fill="#e0e0e0" stroke="#999999" points="275.5,-19 220.5,-19 220.5,0 275.5,0 275.5,-19"/>
<text text-anchor="middle" x="248" y="-7" font-family="Helvetica,sans-Serif" font-size="10.00">signal.h</text>
</a>
</g>
</g>
<!-- Node18&#45;&gt;Node19 -->
<g id="edge30_Node000018_Node000019" class="edge">
<title>Node18&#45;&gt;Node19</title>
<g id="a_edge30_Node000018_Node000019"><a xlink:title=" ">
<path fill="none" stroke="#63b8ff" d="M248,-54.75C248,-47.8 248,-37.85 248,-29.13"/>
<polygon fill="#63b8ff" stroke="#63b8ff" points="251.5,-29.09 248,-19.09 244.5,-29.09 251.5,-29.09"/>
</a>
</g>
</g>
<!-- Node20&#45;&gt;Node10 -->
<g id="edge32_Node000020_Node000010" class="edge">
<title>Node20&#45;&gt;Node10</title>
<g id="a_edge32_Node000020_Node000010"><a xlink:title=" ">
<path fill="none" stroke="#63b8ff" d="M1078,-109.75C1078,-102.8 1078,-92.85 1078,-84.13"/>
<polygon fill="#63b8ff" stroke="#63b8ff" points="1081.5,-84.09 1078,-74.09 1074.5,-84.09 1081.5,-84.09"/>
</a>
</g>
</g>
<!-- Node21&#45;&gt;Node10 -->
<g id="edge34_Node000021_Node000010" class="edge">
<title>Node21&#45;&gt;Node10</title>
<g id="a_edge34_Node000021_Node000010"><a xlink:title=" ">
<path fill="none" stroke="#63b8ff" d="M786.57,-280.11C938.93,-269.38 1385.65,-233.86 1426,-184 1438.1,-169.05 1439.13,-131.44 1417,-110 1375.13,-69.43 1197.92,-64.92 1117.72,-65.02"/>
<polygon fill="#63b8ff" stroke="#63b8ff" points="1117.51,-61.52 1107.53,-65.06 1117.54,-68.52 1117.51,-61.52"/>
</a>
</g>
</g>
<!-- Node22 -->
<g id="Node000022" class="node">
<title>Node22</title>
<g id="a_Node000022"><a xlink:href="../../d5/d82/vabstractcurve_8h.html" target="_top" xlink:title=" ">
<polygon fill="white" stroke="#666666" points="785,-239 687,-239 687,-220 785,-220 785,-239"/>
<text text-anchor="middle" x="736" y="-227" font-family="Helvetica,sans-Serif" font-size="10.00">vabstractcurve.h</text>
</a>
</g>
</g>
<!-- Node21&#45;&gt;Node22 -->
<g id="edge35_Node000021_Node000022" class="edge">
<title>Node21&#45;&gt;Node22</title>
<g id="a_edge35_Node000021_Node000022"><a xlink:title=" ">
<path fill="none" stroke="#63b8ff" d="M736,-274.75C736,-267.8 736,-257.85 736,-249.13"/>
<polygon fill="#63b8ff" stroke="#63b8ff" points="739.5,-249.09 736,-239.09 732.5,-249.09 739.5,-249.09"/>
</a>
</g>
</g>
<!-- Node22&#45;&gt;Node2 -->
<g id="edge36_Node000022_Node000002" class="edge">
<title>Node22&#45;&gt;Node2</title>
<g id="a_edge36_Node000022_Node000002"><a xlink:title=" ">
<path fill="none" stroke="#63b8ff" d="M686.95,-227.23C614.18,-224.33 473.88,-214.88 359,-184 338.43,-178.47 334.88,-172.65 315,-165 268.57,-147.12 252.75,-152.68 209,-129 184.6,-115.79 160.01,-95.25 144.43,-81.13"/>
<polygon fill="#63b8ff" stroke="#63b8ff" points="146.47,-78.25 136.76,-74.03 141.72,-83.39 146.47,-78.25"/>
</a>
</g>
</g>
<!-- Node22&#45;&gt;Node5 -->
<g id="edge37_Node000022_Node000005" class="edge">
<title>Node22&#45;&gt;Node5</title>
<g id="a_edge37_Node000022_Node000005"><a xlink:title=" ">
<path fill="none" stroke="#63b8ff" d="M686.94,-224.72C609.08,-218.4 452.59,-204.33 321,-184 319.72,-183.8 318.42,-183.59 317.1,-183.37"/>
<polygon fill="#63b8ff" stroke="#63b8ff" points="317.41,-179.87 306.95,-181.53 316.17,-186.76 317.41,-179.87"/>
</a>
</g>
</g>
<!-- Node22&#45;&gt;Node6 -->
<g id="edge38_Node000022_Node000006" class="edge">
<title>Node22&#45;&gt;Node6</title>
<g id="a_edge38_Node000022_Node000006"><a xlink:title=" ">
<path fill="none" stroke="#63b8ff" d="M785.04,-227.27C857.06,-224.44 995.12,-215.06 1108,-184 1108.75,-183.79 1181.01,-151.65 1222.51,-133.18"/>
<polygon fill="#63b8ff" stroke="#63b8ff" points="1224.13,-136.29 1231.84,-129.03 1221.28,-129.9 1224.13,-136.29"/>
</a>
</g>
</g>
<!-- Node22&#45;&gt;Node7 -->
<g id="edge39_Node000022_Node000007" class="edge">
<title>Node22&#45;&gt;Node7</title>
<g id="a_edge39_Node000022_Node000007"><a xlink:title=" ">
<path fill="none" stroke="#63b8ff" d="M721.02,-219.9C708.22,-211.94 690.03,-199.08 678,-184 655.42,-155.71 661.73,-141.55 644,-110 638.69,-100.56 632.02,-90.51 626.32,-82.36"/>
<polygon fill="#63b8ff" stroke="#63b8ff" points="629.07,-80.2 620.41,-74.1 623.38,-84.27 629.07,-80.2"/>
</a>
</g>
</g>
<!-- Node22&#45;&gt;Node8 -->
<g id="edge40_Node000022_Node000008" class="edge">
<title>Node22&#45;&gt;Node8</title>
<g id="a_edge40_Node000022_Node000008"><a xlink:title=" ">
<path fill="none" stroke="#63b8ff" d="M785.29,-225.91C862.27,-221.24 1015.43,-209.43 1143,-184 1209.11,-170.82 1284.18,-146.75 1326.43,-132.33"/>
<polygon fill="#63b8ff" stroke="#63b8ff" points="1327.62,-135.62 1335.94,-129.06 1325.34,-129 1327.62,-135.62"/>
</a>
</g>
</g>
<!-- Node22&#45;&gt;Node9 -->
<g id="edge41_Node000022_Node000009" class="edge">
<title>Node22&#45;&gt;Node9</title>
<g id="a_edge41_Node000022_Node000009"><a xlink:title=" ">
<path fill="none" stroke="#63b8ff" d="M708.87,-219.94C689.38,-212.74 663.39,-200.9 645,-184 631.28,-171.39 620.91,-152.69 614.5,-138.84"/>
<polygon fill="#63b8ff" stroke="#63b8ff" points="617.58,-137.15 610.37,-129.38 611.16,-139.95 617.58,-137.15"/>
</a>
</g>
</g>
<!-- Node22&#45;&gt;Node10 -->
<g id="edge42_Node000022_Node000010" class="edge">
<title>Node22&#45;&gt;Node10</title>
<g id="a_edge42_Node000022_Node000010"><a xlink:title=" ">
<path fill="none" stroke="#63b8ff" d="M751.5,-219.95C764.44,-212.1 782.57,-199.38 794,-184 814.97,-155.77 794.89,-132.4 822,-110 854.36,-83.26 975.01,-71.88 1038.44,-67.66"/>
<polygon fill="#63b8ff" stroke="#63b8ff" points="1038.72,-71.15 1048.48,-67.02 1038.28,-64.16 1038.72,-71.15"/>
</a>
</g>
</g>
<!-- Node22&#45;&gt;Node12 -->
<g id="edge43_Node000022_Node000012" class="edge">
<title>Node22&#45;&gt;Node12</title>
<g id="a_edge43_Node000022_Node000012"><a xlink:title=" ">
<path fill="none" stroke="#63b8ff" d="M688.44,-219.98C633.67,-210.18 544.16,-194.15 488.85,-184.25"/>
<polygon fill="#63b8ff" stroke="#63b8ff" points="489.39,-180.79 478.93,-182.47 488.16,-187.68 489.39,-180.79"/>
</a>
</g>
</g>
<!-- Node23 -->
<g id="Node000023" class="node">
<title>Node23</title>
<g id="a_Node000023"><a xlink:href="../../db/db3/vmath_8h.html" target="_top" xlink:title=" ">
<polygon fill="white" stroke="#666666" points="785,-184 687,-184 687,-165 785,-165 785,-184"/>
<text text-anchor="middle" x="736" y="-172" font-family="Helvetica,sans-Serif" font-size="10.00">../vmisc/vmath.h</text>
</a>
</g>
</g>
<!-- Node22&#45;&gt;Node23 -->
<g id="edge44_Node000022_Node000023" class="edge">
<title>Node22&#45;&gt;Node23</title>
<g id="a_edge44_Node000022_Node000023"><a xlink:title=" ">
<path fill="none" stroke="#63b8ff" d="M736,-219.75C736,-212.8 736,-202.85 736,-194.13"/>
<polygon fill="#63b8ff" stroke="#63b8ff" points="739.5,-194.09 736,-184.09 732.5,-194.09 739.5,-194.09"/>
</a>
</g>
</g>
<!-- Node22&#45;&gt;Node25 -->
<g id="edge46_Node000022_Node000025" class="edge">
<title>Node22&#45;&gt;Node25</title>
<g id="a_edge46_Node000022_Node000025"><a xlink:title=" ">
<path fill="none" stroke="#63b8ff" d="M760.46,-219.95C779.8,-212.42 806.81,-200.14 827,-184 843.33,-170.94 857.81,-151.78 867.13,-137.93"/>
<polygon fill="#63b8ff" stroke="#63b8ff" points="870.21,-139.61 872.72,-129.32 864.34,-135.8 870.21,-139.61"/>
</a>
</g>
</g>
<!-- Node26 -->
<g id="Node000026" class="node">
<title>Node26</title>
<g id="a_Node000026"><a xlink:href="../../d2/d07/vgobject_8h.html" target="_top" xlink:title=" ">
<polygon fill="white" stroke="#666666" points="1099,-184 1031,-184 1031,-165 1099,-165 1099,-184"/>
<text text-anchor="middle" x="1065" y="-172" font-family="Helvetica,sans-Serif" font-size="10.00">vgobject.h</text>
</a>
</g>
</g>
<!-- Node22&#45;&gt;Node26 -->
<g id="edge47_Node000022_Node000026" class="edge">
<title>Node22&#45;&gt;Node26</title>
<g id="a_edge47_Node000022_Node000026"><a xlink:title=" ">
<path fill="none" stroke="#63b8ff" d="M785.25,-220.57C848.97,-210.3 959.04,-192.57 1020.4,-182.69"/>
<polygon fill="#63b8ff" stroke="#63b8ff" points="1021.22,-186.1 1030.54,-181.05 1020.11,-179.19 1021.22,-186.1"/>
</a>
</g>
</g>
<!-- Node24 -->
<g id="Node000024" class="node">
<title>Node24</title>
<g id="a_Node000024"><a xlink:title=" ">
<polygon fill="#e0e0e0" stroke="#999999" points="762.5,-129 709.5,-129 709.5,-110 762.5,-110 762.5,-129"/>
<text text-anchor="middle" x="736" y="-117" font-family="Helvetica,sans-Serif" font-size="10.00">QtMath</text>
</a>
</g>
</g>
<!-- Node23&#45;&gt;Node24 -->
<g id="edge45_Node000023_Node000024" class="edge">
<title>Node23&#45;&gt;Node24</title>
<g id="a_edge45_Node000023_Node000024"><a xlink:title=" ">
<path fill="none" stroke="#63b8ff" d="M736,-164.75C736,-157.8 736,-147.85 736,-139.13"/>
<polygon fill="#63b8ff" stroke="#63b8ff" points="739.5,-139.09 736,-129.09 732.5,-139.09 739.5,-139.09"/>
</a>
</g>
</g>
<!-- Node26&#45;&gt;Node6 -->
<g id="edge48_Node000026_Node000006" class="edge">
<title>Node26&#45;&gt;Node6</title>
<g id="a_edge48_Node000026_Node000006"><a xlink:title=" ">
<path fill="none" stroke="#63b8ff" d="M1094.88,-164.98C1126.38,-156.01 1176.17,-141.82 1211.03,-131.89"/>
<polygon fill="#63b8ff" stroke="#63b8ff" points="1212.22,-135.19 1220.88,-129.08 1210.31,-128.46 1212.22,-135.19"/>
</a>
</g>
</g>
<!-- Node26&#45;&gt;Node7 -->
<g id="edge49_Node000026_Node000007" class="edge">
<title>Node26&#45;&gt;Node7</title>
<g id="a_edge49_Node000026_Node000007"><a xlink:title=" ">
<path fill="none" stroke="#63b8ff" d="M1055.24,-164.98C1038.49,-150.89 1002.61,-123.01 967,-110 857.08,-69.85 716.52,-64.76 650.88,-64.82"/>
<polygon fill="#63b8ff" stroke="#63b8ff" points="650.61,-61.32 640.63,-64.87 650.64,-68.32 650.61,-61.32"/>
</a>
</g>
</g>
<!-- Node26&#45;&gt;Node8 -->
<g id="edge50_Node000026_Node000008" class="edge">
<title>Node26&#45;&gt;Node8</title>
<g id="a_edge50_Node000026_Node000008"><a xlink:title=" ">
<path fill="none" stroke="#63b8ff" d="M1099.02,-167.8C1145.78,-159.9 1232.82,-144.98 1317.42,-129.07"/>
<polygon fill="#63b8ff" stroke="#63b8ff" points="1318.28,-132.47 1327.46,-127.17 1316.98,-125.59 1318.28,-132.47"/>
</a>
</g>
</g>
<!-- Node26&#45;&gt;Node9 -->
<g id="edge51_Node000026_Node000009" class="edge">
<title>Node26&#45;&gt;Node9</title>
<g id="a_edge51_Node000026_Node000009"><a xlink:title=" ">
<path fill="none" stroke="#63b8ff" d="M1030.95,-169.56C947.28,-159.88 732.09,-134.98 644.72,-124.86"/>
<polygon fill="#63b8ff" stroke="#63b8ff" points="645.05,-121.38 634.71,-123.71 644.24,-128.33 645.05,-121.38"/>
</a>
</g>
</g>
<!-- Node26&#45;&gt;Node10 -->
<g id="edge52_Node000026_Node000010" class="edge">
<title>Node26&#45;&gt;Node10</title>
<g id="a_edge52_Node000026_Node000010"><a xlink:title=" ">
<path fill="none" stroke="#63b8ff" d="M1096.42,-164.97C1114.34,-158.32 1135.3,-147.09 1146,-129 1158.29,-108.23 1133.07,-90.07 1109.94,-78.55"/>
<polygon fill="#63b8ff" stroke="#63b8ff" points="1111.14,-75.25 1100.6,-74.18 1108.17,-81.59 1111.14,-75.25"/>
</a>
</g>
</g>
<!-- Node26&#45;&gt;Node25 -->
<g id="edge53_Node000026_Node000025" class="edge">
<title>Node26&#45;&gt;Node25</title>
<g id="a_edge53_Node000026_Node000025"><a xlink:title=" ">
<path fill="none" stroke="#63b8ff" d="M1034.96,-164.98C1003.29,-156.01 953.23,-141.82 918.19,-131.89"/>
<polygon fill="#63b8ff" stroke="#63b8ff" points="918.86,-128.44 908.28,-129.08 916.95,-135.18 918.86,-128.44"/>
</a>
</g>
</g>
<!-- Node27&#45;&gt;Node2 -->
<g id="edge57_Node000027_Node000002" class="edge">
<title>Node27&#45;&gt;Node2</title>
<g id="a_edge57_Node000027_Node000002"><a xlink:title=" ">
<path fill="none" stroke="#63b8ff" d="M1099.31,-227.36C970.24,-222.32 461.37,-201.5 392,-184 372.53,-179.09 369.68,-172.38 351,-165 303.55,-146.24 288.57,-149.84 242,-129 226.55,-122.09 223.75,-118.3 209,-110 190.18,-99.41 168.76,-87.66 152.68,-78.89"/>
<polygon fill="#63b8ff" stroke="#63b8ff" points="154.34,-75.81 143.88,-74.1 150.99,-81.96 154.34,-75.81"/>
</a>
</g>
</g>
<!-- Node27&#45;&gt;Node4 -->
<g id="edge58_Node000027_Node000004" class="edge">
<title>Node27&#45;&gt;Node4</title>
<g id="a_edge58_Node000027_Node000004"><a xlink:title=" ">
<path fill="none" stroke="#63b8ff" d="M1158.9,-222.21C1202.65,-213.01 1284.48,-195.8 1335.67,-185.03"/>
<polygon fill="#63b8ff" stroke="#63b8ff" points="1336.41,-188.45 1345.47,-182.97 1334.97,-181.6 1336.41,-188.45"/>
</a>
</g>
</g>
<!-- Node27&#45;&gt;Node6 -->
<g id="edge59_Node000027_Node000006" class="edge">
<title>Node27&#45;&gt;Node6</title>
<g id="a_edge59_Node000027_Node000006"><a xlink:title=" ">
<path fill="none" stroke="#63b8ff" d="M1138.98,-219.66C1159.73,-201.3 1207.72,-158.81 1233.64,-135.87"/>
<polygon fill="#63b8ff" stroke="#63b8ff" points="1236.05,-138.41 1241.22,-129.16 1231.41,-133.17 1236.05,-138.41"/>
</a>
</g>
</g>
<!-- Node27&#45;&gt;Node7 -->
<g id="edge60_Node000027_Node000007" class="edge">
<title>Node27&#45;&gt;Node7</title>
<g id="a_edge60_Node000027_Node000007"><a xlink:title=" ">
<path fill="none" stroke="#63b8ff" d="M1102.42,-220C1080.08,-212.27 1047.78,-199.69 1022,-184 978.35,-157.44 980.69,-130.78 934,-110 883.94,-87.72 723.88,-73.53 650.9,-68.06"/>
<polygon fill="#63b8ff" stroke="#63b8ff" points="651.02,-64.55 640.79,-67.31 650.5,-71.54 651.02,-64.55"/>
</a>
</g>
</g>
<!-- Node27&#45;&gt;Node8 -->
<g id="edge61_Node000027_Node000008" class="edge">
<title>Node27&#45;&gt;Node8</title>
<g id="a_edge61_Node000027_Node000008"><a xlink:title=" ">
<path fill="none" stroke="#63b8ff" d="M1147.51,-219.84C1188.08,-200.88 1284.97,-155.58 1332.61,-133.31"/>
<polygon fill="#63b8ff" stroke="#63b8ff" points="1334.14,-136.45 1341.72,-129.05 1331.18,-130.11 1334.14,-136.45"/>
</a>
</g>
</g>
<!-- Node27&#45;&gt;Node10 -->
<g id="edge62_Node000027_Node000010" class="edge">
<title>Node27&#45;&gt;Node10</title>
<g id="a_edge62_Node000027_Node000010"><a xlink:title=" ">
<path fill="none" stroke="#63b8ff" d="M1158.39,-219.89C1225.93,-199.8 1387.55,-149.98 1402,-129 1406.79,-122.04 1407.55,-116.36 1402,-110 1365.6,-68.26 1196.54,-64.29 1118.13,-64.77"/>
<polygon fill="#63b8ff" stroke="#63b8ff" points="1117.66,-61.27 1107.69,-64.86 1117.73,-68.27 1117.66,-61.27"/>
</a>
</g>
</g>
<!-- Node27&#45;&gt;Node20 -->
<g id="edge63_Node000027_Node000020" class="edge">
<title>Node27&#45;&gt;Node20</title>
<g id="a_edge63_Node000027_Node000020"><a xlink:title=" ">
<path fill="none" stroke="#63b8ff" d="M1126.98,-219.99C1123.85,-207.53 1117.21,-183.76 1108,-165 1103.29,-155.4 1096.77,-145.46 1091.01,-137.42"/>
<polygon fill="#63b8ff" stroke="#63b8ff" points="1093.74,-135.21 1084.97,-129.26 1088.11,-139.38 1093.74,-135.21"/>
</a>
</g>
</g>
<!-- Node27&#45;&gt;Node25 -->
<g id="edge64_Node000027_Node000025" class="edge">
<title>Node27&#45;&gt;Node25</title>
<g id="a_edge64_Node000027_Node000025"><a xlink:title=" ">
<path fill="none" stroke="#63b8ff" d="M1099.38,-221.05C1070.58,-213.35 1025.9,-200.2 989,-184 956.45,-169.71 921.19,-148.45 899.35,-134.53"/>
<polygon fill="#63b8ff" stroke="#63b8ff" points="901.16,-131.54 890.86,-129.06 897.36,-137.42 901.16,-131.54"/>
</a>
</g>
</g>
<!-- Node27&#45;&gt;Node26 -->
<g id="edge65_Node000027_Node000026" class="edge">
<title>Node27&#45;&gt;Node26</title>
<g id="a_edge65_Node000027_Node000026"><a xlink:title=" ">
<path fill="none" stroke="#63b8ff" d="M1118.72,-219.98C1109.16,-212.07 1094.72,-200.11 1083.22,-190.58"/>
<polygon fill="#63b8ff" stroke="#63b8ff" points="1085.4,-187.85 1075.47,-184.17 1080.94,-193.24 1085.4,-187.85"/>
</a>
</g>
</g>
</g>
</svg>

<g id="navigator" transform="translate(0 0)" fill="#404254">
  <rect fill="#f2f5e9" fill-opacity="0.5" stroke="#606060" stroke-width=".5" x="0" y="0" width="60" height="60"/>
  <use id="zoomplus" xlink:href="#zoomPlus" x="17" y="9" onmousedown="handleZoom(evt,'in')"/>
  <use id="zoomminus" xlink:href="#zoomMin" x="42" y="9" onmousedown="handleZoom(evt,'out')"/>
  <use id="reset" xlink:href="#resetDef" x="30" y="36" onmousedown="handleReset()"/>
   <use id="arrowup" xlink:href="#arrowUp" x="0" y="0" onmousedown="handlePan(0,-1)"/>
  <use id="arrowright" xlink:href="#arrowRight" x="0" y="0" onmousedown="handlePan(1,0)"/>
  <use id="arrowdown" xlink:href="#arrowDown" x="0" y="0" onmousedown="handlePan(0,1)"/>
  <use id="arrowleft" xlink:href="#arrowLeft" x="0" y="0" onmousedown="handlePan(-1,0)"/>
</g>
<svg viewBox="0 0 15 15" width="100%" height="30px" preserveAspectRatio="xMaxYMin meet">
 <g id="arrow_out" transform="scale(0.3 0.3)">
  <a xlink:href="vspline_8h__incl_org.svg" target="_base">
   <rect id="button" ry="5" rx="5" y="6" x="6" height="38" width="38"
        fill="#f2f5e9" fill-opacity="0.5" stroke="#606060" stroke-width="1.0"/>
   <path id="arrow"
     d="M 11.500037,31.436501 C 11.940474,20.09759 22.043105,11.32322 32.158766,21.979434 L 37.068811,17.246167 C 37.068811,17.246167 37.088388,32 37.088388,32 L 22.160133,31.978069 C 22.160133,31.978069 26.997745,27.140456 26.997745,27.140456 C 18.528582,18.264221 13.291696,25.230495 11.500037,31.436501 z"
     style="fill:#404040;"/>
  </a>
 </g>
</svg>

<style type='text/css'>
<![CDATA[
[data-mouse-over-selected='false'] { opacity: 0.7; }
[data-mouse-over-selected='true']  { opacity: 1.0; }
]]>
</style>
<script type="application/ecmascript"><![CDATA[
document.addEventListener('DOMContentLoaded', (event) => {
  highlightEdges();
  highlightAdjacentNodes();
});
]]></script>
</svg>
