<?xml version="1.0" encoding="UTF-8" standalone="no"?>
<!DOCTYPE svg PUBLIC "-//W3C//DTD SVG 1.1//EN"
 "http://www.w3.org/Graphics/SVG/1.1/DTD/svg11.dtd">
<!-- Generated by graphviz version 2.43.0 (0)
 -->
<!-- Title: src/libs/vwidgets/global.h Pages: 1 -->
<!--zoomable 93 -->

<svg id="main" version="1.1" xmlns="http://www.w3.org/2000/svg" xmlns:xlink="http://www.w3.org/1999/xlink" xml:space="preserve" onload="init(evt)">
<style type="text/css"><![CDATA[
.node, .edge {opacity: 0.7;}
.node.selected, .edge.selected {opacity: 1;}
.edge:hover path { stroke: red; }
.edge:hover polygon { stroke: red; fill: red; }
]]></style>

<defs>
  <circle id="rim" cx="0" cy="0" r="7"/>
  <circle id="rim2" cx="0" cy="0" r="3.5"/>
  <g id="zoomPlus">
    <use xlink:href="#rim" fill="#404040"><set attributeName="fill" to="#808080" begin="zoomplus.mouseover" end="zoomplus.mouseout"/></use>
    <path d="M-4,0h8M0,-4v8" fill="none" stroke="white" stroke-width="1.5" pointer-events="none"/>
  </g>
  <g id="zoomMin">
    <use xlink:href="#rim" fill="#404040"><set attributeName="fill" to="#808080" begin="zoomminus.mouseover" end="zoomminus.mouseout"/></use>
    <path d="M-4,0h8" fill="none" stroke="white" stroke-width="1.5" pointer-events="none"/>
  </g>
  <g id="arrowUp" transform="translate(30 24)">
    <use xlink:href="#rim"/>
    <path pointer-events="none" fill="none" stroke="white" stroke-width="1.5" d="M0,-3.0v7 M-2.5,-0.5L0,-3.0L2.5,-0.5"/>
  </g>
  <g id="arrowRight" transform="rotate(90) translate(36 -43)">
    <use xlink:href="#rim"/>
    <path pointer-events="none" fill="none" stroke="white" stroke-width="1.5" d="M0,-3.0v7 M-2.5,-0.5L0,-3.0L2.5,-0.5"/>
  </g>
  <g id="arrowDown" transform="rotate(180) translate(-30 -48)">
    <use xlink:href="#rim"/>
    <path pointer-events="none" fill="none" stroke="white" stroke-width="1.5" d="M0,-3.0v7 M-2.5,-0.5L0,-3.0L2.5,-0.5"/>
  </g>
  <g id="arrowLeft" transform="rotate(270) translate(-36 17)">
    <use xlink:href="#rim"/>
    <path pointer-events="none" fill="none" stroke="white" stroke-width="1.5" d="M0,-3.0v7 M-2.5,-0.5L0,-3.0L2.5,-0.5"/>
  </g>
  <g id="resetDef">
    <use xlink:href="#rim2" fill="#404040"><set attributeName="fill" to="#808080" begin="reset.mouseover" end="reset.mouseout"/></use>
  </g>
</defs>
<script type="application/ecmascript">
var viewWidth = 2288;
var viewHeight = 93;
var sectionId = 'dynsection-1';
</script>
<script type="application/ecmascript" xlink:href="../../svg.min.js"/>
<svg id="graph" class="graph">
<g id="viewport">
<title>src/libs/vwidgets/global.h</title>
<!-- Node1 -->
<g id="Node000001" class="node">
<title>Node1</title>
<g id="a_Node000001"><a xlink:title=" ">
<polygon fill="#999999" stroke="#666666" points="1138.5,-85 998.5,-85 998.5,-66 1138.5,-66 1138.5,-85"/>
<text text-anchor="middle" x="1068.5" y="-73" font-family="Helvetica,sans-Serif" font-size="10.00">src/libs/vwidgets/global.h</text>
</a>
</g>
</g>
<!-- Node2 -->
<g id="Node000002" class="node">
<title>Node2</title>
<g id="a_Node000002"><a xlink:href="../../dd/d70/vlayoutpiece_8cpp.html" target="_top" xlink:title=" ">
<polygon fill="white" stroke="#666666" points="177,-24.5 0,-24.5 0,-5.5 177,-5.5 177,-24.5"/>
<text text-anchor="middle" x="88.5" y="-12.5" font-family="Helvetica,sans-Serif" font-size="10.00">src/libs/vlayout/vlayoutpiece.cpp</text>
</a>
</g>
</g>
<!-- Node1&#45;&gt;Node2 -->
<g id="edge1_Node000001_Node000002" class="edge">
<title>Node1&#45;&gt;Node2</title>
<g id="a_edge1_Node000001_Node000002"><a xlink:title=" ">
<path fill="none" stroke="#63b8ff" d="M987.92,-72.9C832.56,-69.27 480.95,-58.4 186.5,-30 171.96,-28.6 156.27,-26.58 141.8,-24.52"/>
<polygon fill="#63b8ff" stroke="#63b8ff" points="988.23,-76.41 998.31,-73.14 988.39,-69.41 988.23,-76.41"/>
</a>
</g>
</g>
<!-- Node3 -->
<g id="Node000003" class="node">
<title>Node3</title>
<g id="a_Node000003"><a xlink:href="../../db/d7d/global_8cpp.html" target="_top" xlink:title=" ">
<polygon fill="white" stroke="#666666" points="347.5,-24.5 195.5,-24.5 195.5,-5.5 347.5,-5.5 347.5,-24.5"/>
<text text-anchor="middle" x="271.5" y="-12.5" font-family="Helvetica,sans-Serif" font-size="10.00">src/libs/vwidgets/global.cpp</text>
</a>
</g>
</g>
<!-- Node1&#45;&gt;Node3 -->
<g id="edge2_Node000001_Node000003" class="edge">
<title>Node1&#45;&gt;Node3</title>
<g id="a_edge2_Node000001_Node000003"><a xlink:title=" ">
<path fill="none" stroke="#63b8ff" d="M988.27,-72.12C856.2,-67.62 584.84,-55.87 356.5,-30 344.02,-28.59 330.57,-26.59 318.15,-24.55"/>
<polygon fill="#63b8ff" stroke="#63b8ff" points="988.2,-75.62 998.31,-72.46 988.43,-68.63 988.2,-75.62"/>
</a>
</g>
</g>
<!-- Node4 -->
<g id="Node000004" class="node">
<title>Node4</title>
<g id="a_Node000004"><a xlink:href="../../d4/d50/scalesceneitems_8cpp.html" target="_top" xlink:title=" ">
<polygon fill="white" stroke="#666666" points="569,-24.5 366,-24.5 366,-5.5 569,-5.5 569,-24.5"/>
<text text-anchor="middle" x="467.5" y="-12.5" font-family="Helvetica,sans-Serif" font-size="10.00">src/libs/vwidgets/scalesceneitems.cpp</text>
</a>
</g>
</g>
<!-- Node1&#45;&gt;Node4 -->
<g id="edge3_Node000001_Node000004" class="edge">
<title>Node1&#45;&gt;Node4</title>
<g id="a_edge3_Node000001_Node000004"><a xlink:title=" ">
<path fill="none" stroke="#63b8ff" d="M988.19,-68.07C891.07,-60.1 722.65,-45.63 578.5,-30 563.44,-28.37 547.25,-26.43 532.02,-24.52"/>
<polygon fill="#63b8ff" stroke="#63b8ff" points="987.98,-71.57 998.23,-68.89 988.55,-64.59 987.98,-71.57"/>
</a>
</g>
</g>
<!-- Node5 -->
<g id="Node000005" class="node">
<title>Node5</title>
<g id="a_Node000005"><a xlink:href="../../d8/d76/scene__rect_8cpp.html" target="_top" xlink:title=" ">
<polygon fill="white" stroke="#666666" points="717.5,-30 587.5,-30 587.5,0 717.5,0 717.5,-30"/>
<text text-anchor="start" x="595.5" y="-18" font-family="Helvetica,sans-Serif" font-size="10.00">src/libs/vwidgets/scene</text>
<text text-anchor="middle" x="652.5" y="-7" font-family="Helvetica,sans-Serif" font-size="10.00">_rect.cpp</text>
</a>
</g>
</g>
<!-- Node1&#45;&gt;Node5 -->
<g id="edge4_Node000001_Node000005" class="edge">
<title>Node1&#45;&gt;Node5</title>
<g id="a_edge4_Node000001_Node000005"><a xlink:title=" ">
<path fill="none" stroke="#63b8ff" d="M988.25,-65.38C918.82,-57.18 815.82,-44.25 726.5,-30 723.66,-29.55 720.76,-29.07 717.83,-28.57"/>
<polygon fill="#63b8ff" stroke="#63b8ff" points="987.9,-68.87 998.24,-66.56 988.72,-61.91 987.9,-68.87"/>
</a>
</g>
</g>
<!-- Node6 -->
<g id="Node000006" class="node">
<title>Node6</title>
<g id="a_Node000006"><a xlink:href="../../de/d45/vcontrolpointspline_8cpp.html" target="_top" xlink:title=" ">
<polygon fill="white" stroke="#666666" points="951,-24.5 736,-24.5 736,-5.5 951,-5.5 951,-24.5"/>
<text text-anchor="middle" x="843.5" y="-12.5" font-family="Helvetica,sans-Serif" font-size="10.00">src/libs/vwidgets/vcontrolpointspline.cpp</text>
</a>
</g>
</g>
<!-- Node1&#45;&gt;Node6 -->
<g id="edge5_Node000001_Node000006" class="edge">
<title>Node1&#45;&gt;Node6</title>
<g id="a_edge5_Node000001_Node000006"><a xlink:title=" ">
<path fill="none" stroke="#63b8ff" d="M1026.06,-63.47C982.57,-52.16 915.85,-34.81 876.26,-24.52"/>
<polygon fill="#63b8ff" stroke="#63b8ff" points="1025.22,-66.86 1035.78,-65.99 1026.99,-60.09 1025.22,-66.86"/>
</a>
</g>
</g>
<!-- Node7 -->
<g id="Node000007" class="node">
<title>Node7</title>
<g id="a_Node000007"><a xlink:href="../../df/dcf/vcurvepathitem_8cpp.html" target="_top" xlink:title=" ">
<polygon fill="white" stroke="#666666" points="1168,-24.5 969,-24.5 969,-5.5 1168,-5.5 1168,-24.5"/>
<text text-anchor="middle" x="1068.5" y="-12.5" font-family="Helvetica,sans-Serif" font-size="10.00">src/libs/vwidgets/vcurvepathitem.cpp</text>
</a>
</g>
</g>
<!-- Node1&#45;&gt;Node7 -->
<g id="edge6_Node000001_Node000007" class="edge">
<title>Node1&#45;&gt;Node7</title>
<g id="a_edge6_Node000001_Node000007"><a xlink:title=" ">
<path fill="none" stroke="#63b8ff" d="M1068.5,-55.66C1068.5,-45.24 1068.5,-32.8 1068.5,-24.67"/>
<polygon fill="#63b8ff" stroke="#63b8ff" points="1065,-55.87 1068.5,-65.87 1072,-55.87 1065,-55.87"/>
</a>
</g>
</g>
<!-- Node8 -->
<g id="Node000008" class="node">
<title>Node8</title>
<g id="a_Node000008"><a xlink:href="../../de/dec/vgraphicssimpletextitem_8cpp.html" target="_top" xlink:title=" ">
<polygon fill="white" stroke="#666666" points="1430.5,-24.5 1186.5,-24.5 1186.5,-5.5 1430.5,-5.5 1430.5,-24.5"/>
<text text-anchor="middle" x="1308.5" y="-12.5" font-family="Helvetica,sans-Serif" font-size="10.00">src/libs/vwidgets/vgraphicssimpletextitem.cpp</text>
</a>
</g>
</g>
<!-- Node1&#45;&gt;Node8 -->
<g id="edge7_Node000001_Node000008" class="edge">
<title>Node1&#45;&gt;Node8</title>
<g id="a_edge7_Node000001_Node000008"><a xlink:title=" ">
<path fill="none" stroke="#63b8ff" d="M1113.18,-63.61C1159.56,-52.3 1231.15,-34.85 1273.56,-24.52"/>
<polygon fill="#63b8ff" stroke="#63b8ff" points="1112.28,-60.22 1103.4,-65.99 1113.94,-67.03 1112.28,-60.22"/>
</a>
</g>
</g>
<!-- Node9 -->
<g id="Node000009" class="node">
<title>Node9</title>
<g id="a_Node000009"><a xlink:href="../../d1/d88/vmaingraphicsscene_8cpp.html" target="_top" xlink:title=" ">
<polygon fill="white" stroke="#666666" points="1670.5,-24.5 1448.5,-24.5 1448.5,-5.5 1670.5,-5.5 1670.5,-24.5"/>
<text text-anchor="middle" x="1559.5" y="-12.5" font-family="Helvetica,sans-Serif" font-size="10.00">src/libs/vwidgets/vmaingraphicsscene.cpp</text>
</a>
</g>
</g>
<!-- Node1&#45;&gt;Node9 -->
<g id="edge8_Node000001_Node000009" class="edge">
<title>Node1&#45;&gt;Node9</title>
<g id="a_edge8_Node000001_Node000009"><a xlink:title=" ">
<path fill="none" stroke="#63b8ff" d="M1148.64,-64.95C1242.83,-53.73 1397.72,-35.28 1488,-24.52"/>
<polygon fill="#63b8ff" stroke="#63b8ff" points="1148.1,-61.49 1138.59,-66.15 1148.93,-68.44 1148.1,-61.49"/>
</a>
</g>
</g>
<!-- Node10 -->
<g id="Node000010" class="node">
<title>Node10</title>
<g id="a_Node000010"><a xlink:href="../../d0/d5d/vscenepoint_8cpp.html" target="_top" xlink:title=" ">
<polygon fill="white" stroke="#666666" points="1870,-24.5 1689,-24.5 1689,-5.5 1870,-5.5 1870,-24.5"/>
<text text-anchor="middle" x="1779.5" y="-12.5" font-family="Helvetica,sans-Serif" font-size="10.00">src/libs/vwidgets/vscenepoint.cpp</text>
</a>
</g>
</g>
<!-- Node1&#45;&gt;Node10 -->
<g id="edge9_Node000001_Node000010" class="edge">
<title>Node1&#45;&gt;Node10</title>
<g id="a_edge9_Node000001_Node000010"><a xlink:title=" ">
<path fill="none" stroke="#63b8ff" d="M1149.04,-70.34C1266.05,-63.91 1489.83,-50.16 1679.5,-30 1693.79,-28.48 1709.19,-26.5 1723.52,-24.51"/>
<polygon fill="#63b8ff" stroke="#63b8ff" points="1148.53,-66.86 1138.74,-70.9 1148.91,-73.85 1148.53,-66.86"/>
</a>
</g>
</g>
<!-- Node11 -->
<g id="Node000011" class="node">
<title>Node11</title>
<g id="a_Node000011"><a xlink:href="../../de/d22/vsimplecurve_8cpp.html" target="_top" xlink:title=" ">
<polygon fill="white" stroke="#666666" points="2076.5,-24.5 1888.5,-24.5 1888.5,-5.5 2076.5,-5.5 2076.5,-24.5"/>
<text text-anchor="middle" x="1982.5" y="-12.5" font-family="Helvetica,sans-Serif" font-size="10.00">src/libs/vwidgets/vsimplecurve.cpp</text>
</a>
</g>
</g>
<!-- Node1&#45;&gt;Node11 -->
<g id="edge10_Node000001_Node000011" class="edge">
<title>Node1&#45;&gt;Node11</title>
<g id="a_edge10_Node000001_Node000011"><a xlink:title=" ">
<path fill="none" stroke="#63b8ff" d="M1148.81,-72.23C1294.62,-67.63 1612.53,-55.43 1879.5,-30 1894.59,-28.56 1910.87,-26.56 1925.93,-24.52"/>
<polygon fill="#63b8ff" stroke="#63b8ff" points="1148.5,-68.74 1138.61,-72.55 1148.72,-75.73 1148.5,-68.74"/>
</a>
</g>
</g>
<!-- Node12 -->
<g id="Node000012" class="node">
<title>Node12</title>
<g id="a_Node000012"><a xlink:href="../../df/d38/vsimplepoint_8cpp.html" target="_top" xlink:title=" ">
<polygon fill="white" stroke="#666666" points="2280,-24.5 2095,-24.5 2095,-5.5 2280,-5.5 2280,-24.5"/>
<text text-anchor="middle" x="2187.5" y="-12.5" font-family="Helvetica,sans-Serif" font-size="10.00">src/libs/vwidgets/vsimplepoint.cpp</text>
</a>
</g>
</g>
<!-- Node1&#45;&gt;Node12 -->
<g id="edge11_Node000001_Node000012" class="edge">
<title>Node1&#45;&gt;Node12</title>
<g id="a_edge11_Node000001_Node000012"><a xlink:title=" ">
<path fill="none" stroke="#63b8ff" d="M1148.86,-73.51C1320.94,-70.84 1737.71,-61.41 2085.5,-30 2100.72,-28.63 2117.15,-26.61 2132.29,-24.53"/>
<polygon fill="#63b8ff" stroke="#63b8ff" points="1148.57,-70.02 1138.62,-73.67 1148.67,-77.02 1148.57,-70.02"/>
</a>
</g>
</g>
</g>
</svg>

<g id="navigator" transform="translate(0 0)" fill="#404254">
  <rect fill="#f2f5e9" fill-opacity="0.5" stroke="#606060" stroke-width=".5" x="0" y="0" width="60" height="60"/>
  <use id="zoomplus" xlink:href="#zoomPlus" x="17" y="9" onmousedown="handleZoom(evt,'in')"/>
  <use id="zoomminus" xlink:href="#zoomMin" x="42" y="9" onmousedown="handleZoom(evt,'out')"/>
  <use id="reset" xlink:href="#resetDef" x="30" y="36" onmousedown="handleReset()"/>
   <use id="arrowup" xlink:href="#arrowUp" x="0" y="0" onmousedown="handlePan(0,-1)"/>
  <use id="arrowright" xlink:href="#arrowRight" x="0" y="0" onmousedown="handlePan(1,0)"/>
  <use id="arrowdown" xlink:href="#arrowDown" x="0" y="0" onmousedown="handlePan(0,1)"/>
  <use id="arrowleft" xlink:href="#arrowLeft" x="0" y="0" onmousedown="handlePan(-1,0)"/>
</g>
<svg viewBox="0 0 15 15" width="100%" height="30px" preserveAspectRatio="xMaxYMin meet">
 <g id="arrow_out" transform="scale(0.3 0.3)">
  <a xlink:href="global_8h__dep__incl_org.svg" target="_base">
   <rect id="button" ry="5" rx="5" y="6" x="6" height="38" width="38"
        fill="#f2f5e9" fill-opacity="0.5" stroke="#606060" stroke-width="1.0"/>
   <path id="arrow"
     d="M 11.500037,31.436501 C 11.940474,20.09759 22.043105,11.32322 32.158766,21.979434 L 37.068811,17.246167 C 37.068811,17.246167 37.088388,32 37.088388,32 L 22.160133,31.978069 C 22.160133,31.978069 26.997745,27.140456 26.997745,27.140456 C 18.528582,18.264221 13.291696,25.230495 11.500037,31.436501 z"
     style="fill:#404040;"/>
  </a>
 </g>
</svg>

<style type='text/css'>
<![CDATA[
[data-mouse-over-selected='false'] { opacity: 0.7; }
[data-mouse-over-selected='true']  { opacity: 1.0; }
]]>
</style>
<script type="application/ecmascript"><![CDATA[
document.addEventListener('DOMContentLoaded', (event) => {
  highlightEdges();
  highlightAdjacentNodes();
});
]]></script>
</svg>
