<?xml version="1.0" encoding="UTF-8" standalone="no"?>
<!DOCTYPE svg PUBLIC "-//W3C//DTD SVG 1.1//EN"
 "http://www.w3.org/Graphics/SVG/1.1/DTD/svg11.dtd">
<!-- Generated by graphviz version 2.43.0 (0)
 -->
<!-- Title: src/libs/vtools/tools/nodeDetails/vabstractnode.h Pages: 1 -->
<svg width="2108pt" height="262pt"
 viewBox="0.00 0.00 2107.50 262.00" xmlns="http://www.w3.org/2000/svg" xmlns:xlink="http://www.w3.org/1999/xlink">
<g id="graph0" class="graph" transform="scale(1 1) rotate(0) translate(4 258)">
<title>src/libs/vtools/tools/nodeDetails/vabstractnode.h</title>
<polygon fill="white" stroke="transparent" points="-4,4 -4,-258 2103.5,-258 2103.5,4 -4,4"/>
<!-- Node1 -->
<g id="node1" class="node">
<title>Node1</title>
<g id="a_node1"><a xlink:title=" ">
<polygon fill="#bfbfbf" stroke="black" points="822,-223.5 822,-253.5 982,-253.5 982,-223.5 822,-223.5"/>
<text text-anchor="start" x="830" y="-241.5" font-family="Helvetica,sans-Serif" font-size="10.00">src/libs/vtools/tools</text>
<text text-anchor="middle" x="902" y="-230.5" font-family="Helvetica,sans-Serif" font-size="10.00">/nodeDetails/vabstractnode.h</text>
</a>
</g>
</g>
<!-- Node2 -->
<g id="node2" class="node">
<title>Node2</title>
<g id="a_node2"><a xlink:href="../../d0/d43/vnodearc_8cpp.html" target="_top" xlink:title=" ">
<polygon fill="white" stroke="black" points="0,-73 0,-103 146,-103 146,-73 0,-73"/>
<text text-anchor="start" x="8" y="-91" font-family="Helvetica,sans-Serif" font-size="10.00">src/libs/vtools/tools</text>
<text text-anchor="middle" x="73" y="-80" font-family="Helvetica,sans-Serif" font-size="10.00">/nodeDetails/vnodearc.cpp</text>
</a>
</g>
</g>
<!-- Node1&#45;&gt;Node2 -->
<g id="edge1" class="edge">
<title>Node1&#45;&gt;Node2</title>
<path fill="none" stroke="midnightblue" d="M811.84,-236.75C618.34,-234.4 176.14,-224.92 120,-187 91.23,-167.57 79.54,-125.44 75.23,-103.28"/>
<polygon fill="midnightblue" stroke="midnightblue" points="811.95,-240.25 821.99,-236.86 812.03,-233.25 811.95,-240.25"/>
</g>
<!-- Node3 -->
<g id="node3" class="node">
<title>Node3</title>
<g id="a_node3"><a xlink:href="../../df/d98/vnodearc_8h.html" target="_top" xlink:title=" ">
<polygon fill="white" stroke="black" points="141.5,-151 141.5,-181 276.5,-181 276.5,-151 141.5,-151"/>
<text text-anchor="start" x="149.5" y="-169" font-family="Helvetica,sans-Serif" font-size="10.00">src/libs/vtools/tools</text>
<text text-anchor="middle" x="209" y="-158" font-family="Helvetica,sans-Serif" font-size="10.00">/nodeDetails/vnodearc.h</text>
</a>
</g>
</g>
<!-- Node1&#45;&gt;Node3 -->
<g id="edge2" class="edge">
<title>Node1&#45;&gt;Node3</title>
<path fill="none" stroke="midnightblue" d="M811.26,-235.05C690.39,-230.66 470.28,-218.71 285,-187 275.99,-185.46 266.49,-183.35 257.37,-181.09"/>
<polygon fill="midnightblue" stroke="midnightblue" points="811.45,-238.56 821.57,-235.42 811.7,-231.57 811.45,-238.56"/>
</g>
<!-- Node9 -->
<g id="node9" class="node">
<title>Node9</title>
<g id="a_node9"><a xlink:href="../../de/d51/anchorpoint__tool_8h.html" target="_top" xlink:title=" ">
<polygon fill="white" stroke="black" points="1277.5,-145.5 1277.5,-186.5 1416.5,-186.5 1416.5,-145.5 1277.5,-145.5"/>
<text text-anchor="start" x="1285.5" y="-174.5" font-family="Helvetica,sans-Serif" font-size="10.00">src/libs/vtools/tools</text>
<text text-anchor="start" x="1285.5" y="-163.5" font-family="Helvetica,sans-Serif" font-size="10.00">/nodeDetails/anchorpoint</text>
<text text-anchor="middle" x="1347" y="-152.5" font-family="Helvetica,sans-Serif" font-size="10.00">_tool.h</text>
</a>
</g>
</g>
<!-- Node1&#45;&gt;Node9 -->
<g id="edge9" class="edge">
<title>Node1&#45;&gt;Node9</title>
<path fill="none" stroke="midnightblue" d="M992.41,-227.26C1065.66,-218.39 1171.38,-204.27 1263,-187 1267.71,-186.11 1272.56,-185.13 1277.44,-184.1"/>
<polygon fill="midnightblue" stroke="midnightblue" points="991.8,-223.81 982.29,-228.48 992.64,-230.76 991.8,-223.81"/>
</g>
<!-- Node12 -->
<g id="node12" class="node">
<title>Node12</title>
<g id="a_node12"><a xlink:href="../../df/d25/vnodeellipticalarc_8h.html" target="_top" xlink:title=" ">
<polygon fill="white" stroke="black" points="813.5,-151 813.5,-181 990.5,-181 990.5,-151 813.5,-151"/>
<text text-anchor="start" x="821.5" y="-169" font-family="Helvetica,sans-Serif" font-size="10.00">src/libs/vtools/tools</text>
<text text-anchor="middle" x="902" y="-158" font-family="Helvetica,sans-Serif" font-size="10.00">/nodeDetails/vnodeellipticalarc.h</text>
</a>
</g>
</g>
<!-- Node1&#45;&gt;Node12 -->
<g id="edge14" class="edge">
<title>Node1&#45;&gt;Node12</title>
<path fill="none" stroke="midnightblue" d="M902,-213.23C902,-202.57 902,-190.41 902,-181.25"/>
<polygon fill="midnightblue" stroke="midnightblue" points="898.5,-213.23 902,-223.23 905.5,-213.23 898.5,-213.23"/>
</g>
<!-- Node13 -->
<g id="node13" class="node">
<title>Node13</title>
<g id="a_node13"><a xlink:href="../../d3/d3a/vnodeellipticalarc_8cpp.html" target="_top" xlink:title=" ">
<polygon fill="white" stroke="black" points="1754,-73 1754,-103 1942,-103 1942,-73 1754,-73"/>
<text text-anchor="start" x="1762" y="-91" font-family="Helvetica,sans-Serif" font-size="10.00">src/libs/vtools/tools</text>
<text text-anchor="middle" x="1848" y="-80" font-family="Helvetica,sans-Serif" font-size="10.00">/nodeDetails/vnodeellipticalarc.cpp</text>
</a>
</g>
</g>
<!-- Node1&#45;&gt;Node13 -->
<g id="edge19" class="edge">
<title>Node1&#45;&gt;Node13</title>
<path fill="none" stroke="midnightblue" d="M992.32,-236.46C1121.61,-233.68 1352.02,-223.58 1426,-187 1448.83,-175.71 1442.35,-156.65 1465,-145 1576.57,-87.6 1621.13,-128.97 1745,-109 1756.06,-107.22 1767.75,-105.14 1779.13,-103"/>
<polygon fill="midnightblue" stroke="midnightblue" points="991.97,-232.97 982.04,-236.67 992.11,-239.96 991.97,-232.97"/>
</g>
<!-- Node14 -->
<g id="node14" class="node">
<title>Node14</title>
<g id="a_node14"><a xlink:href="../../d5/df0/vnodepoint_8h.html" target="_top" xlink:title=" ">
<polygon fill="white" stroke="black" points="294.5,-151 294.5,-181 439.5,-181 439.5,-151 294.5,-151"/>
<text text-anchor="start" x="302.5" y="-169" font-family="Helvetica,sans-Serif" font-size="10.00">src/libs/vtools/tools</text>
<text text-anchor="middle" x="367" y="-158" font-family="Helvetica,sans-Serif" font-size="10.00">/nodeDetails/vnodepoint.h</text>
</a>
</g>
</g>
<!-- Node1&#45;&gt;Node14 -->
<g id="edge20" class="edge">
<title>Node1&#45;&gt;Node14</title>
<path fill="none" stroke="midnightblue" d="M811.89,-230.98C719.92,-223.51 573.3,-209.34 448,-187 438.73,-185.35 428.95,-183.24 419.51,-181.03"/>
<polygon fill="midnightblue" stroke="midnightblue" points="811.75,-234.48 821.99,-231.8 812.31,-227.51 811.75,-234.48"/>
</g>
<!-- Node15 -->
<g id="node15" class="node">
<title>Node15</title>
<g id="a_node15"><a xlink:href="../../d4/d7b/vnodepoint_8cpp.html" target="_top" xlink:title=" ">
<polygon fill="white" stroke="black" points="164,-73 164,-103 320,-103 320,-73 164,-73"/>
<text text-anchor="start" x="172" y="-91" font-family="Helvetica,sans-Serif" font-size="10.00">src/libs/vtools/tools</text>
<text text-anchor="middle" x="242" y="-80" font-family="Helvetica,sans-Serif" font-size="10.00">/nodeDetails/vnodepoint.cpp</text>
</a>
</g>
</g>
<!-- Node1&#45;&gt;Node15 -->
<g id="edge38" class="edge">
<title>Node1&#45;&gt;Node15</title>
<path fill="none" stroke="midnightblue" d="M811.8,-238.34C618.39,-239.18 177.6,-235.69 132,-187 119.24,-173.38 122.24,-160.91 132,-145 144.43,-124.72 166.76,-111.5 188.07,-103.03"/>
<polygon fill="midnightblue" stroke="midnightblue" points="811.95,-241.84 821.94,-238.29 811.92,-234.84 811.95,-241.84"/>
</g>
<!-- Node16 -->
<g id="node16" class="node">
<title>Node16</title>
<g id="a_node16"><a xlink:href="../../df/d94/vnodespline_8cpp.html" target="_top" xlink:title=" ">
<polygon fill="white" stroke="black" points="1368.5,-73 1368.5,-103 1529.5,-103 1529.5,-73 1368.5,-73"/>
<text text-anchor="start" x="1376.5" y="-91" font-family="Helvetica,sans-Serif" font-size="10.00">src/libs/vtools/tools</text>
<text text-anchor="middle" x="1449" y="-80" font-family="Helvetica,sans-Serif" font-size="10.00">/nodeDetails/vnodespline.cpp</text>
</a>
</g>
</g>
<!-- Node1&#45;&gt;Node16 -->
<g id="edge25" class="edge">
<title>Node1&#45;&gt;Node16</title>
<path fill="none" stroke="midnightblue" d="M992.54,-233.47C1055.52,-228.1 1140.35,-215.68 1210,-187 1239.76,-174.75 1240.16,-159.29 1269,-145 1306.53,-126.4 1351.53,-112.4 1387.15,-103.05"/>
<polygon fill="midnightblue" stroke="midnightblue" points="991.92,-230.01 982.23,-234.3 992.48,-236.98 991.92,-230.01"/>
</g>
<!-- Node17 -->
<g id="node17" class="node">
<title>Node17</title>
<g id="a_node17"><a xlink:href="../../d5/dcd/vabstractnode_8cpp.html" target="_top" xlink:title=" ">
<polygon fill="white" stroke="black" points="1473.5,-151 1473.5,-181 1644.5,-181 1644.5,-151 1473.5,-151"/>
<text text-anchor="start" x="1481.5" y="-169" font-family="Helvetica,sans-Serif" font-size="10.00">src/libs/vtools/tools</text>
<text text-anchor="middle" x="1559" y="-158" font-family="Helvetica,sans-Serif" font-size="10.00">/nodeDetails/vabstractnode.cpp</text>
</a>
</g>
</g>
<!-- Node1&#45;&gt;Node17 -->
<g id="edge26" class="edge">
<title>Node1&#45;&gt;Node17</title>
<path fill="none" stroke="midnightblue" d="M992.2,-232.3C1102.65,-225.25 1295.23,-210.73 1459,-187 1470.39,-185.35 1482.44,-183.25 1494.09,-181.03"/>
<polygon fill="midnightblue" stroke="midnightblue" points="991.86,-228.81 982.1,-232.94 992.3,-235.8 991.86,-228.81"/>
</g>
<!-- Node18 -->
<g id="node18" class="node">
<title>Node18</title>
<g id="a_node18"><a xlink:href="../../d0/dd2/vnodespline_8h.html" target="_top" xlink:title=" ">
<polygon fill="white" stroke="black" points="646.5,-151 646.5,-181 795.5,-181 795.5,-151 646.5,-151"/>
<text text-anchor="start" x="654.5" y="-169" font-family="Helvetica,sans-Serif" font-size="10.00">src/libs/vtools/tools</text>
<text text-anchor="middle" x="721" y="-158" font-family="Helvetica,sans-Serif" font-size="10.00">/nodeDetails/vnodespline.h</text>
</a>
</g>
</g>
<!-- Node1&#45;&gt;Node18 -->
<g id="edge27" class="edge">
<title>Node1&#45;&gt;Node18</title>
<path fill="none" stroke="midnightblue" d="M856.18,-219.65C825.47,-207.69 785.6,-192.16 757.13,-181.07"/>
<polygon fill="midnightblue" stroke="midnightblue" points="855.22,-223.03 865.81,-223.4 857.76,-216.51 855.22,-223.03"/>
</g>
<!-- Node19 -->
<g id="node19" class="node">
<title>Node19</title>
<g id="a_node19"><a xlink:href="../../d2/dad/vnodesplinepath_8cpp.html" target="_top" xlink:title=" ">
<polygon fill="white" stroke="black" points="965,-73 965,-103 1147,-103 1147,-73 965,-73"/>
<text text-anchor="start" x="973" y="-91" font-family="Helvetica,sans-Serif" font-size="10.00">src/libs/vtools/tools</text>
<text text-anchor="middle" x="1056" y="-80" font-family="Helvetica,sans-Serif" font-size="10.00">/nodeDetails/vnodesplinepath.cpp</text>
</a>
</g>
</g>
<!-- Node1&#45;&gt;Node19 -->
<g id="edge32" class="edge">
<title>Node1&#45;&gt;Node19</title>
<path fill="none" stroke="midnightblue" d="M992.3,-234.12C1067.7,-229.17 1166.78,-216.99 1192,-187 1204.01,-172.71 1202.39,-160.51 1192,-145 1178.15,-124.31 1155.12,-111.26 1131.91,-103.03"/>
<polygon fill="midnightblue" stroke="midnightblue" points="992.06,-230.63 982.3,-234.74 992.5,-237.61 992.06,-230.63"/>
</g>
<!-- Node20 -->
<g id="node20" class="node">
<title>Node20</title>
<g id="a_node20"><a xlink:href="../../df/d88/vnodesplinepath_8h.html" target="_top" xlink:title=" ">
<polygon fill="white" stroke="black" points="457.5,-151 457.5,-181 628.5,-181 628.5,-151 457.5,-151"/>
<text text-anchor="start" x="465.5" y="-169" font-family="Helvetica,sans-Serif" font-size="10.00">src/libs/vtools/tools</text>
<text text-anchor="middle" x="543" y="-158" font-family="Helvetica,sans-Serif" font-size="10.00">/nodeDetails/vnodesplinepath.h</text>
</a>
</g>
</g>
<!-- Node1&#45;&gt;Node20 -->
<g id="edge33" class="edge">
<title>Node1&#45;&gt;Node20</title>
<path fill="none" stroke="midnightblue" d="M816.12,-221.61C764.21,-211.89 696.74,-199.05 637,-187 627.6,-185.1 617.67,-183.05 607.94,-181.01"/>
<polygon fill="midnightblue" stroke="midnightblue" points="815.48,-225.06 825.95,-223.45 816.77,-218.17 815.48,-225.06"/>
</g>
<!-- Node21 -->
<g id="node21" class="node">
<title>Node21</title>
<g id="a_node21"><a xlink:href="../../d5/d9d/vtoolinternalpath_8h.html" target="_top" xlink:title=" ">
<polygon fill="white" stroke="black" points="1009,-151 1009,-181 1183,-181 1183,-151 1009,-151"/>
<text text-anchor="start" x="1017" y="-169" font-family="Helvetica,sans-Serif" font-size="10.00">src/libs/vtools/tools</text>
<text text-anchor="middle" x="1096" y="-158" font-family="Helvetica,sans-Serif" font-size="10.00">/nodeDetails/vtoolinternalpath.h</text>
</a>
</g>
</g>
<!-- Node1&#45;&gt;Node21 -->
<g id="edge39" class="edge">
<title>Node1&#45;&gt;Node21</title>
<path fill="none" stroke="midnightblue" d="M950.25,-219.96C983.28,-207.96 1026.5,-192.26 1057.27,-181.07"/>
<polygon fill="midnightblue" stroke="midnightblue" points="949,-216.7 940.79,-223.4 951.39,-223.28 949,-216.7"/>
</g>
<!-- Node3&#45;&gt;Node2 -->
<g id="edge6" class="edge">
<title>Node3&#45;&gt;Node2</title>
<path fill="none" stroke="midnightblue" d="M175,-146C151.13,-132.66 119.75,-115.12 98.13,-103.04"/>
<polygon fill="midnightblue" stroke="midnightblue" points="173.3,-149.06 183.74,-150.88 176.72,-142.95 173.3,-149.06"/>
</g>
<!-- Node4 -->
<g id="node4" class="node">
<title>Node4</title>
<g id="a_node4"><a xlink:href="../../d5/dcf/nodedetails_8h.html" target="_top" xlink:title=" ">
<polygon fill="white" stroke="black" points="616.5,-73 616.5,-103 763.5,-103 763.5,-73 616.5,-73"/>
<text text-anchor="start" x="624.5" y="-91" font-family="Helvetica,sans-Serif" font-size="10.00">src/libs/vtools/tools</text>
<text text-anchor="middle" x="690" y="-80" font-family="Helvetica,sans-Serif" font-size="10.00">/nodeDetails/nodedetails.h</text>
</a>
</g>
</g>
<!-- Node3&#45;&gt;Node4 -->
<g id="edge3" class="edge">
<title>Node3&#45;&gt;Node4</title>
<path fill="none" stroke="midnightblue" d="M268.3,-148.51C273.92,-147.21 279.55,-146.02 285,-145 426.56,-118.61 465.17,-133.92 607,-109 616.49,-107.33 626.51,-105.22 636.18,-103"/>
<polygon fill="midnightblue" stroke="midnightblue" points="267.14,-145.19 258.23,-150.93 268.77,-151.99 267.14,-145.19"/>
</g>
<!-- Node7 -->
<g id="node7" class="node">
<title>Node7</title>
<g id="a_node7"><a xlink:href="../../d8/dea/pattern__piece__tool_8cpp.html" target="_top" xlink:title=" ">
<polygon fill="white" stroke="black" points="338.5,-73 338.5,-103 469.5,-103 469.5,-73 338.5,-73"/>
<text text-anchor="start" x="346.5" y="-91" font-family="Helvetica,sans-Serif" font-size="10.00">src/libs/vtools/tools</text>
<text text-anchor="middle" x="404" y="-80" font-family="Helvetica,sans-Serif" font-size="10.00">/pattern_piece_tool.cpp</text>
</a>
</g>
</g>
<!-- Node3&#45;&gt;Node7 -->
<g id="edge7" class="edge">
<title>Node3&#45;&gt;Node7</title>
<path fill="none" stroke="midnightblue" d="M254.62,-147.22C289.18,-133.75 336.02,-115.5 367.97,-103.04"/>
<polygon fill="midnightblue" stroke="midnightblue" points="253.27,-143.99 245.22,-150.88 255.81,-150.51 253.27,-143.99"/>
</g>
<!-- Node8 -->
<g id="node8" class="node">
<title>Node8</title>
<g id="a_node8"><a xlink:href="../../d4/d9f/union__tool_8cpp.html" target="_top" xlink:title=" ">
<polygon fill="white" stroke="black" points="487.5,-73 487.5,-103 598.5,-103 598.5,-73 487.5,-73"/>
<text text-anchor="start" x="495.5" y="-91" font-family="Helvetica,sans-Serif" font-size="10.00">src/libs/vtools/tools</text>
<text text-anchor="middle" x="543" y="-80" font-family="Helvetica,sans-Serif" font-size="10.00">/union_tool.cpp</text>
</a>
</g>
</g>
<!-- Node3&#45;&gt;Node8 -->
<g id="edge8" class="edge">
<title>Node3&#45;&gt;Node8</title>
<path fill="none" stroke="midnightblue" d="M270.45,-148.42C275.36,-147.22 280.26,-146.06 285,-145 370.14,-125.88 393.27,-129.86 478,-109 485.11,-107.25 492.59,-105.17 499.84,-103.03"/>
<polygon fill="midnightblue" stroke="midnightblue" points="269.24,-145.12 260.39,-150.93 270.94,-151.91 269.24,-145.12"/>
</g>
<!-- Node5 -->
<g id="node5" class="node">
<title>Node5</title>
<g id="a_node5"><a xlink:href="../../d5/da5/tools_8h.html" target="_top" xlink:title=" ">
<polygon fill="white" stroke="black" points="569.5,-0.5 569.5,-30.5 680.5,-30.5 680.5,-0.5 569.5,-0.5"/>
<text text-anchor="start" x="577.5" y="-18.5" font-family="Helvetica,sans-Serif" font-size="10.00">src/libs/vtools/tools</text>
<text text-anchor="middle" x="625" y="-7.5" font-family="Helvetica,sans-Serif" font-size="10.00">/tools.h</text>
</a>
</g>
</g>
<!-- Node4&#45;&gt;Node5 -->
<g id="edge4" class="edge">
<title>Node4&#45;&gt;Node5</title>
<path fill="none" stroke="midnightblue" d="M670.05,-65.36C659.68,-54.11 647.29,-40.68 638.13,-30.75"/>
<polygon fill="midnightblue" stroke="midnightblue" points="667.49,-67.75 676.85,-72.73 672.64,-63.01 667.49,-67.75"/>
</g>
<!-- Node6 -->
<g id="node6" class="node">
<title>Node6</title>
<g id="a_node6"><a xlink:href="../../d9/d4e/vabstracttool_8cpp.html" target="_top" xlink:title=" ">
<polygon fill="white" stroke="black" points="698.5,-0.5 698.5,-30.5 809.5,-30.5 809.5,-0.5 698.5,-0.5"/>
<text text-anchor="start" x="706.5" y="-18.5" font-family="Helvetica,sans-Serif" font-size="10.00">src/libs/vtools/tools</text>
<text text-anchor="middle" x="754" y="-7.5" font-family="Helvetica,sans-Serif" font-size="10.00">/vabstracttool.cpp</text>
</a>
</g>
</g>
<!-- Node4&#45;&gt;Node6 -->
<g id="edge5" class="edge">
<title>Node4&#45;&gt;Node6</title>
<path fill="none" stroke="midnightblue" d="M709.94,-65.04C720.09,-53.86 732.14,-40.58 741.07,-30.75"/>
<polygon fill="midnightblue" stroke="midnightblue" points="707.08,-62.98 702.95,-72.73 712.26,-67.68 707.08,-62.98"/>
</g>
<!-- Node9&#45;&gt;Node4 -->
<g id="edge12" class="edge">
<title>Node9&#45;&gt;Node4</title>
<path fill="none" stroke="midnightblue" d="M1267.08,-154.02C1242.98,-150.89 1216.43,-147.62 1192,-145 1005.72,-125.01 956.89,-139.29 772,-109 762.31,-107.41 752.08,-105.29 742.25,-103.01"/>
<polygon fill="midnightblue" stroke="midnightblue" points="1266.88,-157.53 1277.25,-155.35 1267.79,-150.59 1266.88,-157.53"/>
</g>
<!-- Node9&#45;&gt;Node8 -->
<g id="edge13" class="edge">
<title>Node9&#45;&gt;Node8</title>
<path fill="none" stroke="midnightblue" d="M1267.12,-153.65C1243.01,-150.51 1216.46,-147.33 1192,-145 932.68,-120.32 863.18,-156.19 607,-109 599.1,-107.54 590.81,-105.42 582.91,-103.1"/>
<polygon fill="midnightblue" stroke="midnightblue" points="1266.91,-157.16 1277.28,-155 1267.83,-150.22 1266.91,-157.16"/>
</g>
<!-- Node10 -->
<g id="node10" class="node">
<title>Node10</title>
<g id="a_node10"><a xlink:href="../../d8/dd9/mainwindow_8cpp.html" target="_top" xlink:title=" ">
<polygon fill="white" stroke="black" points="1548,-78.5 1548,-97.5 1736,-97.5 1736,-78.5 1548,-78.5"/>
<text text-anchor="middle" x="1642" y="-85.5" font-family="Helvetica,sans-Serif" font-size="10.00">src/app/seamly2d/mainwindow.cpp</text>
</a>
</g>
</g>
<!-- Node9&#45;&gt;Node10 -->
<g id="edge10" class="edge">
<title>Node9&#45;&gt;Node10</title>
<path fill="none" stroke="midnightblue" d="M1426.33,-144.56C1486.07,-129.17 1564.94,-108.85 1608.85,-97.54"/>
<polygon fill="midnightblue" stroke="midnightblue" points="1425.35,-141.2 1416.54,-147.09 1427.09,-147.98 1425.35,-141.2"/>
</g>
<!-- Node11 -->
<g id="node11" class="node">
<title>Node11</title>
<g id="a_node11"><a xlink:href="../../d9/d3a/anchorpoint__tool_8cpp.html" target="_top" xlink:title=" ">
<polygon fill="white" stroke="black" points="1960.5,-67.5 1960.5,-108.5 2099.5,-108.5 2099.5,-67.5 1960.5,-67.5"/>
<text text-anchor="start" x="1968.5" y="-96.5" font-family="Helvetica,sans-Serif" font-size="10.00">src/libs/vtools/tools</text>
<text text-anchor="start" x="1968.5" y="-85.5" font-family="Helvetica,sans-Serif" font-size="10.00">/nodeDetails/anchorpoint</text>
<text text-anchor="middle" x="2030" y="-74.5" font-family="Helvetica,sans-Serif" font-size="10.00">_tool.cpp</text>
</a>
</g>
</g>
<!-- Node9&#45;&gt;Node11 -->
<g id="edge11" class="edge">
<title>Node9&#45;&gt;Node11</title>
<path fill="none" stroke="midnightblue" d="M1426.85,-150.42C1439.58,-148.4 1452.63,-146.5 1465,-145 1680.01,-118.87 1737.21,-143.71 1951,-109 1954.07,-108.5 1957.2,-107.94 1960.35,-107.33"/>
<polygon fill="midnightblue" stroke="midnightblue" points="1426.03,-147.01 1416.73,-152.07 1427.16,-153.92 1426.03,-147.01"/>
</g>
<!-- Node12&#45;&gt;Node4 -->
<g id="edge15" class="edge">
<title>Node12&#45;&gt;Node4</title>
<path fill="none" stroke="midnightblue" d="M852.88,-147.39C815.26,-133.9 764.06,-115.55 729.17,-103.04"/>
<polygon fill="midnightblue" stroke="midnightblue" points="852.03,-150.8 862.62,-150.88 854.39,-144.21 852.03,-150.8"/>
</g>
<!-- Node12&#45;&gt;Node7 -->
<g id="edge17" class="edge">
<title>Node12&#45;&gt;Node7</title>
<path fill="none" stroke="midnightblue" d="M827.56,-149.07C819.63,-147.59 811.66,-146.2 804,-145 659.99,-122.4 621.23,-136.1 478,-109 469.5,-107.39 460.55,-105.31 451.92,-103.1"/>
<polygon fill="midnightblue" stroke="midnightblue" points="827.1,-152.54 837.58,-150.98 828.41,-145.67 827.1,-152.54"/>
</g>
<!-- Node12&#45;&gt;Node8 -->
<g id="edge18" class="edge">
<title>Node12&#45;&gt;Node8</title>
<path fill="none" stroke="midnightblue" d="M824.27,-148.98C817.42,-147.62 810.59,-146.27 804,-145 716.61,-128.1 693.42,-130.31 607,-109 599.99,-107.27 592.63,-105.21 585.48,-103.07"/>
<polygon fill="midnightblue" stroke="midnightblue" points="823.8,-152.46 834.29,-150.99 825.18,-145.6 823.8,-152.46"/>
</g>
<!-- Node12&#45;&gt;Node13 -->
<g id="edge16" class="edge">
<title>Node12&#45;&gt;Node13</title>
<path fill="none" stroke="midnightblue" d="M973.44,-149.1C982.35,-147.51 991.36,-146.08 1000,-145 1328.92,-103.74 1415.89,-148.7 1745,-109 1757.48,-107.49 1770.71,-105.35 1783.39,-103.02"/>
<polygon fill="midnightblue" stroke="midnightblue" points="972.64,-145.69 963.45,-150.96 973.92,-152.57 972.64,-145.69"/>
</g>
<!-- Node14&#45;&gt;Node4 -->
<g id="edge21" class="edge">
<title>Node14&#45;&gt;Node4</title>
<path fill="none" stroke="midnightblue" d="M432.96,-148.6C438.05,-147.37 443.1,-146.16 448,-145 518.51,-128.31 536.45,-125.49 607,-109 615.08,-107.11 623.6,-105.09 631.98,-103.09"/>
<polygon fill="midnightblue" stroke="midnightblue" points="432.07,-145.22 423.18,-150.98 433.72,-152.02 432.07,-145.22"/>
</g>
<!-- Node14&#45;&gt;Node7 -->
<g id="edge23" class="edge">
<title>Node14&#45;&gt;Node7</title>
<path fill="none" stroke="midnightblue" d="M378.34,-141.7C384.46,-129.14 391.81,-114.04 397.07,-103.23"/>
<polygon fill="midnightblue" stroke="midnightblue" points="375.19,-140.18 373.96,-150.7 381.48,-143.25 375.19,-140.18"/>
</g>
<!-- Node14&#45;&gt;Node8 -->
<g id="edge24" class="edge">
<title>Node14&#45;&gt;Node8</title>
<path fill="none" stroke="midnightblue" d="M408.98,-146.87C440.09,-133.44 481.89,-115.39 510.48,-103.04"/>
<polygon fill="midnightblue" stroke="midnightblue" points="407.48,-143.71 399.69,-150.88 410.26,-150.13 407.48,-143.71"/>
</g>
<!-- Node14&#45;&gt;Node15 -->
<g id="edge22" class="edge">
<title>Node14&#45;&gt;Node15</title>
<path fill="none" stroke="midnightblue" d="M335.17,-145.64C313.3,-132.35 284.79,-115.02 265.09,-103.04"/>
<polygon fill="midnightblue" stroke="midnightblue" points="333.42,-148.68 343.78,-150.88 337.06,-142.7 333.42,-148.68"/>
</g>
<!-- Node18&#45;&gt;Node4 -->
<g id="edge28" class="edge">
<title>Node18&#45;&gt;Node4</title>
<path fill="none" stroke="midnightblue" d="M711.35,-141.33C706.25,-128.85 700.17,-113.94 695.8,-103.23"/>
<polygon fill="midnightblue" stroke="midnightblue" points="708.15,-142.77 715.17,-150.7 714.63,-140.12 708.15,-142.77"/>
</g>
<!-- Node18&#45;&gt;Node7 -->
<g id="edge30" class="edge">
<title>Node18&#45;&gt;Node7</title>
<path fill="none" stroke="midnightblue" d="M652.31,-148.58C647.13,-147.36 641.98,-146.16 637,-145 566.42,-128.61 548.32,-126.46 478,-109 470.51,-107.14 462.61,-105.1 454.88,-103.05"/>
<polygon fill="midnightblue" stroke="midnightblue" points="651.74,-152.04 662.27,-150.93 653.34,-145.23 651.74,-152.04"/>
</g>
<!-- Node18&#45;&gt;Node8 -->
<g id="edge31" class="edge">
<title>Node18&#45;&gt;Node8</title>
<path fill="none" stroke="midnightblue" d="M678.54,-146.87C647.08,-133.44 604.81,-115.39 575.89,-103.04"/>
<polygon fill="midnightblue" stroke="midnightblue" points="677.37,-150.18 687.94,-150.88 680.11,-143.74 677.37,-150.18"/>
</g>
<!-- Node18&#45;&gt;Node16 -->
<g id="edge29" class="edge">
<title>Node18&#45;&gt;Node16</title>
<path fill="none" stroke="midnightblue" d="M784.22,-148.75C791.2,-147.31 798.23,-146.02 805,-145 1049.44,-108.24 1115.33,-144.21 1360,-109 1370.66,-107.47 1381.94,-105.34 1392.75,-103.03"/>
<polygon fill="midnightblue" stroke="midnightblue" points="783.1,-145.41 774.06,-150.94 784.57,-152.25 783.1,-145.41"/>
</g>
<!-- Node20&#45;&gt;Node4 -->
<g id="edge34" class="edge">
<title>Node20&#45;&gt;Node4</title>
<path fill="none" stroke="midnightblue" d="M579.41,-146.17C605.25,-132.82 639.37,-115.18 662.84,-103.04"/>
<polygon fill="midnightblue" stroke="midnightblue" points="577.58,-143.18 570.31,-150.88 580.8,-149.4 577.58,-143.18"/>
</g>
<!-- Node20&#45;&gt;Node7 -->
<g id="edge36" class="edge">
<title>Node20&#45;&gt;Node7</title>
<path fill="none" stroke="midnightblue" d="M508.25,-146C483.86,-132.66 451.78,-115.12 429.68,-103.04"/>
<polygon fill="midnightblue" stroke="midnightblue" points="506.73,-149.16 517.18,-150.88 510.09,-143.01 506.73,-149.16"/>
</g>
<!-- Node20&#45;&gt;Node8 -->
<g id="edge37" class="edge">
<title>Node20&#45;&gt;Node8</title>
<path fill="none" stroke="midnightblue" d="M543,-140.59C543,-128.26 543,-113.72 543,-103.23"/>
<polygon fill="midnightblue" stroke="midnightblue" points="539.5,-140.7 543,-150.7 546.5,-140.71 539.5,-140.7"/>
</g>
<!-- Node20&#45;&gt;Node19 -->
<g id="edge35" class="edge">
<title>Node20&#45;&gt;Node19</title>
<path fill="none" stroke="midnightblue" d="M614.64,-149.01C622.17,-147.55 629.73,-146.18 637,-145 777.83,-122.13 815.03,-131.01 956,-109 967.02,-107.28 978.67,-105.19 989.98,-103.03"/>
<polygon fill="midnightblue" stroke="midnightblue" points="613.91,-145.58 604.78,-150.96 615.27,-152.45 613.91,-145.58"/>
</g>
<!-- Node21&#45;&gt;Node4 -->
<g id="edge41" class="edge">
<title>Node21&#45;&gt;Node4</title>
<path fill="none" stroke="midnightblue" d="M1020.59,-148.93C1013.64,-147.56 1006.69,-146.23 1000,-145 899.09,-126.53 872.59,-129.17 772,-109 763.24,-107.24 753.99,-105.19 745,-103.08"/>
<polygon fill="midnightblue" stroke="midnightblue" points="1020.27,-152.43 1030.76,-150.96 1021.64,-145.57 1020.27,-152.43"/>
</g>
<!-- Node21&#45;&gt;Node7 -->
<g id="edge43" class="edge">
<title>Node21&#45;&gt;Node7</title>
<path fill="none" stroke="midnightblue" d="M1025.16,-149.11C1016.71,-147.55 1008.18,-146.13 1000,-145 769.63,-113.21 707.34,-147.52 478,-109 469.08,-107.5 459.67,-105.39 450.67,-103.09"/>
<polygon fill="midnightblue" stroke="midnightblue" points="1024.54,-152.55 1035.02,-150.99 1025.85,-145.68 1024.54,-152.55"/>
</g>
<!-- Node21&#45;&gt;Node8 -->
<g id="edge44" class="edge">
<title>Node21&#45;&gt;Node8</title>
<path fill="none" stroke="midnightblue" d="M1024.12,-149.1C1016.01,-147.58 1007.84,-146.17 1000,-145 826.53,-119.07 779,-143.35 607,-109 599.24,-107.45 591.08,-105.31 583.29,-103.01"/>
<polygon fill="midnightblue" stroke="midnightblue" points="1023.48,-152.54 1033.96,-151 1024.8,-145.67 1023.48,-152.54"/>
</g>
<!-- Node21&#45;&gt;Node10 -->
<g id="edge40" class="edge">
<title>Node21&#45;&gt;Node10</title>
<path fill="none" stroke="midnightblue" d="M1193.3,-153.46C1303.01,-140.32 1474.51,-119.33 1539,-109 1559.68,-105.69 1582.57,-101.32 1601.51,-97.5"/>
<polygon fill="midnightblue" stroke="midnightblue" points="1192.72,-150.01 1183.21,-154.67 1193.55,-156.96 1192.72,-150.01"/>
</g>
<!-- Node22 -->
<g id="node22" class="node">
<title>Node22</title>
<g id="a_node22"><a xlink:href="../../d3/dd9/vtoolinternalpath_8cpp.html" target="_top" xlink:title=" ">
<polygon fill="white" stroke="black" points="1165.5,-73 1165.5,-103 1350.5,-103 1350.5,-73 1165.5,-73"/>
<text text-anchor="start" x="1173.5" y="-91" font-family="Helvetica,sans-Serif" font-size="10.00">src/libs/vtools/tools</text>
<text text-anchor="middle" x="1258" y="-80" font-family="Helvetica,sans-Serif" font-size="10.00">/nodeDetails/vtoolinternalpath.cpp</text>
</a>
</g>
</g>
<!-- Node21&#45;&gt;Node22 -->
<g id="edge42" class="edge">
<title>Node21&#45;&gt;Node22</title>
<path fill="none" stroke="midnightblue" d="M1135.38,-146.52C1163.94,-133.13 1201.98,-115.28 1228.07,-103.04"/>
<polygon fill="midnightblue" stroke="midnightblue" points="1133.66,-143.47 1126.09,-150.88 1136.63,-149.8 1133.66,-143.47"/>
</g>
<!-- Node23 -->
<g id="node23" class="node">
<title>Node23</title>
<g id="a_node23"><a xlink:href="../../dd/d3a/savepiecepathoptions_8cpp.html" target="_top" xlink:title=" ">
<polygon fill="white" stroke="black" points="781.5,-73 781.5,-103 946.5,-103 946.5,-73 781.5,-73"/>
<text text-anchor="start" x="789.5" y="-91" font-family="Helvetica,sans-Serif" font-size="10.00">src/libs/vtools/undocommands</text>
<text text-anchor="middle" x="864" y="-80" font-family="Helvetica,sans-Serif" font-size="10.00">/savepiecepathoptions.cpp</text>
</a>
</g>
</g>
<!-- Node21&#45;&gt;Node23 -->
<g id="edge45" class="edge">
<title>Node21&#45;&gt;Node23</title>
<path fill="none" stroke="midnightblue" d="M1043.57,-147.83C1002.32,-134.31 945.56,-115.72 906.97,-103.07"/>
<polygon fill="midnightblue" stroke="midnightblue" points="1042.58,-151.18 1053.18,-150.97 1044.76,-144.53 1042.58,-151.18"/>
</g>
</g>
</svg>
