<?xml version="1.0" encoding="UTF-8" standalone="no"?>
<!DOCTYPE svg PUBLIC "-//W3C//DTD SVG 1.1//EN"
 "http://www.w3.org/Graphics/SVG/1.1/DTD/svg11.dtd">
<!-- Generated by graphviz version 2.43.0 (0)
 -->
<!-- Title: src/libs/vtools/tools/nodeDetails/vabstractnode.h Pages: 1 -->
<!--zoomable 262 -->
<svg id="main" version="1.1" xmlns="http://www.w3.org/2000/svg" xmlns:xlink="http://www.w3.org/1999/xlink" xml:space="preserve" onload="init(evt)">
<style type="text/css"><![CDATA[
.edge:hover path { stroke: red; }
.edge:hover polygon { stroke: red; fill: red; }
]]></style>
<script type="text/javascript"><![CDATA[
var edges = document.getElementsByTagName('g');
if (edges && edges.length) {
  for (var i=0;i<edges.length;i++) {
    if (edges[i].id.substr(0,4)=='edge') {
      edges[i].setAttribute('class','edge');
    }
  }
}
]]></script>
        <defs>
                <circle id="rim" cx="0" cy="0" r="7"/>
                <circle id="rim2" cx="0" cy="0" r="3.5"/>
                <g id="zoomPlus">
                        <use xlink:href="#rim" fill="#404040">
                                <set attributeName="fill" to="#808080" begin="zoomplus.mouseover" end="zoomplus.mouseout"/>
                        </use>
                        <path d="M-4,0h8M0,-4v8" fill="none" stroke="white" stroke-width="1.5" pointer-events="none"/>
                </g>
                <g id="zoomMin">
                        <use xlink:href="#rim" fill="#404040">
                                <set attributeName="fill" to="#808080" begin="zoomminus.mouseover" end="zoomminus.mouseout"/>
                        </use>
                        <path d="M-4,0h8" fill="none" stroke="white" stroke-width="1.5" pointer-events="none"/>
                </g>
                <g id="dirArrow">
                        <path fill="none" stroke="white" stroke-width="1.5" d="M0,-3.0v7 M-2.5,-0.5L0,-3.0L2.5,-0.5"/>
                </g>
               <g id="resetDef">
                       <use xlink:href="#rim2" fill="#404040">
                               <set attributeName="fill" to="#808080" begin="reset.mouseover" end="reset.mouseout"/>
                       </use>
               </g>
        </defs>

<script type="text/javascript">
var viewWidth = 2212;
var viewHeight = 262;
var sectionId = 'dynsection-1';
</script>
<script xlink:href="../../svgpan.js"/>
<svg id="graph" class="graph">
<g id="viewport">
<title>src/libs/vtools/tools/nodeDetails/vabstractnode.h</title>
<polygon fill="white" stroke="transparent" points="-4,4 -4,-258 2208,-258 2208,4 -4,4"/>
<!-- Node1 -->
<g id="node1" class="node">
<title>Node1</title>
<g id="a_node1"><a xlink:title=" ">
<polygon fill="#bfbfbf" stroke="black" points="808.5,-223.5 808.5,-253.5 968.5,-253.5 968.5,-223.5 808.5,-223.5"/>
<text text-anchor="start" x="816.5" y="-241.5" font-family="Helvetica,sans-Serif" font-size="10.00">src/libs/vtools/tools</text>
<text text-anchor="middle" x="888.5" y="-230.5" font-family="Helvetica,sans-Serif" font-size="10.00">/nodeDetails/vabstractnode.h</text>
</a>
</g>
</g>
<!-- Node2 -->
<g id="node2" class="node">
<title>Node2</title>
<g id="a_node2"><a xlink:href="../../d5/dcd/vabstractnode_8cpp.html" target="_top" xlink:title=" ">
<polygon fill="white" stroke="black" points="0,-151 0,-181 171,-181 171,-151 0,-151"/>
<text text-anchor="start" x="8" y="-169" font-family="Helvetica,sans-Serif" font-size="10.00">src/libs/vtools/tools</text>
<text text-anchor="middle" x="85.5" y="-158" font-family="Helvetica,sans-Serif" font-size="10.00">/nodeDetails/vabstractnode.cpp</text>
</a>
</g>
</g>
<!-- Node1&#45;&gt;Node2 -->
<g id="edge1" class="edge">
<title>Node1&#45;&gt;Node2</title>
<path fill="none" stroke="midnightblue" d="M798.07,-234.64C663.87,-229.57 404.28,-216.62 185.5,-187 173.74,-185.41 161.29,-183.28 149.31,-181.01"/>
<polygon fill="midnightblue" stroke="midnightblue" points="798.18,-238.14 808.3,-235.02 798.44,-231.15 798.18,-238.14"/>
</g>
<!-- Node3 -->
<g id="node3" class="node">
<title>Node3</title>
<g id="a_node3"><a xlink:href="../../df/d98/vnodearc_8h.html" target="_top" xlink:title=" ">
<polygon fill="white" stroke="black" points="979,-151 979,-181 1114,-181 1114,-151 979,-151"/>
<text text-anchor="start" x="987" y="-169" font-family="Helvetica,sans-Serif" font-size="10.00">src/libs/vtools/tools</text>
<text text-anchor="middle" x="1046.5" y="-158" font-family="Helvetica,sans-Serif" font-size="10.00">/nodeDetails/vnodearc.h</text>
</a>
</g>
</g>
<!-- Node1&#45;&gt;Node3 -->
<g id="edge2" class="edge">
<title>Node1&#45;&gt;Node3</title>
<path fill="none" stroke="midnightblue" d="M929.54,-219.19C956.2,-207.29 990.43,-192.02 1014.96,-181.07"/>
<polygon fill="midnightblue" stroke="midnightblue" points="927.8,-216.13 920.09,-223.4 930.65,-222.52 927.8,-216.13"/>
</g>
<!-- Node7 -->
<g id="node7" class="node">
<title>Node7</title>
<g id="a_node7"><a xlink:href="../../d0/d43/vnodearc_8cpp.html" target="_top" xlink:title=" ">
<polygon fill="white" stroke="black" points="1900.5,-73 1900.5,-103 2046.5,-103 2046.5,-73 1900.5,-73"/>
<text text-anchor="start" x="1908.5" y="-91" font-family="Helvetica,sans-Serif" font-size="10.00">src/libs/vtools/tools</text>
<text text-anchor="middle" x="1973.5" y="-80" font-family="Helvetica,sans-Serif" font-size="10.00">/nodeDetails/vnodearc.cpp</text>
</a>
</g>
</g>
<!-- Node1&#45;&gt;Node7 -->
<g id="edge9" class="edge">
<title>Node1&#45;&gt;Node7</title>
<path fill="none" stroke="midnightblue" d="M978.79,-234.8C1106.35,-230.03 1346.32,-217.55 1548.5,-187 1686.08,-166.21 1845.11,-124.78 1923.93,-103.04"/>
<polygon fill="midnightblue" stroke="midnightblue" points="978.55,-231.31 968.68,-235.17 978.8,-238.3 978.55,-231.31"/>
</g>
<!-- Node10 -->
<g id="node10" class="node">
<title>Node10</title>
<g id="a_node10"><a xlink:href="../../d3/d3a/vnodeellipticalarc_8cpp.html" target="_top" xlink:title=" ">
<polygon fill="white" stroke="black" points="104.5,-73 104.5,-103 292.5,-103 292.5,-73 104.5,-73"/>
<text text-anchor="start" x="112.5" y="-91" font-family="Helvetica,sans-Serif" font-size="10.00">src/libs/vtools/tools</text>
<text text-anchor="middle" x="198.5" y="-80" font-family="Helvetica,sans-Serif" font-size="10.00">/nodeDetails/vnodeellipticalarc.cpp</text>
</a>
</g>
</g>
<!-- Node1&#45;&gt;Node10 -->
<g id="edge10" class="edge">
<title>Node1&#45;&gt;Node10</title>
<path fill="none" stroke="midnightblue" d="M798.19,-235.45C631.4,-230.95 287.91,-217.99 243.5,-187 215.25,-167.29 204.36,-125.28 200.47,-103.22"/>
<polygon fill="midnightblue" stroke="midnightblue" points="798.34,-238.96 808.43,-235.73 798.53,-231.96 798.34,-238.96"/>
</g>
<!-- Node11 -->
<g id="node11" class="node">
<title>Node11</title>
<g id="a_node11"><a xlink:href="../../de/d51/anchorpoint__tool_8h.html" target="_top" xlink:title=" ">
<polygon fill="white" stroke="black" points="1401,-145.5 1401,-186.5 1540,-186.5 1540,-145.5 1401,-145.5"/>
<text text-anchor="start" x="1409" y="-174.5" font-family="Helvetica,sans-Serif" font-size="10.00">src/libs/vtools/tools</text>
<text text-anchor="start" x="1409" y="-163.5" font-family="Helvetica,sans-Serif" font-size="10.00">/nodeDetails/anchorpoint</text>
<text text-anchor="middle" x="1470.5" y="-152.5" font-family="Helvetica,sans-Serif" font-size="10.00">_tool.h</text>
</a>
</g>
</g>
<!-- Node1&#45;&gt;Node11 -->
<g id="edge11" class="edge">
<title>Node1&#45;&gt;Node11</title>
<path fill="none" stroke="midnightblue" d="M978.8,-231.96C1078.94,-224.98 1245.05,-210.9 1386.5,-187 1391.23,-186.2 1396.09,-185.29 1400.97,-184.3"/>
<polygon fill="midnightblue" stroke="midnightblue" points="978.46,-228.48 968.72,-232.65 978.94,-235.46 978.46,-228.48"/>
</g>
<!-- Node14 -->
<g id="node14" class="node">
<title>Node14</title>
<g id="a_node14"><a xlink:href="../../d5/df0/vnodepoint_8h.html" target="_top" xlink:title=" ">
<polygon fill="white" stroke="black" points="816,-151 816,-181 961,-181 961,-151 816,-151"/>
<text text-anchor="start" x="824" y="-169" font-family="Helvetica,sans-Serif" font-size="10.00">src/libs/vtools/tools</text>
<text text-anchor="middle" x="888.5" y="-158" font-family="Helvetica,sans-Serif" font-size="10.00">/nodeDetails/vnodepoint.h</text>
</a>
</g>
</g>
<!-- Node1&#45;&gt;Node14 -->
<g id="edge16" class="edge">
<title>Node1&#45;&gt;Node14</title>
<path fill="none" stroke="midnightblue" d="M888.5,-213.23C888.5,-202.57 888.5,-190.41 888.5,-181.25"/>
<polygon fill="midnightblue" stroke="midnightblue" points="885,-213.23 888.5,-223.23 892,-213.23 885,-213.23"/>
</g>
<!-- Node15 -->
<g id="node15" class="node">
<title>Node15</title>
<g id="a_node15"><a xlink:href="../../d4/d7b/vnodepoint_8cpp.html" target="_top" xlink:title=" ">
<polygon fill="white" stroke="black" points="1520.5,-73 1520.5,-103 1676.5,-103 1676.5,-73 1520.5,-73"/>
<text text-anchor="start" x="1528.5" y="-91" font-family="Helvetica,sans-Serif" font-size="10.00">src/libs/vtools/tools</text>
<text text-anchor="middle" x="1598.5" y="-80" font-family="Helvetica,sans-Serif" font-size="10.00">/nodeDetails/vnodepoint.cpp</text>
</a>
</g>
</g>
<!-- Node1&#45;&gt;Node15 -->
<g id="edge45" class="edge">
<title>Node1&#45;&gt;Node15</title>
<path fill="none" stroke="midnightblue" d="M978.77,-232.79C1089.93,-226.04 1271.72,-211.63 1334.5,-187 1363.79,-175.51 1363.16,-158.68 1391.5,-145 1417.07,-132.66 1485.63,-115.15 1536.89,-103.01"/>
<polygon fill="midnightblue" stroke="midnightblue" points="978.35,-229.31 968.58,-233.4 978.77,-236.3 978.35,-229.31"/>
</g>
<!-- Node16 -->
<g id="node16" class="node">
<title>Node16</title>
<g id="a_node16"><a xlink:href="../../df/d25/vnodeellipticalarc_8h.html" target="_top" xlink:title=" ">
<polygon fill="white" stroke="black" points="265,-151 265,-181 442,-181 442,-151 265,-151"/>
<text text-anchor="start" x="273" y="-169" font-family="Helvetica,sans-Serif" font-size="10.00">src/libs/vtools/tools</text>
<text text-anchor="middle" x="353.5" y="-158" font-family="Helvetica,sans-Serif" font-size="10.00">/nodeDetails/vnodeellipticalarc.h</text>
</a>
</g>
</g>
<!-- Node1&#45;&gt;Node16 -->
<g id="edge21" class="edge">
<title>Node1&#45;&gt;Node16</title>
<path fill="none" stroke="midnightblue" d="M798.25,-229.45C709.47,-220.98 570.21,-206.2 450.5,-187 439.8,-185.28 428.5,-183.2 417.53,-181.04"/>
<polygon fill="midnightblue" stroke="midnightblue" points="798,-232.94 808.28,-230.4 798.66,-225.97 798,-232.94"/>
</g>
<!-- Node17 -->
<g id="node17" class="node">
<title>Node17</title>
<g id="a_node17"><a xlink:href="../../df/d94/vnodespline_8cpp.html" target="_top" xlink:title=" ">
<polygon fill="white" stroke="black" points="311,-73 311,-103 472,-103 472,-73 311,-73"/>
<text text-anchor="start" x="319" y="-91" font-family="Helvetica,sans-Serif" font-size="10.00">src/libs/vtools/tools</text>
<text text-anchor="middle" x="391.5" y="-80" font-family="Helvetica,sans-Serif" font-size="10.00">/nodeDetails/vnodespline.cpp</text>
</a>
</g>
</g>
<!-- Node1&#45;&gt;Node17 -->
<g id="edge26" class="edge">
<title>Node1&#45;&gt;Node17</title>
<path fill="none" stroke="midnightblue" d="M798.18,-236.92C632.04,-234.91 291.53,-226.02 255.5,-187 242.84,-173.29 245.11,-160.51 255.5,-145 265.73,-129.72 307.48,-113.92 342.06,-103.01"/>
<polygon fill="midnightblue" stroke="midnightblue" points="798.34,-240.42 808.38,-237.04 798.42,-233.42 798.34,-240.42"/>
</g>
<!-- Node18 -->
<g id="node18" class="node">
<title>Node18</title>
<g id="a_node18"><a xlink:href="../../d0/dd2/vnodespline_8h.html" target="_top" xlink:title=" ">
<polygon fill="white" stroke="black" points="460,-151 460,-181 609,-181 609,-151 460,-151"/>
<text text-anchor="start" x="468" y="-169" font-family="Helvetica,sans-Serif" font-size="10.00">src/libs/vtools/tools</text>
<text text-anchor="middle" x="534.5" y="-158" font-family="Helvetica,sans-Serif" font-size="10.00">/nodeDetails/vnodespline.h</text>
</a>
</g>
</g>
<!-- Node1&#45;&gt;Node18 -->
<g id="edge27" class="edge">
<title>Node1&#45;&gt;Node18</title>
<path fill="none" stroke="midnightblue" d="M798.22,-221.89C745.41,-212.46 677.52,-199.81 617.5,-187 608.95,-185.17 599.93,-183.13 591.11,-181.06"/>
<polygon fill="midnightblue" stroke="midnightblue" points="797.78,-225.37 808.24,-223.68 799.01,-218.48 797.78,-225.37"/>
</g>
<!-- Node19 -->
<g id="node19" class="node">
<title>Node19</title>
<g id="a_node19"><a xlink:href="../../df/d88/vnodesplinepath_8h.html" target="_top" xlink:title=" ">
<polygon fill="white" stroke="black" points="627,-151 627,-181 798,-181 798,-151 627,-151"/>
<text text-anchor="start" x="635" y="-169" font-family="Helvetica,sans-Serif" font-size="10.00">src/libs/vtools/tools</text>
<text text-anchor="middle" x="712.5" y="-158" font-family="Helvetica,sans-Serif" font-size="10.00">/nodeDetails/vnodesplinepath.h</text>
</a>
</g>
</g>
<!-- Node1&#45;&gt;Node19 -->
<g id="edge32" class="edge">
<title>Node1&#45;&gt;Node19</title>
<path fill="none" stroke="midnightblue" d="M843.95,-219.65C814.09,-207.69 775.31,-192.16 747.63,-181.07"/>
<polygon fill="midnightblue" stroke="midnightblue" points="842.72,-222.93 853.31,-223.4 845.33,-216.44 842.72,-222.93"/>
</g>
<!-- Node20 -->
<g id="node20" class="node">
<title>Node20</title>
<g id="a_node20"><a xlink:href="../../d2/dad/vnodesplinepath_8cpp.html" target="_top" xlink:title=" ">
<polygon fill="white" stroke="black" points="1116.5,-73 1116.5,-103 1298.5,-103 1298.5,-73 1116.5,-73"/>
<text text-anchor="start" x="1124.5" y="-91" font-family="Helvetica,sans-Serif" font-size="10.00">src/libs/vtools/tools</text>
<text text-anchor="middle" x="1207.5" y="-80" font-family="Helvetica,sans-Serif" font-size="10.00">/nodeDetails/vnodesplinepath.cpp</text>
</a>
</g>
</g>
<!-- Node1&#45;&gt;Node20 -->
<g id="edge37" class="edge">
<title>Node1&#45;&gt;Node20</title>
<path fill="none" stroke="midnightblue" d="M978.95,-233.1C1097.64,-226.39 1293.55,-211.7 1315.5,-187 1327.9,-173.05 1325.2,-160.95 1315.5,-145 1303.21,-124.79 1281,-111.54 1259.91,-103.04"/>
<polygon fill="midnightblue" stroke="midnightblue" points="978.56,-229.62 968.77,-233.67 978.95,-236.61 978.56,-229.62"/>
</g>
<!-- Node21 -->
<g id="node21" class="node">
<title>Node21</title>
<g id="a_node21"><a xlink:href="../../d5/d9d/vtoolinternalpath_8h.html" target="_top" xlink:title=" ">
<polygon fill="white" stroke="black" points="1132.5,-151 1132.5,-181 1306.5,-181 1306.5,-151 1132.5,-151"/>
<text text-anchor="start" x="1140.5" y="-169" font-family="Helvetica,sans-Serif" font-size="10.00">src/libs/vtools/tools</text>
<text text-anchor="middle" x="1219.5" y="-158" font-family="Helvetica,sans-Serif" font-size="10.00">/nodeDetails/vtoolinternalpath.h</text>
</a>
</g>
</g>
<!-- Node1&#45;&gt;Node21 -->
<g id="edge38" class="edge">
<title>Node1&#45;&gt;Node21</title>
<path fill="none" stroke="midnightblue" d="M964.35,-221.34C1021.47,-209.18 1098.99,-192.67 1153.55,-181.05"/>
<polygon fill="midnightblue" stroke="midnightblue" points="963.34,-217.98 954.29,-223.49 964.8,-224.83 963.34,-217.98"/>
</g>
<!-- Node4 -->
<g id="node4" class="node">
<title>Node4</title>
<g id="a_node4"><a xlink:href="../../d5/dcf/nodedetails_8h.html" target="_top" xlink:title=" ">
<polygon fill="white" stroke="black" points="639,-73 639,-103 786,-103 786,-73 639,-73"/>
<text text-anchor="start" x="647" y="-91" font-family="Helvetica,sans-Serif" font-size="10.00">src/libs/vtools/tools</text>
<text text-anchor="middle" x="712.5" y="-80" font-family="Helvetica,sans-Serif" font-size="10.00">/nodeDetails/nodedetails.h</text>
</a>
</g>
</g>
<!-- Node3&#45;&gt;Node4 -->
<g id="edge3" class="edge">
<title>Node3&#45;&gt;Node4</title>
<path fill="none" stroke="midnightblue" d="M983.96,-148.47C979.08,-147.27 974.21,-146.1 969.5,-145 892.16,-127.01 871.97,-126.41 794.5,-109 786.21,-107.14 777.46,-105.09 768.9,-103.04"/>
<polygon fill="midnightblue" stroke="midnightblue" points="983.43,-151.95 993.99,-150.98 985.13,-145.16 983.43,-151.95"/>
</g>
<!-- Node3&#45;&gt;Node7 -->
<g id="edge6" class="edge">
<title>Node3&#45;&gt;Node7</title>
<path fill="none" stroke="midnightblue" d="M1104.28,-148.62C1110.73,-147.2 1117.23,-145.95 1123.5,-145 1461.35,-93.77 1553.28,-157.71 1891.5,-109 1901.65,-107.54 1912.38,-105.38 1922.62,-103.02"/>
<polygon fill="midnightblue" stroke="midnightblue" points="1103.18,-145.28 1094.24,-150.96 1104.77,-152.1 1103.18,-145.28"/>
</g>
<!-- Node8 -->
<g id="node8" class="node">
<title>Node8</title>
<g id="a_node8"><a xlink:href="../../d8/dea/pattern__piece__tool_8cpp.html" target="_top" xlink:title=" ">
<polygon fill="white" stroke="black" points="490,-73 490,-103 621,-103 621,-73 490,-73"/>
<text text-anchor="start" x="498" y="-91" font-family="Helvetica,sans-Serif" font-size="10.00">src/libs/vtools/tools</text>
<text text-anchor="middle" x="555.5" y="-80" font-family="Helvetica,sans-Serif" font-size="10.00">/pattern_piece_tool.cpp</text>
</a>
</g>
</g>
<!-- Node3&#45;&gt;Node8 -->
<g id="edge7" class="edge">
<title>Node3&#45;&gt;Node8</title>
<path fill="none" stroke="midnightblue" d="M987.12,-148.64C981.19,-147.29 975.25,-146.04 969.5,-145 819.99,-117.82 778.87,-136.91 629.5,-109 620.87,-107.39 611.77,-105.28 603.01,-103.03"/>
<polygon fill="midnightblue" stroke="midnightblue" points="986.5,-152.09 997.04,-151 988.12,-145.28 986.5,-152.09"/>
</g>
<!-- Node9 -->
<g id="node9" class="node">
<title>Node9</title>
<g id="a_node9"><a xlink:href="../../d4/d9f/union__tool_8cpp.html" target="_top" xlink:title=" ">
<polygon fill="white" stroke="black" points="804,-73 804,-103 915,-103 915,-73 804,-73"/>
<text text-anchor="start" x="812" y="-91" font-family="Helvetica,sans-Serif" font-size="10.00">src/libs/vtools/tools</text>
<text text-anchor="middle" x="859.5" y="-80" font-family="Helvetica,sans-Serif" font-size="10.00">/union_tool.cpp</text>
</a>
</g>
</g>
<!-- Node3&#45;&gt;Node9 -->
<g id="edge8" class="edge">
<title>Node3&#45;&gt;Node9</title>
<path fill="none" stroke="midnightblue" d="M1002.32,-147.05C969.22,-133.59 924.56,-115.44 894.05,-103.04"/>
<polygon fill="midnightblue" stroke="midnightblue" points="1001.18,-150.36 1011.76,-150.88 1003.82,-143.88 1001.18,-150.36"/>
</g>
<!-- Node5 -->
<g id="node5" class="node">
<title>Node5</title>
<g id="a_node5"><a xlink:href="../../d5/da5/tools_8h.html" target="_top" xlink:title=" ">
<polygon fill="white" stroke="black" points="592,-0.5 592,-30.5 703,-30.5 703,-0.5 592,-0.5"/>
<text text-anchor="start" x="600" y="-18.5" font-family="Helvetica,sans-Serif" font-size="10.00">src/libs/vtools/tools</text>
<text text-anchor="middle" x="647.5" y="-7.5" font-family="Helvetica,sans-Serif" font-size="10.00">/tools.h</text>
</a>
</g>
</g>
<!-- Node4&#45;&gt;Node5 -->
<g id="edge4" class="edge">
<title>Node4&#45;&gt;Node5</title>
<path fill="none" stroke="midnightblue" d="M692.55,-65.36C682.18,-54.11 669.79,-40.68 660.63,-30.75"/>
<polygon fill="midnightblue" stroke="midnightblue" points="689.99,-67.75 699.35,-72.73 695.14,-63.01 689.99,-67.75"/>
</g>
<!-- Node6 -->
<g id="node6" class="node">
<title>Node6</title>
<g id="a_node6"><a xlink:href="../../d9/d4e/vabstracttool_8cpp.html" target="_top" xlink:title=" ">
<polygon fill="white" stroke="black" points="721,-0.5 721,-30.5 832,-30.5 832,-0.5 721,-0.5"/>
<text text-anchor="start" x="729" y="-18.5" font-family="Helvetica,sans-Serif" font-size="10.00">src/libs/vtools/tools</text>
<text text-anchor="middle" x="776.5" y="-7.5" font-family="Helvetica,sans-Serif" font-size="10.00">/vabstracttool.cpp</text>
</a>
</g>
</g>
<!-- Node4&#45;&gt;Node6 -->
<g id="edge5" class="edge">
<title>Node4&#45;&gt;Node6</title>
<path fill="none" stroke="midnightblue" d="M732.44,-65.04C742.59,-53.86 754.64,-40.58 763.57,-30.75"/>
<polygon fill="midnightblue" stroke="midnightblue" points="729.58,-62.98 725.45,-72.73 734.76,-67.68 729.58,-62.98"/>
</g>
<!-- Node11&#45;&gt;Node4 -->
<g id="edge14" class="edge">
<title>Node11&#45;&gt;Node4</title>
<path fill="none" stroke="midnightblue" d="M1390.6,-153.77C1366.5,-150.63 1339.95,-147.42 1315.5,-145 1084.52,-122.14 1023.86,-144.63 794.5,-109 784.65,-107.47 774.25,-105.34 764.29,-103.04"/>
<polygon fill="midnightblue" stroke="midnightblue" points="1390.4,-157.27 1400.77,-155.11 1391.31,-150.33 1390.4,-157.27"/>
</g>
<!-- Node11&#45;&gt;Node9 -->
<g id="edge15" class="edge">
<title>Node11&#45;&gt;Node9</title>
<path fill="none" stroke="midnightblue" d="M1390.57,-154.12C1366.46,-150.99 1339.92,-147.7 1315.5,-145 1141.6,-125.8 1095.06,-143.28 923.5,-109 915.74,-107.45 907.58,-105.31 899.79,-103.01"/>
<polygon fill="midnightblue" stroke="midnightblue" points="1390.37,-157.62 1400.74,-155.44 1391.27,-150.68 1390.37,-157.62"/>
</g>
<!-- Node12 -->
<g id="node12" class="node">
<title>Node12</title>
<g id="a_node12"><a xlink:href="../../d8/dd9/mainwindow_8cpp.html" target="_top" xlink:title=" ">
<polygon fill="white" stroke="black" points="1694.5,-78.5 1694.5,-97.5 1882.5,-97.5 1882.5,-78.5 1694.5,-78.5"/>
<text text-anchor="middle" x="1788.5" y="-85.5" font-family="Helvetica,sans-Serif" font-size="10.00">src/app/seamly2d/mainwindow.cpp</text>
</a>
</g>
</g>
<!-- Node11&#45;&gt;Node12 -->
<g id="edge12" class="edge">
<title>Node11&#45;&gt;Node12</title>
<path fill="none" stroke="midnightblue" d="M1550.11,-145.97C1615.15,-130.43 1704.05,-109.18 1752.84,-97.52"/>
<polygon fill="midnightblue" stroke="midnightblue" points="1549.2,-142.59 1540.29,-148.32 1550.83,-149.4 1549.2,-142.59"/>
</g>
<!-- Node13 -->
<g id="node13" class="node">
<title>Node13</title>
<g id="a_node13"><a xlink:href="../../d9/d3a/anchorpoint__tool_8cpp.html" target="_top" xlink:title=" ">
<polygon fill="white" stroke="black" points="2065,-67.5 2065,-108.5 2204,-108.5 2204,-67.5 2065,-67.5"/>
<text text-anchor="start" x="2073" y="-96.5" font-family="Helvetica,sans-Serif" font-size="10.00">src/libs/vtools/tools</text>
<text text-anchor="start" x="2073" y="-85.5" font-family="Helvetica,sans-Serif" font-size="10.00">/nodeDetails/anchorpoint</text>
<text text-anchor="middle" x="2134.5" y="-74.5" font-family="Helvetica,sans-Serif" font-size="10.00">_tool.cpp</text>
</a>
</g>
</g>
<!-- Node11&#45;&gt;Node13 -->
<g id="edge13" class="edge">
<title>Node11&#45;&gt;Node13</title>
<path fill="none" stroke="midnightblue" d="M1550.6,-161.21C1663.77,-154.97 1876.62,-140.02 2055.5,-109 2058.57,-108.47 2061.69,-107.88 2064.84,-107.25"/>
<polygon fill="midnightblue" stroke="midnightblue" points="1550.09,-157.73 1540.3,-161.77 1550.47,-164.72 1550.09,-157.73"/>
</g>
<!-- Node14&#45;&gt;Node4 -->
<g id="edge17" class="edge">
<title>Node14&#45;&gt;Node4</title>
<path fill="none" stroke="midnightblue" d="M846.52,-146.87C815.41,-133.44 773.61,-115.39 745.02,-103.04"/>
<polygon fill="midnightblue" stroke="midnightblue" points="845.24,-150.13 855.81,-150.88 848.02,-143.71 845.24,-150.13"/>
</g>
<!-- Node14&#45;&gt;Node8 -->
<g id="edge19" class="edge">
<title>Node14&#45;&gt;Node8</title>
<path fill="none" stroke="midnightblue" d="M822.02,-148.56C816.78,-147.33 811.55,-146.13 806.5,-145 728.16,-127.49 707.62,-127.48 629.5,-109 621.86,-107.19 613.81,-105.16 605.95,-103.09"/>
<polygon fill="midnightblue" stroke="midnightblue" points="821.57,-152.05 832.11,-150.94 823.18,-145.23 821.57,-152.05"/>
</g>
<!-- Node14&#45;&gt;Node9 -->
<g id="edge20" class="edge">
<title>Node14&#45;&gt;Node9</title>
<path fill="none" stroke="midnightblue" d="M879.47,-141.33C874.7,-128.85 869.01,-113.94 864.93,-103.23"/>
<polygon fill="midnightblue" stroke="midnightblue" points="876.21,-142.61 883.05,-150.7 882.75,-140.11 876.21,-142.61"/>
</g>
<!-- Node14&#45;&gt;Node15 -->
<g id="edge18" class="edge">
<title>Node14&#45;&gt;Node15</title>
<path fill="none" stroke="midnightblue" d="M949.44,-148.74C956.18,-147.31 962.96,-146.02 969.5,-145 1207.61,-107.97 1272.05,-143.81 1510.5,-109 1521.04,-107.46 1532.19,-105.33 1542.88,-103.03"/>
<polygon fill="midnightblue" stroke="midnightblue" points="948.64,-145.34 939.64,-150.93 950.17,-152.17 948.64,-145.34"/>
</g>
<!-- Node16&#45;&gt;Node4 -->
<g id="edge22" class="edge">
<title>Node16&#45;&gt;Node4</title>
<path fill="none" stroke="midnightblue" d="M431.45,-148.89C437.9,-147.57 444.31,-146.26 450.5,-145 530.02,-128.81 550.26,-126.51 629.5,-109 637.89,-107.15 646.75,-105.1 655.42,-103.06"/>
<polygon fill="midnightblue" stroke="midnightblue" points="430.42,-145.53 421.33,-150.97 431.83,-152.39 430.42,-145.53"/>
</g>
<!-- Node16&#45;&gt;Node8 -->
<g id="edge24" class="edge">
<title>Node16&#45;&gt;Node8</title>
<path fill="none" stroke="midnightblue" d="M400.76,-147.22C436.56,-133.75 485.08,-115.5 518.18,-103.04"/>
<polygon fill="midnightblue" stroke="midnightblue" points="399.15,-144.09 391.02,-150.88 401.61,-150.64 399.15,-144.09"/>
</g>
<!-- Node16&#45;&gt;Node9 -->
<g id="edge25" class="edge">
<title>Node16&#45;&gt;Node9</title>
<path fill="none" stroke="midnightblue" d="M426.98,-149.05C434.9,-147.57 442.85,-146.19 450.5,-145 602.41,-121.45 643.88,-139.75 794.5,-109 802.25,-107.42 810.4,-105.29 818.2,-103.02"/>
<polygon fill="midnightblue" stroke="midnightblue" points="426.15,-145.65 416.99,-150.97 427.47,-152.52 426.15,-145.65"/>
</g>
<!-- Node16&#45;&gt;Node10 -->
<g id="edge23" class="edge">
<title>Node16&#45;&gt;Node10</title>
<path fill="none" stroke="midnightblue" d="M315.46,-146.35C288.18,-132.97 251.99,-115.23 227.14,-103.04"/>
<polygon fill="midnightblue" stroke="midnightblue" points="314.19,-149.62 324.71,-150.88 317.27,-143.34 314.19,-149.62"/>
</g>
<!-- Node18&#45;&gt;Node4 -->
<g id="edge28" class="edge">
<title>Node18&#45;&gt;Node4</title>
<path fill="none" stroke="midnightblue" d="M576.96,-146.87C608.42,-133.44 650.69,-115.39 679.61,-103.04"/>
<polygon fill="midnightblue" stroke="midnightblue" points="575.39,-143.74 567.56,-150.88 578.13,-150.18 575.39,-143.74"/>
</g>
<!-- Node18&#45;&gt;Node8 -->
<g id="edge30" class="edge">
<title>Node18&#45;&gt;Node8</title>
<path fill="none" stroke="midnightblue" d="M541.14,-140.96C544.57,-128.55 548.64,-113.83 551.57,-103.23"/>
<polygon fill="midnightblue" stroke="midnightblue" points="537.74,-140.13 538.45,-150.7 544.49,-142 537.74,-140.13"/>
</g>
<!-- Node18&#45;&gt;Node9 -->
<g id="edge31" class="edge">
<title>Node18&#45;&gt;Node9</title>
<path fill="none" stroke="midnightblue" d="M601.38,-148.66C606.83,-147.4 612.25,-146.16 617.5,-145 695.87,-127.59 716.71,-128.83 794.5,-109 801.48,-107.22 808.82,-105.15 815.96,-103.04"/>
<polygon fill="midnightblue" stroke="midnightblue" points="600.53,-145.27 591.59,-150.96 602.12,-152.09 600.53,-145.27"/>
</g>
<!-- Node18&#45;&gt;Node17 -->
<g id="edge29" class="edge">
<title>Node18&#45;&gt;Node17</title>
<path fill="none" stroke="midnightblue" d="M499.08,-146.17C473.94,-132.82 440.75,-115.18 417.92,-103.04"/>
<polygon fill="midnightblue" stroke="midnightblue" points="497.46,-149.28 507.94,-150.88 500.75,-143.1 497.46,-149.28"/>
</g>
<!-- Node19&#45;&gt;Node4 -->
<g id="edge33" class="edge">
<title>Node19&#45;&gt;Node4</title>
<path fill="none" stroke="midnightblue" d="M712.5,-140.59C712.5,-128.26 712.5,-113.72 712.5,-103.23"/>
<polygon fill="midnightblue" stroke="midnightblue" points="709,-140.7 712.5,-150.7 716,-140.71 709,-140.7"/>
</g>
<!-- Node19&#45;&gt;Node8 -->
<g id="edge35" class="edge">
<title>Node19&#45;&gt;Node8</title>
<path fill="none" stroke="midnightblue" d="M674.33,-146.52C646.66,-133.13 609.79,-115.28 584.51,-103.04"/>
<polygon fill="midnightblue" stroke="midnightblue" points="672.81,-149.68 683.34,-150.88 675.86,-143.38 672.81,-149.68"/>
</g>
<!-- Node19&#45;&gt;Node9 -->
<g id="edge36" class="edge">
<title>Node19&#45;&gt;Node9</title>
<path fill="none" stroke="midnightblue" d="M748.91,-146.17C774.75,-132.82 808.87,-115.18 832.34,-103.04"/>
<polygon fill="midnightblue" stroke="midnightblue" points="747.08,-143.18 739.81,-150.88 750.3,-149.4 747.08,-143.18"/>
</g>
<!-- Node19&#45;&gt;Node20 -->
<g id="edge34" class="edge">
<title>Node19&#45;&gt;Node20</title>
<path fill="none" stroke="midnightblue" d="M784.58,-148.97C791.96,-147.54 799.37,-146.18 806.5,-145 938.98,-123 973.87,-130.06 1106.5,-109 1117.53,-107.25 1129.2,-105.16 1140.53,-103"/>
<polygon fill="midnightblue" stroke="midnightblue" points="783.67,-145.59 774.54,-150.97 785.03,-152.45 783.67,-145.59"/>
</g>
<!-- Node21&#45;&gt;Node4 -->
<g id="edge40" class="edge">
<title>Node21&#45;&gt;Node4</title>
<path fill="none" stroke="midnightblue" d="M1145.83,-149.06C1137.97,-147.58 1130.08,-146.2 1122.5,-145 977.64,-122.17 938.93,-134.43 794.5,-109 785.12,-107.35 775.22,-105.25 765.66,-103.03"/>
<polygon fill="midnightblue" stroke="midnightblue" points="1145.26,-152.51 1155.74,-150.96 1146.58,-145.64 1145.26,-152.51"/>
</g>
<!-- Node21&#45;&gt;Node8 -->
<g id="edge42" class="edge">
<title>Node21&#45;&gt;Node8</title>
<path fill="none" stroke="midnightblue" d="M1147.72,-149.11C1139.25,-147.56 1130.7,-146.14 1122.5,-145 904.9,-114.75 846.09,-145.83 629.5,-109 620.58,-107.48 611.18,-105.36 602.18,-103.06"/>
<polygon fill="midnightblue" stroke="midnightblue" points="1147.14,-152.56 1157.61,-150.99 1148.44,-145.68 1147.14,-152.56"/>
</g>
<!-- Node21&#45;&gt;Node9 -->
<g id="edge43" class="edge">
<title>Node21&#45;&gt;Node9</title>
<path fill="none" stroke="midnightblue" d="M1142.57,-148.96C1135.78,-147.6 1129.02,-146.26 1122.5,-145 1034.26,-127.92 1010.78,-130.45 923.5,-109 916.49,-107.28 909.12,-105.22 901.98,-103.08"/>
<polygon fill="midnightblue" stroke="midnightblue" points="1142,-152.41 1152.49,-150.96 1143.38,-145.55 1142,-152.41"/>
</g>
<!-- Node21&#45;&gt;Node12 -->
<g id="edge39" class="edge">
<title>Node21&#45;&gt;Node12</title>
<path fill="none" stroke="midnightblue" d="M1316.72,-153.7C1442.57,-139.01 1650.03,-114.57 1685.5,-109 1706.19,-105.75 1729.08,-101.39 1748.02,-97.56"/>
<polygon fill="midnightblue" stroke="midnightblue" points="1316.2,-150.23 1306.68,-154.87 1317.01,-157.19 1316.2,-150.23"/>
</g>
<!-- Node22 -->
<g id="node22" class="node">
<title>Node22</title>
<g id="a_node22"><a xlink:href="../../d3/dd9/vtoolinternalpath_8cpp.html" target="_top" xlink:title=" ">
<polygon fill="white" stroke="black" points="1317,-73 1317,-103 1502,-103 1502,-73 1317,-73"/>
<text text-anchor="start" x="1325" y="-91" font-family="Helvetica,sans-Serif" font-size="10.00">src/libs/vtools/tools</text>
<text text-anchor="middle" x="1409.5" y="-80" font-family="Helvetica,sans-Serif" font-size="10.00">/nodeDetails/vtoolinternalpath.cpp</text>
</a>
</g>
</g>
<!-- Node21&#45;&gt;Node22 -->
<g id="edge41" class="edge">
<title>Node21&#45;&gt;Node22</title>
<path fill="none" stroke="midnightblue" d="M1264.38,-147.05C1298.02,-133.59 1343.39,-115.44 1374.4,-103.04"/>
<polygon fill="midnightblue" stroke="midnightblue" points="1262.78,-143.92 1254.79,-150.88 1265.38,-150.42 1262.78,-143.92"/>
</g>
<!-- Node23 -->
<g id="node23" class="node">
<title>Node23</title>
<g id="a_node23"><a xlink:href="../../dd/d3a/savepiecepathoptions_8cpp.html" target="_top" xlink:title=" ">
<polygon fill="white" stroke="black" points="933,-73 933,-103 1098,-103 1098,-73 933,-73"/>
<text text-anchor="start" x="941" y="-91" font-family="Helvetica,sans-Serif" font-size="10.00">src/libs/vtools/undocommands</text>
<text text-anchor="middle" x="1015.5" y="-80" font-family="Helvetica,sans-Serif" font-size="10.00">/savepiecepathoptions.cpp</text>
</a>
</g>
</g>
<!-- Node21&#45;&gt;Node23 -->
<g id="edge44" class="edge">
<title>Node21&#45;&gt;Node23</title>
<path fill="none" stroke="midnightblue" d="M1172.24,-147.39C1136.03,-133.9 1086.76,-115.55 1053.19,-103.04"/>
<polygon fill="midnightblue" stroke="midnightblue" points="1171.01,-150.67 1181.61,-150.88 1173.46,-144.11 1171.01,-150.67"/>
</g>
</g>
</svg>
        <g id="navigator" transform="translate(0 0)" fill="#404254">
                <rect fill="#f2f5e9" fill-opacity="0.5" stroke="#606060" stroke-width=".5" x="0" y="0" width="60" height="60"/>
                <use id="zoomplus" xlink:href="#zoomPlus" x="17" y="9" onmousedown="handleZoom(evt,'in')"/>
                <use id="zoomminus" xlink:href="#zoomMin" x="42" y="9" onmousedown="handleZoom(evt,'out')"/>
                <use id="reset" xlink:href="#resetDef" x="30" y="36" onmousedown="handleReset()"/>
                <g id="arrowUp" xlink:href="#dirArrow" transform="translate(30 24)" onmousedown="handlePan(0,-1)">
                  <use xlink:href="#rim" fill="#404040">
                        <set attributeName="fill" to="#808080" begin="arrowUp.mouseover" end="arrowUp.mouseout"/>
                  </use>
                  <path fill="none" stroke="white" stroke-width="1.5" d="M0,-3.0v7 M-2.5,-0.5L0,-3.0L2.5,-0.5"/>
                </g>
                <g id="arrowRight" xlink:href="#dirArrow" transform="rotate(90) translate(36 -43)" onmousedown="handlePan(1,0)">
                  <use xlink:href="#rim" fill="#404040">
                        <set attributeName="fill" to="#808080" begin="arrowRight.mouseover" end="arrowRight.mouseout"/>
                  </use>
                  <path fill="none" stroke="white" stroke-width="1.5" d="M0,-3.0v7 M-2.5,-0.5L0,-3.0L2.5,-0.5"/>
                </g>
                <g id="arrowDown" xlink:href="#dirArrow" transform="rotate(180) translate(-30 -48)" onmousedown="handlePan(0,1)">
                  <use xlink:href="#rim" fill="#404040">
                        <set attributeName="fill" to="#808080" begin="arrowDown.mouseover" end="arrowDown.mouseout"/>
                  </use>
                  <path fill="none" stroke="white" stroke-width="1.5" d="M0,-3.0v7 M-2.5,-0.5L0,-3.0L2.5,-0.5"/>
                </g>
                <g id="arrowLeft" xlink:href="#dirArrow" transform="rotate(270) translate(-36 17)" onmousedown="handlePan(-1,0)">
                  <use xlink:href="#rim" fill="#404040">
                        <set attributeName="fill" to="#808080" begin="arrowLeft.mouseover" end="arrowLeft.mouseout"/>
                  </use>
                  <path fill="none" stroke="white" stroke-width="1.5" d="M0,-3.0v7 M-2.5,-0.5L0,-3.0L2.5,-0.5"/>
                </g>
        </g>
        <svg viewBox="0 0 15 15" width="100%" height="30px" preserveAspectRatio="xMaxYMin meet">
         <g id="arrow_out" transform="scale(0.3 0.3)">
          <a xlink:href="vabstractnode_8h__dep__incl_org.svg" target="_base">
           <rect id="button" ry="5" rx="5" y="6" x="6" height="38" width="38"
                fill="#f2f5e9" fill-opacity="0.5" stroke="#606060" stroke-width="1.0"/>
           <path id="arrow"
             d="M 11.500037,31.436501 C 11.940474,20.09759 22.043105,11.32322 32.158766,21.979434 L 37.068811,17.246167 C 37.068811,17.246167 37.088388,32 37.088388,32 L 22.160133,31.978069 C 22.160133,31.978069 26.997745,27.140456 26.997745,27.140456 C 18.528582,18.264221 13.291696,25.230495 11.500037,31.436501 z"
             style="fill:#404040;"/>
          </a>
         </g>
        </svg>
</svg>
