<?xml version="1.0" encoding="UTF-8" standalone="no"?>
<!DOCTYPE svg PUBLIC "-//W3C//DTD SVG 1.1//EN"
 "http://www.w3.org/Graphics/SVG/1.1/DTD/svg11.dtd">
<!-- Generated by graphviz version 2.43.0 (0)
 -->
<!-- Title: src/libs/vtools/dialogs/tools/intersect_circles_dialog.h Pages: 1 -->
<!--zoomable 170 -->

<svg id="main" version="1.1" xmlns="http://www.w3.org/2000/svg" xmlns:xlink="http://www.w3.org/1999/xlink" xml:space="preserve" onload="init(evt)">
<style type="text/css"><![CDATA[
.node, .edge {opacity: 0.7;}
.node.selected, .edge.selected {opacity: 1;}
.edge:hover path { stroke: red; }
.edge:hover polygon { stroke: red; fill: red; }
]]></style>

<defs>
  <circle id="rim" cx="0" cy="0" r="7"/>
  <circle id="rim2" cx="0" cy="0" r="3.5"/>
  <g id="zoomPlus">
    <use xlink:href="#rim" fill="#404040"><set attributeName="fill" to="#808080" begin="zoomplus.mouseover" end="zoomplus.mouseout"/></use>
    <path d="M-4,0h8M0,-4v8" fill="none" stroke="white" stroke-width="1.5" pointer-events="none"/>
  </g>
  <g id="zoomMin">
    <use xlink:href="#rim" fill="#404040"><set attributeName="fill" to="#808080" begin="zoomminus.mouseover" end="zoomminus.mouseout"/></use>
    <path d="M-4,0h8" fill="none" stroke="white" stroke-width="1.5" pointer-events="none"/>
  </g>
  <g id="arrowUp" transform="translate(30 24)">
    <use xlink:href="#rim"/>
    <path pointer-events="none" fill="none" stroke="white" stroke-width="1.5" d="M0,-3.0v7 M-2.5,-0.5L0,-3.0L2.5,-0.5"/>
  </g>
  <g id="arrowRight" transform="rotate(90) translate(36 -43)">
    <use xlink:href="#rim"/>
    <path pointer-events="none" fill="none" stroke="white" stroke-width="1.5" d="M0,-3.0v7 M-2.5,-0.5L0,-3.0L2.5,-0.5"/>
  </g>
  <g id="arrowDown" transform="rotate(180) translate(-30 -48)">
    <use xlink:href="#rim"/>
    <path pointer-events="none" fill="none" stroke="white" stroke-width="1.5" d="M0,-3.0v7 M-2.5,-0.5L0,-3.0L2.5,-0.5"/>
  </g>
  <g id="arrowLeft" transform="rotate(270) translate(-36 17)">
    <use xlink:href="#rim"/>
    <path pointer-events="none" fill="none" stroke="white" stroke-width="1.5" d="M0,-3.0v7 M-2.5,-0.5L0,-3.0L2.5,-0.5"/>
  </g>
  <g id="resetDef">
    <use xlink:href="#rim2" fill="#404040"><set attributeName="fill" to="#808080" begin="reset.mouseover" end="reset.mouseout"/></use>
  </g>
</defs>
<script type="application/ecmascript">
var viewWidth = 2992;
var viewHeight = 170;
var sectionId = 'dynsection-0';
</script>
<script type="application/ecmascript" xlink:href="../../svg.min.js"/>
<svg id="graph" class="graph">
<g id="viewport">
<title>src/libs/vtools/dialogs/tools/intersect_circles_dialog.h</title>
<!-- Node1 -->
<g id="Node000001" class="node">
<title>Node1</title>
<g id="a_Node000001"><a xlink:title=" ">
<polygon fill="#999999" stroke="#666666" points="1350,-162 1224,-162 1224,-121 1350,-121 1350,-162"/>
<text text-anchor="start" x="1232" y="-150" font-family="Helvetica,sans-Serif" font-size="10.00">src/libs/vtools/dialogs</text>
<text text-anchor="start" x="1232" y="-139" font-family="Helvetica,sans-Serif" font-size="10.00">/tools/intersect_circles</text>
<text text-anchor="middle" x="1287" y="-128" font-family="Helvetica,sans-Serif" font-size="10.00">_dialog.h</text>
</a>
</g>
</g>
<!-- Node2 -->
<g id="Node000002" class="node">
<title>Node2</title>
<g id="a_Node000002"><a xlink:href="../../d1/d30/dialogtool_8h.html" target="_top" xlink:title=" ">
<polygon fill="white" stroke="#666666" points="1292,-85 1218,-85 1218,-66 1292,-66 1292,-85"/>
<text text-anchor="middle" x="1255" y="-73" font-family="Helvetica,sans-Serif" font-size="10.00">dialogtool.h</text>
</a>
</g>
</g>
<!-- Node1&#45;&gt;Node2 -->
<g id="edge1_Node000001_Node000002" class="edge">
<title>Node1&#45;&gt;Node2</title>
<g id="a_edge1_Node000001_Node000002"><a xlink:title=" ">
<path fill="none" stroke="#63b8ff" d="M1277.23,-120.95C1272.99,-112.48 1268.07,-102.64 1263.93,-94.37"/>
<polygon fill="#63b8ff" stroke="#63b8ff" points="1266.98,-92.64 1259.38,-85.26 1260.72,-95.77 1266.98,-92.64"/>
</a>
</g>
</g>
<!-- Node3 -->
<g id="Node000003" class="node">
<title>Node3</title>
<g id="a_Node000003"><a xlink:title=" ">
<polygon fill="#e0e0e0" stroke="#999999" points="120,-24.5 0,-24.5 0,-5.5 120,-5.5 120,-24.5"/>
<text text-anchor="middle" x="60" y="-12.5" font-family="Helvetica,sans-Serif" font-size="10.00">qcompilerdetection.h</text>
</a>
</g>
</g>
<!-- Node1&#45;&gt;Node3 -->
<g id="edge32_Node000001_Node000003" class="edge">
<title>Node1&#45;&gt;Node3</title>
<g id="a_edge32_Node000001_Node000003"><a xlink:title=" ">
<path fill="none" stroke="#63b8ff" d="M1223.84,-138.47C1084.48,-133.52 740.27,-118.67 454,-85 329.51,-70.36 184.68,-42.06 110.1,-26.64"/>
<polygon fill="#63b8ff" stroke="#63b8ff" points="110.55,-23.16 100.05,-24.55 109.13,-30.01 110.55,-23.16"/>
</a>
</g>
</g>
<!-- Node14 -->
<g id="Node000014" class="node">
<title>Node14</title>
<g id="a_Node000014"><a xlink:title=" ">
<polygon fill="#e0e0e0" stroke="#999999" points="218,-24.5 138,-24.5 138,-5.5 218,-5.5 218,-24.5"/>
<text text-anchor="middle" x="178" y="-12.5" font-family="Helvetica,sans-Serif" font-size="10.00">QMetaObject</text>
</a>
</g>
</g>
<!-- Node1&#45;&gt;Node14 -->
<g id="edge33_Node000001_Node000014" class="edge">
<title>Node1&#45;&gt;Node14</title>
<g id="a_edge33_Node000001_Node000014"><a xlink:title=" ">
<path fill="none" stroke="#63b8ff" d="M1223.71,-137.76C1058.44,-129.76 600.76,-102.3 227,-30 222.9,-29.21 218.64,-28.23 214.42,-27.16"/>
<polygon fill="#63b8ff" stroke="#63b8ff" points="215.32,-23.78 204.75,-24.56 213.5,-30.54 215.32,-23.78"/>
</a>
</g>
</g>
<!-- Node15 -->
<g id="Node000015" class="node">
<title>Node15</title>
<g id="a_Node000015"><a xlink:title=" ">
<polygon fill="#e0e0e0" stroke="#999999" points="292,-24.5 236,-24.5 236,-5.5 292,-5.5 292,-24.5"/>
<text text-anchor="middle" x="264" y="-12.5" font-family="Helvetica,sans-Serif" font-size="10.00">QObject</text>
</a>
</g>
</g>
<!-- Node1&#45;&gt;Node15 -->
<g id="edge34_Node000001_Node000015" class="edge">
<title>Node1&#45;&gt;Node15</title>
<g id="a_edge34_Node000001_Node000015"><a xlink:title=" ">
<path fill="none" stroke="#63b8ff" d="M1223.62,-129.95C1126.46,-114.1 934.74,-84.07 771,-66 562.76,-43.02 505.49,-75.53 301,-30 298.48,-29.44 295.9,-28.74 293.33,-27.96"/>
<polygon fill="#63b8ff" stroke="#63b8ff" points="294.25,-24.57 283.65,-24.62 291.97,-31.19 294.25,-24.57"/>
</a>
</g>
</g>
<!-- Node19 -->
<g id="Node000019" class="node">
<title>Node19</title>
<g id="a_Node000019"><a xlink:title=" ">
<polygon fill="#e0e0e0" stroke="#999999" points="2636.5,-24.5 2583.5,-24.5 2583.5,-5.5 2636.5,-5.5 2636.5,-24.5"/>
<text text-anchor="middle" x="2610" y="-12.5" font-family="Helvetica,sans-Serif" font-size="10.00">QString</text>
</a>
</g>
</g>
<!-- Node1&#45;&gt;Node19 -->
<g id="edge35_Node000001_Node000019" class="edge">
<title>Node1&#45;&gt;Node19</title>
<g id="a_edge35_Node000001_Node000019"><a xlink:title=" ">
<path fill="none" stroke="#63b8ff" d="M1350.3,-136.13C1592.67,-119.25 2454.06,-57.86 2574,-30 2576.37,-29.45 2578.79,-28.77 2581.2,-28.02"/>
<polygon fill="#63b8ff" stroke="#63b8ff" points="2582.63,-31.23 2590.89,-24.6 2580.3,-24.63 2582.63,-31.23"/>
</a>
</g>
</g>
<!-- Node21 -->
<g id="Node000021" class="node">
<title>Node21</title>
<g id="a_Node000021"><a xlink:title=" ">
<polygon fill="#e0e0e0" stroke="#999999" points="2713.5,-24.5 2654.5,-24.5 2654.5,-5.5 2713.5,-5.5 2713.5,-24.5"/>
<text text-anchor="middle" x="2684" y="-12.5" font-family="Helvetica,sans-Serif" font-size="10.00">QtGlobal</text>
</a>
</g>
</g>
<!-- Node1&#45;&gt;Node21 -->
<g id="edge36_Node000001_Node000021" class="edge">
<title>Node1&#45;&gt;Node21</title>
<g id="a_edge36_Node000001_Node000021"><a xlink:title=" ">
<path fill="none" stroke="#63b8ff" d="M1350.22,-137.58C1494.37,-130.68 1858.38,-111.9 2162,-85 2377.21,-65.93 2434.59,-79.05 2645,-30 2647.67,-29.38 2650.4,-28.63 2653.13,-27.81"/>
<polygon fill="#63b8ff" stroke="#63b8ff" points="2654.42,-31.07 2662.81,-24.61 2652.22,-24.43 2654.42,-31.07"/>
</a>
</g>
</g>
<!-- Node23 -->
<g id="Node000023" class="node">
<title>Node23</title>
<g id="a_Node000023"><a xlink:title=" ">
<polygon fill="#e0e0e0" stroke="#999999" points="2884,-24.5 2732,-24.5 2732,-5.5 2884,-5.5 2884,-24.5"/>
<text text-anchor="middle" x="2808" y="-12.5" font-family="Helvetica,sans-Serif" font-size="10.00">../ifc/xml/vabstractpattern.h</text>
</a>
</g>
</g>
<!-- Node1&#45;&gt;Node23 -->
<g id="edge30_Node000001_Node000023" class="edge">
<title>Node1&#45;&gt;Node23</title>
<g id="a_edge30_Node000001_Node000023"><a xlink:title=" ">
<path fill="none" stroke="#63b8ff" d="M1350.28,-138.8C1510.96,-134.09 1947.63,-118.96 2310,-85 2468.31,-70.16 2653.49,-41.5 2747.13,-26.2"/>
<polygon fill="#63b8ff" stroke="#63b8ff" points="2747.97,-29.61 2757.27,-24.54 2746.84,-22.71 2747.97,-29.61"/>
</a>
</g>
</g>
<!-- Node26 -->
<g id="Node000026" class="node">
<title>Node26</title>
<g id="a_Node000026"><a xlink:title=" ">
<polygon fill="#e0e0e0" stroke="#999999" points="2984,-24.5 2902,-24.5 2902,-5.5 2984,-5.5 2984,-24.5"/>
<text text-anchor="middle" x="2943" y="-12.5" font-family="Helvetica,sans-Serif" font-size="10.00">../vmisc/def.h</text>
</a>
</g>
</g>
<!-- Node1&#45;&gt;Node26 -->
<g id="edge31_Node000001_Node000026" class="edge">
<title>Node1&#45;&gt;Node26</title>
<g id="a_edge31_Node000001_Node000026"><a xlink:title=" ">
<path fill="none" stroke="#63b8ff" d="M1350.24,-138.77C1520.95,-133.79 2005.33,-117.65 2407,-85 2623.66,-67.39 2679.65,-71.66 2893,-30 2897.18,-29.18 2901.52,-28.19 2905.82,-27.12"/>
<polygon fill="#63b8ff" stroke="#63b8ff" points="2906.91,-30.45 2915.68,-24.5 2905.12,-23.68 2906.91,-30.45"/>
</a>
</g>
</g>
<!-- Node2&#45;&gt;Node3 -->
<g id="edge2_Node000002_Node000003" class="edge">
<title>Node2&#45;&gt;Node3</title>
<g id="a_edge2_Node000002_Node000003"><a xlink:title=" ">
<path fill="none" stroke="#63b8ff" d="M1217.95,-73.84C1048.6,-70.68 347.03,-56.25 129,-30 121.66,-29.12 113.93,-27.87 106.41,-26.48"/>
<polygon fill="#63b8ff" stroke="#63b8ff" points="106.83,-22.99 96.35,-24.51 105.49,-29.86 106.83,-22.99"/>
</a>
</g>
</g>
<!-- Node4 -->
<g id="Node000004" class="node">
<title>Node4</title>
<g id="a_Node000004"><a xlink:title=" ">
<polygon fill="#e0e0e0" stroke="#999999" points="383.5,-24.5 310.5,-24.5 310.5,-5.5 383.5,-5.5 383.5,-24.5"/>
<text text-anchor="middle" x="347" y="-12.5" font-family="Helvetica,sans-Serif" font-size="10.00">QCheckBox</text>
</a>
</g>
</g>
<!-- Node2&#45;&gt;Node4 -->
<g id="edge3_Node000002_Node000004" class="edge">
<title>Node2&#45;&gt;Node4</title>
<g id="a_edge3_Node000002_Node000004"><a xlink:title=" ">
<path fill="none" stroke="#63b8ff" d="M1217.85,-72.71C1055.26,-64.84 413.62,-33.61 393,-30 389.04,-29.31 384.95,-28.38 380.91,-27.33"/>
<polygon fill="#63b8ff" stroke="#63b8ff" points="381.66,-23.9 371.08,-24.54 379.74,-30.64 381.66,-23.9"/>
</a>
</g>
</g>
<!-- Node5 -->
<g id="Node000005" class="node">
<title>Node5</title>
<g id="a_Node000005"><a xlink:title=" ">
<polygon fill="#e0e0e0" stroke="#999999" points="452,-24.5 402,-24.5 402,-5.5 452,-5.5 452,-24.5"/>
<text text-anchor="middle" x="427" y="-12.5" font-family="Helvetica,sans-Serif" font-size="10.00">QColor</text>
</a>
</g>
</g>
<!-- Node2&#45;&gt;Node5 -->
<g id="edge4_Node000002_Node000005" class="edge">
<title>Node2&#45;&gt;Node5</title>
<g id="a_edge4_Node000002_Node000005"><a xlink:title=" ">
<path fill="none" stroke="#63b8ff" d="M1217.91,-72.77C1066.1,-65.63 498.3,-38.47 461,-30 458.77,-29.49 456.51,-28.86 454.25,-28.13"/>
<polygon fill="#63b8ff" stroke="#63b8ff" points="455.22,-24.76 444.63,-24.57 452.79,-31.33 455.22,-24.76"/>
</a>
</g>
</g>
<!-- Node6 -->
<g id="Node000006" class="node">
<title>Node6</title>
<g id="a_Node000006"><a xlink:title=" ">
<polygon fill="#e0e0e0" stroke="#999999" points="547.5,-24.5 470.5,-24.5 470.5,-5.5 547.5,-5.5 547.5,-24.5"/>
<text text-anchor="middle" x="509" y="-12.5" font-family="Helvetica,sans-Serif" font-size="10.00">QComboBox</text>
</a>
</g>
</g>
<!-- Node2&#45;&gt;Node6 -->
<g id="edge5_Node000002_Node000006" class="edge">
<title>Node2&#45;&gt;Node6</title>
<g id="a_edge5_Node000002_Node000006"><a xlink:title=" ">
<path fill="none" stroke="#63b8ff" d="M1217.74,-72.61C1082.51,-65.67 622.18,-41.44 557,-30 552.82,-29.27 548.48,-28.3 544.2,-27.22"/>
<polygon fill="#63b8ff" stroke="#63b8ff" points="544.98,-23.81 534.41,-24.54 543.13,-30.56 544.98,-23.81"/>
</a>
</g>
</g>
<!-- Node7 -->
<g id="Node000007" class="node">
<title>Node7</title>
<g id="a_Node000007"><a xlink:title=" ">
<polygon fill="#e0e0e0" stroke="#999999" points="622,-24.5 566,-24.5 566,-5.5 622,-5.5 622,-24.5"/>
<text text-anchor="middle" x="594" y="-12.5" font-family="Helvetica,sans-Serif" font-size="10.00">QDialog</text>
</a>
</g>
</g>
<!-- Node2&#45;&gt;Node7 -->
<g id="edge6_Node000002_Node000007" class="edge">
<title>Node2&#45;&gt;Node7</title>
<g id="a_edge6_Node000002_Node000007"><a xlink:title=" ">
<path fill="none" stroke="#63b8ff" d="M1217.82,-72.48C1092.2,-65.56 688.21,-42.58 631,-30 628.48,-29.44 625.9,-28.75 623.33,-27.97"/>
<polygon fill="#63b8ff" stroke="#63b8ff" points="624.24,-24.58 613.65,-24.64 621.97,-31.2 624.24,-24.58"/>
</a>
</g>
</g>
<!-- Node8 -->
<g id="Node000008" class="node">
<title>Node8</title>
<g id="a_Node000008"><a xlink:title=" ">
<polygon fill="#e0e0e0" stroke="#999999" points="747.5,-24.5 640.5,-24.5 640.5,-5.5 747.5,-5.5 747.5,-24.5"/>
<text text-anchor="middle" x="694" y="-12.5" font-family="Helvetica,sans-Serif" font-size="10.00">QDialogButtonBox</text>
</a>
</g>
</g>
<!-- Node2&#45;&gt;Node8 -->
<g id="edge7_Node000002_Node000008" class="edge">
<title>Node2&#45;&gt;Node8</title>
<g id="a_edge7_Node000002_Node000008"><a xlink:title=" ">
<path fill="none" stroke="#63b8ff" d="M1217.86,-72.88C1134.71,-68.89 927.42,-56.88 756,-30 750.13,-29.08 743.99,-27.93 737.95,-26.68"/>
<polygon fill="#63b8ff" stroke="#63b8ff" points="738.47,-23.21 727.95,-24.52 736.99,-30.06 738.47,-23.21"/>
</a>
</g>
</g>
<!-- Node9 -->
<g id="Node000009" class="node">
<title>Node9</title>
<g id="a_Node000009"><a xlink:title=" ">
<polygon fill="#e0e0e0" stroke="#999999" points="828.5,-24.5 765.5,-24.5 765.5,-5.5 828.5,-5.5 828.5,-24.5"/>
<text text-anchor="middle" x="797" y="-12.5" font-family="Helvetica,sans-Serif" font-size="10.00">QLineEdit</text>
</a>
</g>
</g>
<!-- Node2&#45;&gt;Node9 -->
<g id="edge8_Node000002_Node000009" class="edge">
<title>Node2&#45;&gt;Node9</title>
<g id="a_edge8_Node000002_Node000009"><a xlink:title=" ">
<path fill="none" stroke="#63b8ff" d="M1217.91,-73.41C1144.39,-70.64 975.3,-61.13 837,-30 834.17,-29.36 831.27,-28.59 828.38,-27.74"/>
<polygon fill="#63b8ff" stroke="#63b8ff" points="829.33,-24.37 818.74,-24.63 827.18,-31.03 829.33,-24.37"/>
</a>
</g>
</g>
<!-- Node10 -->
<g id="Node000010" class="node">
<title>Node10</title>
<g id="a_Node000010"><a xlink:title=" ">
<polygon fill="#e0e0e0" stroke="#999999" points="887.5,-24.5 846.5,-24.5 846.5,-5.5 887.5,-5.5 887.5,-24.5"/>
<text text-anchor="middle" x="867" y="-12.5" font-family="Helvetica,sans-Serif" font-size="10.00">QList</text>
</a>
</g>
</g>
<!-- Node2&#45;&gt;Node10 -->
<g id="edge9_Node000002_Node000010" class="edge">
<title>Node2&#45;&gt;Node10</title>
<g id="a_edge9_Node000002_Node000010"><a xlink:title=" ">
<path fill="none" stroke="#63b8ff" d="M1217.91,-73.69C1152.05,-71.41 1010.91,-62.77 897,-30 895.37,-29.53 893.71,-28.98 892.06,-28.38"/>
<polygon fill="#63b8ff" stroke="#63b8ff" points="893.41,-25.15 882.83,-24.51 890.7,-31.61 893.41,-25.15"/>
</a>
</g>
</g>
<!-- Node11 -->
<g id="Node000011" class="node">
<title>Node11</title>
<g id="a_Node000011"><a xlink:title=" ">
<polygon fill="#e0e0e0" stroke="#999999" points="982,-24.5 906,-24.5 906,-5.5 982,-5.5 982,-24.5"/>
<text text-anchor="middle" x="944" y="-12.5" font-family="Helvetica,sans-Serif" font-size="10.00">QListWidget</text>
</a>
</g>
</g>
<!-- Node2&#45;&gt;Node11 -->
<g id="edge10_Node000002_Node000011" class="edge">
<title>Node2&#45;&gt;Node11</title>
<g id="a_edge10_Node000002_Node000011"><a xlink:title=" ">
<path fill="none" stroke="#63b8ff" d="M1217.99,-69.72C1166.66,-62.76 1071.14,-48.62 991,-30 987.58,-29.21 984.04,-28.3 980.51,-27.35"/>
<polygon fill="#63b8ff" stroke="#63b8ff" points="981.27,-23.93 970.69,-24.57 979.36,-30.66 981.27,-23.93"/>
</a>
</g>
</g>
<!-- Node12 -->
<g id="Node000012" class="node">
<title>Node12</title>
<g id="a_Node000012"><a xlink:title=" ">
<polygon fill="#e0e0e0" stroke="#999999" points="1056,-24.5 1000,-24.5 1000,-5.5 1056,-5.5 1056,-24.5"/>
<text text-anchor="middle" x="1028" y="-12.5" font-family="Helvetica,sans-Serif" font-size="10.00">QLocale</text>
</a>
</g>
</g>
<!-- Node2&#45;&gt;Node12 -->
<g id="edge11_Node000002_Node000012" class="edge">
<title>Node2&#45;&gt;Node12</title>
<g id="a_edge11_Node000002_Node000012"><a xlink:title=" ">
<path fill="none" stroke="#63b8ff" d="M1217.84,-67.31C1179.26,-59.49 1117.34,-45.95 1065,-30 1063.08,-29.41 1061.11,-28.78 1059.14,-28.11"/>
<polygon fill="#63b8ff" stroke="#63b8ff" points="1059.95,-24.69 1049.36,-24.63 1057.6,-31.28 1059.95,-24.69"/>
</a>
</g>
</g>
<!-- Node13 -->
<g id="Node000013" class="node">
<title>Node13</title>
<g id="a_Node000013"><a xlink:title=" ">
<polygon fill="#e0e0e0" stroke="#999999" points="1119.5,-24.5 1074.5,-24.5 1074.5,-5.5 1119.5,-5.5 1119.5,-24.5"/>
<text text-anchor="middle" x="1097" y="-12.5" font-family="Helvetica,sans-Serif" font-size="10.00">QMap</text>
</a>
</g>
</g>
<!-- Node2&#45;&gt;Node13 -->
<g id="edge12_Node000002_Node000013" class="edge">
<title>Node2&#45;&gt;Node13</title>
<g id="a_edge12_Node000002_Node000013"><a xlink:title=" ">
<path fill="none" stroke="#63b8ff" d="M1228.48,-65.96C1202.62,-57.45 1162.27,-43.71 1128,-30 1126.83,-29.53 1125.64,-29.04 1124.43,-28.54"/>
<polygon fill="#63b8ff" stroke="#63b8ff" points="1125.81,-25.32 1115.25,-24.56 1123.03,-31.75 1125.81,-25.32"/>
</a>
</g>
</g>
<!-- Node2&#45;&gt;Node14 -->
<g id="edge13_Node000002_Node000014" class="edge">
<title>Node2&#45;&gt;Node14</title>
<g id="a_edge13_Node000002_Node000014"><a xlink:title=" ">
<path fill="none" stroke="#63b8ff" d="M1217.96,-74.06C1057.74,-71.99 423.61,-61.89 227,-30 222.56,-29.28 217.94,-28.29 213.41,-27.17"/>
<polygon fill="#63b8ff" stroke="#63b8ff" points="214.25,-23.77 203.68,-24.56 212.43,-30.54 214.25,-23.77"/>
</a>
</g>
</g>
<!-- Node2&#45;&gt;Node15 -->
<g id="edge14_Node000002_Node000015" class="edge">
<title>Node2&#45;&gt;Node15</title>
<g id="a_edge14_Node000002_Node000015"><a xlink:title=" ">
<path fill="none" stroke="#63b8ff" d="M1217.93,-72.78C1042.21,-64.6 301.72,-30.15 301,-30 298.32,-29.44 295.57,-28.72 292.85,-27.9"/>
<polygon fill="#63b8ff" stroke="#63b8ff" points="293.84,-24.54 283.24,-24.59 291.56,-31.16 293.84,-24.54"/>
</a>
</g>
</g>
<!-- Node16 -->
<g id="Node000016" class="node">
<title>Node16</title>
<g id="a_Node000016"><a xlink:title=" ">
<polygon fill="#e0e0e0" stroke="#999999" points="1196.5,-24.5 1137.5,-24.5 1137.5,-5.5 1196.5,-5.5 1196.5,-24.5"/>
<text text-anchor="middle" x="1167" y="-12.5" font-family="Helvetica,sans-Serif" font-size="10.00">QPointer</text>
</a>
</g>
</g>
<!-- Node2&#45;&gt;Node16 -->
<g id="edge15_Node000002_Node000016" class="edge">
<title>Node2&#45;&gt;Node16</title>
<g id="a_edge15_Node000002_Node000016"><a xlink:title=" ">
<path fill="none" stroke="#63b8ff" d="M1242.02,-65.87C1227.98,-56.54 1205.37,-41.51 1188.64,-30.38"/>
<polygon fill="#63b8ff" stroke="#63b8ff" points="1190.3,-27.29 1180.04,-24.67 1186.43,-33.12 1190.3,-27.29"/>
</a>
</g>
</g>
<!-- Node17 -->
<g id="Node000017" class="node">
<title>Node17</title>
<g id="a_Node000017"><a xlink:title=" ">
<polygon fill="#e0e0e0" stroke="#999999" points="1295,-24.5 1215,-24.5 1215,-5.5 1295,-5.5 1295,-24.5"/>
<text text-anchor="middle" x="1255" y="-12.5" font-family="Helvetica,sans-Serif" font-size="10.00">QPushButton</text>
</a>
</g>
</g>
<!-- Node2&#45;&gt;Node17 -->
<g id="edge16_Node000002_Node000017" class="edge">
<title>Node2&#45;&gt;Node17</title>
<g id="a_edge16_Node000002_Node000017"><a xlink:title=" ">
<path fill="none" stroke="#63b8ff" d="M1255,-65.87C1255,-57.75 1255,-45.31 1255,-34.89"/>
<polygon fill="#63b8ff" stroke="#63b8ff" points="1258.5,-34.67 1255,-24.67 1251.5,-34.67 1258.5,-34.67"/>
</a>
</g>
</g>
<!-- Node18 -->
<g id="Node000018" class="node">
<title>Node18</title>
<g id="a_Node000018"><a xlink:title=" ">
<polygon fill="#e0e0e0" stroke="#999999" points="1397,-24.5 1313,-24.5 1313,-5.5 1397,-5.5 1397,-24.5"/>
<text text-anchor="middle" x="1355" y="-12.5" font-family="Helvetica,sans-Serif" font-size="10.00">QRadioButton</text>
</a>
</g>
</g>
<!-- Node2&#45;&gt;Node18 -->
<g id="edge17_Node000002_Node000018" class="edge">
<title>Node2&#45;&gt;Node18</title>
<g id="a_edge17_Node000002_Node000018"><a xlink:title=" ">
<path fill="none" stroke="#63b8ff" d="M1269.76,-65.87C1286,-56.36 1312.35,-40.95 1331.46,-29.77"/>
<polygon fill="#63b8ff" stroke="#63b8ff" points="1333.32,-32.74 1340.18,-24.67 1329.79,-26.7 1333.32,-32.74"/>
</a>
</g>
</g>
<!-- Node2&#45;&gt;Node19 -->
<g id="edge18_Node000002_Node000019" class="edge">
<title>Node2&#45;&gt;Node19</title>
<g id="a_edge18_Node000002_Node000019"><a xlink:title=" ">
<path fill="none" stroke="#63b8ff" d="M1292.29,-73.99C1493.53,-71.14 2445.64,-56.33 2574,-30 2576.53,-29.48 2579.11,-28.8 2581.67,-28.02"/>
<polygon fill="#63b8ff" stroke="#63b8ff" points="2583.03,-31.26 2591.31,-24.64 2580.71,-24.65 2583.03,-31.26"/>
</a>
</g>
</g>
<!-- Node20 -->
<g id="Node000020" class="node">
<title>Node20</title>
<g id="a_Node000020"><a xlink:title=" ">
<polygon fill="#e0e0e0" stroke="#999999" points="1474.5,-24.5 1415.5,-24.5 1415.5,-5.5 1474.5,-5.5 1474.5,-24.5"/>
<text text-anchor="middle" x="1445" y="-12.5" font-family="Helvetica,sans-Serif" font-size="10.00">QVariant</text>
</a>
</g>
</g>
<!-- Node2&#45;&gt;Node20 -->
<g id="edge19_Node000002_Node000020" class="edge">
<title>Node2&#45;&gt;Node20</title>
<g id="a_edge19_Node000002_Node000020"><a xlink:title=" ">
<path fill="none" stroke="#63b8ff" d="M1285.82,-65.98C1316.45,-57.39 1364.69,-43.49 1406,-30 1408.11,-29.31 1410.28,-28.58 1412.46,-27.84"/>
<polygon fill="#63b8ff" stroke="#63b8ff" points="1413.69,-31.12 1421.98,-24.51 1411.38,-24.51 1413.69,-31.12"/>
</a>
</g>
</g>
<!-- Node2&#45;&gt;Node21 -->
<g id="edge20_Node000002_Node000021" class="edge">
<title>Node2&#45;&gt;Node21</title>
<g id="a_edge20_Node000002_Node000021"><a xlink:title=" ">
<path fill="none" stroke="#63b8ff" d="M1292.23,-74C1499.71,-71.13 2508.92,-55.93 2645,-30 2648.01,-29.43 2651.1,-28.65 2654.16,-27.77"/>
<polygon fill="#63b8ff" stroke="#63b8ff" points="2655.28,-31.09 2663.69,-24.64 2653.1,-24.43 2655.28,-31.09"/>
</a>
</g>
</g>
<!-- Node22 -->
<g id="Node000022" class="node">
<title>Node22</title>
<g id="a_Node000022"><a xlink:title=" ">
<polygon fill="#e0e0e0" stroke="#999999" points="1613.5,-30 1492.5,-30 1492.5,0 1613.5,0 1613.5,-30"/>
<text text-anchor="start" x="1500.5" y="-18" font-family="Helvetica,sans-Serif" font-size="10.00">../vtools/visualization</text>
<text text-anchor="middle" x="1553" y="-7" font-family="Helvetica,sans-Serif" font-size="10.00">/visualization.h</text>
</a>
</g>
</g>
<!-- Node2&#45;&gt;Node22 -->
<g id="edge21_Node000002_Node000022" class="edge">
<title>Node2&#45;&gt;Node22</title>
<g id="a_edge21_Node000002_Node000022"><a xlink:title=" ">
<path fill="none" stroke="#63b8ff" d="M1292.13,-67.31C1335.33,-58.93 1409.06,-44.59 1482.42,-30.11"/>
<polygon fill="#63b8ff" stroke="#63b8ff" points="1483.16,-33.53 1492.3,-28.16 1481.81,-26.66 1483.16,-33.53"/>
</a>
</g>
</g>
<!-- Node2&#45;&gt;Node23 -->
<g id="edge22_Node000002_Node000023" class="edge">
<title>Node2&#45;&gt;Node23</title>
<g id="a_edge22_Node000002_Node000023"><a xlink:title=" ">
<path fill="none" stroke="#63b8ff" d="M1292.12,-74.03C1490.99,-71.44 2432.22,-57.86 2722,-30 2731.94,-29.04 2742.47,-27.65 2752.62,-26.11"/>
<polygon fill="#63b8ff" stroke="#63b8ff" points="2753.29,-29.55 2762.62,-24.53 2752.2,-22.63 2753.29,-29.55"/>
</a>
</g>
</g>
<!-- Node24 -->
<g id="Node000024" class="node">
<title>Node24</title>
<g id="a_Node000024"><a xlink:title=" ">
<polygon fill="#e0e0e0" stroke="#999999" points="1708.5,-24.5 1631.5,-24.5 1631.5,-5.5 1708.5,-5.5 1708.5,-24.5"/>
<text text-anchor="middle" x="1670" y="-12.5" font-family="Helvetica,sans-Serif" font-size="10.00">../ifc/ifcdef.h</text>
</a>
</g>
</g>
<!-- Node2&#45;&gt;Node24 -->
<g id="edge23_Node000002_Node000024" class="edge">
<title>Node2&#45;&gt;Node24</title>
<g id="a_edge23_Node000002_Node000024"><a xlink:title=" ">
<path fill="none" stroke="#63b8ff" d="M1292.04,-72.02C1358.62,-67.11 1502.7,-54.46 1622,-30 1625.86,-29.21 1629.86,-28.26 1633.83,-27.23"/>
<polygon fill="#63b8ff" stroke="#63b8ff" points="1634.82,-30.59 1643.53,-24.56 1632.96,-23.84 1634.82,-30.59"/>
</a>
</g>
</g>
<!-- Node25 -->
<g id="Node000025" class="node">
<title>Node25</title>
<g id="a_Node000025"><a xlink:title=" ">
<polygon fill="#e0e0e0" stroke="#999999" points="1885.5,-24.5 1726.5,-24.5 1726.5,-5.5 1885.5,-5.5 1885.5,-24.5"/>
<text text-anchor="middle" x="1806" y="-12.5" font-family="Helvetica,sans-Serif" font-size="10.00">../vgeometry/vgeometrydef.h</text>
</a>
</g>
</g>
<!-- Node2&#45;&gt;Node25 -->
<g id="edge24_Node000002_Node000025" class="edge">
<title>Node2&#45;&gt;Node25</title>
<g id="a_edge24_Node000002_Node000025"><a xlink:title=" ">
<path fill="none" stroke="#63b8ff" d="M1292.21,-71.68C1370.82,-65.55 1559.52,-49.95 1717,-30 1726.12,-28.84 1735.74,-27.48 1745.15,-26.07"/>
<polygon fill="#63b8ff" stroke="#63b8ff" points="1745.89,-29.5 1755.24,-24.52 1744.83,-22.58 1745.89,-29.5"/>
</a>
</g>
</g>
<!-- Node2&#45;&gt;Node26 -->
<g id="edge25_Node000002_Node000026" class="edge">
<title>Node2&#45;&gt;Node26</title>
<g id="a_edge25_Node000002_Node000026"><a xlink:title=" ">
<path fill="none" stroke="#63b8ff" d="M1292.25,-74.73C1505.12,-75.86 2569.53,-78.92 2893,-30 2897.59,-29.31 2902.35,-28.33 2907.03,-27.2"/>
<polygon fill="#63b8ff" stroke="#63b8ff" points="2908.27,-30.5 2917.06,-24.57 2906.49,-23.72 2908.27,-30.5"/>
</a>
</g>
</g>
<!-- Node27 -->
<g id="Node000027" class="node">
<title>Node27</title>
<g id="a_Node000027"><a xlink:title=" ">
<polygon fill="#e0e0e0" stroke="#999999" points="2006.5,-24.5 1903.5,-24.5 1903.5,-5.5 2006.5,-5.5 2006.5,-24.5"/>
<text text-anchor="middle" x="1955" y="-12.5" font-family="Helvetica,sans-Serif" font-size="10.00">../vmisc/logging.h</text>
</a>
</g>
</g>
<!-- Node2&#45;&gt;Node27 -->
<g id="edge26_Node000002_Node000027" class="edge">
<title>Node2&#45;&gt;Node27</title>
<g id="a_edge26_Node000002_Node000027"><a xlink:title=" ">
<path fill="none" stroke="#63b8ff" d="M1292.31,-73.93C1391.05,-71.99 1667.13,-63.72 1894,-30 1899.92,-29.12 1906.12,-27.97 1912.2,-26.71"/>
<polygon fill="#63b8ff" stroke="#63b8ff" points="1913.24,-30.06 1922.25,-24.5 1911.74,-23.23 1913.24,-30.06"/>
</a>
</g>
</g>
<!-- Node28 -->
<g id="Node000028" class="node">
<title>Node28</title>
<g id="a_Node000028"><a xlink:title=" ">
<polygon fill="#e0e0e0" stroke="#999999" points="2191.5,-24.5 2024.5,-24.5 2024.5,-5.5 2191.5,-5.5 2191.5,-24.5"/>
<text text-anchor="middle" x="2108" y="-12.5" font-family="Helvetica,sans-Serif" font-size="10.00">../vmisc/vabstractapplication.h</text>
</a>
</g>
</g>
<!-- Node2&#45;&gt;Node28 -->
<g id="edge27_Node000002_Node000028" class="edge">
<title>Node2&#45;&gt;Node28</title>
<g id="a_edge27_Node000002_Node000028"><a xlink:title=" ">
<path fill="none" stroke="#63b8ff" d="M1292.27,-73.52C1402.78,-70.35 1738.28,-58.87 2015,-30 2025.34,-28.92 2036.28,-27.51 2046.9,-26.01"/>
<polygon fill="#63b8ff" stroke="#63b8ff" points="2047.55,-29.45 2056.94,-24.54 2046.54,-22.52 2047.55,-29.45"/>
</a>
</g>
</g>
<!-- Node29 -->
<g id="Node000029" class="node">
<title>Node29</title>
<g id="a_Node000029"><a xlink:title=" ">
<polygon fill="#e0e0e0" stroke="#999999" points="2364.5,-24.5 2209.5,-24.5 2209.5,-5.5 2364.5,-5.5 2364.5,-24.5"/>
<text text-anchor="middle" x="2287" y="-12.5" font-family="Helvetica,sans-Serif" font-size="10.00">../vmisc/vcommonsettings.h</text>
</a>
</g>
</g>
<!-- Node2&#45;&gt;Node29 -->
<g id="edge28_Node000002_Node000029" class="edge">
<title>Node2&#45;&gt;Node29</title>
<g id="a_edge28_Node000002_Node000029"><a xlink:title=" ">
<path fill="none" stroke="#63b8ff" d="M1292.04,-74.25C1418.96,-73.08 1847.94,-66.5 2200,-30 2209.81,-28.98 2220.21,-27.59 2230.26,-26.07"/>
<polygon fill="#63b8ff" stroke="#63b8ff" points="2230.83,-29.53 2240.17,-24.53 2229.75,-22.61 2230.83,-29.53"/>
</a>
</g>
</g>
<!-- Node30 -->
<g id="Node000030" class="node">
<title>Node30</title>
<g id="a_Node000030"><a xlink:title=" ">
<polygon fill="#e0e0e0" stroke="#999999" points="2565,-24.5 2383,-24.5 2383,-5.5 2565,-5.5 2565,-24.5"/>
<text text-anchor="middle" x="2474" y="-12.5" font-family="Helvetica,sans-Serif" font-size="10.00">../vwidgets/vmaingraphicsscene.h</text>
</a>
</g>
</g>
<!-- Node2&#45;&gt;Node30 -->
<g id="edge29_Node000002_Node000030" class="edge">
<title>Node2&#45;&gt;Node30</title>
<g id="a_edge29_Node000002_Node000030"><a xlink:title=" ">
<path fill="none" stroke="#63b8ff" d="M1292.24,-74.34C1433.51,-73.45 1949.75,-67.67 2373,-30 2384.85,-28.95 2397.43,-27.48 2409.55,-25.89"/>
<polygon fill="#63b8ff" stroke="#63b8ff" points="2410.16,-29.34 2419.6,-24.54 2409.22,-22.41 2410.16,-29.34"/>
</a>
</g>
</g>
</g>
</svg>

<g id="navigator" transform="translate(0 0)" fill="#404254">
  <rect fill="#f2f5e9" fill-opacity="0.5" stroke="#606060" stroke-width=".5" x="0" y="0" width="60" height="60"/>
  <use id="zoomplus" xlink:href="#zoomPlus" x="17" y="9" onmousedown="handleZoom(evt,'in')"/>
  <use id="zoomminus" xlink:href="#zoomMin" x="42" y="9" onmousedown="handleZoom(evt,'out')"/>
  <use id="reset" xlink:href="#resetDef" x="30" y="36" onmousedown="handleReset()"/>
   <use id="arrowup" xlink:href="#arrowUp" x="0" y="0" onmousedown="handlePan(0,-1)"/>
  <use id="arrowright" xlink:href="#arrowRight" x="0" y="0" onmousedown="handlePan(1,0)"/>
  <use id="arrowdown" xlink:href="#arrowDown" x="0" y="0" onmousedown="handlePan(0,1)"/>
  <use id="arrowleft" xlink:href="#arrowLeft" x="0" y="0" onmousedown="handlePan(-1,0)"/>
</g>
<svg viewBox="0 0 15 15" width="100%" height="30px" preserveAspectRatio="xMaxYMin meet">
 <g id="arrow_out" transform="scale(0.3 0.3)">
  <a xlink:href="intersect__circles__dialog_8h__incl_org.svg" target="_base">
   <rect id="button" ry="5" rx="5" y="6" x="6" height="38" width="38"
        fill="#f2f5e9" fill-opacity="0.5" stroke="#606060" stroke-width="1.0"/>
   <path id="arrow"
     d="M 11.500037,31.436501 C 11.940474,20.09759 22.043105,11.32322 32.158766,21.979434 L 37.068811,17.246167 C 37.068811,17.246167 37.088388,32 37.088388,32 L 22.160133,31.978069 C 22.160133,31.978069 26.997745,27.140456 26.997745,27.140456 C 18.528582,18.264221 13.291696,25.230495 11.500037,31.436501 z"
     style="fill:#404040;"/>
  </a>
 </g>
</svg>

<style type='text/css'>
<![CDATA[
[data-mouse-over-selected='false'] { opacity: 0.7; }
[data-mouse-over-selected='true']  { opacity: 1.0; }
]]>
</style>
<script type="application/ecmascript"><![CDATA[
document.addEventListener('DOMContentLoaded', (event) => {
  highlightEdges();
  highlightAdjacentNodes();
});
]]></script>
</svg>
