<?xml version="1.0" encoding="UTF-8" standalone="no"?>
<!DOCTYPE svg PUBLIC "-//W3C//DTD SVG 1.1//EN"
 "http://www.w3.org/Graphics/SVG/1.1/DTD/svg11.dtd">
<!-- Generated by graphviz version 2.43.0 (0)
 -->
<!-- Title: src/app/seamly2d/dialogs/dialoglayoutsettings.h Pages: 1 -->
<svg width="4175pt" height="240pt"
 viewBox="0.00 0.00 4175.00 240.00" xmlns="http://www.w3.org/2000/svg" xmlns:xlink="http://www.w3.org/1999/xlink">
<g id="graph0" class="graph" transform="scale(1 1) rotate(0) translate(4 236)">
<title>src/app/seamly2d/dialogs/dialoglayoutsettings.h</title>
<polygon fill="white" stroke="transparent" points="-4,4 -4,-236 4171,-236 4171,4 -4,4"/>
<!-- Node1 -->
<g id="node1" class="node">
<title>Node1</title>
<g id="a_node1"><a xlink:title=" ">
<polygon fill="#bfbfbf" stroke="black" points="2746,-201.5 2746,-231.5 2887,-231.5 2887,-201.5 2746,-201.5"/>
<text text-anchor="start" x="2754" y="-219.5" font-family="Helvetica,sans-Serif" font-size="10.00">src/app/seamly2d/dialogs</text>
<text text-anchor="middle" x="2816.5" y="-208.5" font-family="Helvetica,sans-Serif" font-size="10.00">/dialoglayoutsettings.h</text>
</a>
</g>
</g>
<!-- Node2 -->
<g id="node2" class="node">
<title>Node2</title>
<g id="a_node2"><a xlink:href="../../dd/d57/vcmdexport_8h.html" target="_top" xlink:title=" ">
<polygon fill="white" stroke="black" points="2589,-134.5 2589,-164.5 2716,-164.5 2716,-134.5 2589,-134.5"/>
<text text-anchor="start" x="2597" y="-152.5" font-family="Helvetica,sans-Serif" font-size="10.00">src/app/seamly2d/core</text>
<text text-anchor="middle" x="2652.5" y="-141.5" font-family="Helvetica,sans-Serif" font-size="10.00">/vcmdexport.h</text>
</a>
</g>
</g>
<!-- Node1&#45;&gt;Node2 -->
<g id="edge1" class="edge">
<title>Node1&#45;&gt;Node2</title>
<path fill="none" stroke="midnightblue" d="M2771.54,-197.68C2745.24,-187.26 2712.5,-174.28 2688.02,-164.58"/>
<polygon fill="midnightblue" stroke="midnightblue" points="2770.33,-200.97 2780.91,-201.4 2772.91,-194.46 2770.33,-200.97"/>
</g>
<!-- Node12 -->
<g id="node12" class="node">
<title>Node12</title>
<g id="a_node12"><a xlink:href="../../db/def/dialoglayoutsettings_8cpp.html" target="_top" xlink:title=" ">
<polygon fill="white" stroke="black" points="3787,-0.5 3787,-30.5 3928,-30.5 3928,-0.5 3787,-0.5"/>
<text text-anchor="start" x="3795" y="-18.5" font-family="Helvetica,sans-Serif" font-size="10.00">src/app/seamly2d/dialogs</text>
<text text-anchor="middle" x="3857.5" y="-7.5" font-family="Helvetica,sans-Serif" font-size="10.00">/dialoglayoutsettings.cpp</text>
</a>
</g>
</g>
<!-- Node1&#45;&gt;Node12 -->
<g id="edge32" class="edge">
<title>Node1&#45;&gt;Node12</title>
<path fill="none" stroke="midnightblue" d="M2897.26,-200.06C3094.81,-162.3 3599.89,-65.74 3786.67,-30.04"/>
<polygon fill="midnightblue" stroke="midnightblue" points="2896.4,-196.66 2887.23,-201.98 2897.71,-203.54 2896.4,-196.66"/>
</g>
<!-- Node24 -->
<g id="node24" class="node">
<title>Node24</title>
<g id="a_node24"><a xlink:href="../../d8/de8/mainwindowsnogui_8cpp.html" target="_top" xlink:title=" ">
<polygon fill="white" stroke="black" points="3946,-6 3946,-25 4167,-25 4167,-6 3946,-6"/>
<text text-anchor="middle" x="4056.5" y="-13" font-family="Helvetica,sans-Serif" font-size="10.00">src/app/seamly2d/mainwindowsnogui.cpp</text>
</a>
</g>
</g>
<!-- Node1&#45;&gt;Node24 -->
<g id="edge33" class="edge">
<title>Node1&#45;&gt;Node24</title>
<path fill="none" stroke="midnightblue" d="M2897.34,-204.81C2970.36,-195.01 3080.74,-179.79 3176.5,-165 3494.99,-115.8 3876.87,-48.52 4008.88,-25.02"/>
<polygon fill="midnightblue" stroke="midnightblue" points="2896.73,-201.36 2887.29,-206.16 2897.66,-208.3 2896.73,-201.36"/>
</g>
<!-- Node27 -->
<g id="node27" class="node">
<title>Node27</title>
<g id="a_node27"><a xlink:href="../../df/d9b/vcmdexport_8cpp.html" target="_top" xlink:title=" ">
<polygon fill="white" stroke="black" points="2648,-67.5 2648,-97.5 2775,-97.5 2775,-67.5 2648,-67.5"/>
<text text-anchor="start" x="2656" y="-85.5" font-family="Helvetica,sans-Serif" font-size="10.00">src/app/seamly2d/core</text>
<text text-anchor="middle" x="2711.5" y="-74.5" font-family="Helvetica,sans-Serif" font-size="10.00">/vcmdexport.cpp</text>
</a>
</g>
</g>
<!-- Node1&#45;&gt;Node27 -->
<g id="edge31" class="edge">
<title>Node1&#45;&gt;Node27</title>
<path fill="none" stroke="midnightblue" d="M2799.03,-193.54C2777.33,-166.25 2740.92,-120.48 2722.66,-97.52"/>
<polygon fill="midnightblue" stroke="midnightblue" points="2796.3,-195.73 2805.26,-201.37 2801.78,-191.37 2796.3,-195.73"/>
</g>
<!-- Node3 -->
<g id="node3" class="node">
<title>Node3</title>
<g id="a_node3"><a xlink:href="../../d9/d02/vapplication_8h.html" target="_top" xlink:title=" ">
<polygon fill="white" stroke="black" points="2062,-67.5 2062,-97.5 2189,-97.5 2189,-67.5 2062,-67.5"/>
<text text-anchor="start" x="2070" y="-85.5" font-family="Helvetica,sans-Serif" font-size="10.00">src/app/seamly2d/core</text>
<text text-anchor="middle" x="2125.5" y="-74.5" font-family="Helvetica,sans-Serif" font-size="10.00">/vapplication.h</text>
</a>
</g>
</g>
<!-- Node2&#45;&gt;Node3 -->
<g id="edge2" class="edge">
<title>Node2&#45;&gt;Node3</title>
<path fill="none" stroke="midnightblue" d="M2578.85,-139.42C2475.05,-126.61 2287.46,-103.48 2189.29,-91.37"/>
<polygon fill="midnightblue" stroke="midnightblue" points="2578.58,-142.91 2588.93,-140.66 2579.44,-135.96 2578.58,-142.91"/>
</g>
<!-- Node2&#45;&gt;Node27 -->
<g id="edge26" class="edge">
<title>Node2&#45;&gt;Node27</title>
<path fill="none" stroke="midnightblue" d="M2672.25,-126.74C2680.98,-117.12 2691,-106.09 2698.72,-97.58"/>
<polygon fill="midnightblue" stroke="midnightblue" points="2669.43,-124.64 2665.3,-134.4 2674.61,-129.34 2669.43,-124.64"/>
</g>
<!-- Node28 -->
<g id="node28" class="node">
<title>Node28</title>
<g id="a_node28"><a xlink:href="../../d9/d53/mainwindow_8h.html" target="_top" xlink:title=" ">
<polygon fill="white" stroke="black" points="226.5,-73 226.5,-92 402.5,-92 402.5,-73 226.5,-73"/>
<text text-anchor="middle" x="314.5" y="-80" font-family="Helvetica,sans-Serif" font-size="10.00">src/app/seamly2d/mainwindow.h</text>
</a>
</g>
</g>
<!-- Node2&#45;&gt;Node28 -->
<g id="edge27" class="edge">
<title>Node2&#45;&gt;Node28</title>
<path fill="none" stroke="midnightblue" d="M2578.61,-146.45C2233.07,-136.84 777.59,-96.37 402.81,-85.96"/>
<polygon fill="midnightblue" stroke="midnightblue" points="2578.66,-149.95 2588.75,-146.73 2578.85,-142.95 2578.66,-149.95"/>
</g>
<!-- Node4 -->
<g id="node4" class="node">
<title>Node4</title>
<g id="a_node4"><a xlink:href="../../d3/dd8/vapplication_8cpp.html" target="_top" xlink:title=" ">
<polygon fill="white" stroke="black" points="0,-0.5 0,-30.5 127,-30.5 127,-0.5 0,-0.5"/>
<text text-anchor="start" x="8" y="-18.5" font-family="Helvetica,sans-Serif" font-size="10.00">src/app/seamly2d/core</text>
<text text-anchor="middle" x="63.5" y="-7.5" font-family="Helvetica,sans-Serif" font-size="10.00">/vapplication.cpp</text>
</a>
</g>
</g>
<!-- Node3&#45;&gt;Node4 -->
<g id="edge3" class="edge">
<title>Node3&#45;&gt;Node4</title>
<path fill="none" stroke="midnightblue" d="M2051.18,-81.34C1737.1,-80.39 517.31,-73.96 135.5,-31 132.71,-30.69 129.87,-30.32 127.01,-29.91"/>
<polygon fill="midnightblue" stroke="midnightblue" points="2051.52,-84.84 2061.53,-81.37 2051.54,-77.84 2051.52,-84.84"/>
</g>
<!-- Node5 -->
<g id="node5" class="node">
<title>Node5</title>
<g id="a_node5"><a xlink:href="../../d7/dfa/calculator__dialog_8cpp.html" target="_top" xlink:title=" ">
<polygon fill="white" stroke="black" points="1467,-0.5 1467,-30.5 1608,-30.5 1608,-0.5 1467,-0.5"/>
<text text-anchor="start" x="1475" y="-18.5" font-family="Helvetica,sans-Serif" font-size="10.00">src/app/seamly2d/dialogs</text>
<text text-anchor="middle" x="1537.5" y="-7.5" font-family="Helvetica,sans-Serif" font-size="10.00">/calculator_dialog.cpp</text>
</a>
</g>
</g>
<!-- Node3&#45;&gt;Node5 -->
<g id="edge4" class="edge">
<title>Node3&#45;&gt;Node5</title>
<path fill="none" stroke="midnightblue" d="M2051.59,-76.09C1952.35,-68.39 1770.64,-52.75 1616.5,-31 1613.74,-30.61 1610.93,-30.19 1608.09,-29.75"/>
<polygon fill="midnightblue" stroke="midnightblue" points="2051.58,-79.6 2061.82,-76.88 2052.11,-72.62 2051.58,-79.6"/>
</g>
<!-- Node6 -->
<g id="node6" class="node">
<title>Node6</title>
<g id="a_node6"><a xlink:href="../../d2/d2d/preferencesconfigurationpage_8cpp.html" target="_top" xlink:title=" ">
<polygon fill="white" stroke="black" points="1626,-0.5 1626,-30.5 1873,-30.5 1873,-0.5 1626,-0.5"/>
<text text-anchor="start" x="1634" y="-18.5" font-family="Helvetica,sans-Serif" font-size="10.00">src/app/seamly2d/dialogs</text>
<text text-anchor="middle" x="1749.5" y="-7.5" font-family="Helvetica,sans-Serif" font-size="10.00">/configpages/preferencesconfigurationpage.cpp</text>
</a>
</g>
</g>
<!-- Node3&#45;&gt;Node6 -->
<g id="edge5" class="edge">
<title>Node3&#45;&gt;Node6</title>
<path fill="none" stroke="midnightblue" d="M2051.76,-68.75C1988.13,-57.75 1896.38,-41.89 1830.68,-30.53"/>
<polygon fill="midnightblue" stroke="midnightblue" points="2051.27,-72.22 2061.72,-70.47 2052.46,-65.32 2051.27,-72.22"/>
</g>
<!-- Node7 -->
<g id="node7" class="node">
<title>Node7</title>
<g id="a_node7"><a xlink:href="../../d9/d70/preferencesgraphicsviewpage_8cpp.html" target="_top" xlink:title=" ">
<polygon fill="white" stroke="black" points="1891.5,-0.5 1891.5,-30.5 2139.5,-30.5 2139.5,-0.5 1891.5,-0.5"/>
<text text-anchor="start" x="1899.5" y="-18.5" font-family="Helvetica,sans-Serif" font-size="10.00">src/app/seamly2d/dialogs</text>
<text text-anchor="middle" x="2015.5" y="-7.5" font-family="Helvetica,sans-Serif" font-size="10.00">/configpages/preferencesgraphicsviewpage.cpp</text>
</a>
</g>
</g>
<!-- Node3&#45;&gt;Node7 -->
<g id="edge6" class="edge">
<title>Node3&#45;&gt;Node7</title>
<path fill="none" stroke="midnightblue" d="M2093,-62.3C2075.79,-52.12 2055.02,-39.85 2039.32,-30.58"/>
<polygon fill="midnightblue" stroke="midnightblue" points="2091.24,-65.32 2101.63,-67.4 2094.8,-59.3 2091.24,-65.32"/>
</g>
<!-- Node8 -->
<g id="node8" class="node">
<title>Node8</title>
<g id="a_node8"><a xlink:href="../../dc/d20/preferencespathpage_8cpp.html" target="_top" xlink:title=" ">
<polygon fill="white" stroke="black" points="2158,-0.5 2158,-30.5 2363,-30.5 2363,-0.5 2158,-0.5"/>
<text text-anchor="start" x="2166" y="-18.5" font-family="Helvetica,sans-Serif" font-size="10.00">src/app/seamly2d/dialogs</text>
<text text-anchor="middle" x="2260.5" y="-7.5" font-family="Helvetica,sans-Serif" font-size="10.00">/configpages/preferencespathpage.cpp</text>
</a>
</g>
</g>
<!-- Node3&#45;&gt;Node8 -->
<g id="edge7" class="edge">
<title>Node3&#45;&gt;Node8</title>
<path fill="none" stroke="midnightblue" d="M2163.94,-62.99C2185.34,-52.69 2211.55,-40.07 2231.26,-30.58"/>
<polygon fill="midnightblue" stroke="midnightblue" points="2162.28,-59.9 2154.79,-67.4 2165.32,-66.21 2162.28,-59.9"/>
</g>
<!-- Node9 -->
<g id="node9" class="node">
<title>Node9</title>
<g id="a_node9"><a xlink:href="../../dd/dc2/decimalchart__dialog_8cpp.html" target="_top" xlink:title=" ">
<polygon fill="white" stroke="black" points="2381,-0.5 2381,-30.5 2522,-30.5 2522,-0.5 2381,-0.5"/>
<text text-anchor="start" x="2389" y="-18.5" font-family="Helvetica,sans-Serif" font-size="10.00">src/app/seamly2d/dialogs</text>
<text text-anchor="middle" x="2451.5" y="-7.5" font-family="Helvetica,sans-Serif" font-size="10.00">/decimalchart_dialog.cpp</text>
</a>
</g>
</g>
<!-- Node3&#45;&gt;Node9 -->
<g id="edge8" class="edge">
<title>Node3&#45;&gt;Node9</title>
<path fill="none" stroke="midnightblue" d="M2199.08,-66.83C2253.62,-55.95 2327.51,-41.22 2381.25,-30.51"/>
<polygon fill="midnightblue" stroke="midnightblue" points="2198.25,-63.43 2189.13,-68.81 2199.62,-70.29 2198.25,-63.43"/>
</g>
<!-- Node10 -->
<g id="node10" class="node">
<title>Node10</title>
<g id="a_node10"><a xlink:href="../../d6/d89/dialoglayoutprogress_8cpp.html" target="_top" xlink:title=" ">
<polygon fill="white" stroke="black" points="2540,-0.5 2540,-30.5 2683,-30.5 2683,-0.5 2540,-0.5"/>
<text text-anchor="start" x="2548" y="-18.5" font-family="Helvetica,sans-Serif" font-size="10.00">src/app/seamly2d/dialogs</text>
<text text-anchor="middle" x="2611.5" y="-7.5" font-family="Helvetica,sans-Serif" font-size="10.00">/dialoglayoutprogress.cpp</text>
</a>
</g>
</g>
<!-- Node3&#45;&gt;Node10 -->
<g id="edge9" class="edge">
<title>Node3&#45;&gt;Node10</title>
<path fill="none" stroke="midnightblue" d="M2199.26,-73.49C2280.56,-64.39 2415.12,-48.51 2530.5,-31 2533.61,-30.53 2536.78,-30.03 2539.98,-29.52"/>
<polygon fill="midnightblue" stroke="midnightblue" points="2198.68,-70.04 2189.13,-74.62 2199.45,-76.99 2198.68,-70.04"/>
</g>
<!-- Node11 -->
<g id="node11" class="node">
<title>Node11</title>
<g id="a_node11"><a xlink:href="../../d2/d00/vtooloptionspropertybrowser_8cpp.html" target="_top" xlink:title=" ">
<polygon fill="white" stroke="black" points="2701.5,-0.5 2701.5,-30.5 2881.5,-30.5 2881.5,-0.5 2701.5,-0.5"/>
<text text-anchor="start" x="2709.5" y="-18.5" font-family="Helvetica,sans-Serif" font-size="10.00">src/app/seamly2d/core</text>
<text text-anchor="middle" x="2791.5" y="-7.5" font-family="Helvetica,sans-Serif" font-size="10.00">/vtooloptionspropertybrowser.cpp</text>
</a>
</g>
</g>
<!-- Node3&#45;&gt;Node11 -->
<g id="edge10" class="edge">
<title>Node3&#45;&gt;Node11</title>
<path fill="none" stroke="midnightblue" d="M2199.44,-76.21C2307.64,-68.17 2515.42,-51.61 2691.5,-31 2694.72,-30.62 2698,-30.22 2701.31,-29.81"/>
<polygon fill="midnightblue" stroke="midnightblue" points="2198.99,-72.73 2189.28,-76.96 2199.51,-79.71 2198.99,-72.73"/>
</g>
<!-- Node3&#45;&gt;Node12 -->
<g id="edge11" class="edge">
<title>Node3&#45;&gt;Node12</title>
<path fill="none" stroke="midnightblue" d="M2199.46,-79.39C2515.41,-70.35 3737.76,-35.19 3777.5,-31 3780.59,-30.67 3783.74,-30.3 3786.91,-29.88"/>
<polygon fill="midnightblue" stroke="midnightblue" points="2198.94,-75.9 2189.04,-79.69 2199.14,-82.9 2198.94,-75.9"/>
</g>
<!-- Node13 -->
<g id="node13" class="node">
<title>Node13</title>
<g id="a_node13"><a xlink:href="../../dd/d64/dialogaboutapp_8cpp.html" target="_top" xlink:title=" ">
<polygon fill="white" stroke="black" points="2900,-0.5 2900,-30.5 3041,-30.5 3041,-0.5 2900,-0.5"/>
<text text-anchor="start" x="2908" y="-18.5" font-family="Helvetica,sans-Serif" font-size="10.00">src/app/seamly2d/dialogs</text>
<text text-anchor="middle" x="2970.5" y="-7.5" font-family="Helvetica,sans-Serif" font-size="10.00">/dialogaboutapp.cpp</text>
</a>
</g>
</g>
<!-- Node3&#45;&gt;Node13 -->
<g id="edge12" class="edge">
<title>Node3&#45;&gt;Node13</title>
<path fill="none" stroke="midnightblue" d="M2199.56,-79.4C2336.46,-74.9 2638.15,-62.1 2890.5,-31 2893.58,-30.62 2896.73,-30.2 2899.9,-29.75"/>
<polygon fill="midnightblue" stroke="midnightblue" points="2199.08,-75.91 2189.2,-79.74 2199.31,-82.91 2199.08,-75.91"/>
</g>
<!-- Node14 -->
<g id="node14" class="node">
<title>Node14</title>
<g id="a_node14"><a xlink:href="../../de/d87/dialognewpattern_8cpp.html" target="_top" xlink:title=" ">
<polygon fill="white" stroke="black" points="3059,-0.5 3059,-30.5 3200,-30.5 3200,-0.5 3059,-0.5"/>
<text text-anchor="start" x="3067" y="-18.5" font-family="Helvetica,sans-Serif" font-size="10.00">src/app/seamly2d/dialogs</text>
<text text-anchor="middle" x="3129.5" y="-7.5" font-family="Helvetica,sans-Serif" font-size="10.00">/dialognewpattern.cpp</text>
</a>
</g>
</g>
<!-- Node3&#45;&gt;Node14 -->
<g id="edge13" class="edge">
<title>Node3&#45;&gt;Node14</title>
<path fill="none" stroke="midnightblue" d="M2199.12,-80.65C2356.11,-78.14 2735.21,-68.39 3050.5,-31 3053.27,-30.67 3056.09,-30.31 3058.93,-29.91"/>
<polygon fill="midnightblue" stroke="midnightblue" points="2199.05,-77.15 2189.1,-80.81 2199.16,-84.15 2199.05,-77.15"/>
</g>
<!-- Node15 -->
<g id="node15" class="node">
<title>Node15</title>
<g id="a_node15"><a xlink:href="../../d5/d18/dialogpatternproperties_8cpp.html" target="_top" xlink:title=" ">
<polygon fill="white" stroke="black" points="3218,-0.5 3218,-30.5 3373,-30.5 3373,-0.5 3218,-0.5"/>
<text text-anchor="start" x="3226" y="-18.5" font-family="Helvetica,sans-Serif" font-size="10.00">src/app/seamly2d/dialogs</text>
<text text-anchor="middle" x="3295.5" y="-7.5" font-family="Helvetica,sans-Serif" font-size="10.00">/dialogpatternproperties.cpp</text>
</a>
</g>
</g>
<!-- Node3&#45;&gt;Node15 -->
<g id="edge14" class="edge">
<title>Node3&#45;&gt;Node15</title>
<path fill="none" stroke="midnightblue" d="M2199.06,-79.23C2409.74,-72.55 3012.87,-52.08 3209.5,-31 3212.21,-30.71 3214.96,-30.39 3217.74,-30.04"/>
<polygon fill="midnightblue" stroke="midnightblue" points="2198.91,-75.73 2189.03,-79.55 2199.13,-82.73 2198.91,-75.73"/>
</g>
<!-- Node16 -->
<g id="node16" class="node">
<title>Node16</title>
<g id="a_node16"><a xlink:href="../../d5/dc5/dialogpreferences_8cpp.html" target="_top" xlink:title=" ">
<polygon fill="white" stroke="black" points="3391,-0.5 3391,-30.5 3532,-30.5 3532,-0.5 3391,-0.5"/>
<text text-anchor="start" x="3399" y="-18.5" font-family="Helvetica,sans-Serif" font-size="10.00">src/app/seamly2d/dialogs</text>
<text text-anchor="middle" x="3461.5" y="-7.5" font-family="Helvetica,sans-Serif" font-size="10.00">/dialogpreferences.cpp</text>
</a>
</g>
</g>
<!-- Node3&#45;&gt;Node16 -->
<g id="edge15" class="edge">
<title>Node3&#45;&gt;Node16</title>
<path fill="none" stroke="midnightblue" d="M2199.37,-79.14C2450.95,-71.03 3265.28,-44.05 3382.5,-31 3385.27,-30.69 3388.09,-30.34 3390.94,-29.96"/>
<polygon fill="midnightblue" stroke="midnightblue" points="2199.12,-75.65 2189.24,-79.47 2199.34,-82.65 2199.12,-75.65"/>
</g>
<!-- Node17 -->
<g id="node17" class="node">
<title>Node17</title>
<g id="a_node17"><a xlink:href="../../dc/d63/preferencespatternpage_8cpp.html" target="_top" xlink:title=" ">
<polygon fill="white" stroke="black" points="3550.5,-0.5 3550.5,-30.5 3768.5,-30.5 3768.5,-0.5 3550.5,-0.5"/>
<text text-anchor="start" x="3558.5" y="-18.5" font-family="Helvetica,sans-Serif" font-size="10.00">src/app/seamly2d/dialogs</text>
<text text-anchor="middle" x="3659.5" y="-7.5" font-family="Helvetica,sans-Serif" font-size="10.00">/configpages/preferencespatternpage.cpp</text>
</a>
</g>
</g>
<!-- Node3&#45;&gt;Node17 -->
<g id="edge16" class="edge">
<title>Node3&#45;&gt;Node17</title>
<path fill="none" stroke="midnightblue" d="M2199.35,-79.24C2471.22,-70.88 3407.58,-41.6 3541.5,-31 3544.38,-30.77 3547.3,-30.53 3550.24,-30.26"/>
<polygon fill="midnightblue" stroke="midnightblue" points="2199.08,-75.75 2189.19,-79.55 2199.3,-82.75 2199.08,-75.75"/>
</g>
<!-- Node18 -->
<g id="node18" class="node">
<title>Node18</title>
<g id="a_node18"><a xlink:href="../../dd/d54/export__layout__dialog_8cpp.html" target="_top" xlink:title=" ">
<polygon fill="white" stroke="black" points="521,-0.5 521,-30.5 664,-30.5 664,-0.5 521,-0.5"/>
<text text-anchor="start" x="529" y="-18.5" font-family="Helvetica,sans-Serif" font-size="10.00">src/app/seamly2d/dialogs</text>
<text text-anchor="middle" x="592.5" y="-7.5" font-family="Helvetica,sans-Serif" font-size="10.00">/export_layout_dialog.cpp</text>
</a>
</g>
</g>
<!-- Node3&#45;&gt;Node18 -->
<g id="edge17" class="edge">
<title>Node3&#45;&gt;Node18</title>
<path fill="none" stroke="midnightblue" d="M2051.36,-80.34C1794.56,-76.11 944.01,-60.17 672.5,-31 669.83,-30.71 667.12,-30.39 664.39,-30.04"/>
<polygon fill="midnightblue" stroke="midnightblue" points="2051.64,-83.85 2061.69,-80.51 2051.75,-76.85 2051.64,-83.85"/>
</g>
<!-- Node19 -->
<g id="node19" class="node">
<title>Node19</title>
<g id="a_node19"><a xlink:href="../../dd/d84/shortcuts__dialog_8cpp.html" target="_top" xlink:title=" ">
<polygon fill="white" stroke="black" points="682,-0.5 682,-30.5 823,-30.5 823,-0.5 682,-0.5"/>
<text text-anchor="start" x="690" y="-18.5" font-family="Helvetica,sans-Serif" font-size="10.00">src/app/seamly2d/dialogs</text>
<text text-anchor="middle" x="752.5" y="-7.5" font-family="Helvetica,sans-Serif" font-size="10.00">/shortcuts_dialog.cpp</text>
</a>
</g>
</g>
<!-- Node3&#45;&gt;Node19 -->
<g id="edge18" class="edge">
<title>Node3&#45;&gt;Node19</title>
<path fill="none" stroke="midnightblue" d="M2051.56,-80C1813.81,-74.97 1070.54,-57.46 831.5,-31 828.73,-30.69 825.91,-30.35 823.06,-29.97"/>
<polygon fill="midnightblue" stroke="midnightblue" points="2051.75,-83.51 2061.83,-80.22 2051.9,-76.51 2051.75,-83.51"/>
</g>
<!-- Node20 -->
<g id="node20" class="node">
<title>Node20</title>
<g id="a_node20"><a xlink:href="../../db/d5c/groups__widget_8cpp.html" target="_top" xlink:title=" ">
<polygon fill="white" stroke="black" points="841,-0.5 841,-30.5 982,-30.5 982,-0.5 841,-0.5"/>
<text text-anchor="start" x="849" y="-18.5" font-family="Helvetica,sans-Serif" font-size="10.00">src/app/seamly2d/dialogs</text>
<text text-anchor="middle" x="911.5" y="-7.5" font-family="Helvetica,sans-Serif" font-size="10.00">/groups_widget.cpp</text>
</a>
</g>
</g>
<!-- Node3&#45;&gt;Node20 -->
<g id="edge19" class="edge">
<title>Node3&#45;&gt;Node20</title>
<path fill="none" stroke="midnightblue" d="M2051.67,-81.71C1870.36,-81.46 1388.95,-76.21 990.5,-31 987.73,-30.69 984.91,-30.33 982.06,-29.95"/>
<polygon fill="midnightblue" stroke="midnightblue" points="2051.88,-85.21 2061.89,-81.72 2051.89,-78.21 2051.88,-85.21"/>
</g>
<!-- Node21 -->
<g id="node21" class="node">
<title>Node21</title>
<g id="a_node21"><a xlink:href="../../d2/df4/show__info__dialog_8cpp.html" target="_top" xlink:title=" ">
<polygon fill="white" stroke="black" points="1000,-0.5 1000,-30.5 1141,-30.5 1141,-0.5 1000,-0.5"/>
<text text-anchor="start" x="1008" y="-18.5" font-family="Helvetica,sans-Serif" font-size="10.00">src/app/seamly2d/dialogs</text>
<text text-anchor="middle" x="1070.5" y="-7.5" font-family="Helvetica,sans-Serif" font-size="10.00">/show_info_dialog.cpp</text>
</a>
</g>
</g>
<!-- Node3&#45;&gt;Node21 -->
<g id="edge20" class="edge">
<title>Node3&#45;&gt;Node21</title>
<path fill="none" stroke="midnightblue" d="M2051.56,-80.88C1888.39,-78.82 1485.36,-69.86 1150.5,-31 1147.42,-30.64 1144.27,-30.24 1141.1,-29.8"/>
<polygon fill="midnightblue" stroke="midnightblue" points="2051.92,-84.39 2061.96,-81.01 2052,-77.39 2051.92,-84.39"/>
</g>
<!-- Node22 -->
<g id="node22" class="node">
<title>Node22</title>
<g id="a_node22"><a xlink:href="../../dc/d14/app_2seamly2d_2main_8cpp.html" target="_top" xlink:title=" ">
<polygon fill="white" stroke="black" points="145,-6 145,-25 296,-25 296,-6 145,-6"/>
<text text-anchor="middle" x="220.5" y="-13" font-family="Helvetica,sans-Serif" font-size="10.00">src/app/seamly2d/main.cpp</text>
</a>
</g>
</g>
<!-- Node3&#45;&gt;Node22 -->
<g id="edge21" class="edge">
<title>Node3&#45;&gt;Node22</title>
<path fill="none" stroke="midnightblue" d="M2051.76,-80.84C1755.72,-78 652.91,-65.28 305.5,-31 291.79,-29.65 276.96,-27.39 263.58,-25.06"/>
<polygon fill="midnightblue" stroke="midnightblue" points="2051.91,-84.35 2061.95,-80.94 2051.98,-77.35 2051.91,-84.35"/>
</g>
<!-- Node23 -->
<g id="node23" class="node">
<title>Node23</title>
<g id="a_node23"><a xlink:href="../../d5/de4/vabstractlayoutdialog_8cpp.html" target="_top" xlink:title=" ">
<polygon fill="white" stroke="black" points="1159.5,-0.5 1159.5,-30.5 1305.5,-30.5 1305.5,-0.5 1159.5,-0.5"/>
<text text-anchor="start" x="1167.5" y="-18.5" font-family="Helvetica,sans-Serif" font-size="10.00">src/app/seamly2d/dialogs</text>
<text text-anchor="middle" x="1232.5" y="-7.5" font-family="Helvetica,sans-Serif" font-size="10.00">/vabstractlayoutdialog.cpp</text>
</a>
</g>
</g>
<!-- Node3&#45;&gt;Node23 -->
<g id="edge22" class="edge">
<title>Node3&#45;&gt;Node23</title>
<path fill="none" stroke="midnightblue" d="M2051.54,-79.69C1908.66,-75.57 1584.92,-63.22 1314.5,-31 1311.63,-30.66 1308.71,-30.28 1305.76,-29.88"/>
<polygon fill="midnightblue" stroke="midnightblue" points="2051.83,-83.2 2061.93,-79.98 2052.03,-76.2 2051.83,-83.2"/>
</g>
<!-- Node3&#45;&gt;Node24 -->
<g id="edge23" class="edge">
<title>Node3&#45;&gt;Node24</title>
<path fill="none" stroke="midnightblue" d="M2199.34,-79.4C2299.02,-76.57 2482.16,-71.38 2638.5,-67 3215.83,-50.84 3361.55,-73.98 3937.5,-31 3956.49,-29.58 3977.11,-27.33 3995.76,-25.01"/>
<polygon fill="midnightblue" stroke="midnightblue" points="2198.98,-75.91 2189.08,-79.69 2199.18,-82.91 2198.98,-75.91"/>
</g>
<!-- Node25 -->
<g id="node25" class="node">
<title>Node25</title>
<g id="a_node25"><a xlink:href="../../d3/d49/vpattern_8cpp.html" target="_top" xlink:title=" ">
<polygon fill="white" stroke="black" points="1324,-0.5 1324,-30.5 1449,-30.5 1449,-0.5 1324,-0.5"/>
<text text-anchor="start" x="1332" y="-18.5" font-family="Helvetica,sans-Serif" font-size="10.00">src/app/seamly2d/xml</text>
<text text-anchor="middle" x="1386.5" y="-7.5" font-family="Helvetica,sans-Serif" font-size="10.00">/vpattern.cpp</text>
</a>
</g>
</g>
<!-- Node3&#45;&gt;Node25 -->
<g id="edge24" class="edge">
<title>Node3&#45;&gt;Node25</title>
<path fill="none" stroke="midnightblue" d="M2051.56,-78.96C1928.03,-74.02 1672.06,-60.9 1457.5,-31 1454.76,-30.62 1451.96,-30.19 1449.15,-29.74"/>
<polygon fill="midnightblue" stroke="midnightblue" points="2051.53,-82.46 2061.66,-79.35 2051.81,-75.46 2051.53,-82.46"/>
</g>
<!-- Node26 -->
<g id="node26" class="node">
<title>Node26</title>
<g id="a_node26"><a xlink:href="../../d8/dd9/mainwindow_8cpp.html" target="_top" xlink:title=" ">
<polygon fill="white" stroke="black" points="314.5,-6 314.5,-25 502.5,-25 502.5,-6 314.5,-6"/>
<text text-anchor="middle" x="408.5" y="-13" font-family="Helvetica,sans-Serif" font-size="10.00">src/app/seamly2d/mainwindow.cpp</text>
</a>
</g>
</g>
<!-- Node3&#45;&gt;Node26 -->
<g id="edge25" class="edge">
<title>Node3&#45;&gt;Node26</title>
<path fill="none" stroke="midnightblue" d="M2051.7,-82.04C1822.7,-83.09 1103.98,-81.82 511.5,-31 495.04,-29.59 477.18,-27.33 461.04,-25.02"/>
<polygon fill="midnightblue" stroke="midnightblue" points="2051.93,-85.54 2061.91,-81.99 2051.9,-78.54 2051.93,-85.54"/>
</g>
<!-- Node28&#45;&gt;Node4 -->
<g id="edge28" class="edge">
<title>Node28&#45;&gt;Node4</title>
<path fill="none" stroke="midnightblue" d="M271.67,-70.41C229.17,-59.4 163.9,-42.5 117.79,-30.56"/>
<polygon fill="midnightblue" stroke="midnightblue" points="270.87,-73.82 281.43,-72.94 272.62,-67.04 270.87,-73.82"/>
</g>
<!-- Node28&#45;&gt;Node22 -->
<g id="edge29" class="edge">
<title>Node28&#45;&gt;Node22</title>
<path fill="none" stroke="midnightblue" d="M293.41,-66.92C274.83,-54.07 248.38,-35.78 232.98,-25.13"/>
<polygon fill="midnightblue" stroke="midnightblue" points="291.61,-69.93 301.82,-72.73 295.59,-64.17 291.61,-69.93"/>
</g>
<!-- Node28&#45;&gt;Node26 -->
<g id="edge30" class="edge">
<title>Node28&#45;&gt;Node26</title>
<path fill="none" stroke="midnightblue" d="M335.59,-66.92C354.17,-54.07 380.62,-35.78 396.02,-25.13"/>
<polygon fill="midnightblue" stroke="midnightblue" points="333.41,-64.17 327.18,-72.73 337.39,-69.93 333.41,-64.17"/>
</g>
</g>
</svg>
