<?xml version="1.0" encoding="UTF-8" standalone="no"?>
<!DOCTYPE svg PUBLIC "-//W3C//DTD SVG 1.1//EN"
 "http://www.w3.org/Graphics/SVG/1.1/DTD/svg11.dtd">
<!-- Generated by graphviz version 2.43.0 (0)
 -->
<!-- Title: src/app/seamly2d/dialogs/dialoglayoutsettings.h Pages: 1 -->
<svg width="4175pt" height="240pt"
 viewBox="0.00 0.00 4175.00 240.00" xmlns="http://www.w3.org/2000/svg" xmlns:xlink="http://www.w3.org/1999/xlink">
<g id="graph0" class="graph" transform="scale(1 1) rotate(0) translate(4 236)">
<title>src/app/seamly2d/dialogs/dialoglayoutsettings.h</title>
<polygon fill="white" stroke="transparent" points="-4,4 -4,-236 4171,-236 4171,4 -4,4"/>
<!-- Node1 -->
<g id="node1" class="node">
<title>Node1</title>
<g id="a_node1"><a xlink:title=" ">
<polygon fill="#bfbfbf" stroke="black" points="2766,-201.5 2766,-231.5 2907,-231.5 2907,-201.5 2766,-201.5"/>
<text text-anchor="start" x="2774" y="-219.5" font-family="Helvetica,sans-Serif" font-size="10.00">src/app/seamly2d/dialogs</text>
<text text-anchor="middle" x="2836.5" y="-208.5" font-family="Helvetica,sans-Serif" font-size="10.00">/dialoglayoutsettings.h</text>
</a>
</g>
</g>
<!-- Node2 -->
<g id="node2" class="node">
<title>Node2</title>
<g id="a_node2"><a xlink:href="../../dd/d57/vcmdexport_8h.html" target="_top" xlink:title=" ">
<polygon fill="white" stroke="black" points="2609,-134.5 2609,-164.5 2736,-164.5 2736,-134.5 2609,-134.5"/>
<text text-anchor="start" x="2617" y="-152.5" font-family="Helvetica,sans-Serif" font-size="10.00">src/app/seamly2d/core</text>
<text text-anchor="middle" x="2672.5" y="-141.5" font-family="Helvetica,sans-Serif" font-size="10.00">/vcmdexport.h</text>
</a>
</g>
</g>
<!-- Node1&#45;&gt;Node2 -->
<g id="edge1" class="edge">
<title>Node1&#45;&gt;Node2</title>
<path fill="none" stroke="midnightblue" d="M2791.54,-197.68C2765.24,-187.26 2732.5,-174.28 2708.02,-164.58"/>
<polygon fill="midnightblue" stroke="midnightblue" points="2790.33,-200.97 2800.91,-201.4 2792.91,-194.46 2790.33,-200.97"/>
</g>
<!-- Node14 -->
<g id="node14" class="node">
<title>Node14</title>
<g id="a_node14"><a xlink:href="../../db/def/dialoglayoutsettings_8cpp.html" target="_top" xlink:title=" ">
<polygon fill="white" stroke="black" points="3787,-0.5 3787,-30.5 3928,-30.5 3928,-0.5 3787,-0.5"/>
<text text-anchor="start" x="3795" y="-18.5" font-family="Helvetica,sans-Serif" font-size="10.00">src/app/seamly2d/dialogs</text>
<text text-anchor="middle" x="3857.5" y="-7.5" font-family="Helvetica,sans-Serif" font-size="10.00">/dialoglayoutsettings.cpp</text>
</a>
</g>
</g>
<!-- Node1&#45;&gt;Node14 -->
<g id="edge32" class="edge">
<title>Node1&#45;&gt;Node14</title>
<path fill="none" stroke="midnightblue" d="M2916.94,-199.82C3111.16,-161.97 3603.22,-66.06 3786.91,-30.26"/>
<polygon fill="midnightblue" stroke="midnightblue" points="2916.23,-196.39 2907.08,-201.74 2917.57,-203.27 2916.23,-196.39"/>
</g>
<!-- Node24 -->
<g id="node24" class="node">
<title>Node24</title>
<g id="a_node24"><a xlink:href="../../d8/de8/mainwindowsnogui_8cpp.html" target="_top" xlink:title=" ">
<polygon fill="white" stroke="black" points="3946,-6 3946,-25 4167,-25 4167,-6 3946,-6"/>
<text text-anchor="middle" x="4056.5" y="-13" font-family="Helvetica,sans-Serif" font-size="10.00">src/app/seamly2d/mainwindowsnogui.cpp</text>
</a>
</g>
</g>
<!-- Node1&#45;&gt;Node24 -->
<g id="edge33" class="edge">
<title>Node1&#45;&gt;Node24</title>
<path fill="none" stroke="midnightblue" d="M2917.55,-204.55C2989.15,-194.72 3096.38,-179.63 3189.5,-165 3503.29,-115.69 3879.53,-48.48 4009.58,-25"/>
<polygon fill="midnightblue" stroke="midnightblue" points="2916.68,-201.14 2907.24,-205.96 2917.63,-208.07 2916.68,-201.14"/>
</g>
<!-- Node27 -->
<g id="node27" class="node">
<title>Node27</title>
<g id="a_node27"><a xlink:href="../../df/d9b/vcmdexport_8cpp.html" target="_top" xlink:title=" ">
<polygon fill="white" stroke="black" points="2668,-67.5 2668,-97.5 2795,-97.5 2795,-67.5 2668,-67.5"/>
<text text-anchor="start" x="2676" y="-85.5" font-family="Helvetica,sans-Serif" font-size="10.00">src/app/seamly2d/core</text>
<text text-anchor="middle" x="2731.5" y="-74.5" font-family="Helvetica,sans-Serif" font-size="10.00">/vcmdexport.cpp</text>
</a>
</g>
</g>
<!-- Node1&#45;&gt;Node27 -->
<g id="edge31" class="edge">
<title>Node1&#45;&gt;Node27</title>
<path fill="none" stroke="midnightblue" d="M2819.03,-193.54C2797.33,-166.25 2760.92,-120.48 2742.66,-97.52"/>
<polygon fill="midnightblue" stroke="midnightblue" points="2816.3,-195.73 2825.26,-201.37 2821.78,-191.37 2816.3,-195.73"/>
</g>
<!-- Node3 -->
<g id="node3" class="node">
<title>Node3</title>
<g id="a_node3"><a xlink:href="../../d9/d02/vapplication_8h.html" target="_top" xlink:title=" ">
<polygon fill="white" stroke="black" points="2095,-67.5 2095,-97.5 2222,-97.5 2222,-67.5 2095,-67.5"/>
<text text-anchor="start" x="2103" y="-85.5" font-family="Helvetica,sans-Serif" font-size="10.00">src/app/seamly2d/core</text>
<text text-anchor="middle" x="2158.5" y="-74.5" font-family="Helvetica,sans-Serif" font-size="10.00">/vapplication.h</text>
</a>
</g>
</g>
<!-- Node2&#45;&gt;Node3 -->
<g id="edge2" class="edge">
<title>Node2&#45;&gt;Node3</title>
<path fill="none" stroke="midnightblue" d="M2598.83,-139.18C2497.79,-126.41 2317.88,-103.66 2222.3,-91.57"/>
<polygon fill="midnightblue" stroke="midnightblue" points="2598.6,-142.68 2608.96,-140.46 2599.48,-135.74 2598.6,-142.68"/>
</g>
<!-- Node2&#45;&gt;Node27 -->
<g id="edge26" class="edge">
<title>Node2&#45;&gt;Node27</title>
<path fill="none" stroke="midnightblue" d="M2692.25,-126.74C2700.98,-117.12 2711,-106.09 2718.72,-97.58"/>
<polygon fill="midnightblue" stroke="midnightblue" points="2689.43,-124.64 2685.3,-134.4 2694.61,-129.34 2689.43,-124.64"/>
</g>
<!-- Node28 -->
<g id="node28" class="node">
<title>Node28</title>
<g id="a_node28"><a xlink:href="../../d9/d53/mainwindow_8h.html" target="_top" xlink:title=" ">
<polygon fill="white" stroke="black" points="226.5,-73 226.5,-92 402.5,-92 402.5,-73 226.5,-73"/>
<text text-anchor="middle" x="314.5" y="-80" font-family="Helvetica,sans-Serif" font-size="10.00">src/app/seamly2d/mainwindow.h</text>
</a>
</g>
</g>
<!-- Node2&#45;&gt;Node28 -->
<g id="edge27" class="edge">
<title>Node2&#45;&gt;Node28</title>
<path fill="none" stroke="midnightblue" d="M2598.62,-146.46C2251.02,-136.88 779.53,-96.32 402.7,-85.93"/>
<polygon fill="midnightblue" stroke="midnightblue" points="2598.73,-149.97 2608.82,-146.74 2598.92,-142.97 2598.73,-149.97"/>
</g>
<!-- Node4 -->
<g id="node4" class="node">
<title>Node4</title>
<g id="a_node4"><a xlink:href="../../d3/dd8/vapplication_8cpp.html" target="_top" xlink:title=" ">
<polygon fill="white" stroke="black" points="0,-0.5 0,-30.5 127,-30.5 127,-0.5 0,-0.5"/>
<text text-anchor="start" x="8" y="-18.5" font-family="Helvetica,sans-Serif" font-size="10.00">src/app/seamly2d/core</text>
<text text-anchor="middle" x="63.5" y="-7.5" font-family="Helvetica,sans-Serif" font-size="10.00">/vapplication.cpp</text>
</a>
</g>
</g>
<!-- Node3&#45;&gt;Node4 -->
<g id="edge3" class="edge">
<title>Node3&#45;&gt;Node4</title>
<path fill="none" stroke="midnightblue" d="M2084.54,-81.38C1767.8,-80.58 524.29,-74.67 135.5,-31 132.71,-30.69 129.87,-30.32 127.01,-29.91"/>
<polygon fill="midnightblue" stroke="midnightblue" points="2084.96,-84.88 2094.97,-81.4 2084.98,-77.88 2084.96,-84.88"/>
</g>
<!-- Node5 -->
<g id="node5" class="node">
<title>Node5</title>
<g id="a_node5"><a xlink:href="../../d2/d2d/preferencesconfigurationpage_8cpp.html" target="_top" xlink:title=" ">
<polygon fill="white" stroke="black" points="1467,-0.5 1467,-30.5 1714,-30.5 1714,-0.5 1467,-0.5"/>
<text text-anchor="start" x="1475" y="-18.5" font-family="Helvetica,sans-Serif" font-size="10.00">src/app/seamly2d/dialogs</text>
<text text-anchor="middle" x="1590.5" y="-7.5" font-family="Helvetica,sans-Serif" font-size="10.00">/configpages/preferencesconfigurationpage.cpp</text>
</a>
</g>
</g>
<!-- Node3&#45;&gt;Node5 -->
<g id="edge4" class="edge">
<title>Node3&#45;&gt;Node5</title>
<path fill="none" stroke="midnightblue" d="M2084.99,-73.09C1990.81,-62.31 1826.22,-43.48 1712.98,-30.52"/>
<polygon fill="midnightblue" stroke="midnightblue" points="2084.66,-76.57 2095,-74.23 2085.46,-69.62 2084.66,-76.57"/>
</g>
<!-- Node6 -->
<g id="node6" class="node">
<title>Node6</title>
<g id="a_node6"><a xlink:href="../../d9/d70/preferencesgraphicsviewpage_8cpp.html" target="_top" xlink:title=" ">
<polygon fill="white" stroke="black" points="1732.5,-0.5 1732.5,-30.5 1980.5,-30.5 1980.5,-0.5 1732.5,-0.5"/>
<text text-anchor="start" x="1740.5" y="-18.5" font-family="Helvetica,sans-Serif" font-size="10.00">src/app/seamly2d/dialogs</text>
<text text-anchor="middle" x="1856.5" y="-7.5" font-family="Helvetica,sans-Serif" font-size="10.00">/configpages/preferencesgraphicsviewpage.cpp</text>
</a>
</g>
</g>
<!-- Node3&#45;&gt;Node6 -->
<g id="edge5" class="edge">
<title>Node3&#45;&gt;Node6</title>
<path fill="none" stroke="midnightblue" d="M2084.74,-65.63C2034.87,-54.89 1969.61,-40.85 1921.65,-30.52"/>
<polygon fill="midnightblue" stroke="midnightblue" points="2084.31,-69.11 2094.82,-67.79 2085.78,-62.27 2084.31,-69.11"/>
</g>
<!-- Node7 -->
<g id="node7" class="node">
<title>Node7</title>
<g id="a_node7"><a xlink:href="../../d7/dfa/calculator__dialog_8cpp.html" target="_top" xlink:title=" ">
<polygon fill="white" stroke="black" points="1999,-0.5 1999,-30.5 2140,-30.5 2140,-0.5 1999,-0.5"/>
<text text-anchor="start" x="2007" y="-18.5" font-family="Helvetica,sans-Serif" font-size="10.00">src/app/seamly2d/dialogs</text>
<text text-anchor="middle" x="2069.5" y="-7.5" font-family="Helvetica,sans-Serif" font-size="10.00">/calculator_dialog.cpp</text>
</a>
</g>
</g>
<!-- Node3&#45;&gt;Node7 -->
<g id="edge6" class="edge">
<title>Node3&#45;&gt;Node7</title>
<path fill="none" stroke="midnightblue" d="M2131.05,-61.45C2117.36,-51.45 2101.13,-39.6 2088.77,-30.58"/>
<polygon fill="midnightblue" stroke="midnightblue" points="2129.05,-64.32 2139.19,-67.4 2133.18,-58.67 2129.05,-64.32"/>
</g>
<!-- Node8 -->
<g id="node8" class="node">
<title>Node8</title>
<g id="a_node8"><a xlink:href="../../d2/d00/vtooloptionspropertybrowser_8cpp.html" target="_top" xlink:title=" ">
<polygon fill="white" stroke="black" points="2158.5,-0.5 2158.5,-30.5 2338.5,-30.5 2338.5,-0.5 2158.5,-0.5"/>
<text text-anchor="start" x="2166.5" y="-18.5" font-family="Helvetica,sans-Serif" font-size="10.00">src/app/seamly2d/core</text>
<text text-anchor="middle" x="2248.5" y="-7.5" font-family="Helvetica,sans-Serif" font-size="10.00">/vtooloptionspropertybrowser.cpp</text>
</a>
</g>
</g>
<!-- Node3&#45;&gt;Node8 -->
<g id="edge7" class="edge">
<title>Node3&#45;&gt;Node8</title>
<path fill="none" stroke="midnightblue" d="M2186.26,-61.45C2200.11,-51.45 2216.52,-39.6 2229.01,-30.58"/>
<polygon fill="midnightblue" stroke="midnightblue" points="2184.09,-58.7 2178.03,-67.4 2188.18,-64.38 2184.09,-58.7"/>
</g>
<!-- Node9 -->
<g id="node9" class="node">
<title>Node9</title>
<g id="a_node9"><a xlink:href="../../dc/d20/preferencespathpage_8cpp.html" target="_top" xlink:title=" ">
<polygon fill="white" stroke="black" points="2357,-0.5 2357,-30.5 2562,-30.5 2562,-0.5 2357,-0.5"/>
<text text-anchor="start" x="2365" y="-18.5" font-family="Helvetica,sans-Serif" font-size="10.00">src/app/seamly2d/dialogs</text>
<text text-anchor="middle" x="2459.5" y="-7.5" font-family="Helvetica,sans-Serif" font-size="10.00">/configpages/preferencespathpage.cpp</text>
</a>
</g>
</g>
<!-- Node3&#45;&gt;Node9 -->
<g id="edge8" class="edge">
<title>Node3&#45;&gt;Node9</title>
<path fill="none" stroke="midnightblue" d="M2232.36,-65.55C2281.99,-54.83 2346.78,-40.84 2394.46,-30.55"/>
<polygon fill="midnightblue" stroke="midnightblue" points="2231.37,-62.18 2222.33,-67.72 2232.85,-69.03 2231.37,-62.18"/>
</g>
<!-- Node10 -->
<g id="node10" class="node">
<title>Node10</title>
<g id="a_node10"><a xlink:href="../../dd/dc2/decimalchart__dialog_8cpp.html" target="_top" xlink:title=" ">
<polygon fill="white" stroke="black" points="2580,-0.5 2580,-30.5 2721,-30.5 2721,-0.5 2580,-0.5"/>
<text text-anchor="start" x="2588" y="-18.5" font-family="Helvetica,sans-Serif" font-size="10.00">src/app/seamly2d/dialogs</text>
<text text-anchor="middle" x="2650.5" y="-7.5" font-family="Helvetica,sans-Serif" font-size="10.00">/decimalchart_dialog.cpp</text>
</a>
</g>
</g>
<!-- Node3&#45;&gt;Node10 -->
<g id="edge9" class="edge">
<title>Node3&#45;&gt;Node10</title>
<path fill="none" stroke="midnightblue" d="M2232.21,-73.75C2314.78,-64.78 2452.52,-48.91 2570.5,-31 2573.57,-30.53 2576.7,-30.04 2579.87,-29.53"/>
<polygon fill="midnightblue" stroke="midnightblue" points="2231.74,-70.28 2222.18,-74.84 2232.5,-77.24 2231.74,-70.28"/>
</g>
<!-- Node11 -->
<g id="node11" class="node">
<title>Node11</title>
<g id="a_node11"><a xlink:href="../../dc/d63/preferencespatternpage_8cpp.html" target="_top" xlink:title=" ">
<polygon fill="white" stroke="black" points="2739.5,-0.5 2739.5,-30.5 2957.5,-30.5 2957.5,-0.5 2739.5,-0.5"/>
<text text-anchor="start" x="2747.5" y="-18.5" font-family="Helvetica,sans-Serif" font-size="10.00">src/app/seamly2d/dialogs</text>
<text text-anchor="middle" x="2848.5" y="-7.5" font-family="Helvetica,sans-Serif" font-size="10.00">/configpages/preferencespatternpage.cpp</text>
</a>
</g>
</g>
<!-- Node3&#45;&gt;Node11 -->
<g id="edge10" class="edge">
<title>Node3&#45;&gt;Node11</title>
<path fill="none" stroke="midnightblue" d="M2232.59,-75.73C2341.56,-67.07 2551.4,-49.72 2729.5,-31 2732.71,-30.66 2735.96,-30.31 2739.25,-29.95"/>
<polygon fill="midnightblue" stroke="midnightblue" points="2232.06,-72.26 2222.36,-76.54 2232.61,-79.24 2232.06,-72.26"/>
</g>
<!-- Node12 -->
<g id="node12" class="node">
<title>Node12</title>
<g id="a_node12"><a xlink:href="../../dd/d64/dialogaboutapp_8cpp.html" target="_top" xlink:title=" ">
<polygon fill="white" stroke="black" points="2976,-0.5 2976,-30.5 3117,-30.5 3117,-0.5 2976,-0.5"/>
<text text-anchor="start" x="2984" y="-18.5" font-family="Helvetica,sans-Serif" font-size="10.00">src/app/seamly2d/dialogs</text>
<text text-anchor="middle" x="3046.5" y="-7.5" font-family="Helvetica,sans-Serif" font-size="10.00">/dialogaboutapp.cpp</text>
</a>
</g>
</g>
<!-- Node3&#45;&gt;Node12 -->
<g id="edge11" class="edge">
<title>Node3&#45;&gt;Node12</title>
<path fill="none" stroke="midnightblue" d="M2232.46,-79.77C2374.97,-75.79 2697.32,-63.69 2966.5,-31 2969.58,-30.63 2972.73,-30.21 2975.9,-29.76"/>
<polygon fill="midnightblue" stroke="midnightblue" points="2232.01,-76.28 2222.11,-80.05 2232.2,-83.28 2232.01,-76.28"/>
</g>
<!-- Node13 -->
<g id="node13" class="node">
<title>Node13</title>
<g id="a_node13"><a xlink:href="../../d6/d89/dialoglayoutprogress_8cpp.html" target="_top" xlink:title=" ">
<polygon fill="white" stroke="black" points="3135,-0.5 3135,-30.5 3278,-30.5 3278,-0.5 3135,-0.5"/>
<text text-anchor="start" x="3143" y="-18.5" font-family="Helvetica,sans-Serif" font-size="10.00">src/app/seamly2d/dialogs</text>
<text text-anchor="middle" x="3206.5" y="-7.5" font-family="Helvetica,sans-Serif" font-size="10.00">/dialoglayoutprogress.cpp</text>
</a>
</g>
</g>
<!-- Node3&#45;&gt;Node13 -->
<g id="edge12" class="edge">
<title>Node3&#45;&gt;Node13</title>
<path fill="none" stroke="midnightblue" d="M2232.17,-78.87C2427.14,-71.73 2953.45,-51.11 3126.5,-31 3129.16,-30.69 3131.87,-30.35 3134.61,-29.98"/>
<polygon fill="midnightblue" stroke="midnightblue" points="2231.89,-75.38 2222.03,-79.24 2232.15,-82.38 2231.89,-75.38"/>
</g>
<!-- Node3&#45;&gt;Node14 -->
<g id="edge13" class="edge">
<title>Node3&#45;&gt;Node14</title>
<path fill="none" stroke="midnightblue" d="M2232.58,-79.34C2544.85,-70.23 3739.6,-35.15 3778.5,-31 3781.27,-30.7 3784.1,-30.37 3786.94,-29.99"/>
<polygon fill="midnightblue" stroke="midnightblue" points="2232.18,-75.85 2222.28,-79.64 2232.38,-82.85 2232.18,-75.85"/>
</g>
<!-- Node15 -->
<g id="node15" class="node">
<title>Node15</title>
<g id="a_node15"><a xlink:href="../../de/d87/dialognewpattern_8cpp.html" target="_top" xlink:title=" ">
<polygon fill="white" stroke="black" points="3296,-0.5 3296,-30.5 3437,-30.5 3437,-0.5 3296,-0.5"/>
<text text-anchor="start" x="3304" y="-18.5" font-family="Helvetica,sans-Serif" font-size="10.00">src/app/seamly2d/dialogs</text>
<text text-anchor="middle" x="3366.5" y="-7.5" font-family="Helvetica,sans-Serif" font-size="10.00">/dialognewpattern.cpp</text>
</a>
</g>
</g>
<!-- Node3&#45;&gt;Node15 -->
<g id="edge14" class="edge">
<title>Node3&#45;&gt;Node15</title>
<path fill="none" stroke="midnightblue" d="M2232.13,-79.52C2448.81,-73.5 3081.92,-54.35 3287.5,-31 3290.27,-30.69 3293.09,-30.33 3295.94,-29.95"/>
<polygon fill="midnightblue" stroke="midnightblue" points="2232.03,-76.03 2222.13,-79.8 2232.22,-83.02 2232.03,-76.03"/>
</g>
<!-- Node16 -->
<g id="node16" class="node">
<title>Node16</title>
<g id="a_node16"><a xlink:href="../../d5/dc5/dialogpreferences_8cpp.html" target="_top" xlink:title=" ">
<polygon fill="white" stroke="black" points="3455,-0.5 3455,-30.5 3596,-30.5 3596,-0.5 3455,-0.5"/>
<text text-anchor="start" x="3463" y="-18.5" font-family="Helvetica,sans-Serif" font-size="10.00">src/app/seamly2d/dialogs</text>
<text text-anchor="middle" x="3525.5" y="-7.5" font-family="Helvetica,sans-Serif" font-size="10.00">/dialogpreferences.cpp</text>
</a>
</g>
</g>
<!-- Node3&#45;&gt;Node16 -->
<g id="edge15" class="edge">
<title>Node3&#45;&gt;Node16</title>
<path fill="none" stroke="midnightblue" d="M2232.43,-79.22C2488.16,-71.23 3326.11,-44.34 3446.5,-31 3449.27,-30.69 3452.09,-30.35 3454.94,-29.97"/>
<polygon fill="midnightblue" stroke="midnightblue" points="2232.03,-75.73 2222.14,-79.54 2232.24,-82.72 2232.03,-75.73"/>
</g>
<!-- Node17 -->
<g id="node17" class="node">
<title>Node17</title>
<g id="a_node17"><a xlink:href="../../d5/d18/dialogpatternproperties_8cpp.html" target="_top" xlink:title=" ">
<polygon fill="white" stroke="black" points="3614,-0.5 3614,-30.5 3769,-30.5 3769,-0.5 3614,-0.5"/>
<text text-anchor="start" x="3622" y="-18.5" font-family="Helvetica,sans-Serif" font-size="10.00">src/app/seamly2d/dialogs</text>
<text text-anchor="middle" x="3691.5" y="-7.5" font-family="Helvetica,sans-Serif" font-size="10.00">/dialogpatternproperties.cpp</text>
</a>
</g>
</g>
<!-- Node3&#45;&gt;Node17 -->
<g id="edge16" class="edge">
<title>Node3&#45;&gt;Node17</title>
<path fill="none" stroke="midnightblue" d="M2232.58,-79.19C2518.37,-70.23 3536.75,-37.96 3605.5,-31 3608.21,-30.73 3610.97,-30.42 3613.75,-30.08"/>
<polygon fill="midnightblue" stroke="midnightblue" points="2232.21,-75.7 2222.32,-79.51 2232.43,-82.69 2232.21,-75.7"/>
</g>
<!-- Node18 -->
<g id="node18" class="node">
<title>Node18</title>
<g id="a_node18"><a xlink:href="../../dd/d54/export__layout__dialog_8cpp.html" target="_top" xlink:title=" ">
<polygon fill="white" stroke="black" points="521,-0.5 521,-30.5 664,-30.5 664,-0.5 521,-0.5"/>
<text text-anchor="start" x="529" y="-18.5" font-family="Helvetica,sans-Serif" font-size="10.00">src/app/seamly2d/dialogs</text>
<text text-anchor="middle" x="592.5" y="-7.5" font-family="Helvetica,sans-Serif" font-size="10.00">/export_layout_dialog.cpp</text>
</a>
</g>
</g>
<!-- Node3&#45;&gt;Node18 -->
<g id="edge17" class="edge">
<title>Node3&#45;&gt;Node18</title>
<path fill="none" stroke="midnightblue" d="M2084.85,-80.42C1824.88,-76.36 950.96,-60.81 672.5,-31 669.83,-30.71 667.12,-30.39 664.39,-30.04"/>
<polygon fill="midnightblue" stroke="midnightblue" points="2084.88,-83.92 2094.94,-80.57 2084.99,-76.92 2084.88,-83.92"/>
</g>
<!-- Node19 -->
<g id="node19" class="node">
<title>Node19</title>
<g id="a_node19"><a xlink:href="../../db/d5c/groups__widget_8cpp.html" target="_top" xlink:title=" ">
<polygon fill="white" stroke="black" points="682,-0.5 682,-30.5 823,-30.5 823,-0.5 682,-0.5"/>
<text text-anchor="start" x="690" y="-18.5" font-family="Helvetica,sans-Serif" font-size="10.00">src/app/seamly2d/dialogs</text>
<text text-anchor="middle" x="752.5" y="-7.5" font-family="Helvetica,sans-Serif" font-size="10.00">/groups_widget.cpp</text>
</a>
</g>
</g>
<!-- Node3&#45;&gt;Node19 -->
<g id="edge18" class="edge">
<title>Node3&#45;&gt;Node19</title>
<path fill="none" stroke="midnightblue" d="M2084.71,-80.09C1843.13,-75.24 1077.32,-58.1 831.5,-31 828.73,-30.69 825.91,-30.35 823.06,-29.97"/>
<polygon fill="midnightblue" stroke="midnightblue" points="2084.73,-83.59 2094.79,-80.29 2084.87,-76.59 2084.73,-83.59"/>
</g>
<!-- Node20 -->
<g id="node20" class="node">
<title>Node20</title>
<g id="a_node20"><a xlink:href="../../dd/d84/shortcuts__dialog_8cpp.html" target="_top" xlink:title=" ">
<polygon fill="white" stroke="black" points="841,-0.5 841,-30.5 982,-30.5 982,-0.5 841,-0.5"/>
<text text-anchor="start" x="849" y="-18.5" font-family="Helvetica,sans-Serif" font-size="10.00">src/app/seamly2d/dialogs</text>
<text text-anchor="middle" x="911.5" y="-7.5" font-family="Helvetica,sans-Serif" font-size="10.00">/shortcuts_dialog.cpp</text>
</a>
</g>
</g>
<!-- Node3&#45;&gt;Node20 -->
<g id="edge19" class="edge">
<title>Node3&#45;&gt;Node20</title>
<path fill="none" stroke="midnightblue" d="M2084.55,-81.78C1899.67,-81.73 1402.68,-76.94 991.5,-31 988.41,-30.66 985.27,-30.26 982.09,-29.83"/>
<polygon fill="midnightblue" stroke="midnightblue" points="2084.7,-85.28 2094.7,-81.78 2084.7,-78.28 2084.7,-85.28"/>
</g>
<!-- Node21 -->
<g id="node21" class="node">
<title>Node21</title>
<g id="a_node21"><a xlink:href="../../d5/de4/vabstractlayoutdialog_8cpp.html" target="_top" xlink:title=" ">
<polygon fill="white" stroke="black" points="1000.5,-0.5 1000.5,-30.5 1146.5,-30.5 1146.5,-0.5 1000.5,-0.5"/>
<text text-anchor="start" x="1008.5" y="-18.5" font-family="Helvetica,sans-Serif" font-size="10.00">src/app/seamly2d/dialogs</text>
<text text-anchor="middle" x="1073.5" y="-7.5" font-family="Helvetica,sans-Serif" font-size="10.00">/vabstractlayoutdialog.cpp</text>
</a>
</g>
</g>
<!-- Node3&#45;&gt;Node21 -->
<g id="edge20" class="edge">
<title>Node3&#45;&gt;Node21</title>
<path fill="none" stroke="midnightblue" d="M2084.8,-80.93C1918.51,-78.96 1501.68,-70.17 1155.5,-31 1152.63,-30.67 1149.7,-30.31 1146.75,-29.92"/>
<polygon fill="midnightblue" stroke="midnightblue" points="2084.87,-84.43 2094.91,-81.05 2084.95,-77.43 2084.87,-84.43"/>
</g>
<!-- Node22 -->
<g id="node22" class="node">
<title>Node22</title>
<g id="a_node22"><a xlink:href="../../d2/df4/show__info__dialog_8cpp.html" target="_top" xlink:title=" ">
<polygon fill="white" stroke="black" points="1165,-0.5 1165,-30.5 1306,-30.5 1306,-0.5 1165,-0.5"/>
<text text-anchor="start" x="1173" y="-18.5" font-family="Helvetica,sans-Serif" font-size="10.00">src/app/seamly2d/dialogs</text>
<text text-anchor="middle" x="1235.5" y="-7.5" font-family="Helvetica,sans-Serif" font-size="10.00">/show_info_dialog.cpp</text>
</a>
</g>
</g>
<!-- Node3&#45;&gt;Node22 -->
<g id="edge21" class="edge">
<title>Node3&#45;&gt;Node22</title>
<path fill="none" stroke="midnightblue" d="M2084.48,-80.1C1937.3,-76.64 1597.69,-65.33 1314.5,-31 1311.73,-30.66 1308.91,-30.29 1306.07,-29.89"/>
<polygon fill="midnightblue" stroke="midnightblue" points="2084.66,-83.6 2094.74,-80.33 2084.82,-76.6 2084.66,-83.6"/>
</g>
<!-- Node23 -->
<g id="node23" class="node">
<title>Node23</title>
<g id="a_node23"><a xlink:href="../../dc/d14/app_2seamly2d_2main_8cpp.html" target="_top" xlink:title=" ">
<polygon fill="white" stroke="black" points="145,-6 145,-25 296,-25 296,-6 145,-6"/>
<text text-anchor="middle" x="220.5" y="-13" font-family="Helvetica,sans-Serif" font-size="10.00">src/app/seamly2d/main.cpp</text>
</a>
</g>
</g>
<!-- Node3&#45;&gt;Node23 -->
<g id="edge22" class="edge">
<title>Node3&#45;&gt;Node23</title>
<path fill="none" stroke="midnightblue" d="M2084.43,-80.88C1784.53,-78.17 659.61,-65.85 305.5,-31 291.79,-29.65 276.96,-27.4 263.58,-25.07"/>
<polygon fill="midnightblue" stroke="midnightblue" points="2084.72,-84.39 2094.75,-80.98 2084.78,-77.39 2084.72,-84.39"/>
</g>
<!-- Node3&#45;&gt;Node24 -->
<g id="edge23" class="edge">
<title>Node3&#45;&gt;Node24</title>
<path fill="none" stroke="midnightblue" d="M2232.08,-79.35C2329.59,-76.5 2506.96,-71.33 2658.5,-67 3226.94,-50.76 3370.42,-73.44 3937.5,-31 3956.49,-29.58 3977.11,-27.32 3995.76,-25.01"/>
<polygon fill="midnightblue" stroke="midnightblue" points="2231.93,-75.85 2222.04,-79.64 2232.13,-82.85 2231.93,-75.85"/>
</g>
<!-- Node25 -->
<g id="node25" class="node">
<title>Node25</title>
<g id="a_node25"><a xlink:href="../../d3/d49/vpattern_8cpp.html" target="_top" xlink:title=" ">
<polygon fill="white" stroke="black" points="1324,-0.5 1324,-30.5 1449,-30.5 1449,-0.5 1324,-0.5"/>
<text text-anchor="start" x="1332" y="-18.5" font-family="Helvetica,sans-Serif" font-size="10.00">src/app/seamly2d/xml</text>
<text text-anchor="middle" x="1386.5" y="-7.5" font-family="Helvetica,sans-Serif" font-size="10.00">/vpattern.cpp</text>
</a>
</g>
</g>
<!-- Node3&#45;&gt;Node25 -->
<g id="edge24" class="edge">
<title>Node3&#45;&gt;Node25</title>
<path fill="none" stroke="midnightblue" d="M2084.81,-79.33C1956.73,-74.86 1684.94,-62.28 1457.5,-31 1454.76,-30.62 1451.96,-30.2 1449.14,-29.75"/>
<polygon fill="midnightblue" stroke="midnightblue" points="2084.79,-82.83 2094.9,-79.68 2085.03,-75.84 2084.79,-82.83"/>
</g>
<!-- Node26 -->
<g id="node26" class="node">
<title>Node26</title>
<g id="a_node26"><a xlink:href="../../d8/dd9/mainwindow_8cpp.html" target="_top" xlink:title=" ">
<polygon fill="white" stroke="black" points="314.5,-6 314.5,-25 502.5,-25 502.5,-6 314.5,-6"/>
<text text-anchor="middle" x="408.5" y="-13" font-family="Helvetica,sans-Serif" font-size="10.00">src/app/seamly2d/mainwindow.cpp</text>
</a>
</g>
</g>
<!-- Node3&#45;&gt;Node26 -->
<g id="edge25" class="edge">
<title>Node3&#45;&gt;Node26</title>
<path fill="none" stroke="midnightblue" d="M2084.76,-82.1C1852.79,-83.39 1117.45,-82.79 511.5,-31 495.04,-29.59 477.18,-27.34 461.04,-25.02"/>
<polygon fill="midnightblue" stroke="midnightblue" points="2084.79,-85.6 2094.77,-82.04 2084.75,-78.6 2084.79,-85.6"/>
</g>
<!-- Node28&#45;&gt;Node4 -->
<g id="edge28" class="edge">
<title>Node28&#45;&gt;Node4</title>
<path fill="none" stroke="midnightblue" d="M271.67,-70.41C229.17,-59.4 163.9,-42.5 117.79,-30.56"/>
<polygon fill="midnightblue" stroke="midnightblue" points="270.87,-73.82 281.43,-72.94 272.62,-67.04 270.87,-73.82"/>
</g>
<!-- Node28&#45;&gt;Node23 -->
<g id="edge29" class="edge">
<title>Node28&#45;&gt;Node23</title>
<path fill="none" stroke="midnightblue" d="M293.41,-66.92C274.83,-54.07 248.38,-35.78 232.98,-25.13"/>
<polygon fill="midnightblue" stroke="midnightblue" points="291.61,-69.93 301.82,-72.73 295.59,-64.17 291.61,-69.93"/>
</g>
<!-- Node28&#45;&gt;Node26 -->
<g id="edge30" class="edge">
<title>Node28&#45;&gt;Node26</title>
<path fill="none" stroke="midnightblue" d="M335.59,-66.92C354.17,-54.07 380.62,-35.78 396.02,-25.13"/>
<polygon fill="midnightblue" stroke="midnightblue" points="333.41,-64.17 327.18,-72.73 337.39,-69.93 333.41,-64.17"/>
</g>
</g>
</svg>
