<?xml version="1.0" encoding="UTF-8" standalone="no"?>
<!DOCTYPE svg PUBLIC "-//W3C//DTD SVG 1.1//EN"
 "http://www.w3.org/Graphics/SVG/1.1/DTD/svg11.dtd">
<!-- Generated by graphviz version 2.43.0 (0)
 -->
<!-- Title: src/app/seamly2d/dialogs/dialoglayoutsettings.h Pages: 1 -->
<svg width="4173pt" height="240pt"
 viewBox="0.00 0.00 4173.00 240.00" xmlns="http://www.w3.org/2000/svg" xmlns:xlink="http://www.w3.org/1999/xlink">
<g id="graph0" class="graph" transform="scale(1 1) rotate(0) translate(4 236)">
<title>src/app/seamly2d/dialogs/dialoglayoutsettings.h</title>
<polygon fill="white" stroke="transparent" points="-4,4 -4,-236 4169,-236 4169,4 -4,4"/>
<!-- Node1 -->
<g id="node1" class="node">
<title>Node1</title>
<g id="a_node1"><a xlink:title=" ">
<polygon fill="#bfbfbf" stroke="black" points="2731,-201.5 2731,-231.5 2872,-231.5 2872,-201.5 2731,-201.5"/>
<text text-anchor="start" x="2739" y="-219.5" font-family="Helvetica,sans-Serif" font-size="10.00">src/app/seamly2d/dialogs</text>
<text text-anchor="middle" x="2801.5" y="-208.5" font-family="Helvetica,sans-Serif" font-size="10.00">/dialoglayoutsettings.h</text>
</a>
</g>
</g>
<!-- Node2 -->
<g id="node2" class="node">
<title>Node2</title>
<g id="a_node2"><a xlink:href="../../dd/d57/vcmdexport_8h.html" target="_top" xlink:title=" ">
<polygon fill="white" stroke="black" points="2574,-134.5 2574,-164.5 2701,-164.5 2701,-134.5 2574,-134.5"/>
<text text-anchor="start" x="2582" y="-152.5" font-family="Helvetica,sans-Serif" font-size="10.00">src/app/seamly2d/core</text>
<text text-anchor="middle" x="2637.5" y="-141.5" font-family="Helvetica,sans-Serif" font-size="10.00">/vcmdexport.h</text>
</a>
</g>
</g>
<!-- Node1&#45;&gt;Node2 -->
<g id="edge1" class="edge">
<title>Node1&#45;&gt;Node2</title>
<path fill="none" stroke="midnightblue" d="M2756.54,-197.68C2730.24,-187.26 2697.5,-174.28 2673.02,-164.58"/>
<polygon fill="midnightblue" stroke="midnightblue" points="2755.33,-200.97 2765.91,-201.4 2757.91,-194.46 2755.33,-200.97"/>
</g>
<!-- Node14 -->
<g id="node14" class="node">
<title>Node14</title>
<g id="a_node14"><a xlink:href="../../db/def/dialoglayoutsettings_8cpp.html" target="_top" xlink:title=" ">
<polygon fill="white" stroke="black" points="3785,-0.5 3785,-30.5 3926,-30.5 3926,-0.5 3785,-0.5"/>
<text text-anchor="start" x="3793" y="-18.5" font-family="Helvetica,sans-Serif" font-size="10.00">src/app/seamly2d/dialogs</text>
<text text-anchor="middle" x="3855.5" y="-7.5" font-family="Helvetica,sans-Serif" font-size="10.00">/dialoglayoutsettings.cpp</text>
</a>
</g>
</g>
<!-- Node1&#45;&gt;Node14 -->
<g id="edge32" class="edge">
<title>Node1&#45;&gt;Node14</title>
<path fill="none" stroke="midnightblue" d="M2882.13,-200.28C3081.64,-162.61 3595.92,-65.51 3784.67,-29.87"/>
<polygon fill="midnightblue" stroke="midnightblue" points="2881.47,-196.84 2872.29,-202.13 2882.77,-203.72 2881.47,-196.84"/>
</g>
<!-- Node23 -->
<g id="node23" class="node">
<title>Node23</title>
<g id="a_node23"><a xlink:href="../../d8/de8/mainwindowsnogui_8cpp.html" target="_top" xlink:title=" ">
<polygon fill="white" stroke="black" points="3944,-6 3944,-25 4165,-25 4165,-6 3944,-6"/>
<text text-anchor="middle" x="4054.5" y="-13" font-family="Helvetica,sans-Serif" font-size="10.00">src/app/seamly2d/mainwindowsnogui.cpp</text>
</a>
</g>
</g>
<!-- Node1&#45;&gt;Node23 -->
<g id="edge33" class="edge">
<title>Node1&#45;&gt;Node23</title>
<path fill="none" stroke="midnightblue" d="M2882.2,-204.95C2956.02,-195.15 3068.22,-179.87 3165.5,-165 3487.24,-115.82 3873.03,-48.52 4006.39,-25.02"/>
<polygon fill="midnightblue" stroke="midnightblue" points="2881.5,-201.52 2872.04,-206.3 2882.42,-208.46 2881.5,-201.52"/>
</g>
<!-- Node27 -->
<g id="node27" class="node">
<title>Node27</title>
<g id="a_node27"><a xlink:href="../../df/d9b/vcmdexport_8cpp.html" target="_top" xlink:title=" ">
<polygon fill="white" stroke="black" points="2633,-67.5 2633,-97.5 2760,-97.5 2760,-67.5 2633,-67.5"/>
<text text-anchor="start" x="2641" y="-85.5" font-family="Helvetica,sans-Serif" font-size="10.00">src/app/seamly2d/core</text>
<text text-anchor="middle" x="2696.5" y="-74.5" font-family="Helvetica,sans-Serif" font-size="10.00">/vcmdexport.cpp</text>
</a>
</g>
</g>
<!-- Node1&#45;&gt;Node27 -->
<g id="edge31" class="edge">
<title>Node1&#45;&gt;Node27</title>
<path fill="none" stroke="midnightblue" d="M2784.03,-193.54C2762.33,-166.25 2725.92,-120.48 2707.66,-97.52"/>
<polygon fill="midnightblue" stroke="midnightblue" points="2781.3,-195.73 2790.26,-201.37 2786.78,-191.37 2781.3,-195.73"/>
</g>
<!-- Node3 -->
<g id="node3" class="node">
<title>Node3</title>
<g id="a_node3"><a xlink:href="../../d9/d02/vapplication_8h.html" target="_top" xlink:title=" ">
<polygon fill="white" stroke="black" points="2042,-67.5 2042,-97.5 2169,-97.5 2169,-67.5 2042,-67.5"/>
<text text-anchor="start" x="2050" y="-85.5" font-family="Helvetica,sans-Serif" font-size="10.00">src/app/seamly2d/core</text>
<text text-anchor="middle" x="2105.5" y="-74.5" font-family="Helvetica,sans-Serif" font-size="10.00">/vapplication.h</text>
</a>
</g>
</g>
<!-- Node2&#45;&gt;Node3 -->
<g id="edge2" class="edge">
<title>Node2&#45;&gt;Node3</title>
<path fill="none" stroke="midnightblue" d="M2563.67,-139.48C2458.75,-126.66 2268.29,-103.39 2169.22,-91.28"/>
<polygon fill="midnightblue" stroke="midnightblue" points="2563.51,-142.99 2573.86,-140.72 2564.36,-136.04 2563.51,-142.99"/>
</g>
<!-- Node2&#45;&gt;Node27 -->
<g id="edge26" class="edge">
<title>Node2&#45;&gt;Node27</title>
<path fill="none" stroke="midnightblue" d="M2657.25,-126.74C2665.98,-117.12 2676,-106.09 2683.72,-97.58"/>
<polygon fill="midnightblue" stroke="midnightblue" points="2654.43,-124.64 2650.3,-134.4 2659.61,-129.34 2654.43,-124.64"/>
</g>
<!-- Node28 -->
<g id="node28" class="node">
<title>Node28</title>
<g id="a_node28"><a xlink:href="../../d9/d53/mainwindow_8h.html" target="_top" xlink:title=" ">
<polygon fill="white" stroke="black" points="226.5,-73 226.5,-92 402.5,-92 402.5,-73 226.5,-73"/>
<text text-anchor="middle" x="314.5" y="-80" font-family="Helvetica,sans-Serif" font-size="10.00">src/app/seamly2d/mainwindow.h</text>
</a>
</g>
</g>
<!-- Node2&#45;&gt;Node28 -->
<g id="edge27" class="edge">
<title>Node2&#45;&gt;Node28</title>
<path fill="none" stroke="midnightblue" d="M2563.77,-146.44C2219.95,-136.82 775.21,-96.39 402.52,-85.96"/>
<polygon fill="midnightblue" stroke="midnightblue" points="2563.76,-149.94 2573.86,-146.72 2563.96,-142.94 2563.76,-149.94"/>
</g>
<!-- Node4 -->
<g id="node4" class="node">
<title>Node4</title>
<g id="a_node4"><a xlink:href="../../d3/dd8/vapplication_8cpp.html" target="_top" xlink:title=" ">
<polygon fill="white" stroke="black" points="0,-0.5 0,-30.5 127,-30.5 127,-0.5 0,-0.5"/>
<text text-anchor="start" x="8" y="-18.5" font-family="Helvetica,sans-Serif" font-size="10.00">src/app/seamly2d/core</text>
<text text-anchor="middle" x="63.5" y="-7.5" font-family="Helvetica,sans-Serif" font-size="10.00">/vapplication.cpp</text>
</a>
</g>
</g>
<!-- Node3&#45;&gt;Node4 -->
<g id="edge3" class="edge">
<title>Node3&#45;&gt;Node4</title>
<path fill="none" stroke="midnightblue" d="M2031.41,-81.32C1719.66,-80.28 513.26,-73.56 135.5,-31 132.71,-30.69 129.87,-30.32 127.01,-29.91"/>
<polygon fill="midnightblue" stroke="midnightblue" points="2031.67,-84.82 2041.68,-81.35 2031.69,-77.82 2031.67,-84.82"/>
</g>
<!-- Node5 -->
<g id="node5" class="node">
<title>Node5</title>
<g id="a_node5"><a xlink:href="../../d2/d2d/preferencesconfigurationpage_8cpp.html" target="_top" xlink:title=" ">
<polygon fill="white" stroke="black" points="1467,-0.5 1467,-30.5 1714,-30.5 1714,-0.5 1467,-0.5"/>
<text text-anchor="start" x="1475" y="-18.5" font-family="Helvetica,sans-Serif" font-size="10.00">src/app/seamly2d/dialogs</text>
<text text-anchor="middle" x="1590.5" y="-7.5" font-family="Helvetica,sans-Serif" font-size="10.00">/configpages/preferencesconfigurationpage.cpp</text>
</a>
</g>
</g>
<!-- Node3&#45;&gt;Node5 -->
<g id="edge4" class="edge">
<title>Node3&#45;&gt;Node5</title>
<path fill="none" stroke="midnightblue" d="M2031.87,-72.21C1945.61,-61.32 1801.81,-43.17 1701.88,-30.56"/>
<polygon fill="midnightblue" stroke="midnightblue" points="2031.47,-75.68 2041.83,-73.46 2032.35,-68.74 2031.47,-75.68"/>
</g>
<!-- Node6 -->
<g id="node6" class="node">
<title>Node6</title>
<g id="a_node6"><a xlink:href="../../d7/dfa/calculator__dialog_8cpp.html" target="_top" xlink:title=" ">
<polygon fill="white" stroke="black" points="1732,-0.5 1732,-30.5 1873,-30.5 1873,-0.5 1732,-0.5"/>
<text text-anchor="start" x="1740" y="-18.5" font-family="Helvetica,sans-Serif" font-size="10.00">src/app/seamly2d/dialogs</text>
<text text-anchor="middle" x="1802.5" y="-7.5" font-family="Helvetica,sans-Serif" font-size="10.00">/calculator_dialog.cpp</text>
</a>
</g>
</g>
<!-- Node3&#45;&gt;Node6 -->
<g id="edge5" class="edge">
<title>Node3&#45;&gt;Node6</title>
<path fill="none" stroke="midnightblue" d="M2032.17,-65.77C1982.01,-55.01 1916.11,-40.87 1867.77,-30.5"/>
<polygon fill="midnightblue" stroke="midnightblue" points="2031.47,-69.2 2041.98,-67.87 2032.94,-62.35 2031.47,-69.2"/>
</g>
<!-- Node7 -->
<g id="node7" class="node">
<title>Node7</title>
<g id="a_node7"><a xlink:href="../../dc/d20/preferencespathpage_8cpp.html" target="_top" xlink:title=" ">
<polygon fill="white" stroke="black" points="1891,-0.5 1891,-30.5 2096,-30.5 2096,-0.5 1891,-0.5"/>
<text text-anchor="start" x="1899" y="-18.5" font-family="Helvetica,sans-Serif" font-size="10.00">src/app/seamly2d/dialogs</text>
<text text-anchor="middle" x="1993.5" y="-7.5" font-family="Helvetica,sans-Serif" font-size="10.00">/configpages/preferencespathpage.cpp</text>
</a>
</g>
</g>
<!-- Node3&#45;&gt;Node7 -->
<g id="edge6" class="edge">
<title>Node3&#45;&gt;Node7</title>
<path fill="none" stroke="midnightblue" d="M2072.41,-62.3C2054.88,-52.12 2033.74,-39.85 2017.75,-30.58"/>
<polygon fill="midnightblue" stroke="midnightblue" points="2070.79,-65.4 2081.2,-67.4 2074.31,-59.35 2070.79,-65.4"/>
</g>
<!-- Node8 -->
<g id="node8" class="node">
<title>Node8</title>
<g id="a_node8"><a xlink:href="../../d9/d70/preferencesgraphicsviewpage_8cpp.html" target="_top" xlink:title=" ">
<polygon fill="white" stroke="black" points="2113.5,-0.5 2113.5,-30.5 2361.5,-30.5 2361.5,-0.5 2113.5,-0.5"/>
<text text-anchor="start" x="2121.5" y="-18.5" font-family="Helvetica,sans-Serif" font-size="10.00">src/app/seamly2d/dialogs</text>
<text text-anchor="middle" x="2237.5" y="-7.5" font-family="Helvetica,sans-Serif" font-size="10.00">/configpages/preferencesgraphicsviewpage.cpp</text>
</a>
</g>
</g>
<!-- Node3&#45;&gt;Node8 -->
<g id="edge7" class="edge">
<title>Node3&#45;&gt;Node8</title>
<path fill="none" stroke="midnightblue" d="M2143.37,-62.85C2164.24,-52.58 2189.73,-40.03 2208.91,-30.58"/>
<polygon fill="midnightblue" stroke="midnightblue" points="2141.57,-59.84 2134.14,-67.4 2144.66,-66.12 2141.57,-59.84"/>
</g>
<!-- Node9 -->
<g id="node9" class="node">
<title>Node9</title>
<g id="a_node9"><a xlink:href="../../d2/d00/vtooloptionspropertybrowser_8cpp.html" target="_top" xlink:title=" ">
<polygon fill="white" stroke="black" points="2379.5,-0.5 2379.5,-30.5 2559.5,-30.5 2559.5,-0.5 2379.5,-0.5"/>
<text text-anchor="start" x="2387.5" y="-18.5" font-family="Helvetica,sans-Serif" font-size="10.00">src/app/seamly2d/core</text>
<text text-anchor="middle" x="2469.5" y="-7.5" font-family="Helvetica,sans-Serif" font-size="10.00">/vtooloptionspropertybrowser.cpp</text>
</a>
</g>
</g>
<!-- Node3&#45;&gt;Node9 -->
<g id="edge8" class="edge">
<title>Node3&#45;&gt;Node9</title>
<path fill="none" stroke="midnightblue" d="M2179.34,-68.32C2240.79,-57.34 2328.07,-41.75 2390.83,-30.55"/>
<polygon fill="midnightblue" stroke="midnightblue" points="2178.55,-64.9 2169.32,-70.1 2179.78,-71.79 2178.55,-64.9"/>
</g>
<!-- Node10 -->
<g id="node10" class="node">
<title>Node10</title>
<g id="a_node10"><a xlink:href="../../dd/dc2/decimalchart__dialog_8cpp.html" target="_top" xlink:title=" ">
<polygon fill="white" stroke="black" points="2578,-0.5 2578,-30.5 2719,-30.5 2719,-0.5 2578,-0.5"/>
<text text-anchor="start" x="2586" y="-18.5" font-family="Helvetica,sans-Serif" font-size="10.00">src/app/seamly2d/dialogs</text>
<text text-anchor="middle" x="2648.5" y="-7.5" font-family="Helvetica,sans-Serif" font-size="10.00">/decimalchart_dialog.cpp</text>
</a>
</g>
</g>
<!-- Node3&#45;&gt;Node10 -->
<g id="edge9" class="edge">
<title>Node3&#45;&gt;Node10</title>
<path fill="none" stroke="midnightblue" d="M2179.34,-75.07C2270.89,-66.72 2431.59,-50.85 2568.5,-31 2571.57,-30.55 2574.71,-30.08 2577.87,-29.58"/>
<polygon fill="midnightblue" stroke="midnightblue" points="2178.98,-71.59 2169.34,-75.98 2179.61,-78.56 2178.98,-71.59"/>
</g>
<!-- Node11 -->
<g id="node11" class="node">
<title>Node11</title>
<g id="a_node11"><a xlink:href="../../dc/d63/preferencespatternpage_8cpp.html" target="_top" xlink:title=" ">
<polygon fill="white" stroke="black" points="2737.5,-0.5 2737.5,-30.5 2955.5,-30.5 2955.5,-0.5 2737.5,-0.5"/>
<text text-anchor="start" x="2745.5" y="-18.5" font-family="Helvetica,sans-Serif" font-size="10.00">src/app/seamly2d/dialogs</text>
<text text-anchor="middle" x="2846.5" y="-7.5" font-family="Helvetica,sans-Serif" font-size="10.00">/configpages/preferencespatternpage.cpp</text>
</a>
</g>
</g>
<!-- Node3&#45;&gt;Node11 -->
<g id="edge10" class="edge">
<title>Node3&#45;&gt;Node11</title>
<path fill="none" stroke="midnightblue" d="M2179.38,-76.47C2295.98,-68.31 2529.75,-51.07 2727.5,-31 2730.71,-30.67 2733.97,-30.33 2737.25,-29.98"/>
<polygon fill="midnightblue" stroke="midnightblue" points="2178.88,-72.99 2169.15,-77.18 2179.37,-79.98 2178.88,-72.99"/>
</g>
<!-- Node12 -->
<g id="node12" class="node">
<title>Node12</title>
<g id="a_node12"><a xlink:href="../../dd/d64/dialogaboutapp_8cpp.html" target="_top" xlink:title=" ">
<polygon fill="white" stroke="black" points="2974,-0.5 2974,-30.5 3115,-30.5 3115,-0.5 2974,-0.5"/>
<text text-anchor="start" x="2982" y="-18.5" font-family="Helvetica,sans-Serif" font-size="10.00">src/app/seamly2d/dialogs</text>
<text text-anchor="middle" x="3044.5" y="-7.5" font-family="Helvetica,sans-Serif" font-size="10.00">/dialogaboutapp.cpp</text>
</a>
</g>
</g>
<!-- Node3&#45;&gt;Node12 -->
<g id="edge11" class="edge">
<title>Node3&#45;&gt;Node12</title>
<path fill="none" stroke="midnightblue" d="M2179.43,-80.15C2328.44,-76.78 2675.33,-65.58 2964.5,-31 2967.58,-30.63 2970.73,-30.22 2973.9,-29.77"/>
<polygon fill="midnightblue" stroke="midnightblue" points="2178.96,-76.66 2169.04,-80.38 2179.12,-83.66 2178.96,-76.66"/>
</g>
<!-- Node13 -->
<g id="node13" class="node">
<title>Node13</title>
<g id="a_node13"><a xlink:href="../../d6/d89/dialoglayoutprogress_8cpp.html" target="_top" xlink:title=" ">
<polygon fill="white" stroke="black" points="3133,-0.5 3133,-30.5 3276,-30.5 3276,-0.5 3133,-0.5"/>
<text text-anchor="start" x="3141" y="-18.5" font-family="Helvetica,sans-Serif" font-size="10.00">src/app/seamly2d/dialogs</text>
<text text-anchor="middle" x="3204.5" y="-7.5" font-family="Helvetica,sans-Serif" font-size="10.00">/dialoglayoutprogress.cpp</text>
</a>
</g>
</g>
<!-- Node3&#45;&gt;Node13 -->
<g id="edge12" class="edge">
<title>Node3&#45;&gt;Node13</title>
<path fill="none" stroke="midnightblue" d="M2179.49,-79.08C2381.81,-72.27 2941.27,-52.06 3124.5,-31 3127.16,-30.69 3129.87,-30.35 3132.61,-29.99"/>
<polygon fill="midnightblue" stroke="midnightblue" points="2179.15,-75.59 2169.27,-79.43 2179.38,-82.59 2179.15,-75.59"/>
</g>
<!-- Node3&#45;&gt;Node14 -->
<g id="edge13" class="edge">
<title>Node3&#45;&gt;Node14</title>
<path fill="none" stroke="midnightblue" d="M2179.3,-79.42C2497.31,-70.45 3736.26,-35.28 3776.5,-31 3779.27,-30.71 3782.1,-30.37 3784.94,-30"/>
<polygon fill="midnightblue" stroke="midnightblue" points="2179.17,-75.92 2169.27,-79.7 2179.37,-82.92 2179.17,-75.92"/>
</g>
<!-- Node15 -->
<g id="node15" class="node">
<title>Node15</title>
<g id="a_node15"><a xlink:href="../../de/d87/dialognewpattern_8cpp.html" target="_top" xlink:title=" ">
<polygon fill="white" stroke="black" points="3294,-0.5 3294,-30.5 3435,-30.5 3435,-0.5 3294,-0.5"/>
<text text-anchor="start" x="3302" y="-18.5" font-family="Helvetica,sans-Serif" font-size="10.00">src/app/seamly2d/dialogs</text>
<text text-anchor="middle" x="3364.5" y="-7.5" font-family="Helvetica,sans-Serif" font-size="10.00">/dialognewpattern.cpp</text>
</a>
</g>
</g>
<!-- Node3&#45;&gt;Node15 -->
<g id="edge14" class="edge">
<title>Node3&#45;&gt;Node15</title>
<path fill="none" stroke="midnightblue" d="M2179.31,-79.68C2402.73,-73.97 3069.63,-55.31 3285.5,-31 3288.27,-30.69 3291.09,-30.34 3293.94,-29.95"/>
<polygon fill="midnightblue" stroke="midnightblue" points="2178.92,-76.19 2169.01,-79.95 2179.09,-83.19 2178.92,-76.19"/>
</g>
<!-- Node16 -->
<g id="node16" class="node">
<title>Node16</title>
<g id="a_node16"><a xlink:href="../../d5/d18/dialogpatternproperties_8cpp.html" target="_top" xlink:title=" ">
<polygon fill="white" stroke="black" points="3453,-0.5 3453,-30.5 3608,-30.5 3608,-0.5 3453,-0.5"/>
<text text-anchor="start" x="3461" y="-18.5" font-family="Helvetica,sans-Serif" font-size="10.00">src/app/seamly2d/dialogs</text>
<text text-anchor="middle" x="3530.5" y="-7.5" font-family="Helvetica,sans-Serif" font-size="10.00">/dialogpatternproperties.cpp</text>
</a>
</g>
</g>
<!-- Node3&#45;&gt;Node16 -->
<g id="edge15" class="edge">
<title>Node3&#45;&gt;Node16</title>
<path fill="none" stroke="midnightblue" d="M2179.26,-79.28C2441.36,-71.3 3318.76,-43.92 3444.5,-31 3447.21,-30.72 3449.97,-30.41 3452.75,-30.07"/>
<polygon fill="midnightblue" stroke="midnightblue" points="2178.98,-75.78 2169.09,-79.59 2179.19,-82.78 2178.98,-75.78"/>
</g>
<!-- Node17 -->
<g id="node17" class="node">
<title>Node17</title>
<g id="a_node17"><a xlink:href="../../d5/dc5/dialogpreferences_8cpp.html" target="_top" xlink:title=" ">
<polygon fill="white" stroke="black" points="3626,-0.5 3626,-30.5 3767,-30.5 3767,-0.5 3626,-0.5"/>
<text text-anchor="start" x="3634" y="-18.5" font-family="Helvetica,sans-Serif" font-size="10.00">src/app/seamly2d/dialogs</text>
<text text-anchor="middle" x="3696.5" y="-7.5" font-family="Helvetica,sans-Serif" font-size="10.00">/dialogpreferences.cpp</text>
</a>
</g>
</g>
<!-- Node3&#45;&gt;Node17 -->
<g id="edge16" class="edge">
<title>Node3&#45;&gt;Node17</title>
<path fill="none" stroke="midnightblue" d="M2179.48,-79.33C2473.31,-70.69 3545.44,-38.77 3617.5,-31 3620.27,-30.7 3623.09,-30.36 3625.94,-29.99"/>
<polygon fill="midnightblue" stroke="midnightblue" points="2179.25,-75.84 2169.36,-79.63 2179.46,-82.84 2179.25,-75.84"/>
</g>
<!-- Node18 -->
<g id="node18" class="node">
<title>Node18</title>
<g id="a_node18"><a xlink:href="../../dd/d54/export__layout__dialog_8cpp.html" target="_top" xlink:title=" ">
<polygon fill="white" stroke="black" points="521,-0.5 521,-30.5 664,-30.5 664,-0.5 521,-0.5"/>
<text text-anchor="start" x="529" y="-18.5" font-family="Helvetica,sans-Serif" font-size="10.00">src/app/seamly2d/dialogs</text>
<text text-anchor="middle" x="592.5" y="-7.5" font-family="Helvetica,sans-Serif" font-size="10.00">/export_layout_dialog.cpp</text>
</a>
</g>
</g>
<!-- Node3&#45;&gt;Node18 -->
<g id="edge17" class="edge">
<title>Node3&#45;&gt;Node18</title>
<path fill="none" stroke="midnightblue" d="M2031.51,-80.3C1777.21,-75.97 939.97,-59.8 672.5,-31 669.83,-30.71 667.12,-30.39 664.39,-30.03"/>
<polygon fill="midnightblue" stroke="midnightblue" points="2031.69,-83.81 2041.75,-80.48 2031.81,-76.81 2031.69,-83.81"/>
</g>
<!-- Node19 -->
<g id="node19" class="node">
<title>Node19</title>
<g id="a_node19"><a xlink:href="../../db/d5c/groups__widget_8cpp.html" target="_top" xlink:title=" ">
<polygon fill="white" stroke="black" points="682,-0.5 682,-30.5 823,-30.5 823,-0.5 682,-0.5"/>
<text text-anchor="start" x="690" y="-18.5" font-family="Helvetica,sans-Serif" font-size="10.00">src/app/seamly2d/dialogs</text>
<text text-anchor="middle" x="752.5" y="-7.5" font-family="Helvetica,sans-Serif" font-size="10.00">/groups_widget.cpp</text>
</a>
</g>
</g>
<!-- Node3&#45;&gt;Node19 -->
<g id="edge18" class="edge">
<title>Node3&#45;&gt;Node19</title>
<path fill="none" stroke="midnightblue" d="M2031.79,-82.22C1835.78,-83.36 1285.65,-81.42 831.5,-31 828.73,-30.69 825.91,-30.34 823.06,-29.96"/>
<polygon fill="midnightblue" stroke="midnightblue" points="2031.99,-85.72 2041.96,-82.16 2031.94,-78.72 2031.99,-85.72"/>
</g>
<!-- Node20 -->
<g id="node20" class="node">
<title>Node20</title>
<g id="a_node20"><a xlink:href="../../d2/df4/show__info__dialog_8cpp.html" target="_top" xlink:title=" ">
<polygon fill="white" stroke="black" points="841,-0.5 841,-30.5 982,-30.5 982,-0.5 841,-0.5"/>
<text text-anchor="start" x="849" y="-18.5" font-family="Helvetica,sans-Serif" font-size="10.00">src/app/seamly2d/dialogs</text>
<text text-anchor="middle" x="911.5" y="-7.5" font-family="Helvetica,sans-Serif" font-size="10.00">/show_info_dialog.cpp</text>
</a>
</g>
</g>
<!-- Node3&#45;&gt;Node20 -->
<g id="edge19" class="edge">
<title>Node3&#45;&gt;Node20</title>
<path fill="none" stroke="midnightblue" d="M2031.75,-81.56C1852.82,-80.98 1381.68,-75 991.5,-31 988.41,-30.65 985.27,-30.26 982.09,-29.82"/>
<polygon fill="midnightblue" stroke="midnightblue" points="2031.83,-85.06 2041.84,-81.59 2031.85,-78.06 2031.83,-85.06"/>
</g>
<!-- Node21 -->
<g id="node21" class="node">
<title>Node21</title>
<g id="a_node21"><a xlink:href="../../d5/de4/vabstractlayoutdialog_8cpp.html" target="_top" xlink:title=" ">
<polygon fill="white" stroke="black" points="1000.5,-0.5 1000.5,-30.5 1146.5,-30.5 1146.5,-0.5 1000.5,-0.5"/>
<text text-anchor="start" x="1008.5" y="-18.5" font-family="Helvetica,sans-Serif" font-size="10.00">src/app/seamly2d/dialogs</text>
<text text-anchor="middle" x="1073.5" y="-7.5" font-family="Helvetica,sans-Serif" font-size="10.00">/vabstractlayoutdialog.cpp</text>
</a>
</g>
</g>
<!-- Node3&#45;&gt;Node21 -->
<g id="edge20" class="edge">
<title>Node3&#45;&gt;Node21</title>
<path fill="none" stroke="midnightblue" d="M2031.7,-80.64C1871.6,-78.09 1480.64,-68.25 1155.5,-31 1152.63,-30.67 1149.7,-30.3 1146.75,-29.91"/>
<polygon fill="midnightblue" stroke="midnightblue" points="2031.85,-84.14 2041.91,-80.79 2031.96,-77.14 2031.85,-84.14"/>
</g>
<!-- Node22 -->
<g id="node22" class="node">
<title>Node22</title>
<g id="a_node22"><a xlink:href="../../dc/d14/app_2seamly2d_2main_8cpp.html" target="_top" xlink:title=" ">
<polygon fill="white" stroke="black" points="145,-6 145,-25 296,-25 296,-6 145,-6"/>
<text text-anchor="middle" x="220.5" y="-13" font-family="Helvetica,sans-Serif" font-size="10.00">src/app/seamly2d/main.cpp</text>
</a>
</g>
</g>
<!-- Node3&#45;&gt;Node22 -->
<g id="edge21" class="edge">
<title>Node3&#45;&gt;Node22</title>
<path fill="none" stroke="midnightblue" d="M2031.58,-80.82C1737.34,-77.88 648.7,-64.92 305.5,-31 291.79,-29.65 276.96,-27.39 263.58,-25.06"/>
<polygon fill="midnightblue" stroke="midnightblue" points="2031.68,-84.32 2041.71,-80.92 2031.75,-77.32 2031.68,-84.32"/>
</g>
<!-- Node3&#45;&gt;Node23 -->
<g id="edge22" class="edge">
<title>Node3&#45;&gt;Node23</title>
<path fill="none" stroke="midnightblue" d="M2179.34,-79.42C2279.83,-76.59 2465.26,-71.39 2623.5,-67 3206.61,-50.84 3353.78,-74.33 3935.5,-31 3954.49,-29.59 3975.11,-27.33 3993.76,-25.01"/>
<polygon fill="midnightblue" stroke="midnightblue" points="2179.19,-75.92 2169.3,-79.7 2179.39,-82.92 2179.19,-75.92"/>
</g>
<!-- Node24 -->
<g id="node24" class="node">
<title>Node24</title>
<g id="a_node24"><a xlink:href="../../dd/d84/shortcuts__dialog_8cpp.html" target="_top" xlink:title=" ">
<polygon fill="white" stroke="black" points="1165,-0.5 1165,-30.5 1306,-30.5 1306,-0.5 1165,-0.5"/>
<text text-anchor="start" x="1173" y="-18.5" font-family="Helvetica,sans-Serif" font-size="10.00">src/app/seamly2d/dialogs</text>
<text text-anchor="middle" x="1235.5" y="-7.5" font-family="Helvetica,sans-Serif" font-size="10.00">/shortcuts_dialog.cpp</text>
</a>
</g>
</g>
<!-- Node3&#45;&gt;Node24 -->
<g id="edge23" class="edge">
<title>Node3&#45;&gt;Node24</title>
<path fill="none" stroke="midnightblue" d="M2031.76,-79.69C1891.57,-75.61 1577.15,-63.37 1314.5,-31 1311.73,-30.66 1308.91,-30.28 1306.07,-29.88"/>
<polygon fill="midnightblue" stroke="midnightblue" points="2031.85,-83.19 2041.95,-79.98 2032.05,-76.2 2031.85,-83.19"/>
</g>
<!-- Node25 -->
<g id="node25" class="node">
<title>Node25</title>
<g id="a_node25"><a xlink:href="../../d8/dd9/mainwindow_8cpp.html" target="_top" xlink:title=" ">
<polygon fill="white" stroke="black" points="314.5,-6 314.5,-25 502.5,-25 502.5,-6 314.5,-6"/>
<text text-anchor="middle" x="408.5" y="-13" font-family="Helvetica,sans-Serif" font-size="10.00">src/app/seamly2d/mainwindow.cpp</text>
</a>
</g>
</g>
<!-- Node3&#45;&gt;Node25 -->
<g id="edge24" class="edge">
<title>Node3&#45;&gt;Node25</title>
<path fill="none" stroke="midnightblue" d="M2031.83,-82C1804.8,-82.91 1095.96,-81.25 511.5,-31 495.04,-29.58 477.18,-27.33 461.04,-25.01"/>
<polygon fill="midnightblue" stroke="midnightblue" points="2031.97,-85.49 2041.95,-81.95 2031.94,-78.49 2031.97,-85.49"/>
</g>
<!-- Node26 -->
<g id="node26" class="node">
<title>Node26</title>
<g id="a_node26"><a xlink:href="../../d3/d49/vpattern_8cpp.html" target="_top" xlink:title=" ">
<polygon fill="white" stroke="black" points="1324,-0.5 1324,-30.5 1449,-30.5 1449,-0.5 1324,-0.5"/>
<text text-anchor="start" x="1332" y="-18.5" font-family="Helvetica,sans-Serif" font-size="10.00">src/app/seamly2d/xml</text>
<text text-anchor="middle" x="1386.5" y="-7.5" font-family="Helvetica,sans-Serif" font-size="10.00">/vpattern.cpp</text>
</a>
</g>
</g>
<!-- Node3&#45;&gt;Node26 -->
<g id="edge25" class="edge">
<title>Node3&#45;&gt;Node26</title>
<path fill="none" stroke="midnightblue" d="M2031.53,-78.71C1910.85,-73.5 1664.34,-60.07 1457.5,-31 1454.76,-30.61 1451.97,-30.19 1449.15,-29.73"/>
<polygon fill="midnightblue" stroke="midnightblue" points="2031.61,-82.22 2041.75,-79.15 2031.91,-75.23 2031.61,-82.22"/>
</g>
<!-- Node28&#45;&gt;Node4 -->
<g id="edge28" class="edge">
<title>Node28&#45;&gt;Node4</title>
<path fill="none" stroke="midnightblue" d="M271.67,-70.41C229.17,-59.4 163.9,-42.5 117.79,-30.56"/>
<polygon fill="midnightblue" stroke="midnightblue" points="270.87,-73.82 281.43,-72.94 272.62,-67.04 270.87,-73.82"/>
</g>
<!-- Node28&#45;&gt;Node22 -->
<g id="edge29" class="edge">
<title>Node28&#45;&gt;Node22</title>
<path fill="none" stroke="midnightblue" d="M293.41,-66.92C274.83,-54.07 248.38,-35.78 232.98,-25.13"/>
<polygon fill="midnightblue" stroke="midnightblue" points="291.61,-69.93 301.82,-72.73 295.59,-64.17 291.61,-69.93"/>
</g>
<!-- Node28&#45;&gt;Node25 -->
<g id="edge30" class="edge">
<title>Node28&#45;&gt;Node25</title>
<path fill="none" stroke="midnightblue" d="M335.59,-66.92C354.17,-54.07 380.62,-35.78 396.02,-25.13"/>
<polygon fill="midnightblue" stroke="midnightblue" points="333.41,-64.17 327.18,-72.73 337.39,-69.93 333.41,-64.17"/>
</g>
</g>
</svg>
