<?xml version="1.0" encoding="UTF-8" standalone="no"?>
<!DOCTYPE svg PUBLIC "-//W3C//DTD SVG 1.1//EN"
 "http://www.w3.org/Graphics/SVG/1.1/DTD/svg11.dtd">
<!-- Generated by graphviz version 2.43.0 (0)
 -->
<!-- Title: src/app/seamly2d/dialogs/dialoglayoutsettings.h Pages: 1 -->
<svg width="4174pt" height="240pt"
 viewBox="0.00 0.00 4174.00 240.00" xmlns="http://www.w3.org/2000/svg" xmlns:xlink="http://www.w3.org/1999/xlink">
<g id="graph0" class="graph" transform="scale(1 1) rotate(0) translate(4 236)">
<title>src/app/seamly2d/dialogs/dialoglayoutsettings.h</title>
<polygon fill="white" stroke="transparent" points="-4,4 -4,-236 4170,-236 4170,4 -4,4"/>
<!-- Node1 -->
<g id="node1" class="node">
<title>Node1</title>
<g id="a_node1"><a xlink:title=" ">
<polygon fill="#bfbfbf" stroke="black" points="2694,-201.5 2694,-231.5 2835,-231.5 2835,-201.5 2694,-201.5"/>
<text text-anchor="start" x="2702" y="-219.5" font-family="Helvetica,sans-Serif" font-size="10.00">src/app/seamly2d/dialogs</text>
<text text-anchor="middle" x="2764.5" y="-208.5" font-family="Helvetica,sans-Serif" font-size="10.00">/dialoglayoutsettings.h</text>
</a>
</g>
</g>
<!-- Node2 -->
<g id="node2" class="node">
<title>Node2</title>
<g id="a_node2"><a xlink:href="../../dd/d57/vcmdexport_8h.html" target="_top" xlink:title=" ">
<polygon fill="white" stroke="black" points="2537,-134.5 2537,-164.5 2664,-164.5 2664,-134.5 2537,-134.5"/>
<text text-anchor="start" x="2545" y="-152.5" font-family="Helvetica,sans-Serif" font-size="10.00">src/app/seamly2d/core</text>
<text text-anchor="middle" x="2600.5" y="-141.5" font-family="Helvetica,sans-Serif" font-size="10.00">/vcmdexport.h</text>
</a>
</g>
</g>
<!-- Node1&#45;&gt;Node2 -->
<g id="edge1" class="edge">
<title>Node1&#45;&gt;Node2</title>
<path fill="none" stroke="midnightblue" d="M2719.54,-197.68C2693.24,-187.26 2660.5,-174.28 2636.02,-164.58"/>
<polygon fill="midnightblue" stroke="midnightblue" points="2718.33,-200.97 2728.91,-201.4 2720.91,-194.46 2718.33,-200.97"/>
</g>
<!-- Node14 -->
<g id="node14" class="node">
<title>Node14</title>
<g id="a_node14"><a xlink:href="../../db/def/dialoglayoutsettings_8cpp.html" target="_top" xlink:title=" ">
<polygon fill="white" stroke="black" points="3786,-0.5 3786,-30.5 3927,-30.5 3927,-0.5 3786,-0.5"/>
<text text-anchor="start" x="3794" y="-18.5" font-family="Helvetica,sans-Serif" font-size="10.00">src/app/seamly2d/dialogs</text>
<text text-anchor="middle" x="3856.5" y="-7.5" font-family="Helvetica,sans-Serif" font-size="10.00">/dialoglayoutsettings.cpp</text>
</a>
</g>
</g>
<!-- Node1&#45;&gt;Node14 -->
<g id="edge32" class="edge">
<title>Node1&#45;&gt;Node14</title>
<path fill="none" stroke="midnightblue" d="M2845.08,-200.86C3016.61,-169.7 3430.52,-94.44 3777.5,-31 3780.24,-30.5 3783.04,-29.99 3785.87,-29.47"/>
<polygon fill="midnightblue" stroke="midnightblue" points="2844.34,-197.44 2835.12,-202.67 2845.59,-204.33 2844.34,-197.44"/>
</g>
<!-- Node23 -->
<g id="node23" class="node">
<title>Node23</title>
<g id="a_node23"><a xlink:href="../../d8/de8/mainwindowsnogui_8cpp.html" target="_top" xlink:title=" ">
<polygon fill="white" stroke="black" points="3945,-6 3945,-25 4166,-25 4166,-6 3945,-6"/>
<text text-anchor="middle" x="4055.5" y="-13" font-family="Helvetica,sans-Serif" font-size="10.00">src/app/seamly2d/mainwindowsnogui.cpp</text>
</a>
</g>
</g>
<!-- Node1&#45;&gt;Node23 -->
<g id="edge33" class="edge">
<title>Node1&#45;&gt;Node23</title>
<path fill="none" stroke="midnightblue" d="M2845.22,-205.43C2922.01,-195.69 3040.75,-180.21 3143.5,-165 3473.57,-116.15 3869.34,-48.65 4006.15,-25.05"/>
<polygon fill="midnightblue" stroke="midnightblue" points="2844.62,-201.98 2835.14,-206.71 2845.5,-208.93 2844.62,-201.98"/>
</g>
<!-- Node27 -->
<g id="node27" class="node">
<title>Node27</title>
<g id="a_node27"><a xlink:href="../../df/d9b/vcmdexport_8cpp.html" target="_top" xlink:title=" ">
<polygon fill="white" stroke="black" points="2596,-67.5 2596,-97.5 2723,-97.5 2723,-67.5 2596,-67.5"/>
<text text-anchor="start" x="2604" y="-85.5" font-family="Helvetica,sans-Serif" font-size="10.00">src/app/seamly2d/core</text>
<text text-anchor="middle" x="2659.5" y="-74.5" font-family="Helvetica,sans-Serif" font-size="10.00">/vcmdexport.cpp</text>
</a>
</g>
</g>
<!-- Node1&#45;&gt;Node27 -->
<g id="edge31" class="edge">
<title>Node1&#45;&gt;Node27</title>
<path fill="none" stroke="midnightblue" d="M2747.03,-193.54C2725.33,-166.25 2688.92,-120.48 2670.66,-97.52"/>
<polygon fill="midnightblue" stroke="midnightblue" points="2744.3,-195.73 2753.26,-201.37 2749.78,-191.37 2744.3,-195.73"/>
</g>
<!-- Node3 -->
<g id="node3" class="node">
<title>Node3</title>
<g id="a_node3"><a xlink:href="../../d9/d02/vapplication_8h.html" target="_top" xlink:title=" ">
<polygon fill="white" stroke="black" points="1991,-67.5 1991,-97.5 2118,-97.5 2118,-67.5 1991,-67.5"/>
<text text-anchor="start" x="1999" y="-85.5" font-family="Helvetica,sans-Serif" font-size="10.00">src/app/seamly2d/core</text>
<text text-anchor="middle" x="2054.5" y="-74.5" font-family="Helvetica,sans-Serif" font-size="10.00">/vapplication.h</text>
</a>
</g>
</g>
<!-- Node2&#45;&gt;Node3 -->
<g id="edge2" class="edge">
<title>Node2&#45;&gt;Node3</title>
<path fill="none" stroke="midnightblue" d="M2526.65,-139.71C2418.8,-126.87 2220.01,-103.2 2118.22,-91.09"/>
<polygon fill="midnightblue" stroke="midnightblue" points="2526.45,-143.21 2536.8,-140.92 2527.28,-136.26 2526.45,-143.21"/>
</g>
<!-- Node2&#45;&gt;Node27 -->
<g id="edge26" class="edge">
<title>Node2&#45;&gt;Node27</title>
<path fill="none" stroke="midnightblue" d="M2620.25,-126.74C2628.98,-117.12 2639,-106.09 2646.72,-97.58"/>
<polygon fill="midnightblue" stroke="midnightblue" points="2617.43,-124.64 2613.3,-134.4 2622.61,-129.34 2617.43,-124.64"/>
</g>
<!-- Node28 -->
<g id="node28" class="node">
<title>Node28</title>
<g id="a_node28"><a xlink:href="../../d9/d53/mainwindow_8h.html" target="_top" xlink:title=" ">
<polygon fill="white" stroke="black" points="226.5,-73 226.5,-92 402.5,-92 402.5,-73 226.5,-73"/>
<text text-anchor="middle" x="314.5" y="-80" font-family="Helvetica,sans-Serif" font-size="10.00">src/app/seamly2d/mainwindow.h</text>
</a>
</g>
</g>
<!-- Node2&#45;&gt;Node28 -->
<g id="edge27" class="edge">
<title>Node2&#45;&gt;Node28</title>
<path fill="none" stroke="midnightblue" d="M2526.75,-146.4C2186.73,-136.73 771.11,-96.48 402.54,-86"/>
<polygon fill="midnightblue" stroke="midnightblue" points="2526.88,-149.91 2536.97,-146.69 2527.08,-142.91 2526.88,-149.91"/>
</g>
<!-- Node4 -->
<g id="node4" class="node">
<title>Node4</title>
<g id="a_node4"><a xlink:href="../../d3/dd8/vapplication_8cpp.html" target="_top" xlink:title=" ">
<polygon fill="white" stroke="black" points="0,-0.5 0,-30.5 127,-30.5 127,-0.5 0,-0.5"/>
<text text-anchor="start" x="8" y="-18.5" font-family="Helvetica,sans-Serif" font-size="10.00">src/app/seamly2d/core</text>
<text text-anchor="middle" x="63.5" y="-7.5" font-family="Helvetica,sans-Serif" font-size="10.00">/vapplication.cpp</text>
</a>
</g>
</g>
<!-- Node3&#45;&gt;Node4 -->
<g id="edge3" class="edge">
<title>Node3&#45;&gt;Node4</title>
<path fill="none" stroke="midnightblue" d="M1980.8,-81.26C1674.73,-80 502.86,-72.51 135.5,-31 132.71,-30.69 129.87,-30.32 127.01,-29.91"/>
<polygon fill="midnightblue" stroke="midnightblue" points="1980.87,-84.76 1990.89,-81.3 1980.9,-77.76 1980.87,-84.76"/>
</g>
<!-- Node5 -->
<g id="node5" class="node">
<title>Node5</title>
<g id="a_node5"><a xlink:href="../../d7/dfa/calculator__dialog_8cpp.html" target="_top" xlink:title=" ">
<polygon fill="white" stroke="black" points="1467,-0.5 1467,-30.5 1608,-30.5 1608,-0.5 1467,-0.5"/>
<text text-anchor="start" x="1475" y="-18.5" font-family="Helvetica,sans-Serif" font-size="10.00">src/app/seamly2d/dialogs</text>
<text text-anchor="middle" x="1537.5" y="-7.5" font-family="Helvetica,sans-Serif" font-size="10.00">/calculator_dialog.cpp</text>
</a>
</g>
</g>
<!-- Node3&#45;&gt;Node5 -->
<g id="edge4" class="edge">
<title>Node3&#45;&gt;Node5</title>
<path fill="none" stroke="midnightblue" d="M1980.8,-74.52C1893.59,-65.91 1744.12,-50.05 1616.5,-31 1613.74,-30.59 1610.93,-30.15 1608.1,-29.7"/>
<polygon fill="midnightblue" stroke="midnightblue" points="1980.56,-78.01 1990.86,-75.51 1981.25,-71.05 1980.56,-78.01"/>
</g>
<!-- Node6 -->
<g id="node6" class="node">
<title>Node6</title>
<g id="a_node6"><a xlink:href="../../dc/d20/preferencespathpage_8cpp.html" target="_top" xlink:title=" ">
<polygon fill="white" stroke="black" points="1626,-0.5 1626,-30.5 1831,-30.5 1831,-0.5 1626,-0.5"/>
<text text-anchor="start" x="1634" y="-18.5" font-family="Helvetica,sans-Serif" font-size="10.00">src/app/seamly2d/dialogs</text>
<text text-anchor="middle" x="1728.5" y="-7.5" font-family="Helvetica,sans-Serif" font-size="10.00">/configpages/preferencespathpage.cpp</text>
</a>
</g>
</g>
<!-- Node3&#45;&gt;Node6 -->
<g id="edge5" class="edge">
<title>Node3&#45;&gt;Node6</title>
<path fill="none" stroke="midnightblue" d="M1980.92,-66.83C1926.38,-55.95 1852.49,-41.22 1798.75,-30.51"/>
<polygon fill="midnightblue" stroke="midnightblue" points="1980.38,-70.29 1990.87,-68.81 1981.75,-63.43 1980.38,-70.29"/>
</g>
<!-- Node7 -->
<g id="node7" class="node">
<title>Node7</title>
<g id="a_node7"><a xlink:href="../../d2/d00/vtooloptionspropertybrowser_8cpp.html" target="_top" xlink:title=" ">
<polygon fill="white" stroke="black" points="1849.5,-0.5 1849.5,-30.5 2029.5,-30.5 2029.5,-0.5 1849.5,-0.5"/>
<text text-anchor="start" x="1857.5" y="-18.5" font-family="Helvetica,sans-Serif" font-size="10.00">src/app/seamly2d/core</text>
<text text-anchor="middle" x="1939.5" y="-7.5" font-family="Helvetica,sans-Serif" font-size="10.00">/vtooloptionspropertybrowser.cpp</text>
</a>
</g>
</g>
<!-- Node3&#45;&gt;Node7 -->
<g id="edge6" class="edge">
<title>Node3&#45;&gt;Node7</title>
<path fill="none" stroke="midnightblue" d="M2020.52,-62.3C2002.53,-52.12 1980.82,-39.85 1964.4,-30.58"/>
<polygon fill="midnightblue" stroke="midnightblue" points="2019.12,-65.52 2029.55,-67.4 2022.56,-59.43 2019.12,-65.52"/>
</g>
<!-- Node8 -->
<g id="node8" class="node">
<title>Node8</title>
<g id="a_node8"><a xlink:href="../../d9/d70/preferencesgraphicsviewpage_8cpp.html" target="_top" xlink:title=" ">
<polygon fill="white" stroke="black" points="2047.5,-0.5 2047.5,-30.5 2295.5,-30.5 2295.5,-0.5 2047.5,-0.5"/>
<text text-anchor="start" x="2055.5" y="-18.5" font-family="Helvetica,sans-Serif" font-size="10.00">src/app/seamly2d/dialogs</text>
<text text-anchor="middle" x="2171.5" y="-7.5" font-family="Helvetica,sans-Serif" font-size="10.00">/configpages/preferencesgraphicsviewpage.cpp</text>
</a>
</g>
</g>
<!-- Node3&#45;&gt;Node8 -->
<g id="edge7" class="edge">
<title>Node3&#45;&gt;Node8</title>
<path fill="none" stroke="midnightblue" d="M2088.82,-62.44C2107.17,-52.24 2129.38,-39.9 2146.16,-30.58"/>
<polygon fill="midnightblue" stroke="midnightblue" points="2086.93,-59.48 2079.89,-67.4 2090.33,-65.6 2086.93,-59.48"/>
</g>
<!-- Node9 -->
<g id="node9" class="node">
<title>Node9</title>
<g id="a_node9"><a xlink:href="../../d2/d2d/preferencesconfigurationpage_8cpp.html" target="_top" xlink:title=" ">
<polygon fill="white" stroke="black" points="2314,-0.5 2314,-30.5 2561,-30.5 2561,-0.5 2314,-0.5"/>
<text text-anchor="start" x="2322" y="-18.5" font-family="Helvetica,sans-Serif" font-size="10.00">src/app/seamly2d/dialogs</text>
<text text-anchor="middle" x="2437.5" y="-7.5" font-family="Helvetica,sans-Serif" font-size="10.00">/configpages/preferencesconfigurationpage.cpp</text>
</a>
</g>
</g>
<!-- Node3&#45;&gt;Node9 -->
<g id="edge8" class="edge">
<title>Node3&#45;&gt;Node9</title>
<path fill="none" stroke="midnightblue" d="M2128.33,-68.97C2193.22,-57.96 2287.55,-41.95 2354.93,-30.51"/>
<polygon fill="midnightblue" stroke="midnightblue" points="2127.45,-65.57 2118.17,-70.69 2128.62,-72.47 2127.45,-65.57"/>
</g>
<!-- Node10 -->
<g id="node10" class="node">
<title>Node10</title>
<g id="a_node10"><a xlink:href="../../dc/d63/preferencespatternpage_8cpp.html" target="_top" xlink:title=" ">
<polygon fill="white" stroke="black" points="2579.5,-0.5 2579.5,-30.5 2797.5,-30.5 2797.5,-0.5 2579.5,-0.5"/>
<text text-anchor="start" x="2587.5" y="-18.5" font-family="Helvetica,sans-Serif" font-size="10.00">src/app/seamly2d/dialogs</text>
<text text-anchor="middle" x="2688.5" y="-7.5" font-family="Helvetica,sans-Serif" font-size="10.00">/configpages/preferencespatternpage.cpp</text>
</a>
</g>
</g>
<!-- Node3&#45;&gt;Node10 -->
<g id="edge9" class="edge">
<title>Node3&#45;&gt;Node10</title>
<path fill="none" stroke="midnightblue" d="M2128.39,-74.8C2228.45,-65.61 2412.59,-48.25 2569.5,-31 2572.71,-30.65 2575.96,-30.28 2579.25,-29.91"/>
<polygon fill="midnightblue" stroke="midnightblue" points="2128.02,-71.32 2118.38,-75.72 2128.66,-78.29 2128.02,-71.32"/>
</g>
<!-- Node11 -->
<g id="node11" class="node">
<title>Node11</title>
<g id="a_node11"><a xlink:href="../../dd/dc2/decimalchart__dialog_8cpp.html" target="_top" xlink:title=" ">
<polygon fill="white" stroke="black" points="2816,-0.5 2816,-30.5 2957,-30.5 2957,-0.5 2816,-0.5"/>
<text text-anchor="start" x="2824" y="-18.5" font-family="Helvetica,sans-Serif" font-size="10.00">src/app/seamly2d/dialogs</text>
<text text-anchor="middle" x="2886.5" y="-7.5" font-family="Helvetica,sans-Serif" font-size="10.00">/decimalchart_dialog.cpp</text>
</a>
</g>
</g>
<!-- Node3&#45;&gt;Node11 -->
<g id="edge10" class="edge">
<title>Node3&#45;&gt;Node11</title>
<path fill="none" stroke="midnightblue" d="M2128.34,-79.29C2263.38,-74.64 2559.07,-61.63 2806.5,-31 2809.58,-30.62 2812.72,-30.2 2815.9,-29.74"/>
<polygon fill="midnightblue" stroke="midnightblue" points="2127.99,-75.8 2118.11,-79.64 2128.22,-82.8 2127.99,-75.8"/>
</g>
<!-- Node12 -->
<g id="node12" class="node">
<title>Node12</title>
<g id="a_node12"><a xlink:href="../../dd/d64/dialogaboutapp_8cpp.html" target="_top" xlink:title=" ">
<polygon fill="white" stroke="black" points="2975,-0.5 2975,-30.5 3116,-30.5 3116,-0.5 2975,-0.5"/>
<text text-anchor="start" x="2983" y="-18.5" font-family="Helvetica,sans-Serif" font-size="10.00">src/app/seamly2d/dialogs</text>
<text text-anchor="middle" x="3045.5" y="-7.5" font-family="Helvetica,sans-Serif" font-size="10.00">/dialogaboutapp.cpp</text>
</a>
</g>
</g>
<!-- Node3&#45;&gt;Node12 -->
<g id="edge11" class="edge">
<title>Node3&#45;&gt;Node12</title>
<path fill="none" stroke="midnightblue" d="M2128.42,-80.56C2284.01,-77.9 2656.53,-67.88 2966.5,-31 2969.27,-30.67 2972.09,-30.3 2974.93,-29.91"/>
<polygon fill="midnightblue" stroke="midnightblue" points="2127.98,-77.07 2118.04,-80.74 2128.1,-84.07 2127.98,-77.07"/>
</g>
<!-- Node13 -->
<g id="node13" class="node">
<title>Node13</title>
<g id="a_node13"><a xlink:href="../../d6/d89/dialoglayoutprogress_8cpp.html" target="_top" xlink:title=" ">
<polygon fill="white" stroke="black" points="3134,-0.5 3134,-30.5 3277,-30.5 3277,-0.5 3134,-0.5"/>
<text text-anchor="start" x="3142" y="-18.5" font-family="Helvetica,sans-Serif" font-size="10.00">src/app/seamly2d/dialogs</text>
<text text-anchor="middle" x="3205.5" y="-7.5" font-family="Helvetica,sans-Serif" font-size="10.00">/dialoglayoutprogress.cpp</text>
</a>
</g>
</g>
<!-- Node3&#45;&gt;Node13 -->
<g id="edge12" class="edge">
<title>Node3&#45;&gt;Node13</title>
<path fill="none" stroke="midnightblue" d="M2128.6,-79.28C2338.06,-72.82 2931.8,-53.02 3125.5,-31 3128.16,-30.7 3130.87,-30.36 3133.61,-29.99"/>
<polygon fill="midnightblue" stroke="midnightblue" points="2128.21,-75.79 2118.33,-79.6 2128.43,-82.79 2128.21,-75.79"/>
</g>
<!-- Node3&#45;&gt;Node14 -->
<g id="edge13" class="edge">
<title>Node3&#45;&gt;Node14</title>
<path fill="none" stroke="midnightblue" d="M2128.43,-79.49C2452.83,-70.63 3735.92,-35.4 3777.5,-31 3780.27,-30.71 3783.1,-30.37 3785.94,-30"/>
<polygon fill="midnightblue" stroke="midnightblue" points="2128.11,-75.99 2118.21,-79.77 2128.3,-82.99 2128.11,-75.99"/>
</g>
<!-- Node15 -->
<g id="node15" class="node">
<title>Node15</title>
<g id="a_node15"><a xlink:href="../../de/d87/dialognewpattern_8cpp.html" target="_top" xlink:title=" ">
<polygon fill="white" stroke="black" points="3295,-0.5 3295,-30.5 3436,-30.5 3436,-0.5 3295,-0.5"/>
<text text-anchor="start" x="3303" y="-18.5" font-family="Helvetica,sans-Serif" font-size="10.00">src/app/seamly2d/dialogs</text>
<text text-anchor="middle" x="3365.5" y="-7.5" font-family="Helvetica,sans-Serif" font-size="10.00">/dialognewpattern.cpp</text>
</a>
</g>
</g>
<!-- Node3&#45;&gt;Node15 -->
<g id="edge14" class="edge">
<title>Node3&#45;&gt;Node15</title>
<path fill="none" stroke="midnightblue" d="M2128.17,-79.09C2376.21,-70.87 3171.81,-43.81 3286.5,-31 3289.27,-30.69 3292.09,-30.34 3294.94,-29.96"/>
<polygon fill="midnightblue" stroke="midnightblue" points="2128.06,-75.59 2118.18,-79.42 2128.29,-82.58 2128.06,-75.59"/>
</g>
<!-- Node16 -->
<g id="node16" class="node">
<title>Node16</title>
<g id="a_node16"><a xlink:href="../../d5/dc5/dialogpreferences_8cpp.html" target="_top" xlink:title=" ">
<polygon fill="white" stroke="black" points="3454,-0.5 3454,-30.5 3595,-30.5 3595,-0.5 3454,-0.5"/>
<text text-anchor="start" x="3462" y="-18.5" font-family="Helvetica,sans-Serif" font-size="10.00">src/app/seamly2d/dialogs</text>
<text text-anchor="middle" x="3524.5" y="-7.5" font-family="Helvetica,sans-Serif" font-size="10.00">/dialogpreferences.cpp</text>
</a>
</g>
</g>
<!-- Node3&#45;&gt;Node16 -->
<g id="edge15" class="edge">
<title>Node3&#45;&gt;Node16</title>
<path fill="none" stroke="midnightblue" d="M2128.43,-79.45C2397.34,-71.89 3314.54,-45.32 3445.5,-31 3448.27,-30.7 3451.09,-30.35 3453.94,-29.98"/>
<polygon fill="midnightblue" stroke="midnightblue" points="2128.28,-75.95 2118.38,-79.73 2128.48,-82.95 2128.28,-75.95"/>
</g>
<!-- Node17 -->
<g id="node17" class="node">
<title>Node17</title>
<g id="a_node17"><a xlink:href="../../d5/d18/dialogpatternproperties_8cpp.html" target="_top" xlink:title=" ">
<polygon fill="white" stroke="black" points="3613,-0.5 3613,-30.5 3768,-30.5 3768,-0.5 3613,-0.5"/>
<text text-anchor="start" x="3621" y="-18.5" font-family="Helvetica,sans-Serif" font-size="10.00">src/app/seamly2d/dialogs</text>
<text text-anchor="middle" x="3690.5" y="-7.5" font-family="Helvetica,sans-Serif" font-size="10.00">/dialogpatternproperties.cpp</text>
</a>
</g>
</g>
<!-- Node3&#45;&gt;Node17 -->
<g id="edge16" class="edge">
<title>Node3&#45;&gt;Node17</title>
<path fill="none" stroke="midnightblue" d="M2128.33,-79.37C2426.61,-70.74 3530.41,-38.42 3604.5,-31 3607.21,-30.73 3609.97,-30.42 3612.75,-30.09"/>
<polygon fill="midnightblue" stroke="midnightblue" points="2127.95,-75.88 2118.06,-79.67 2128.15,-82.88 2127.95,-75.88"/>
</g>
<!-- Node18 -->
<g id="node18" class="node">
<title>Node18</title>
<g id="a_node18"><a xlink:href="../../dd/d54/export__layout__dialog_8cpp.html" target="_top" xlink:title=" ">
<polygon fill="white" stroke="black" points="521,-0.5 521,-30.5 664,-30.5 664,-0.5 521,-0.5"/>
<text text-anchor="start" x="529" y="-18.5" font-family="Helvetica,sans-Serif" font-size="10.00">src/app/seamly2d/dialogs</text>
<text text-anchor="middle" x="592.5" y="-7.5" font-family="Helvetica,sans-Serif" font-size="10.00">/export_layout_dialog.cpp</text>
</a>
</g>
</g>
<!-- Node3&#45;&gt;Node18 -->
<g id="edge17" class="edge">
<title>Node3&#45;&gt;Node18</title>
<path fill="none" stroke="midnightblue" d="M1980.61,-80.19C1732.37,-75.58 929.56,-58.85 672.5,-31 669.83,-30.71 667.12,-30.39 664.39,-30.03"/>
<polygon fill="midnightblue" stroke="midnightblue" points="1980.54,-83.69 1990.61,-80.38 1980.67,-76.69 1980.54,-83.69"/>
</g>
<!-- Node19 -->
<g id="node19" class="node">
<title>Node19</title>
<g id="a_node19"><a xlink:href="../../db/d5c/groups__widget_8cpp.html" target="_top" xlink:title=" ">
<polygon fill="white" stroke="black" points="682,-0.5 682,-30.5 823,-30.5 823,-0.5 682,-0.5"/>
<text text-anchor="start" x="690" y="-18.5" font-family="Helvetica,sans-Serif" font-size="10.00">src/app/seamly2d/dialogs</text>
<text text-anchor="middle" x="752.5" y="-7.5" font-family="Helvetica,sans-Serif" font-size="10.00">/groups_widget.cpp</text>
</a>
</g>
</g>
<!-- Node3&#45;&gt;Node19 -->
<g id="edge18" class="edge">
<title>Node3&#45;&gt;Node19</title>
<path fill="none" stroke="midnightblue" d="M1980.81,-81.99C1790.26,-82.49 1265.87,-79 832.5,-31 829.41,-30.66 826.27,-30.27 823.09,-29.84"/>
<polygon fill="midnightblue" stroke="midnightblue" points="1980.99,-85.49 1990.98,-81.96 1980.97,-78.49 1980.99,-85.49"/>
</g>
<!-- Node20 -->
<g id="node20" class="node">
<title>Node20</title>
<g id="a_node20"><a xlink:href="../../d5/de4/vabstractlayoutdialog_8cpp.html" target="_top" xlink:title=" ">
<polygon fill="white" stroke="black" points="841.5,-0.5 841.5,-30.5 987.5,-30.5 987.5,-0.5 841.5,-0.5"/>
<text text-anchor="start" x="849.5" y="-18.5" font-family="Helvetica,sans-Serif" font-size="10.00">src/app/seamly2d/dialogs</text>
<text text-anchor="middle" x="914.5" y="-7.5" font-family="Helvetica,sans-Serif" font-size="10.00">/vabstractlayoutdialog.cpp</text>
</a>
</g>
</g>
<!-- Node3&#45;&gt;Node20 -->
<g id="edge19" class="edge">
<title>Node3&#45;&gt;Node20</title>
<path fill="none" stroke="midnightblue" d="M1980.52,-81.2C1807.72,-79.8 1364.31,-72.13 996.5,-31 993.63,-30.68 990.7,-30.32 987.75,-29.93"/>
<polygon fill="midnightblue" stroke="midnightblue" points="1980.75,-84.7 1990.77,-81.28 1980.8,-77.7 1980.75,-84.7"/>
</g>
<!-- Node21 -->
<g id="node21" class="node">
<title>Node21</title>
<g id="a_node21"><a xlink:href="../../d2/df4/show__info__dialog_8cpp.html" target="_top" xlink:title=" ">
<polygon fill="white" stroke="black" points="1006,-0.5 1006,-30.5 1147,-30.5 1147,-0.5 1006,-0.5"/>
<text text-anchor="start" x="1014" y="-18.5" font-family="Helvetica,sans-Serif" font-size="10.00">src/app/seamly2d/dialogs</text>
<text text-anchor="middle" x="1076.5" y="-7.5" font-family="Helvetica,sans-Serif" font-size="10.00">/show_info_dialog.cpp</text>
</a>
</g>
</g>
<!-- Node3&#45;&gt;Node21 -->
<g id="edge20" class="edge">
<title>Node3&#45;&gt;Node21</title>
<path fill="none" stroke="midnightblue" d="M1980.49,-80.48C1826.44,-77.67 1460.3,-67.39 1155.5,-31 1152.73,-30.67 1149.91,-30.3 1147.07,-29.91"/>
<polygon fill="midnightblue" stroke="midnightblue" points="1980.71,-83.98 1990.77,-80.66 1980.83,-76.98 1980.71,-83.98"/>
</g>
<!-- Node22 -->
<g id="node22" class="node">
<title>Node22</title>
<g id="a_node22"><a xlink:href="../../dc/d14/app_2seamly2d_2main_8cpp.html" target="_top" xlink:title=" ">
<polygon fill="white" stroke="black" points="145,-6 145,-25 296,-25 296,-6 145,-6"/>
<text text-anchor="middle" x="220.5" y="-13" font-family="Helvetica,sans-Serif" font-size="10.00">src/app/seamly2d/main.cpp</text>
</a>
</g>
</g>
<!-- Node3&#45;&gt;Node22 -->
<g id="edge21" class="edge">
<title>Node3&#45;&gt;Node22</title>
<path fill="none" stroke="midnightblue" d="M1980.31,-80.74C1691,-77.58 638.06,-64 305.5,-31 291.79,-29.64 276.96,-27.38 263.58,-25.05"/>
<polygon fill="midnightblue" stroke="midnightblue" points="1980.65,-84.25 1990.69,-80.86 1980.73,-77.25 1980.65,-84.25"/>
</g>
<!-- Node3&#45;&gt;Node23 -->
<g id="edge22" class="edge">
<title>Node3&#45;&gt;Node23</title>
<path fill="none" stroke="midnightblue" d="M2128.65,-79.47C2231.45,-76.65 2423.09,-71.41 2586.5,-67 3186.5,-50.82 3337.93,-75.35 3936.5,-31 3955.49,-29.59 3976.11,-27.34 3994.76,-25.02"/>
<polygon fill="midnightblue" stroke="midnightblue" points="2128.27,-75.97 2118.37,-79.75 2128.47,-82.97 2128.27,-75.97"/>
</g>
<!-- Node24 -->
<g id="node24" class="node">
<title>Node24</title>
<g id="a_node24"><a xlink:href="../../dd/d84/shortcuts__dialog_8cpp.html" target="_top" xlink:title=" ">
<polygon fill="white" stroke="black" points="1165,-0.5 1165,-30.5 1306,-30.5 1306,-0.5 1165,-0.5"/>
<text text-anchor="start" x="1173" y="-18.5" font-family="Helvetica,sans-Serif" font-size="10.00">src/app/seamly2d/dialogs</text>
<text text-anchor="middle" x="1235.5" y="-7.5" font-family="Helvetica,sans-Serif" font-size="10.00">/shortcuts_dialog.cpp</text>
</a>
</g>
</g>
<!-- Node3&#45;&gt;Node24 -->
<g id="edge23" class="edge">
<title>Node3&#45;&gt;Node24</title>
<path fill="none" stroke="midnightblue" d="M1980.81,-79.24C1847.45,-74.53 1557.32,-61.47 1314.5,-31 1311.73,-30.65 1308.92,-30.27 1306.07,-29.86"/>
<polygon fill="midnightblue" stroke="midnightblue" points="1980.8,-82.74 1990.91,-79.59 1981.04,-75.74 1980.8,-82.74"/>
</g>
<!-- Node25 -->
<g id="node25" class="node">
<title>Node25</title>
<g id="a_node25"><a xlink:href="../../d3/d49/vpattern_8cpp.html" target="_top" xlink:title=" ">
<polygon fill="white" stroke="black" points="1324,-0.5 1324,-30.5 1449,-30.5 1449,-0.5 1324,-0.5"/>
<text text-anchor="start" x="1332" y="-18.5" font-family="Helvetica,sans-Serif" font-size="10.00">src/app/seamly2d/xml</text>
<text text-anchor="middle" x="1386.5" y="-7.5" font-family="Helvetica,sans-Serif" font-size="10.00">/vpattern.cpp</text>
</a>
</g>
</g>
<!-- Node3&#45;&gt;Node25 -->
<g id="edge24" class="edge">
<title>Node3&#45;&gt;Node25</title>
<path fill="none" stroke="midnightblue" d="M1980.33,-78.02C1867.14,-72.09 1644.7,-57.94 1457.5,-31 1454.76,-30.61 1451.97,-30.17 1449.15,-29.71"/>
<polygon fill="midnightblue" stroke="midnightblue" points="1980.44,-81.53 1990.61,-78.55 1980.8,-74.54 1980.44,-81.53"/>
</g>
<!-- Node26 -->
<g id="node26" class="node">
<title>Node26</title>
<g id="a_node26"><a xlink:href="../../d8/dd9/mainwindow_8cpp.html" target="_top" xlink:title=" ">
<polygon fill="white" stroke="black" points="314.5,-6 314.5,-25 502.5,-25 502.5,-6 314.5,-6"/>
<text text-anchor="middle" x="408.5" y="-13" font-family="Helvetica,sans-Serif" font-size="10.00">src/app/seamly2d/mainwindow.cpp</text>
</a>
</g>
</g>
<!-- Node3&#45;&gt;Node26 -->
<g id="edge25" class="edge">
<title>Node3&#45;&gt;Node26</title>
<path fill="none" stroke="midnightblue" d="M1980.54,-81.89C1757.96,-82.44 1075,-79.74 511.5,-31 495.04,-29.58 477.19,-27.32 461.04,-25"/>
<polygon fill="midnightblue" stroke="midnightblue" points="1980.8,-85.38 1990.79,-81.86 1980.78,-78.38 1980.8,-85.38"/>
</g>
<!-- Node28&#45;&gt;Node4 -->
<g id="edge28" class="edge">
<title>Node28&#45;&gt;Node4</title>
<path fill="none" stroke="midnightblue" d="M271.67,-70.41C229.17,-59.4 163.9,-42.5 117.79,-30.56"/>
<polygon fill="midnightblue" stroke="midnightblue" points="270.87,-73.82 281.43,-72.94 272.62,-67.04 270.87,-73.82"/>
</g>
<!-- Node28&#45;&gt;Node22 -->
<g id="edge29" class="edge">
<title>Node28&#45;&gt;Node22</title>
<path fill="none" stroke="midnightblue" d="M293.41,-66.92C274.83,-54.07 248.38,-35.78 232.98,-25.13"/>
<polygon fill="midnightblue" stroke="midnightblue" points="291.61,-69.93 301.82,-72.73 295.59,-64.17 291.61,-69.93"/>
</g>
<!-- Node28&#45;&gt;Node26 -->
<g id="edge30" class="edge">
<title>Node28&#45;&gt;Node26</title>
<path fill="none" stroke="midnightblue" d="M335.59,-66.92C354.17,-54.07 380.62,-35.78 396.02,-25.13"/>
<polygon fill="midnightblue" stroke="midnightblue" points="333.41,-64.17 327.18,-72.73 337.39,-69.93 333.41,-64.17"/>
</g>
</g>
</svg>
