<?xml version="1.0" encoding="UTF-8" standalone="no"?>
<!DOCTYPE svg PUBLIC "-//W3C//DTD SVG 1.1//EN"
 "http://www.w3.org/Graphics/SVG/1.1/DTD/svg11.dtd">
<!-- Generated by graphviz version 2.43.0 (0)
 -->
<!-- Title: src/libs/vpatterndb/vtranslatemeasurements.h Pages: 1 -->
<svg width="6529pt" height="374pt"
 viewBox="0.00 0.00 6529.00 374.00" xmlns="http://www.w3.org/2000/svg" xmlns:xlink="http://www.w3.org/1999/xlink">
<g id="graph0" class="graph" transform="scale(1 1) rotate(0) translate(4 370)">
<title>src/libs/vpatterndb/vtranslatemeasurements.h</title>
<polygon fill="white" stroke="transparent" points="-4,4 -4,-370 6525,-370 6525,4 -4,4"/>
<!-- Node1 -->
<g id="node1" class="node">
<title>Node1</title>
<g id="a_node1"><a xlink:title=" ">
<polygon fill="#bfbfbf" stroke="black" points="6104.5,-335.5 6104.5,-365.5 6256.5,-365.5 6256.5,-335.5 6104.5,-335.5"/>
<text text-anchor="start" x="6112.5" y="-353.5" font-family="Helvetica,sans-Serif" font-size="10.00">src/libs/vpatterndb</text>
<text text-anchor="middle" x="6180.5" y="-342.5" font-family="Helvetica,sans-Serif" font-size="10.00">/vtranslatemeasurements.h</text>
</a>
</g>
</g>
<!-- Node2 -->
<g id="node2" class="node">
<title>Node2</title>
<g id="a_node2"><a xlink:href="../../d9/de3/measurements_8cpp.html" target="_top" xlink:title=" ">
<polygon fill="white" stroke="black" points="5771,-268.5 5771,-298.5 5884,-298.5 5884,-268.5 5771,-268.5"/>
<text text-anchor="start" x="5779" y="-286.5" font-family="Helvetica,sans-Serif" font-size="10.00">src/libs/vpatterndb</text>
<text text-anchor="middle" x="5827.5" y="-275.5" font-family="Helvetica,sans-Serif" font-size="10.00">/measurements.cpp</text>
</a>
</g>
</g>
<!-- Node1&#45;&gt;Node2 -->
<g id="edge1" class="edge">
<title>Node1&#45;&gt;Node2</title>
<path fill="none" stroke="midnightblue" d="M6094.12,-335.42C6036.81,-325.81 5960.01,-312.44 5892.5,-299 5889.78,-298.46 5887,-297.89 5884.19,-297.31"/>
<polygon fill="midnightblue" stroke="midnightblue" points="6093.78,-338.91 6104.22,-337.11 6094.94,-332.01 6093.78,-338.91"/>
</g>
<!-- Node3 -->
<g id="node3" class="node">
<title>Node3</title>
<g id="a_node3"><a xlink:href="../../da/d69/vtranslatevars_8h.html" target="_top" xlink:title=" ">
<polygon fill="white" stroke="black" points="5902,-268.5 5902,-298.5 6009,-298.5 6009,-268.5 5902,-268.5"/>
<text text-anchor="start" x="5910" y="-286.5" font-family="Helvetica,sans-Serif" font-size="10.00">src/libs/vpatterndb</text>
<text text-anchor="middle" x="5955.5" y="-275.5" font-family="Helvetica,sans-Serif" font-size="10.00">/vtranslatevars.h</text>
</a>
</g>
</g>
<!-- Node1&#45;&gt;Node3 -->
<g id="edge2" class="edge">
<title>Node1&#45;&gt;Node3</title>
<path fill="none" stroke="midnightblue" d="M6121.93,-332.58C6085.39,-322.02 6038.9,-308.59 6004.35,-298.61"/>
<polygon fill="midnightblue" stroke="midnightblue" points="6121.38,-336.06 6131.96,-335.48 6123.32,-329.34 6121.38,-336.06"/>
</g>
<!-- Node29 -->
<g id="node25" class="node">
<title>Node29</title>
<g id="a_node25"><a xlink:href="../../de/d3e/vtranslatevars_8cpp.html" target="_top" xlink:title=" ">
<polygon fill="white" stroke="black" points="6255.5,-67.5 6255.5,-97.5 6365.5,-97.5 6365.5,-67.5 6255.5,-67.5"/>
<text text-anchor="start" x="6263.5" y="-85.5" font-family="Helvetica,sans-Serif" font-size="10.00">src/libs/vpatterndb</text>
<text text-anchor="middle" x="6310.5" y="-74.5" font-family="Helvetica,sans-Serif" font-size="10.00">/vtranslatevars.cpp</text>
</a>
</g>
</g>
<!-- Node1&#45;&gt;Node29 -->
<g id="edge61" class="edge">
<title>Node1&#45;&gt;Node29</title>
<path fill="none" stroke="midnightblue" d="M6208.43,-329.08C6235.48,-307.82 6275.67,-272.06 6298.5,-232 6323.35,-188.4 6317.43,-125.6 6313.1,-97.74"/>
<polygon fill="midnightblue" stroke="midnightblue" points="6206.27,-326.32 6200.49,-335.2 6210.54,-331.87 6206.27,-326.32"/>
</g>
<!-- Node67 -->
<g id="node50" class="node">
<title>Node67</title>
<g id="a_node50"><a xlink:href="../../d0/d50/vtranslatemeasurements_8cpp.html" target="_top" xlink:title=" ">
<polygon fill="white" stroke="black" points="6358,-268.5 6358,-298.5 6521,-298.5 6521,-268.5 6358,-268.5"/>
<text text-anchor="start" x="6366" y="-286.5" font-family="Helvetica,sans-Serif" font-size="10.00">src/libs/vpatterndb</text>
<text text-anchor="middle" x="6439.5" y="-275.5" font-family="Helvetica,sans-Serif" font-size="10.00">/vtranslatemeasurements.cpp</text>
</a>
</g>
</g>
<!-- Node1&#45;&gt;Node67 -->
<g id="edge62" class="edge">
<title>Node1&#45;&gt;Node67</title>
<path fill="none" stroke="midnightblue" d="M6246.31,-332.98C6288.61,-322.37 6342.99,-308.72 6383.27,-298.61"/>
<polygon fill="midnightblue" stroke="midnightblue" points="6245.23,-329.65 6236.38,-335.48 6246.93,-336.44 6245.23,-329.65"/>
</g>
<!-- Node4 -->
<g id="node4" class="node">
<title>Node4</title>
<g id="a_node4"><a xlink:href="../../d5/d74/vabstractapplication_8h.html" target="_top" xlink:title=" ">
<polygon fill="white" stroke="black" points="3777,-140 3777,-159 3972,-159 3972,-140 3777,-140"/>
<text text-anchor="middle" x="3874.5" y="-147" font-family="Helvetica,sans-Serif" font-size="10.00">src/libs/vmisc/vabstractapplication.h</text>
</a>
</g>
</g>
<!-- Node3&#45;&gt;Node4 -->
<g id="edge3" class="edge">
<title>Node3&#45;&gt;Node4</title>
<path fill="none" stroke="midnightblue" d="M5891.93,-268.11C5151.85,-163.02 4263.64,-151.3 3972.21,-150.39"/>
<polygon fill="midnightblue" stroke="midnightblue" points="5891.6,-271.59 5902,-269.54 5892.59,-264.66 5891.6,-271.59"/>
</g>
<!-- Node24 -->
<g id="node20" class="node">
<title>Node24</title>
<g id="a_node20"><a xlink:href="../../d6/d46/vcontainer_8cpp.html" target="_top" xlink:title=" ">
<polygon fill="white" stroke="black" points="6005,-67.5 6005,-97.5 6112,-97.5 6112,-67.5 6005,-67.5"/>
<text text-anchor="start" x="6013" y="-85.5" font-family="Helvetica,sans-Serif" font-size="10.00">src/libs/vpatterndb</text>
<text text-anchor="middle" x="6058.5" y="-74.5" font-family="Helvetica,sans-Serif" font-size="10.00">/vcontainer.cpp</text>
</a>
</g>
</g>
<!-- Node3&#45;&gt;Node24 -->
<g id="edge55" class="edge">
<title>Node3&#45;&gt;Node24</title>
<path fill="none" stroke="midnightblue" d="M5891.84,-267.8C5837.21,-254.88 5766.62,-237.34 5762.5,-232 5735.88,-197.52 5734.15,-167.07 5762.5,-134 5796.6,-94.23 5944.05,-107.88 5995.5,-98 5998.59,-97.41 6001.75,-96.77 6004.94,-96.11"/>
<polygon fill="midnightblue" stroke="midnightblue" points="5891.3,-271.27 5901.84,-270.16 5892.9,-264.46 5891.3,-271.27"/>
</g>
<!-- Node25 -->
<g id="node21" class="node">
<title>Node25</title>
<g id="a_node21"><a xlink:href="../../db/d11/vformula_8cpp.html" target="_top" xlink:title=" ">
<polygon fill="white" stroke="black" points="6130,-67.5 6130,-97.5 6237,-97.5 6237,-67.5 6130,-67.5"/>
<text text-anchor="start" x="6138" y="-85.5" font-family="Helvetica,sans-Serif" font-size="10.00">src/libs/vpatterndb</text>
<text text-anchor="middle" x="6183.5" y="-74.5" font-family="Helvetica,sans-Serif" font-size="10.00">/vformula.cpp</text>
</a>
</g>
</g>
<!-- Node3&#45;&gt;Node25 -->
<g id="edge56" class="edge">
<title>Node3&#45;&gt;Node25</title>
<path fill="none" stroke="midnightblue" d="M5892.16,-266.32C5850.13,-254.95 5801.61,-240.34 5795.5,-232 5787.35,-220.89 5787.29,-212.06 5795.5,-201 5815.84,-173.59 6028.17,-120.24 6129.83,-96.01"/>
<polygon fill="midnightblue" stroke="midnightblue" points="5891.27,-269.71 5901.84,-268.92 5893.08,-262.95 5891.27,-269.71"/>
</g>
<!-- Node3&#45;&gt;Node29 -->
<g id="edge57" class="edge">
<title>Node3&#45;&gt;Node29</title>
<path fill="none" stroke="midnightblue" d="M6019.44,-280.42C6101.17,-276.42 6236.41,-264.9 6272.5,-232 6311.25,-196.68 6312.86,-127.78 6311.55,-97.9"/>
<polygon fill="midnightblue" stroke="midnightblue" points="6019.09,-276.93 6009.26,-280.89 6019.42,-283.92 6019.09,-276.93"/>
</g>
<!-- Node44 -->
<g id="node40" class="node">
<title>Node44</title>
<g id="a_node40"><a xlink:href="../../d3/df7/vcontainer_8h.html" target="_top" xlink:title=" ">
<polygon fill="white" stroke="red" points="746,-201.5 746,-231.5 853,-231.5 853,-201.5 746,-201.5"/>
<text text-anchor="start" x="754" y="-219.5" font-family="Helvetica,sans-Serif" font-size="10.00">src/libs/vpatterndb</text>
<text text-anchor="middle" x="799.5" y="-208.5" font-family="Helvetica,sans-Serif" font-size="10.00">/vcontainer.h</text>
</a>
</g>
</g>
<!-- Node3&#45;&gt;Node44 -->
<g id="edge40" class="edge">
<title>Node3&#45;&gt;Node44</title>
<path fill="none" stroke="midnightblue" d="M5891.52,-268.26C5538.17,-236.38 1375.42,-219.68 853.2,-217.7"/>
<polygon fill="midnightblue" stroke="midnightblue" points="5891.37,-271.77 5901.68,-269.31 5892.09,-264.8 5891.37,-271.77"/>
</g>
<!-- Node64 -->
<g id="node47" class="node">
<title>Node64</title>
<g id="a_node47"><a xlink:href="../../dc/dc2/dialogsplinepath_8cpp.html" target="_top" xlink:title=" ">
<polygon fill="white" stroke="black" points="5804.5,-201.5 5804.5,-231.5 5952.5,-231.5 5952.5,-201.5 5804.5,-201.5"/>
<text text-anchor="start" x="5812.5" y="-219.5" font-family="Helvetica,sans-Serif" font-size="10.00">src/libs/vtools/dialogs</text>
<text text-anchor="middle" x="5878.5" y="-208.5" font-family="Helvetica,sans-Serif" font-size="10.00">/tools/dialogsplinepath.cpp</text>
</a>
</g>
</g>
<!-- Node3&#45;&gt;Node64 -->
<g id="edge58" class="edge">
<title>Node3&#45;&gt;Node64</title>
<path fill="none" stroke="midnightblue" d="M5931.08,-261.88C5919.38,-252.01 5905.66,-240.43 5895.18,-231.58"/>
<polygon fill="midnightblue" stroke="midnightblue" points="5928.89,-264.62 5938.79,-268.4 5933.41,-259.27 5928.89,-264.62"/>
</g>
<!-- Node65 -->
<g id="node48" class="node">
<title>Node65</title>
<g id="a_node48"><a xlink:href="../../df/de5/dialogspline_8cpp.html" target="_top" xlink:title=" ">
<polygon fill="white" stroke="black" points="5970.5,-201.5 5970.5,-231.5 6096.5,-231.5 6096.5,-201.5 5970.5,-201.5"/>
<text text-anchor="start" x="5978.5" y="-219.5" font-family="Helvetica,sans-Serif" font-size="10.00">src/libs/vtools/dialogs</text>
<text text-anchor="middle" x="6033.5" y="-208.5" font-family="Helvetica,sans-Serif" font-size="10.00">/tools/dialogspline.cpp</text>
</a>
</g>
</g>
<!-- Node3&#45;&gt;Node65 -->
<g id="edge59" class="edge">
<title>Node3&#45;&gt;Node65</title>
<path fill="none" stroke="midnightblue" d="M5980.24,-261.88C5992.09,-252.01 6005.98,-240.43 6016.61,-231.58"/>
<polygon fill="midnightblue" stroke="midnightblue" points="5977.87,-259.31 5972.42,-268.4 5982.35,-264.68 5977.87,-259.31"/>
</g>
<!-- Node66 -->
<g id="node49" class="node">
<title>Node66</title>
<g id="a_node49"><a xlink:href="../../d1/d75/vistoolendline_8cpp.html" target="_top" xlink:title=" ">
<polygon fill="white" stroke="black" points="6115,-201.5 6115,-231.5 6264,-231.5 6264,-201.5 6115,-201.5"/>
<text text-anchor="start" x="6123" y="-219.5" font-family="Helvetica,sans-Serif" font-size="10.00">src/libs/vtools/visualization</text>
<text text-anchor="middle" x="6189.5" y="-208.5" font-family="Helvetica,sans-Serif" font-size="10.00">/line/vistoolendline.cpp</text>
</a>
</g>
</g>
<!-- Node3&#45;&gt;Node66 -->
<g id="edge60" class="edge">
<title>Node3&#45;&gt;Node66</title>
<path fill="none" stroke="midnightblue" d="M6015.93,-265.71C6054.01,-255.14 6102.61,-241.63 6138.7,-231.61"/>
<polygon fill="midnightblue" stroke="midnightblue" points="6014.68,-262.43 6005.99,-268.48 6016.56,-269.17 6014.68,-262.43"/>
</g>
<!-- Node5 -->
<g id="node5" class="node">
<title>Node5</title>
<g id="a_node5"><a xlink:href="../../d4/d90/fvupdater_8cpp.html" target="_top" xlink:title=" ">
<polygon fill="white" stroke="black" points="4543,-73 4543,-92 4696,-92 4696,-73 4543,-73"/>
<text text-anchor="middle" x="4619.5" y="-80" font-family="Helvetica,sans-Serif" font-size="10.00">src/libs/fervor/fvupdater.cpp</text>
</a>
</g>
</g>
<!-- Node4&#45;&gt;Node5 -->
<g id="edge4" class="edge">
<title>Node4&#45;&gt;Node5</title>
<path fill="none" stroke="midnightblue" d="M3982.21,-143.25C4112.94,-136.18 4339.94,-121.68 4533.5,-98 4546.58,-96.4 4560.7,-94.21 4573.64,-92.02"/>
<polygon fill="midnightblue" stroke="midnightblue" points="3981.99,-139.75 3972.19,-143.78 3982.37,-146.74 3981.99,-139.75"/>
</g>
<!-- Node6 -->
<g id="node6" class="node">
<title>Node6</title>
<g id="a_node6"><a xlink:href="../../d9/dc8/dxiface_8cpp.html" target="_top" xlink:title=" ">
<polygon fill="white" stroke="black" points="4714,-73 4714,-92 4849,-92 4849,-73 4714,-73"/>
<text text-anchor="middle" x="4781.5" y="-80" font-family="Helvetica,sans-Serif" font-size="10.00">src/libs/vdxf/dxiface.cpp</text>
</a>
</g>
</g>
<!-- Node4&#45;&gt;Node6 -->
<g id="edge5" class="edge">
<title>Node4&#45;&gt;Node6</title>
<path fill="none" stroke="midnightblue" d="M3982.54,-146.25C4141.3,-141.96 4446.73,-129.98 4704.5,-98 4716.51,-96.51 4729.48,-94.3 4741.29,-92.06"/>
<polygon fill="midnightblue" stroke="midnightblue" points="3982.2,-142.75 3972.29,-146.52 3982.38,-149.75 3982.2,-142.75"/>
</g>
<!-- Node7 -->
<g id="node7" class="node">
<title>Node7</title>
<g id="a_node7"><a xlink:href="../../da/d75/vabstractarc__p_8h.html" target="_top" xlink:title=" ">
<polygon fill="white" stroke="red" points="4867,-67.5 4867,-97.5 4974,-97.5 4974,-67.5 4867,-67.5"/>
<text text-anchor="start" x="4875" y="-85.5" font-family="Helvetica,sans-Serif" font-size="10.00">src/libs/vgeometry</text>
<text text-anchor="middle" x="4920.5" y="-74.5" font-family="Helvetica,sans-Serif" font-size="10.00">/vabstractarc_p.h</text>
</a>
</g>
</g>
<!-- Node4&#45;&gt;Node7 -->
<g id="edge6" class="edge">
<title>Node4&#45;&gt;Node7</title>
<path fill="none" stroke="midnightblue" d="M3982.57,-145.34C4201.63,-138.53 4691.32,-121.21 4857.5,-98 4860.5,-97.58 4863.57,-97.09 4866.66,-96.54"/>
<polygon fill="midnightblue" stroke="midnightblue" points="3982.23,-141.84 3972.34,-145.65 3982.44,-148.84 3982.23,-141.84"/>
</g>
<!-- Node9 -->
<g id="node8" class="node">
<title>Node9</title>
<g id="a_node8"><a xlink:href="../../dc/da3/varc__p_8h.html" target="_top" xlink:title=" ">
<polygon fill="white" stroke="red" points="4992,-67.5 4992,-97.5 5099,-97.5 5099,-67.5 4992,-67.5"/>
<text text-anchor="start" x="5000" y="-85.5" font-family="Helvetica,sans-Serif" font-size="10.00">src/libs/vgeometry</text>
<text text-anchor="middle" x="5045.5" y="-74.5" font-family="Helvetica,sans-Serif" font-size="10.00">/varc_p.h</text>
</a>
</g>
</g>
<!-- Node4&#45;&gt;Node9 -->
<g id="edge7" class="edge">
<title>Node4&#45;&gt;Node9</title>
<path fill="none" stroke="midnightblue" d="M3982.35,-144.7C4241.57,-135.39 4885.36,-111.28 4982.5,-98 4985.5,-97.59 4988.57,-97.1 4991.66,-96.56"/>
<polygon fill="midnightblue" stroke="midnightblue" points="3982.04,-141.2 3972.17,-145.06 3982.29,-148.2 3982.04,-141.2"/>
</g>
<!-- Node11 -->
<g id="node9" class="node">
<title>Node11</title>
<g id="a_node9"><a xlink:href="../../d5/d8e/vcubicbezier__p_8h.html" target="_top" xlink:title=" ">
<polygon fill="white" stroke="red" points="5117,-67.5 5117,-97.5 5224,-97.5 5224,-67.5 5117,-67.5"/>
<text text-anchor="start" x="5125" y="-85.5" font-family="Helvetica,sans-Serif" font-size="10.00">src/libs/vgeometry</text>
<text text-anchor="middle" x="5170.5" y="-74.5" font-family="Helvetica,sans-Serif" font-size="10.00">/vcubicbezier_p.h</text>
</a>
</g>
</g>
<!-- Node4&#45;&gt;Node11 -->
<g id="edge8" class="edge">
<title>Node4&#45;&gt;Node11</title>
<path fill="none" stroke="midnightblue" d="M3982.38,-145.23C4262.32,-136.57 4997.84,-112.74 5107.5,-98 5110.5,-97.6 5113.57,-97.12 5116.66,-96.58"/>
<polygon fill="midnightblue" stroke="midnightblue" points="3982.1,-141.73 3972.21,-145.54 3982.32,-148.73 3982.1,-141.73"/>
</g>
<!-- Node13 -->
<g id="node10" class="node">
<title>Node13</title>
<g id="a_node10"><a xlink:href="../../d6/dfb/vellipticalarc_8cpp.html" target="_top" xlink:title=" ">
<polygon fill="white" stroke="black" points="5529,-0.5 5529,-30.5 5636,-30.5 5636,-0.5 5529,-0.5"/>
<text text-anchor="start" x="5537" y="-18.5" font-family="Helvetica,sans-Serif" font-size="10.00">src/libs/vgeometry</text>
<text text-anchor="middle" x="5582.5" y="-7.5" font-family="Helvetica,sans-Serif" font-size="10.00">/vellipticalarc.cpp</text>
</a>
</g>
</g>
<!-- Node4&#45;&gt;Node13 -->
<g id="edge9" class="edge">
<title>Node4&#45;&gt;Node13</title>
<path fill="none" stroke="midnightblue" d="M3982.15,-145.06C4321.89,-134.16 5349.43,-100.97 5357.5,-98 5378.28,-90.35 5376.74,-77 5396.5,-67 5438.45,-45.78 5490.38,-32.64 5528.7,-25.1"/>
<polygon fill="midnightblue" stroke="midnightblue" points="3981.94,-141.56 3972.06,-145.38 3982.17,-148.56 3981.94,-141.56"/>
</g>
<!-- Node14 -->
<g id="node11" class="node">
<title>Node14</title>
<g id="a_node11"><a xlink:href="../../df/dde/vellipticalarc__p_8h.html" target="_top" xlink:title=" ">
<polygon fill="white" stroke="black" points="5735,-67.5 5735,-97.5 5842,-97.5 5842,-67.5 5735,-67.5"/>
<text text-anchor="start" x="5743" y="-85.5" font-family="Helvetica,sans-Serif" font-size="10.00">src/libs/vgeometry</text>
<text text-anchor="middle" x="5788.5" y="-74.5" font-family="Helvetica,sans-Serif" font-size="10.00">/vellipticalarc_p.h</text>
</a>
</g>
</g>
<!-- Node4&#45;&gt;Node14 -->
<g id="edge10" class="edge">
<title>Node4&#45;&gt;Node14</title>
<path fill="none" stroke="midnightblue" d="M3982.36,-144.92C4075.37,-141.87 4213.28,-137.45 4333.5,-134 4643.03,-125.11 5419.37,-137.46 5726.5,-98 5729.24,-97.65 5732.04,-97.23 5734.85,-96.75"/>
<polygon fill="midnightblue" stroke="midnightblue" points="3981.97,-141.43 3972.09,-145.25 3982.2,-148.42 3981.97,-141.43"/>
</g>
<!-- Node15 -->
<g id="node12" class="node">
<title>Node15</title>
<g id="a_node12"><a xlink:href="../../d1/d76/vspline__p_8h.html" target="_top" xlink:title=" ">
<polygon fill="white" stroke="red" points="5406,-67.5 5406,-97.5 5513,-97.5 5513,-67.5 5406,-67.5"/>
<text text-anchor="start" x="5414" y="-85.5" font-family="Helvetica,sans-Serif" font-size="10.00">src/libs/vgeometry</text>
<text text-anchor="middle" x="5459.5" y="-74.5" font-family="Helvetica,sans-Serif" font-size="10.00">/vspline_p.h</text>
</a>
</g>
</g>
<!-- Node4&#45;&gt;Node15 -->
<g id="edge12" class="edge">
<title>Node4&#45;&gt;Node15</title>
<path fill="none" stroke="midnightblue" d="M3982.37,-145.03C4326.07,-133.98 5374.01,-100.14 5391.5,-98 5396.17,-97.43 5401,-96.69 5405.83,-95.86"/>
<polygon fill="midnightblue" stroke="midnightblue" points="3982.05,-141.54 3972.16,-145.36 3982.27,-148.54 3982.05,-141.54"/>
</g>
<!-- Node17 -->
<g id="node13" class="node">
<title>Node17</title>
<g id="a_node13"><a xlink:href="../../d9/d15/vabstractpiece_8cpp.html" target="_top" xlink:title=" ">
<polygon fill="white" stroke="black" points="5531.5,-73 5531.5,-92 5717.5,-92 5717.5,-73 5531.5,-73"/>
<text text-anchor="middle" x="5624.5" y="-80" font-family="Helvetica,sans-Serif" font-size="10.00">src/libs/vlayout/vabstractpiece.cpp</text>
</a>
</g>
</g>
<!-- Node4&#45;&gt;Node17 -->
<g id="edge13" class="edge">
<title>Node4&#45;&gt;Node17</title>
<path fill="none" stroke="midnightblue" d="M3982.37,-145.05C4075.38,-142.09 4213.29,-137.72 4333.5,-134 4861.49,-117.66 4995.17,-142.89 5521.5,-98 5537.96,-96.6 5555.82,-94.34 5571.96,-92.03"/>
<polygon fill="midnightblue" stroke="midnightblue" points="3981.98,-141.56 3972.1,-145.38 3982.2,-148.56 3981.98,-141.56"/>
</g>
<!-- Node18 -->
<g id="node14" class="node">
<title>Node18</title>
<g id="a_node14"><a xlink:href="../../d8/d70/vtextmanager_8cpp.html" target="_top" xlink:title=" ">
<polygon fill="white" stroke="black" points="675.5,-73 675.5,-92 857.5,-92 857.5,-73 675.5,-73"/>
<text text-anchor="middle" x="766.5" y="-80" font-family="Helvetica,sans-Serif" font-size="10.00">src/libs/vlayout/vtextmanager.cpp</text>
</a>
</g>
</g>
<!-- Node4&#45;&gt;Node18 -->
<g id="edge14" class="edge">
<title>Node4&#45;&gt;Node18</title>
<path fill="none" stroke="midnightblue" d="M3766.64,-148.53C3299.33,-148.38 1447.09,-144.78 866.5,-98 850.15,-96.68 832.4,-94.39 816.46,-92.02"/>
<polygon fill="midnightblue" stroke="midnightblue" points="3766.75,-152.03 3776.75,-148.53 3766.75,-145.03 3766.75,-152.03"/>
</g>
<!-- Node19 -->
<g id="node15" class="node">
<title>Node19</title>
<g id="a_node15"><a xlink:href="../../dd/d70/vlayoutpiece_8cpp.html" target="_top" xlink:title=" ">
<polygon fill="white" stroke="black" points="1001,-73 1001,-92 1178,-92 1178,-73 1001,-73"/>
<text text-anchor="middle" x="1089.5" y="-80" font-family="Helvetica,sans-Serif" font-size="10.00">src/libs/vlayout/vlayoutpiece.cpp</text>
</a>
</g>
</g>
<!-- Node4&#45;&gt;Node19 -->
<g id="edge15" class="edge">
<title>Node4&#45;&gt;Node19</title>
<path fill="none" stroke="midnightblue" d="M3766.79,-148.32C3331.55,-147.31 1701.46,-140.68 1187.5,-98 1171.47,-96.67 1154.08,-94.38 1138.46,-92"/>
<polygon fill="midnightblue" stroke="midnightblue" points="3766.84,-151.82 3776.85,-148.34 3766.86,-144.82 3766.84,-151.82"/>
</g>
<!-- Node20 -->
<g id="node16" class="node">
<title>Node20</title>
<g id="a_node16"><a xlink:href="../../db/d65/dialogexporttocsv_8cpp.html" target="_top" xlink:title=" ">
<polygon fill="white" stroke="black" points="5860,-67.5 5860,-97.5 5987,-97.5 5987,-67.5 5860,-67.5"/>
<text text-anchor="start" x="5868" y="-85.5" font-family="Helvetica,sans-Serif" font-size="10.00">src/libs/vmisc/dialogs</text>
<text text-anchor="middle" x="5923.5" y="-74.5" font-family="Helvetica,sans-Serif" font-size="10.00">/dialogexporttocsv.cpp</text>
</a>
</g>
</g>
<!-- Node4&#45;&gt;Node20 -->
<g id="edge16" class="edge">
<title>Node4&#45;&gt;Node20</title>
<path fill="none" stroke="midnightblue" d="M3982.36,-144.85C4075.37,-141.77 4213.28,-137.33 4333.5,-134 4670.58,-124.68 5515.33,-134.99 5850.5,-98 5853.58,-97.66 5856.73,-97.26 5859.9,-96.8"/>
<polygon fill="midnightblue" stroke="midnightblue" points="3981.97,-141.36 3972.09,-145.19 3982.2,-148.36 3981.97,-141.36"/>
</g>
<!-- Node21 -->
<g id="node17" class="node">
<title>Node21</title>
<g id="a_node17"><a xlink:href="../../d6/d0b/def_8cpp.html" target="_top" xlink:title=" ">
<polygon fill="white" stroke="black" points="1196.5,-73 1196.5,-92 1318.5,-92 1318.5,-73 1196.5,-73"/>
<text text-anchor="middle" x="1257.5" y="-80" font-family="Helvetica,sans-Serif" font-size="10.00">src/libs/vmisc/def.cpp</text>
</a>
</g>
</g>
<!-- Node4&#45;&gt;Node21 -->
<g id="edge17" class="edge">
<title>Node4&#45;&gt;Node21</title>
<path fill="none" stroke="midnightblue" d="M3766.81,-147.54C3313.41,-143.33 1571.83,-125.49 1327.5,-98 1315.91,-96.7 1303.39,-94.39 1292.19,-92"/>
<polygon fill="midnightblue" stroke="midnightblue" points="3766.93,-151.04 3776.96,-147.63 3766.99,-144.04 3766.93,-151.04"/>
</g>
<!-- Node22 -->
<g id="node18" class="node">
<title>Node22</title>
<g id="a_node18"><a xlink:href="../../d0/df6/vabstractapplication_8cpp.html" target="_top" xlink:title=" ">
<polygon fill="white" stroke="black" points="1336.5,-73 1336.5,-92 1542.5,-92 1542.5,-73 1336.5,-73"/>
<text text-anchor="middle" x="1439.5" y="-80" font-family="Helvetica,sans-Serif" font-size="10.00">src/libs/vmisc/vabstractapplication.cpp</text>
</a>
</g>
</g>
<!-- Node4&#45;&gt;Node22 -->
<g id="edge18" class="edge">
<title>Node4&#45;&gt;Node22</title>
<path fill="none" stroke="midnightblue" d="M3766.8,-147.69C3370.08,-144.47 1990.57,-131.1 1551.5,-98 1533.42,-96.64 1513.78,-94.37 1496.07,-92.02"/>
<polygon fill="midnightblue" stroke="midnightblue" points="3766.81,-151.19 3776.84,-147.77 3766.86,-144.19 3766.81,-151.19"/>
</g>
<!-- Node23 -->
<g id="node19" class="node">
<title>Node23</title>
<g id="a_node19"><a xlink:href="../../d4/d4f/pmsystems_8cpp.html" target="_top" xlink:title=" ">
<polygon fill="white" stroke="black" points="1561,-67.5 1561,-97.5 1668,-97.5 1668,-67.5 1561,-67.5"/>
<text text-anchor="start" x="1569" y="-85.5" font-family="Helvetica,sans-Serif" font-size="10.00">src/libs/vpatterndb</text>
<text text-anchor="middle" x="1614.5" y="-74.5" font-family="Helvetica,sans-Serif" font-size="10.00">/pmsystems.cpp</text>
</a>
</g>
</g>
<!-- Node4&#45;&gt;Node23 -->
<g id="edge19" class="edge">
<title>Node4&#45;&gt;Node23</title>
<path fill="none" stroke="midnightblue" d="M3766.71,-148.97C3383.46,-150.19 2087.73,-150.24 1676.5,-98 1673.76,-97.65 1670.96,-97.23 1668.14,-96.76"/>
<polygon fill="midnightblue" stroke="midnightblue" points="3766.97,-152.47 3776.96,-148.94 3766.95,-145.47 3766.97,-152.47"/>
</g>
<!-- Node4&#45;&gt;Node24 -->
<g id="edge20" class="edge">
<title>Node4&#45;&gt;Node24</title>
<path fill="none" stroke="midnightblue" d="M3982.36,-144.79C4075.37,-141.66 4213.28,-137.2 4333.5,-134 4702.79,-124.17 5628.91,-143.67 5995.5,-98 5998.51,-97.63 6001.58,-97.17 6004.67,-96.65"/>
<polygon fill="midnightblue" stroke="midnightblue" points="3981.97,-141.3 3972.09,-145.14 3982.2,-148.3 3981.97,-141.3"/>
</g>
<!-- Node4&#45;&gt;Node25 -->
<g id="edge21" class="edge">
<title>Node4&#45;&gt;Node25</title>
<path fill="none" stroke="midnightblue" d="M3982.44,-147.37C4401.45,-142.78 5907.61,-124.61 6120.5,-98 6123.51,-97.62 6126.58,-97.17 6129.67,-96.65"/>
<polygon fill="midnightblue" stroke="midnightblue" points="3982.11,-143.87 3972.14,-147.48 3982.18,-150.87 3982.11,-143.87"/>
</g>
<!-- Node26 -->
<g id="node22" class="node">
<title>Node26</title>
<g id="a_node22"><a xlink:href="../../df/d7a/vpiece_8cpp.html" target="_top" xlink:title=" ">
<polygon fill="white" stroke="black" points="876,-67.5 876,-97.5 983,-97.5 983,-67.5 876,-67.5"/>
<text text-anchor="start" x="884" y="-85.5" font-family="Helvetica,sans-Serif" font-size="10.00">src/libs/vpatterndb</text>
<text text-anchor="middle" x="929.5" y="-74.5" font-family="Helvetica,sans-Serif" font-size="10.00">/vpiece.cpp</text>
</a>
</g>
</g>
<!-- Node4&#45;&gt;Node26 -->
<g id="edge22" class="edge">
<title>Node4&#45;&gt;Node26</title>
<path fill="none" stroke="midnightblue" d="M3766.71,-147.97C3276.6,-145.36 1270.27,-132.64 991.5,-98 988.76,-97.66 985.96,-97.25 983.14,-96.78"/>
<polygon fill="midnightblue" stroke="midnightblue" points="3766.94,-151.47 3776.96,-148.02 3766.98,-144.47 3766.94,-151.47"/>
</g>
<!-- Node27 -->
<g id="node23" class="node">
<title>Node27</title>
<g id="a_node23"><a xlink:href="../../df/dba/vpiecenode__p_8h.html" target="_top" xlink:title=" ">
<polygon fill="white" stroke="black" points="5242,-67.5 5242,-97.5 5349,-97.5 5349,-67.5 5242,-67.5"/>
<text text-anchor="start" x="5250" y="-85.5" font-family="Helvetica,sans-Serif" font-size="10.00">src/libs/vpatterndb</text>
<text text-anchor="middle" x="5295.5" y="-74.5" font-family="Helvetica,sans-Serif" font-size="10.00">/vpiecenode_p.h</text>
</a>
</g>
</g>
<!-- Node4&#45;&gt;Node27 -->
<g id="edge23" class="edge">
<title>Node4&#45;&gt;Node27</title>
<path fill="none" stroke="midnightblue" d="M3982.46,-145.04C4293.1,-135.02 5170.98,-106.15 5232.5,-98 5235.5,-97.6 5238.58,-97.13 5241.67,-96.59"/>
<polygon fill="midnightblue" stroke="midnightblue" points="3981.98,-141.56 3972.09,-145.38 3982.2,-148.55 3981.98,-141.56"/>
</g>
<!-- Node4&#45;&gt;Node29 -->
<g id="edge25" class="edge">
<title>Node4&#45;&gt;Node29</title>
<path fill="none" stroke="midnightblue" d="M3982.25,-147.46C4415.71,-143.12 6019.59,-125.33 6245.5,-98 6248.71,-97.61 6252,-97.13 6255.31,-96.59"/>
<polygon fill="midnightblue" stroke="midnightblue" points="3982.2,-143.96 3972.23,-147.56 3982.27,-150.96 3982.2,-143.96"/>
</g>
<!-- Node30 -->
<g id="node26" class="node">
<title>Node30</title>
<g id="a_node26"><a xlink:href="../../df/d40/export__format__combobox_8cpp.html" target="_top" xlink:title=" ">
<polygon fill="white" stroke="black" points="1686,-67.5 1686,-97.5 1819,-97.5 1819,-67.5 1686,-67.5"/>
<text text-anchor="start" x="1694" y="-85.5" font-family="Helvetica,sans-Serif" font-size="10.00">src/libs/vwidgets/export</text>
<text text-anchor="middle" x="1752.5" y="-74.5" font-family="Helvetica,sans-Serif" font-size="10.00">_format_combobox.cpp</text>
</a>
</g>
</g>
<!-- Node4&#45;&gt;Node30 -->
<g id="edge26" class="edge">
<title>Node4&#45;&gt;Node30</title>
<path fill="none" stroke="midnightblue" d="M3766.83,-148.17C3401.33,-146.69 2209.59,-138.78 1828.5,-98 1825.43,-97.67 1822.29,-97.28 1819.14,-96.85"/>
<polygon fill="midnightblue" stroke="midnightblue" points="3766.87,-151.67 3776.88,-148.21 3766.9,-144.67 3766.87,-151.67"/>
</g>
<!-- Node31 -->
<g id="node27" class="node">
<title>Node31</title>
<g id="a_node27"><a xlink:href="../../d3/d4f/mouse__coordinates_8cpp.html" target="_top" xlink:title=" ">
<polygon fill="white" stroke="black" points="1837.5,-67.5 1837.5,-97.5 1971.5,-97.5 1971.5,-67.5 1837.5,-67.5"/>
<text text-anchor="start" x="1845.5" y="-85.5" font-family="Helvetica,sans-Serif" font-size="10.00">src/libs/vwidgets/mouse</text>
<text text-anchor="middle" x="1904.5" y="-74.5" font-family="Helvetica,sans-Serif" font-size="10.00">_coordinates.cpp</text>
</a>
</g>
</g>
<!-- Node4&#45;&gt;Node31 -->
<g id="edge27" class="edge">
<title>Node4&#45;&gt;Node31</title>
<path fill="none" stroke="midnightblue" d="M3766.92,-147.92C3419.61,-145.7 2330.55,-135.81 1980.5,-98 1977.56,-97.68 1974.57,-97.31 1971.55,-96.9"/>
<polygon fill="midnightblue" stroke="midnightblue" points="3766.95,-151.42 3776.97,-147.99 3767,-144.42 3766.95,-151.42"/>
</g>
<!-- Node32 -->
<g id="node28" class="node">
<title>Node32</title>
<g id="a_node28"><a xlink:href="../../d7/d1b/pen__toolbar_8cpp.html" target="_top" xlink:title=" ">
<polygon fill="white" stroke="black" points="1990,-67.5 1990,-97.5 2109,-97.5 2109,-67.5 1990,-67.5"/>
<text text-anchor="start" x="1998" y="-85.5" font-family="Helvetica,sans-Serif" font-size="10.00">src/libs/vwidgets/pen</text>
<text text-anchor="middle" x="2049.5" y="-74.5" font-family="Helvetica,sans-Serif" font-size="10.00">_toolbar.cpp</text>
</a>
</g>
</g>
<!-- Node4&#45;&gt;Node32 -->
<g id="edge28" class="edge">
<title>Node4&#45;&gt;Node32</title>
<path fill="none" stroke="midnightblue" d="M3766.79,-147.96C3436.24,-145.91 2439.22,-136.6 2117.5,-98 2114.74,-97.67 2111.93,-97.28 2109.1,-96.85"/>
<polygon fill="midnightblue" stroke="midnightblue" points="3766.83,-151.46 3776.85,-148.02 3766.87,-144.46 3766.83,-151.46"/>
</g>
<!-- Node33 -->
<g id="node29" class="node">
<title>Node33</title>
<g id="a_node29"><a xlink:href="../../dd/df6/vabstractmainwindow_8cpp.html" target="_top" xlink:title=" ">
<polygon fill="white" stroke="black" points="2127,-73 2127,-92 2356,-92 2356,-73 2127,-73"/>
<text text-anchor="middle" x="2241.5" y="-80" font-family="Helvetica,sans-Serif" font-size="10.00">src/libs/vwidgets/vabstractmainwindow.cpp</text>
</a>
</g>
</g>
<!-- Node4&#45;&gt;Node33 -->
<g id="edge29" class="edge">
<title>Node4&#45;&gt;Node33</title>
<path fill="none" stroke="midnightblue" d="M3766.73,-147.96C3518.97,-146.04 2889.83,-137.36 2365.5,-98 2345.94,-96.53 2324.71,-94.29 2305.44,-92"/>
<polygon fill="midnightblue" stroke="midnightblue" points="3766.78,-151.46 3776.81,-148.03 3766.84,-144.46 3766.78,-151.46"/>
</g>
<!-- Node34 -->
<g id="node30" class="node">
<title>Node34</title>
<g id="a_node30"><a xlink:href="../../d8/d76/scene__rect_8cpp.html" target="_top" xlink:title=" ">
<polygon fill="white" stroke="black" points="2374.5,-67.5 2374.5,-97.5 2504.5,-97.5 2504.5,-67.5 2374.5,-67.5"/>
<text text-anchor="start" x="2382.5" y="-85.5" font-family="Helvetica,sans-Serif" font-size="10.00">src/libs/vwidgets/scene</text>
<text text-anchor="middle" x="2439.5" y="-74.5" font-family="Helvetica,sans-Serif" font-size="10.00">_rect.cpp</text>
</a>
</g>
</g>
<!-- Node4&#45;&gt;Node34 -->
<g id="edge30" class="edge">
<title>Node4&#45;&gt;Node34</title>
<path fill="none" stroke="midnightblue" d="M3766.53,-146.68C3488.96,-141.64 2755.37,-126.01 2513.5,-98 2510.64,-97.67 2507.72,-97.29 2504.78,-96.87"/>
<polygon fill="midnightblue" stroke="midnightblue" points="3766.55,-150.18 3776.61,-146.86 3766.67,-143.18 3766.55,-150.18"/>
</g>
<!-- Node35 -->
<g id="node31" class="node">
<title>Node35</title>
<g id="a_node31"><a xlink:href="../../de/d45/vcontrolpointspline_8cpp.html" target="_top" xlink:title=" ">
<polygon fill="white" stroke="black" points="2523,-73 2523,-92 2738,-92 2738,-73 2523,-73"/>
<text text-anchor="middle" x="2630.5" y="-80" font-family="Helvetica,sans-Serif" font-size="10.00">src/libs/vwidgets/vcontrolpointspline.cpp</text>
</a>
</g>
</g>
<!-- Node4&#45;&gt;Node35 -->
<g id="edge31" class="edge">
<title>Node4&#45;&gt;Node35</title>
<path fill="none" stroke="midnightblue" d="M3766.47,-146.48C3565.54,-142.1 3120.85,-129.45 2747.5,-98 2729.35,-96.47 2709.68,-94.25 2691.73,-92.01"/>
<polygon fill="midnightblue" stroke="midnightblue" points="3766.65,-149.98 3776.72,-146.7 3766.8,-142.99 3766.65,-149.98"/>
</g>
<!-- Node36 -->
<g id="node32" class="node">
<title>Node36</title>
<g id="a_node32"><a xlink:href="../../de/dec/vgraphicssimpletextitem_8cpp.html" target="_top" xlink:title=" ">
<polygon fill="white" stroke="black" points="2756.5,-73 2756.5,-92 3000.5,-92 3000.5,-73 2756.5,-73"/>
<text text-anchor="middle" x="2878.5" y="-80" font-family="Helvetica,sans-Serif" font-size="10.00">src/libs/vwidgets/vgraphicssimpletextitem.cpp</text>
</a>
</g>
</g>
<!-- Node4&#45;&gt;Node36 -->
<g id="edge32" class="edge">
<title>Node4&#45;&gt;Node36</title>
<path fill="none" stroke="midnightblue" d="M3766.69,-144.01C3602.91,-136.77 3281.67,-120.99 3009.5,-98 2990.01,-96.35 2968.92,-94.19 2949.48,-92.04"/>
<polygon fill="midnightblue" stroke="midnightblue" points="3766.62,-147.51 3776.77,-144.45 3766.93,-140.51 3766.62,-147.51"/>
</g>
<!-- Node37 -->
<g id="node33" class="node">
<title>Node37</title>
<g id="a_node33"><a xlink:href="../../d1/d90/vgrainlineitem_8cpp.html" target="_top" xlink:title=" ">
<polygon fill="white" stroke="black" points="3019,-73 3019,-92 3212,-92 3212,-73 3019,-73"/>
<text text-anchor="middle" x="3115.5" y="-80" font-family="Helvetica,sans-Serif" font-size="10.00">src/libs/vwidgets/vgrainlineitem.cpp</text>
</a>
</g>
</g>
<!-- Node4&#45;&gt;Node37 -->
<g id="edge33" class="edge">
<title>Node4&#45;&gt;Node37</title>
<path fill="none" stroke="midnightblue" d="M3766.66,-142.11C3637.04,-133.98 3413.04,-118.49 3221.5,-98 3205.8,-96.32 3188.84,-94.16 3173.19,-92.02"/>
<polygon fill="midnightblue" stroke="midnightblue" points="3766.78,-145.62 3776.98,-142.75 3767.22,-138.64 3766.78,-145.62"/>
</g>
<!-- Node38 -->
<g id="node34" class="node">
<title>Node38</title>
<g id="a_node34"><a xlink:href="../../d1/d88/vmaingraphicsscene_8cpp.html" target="_top" xlink:title=" ">
<polygon fill="white" stroke="black" points="3230.5,-73 3230.5,-92 3452.5,-92 3452.5,-73 3230.5,-73"/>
<text text-anchor="middle" x="3341.5" y="-80" font-family="Helvetica,sans-Serif" font-size="10.00">src/libs/vwidgets/vmaingraphicsscene.cpp</text>
</a>
</g>
</g>
<!-- Node4&#45;&gt;Node38 -->
<g id="edge34" class="edge">
<title>Node4&#45;&gt;Node38</title>
<path fill="none" stroke="midnightblue" d="M3794.41,-138.73C3690.37,-126.05 3510.4,-104.1 3411.54,-92.04"/>
<polygon fill="midnightblue" stroke="midnightblue" points="3794.2,-142.23 3804.55,-139.97 3795.04,-135.28 3794.2,-142.23"/>
</g>
<!-- Node39 -->
<g id="node35" class="node">
<title>Node39</title>
<g id="a_node35"><a xlink:href="../../d0/d5d/vscenepoint_8cpp.html" target="_top" xlink:title=" ">
<polygon fill="white" stroke="black" points="3471,-73 3471,-92 3652,-92 3652,-73 3471,-73"/>
<text text-anchor="middle" x="3561.5" y="-80" font-family="Helvetica,sans-Serif" font-size="10.00">src/libs/vwidgets/vscenepoint.cpp</text>
</a>
</g>
</g>
<!-- Node4&#45;&gt;Node39 -->
<g id="edge35" class="edge">
<title>Node4&#45;&gt;Node39</title>
<path fill="none" stroke="midnightblue" d="M3823.37,-137.88C3761.82,-125.1 3659.65,-103.88 3602.83,-92.08"/>
<polygon fill="midnightblue" stroke="midnightblue" points="3822.76,-141.33 3833.26,-139.94 3824.18,-134.48 3822.76,-141.33"/>
</g>
<!-- Node40 -->
<g id="node36" class="node">
<title>Node40</title>
<g id="a_node36"><a xlink:href="../../de/d22/vsimplecurve_8cpp.html" target="_top" xlink:title=" ">
<polygon fill="white" stroke="black" points="3670.5,-73 3670.5,-92 3858.5,-92 3858.5,-73 3670.5,-73"/>
<text text-anchor="middle" x="3764.5" y="-80" font-family="Helvetica,sans-Serif" font-size="10.00">src/libs/vwidgets/vsimplecurve.cpp</text>
</a>
</g>
</g>
<!-- Node4&#45;&gt;Node40 -->
<g id="edge36" class="edge">
<title>Node4&#45;&gt;Node40</title>
<path fill="none" stroke="midnightblue" d="M3851,-134.62C3829.21,-121.74 3797.46,-102.98 3779.1,-92.13"/>
<polygon fill="midnightblue" stroke="midnightblue" points="3849.28,-137.66 3859.66,-139.73 3852.84,-131.63 3849.28,-137.66"/>
</g>
<!-- Node41 -->
<g id="node37" class="node">
<title>Node41</title>
<g id="a_node37"><a xlink:href="../../d2/d31/vmaingraphicsview_8cpp.html" target="_top" xlink:title=" ">
<polygon fill="white" stroke="black" points="3876.5,-73 3876.5,-92 4092.5,-92 4092.5,-73 3876.5,-73"/>
<text text-anchor="middle" x="3984.5" y="-80" font-family="Helvetica,sans-Serif" font-size="10.00">src/libs/vwidgets/vmaingraphicsview.cpp</text>
</a>
</g>
</g>
<!-- Node4&#45;&gt;Node41 -->
<g id="edge37" class="edge">
<title>Node4&#45;&gt;Node41</title>
<path fill="none" stroke="midnightblue" d="M3898,-134.62C3919.79,-121.74 3951.54,-102.98 3969.9,-92.13"/>
<polygon fill="midnightblue" stroke="midnightblue" points="3896.16,-131.63 3889.34,-139.73 3899.72,-137.66 3896.16,-131.63"/>
</g>
<!-- Node42 -->
<g id="node38" class="node">
<title>Node42</title>
<g id="a_node38"><a xlink:href="../../df/d38/vsimplepoint_8cpp.html" target="_top" xlink:title=" ">
<polygon fill="white" stroke="black" points="4111,-73 4111,-92 4296,-92 4296,-73 4111,-73"/>
<text text-anchor="middle" x="4203.5" y="-80" font-family="Helvetica,sans-Serif" font-size="10.00">src/libs/vwidgets/vsimplepoint.cpp</text>
</a>
</g>
</g>
<!-- Node4&#45;&gt;Node42 -->
<g id="edge38" class="edge">
<title>Node4&#45;&gt;Node42</title>
<path fill="none" stroke="midnightblue" d="M3927.86,-137.96C3992.61,-125.16 4100.53,-103.84 4160.32,-92.03"/>
<polygon fill="midnightblue" stroke="midnightblue" points="3926.98,-134.56 3917.85,-139.94 3928.34,-141.43 3926.98,-134.56"/>
</g>
<!-- Node43 -->
<g id="node39" class="node">
<title>Node43</title>
<g id="a_node39"><a xlink:href="../../df/df5/vtextgraphicsitem_8cpp.html" target="_top" xlink:title=" ">
<polygon fill="white" stroke="black" points="4314,-73 4314,-92 4525,-92 4525,-73 4314,-73"/>
<text text-anchor="middle" x="4419.5" y="-80" font-family="Helvetica,sans-Serif" font-size="10.00">src/libs/vwidgets/vtextgraphicsitem.cpp</text>
</a>
</g>
</g>
<!-- Node4&#45;&gt;Node43 -->
<g id="edge39" class="edge">
<title>Node4&#45;&gt;Node43</title>
<path fill="none" stroke="midnightblue" d="M3958.76,-138.82C4045.47,-128.81 4184.46,-112.62 4304.5,-98 4320.08,-96.1 4336.84,-94.02 4352.62,-92.03"/>
<polygon fill="midnightblue" stroke="midnightblue" points="3958.25,-135.36 3948.71,-139.98 3959.05,-142.31 3958.25,-135.36"/>
</g>
<!-- Node14&#45;&gt;Node13 -->
<g id="edge11" class="edge">
<title>Node14&#45;&gt;Node13</title>
<path fill="none" stroke="midnightblue" d="M5734.45,-64.44C5701.05,-53.91 5658.72,-40.55 5627.22,-30.61"/>
<polygon fill="midnightblue" stroke="midnightblue" points="5733.46,-67.8 5744.05,-67.48 5735.57,-61.13 5733.46,-67.8"/>
</g>
<!-- Node28 -->
<g id="node24" class="node">
<title>Node28</title>
<g id="a_node24"><a xlink:href="../../d8/dba/vpiecenode_8cpp.html" target="_top" xlink:title=" ">
<polygon fill="white" stroke="black" points="2995,-0.5 2995,-30.5 3102,-30.5 3102,-0.5 2995,-0.5"/>
<text text-anchor="start" x="3003" y="-18.5" font-family="Helvetica,sans-Serif" font-size="10.00">src/libs/vpatterndb</text>
<text text-anchor="middle" x="3048.5" y="-7.5" font-family="Helvetica,sans-Serif" font-size="10.00">/vpiecenode.cpp</text>
</a>
</g>
</g>
<!-- Node27&#45;&gt;Node28 -->
<g id="edge24" class="edge">
<title>Node27&#45;&gt;Node28</title>
<path fill="none" stroke="midnightblue" d="M5231.52,-67.11C4780.62,-13.06 3393.32,-15.21 3102.36,-16.26"/>
<polygon fill="midnightblue" stroke="midnightblue" points="5231.32,-70.61 5241.67,-68.35 5232.17,-63.66 5231.32,-70.61"/>
</g>
<!-- Node44&#45;&gt;Node4 -->
<g id="edge47" class="edge">
<title>Node44&#45;&gt;Node4</title>
<path fill="none" stroke="midnightblue" d="M863.42,-214.15C1252.61,-205.92 3302.65,-162.59 3776.63,-152.57"/>
<polygon fill="midnightblue" stroke="midnightblue" points="863.12,-210.65 853.2,-214.36 863.27,-217.65 863.12,-210.65"/>
</g>
<!-- Node44&#45;&gt;Node18 -->
<g id="edge46" class="edge">
<title>Node44&#45;&gt;Node18</title>
<path fill="none" stroke="midnightblue" d="M794.19,-191.54C790.51,-175.27 785.42,-153.29 780.5,-134 776.72,-119.19 771.87,-102.07 768.99,-92.05"/>
<polygon fill="midnightblue" stroke="midnightblue" points="790.78,-192.33 796.38,-201.32 797.61,-190.8 790.78,-192.33"/>
</g>
<!-- Node44&#45;&gt;Node24 -->
<g id="edge50" class="edge">
<title>Node44&#45;&gt;Node24</title>
<path fill="none" stroke="midnightblue" d="M863.77,-214.89C1193.26,-211.7 2726.22,-195.81 3980.5,-165 4204.45,-159.5 5773.37,-126.98 5995.5,-98 5998.5,-97.61 6001.58,-97.14 6004.67,-96.61"/>
<polygon fill="midnightblue" stroke="midnightblue" points="863.43,-211.4 853.46,-214.99 863.5,-218.4 863.43,-211.4"/>
</g>
<!-- Node44&#45;&gt;Node25 -->
<g id="edge52" class="edge">
<title>Node44&#45;&gt;Node25</title>
<path fill="none" stroke="midnightblue" d="M863.28,-215.39C1228.12,-214.62 3087.62,-208.62 4605.5,-165 4942.36,-155.32 5786.58,-143.43 6120.5,-98 6123.5,-97.59 6126.57,-97.11 6129.66,-96.57"/>
<polygon fill="midnightblue" stroke="midnightblue" points="863.17,-211.89 853.17,-215.41 863.18,-218.89 863.17,-211.89"/>
</g>
<!-- Node44&#45;&gt;Node26 -->
<g id="edge54" class="edge">
<title>Node44&#45;&gt;Node26</title>
<path fill="none" stroke="midnightblue" d="M820.43,-194.25C847.22,-167.04 892.88,-120.68 915.69,-97.52"/>
<polygon fill="midnightblue" stroke="midnightblue" points="817.94,-191.79 813.41,-201.37 822.92,-196.7 817.94,-191.79"/>
</g>
<!-- Node44&#45;&gt;Node28 -->
<g id="edge53" class="edge">
<title>Node44&#45;&gt;Node28</title>
<path fill="none" stroke="midnightblue" d="M735.75,-208.45C686.09,-201.48 616.14,-188.36 558.5,-165 499.04,-140.9 407.58,-112.81 452.5,-67 498.64,-19.96 2627.14,-16.72 2994.71,-16.51"/>
<polygon fill="midnightblue" stroke="midnightblue" points="735.34,-211.93 745.72,-209.81 736.28,-204.99 735.34,-211.93"/>
</g>
<!-- Node45 -->
<g id="node41" class="node">
<title>Node45</title>
<g id="a_node41"><a xlink:href="../../d4/dd6/vmeasurements_8h.html" target="_top" xlink:title=" ">
<polygon fill="white" stroke="black" points="587,-140 587,-159 772,-159 772,-140 587,-140"/>
<text text-anchor="middle" x="679.5" y="-147" font-family="Helvetica,sans-Serif" font-size="10.00">src/libs/vformat/vmeasurements.h</text>
</a>
</g>
</g>
<!-- Node44&#45;&gt;Node45 -->
<g id="edge41" class="edge">
<title>Node44&#45;&gt;Node45</title>
<path fill="none" stroke="midnightblue" d="M764.37,-196.47C741.46,-184.06 712.68,-168.47 695.21,-159.01"/>
<polygon fill="midnightblue" stroke="midnightblue" points="763,-199.71 773.46,-201.4 766.34,-193.56 763,-199.71"/>
</g>
<!-- Node46 -->
<g id="node42" class="node">
<title>Node46</title>
<g id="a_node42"><a xlink:href="../../de/db3/vmeasurements_8cpp.html" target="_top" xlink:title=" ">
<polygon fill="white" stroke="black" points="461.5,-73 461.5,-92 657.5,-92 657.5,-73 461.5,-73"/>
<text text-anchor="middle" x="559.5" y="-80" font-family="Helvetica,sans-Serif" font-size="10.00">src/libs/vformat/vmeasurements.cpp</text>
</a>
</g>
</g>
<!-- Node44&#45;&gt;Node46 -->
<g id="edge43" class="edge">
<title>Node44&#45;&gt;Node46</title>
<path fill="none" stroke="midnightblue" d="M735.72,-208.6C678.22,-201.07 599.41,-187.05 577.5,-165 557.69,-145.06 557.57,-108.54 558.67,-92.02"/>
<polygon fill="midnightblue" stroke="midnightblue" points="735.47,-212.1 745.84,-209.89 736.36,-205.15 735.47,-212.1"/>
</g>
<!-- Node47 -->
<g id="node43" class="node">
<title>Node47</title>
<g id="a_node43"><a xlink:href="../../d6/de0/vlayoutpiece_8h.html" target="_top" xlink:title=" ">
<polygon fill="white" stroke="red" points="959.5,-140 959.5,-159 1125.5,-159 1125.5,-140 959.5,-140"/>
<text text-anchor="middle" x="1042.5" y="-147" font-family="Helvetica,sans-Serif" font-size="10.00">src/libs/vlayout/vlayoutpiece.h</text>
</a>
</g>
</g>
<!-- Node44&#45;&gt;Node47 -->
<g id="edge44" class="edge">
<title>Node44&#45;&gt;Node47</title>
<path fill="none" stroke="midnightblue" d="M861.82,-198.83C909.38,-186.11 972.94,-169.11 1010.62,-159.03"/>
<polygon fill="midnightblue" stroke="midnightblue" points="860.68,-195.51 851.93,-201.48 862.49,-202.27 860.68,-195.51"/>
</g>
<!-- Node56 -->
<g id="node44" class="node">
<title>Node56</title>
<g id="a_node44"><a xlink:href="../../d1/de1/vincrement__p_8h.html" target="_top" xlink:title=" ">
<polygon fill="white" stroke="red" points="0,-134.5 0,-164.5 143,-164.5 143,-134.5 0,-134.5"/>
<text text-anchor="start" x="8" y="-152.5" font-family="Helvetica,sans-Serif" font-size="10.00">src/libs/vpatterndb</text>
<text text-anchor="middle" x="71.5" y="-141.5" font-family="Helvetica,sans-Serif" font-size="10.00">/variables/vincrement_p.h</text>
</a>
</g>
</g>
<!-- Node44&#45;&gt;Node56 -->
<g id="edge48" class="edge">
<title>Node44&#45;&gt;Node56</title>
<path fill="none" stroke="midnightblue" d="M735.47,-212.61C619.07,-206.89 365.12,-192.26 152.5,-165 149.52,-164.62 146.49,-164.2 143.43,-163.76"/>
<polygon fill="midnightblue" stroke="midnightblue" points="735.48,-216.12 745.63,-213.11 735.82,-209.12 735.48,-216.12"/>
</g>
<!-- Node58 -->
<g id="node45" class="node">
<title>Node58</title>
<g id="a_node45"><a xlink:href="../../d6/dc1/vmeasurement__p_8h.html" target="_top" xlink:title=" ">
<polygon fill="white" stroke="red" points="161.5,-134.5 161.5,-164.5 323.5,-164.5 323.5,-134.5 161.5,-134.5"/>
<text text-anchor="start" x="169.5" y="-152.5" font-family="Helvetica,sans-Serif" font-size="10.00">src/libs/vpatterndb</text>
<text text-anchor="middle" x="242.5" y="-141.5" font-family="Helvetica,sans-Serif" font-size="10.00">/variables/vmeasurement_p.h</text>
</a>
</g>
</g>
<!-- Node44&#45;&gt;Node58 -->
<g id="edge49" class="edge">
<title>Node44&#45;&gt;Node58</title>
<path fill="none" stroke="midnightblue" d="M735.76,-209.67C645.74,-201.19 476.28,-184.34 332.5,-165 329.68,-164.62 326.81,-164.22 323.91,-163.81"/>
<polygon fill="midnightblue" stroke="midnightblue" points="735.53,-213.16 745.81,-210.61 736.18,-206.19 735.53,-213.16"/>
</g>
<!-- Node60 -->
<g id="node46" class="node">
<title>Node60</title>
<g id="a_node46"><a xlink:href="../../d6/d91/vnodedetail_8cpp.html" target="_top" xlink:title=" ">
<polygon fill="white" stroke="black" points="342,-134.5 342,-164.5 449,-164.5 449,-134.5 342,-134.5"/>
<text text-anchor="start" x="350" y="-152.5" font-family="Helvetica,sans-Serif" font-size="10.00">src/libs/vpatterndb</text>
<text text-anchor="middle" x="395.5" y="-141.5" font-family="Helvetica,sans-Serif" font-size="10.00">/vnodedetail.cpp</text>
</a>
</g>
</g>
<!-- Node44&#45;&gt;Node60 -->
<g id="edge51" class="edge">
<title>Node44&#45;&gt;Node60</title>
<path fill="none" stroke="midnightblue" d="M735.71,-207.09C667.98,-197.89 557.9,-182.14 463.5,-165 458.87,-164.16 454.07,-163.24 449.26,-162.28"/>
<polygon fill="midnightblue" stroke="midnightblue" points="735.42,-210.58 745.8,-208.46 736.36,-203.65 735.42,-210.58"/>
</g>
<!-- Node45&#45;&gt;Node46 -->
<g id="edge42" class="edge">
<title>Node45&#45;&gt;Node46</title>
<path fill="none" stroke="midnightblue" d="M654.5,-134.96C630.71,-122.07 595.63,-103.07 575.43,-92.13"/>
<polygon fill="midnightblue" stroke="midnightblue" points="652.86,-138.05 663.32,-139.73 656.19,-131.89 652.86,-138.05"/>
</g>
<!-- Node47&#45;&gt;Node19 -->
<g id="edge45" class="edge">
<title>Node47&#45;&gt;Node19</title>
<path fill="none" stroke="midnightblue" d="M1054.86,-131.4C1063.99,-118.77 1076.05,-102.1 1083.26,-92.13"/>
<polygon fill="midnightblue" stroke="midnightblue" points="1051.86,-129.58 1048.84,-139.73 1057.53,-133.68 1051.86,-129.58"/>
</g>
</g>
</svg>
