<?xml version="1.0" encoding="UTF-8" standalone="no"?>
<!DOCTYPE svg PUBLIC "-//W3C//DTD SVG 1.1//EN"
 "http://www.w3.org/Graphics/SVG/1.1/DTD/svg11.dtd">
<!-- Generated by graphviz version 2.43.0 (0)
 -->
<!-- Title: src/libs/ifc/xml/vabstractmconverter.h Pages: 1 -->
<svg width="1589pt" height="192pt"
 viewBox="0.00 0.00 1589.00 192.00" xmlns="http://www.w3.org/2000/svg" xmlns:xlink="http://www.w3.org/1999/xlink">
<g id="graph0" class="graph" transform="scale(1 1) rotate(0) translate(4 188)">
<title>src/libs/ifc/xml/vabstractmconverter.h</title>
<!-- Node1 -->
<g id="Node000001" class="node">
<title>Node1</title>
<g id="a_Node000001"><a xlink:title=" ">
<polygon fill="#999999" stroke="#666666" points="853,-184 652,-184 652,-165 853,-165 853,-184"/>
<text text-anchor="middle" x="752.5" y="-172" font-family="Helvetica,sans-Serif" font-size="10.00">src/libs/ifc/xml/vabstractmconverter.h</text>
</a>
</g>
</g>
<!-- Node2 -->
<g id="Node000002" class="node">
<title>Node2</title>
<g id="a_Node000002"><a xlink:title=" ">
<polygon fill="#e0e0e0" stroke="#999999" points="476.5,-74 356.5,-74 356.5,-55 476.5,-55 476.5,-74"/>
<text text-anchor="middle" x="416.5" y="-62" font-family="Helvetica,sans-Serif" font-size="10.00">qcompilerdetection.h</text>
</a>
</g>
</g>
<!-- Node1&#45;&gt;Node2 -->
<g id="edge1_Node000001_Node000002" class="edge">
<title>Node1&#45;&gt;Node2</title>
<g id="a_edge1_Node000001_Node000002"><a xlink:title=" ">
<path fill="none" stroke="#63b8ff" d="M717.14,-164.97C683.54,-156.62 631.73,-143.14 587.5,-129 537.67,-113.07 480.95,-91.26 446.97,-77.79"/>
<polygon fill="#63b8ff" stroke="#63b8ff" points="448.19,-74.5 437.61,-74.06 445.6,-81.01 448.19,-74.5"/>
</a>
</g>
</g>
<!-- Node3 -->
<g id="Node000003" class="node">
<title>Node3</title>
<g id="a_Node000003"><a xlink:title=" ">
<polygon fill="#e0e0e0" stroke="#999999" points="924,-129 879,-129 879,-110 924,-110 924,-129"/>
<text text-anchor="middle" x="901.5" y="-117" font-family="Helvetica,sans-Serif" font-size="10.00">QMap</text>
</a>
</g>
</g>
<!-- Node1&#45;&gt;Node3 -->
<g id="edge2_Node000001_Node000003" class="edge">
<title>Node1&#45;&gt;Node3</title>
<g id="a_edge2_Node000001_Node000003"><a xlink:title=" ">
<path fill="none" stroke="#63b8ff" d="M776.44,-164.98C801.5,-156.07 841,-142.02 868.9,-132.1"/>
<polygon fill="#63b8ff" stroke="#63b8ff" points="870.35,-135.3 878.6,-128.65 868,-128.7 870.35,-135.3"/>
</a>
</g>
</g>
<!-- Node4 -->
<g id="Node000004" class="node">
<title>Node4</title>
<g id="a_Node000004"><a xlink:title=" ">
<polygon fill="#e0e0e0" stroke="#999999" points="1012.5,-129 942.5,-129 942.5,-110 1012.5,-110 1012.5,-129"/>
<text text-anchor="middle" x="977.5" y="-117" font-family="Helvetica,sans-Serif" font-size="10.00">QMultiMap</text>
</a>
</g>
</g>
<!-- Node1&#45;&gt;Node4 -->
<g id="edge3_Node000001_Node000004" class="edge">
<title>Node1&#45;&gt;Node4</title>
<g id="a_edge3_Node000001_Node000004"><a xlink:title=" ">
<path fill="none" stroke="#63b8ff" d="M788.65,-164.98C827.75,-155.77 890.15,-141.08 932.42,-131.12"/>
<polygon fill="#63b8ff" stroke="#63b8ff" points="933.25,-134.52 942.18,-128.82 931.65,-127.71 933.25,-134.52"/>
</a>
</g>
</g>
<!-- Node5 -->
<g id="Node000005" class="node">
<title>Node5</title>
<g id="a_Node000005"><a xlink:title=" ">
<polygon fill="#e0e0e0" stroke="#999999" points="1581,-19 1528,-19 1528,0 1581,0 1581,-19"/>
<text text-anchor="middle" x="1554.5" y="-7" font-family="Helvetica,sans-Serif" font-size="10.00">QString</text>
</a>
</g>
</g>
<!-- Node1&#45;&gt;Node5 -->
<g id="edge4_Node000001_Node000005" class="edge">
<title>Node1&#45;&gt;Node5</title>
<g id="a_edge4_Node000001_Node000005"><a xlink:title=" ">
<path fill="none" stroke="#63b8ff" d="M764.92,-164.87C785.72,-150.89 829.38,-123.47 870.5,-110 1144.19,-20.36 1231.45,-72.46 1517.97,-19.13"/>
<polygon fill="#63b8ff" stroke="#63b8ff" points="1518.63,-22.57 1527.81,-17.27 1517.33,-15.69 1518.63,-22.57"/>
</a>
</g>
</g>
<!-- Node6 -->
<g id="Node000006" class="node">
<title>Node6</title>
<g id="a_Node000006"><a xlink:title=" ">
<polygon fill="#e0e0e0" stroke="#999999" points="59,-19 0,-19 0,0 59,0 59,-19"/>
<text text-anchor="middle" x="29.5" y="-7" font-family="Helvetica,sans-Serif" font-size="10.00">QtGlobal</text>
</a>
</g>
</g>
<!-- Node1&#45;&gt;Node6 -->
<g id="edge5_Node000001_Node000006" class="edge">
<title>Node1&#45;&gt;Node6</title>
<g id="a_edge5_Node000001_Node000006"><a xlink:title=" ">
<path fill="none" stroke="#63b8ff" d="M707.34,-164.92C662.41,-156.27 591.56,-142.34 530.5,-129 358.03,-91.33 153.47,-41.25 69,-20.33"/>
<polygon fill="#63b8ff" stroke="#63b8ff" points="69.61,-16.88 59.06,-17.87 67.93,-23.67 69.61,-16.88"/>
</a>
</g>
</g>
<!-- Node7 -->
<g id="Node000007" class="node">
<title>Node7</title>
<g id="a_Node000007"><a xlink:href="../../df/de4/vabstractconverter_8h.html" target="_top" xlink:title=" ">
<polygon fill="white" stroke="#666666" points="713,-129 596,-129 596,-110 713,-110 713,-129"/>
<text text-anchor="middle" x="654.5" y="-117" font-family="Helvetica,sans-Serif" font-size="10.00">vabstractconverter.h</text>
</a>
</g>
</g>
<!-- Node1&#45;&gt;Node7 -->
<g id="edge6_Node000001_Node000007" class="edge">
<title>Node1&#45;&gt;Node7</title>
<g id="a_edge6_Node000001_Node000007"><a xlink:title=" ">
<path fill="none" stroke="#63b8ff" d="M736.75,-164.98C721.27,-156.61 697.41,-143.7 679.36,-133.95"/>
<polygon fill="#63b8ff" stroke="#63b8ff" points="680.99,-130.85 670.53,-129.17 677.66,-137.01 680.99,-130.85"/>
</a>
</g>
</g>
<!-- Node7&#45;&gt;Node2 -->
<g id="edge7_Node000007_Node000002" class="edge">
<title>Node7&#45;&gt;Node2</title>
<g id="a_edge7_Node000007_Node000002"><a xlink:title=" ">
<path fill="none" stroke="#63b8ff" d="M616.26,-109.98C575.09,-100.82 509.51,-86.21 464.8,-76.26"/>
<polygon fill="#63b8ff" stroke="#63b8ff" points="465.56,-72.84 455.04,-74.08 464.04,-79.67 465.56,-72.84"/>
</a>
</g>
</g>
<!-- Node7&#45;&gt;Node5 -->
<g id="edge9_Node000007_Node000005" class="edge">
<title>Node7&#45;&gt;Node5</title>
<g id="a_edge9_Node000007_Node000005"><a xlink:title=" ">
<path fill="none" stroke="#63b8ff" d="M684.37,-109.94C712.74,-101.57 756.43,-88.08 793.5,-74 813.03,-66.58 816.18,-59.85 836.5,-55 1128.85,14.8 1216.76,-61.31 1517.52,-19"/>
<polygon fill="#63b8ff" stroke="#63b8ff" points="1518.45,-22.4 1527.85,-17.51 1517.45,-15.47 1518.45,-22.4"/>
</a>
</g>
</g>
<!-- Node7&#45;&gt;Node6 -->
<g id="edge11_Node000007_Node000006" class="edge">
<title>Node7&#45;&gt;Node6</title>
<g id="a_edge11_Node000007_Node000006"><a xlink:title=" ">
<path fill="none" stroke="#63b8ff" d="M626.23,-109.94C599.65,-101.62 558.9,-88.2 524.5,-74 506.68,-66.64 504.08,-60.14 485.5,-55 309.35,-6.3 254.35,-45.44 69.3,-18.88"/>
<polygon fill="#63b8ff" stroke="#63b8ff" points="69.64,-15.4 59.24,-17.39 68.62,-22.32 69.64,-15.4"/>
</a>
</g>
</g>
<!-- Node8 -->
<g id="Node000008" class="node">
<title>Node8</title>
<g id="a_Node000008"><a xlink:title=" ">
<polygon fill="#e0e0e0" stroke="#999999" points="178,-19 77,-19 77,0 178,0 178,-19"/>
<text text-anchor="middle" x="127.5" y="-7" font-family="Helvetica,sans-Serif" font-size="10.00">QCoreApplication</text>
</a>
</g>
</g>
<!-- Node7&#45;&gt;Node8 -->
<g id="edge8_Node000007_Node000008" class="edge">
<title>Node7&#45;&gt;Node8</title>
<g id="a_edge8_Node000007_Node000008"><a xlink:title=" ">
<path fill="none" stroke="#63b8ff" d="M654.75,-109.87C654.63,-95.88 652.14,-68.46 635.5,-55 598.49,-25.07 270.14,-24.49 188.42,-18.79"/>
<polygon fill="#63b8ff" stroke="#63b8ff" points="188.48,-15.28 178.21,-17.9 187.87,-22.25 188.48,-15.28"/>
</a>
</g>
</g>
<!-- Node9 -->
<g id="Node000009" class="node">
<title>Node9</title>
<g id="a_Node000009"><a xlink:title=" ">
<polygon fill="#e0e0e0" stroke="#999999" points="626,-74 533,-74 533,-55 626,-55 626,-74"/>
<text text-anchor="middle" x="579.5" y="-62" font-family="Helvetica,sans-Serif" font-size="10.00">QTemporaryFile</text>
</a>
</g>
</g>
<!-- Node7&#45;&gt;Node9 -->
<g id="edge10_Node000007_Node000009" class="edge">
<title>Node7&#45;&gt;Node9</title>
<g id="a_edge10_Node000007_Node000009"><a xlink:title=" ">
<path fill="none" stroke="#63b8ff" d="M642.45,-109.98C631.04,-101.92 613.67,-89.65 600.07,-80.03"/>
<polygon fill="#63b8ff" stroke="#63b8ff" points="601.96,-77.08 591.77,-74.17 597.92,-82.8 601.96,-77.08"/>
</a>
</g>
</g>
<!-- Node10 -->
<g id="Node000010" class="node">
<title>Node10</title>
<g id="a_Node000010"><a xlink:href="../../d8/da5/vdomdocument_8h.html" target="_top" xlink:title=" ">
<polygon fill="white" stroke="#666666" points="784.5,-74 682.5,-74 682.5,-55 784.5,-55 784.5,-74"/>
<text text-anchor="middle" x="733.5" y="-62" font-family="Helvetica,sans-Serif" font-size="10.00">vdomdocument.h</text>
</a>
</g>
</g>
<!-- Node7&#45;&gt;Node10 -->
<g id="edge12_Node000007_Node000010" class="edge">
<title>Node7&#45;&gt;Node10</title>
<g id="a_edge12_Node000007_Node000010"><a xlink:title=" ">
<path fill="none" stroke="#63b8ff" d="M667.19,-109.98C679.33,-101.84 697.86,-89.41 712.25,-79.76"/>
<polygon fill="#63b8ff" stroke="#63b8ff" points="714.22,-82.65 720.58,-74.17 710.32,-76.84 714.22,-82.65"/>
</a>
</g>
</g>
<!-- Node10&#45;&gt;Node5 -->
<g id="edge20_Node000010_Node000005" class="edge">
<title>Node10&#45;&gt;Node5</title>
<g id="a_edge20_Node000010_Node000005"><a xlink:title=" ">
<path fill="none" stroke="#63b8ff" d="M784.55,-56.43C789.26,-55.9 793.97,-55.41 798.5,-55 1114.77,-26.47 1200.23,-64.27 1517.9,-18.96"/>
<polygon fill="#63b8ff" stroke="#63b8ff" points="1518.45,-22.41 1527.85,-17.52 1517.45,-15.48 1518.45,-22.41"/>
</a>
</g>
</g>
<!-- Node10&#45;&gt;Node6 -->
<g id="edge23_Node000010_Node000006" class="edge">
<title>Node10&#45;&gt;Node6</title>
<g id="a_edge23_Node000010_Node000006"><a xlink:title=" ">
<path fill="none" stroke="#63b8ff" d="M682.4,-58.84C667.3,-57.53 650.74,-56.14 635.5,-55 387.02,-36.34 320.32,-53.52 69.38,-18.88"/>
<polygon fill="#63b8ff" stroke="#63b8ff" points="69.61,-15.38 59.23,-17.46 68.65,-22.31 69.61,-15.38"/>
</a>
</g>
</g>
<!-- Node10&#45;&gt;Node8 -->
<g id="edge13_Node000010_Node000008" class="edge">
<title>Node10&#45;&gt;Node8</title>
<g id="a_edge13_Node000010_Node000008"><a xlink:title=" ">
<path fill="none" stroke="#63b8ff" d="M682.44,-56.55C677.73,-55.99 673.03,-55.47 668.5,-55 458.47,-33.42 402.32,-41.78 188.2,-19"/>
<polygon fill="#63b8ff" stroke="#63b8ff" points="188.53,-15.51 178.21,-17.92 187.78,-22.47 188.53,-15.51"/>
</a>
</g>
</g>
<!-- Node11 -->
<g id="Node000011" class="node">
<title>Node11</title>
<g id="a_Node000011"><a xlink:title=" ">
<polygon fill="#e0e0e0" stroke="#999999" points="1245.5,-19 1147.5,-19 1147.5,0 1245.5,0 1245.5,-19"/>
<text text-anchor="middle" x="1196.5" y="-7" font-family="Helvetica,sans-Serif" font-size="10.00">QDomDocument</text>
</a>
</g>
</g>
<!-- Node10&#45;&gt;Node11 -->
<g id="edge14_Node000010_Node000011" class="edge">
<title>Node10&#45;&gt;Node11</title>
<g id="a_edge14_Node000010_Node000011"><a xlink:title=" ">
<path fill="none" stroke="#63b8ff" d="M784.58,-56.7C789.28,-56.11 793.98,-55.53 798.5,-55 946.16,-37.53 986.04,-37.99 1137.34,-19.1"/>
<polygon fill="#63b8ff" stroke="#63b8ff" points="1137.99,-22.55 1147.47,-17.83 1137.11,-15.6 1137.99,-22.55"/>
</a>
</g>
</g>
<!-- Node12 -->
<g id="Node000012" class="node">
<title>Node12</title>
<g id="a_Node000012"><a xlink:title=" ">
<polygon fill="#e0e0e0" stroke="#999999" points="1351.5,-19 1263.5,-19 1263.5,0 1351.5,0 1351.5,-19"/>
<text text-anchor="middle" x="1307.5" y="-7" font-family="Helvetica,sans-Serif" font-size="10.00">QDomElement</text>
</a>
</g>
</g>
<!-- Node10&#45;&gt;Node12 -->
<g id="edge15_Node000010_Node000012" class="edge">
<title>Node10&#45;&gt;Node12</title>
<g id="a_edge15_Node000010_Node000012"><a xlink:title=" ">
<path fill="none" stroke="#63b8ff" d="M784.57,-56.57C789.27,-56.01 793.97,-55.47 798.5,-55 997.43,-34.15 1050.93,-42.82 1253.23,-19.06"/>
<polygon fill="#63b8ff" stroke="#63b8ff" points="1253.77,-22.52 1263.29,-17.86 1252.95,-15.57 1253.77,-22.52"/>
</a>
</g>
</g>
<!-- Node13 -->
<g id="Node000013" class="node">
<title>Node13</title>
<g id="a_Node000013"><a xlink:title=" ">
<polygon fill="#e0e0e0" stroke="#999999" points="1443,-19 1370,-19 1370,0 1443,0 1443,-19"/>
<text text-anchor="middle" x="1406.5" y="-7" font-family="Helvetica,sans-Serif" font-size="10.00">QDomNode</text>
</a>
</g>
</g>
<!-- Node10&#45;&gt;Node13 -->
<g id="edge16_Node000010_Node000013" class="edge">
<title>Node10&#45;&gt;Node13</title>
<g id="a_edge16_Node000010_Node000013"><a xlink:title=" ">
<path fill="none" stroke="#63b8ff" d="M784.56,-56.5C789.27,-55.95 793.97,-55.44 798.5,-55 1044.33,-31.08 1110.38,-49.3 1359.81,-18.91"/>
<polygon fill="#63b8ff" stroke="#63b8ff" points="1360.41,-22.36 1369.9,-17.67 1359.55,-15.42 1360.41,-22.36"/>
</a>
</g>
</g>
<!-- Node14 -->
<g id="Node000014" class="node">
<title>Node14</title>
<g id="a_Node000014"><a xlink:title=" ">
<polygon fill="#e0e0e0" stroke="#999999" points="1510,-19 1461,-19 1461,0 1510,0 1510,-19"/>
<text text-anchor="middle" x="1485.5" y="-7" font-family="Helvetica,sans-Serif" font-size="10.00">QHash</text>
</a>
</g>
</g>
<!-- Node10&#45;&gt;Node14 -->
<g id="edge17_Node000010_Node000014" class="edge">
<title>Node10&#45;&gt;Node14</title>
<g id="a_edge17_Node000010_Node000014"><a xlink:title=" ">
<path fill="none" stroke="#63b8ff" d="M784.55,-56.46C789.26,-55.92 793.97,-55.42 798.5,-55 1085.11,-28.41 1163.07,-62.73 1450.86,-18.96"/>
<polygon fill="#63b8ff" stroke="#63b8ff" points="1451.39,-22.42 1460.74,-17.44 1450.33,-15.5 1451.39,-22.42"/>
</a>
</g>
</g>
<!-- Node15 -->
<g id="Node000015" class="node">
<title>Node15</title>
<g id="a_Node000015"><a xlink:title=" ">
<polygon fill="#e0e0e0" stroke="#999999" points="279,-19 196,-19 196,0 279,0 279,-19"/>
<text text-anchor="middle" x="237.5" y="-7" font-family="Helvetica,sans-Serif" font-size="10.00">QLatin1String</text>
</a>
</g>
</g>
<!-- Node10&#45;&gt;Node15 -->
<g id="edge18_Node000010_Node000015" class="edge">
<title>Node10&#45;&gt;Node15</title>
<g id="a_edge18_Node000010_Node000015"><a xlink:title=" ">
<path fill="none" stroke="#63b8ff" d="M682.43,-56.65C677.72,-56.07 673.02,-55.51 668.5,-55 503.13,-36.36 458.41,-40.78 289.21,-19"/>
<polygon fill="#63b8ff" stroke="#63b8ff" points="289.58,-15.52 279.21,-17.7 288.68,-22.46 289.58,-15.52"/>
</a>
</g>
</g>
<!-- Node16 -->
<g id="Node000016" class="node">
<title>Node16</title>
<g id="a_Node000016"><a xlink:title=" ">
<polygon fill="#e0e0e0" stroke="#999999" points="401.5,-19 297.5,-19 297.5,0 401.5,0 401.5,-19"/>
<text text-anchor="middle" x="349.5" y="-7" font-family="Helvetica,sans-Serif" font-size="10.00">QStaticStringData</text>
</a>
</g>
</g>
<!-- Node10&#45;&gt;Node16 -->
<g id="edge19_Node000010_Node000016" class="edge">
<title>Node10&#45;&gt;Node16</title>
<g id="a_edge19_Node000010_Node000016"><a xlink:title=" ">
<path fill="none" stroke="#63b8ff" d="M682.31,-56.47C620.67,-48 513.7,-33.29 411.89,-19.19"/>
<polygon fill="#63b8ff" stroke="#63b8ff" points="412.13,-15.69 401.74,-17.79 411.17,-22.62 412.13,-15.69"/>
</a>
</g>
</g>
<!-- Node17 -->
<g id="Node000017" class="node">
<title>Node17</title>
<g id="a_Node000017"><a xlink:title=" ">
<polygon fill="#e0e0e0" stroke="#999999" points="495.5,-19 419.5,-19 419.5,0 495.5,0 495.5,-19"/>
<text text-anchor="middle" x="457.5" y="-7" font-family="Helvetica,sans-Serif" font-size="10.00">QStringData</text>
</a>
</g>
</g>
<!-- Node10&#45;&gt;Node17 -->
<g id="edge21_Node000010_Node000017" class="edge">
<title>Node10&#45;&gt;Node17</title>
<g id="a_edge21_Node000010_Node000017"><a xlink:title=" ">
<path fill="none" stroke="#63b8ff" d="M689.16,-54.98C638.87,-45.33 557.17,-29.64 505.44,-19.71"/>
<polygon fill="#63b8ff" stroke="#63b8ff" points="506,-16.25 495.51,-17.8 504.68,-23.12 506,-16.25"/>
</a>
</g>
</g>
<!-- Node18 -->
<g id="Node000018" class="node">
<title>Node18</title>
<g id="a_Node000018"><a xlink:title=" ">
<polygon fill="#e0e0e0" stroke="#999999" points="603,-19 514,-19 514,0 603,0 603,-19"/>
<text text-anchor="middle" x="558.5" y="-7" font-family="Helvetica,sans-Serif" font-size="10.00">QStringDataPtr</text>
</a>
</g>
</g>
<!-- Node10&#45;&gt;Node18 -->
<g id="edge22_Node000010_Node000018" class="edge">
<title>Node10&#45;&gt;Node18</title>
<g id="a_edge22_Node000010_Node000018"><a xlink:title=" ">
<path fill="none" stroke="#63b8ff" d="M705.38,-54.98C675.88,-46.05 629.31,-31.94 596.53,-22.02"/>
<polygon fill="#63b8ff" stroke="#63b8ff" points="597.42,-18.63 586.84,-19.08 595.39,-25.33 597.42,-18.63"/>
</a>
</g>
</g>
<!-- Node19 -->
<g id="Node000019" class="node">
<title>Node19</title>
<g id="a_Node000019"><a xlink:title=" ">
<polygon fill="#e0e0e0" stroke="#999999" points="676.5,-19 620.5,-19 620.5,0 676.5,0 676.5,-19"/>
<text text-anchor="middle" x="648.5" y="-7" font-family="Helvetica,sans-Serif" font-size="10.00">QLocale</text>
</a>
</g>
</g>
<!-- Node10&#45;&gt;Node19 -->
<g id="edge24_Node000010_Node000019" class="edge">
<title>Node10&#45;&gt;Node19</title>
<g id="a_edge24_Node000010_Node000019"><a xlink:title=" ">
<path fill="none" stroke="#63b8ff" d="M719.84,-54.98C706.66,-46.77 686.47,-34.18 670.93,-24.49"/>
<polygon fill="#63b8ff" stroke="#63b8ff" points="672.74,-21.49 662.41,-19.17 669.04,-27.43 672.74,-21.49"/>
</a>
</g>
</g>
<!-- Node20 -->
<g id="Node000020" class="node">
<title>Node20</title>
<g id="a_Node000020"><a xlink:title=" ">
<polygon fill="#e0e0e0" stroke="#999999" points="772,-19 695,-19 695,0 772,0 772,-19"/>
<text text-anchor="middle" x="733.5" y="-7" font-family="Helvetica,sans-Serif" font-size="10.00">../ifc/ifcdef.h</text>
</a>
</g>
</g>
<!-- Node10&#45;&gt;Node20 -->
<g id="edge25_Node000010_Node000020" class="edge">
<title>Node10&#45;&gt;Node20</title>
<g id="a_edge25_Node000010_Node000020"><a xlink:title=" ">
<path fill="none" stroke="#63b8ff" d="M733.5,-54.75C733.5,-47.8 733.5,-37.85 733.5,-29.13"/>
<polygon fill="#63b8ff" stroke="#63b8ff" points="737,-29.09 733.5,-19.09 730,-29.09 737,-29.09"/>
</a>
</g>
</g>
<!-- Node21 -->
<g id="Node000021" class="node">
<title>Node21</title>
<g id="a_Node000021"><a xlink:title=" ">
<polygon fill="#e0e0e0" stroke="#999999" points="872.5,-19 790.5,-19 790.5,0 872.5,0 872.5,-19"/>
<text text-anchor="middle" x="831.5" y="-7" font-family="Helvetica,sans-Serif" font-size="10.00">../vmisc/def.h</text>
</a>
</g>
</g>
<!-- Node10&#45;&gt;Node21 -->
<g id="edge26_Node000010_Node000021" class="edge">
<title>Node10&#45;&gt;Node21</title>
<g id="a_edge26_Node000010_Node000021"><a xlink:title=" ">
<path fill="none" stroke="#63b8ff" d="M749.25,-54.98C764.73,-46.61 788.59,-33.7 806.64,-23.95"/>
<polygon fill="#63b8ff" stroke="#63b8ff" points="808.34,-27.01 815.47,-19.17 805.01,-20.85 808.34,-27.01"/>
</a>
</g>
</g>
<!-- Node22 -->
<g id="Node000022" class="node">
<title>Node22</title>
<g id="a_Node000022"><a xlink:title=" ">
<polygon fill="#e0e0e0" stroke="#999999" points="1008,-19 891,-19 891,0 1008,0 1008,-19"/>
<text text-anchor="middle" x="949.5" y="-7" font-family="Helvetica,sans-Serif" font-size="10.00">../vmisc/diagnostic.h</text>
</a>
</g>
</g>
<!-- Node10&#45;&gt;Node22 -->
<g id="edge27_Node000010_Node000022" class="edge">
<title>Node10&#45;&gt;Node22</title>
<g id="a_edge27_Node000010_Node000022"><a xlink:title=" ">
<path fill="none" stroke="#63b8ff" d="M768.2,-54.98C805.25,-45.89 864.09,-31.46 904.63,-21.51"/>
<polygon fill="#63b8ff" stroke="#63b8ff" points="905.65,-24.86 914.52,-19.08 903.98,-18.07 905.65,-24.86"/>
</a>
</g>
</g>
<!-- Node23 -->
<g id="Node000023" class="node">
<title>Node23</title>
<g id="a_Node000023"><a xlink:title=" ">
<polygon fill="#e0e0e0" stroke="#999999" points="1129,-19 1026,-19 1026,0 1129,0 1129,-19"/>
<text text-anchor="middle" x="1077.5" y="-7" font-family="Helvetica,sans-Serif" font-size="10.00">../vmisc/logging.h</text>
</a>
</g>
</g>
<!-- Node10&#45;&gt;Node23 -->
<g id="edge28_Node000010_Node000023" class="edge">
<title>Node10&#45;&gt;Node23</title>
<g id="a_edge28_Node000010_Node000023"><a xlink:title=" ">
<path fill="none" stroke="#63b8ff" d="M784.63,-55.62C846.19,-46.14 949.51,-30.22 1015.54,-20.05"/>
<polygon fill="#63b8ff" stroke="#63b8ff" points="1016.46,-23.45 1025.81,-18.46 1015.39,-16.53 1016.46,-23.45"/>
</a>
</g>
</g>
</g>
</svg>
