<?xml version="1.0" encoding="UTF-8" standalone="no"?>
<!DOCTYPE svg PUBLIC "-//W3C//DTD SVG 1.1//EN"
 "http://www.w3.org/Graphics/SVG/1.1/DTD/svg11.dtd">
<!-- Generated by graphviz version 2.43.0 (0)
 -->
<!-- Title: src/libs/vmisc/vcommonsettings.h Pages: 1 -->
<svg width="6266pt" height="285pt"
 viewBox="0.00 0.00 6266.00 285.00" xmlns="http://www.w3.org/2000/svg" xmlns:xlink="http://www.w3.org/1999/xlink">
<g id="graph0" class="graph" transform="scale(1 1) rotate(0) translate(4 281)">
<title>src/libs/vmisc/vcommonsettings.h</title>
<polygon fill="white" stroke="transparent" points="-4,4 -4,-281 6262,-281 6262,4 -4,4"/>
<!-- Node1 -->
<g id="node1" class="node">
<title>Node1</title>
<g id="a_node1"><a xlink:title=" ">
<polygon fill="#bfbfbf" stroke="black" points="3629,-257.5 3629,-276.5 3812,-276.5 3812,-257.5 3629,-257.5"/>
<text text-anchor="middle" x="3720.5" y="-264.5" font-family="Helvetica,sans-Serif" font-size="10.00">src/libs/vmisc/vcommonsettings.h</text>
</a>
</g>
</g>
<!-- Node2 -->
<g id="node2" class="node">
<title>Node2</title>
<g id="a_node2"><a xlink:href="../../d4/d90/fvupdater_8cpp.html" target="_top" xlink:title=" ">
<polygon fill="white" stroke="black" points="0,-73 0,-92 153,-92 153,-73 0,-73"/>
<text text-anchor="middle" x="76.5" y="-80" font-family="Helvetica,sans-Serif" font-size="10.00">src/libs/fervor/fvupdater.cpp</text>
</a>
</g>
</g>
<!-- Node1&#45;&gt;Node2 -->
<g id="edge1" class="edge">
<title>Node1&#45;&gt;Node2</title>
<path fill="none" stroke="midnightblue" d="M3618.85,-265.61C3239.98,-263.48 1874.26,-250.02 752.5,-165 488.91,-145.02 423.23,-135.13 161.5,-98 149.2,-96.25 135.94,-94.12 123.63,-92.02"/>
<polygon fill="midnightblue" stroke="midnightblue" points="3618.94,-269.11 3628.96,-265.66 3618.98,-262.11 3618.94,-269.11"/>
</g>
<!-- Node3 -->
<g id="node3" class="node">
<title>Node3</title>
<g id="a_node3"><a xlink:href="../../dd/d70/vlayoutpiece_8cpp.html" target="_top" xlink:title=" ">
<polygon fill="white" stroke="black" points="171,-73 171,-92 348,-92 348,-73 171,-73"/>
<text text-anchor="middle" x="259.5" y="-80" font-family="Helvetica,sans-Serif" font-size="10.00">src/libs/vlayout/vlayoutpiece.cpp</text>
</a>
</g>
</g>
<!-- Node1&#45;&gt;Node3 -->
<g id="edge2" class="edge">
<title>Node1&#45;&gt;Node3</title>
<path fill="none" stroke="midnightblue" d="M3618.75,-261.85C3433.21,-254.21 3027.51,-237.24 2685.5,-221 1650.11,-171.85 1387.75,-202.68 356.5,-98 341.42,-96.47 325.11,-94.25 310.23,-92.01"/>
<polygon fill="midnightblue" stroke="midnightblue" points="3618.63,-265.34 3628.76,-262.26 3618.91,-258.35 3618.63,-265.34"/>
</g>
<!-- Node4 -->
<g id="node4" class="node">
<title>Node4</title>
<g id="a_node4"><a xlink:href="../../d4/d11/vcommonsettings_8cpp.html" target="_top" xlink:title=" ">
<polygon fill="white" stroke="black" points="4070.5,-201.5 4070.5,-220.5 4264.5,-220.5 4264.5,-201.5 4070.5,-201.5"/>
<text text-anchor="middle" x="4167.5" y="-208.5" font-family="Helvetica,sans-Serif" font-size="10.00">src/libs/vmisc/vcommonsettings.cpp</text>
</a>
</g>
</g>
<!-- Node1&#45;&gt;Node4 -->
<g id="edge3" class="edge">
<title>Node1&#45;&gt;Node4</title>
<path fill="none" stroke="midnightblue" d="M3801.38,-256.23C3885.76,-246.04 4016.71,-230.22 4097,-220.52"/>
<polygon fill="midnightblue" stroke="midnightblue" points="3800.84,-252.77 3791.33,-257.44 3801.68,-259.72 3800.84,-252.77"/>
</g>
<!-- Node5 -->
<g id="node5" class="node">
<title>Node5</title>
<g id="a_node5"><a xlink:href="../../df/da4/vseamlymesettings_8h.html" target="_top" xlink:title=" ">
<polygon fill="white" stroke="black" points="5396.5,-201.5 5396.5,-220.5 5588.5,-220.5 5588.5,-201.5 5396.5,-201.5"/>
<text text-anchor="middle" x="5492.5" y="-208.5" font-family="Helvetica,sans-Serif" font-size="10.00">src/libs/vmisc/vseamlymesettings.h</text>
</a>
</g>
</g>
<!-- Node1&#45;&gt;Node5 -->
<g id="edge4" class="edge">
<title>Node1&#45;&gt;Node5</title>
<path fill="none" stroke="midnightblue" d="M3822.05,-262.91C4136.24,-253.33 5089.76,-224.27 5396.41,-214.93"/>
<polygon fill="midnightblue" stroke="midnightblue" points="3821.93,-259.41 3812.04,-263.21 3822.14,-266.4 3821.93,-259.41"/>
</g>
<!-- Node7 -->
<g id="node7" class="node">
<title>Node7</title>
<g id="a_node7"><a xlink:href="../../d5/d74/vabstractapplication_8h.html" target="_top" xlink:title=" ">
<polygon fill="white" stroke="black" points="2941,-140 2941,-159 3136,-159 3136,-140 2941,-140"/>
<text text-anchor="middle" x="3038.5" y="-147" font-family="Helvetica,sans-Serif" font-size="10.00">src/libs/vmisc/vabstractapplication.h</text>
</a>
</g>
</g>
<!-- Node1&#45;&gt;Node7 -->
<g id="edge6" class="edge">
<title>Node1&#45;&gt;Node7</title>
<path fill="none" stroke="midnightblue" d="M3660.08,-255.77C3527.34,-233.29 3212.33,-179.94 3089.13,-159.07"/>
<polygon fill="midnightblue" stroke="midnightblue" points="3659.63,-259.24 3670.07,-257.46 3660.8,-252.34 3659.63,-259.24"/>
</g>
<!-- Node26 -->
<g id="node26" class="node">
<title>Node26</title>
<g id="a_node26"><a xlink:href="../../db/d11/vformula_8cpp.html" target="_top" xlink:title=" ">
<polygon fill="white" stroke="black" points="366,-67.5 366,-97.5 473,-97.5 473,-67.5 366,-67.5"/>
<text text-anchor="start" x="374" y="-85.5" font-family="Helvetica,sans-Serif" font-size="10.00">src/libs/vpatterndb</text>
<text text-anchor="middle" x="419.5" y="-74.5" font-family="Helvetica,sans-Serif" font-size="10.00">/vformula.cpp</text>
</a>
</g>
</g>
<!-- Node1&#45;&gt;Node26 -->
<g id="edge55" class="edge">
<title>Node1&#45;&gt;Node26</title>
<path fill="none" stroke="midnightblue" d="M3618.51,-259.71C3477.7,-251.03 3215.83,-234.87 2992.5,-221 2372.49,-182.5 2218.01,-163.35 1597.5,-134 1101.8,-110.55 973.51,-162.82 481.5,-98 478.76,-97.64 475.96,-97.21 473.15,-96.73"/>
<polygon fill="midnightblue" stroke="midnightblue" points="3618.65,-263.23 3628.85,-260.35 3619.08,-256.24 3618.65,-263.23"/>
</g>
<!-- Node28 -->
<g id="node28" class="node">
<title>Node28</title>
<g id="a_node28"><a xlink:href="../../df/dba/vpiecenode__p_8h.html" target="_top" xlink:title=" ">
<polygon fill="white" stroke="black" points="491,-67.5 491,-97.5 598,-97.5 598,-67.5 491,-67.5"/>
<text text-anchor="start" x="499" y="-85.5" font-family="Helvetica,sans-Serif" font-size="10.00">src/libs/vpatterndb</text>
<text text-anchor="middle" x="544.5" y="-74.5" font-family="Helvetica,sans-Serif" font-size="10.00">/vpiecenode_p.h</text>
</a>
</g>
</g>
<!-- Node1&#45;&gt;Node28 -->
<g id="edge56" class="edge">
<title>Node1&#45;&gt;Node28</title>
<path fill="none" stroke="midnightblue" d="M3618.62,-257.78C3511.15,-249.03 3336.85,-234.59 3186.5,-221 2985.94,-202.88 2485.53,-145.83 2284.5,-134 1912.17,-112.08 976.54,-144.72 606.5,-98 603.76,-97.65 600.96,-97.24 598.14,-96.77"/>
<polygon fill="midnightblue" stroke="midnightblue" points="3618.56,-261.29 3628.81,-258.61 3619.13,-254.31 3618.56,-261.29"/>
</g>
<!-- Node31 -->
<g id="node31" class="node">
<title>Node31</title>
<g id="a_node31"><a xlink:href="../../df/d40/export__format__combobox_8cpp.html" target="_top" xlink:title=" ">
<polygon fill="white" stroke="black" points="616,-67.5 616,-97.5 749,-97.5 749,-67.5 616,-67.5"/>
<text text-anchor="start" x="624" y="-85.5" font-family="Helvetica,sans-Serif" font-size="10.00">src/libs/vwidgets/export</text>
<text text-anchor="middle" x="682.5" y="-74.5" font-family="Helvetica,sans-Serif" font-size="10.00">_format_combobox.cpp</text>
</a>
</g>
</g>
<!-- Node1&#45;&gt;Node31 -->
<g id="edge57" class="edge">
<title>Node1&#45;&gt;Node31</title>
<path fill="none" stroke="midnightblue" d="M3635.69,-256.32C3557.67,-247.35 3438.75,-233.55 3335.5,-221 3182.3,-202.38 2800.42,-145.15 2646.5,-134 1808.99,-73.32 1592.58,-186.02 757.5,-98 754.73,-97.71 751.91,-97.37 749.07,-96.99"/>
<polygon fill="midnightblue" stroke="midnightblue" points="3635.62,-259.83 3645.95,-257.49 3636.41,-252.88 3635.62,-259.83"/>
</g>
<!-- Node37 -->
<g id="node37" class="node">
<title>Node37</title>
<g id="a_node37"><a xlink:href="../../d1/d90/vgrainlineitem_8cpp.html" target="_top" xlink:title=" ">
<polygon fill="white" stroke="black" points="4792,-73 4792,-92 4985,-92 4985,-73 4792,-73"/>
<text text-anchor="middle" x="4888.5" y="-80" font-family="Helvetica,sans-Serif" font-size="10.00">src/libs/vwidgets/vgrainlineitem.cpp</text>
</a>
</g>
</g>
<!-- Node1&#45;&gt;Node37 -->
<g id="edge58" class="edge">
<title>Node1&#45;&gt;Node37</title>
<path fill="none" stroke="midnightblue" d="M3717.41,-247.02C3713.86,-217.73 3712.14,-161.97 3744.5,-134 3788.15,-96.27 4725.01,-102.92 4782.5,-98 4799.34,-96.56 4817.6,-94.31 4834.15,-92.01"/>
<polygon fill="midnightblue" stroke="midnightblue" points="3713.98,-247.75 3718.85,-257.16 3720.91,-246.77 3713.98,-247.75"/>
</g>
<!-- Node39 -->
<g id="node39" class="node">
<title>Node39</title>
<g id="a_node39"><a xlink:href="../../d1/d88/vmaingraphicsscene_8cpp.html" target="_top" xlink:title=" ">
<polygon fill="white" stroke="black" points="5003.5,-73 5003.5,-92 5225.5,-92 5225.5,-73 5003.5,-73"/>
<text text-anchor="middle" x="5114.5" y="-80" font-family="Helvetica,sans-Serif" font-size="10.00">src/libs/vwidgets/vmaingraphicsscene.cpp</text>
</a>
</g>
</g>
<!-- Node1&#45;&gt;Node39 -->
<g id="edge59" class="edge">
<title>Node1&#45;&gt;Node39</title>
<path fill="none" stroke="midnightblue" d="M3726.49,-247.55C3737.63,-214.47 3762.25,-147.29 3782.5,-134 3838.82,-97.04 4927.33,-103.05 4994.5,-98 5013.54,-96.57 5034.21,-94.32 5052.94,-92.02"/>
<polygon fill="midnightblue" stroke="midnightblue" points="3723.07,-246.74 3723.25,-257.33 3729.71,-248.94 3723.07,-246.74"/>
</g>
<!-- Node40 -->
<g id="node40" class="node">
<title>Node40</title>
<g id="a_node40"><a xlink:href="../../d2/d31/vmaingraphicsview_8cpp.html" target="_top" xlink:title=" ">
<polygon fill="white" stroke="black" points="5243.5,-73 5243.5,-92 5459.5,-92 5459.5,-73 5243.5,-73"/>
<text text-anchor="middle" x="5351.5" y="-80" font-family="Helvetica,sans-Serif" font-size="10.00">src/libs/vwidgets/vmaingraphicsview.cpp</text>
</a>
</g>
</g>
<!-- Node1&#45;&gt;Node40 -->
<g id="edge60" class="edge">
<title>Node1&#45;&gt;Node40</title>
<path fill="none" stroke="midnightblue" d="M3733.2,-249.49C3739.65,-241.02 3747.57,-230.52 3754.5,-221 3782.29,-182.82 3773.88,-156.32 3815.5,-134 3884.99,-96.72 5155.86,-103.86 5234.5,-98 5253.28,-96.6 5273.67,-94.34 5292.09,-92.01"/>
<polygon fill="midnightblue" stroke="midnightblue" points="3730.41,-247.37 3727.11,-257.44 3735.97,-251.63 3730.41,-247.37"/>
</g>
<!-- Node44 -->
<g id="node44" class="node">
<title>Node44</title>
<g id="a_node44"><a xlink:href="../../df/df5/vtextgraphicsitem_8cpp.html" target="_top" xlink:title=" ">
<polygon fill="white" stroke="black" points="5478,-73 5478,-92 5689,-92 5689,-73 5478,-73"/>
<text text-anchor="middle" x="5583.5" y="-80" font-family="Helvetica,sans-Serif" font-size="10.00">src/libs/vwidgets/vtextgraphicsitem.cpp</text>
</a>
</g>
</g>
<!-- Node1&#45;&gt;Node44 -->
<g id="edge61" class="edge">
<title>Node1&#45;&gt;Node44</title>
<path fill="none" stroke="midnightblue" d="M3785.96,-255.87C3838.46,-247.45 3913.95,-234.67 3979.5,-221 4016.22,-213.34 4024.44,-206.83 4061.5,-201 4680.88,-103.49 4844.58,-160.13 5468.5,-98 5485.42,-96.32 5503.7,-94.16 5520.6,-92.03"/>
<polygon fill="midnightblue" stroke="midnightblue" points="3785.1,-252.47 3775.78,-257.5 3786.2,-259.38 3785.1,-252.47"/>
</g>
<!-- Node45 -->
<g id="node45" class="node">
<title>Node45</title>
<g id="a_node45"><a xlink:href="../../dd/db2/vsettings_8h.html" target="_top" xlink:title=" ">
<polygon fill="white" stroke="black" points="3830.5,-201.5 3830.5,-220.5 3970.5,-220.5 3970.5,-201.5 3830.5,-201.5"/>
<text text-anchor="middle" x="3900.5" y="-208.5" font-family="Helvetica,sans-Serif" font-size="10.00">src/libs/vmisc/vsettings.h</text>
</a>
</g>
</g>
<!-- Node1&#45;&gt;Node45 -->
<g id="edge47" class="edge">
<title>Node1&#45;&gt;Node45</title>
<path fill="none" stroke="midnightblue" d="M3758.61,-254.57C3792.56,-244.38 3841.49,-229.7 3872.11,-220.52"/>
<polygon fill="midnightblue" stroke="midnightblue" points="3757.59,-251.22 3749.02,-257.44 3759.61,-257.92 3757.59,-251.22"/>
</g>
<!-- Node6 -->
<g id="node6" class="node">
<title>Node6</title>
<g id="a_node6"><a xlink:href="../../df/dba/vseamlymesettings_8cpp.html" target="_top" xlink:title=" ">
<polygon fill="white" stroke="black" points="5859,-140 5859,-159 6062,-159 6062,-140 5859,-140"/>
<text text-anchor="middle" x="5960.5" y="-147" font-family="Helvetica,sans-Serif" font-size="10.00">src/libs/vmisc/vseamlymesettings.cpp</text>
</a>
</g>
</g>
<!-- Node5&#45;&gt;Node6 -->
<g id="edge5" class="edge">
<title>Node5&#45;&gt;Node6</title>
<path fill="none" stroke="midnightblue" d="M5571.12,-200.26C5643.67,-191.23 5754.37,-177.38 5850.5,-165 5865.31,-163.09 5881.23,-161.01 5896.24,-159.04"/>
<polygon fill="midnightblue" stroke="midnightblue" points="5570.64,-196.79 5561.15,-201.5 5571.5,-203.74 5570.64,-196.79"/>
</g>
<!-- Node7&#45;&gt;Node2 -->
<g id="edge7" class="edge">
<title>Node7&#45;&gt;Node2</title>
<path fill="none" stroke="midnightblue" d="M2930.83,-148.79C2476.52,-149.69 714.36,-149.71 161.5,-98 147.64,-96.7 132.63,-94.44 119.14,-92.07"/>
<polygon fill="midnightblue" stroke="midnightblue" points="2931,-152.29 2940.99,-148.77 2930.98,-145.29 2931,-152.29"/>
</g>
<!-- Node7&#45;&gt;Node3 -->
<g id="edge22" class="edge">
<title>Node7&#45;&gt;Node3</title>
<path fill="none" stroke="midnightblue" d="M2930.63,-147.3C2462.09,-141.95 615.49,-119.7 356.5,-98 340.72,-96.68 323.6,-94.4 308.2,-92.04"/>
<polygon fill="midnightblue" stroke="midnightblue" points="2930.73,-150.8 2940.77,-147.41 2930.81,-143.8 2930.73,-150.8"/>
</g>
<!-- Node8 -->
<g id="node8" class="node">
<title>Node8</title>
<g id="a_node8"><a xlink:href="../../d9/dc8/dxiface_8cpp.html" target="_top" xlink:title=" ">
<polygon fill="white" stroke="black" points="3060,-73 3060,-92 3195,-92 3195,-73 3060,-73"/>
<text text-anchor="middle" x="3127.5" y="-80" font-family="Helvetica,sans-Serif" font-size="10.00">src/libs/vdxf/dxiface.cpp</text>
</a>
</g>
</g>
<!-- Node7&#45;&gt;Node8 -->
<g id="edge8" class="edge">
<title>Node7&#45;&gt;Node8</title>
<path fill="none" stroke="midnightblue" d="M3058.95,-133.57C3076.51,-120.74 3101.23,-102.69 3115.69,-92.13"/>
<polygon fill="midnightblue" stroke="midnightblue" points="3056.51,-131.01 3050.5,-139.73 3060.64,-136.66 3056.51,-131.01"/>
</g>
<!-- Node9 -->
<g id="node9" class="node">
<title>Node9</title>
<g id="a_node9"><a xlink:href="../../da/d75/vabstractarc__p_8h.html" target="_top" xlink:title=" ">
<polygon fill="white" stroke="black" points="3213,-67.5 3213,-97.5 3320,-97.5 3320,-67.5 3213,-67.5"/>
<text text-anchor="start" x="3221" y="-85.5" font-family="Helvetica,sans-Serif" font-size="10.00">src/libs/vgeometry</text>
<text text-anchor="middle" x="3266.5" y="-74.5" font-family="Helvetica,sans-Serif" font-size="10.00">/vabstractarc_p.h</text>
</a>
</g>
</g>
<!-- Node7&#45;&gt;Node9 -->
<g id="edge9" class="edge">
<title>Node7&#45;&gt;Node9</title>
<path fill="none" stroke="midnightblue" d="M3078.64,-137.06C3117.29,-126.04 3175.85,-109.34 3217.29,-97.53"/>
<polygon fill="midnightblue" stroke="midnightblue" points="3077.43,-133.76 3068.78,-139.87 3079.35,-140.49 3077.43,-133.76"/>
</g>
<!-- Node11 -->
<g id="node11" class="node">
<title>Node11</title>
<g id="a_node11"><a xlink:href="../../dc/da3/varc__p_8h.html" target="_top" xlink:title=" ">
<polygon fill="white" stroke="black" points="3338,-67.5 3338,-97.5 3445,-97.5 3445,-67.5 3338,-67.5"/>
<text text-anchor="start" x="3346" y="-85.5" font-family="Helvetica,sans-Serif" font-size="10.00">src/libs/vgeometry</text>
<text text-anchor="middle" x="3391.5" y="-74.5" font-family="Helvetica,sans-Serif" font-size="10.00">/varc_p.h</text>
</a>
</g>
</g>
<!-- Node7&#45;&gt;Node11 -->
<g id="edge11" class="edge">
<title>Node7&#45;&gt;Node11</title>
<path fill="none" stroke="midnightblue" d="M3102.55,-138.36C3161.43,-128.8 3251.08,-113.64 3328.5,-98 3331.58,-97.38 3334.74,-96.72 3337.93,-96.04"/>
<polygon fill="midnightblue" stroke="midnightblue" points="3101.96,-134.91 3092.65,-139.96 3103.08,-141.82 3101.96,-134.91"/>
</g>
<!-- Node13 -->
<g id="node13" class="node">
<title>Node13</title>
<g id="a_node13"><a xlink:href="../../d5/d8e/vcubicbezier__p_8h.html" target="_top" xlink:title=" ">
<polygon fill="white" stroke="black" points="3463,-67.5 3463,-97.5 3570,-97.5 3570,-67.5 3463,-67.5"/>
<text text-anchor="start" x="3471" y="-85.5" font-family="Helvetica,sans-Serif" font-size="10.00">src/libs/vgeometry</text>
<text text-anchor="middle" x="3516.5" y="-74.5" font-family="Helvetica,sans-Serif" font-size="10.00">/vcubicbezier_p.h</text>
</a>
</g>
</g>
<!-- Node7&#45;&gt;Node13 -->
<g id="edge13" class="edge">
<title>Node7&#45;&gt;Node13</title>
<path fill="none" stroke="midnightblue" d="M3141.71,-138.99C3225.95,-130.49 3347.88,-116.53 3453.5,-98 3456.6,-97.46 3459.77,-96.86 3462.96,-96.23"/>
<polygon fill="midnightblue" stroke="midnightblue" points="3141.23,-135.52 3131.63,-139.99 3141.92,-142.48 3141.23,-135.52"/>
</g>
<!-- Node15 -->
<g id="node15" class="node">
<title>Node15</title>
<g id="a_node15"><a xlink:href="../../d6/dfb/vellipticalarc_8cpp.html" target="_top" xlink:title=" ">
<polygon fill="white" stroke="black" points="3608,-0.5 3608,-30.5 3715,-30.5 3715,-0.5 3608,-0.5"/>
<text text-anchor="start" x="3616" y="-18.5" font-family="Helvetica,sans-Serif" font-size="10.00">src/libs/vgeometry</text>
<text text-anchor="middle" x="3661.5" y="-7.5" font-family="Helvetica,sans-Serif" font-size="10.00">/vellipticalarc.cpp</text>
</a>
</g>
</g>
<!-- Node7&#45;&gt;Node15 -->
<g id="edge15" class="edge">
<title>Node7&#45;&gt;Node15</title>
<path fill="none" stroke="midnightblue" d="M3146.22,-148.15C3324.85,-146.45 3666.49,-137.93 3703.5,-98 3722.11,-77.92 3696.75,-48.03 3678.11,-30.58"/>
<polygon fill="midnightblue" stroke="midnightblue" points="3145.98,-144.66 3136.01,-148.25 3146.04,-151.66 3145.98,-144.66"/>
</g>
<!-- Node16 -->
<g id="node16" class="node">
<title>Node16</title>
<g id="a_node16"><a xlink:href="../../df/dde/vellipticalarc__p_8h.html" target="_top" xlink:title=" ">
<polygon fill="white" stroke="black" points="3588,-67.5 3588,-97.5 3695,-97.5 3695,-67.5 3588,-67.5"/>
<text text-anchor="start" x="3596" y="-85.5" font-family="Helvetica,sans-Serif" font-size="10.00">src/libs/vgeometry</text>
<text text-anchor="middle" x="3641.5" y="-74.5" font-family="Helvetica,sans-Serif" font-size="10.00">/vellipticalarc_p.h</text>
</a>
</g>
</g>
<!-- Node7&#45;&gt;Node16 -->
<g id="edge16" class="edge">
<title>Node7&#45;&gt;Node16</title>
<path fill="none" stroke="midnightblue" d="M3146.1,-142.66C3255.47,-135.74 3429.53,-122 3578.5,-98 3581.6,-97.5 3584.78,-96.94 3587.98,-96.33"/>
<polygon fill="midnightblue" stroke="midnightblue" points="3145.82,-139.17 3136.05,-143.29 3146.25,-146.16 3145.82,-139.17"/>
</g>
<!-- Node17 -->
<g id="node17" class="node">
<title>Node17</title>
<g id="a_node17"><a xlink:href="../../d1/d76/vspline__p_8h.html" target="_top" xlink:title=" ">
<polygon fill="white" stroke="black" points="3752,-67.5 3752,-97.5 3859,-97.5 3859,-67.5 3752,-67.5"/>
<text text-anchor="start" x="3760" y="-85.5" font-family="Helvetica,sans-Serif" font-size="10.00">src/libs/vgeometry</text>
<text text-anchor="middle" x="3805.5" y="-74.5" font-family="Helvetica,sans-Serif" font-size="10.00">/vspline_p.h</text>
</a>
</g>
</g>
<!-- Node7&#45;&gt;Node17 -->
<g id="edge18" class="edge">
<title>Node7&#45;&gt;Node17</title>
<path fill="none" stroke="midnightblue" d="M3146.34,-145.32C3284.06,-140.21 3529.49,-127.55 3737.5,-98 3742.16,-97.34 3746.98,-96.54 3751.8,-95.67"/>
<polygon fill="midnightblue" stroke="midnightblue" points="3146.07,-141.83 3136.2,-145.69 3146.32,-148.83 3146.07,-141.83"/>
</g>
<!-- Node19 -->
<g id="node19" class="node">
<title>Node19</title>
<g id="a_node19"><a xlink:href="../../d9/d15/vabstractpiece_8cpp.html" target="_top" xlink:title=" ">
<polygon fill="white" stroke="black" points="3877.5,-73 3877.5,-92 4063.5,-92 4063.5,-73 3877.5,-73"/>
<text text-anchor="middle" x="3970.5" y="-80" font-family="Helvetica,sans-Serif" font-size="10.00">src/libs/vlayout/vabstractpiece.cpp</text>
</a>
</g>
</g>
<!-- Node7&#45;&gt;Node19 -->
<g id="edge20" class="edge">
<title>Node7&#45;&gt;Node19</title>
<path fill="none" stroke="midnightblue" d="M3146.23,-144.66C3304.58,-138.39 3609.37,-123.99 3867.5,-98 3883.22,-96.42 3900.23,-94.22 3915.81,-92.02"/>
<polygon fill="midnightblue" stroke="midnightblue" points="3145.87,-141.17 3136.01,-145.06 3146.14,-148.16 3145.87,-141.17"/>
</g>
<!-- Node20 -->
<g id="node20" class="node">
<title>Node20</title>
<g id="a_node20"><a xlink:href="../../d8/d70/vtextmanager_8cpp.html" target="_top" xlink:title=" ">
<polygon fill="white" stroke="black" points="4081.5,-73 4081.5,-92 4263.5,-92 4263.5,-73 4081.5,-73"/>
<text text-anchor="middle" x="4172.5" y="-80" font-family="Helvetica,sans-Serif" font-size="10.00">src/libs/vlayout/vtextmanager.cpp</text>
</a>
</g>
</g>
<!-- Node7&#45;&gt;Node20 -->
<g id="edge21" class="edge">
<title>Node7&#45;&gt;Node20</title>
<path fill="none" stroke="midnightblue" d="M3146.19,-146.61C3334.45,-142.56 3735.45,-130.59 4072.5,-98 4088.13,-96.49 4105.05,-94.26 4120.45,-92"/>
<polygon fill="midnightblue" stroke="midnightblue" points="3145.94,-143.12 3136.02,-146.83 3146.09,-150.12 3145.94,-143.12"/>
</g>
<!-- Node21 -->
<g id="node21" class="node">
<title>Node21</title>
<g id="a_node21"><a xlink:href="../../db/d65/dialogexporttocsv_8cpp.html" target="_top" xlink:title=" ">
<polygon fill="white" stroke="black" points="4282,-67.5 4282,-97.5 4409,-97.5 4409,-67.5 4282,-67.5"/>
<text text-anchor="start" x="4290" y="-85.5" font-family="Helvetica,sans-Serif" font-size="10.00">src/libs/vmisc/dialogs</text>
<text text-anchor="middle" x="4345.5" y="-74.5" font-family="Helvetica,sans-Serif" font-size="10.00">/dialogexporttocsv.cpp</text>
</a>
</g>
</g>
<!-- Node7&#45;&gt;Node21 -->
<g id="edge23" class="edge">
<title>Node7&#45;&gt;Node21</title>
<path fill="none" stroke="midnightblue" d="M3146.4,-146.24C3405.26,-140.45 4056.09,-123.76 4272.5,-98 4275.58,-97.63 4278.72,-97.21 4281.89,-96.74"/>
<polygon fill="midnightblue" stroke="midnightblue" points="3146.15,-142.74 3136.24,-146.46 3146.31,-149.74 3146.15,-142.74"/>
</g>
<!-- Node22 -->
<g id="node22" class="node">
<title>Node22</title>
<g id="a_node22"><a xlink:href="../../d6/d0b/def_8cpp.html" target="_top" xlink:title=" ">
<polygon fill="white" stroke="black" points="4427.5,-73 4427.5,-92 4549.5,-92 4549.5,-73 4427.5,-73"/>
<text text-anchor="middle" x="4488.5" y="-80" font-family="Helvetica,sans-Serif" font-size="10.00">src/libs/vmisc/def.cpp</text>
</a>
</g>
</g>
<!-- Node7&#45;&gt;Node22 -->
<g id="edge24" class="edge">
<title>Node7&#45;&gt;Node22</title>
<path fill="none" stroke="midnightblue" d="M3146.15,-145.58C3448.74,-137.23 4292.92,-112.9 4417.5,-98 4428.99,-96.63 4441.39,-94.37 4452.57,-92.04"/>
<polygon fill="midnightblue" stroke="midnightblue" points="3145.95,-142.09 3136.05,-145.86 3146.15,-149.08 3145.95,-142.09"/>
</g>
<!-- Node23 -->
<g id="node23" class="node">
<title>Node23</title>
<g id="a_node23"><a xlink:href="../../d0/df6/vabstractapplication_8cpp.html" target="_top" xlink:title=" ">
<polygon fill="white" stroke="black" points="4567.5,-73 4567.5,-92 4773.5,-92 4773.5,-73 4567.5,-73"/>
<text text-anchor="middle" x="4670.5" y="-80" font-family="Helvetica,sans-Serif" font-size="10.00">src/libs/vmisc/vabstractapplication.cpp</text>
</a>
</g>
</g>
<!-- Node7&#45;&gt;Node23 -->
<g id="edge25" class="edge">
<title>Node7&#45;&gt;Node23</title>
<path fill="none" stroke="midnightblue" d="M3146.55,-146.25C3446.22,-139.81 4283.78,-120.3 4558.5,-98 4576.28,-96.56 4595.58,-94.31 4613.06,-92.01"/>
<polygon fill="midnightblue" stroke="midnightblue" points="3146.04,-142.76 3136.12,-146.48 3146.19,-149.76 3146.04,-142.76"/>
</g>
<!-- Node24 -->
<g id="node24" class="node">
<title>Node24</title>
<g id="a_node24"><a xlink:href="../../d4/d4f/pmsystems_8cpp.html" target="_top" xlink:title=" ">
<polygon fill="white" stroke="black" points="767,-67.5 767,-97.5 874,-97.5 874,-67.5 767,-67.5"/>
<text text-anchor="start" x="775" y="-85.5" font-family="Helvetica,sans-Serif" font-size="10.00">src/libs/vpatterndb</text>
<text text-anchor="middle" x="820.5" y="-74.5" font-family="Helvetica,sans-Serif" font-size="10.00">/pmsystems.cpp</text>
</a>
</g>
</g>
<!-- Node7&#45;&gt;Node24 -->
<g id="edge26" class="edge">
<title>Node7&#45;&gt;Node24</title>
<path fill="none" stroke="midnightblue" d="M2930.86,-139.28C2903.38,-137.23 2873.86,-135.28 2846.5,-134 2410.46,-113.56 1315.66,-152 882.5,-98 879.76,-97.66 876.96,-97.24 874.14,-96.78"/>
<polygon fill="midnightblue" stroke="midnightblue" points="2930.65,-142.78 2940.89,-140.05 2931.18,-135.8 2930.65,-142.78"/>
</g>
<!-- Node25 -->
<g id="node25" class="node">
<title>Node25</title>
<g id="a_node25"><a xlink:href="../../d6/d46/vcontainer_8cpp.html" target="_top" xlink:title=" ">
<polygon fill="white" stroke="black" points="892,-67.5 892,-97.5 999,-97.5 999,-67.5 892,-67.5"/>
<text text-anchor="start" x="900" y="-85.5" font-family="Helvetica,sans-Serif" font-size="10.00">src/libs/vpatterndb</text>
<text text-anchor="middle" x="945.5" y="-74.5" font-family="Helvetica,sans-Serif" font-size="10.00">/vcontainer.cpp</text>
</a>
</g>
</g>
<!-- Node7&#45;&gt;Node25 -->
<g id="edge27" class="edge">
<title>Node7&#45;&gt;Node25</title>
<path fill="none" stroke="midnightblue" d="M2930.86,-139.31C2903.37,-137.25 2873.86,-135.3 2846.5,-134 2438.22,-114.6 1413.07,-148.82 1007.5,-98 1004.76,-97.66 1001.96,-97.24 999.14,-96.77"/>
<polygon fill="midnightblue" stroke="midnightblue" points="2930.65,-142.8 2940.89,-140.07 2931.18,-135.82 2930.65,-142.8"/>
</g>
<!-- Node7&#45;&gt;Node26 -->
<g id="edge28" class="edge">
<title>Node7&#45;&gt;Node26</title>
<path fill="none" stroke="midnightblue" d="M2930.79,-146.41C2445.94,-137 489.22,-98.97 481.5,-98 478.76,-97.66 475.96,-97.24 473.14,-96.77"/>
<polygon fill="midnightblue" stroke="midnightblue" points="2930.87,-149.91 2940.93,-146.61 2931,-142.91 2930.87,-149.91"/>
</g>
<!-- Node27 -->
<g id="node27" class="node">
<title>Node27</title>
<g id="a_node27"><a xlink:href="../../df/d7a/vpiece_8cpp.html" target="_top" xlink:title=" ">
<polygon fill="white" stroke="black" points="1017,-67.5 1017,-97.5 1124,-97.5 1124,-67.5 1017,-67.5"/>
<text text-anchor="start" x="1025" y="-85.5" font-family="Helvetica,sans-Serif" font-size="10.00">src/libs/vpatterndb</text>
<text text-anchor="middle" x="1070.5" y="-74.5" font-family="Helvetica,sans-Serif" font-size="10.00">/vpiece.cpp</text>
</a>
</g>
</g>
<!-- Node7&#45;&gt;Node27 -->
<g id="edge29" class="edge">
<title>Node7&#45;&gt;Node27</title>
<path fill="none" stroke="midnightblue" d="M2930.86,-139.34C2903.37,-137.28 2873.86,-135.32 2846.5,-134 2466.19,-115.66 1511.35,-144.95 1133.5,-98 1130.49,-97.63 1127.42,-97.17 1124.33,-96.65"/>
<polygon fill="midnightblue" stroke="midnightblue" points="2930.65,-142.83 2940.89,-140.1 2931.18,-135.85 2930.65,-142.83"/>
</g>
<!-- Node7&#45;&gt;Node28 -->
<g id="edge30" class="edge">
<title>Node7&#45;&gt;Node28</title>
<path fill="none" stroke="midnightblue" d="M2930.24,-143.93C2851.54,-140.75 2742.44,-136.62 2646.5,-134 2193.27,-121.62 1056.44,-153.94 606.5,-98 603.76,-97.66 600.96,-97.25 598.14,-96.78"/>
<polygon fill="midnightblue" stroke="midnightblue" points="2930.52,-147.45 2940.65,-144.36 2930.8,-140.45 2930.52,-147.45"/>
</g>
<!-- Node30 -->
<g id="node30" class="node">
<title>Node30</title>
<g id="a_node30"><a xlink:href="../../de/d3e/vtranslatevars_8cpp.html" target="_top" xlink:title=" ">
<polygon fill="white" stroke="black" points="1142.5,-67.5 1142.5,-97.5 1252.5,-97.5 1252.5,-67.5 1142.5,-67.5"/>
<text text-anchor="start" x="1150.5" y="-85.5" font-family="Helvetica,sans-Serif" font-size="10.00">src/libs/vpatterndb</text>
<text text-anchor="middle" x="1197.5" y="-74.5" font-family="Helvetica,sans-Serif" font-size="10.00">/vtranslatevars.cpp</text>
</a>
</g>
</g>
<!-- Node7&#45;&gt;Node30 -->
<g id="edge32" class="edge">
<title>Node7&#45;&gt;Node30</title>
<path fill="none" stroke="midnightblue" d="M2930.86,-139.37C2903.37,-137.31 2873.86,-135.34 2846.5,-134 2494.61,-116.73 1611.16,-141.14 1261.5,-98 1258.56,-97.64 1255.56,-97.2 1252.53,-96.7"/>
<polygon fill="midnightblue" stroke="midnightblue" points="2930.65,-142.86 2940.89,-140.13 2931.18,-135.88 2930.65,-142.86"/>
</g>
<!-- Node7&#45;&gt;Node31 -->
<g id="edge33" class="edge">
<title>Node7&#45;&gt;Node31</title>
<path fill="none" stroke="midnightblue" d="M2930.86,-139.26C2903.38,-137.21 2873.86,-135.27 2846.5,-134 2382.71,-112.51 1219.28,-146.25 757.5,-98 754.73,-97.71 751.91,-97.37 749.07,-96.99"/>
<polygon fill="midnightblue" stroke="midnightblue" points="2930.66,-142.76 2940.89,-140.02 2931.19,-135.78 2930.66,-142.76"/>
</g>
<!-- Node32 -->
<g id="node32" class="node">
<title>Node32</title>
<g id="a_node32"><a xlink:href="../../d3/d4f/mouse__coordinates_8cpp.html" target="_top" xlink:title=" ">
<polygon fill="white" stroke="black" points="1270.5,-67.5 1270.5,-97.5 1404.5,-97.5 1404.5,-67.5 1270.5,-67.5"/>
<text text-anchor="start" x="1278.5" y="-85.5" font-family="Helvetica,sans-Serif" font-size="10.00">src/libs/vwidgets/mouse</text>
<text text-anchor="middle" x="1337.5" y="-74.5" font-family="Helvetica,sans-Serif" font-size="10.00">_coordinates.cpp</text>
</a>
</g>
</g>
<!-- Node7&#45;&gt;Node32 -->
<g id="edge34" class="edge">
<title>Node7&#45;&gt;Node32</title>
<path fill="none" stroke="midnightblue" d="M2930.86,-139.41C2903.37,-137.36 2873.86,-135.38 2846.5,-134 2210.21,-102 2046.96,-165.92 1413.5,-98 1410.56,-97.68 1407.57,-97.32 1404.55,-96.91"/>
<polygon fill="midnightblue" stroke="midnightblue" points="2930.65,-142.91 2940.88,-140.17 2931.18,-135.93 2930.65,-142.91"/>
</g>
<!-- Node33 -->
<g id="node33" class="node">
<title>Node33</title>
<g id="a_node33"><a xlink:href="../../d8/d76/scene__rect_8cpp.html" target="_top" xlink:title=" ">
<polygon fill="white" stroke="black" points="1422.5,-67.5 1422.5,-97.5 1552.5,-97.5 1552.5,-67.5 1422.5,-67.5"/>
<text text-anchor="start" x="1430.5" y="-85.5" font-family="Helvetica,sans-Serif" font-size="10.00">src/libs/vwidgets/scene</text>
<text text-anchor="middle" x="1487.5" y="-74.5" font-family="Helvetica,sans-Serif" font-size="10.00">_rect.cpp</text>
</a>
</g>
</g>
<!-- Node7&#45;&gt;Node33 -->
<g id="edge35" class="edge">
<title>Node7&#45;&gt;Node33</title>
<path fill="none" stroke="midnightblue" d="M2930.85,-139.47C2903.37,-137.41 2873.85,-135.42 2846.5,-134 2275.93,-104.48 2129.33,-161.15 1561.5,-98 1558.64,-97.68 1555.72,-97.31 1552.78,-96.9"/>
<polygon fill="midnightblue" stroke="midnightblue" points="2930.65,-142.96 2940.88,-140.23 2931.17,-135.98 2930.65,-142.96"/>
</g>
<!-- Node34 -->
<g id="node34" class="node">
<title>Node34</title>
<g id="a_node34"><a xlink:href="../../d7/d1b/pen__toolbar_8cpp.html" target="_top" xlink:title=" ">
<polygon fill="white" stroke="black" points="1571,-67.5 1571,-97.5 1690,-97.5 1690,-67.5 1571,-67.5"/>
<text text-anchor="start" x="1579" y="-85.5" font-family="Helvetica,sans-Serif" font-size="10.00">src/libs/vwidgets/pen</text>
<text text-anchor="middle" x="1630.5" y="-74.5" font-family="Helvetica,sans-Serif" font-size="10.00">_toolbar.cpp</text>
</a>
</g>
</g>
<!-- Node7&#45;&gt;Node34 -->
<g id="edge36" class="edge">
<title>Node7&#45;&gt;Node34</title>
<path fill="none" stroke="midnightblue" d="M2930.85,-139.53C2903.36,-137.47 2873.85,-135.46 2846.5,-134 2336.75,-106.77 2205.26,-159.47 1698.5,-98 1695.74,-97.67 1692.93,-97.27 1690.1,-96.84"/>
<polygon fill="midnightblue" stroke="midnightblue" points="2930.64,-143.03 2940.88,-140.29 2931.17,-136.05 2930.64,-143.03"/>
</g>
<!-- Node35 -->
<g id="node35" class="node">
<title>Node35</title>
<g id="a_node35"><a xlink:href="../../dd/df6/vabstractmainwindow_8cpp.html" target="_top" xlink:title=" ">
<polygon fill="white" stroke="black" points="1708,-73 1708,-92 1937,-92 1937,-73 1708,-73"/>
<text text-anchor="middle" x="1822.5" y="-80" font-family="Helvetica,sans-Serif" font-size="10.00">src/libs/vwidgets/vabstractmainwindow.cpp</text>
</a>
</g>
</g>
<!-- Node7&#45;&gt;Node35 -->
<g id="edge37" class="edge">
<title>Node7&#45;&gt;Node35</title>
<path fill="none" stroke="midnightblue" d="M2930.84,-139.69C2903.35,-137.63 2873.84,-135.58 2846.5,-134 2446.4,-110.91 2345.03,-129.48 1945.5,-98 1926.32,-96.49 1905.51,-94.26 1886.56,-92"/>
<polygon fill="midnightblue" stroke="midnightblue" points="2930.63,-143.19 2940.87,-140.45 2931.16,-136.21 2930.63,-143.19"/>
</g>
<!-- Node36 -->
<g id="node36" class="node">
<title>Node36</title>
<g id="a_node36"><a xlink:href="../../de/d45/vcontrolpointspline_8cpp.html" target="_top" xlink:title=" ">
<polygon fill="white" stroke="black" points="1955,-73 1955,-92 2170,-92 2170,-73 1955,-73"/>
<text text-anchor="middle" x="2062.5" y="-80" font-family="Helvetica,sans-Serif" font-size="10.00">src/libs/vwidgets/vcontrolpointspline.cpp</text>
</a>
</g>
</g>
<!-- Node7&#45;&gt;Node36 -->
<g id="edge38" class="edge">
<title>Node7&#45;&gt;Node36</title>
<path fill="none" stroke="midnightblue" d="M2930.83,-139.96C2903.34,-137.89 2873.83,-135.77 2846.5,-134 2550.24,-114.82 2475.21,-124.27 2179.5,-98 2161.66,-96.42 2142.35,-94.22 2124.65,-92.02"/>
<polygon fill="midnightblue" stroke="midnightblue" points="2930.62,-143.45 2940.85,-140.72 2931.15,-136.47 2930.62,-143.45"/>
</g>
<!-- Node7&#45;&gt;Node37 -->
<g id="edge39" class="edge">
<title>Node7&#45;&gt;Node37</title>
<path fill="none" stroke="midnightblue" d="M3146.21,-146.05C3501.11,-137.9 4620.29,-111.4 4782.5,-98 4799.44,-96.6 4817.81,-94.35 4834.43,-92.03"/>
<polygon fill="midnightblue" stroke="midnightblue" points="3146.11,-142.55 3136.19,-146.28 3146.27,-149.55 3146.11,-142.55"/>
</g>
<!-- Node38 -->
<g id="node38" class="node">
<title>Node38</title>
<g id="a_node38"><a xlink:href="../../de/dec/vgraphicssimpletextitem_8cpp.html" target="_top" xlink:title=" ">
<polygon fill="white" stroke="black" points="2188.5,-73 2188.5,-92 2432.5,-92 2432.5,-73 2188.5,-73"/>
<text text-anchor="middle" x="2310.5" y="-80" font-family="Helvetica,sans-Serif" font-size="10.00">src/libs/vwidgets/vgraphicssimpletextitem.cpp</text>
</a>
</g>
</g>
<!-- Node7&#45;&gt;Node38 -->
<g id="edge40" class="edge">
<title>Node7&#45;&gt;Node38</title>
<path fill="none" stroke="midnightblue" d="M2930.71,-140.23C2811.1,-130.85 2612.38,-114.68 2441.5,-98 2422.94,-96.19 2402.92,-94.06 2384.25,-92"/>
<polygon fill="midnightblue" stroke="midnightblue" points="2930.73,-143.74 2940.97,-141.03 2931.27,-136.76 2930.73,-143.74"/>
</g>
<!-- Node7&#45;&gt;Node39 -->
<g id="edge41" class="edge">
<title>Node7&#45;&gt;Node39</title>
<path fill="none" stroke="midnightblue" d="M3146.3,-146.31C3529.17,-138.46 4810.43,-111.47 4994.5,-98 5013.65,-96.6 5034.44,-94.35 5053.25,-92.03"/>
<polygon fill="midnightblue" stroke="midnightblue" points="3145.98,-142.82 3136.06,-146.52 3146.13,-149.82 3145.98,-142.82"/>
</g>
<!-- Node7&#45;&gt;Node40 -->
<g id="edge42" class="edge">
<title>Node7&#45;&gt;Node40</title>
<path fill="none" stroke="midnightblue" d="M3146.22,-146.32C3573.32,-137.66 5129.57,-105.69 5234.5,-98 5253.28,-96.62 5273.67,-94.36 5292.09,-92.03"/>
<polygon fill="midnightblue" stroke="midnightblue" points="3145.96,-142.83 3136.04,-146.53 3146.11,-149.83 3145.96,-142.83"/>
</g>
<!-- Node41 -->
<g id="node41" class="node">
<title>Node41</title>
<g id="a_node41"><a xlink:href="../../d0/d5d/vscenepoint_8cpp.html" target="_top" xlink:title=" ">
<polygon fill="white" stroke="black" points="2451,-73 2451,-92 2632,-92 2632,-73 2451,-73"/>
<text text-anchor="middle" x="2541.5" y="-80" font-family="Helvetica,sans-Serif" font-size="10.00">src/libs/vwidgets/vscenepoint.cpp</text>
</a>
</g>
</g>
<!-- Node7&#45;&gt;Node41 -->
<g id="edge43" class="edge">
<title>Node7&#45;&gt;Node41</title>
<path fill="none" stroke="midnightblue" d="M2958.5,-138.74C2878.28,-128.86 2751.26,-112.94 2641.5,-98 2627.77,-96.13 2612.99,-94.03 2599.11,-92.03"/>
<polygon fill="midnightblue" stroke="midnightblue" points="2958.18,-142.23 2968.53,-139.97 2959.03,-135.28 2958.18,-142.23"/>
</g>
<!-- Node42 -->
<g id="node42" class="node">
<title>Node42</title>
<g id="a_node42"><a xlink:href="../../de/d22/vsimplecurve_8cpp.html" target="_top" xlink:title=" ">
<polygon fill="white" stroke="black" points="2650.5,-73 2650.5,-92 2838.5,-92 2838.5,-73 2650.5,-73"/>
<text text-anchor="middle" x="2744.5" y="-80" font-family="Helvetica,sans-Serif" font-size="10.00">src/libs/vwidgets/vsimplecurve.cpp</text>
</a>
</g>
</g>
<!-- Node7&#45;&gt;Node42 -->
<g id="edge44" class="edge">
<title>Node7&#45;&gt;Node42</title>
<path fill="none" stroke="midnightblue" d="M2989.76,-137.72C2931.87,-124.92 2836.47,-103.83 2783.32,-92.08"/>
<polygon fill="midnightblue" stroke="midnightblue" points="2989.24,-141.19 2999.76,-139.94 2990.75,-134.36 2989.24,-141.19"/>
</g>
<!-- Node43 -->
<g id="node43" class="node">
<title>Node43</title>
<g id="a_node43"><a xlink:href="../../df/d38/vsimplepoint_8cpp.html" target="_top" xlink:title=" ">
<polygon fill="white" stroke="black" points="2857,-73 2857,-92 3042,-92 3042,-73 2857,-73"/>
<text text-anchor="middle" x="2949.5" y="-80" font-family="Helvetica,sans-Serif" font-size="10.00">src/libs/vwidgets/vsimplepoint.cpp</text>
</a>
</g>
</g>
<!-- Node7&#45;&gt;Node43 -->
<g id="edge45" class="edge">
<title>Node7&#45;&gt;Node43</title>
<path fill="none" stroke="midnightblue" d="M3018.05,-133.57C3000.49,-120.74 2975.77,-102.69 2961.31,-92.13"/>
<polygon fill="midnightblue" stroke="midnightblue" points="3016.36,-136.66 3026.5,-139.73 3020.49,-131.01 3016.36,-136.66"/>
</g>
<!-- Node7&#45;&gt;Node44 -->
<g id="edge46" class="edge">
<title>Node7&#45;&gt;Node44</title>
<path fill="none" stroke="midnightblue" d="M3146.04,-146.42C3608.81,-137.44 5409.83,-102.3 5468.5,-98 5487.06,-96.64 5507.23,-94.37 5525.41,-92.03"/>
<polygon fill="midnightblue" stroke="midnightblue" points="3145.95,-142.92 3136.02,-146.61 3146.08,-149.92 3145.95,-142.92"/>
</g>
<!-- Node10 -->
<g id="node10" class="node">
<title>Node10</title>
<g id="a_node10"><a xlink:href="../../d4/da1/vabstractarc_8cpp.html" target="_top" xlink:title=" ">
<polygon fill="white" stroke="black" points="3213,-0.5 3213,-30.5 3320,-30.5 3320,-0.5 3213,-0.5"/>
<text text-anchor="start" x="3221" y="-18.5" font-family="Helvetica,sans-Serif" font-size="10.00">src/libs/vgeometry</text>
<text text-anchor="middle" x="3266.5" y="-7.5" font-family="Helvetica,sans-Serif" font-size="10.00">/vabstractarc.cpp</text>
</a>
</g>
</g>
<!-- Node9&#45;&gt;Node10 -->
<g id="edge10" class="edge">
<title>Node9&#45;&gt;Node10</title>
<path fill="none" stroke="midnightblue" d="M3266.5,-57.11C3266.5,-48.15 3266.5,-38.32 3266.5,-30.58"/>
<polygon fill="midnightblue" stroke="midnightblue" points="3263,-57.4 3266.5,-67.4 3270,-57.4 3263,-57.4"/>
</g>
<!-- Node12 -->
<g id="node12" class="node">
<title>Node12</title>
<g id="a_node12"><a xlink:href="../../d5/ded/varc_8cpp.html" target="_top" xlink:title=" ">
<polygon fill="white" stroke="black" points="3338,-0.5 3338,-30.5 3445,-30.5 3445,-0.5 3338,-0.5"/>
<text text-anchor="start" x="3346" y="-18.5" font-family="Helvetica,sans-Serif" font-size="10.00">src/libs/vgeometry</text>
<text text-anchor="middle" x="3391.5" y="-7.5" font-family="Helvetica,sans-Serif" font-size="10.00">/varc.cpp</text>
</a>
</g>
</g>
<!-- Node11&#45;&gt;Node12 -->
<g id="edge12" class="edge">
<title>Node11&#45;&gt;Node12</title>
<path fill="none" stroke="midnightblue" d="M3391.5,-57.11C3391.5,-48.15 3391.5,-38.32 3391.5,-30.58"/>
<polygon fill="midnightblue" stroke="midnightblue" points="3388,-57.4 3391.5,-67.4 3395,-57.4 3388,-57.4"/>
</g>
<!-- Node14 -->
<g id="node14" class="node">
<title>Node14</title>
<g id="a_node14"><a xlink:href="../../d2/d26/vcubicbezier_8cpp.html" target="_top" xlink:title=" ">
<polygon fill="white" stroke="black" points="3463,-0.5 3463,-30.5 3570,-30.5 3570,-0.5 3463,-0.5"/>
<text text-anchor="start" x="3471" y="-18.5" font-family="Helvetica,sans-Serif" font-size="10.00">src/libs/vgeometry</text>
<text text-anchor="middle" x="3516.5" y="-7.5" font-family="Helvetica,sans-Serif" font-size="10.00">/vcubicbezier.cpp</text>
</a>
</g>
</g>
<!-- Node13&#45;&gt;Node14 -->
<g id="edge14" class="edge">
<title>Node13&#45;&gt;Node14</title>
<path fill="none" stroke="midnightblue" d="M3516.5,-57.11C3516.5,-48.15 3516.5,-38.32 3516.5,-30.58"/>
<polygon fill="midnightblue" stroke="midnightblue" points="3513,-57.4 3516.5,-67.4 3520,-57.4 3513,-57.4"/>
</g>
<!-- Node16&#45;&gt;Node15 -->
<g id="edge17" class="edge">
<title>Node16&#45;&gt;Node15</title>
<path fill="none" stroke="midnightblue" d="M3648.82,-57.7C3651.63,-48.59 3654.73,-38.49 3657.17,-30.58"/>
<polygon fill="midnightblue" stroke="midnightblue" points="3645.44,-56.81 3645.84,-67.4 3652.13,-58.87 3645.44,-56.81"/>
</g>
<!-- Node18 -->
<g id="node18" class="node">
<title>Node18</title>
<g id="a_node18"><a xlink:href="../../d5/dd2/vspline_8cpp.html" target="_top" xlink:title=" ">
<polygon fill="white" stroke="black" points="3752,-0.5 3752,-30.5 3859,-30.5 3859,-0.5 3752,-0.5"/>
<text text-anchor="start" x="3760" y="-18.5" font-family="Helvetica,sans-Serif" font-size="10.00">src/libs/vgeometry</text>
<text text-anchor="middle" x="3805.5" y="-7.5" font-family="Helvetica,sans-Serif" font-size="10.00">/vspline.cpp</text>
</a>
</g>
</g>
<!-- Node17&#45;&gt;Node18 -->
<g id="edge19" class="edge">
<title>Node17&#45;&gt;Node18</title>
<path fill="none" stroke="midnightblue" d="M3805.5,-57.11C3805.5,-48.15 3805.5,-38.32 3805.5,-30.58"/>
<polygon fill="midnightblue" stroke="midnightblue" points="3802,-57.4 3805.5,-67.4 3809,-57.4 3802,-57.4"/>
</g>
<!-- Node29 -->
<g id="node29" class="node">
<title>Node29</title>
<g id="a_node29"><a xlink:href="../../d8/dba/vpiecenode_8cpp.html" target="_top" xlink:title=" ">
<polygon fill="white" stroke="black" points="491,-0.5 491,-30.5 598,-30.5 598,-0.5 491,-0.5"/>
<text text-anchor="start" x="499" y="-18.5" font-family="Helvetica,sans-Serif" font-size="10.00">src/libs/vpatterndb</text>
<text text-anchor="middle" x="544.5" y="-7.5" font-family="Helvetica,sans-Serif" font-size="10.00">/vpiecenode.cpp</text>
</a>
</g>
</g>
<!-- Node28&#45;&gt;Node29 -->
<g id="edge31" class="edge">
<title>Node28&#45;&gt;Node29</title>
<path fill="none" stroke="midnightblue" d="M544.5,-57.11C544.5,-48.15 544.5,-38.32 544.5,-30.58"/>
<polygon fill="midnightblue" stroke="midnightblue" points="541,-57.4 544.5,-67.4 548,-57.4 541,-57.4"/>
</g>
<!-- Node45&#45;&gt;Node7 -->
<g id="edge52" class="edge">
<title>Node45&#45;&gt;Node7</title>
<path fill="none" stroke="midnightblue" d="M3820.15,-204.45C3661.36,-193.49 3307.9,-169.1 3136.06,-157.23"/>
<polygon fill="midnightblue" stroke="midnightblue" points="3820.11,-207.96 3830.32,-205.16 3820.59,-200.98 3820.11,-207.96"/>
</g>
<!-- Node45&#45;&gt;Node40 -->
<g id="edge54" class="edge">
<title>Node45&#45;&gt;Node40</title>
<path fill="none" stroke="midnightblue" d="M3927.8,-196.75C3944.74,-188.24 3966.77,-176.64 3985.5,-165 4005.51,-152.57 4006.19,-141.57 4028.5,-134 4155.45,-90.91 5100.83,-108.26 5234.5,-98 5253.07,-96.58 5273.22,-94.33 5291.49,-92.03"/>
<polygon fill="midnightblue" stroke="midnightblue" points="3925.88,-193.8 3918.48,-201.38 3928.99,-200.07 3925.88,-193.8"/>
</g>
<!-- Node46 -->
<g id="node46" class="node">
<title>Node46</title>
<g id="a_node46"><a xlink:href="../../d9/d02/vapplication_8h.html" target="_top" xlink:title=" ">
<polygon fill="white" stroke="red" points="5714,-134.5 5714,-164.5 5841,-164.5 5841,-134.5 5714,-134.5"/>
<text text-anchor="start" x="5722" y="-152.5" font-family="Helvetica,sans-Serif" font-size="10.00">src/app/seamly2d/core</text>
<text text-anchor="middle" x="5777.5" y="-141.5" font-family="Helvetica,sans-Serif" font-size="10.00">/vapplication.h</text>
</a>
</g>
</g>
<!-- Node45&#45;&gt;Node46 -->
<g id="edge48" class="edge">
<title>Node45&#45;&gt;Node46</title>
<path fill="none" stroke="midnightblue" d="M3980.72,-205.1C4006.51,-203.63 4035.2,-202.12 4061.5,-201 4706.55,-173.48 5488.65,-156.38 5713.98,-151.76"/>
<polygon fill="midnightblue" stroke="midnightblue" points="3980.4,-201.61 3970.62,-205.68 3980.8,-208.6 3980.4,-201.61"/>
</g>
<!-- Node70 -->
<g id="node50" class="node">
<title>Node70</title>
<g id="a_node50"><a xlink:href="../../db/d28/vsettings_8cpp.html" target="_top" xlink:title=" ">
<polygon fill="white" stroke="black" points="3824.5,-140 3824.5,-159 3976.5,-159 3976.5,-140 3824.5,-140"/>
<text text-anchor="middle" x="3900.5" y="-147" font-family="Helvetica,sans-Serif" font-size="10.00">src/libs/vmisc/vsettings.cpp</text>
</a>
</g>
</g>
<!-- Node45&#45;&gt;Node70 -->
<g id="edge53" class="edge">
<title>Node45&#45;&gt;Node70</title>
<path fill="none" stroke="midnightblue" d="M3900.5,-191.32C3900.5,-180.5 3900.5,-167.4 3900.5,-159.01"/>
<polygon fill="midnightblue" stroke="midnightblue" points="3897,-191.48 3900.5,-201.48 3904,-191.48 3897,-191.48"/>
</g>
<!-- Node47 -->
<g id="node47" class="node">
<title>Node47</title>
<g id="a_node47"><a xlink:href="../../d3/dd8/vapplication_8cpp.html" target="_top" xlink:title=" ">
<polygon fill="white" stroke="black" points="6131,-67.5 6131,-97.5 6258,-97.5 6258,-67.5 6131,-67.5"/>
<text text-anchor="start" x="6139" y="-85.5" font-family="Helvetica,sans-Serif" font-size="10.00">src/app/seamly2d/core</text>
<text text-anchor="middle" x="6194.5" y="-74.5" font-family="Helvetica,sans-Serif" font-size="10.00">/vapplication.cpp</text>
</a>
</g>
</g>
<!-- Node46&#45;&gt;Node47 -->
<g id="edge49" class="edge">
<title>Node46&#45;&gt;Node47</title>
<path fill="none" stroke="midnightblue" d="M5851.21,-133.96C5972.53,-114.3 6005.39,-117.52 6122.5,-98 6125.27,-97.54 6128.09,-97.05 6130.94,-96.54"/>
<polygon fill="midnightblue" stroke="midnightblue" points="5850.46,-130.53 5841.16,-135.6 5851.59,-137.44 5850.46,-130.53"/>
</g>
<!-- Node48 -->
<g id="node48" class="node">
<title>Node48</title>
<g id="a_node48"><a xlink:href="../../d7/dfa/calculator__dialog_8cpp.html" target="_top" xlink:title=" ">
<polygon fill="white" stroke="black" points="5707,-67.5 5707,-97.5 5848,-97.5 5848,-67.5 5707,-67.5"/>
<text text-anchor="start" x="5715" y="-85.5" font-family="Helvetica,sans-Serif" font-size="10.00">src/app/seamly2d/dialogs</text>
<text text-anchor="middle" x="5777.5" y="-74.5" font-family="Helvetica,sans-Serif" font-size="10.00">/calculator_dialog.cpp</text>
</a>
</g>
</g>
<!-- Node46&#45;&gt;Node48 -->
<g id="edge50" class="edge">
<title>Node46&#45;&gt;Node48</title>
<path fill="none" stroke="midnightblue" d="M5777.5,-124.11C5777.5,-115.15 5777.5,-105.32 5777.5,-97.58"/>
<polygon fill="midnightblue" stroke="midnightblue" points="5774,-124.4 5777.5,-134.4 5781,-124.4 5774,-124.4"/>
</g>
<!-- Node49 -->
<g id="node49" class="node">
<title>Node49</title>
<g id="a_node49"><a xlink:href="../../d2/d2d/preferencesconfigurationpage_8cpp.html" target="_top" xlink:title=" ">
<polygon fill="white" stroke="black" points="5866,-67.5 5866,-97.5 6113,-97.5 6113,-67.5 5866,-67.5"/>
<text text-anchor="start" x="5874" y="-85.5" font-family="Helvetica,sans-Serif" font-size="10.00">src/app/seamly2d/dialogs</text>
<text text-anchor="middle" x="5989.5" y="-74.5" font-family="Helvetica,sans-Serif" font-size="10.00">/configpages/preferencesconfigurationpage.cpp</text>
</a>
</g>
</g>
<!-- Node46&#45;&gt;Node49 -->
<g id="edge51" class="edge">
<title>Node46&#45;&gt;Node49</title>
<path fill="none" stroke="midnightblue" d="M5833.13,-131.44C5867.49,-120.91 5911.06,-107.55 5943.48,-97.61"/>
<polygon fill="midnightblue" stroke="midnightblue" points="5831.77,-128.2 5823.24,-134.48 5833.83,-134.89 5831.77,-128.2"/>
</g>
</g>
</svg>
