<?xml version="1.0" encoding="UTF-8" standalone="no"?>
<!DOCTYPE svg PUBLIC "-//W3C//DTD SVG 1.1//EN"
 "http://www.w3.org/Graphics/SVG/1.1/DTD/svg11.dtd">
<!-- Generated by graphviz version 2.43.0 (0)
 -->
<!-- Title: src/libs/vtools/dialogs/tools/dialoggroup.cpp Pages: 1 -->
<!--zoomable 214 -->

<svg id="main" version="1.1" xmlns="http://www.w3.org/2000/svg" xmlns:xlink="http://www.w3.org/1999/xlink" xml:space="preserve" onload="init(evt)">
<style type="text/css"><![CDATA[
.node, .edge {opacity: 0.7;}
.node.selected, .edge.selected {opacity: 1;}
.edge:hover path { stroke: red; }
.edge:hover polygon { stroke: red; fill: red; }
]]></style>

<defs>
  <circle id="rim" cx="0" cy="0" r="7"/>
  <circle id="rim2" cx="0" cy="0" r="3.5"/>
  <g id="zoomPlus">
    <use xlink:href="#rim" fill="#404040"><set attributeName="fill" to="#808080" begin="zoomplus.mouseover" end="zoomplus.mouseout"/></use>
    <path d="M-4,0h8M0,-4v8" fill="none" stroke="white" stroke-width="1.5" pointer-events="none"/>
  </g>
  <g id="zoomMin">
    <use xlink:href="#rim" fill="#404040"><set attributeName="fill" to="#808080" begin="zoomminus.mouseover" end="zoomminus.mouseout"/></use>
    <path d="M-4,0h8" fill="none" stroke="white" stroke-width="1.5" pointer-events="none"/>
  </g>
  <g id="arrowUp" transform="translate(30 24)">
    <use xlink:href="#rim"/>
    <path pointer-events="none" fill="none" stroke="white" stroke-width="1.5" d="M0,-3.0v7 M-2.5,-0.5L0,-3.0L2.5,-0.5"/>
  </g>
  <g id="arrowRight" transform="rotate(90) translate(36 -43)">
    <use xlink:href="#rim"/>
    <path pointer-events="none" fill="none" stroke="white" stroke-width="1.5" d="M0,-3.0v7 M-2.5,-0.5L0,-3.0L2.5,-0.5"/>
  </g>
  <g id="arrowDown" transform="rotate(180) translate(-30 -48)">
    <use xlink:href="#rim"/>
    <path pointer-events="none" fill="none" stroke="white" stroke-width="1.5" d="M0,-3.0v7 M-2.5,-0.5L0,-3.0L2.5,-0.5"/>
  </g>
  <g id="arrowLeft" transform="rotate(270) translate(-36 17)">
    <use xlink:href="#rim"/>
    <path pointer-events="none" fill="none" stroke="white" stroke-width="1.5" d="M0,-3.0v7 M-2.5,-0.5L0,-3.0L2.5,-0.5"/>
  </g>
  <g id="resetDef">
    <use xlink:href="#rim2" fill="#404040"><set attributeName="fill" to="#808080" begin="reset.mouseover" end="reset.mouseout"/></use>
  </g>
</defs>
<script type="application/ecmascript">
var viewWidth = 2994;
var viewHeight = 214;
var sectionId = 'dynsection-0';
</script>
<script type="application/ecmascript" xlink:href="../../svg.min.js"/>
<svg id="graph" class="graph">
<g id="viewport">
<title>src/libs/vtools/dialogs/tools/dialoggroup.cpp</title>
<!-- Node1 -->
<g id="Node000001" class="node">
<title>Node1</title>
<g id="a_Node000001"><a xlink:title=" ">
<polygon fill="#999999" stroke="#666666" points="2902,-206 2777,-206 2777,-176 2902,-176 2902,-206"/>
<text text-anchor="start" x="2785" y="-194" font-family="Helvetica,sans-Serif" font-size="10.00">src/libs/vtools/dialogs</text>
<text text-anchor="middle" x="2839.5" y="-183" font-family="Helvetica,sans-Serif" font-size="10.00">/tools/dialoggroup.cpp</text>
</a>
</g>
</g>
<!-- Node2 -->
<g id="Node000002" class="node">
<title>Node2</title>
<g id="a_Node000002"><a xlink:href="../../d9/d54/dialoggroup_8h.html" target="_top" xlink:title=" ">
<polygon fill="white" stroke="#666666" points="2105,-140 2022,-140 2022,-121 2105,-121 2105,-140"/>
<text text-anchor="middle" x="2063.5" y="-128" font-family="Helvetica,sans-Serif" font-size="10.00">dialoggroup.h</text>
</a>
</g>
</g>
<!-- Node1&#45;&gt;Node2 -->
<g id="edge1_Node000001_Node000002" class="edge">
<title>Node1&#45;&gt;Node2</title>
<g id="a_edge1_Node000001_Node000002"><a xlink:title=" ">
<path fill="none" stroke="#63b8ff" d="M2776.98,-185.29C2627.77,-174.04 2253.02,-145.79 2115.31,-135.41"/>
<polygon fill="#63b8ff" stroke="#63b8ff" points="2115.27,-131.89 2105.04,-134.63 2114.75,-138.87 2115.27,-131.89"/>
</a>
</g>
</g>
<!-- Node15 -->
<g id="Node000015" class="node">
<title>Node15</title>
<g id="a_Node000015"><a xlink:title=" ">
<polygon fill="#e0e0e0" stroke="#999999" points="2986,-24.5 2923,-24.5 2923,-5.5 2986,-5.5 2986,-24.5"/>
<text text-anchor="middle" x="2954.5" y="-12.5" font-family="Helvetica,sans-Serif" font-size="10.00">QLineEdit</text>
</a>
</g>
</g>
<!-- Node1&#45;&gt;Node15 -->
<g id="edge37_Node000001_Node000015" class="edge">
<title>Node1&#45;&gt;Node15</title>
<g id="a_edge37_Node000001_Node000015"><a xlink:title=" ">
<path fill="none" stroke="#63b8ff" d="M2841.41,-175.78C2843.81,-161.29 2848.83,-138.51 2858.5,-121 2878.74,-84.35 2914.27,-50.2 2935.96,-31.31"/>
<polygon fill="#63b8ff" stroke="#63b8ff" points="2938.46,-33.78 2943.8,-24.62 2933.92,-28.45 2938.46,-33.78"/>
</a>
</g>
</g>
<!-- Node32 -->
<g id="Node000032" class="node">
<title>Node32</title>
<g id="a_Node000032"><a xlink:title=" ">
<polygon fill="#e0e0e0" stroke="#999999" points="2965.5,-140 2867.5,-140 2867.5,-121 2965.5,-121 2965.5,-140"/>
<text text-anchor="middle" x="2916.5" y="-128" font-family="Helvetica,sans-Serif" font-size="10.00">ui_dialoggroup.h</text>
</a>
</g>
</g>
<!-- Node1&#45;&gt;Node32 -->
<g id="edge38_Node000001_Node000032" class="edge">
<title>Node1&#45;&gt;Node32</title>
<g id="a_edge38_Node000001_Node000032"><a xlink:title=" ">
<path fill="none" stroke="#63b8ff" d="M2858.14,-175.84C2869.89,-166.91 2885.03,-155.41 2896.95,-146.35"/>
<polygon fill="#63b8ff" stroke="#63b8ff" points="2899.12,-149.1 2904.96,-140.27 2894.88,-143.53 2899.12,-149.1"/>
</a>
</g>
</g>
<!-- Node3 -->
<g id="Node000003" class="node">
<title>Node3</title>
<g id="a_Node000003"><a xlink:title=" ">
<polygon fill="#e0e0e0" stroke="#999999" points="268.5,-24.5 148.5,-24.5 148.5,-5.5 268.5,-5.5 268.5,-24.5"/>
<text text-anchor="middle" x="208.5" y="-12.5" font-family="Helvetica,sans-Serif" font-size="10.00">qcompilerdetection.h</text>
</a>
</g>
</g>
<!-- Node2&#45;&gt;Node3 -->
<g id="edge2_Node000002_Node000003" class="edge">
<title>Node2&#45;&gt;Node3</title>
<g id="a_edge2_Node000002_Node000003"><a xlink:title=" ">
<path fill="none" stroke="#63b8ff" d="M2021.71,-127.34C1761.07,-113.87 366.82,-41.49 277.5,-30 270.33,-29.08 262.79,-27.84 255.44,-26.47"/>
<polygon fill="#63b8ff" stroke="#63b8ff" points="256.06,-23.02 245.58,-24.55 254.72,-29.9 256.06,-23.02"/>
</a>
</g>
</g>
<!-- Node4 -->
<g id="Node000004" class="node">
<title>Node4</title>
<g id="a_Node000004"><a xlink:title=" ">
<polygon fill="#e0e0e0" stroke="#999999" points="2732,-24.5 2687,-24.5 2687,-5.5 2732,-5.5 2732,-24.5"/>
<text text-anchor="middle" x="2709.5" y="-12.5" font-family="Helvetica,sans-Serif" font-size="10.00">QMap</text>
</a>
</g>
</g>
<!-- Node2&#45;&gt;Node4 -->
<g id="edge3_Node000002_Node000004" class="edge">
<title>Node2&#45;&gt;Node4</title>
<g id="a_edge3_Node000002_Node000004"><a xlink:title=" ">
<path fill="none" stroke="#63b8ff" d="M2105.25,-122.48C2175.75,-110.64 2322.91,-86.05 2447.5,-66 2549.65,-49.56 2578.17,-58.97 2677.5,-30 2679.18,-29.51 2680.89,-28.95 2682.6,-28.35"/>
<polygon fill="#63b8ff" stroke="#63b8ff" points="2684.2,-31.48 2692.2,-24.54 2681.61,-24.97 2684.2,-31.48"/>
</a>
</g>
</g>
<!-- Node5 -->
<g id="Node000005" class="node">
<title>Node5</title>
<g id="a_Node000005"><a xlink:title=" ">
<polygon fill="#e0e0e0" stroke="#999999" points="2830.5,-24.5 2750.5,-24.5 2750.5,-5.5 2830.5,-5.5 2830.5,-24.5"/>
<text text-anchor="middle" x="2790.5" y="-12.5" font-family="Helvetica,sans-Serif" font-size="10.00">QMetaObject</text>
</a>
</g>
</g>
<!-- Node2&#45;&gt;Node5 -->
<g id="edge4_Node000002_Node000005" class="edge">
<title>Node2&#45;&gt;Node5</title>
<g id="a_edge4_Node000002_Node000005"><a xlink:title=" ">
<path fill="none" stroke="#63b8ff" d="M2105.09,-125.48C2211.62,-114.73 2502.7,-82.53 2740.5,-30 2744.35,-29.15 2748.35,-28.18 2752.32,-27.16"/>
<polygon fill="#63b8ff" stroke="#63b8ff" points="2753.33,-30.51 2762.08,-24.55 2751.52,-23.75 2753.33,-30.51"/>
</a>
</g>
</g>
<!-- Node6 -->
<g id="Node000006" class="node">
<title>Node6</title>
<g id="a_Node000006"><a xlink:title=" ">
<polygon fill="#e0e0e0" stroke="#999999" points="2904.5,-24.5 2848.5,-24.5 2848.5,-5.5 2904.5,-5.5 2904.5,-24.5"/>
<text text-anchor="middle" x="2876.5" y="-12.5" font-family="Helvetica,sans-Serif" font-size="10.00">QObject</text>
</a>
</g>
</g>
<!-- Node2&#45;&gt;Node6 -->
<g id="edge5_Node000002_Node000006" class="edge">
<title>Node2&#45;&gt;Node6</title>
<g id="a_edge5_Node000002_Node000006"><a xlink:title=" ">
<path fill="none" stroke="#63b8ff" d="M2105.06,-128.1C2222.44,-123.32 2565.68,-103.57 2839.5,-30 2841.79,-29.38 2844.14,-28.68 2846.49,-27.92"/>
<polygon fill="#63b8ff" stroke="#63b8ff" points="2847.72,-31.2 2855.99,-24.59 2845.4,-24.59 2847.72,-31.2"/>
</a>
</g>
</g>
<!-- Node7 -->
<g id="Node000007" class="node">
<title>Node7</title>
<g id="a_Node000007"><a xlink:title=" ">
<polygon fill="#e0e0e0" stroke="#999999" points="53,-24.5 0,-24.5 0,-5.5 53,-5.5 53,-24.5"/>
<text text-anchor="middle" x="26.5" y="-12.5" font-family="Helvetica,sans-Serif" font-size="10.00">QString</text>
</a>
</g>
</g>
<!-- Node2&#45;&gt;Node7 -->
<g id="edge6_Node000002_Node000007" class="edge">
<title>Node2&#45;&gt;Node7</title>
<g id="a_edge6_Node000002_Node000007"><a xlink:title=" ">
<path fill="none" stroke="#63b8ff" d="M2021.71,-129.33C1792.98,-128.23 690.81,-121.13 352.5,-85 221.62,-71.02 187.86,-66.84 61.5,-30 59.57,-29.44 57.6,-28.81 55.62,-28.13"/>
<polygon fill="#63b8ff" stroke="#63b8ff" points="56.48,-24.72 45.89,-24.53 54.05,-31.29 56.48,-24.72"/>
</a>
</g>
</g>
<!-- Node8 -->
<g id="Node000008" class="node">
<title>Node8</title>
<g id="a_Node000008"><a xlink:title=" ">
<polygon fill="#e0e0e0" stroke="#999999" points="130,-24.5 71,-24.5 71,-5.5 130,-5.5 130,-24.5"/>
<text text-anchor="middle" x="100.5" y="-12.5" font-family="Helvetica,sans-Serif" font-size="10.00">QtGlobal</text>
</a>
</g>
</g>
<!-- Node2&#45;&gt;Node8 -->
<g id="edge7_Node000002_Node000008" class="edge">
<title>Node2&#45;&gt;Node8</title>
<g id="a_edge7_Node000002_Node000008"><a xlink:title=" ">
<path fill="none" stroke="#63b8ff" d="M2021.8,-128.44C1870.37,-124.46 1335.31,-109.44 894.5,-85 558.57,-66.38 468.65,-99.7 139.5,-30 136.66,-29.4 133.75,-28.64 130.86,-27.79"/>
<polygon fill="#63b8ff" stroke="#63b8ff" points="131.84,-24.43 121.25,-24.63 129.65,-31.08 131.84,-24.43"/>
</a>
</g>
</g>
<!-- Node9 -->
<g id="Node000009" class="node">
<title>Node9</title>
<g id="a_Node000009"><a xlink:href="../../d1/d30/dialogtool_8h.html" target="_top" xlink:title=" ">
<polygon fill="white" stroke="#666666" points="1454.5,-85 1380.5,-85 1380.5,-66 1454.5,-66 1454.5,-85"/>
<text text-anchor="middle" x="1417.5" y="-73" font-family="Helvetica,sans-Serif" font-size="10.00">dialogtool.h</text>
</a>
</g>
</g>
<!-- Node2&#45;&gt;Node9 -->
<g id="edge8_Node000002_Node000009" class="edge">
<title>Node2&#45;&gt;Node9</title>
<g id="a_edge8_Node000002_Node000009"><a xlink:title=" ">
<path fill="none" stroke="#63b8ff" d="M2021.61,-126.06C1906.56,-116.62 1586.21,-90.34 1464.89,-80.39"/>
<polygon fill="#63b8ff" stroke="#63b8ff" points="1465.05,-76.89 1454.8,-79.56 1464.48,-83.87 1465.05,-76.89"/>
</a>
</g>
</g>
<!-- Node9&#45;&gt;Node3 -->
<g id="edge9_Node000009_Node000003" class="edge">
<title>Node9&#45;&gt;Node3</title>
<g id="a_edge9_Node000009_Node000003"><a xlink:title=" ">
<path fill="none" stroke="#63b8ff" d="M1380.48,-72.95C1339.07,-71.23 1269.98,-68.37 1210.5,-66 795.85,-49.49 689.52,-79.42 277.5,-30 270.16,-29.12 262.43,-27.87 254.91,-26.48"/>
<polygon fill="#63b8ff" stroke="#63b8ff" points="255.33,-23 244.85,-24.52 253.99,-29.87 255.33,-23"/>
</a>
</g>
</g>
<!-- Node9&#45;&gt;Node4 -->
<g id="edge19_Node000009_Node000004" class="edge">
<title>Node9&#45;&gt;Node4</title>
<g id="a_edge19_Node000009_Node000004"><a xlink:title=" ">
<path fill="none" stroke="#63b8ff" d="M1454.73,-74.02C1650.45,-71.37 2555.78,-57.71 2677.5,-30 2679.45,-29.56 2681.43,-28.99 2683.4,-28.35"/>
<polygon fill="#63b8ff" stroke="#63b8ff" points="2684.91,-31.52 2692.97,-24.64 2682.38,-24.99 2684.91,-31.52"/>
</a>
</g>
</g>
<!-- Node9&#45;&gt;Node5 -->
<g id="edge20_Node000009_Node000005" class="edge">
<title>Node9&#45;&gt;Node5</title>
<g id="a_edge20_Node000009_Node000005"><a xlink:title=" ">
<path fill="none" stroke="#63b8ff" d="M1454.66,-74.45C1641.86,-74.01 2482.72,-69.83 2740.5,-30 2745.08,-29.29 2749.84,-28.3 2754.53,-27.17"/>
<polygon fill="#63b8ff" stroke="#63b8ff" points="2755.77,-30.47 2764.55,-24.54 2753.99,-23.7 2755.77,-30.47"/>
</a>
</g>
</g>
<!-- Node9&#45;&gt;Node6 -->
<g id="edge21_Node000009_Node000006" class="edge">
<title>Node9&#45;&gt;Node6</title>
<g id="a_edge21_Node000009_Node000006"><a xlink:title=" ">
<path fill="none" stroke="#63b8ff" d="M1454.56,-74.07C1664.51,-71.54 2700.29,-57.71 2839.5,-30 2842.34,-29.43 2845.25,-28.67 2848.13,-27.8"/>
<polygon fill="#63b8ff" stroke="#63b8ff" points="2849.35,-31.08 2857.65,-24.5 2847.06,-24.47 2849.35,-31.08"/>
</a>
</g>
</g>
<!-- Node9&#45;&gt;Node7 -->
<g id="edge25_Node000009_Node000007" class="edge">
<title>Node9&#45;&gt;Node7</title>
<g id="a_edge25_Node000009_Node000007"><a xlink:title=" ">
<path fill="none" stroke="#63b8ff" d="M1380.17,-74.05C1175.46,-71.46 193.55,-57.68 61.5,-30 58.98,-29.47 56.4,-28.77 53.85,-27.97"/>
<polygon fill="#63b8ff" stroke="#63b8ff" points="54.89,-24.62 44.29,-24.5 52.5,-31.2 54.89,-24.62"/>
</a>
</g>
</g>
<!-- Node9&#45;&gt;Node8 -->
<g id="edge27_Node000009_Node000008" class="edge">
<title>Node9&#45;&gt;Node8</title>
<g id="a_edge27_Node000009_Node000008"><a xlink:title=" ">
<path fill="none" stroke="#63b8ff" d="M1380.41,-73.89C1183.43,-70.57 263.98,-53.9 139.5,-30 136.49,-29.42 133.4,-28.65 130.34,-27.76"/>
<polygon fill="#63b8ff" stroke="#63b8ff" points="131.4,-24.42 120.81,-24.63 129.22,-31.08 131.4,-24.42"/>
</a>
</g>
</g>
<!-- Node10 -->
<g id="Node000010" class="node">
<title>Node10</title>
<g id="a_Node000010"><a xlink:title=" ">
<polygon fill="#e0e0e0" stroke="#999999" points="2505,-24.5 2432,-24.5 2432,-5.5 2505,-5.5 2505,-24.5"/>
<text text-anchor="middle" x="2468.5" y="-12.5" font-family="Helvetica,sans-Serif" font-size="10.00">QCheckBox</text>
</a>
</g>
</g>
<!-- Node9&#45;&gt;Node10 -->
<g id="edge10_Node000009_Node000010" class="edge">
<title>Node9&#45;&gt;Node10</title>
<g id="a_edge10_Node000009_Node000010"><a xlink:title=" ">
<path fill="none" stroke="#63b8ff" d="M1454.52,-74.1C1612.5,-72.22 2230.89,-62.86 2422.5,-30 2426.46,-29.32 2430.56,-28.4 2434.6,-27.36"/>
<polygon fill="#63b8ff" stroke="#63b8ff" points="2435.76,-30.67 2444.42,-24.57 2433.85,-23.93 2435.76,-30.67"/>
</a>
</g>
</g>
<!-- Node11 -->
<g id="Node000011" class="node">
<title>Node11</title>
<g id="a_Node000011"><a xlink:title=" ">
<polygon fill="#e0e0e0" stroke="#999999" points="2573.5,-24.5 2523.5,-24.5 2523.5,-5.5 2573.5,-5.5 2573.5,-24.5"/>
<text text-anchor="middle" x="2548.5" y="-12.5" font-family="Helvetica,sans-Serif" font-size="10.00">QColor</text>
</a>
</g>
</g>
<!-- Node9&#45;&gt;Node11 -->
<g id="edge11_Node000009_Node000011" class="edge">
<title>Node9&#45;&gt;Node11</title>
<g id="a_edge11_Node000009_Node000011"><a xlink:title=" ">
<path fill="none" stroke="#63b8ff" d="M1454.54,-74.68C1621.47,-75.21 2304.81,-74.6 2513.5,-30 2515.88,-29.49 2518.3,-28.84 2520.71,-28.09"/>
<polygon fill="#63b8ff" stroke="#63b8ff" points="2522.12,-31.3 2530.34,-24.62 2519.75,-24.71 2522.12,-31.3"/>
</a>
</g>
</g>
<!-- Node12 -->
<g id="Node000012" class="node">
<title>Node12</title>
<g id="a_Node000012"><a xlink:title=" ">
<polygon fill="#e0e0e0" stroke="#999999" points="2669,-24.5 2592,-24.5 2592,-5.5 2669,-5.5 2669,-24.5"/>
<text text-anchor="middle" x="2630.5" y="-12.5" font-family="Helvetica,sans-Serif" font-size="10.00">QComboBox</text>
</a>
</g>
</g>
<!-- Node9&#45;&gt;Node12 -->
<g id="edge12_Node000009_Node000012" class="edge">
<title>Node9&#45;&gt;Node12</title>
<g id="a_edge12_Node000009_Node000012"><a xlink:title=" ">
<path fill="none" stroke="#63b8ff" d="M1454.72,-74.31C1628.13,-73.21 2357.74,-66.5 2582.5,-30 2586.74,-29.31 2591.14,-28.37 2595.47,-27.29"/>
<polygon fill="#63b8ff" stroke="#63b8ff" points="2596.63,-30.6 2605.36,-24.59 2594.79,-23.85 2596.63,-30.6"/>
</a>
</g>
</g>
<!-- Node13 -->
<g id="Node000013" class="node">
<title>Node13</title>
<g id="a_Node000013"><a xlink:title=" ">
<polygon fill="#e0e0e0" stroke="#999999" points="342.5,-24.5 286.5,-24.5 286.5,-5.5 342.5,-5.5 342.5,-24.5"/>
<text text-anchor="middle" x="314.5" y="-12.5" font-family="Helvetica,sans-Serif" font-size="10.00">QDialog</text>
</a>
</g>
</g>
<!-- Node9&#45;&gt;Node13 -->
<g id="edge13_Node000009_Node000013" class="edge">
<title>Node9&#45;&gt;Node13</title>
<g id="a_edge13_Node000009_Node000013"><a xlink:title=" ">
<path fill="none" stroke="#63b8ff" d="M1380.31,-72.97C1192.23,-65.21 354.72,-30.66 351.5,-30 348.82,-29.45 346.07,-28.73 343.35,-27.91"/>
<polygon fill="#63b8ff" stroke="#63b8ff" points="344.33,-24.55 333.74,-24.61 342.06,-31.17 344.33,-24.55"/>
</a>
</g>
</g>
<!-- Node14 -->
<g id="Node000014" class="node">
<title>Node14</title>
<g id="a_Node000014"><a xlink:title=" ">
<polygon fill="#e0e0e0" stroke="#999999" points="468,-24.5 361,-24.5 361,-5.5 468,-5.5 468,-24.5"/>
<text text-anchor="middle" x="414.5" y="-12.5" font-family="Helvetica,sans-Serif" font-size="10.00">QDialogButtonBox</text>
</a>
</g>
</g>
<!-- Node9&#45;&gt;Node14 -->
<g id="edge14_Node000009_Node000014" class="edge">
<title>Node9&#45;&gt;Node14</title>
<g id="a_edge14_Node000009_Node000014"><a xlink:title=" ">
<path fill="none" stroke="#63b8ff" d="M1380.33,-72.92C1211.37,-65.74 521.98,-36.16 476.5,-30 470.26,-29.15 463.71,-27.99 457.32,-26.69"/>
<polygon fill="#63b8ff" stroke="#63b8ff" points="457.96,-23.25 447.45,-24.56 456.49,-30.09 457.96,-23.25"/>
</a>
</g>
</g>
<!-- Node9&#45;&gt;Node15 -->
<g id="edge15_Node000009_Node000015" class="edge">
<title>Node9&#45;&gt;Node15</title>
<g id="a_edge15_Node000009_Node000015"><a xlink:title=" ">
<path fill="none" stroke="#63b8ff" d="M1454.69,-74.06C1671.34,-71.4 2766.17,-56.72 2913.5,-30 2916.93,-29.38 2920.47,-28.52 2923.96,-27.53"/>
<polygon fill="#63b8ff" stroke="#63b8ff" points="2925.06,-30.86 2933.54,-24.5 2922.95,-24.18 2925.06,-30.86"/>
</a>
</g>
</g>
<!-- Node16 -->
<g id="Node000016" class="node">
<title>Node16</title>
<g id="a_Node000016"><a xlink:title=" ">
<polygon fill="#e0e0e0" stroke="#999999" points="527,-24.5 486,-24.5 486,-5.5 527,-5.5 527,-24.5"/>
<text text-anchor="middle" x="506.5" y="-12.5" font-family="Helvetica,sans-Serif" font-size="10.00">QList</text>
</a>
</g>
</g>
<!-- Node9&#45;&gt;Node16 -->
<g id="edge16_Node000009_Node000016" class="edge">
<title>Node9&#45;&gt;Node16</title>
<g id="a_edge16_Node000009_Node000016"><a xlink:title=" ">
<path fill="none" stroke="#63b8ff" d="M1380.34,-72.82C1215.48,-65.33 557.3,-35.17 536.5,-30 534.81,-29.58 533.11,-29.07 531.41,-28.48"/>
<polygon fill="#63b8ff" stroke="#63b8ff" points="532.54,-25.16 521.96,-24.6 529.88,-31.64 532.54,-25.16"/>
</a>
</g>
</g>
<!-- Node17 -->
<g id="Node000017" class="node">
<title>Node17</title>
<g id="a_Node000017"><a xlink:title=" ">
<polygon fill="#e0e0e0" stroke="#999999" points="621.5,-24.5 545.5,-24.5 545.5,-5.5 621.5,-5.5 621.5,-24.5"/>
<text text-anchor="middle" x="583.5" y="-12.5" font-family="Helvetica,sans-Serif" font-size="10.00">QListWidget</text>
</a>
</g>
</g>
<!-- Node9&#45;&gt;Node17 -->
<g id="edge17_Node000009_Node000017" class="edge">
<title>Node9&#45;&gt;Node17</title>
<g id="a_edge17_Node000009_Node000017"><a xlink:title=" ">
<path fill="none" stroke="#63b8ff" d="M1380.09,-72.9C1233.77,-66.56 704.73,-42.97 630.5,-30 626.35,-29.27 622.05,-28.31 617.8,-27.22"/>
<polygon fill="#63b8ff" stroke="#63b8ff" points="618.69,-23.83 608.12,-24.51 616.81,-30.57 618.69,-23.83"/>
</a>
</g>
</g>
<!-- Node18 -->
<g id="Node000018" class="node">
<title>Node18</title>
<g id="a_Node000018"><a xlink:title=" ">
<polygon fill="#e0e0e0" stroke="#999999" points="695.5,-24.5 639.5,-24.5 639.5,-5.5 695.5,-5.5 695.5,-24.5"/>
<text text-anchor="middle" x="667.5" y="-12.5" font-family="Helvetica,sans-Serif" font-size="10.00">QLocale</text>
</a>
</g>
</g>
<!-- Node9&#45;&gt;Node18 -->
<g id="edge18_Node000009_Node000018" class="edge">
<title>Node9&#45;&gt;Node18</title>
<g id="a_edge18_Node000009_Node000018"><a xlink:title=" ">
<path fill="none" stroke="#63b8ff" d="M1380.35,-72.83C1243.32,-66.59 770.73,-44.26 704.5,-30 701.82,-29.42 699.08,-28.69 696.36,-27.85"/>
<polygon fill="#63b8ff" stroke="#63b8ff" points="697.35,-24.49 686.76,-24.53 695.06,-31.11 697.35,-24.49"/>
</a>
</g>
</g>
<!-- Node19 -->
<g id="Node000019" class="node">
<title>Node19</title>
<g id="a_Node000019"><a xlink:title=" ">
<polygon fill="#e0e0e0" stroke="#999999" points="773,-24.5 714,-24.5 714,-5.5 773,-5.5 773,-24.5"/>
<text text-anchor="middle" x="743.5" y="-12.5" font-family="Helvetica,sans-Serif" font-size="10.00">QPointer</text>
</a>
</g>
</g>
<!-- Node9&#45;&gt;Node19 -->
<g id="edge22_Node000009_Node000019" class="edge">
<title>Node9&#45;&gt;Node19</title>
<g id="a_edge22_Node000009_Node000019"><a xlink:title=" ">
<path fill="none" stroke="#63b8ff" d="M1380.11,-72.48C1252.82,-65.52 840.9,-42.28 782.5,-30 779.66,-29.4 776.75,-28.65 773.86,-27.8"/>
<polygon fill="#63b8ff" stroke="#63b8ff" points="774.84,-24.43 764.24,-24.64 772.65,-31.08 774.84,-24.43"/>
</a>
</g>
</g>
<!-- Node20 -->
<g id="Node000020" class="node">
<title>Node20</title>
<g id="a_Node000020"><a xlink:title=" ">
<polygon fill="#e0e0e0" stroke="#999999" points="871.5,-24.5 791.5,-24.5 791.5,-5.5 871.5,-5.5 871.5,-24.5"/>
<text text-anchor="middle" x="831.5" y="-12.5" font-family="Helvetica,sans-Serif" font-size="10.00">QPushButton</text>
</a>
</g>
</g>
<!-- Node9&#45;&gt;Node20 -->
<g id="edge23_Node000009_Node000020" class="edge">
<title>Node9&#45;&gt;Node20</title>
<g id="a_edge23_Node000009_Node000020"><a xlink:title=" ">
<path fill="none" stroke="#63b8ff" d="M1380.33,-72.37C1275.16,-66.19 976.9,-47.59 880.5,-30 876.29,-29.23 871.92,-28.25 867.6,-27.17"/>
<polygon fill="#63b8ff" stroke="#63b8ff" points="868.29,-23.73 857.72,-24.51 866.47,-30.49 868.29,-23.73"/>
</a>
</g>
</g>
<!-- Node21 -->
<g id="Node000021" class="node">
<title>Node21</title>
<g id="a_Node000021"><a xlink:title=" ">
<polygon fill="#e0e0e0" stroke="#999999" points="973.5,-24.5 889.5,-24.5 889.5,-5.5 973.5,-5.5 973.5,-24.5"/>
<text text-anchor="middle" x="931.5" y="-12.5" font-family="Helvetica,sans-Serif" font-size="10.00">QRadioButton</text>
</a>
</g>
</g>
<!-- Node9&#45;&gt;Node21 -->
<g id="edge24_Node000009_Node000021" class="edge">
<title>Node9&#45;&gt;Node21</title>
<g id="a_edge24_Node000009_Node000021"><a xlink:title=" ">
<path fill="none" stroke="#63b8ff" d="M1380.25,-72.78C1304.69,-68.82 1128.2,-57.25 982.5,-30 978.12,-29.18 973.56,-28.17 969.06,-27.06"/>
<polygon fill="#63b8ff" stroke="#63b8ff" points="969.92,-23.67 959.36,-24.55 968.16,-30.45 969.92,-23.67"/>
</a>
</g>
</g>
<!-- Node22 -->
<g id="Node000022" class="node">
<title>Node22</title>
<g id="a_Node000022"><a xlink:title=" ">
<polygon fill="#e0e0e0" stroke="#999999" points="1051,-24.5 992,-24.5 992,-5.5 1051,-5.5 1051,-24.5"/>
<text text-anchor="middle" x="1021.5" y="-12.5" font-family="Helvetica,sans-Serif" font-size="10.00">QVariant</text>
</a>
</g>
</g>
<!-- Node9&#45;&gt;Node22 -->
<g id="edge26_Node000009_Node000022" class="edge">
<title>Node9&#45;&gt;Node22</title>
<g id="a_edge26_Node000009_Node000022"><a xlink:title=" ">
<path fill="none" stroke="#63b8ff" d="M1380.41,-72.69C1314.84,-68.88 1174.53,-57.95 1059.5,-30 1056.99,-29.39 1054.42,-28.67 1051.85,-27.88"/>
<polygon fill="#63b8ff" stroke="#63b8ff" points="1052.73,-24.48 1042.14,-24.58 1050.48,-31.11 1052.73,-24.48"/>
</a>
</g>
</g>
<!-- Node23 -->
<g id="Node000023" class="node">
<title>Node23</title>
<g id="a_Node000023"><a xlink:title=" ">
<polygon fill="#e0e0e0" stroke="#999999" points="1190,-30 1069,-30 1069,0 1190,0 1190,-30"/>
<text text-anchor="start" x="1077" y="-18" font-family="Helvetica,sans-Serif" font-size="10.00">../vtools/visualization</text>
<text text-anchor="middle" x="1129.5" y="-7" font-family="Helvetica,sans-Serif" font-size="10.00">/visualization.h</text>
</a>
</g>
</g>
<!-- Node9&#45;&gt;Node23 -->
<g id="edge28_Node000009_Node000023" class="edge">
<title>Node9&#45;&gt;Node23</title>
<g id="a_edge28_Node000009_Node000023"><a xlink:title=" ">
<path fill="none" stroke="#63b8ff" d="M1380.44,-66.97C1335.01,-57.74 1257.04,-41.91 1200.04,-30.33"/>
<polygon fill="#63b8ff" stroke="#63b8ff" points="1200.51,-26.85 1190.02,-28.29 1199.12,-33.71 1200.51,-26.85"/>
</a>
</g>
</g>
<!-- Node24 -->
<g id="Node000024" class="node">
<title>Node24</title>
<g id="a_Node000024"><a xlink:title=" ">
<polygon fill="#e0e0e0" stroke="#999999" points="1360.5,-24.5 1208.5,-24.5 1208.5,-5.5 1360.5,-5.5 1360.5,-24.5"/>
<text text-anchor="middle" x="1284.5" y="-12.5" font-family="Helvetica,sans-Serif" font-size="10.00">../ifc/xml/vabstractpattern.h</text>
</a>
</g>
</g>
<!-- Node9&#45;&gt;Node24 -->
<g id="edge29_Node000009_Node000024" class="edge">
<title>Node9&#45;&gt;Node24</title>
<g id="a_edge29_Node000009_Node000024"><a xlink:title=" ">
<path fill="none" stroke="#63b8ff" d="M1398.16,-65.99C1375.8,-56.16 1338.79,-39.88 1313.1,-28.58"/>
<polygon fill="#63b8ff" stroke="#63b8ff" points="1314.43,-25.34 1303.86,-24.52 1311.61,-31.75 1314.43,-25.34"/>
</a>
</g>
</g>
<!-- Node25 -->
<g id="Node000025" class="node">
<title>Node25</title>
<g id="a_Node000025"><a xlink:title=" ">
<polygon fill="#e0e0e0" stroke="#999999" points="1456,-24.5 1379,-24.5 1379,-5.5 1456,-5.5 1456,-24.5"/>
<text text-anchor="middle" x="1417.5" y="-12.5" font-family="Helvetica,sans-Serif" font-size="10.00">../ifc/ifcdef.h</text>
</a>
</g>
</g>
<!-- Node9&#45;&gt;Node25 -->
<g id="edge30_Node000009_Node000025" class="edge">
<title>Node9&#45;&gt;Node25</title>
<g id="a_edge30_Node000009_Node000025"><a xlink:title=" ">
<path fill="none" stroke="#63b8ff" d="M1417.5,-65.87C1417.5,-57.75 1417.5,-45.31 1417.5,-34.89"/>
<polygon fill="#63b8ff" stroke="#63b8ff" points="1421,-34.67 1417.5,-24.67 1414,-34.67 1421,-34.67"/>
</a>
</g>
</g>
<!-- Node26 -->
<g id="Node000026" class="node">
<title>Node26</title>
<g id="a_Node000026"><a xlink:title=" ">
<polygon fill="#e0e0e0" stroke="#999999" points="1633,-24.5 1474,-24.5 1474,-5.5 1633,-5.5 1633,-24.5"/>
<text text-anchor="middle" x="1553.5" y="-12.5" font-family="Helvetica,sans-Serif" font-size="10.00">../vgeometry/vgeometrydef.h</text>
</a>
</g>
</g>
<!-- Node9&#45;&gt;Node26 -->
<g id="edge31_Node000009_Node000026" class="edge">
<title>Node9&#45;&gt;Node26</title>
<g id="a_edge31_Node000009_Node000026"><a xlink:title=" ">
<path fill="none" stroke="#63b8ff" d="M1437.28,-65.99C1460.14,-56.16 1497.99,-39.88 1524.26,-28.58"/>
<polygon fill="#63b8ff" stroke="#63b8ff" points="1525.9,-31.68 1533.7,-24.52 1523.13,-25.25 1525.9,-31.68"/>
</a>
</g>
</g>
<!-- Node27 -->
<g id="Node000027" class="node">
<title>Node27</title>
<g id="a_Node000027"><a xlink:title=" ">
<polygon fill="#e0e0e0" stroke="#999999" points="1733.5,-24.5 1651.5,-24.5 1651.5,-5.5 1733.5,-5.5 1733.5,-24.5"/>
<text text-anchor="middle" x="1692.5" y="-12.5" font-family="Helvetica,sans-Serif" font-size="10.00">../vmisc/def.h</text>
</a>
</g>
</g>
<!-- Node9&#45;&gt;Node27 -->
<g id="edge32_Node000009_Node000027" class="edge">
<title>Node9&#45;&gt;Node27</title>
<g id="a_edge32_Node000009_Node000027"><a xlink:title=" ">
<path fill="none" stroke="#63b8ff" d="M1454.54,-67.98C1499.1,-59.95 1576.1,-45.45 1641.5,-30 1645.31,-29.1 1649.27,-28.11 1653.22,-27.09"/>
<polygon fill="#63b8ff" stroke="#63b8ff" points="1654.16,-30.46 1662.93,-24.5 1652.36,-23.69 1654.16,-30.46"/>
</a>
</g>
</g>
<!-- Node28 -->
<g id="Node000028" class="node">
<title>Node28</title>
<g id="a_Node000028"><a xlink:title=" ">
<polygon fill="#e0e0e0" stroke="#999999" points="1855,-24.5 1752,-24.5 1752,-5.5 1855,-5.5 1855,-24.5"/>
<text text-anchor="middle" x="1803.5" y="-12.5" font-family="Helvetica,sans-Serif" font-size="10.00">../vmisc/logging.h</text>
</a>
</g>
</g>
<!-- Node9&#45;&gt;Node28 -->
<g id="edge33_Node000009_Node000028" class="edge">
<title>Node9&#45;&gt;Node28</title>
<g id="a_edge33_Node000009_Node000028"><a xlink:title=" ">
<path fill="none" stroke="#63b8ff" d="M1454.71,-70.5C1515.29,-63.75 1638.86,-48.95 1742.5,-30 1747.84,-29.02 1753.43,-27.89 1758.95,-26.71"/>
<polygon fill="#63b8ff" stroke="#63b8ff" points="1759.76,-30.11 1768.77,-24.54 1758.25,-23.28 1759.76,-30.11"/>
</a>
</g>
</g>
<!-- Node29 -->
<g id="Node000029" class="node">
<title>Node29</title>
<g id="a_Node000029"><a xlink:title=" ">
<polygon fill="#e0e0e0" stroke="#999999" points="2040,-24.5 1873,-24.5 1873,-5.5 2040,-5.5 2040,-24.5"/>
<text text-anchor="middle" x="1956.5" y="-12.5" font-family="Helvetica,sans-Serif" font-size="10.00">../vmisc/vabstractapplication.h</text>
</a>
</g>
</g>
<!-- Node9&#45;&gt;Node29 -->
<g id="edge34_Node000009_Node000029" class="edge">
<title>Node9&#45;&gt;Node29</title>
<g id="a_edge34_Node000009_Node000029"><a xlink:title=" ">
<path fill="none" stroke="#63b8ff" d="M1454.57,-71.43C1531.12,-64.96 1712.16,-48.93 1863.5,-30 1873,-28.81 1883.03,-27.43 1892.84,-26.01"/>
<polygon fill="#63b8ff" stroke="#63b8ff" points="1893.57,-29.44 1902.96,-24.53 1892.56,-22.52 1893.57,-29.44"/>
</a>
</g>
</g>
<!-- Node30 -->
<g id="Node000030" class="node">
<title>Node30</title>
<g id="a_Node000030"><a xlink:title=" ">
<polygon fill="#e0e0e0" stroke="#999999" points="2213,-24.5 2058,-24.5 2058,-5.5 2213,-5.5 2213,-24.5"/>
<text text-anchor="middle" x="2135.5" y="-12.5" font-family="Helvetica,sans-Serif" font-size="10.00">../vmisc/vcommonsettings.h</text>
</a>
</g>
</g>
<!-- Node9&#45;&gt;Node30 -->
<g id="edge35_Node000009_Node000030" class="edge">
<title>Node9&#45;&gt;Node30</title>
<g id="a_edge35_Node000009_Node000030"><a xlink:title=" ">
<path fill="none" stroke="#63b8ff" d="M1454.59,-73.04C1552.13,-68.95 1823.76,-55.95 2048.5,-30 2057.86,-28.92 2067.76,-27.55 2077.38,-26.09"/>
<polygon fill="#63b8ff" stroke="#63b8ff" points="2077.95,-29.54 2087.29,-24.54 2076.87,-22.63 2077.95,-29.54"/>
</a>
</g>
</g>
<!-- Node31 -->
<g id="Node000031" class="node">
<title>Node31</title>
<g id="a_Node000031"><a xlink:title=" ">
<polygon fill="#e0e0e0" stroke="#999999" points="2413.5,-24.5 2231.5,-24.5 2231.5,-5.5 2413.5,-5.5 2413.5,-24.5"/>
<text text-anchor="middle" x="2322.5" y="-12.5" font-family="Helvetica,sans-Serif" font-size="10.00">../vwidgets/vmaingraphicsscene.h</text>
</a>
</g>
</g>
<!-- Node9&#45;&gt;Node31 -->
<g id="edge36_Node000009_Node000031" class="edge">
<title>Node9&#45;&gt;Node31</title>
<g id="a_edge36_Node000009_Node000031"><a xlink:title=" ">
<path fill="none" stroke="#63b8ff" d="M1454.85,-73.53C1569.56,-70.31 1926.86,-58.53 2221.5,-30 2232.95,-28.89 2245.09,-27.44 2256.84,-25.9"/>
<polygon fill="#63b8ff" stroke="#63b8ff" points="2257.59,-29.33 2267.03,-24.53 2256.65,-22.39 2257.59,-29.33"/>
</a>
</g>
</g>
</g>
</svg>

<g id="navigator" transform="translate(0 0)" fill="#404254">
  <rect fill="#f2f5e9" fill-opacity="0.5" stroke="#606060" stroke-width=".5" x="0" y="0" width="60" height="60"/>
  <use id="zoomplus" xlink:href="#zoomPlus" x="17" y="9" onmousedown="handleZoom(evt,'in')"/>
  <use id="zoomminus" xlink:href="#zoomMin" x="42" y="9" onmousedown="handleZoom(evt,'out')"/>
  <use id="reset" xlink:href="#resetDef" x="30" y="36" onmousedown="handleReset()"/>
   <use id="arrowup" xlink:href="#arrowUp" x="0" y="0" onmousedown="handlePan(0,-1)"/>
  <use id="arrowright" xlink:href="#arrowRight" x="0" y="0" onmousedown="handlePan(1,0)"/>
  <use id="arrowdown" xlink:href="#arrowDown" x="0" y="0" onmousedown="handlePan(0,1)"/>
  <use id="arrowleft" xlink:href="#arrowLeft" x="0" y="0" onmousedown="handlePan(-1,0)"/>
</g>
<svg viewBox="0 0 15 15" width="100%" height="30px" preserveAspectRatio="xMaxYMin meet">
 <g id="arrow_out" transform="scale(0.3 0.3)">
  <a xlink:href="dialoggroup_8cpp__incl_org.svg" target="_base">
   <rect id="button" ry="5" rx="5" y="6" x="6" height="38" width="38"
        fill="#f2f5e9" fill-opacity="0.5" stroke="#606060" stroke-width="1.0"/>
   <path id="arrow"
     d="M 11.500037,31.436501 C 11.940474,20.09759 22.043105,11.32322 32.158766,21.979434 L 37.068811,17.246167 C 37.068811,17.246167 37.088388,32 37.088388,32 L 22.160133,31.978069 C 22.160133,31.978069 26.997745,27.140456 26.997745,27.140456 C 18.528582,18.264221 13.291696,25.230495 11.500037,31.436501 z"
     style="fill:#404040;"/>
  </a>
 </g>
</svg>

<style type='text/css'>
<![CDATA[
[data-mouse-over-selected='false'] { opacity: 0.7; }
[data-mouse-over-selected='true']  { opacity: 1.0; }
]]>
</style>
<script type="application/ecmascript"><![CDATA[
document.addEventListener('DOMContentLoaded', (event) => {
  highlightEdges();
  highlightAdjacentNodes();
});
]]></script>
</svg>
