<?xml version="1.0" encoding="UTF-8" standalone="no"?>
<!DOCTYPE svg PUBLIC "-//W3C//DTD SVG 1.1//EN"
 "http://www.w3.org/Graphics/SVG/1.1/DTD/svg11.dtd">
<!-- Generated by graphviz version 2.43.0 (0)
 -->
<!-- Title: src/libs/vwidgets/vcurvepathitem.cpp Pages: 1 -->
<!--zoomable 302 -->

<svg id="main" version="1.1" xmlns="http://www.w3.org/2000/svg" xmlns:xlink="http://www.w3.org/1999/xlink" xml:space="preserve" onload="init(evt)">
<style type="text/css"><![CDATA[
.node, .edge {opacity: 0.7;}
.node.selected, .edge.selected {opacity: 1;}
.edge:hover path { stroke: red; }
.edge:hover polygon { stroke: red; fill: red; }
]]></style>

<defs>
  <circle id="rim" cx="0" cy="0" r="7"/>
  <circle id="rim2" cx="0" cy="0" r="3.5"/>
  <g id="zoomPlus">
    <use xlink:href="#rim" fill="#404040"><set attributeName="fill" to="#808080" begin="zoomplus.mouseover" end="zoomplus.mouseout"/></use>
    <path d="M-4,0h8M0,-4v8" fill="none" stroke="white" stroke-width="1.5" pointer-events="none"/>
  </g>
  <g id="zoomMin">
    <use xlink:href="#rim" fill="#404040"><set attributeName="fill" to="#808080" begin="zoomminus.mouseover" end="zoomminus.mouseout"/></use>
    <path d="M-4,0h8" fill="none" stroke="white" stroke-width="1.5" pointer-events="none"/>
  </g>
  <g id="arrowUp" transform="translate(30 24)">
    <use xlink:href="#rim"/>
    <path pointer-events="none" fill="none" stroke="white" stroke-width="1.5" d="M0,-3.0v7 M-2.5,-0.5L0,-3.0L2.5,-0.5"/>
  </g>
  <g id="arrowRight" transform="rotate(90) translate(36 -43)">
    <use xlink:href="#rim"/>
    <path pointer-events="none" fill="none" stroke="white" stroke-width="1.5" d="M0,-3.0v7 M-2.5,-0.5L0,-3.0L2.5,-0.5"/>
  </g>
  <g id="arrowDown" transform="rotate(180) translate(-30 -48)">
    <use xlink:href="#rim"/>
    <path pointer-events="none" fill="none" stroke="white" stroke-width="1.5" d="M0,-3.0v7 M-2.5,-0.5L0,-3.0L2.5,-0.5"/>
  </g>
  <g id="arrowLeft" transform="rotate(270) translate(-36 17)">
    <use xlink:href="#rim"/>
    <path pointer-events="none" fill="none" stroke="white" stroke-width="1.5" d="M0,-3.0v7 M-2.5,-0.5L0,-3.0L2.5,-0.5"/>
  </g>
  <g id="resetDef">
    <use xlink:href="#rim2" fill="#404040"><set attributeName="fill" to="#808080" begin="reset.mouseover" end="reset.mouseout"/></use>
  </g>
</defs>
<script type="application/ecmascript">
var viewWidth = 1243;
var viewHeight = 302;
var sectionId = 'dynsection-0';
</script>
<script type="application/ecmascript" xlink:href="../../svg.min.js"/>
<svg id="graph" class="graph">
<g id="viewport">
<title>src/libs/vwidgets/vcurvepathitem.cpp</title>
<!-- Node1 -->
<g id="Node000001" class="node">
<title>Node1</title>
<g id="a_Node000001"><a xlink:title=" ">
<polygon fill="#999999" stroke="#666666" points="770,-294 571,-294 571,-275 770,-275 770,-294"/>
<text text-anchor="middle" x="670.5" y="-282" font-family="Helvetica,sans-Serif" font-size="10.00">src/libs/vwidgets/vcurvepathitem.cpp</text>
</a>
</g>
</g>
<!-- Node2 -->
<g id="Node000002" class="node">
<title>Node2</title>
<g id="a_Node000002"><a xlink:href="../../d7/d77/vcurvepathitem_8h.html" target="_top" xlink:title=" ">
<polygon fill="white" stroke="#666666" points="305,-184 202,-184 202,-165 305,-165 305,-184"/>
<text text-anchor="middle" x="253.5" y="-172" font-family="Helvetica,sans-Serif" font-size="10.00">vcurvepathitem.h</text>
</a>
</g>
</g>
<!-- Node1&#45;&gt;Node2 -->
<g id="edge1_Node000001_Node000002" class="edge">
<title>Node1&#45;&gt;Node2</title>
<g id="a_edge1_Node000001_Node000002"><a xlink:title=" ">
<path fill="none" stroke="#63b8ff" d="M637.43,-274.94C562.54,-255.54 380.01,-208.26 296.49,-186.63"/>
<polygon fill="#63b8ff" stroke="#63b8ff" points="297.13,-183.18 286.57,-184.07 295.38,-189.96 297.13,-183.18"/>
</a>
</g>
</g>
<!-- Node15 -->
<g id="Node000015" class="node">
<title>Node15</title>
<g id="a_Node000015"><a xlink:href="../../d2/d49/global_8h.html" target="_top" xlink:title=" ">
<polygon fill="white" stroke="#666666" points="648.5,-239 536.5,-239 536.5,-220 648.5,-220 648.5,-239"/>
<text text-anchor="middle" x="592.5" y="-227" font-family="Helvetica,sans-Serif" font-size="10.00">../vwidgets/global.h</text>
</a>
</g>
</g>
<!-- Node1&#45;&gt;Node15 -->
<g id="edge15_Node000001_Node000015" class="edge">
<title>Node1&#45;&gt;Node15</title>
<g id="a_edge15_Node000001_Node000015"><a xlink:title=" ">
<path fill="none" stroke="#63b8ff" d="M657.97,-274.98C646.1,-266.92 628.04,-254.65 613.89,-245.03"/>
<polygon fill="#63b8ff" stroke="#63b8ff" points="615.5,-241.9 605.26,-239.17 611.56,-247.69 615.5,-241.9"/>
</a>
</g>
</g>
<!-- Node16 -->
<g id="Node000016" class="node">
<title>Node16</title>
<g id="a_Node000016"><a xlink:href="../../d5/d82/vabstractcurve_8h.html" target="_top" xlink:title=" ">
<polygon fill="white" stroke="#666666" points="910.5,-239 746.5,-239 746.5,-220 910.5,-220 910.5,-239"/>
<text text-anchor="middle" x="828.5" y="-227" font-family="Helvetica,sans-Serif" font-size="10.00">../vgeometry/vabstractcurve.h</text>
</a>
</g>
</g>
<!-- Node1&#45;&gt;Node16 -->
<g id="edge17_Node000001_Node000016" class="edge">
<title>Node1&#45;&gt;Node16</title>
<g id="a_edge17_Node000001_Node000016"><a xlink:title=" ">
<path fill="none" stroke="#63b8ff" d="M695.89,-274.98C722.3,-266.13 763.85,-252.19 793.39,-242.28"/>
<polygon fill="#63b8ff" stroke="#63b8ff" points="794.55,-245.58 802.92,-239.08 792.32,-238.94 794.55,-245.58"/>
</a>
</g>
</g>
<!-- Node27 -->
<g id="Node000027" class="node">
<title>Node27</title>
<g id="a_Node000027"><a xlink:title=" ">
<polygon fill="#e0e0e0" stroke="#999999" points="986.5,-239 928.5,-239 928.5,-220 986.5,-220 986.5,-239"/>
<text text-anchor="middle" x="957.5" y="-227" font-family="Helvetica,sans-Serif" font-size="10.00">QPainter</text>
</a>
</g>
</g>
<!-- Node1&#45;&gt;Node27 -->
<g id="edge42_Node000001_Node000027" class="edge">
<title>Node1&#45;&gt;Node27</title>
<g id="a_edge42_Node000001_Node000027"><a xlink:title=" ">
<path fill="none" stroke="#63b8ff" d="M722.13,-274.94C770.4,-266.79 844.75,-253.85 918.55,-239.12"/>
<polygon fill="#63b8ff" stroke="#63b8ff" points="919.37,-242.53 928.48,-237.13 917.99,-235.66 919.37,-242.53"/>
</a>
</g>
</g>
<!-- Node3 -->
<g id="Node000003" class="node">
<title>Node3</title>
<g id="a_Node000003"><a xlink:title=" ">
<polygon fill="#e0e0e0" stroke="#999999" points="180.5,-129 70.5,-129 70.5,-110 180.5,-110 180.5,-129"/>
<text text-anchor="middle" x="125.5" y="-117" font-family="Helvetica,sans-Serif" font-size="10.00">QGraphicsPathItem</text>
</a>
</g>
</g>
<!-- Node2&#45;&gt;Node3 -->
<g id="edge2_Node000002_Node000003" class="edge">
<title>Node2&#45;&gt;Node3</title>
<g id="a_edge2_Node000002_Node000003"><a xlink:title=" ">
<path fill="none" stroke="#63b8ff" d="M232.93,-164.98C212.07,-156.34 179.53,-142.87 155.73,-133.02"/>
<polygon fill="#63b8ff" stroke="#63b8ff" points="157.02,-129.76 146.44,-129.17 154.34,-136.23 157.02,-129.76"/>
</a>
</g>
</g>
<!-- Node4 -->
<g id="Node000004" class="node">
<title>Node4</title>
<g id="a_Node000004"><a xlink:title=" ">
<polygon fill="#e0e0e0" stroke="#999999" points="508,-74 449,-74 449,-55 508,-55 508,-74"/>
<text text-anchor="middle" x="478.5" y="-62" font-family="Helvetica,sans-Serif" font-size="10.00">QtGlobal</text>
</a>
</g>
</g>
<!-- Node2&#45;&gt;Node4 -->
<g id="edge3_Node000002_Node000004" class="edge">
<title>Node2&#45;&gt;Node4</title>
<g id="a_edge3_Node000002_Node000004"><a xlink:title=" ">
<path fill="none" stroke="#63b8ff" d="M261.94,-164.85C275.59,-151.32 303.88,-125.14 332.5,-110 351.02,-100.21 402.37,-85.53 438.92,-75.74"/>
<polygon fill="#63b8ff" stroke="#63b8ff" points="440.03,-79.07 448.8,-73.12 438.24,-72.3 440.03,-79.07"/>
</a>
</g>
</g>
<!-- Node5 -->
<g id="Node000005" class="node">
<title>Node5</title>
<g id="a_Node000005"><a xlink:href="../../d4/da4/def_8h.html" target="_top" xlink:title=" ">
<polygon fill="white" stroke="#666666" points="280.5,-129 198.5,-129 198.5,-110 280.5,-110 280.5,-129"/>
<text text-anchor="middle" x="239.5" y="-117" font-family="Helvetica,sans-Serif" font-size="10.00">../vmisc/def.h</text>
</a>
</g>
</g>
<!-- Node2&#45;&gt;Node5 -->
<g id="edge4_Node000002_Node000005" class="edge">
<title>Node2&#45;&gt;Node5</title>
<g id="a_edge4_Node000002_Node000005"><a xlink:title=" ">
<path fill="none" stroke="#63b8ff" d="M251.19,-164.75C249.33,-157.72 246.66,-147.62 244.35,-138.84"/>
<polygon fill="#63b8ff" stroke="#63b8ff" points="247.71,-137.86 241.77,-129.09 240.94,-139.65 247.71,-137.86"/>
</a>
</g>
</g>
<!-- Node5&#45;&gt;Node4 -->
<g id="edge10_Node000005_Node000004" class="edge">
<title>Node5&#45;&gt;Node4</title>
<g id="a_edge10_Node000005_Node000004"><a xlink:title=" ">
<path fill="none" stroke="#63b8ff" d="M277.9,-109.98C322.09,-100.18 394.3,-84.17 438.97,-74.27"/>
<polygon fill="#63b8ff" stroke="#63b8ff" points="439.87,-77.65 448.88,-72.07 438.36,-70.82 439.87,-77.65"/>
</a>
</g>
</g>
<!-- Node6 -->
<g id="Node000006" class="node">
<title>Node6</title>
<g id="a_Node000006"><a xlink:title=" ">
<polygon fill="#e0e0e0" stroke="#999999" points="1181.5,-74 1061.5,-74 1061.5,-55 1181.5,-55 1181.5,-74"/>
<text text-anchor="middle" x="1121.5" y="-62" font-family="Helvetica,sans-Serif" font-size="10.00">qcompilerdetection.h</text>
</a>
</g>
</g>
<!-- Node5&#45;&gt;Node6 -->
<g id="edge5_Node000005_Node000006" class="edge">
<title>Node5&#45;&gt;Node6</title>
<g id="a_edge5_Node000005_Node000006"><a xlink:title=" ">
<path fill="none" stroke="#63b8ff" d="M280.56,-116.03C419.78,-107.67 874.94,-80.32 1051.04,-69.73"/>
<polygon fill="#63b8ff" stroke="#63b8ff" points="1051.46,-73.22 1061.23,-69.12 1051.04,-66.23 1051.46,-73.22"/>
</a>
</g>
</g>
<!-- Node7 -->
<g id="Node000007" class="node">
<title>Node7</title>
<g id="a_Node000007"><a xlink:title=" ">
<polygon fill="#e0e0e0" stroke="#999999" points="342.5,-74 292.5,-74 292.5,-55 342.5,-55 342.5,-74"/>
<text text-anchor="middle" x="317.5" y="-62" font-family="Helvetica,sans-Serif" font-size="10.00">QLineF</text>
</a>
</g>
</g>
<!-- Node5&#45;&gt;Node7 -->
<g id="edge6_Node000005_Node000007" class="edge">
<title>Node5&#45;&gt;Node7</title>
<g id="a_edge6_Node000005_Node000007"><a xlink:title=" ">
<path fill="none" stroke="#63b8ff" d="M252.03,-109.98C263.9,-101.92 281.96,-89.65 296.11,-80.03"/>
<polygon fill="#63b8ff" stroke="#63b8ff" points="298.44,-82.69 304.74,-74.17 294.5,-76.9 298.44,-82.69"/>
</a>
</g>
</g>
<!-- Node8 -->
<g id="Node000008" class="node">
<title>Node8</title>
<g id="a_Node000008"><a xlink:title=" ">
<polygon fill="#e0e0e0" stroke="#999999" points="763,-74 710,-74 710,-55 763,-55 763,-74"/>
<text text-anchor="middle" x="736.5" y="-62" font-family="Helvetica,sans-Serif" font-size="10.00">QString</text>
</a>
</g>
</g>
<!-- Node5&#45;&gt;Node8 -->
<g id="edge7_Node000005_Node000008" class="edge">
<title>Node5&#45;&gt;Node8</title>
<g id="a_edge7_Node000005_Node000008"><a xlink:title=" ">
<path fill="none" stroke="#63b8ff" d="M280.59,-114.12C375.56,-103.99 609.03,-79.09 699.68,-69.43"/>
<polygon fill="#63b8ff" stroke="#63b8ff" points="700.18,-72.89 709.76,-68.35 699.44,-65.93 700.18,-72.89"/>
</a>
</g>
</g>
<!-- Node9 -->
<g id="Node000009" class="node">
<title>Node9</title>
<g id="a_Node000009"><a xlink:title=" ">
<polygon fill="#e0e0e0" stroke="#999999" points="430.5,-74 360.5,-74 360.5,-55 430.5,-55 430.5,-74"/>
<text text-anchor="middle" x="395.5" y="-62" font-family="Helvetica,sans-Serif" font-size="10.00">QStringList</text>
</a>
</g>
</g>
<!-- Node5&#45;&gt;Node9 -->
<g id="edge8_Node000005_Node000009" class="edge">
<title>Node5&#45;&gt;Node9</title>
<g id="a_edge8_Node000005_Node000009"><a xlink:title=" ">
<path fill="none" stroke="#63b8ff" d="M264.56,-109.98C290.53,-101.16 331.31,-87.31 360.46,-77.41"/>
<polygon fill="#63b8ff" stroke="#63b8ff" points="361.9,-80.61 370.24,-74.08 359.65,-73.99 361.9,-80.61"/>
</a>
</g>
</g>
<!-- Node10 -->
<g id="Node000010" class="node">
<title>Node10</title>
<g id="a_Node000010"><a xlink:title=" ">
<polygon fill="#e0e0e0" stroke="#999999" points="29,-74 0,-74 0,-55 29,-55 29,-74"/>
<text text-anchor="middle" x="14.5" y="-62" font-family="Helvetica,sans-Serif" font-size="10.00">Qt</text>
</a>
</g>
</g>
<!-- Node5&#45;&gt;Node10 -->
<g id="edge9_Node000005_Node000010" class="edge">
<title>Node5&#45;&gt;Node10</title>
<g id="a_edge9_Node000005_Node000010"><a xlink:title=" ">
<path fill="none" stroke="#63b8ff" d="M198.32,-110.92C159.51,-103.43 99.6,-91 38.88,-73.8"/>
<polygon fill="#63b8ff" stroke="#63b8ff" points="39.71,-70.4 29.13,-71 37.78,-77.13 39.71,-70.4"/>
</a>
</g>
</g>
<!-- Node11 -->
<g id="Node000011" class="node">
<title>Node11</title>
<g id="a_Node000011"><a xlink:title=" ">
<polygon fill="#e0e0e0" stroke="#999999" points="103.5,-74 47.5,-74 47.5,-55 103.5,-55 103.5,-74"/>
<text text-anchor="middle" x="75.5" y="-62" font-family="Helvetica,sans-Serif" font-size="10.00">QPrinter</text>
</a>
</g>
</g>
<!-- Node5&#45;&gt;Node11 -->
<g id="edge11_Node000005_Node000011" class="edge">
<title>Node5&#45;&gt;Node11</title>
<g id="a_edge11_Node000005_Node000011"><a xlink:title=" ">
<path fill="none" stroke="#63b8ff" d="M213.15,-109.98C185.74,-101.13 142.61,-87.19 111.94,-77.28"/>
<polygon fill="#63b8ff" stroke="#63b8ff" points="112.65,-73.83 102.06,-74.08 110.5,-80.49 112.65,-73.83"/>
</a>
</g>
</g>
<!-- Node12 -->
<g id="Node000012" class="node">
<title>Node12</title>
<g id="a_Node000012"><a xlink:title=" ">
<polygon fill="#e0e0e0" stroke="#999999" points="173,-74 122,-74 122,-55 173,-55 173,-74"/>
<text text-anchor="middle" x="147.5" y="-62" font-family="Helvetica,sans-Serif" font-size="10.00">csignal</text>
</a>
</g>
</g>
<!-- Node5&#45;&gt;Node12 -->
<g id="edge12_Node000005_Node000012" class="edge">
<title>Node5&#45;&gt;Node12</title>
<g id="a_edge12_Node000005_Node000012"><a xlink:title=" ">
<path fill="none" stroke="#63b8ff" d="M224.72,-109.98C210.32,-101.69 188.19,-88.94 171.31,-79.22"/>
<polygon fill="#63b8ff" stroke="#63b8ff" points="172.96,-76.13 162.55,-74.17 169.47,-82.19 172.96,-76.13"/>
</a>
</g>
</g>
<!-- Node13 -->
<g id="Node000013" class="node">
<title>Node13</title>
<g id="a_Node000013"><a xlink:href="../../d4/d82/debugbreak_8h.html" target="_top" xlink:title=" ">
<polygon fill="white" stroke="#666666" points="274,-74 191,-74 191,-55 274,-55 274,-74"/>
<text text-anchor="middle" x="232.5" y="-62" font-family="Helvetica,sans-Serif" font-size="10.00">debugbreak.h</text>
</a>
</g>
</g>
<!-- Node5&#45;&gt;Node13 -->
<g id="edge13_Node000005_Node000013" class="edge">
<title>Node5&#45;&gt;Node13</title>
<g id="a_edge13_Node000005_Node000013"><a xlink:title=" ">
<path fill="none" stroke="#63b8ff" d="M238.34,-109.75C237.43,-102.8 236.11,-92.85 234.96,-84.13"/>
<polygon fill="#63b8ff" stroke="#63b8ff" points="238.41,-83.54 233.63,-74.09 231.47,-84.46 238.41,-83.54"/>
</a>
</g>
</g>
<!-- Node14 -->
<g id="Node000014" class="node">
<title>Node14</title>
<g id="a_Node000014"><a xlink:title=" ">
<polygon fill="#e0e0e0" stroke="#999999" points="260,-19 205,-19 205,0 260,0 260,-19"/>
<text text-anchor="middle" x="232.5" y="-7" font-family="Helvetica,sans-Serif" font-size="10.00">signal.h</text>
</a>
</g>
</g>
<!-- Node13&#45;&gt;Node14 -->
<g id="edge14_Node000013_Node000014" class="edge">
<title>Node13&#45;&gt;Node14</title>
<g id="a_edge14_Node000013_Node000014"><a xlink:title=" ">
<path fill="none" stroke="#63b8ff" d="M232.5,-54.75C232.5,-47.8 232.5,-37.85 232.5,-29.13"/>
<polygon fill="#63b8ff" stroke="#63b8ff" points="236,-29.09 232.5,-19.09 229,-29.09 236,-29.09"/>
</a>
</g>
</g>
<!-- Node15&#45;&gt;Node4 -->
<g id="edge16_Node000015_Node000004" class="edge">
<title>Node15&#45;&gt;Node4</title>
<g id="a_edge16_Node000015_Node000004"><a xlink:title=" ">
<path fill="none" stroke="#63b8ff" d="M536.42,-222.48C504.81,-216.77 466.06,-205.64 437.5,-184 408.65,-162.14 385.59,-141.45 403.5,-110 411.8,-95.43 426.95,-85.14 441.48,-78.15"/>
<polygon fill="#63b8ff" stroke="#63b8ff" points="443.11,-81.25 450.85,-74.02 440.29,-74.85 443.11,-81.25"/>
</a>
</g>
</g>
<!-- Node16&#45;&gt;Node4 -->
<g id="edge24_Node000016_Node000004" class="edge">
<title>Node16&#45;&gt;Node4</title>
<g id="a_edge24_Node000016_Node000004"><a xlink:title=" ">
<path fill="none" stroke="#63b8ff" d="M810.18,-219.97C752.66,-193.18 575.47,-110.66 506.44,-78.51"/>
<polygon fill="#63b8ff" stroke="#63b8ff" points="507.61,-75.2 497.07,-74.15 504.65,-81.54 507.61,-75.2"/>
</a>
</g>
</g>
<!-- Node16&#45;&gt;Node6 -->
<g id="edge18_Node000016_Node000006" class="edge">
<title>Node16&#45;&gt;Node6</title>
<g id="a_edge18_Node000016_Node000006"><a xlink:title=" ">
<path fill="none" stroke="#63b8ff" d="M910.55,-220.15C1021.4,-208.7 1205.91,-188.97 1211.5,-184 1236.45,-161.8 1242.84,-137.9 1224.5,-110 1214.07,-94.14 1196.66,-83.9 1179.09,-77.31"/>
<polygon fill="#63b8ff" stroke="#63b8ff" points="1179.95,-73.91 1169.35,-74.01 1177.7,-80.54 1179.95,-73.91"/>
</a>
</g>
</g>
<!-- Node16&#45;&gt;Node8 -->
<g id="edge21_Node000016_Node000008" class="edge">
<title>Node16&#45;&gt;Node8</title>
<g id="a_edge21_Node000016_Node000008"><a xlink:title=" ">
<path fill="none" stroke="#63b8ff" d="M910.89,-220.64C1014.15,-210.46 1178.98,-192.95 1189.5,-184 1215.12,-162.19 1228.14,-134.89 1205.5,-110 1176.57,-78.19 878.73,-68.61 773.27,-66.21"/>
<polygon fill="#63b8ff" stroke="#63b8ff" points="773.18,-62.7 763.1,-65.98 773.02,-69.7 773.18,-62.7"/>
</a>
</g>
</g>
<!-- Node17 -->
<g id="Node000017" class="node">
<title>Node17</title>
<g id="a_Node000017"><a xlink:title=" ">
<polygon fill="#e0e0e0" stroke="#999999" points="502,-184 447,-184 447,-165 502,-165 502,-184"/>
<text text-anchor="middle" x="474.5" y="-172" font-family="Helvetica,sans-Serif" font-size="10.00">QPointF</text>
</a>
</g>
</g>
<!-- Node16&#45;&gt;Node17 -->
<g id="edge19_Node000016_Node000017" class="edge">
<title>Node16&#45;&gt;Node17</title>
<g id="a_edge19_Node000016_Node000017"><a xlink:title=" ">
<path fill="none" stroke="#63b8ff" d="M753.33,-219.98C691.02,-212.45 599.96,-200.41 512.21,-184.19"/>
<polygon fill="#63b8ff" stroke="#63b8ff" points="512.83,-180.74 502.35,-182.35 511.54,-187.62 512.83,-180.74"/>
</a>
</g>
</g>
<!-- Node18 -->
<g id="Node000018" class="node">
<title>Node18</title>
<g id="a_Node000018"><a xlink:title=" ">
<polygon fill="#e0e0e0" stroke="#999999" points="778.5,-129 662.5,-129 662.5,-110 778.5,-110 778.5,-129"/>
<text text-anchor="middle" x="720.5" y="-117" font-family="Helvetica,sans-Serif" font-size="10.00">QSharedDataPointer</text>
</a>
</g>
</g>
<!-- Node16&#45;&gt;Node18 -->
<g id="edge20_Node000016_Node000018" class="edge">
<title>Node16&#45;&gt;Node18</title>
<g id="a_edge20_Node000016_Node000018"><a xlink:title=" ">
<path fill="none" stroke="#63b8ff" d="M819.66,-219.66C801.46,-201.46 759.55,-159.55 736.47,-136.47"/>
<polygon fill="#63b8ff" stroke="#63b8ff" points="738.7,-133.75 729.16,-129.16 733.75,-138.7 738.7,-133.75"/>
</a>
</g>
</g>
<!-- Node19 -->
<g id="Node000019" class="node">
<title>Node19</title>
<g id="a_Node000019"><a xlink:title=" ">
<polygon fill="#e0e0e0" stroke="#999999" points="862,-129 797,-129 797,-110 862,-110 862,-129"/>
<text text-anchor="middle" x="829.5" y="-117" font-family="Helvetica,sans-Serif" font-size="10.00">QTypeInfo</text>
</a>
</g>
</g>
<!-- Node16&#45;&gt;Node19 -->
<g id="edge22_Node000016_Node000019" class="edge">
<title>Node16&#45;&gt;Node19</title>
<g id="a_edge22_Node000016_Node000019"><a xlink:title=" ">
<path fill="none" stroke="#63b8ff" d="M828.58,-219.66C828.74,-202.17 829.11,-162.8 829.33,-139.27"/>
<polygon fill="#63b8ff" stroke="#63b8ff" points="832.83,-139.19 829.42,-129.16 825.83,-139.13 832.83,-139.19"/>
</a>
</g>
</g>
<!-- Node20 -->
<g id="Node000020" class="node">
<title>Node20</title>
<g id="a_Node000020"><a xlink:title=" ">
<polygon fill="#e0e0e0" stroke="#999999" points="1012,-129 957,-129 957,-110 1012,-110 1012,-129"/>
<text text-anchor="middle" x="984.5" y="-117" font-family="Helvetica,sans-Serif" font-size="10.00">QVector</text>
</a>
</g>
</g>
<!-- Node16&#45;&gt;Node20 -->
<g id="edge23_Node000016_Node000020" class="edge">
<title>Node16&#45;&gt;Node20</title>
<g id="a_edge23_Node000016_Node000020"><a xlink:title=" ">
<path fill="none" stroke="#63b8ff" d="M859.08,-219.97C881.22,-212.8 911.08,-200.96 933.5,-184 950.36,-171.25 964.92,-151.73 974.12,-137.71"/>
<polygon fill="#63b8ff" stroke="#63b8ff" points="977.22,-139.35 979.59,-129.02 971.3,-135.61 977.22,-139.35"/>
</a>
</g>
</g>
<!-- Node21 -->
<g id="Node000021" class="node">
<title>Node21</title>
<g id="a_Node000021"><a xlink:href="../../d3/da5/ifcdef_8h.html" target="_top" xlink:title=" ">
<polygon fill="white" stroke="#666666" points="597,-184 520,-184 520,-165 597,-165 597,-184"/>
<text text-anchor="middle" x="558.5" y="-172" font-family="Helvetica,sans-Serif" font-size="10.00">../ifc/ifcdef.h</text>
</a>
</g>
</g>
<!-- Node16&#45;&gt;Node21 -->
<g id="edge25_Node000016_Node000021" class="edge">
<title>Node16&#45;&gt;Node21</title>
<g id="a_edge25_Node000016_Node000021"><a xlink:title=" ">
<path fill="none" stroke="#63b8ff" d="M785.12,-219.98C736.59,-210.46 658.14,-195.06 607.45,-185.11"/>
<polygon fill="#63b8ff" stroke="#63b8ff" points="607.88,-181.63 597.39,-183.13 606.53,-188.49 607.88,-181.63"/>
</a>
</g>
</g>
<!-- Node23 -->
<g id="Node000023" class="node">
<title>Node23</title>
<g id="a_Node000023"><a xlink:href="../../db/db3/vmath_8h.html" target="_top" xlink:title=" ">
<polygon fill="white" stroke="#666666" points="1180.5,-184 1082.5,-184 1082.5,-165 1180.5,-165 1180.5,-184"/>
<text text-anchor="middle" x="1131.5" y="-172" font-family="Helvetica,sans-Serif" font-size="10.00">../vmisc/vmath.h</text>
</a>
</g>
</g>
<!-- Node16&#45;&gt;Node23 -->
<g id="edge32_Node000016_Node000023" class="edge">
<title>Node16&#45;&gt;Node23</title>
<g id="a_edge32_Node000016_Node000023"><a xlink:title=" ">
<path fill="none" stroke="#63b8ff" d="M877.18,-219.98C930.44,-210.67 1015.81,-195.74 1072.75,-185.78"/>
<polygon fill="#63b8ff" stroke="#63b8ff" points="1073.44,-189.21 1082.69,-184.04 1072.23,-182.31 1073.44,-189.21"/>
</a>
</g>
</g>
<!-- Node25 -->
<g id="Node000025" class="node">
<title>Node25</title>
<g id="a_Node000025"><a xlink:href="../../d5/d9d/vgeometrydef_8h.html" target="_top" xlink:title=" ">
<polygon fill="white" stroke="#666666" points="1124.5,-129 1030.5,-129 1030.5,-110 1124.5,-110 1124.5,-129"/>
<text text-anchor="middle" x="1077.5" y="-117" font-family="Helvetica,sans-Serif" font-size="10.00">vgeometrydef.h</text>
</a>
</g>
</g>
<!-- Node16&#45;&gt;Node25 -->
<g id="edge34_Node000016_Node000025" class="edge">
<title>Node16&#45;&gt;Node25</title>
<g id="a_edge34_Node000016_Node000025"><a xlink:title=" ">
<path fill="none" stroke="#63b8ff" d="M856.93,-219.96C883.17,-211.76 923.04,-198.5 956.5,-184 991.47,-168.84 1030.21,-147.7 1054.21,-134.05"/>
<polygon fill="#63b8ff" stroke="#63b8ff" points="1056.01,-137.06 1062.94,-129.05 1052.53,-130.98 1056.01,-137.06"/>
</a>
</g>
</g>
<!-- Node26 -->
<g id="Node000026" class="node">
<title>Node26</title>
<g id="a_Node000026"><a xlink:href="../../d2/d07/vgobject_8h.html" target="_top" xlink:title=" ">
<polygon fill="white" stroke="#666666" points="924.5,-184 856.5,-184 856.5,-165 924.5,-165 924.5,-184"/>
<text text-anchor="middle" x="890.5" y="-172" font-family="Helvetica,sans-Serif" font-size="10.00">vgobject.h</text>
</a>
</g>
</g>
<!-- Node16&#45;&gt;Node26 -->
<g id="edge35_Node000016_Node000026" class="edge">
<title>Node16&#45;&gt;Node26</title>
<g id="a_edge35_Node000016_Node000026"><a xlink:title=" ">
<path fill="none" stroke="#63b8ff" d="M838.46,-219.98C847.63,-212.15 861.44,-200.34 872.53,-190.86"/>
<polygon fill="#63b8ff" stroke="#63b8ff" points="875.03,-193.33 880.36,-184.17 870.48,-188.01 875.03,-193.33"/>
</a>
</g>
</g>
<!-- Node21&#45;&gt;Node4 -->
<g id="edge28_Node000021_Node000004" class="edge">
<title>Node21&#45;&gt;Node4</title>
<g id="a_edge28_Node000021_Node000004"><a xlink:title=" ">
<path fill="none" stroke="#63b8ff" d="M557.51,-164.94C555.66,-152 550.7,-127.13 538.5,-110 529.57,-97.46 516.01,-86.98 504.05,-79.34"/>
<polygon fill="#63b8ff" stroke="#63b8ff" points="505.68,-76.24 495.31,-74.07 502.06,-82.24 505.68,-76.24"/>
</a>
</g>
</g>
<!-- Node21&#45;&gt;Node5 -->
<g id="edge29_Node000021_Node000005" class="edge">
<title>Node21&#45;&gt;Node5</title>
<g id="a_edge29_Node000021_Node000005"><a xlink:title=" ">
<path fill="none" stroke="#63b8ff" d="M519.99,-166.64C516.78,-166.08 513.59,-165.53 510.5,-165 434.11,-151.97 345.49,-137.55 290.95,-128.75"/>
<polygon fill="#63b8ff" stroke="#63b8ff" points="291.28,-125.26 280.85,-127.12 290.16,-132.17 291.28,-125.26"/>
</a>
</g>
</g>
<!-- Node21&#45;&gt;Node8 -->
<g id="edge26_Node000021_Node000008" class="edge">
<title>Node21&#45;&gt;Node8</title>
<g id="a_edge26_Node000021_Node000008"><a xlink:title=" ">
<path fill="none" stroke="#63b8ff" d="M570.55,-164.89C588.36,-152.31 622.88,-128.38 653.5,-110 672.13,-98.81 693.79,-87.25 710.31,-78.71"/>
<polygon fill="#63b8ff" stroke="#63b8ff" points="712.08,-81.74 719.38,-74.06 708.89,-75.51 712.08,-81.74"/>
</a>
</g>
</g>
<!-- Node21&#45;&gt;Node9 -->
<g id="edge27_Node000021_Node000009" class="edge">
<title>Node21&#45;&gt;Node9</title>
<g id="a_edge27_Node000021_Node000009"><a xlink:title=" ">
<path fill="none" stroke="#63b8ff" d="M520.78,-164.96C477.44,-154.79 411.26,-138.06 403.5,-129 393.01,-116.75 391.84,-97.97 392.8,-84.01"/>
<polygon fill="#63b8ff" stroke="#63b8ff" points="396.28,-84.38 393.89,-74.06 389.32,-83.62 396.28,-84.38"/>
</a>
</g>
</g>
<!-- Node22 -->
<g id="Node000022" class="node">
<title>Node22</title>
<g id="a_Node000022"><a xlink:href="../../d6/dcd/diagnostic_8h.html" target="_top" xlink:title=" ">
<polygon fill="white" stroke="#666666" points="530,-129 413,-129 413,-110 530,-110 530,-129"/>
<text text-anchor="middle" x="471.5" y="-117" font-family="Helvetica,sans-Serif" font-size="10.00">../vmisc/diagnostic.h</text>
</a>
</g>
</g>
<!-- Node21&#45;&gt;Node22 -->
<g id="edge30_Node000021_Node000022" class="edge">
<title>Node21&#45;&gt;Node22</title>
<g id="a_edge30_Node000021_Node000022"><a xlink:title=" ">
<path fill="none" stroke="#63b8ff" d="M544.52,-164.98C531.03,-156.77 510.37,-144.18 494.46,-134.49"/>
<polygon fill="#63b8ff" stroke="#63b8ff" points="496.09,-131.38 485.73,-129.17 492.45,-137.36 496.09,-131.38"/>
</a>
</g>
</g>
<!-- Node22&#45;&gt;Node4 -->
<g id="edge31_Node000022_Node000004" class="edge">
<title>Node22&#45;&gt;Node4</title>
<g id="a_edge31_Node000022_Node000004"><a xlink:title=" ">
<path fill="none" stroke="#63b8ff" d="M472.66,-109.75C473.57,-102.8 474.89,-92.85 476.04,-84.13"/>
<polygon fill="#63b8ff" stroke="#63b8ff" points="479.53,-84.46 477.37,-74.09 472.59,-83.54 479.53,-84.46"/>
</a>
</g>
</g>
<!-- Node24 -->
<g id="Node000024" class="node">
<title>Node24</title>
<g id="a_Node000024"><a xlink:title=" ">
<polygon fill="#e0e0e0" stroke="#999999" points="1196,-129 1143,-129 1143,-110 1196,-110 1196,-129"/>
<text text-anchor="middle" x="1169.5" y="-117" font-family="Helvetica,sans-Serif" font-size="10.00">QtMath</text>
</a>
</g>
</g>
<!-- Node23&#45;&gt;Node24 -->
<g id="edge33_Node000023_Node000024" class="edge">
<title>Node23&#45;&gt;Node24</title>
<g id="a_edge33_Node000023_Node000024"><a xlink:title=" ">
<path fill="none" stroke="#63b8ff" d="M1137.77,-164.75C1143.09,-157.34 1150.86,-146.5 1157.38,-137.41"/>
<polygon fill="#63b8ff" stroke="#63b8ff" points="1160.36,-139.26 1163.34,-129.09 1154.67,-135.18 1160.36,-139.26"/>
</a>
</g>
</g>
<!-- Node26&#45;&gt;Node4 -->
<g id="edge40_Node000026_Node000004" class="edge">
<title>Node26&#45;&gt;Node4</title>
<g id="a_edge40_Node000026_Node000004"><a xlink:title=" ">
<path fill="none" stroke="#63b8ff" d="M890.7,-164.93C890.51,-151.03 887.92,-123.73 871.5,-110 844.72,-87.61 612.45,-72.71 518.1,-67.53"/>
<polygon fill="#63b8ff" stroke="#63b8ff" points="518.26,-64.03 508.09,-66.99 517.88,-71.02 518.26,-64.03"/>
</a>
</g>
</g>
<!-- Node26&#45;&gt;Node8 -->
<g id="edge37_Node000026_Node000008" class="edge">
<title>Node26&#45;&gt;Node8</title>
<g id="a_edge37_Node000026_Node000008"><a xlink:title=" ">
<path fill="none" stroke="#63b8ff" d="M896.47,-164.73C904.67,-151.51 917.03,-126.28 904.5,-110 888.61,-89.36 817.74,-76.32 773.27,-70.01"/>
<polygon fill="#63b8ff" stroke="#63b8ff" points="773.51,-66.52 763.13,-68.63 772.56,-73.45 773.51,-66.52"/>
</a>
</g>
</g>
<!-- Node26&#45;&gt;Node18 -->
<g id="edge36_Node000026_Node000018" class="edge">
<title>Node26&#45;&gt;Node18</title>
<g id="a_edge36_Node000026_Node000018"><a xlink:title=" ">
<path fill="none" stroke="#63b8ff" d="M863.19,-164.98C834.65,-156.09 789.67,-142.07 757.86,-132.15"/>
<polygon fill="#63b8ff" stroke="#63b8ff" points="758.62,-128.72 748.03,-129.08 756.53,-135.4 758.62,-128.72"/>
</a>
</g>
</g>
<!-- Node26&#45;&gt;Node19 -->
<g id="edge38_Node000026_Node000019" class="edge">
<title>Node26&#45;&gt;Node19</title>
<g id="a_edge38_Node000026_Node000019"><a xlink:title=" ">
<path fill="none" stroke="#63b8ff" d="M880.7,-164.98C871.68,-157.15 858.09,-145.34 847.18,-135.86"/>
<polygon fill="#63b8ff" stroke="#63b8ff" points="849.32,-133.09 839.48,-129.17 844.73,-138.37 849.32,-133.09"/>
</a>
</g>
</g>
<!-- Node26&#45;&gt;Node20 -->
<g id="edge39_Node000026_Node000020" class="edge">
<title>Node26&#45;&gt;Node20</title>
<g id="a_edge39_Node000026_Node000020"><a xlink:title=" ">
<path fill="none" stroke="#63b8ff" d="M905.6,-164.98C920.32,-156.69 942.92,-143.94 960.17,-134.22"/>
<polygon fill="#63b8ff" stroke="#63b8ff" points="962.13,-137.13 969.12,-129.17 958.69,-131.03 962.13,-137.13"/>
</a>
</g>
</g>
<!-- Node26&#45;&gt;Node25 -->
<g id="edge41_Node000026_Node000025" class="edge">
<title>Node26&#45;&gt;Node25</title>
<g id="a_edge41_Node000026_Node000025"><a xlink:title=" ">
<path fill="none" stroke="#63b8ff" d="M920.54,-164.98C952.21,-156.01 1002.27,-141.82 1037.31,-131.89"/>
<polygon fill="#63b8ff" stroke="#63b8ff" points="1038.55,-135.18 1047.22,-129.08 1036.64,-128.44 1038.55,-135.18"/>
</a>
</g>
</g>
</g>
</svg>

<g id="navigator" transform="translate(0 0)" fill="#404254">
  <rect fill="#f2f5e9" fill-opacity="0.5" stroke="#606060" stroke-width=".5" x="0" y="0" width="60" height="60"/>
  <use id="zoomplus" xlink:href="#zoomPlus" x="17" y="9" onmousedown="handleZoom(evt,'in')"/>
  <use id="zoomminus" xlink:href="#zoomMin" x="42" y="9" onmousedown="handleZoom(evt,'out')"/>
  <use id="reset" xlink:href="#resetDef" x="30" y="36" onmousedown="handleReset()"/>
   <use id="arrowup" xlink:href="#arrowUp" x="0" y="0" onmousedown="handlePan(0,-1)"/>
  <use id="arrowright" xlink:href="#arrowRight" x="0" y="0" onmousedown="handlePan(1,0)"/>
  <use id="arrowdown" xlink:href="#arrowDown" x="0" y="0" onmousedown="handlePan(0,1)"/>
  <use id="arrowleft" xlink:href="#arrowLeft" x="0" y="0" onmousedown="handlePan(-1,0)"/>
</g>
<svg viewBox="0 0 15 15" width="100%" height="30px" preserveAspectRatio="xMaxYMin meet">
 <g id="arrow_out" transform="scale(0.3 0.3)">
  <a xlink:href="vcurvepathitem_8cpp__incl_org.svg" target="_base">
   <rect id="button" ry="5" rx="5" y="6" x="6" height="38" width="38"
        fill="#f2f5e9" fill-opacity="0.5" stroke="#606060" stroke-width="1.0"/>
   <path id="arrow"
     d="M 11.500037,31.436501 C 11.940474,20.09759 22.043105,11.32322 32.158766,21.979434 L 37.068811,17.246167 C 37.068811,17.246167 37.088388,32 37.088388,32 L 22.160133,31.978069 C 22.160133,31.978069 26.997745,27.140456 26.997745,27.140456 C 18.528582,18.264221 13.291696,25.230495 11.500037,31.436501 z"
     style="fill:#404040;"/>
  </a>
 </g>
</svg>

<style type='text/css'>
<![CDATA[
[data-mouse-over-selected='false'] { opacity: 0.7; }
[data-mouse-over-selected='true']  { opacity: 1.0; }
]]>
</style>
<script type="application/ecmascript"><![CDATA[
document.addEventListener('DOMContentLoaded', (event) => {
  highlightEdges();
  highlightAdjacentNodes();
});
]]></script>
</svg>
