<?xml version="1.0" encoding="UTF-8" standalone="no"?>
<!DOCTYPE svg PUBLIC "-//W3C//DTD SVG 1.1//EN"
 "http://www.w3.org/Graphics/SVG/1.1/DTD/svg11.dtd">
<!-- Generated by graphviz version 2.43.0 (0)
 -->
<!-- Title: src/app/seamlyme/dialogs/dialogmdatabase.h Pages: 1 -->
<!--zoomable 159 -->

<svg id="main" version="1.1" xmlns="http://www.w3.org/2000/svg" xmlns:xlink="http://www.w3.org/1999/xlink" xml:space="preserve" onload="init(evt)">
<style type="text/css"><![CDATA[
.node, .edge {opacity: 0.7;}
.node.selected, .edge.selected {opacity: 1;}
.edge:hover path { stroke: red; }
.edge:hover polygon { stroke: red; fill: red; }
]]></style>

<defs>
  <circle id="rim" cx="0" cy="0" r="7"/>
  <circle id="rim2" cx="0" cy="0" r="3.5"/>
  <g id="zoomPlus">
    <use xlink:href="#rim" fill="#404040"><set attributeName="fill" to="#808080" begin="zoomplus.mouseover" end="zoomplus.mouseout"/></use>
    <path d="M-4,0h8M0,-4v8" fill="none" stroke="white" stroke-width="1.5" pointer-events="none"/>
  </g>
  <g id="zoomMin">
    <use xlink:href="#rim" fill="#404040"><set attributeName="fill" to="#808080" begin="zoomminus.mouseover" end="zoomminus.mouseout"/></use>
    <path d="M-4,0h8" fill="none" stroke="white" stroke-width="1.5" pointer-events="none"/>
  </g>
  <g id="arrowUp" transform="translate(30 24)">
    <use xlink:href="#rim"/>
    <path pointer-events="none" fill="none" stroke="white" stroke-width="1.5" d="M0,-3.0v7 M-2.5,-0.5L0,-3.0L2.5,-0.5"/>
  </g>
  <g id="arrowRight" transform="rotate(90) translate(36 -43)">
    <use xlink:href="#rim"/>
    <path pointer-events="none" fill="none" stroke="white" stroke-width="1.5" d="M0,-3.0v7 M-2.5,-0.5L0,-3.0L2.5,-0.5"/>
  </g>
  <g id="arrowDown" transform="rotate(180) translate(-30 -48)">
    <use xlink:href="#rim"/>
    <path pointer-events="none" fill="none" stroke="white" stroke-width="1.5" d="M0,-3.0v7 M-2.5,-0.5L0,-3.0L2.5,-0.5"/>
  </g>
  <g id="arrowLeft" transform="rotate(270) translate(-36 17)">
    <use xlink:href="#rim"/>
    <path pointer-events="none" fill="none" stroke="white" stroke-width="1.5" d="M0,-3.0v7 M-2.5,-0.5L0,-3.0L2.5,-0.5"/>
  </g>
  <g id="resetDef">
    <use xlink:href="#rim2" fill="#404040"><set attributeName="fill" to="#808080" begin="reset.mouseover" end="reset.mouseout"/></use>
  </g>
</defs>
<script type="application/ecmascript">
var viewWidth = 1886;
var viewHeight = 159;
var sectionId = 'dynsection-1';
</script>
<script type="application/ecmascript" xlink:href="../../svg.min.js"/>
<svg id="graph" class="graph">
<g id="viewport">
<title>src/app/seamlyme/dialogs/dialogmdatabase.h</title>
<!-- Node1 -->
<g id="Node000001" class="node">
<title>Node1</title>
<g id="a_Node000001"><a xlink:title=" ">
<polygon fill="#999999" stroke="#666666" points="1100,-151 955,-151 955,-121 1100,-121 1100,-151"/>
<text text-anchor="start" x="963" y="-139" font-family="Helvetica,sans-Serif" font-size="10.00">src/app/seamlyme/dialogs</text>
<text text-anchor="middle" x="1027.5" y="-128" font-family="Helvetica,sans-Serif" font-size="10.00">/dialogmdatabase.h</text>
</a>
</g>
</g>
<!-- Node2 -->
<g id="Node000002" class="node">
<title>Node2</title>
<g id="a_Node000002"><a xlink:href="../../d1/d42/dialogmdatabase_8cpp.html" target="_top" xlink:title=" ">
<polygon fill="white" stroke="#666666" points="145,-30 0,-30 0,0 145,0 145,-30"/>
<text text-anchor="start" x="8" y="-18" font-family="Helvetica,sans-Serif" font-size="10.00">src/app/seamlyme/dialogs</text>
<text text-anchor="middle" x="72.5" y="-7" font-family="Helvetica,sans-Serif" font-size="10.00">/dialogmdatabase.cpp</text>
</a>
</g>
</g>
<!-- Node1&#45;&gt;Node2 -->
<g id="edge1_Node000001_Node000002" class="edge">
<title>Node1&#45;&gt;Node2</title>
<g id="a_edge1_Node000001_Node000002"><a xlink:title=" ">
<path fill="none" stroke="#63b8ff" d="M944.86,-126.51C789.53,-110.23 443.51,-72.45 153.5,-30 150.82,-29.61 148.09,-29.2 145.33,-28.77"/>
<polygon fill="#63b8ff" stroke="#63b8ff" points="944.51,-129.99 954.82,-127.55 945.23,-123.03 944.51,-129.99"/>
</a>
</g>
</g>
<!-- Node3 -->
<g id="Node000003" class="node">
<title>Node3</title>
<g id="a_Node000003"><a xlink:href="../../df/da4/mapplication_8h.html" target="_top" xlink:title=" ">
<polygon fill="white" stroke="#666666" points="1118.5,-85 936.5,-85 936.5,-66 1118.5,-66 1118.5,-85"/>
<text text-anchor="middle" x="1027.5" y="-73" font-family="Helvetica,sans-Serif" font-size="10.00">src/app/seamlyme/mapplication.h</text>
</a>
</g>
</g>
<!-- Node1&#45;&gt;Node3 -->
<g id="edge2_Node000001_Node000003" class="edge">
<title>Node1&#45;&gt;Node3</title>
<g id="a_edge2_Node000001_Node000003"><a xlink:title=" ">
<path fill="none" stroke="#63b8ff" d="M1027.5,-110.75C1027.5,-101.72 1027.5,-92.03 1027.5,-85.27"/>
<polygon fill="#63b8ff" stroke="#63b8ff" points="1024,-110.84 1027.5,-120.84 1031,-110.84 1024,-110.84"/>
</a>
</g>
</g>
<!-- Node11 -->
<g id="Node000011" class="node">
<title>Node11</title>
<g id="a_Node000011"><a xlink:href="../../dc/de1/tmainwindow_8cpp.html" target="_top" xlink:title=" ">
<polygon fill="white" stroke="#666666" points="1878,-24.5 1683,-24.5 1683,-5.5 1878,-5.5 1878,-24.5"/>
<text text-anchor="middle" x="1780.5" y="-12.5" font-family="Helvetica,sans-Serif" font-size="10.00">src/app/seamlyme/tmainwindow.cpp</text>
</a>
</g>
</g>
<!-- Node1&#45;&gt;Node11 -->
<g id="edge12_Node000001_Node000011" class="edge">
<title>Node1&#45;&gt;Node11</title>
<g id="a_edge12_Node000001_Node000011"><a xlink:title=" ">
<path fill="none" stroke="#63b8ff" d="M1110,-121.96C1265.06,-97.46 1596.09,-45.14 1726.29,-24.57"/>
<polygon fill="#63b8ff" stroke="#63b8ff" points="1109.37,-118.52 1100.04,-123.54 1110.47,-125.43 1109.37,-118.52"/>
</a>
</g>
</g>
<!-- Node3&#45;&gt;Node2 -->
<g id="edge5_Node000003_Node000002" class="edge">
<title>Node3&#45;&gt;Node2</title>
<g id="a_edge5_Node000003_Node000002"><a xlink:title=" ">
<path fill="none" stroke="#63b8ff" d="M926.28,-73.29C763.13,-70.46 432.11,-61.06 153.5,-30 150.81,-29.7 148.06,-29.37 145.3,-29.01"/>
<polygon fill="#63b8ff" stroke="#63b8ff" points="926.24,-76.79 936.3,-73.46 926.36,-69.79 926.24,-76.79"/>
</a>
</g>
</g>
<!-- Node4 -->
<g id="Node000004" class="node">
<title>Node4</title>
<g id="a_Node000004"><a xlink:href="../../d9/d23/seamlymepreferencesconfigurationpage_8cpp.html" target="_top" xlink:title=" ">
<polygon fill="white" stroke="#666666" points="462,-30 163,-30 163,0 462,0 462,-30"/>
<text text-anchor="start" x="171" y="-18" font-family="Helvetica,sans-Serif" font-size="10.00">src/app/seamlyme/dialogs</text>
<text text-anchor="middle" x="312.5" y="-7" font-family="Helvetica,sans-Serif" font-size="10.00">/configpages/seamlymepreferencesconfigurationpage.cpp</text>
</a>
</g>
</g>
<!-- Node3&#45;&gt;Node4 -->
<g id="edge3_Node000003_Node000004" class="edge">
<title>Node3&#45;&gt;Node4</title>
<g id="a_edge3_Node000003_Node000004"><a xlink:title=" ">
<path fill="none" stroke="#63b8ff" d="M926.06,-66.66C814.41,-57.97 629.62,-43.41 470.5,-30 467.76,-29.77 464.99,-29.53 462.19,-29.3"/>
<polygon fill="#63b8ff" stroke="#63b8ff" points="926.06,-70.17 936.31,-67.46 926.61,-63.19 926.06,-70.17"/>
</a>
</g>
</g>
<!-- Node5 -->
<g id="Node000005" class="node">
<title>Node5</title>
<g id="a_Node000005"><a xlink:href="../../d8/dcc/seamlymepreferencespathpage_8cpp.html" target="_top" xlink:title=" ">
<polygon fill="white" stroke="#666666" points="737,-30 480,-30 480,0 737,0 737,-30"/>
<text text-anchor="start" x="488" y="-18" font-family="Helvetica,sans-Serif" font-size="10.00">src/app/seamlyme/dialogs</text>
<text text-anchor="middle" x="608.5" y="-7" font-family="Helvetica,sans-Serif" font-size="10.00">/configpages/seamlymepreferencespathpage.cpp</text>
</a>
</g>
</g>
<!-- Node3&#45;&gt;Node5 -->
<g id="edge4_Node000003_Node000005" class="edge">
<title>Node3&#45;&gt;Node5</title>
<g id="a_edge4_Node000003_Node000005"><a xlink:title=" ">
<path fill="none" stroke="#63b8ff" d="M956.39,-64.57C888.38,-55.08 785.18,-40.67 708.83,-30.01"/>
<polygon fill="#63b8ff" stroke="#63b8ff" points="956.19,-68.08 966.57,-65.99 957.15,-61.14 956.19,-68.08"/>
</a>
</g>
</g>
<!-- Node6 -->
<g id="Node000006" class="node">
<title>Node6</title>
<g id="a_Node000006"><a xlink:href="../../de/d0a/dialognewmeasurements_8cpp.html" target="_top" xlink:title=" ">
<polygon fill="white" stroke="#666666" points="919.5,-30 755.5,-30 755.5,0 919.5,0 919.5,-30"/>
<text text-anchor="start" x="763.5" y="-18" font-family="Helvetica,sans-Serif" font-size="10.00">src/app/seamlyme/dialogs</text>
<text text-anchor="middle" x="837.5" y="-7" font-family="Helvetica,sans-Serif" font-size="10.00">/dialognewmeasurements.cpp</text>
</a>
</g>
</g>
<!-- Node3&#45;&gt;Node6 -->
<g id="edge6_Node000003_Node000006" class="edge">
<title>Node3&#45;&gt;Node6</title>
<g id="a_edge6_Node000003_Node000006"><a xlink:title=" ">
<path fill="none" stroke="#63b8ff" d="M990,-62.95C959.34,-53.51 915.87,-40.13 883.18,-30.06"/>
<polygon fill="#63b8ff" stroke="#63b8ff" points="989.29,-66.4 999.87,-65.99 991.35,-59.71 989.29,-66.4"/>
</a>
</g>
</g>
<!-- Node7 -->
<g id="Node000007" class="node">
<title>Node7</title>
<g id="a_Node000007"><a xlink:href="../../dd/db1/dialogseamlymepreferences_8cpp.html" target="_top" xlink:title=" ">
<polygon fill="white" stroke="#666666" points="1117,-30 938,-30 938,0 1117,0 1117,-30"/>
<text text-anchor="start" x="946" y="-18" font-family="Helvetica,sans-Serif" font-size="10.00">src/app/seamlyme/dialogs</text>
<text text-anchor="middle" x="1027.5" y="-7" font-family="Helvetica,sans-Serif" font-size="10.00">/dialogseamlymepreferences.cpp</text>
</a>
</g>
</g>
<!-- Node3&#45;&gt;Node7 -->
<g id="edge7_Node000003_Node000007" class="edge">
<title>Node3&#45;&gt;Node7</title>
<g id="a_edge7_Node000003_Node000007"><a xlink:title=" ">
<path fill="none" stroke="#63b8ff" d="M1027.5,-55.65C1027.5,-47.36 1027.5,-37.78 1027.5,-30.11"/>
<polygon fill="#63b8ff" stroke="#63b8ff" points="1024,-55.87 1027.5,-65.87 1031,-55.87 1024,-55.87"/>
</a>
</g>
</g>
<!-- Node8 -->
<g id="Node000008" class="node">
<title>Node8</title>
<g id="a_Node000008"><a xlink:href="../../d6/d8e/me__shortcuts__dialog_8cpp.html" target="_top" xlink:title=" ">
<polygon fill="white" stroke="#666666" points="1280,-30 1135,-30 1135,0 1280,0 1280,-30"/>
<text text-anchor="start" x="1143" y="-18" font-family="Helvetica,sans-Serif" font-size="10.00">src/app/seamlyme/dialogs</text>
<text text-anchor="middle" x="1207.5" y="-7" font-family="Helvetica,sans-Serif" font-size="10.00">/me_shortcuts_dialog.cpp</text>
</a>
</g>
</g>
<!-- Node3&#45;&gt;Node8 -->
<g id="edge8_Node000003_Node000008" class="edge">
<title>Node3&#45;&gt;Node8</title>
<g id="a_edge8_Node000003_Node000008"><a xlink:title=" ">
<path fill="none" stroke="#63b8ff" d="M1063.41,-62.83C1092.43,-53.4 1133.39,-40.09 1164.23,-30.06"/>
<polygon fill="#63b8ff" stroke="#63b8ff" points="1062.1,-59.57 1053.67,-65.99 1064.27,-66.23 1062.1,-59.57"/>
</a>
</g>
</g>
<!-- Node9 -->
<g id="Node000009" class="node">
<title>Node9</title>
<g id="a_Node000009"><a xlink:href="../../db/de0/app_2seamlyme_2main_8cpp.html" target="_top" xlink:title=" ">
<polygon fill="white" stroke="#666666" points="1453,-24.5 1298,-24.5 1298,-5.5 1453,-5.5 1453,-24.5"/>
<text text-anchor="middle" x="1375.5" y="-12.5" font-family="Helvetica,sans-Serif" font-size="10.00">src/app/seamlyme/main.cpp</text>
</a>
</g>
</g>
<!-- Node3&#45;&gt;Node9 -->
<g id="edge9_Node000003_Node000009" class="edge">
<title>Node3&#45;&gt;Node9</title>
<g id="a_edge9_Node000003_Node000009"><a xlink:title=" ">
<path fill="none" stroke="#63b8ff" d="M1088.1,-64.31C1155.17,-53.04 1262.05,-35.07 1324.84,-24.52"/>
<polygon fill="#63b8ff" stroke="#63b8ff" points="1087.38,-60.88 1078.1,-65.99 1088.54,-67.79 1087.38,-60.88"/>
</a>
</g>
</g>
<!-- Node10 -->
<g id="Node000010" class="node">
<title>Node10</title>
<g id="a_Node000010"><a xlink:href="../../da/dfb/mapplication_8cpp.html" target="_top" xlink:title=" ">
<polygon fill="white" stroke="#666666" points="1665.5,-24.5 1471.5,-24.5 1471.5,-5.5 1665.5,-5.5 1665.5,-24.5"/>
<text text-anchor="middle" x="1568.5" y="-12.5" font-family="Helvetica,sans-Serif" font-size="10.00">src/app/seamlyme/mapplication.cpp</text>
</a>
</g>
</g>
<!-- Node3&#45;&gt;Node10 -->
<g id="edge10_Node000003_Node000010" class="edge">
<title>Node3&#45;&gt;Node10</title>
<g id="a_edge10_Node000003_Node000010"><a xlink:title=" ">
<path fill="none" stroke="#63b8ff" d="M1128.4,-65.02C1216.63,-56.54 1348.15,-43.4 1462.5,-30 1476.7,-28.34 1491.94,-26.41 1506.32,-24.52"/>
<polygon fill="#63b8ff" stroke="#63b8ff" points="1128.02,-61.55 1118.4,-65.99 1128.69,-68.51 1128.02,-61.55"/>
</a>
</g>
</g>
<!-- Node3&#45;&gt;Node11 -->
<g id="edge11_Node000003_Node000011" class="edge">
<title>Node3&#45;&gt;Node11</title>
<g id="a_edge11_Node000003_Node000011"><a xlink:title=" ">
<path fill="none" stroke="#63b8ff" d="M1128.87,-69.5C1256.38,-62.75 1481.98,-49.31 1674.5,-30 1689.65,-28.48 1705.96,-26.5 1721.15,-24.51"/>
<polygon fill="#63b8ff" stroke="#63b8ff" points="1128.53,-66.01 1118.73,-70.03 1128.9,-73 1128.53,-66.01"/>
</a>
</g>
</g>
</g>
</svg>

<g id="navigator" transform="translate(0 0)" fill="#404254">
  <rect fill="#f2f5e9" fill-opacity="0.5" stroke="#606060" stroke-width=".5" x="0" y="0" width="60" height="60"/>
  <use id="zoomplus" xlink:href="#zoomPlus" x="17" y="9" onmousedown="handleZoom(evt,'in')"/>
  <use id="zoomminus" xlink:href="#zoomMin" x="42" y="9" onmousedown="handleZoom(evt,'out')"/>
  <use id="reset" xlink:href="#resetDef" x="30" y="36" onmousedown="handleReset()"/>
   <use id="arrowup" xlink:href="#arrowUp" x="0" y="0" onmousedown="handlePan(0,-1)"/>
  <use id="arrowright" xlink:href="#arrowRight" x="0" y="0" onmousedown="handlePan(1,0)"/>
  <use id="arrowdown" xlink:href="#arrowDown" x="0" y="0" onmousedown="handlePan(0,1)"/>
  <use id="arrowleft" xlink:href="#arrowLeft" x="0" y="0" onmousedown="handlePan(-1,0)"/>
</g>
<svg viewBox="0 0 15 15" width="100%" height="30px" preserveAspectRatio="xMaxYMin meet">
 <g id="arrow_out" transform="scale(0.3 0.3)">
  <a xlink:href="dialogmdatabase_8h__dep__incl_org.svg" target="_base">
   <rect id="button" ry="5" rx="5" y="6" x="6" height="38" width="38"
        fill="#f2f5e9" fill-opacity="0.5" stroke="#606060" stroke-width="1.0"/>
   <path id="arrow"
     d="M 11.500037,31.436501 C 11.940474,20.09759 22.043105,11.32322 32.158766,21.979434 L 37.068811,17.246167 C 37.068811,17.246167 37.088388,32 37.088388,32 L 22.160133,31.978069 C 22.160133,31.978069 26.997745,27.140456 26.997745,27.140456 C 18.528582,18.264221 13.291696,25.230495 11.500037,31.436501 z"
     style="fill:#404040;"/>
  </a>
 </g>
</svg>

<style type='text/css'>
<![CDATA[
[data-mouse-over-selected='false'] { opacity: 0.7; }
[data-mouse-over-selected='true']  { opacity: 1.0; }
]]>
</style>
<script type="application/ecmascript"><![CDATA[
document.addEventListener('DOMContentLoaded', (event) => {
  highlightEdges();
  highlightAdjacentNodes();
});
]]></script>
</svg>
