<?xml version="1.0" encoding="UTF-8" standalone="no"?>
<!DOCTYPE svg PUBLIC "-//W3C//DTD SVG 1.1//EN"
 "http://www.w3.org/Graphics/SVG/1.1/DTD/svg11.dtd">
<!-- Generated by graphviz version 2.43.0 (0)
 -->
<!-- Title: src/libs/ifc/exception/vexceptionobjecterror.cpp Pages: 1 -->
<svg width="725pt" height="368pt"
 viewBox="0.00 0.00 724.50 368.00" xmlns="http://www.w3.org/2000/svg" xmlns:xlink="http://www.w3.org/1999/xlink">
<g id="graph0" class="graph" transform="scale(1 1) rotate(0) translate(4 364)">
<title>src/libs/ifc/exception/vexceptionobjecterror.cpp</title>
<!-- Node1 -->
<g id="Node000001" class="node">
<title>Node1</title>
<g id="a_Node000001"><a xlink:title=" ">
<polygon fill="#999999" stroke="#666666" points="595.5,-360 449.5,-360 449.5,-330 595.5,-330 595.5,-360"/>
<text text-anchor="start" x="457.5" y="-348" font-family="Helvetica,sans-Serif" font-size="10.00">src/libs/ifc/exception</text>
<text text-anchor="middle" x="522.5" y="-337" font-family="Helvetica,sans-Serif" font-size="10.00">/vexceptionobjecterror.cpp</text>
</a>
</g>
</g>
<!-- Node2 -->
<g id="Node000002" class="node">
<title>Node2</title>
<g id="a_Node000002"><a xlink:href="../../d9/d8f/vexceptionobjecterror_8h.html" target="_top" xlink:title=" ">
<polygon fill="white" stroke="#666666" points="445.5,-294 313.5,-294 313.5,-275 445.5,-275 445.5,-294"/>
<text text-anchor="middle" x="379.5" y="-282" font-family="Helvetica,sans-Serif" font-size="10.00">vexceptionobjecterror.h</text>
</a>
</g>
</g>
<!-- Node1&#45;&gt;Node2 -->
<g id="edge1_Node000001_Node000002" class="edge">
<title>Node1&#45;&gt;Node2</title>
<g id="a_edge1_Node000001_Node000002"><a xlink:title=" ">
<path fill="none" stroke="#63b8ff" d="M488.25,-329.99C464.39,-320.23 432.85,-307.33 409.89,-297.93"/>
<polygon fill="#63b8ff" stroke="#63b8ff" points="411.2,-294.69 400.62,-294.14 408.55,-301.17 411.2,-294.69"/>
</a>
</g>
</g>
<!-- Node16 -->
<g id="Node000016" class="node">
<title>Node16</title>
<g id="a_Node000016"><a xlink:href="../../d1/d44/vexception_8h.html" target="_top" xlink:title=" ">
<polygon fill="white" stroke="#666666" points="540.5,-239 460.5,-239 460.5,-220 540.5,-220 540.5,-239"/>
<text text-anchor="middle" x="500.5" y="-227" font-family="Helvetica,sans-Serif" font-size="10.00">vexception.h</text>
</a>
</g>
</g>
<!-- Node1&#45;&gt;Node16 -->
<g id="edge30_Node000001_Node000016" class="edge">
<title>Node1&#45;&gt;Node16</title>
<g id="a_edge30_Node000001_Node000016"><a xlink:title=" ">
<path fill="none" stroke="#63b8ff" d="M516.62,-329.82C512.79,-319.95 508.05,-306.39 505.5,-294 502.46,-279.24 501.24,-262.2 500.76,-249.49"/>
<polygon fill="#63b8ff" stroke="#63b8ff" points="504.25,-249.13 500.5,-239.22 497.26,-249.31 504.25,-249.13"/>
</a>
</g>
</g>
<!-- Node19 -->
<g id="Node000019" class="node">
<title>Node19</title>
<g id="a_Node000019"><a xlink:title=" ">
<polygon fill="#e0e0e0" stroke="#999999" points="602.5,-294 514.5,-294 514.5,-275 602.5,-275 602.5,-294"/>
<text text-anchor="middle" x="558.5" y="-282" font-family="Helvetica,sans-Serif" font-size="10.00">QDomElement</text>
</a>
</g>
</g>
<!-- Node1&#45;&gt;Node19 -->
<g id="edge28_Node000001_Node000019" class="edge">
<title>Node1&#45;&gt;Node19</title>
<g id="a_edge28_Node000001_Node000019"><a xlink:title=" ">
<path fill="none" stroke="#63b8ff" d="M531.21,-329.84C536.17,-321.78 542.43,-311.62 547.7,-303.06"/>
<polygon fill="#63b8ff" stroke="#63b8ff" points="550.85,-304.62 553.11,-294.27 544.88,-300.95 550.85,-304.62"/>
</a>
</g>
</g>
<!-- Node20 -->
<g id="Node000020" class="node">
<title>Node20</title>
<g id="a_Node000020"><a xlink:title=" ">
<polygon fill="#e0e0e0" stroke="#999999" points="700.5,-294 620.5,-294 620.5,-275 700.5,-275 700.5,-294"/>
<text text-anchor="middle" x="660.5" y="-282" font-family="Helvetica,sans-Serif" font-size="10.00">QTextStream</text>
</a>
</g>
</g>
<!-- Node1&#45;&gt;Node20 -->
<g id="edge29_Node000001_Node000020" class="edge">
<title>Node1&#45;&gt;Node20</title>
<g id="a_edge29_Node000001_Node000020"><a xlink:title=" ">
<path fill="none" stroke="#63b8ff" d="M555.55,-329.99C578.48,-320.27 608.74,-307.44 630.88,-298.06"/>
<polygon fill="#63b8ff" stroke="#63b8ff" points="632.28,-301.26 640.12,-294.14 629.55,-294.82 632.28,-301.26"/>
</a>
</g>
</g>
<!-- Node3 -->
<g id="Node000003" class="node">
<title>Node3</title>
<g id="a_Node000003"><a xlink:title=" ">
<polygon fill="#e0e0e0" stroke="#999999" points="716.5,-74 596.5,-74 596.5,-55 716.5,-55 716.5,-74"/>
<text text-anchor="middle" x="656.5" y="-62" font-family="Helvetica,sans-Serif" font-size="10.00">qcompilerdetection.h</text>
</a>
</g>
</g>
<!-- Node2&#45;&gt;Node3 -->
<g id="edge2_Node000002_Node000003" class="edge">
<title>Node2&#45;&gt;Node3</title>
<g id="a_edge2_Node000002_Node000003"><a xlink:title=" ">
<path fill="none" stroke="#63b8ff" d="M385.75,-274.67C405.87,-246.81 471.93,-159.73 545.5,-110 566.83,-95.58 593.54,-84.69 615.42,-77.29"/>
<polygon fill="#63b8ff" stroke="#63b8ff" points="616.67,-80.57 625.09,-74.14 614.5,-73.91 616.67,-80.57"/>
</a>
</g>
</g>
<!-- Node4 -->
<g id="Node000004" class="node">
<title>Node4</title>
<g id="a_Node000004"><a xlink:title=" ">
<polygon fill="#e0e0e0" stroke="#999999" points="53,-74 0,-74 0,-55 53,-55 53,-74"/>
<text text-anchor="middle" x="26.5" y="-62" font-family="Helvetica,sans-Serif" font-size="10.00">QString</text>
</a>
</g>
</g>
<!-- Node2&#45;&gt;Node4 -->
<g id="edge3_Node000002_Node000004" class="edge">
<title>Node2&#45;&gt;Node4</title>
<g id="a_edge3_Node000002_Node000004"><a xlink:title=" ">
<path fill="none" stroke="#63b8ff" d="M343.86,-274.96C279.41,-257.81 142.62,-213.42 61.5,-129 48.85,-115.84 39.3,-97.21 33.4,-83.53"/>
<polygon fill="#63b8ff" stroke="#63b8ff" points="36.62,-82.15 29.6,-74.21 30.13,-84.79 36.62,-82.15"/>
</a>
</g>
</g>
<!-- Node5 -->
<g id="Node000005" class="node">
<title>Node5</title>
<g id="a_Node000005"><a xlink:title=" ">
<polygon fill="#e0e0e0" stroke="#999999" points="130,-74 71,-74 71,-55 130,-55 130,-74"/>
<text text-anchor="middle" x="100.5" y="-62" font-family="Helvetica,sans-Serif" font-size="10.00">QtGlobal</text>
</a>
</g>
</g>
<!-- Node2&#45;&gt;Node5 -->
<g id="edge4_Node000002_Node000005" class="edge">
<title>Node2&#45;&gt;Node5</title>
<g id="a_edge4_Node000002_Node000005"><a xlink:title=" ">
<path fill="none" stroke="#63b8ff" d="M357.27,-274.88C309.84,-255.48 197.56,-204.17 130.5,-129 118.84,-115.93 110.82,-97.54 106.03,-83.92"/>
<polygon fill="#63b8ff" stroke="#63b8ff" points="109.29,-82.63 102.87,-74.2 102.63,-84.79 109.29,-82.63"/>
</a>
</g>
</g>
<!-- Node6 -->
<g id="Node000006" class="node">
<title>Node6</title>
<g id="a_Node000006"><a xlink:href="../../d3/da5/ifcdef_8h.html" target="_top" xlink:title=" ">
<polygon fill="white" stroke="#666666" points="375.5,-184 313.5,-184 313.5,-165 375.5,-165 375.5,-184"/>
<text text-anchor="middle" x="344.5" y="-172" font-family="Helvetica,sans-Serif" font-size="10.00">../ifcdef.h</text>
</a>
</g>
</g>
<!-- Node2&#45;&gt;Node6 -->
<g id="edge5_Node000002_Node000006" class="edge">
<title>Node2&#45;&gt;Node6</title>
<g id="a_edge5_Node000002_Node000006"><a xlink:title=" ">
<path fill="none" stroke="#63b8ff" d="M376.64,-274.66C370.94,-257.09 358.09,-217.45 350.48,-193.95"/>
<polygon fill="#63b8ff" stroke="#63b8ff" points="353.72,-192.59 347.31,-184.16 347.06,-194.75 353.72,-192.59"/>
</a>
</g>
</g>
<!-- Node2&#45;&gt;Node16 -->
<g id="edge22_Node000002_Node000016" class="edge">
<title>Node2&#45;&gt;Node16</title>
<g id="a_edge22_Node000002_Node000016"><a xlink:title=" ">
<path fill="none" stroke="#63b8ff" d="M398.94,-274.98C418.49,-266.42 448.88,-253.11 471.32,-243.28"/>
<polygon fill="#63b8ff" stroke="#63b8ff" points="472.95,-246.39 480.71,-239.17 470.14,-239.98 472.95,-246.39"/>
</a>
</g>
</g>
<!-- Node6&#45;&gt;Node4 -->
<g id="edge6_Node000006_Node000004" class="edge">
<title>Node6&#45;&gt;Node4</title>
<g id="a_edge6_Node000006_Node000004"><a xlink:title=" ">
<path fill="none" stroke="#63b8ff" d="M313.42,-170.42C270.91,-165.45 192.78,-153.63 130.5,-129 98.94,-116.52 66.09,-94.74 45.97,-80.22"/>
<polygon fill="#63b8ff" stroke="#63b8ff" points="47.79,-77.22 37.66,-74.12 43.65,-82.86 47.79,-77.22"/>
</a>
</g>
</g>
<!-- Node6&#45;&gt;Node5 -->
<g id="edge8_Node000006_Node000005" class="edge">
<title>Node6&#45;&gt;Node5</title>
<g id="a_edge8_Node000006_Node000005"><a xlink:title=" ">
<path fill="none" stroke="#63b8ff" d="M313.32,-171.5C274.81,-167.85 208.41,-157.6 159.5,-129 139.89,-117.54 122.9,-97.52 112.25,-83.01"/>
<polygon fill="#63b8ff" stroke="#63b8ff" points="114.82,-80.59 106.2,-74.43 109.1,-84.62 114.82,-80.59"/>
</a>
</g>
</g>
<!-- Node7 -->
<g id="Node000007" class="node">
<title>Node7</title>
<g id="a_Node000007"><a xlink:title=" ">
<polygon fill="#e0e0e0" stroke="#999999" points="578.5,-74 508.5,-74 508.5,-55 578.5,-55 578.5,-74"/>
<text text-anchor="middle" x="543.5" y="-62" font-family="Helvetica,sans-Serif" font-size="10.00">QStringList</text>
</a>
</g>
</g>
<!-- Node6&#45;&gt;Node7 -->
<g id="edge7_Node000006_Node000007" class="edge">
<title>Node6&#45;&gt;Node7</title>
<g id="a_edge7_Node000006_Node000007"><a xlink:title=" ">
<path fill="none" stroke="#63b8ff" d="M355.49,-164.91C372.43,-151.93 406.24,-127.01 437.5,-110 460.81,-97.32 488.49,-85.81 509.73,-77.67"/>
<polygon fill="#63b8ff" stroke="#63b8ff" points="511.16,-80.87 519.28,-74.07 508.69,-74.32 511.16,-80.87"/>
</a>
</g>
</g>
<!-- Node8 -->
<g id="Node000008" class="node">
<title>Node8</title>
<g id="a_Node000008"><a xlink:href="../../d4/da4/def_8h.html" target="_top" xlink:title=" ">
<polygon fill="white" stroke="#666666" points="385.5,-129 303.5,-129 303.5,-110 385.5,-110 385.5,-129"/>
<text text-anchor="middle" x="344.5" y="-117" font-family="Helvetica,sans-Serif" font-size="10.00">../vmisc/def.h</text>
</a>
</g>
</g>
<!-- Node6&#45;&gt;Node8 -->
<g id="edge9_Node000006_Node000008" class="edge">
<title>Node6&#45;&gt;Node8</title>
<g id="a_edge9_Node000006_Node000008"><a xlink:title=" ">
<path fill="none" stroke="#63b8ff" d="M344.5,-164.75C344.5,-157.8 344.5,-147.85 344.5,-139.13"/>
<polygon fill="#63b8ff" stroke="#63b8ff" points="348,-139.09 344.5,-129.09 341,-139.09 348,-139.09"/>
</a>
</g>
</g>
<!-- Node15 -->
<g id="Node000015" class="node">
<title>Node15</title>
<g id="a_Node000015"><a xlink:href="../../d6/dcd/diagnostic_8h.html" target="_top" xlink:title=" ">
<polygon fill="white" stroke="#666666" points="285,-129 168,-129 168,-110 285,-110 285,-129"/>
<text text-anchor="middle" x="226.5" y="-117" font-family="Helvetica,sans-Serif" font-size="10.00">../vmisc/diagnostic.h</text>
</a>
</g>
</g>
<!-- Node6&#45;&gt;Node15 -->
<g id="edge20_Node000006_Node000015" class="edge">
<title>Node6&#45;&gt;Node15</title>
<g id="a_edge20_Node000006_Node000015"><a xlink:title=" ">
<path fill="none" stroke="#63b8ff" d="M325.54,-164.98C306.47,-156.42 276.84,-143.11 254.95,-133.28"/>
<polygon fill="#63b8ff" stroke="#63b8ff" points="256.36,-130.07 245.8,-129.17 253.49,-136.46 256.36,-130.07"/>
</a>
</g>
</g>
<!-- Node8&#45;&gt;Node3 -->
<g id="edge10_Node000008_Node000003" class="edge">
<title>Node8&#45;&gt;Node3</title>
<g id="a_edge10_Node000008_Node000003"><a xlink:title=" ">
<path fill="none" stroke="#63b8ff" d="M385.61,-111.52C439.45,-102.37 534.27,-86.26 596.23,-75.74"/>
<polygon fill="#63b8ff" stroke="#63b8ff" points="596.99,-79.16 606.26,-74.03 595.82,-72.26 596.99,-79.16"/>
</a>
</g>
</g>
<!-- Node8&#45;&gt;Node4 -->
<g id="edge12_Node000008_Node000004" class="edge">
<title>Node8&#45;&gt;Node4</title>
<g id="a_edge12_Node000008_Node000004"><a xlink:title=" ">
<path fill="none" stroke="#63b8ff" d="M303.31,-111.45C300.33,-110.95 297.37,-110.47 294.5,-110 194.2,-93.73 165.97,-94.33 63.06,-74.18"/>
<polygon fill="#63b8ff" stroke="#63b8ff" points="63.69,-70.74 53.2,-72.23 62.33,-77.6 63.69,-70.74"/>
</a>
</g>
</g>
<!-- Node8&#45;&gt;Node5 -->
<g id="edge15_Node000008_Node000005" class="edge">
<title>Node8&#45;&gt;Node5</title>
<g id="a_edge15_Node000008_Node000005"><a xlink:title=" ">
<path fill="none" stroke="#63b8ff" d="M305.2,-109.98C265.95,-101.47 203.61,-87.94 140.1,-74.13"/>
<polygon fill="#63b8ff" stroke="#63b8ff" points="140.83,-70.71 130.31,-72 139.34,-77.55 140.83,-70.71"/>
</a>
</g>
</g>
<!-- Node8&#45;&gt;Node7 -->
<g id="edge13_Node000008_Node000007" class="edge">
<title>Node8&#45;&gt;Node7</title>
<g id="a_edge13_Node000008_Node000007"><a xlink:title=" ">
<path fill="none" stroke="#63b8ff" d="M376.47,-109.98C410.32,-100.97 463.9,-86.7 501.21,-76.76"/>
<polygon fill="#63b8ff" stroke="#63b8ff" points="502.51,-80.04 511.28,-74.08 500.71,-73.27 502.51,-80.04"/>
</a>
</g>
</g>
<!-- Node9 -->
<g id="Node000009" class="node">
<title>Node9</title>
<g id="a_Node000009"><a xlink:title=" ">
<polygon fill="#e0e0e0" stroke="#999999" points="368.5,-74 318.5,-74 318.5,-55 368.5,-55 368.5,-74"/>
<text text-anchor="middle" x="343.5" y="-62" font-family="Helvetica,sans-Serif" font-size="10.00">QLineF</text>
</a>
</g>
</g>
<!-- Node8&#45;&gt;Node9 -->
<g id="edge11_Node000008_Node000009" class="edge">
<title>Node8&#45;&gt;Node9</title>
<g id="a_edge11_Node000008_Node000009"><a xlink:title=" ">
<path fill="none" stroke="#63b8ff" d="M344.33,-109.75C344.2,-102.8 344.02,-92.85 343.85,-84.13"/>
<polygon fill="#63b8ff" stroke="#63b8ff" points="347.35,-84.02 343.66,-74.09 340.35,-84.15 347.35,-84.02"/>
</a>
</g>
</g>
<!-- Node10 -->
<g id="Node000010" class="node">
<title>Node10</title>
<g id="a_Node000010"><a xlink:title=" ">
<polygon fill="#e0e0e0" stroke="#999999" points="416,-74 387,-74 387,-55 416,-55 416,-74"/>
<text text-anchor="middle" x="401.5" y="-62" font-family="Helvetica,sans-Serif" font-size="10.00">Qt</text>
</a>
</g>
</g>
<!-- Node8&#45;&gt;Node10 -->
<g id="edge14_Node000008_Node000010" class="edge">
<title>Node8&#45;&gt;Node10</title>
<g id="a_edge14_Node000008_Node000010"><a xlink:title=" ">
<path fill="none" stroke="#63b8ff" d="M353.66,-109.98C362,-102.23 374.53,-90.58 384.68,-81.14"/>
<polygon fill="#63b8ff" stroke="#63b8ff" points="387.24,-83.54 392.18,-74.17 382.47,-78.42 387.24,-83.54"/>
</a>
</g>
</g>
<!-- Node11 -->
<g id="Node000011" class="node">
<title>Node11</title>
<g id="a_Node000011"><a xlink:title=" ">
<polygon fill="#e0e0e0" stroke="#999999" points="490.5,-74 434.5,-74 434.5,-55 490.5,-55 490.5,-74"/>
<text text-anchor="middle" x="462.5" y="-62" font-family="Helvetica,sans-Serif" font-size="10.00">QPrinter</text>
</a>
</g>
</g>
<!-- Node8&#45;&gt;Node11 -->
<g id="edge16_Node000008_Node000011" class="edge">
<title>Node8&#45;&gt;Node11</title>
<g id="a_edge16_Node000008_Node000011"><a xlink:title=" ">
<path fill="none" stroke="#63b8ff" d="M363.46,-109.98C382.53,-101.42 412.16,-88.11 434.05,-78.28"/>
<polygon fill="#63b8ff" stroke="#63b8ff" points="435.51,-81.46 443.2,-74.17 432.64,-75.07 435.51,-81.46"/>
</a>
</g>
</g>
<!-- Node12 -->
<g id="Node000012" class="node">
<title>Node12</title>
<g id="a_Node000012"><a xlink:title=" ">
<polygon fill="#e0e0e0" stroke="#999999" points="199,-74 148,-74 148,-55 199,-55 199,-74"/>
<text text-anchor="middle" x="173.5" y="-62" font-family="Helvetica,sans-Serif" font-size="10.00">csignal</text>
</a>
</g>
</g>
<!-- Node8&#45;&gt;Node12 -->
<g id="edge17_Node000008_Node000012" class="edge">
<title>Node8&#45;&gt;Node12</title>
<g id="a_edge17_Node000008_Node000012"><a xlink:title=" ">
<path fill="none" stroke="#63b8ff" d="M317.03,-109.98C287.72,-100.9 241.2,-86.48 209.1,-76.53"/>
<polygon fill="#63b8ff" stroke="#63b8ff" points="209.82,-73.09 199.23,-73.47 207.74,-79.78 209.82,-73.09"/>
</a>
</g>
</g>
<!-- Node13 -->
<g id="Node000013" class="node">
<title>Node13</title>
<g id="a_Node000013"><a xlink:href="../../d4/d82/debugbreak_8h.html" target="_top" xlink:title=" ">
<polygon fill="white" stroke="#666666" points="300,-74 217,-74 217,-55 300,-55 300,-74"/>
<text text-anchor="middle" x="258.5" y="-62" font-family="Helvetica,sans-Serif" font-size="10.00">debugbreak.h</text>
</a>
</g>
</g>
<!-- Node8&#45;&gt;Node13 -->
<g id="edge18_Node000008_Node000013" class="edge">
<title>Node8&#45;&gt;Node13</title>
<g id="a_edge18_Node000008_Node000013"><a xlink:title=" ">
<path fill="none" stroke="#63b8ff" d="M330.68,-109.98C317.35,-101.77 296.92,-89.18 281.19,-79.49"/>
<polygon fill="#63b8ff" stroke="#63b8ff" points="282.92,-76.44 272.57,-74.17 279.25,-82.4 282.92,-76.44"/>
</a>
</g>
</g>
<!-- Node14 -->
<g id="Node000014" class="node">
<title>Node14</title>
<g id="a_Node000014"><a xlink:title=" ">
<polygon fill="#e0e0e0" stroke="#999999" points="286,-19 231,-19 231,0 286,0 286,-19"/>
<text text-anchor="middle" x="258.5" y="-7" font-family="Helvetica,sans-Serif" font-size="10.00">signal.h</text>
</a>
</g>
</g>
<!-- Node13&#45;&gt;Node14 -->
<g id="edge19_Node000013_Node000014" class="edge">
<title>Node13&#45;&gt;Node14</title>
<g id="a_edge19_Node000013_Node000014"><a xlink:title=" ">
<path fill="none" stroke="#63b8ff" d="M258.5,-54.75C258.5,-47.8 258.5,-37.85 258.5,-29.13"/>
<polygon fill="#63b8ff" stroke="#63b8ff" points="262,-29.09 258.5,-19.09 255,-29.09 262,-29.09"/>
</a>
</g>
</g>
<!-- Node15&#45;&gt;Node5 -->
<g id="edge21_Node000015_Node000005" class="edge">
<title>Node15&#45;&gt;Node5</title>
<g id="a_edge21_Node000015_Node000005"><a xlink:title=" ">
<path fill="none" stroke="#63b8ff" d="M206.26,-109.98C185.8,-101.38 153.97,-87.99 130.57,-78.15"/>
<polygon fill="#63b8ff" stroke="#63b8ff" points="131.69,-74.82 121.11,-74.17 128.97,-81.27 131.69,-74.82"/>
</a>
</g>
</g>
<!-- Node16&#45;&gt;Node3 -->
<g id="edge23_Node000016_Node000003" class="edge">
<title>Node16&#45;&gt;Node3</title>
<g id="a_edge23_Node000016_Node000003"><a xlink:title=" ">
<path fill="none" stroke="#63b8ff" d="M500.81,-219.93C501.66,-206.97 504.82,-182.08 516.5,-165 544.49,-124.07 595.2,-94.33 627.29,-78.51"/>
<polygon fill="#63b8ff" stroke="#63b8ff" points="629.1,-81.53 636.61,-74.05 626.08,-75.21 629.1,-81.53"/>
</a>
</g>
</g>
<!-- Node16&#45;&gt;Node4 -->
<g id="edge26_Node000016_Node000004" class="edge">
<title>Node16&#45;&gt;Node4</title>
<g id="a_edge26_Node000016_Node000004"><a xlink:title=" ">
<path fill="none" stroke="#63b8ff" d="M460.27,-226.05C383.59,-219.86 213.26,-198.72 90.5,-129 69.76,-117.22 51.04,-96.97 39.28,-82.5"/>
<polygon fill="#63b8ff" stroke="#63b8ff" points="41.82,-80.08 32.9,-74.37 36.31,-84.4 41.82,-80.08"/>
</a>
</g>
</g>
<!-- Node16&#45;&gt;Node6 -->
<g id="edge27_Node000016_Node000006" class="edge">
<title>Node16&#45;&gt;Node6</title>
<g id="a_edge27_Node000016_Node000006"><a xlink:title=" ">
<path fill="none" stroke="#63b8ff" d="M475.44,-219.98C449.47,-211.16 408.69,-197.31 379.54,-187.41"/>
<polygon fill="#63b8ff" stroke="#63b8ff" points="380.35,-183.99 369.76,-184.08 378.1,-190.61 380.35,-183.99"/>
</a>
</g>
</g>
<!-- Node17 -->
<g id="Node000017" class="node">
<title>Node17</title>
<g id="a_Node000017"><a xlink:title=" ">
<polygon fill="#e0e0e0" stroke="#999999" points="626,-184 525,-184 525,-165 626,-165 626,-184"/>
<text text-anchor="middle" x="575.5" y="-172" font-family="Helvetica,sans-Serif" font-size="10.00">QCoreApplication</text>
</a>
</g>
</g>
<!-- Node16&#45;&gt;Node17 -->
<g id="edge24_Node000016_Node000017" class="edge">
<title>Node16&#45;&gt;Node17</title>
<g id="a_edge24_Node000016_Node000017"><a xlink:title=" ">
<path fill="none" stroke="#63b8ff" d="M512.55,-219.98C523.96,-211.92 541.33,-199.65 554.93,-190.03"/>
<polygon fill="#63b8ff" stroke="#63b8ff" points="557.08,-192.8 563.23,-184.17 553.04,-187.08 557.08,-192.8"/>
</a>
</g>
</g>
<!-- Node18 -->
<g id="Node000018" class="node">
<title>Node18</title>
<g id="a_Node000018"><a xlink:title=" ">
<polygon fill="#e0e0e0" stroke="#999999" points="716.5,-184 644.5,-184 644.5,-165 716.5,-165 716.5,-184"/>
<text text-anchor="middle" x="680.5" y="-172" font-family="Helvetica,sans-Serif" font-size="10.00">QException</text>
</a>
</g>
</g>
<!-- Node16&#45;&gt;Node18 -->
<g id="edge25_Node000016_Node000018" class="edge">
<title>Node16&#45;&gt;Node18</title>
<g id="a_edge25_Node000016_Node000018"><a xlink:title=" ">
<path fill="none" stroke="#63b8ff" d="M529.42,-219.98C559.77,-211.05 607.67,-196.94 641.38,-187.02"/>
<polygon fill="#63b8ff" stroke="#63b8ff" points="642.75,-190.26 651.35,-184.08 640.77,-183.55 642.75,-190.26"/>
</a>
</g>
</g>
</g>
</svg>
