<?xml version="1.0" encoding="UTF-8" standalone="no"?>
<!DOCTYPE svg PUBLIC "-//W3C//DTD SVG 1.1//EN"
 "http://www.w3.org/Graphics/SVG/1.1/DTD/svg11.dtd">
<!-- Generated by graphviz version 2.43.0 (0)
 -->
<!-- Title: src/libs/ifc/xml/vvitconverter.h Pages: 1 -->
<!--zoomable 247 -->

<svg id="main" version="1.1" xmlns="http://www.w3.org/2000/svg" xmlns:xlink="http://www.w3.org/1999/xlink" xml:space="preserve" onload="init(evt)">
<style type="text/css"><![CDATA[
.node, .edge {opacity: 0.7;}
.node.selected, .edge.selected {opacity: 1;}
.edge:hover path { stroke: red; }
.edge:hover polygon { stroke: red; fill: red; }
]]></style>

<defs>
  <circle id="rim" cx="0" cy="0" r="7"/>
  <circle id="rim2" cx="0" cy="0" r="3.5"/>
  <g id="zoomPlus">
    <use xlink:href="#rim" fill="#404040"><set attributeName="fill" to="#808080" begin="zoomplus.mouseover" end="zoomplus.mouseout"/></use>
    <path d="M-4,0h8M0,-4v8" fill="none" stroke="white" stroke-width="1.5" pointer-events="none"/>
  </g>
  <g id="zoomMin">
    <use xlink:href="#rim" fill="#404040"><set attributeName="fill" to="#808080" begin="zoomminus.mouseover" end="zoomminus.mouseout"/></use>
    <path d="M-4,0h8" fill="none" stroke="white" stroke-width="1.5" pointer-events="none"/>
  </g>
  <g id="arrowUp" transform="translate(30 24)">
    <use xlink:href="#rim"/>
    <path pointer-events="none" fill="none" stroke="white" stroke-width="1.5" d="M0,-3.0v7 M-2.5,-0.5L0,-3.0L2.5,-0.5"/>
  </g>
  <g id="arrowRight" transform="rotate(90) translate(36 -43)">
    <use xlink:href="#rim"/>
    <path pointer-events="none" fill="none" stroke="white" stroke-width="1.5" d="M0,-3.0v7 M-2.5,-0.5L0,-3.0L2.5,-0.5"/>
  </g>
  <g id="arrowDown" transform="rotate(180) translate(-30 -48)">
    <use xlink:href="#rim"/>
    <path pointer-events="none" fill="none" stroke="white" stroke-width="1.5" d="M0,-3.0v7 M-2.5,-0.5L0,-3.0L2.5,-0.5"/>
  </g>
  <g id="arrowLeft" transform="rotate(270) translate(-36 17)">
    <use xlink:href="#rim"/>
    <path pointer-events="none" fill="none" stroke="white" stroke-width="1.5" d="M0,-3.0v7 M-2.5,-0.5L0,-3.0L2.5,-0.5"/>
  </g>
  <g id="resetDef">
    <use xlink:href="#rim2" fill="#404040"><set attributeName="fill" to="#808080" begin="reset.mouseover" end="reset.mouseout"/></use>
  </g>
</defs>
<script type="application/ecmascript">
var viewWidth = 1589;
var viewHeight = 247;
var sectionId = 'dynsection-0';
</script>
<script type="application/ecmascript" xlink:href="../../svg.min.js"/>
<svg id="graph" class="graph">
<g id="viewport">
<title>src/libs/ifc/xml/vvitconverter.h</title>
<!-- Node1 -->
<g id="Node000001" class="node">
<title>Node1</title>
<g id="a_Node000001"><a xlink:title=" ">
<polygon fill="#999999" stroke="#666666" points="993.5,-239 829.5,-239 829.5,-220 993.5,-220 993.5,-239"/>
<text text-anchor="middle" x="911.5" y="-227" font-family="Helvetica,sans-Serif" font-size="10.00">src/libs/ifc/xml/vvitconverter.h</text>
</a>
</g>
</g>
<!-- Node2 -->
<g id="Node000002" class="node">
<title>Node2</title>
<g id="a_Node000002"><a xlink:title=" ">
<polygon fill="#e0e0e0" stroke="#999999" points="756.5,-74 636.5,-74 636.5,-55 756.5,-55 756.5,-74"/>
<text text-anchor="middle" x="696.5" y="-62" font-family="Helvetica,sans-Serif" font-size="10.00">qcompilerdetection.h</text>
</a>
</g>
</g>
<!-- Node1&#45;&gt;Node2 -->
<g id="edge1_Node000001_Node000002" class="edge">
<title>Node1&#45;&gt;Node2</title>
<g id="a_edge1_Node000001_Node000002"><a xlink:title=" ">
<path fill="none" stroke="#63b8ff" d="M855.68,-219.9C804.7,-208.72 732.43,-183.69 699.5,-129 691.41,-115.56 691.38,-97.46 692.95,-84.02"/>
<polygon fill="#63b8ff" stroke="#63b8ff" points="696.43,-84.46 694.51,-74.04 689.51,-83.38 696.43,-84.46"/>
</a>
</g>
</g>
<!-- Node3 -->
<g id="Node000003" class="node">
<title>Node3</title>
<g id="a_Node000003"><a xlink:title=" ">
<polygon fill="#e0e0e0" stroke="#999999" points="1581,-19 1480,-19 1480,0 1581,0 1581,-19"/>
<text text-anchor="middle" x="1530.5" y="-7" font-family="Helvetica,sans-Serif" font-size="10.00">QCoreApplication</text>
</a>
</g>
</g>
<!-- Node1&#45;&gt;Node3 -->
<g id="edge2_Node000001_Node000003" class="edge">
<title>Node1&#45;&gt;Node3</title>
<g id="a_edge2_Node000001_Node000003"><a xlink:title=" ">
<path fill="none" stroke="#63b8ff" d="M941.29,-219.95C970.91,-211.32 1017.56,-197.4 1057.5,-184 1225.35,-127.68 1423.47,-51.96 1499.06,-22.72"/>
<polygon fill="#63b8ff" stroke="#63b8ff" points="1500.43,-25.95 1508.49,-19.07 1497.9,-19.42 1500.43,-25.95"/>
</a>
</g>
</g>
<!-- Node4 -->
<g id="Node000004" class="node">
<title>Node4</title>
<g id="a_Node000004"><a xlink:title=" ">
<polygon fill="#e0e0e0" stroke="#999999" points="53,-19 0,-19 0,0 53,0 53,-19"/>
<text text-anchor="middle" x="26.5" y="-7" font-family="Helvetica,sans-Serif" font-size="10.00">QString</text>
</a>
</g>
</g>
<!-- Node1&#45;&gt;Node4 -->
<g id="edge3_Node000001_Node000004" class="edge">
<title>Node1&#45;&gt;Node4</title>
<g id="a_edge3_Node000001_Node000004"><a xlink:title=" ">
<path fill="none" stroke="#63b8ff" d="M871.66,-219.98C768.25,-197.69 482.91,-135.16 247.5,-74 182.08,-57 106.53,-34.71 62.86,-21.57"/>
<polygon fill="#63b8ff" stroke="#63b8ff" points="63.84,-18.21 53.25,-18.67 61.82,-24.91 63.84,-18.21"/>
</a>
</g>
</g>
<!-- Node5 -->
<g id="Node000005" class="node">
<title>Node5</title>
<g id="a_Node000005"><a xlink:title=" ">
<polygon fill="#e0e0e0" stroke="#999999" points="1462,-19 1403,-19 1403,0 1462,0 1462,-19"/>
<text text-anchor="middle" x="1432.5" y="-7" font-family="Helvetica,sans-Serif" font-size="10.00">QtGlobal</text>
</a>
</g>
</g>
<!-- Node1&#45;&gt;Node5 -->
<g id="edge4_Node000001_Node000005" class="edge">
<title>Node1&#45;&gt;Node5</title>
<g id="a_edge4_Node000001_Node000005"><a xlink:title=" ">
<path fill="none" stroke="#63b8ff" d="M931.92,-219.95C1012.33,-186.31 1307.28,-62.89 1402.59,-23.02"/>
<polygon fill="#63b8ff" stroke="#63b8ff" points="1404.06,-26.19 1411.94,-19.1 1401.36,-19.74 1404.06,-26.19"/>
</a>
</g>
</g>
<!-- Node6 -->
<g id="Node000006" class="node">
<title>Node6</title>
<g id="a_Node000006"><a xlink:href="../../d6/d2d/vabstractmconverter_8h.html" target="_top" xlink:title=" ">
<polygon fill="white" stroke="#666666" points="929,-184 802,-184 802,-165 929,-165 929,-184"/>
<text text-anchor="middle" x="865.5" y="-172" font-family="Helvetica,sans-Serif" font-size="10.00">vabstractmconverter.h</text>
</a>
</g>
</g>
<!-- Node1&#45;&gt;Node6 -->
<g id="edge5_Node000001_Node000006" class="edge">
<title>Node1&#45;&gt;Node6</title>
<g id="a_edge5_Node000001_Node000006"><a xlink:title=" ">
<path fill="none" stroke="#63b8ff" d="M903.9,-219.75C897.34,-212.18 887.68,-201.05 879.69,-191.84"/>
<polygon fill="#63b8ff" stroke="#63b8ff" points="882.15,-189.35 872.95,-184.09 876.87,-193.94 882.15,-189.35"/>
</a>
</g>
</g>
<!-- Node9 -->
<g id="Node000009" class="node">
<title>Node9</title>
<g id="a_Node000009"><a xlink:href="../../df/de4/vabstractconverter_8h.html" target="_top" xlink:title=" ">
<polygon fill="white" stroke="#666666" points="1016,-129 899,-129 899,-110 1016,-110 1016,-129"/>
<text text-anchor="middle" x="957.5" y="-117" font-family="Helvetica,sans-Serif" font-size="10.00">vabstractconverter.h</text>
</a>
</g>
</g>
<!-- Node1&#45;&gt;Node9 -->
<g id="edge34_Node000001_Node000009" class="edge">
<title>Node1&#45;&gt;Node9</title>
<g id="a_edge34_Node000001_Node000009"><a xlink:title=" ">
<path fill="none" stroke="#63b8ff" d="M917.28,-219.94C923,-211.2 931.7,-197.09 937.5,-184 943.94,-169.45 949.24,-152.19 952.76,-139.33"/>
<polygon fill="#63b8ff" stroke="#63b8ff" points="956.23,-139.91 955.38,-129.35 949.46,-138.14 956.23,-139.91"/>
</a>
</g>
</g>
<!-- Node6&#45;&gt;Node2 -->
<g id="edge6_Node000006_Node000002" class="edge">
<title>Node6&#45;&gt;Node2</title>
<g id="a_edge6_Node000006_Node000002"><a xlink:title=" ">
<path fill="none" stroke="#63b8ff" d="M866.18,-164.85C866.73,-151.32 865.72,-125.14 851.5,-110 838.22,-95.86 793.87,-83.98 756,-76.07"/>
<polygon fill="#63b8ff" stroke="#63b8ff" points="756.53,-72.6 746.03,-74.04 755.14,-79.46 756.53,-72.6"/>
</a>
</g>
</g>
<!-- Node6&#45;&gt;Node4 -->
<g id="edge9_Node000006_Node000004" class="edge">
<title>Node6&#45;&gt;Node4</title>
<g id="a_edge9_Node000006_Node000004"><a xlink:title=" ">
<path fill="none" stroke="#63b8ff" d="M817.39,-164.97C693.89,-142.91 355.49,-81.49 63.15,-19.06"/>
<polygon fill="#63b8ff" stroke="#63b8ff" points="63.72,-15.61 53.21,-16.94 62.25,-22.45 63.72,-15.61"/>
</a>
</g>
</g>
<!-- Node6&#45;&gt;Node5 -->
<g id="edge10_Node000006_Node000005" class="edge">
<title>Node6&#45;&gt;Node5</title>
<g id="a_edge10_Node000006_Node000005"><a xlink:title=" ">
<path fill="none" stroke="#63b8ff" d="M896.3,-164.97C928.35,-156.08 979.98,-141.69 1024.5,-129 1160.33,-90.27 1321.24,-43.18 1393.71,-21.9"/>
<polygon fill="#63b8ff" stroke="#63b8ff" points="1394.73,-25.25 1403.34,-19.08 1392.76,-18.53 1394.73,-25.25"/>
</a>
</g>
</g>
<!-- Node7 -->
<g id="Node000007" class="node">
<title>Node7</title>
<g id="a_Node000007"><a xlink:title=" ">
<polygon fill="#e0e0e0" stroke="#999999" points="754,-129 709,-129 709,-110 754,-110 754,-129"/>
<text text-anchor="middle" x="731.5" y="-117" font-family="Helvetica,sans-Serif" font-size="10.00">QMap</text>
</a>
</g>
</g>
<!-- Node6&#45;&gt;Node7 -->
<g id="edge7_Node000006_Node000007" class="edge">
<title>Node6&#45;&gt;Node7</title>
<g id="a_edge7_Node000006_Node000007"><a xlink:title=" ">
<path fill="none" stroke="#63b8ff" d="M843.97,-164.98C822.03,-156.3 787.76,-142.75 762.81,-132.88"/>
<polygon fill="#63b8ff" stroke="#63b8ff" points="764.01,-129.59 753.42,-129.17 761.43,-136.1 764.01,-129.59"/>
</a>
</g>
</g>
<!-- Node8 -->
<g id="Node000008" class="node">
<title>Node8</title>
<g id="a_Node000008"><a xlink:title=" ">
<polygon fill="#e0e0e0" stroke="#999999" points="842.5,-129 772.5,-129 772.5,-110 842.5,-110 842.5,-129"/>
<text text-anchor="middle" x="807.5" y="-117" font-family="Helvetica,sans-Serif" font-size="10.00">QMultiMap</text>
</a>
</g>
</g>
<!-- Node6&#45;&gt;Node8 -->
<g id="edge8_Node000006_Node000008" class="edge">
<title>Node6&#45;&gt;Node8</title>
<g id="a_edge8_Node000006_Node000008"><a xlink:title=" ">
<path fill="none" stroke="#63b8ff" d="M856.18,-164.98C847.69,-157.23 834.94,-145.58 824.62,-136.14"/>
<polygon fill="#63b8ff" stroke="#63b8ff" points="826.73,-133.33 816.99,-129.17 822.01,-138.5 826.73,-133.33"/>
</a>
</g>
</g>
<!-- Node6&#45;&gt;Node9 -->
<g id="edge11_Node000006_Node000009" class="edge">
<title>Node6&#45;&gt;Node9</title>
<g id="a_edge11_Node000006_Node000009"><a xlink:title=" ">
<path fill="none" stroke="#63b8ff" d="M880.28,-164.98C894.68,-156.69 916.81,-143.94 933.69,-134.22"/>
<polygon fill="#63b8ff" stroke="#63b8ff" points="935.53,-137.19 942.45,-129.17 932.04,-131.13 935.53,-137.19"/>
</a>
</g>
</g>
<!-- Node9&#45;&gt;Node2 -->
<g id="edge12_Node000009_Node000002" class="edge">
<title>Node9&#45;&gt;Node2</title>
<g id="a_edge12_Node000009_Node000002"><a xlink:title=" ">
<path fill="none" stroke="#63b8ff" d="M915.57,-109.98C870.23,-100.78 797.89,-86.09 748.85,-76.13"/>
<polygon fill="#63b8ff" stroke="#63b8ff" points="749.26,-72.64 738.76,-74.08 747.87,-79.5 749.26,-72.64"/>
</a>
</g>
</g>
<!-- Node9&#45;&gt;Node3 -->
<g id="edge13_Node000009_Node000003" class="edge">
<title>Node9&#45;&gt;Node3</title>
<g id="a_edge13_Node000009_Node000003"><a xlink:title=" ">
<path fill="none" stroke="#63b8ff" d="M1002.94,-109.94C1107,-90.32 1362.3,-42.2 1475.23,-20.92"/>
<polygon fill="#63b8ff" stroke="#63b8ff" points="1475.88,-24.36 1485.05,-19.07 1474.58,-17.48 1475.88,-24.36"/>
</a>
</g>
</g>
<!-- Node9&#45;&gt;Node4 -->
<g id="edge14_Node000009_Node000004" class="edge">
<title>Node9&#45;&gt;Node4</title>
<g id="a_edge14_Node000009_Node000004"><a xlink:title=" ">
<path fill="none" stroke="#63b8ff" d="M921.1,-109.98C889.5,-102.11 842.77,-89.34 803.5,-74 785.91,-67.13 783.76,-59.81 765.5,-55 466.2,23.79 374.2,-61.26 63.34,-18.78"/>
<polygon fill="#63b8ff" stroke="#63b8ff" points="63.52,-15.28 53.13,-17.35 62.55,-22.21 63.52,-15.28"/>
</a>
</g>
</g>
<!-- Node9&#45;&gt;Node5 -->
<g id="edge16_Node000009_Node000005" class="edge">
<title>Node9&#45;&gt;Node5</title>
<g id="a_edge16_Node000009_Node000005"><a xlink:title=" ">
<path fill="none" stroke="#63b8ff" d="M957.26,-109.88C957.39,-95.91 959.9,-68.51 976.5,-55 1046.49,1.94 1286.2,-30.92 1392.53,-18.92"/>
<polygon fill="#63b8ff" stroke="#63b8ff" points="1393.25,-22.35 1402.7,-17.56 1392.33,-15.41 1393.25,-22.35"/>
</a>
</g>
</g>
<!-- Node10 -->
<g id="Node000010" class="node">
<title>Node10</title>
<g id="a_Node000010"><a xlink:title=" ">
<polygon fill="#e0e0e0" stroke="#999999" points="1079,-74 986,-74 986,-55 1079,-55 1079,-74"/>
<text text-anchor="middle" x="1032.5" y="-62" font-family="Helvetica,sans-Serif" font-size="10.00">QTemporaryFile</text>
</a>
</g>
</g>
<!-- Node9&#45;&gt;Node10 -->
<g id="edge15_Node000009_Node000010" class="edge">
<title>Node9&#45;&gt;Node10</title>
<g id="a_edge15_Node000009_Node000010"><a xlink:title=" ">
<path fill="none" stroke="#63b8ff" d="M969.55,-109.98C980.96,-101.92 998.33,-89.65 1011.93,-80.03"/>
<polygon fill="#63b8ff" stroke="#63b8ff" points="1014.08,-82.8 1020.23,-74.17 1010.04,-77.08 1014.08,-82.8"/>
</a>
</g>
</g>
<!-- Node11 -->
<g id="Node000011" class="node">
<title>Node11</title>
<g id="a_Node000011"><a xlink:href="../../d8/da5/vdomdocument_8h.html" target="_top" xlink:title=" ">
<polygon fill="white" stroke="#666666" points="914.5,-74 812.5,-74 812.5,-55 914.5,-55 914.5,-74"/>
<text text-anchor="middle" x="863.5" y="-62" font-family="Helvetica,sans-Serif" font-size="10.00">vdomdocument.h</text>
</a>
</g>
</g>
<!-- Node9&#45;&gt;Node11 -->
<g id="edge17_Node000009_Node000011" class="edge">
<title>Node9&#45;&gt;Node11</title>
<g id="a_edge17_Node000009_Node000011"><a xlink:title=" ">
<path fill="none" stroke="#63b8ff" d="M942.4,-109.98C927.68,-101.69 905.08,-88.94 887.83,-79.22"/>
<polygon fill="#63b8ff" stroke="#63b8ff" points="889.31,-76.03 878.88,-74.17 885.87,-82.13 889.31,-76.03"/>
</a>
</g>
</g>
<!-- Node11&#45;&gt;Node3 -->
<g id="edge18_Node000011_Node000003" class="edge">
<title>Node11&#45;&gt;Node3</title>
<g id="a_edge18_Node000011_Node000003"><a xlink:title=" ">
<path fill="none" stroke="#63b8ff" d="M914.69,-59.62C934.05,-58.16 956.29,-56.49 976.5,-55 1193.15,-38.97 1250.48,-42.62 1469.77,-19.12"/>
<polygon fill="#63b8ff" stroke="#63b8ff" points="1470.43,-22.57 1480,-18.01 1469.68,-15.61 1470.43,-22.57"/>
</a>
</g>
</g>
<!-- Node11&#45;&gt;Node4 -->
<g id="edge25_Node000011_Node000004" class="edge">
<title>Node11&#45;&gt;Node4</title>
<g id="a_edge25_Node000011_Node000004"><a xlink:title=" ">
<path fill="none" stroke="#63b8ff" d="M812.45,-56.43C807.74,-55.89 803.03,-55.41 798.5,-55 475.65,-26.04 388.56,-64.03 63.32,-18.79"/>
<polygon fill="#63b8ff" stroke="#63b8ff" points="63.52,-15.29 53.13,-17.36 62.55,-22.22 63.52,-15.29"/>
</a>
</g>
</g>
<!-- Node11&#45;&gt;Node5 -->
<g id="edge28_Node000011_Node000005" class="edge">
<title>Node11&#45;&gt;Node5</title>
<g id="a_edge28_Node000011_Node000005"><a xlink:title=" ">
<path fill="none" stroke="#63b8ff" d="M914.69,-57.86C924.26,-56.86 934.18,-55.87 943.5,-55 1140.39,-36.68 1193.91,-48.61 1392.52,-19.11"/>
<polygon fill="#63b8ff" stroke="#63b8ff" points="1393.33,-22.53 1402.7,-17.58 1392.29,-15.6 1393.33,-22.53"/>
</a>
</g>
</g>
<!-- Node12 -->
<g id="Node000012" class="node">
<title>Node12</title>
<g id="a_Node000012"><a xlink:title=" ">
<polygon fill="#e0e0e0" stroke="#999999" points="1019.5,-19 921.5,-19 921.5,0 1019.5,0 1019.5,-19"/>
<text text-anchor="middle" x="970.5" y="-7" font-family="Helvetica,sans-Serif" font-size="10.00">QDomDocument</text>
</a>
</g>
</g>
<!-- Node11&#45;&gt;Node12 -->
<g id="edge19_Node000011_Node000012" class="edge">
<title>Node11&#45;&gt;Node12</title>
<g id="a_edge19_Node000011_Node000012"><a xlink:title=" ">
<path fill="none" stroke="#63b8ff" d="M880.69,-54.98C897.75,-46.54 924.13,-33.47 943.9,-23.68"/>
<polygon fill="#63b8ff" stroke="#63b8ff" points="945.59,-26.75 953,-19.17 942.48,-20.47 945.59,-26.75"/>
</a>
</g>
</g>
<!-- Node13 -->
<g id="Node000013" class="node">
<title>Node13</title>
<g id="a_Node000013"><a xlink:title=" ">
<polygon fill="#e0e0e0" stroke="#999999" points="1125.5,-19 1037.5,-19 1037.5,0 1125.5,0 1125.5,-19"/>
<text text-anchor="middle" x="1081.5" y="-7" font-family="Helvetica,sans-Serif" font-size="10.00">QDomElement</text>
</a>
</g>
</g>
<!-- Node11&#45;&gt;Node13 -->
<g id="edge20_Node000011_Node000013" class="edge">
<title>Node11&#45;&gt;Node13</title>
<g id="a_edge20_Node000011_Node000013"><a xlink:title=" ">
<path fill="none" stroke="#63b8ff" d="M898.53,-54.98C936,-45.87 995.55,-31.4 1036.48,-21.45"/>
<polygon fill="#63b8ff" stroke="#63b8ff" points="1037.31,-24.85 1046.2,-19.08 1035.66,-18.04 1037.31,-24.85"/>
</a>
</g>
</g>
<!-- Node14 -->
<g id="Node000014" class="node">
<title>Node14</title>
<g id="a_Node000014"><a xlink:title=" ">
<polygon fill="#e0e0e0" stroke="#999999" points="1217,-19 1144,-19 1144,0 1217,0 1217,-19"/>
<text text-anchor="middle" x="1180.5" y="-7" font-family="Helvetica,sans-Serif" font-size="10.00">QDomNode</text>
</a>
</g>
</g>
<!-- Node11&#45;&gt;Node14 -->
<g id="edge21_Node000011_Node000014" class="edge">
<title>Node11&#45;&gt;Node14</title>
<g id="a_edge21_Node000011_Node000014"><a xlink:title=" ">
<path fill="none" stroke="#63b8ff" d="M914.75,-55.4C967.15,-47.04 1051.17,-33.45 1133.79,-19.09"/>
<polygon fill="#63b8ff" stroke="#63b8ff" points="1134.6,-22.5 1143.85,-17.34 1133.4,-15.61 1134.6,-22.5"/>
</a>
</g>
</g>
<!-- Node15 -->
<g id="Node000015" class="node">
<title>Node15</title>
<g id="a_Node000015"><a xlink:title=" ">
<polygon fill="#e0e0e0" stroke="#999999" points="1284,-19 1235,-19 1235,0 1284,0 1284,-19"/>
<text text-anchor="middle" x="1259.5" y="-7" font-family="Helvetica,sans-Serif" font-size="10.00">QHash</text>
</a>
</g>
</g>
<!-- Node11&#45;&gt;Node15 -->
<g id="edge22_Node000011_Node000015" class="edge">
<title>Node11&#45;&gt;Node15</title>
<g id="a_edge22_Node000011_Node000015"><a xlink:title=" ">
<path fill="none" stroke="#63b8ff" d="M914.66,-58.06C996.02,-49.28 1152.38,-31.82 1224.67,-19.1"/>
<polygon fill="#63b8ff" stroke="#63b8ff" points="1225.51,-22.5 1234.71,-17.25 1224.24,-15.62 1225.51,-22.5"/>
</a>
</g>
</g>
<!-- Node16 -->
<g id="Node000016" class="node">
<title>Node16</title>
<g id="a_Node000016"><a xlink:title=" ">
<polygon fill="#e0e0e0" stroke="#999999" points="1385,-19 1302,-19 1302,0 1385,0 1385,-19"/>
<text text-anchor="middle" x="1343.5" y="-7" font-family="Helvetica,sans-Serif" font-size="10.00">QLatin1String</text>
</a>
</g>
</g>
<!-- Node11&#45;&gt;Node16 -->
<g id="edge23_Node000011_Node000016" class="edge">
<title>Node11&#45;&gt;Node16</title>
<g id="a_edge23_Node000011_Node000016"><a xlink:title=" ">
<path fill="none" stroke="#63b8ff" d="M914.71,-58.03C924.28,-57.02 934.19,-55.97 943.5,-55 1095.69,-39.09 1136.8,-40.06 1291.44,-19.21"/>
<polygon fill="#63b8ff" stroke="#63b8ff" points="1292.35,-22.62 1301.79,-17.8 1291.41,-15.68 1292.35,-22.62"/>
</a>
</g>
</g>
<!-- Node17 -->
<g id="Node000017" class="node">
<title>Node17</title>
<g id="a_Node000017"><a xlink:title=" ">
<polygon fill="#e0e0e0" stroke="#999999" points="175.5,-19 71.5,-19 71.5,0 175.5,0 175.5,-19"/>
<text text-anchor="middle" x="123.5" y="-7" font-family="Helvetica,sans-Serif" font-size="10.00">QStaticStringData</text>
</a>
</g>
</g>
<!-- Node11&#45;&gt;Node17 -->
<g id="edge24_Node000011_Node000017" class="edge">
<title>Node11&#45;&gt;Node17</title>
<g id="a_edge24_Node000011_Node000017"><a xlink:title=" ">
<path fill="none" stroke="#63b8ff" d="M812.44,-56.47C807.73,-55.93 803.03,-55.43 798.5,-55 529.68,-29.58 458.27,-45.49 185.9,-19.05"/>
<polygon fill="#63b8ff" stroke="#63b8ff" points="186,-15.55 175.71,-18.05 185.32,-22.51 186,-15.55"/>
</a>
</g>
</g>
<!-- Node18 -->
<g id="Node000018" class="node">
<title>Node18</title>
<g id="a_Node000018"><a xlink:title=" ">
<polygon fill="#e0e0e0" stroke="#999999" points="269.5,-19 193.5,-19 193.5,0 269.5,0 269.5,-19"/>
<text text-anchor="middle" x="231.5" y="-7" font-family="Helvetica,sans-Serif" font-size="10.00">QStringData</text>
</a>
</g>
</g>
<!-- Node11&#45;&gt;Node18 -->
<g id="edge26_Node000011_Node000018" class="edge">
<title>Node11&#45;&gt;Node18</title>
<g id="a_edge26_Node000011_Node000018"><a xlink:title=" ">
<path fill="none" stroke="#63b8ff" d="M812.44,-56.52C807.73,-55.97 803.03,-55.45 798.5,-55 571.25,-32.3 510.11,-47.22 279.7,-19.01"/>
<polygon fill="#63b8ff" stroke="#63b8ff" points="280.02,-15.52 269.67,-17.76 279.16,-22.47 280.02,-15.52"/>
</a>
</g>
</g>
<!-- Node19 -->
<g id="Node000019" class="node">
<title>Node19</title>
<g id="a_Node000019"><a xlink:title=" ">
<polygon fill="#e0e0e0" stroke="#999999" points="377,-19 288,-19 288,0 377,0 377,-19"/>
<text text-anchor="middle" x="332.5" y="-7" font-family="Helvetica,sans-Serif" font-size="10.00">QStringDataPtr</text>
</a>
</g>
</g>
<!-- Node11&#45;&gt;Node19 -->
<g id="edge27_Node000011_Node000019" class="edge">
<title>Node11&#45;&gt;Node19</title>
<g id="a_edge27_Node000011_Node000019"><a xlink:title=" ">
<path fill="none" stroke="#63b8ff" d="M812.43,-56.61C807.72,-56.04 803.03,-55.49 798.5,-55 618.55,-35.4 570.05,-41.38 387.23,-19.14"/>
<polygon fill="#63b8ff" stroke="#63b8ff" points="387.64,-15.66 377.29,-17.92 386.79,-22.61 387.64,-15.66"/>
</a>
</g>
</g>
<!-- Node20 -->
<g id="Node000020" class="node">
<title>Node20</title>
<g id="a_Node000020"><a xlink:title=" ">
<polygon fill="#e0e0e0" stroke="#999999" points="450.5,-19 394.5,-19 394.5,0 450.5,0 450.5,-19"/>
<text text-anchor="middle" x="422.5" y="-7" font-family="Helvetica,sans-Serif" font-size="10.00">QLocale</text>
</a>
</g>
</g>
<!-- Node11&#45;&gt;Node20 -->
<g id="edge29_Node000011_Node000020" class="edge">
<title>Node11&#45;&gt;Node20</title>
<g id="a_edge29_Node000011_Node000020"><a xlink:title=" ">
<path fill="none" stroke="#63b8ff" d="M812.42,-56.7C807.72,-56.11 803.02,-55.54 798.5,-55 651.27,-37.56 610.67,-43.72 460.75,-19.02"/>
<polygon fill="#63b8ff" stroke="#63b8ff" points="461.15,-15.54 450.71,-17.35 460,-22.44 461.15,-15.54"/>
</a>
</g>
</g>
<!-- Node21 -->
<g id="Node000021" class="node">
<title>Node21</title>
<g id="a_Node000021"><a xlink:title=" ">
<polygon fill="#e0e0e0" stroke="#999999" points="546,-19 469,-19 469,0 546,0 546,-19"/>
<text text-anchor="middle" x="507.5" y="-7" font-family="Helvetica,sans-Serif" font-size="10.00">../ifc/ifcdef.h</text>
</a>
</g>
</g>
<!-- Node11&#45;&gt;Node21 -->
<g id="edge30_Node000011_Node000021" class="edge">
<title>Node11&#45;&gt;Node21</title>
<g id="a_edge30_Node000011_Node000021"><a xlink:title=" ">
<path fill="none" stroke="#63b8ff" d="M812.47,-56.63C753.34,-48.56 652.74,-34.49 556.19,-19.07"/>
<polygon fill="#63b8ff" stroke="#63b8ff" points="556.68,-15.6 546.25,-17.47 555.57,-22.51 556.68,-15.6"/>
</a>
</g>
</g>
<!-- Node22 -->
<g id="Node000022" class="node">
<title>Node22</title>
<g id="a_Node000022"><a xlink:title=" ">
<polygon fill="#e0e0e0" stroke="#999999" points="646.5,-19 564.5,-19 564.5,0 646.5,0 646.5,-19"/>
<text text-anchor="middle" x="605.5" y="-7" font-family="Helvetica,sans-Serif" font-size="10.00">../vmisc/def.h</text>
</a>
</g>
</g>
<!-- Node11&#45;&gt;Node22 -->
<g id="edge31_Node000011_Node000022" class="edge">
<title>Node11&#45;&gt;Node22</title>
<g id="a_edge31_Node000011_Node000022"><a xlink:title=" ">
<path fill="none" stroke="#63b8ff" d="M822.05,-54.98C777.1,-45.75 705.3,-31 656.82,-21.04"/>
<polygon fill="#63b8ff" stroke="#63b8ff" points="657.35,-17.58 646.85,-18.99 655.94,-24.43 657.35,-17.58"/>
</a>
</g>
</g>
<!-- Node23 -->
<g id="Node000023" class="node">
<title>Node23</title>
<g id="a_Node000023"><a xlink:title=" ">
<polygon fill="#e0e0e0" stroke="#999999" points="782,-19 665,-19 665,0 782,0 782,-19"/>
<text text-anchor="middle" x="723.5" y="-7" font-family="Helvetica,sans-Serif" font-size="10.00">../vmisc/diagnostic.h</text>
</a>
</g>
</g>
<!-- Node11&#45;&gt;Node23 -->
<g id="edge32_Node000011_Node000023" class="edge">
<title>Node11&#45;&gt;Node23</title>
<g id="a_edge32_Node000011_Node000023"><a xlink:title=" ">
<path fill="none" stroke="#63b8ff" d="M841.01,-54.98C817.98,-46.27 781.96,-32.63 755.87,-22.75"/>
<polygon fill="#63b8ff" stroke="#63b8ff" points="756.99,-19.44 746.4,-19.17 754.52,-25.98 756.99,-19.44"/>
</a>
</g>
</g>
<!-- Node24 -->
<g id="Node000024" class="node">
<title>Node24</title>
<g id="a_Node000024"><a xlink:title=" ">
<polygon fill="#e0e0e0" stroke="#999999" points="903,-19 800,-19 800,0 903,0 903,-19"/>
<text text-anchor="middle" x="851.5" y="-7" font-family="Helvetica,sans-Serif" font-size="10.00">../vmisc/logging.h</text>
</a>
</g>
</g>
<!-- Node11&#45;&gt;Node24 -->
<g id="edge33_Node000011_Node000024" class="edge">
<title>Node11&#45;&gt;Node24</title>
<g id="a_edge33_Node000011_Node000024"><a xlink:title=" ">
<path fill="none" stroke="#63b8ff" d="M861.52,-54.75C859.93,-47.72 857.64,-37.62 855.65,-28.84"/>
<polygon fill="#63b8ff" stroke="#63b8ff" points="859.07,-28.07 853.44,-19.09 852.24,-29.62 859.07,-28.07"/>
</a>
</g>
</g>
</g>
</svg>

<g id="navigator" transform="translate(0 0)" fill="#404254">
  <rect fill="#f2f5e9" fill-opacity="0.5" stroke="#606060" stroke-width=".5" x="0" y="0" width="60" height="60"/>
  <use id="zoomplus" xlink:href="#zoomPlus" x="17" y="9" onmousedown="handleZoom(evt,'in')"/>
  <use id="zoomminus" xlink:href="#zoomMin" x="42" y="9" onmousedown="handleZoom(evt,'out')"/>
  <use id="reset" xlink:href="#resetDef" x="30" y="36" onmousedown="handleReset()"/>
   <use id="arrowup" xlink:href="#arrowUp" x="0" y="0" onmousedown="handlePan(0,-1)"/>
  <use id="arrowright" xlink:href="#arrowRight" x="0" y="0" onmousedown="handlePan(1,0)"/>
  <use id="arrowdown" xlink:href="#arrowDown" x="0" y="0" onmousedown="handlePan(0,1)"/>
  <use id="arrowleft" xlink:href="#arrowLeft" x="0" y="0" onmousedown="handlePan(-1,0)"/>
</g>
<svg viewBox="0 0 15 15" width="100%" height="30px" preserveAspectRatio="xMaxYMin meet">
 <g id="arrow_out" transform="scale(0.3 0.3)">
  <a xlink:href="vvitconverter_8h__incl_org.svg" target="_base">
   <rect id="button" ry="5" rx="5" y="6" x="6" height="38" width="38"
        fill="#f2f5e9" fill-opacity="0.5" stroke="#606060" stroke-width="1.0"/>
   <path id="arrow"
     d="M 11.500037,31.436501 C 11.940474,20.09759 22.043105,11.32322 32.158766,21.979434 L 37.068811,17.246167 C 37.068811,17.246167 37.088388,32 37.088388,32 L 22.160133,31.978069 C 22.160133,31.978069 26.997745,27.140456 26.997745,27.140456 C 18.528582,18.264221 13.291696,25.230495 11.500037,31.436501 z"
     style="fill:#404040;"/>
  </a>
 </g>
</svg>

<style type='text/css'>
<![CDATA[
[data-mouse-over-selected='false'] { opacity: 0.7; }
[data-mouse-over-selected='true']  { opacity: 1.0; }
]]>
</style>
<script type="application/ecmascript"><![CDATA[
document.addEventListener('DOMContentLoaded', (event) => {
  highlightEdges();
  highlightAdjacentNodes();
});
]]></script>
</svg>
