<?xml version="1.0" encoding="UTF-8" standalone="no"?>
<!DOCTYPE svg PUBLIC "-//W3C//DTD SVG 1.1//EN"
 "http://www.w3.org/Graphics/SVG/1.1/DTD/svg11.dtd">
<!-- Generated by graphviz version 2.43.0 (0)
 -->
<!-- Title: src/libs/vgeometry/vgobject.cpp Pages: 1 -->
<svg width="967pt" height="313pt"
 viewBox="0.00 0.00 966.50 313.00" xmlns="http://www.w3.org/2000/svg" xmlns:xlink="http://www.w3.org/1999/xlink">
<g id="graph0" class="graph" transform="scale(1 1) rotate(0) translate(4 309)">
<title>src/libs/vgeometry/vgobject.cpp</title>
<!-- Node1 -->
<g id="Node000001" class="node">
<title>Node1</title>
<g id="a_Node000001"><a xlink:title=" ">
<polygon fill="#999999" stroke="#666666" points="367.5,-305 260.5,-305 260.5,-275 367.5,-275 367.5,-305"/>
<text text-anchor="start" x="268.5" y="-293" font-family="Helvetica,sans-Serif" font-size="10.00">src/libs/vgeometry</text>
<text text-anchor="middle" x="314" y="-282" font-family="Helvetica,sans-Serif" font-size="10.00">/vgobject.cpp</text>
</a>
</g>
</g>
<!-- Node2 -->
<g id="Node000002" class="node">
<title>Node2</title>
<g id="a_Node000002"><a xlink:href="../../d2/d07/vgobject_8h.html" target="_top" xlink:title=" ">
<polygon fill="white" stroke="#666666" points="518,-239 450,-239 450,-220 518,-220 518,-239"/>
<text text-anchor="middle" x="484" y="-227" font-family="Helvetica,sans-Serif" font-size="10.00">vgobject.h</text>
</a>
</g>
</g>
<!-- Node1&#45;&gt;Node2 -->
<g id="edge1_Node000001_Node000002" class="edge">
<title>Node1&#45;&gt;Node2</title>
<g id="a_edge1_Node000001_Node000002"><a xlink:title=" ">
<path fill="none" stroke="#63b8ff" d="M354.72,-274.99C383.59,-265.05 421.91,-251.86 449.33,-242.43"/>
<polygon fill="#63b8ff" stroke="#63b8ff" points="450.58,-245.7 458.89,-239.14 448.3,-239.08 450.58,-245.7"/>
</a>
</g>
</g>
<!-- Node9 -->
<g id="Node000009" class="node">
<title>Node9</title>
<g id="a_Node000009"><a xlink:title=" ">
<polygon fill="#e0e0e0" stroke="#999999" points="91,-239 47,-239 47,-220 91,-220 91,-239"/>
<text text-anchor="middle" x="69" y="-227" font-family="Helvetica,sans-Serif" font-size="10.00">QLine</text>
</a>
</g>
</g>
<!-- Node1&#45;&gt;Node9 -->
<g id="edge8_Node000001_Node000009" class="edge">
<title>Node1&#45;&gt;Node9</title>
<g id="a_edge8_Node000001_Node000009"><a xlink:title=" ">
<path fill="none" stroke="#63b8ff" d="M260.23,-276.16C211.51,-264.53 141.34,-247.77 100.94,-238.13"/>
<polygon fill="#63b8ff" stroke="#63b8ff" points="101.64,-234.7 91.1,-235.78 100.01,-241.5 101.64,-234.7"/>
</a>
</g>
</g>
<!-- Node10 -->
<g id="Node000010" class="node">
<title>Node10</title>
<g id="a_Node000010"><a xlink:title=" ">
<polygon fill="#e0e0e0" stroke="#999999" points="50,-74 0,-74 0,-55 50,-55 50,-74"/>
<text text-anchor="middle" x="25" y="-62" font-family="Helvetica,sans-Serif" font-size="10.00">QLineF</text>
</a>
</g>
</g>
<!-- Node1&#45;&gt;Node10 -->
<g id="edge9_Node000001_Node000010" class="edge">
<title>Node1&#45;&gt;Node10</title>
<g id="a_edge9_Node000001_Node000010"><a xlink:title=" ">
<path fill="none" stroke="#63b8ff" d="M260.22,-286.84C188.42,-282.73 66.92,-271.11 38,-239 -1.04,-195.66 11.42,-118.99 19.9,-83.93"/>
<polygon fill="#63b8ff" stroke="#63b8ff" points="23.33,-84.66 22.44,-74.1 16.55,-82.9 23.33,-84.66"/>
</a>
</g>
</g>
<!-- Node11 -->
<g id="Node000011" class="node">
<title>Node11</title>
<g id="a_Node000011"><a xlink:title=" ">
<polygon fill="#e0e0e0" stroke="#999999" points="196.5,-239 147.5,-239 147.5,-220 196.5,-220 196.5,-239"/>
<text text-anchor="middle" x="172" y="-227" font-family="Helvetica,sans-Serif" font-size="10.00">QPoint</text>
</a>
</g>
</g>
<!-- Node1&#45;&gt;Node11 -->
<g id="edge10_Node000001_Node000011" class="edge">
<title>Node1&#45;&gt;Node11</title>
<g id="a_edge10_Node000001_Node000011"><a xlink:title=" ">
<path fill="none" stroke="#63b8ff" d="M279.99,-274.99C256.4,-265.27 225.26,-252.44 202.48,-243.06"/>
<polygon fill="#63b8ff" stroke="#63b8ff" points="203.55,-239.71 192.97,-239.14 200.88,-246.18 203.55,-239.71"/>
</a>
</g>
</g>
<!-- Node12 -->
<g id="Node000012" class="node">
<title>Node12</title>
<g id="a_Node000012"><a xlink:title=" ">
<polygon fill="#e0e0e0" stroke="#999999" points="269.5,-239 214.5,-239 214.5,-220 269.5,-220 269.5,-239"/>
<text text-anchor="middle" x="242" y="-227" font-family="Helvetica,sans-Serif" font-size="10.00">QPointF</text>
</a>
</g>
</g>
<!-- Node1&#45;&gt;Node12 -->
<g id="edge11_Node000001_Node000012" class="edge">
<title>Node1&#45;&gt;Node12</title>
<g id="a_edge11_Node000001_Node000012"><a xlink:title=" ">
<path fill="none" stroke="#63b8ff" d="M296.57,-274.84C285.69,-266 271.7,-254.63 260.61,-245.62"/>
<polygon fill="#63b8ff" stroke="#63b8ff" points="262.76,-242.86 252.79,-239.27 258.34,-248.29 262.76,-242.86"/>
</a>
</g>
</g>
<!-- Node13 -->
<g id="Node000013" class="node">
<title>Node13</title>
<g id="a_Node000013"><a xlink:title=" ">
<polygon fill="#e0e0e0" stroke="#999999" points="340,-239 288,-239 288,-220 340,-220 340,-239"/>
<text text-anchor="middle" x="314" y="-227" font-family="Helvetica,sans-Serif" font-size="10.00">QRectF</text>
</a>
</g>
</g>
<!-- Node1&#45;&gt;Node13 -->
<g id="edge12_Node000001_Node000013" class="edge">
<title>Node1&#45;&gt;Node13</title>
<g id="a_edge12_Node000001_Node000013"><a xlink:title=" ">
<path fill="none" stroke="#63b8ff" d="M314,-274.84C314,-267.21 314,-257.7 314,-249.45"/>
<polygon fill="#63b8ff" stroke="#63b8ff" points="317.5,-249.27 314,-239.27 310.5,-249.27 317.5,-249.27"/>
</a>
</g>
</g>
<!-- Node14 -->
<g id="Node000014" class="node">
<title>Node14</title>
<g id="a_Node000014"><a xlink:title=" ">
<polygon fill="#e0e0e0" stroke="#999999" points="431.5,-239 358.5,-239 358.5,-220 431.5,-220 431.5,-239"/>
<text text-anchor="middle" x="395" y="-227" font-family="Helvetica,sans-Serif" font-size="10.00">QTransform</text>
</a>
</g>
</g>
<!-- Node1&#45;&gt;Node14 -->
<g id="edge13_Node000001_Node000014" class="edge">
<title>Node1&#45;&gt;Node14</title>
<g id="a_edge13_Node000001_Node000014"><a xlink:title=" ">
<path fill="none" stroke="#63b8ff" d="M333.61,-274.84C345.97,-265.91 361.9,-254.41 374.43,-245.35"/>
<polygon fill="#63b8ff" stroke="#63b8ff" points="376.8,-247.96 382.86,-239.27 372.71,-242.28 376.8,-247.96"/>
</a>
</g>
</g>
<!-- Node15 -->
<g id="Node000015" class="node">
<title>Node15</title>
<g id="a_Node000015"><a xlink:href="../../d4/da4/def_8h.html" target="_top" xlink:title=" ">
<polygon fill="white" stroke="#666666" points="331,-129 249,-129 249,-110 331,-110 331,-129"/>
<text text-anchor="middle" x="290" y="-117" font-family="Helvetica,sans-Serif" font-size="10.00">../vmisc/def.h</text>
</a>
</g>
</g>
<!-- Node1&#45;&gt;Node15 -->
<g id="edge14_Node000001_Node000015" class="edge">
<title>Node1&#45;&gt;Node15</title>
<g id="a_edge14_Node000001_Node000015"><a xlink:title=" ">
<path fill="none" stroke="#63b8ff" d="M260.22,-280.84C214.4,-272.66 153.7,-258.49 139,-239 102.37,-190.44 194.75,-150.88 250.79,-132.18"/>
<polygon fill="#63b8ff" stroke="#63b8ff" points="252.02,-135.45 260.45,-129.04 249.86,-128.8 252.02,-135.45"/>
</a>
</g>
</g>
<!-- Node23 -->
<g id="Node000023" class="node">
<title>Node23</title>
<g id="a_Node000023"><a xlink:href="../../db/db3/vmath_8h.html" target="_top" xlink:title=" ">
<polygon fill="white" stroke="#666666" points="877,-239 779,-239 779,-220 877,-220 877,-239"/>
<text text-anchor="middle" x="828" y="-227" font-family="Helvetica,sans-Serif" font-size="10.00">../vmisc/vmath.h</text>
</a>
</g>
</g>
<!-- Node1&#45;&gt;Node23 -->
<g id="edge25_Node000001_Node000023" class="edge">
<title>Node1&#45;&gt;Node23</title>
<g id="a_edge25_Node000001_Node000023"><a xlink:title=" ">
<path fill="none" stroke="#63b8ff" d="M367.55,-282.91C464.38,-271.89 667.85,-248.73 768.72,-237.25"/>
<polygon fill="#63b8ff" stroke="#63b8ff" points="769.2,-240.72 778.74,-236.11 768.41,-233.76 769.2,-240.72"/>
</a>
</g>
</g>
<!-- Node25 -->
<g id="Node000025" class="node">
<title>Node25</title>
<g id="a_Node000025"><a xlink:href="../../d3/da5/ifcdef_8h.html" target="_top" xlink:title=" ">
<polygon fill="white" stroke="#666666" points="665.5,-184 588.5,-184 588.5,-165 665.5,-165 665.5,-184"/>
<text text-anchor="middle" x="627" y="-172" font-family="Helvetica,sans-Serif" font-size="10.00">../ifc/ifcdef.h</text>
</a>
</g>
</g>
<!-- Node1&#45;&gt;Node25 -->
<g id="edge27_Node000001_Node000025" class="edge">
<title>Node1&#45;&gt;Node25</title>
<g id="a_edge27_Node000001_Node000025"><a xlink:title=" ">
<path fill="none" stroke="#63b8ff" d="M367.63,-281.52C411.66,-274.19 475.01,-260.87 527,-239 557.41,-226.21 588.98,-204.51 608.31,-190.09"/>
<polygon fill="#63b8ff" stroke="#63b8ff" points="610.44,-192.87 616.28,-184.04 606.2,-187.3 610.44,-192.87"/>
</a>
</g>
</g>
<!-- Node27 -->
<g id="Node000027" class="node">
<title>Node27</title>
<g id="a_Node000027"><a xlink:href="../../d9/d69/vgobject__p_8h.html" target="_top" xlink:title=" ">
<polygon fill="white" stroke="#666666" points="666.5,-239 587.5,-239 587.5,-220 666.5,-220 666.5,-239"/>
<text text-anchor="middle" x="627" y="-227" font-family="Helvetica,sans-Serif" font-size="10.00">vgobject_p.h</text>
</a>
</g>
</g>
<!-- Node1&#45;&gt;Node27 -->
<g id="edge34_Node000001_Node000027" class="edge">
<title>Node1&#45;&gt;Node27</title>
<g id="a_edge34_Node000001_Node000027"><a xlink:title=" ">
<path fill="none" stroke="#63b8ff" d="M367.81,-278.94C426.67,-267.94 520.24,-250.45 577.39,-239.77"/>
<polygon fill="#63b8ff" stroke="#63b8ff" points="578.09,-243.2 587.28,-237.92 576.8,-236.32 578.09,-243.2"/>
</a>
</g>
</g>
<!-- Node3 -->
<g id="Node000003" class="node">
<title>Node3</title>
<g id="a_Node000003"><a xlink:title=" ">
<polygon fill="#e0e0e0" stroke="#999999" points="301,-184 185,-184 185,-165 301,-165 301,-184"/>
<text text-anchor="middle" x="243" y="-172" font-family="Helvetica,sans-Serif" font-size="10.00">QSharedDataPointer</text>
</a>
</g>
</g>
<!-- Node2&#45;&gt;Node3 -->
<g id="edge2_Node000002_Node000003" class="edge">
<title>Node2&#45;&gt;Node3</title>
<g id="a_edge2_Node000002_Node000003"><a xlink:title=" ">
<path fill="none" stroke="#63b8ff" d="M449.98,-221.02C408.76,-211.95 339.01,-196.61 292,-186.28"/>
<polygon fill="#63b8ff" stroke="#63b8ff" points="292.55,-182.81 282.04,-184.08 291.05,-189.65 292.55,-182.81"/>
</a>
</g>
</g>
<!-- Node4 -->
<g id="Node000004" class="node">
<title>Node4</title>
<g id="a_Node000004"><a xlink:title=" ">
<polygon fill="#e0e0e0" stroke="#999999" points="124.5,-74 71.5,-74 71.5,-55 124.5,-55 124.5,-74"/>
<text text-anchor="middle" x="98" y="-62" font-family="Helvetica,sans-Serif" font-size="10.00">QString</text>
</a>
</g>
</g>
<!-- Node2&#45;&gt;Node4 -->
<g id="edge3_Node000002_Node000004" class="edge">
<title>Node2&#45;&gt;Node4</title>
<g id="a_edge3_Node000002_Node000004"><a xlink:title=" ">
<path fill="none" stroke="#63b8ff" d="M449.77,-221.54C446.81,-221 443.85,-220.48 441,-220 323.76,-200.47 276.59,-247.32 176,-184 138.26,-160.24 114.89,-110.82 104.44,-83.91"/>
<polygon fill="#63b8ff" stroke="#63b8ff" points="107.6,-82.37 100.85,-74.2 101.03,-84.8 107.6,-82.37"/>
</a>
</g>
</g>
<!-- Node5 -->
<g id="Node000005" class="node">
<title>Node5</title>
<g id="a_Node000005"><a xlink:title=" ">
<polygon fill="#e0e0e0" stroke="#999999" points="384.5,-184 319.5,-184 319.5,-165 384.5,-165 384.5,-184"/>
<text text-anchor="middle" x="352" y="-172" font-family="Helvetica,sans-Serif" font-size="10.00">QTypeInfo</text>
</a>
</g>
</g>
<!-- Node2&#45;&gt;Node5 -->
<g id="edge4_Node000002_Node000005" class="edge">
<title>Node2&#45;&gt;Node5</title>
<g id="a_edge4_Node000002_Node000005"><a xlink:title=" ">
<path fill="none" stroke="#63b8ff" d="M462.79,-219.98C441.27,-211.34 407.72,-197.87 383.17,-188.02"/>
<polygon fill="#63b8ff" stroke="#63b8ff" points="384.18,-184.65 373.59,-184.17 381.57,-191.14 384.18,-184.65"/>
</a>
</g>
</g>
<!-- Node6 -->
<g id="Node000006" class="node">
<title>Node6</title>
<g id="a_Node000006"><a xlink:title=" ">
<polygon fill="#e0e0e0" stroke="#999999" points="457.5,-184 402.5,-184 402.5,-165 457.5,-165 457.5,-184"/>
<text text-anchor="middle" x="430" y="-172" font-family="Helvetica,sans-Serif" font-size="10.00">QVector</text>
</a>
</g>
</g>
<!-- Node2&#45;&gt;Node6 -->
<g id="edge5_Node000002_Node000006" class="edge">
<title>Node2&#45;&gt;Node6</title>
<g id="a_edge5_Node000002_Node000006"><a xlink:title=" ">
<path fill="none" stroke="#63b8ff" d="M475.08,-219.75C467.22,-212.03 455.57,-200.6 446.08,-191.28"/>
<polygon fill="#63b8ff" stroke="#63b8ff" points="448.34,-188.6 438.75,-184.09 443.44,-193.59 448.34,-188.6"/>
</a>
</g>
</g>
<!-- Node7 -->
<g id="Node000007" class="node">
<title>Node7</title>
<g id="a_Node000007"><a xlink:title=" ">
<polygon fill="#e0e0e0" stroke="#999999" points="720.5,-74 661.5,-74 661.5,-55 720.5,-55 720.5,-74"/>
<text text-anchor="middle" x="691" y="-62" font-family="Helvetica,sans-Serif" font-size="10.00">QtGlobal</text>
</a>
</g>
</g>
<!-- Node2&#45;&gt;Node7 -->
<g id="edge6_Node000002_Node000007" class="edge">
<title>Node2&#45;&gt;Node7</title>
<g id="a_edge6_Node000002_Node000007"><a xlink:title=" ">
<path fill="none" stroke="#63b8ff" d="M518.25,-224.21C557.37,-218.49 622.72,-206.37 675,-184 716.03,-166.45 737.78,-168.26 759,-129 770.48,-107.77 745.39,-89.69 722.52,-78.32"/>
<polygon fill="#63b8ff" stroke="#63b8ff" points="723.83,-75.07 713.29,-74.01 720.87,-81.41 723.83,-75.07"/>
</a>
</g>
</g>
<!-- Node8 -->
<g id="Node000008" class="node">
<title>Node8</title>
<g id="a_Node000008"><a xlink:href="../../d5/d9d/vgeometrydef_8h.html" target="_top" xlink:title=" ">
<polygon fill="white" stroke="#666666" points="570,-184 476,-184 476,-165 570,-165 570,-184"/>
<text text-anchor="middle" x="523" y="-172" font-family="Helvetica,sans-Serif" font-size="10.00">vgeometrydef.h</text>
</a>
</g>
</g>
<!-- Node2&#45;&gt;Node8 -->
<g id="edge7_Node000002_Node000008" class="edge">
<title>Node2&#45;&gt;Node8</title>
<g id="a_edge7_Node000002_Node000008"><a xlink:title=" ">
<path fill="none" stroke="#63b8ff" d="M490.44,-219.75C495.89,-212.34 503.86,-201.5 510.56,-192.41"/>
<polygon fill="#63b8ff" stroke="#63b8ff" points="513.57,-194.22 516.68,-184.09 507.93,-190.07 513.57,-194.22"/>
</a>
</g>
</g>
<!-- Node15&#45;&gt;Node4 -->
<g id="edge17_Node000015_Node000004" class="edge">
<title>Node15&#45;&gt;Node4</title>
<g id="a_edge17_Node000015_Node000004"><a xlink:title=" ">
<path fill="none" stroke="#63b8ff" d="M259.15,-109.98C225.14,-100.6 170.48,-85.51 134.4,-75.55"/>
<polygon fill="#63b8ff" stroke="#63b8ff" points="135.32,-72.17 124.75,-72.88 133.45,-78.92 135.32,-72.17"/>
</a>
</g>
</g>
<!-- Node15&#45;&gt;Node7 -->
<g id="edge20_Node000015_Node000007" class="edge">
<title>Node15&#45;&gt;Node7</title>
<g id="a_edge20_Node000015_Node000007"><a xlink:title=" ">
<path fill="none" stroke="#63b8ff" d="M331.17,-114.69C396.75,-108.34 529.14,-94.43 651.34,-73.96"/>
<polygon fill="#63b8ff" stroke="#63b8ff" points="651.97,-77.4 661.24,-72.28 650.8,-70.5 651.97,-77.4"/>
</a>
</g>
</g>
<!-- Node15&#45;&gt;Node10 -->
<g id="edge16_Node000015_Node000010" class="edge">
<title>Node15&#45;&gt;Node10</title>
<g id="a_edge16_Node000015_Node000010"><a xlink:title=" ">
<path fill="none" stroke="#63b8ff" d="M248.73,-110.87C202.99,-102.32 127.09,-87.83 62,-74 61.4,-73.87 60.79,-73.74 60.17,-73.61"/>
<polygon fill="#63b8ff" stroke="#63b8ff" points="60.57,-70.11 50.05,-71.37 59.06,-76.95 60.57,-70.11"/>
</a>
</g>
</g>
<!-- Node16 -->
<g id="Node000016" class="node">
<title>Node16</title>
<g id="a_Node000016"><a xlink:title=" ">
<polygon fill="#e0e0e0" stroke="#999999" points="555,-74 435,-74 435,-55 555,-55 555,-74"/>
<text text-anchor="middle" x="495" y="-62" font-family="Helvetica,sans-Serif" font-size="10.00">qcompilerdetection.h</text>
</a>
</g>
</g>
<!-- Node15&#45;&gt;Node16 -->
<g id="edge15_Node000015_Node000016" class="edge">
<title>Node15&#45;&gt;Node16</title>
<g id="a_edge15_Node000015_Node000016"><a xlink:title=" ">
<path fill="none" stroke="#63b8ff" d="M322.94,-109.98C357.95,-100.93 413.47,-86.58 451.93,-76.64"/>
<polygon fill="#63b8ff" stroke="#63b8ff" points="453,-79.97 461.81,-74.08 451.25,-73.2 453,-79.97"/>
</a>
</g>
</g>
<!-- Node17 -->
<g id="Node000017" class="node">
<title>Node17</title>
<g id="a_Node000017"><a xlink:title=" ">
<polygon fill="#e0e0e0" stroke="#999999" points="643,-74 573,-74 573,-55 643,-55 643,-74"/>
<text text-anchor="middle" x="608" y="-62" font-family="Helvetica,sans-Serif" font-size="10.00">QStringList</text>
</a>
</g>
</g>
<!-- Node15&#45;&gt;Node17 -->
<g id="edge18_Node000015_Node000017" class="edge">
<title>Node15&#45;&gt;Node17</title>
<g id="a_edge18_Node000015_Node000017"><a xlink:title=" ">
<path fill="none" stroke="#63b8ff" d="M331.38,-112.17C383.14,-104.17 474.75,-89.73 563.04,-74.13"/>
<polygon fill="#63b8ff" stroke="#63b8ff" points="563.72,-77.56 572.95,-72.37 562.5,-70.67 563.72,-77.56"/>
</a>
</g>
</g>
<!-- Node18 -->
<g id="Node000018" class="node">
<title>Node18</title>
<g id="a_Node000018"><a xlink:title=" ">
<polygon fill="#e0e0e0" stroke="#999999" points="171.5,-74 142.5,-74 142.5,-55 171.5,-55 171.5,-74"/>
<text text-anchor="middle" x="157" y="-62" font-family="Helvetica,sans-Serif" font-size="10.00">Qt</text>
</a>
</g>
</g>
<!-- Node15&#45;&gt;Node18 -->
<g id="edge19_Node000015_Node000018" class="edge">
<title>Node15&#45;&gt;Node18</title>
<g id="a_edge19_Node000015_Node000018"><a xlink:title=" ">
<path fill="none" stroke="#63b8ff" d="M268.63,-109.98C244.75,-100.47 206.17,-85.1 181.2,-75.14"/>
<polygon fill="#63b8ff" stroke="#63b8ff" points="182.31,-71.82 171.73,-71.37 179.72,-78.32 182.31,-71.82"/>
</a>
</g>
</g>
<!-- Node19 -->
<g id="Node000019" class="node">
<title>Node19</title>
<g id="a_Node000019"><a xlink:title=" ">
<polygon fill="#e0e0e0" stroke="#999999" points="246,-74 190,-74 190,-55 246,-55 246,-74"/>
<text text-anchor="middle" x="218" y="-62" font-family="Helvetica,sans-Serif" font-size="10.00">QPrinter</text>
</a>
</g>
</g>
<!-- Node15&#45;&gt;Node19 -->
<g id="edge21_Node000015_Node000019" class="edge">
<title>Node15&#45;&gt;Node19</title>
<g id="a_edge21_Node000015_Node000019"><a xlink:title=" ">
<path fill="none" stroke="#63b8ff" d="M278.43,-109.98C267.58,-102 251.12,-89.88 238.12,-80.31"/>
<polygon fill="#63b8ff" stroke="#63b8ff" points="239.91,-77.28 229.78,-74.17 235.76,-82.92 239.91,-77.28"/>
</a>
</g>
</g>
<!-- Node20 -->
<g id="Node000020" class="node">
<title>Node20</title>
<g id="a_Node000020"><a xlink:title=" ">
<polygon fill="#e0e0e0" stroke="#999999" points="315.5,-74 264.5,-74 264.5,-55 315.5,-55 315.5,-74"/>
<text text-anchor="middle" x="290" y="-62" font-family="Helvetica,sans-Serif" font-size="10.00">csignal</text>
</a>
</g>
</g>
<!-- Node15&#45;&gt;Node20 -->
<g id="edge22_Node000015_Node000020" class="edge">
<title>Node15&#45;&gt;Node20</title>
<g id="a_edge22_Node000015_Node000020"><a xlink:title=" ">
<path fill="none" stroke="#63b8ff" d="M290,-109.75C290,-102.8 290,-92.85 290,-84.13"/>
<polygon fill="#63b8ff" stroke="#63b8ff" points="293.5,-84.09 290,-74.09 286.5,-84.09 293.5,-84.09"/>
</a>
</g>
</g>
<!-- Node21 -->
<g id="Node000021" class="node">
<title>Node21</title>
<g id="a_Node000021"><a xlink:href="../../d4/d82/debugbreak_8h.html" target="_top" xlink:title=" ">
<polygon fill="white" stroke="#666666" points="416.5,-74 333.5,-74 333.5,-55 416.5,-55 416.5,-74"/>
<text text-anchor="middle" x="375" y="-62" font-family="Helvetica,sans-Serif" font-size="10.00">debugbreak.h</text>
</a>
</g>
</g>
<!-- Node15&#45;&gt;Node21 -->
<g id="edge23_Node000015_Node000021" class="edge">
<title>Node15&#45;&gt;Node21</title>
<g id="a_edge23_Node000015_Node000021"><a xlink:title=" ">
<path fill="none" stroke="#63b8ff" d="M303.66,-109.98C316.84,-101.77 337.03,-89.18 352.57,-79.49"/>
<polygon fill="#63b8ff" stroke="#63b8ff" points="354.46,-82.43 361.09,-74.17 350.76,-76.49 354.46,-82.43"/>
</a>
</g>
</g>
<!-- Node22 -->
<g id="Node000022" class="node">
<title>Node22</title>
<g id="a_Node000022"><a xlink:title=" ">
<polygon fill="#e0e0e0" stroke="#999999" points="402.5,-19 347.5,-19 347.5,0 402.5,0 402.5,-19"/>
<text text-anchor="middle" x="375" y="-7" font-family="Helvetica,sans-Serif" font-size="10.00">signal.h</text>
</a>
</g>
</g>
<!-- Node21&#45;&gt;Node22 -->
<g id="edge24_Node000021_Node000022" class="edge">
<title>Node21&#45;&gt;Node22</title>
<g id="a_edge24_Node000021_Node000022"><a xlink:title=" ">
<path fill="none" stroke="#63b8ff" d="M375,-54.75C375,-47.8 375,-37.85 375,-29.13"/>
<polygon fill="#63b8ff" stroke="#63b8ff" points="378.5,-29.09 375,-19.09 371.5,-29.09 378.5,-29.09"/>
</a>
</g>
</g>
<!-- Node24 -->
<g id="Node000024" class="node">
<title>Node24</title>
<g id="a_Node000024"><a xlink:title=" ">
<polygon fill="#e0e0e0" stroke="#999999" points="958.5,-184 905.5,-184 905.5,-165 958.5,-165 958.5,-184"/>
<text text-anchor="middle" x="932" y="-172" font-family="Helvetica,sans-Serif" font-size="10.00">QtMath</text>
</a>
</g>
</g>
<!-- Node23&#45;&gt;Node24 -->
<g id="edge26_Node000023_Node000024" class="edge">
<title>Node23&#45;&gt;Node24</title>
<g id="a_edge26_Node000023_Node000024"><a xlink:title=" ">
<path fill="none" stroke="#63b8ff" d="M844.71,-219.98C861.21,-211.57 886.7,-198.59 905.88,-188.81"/>
<polygon fill="#63b8ff" stroke="#63b8ff" points="907.67,-191.83 914.99,-184.17 904.49,-185.59 907.67,-191.83"/>
</a>
</g>
</g>
<!-- Node25&#45;&gt;Node4 -->
<g id="edge28_Node000025_Node000004" class="edge">
<title>Node25&#45;&gt;Node4</title>
<g id="a_edge28_Node000025_Node000004"><a xlink:title=" ">
<path fill="none" stroke="#63b8ff" d="M588.26,-166.4C585.13,-165.9 582.02,-165.43 579,-165 428.98,-143.78 386.3,-168.41 240,-129 196.61,-117.31 149.64,-93.99 122.07,-79.1"/>
<polygon fill="#63b8ff" stroke="#63b8ff" points="123.62,-75.96 113.17,-74.22 120.25,-82.09 123.62,-75.96"/>
</a>
</g>
</g>
<!-- Node25&#45;&gt;Node7 -->
<g id="edge30_Node000025_Node000007" class="edge">
<title>Node25&#45;&gt;Node7</title>
<g id="a_edge30_Node000025_Node000007"><a xlink:title=" ">
<path fill="none" stroke="#63b8ff" d="M623.88,-164.66C619.91,-151.79 614.61,-127.51 624,-110 631.51,-96 645.57,-85.66 658.88,-78.48"/>
<polygon fill="#63b8ff" stroke="#63b8ff" points="660.48,-81.6 667.89,-74.02 657.37,-75.33 660.48,-81.6"/>
</a>
</g>
</g>
<!-- Node25&#45;&gt;Node15 -->
<g id="edge31_Node000025_Node000015" class="edge">
<title>Node25&#45;&gt;Node15</title>
<g id="a_edge31_Node000025_Node000015"><a xlink:title=" ">
<path fill="none" stroke="#63b8ff" d="M588.24,-166.56C585.12,-166.02 582.01,-165.5 579,-165 495.85,-151.24 398.99,-136.61 341.18,-128.03"/>
<polygon fill="#63b8ff" stroke="#63b8ff" points="341.61,-124.55 331.2,-126.55 340.58,-131.48 341.61,-124.55"/>
</a>
</g>
</g>
<!-- Node25&#45;&gt;Node17 -->
<g id="edge29_Node000025_Node000017" class="edge">
<title>Node25&#45;&gt;Node17</title>
<g id="a_edge29_Node000025_Node000017"><a xlink:title=" ">
<path fill="none" stroke="#63b8ff" d="M616.56,-164.87C607.58,-156.7 595.26,-143.55 590,-129 584.48,-113.71 590.6,-95.87 597.16,-83"/>
<polygon fill="#63b8ff" stroke="#63b8ff" points="600.23,-84.68 602.07,-74.25 594.13,-81.25 600.23,-84.68"/>
</a>
</g>
</g>
<!-- Node26 -->
<g id="Node000026" class="node">
<title>Node26</title>
<g id="a_Node000026"><a xlink:href="../../d6/dcd/diagnostic_8h.html" target="_top" xlink:title=" ">
<polygon fill="white" stroke="#666666" points="749.5,-129 632.5,-129 632.5,-110 749.5,-110 749.5,-129"/>
<text text-anchor="middle" x="691" y="-117" font-family="Helvetica,sans-Serif" font-size="10.00">../vmisc/diagnostic.h</text>
</a>
</g>
</g>
<!-- Node25&#45;&gt;Node26 -->
<g id="edge32_Node000025_Node000026" class="edge">
<title>Node25&#45;&gt;Node26</title>
<g id="a_edge32_Node000025_Node000026"><a xlink:title=" ">
<path fill="none" stroke="#63b8ff" d="M637.28,-164.98C646.84,-157.07 661.28,-145.11 672.78,-135.58"/>
<polygon fill="#63b8ff" stroke="#63b8ff" points="675.06,-138.24 680.53,-129.17 670.6,-132.85 675.06,-138.24"/>
</a>
</g>
</g>
<!-- Node26&#45;&gt;Node7 -->
<g id="edge33_Node000026_Node000007" class="edge">
<title>Node26&#45;&gt;Node7</title>
<g id="a_edge33_Node000026_Node000007"><a xlink:title=" ">
<path fill="none" stroke="#63b8ff" d="M691,-109.75C691,-102.8 691,-92.85 691,-84.13"/>
<polygon fill="#63b8ff" stroke="#63b8ff" points="694.5,-84.09 691,-74.09 687.5,-84.09 694.5,-84.09"/>
</a>
</g>
</g>
<!-- Node27&#45;&gt;Node8 -->
<g id="edge36_Node000027_Node000008" class="edge">
<title>Node27&#45;&gt;Node8</title>
<g id="a_edge36_Node000027_Node000008"><a xlink:title=" ">
<path fill="none" stroke="#63b8ff" d="M610.29,-219.98C593.79,-211.57 568.3,-198.59 549.12,-188.81"/>
<polygon fill="#63b8ff" stroke="#63b8ff" points="550.51,-185.59 540.01,-184.17 547.33,-191.83 550.51,-185.59"/>
</a>
</g>
</g>
<!-- Node27&#45;&gt;Node25 -->
<g id="edge37_Node000027_Node000025" class="edge">
<title>Node27&#45;&gt;Node25</title>
<g id="a_edge37_Node000027_Node000025"><a xlink:title=" ">
<path fill="none" stroke="#63b8ff" d="M627,-219.75C627,-212.8 627,-202.85 627,-194.13"/>
<polygon fill="#63b8ff" stroke="#63b8ff" points="630.5,-194.09 627,-184.09 623.5,-194.09 630.5,-194.09"/>
</a>
</g>
</g>
<!-- Node27&#45;&gt;Node26 -->
<g id="edge38_Node000027_Node000026" class="edge">
<title>Node27&#45;&gt;Node26</title>
<g id="a_edge38_Node000027_Node000026"><a xlink:title=" ">
<path fill="none" stroke="#63b8ff" d="M639.97,-219.79C650.92,-211.76 666.19,-198.86 675,-184 683.07,-170.38 687.09,-152.8 689.09,-139.59"/>
<polygon fill="#63b8ff" stroke="#63b8ff" points="692.6,-139.67 690.37,-129.31 685.66,-138.8 692.6,-139.67"/>
</a>
</g>
</g>
<!-- Node28 -->
<g id="Node000028" class="node">
<title>Node28</title>
<g id="a_Node000028"><a xlink:title=" ">
<polygon fill="#e0e0e0" stroke="#999999" points="887.5,-184 806.5,-184 806.5,-165 887.5,-165 887.5,-184"/>
<text text-anchor="middle" x="847" y="-172" font-family="Helvetica,sans-Serif" font-size="10.00">QSharedData</text>
</a>
</g>
</g>
<!-- Node27&#45;&gt;Node28 -->
<g id="edge35_Node000027_Node000028" class="edge">
<title>Node27&#45;&gt;Node28</title>
<g id="a_edge35_Node000027_Node000028"><a xlink:title=" ">
<path fill="none" stroke="#63b8ff" d="M662.35,-219.98C700.16,-210.87 760.26,-196.4 801.57,-186.45"/>
<polygon fill="#63b8ff" stroke="#63b8ff" points="802.47,-189.83 811.38,-184.08 800.83,-183.02 802.47,-189.83"/>
</a>
</g>
</g>
</g>
</svg>
