<?xml version="1.0" encoding="UTF-8" standalone="no"?>
<!DOCTYPE svg PUBLIC "-//W3C//DTD SVG 1.1//EN"
 "http://www.w3.org/Graphics/SVG/1.1/DTD/svg11.dtd">
<!-- Generated by graphviz version 2.43.0 (0)
 -->
<!-- Title: src/libs/vtools/tools/drawTools/toolcurve/vabstractspline.h Pages: 1 -->
<svg width="2342pt" height="384pt"
 viewBox="0.00 0.00 2342.00 384.00" xmlns="http://www.w3.org/2000/svg" xmlns:xlink="http://www.w3.org/1999/xlink">
<g id="graph0" class="graph" transform="scale(1 1) rotate(0) translate(4 380)">
<title>src/libs/vtools/tools/drawTools/toolcurve/vabstractspline.h</title>
<polygon fill="white" stroke="transparent" points="-4,4 -4,-380 2338,-380 2338,4 -4,4"/>
<!-- Node1 -->
<g id="node1" class="node">
<title>Node1</title>
<g id="a_node1"><a xlink:title=" ">
<polygon fill="#bfbfbf" stroke="black" points="714,-334.5 714,-375.5 831,-375.5 831,-334.5 714,-334.5"/>
<text text-anchor="start" x="722" y="-363.5" font-family="Helvetica,sans-Serif" font-size="10.00">src/libs/vtools/tools</text>
<text text-anchor="start" x="722" y="-352.5" font-family="Helvetica,sans-Serif" font-size="10.00">/drawTools/toolcurve</text>
<text text-anchor="middle" x="772.5" y="-341.5" font-family="Helvetica,sans-Serif" font-size="10.00">/vabstractspline.h</text>
</a>
</g>
</g>
<!-- Node2 -->
<g id="node2" class="node">
<title>Node2</title>
<g id="a_node2"><a xlink:href="../../d2/d9b/vtoolarc_8cpp.html" target="_top" xlink:title=" ">
<polygon fill="white" stroke="black" points="486,-162 486,-203 603,-203 603,-162 486,-162"/>
<text text-anchor="start" x="494" y="-191" font-family="Helvetica,sans-Serif" font-size="10.00">src/libs/vtools/tools</text>
<text text-anchor="start" x="494" y="-180" font-family="Helvetica,sans-Serif" font-size="10.00">/drawTools/toolcurve</text>
<text text-anchor="middle" x="544.5" y="-169" font-family="Helvetica,sans-Serif" font-size="10.00">/vtoolarc.cpp</text>
</a>
</g>
</g>
<!-- Node1&#45;&gt;Node2 -->
<g id="edge1" class="edge">
<title>Node1&#45;&gt;Node2</title>
<path fill="none" stroke="midnightblue" d="M705,-330.31C686.22,-321.85 666.58,-311.09 650.5,-298 627.82,-279.53 631.03,-266.77 611.5,-245 598.11,-230.07 581.51,-214.82 568.19,-203.24"/>
<polygon fill="midnightblue" stroke="midnightblue" points="703.86,-333.63 714.42,-334.4 706.64,-327.21 703.86,-333.63"/>
</g>
<!-- Node3 -->
<g id="node3" class="node">
<title>Node3</title>
<g id="a_node3"><a xlink:href="../../d3/d19/vtoolarc_8h.html" target="_top" xlink:title=" ">
<polygon fill="white" stroke="black" points="486,-251 486,-292 603,-292 603,-251 486,-251"/>
<text text-anchor="start" x="494" y="-280" font-family="Helvetica,sans-Serif" font-size="10.00">src/libs/vtools/tools</text>
<text text-anchor="start" x="494" y="-269" font-family="Helvetica,sans-Serif" font-size="10.00">/drawTools/toolcurve</text>
<text text-anchor="middle" x="544.5" y="-258" font-family="Helvetica,sans-Serif" font-size="10.00">/vtoolarc.h</text>
</a>
</g>
</g>
<!-- Node1&#45;&gt;Node3 -->
<g id="edge2" class="edge">
<title>Node1&#45;&gt;Node3</title>
<path fill="none" stroke="midnightblue" d="M708.39,-331.08C673.94,-318.77 631.93,-303.75 599.06,-292"/>
<polygon fill="midnightblue" stroke="midnightblue" points="707.29,-334.41 717.89,-334.48 709.65,-327.82 707.29,-334.41"/>
</g>
<!-- Node6 -->
<g id="node6" class="node">
<title>Node6</title>
<g id="a_node6"><a xlink:href="../../d1/d05/vabstractspline_8cpp.html" target="_top" xlink:title=" ">
<polygon fill="white" stroke="black" points="174,-251 174,-292 291,-292 291,-251 174,-251"/>
<text text-anchor="start" x="182" y="-280" font-family="Helvetica,sans-Serif" font-size="10.00">src/libs/vtools/tools</text>
<text text-anchor="start" x="182" y="-269" font-family="Helvetica,sans-Serif" font-size="10.00">/drawTools/toolcurve</text>
<text text-anchor="middle" x="232.5" y="-258" font-family="Helvetica,sans-Serif" font-size="10.00">/vabstractspline.cpp</text>
</a>
</g>
</g>
<!-- Node1&#45;&gt;Node6 -->
<g id="edge6" class="edge">
<title>Node1&#45;&gt;Node6</title>
<path fill="none" stroke="midnightblue" d="M703.93,-350.44C612.17,-344.61 444.86,-330.29 305.5,-298 298.44,-296.36 291.11,-294.28 283.93,-292.02"/>
<polygon fill="midnightblue" stroke="midnightblue" points="703.72,-353.93 713.92,-351.06 704.16,-346.94 703.72,-353.93"/>
</g>
<!-- Node7 -->
<g id="node7" class="node">
<title>Node7</title>
<g id="a_node7"><a xlink:href="../../de/dd9/vtoolarcwithlength_8h.html" target="_top" xlink:title=" ">
<polygon fill="white" stroke="black" points="347.5,-251 347.5,-292 467.5,-292 467.5,-251 347.5,-251"/>
<text text-anchor="start" x="355.5" y="-280" font-family="Helvetica,sans-Serif" font-size="10.00">src/libs/vtools/tools</text>
<text text-anchor="start" x="355.5" y="-269" font-family="Helvetica,sans-Serif" font-size="10.00">/drawTools/toolcurve</text>
<text text-anchor="middle" x="407.5" y="-258" font-family="Helvetica,sans-Serif" font-size="10.00">/vtoolarcwithlength.h</text>
</a>
</g>
</g>
<!-- Node1&#45;&gt;Node7 -->
<g id="edge7" class="edge">
<title>Node1&#45;&gt;Node7</title>
<path fill="none" stroke="midnightblue" d="M703.8,-344.34C643.33,-335.04 553.2,-319.27 476.5,-298 470.22,-296.26 463.71,-294.2 457.3,-292.02"/>
<polygon fill="midnightblue" stroke="midnightblue" points="703.58,-347.84 713.99,-345.88 704.63,-340.92 703.58,-347.84"/>
</g>
<!-- Node8 -->
<g id="node8" class="node">
<title>Node8</title>
<g id="a_node8"><a xlink:href="../../d3/d33/vtoolarcwithlength_8cpp.html" target="_top" xlink:title=" ">
<polygon fill="white" stroke="black" points="255,-162 255,-203 386,-203 386,-162 255,-162"/>
<text text-anchor="start" x="263" y="-191" font-family="Helvetica,sans-Serif" font-size="10.00">src/libs/vtools/tools</text>
<text text-anchor="start" x="263" y="-180" font-family="Helvetica,sans-Serif" font-size="10.00">/drawTools/toolcurve</text>
<text text-anchor="middle" x="320.5" y="-169" font-family="Helvetica,sans-Serif" font-size="10.00">/vtoolarcwithlength.cpp</text>
</a>
</g>
</g>
<!-- Node1&#45;&gt;Node8 -->
<g id="edge10" class="edge">
<title>Node1&#45;&gt;Node8</title>
<path fill="none" stroke="midnightblue" d="M703.4,-354.78C594.23,-354.47 389.01,-347.14 338.5,-298 313.26,-273.45 314.12,-228.96 317.18,-203.26"/>
<polygon fill="midnightblue" stroke="midnightblue" points="703.66,-358.28 713.66,-354.79 703.66,-351.28 703.66,-358.28"/>
</g>
<!-- Node9 -->
<g id="node9" class="node">
<title>Node9</title>
<g id="a_node9"><a xlink:href="../../d4/df1/vtoolcubicbezier_8h.html" target="_top" xlink:title=" ">
<polygon fill="white" stroke="black" points="0,-251 0,-292 117,-292 117,-251 0,-251"/>
<text text-anchor="start" x="8" y="-280" font-family="Helvetica,sans-Serif" font-size="10.00">src/libs/vtools/tools</text>
<text text-anchor="start" x="8" y="-269" font-family="Helvetica,sans-Serif" font-size="10.00">/drawTools/toolcurve</text>
<text text-anchor="middle" x="58.5" y="-258" font-family="Helvetica,sans-Serif" font-size="10.00">/vtoolcubicbezier.h</text>
</a>
</g>
</g>
<!-- Node1&#45;&gt;Node9 -->
<g id="edge11" class="edge">
<title>Node1&#45;&gt;Node9</title>
<path fill="none" stroke="midnightblue" d="M703.53,-353.57C585.18,-351.59 336.38,-342.01 131.5,-298 124.28,-296.45 116.79,-294.39 109.49,-292.11"/>
<polygon fill="midnightblue" stroke="midnightblue" points="703.83,-357.07 713.89,-353.73 703.94,-350.07 703.83,-357.07"/>
</g>
<!-- Node10 -->
<g id="node10" class="node">
<title>Node10</title>
<g id="a_node10"><a xlink:href="../../db/dcd/vtoolcubicbezier_8cpp.html" target="_top" xlink:title=" ">
<polygon fill="white" stroke="black" points="87,-162 87,-203 206,-203 206,-162 87,-162"/>
<text text-anchor="start" x="95" y="-191" font-family="Helvetica,sans-Serif" font-size="10.00">src/libs/vtools/tools</text>
<text text-anchor="start" x="95" y="-180" font-family="Helvetica,sans-Serif" font-size="10.00">/drawTools/toolcurve</text>
<text text-anchor="middle" x="146.5" y="-169" font-family="Helvetica,sans-Serif" font-size="10.00">/vtoolcubicbezier.cpp</text>
</a>
</g>
</g>
<!-- Node1&#45;&gt;Node10 -->
<g id="edge17" class="edge">
<title>Node1&#45;&gt;Node10</title>
<path fill="none" stroke="midnightblue" d="M703.84,-352.35C553.04,-348.06 203.19,-334.29 164.5,-298 138.81,-273.91 139.83,-229.25 143.05,-203.4"/>
<polygon fill="midnightblue" stroke="midnightblue" points="703.82,-355.85 713.91,-352.63 704.01,-348.85 703.82,-355.85"/>
</g>
<!-- Node11 -->
<g id="node11" class="node">
<title>Node11</title>
<g id="a_node11"><a xlink:href="../../d6/d25/vtoolcubicbezierpath_8h.html" target="_top" xlink:title=" ">
<polygon fill="white" stroke="black" points="660,-251 660,-292 791,-292 791,-251 660,-251"/>
<text text-anchor="start" x="668" y="-280" font-family="Helvetica,sans-Serif" font-size="10.00">src/libs/vtools/tools</text>
<text text-anchor="start" x="668" y="-269" font-family="Helvetica,sans-Serif" font-size="10.00">/drawTools/toolcurve</text>
<text text-anchor="middle" x="725.5" y="-258" font-family="Helvetica,sans-Serif" font-size="10.00">/vtoolcubicbezierpath.h</text>
</a>
</g>
</g>
<!-- Node1&#45;&gt;Node11 -->
<g id="edge14" class="edge">
<title>Node1&#45;&gt;Node11</title>
<path fill="none" stroke="midnightblue" d="M756,-325.39C749.64,-314.37 742.53,-302.03 736.77,-292.05"/>
<polygon fill="midnightblue" stroke="midnightblue" points="753.09,-327.36 761.12,-334.27 759.16,-323.86 753.09,-327.36"/>
</g>
<!-- Node12 -->
<g id="node12" class="node">
<title>Node12</title>
<g id="a_node12"><a xlink:href="../../d4/d49/vtoolcubicbezierpath_8cpp.html" target="_top" xlink:title=" ">
<polygon fill="white" stroke="black" points="659.5,-162 659.5,-203 801.5,-203 801.5,-162 659.5,-162"/>
<text text-anchor="start" x="667.5" y="-191" font-family="Helvetica,sans-Serif" font-size="10.00">src/libs/vtools/tools</text>
<text text-anchor="start" x="667.5" y="-180" font-family="Helvetica,sans-Serif" font-size="10.00">/drawTools/toolcurve</text>
<text text-anchor="middle" x="730.5" y="-169" font-family="Helvetica,sans-Serif" font-size="10.00">/vtoolcubicbezierpath.cpp</text>
</a>
</g>
</g>
<!-- Node1&#45;&gt;Node12 -->
<g id="edge19" class="edge">
<title>Node1&#45;&gt;Node12</title>
<path fill="none" stroke="midnightblue" d="M789.59,-325.36C800.71,-302.83 811.15,-271 799.5,-245 791.82,-227.87 776.75,-213.55 762.64,-203.05"/>
<polygon fill="midnightblue" stroke="midnightblue" points="786.39,-323.93 784.85,-334.41 792.59,-327.18 786.39,-323.93"/>
</g>
<!-- Node13 -->
<g id="node13" class="node">
<title>Node13</title>
<g id="a_node13"><a xlink:href="../../d8/dc7/vtoolellipticalarc_8cpp.html" target="_top" xlink:title=" ">
<polygon fill="white" stroke="black" points="857.5,-162 857.5,-203 979.5,-203 979.5,-162 857.5,-162"/>
<text text-anchor="start" x="865.5" y="-191" font-family="Helvetica,sans-Serif" font-size="10.00">src/libs/vtools/tools</text>
<text text-anchor="start" x="865.5" y="-180" font-family="Helvetica,sans-Serif" font-size="10.00">/drawTools/toolcurve</text>
<text text-anchor="middle" x="918.5" y="-169" font-family="Helvetica,sans-Serif" font-size="10.00">/vtoolellipticalarc.cpp</text>
</a>
</g>
</g>
<!-- Node1&#45;&gt;Node13 -->
<g id="edge18" class="edge">
<title>Node1&#45;&gt;Node13</title>
<path fill="none" stroke="midnightblue" d="M841.34,-343.84C892.94,-334.66 957.32,-319.3 973.5,-298 987.75,-279.24 981.9,-267.01 973.5,-245 967.32,-228.81 954.69,-214.18 943.09,-203.26"/>
<polygon fill="midnightblue" stroke="midnightblue" points="840.46,-340.44 831.21,-345.6 841.66,-347.34 840.46,-340.44"/>
</g>
<!-- Node14 -->
<g id="node14" class="node">
<title>Node14</title>
<g id="a_node14"><a xlink:href="../../d5/d63/vtoolellipticalarc_8h.html" target="_top" xlink:title=" ">
<polygon fill="white" stroke="black" points="848,-251 848,-292 965,-292 965,-251 848,-251"/>
<text text-anchor="start" x="856" y="-280" font-family="Helvetica,sans-Serif" font-size="10.00">src/libs/vtools/tools</text>
<text text-anchor="start" x="856" y="-269" font-family="Helvetica,sans-Serif" font-size="10.00">/drawTools/toolcurve</text>
<text text-anchor="middle" x="906.5" y="-258" font-family="Helvetica,sans-Serif" font-size="10.00">/vtoolellipticalarc.h</text>
</a>
</g>
</g>
<!-- Node1&#45;&gt;Node14 -->
<g id="edge20" class="edge">
<title>Node1&#45;&gt;Node14</title>
<path fill="none" stroke="midnightblue" d="M813.3,-329.19C832.83,-317.3 855.9,-303.27 874.2,-292.14"/>
<polygon fill="midnightblue" stroke="midnightblue" points="811.32,-326.29 804.6,-334.48 814.96,-332.27 811.32,-326.29"/>
</g>
<!-- Node15 -->
<g id="node15" class="node">
<title>Node15</title>
<g id="a_node15"><a xlink:href="../../db/d8c/vtoolspline_8h.html" target="_top" xlink:title=" ">
<polygon fill="white" stroke="black" points="1022,-251 1022,-292 1139,-292 1139,-251 1022,-251"/>
<text text-anchor="start" x="1030" y="-280" font-family="Helvetica,sans-Serif" font-size="10.00">src/libs/vtools/tools</text>
<text text-anchor="start" x="1030" y="-269" font-family="Helvetica,sans-Serif" font-size="10.00">/drawTools/toolcurve</text>
<text text-anchor="middle" x="1080.5" y="-258" font-family="Helvetica,sans-Serif" font-size="10.00">/vtoolspline.h</text>
</a>
</g>
</g>
<!-- Node1&#45;&gt;Node15 -->
<g id="edge23" class="edge">
<title>Node1&#45;&gt;Node15</title>
<path fill="none" stroke="midnightblue" d="M841.16,-339.58C888.28,-329.21 952.07,-314.24 1007.5,-298 1013.68,-296.19 1020.12,-294.16 1026.48,-292.06"/>
<polygon fill="midnightblue" stroke="midnightblue" points="840.39,-336.17 831.36,-341.72 841.88,-343 840.39,-336.17"/>
</g>
<!-- Node16 -->
<g id="node16" class="node">
<title>Node16</title>
<g id="a_node16"><a xlink:href="../../d0/d39/vtoolspline_8cpp.html" target="_top" xlink:title=" ">
<polygon fill="white" stroke="black" points="1036,-162 1036,-203 1153,-203 1153,-162 1036,-162"/>
<text text-anchor="start" x="1044" y="-191" font-family="Helvetica,sans-Serif" font-size="10.00">src/libs/vtools/tools</text>
<text text-anchor="start" x="1044" y="-180" font-family="Helvetica,sans-Serif" font-size="10.00">/drawTools/toolcurve</text>
<text text-anchor="middle" x="1094.5" y="-169" font-family="Helvetica,sans-Serif" font-size="10.00">/vtoolspline.cpp</text>
</a>
</g>
</g>
<!-- Node1&#45;&gt;Node16 -->
<g id="edge30" class="edge">
<title>Node1&#45;&gt;Node16</title>
<path fill="none" stroke="midnightblue" d="M841.21,-354C938.45,-352.37 1108.75,-342.97 1147.5,-298 1172.1,-269.46 1139.72,-227.58 1115.82,-203.17"/>
<polygon fill="midnightblue" stroke="midnightblue" points="841.12,-350.5 831.17,-354.14 841.22,-357.5 841.12,-350.5"/>
</g>
<!-- Node17 -->
<g id="node17" class="node">
<title>Node17</title>
<g id="a_node17"><a xlink:href="../../d6/d38/vtoolsplinepath_8h.html" target="_top" xlink:title=" ">
<polygon fill="white" stroke="black" points="1215,-251 1215,-292 1332,-292 1332,-251 1215,-251"/>
<text text-anchor="start" x="1223" y="-280" font-family="Helvetica,sans-Serif" font-size="10.00">src/libs/vtools/tools</text>
<text text-anchor="start" x="1223" y="-269" font-family="Helvetica,sans-Serif" font-size="10.00">/drawTools/toolcurve</text>
<text text-anchor="middle" x="1273.5" y="-258" font-family="Helvetica,sans-Serif" font-size="10.00">/vtoolsplinepath.h</text>
</a>
</g>
</g>
<!-- Node1&#45;&gt;Node17 -->
<g id="edge26" class="edge">
<title>Node1&#45;&gt;Node17</title>
<path fill="none" stroke="midnightblue" d="M841.32,-347.43C922.99,-338.98 1063.02,-322.41 1181.5,-298 1192.38,-295.76 1203.86,-292.94 1214.89,-290.01"/>
<polygon fill="midnightblue" stroke="midnightblue" points="840.76,-343.97 831.17,-348.47 841.47,-350.93 840.76,-343.97"/>
</g>
<!-- Node18 -->
<g id="node18" class="node">
<title>Node18</title>
<g id="a_node18"><a xlink:href="../../d8/d1f/vtoolsplinepath_8cpp.html" target="_top" xlink:title=" ">
<polygon fill="white" stroke="black" points="1393,-162 1393,-203 1510,-203 1510,-162 1393,-162"/>
<text text-anchor="start" x="1401" y="-191" font-family="Helvetica,sans-Serif" font-size="10.00">src/libs/vtools/tools</text>
<text text-anchor="start" x="1401" y="-180" font-family="Helvetica,sans-Serif" font-size="10.00">/drawTools/toolcurve</text>
<text text-anchor="middle" x="1451.5" y="-169" font-family="Helvetica,sans-Serif" font-size="10.00">/vtoolsplinepath.cpp</text>
</a>
</g>
</g>
<!-- Node1&#45;&gt;Node18 -->
<g id="edge31" class="edge">
<title>Node1&#45;&gt;Node18</title>
<path fill="none" stroke="midnightblue" d="M841.58,-353.08C973.1,-350.37 1254.05,-339.72 1340.5,-298 1384.63,-276.7 1420.8,-230.12 1438.92,-203.4"/>
<polygon fill="midnightblue" stroke="midnightblue" points="841.16,-349.58 831.23,-353.28 841.3,-356.58 841.16,-349.58"/>
</g>
<!-- Node20 -->
<g id="node20" class="node">
<title>Node20</title>
<g id="a_node20"><a xlink:href="../../d7/d7d/vtoolcut_8h.html" target="_top" xlink:title=" ">
<polygon fill="white" stroke="black" points="1787,-245.5 1787,-297.5 1916,-297.5 1916,-245.5 1787,-245.5"/>
<text text-anchor="start" x="1795" y="-285.5" font-family="Helvetica,sans-Serif" font-size="10.00">src/libs/vtools/tools</text>
<text text-anchor="start" x="1795" y="-274.5" font-family="Helvetica,sans-Serif" font-size="10.00">/drawTools/toolpoint</text>
<text text-anchor="start" x="1795" y="-263.5" font-family="Helvetica,sans-Serif" font-size="10.00">/toolsinglepoint/toolcut</text>
<text text-anchor="middle" x="1851.5" y="-252.5" font-family="Helvetica,sans-Serif" font-size="10.00">/vtoolcut.h</text>
</a>
</g>
</g>
<!-- Node1&#45;&gt;Node20 -->
<g id="edge32" class="edge">
<title>Node1&#45;&gt;Node20</title>
<path fill="none" stroke="midnightblue" d="M841.45,-348.79C1037.53,-333.98 1596.4,-291.77 1786.94,-277.38"/>
<polygon fill="midnightblue" stroke="midnightblue" points="840.99,-345.32 831.28,-349.56 841.51,-352.3 840.99,-345.32"/>
</g>
<!-- Node3&#45;&gt;Node2 -->
<g id="edge3" class="edge">
<title>Node3&#45;&gt;Node2</title>
<path fill="none" stroke="midnightblue" d="M544.5,-240.44C544.5,-228.1 544.5,-214.16 544.5,-203.16"/>
<polygon fill="midnightblue" stroke="midnightblue" points="541,-240.76 544.5,-250.76 548,-240.76 541,-240.76"/>
</g>
<!-- Node4 -->
<g id="node4" class="node">
<title>Node4</title>
<g id="a_node4"><a xlink:href="../../d4/d56/drawtools_8h.html" target="_top" xlink:title=" ">
<polygon fill="white" stroke="black" points="854.5,-78.5 854.5,-108.5 982.5,-108.5 982.5,-78.5 854.5,-78.5"/>
<text text-anchor="start" x="862.5" y="-96.5" font-family="Helvetica,sans-Serif" font-size="10.00">src/libs/vtools/tools</text>
<text text-anchor="middle" x="918.5" y="-85.5" font-family="Helvetica,sans-Serif" font-size="10.00">/drawTools/drawtools.h</text>
</a>
</g>
</g>
<!-- Node3&#45;&gt;Node4 -->
<g id="edge4" class="edge">
<title>Node3&#45;&gt;Node4</title>
<path fill="none" stroke="midnightblue" d="M504.95,-244.54C493.6,-234.87 482.64,-222.83 476.5,-209 466.94,-187.47 461.03,-173.77 476.5,-156 524.7,-100.63 743.73,-93.54 854.28,-93.59"/>
<polygon fill="midnightblue" stroke="midnightblue" points="502.82,-247.32 512.81,-250.85 507.2,-241.86 502.82,-247.32"/>
</g>
<!-- Node5 -->
<g id="node5" class="node">
<title>Node5</title>
<g id="a_node5"><a xlink:href="../../d5/da5/tools_8h.html" target="_top" xlink:title=" ">
<polygon fill="white" stroke="black" points="863,-0.5 863,-30.5 974,-30.5 974,-0.5 863,-0.5"/>
<text text-anchor="start" x="871" y="-18.5" font-family="Helvetica,sans-Serif" font-size="10.00">src/libs/vtools/tools</text>
<text text-anchor="middle" x="918.5" y="-7.5" font-family="Helvetica,sans-Serif" font-size="10.00">/tools.h</text>
</a>
</g>
</g>
<!-- Node4&#45;&gt;Node5 -->
<g id="edge5" class="edge">
<title>Node4&#45;&gt;Node5</title>
<path fill="none" stroke="midnightblue" d="M918.5,-68.09C918.5,-55.76 918.5,-41.22 918.5,-30.73"/>
<polygon fill="midnightblue" stroke="midnightblue" points="915,-68.2 918.5,-78.2 922,-68.21 915,-68.2"/>
</g>
<!-- Node7&#45;&gt;Node4 -->
<g id="edge9" class="edge">
<title>Node7&#45;&gt;Node4</title>
<path fill="none" stroke="midnightblue" d="M413.73,-240.66C420.95,-214 435.62,-176.12 463.5,-156 524.66,-111.86 744.05,-99.37 854.3,-95.86"/>
<polygon fill="midnightblue" stroke="midnightblue" points="410.27,-240.07 411.24,-250.62 417.06,-241.77 410.27,-240.07"/>
</g>
<!-- Node7&#45;&gt;Node8 -->
<g id="edge8" class="edge">
<title>Node7&#45;&gt;Node8</title>
<path fill="none" stroke="midnightblue" d="M380.4,-243.4C367.37,-230.37 352.05,-215.05 340.16,-203.16"/>
<polygon fill="midnightblue" stroke="midnightblue" points="378.21,-246.16 387.76,-250.76 383.16,-241.21 378.21,-246.16"/>
</g>
<!-- Node9&#45;&gt;Node4 -->
<g id="edge13" class="edge">
<title>Node9&#45;&gt;Node4</title>
<path fill="none" stroke="midnightblue" d="M54.25,-240.77C52.34,-214.44 54.48,-177.01 77.5,-156 134.48,-104.01 667.61,-95.94 854.3,-94.71"/>
<polygon fill="midnightblue" stroke="midnightblue" points="50.79,-241.33 55.23,-250.95 57.76,-240.66 50.79,-241.33"/>
</g>
<!-- Node9&#45;&gt;Node10 -->
<g id="edge12" class="edge">
<title>Node9&#45;&gt;Node10</title>
<path fill="none" stroke="midnightblue" d="M85.91,-243.4C99.09,-230.37 114.59,-215.05 126.61,-203.16"/>
<polygon fill="midnightblue" stroke="midnightblue" points="83.12,-241.24 78.47,-250.76 88.04,-246.22 83.12,-241.24"/>
</g>
<!-- Node11&#45;&gt;Node4 -->
<g id="edge16" class="edge">
<title>Node11&#45;&gt;Node4</title>
<path fill="none" stroke="midnightblue" d="M681.35,-244.83C669.06,-235.27 657.24,-223.23 650.5,-209 640.42,-187.71 635.82,-174.43 650.5,-156 675.52,-124.59 783.41,-107.9 854.44,-100.15"/>
<polygon fill="midnightblue" stroke="midnightblue" points="679.31,-247.67 689.45,-250.74 683.44,-242.02 679.31,-247.67"/>
</g>
<!-- Node11&#45;&gt;Node12 -->
<g id="edge15" class="edge">
<title>Node11&#45;&gt;Node12</title>
<path fill="none" stroke="midnightblue" d="M727.23,-240.44C727.94,-228.1 728.74,-214.16 729.37,-203.16"/>
<polygon fill="midnightblue" stroke="midnightblue" points="723.71,-240.57 726.63,-250.76 730.7,-240.98 723.71,-240.57"/>
</g>
<!-- Node14&#45;&gt;Node4 -->
<g id="edge22" class="edge">
<title>Node14&#45;&gt;Node4</title>
<path fill="none" stroke="midnightblue" d="M873.08,-243.93C863.24,-234.12 853.72,-222.15 848.5,-209 839.81,-187.11 838.79,-177.46 848.5,-156 857.7,-135.66 877.33,-119.38 893.46,-108.69"/>
<polygon fill="midnightblue" stroke="midnightblue" points="870.91,-246.7 880.59,-251 875.7,-241.6 870.91,-246.7"/>
</g>
<!-- Node14&#45;&gt;Node13 -->
<g id="edge21" class="edge">
<title>Node14&#45;&gt;Node13</title>
<path fill="none" stroke="midnightblue" d="M910.59,-240.81C912.31,-228.38 914.26,-214.27 915.79,-203.16"/>
<polygon fill="midnightblue" stroke="midnightblue" points="907.12,-240.37 909.22,-250.76 914.06,-241.33 907.12,-240.37"/>
</g>
<!-- Node15&#45;&gt;Node4 -->
<g id="edge24" class="edge">
<title>Node15&#45;&gt;Node4</title>
<path fill="none" stroke="midnightblue" d="M1055.61,-243.32C1046.24,-232.79 1035.66,-220.53 1026.5,-209 1008.47,-186.3 1007.96,-177.48 988.5,-156 972.43,-138.26 951.54,-120.47 936.78,-108.63"/>
<polygon fill="midnightblue" stroke="midnightblue" points="1053.2,-245.88 1062.48,-250.98 1058.41,-241.2 1053.2,-245.88"/>
</g>
<!-- Node15&#45;&gt;Node16 -->
<g id="edge25" class="edge">
<title>Node15&#45;&gt;Node16</title>
<path fill="none" stroke="midnightblue" d="M1085.28,-240.81C1087.28,-228.38 1089.55,-214.27 1091.34,-203.16"/>
<polygon fill="midnightblue" stroke="midnightblue" points="1081.81,-240.33 1083.68,-250.76 1088.72,-241.44 1081.81,-240.33"/>
</g>
<!-- Node17&#45;&gt;Node4 -->
<g id="edge27" class="edge">
<title>Node17&#45;&gt;Node4</title>
<path fill="none" stroke="midnightblue" d="M1239.08,-244.32C1226.36,-233.94 1212.21,-221.5 1200.5,-209 1180.51,-187.65 1185.77,-172.32 1161.5,-156 1107.88,-119.93 1034.7,-105.01 982.7,-98.85"/>
<polygon fill="midnightblue" stroke="midnightblue" points="1237.2,-247.29 1247.19,-250.82 1241.58,-241.83 1237.2,-247.29"/>
</g>
<!-- Node17&#45;&gt;Node18 -->
<g id="edge28" class="edge">
<title>Node17&#45;&gt;Node18</title>
<path fill="none" stroke="midnightblue" d="M1322.64,-246.48C1350.57,-232.83 1385.1,-215.96 1411.38,-203.11"/>
<polygon fill="midnightblue" stroke="midnightblue" points="1320.89,-243.44 1313.45,-250.98 1323.97,-249.73 1320.89,-243.44"/>
</g>
<!-- Node19 -->
<g id="node19" class="node">
<title>Node19</title>
<g id="a_node19"><a xlink:href="../../dc/d3d/movesplinepath_8cpp.html" target="_top" xlink:title=" ">
<polygon fill="white" stroke="black" points="1210,-167.5 1210,-197.5 1375,-197.5 1375,-167.5 1210,-167.5"/>
<text text-anchor="start" x="1218" y="-185.5" font-family="Helvetica,sans-Serif" font-size="10.00">src/libs/vtools/undocommands</text>
<text text-anchor="middle" x="1292.5" y="-174.5" font-family="Helvetica,sans-Serif" font-size="10.00">/movesplinepath.cpp</text>
</a>
</g>
</g>
<!-- Node17&#45;&gt;Node19 -->
<g id="edge29" class="edge">
<title>Node17&#45;&gt;Node19</title>
<path fill="none" stroke="midnightblue" d="M1280.01,-240.69C1283.18,-226.15 1286.85,-209.36 1289.39,-197.74"/>
<polygon fill="midnightblue" stroke="midnightblue" points="1276.53,-240.24 1277.81,-250.76 1283.36,-241.74 1276.53,-240.24"/>
</g>
<!-- Node21 -->
<g id="node21" class="node">
<title>Node21</title>
<g id="a_node21"><a xlink:href="../../d2/dc5/vtoolcut_8cpp.html" target="_top" xlink:title=" ">
<polygon fill="white" stroke="black" points="1899,-156.5 1899,-208.5 2028,-208.5 2028,-156.5 1899,-156.5"/>
<text text-anchor="start" x="1907" y="-196.5" font-family="Helvetica,sans-Serif" font-size="10.00">src/libs/vtools/tools</text>
<text text-anchor="start" x="1907" y="-185.5" font-family="Helvetica,sans-Serif" font-size="10.00">/drawTools/toolpoint</text>
<text text-anchor="start" x="1907" y="-174.5" font-family="Helvetica,sans-Serif" font-size="10.00">/toolsinglepoint/toolcut</text>
<text text-anchor="middle" x="1963.5" y="-163.5" font-family="Helvetica,sans-Serif" font-size="10.00">/vtoolcut.cpp</text>
</a>
</g>
</g>
<!-- Node20&#45;&gt;Node21 -->
<g id="edge33" class="edge">
<title>Node20&#45;&gt;Node21</title>
<path fill="none" stroke="midnightblue" d="M1892.14,-238.93C1904.98,-228.96 1919,-218.07 1931.18,-208.61"/>
<polygon fill="midnightblue" stroke="midnightblue" points="1889.65,-236.44 1883.9,-245.34 1893.94,-241.97 1889.65,-236.44"/>
</g>
<!-- Node22 -->
<g id="node22" class="node">
<title>Node22</title>
<g id="a_node22"><a xlink:href="../../d5/dbe/vtoolcutarc_8h.html" target="_top" xlink:title=" ">
<polygon fill="white" stroke="black" points="1528,-156.5 1528,-208.5 1657,-208.5 1657,-156.5 1528,-156.5"/>
<text text-anchor="start" x="1536" y="-196.5" font-family="Helvetica,sans-Serif" font-size="10.00">src/libs/vtools/tools</text>
<text text-anchor="start" x="1536" y="-185.5" font-family="Helvetica,sans-Serif" font-size="10.00">/drawTools/toolpoint</text>
<text text-anchor="start" x="1536" y="-174.5" font-family="Helvetica,sans-Serif" font-size="10.00">/toolsinglepoint/toolcut</text>
<text text-anchor="middle" x="1592.5" y="-163.5" font-family="Helvetica,sans-Serif" font-size="10.00">/vtoolcutarc.h</text>
</a>
</g>
</g>
<!-- Node20&#45;&gt;Node22 -->
<g id="edge34" class="edge">
<title>Node20&#45;&gt;Node22</title>
<path fill="none" stroke="midnightblue" d="M1776.98,-246.18C1742.94,-234.99 1702.14,-221.45 1665.5,-209 1662.83,-208.09 1660.11,-207.16 1657.36,-206.22"/>
<polygon fill="midnightblue" stroke="midnightblue" points="1776.26,-249.62 1786.85,-249.42 1778.44,-242.97 1776.26,-249.62"/>
</g>
<!-- Node23 -->
<g id="node23" class="node">
<title>Node23</title>
<g id="a_node23"><a xlink:href="../../dc/db5/vtoolcutarc_8cpp.html" target="_top" xlink:title=" ">
<polygon fill="white" stroke="black" points="1528,-67.5 1528,-119.5 1657,-119.5 1657,-67.5 1528,-67.5"/>
<text text-anchor="start" x="1536" y="-107.5" font-family="Helvetica,sans-Serif" font-size="10.00">src/libs/vtools/tools</text>
<text text-anchor="start" x="1536" y="-96.5" font-family="Helvetica,sans-Serif" font-size="10.00">/drawTools/toolpoint</text>
<text text-anchor="start" x="1536" y="-85.5" font-family="Helvetica,sans-Serif" font-size="10.00">/toolsinglepoint/toolcut</text>
<text text-anchor="middle" x="1592.5" y="-74.5" font-family="Helvetica,sans-Serif" font-size="10.00">/vtoolcutarc.cpp</text>
</a>
</g>
</g>
<!-- Node20&#45;&gt;Node23 -->
<g id="edge37" class="edge">
<title>Node20&#45;&gt;Node23</title>
<path fill="none" stroke="midnightblue" d="M1848.3,-235.35C1844.14,-209.88 1834.55,-176.46 1812.5,-156 1765.72,-112.6 1734.84,-137.59 1673.5,-120 1668.26,-118.5 1662.84,-116.9 1657.4,-115.26"/>
<polygon fill="midnightblue" stroke="midnightblue" points="1844.85,-235.96 1849.73,-245.36 1851.78,-234.97 1844.85,-235.96"/>
</g>
<!-- Node24 -->
<g id="node24" class="node">
<title>Node24</title>
<g id="a_node24"><a xlink:href="../../da/dae/vtoolcutspline_8cpp.html" target="_top" xlink:title=" ">
<polygon fill="white" stroke="black" points="1683,-67.5 1683,-119.5 1812,-119.5 1812,-67.5 1683,-67.5"/>
<text text-anchor="start" x="1691" y="-107.5" font-family="Helvetica,sans-Serif" font-size="10.00">src/libs/vtools/tools</text>
<text text-anchor="start" x="1691" y="-96.5" font-family="Helvetica,sans-Serif" font-size="10.00">/drawTools/toolpoint</text>
<text text-anchor="start" x="1691" y="-85.5" font-family="Helvetica,sans-Serif" font-size="10.00">/toolsinglepoint/toolcut</text>
<text text-anchor="middle" x="1747.5" y="-74.5" font-family="Helvetica,sans-Serif" font-size="10.00">/vtoolcutspline.cpp</text>
</a>
</g>
</g>
<!-- Node20&#45;&gt;Node24 -->
<g id="edge38" class="edge">
<title>Node20&#45;&gt;Node24</title>
<path fill="none" stroke="midnightblue" d="M1858.1,-235.31C1860.74,-211.35 1860.41,-179.79 1846.5,-156 1837.61,-140.81 1823.33,-128.84 1808.35,-119.65"/>
<polygon fill="midnightblue" stroke="midnightblue" points="1854.61,-235.03 1856.77,-245.4 1861.55,-235.95 1854.61,-235.03"/>
</g>
<!-- Node25 -->
<g id="node25" class="node">
<title>Node25</title>
<g id="a_node25"><a xlink:href="../../d6/d9d/vtoolcutsplinepath_8h.html" target="_top" xlink:title=" ">
<polygon fill="white" stroke="black" points="2046,-156.5 2046,-208.5 2175,-208.5 2175,-156.5 2046,-156.5"/>
<text text-anchor="start" x="2054" y="-196.5" font-family="Helvetica,sans-Serif" font-size="10.00">src/libs/vtools/tools</text>
<text text-anchor="start" x="2054" y="-185.5" font-family="Helvetica,sans-Serif" font-size="10.00">/drawTools/toolpoint</text>
<text text-anchor="start" x="2054" y="-174.5" font-family="Helvetica,sans-Serif" font-size="10.00">/toolsinglepoint/toolcut</text>
<text text-anchor="middle" x="2110.5" y="-163.5" font-family="Helvetica,sans-Serif" font-size="10.00">/vtoolcutsplinepath.h</text>
</a>
</g>
</g>
<!-- Node20&#45;&gt;Node25 -->
<g id="edge39" class="edge">
<title>Node20&#45;&gt;Node25</title>
<path fill="none" stroke="midnightblue" d="M1925.99,-245.94C1959.76,-234.76 2000.17,-221.3 2036.5,-209 2039.59,-207.95 2042.75,-206.88 2045.94,-205.79"/>
<polygon fill="midnightblue" stroke="midnightblue" points="1924.59,-242.72 1916.2,-249.18 1926.79,-249.36 1924.59,-242.72"/>
</g>
<!-- Node27 -->
<g id="node27" class="node">
<title>Node27</title>
<g id="a_node27"><a xlink:href="../../d1/ddf/vtoolcutsplinepath_8cpp.html" target="_top" xlink:title=" ">
<polygon fill="white" stroke="black" points="2203,-67.5 2203,-119.5 2334,-119.5 2334,-67.5 2203,-67.5"/>
<text text-anchor="start" x="2211" y="-107.5" font-family="Helvetica,sans-Serif" font-size="10.00">src/libs/vtools/tools</text>
<text text-anchor="start" x="2211" y="-96.5" font-family="Helvetica,sans-Serif" font-size="10.00">/drawTools/toolpoint</text>
<text text-anchor="start" x="2211" y="-85.5" font-family="Helvetica,sans-Serif" font-size="10.00">/toolsinglepoint/toolcut</text>
<text text-anchor="middle" x="2268.5" y="-74.5" font-family="Helvetica,sans-Serif" font-size="10.00">/vtoolcutsplinepath.cpp</text>
</a>
</g>
</g>
<!-- Node20&#45;&gt;Node27 -->
<g id="edge47" class="edge">
<title>Node20&#45;&gt;Node27</title>
<path fill="none" stroke="midnightblue" d="M1926.33,-263.15C2010.95,-253.72 2142.45,-235.38 2184.5,-209 2218.75,-187.51 2243.59,-146.57 2257.02,-119.91"/>
<polygon fill="midnightblue" stroke="midnightblue" points="1925.81,-259.68 1916.25,-264.25 1926.57,-266.64 1925.81,-259.68"/>
</g>
<!-- Node29 -->
<g id="node29" class="node">
<title>Node29</title>
<g id="a_node29"><a xlink:href="../../d7/dea/vtoolcutspline_8h.html" target="_top" xlink:title=" ">
<polygon fill="white" stroke="black" points="1675,-156.5 1675,-208.5 1804,-208.5 1804,-156.5 1675,-156.5"/>
<text text-anchor="start" x="1683" y="-196.5" font-family="Helvetica,sans-Serif" font-size="10.00">src/libs/vtools/tools</text>
<text text-anchor="start" x="1683" y="-185.5" font-family="Helvetica,sans-Serif" font-size="10.00">/drawTools/toolpoint</text>
<text text-anchor="start" x="1683" y="-174.5" font-family="Helvetica,sans-Serif" font-size="10.00">/toolsinglepoint/toolcut</text>
<text text-anchor="middle" x="1739.5" y="-163.5" font-family="Helvetica,sans-Serif" font-size="10.00">/vtoolcutspline.h</text>
</a>
</g>
</g>
<!-- Node20&#45;&gt;Node29 -->
<g id="edge44" class="edge">
<title>Node20&#45;&gt;Node29</title>
<path fill="none" stroke="midnightblue" d="M1810.86,-238.93C1798.02,-228.96 1784,-218.07 1771.82,-208.61"/>
<polygon fill="midnightblue" stroke="midnightblue" points="1809.06,-241.97 1819.1,-245.34 1813.35,-236.44 1809.06,-241.97"/>
</g>
<!-- Node22&#45;&gt;Node4 -->
<g id="edge35" class="edge">
<title>Node22&#45;&gt;Node4</title>
<path fill="none" stroke="midnightblue" d="M1517.72,-156.06C1318.81,-113.23 1091.57,-100.28 982.76,-96.26"/>
<polygon fill="midnightblue" stroke="midnightblue" points="1517.25,-159.54 1527.77,-158.25 1518.75,-152.7 1517.25,-159.54"/>
</g>
<!-- Node22&#45;&gt;Node23 -->
<g id="edge36" class="edge">
<title>Node22&#45;&gt;Node23</title>
<path fill="none" stroke="midnightblue" d="M1592.5,-146.19C1592.5,-137.28 1592.5,-127.9 1592.5,-119.61"/>
<polygon fill="midnightblue" stroke="midnightblue" points="1589,-146.34 1592.5,-156.34 1596,-146.34 1589,-146.34"/>
</g>
<!-- Node25&#45;&gt;Node4 -->
<g id="edge40" class="edge">
<title>Node25&#45;&gt;Node4</title>
<path fill="none" stroke="midnightblue" d="M2035.64,-156.29C1895.2,-134.21 1199.17,-105.54 982.76,-97"/>
<polygon fill="midnightblue" stroke="midnightblue" points="2035.35,-159.8 2045.81,-158.07 2036.56,-152.9 2035.35,-159.8"/>
</g>
<!-- Node26 -->
<g id="node26" class="node">
<title>Node26</title>
<g id="a_node26"><a xlink:href="../../da/d99/vtoolcurveintersectaxis_8cpp.html" target="_top" xlink:title=" ">
<polygon fill="white" stroke="black" points="1845,-67.5 1845,-119.5 2002,-119.5 2002,-67.5 1845,-67.5"/>
<text text-anchor="start" x="1853" y="-107.5" font-family="Helvetica,sans-Serif" font-size="10.00">src/libs/vtools/tools</text>
<text text-anchor="start" x="1853" y="-96.5" font-family="Helvetica,sans-Serif" font-size="10.00">/drawTools/toolpoint</text>
<text text-anchor="start" x="1853" y="-85.5" font-family="Helvetica,sans-Serif" font-size="10.00">/toolsinglepoint/toollinepoint</text>
<text text-anchor="middle" x="1923.5" y="-74.5" font-family="Helvetica,sans-Serif" font-size="10.00">/vtoolcurveintersectaxis.cpp</text>
</a>
</g>
</g>
<!-- Node25&#45;&gt;Node26 -->
<g id="edge41" class="edge">
<title>Node25&#45;&gt;Node26</title>
<path fill="none" stroke="midnightblue" d="M2047.42,-152.15C2024.65,-141.56 1999.18,-129.71 1977.28,-119.52"/>
<polygon fill="midnightblue" stroke="midnightblue" points="2046.12,-155.41 2056.66,-156.45 2049.07,-149.06 2046.12,-155.41"/>
</g>
<!-- Node25&#45;&gt;Node27 -->
<g id="edge42" class="edge">
<title>Node25&#45;&gt;Node27</title>
<path fill="none" stroke="midnightblue" d="M2164.99,-151.49C2183.87,-141.1 2204.82,-129.57 2222.9,-119.61"/>
<polygon fill="midnightblue" stroke="midnightblue" points="2163.27,-148.45 2156.2,-156.34 2166.65,-154.58 2163.27,-148.45"/>
</g>
<!-- Node28 -->
<g id="node28" class="node">
<title>Node28</title>
<g id="a_node28"><a xlink:href="../../d7/d3d/vistoolcutsplinepath_8cpp.html" target="_top" xlink:title=" ">
<polygon fill="white" stroke="black" points="2020.5,-78.5 2020.5,-108.5 2184.5,-108.5 2184.5,-78.5 2020.5,-78.5"/>
<text text-anchor="start" x="2028.5" y="-96.5" font-family="Helvetica,sans-Serif" font-size="10.00">src/libs/vtools/visualization</text>
<text text-anchor="middle" x="2102.5" y="-85.5" font-family="Helvetica,sans-Serif" font-size="10.00">/path/vistoolcutsplinepath.cpp</text>
</a>
</g>
</g>
<!-- Node25&#45;&gt;Node28 -->
<g id="edge43" class="edge">
<title>Node25&#45;&gt;Node28</title>
<path fill="none" stroke="midnightblue" d="M2107.25,-146.15C2106.04,-133.05 2104.75,-118.93 2103.81,-108.77"/>
<polygon fill="midnightblue" stroke="midnightblue" points="2103.79,-146.7 2108.19,-156.34 2110.76,-146.06 2103.79,-146.7"/>
</g>
<!-- Node29&#45;&gt;Node4 -->
<g id="edge45" class="edge">
<title>Node29&#45;&gt;Node4</title>
<path fill="none" stroke="midnightblue" d="M1664.94,-156.13C1409.16,-103.57 1111.3,-95.43 982.73,-94.42"/>
<polygon fill="midnightblue" stroke="midnightblue" points="1664.28,-159.57 1674.79,-158.18 1665.71,-152.71 1664.28,-159.57"/>
</g>
<!-- Node29&#45;&gt;Node24 -->
<g id="edge46" class="edge">
<title>Node29&#45;&gt;Node24</title>
<path fill="none" stroke="midnightblue" d="M1742.75,-146.19C1743.57,-137.28 1744.43,-127.9 1745.19,-119.61"/>
<polygon fill="midnightblue" stroke="midnightblue" points="1739.24,-146.06 1741.81,-156.34 1746.21,-146.7 1739.24,-146.06"/>
</g>
</g>
</svg>
