<?xml version="1.0" encoding="UTF-8" standalone="no"?>
<!DOCTYPE svg PUBLIC "-//W3C//DTD SVG 1.1//EN"
 "http://www.w3.org/Graphics/SVG/1.1/DTD/svg11.dtd">
<!-- Generated by graphviz version 2.43.0 (0)
 -->
<!-- Title: src/libs/vtools/tools/drawTools/toolcurve/vabstractspline.h Pages: 1 -->
<svg width="2447pt" height="384pt"
 viewBox="0.00 0.00 2446.50 384.00" xmlns="http://www.w3.org/2000/svg" xmlns:xlink="http://www.w3.org/1999/xlink">
<g id="graph0" class="graph" transform="scale(1 1) rotate(0) translate(4 380)">
<title>src/libs/vtools/tools/drawTools/toolcurve/vabstractspline.h</title>
<polygon fill="white" stroke="transparent" points="-4,4 -4,-380 2442.5,-380 2442.5,4 -4,4"/>
<!-- Node1 -->
<g id="node1" class="node">
<title>Node1</title>
<g id="a_node1"><a xlink:title=" ">
<polygon fill="#bfbfbf" stroke="black" points="714,-334.5 714,-375.5 831,-375.5 831,-334.5 714,-334.5"/>
<text text-anchor="start" x="722" y="-363.5" font-family="Helvetica,sans-Serif" font-size="10.00">src/libs/vtools/tools</text>
<text text-anchor="start" x="722" y="-352.5" font-family="Helvetica,sans-Serif" font-size="10.00">/drawTools/toolcurve</text>
<text text-anchor="middle" x="772.5" y="-341.5" font-family="Helvetica,sans-Serif" font-size="10.00">/vabstractspline.h</text>
</a>
</g>
</g>
<!-- Node2 -->
<g id="node2" class="node">
<title>Node2</title>
<g id="a_node2"><a xlink:href="../../d2/d9b/vtoolarc_8cpp.html" target="_top" xlink:title=" ">
<polygon fill="white" stroke="black" points="87,-162 87,-203 204,-203 204,-162 87,-162"/>
<text text-anchor="start" x="95" y="-191" font-family="Helvetica,sans-Serif" font-size="10.00">src/libs/vtools/tools</text>
<text text-anchor="start" x="95" y="-180" font-family="Helvetica,sans-Serif" font-size="10.00">/drawTools/toolcurve</text>
<text text-anchor="middle" x="145.5" y="-169" font-family="Helvetica,sans-Serif" font-size="10.00">/vtoolarc.cpp</text>
</a>
</g>
</g>
<!-- Node1&#45;&gt;Node2 -->
<g id="edge1" class="edge">
<title>Node1&#45;&gt;Node2</title>
<path fill="none" stroke="midnightblue" d="M703.86,-352.32C553.1,-347.99 203.34,-334.12 164.5,-298 138.68,-273.99 139.28,-229.3 142.25,-203.42"/>
<polygon fill="midnightblue" stroke="midnightblue" points="703.84,-355.83 713.93,-352.61 704.03,-348.83 703.84,-355.83"/>
</g>
<!-- Node3 -->
<g id="node3" class="node">
<title>Node3</title>
<g id="a_node3"><a xlink:href="../../d3/d19/vtoolarc_8h.html" target="_top" xlink:title=" ">
<polygon fill="white" stroke="black" points="0,-251 0,-292 117,-292 117,-251 0,-251"/>
<text text-anchor="start" x="8" y="-280" font-family="Helvetica,sans-Serif" font-size="10.00">src/libs/vtools/tools</text>
<text text-anchor="start" x="8" y="-269" font-family="Helvetica,sans-Serif" font-size="10.00">/drawTools/toolcurve</text>
<text text-anchor="middle" x="58.5" y="-258" font-family="Helvetica,sans-Serif" font-size="10.00">/vtoolarc.h</text>
</a>
</g>
</g>
<!-- Node1&#45;&gt;Node3 -->
<g id="edge2" class="edge">
<title>Node1&#45;&gt;Node3</title>
<path fill="none" stroke="midnightblue" d="M703.53,-353.57C585.18,-351.59 336.38,-342.01 131.5,-298 124.28,-296.45 116.79,-294.39 109.49,-292.11"/>
<polygon fill="midnightblue" stroke="midnightblue" points="703.83,-357.07 713.89,-353.73 703.94,-350.07 703.83,-357.07"/>
</g>
<!-- Node6 -->
<g id="node6" class="node">
<title>Node6</title>
<g id="a_node6"><a xlink:href="../../de/dd9/vtoolarcwithlength_8h.html" target="_top" xlink:title=" ">
<polygon fill="white" stroke="black" points="521.5,-251 521.5,-292 641.5,-292 641.5,-251 521.5,-251"/>
<text text-anchor="start" x="529.5" y="-280" font-family="Helvetica,sans-Serif" font-size="10.00">src/libs/vtools/tools</text>
<text text-anchor="start" x="529.5" y="-269" font-family="Helvetica,sans-Serif" font-size="10.00">/drawTools/toolcurve</text>
<text text-anchor="middle" x="581.5" y="-258" font-family="Helvetica,sans-Serif" font-size="10.00">/vtoolarcwithlength.h</text>
</a>
</g>
</g>
<!-- Node1&#45;&gt;Node6 -->
<g id="edge6" class="edge">
<title>Node1&#45;&gt;Node6</title>
<path fill="none" stroke="midnightblue" d="M717.31,-330.45C688.73,-318.26 654.27,-303.55 627.21,-292"/>
<polygon fill="midnightblue" stroke="midnightblue" points="716.18,-333.77 726.75,-334.48 718.93,-327.33 716.18,-333.77"/>
</g>
<!-- Node7 -->
<g id="node7" class="node">
<title>Node7</title>
<g id="a_node7"><a xlink:href="../../d3/d33/vtoolarcwithlength_8cpp.html" target="_top" xlink:title=" ">
<polygon fill="white" stroke="black" points="428,-162 428,-203 559,-203 559,-162 428,-162"/>
<text text-anchor="start" x="436" y="-191" font-family="Helvetica,sans-Serif" font-size="10.00">src/libs/vtools/tools</text>
<text text-anchor="start" x="436" y="-180" font-family="Helvetica,sans-Serif" font-size="10.00">/drawTools/toolcurve</text>
<text text-anchor="middle" x="493.5" y="-169" font-family="Helvetica,sans-Serif" font-size="10.00">/vtoolarcwithlength.cpp</text>
</a>
</g>
</g>
<!-- Node1&#45;&gt;Node7 -->
<g id="edge9" class="edge">
<title>Node1&#45;&gt;Node7</title>
<path fill="none" stroke="midnightblue" d="M703.74,-347.87C635.78,-340.34 538.34,-325.1 512.5,-298 488.31,-272.62 488.22,-228.85 490.65,-203.41"/>
<polygon fill="midnightblue" stroke="midnightblue" points="703.64,-351.38 713.96,-348.97 704.39,-344.42 703.64,-351.38"/>
</g>
<!-- Node8 -->
<g id="node8" class="node">
<title>Node8</title>
<g id="a_node8"><a xlink:href="../../d1/d05/vabstractspline_8cpp.html" target="_top" xlink:title=" ">
<polygon fill="white" stroke="black" points="348,-251 348,-292 465,-292 465,-251 348,-251"/>
<text text-anchor="start" x="356" y="-280" font-family="Helvetica,sans-Serif" font-size="10.00">src/libs/vtools/tools</text>
<text text-anchor="start" x="356" y="-269" font-family="Helvetica,sans-Serif" font-size="10.00">/drawTools/toolcurve</text>
<text text-anchor="middle" x="406.5" y="-258" font-family="Helvetica,sans-Serif" font-size="10.00">/vabstractspline.cpp</text>
</a>
</g>
</g>
<!-- Node1&#45;&gt;Node8 -->
<g id="edge10" class="edge">
<title>Node1&#45;&gt;Node8</title>
<path fill="none" stroke="midnightblue" d="M703.75,-343.8C643.96,-334.23 555.27,-318.35 479.5,-298 473.02,-296.26 466.28,-294.22 459.64,-292.08"/>
<polygon fill="midnightblue" stroke="midnightblue" points="703.41,-347.29 713.83,-345.39 704.5,-340.37 703.41,-347.29"/>
</g>
<!-- Node9 -->
<g id="node9" class="node">
<title>Node9</title>
<g id="a_node9"><a xlink:href="../../db/dcd/vtoolcubicbezier_8cpp.html" target="_top" xlink:title=" ">
<polygon fill="white" stroke="black" points="261,-162 261,-203 380,-203 380,-162 261,-162"/>
<text text-anchor="start" x="269" y="-191" font-family="Helvetica,sans-Serif" font-size="10.00">src/libs/vtools/tools</text>
<text text-anchor="start" x="269" y="-180" font-family="Helvetica,sans-Serif" font-size="10.00">/drawTools/toolcurve</text>
<text text-anchor="middle" x="320.5" y="-169" font-family="Helvetica,sans-Serif" font-size="10.00">/vtoolcubicbezier.cpp</text>
</a>
</g>
</g>
<!-- Node1&#45;&gt;Node9 -->
<g id="edge11" class="edge">
<title>Node1&#45;&gt;Node9</title>
<path fill="none" stroke="midnightblue" d="M703.4,-354.78C594.23,-354.47 389.01,-347.14 338.5,-298 313.26,-273.45 314.12,-228.96 317.18,-203.26"/>
<polygon fill="midnightblue" stroke="midnightblue" points="703.66,-358.28 713.66,-354.79 703.66,-351.28 703.66,-358.28"/>
</g>
<!-- Node10 -->
<g id="node10" class="node">
<title>Node10</title>
<g id="a_node10"><a xlink:href="../../d4/df1/vtoolcubicbezier_8h.html" target="_top" xlink:title=" ">
<polygon fill="white" stroke="black" points="174,-251 174,-292 291,-292 291,-251 174,-251"/>
<text text-anchor="start" x="182" y="-280" font-family="Helvetica,sans-Serif" font-size="10.00">src/libs/vtools/tools</text>
<text text-anchor="start" x="182" y="-269" font-family="Helvetica,sans-Serif" font-size="10.00">/drawTools/toolcurve</text>
<text text-anchor="middle" x="232.5" y="-258" font-family="Helvetica,sans-Serif" font-size="10.00">/vtoolcubicbezier.h</text>
</a>
</g>
</g>
<!-- Node1&#45;&gt;Node10 -->
<g id="edge12" class="edge">
<title>Node1&#45;&gt;Node10</title>
<path fill="none" stroke="midnightblue" d="M703.93,-350.44C612.17,-344.61 444.86,-330.29 305.5,-298 298.44,-296.36 291.11,-294.28 283.93,-292.02"/>
<polygon fill="midnightblue" stroke="midnightblue" points="703.72,-353.93 713.92,-351.06 704.16,-346.94 703.72,-353.93"/>
</g>
<!-- Node11 -->
<g id="node11" class="node">
<title>Node11</title>
<g id="a_node11"><a xlink:href="../../d6/d25/vtoolcubicbezierpath_8h.html" target="_top" xlink:title=" ">
<polygon fill="white" stroke="black" points="660,-251 660,-292 791,-292 791,-251 660,-251"/>
<text text-anchor="start" x="668" y="-280" font-family="Helvetica,sans-Serif" font-size="10.00">src/libs/vtools/tools</text>
<text text-anchor="start" x="668" y="-269" font-family="Helvetica,sans-Serif" font-size="10.00">/drawTools/toolcurve</text>
<text text-anchor="middle" x="725.5" y="-258" font-family="Helvetica,sans-Serif" font-size="10.00">/vtoolcubicbezierpath.h</text>
</a>
</g>
</g>
<!-- Node1&#45;&gt;Node11 -->
<g id="edge15" class="edge">
<title>Node1&#45;&gt;Node11</title>
<path fill="none" stroke="midnightblue" d="M756,-325.39C749.64,-314.37 742.53,-302.03 736.77,-292.05"/>
<polygon fill="midnightblue" stroke="midnightblue" points="753.09,-327.36 761.12,-334.27 759.16,-323.86 753.09,-327.36"/>
</g>
<!-- Node12 -->
<g id="node12" class="node">
<title>Node12</title>
<g id="a_node12"><a xlink:href="../../d4/d49/vtoolcubicbezierpath_8cpp.html" target="_top" xlink:title=" ">
<polygon fill="white" stroke="black" points="653.5,-162 653.5,-203 795.5,-203 795.5,-162 653.5,-162"/>
<text text-anchor="start" x="661.5" y="-191" font-family="Helvetica,sans-Serif" font-size="10.00">src/libs/vtools/tools</text>
<text text-anchor="start" x="661.5" y="-180" font-family="Helvetica,sans-Serif" font-size="10.00">/drawTools/toolcurve</text>
<text text-anchor="middle" x="724.5" y="-169" font-family="Helvetica,sans-Serif" font-size="10.00">/vtoolcubicbezierpath.cpp</text>
</a>
</g>
</g>
<!-- Node1&#45;&gt;Node12 -->
<g id="edge18" class="edge">
<title>Node1&#45;&gt;Node12</title>
<path fill="none" stroke="midnightblue" d="M789.89,-325.23C801.16,-302.62 811.69,-270.75 799.5,-245 791.29,-227.65 775.52,-213.56 760.55,-203.26"/>
<polygon fill="midnightblue" stroke="midnightblue" points="786.66,-323.83 785.07,-334.31 792.85,-327.11 786.66,-323.83"/>
</g>
<!-- Node13 -->
<g id="node13" class="node">
<title>Node13</title>
<g id="a_node13"><a xlink:href="../../d5/d63/vtoolellipticalarc_8h.html" target="_top" xlink:title=" ">
<polygon fill="white" stroke="black" points="848,-251 848,-292 965,-292 965,-251 848,-251"/>
<text text-anchor="start" x="856" y="-280" font-family="Helvetica,sans-Serif" font-size="10.00">src/libs/vtools/tools</text>
<text text-anchor="start" x="856" y="-269" font-family="Helvetica,sans-Serif" font-size="10.00">/drawTools/toolcurve</text>
<text text-anchor="middle" x="906.5" y="-258" font-family="Helvetica,sans-Serif" font-size="10.00">/vtoolellipticalarc.h</text>
</a>
</g>
</g>
<!-- Node1&#45;&gt;Node13 -->
<g id="edge19" class="edge">
<title>Node1&#45;&gt;Node13</title>
<path fill="none" stroke="midnightblue" d="M813.3,-329.19C832.83,-317.3 855.9,-303.27 874.2,-292.14"/>
<polygon fill="midnightblue" stroke="midnightblue" points="811.32,-326.29 804.6,-334.48 814.96,-332.27 811.32,-326.29"/>
</g>
<!-- Node14 -->
<g id="node14" class="node">
<title>Node14</title>
<g id="a_node14"><a xlink:href="../../d8/dc7/vtoolellipticalarc_8cpp.html" target="_top" xlink:title=" ">
<polygon fill="white" stroke="black" points="851.5,-162 851.5,-203 973.5,-203 973.5,-162 851.5,-162"/>
<text text-anchor="start" x="859.5" y="-191" font-family="Helvetica,sans-Serif" font-size="10.00">src/libs/vtools/tools</text>
<text text-anchor="start" x="859.5" y="-180" font-family="Helvetica,sans-Serif" font-size="10.00">/drawTools/toolcurve</text>
<text text-anchor="middle" x="912.5" y="-169" font-family="Helvetica,sans-Serif" font-size="10.00">/vtoolellipticalarc.cpp</text>
</a>
</g>
</g>
<!-- Node1&#45;&gt;Node14 -->
<g id="edge22" class="edge">
<title>Node1&#45;&gt;Node14</title>
<path fill="none" stroke="midnightblue" d="M841.34,-343.84C892.94,-334.66 957.32,-319.3 973.5,-298 987.75,-279.24 982.47,-266.78 973.5,-245 966.63,-228.31 952.8,-213.76 940.04,-203"/>
<polygon fill="midnightblue" stroke="midnightblue" points="840.46,-340.44 831.21,-345.6 841.66,-347.34 840.46,-340.44"/>
</g>
<!-- Node15 -->
<g id="node15" class="node">
<title>Node15</title>
<g id="a_node15"><a xlink:href="../../db/d8c/vtoolspline_8h.html" target="_top" xlink:title=" ">
<polygon fill="white" stroke="black" points="1022,-251 1022,-292 1139,-292 1139,-251 1022,-251"/>
<text text-anchor="start" x="1030" y="-280" font-family="Helvetica,sans-Serif" font-size="10.00">src/libs/vtools/tools</text>
<text text-anchor="start" x="1030" y="-269" font-family="Helvetica,sans-Serif" font-size="10.00">/drawTools/toolcurve</text>
<text text-anchor="middle" x="1080.5" y="-258" font-family="Helvetica,sans-Serif" font-size="10.00">/vtoolspline.h</text>
</a>
</g>
</g>
<!-- Node1&#45;&gt;Node15 -->
<g id="edge23" class="edge">
<title>Node1&#45;&gt;Node15</title>
<path fill="none" stroke="midnightblue" d="M841.16,-339.58C888.28,-329.21 952.07,-314.24 1007.5,-298 1013.68,-296.19 1020.12,-294.16 1026.48,-292.06"/>
<polygon fill="midnightblue" stroke="midnightblue" points="840.39,-336.17 831.36,-341.72 841.88,-343 840.39,-336.17"/>
</g>
<!-- Node16 -->
<g id="node16" class="node">
<title>Node16</title>
<g id="a_node16"><a xlink:href="../../d0/d39/vtoolspline_8cpp.html" target="_top" xlink:title=" ">
<polygon fill="white" stroke="black" points="1030,-162 1030,-203 1147,-203 1147,-162 1030,-162"/>
<text text-anchor="start" x="1038" y="-191" font-family="Helvetica,sans-Serif" font-size="10.00">src/libs/vtools/tools</text>
<text text-anchor="start" x="1038" y="-180" font-family="Helvetica,sans-Serif" font-size="10.00">/drawTools/toolcurve</text>
<text text-anchor="middle" x="1088.5" y="-169" font-family="Helvetica,sans-Serif" font-size="10.00">/vtoolspline.cpp</text>
</a>
</g>
</g>
<!-- Node1&#45;&gt;Node16 -->
<g id="edge30" class="edge">
<title>Node1&#45;&gt;Node16</title>
<path fill="none" stroke="midnightblue" d="M841.21,-354C938.45,-352.37 1108.75,-342.97 1147.5,-298 1162.88,-280.16 1156.29,-266.85 1147.5,-245 1140.88,-228.53 1127.5,-213.98 1115.15,-203.18"/>
<polygon fill="midnightblue" stroke="midnightblue" points="841.12,-350.5 831.17,-354.14 841.22,-357.5 841.12,-350.5"/>
</g>
<!-- Node17 -->
<g id="node17" class="node">
<title>Node17</title>
<g id="a_node17"><a xlink:href="../../d6/d38/vtoolsplinepath_8h.html" target="_top" xlink:title=" ">
<polygon fill="white" stroke="black" points="1212,-251 1212,-292 1329,-292 1329,-251 1212,-251"/>
<text text-anchor="start" x="1220" y="-280" font-family="Helvetica,sans-Serif" font-size="10.00">src/libs/vtools/tools</text>
<text text-anchor="start" x="1220" y="-269" font-family="Helvetica,sans-Serif" font-size="10.00">/drawTools/toolcurve</text>
<text text-anchor="middle" x="1270.5" y="-258" font-family="Helvetica,sans-Serif" font-size="10.00">/vtoolsplinepath.h</text>
</a>
</g>
</g>
<!-- Node1&#45;&gt;Node17 -->
<g id="edge26" class="edge">
<title>Node1&#45;&gt;Node17</title>
<path fill="none" stroke="midnightblue" d="M841.36,-347.61C923.06,-339.33 1063.13,-322.93 1181.5,-298 1191.41,-295.91 1201.83,-293.31 1211.91,-290.57"/>
<polygon fill="midnightblue" stroke="midnightblue" points="840.8,-344.15 831.2,-348.63 841.5,-351.11 840.8,-344.15"/>
</g>
<!-- Node18 -->
<g id="node18" class="node">
<title>Node18</title>
<g id="a_node18"><a xlink:href="../../d8/d1f/vtoolsplinepath_8cpp.html" target="_top" xlink:title=" ">
<polygon fill="white" stroke="black" points="1387,-162 1387,-203 1504,-203 1504,-162 1387,-162"/>
<text text-anchor="start" x="1395" y="-191" font-family="Helvetica,sans-Serif" font-size="10.00">src/libs/vtools/tools</text>
<text text-anchor="start" x="1395" y="-180" font-family="Helvetica,sans-Serif" font-size="10.00">/drawTools/toolcurve</text>
<text text-anchor="middle" x="1445.5" y="-169" font-family="Helvetica,sans-Serif" font-size="10.00">/vtoolsplinepath.cpp</text>
</a>
</g>
</g>
<!-- Node1&#45;&gt;Node18 -->
<g id="edge31" class="edge">
<title>Node1&#45;&gt;Node18</title>
<path fill="none" stroke="midnightblue" d="M841.76,-353.14C972.88,-350.53 1251.9,-340.06 1337.5,-298 1380.91,-276.67 1415.92,-230.1 1433.4,-203.39"/>
<polygon fill="midnightblue" stroke="midnightblue" points="841.37,-349.64 831.44,-353.33 841.51,-356.64 841.37,-349.64"/>
</g>
<!-- Node20 -->
<g id="node20" class="node">
<title>Node20</title>
<g id="a_node20"><a xlink:href="../../d7/d7d/vtoolcut_8h.html" target="_top" xlink:title=" ">
<polygon fill="white" stroke="black" points="1781,-245.5 1781,-297.5 1910,-297.5 1910,-245.5 1781,-245.5"/>
<text text-anchor="start" x="1789" y="-285.5" font-family="Helvetica,sans-Serif" font-size="10.00">src/libs/vtools/tools</text>
<text text-anchor="start" x="1789" y="-274.5" font-family="Helvetica,sans-Serif" font-size="10.00">/drawTools/toolpoint</text>
<text text-anchor="start" x="1789" y="-263.5" font-family="Helvetica,sans-Serif" font-size="10.00">/toolsinglepoint/toolcut</text>
<text text-anchor="middle" x="1845.5" y="-252.5" font-family="Helvetica,sans-Serif" font-size="10.00">/vtoolcut.h</text>
</a>
</g>
</g>
<!-- Node1&#45;&gt;Node20 -->
<g id="edge32" class="edge">
<title>Node1&#45;&gt;Node20</title>
<path fill="none" stroke="midnightblue" d="M841.46,-348.76C1036.59,-333.94 1590.75,-291.85 1780.69,-277.42"/>
<polygon fill="midnightblue" stroke="midnightblue" points="841.04,-345.28 831.33,-349.53 841.57,-352.26 841.04,-345.28"/>
</g>
<!-- Node3&#45;&gt;Node2 -->
<g id="edge3" class="edge">
<title>Node3&#45;&gt;Node2</title>
<path fill="none" stroke="midnightblue" d="M85.6,-243.4C98.63,-230.37 113.95,-215.05 125.84,-203.16"/>
<polygon fill="midnightblue" stroke="midnightblue" points="82.84,-241.21 78.24,-250.76 87.79,-246.16 82.84,-241.21"/>
</g>
<!-- Node4 -->
<g id="node4" class="node">
<title>Node4</title>
<g id="a_node4"><a xlink:href="../../d4/d56/drawtools_8h.html" target="_top" xlink:title=" ">
<polygon fill="white" stroke="black" points="848.5,-78.5 848.5,-108.5 976.5,-108.5 976.5,-78.5 848.5,-78.5"/>
<text text-anchor="start" x="856.5" y="-96.5" font-family="Helvetica,sans-Serif" font-size="10.00">src/libs/vtools/tools</text>
<text text-anchor="middle" x="912.5" y="-85.5" font-family="Helvetica,sans-Serif" font-size="10.00">/drawTools/drawtools.h</text>
</a>
</g>
</g>
<!-- Node3&#45;&gt;Node4 -->
<g id="edge4" class="edge">
<title>Node3&#45;&gt;Node4</title>
<path fill="none" stroke="midnightblue" d="M54.26,-240.77C52.34,-214.44 54.48,-177.02 77.5,-156 134.03,-104.39 662.77,-96.08 848.43,-94.75"/>
<polygon fill="midnightblue" stroke="midnightblue" points="50.79,-241.33 55.23,-250.95 57.76,-240.66 50.79,-241.33"/>
</g>
<!-- Node5 -->
<g id="node5" class="node">
<title>Node5</title>
<g id="a_node5"><a xlink:href="../../d5/da5/tools_8h.html" target="_top" xlink:title=" ">
<polygon fill="white" stroke="black" points="857,-0.5 857,-30.5 968,-30.5 968,-0.5 857,-0.5"/>
<text text-anchor="start" x="865" y="-18.5" font-family="Helvetica,sans-Serif" font-size="10.00">src/libs/vtools/tools</text>
<text text-anchor="middle" x="912.5" y="-7.5" font-family="Helvetica,sans-Serif" font-size="10.00">/tools.h</text>
</a>
</g>
</g>
<!-- Node4&#45;&gt;Node5 -->
<g id="edge5" class="edge">
<title>Node4&#45;&gt;Node5</title>
<path fill="none" stroke="midnightblue" d="M912.5,-68.09C912.5,-55.76 912.5,-41.22 912.5,-30.73"/>
<polygon fill="midnightblue" stroke="midnightblue" points="909,-68.2 912.5,-78.2 916,-68.21 909,-68.2"/>
</g>
<!-- Node6&#45;&gt;Node4 -->
<g id="edge8" class="edge">
<title>Node6&#45;&gt;Node4</title>
<path fill="none" stroke="midnightblue" d="M586.63,-240.8C592.75,-214.56 605.6,-177.26 631.5,-156 664.12,-129.23 776.13,-111 848.5,-101.7"/>
<polygon fill="midnightblue" stroke="midnightblue" points="583.2,-240.09 584.54,-250.6 590.05,-241.55 583.2,-240.09"/>
</g>
<!-- Node6&#45;&gt;Node7 -->
<g id="edge7" class="edge">
<title>Node6&#45;&gt;Node7</title>
<path fill="none" stroke="midnightblue" d="M554.09,-243.4C540.91,-230.37 525.41,-215.05 513.39,-203.16"/>
<polygon fill="midnightblue" stroke="midnightblue" points="551.96,-246.22 561.53,-250.76 556.88,-241.24 551.96,-246.22"/>
</g>
<!-- Node10&#45;&gt;Node4 -->
<g id="edge14" class="edge">
<title>Node10&#45;&gt;Node4</title>
<path fill="none" stroke="midnightblue" d="M228.32,-240.42C226.53,-214.19 228.81,-177.12 251.5,-156 294.63,-115.85 690.65,-100.6 848.25,-96.09"/>
<polygon fill="midnightblue" stroke="midnightblue" points="224.85,-240.94 229.25,-250.58 231.82,-240.3 224.85,-240.94"/>
</g>
<!-- Node10&#45;&gt;Node9 -->
<g id="edge13" class="edge">
<title>Node10&#45;&gt;Node9</title>
<path fill="none" stroke="midnightblue" d="M259.91,-243.4C273.09,-230.37 288.59,-215.05 300.61,-203.16"/>
<polygon fill="midnightblue" stroke="midnightblue" points="257.12,-241.24 252.47,-250.76 262.04,-246.22 257.12,-241.24"/>
</g>
<!-- Node11&#45;&gt;Node4 -->
<g id="edge17" class="edge">
<title>Node11&#45;&gt;Node4</title>
<path fill="none" stroke="midnightblue" d="M677.2,-245C664.18,-235.55 651.71,-223.53 644.5,-209 634.03,-187.9 629.82,-174.43 644.5,-156 669.52,-124.59 777.41,-107.9 848.44,-100.15"/>
<polygon fill="midnightblue" stroke="midnightblue" points="675.55,-248.11 685.79,-250.83 679.49,-242.31 675.55,-248.11"/>
</g>
<!-- Node11&#45;&gt;Node12 -->
<g id="edge16" class="edge">
<title>Node11&#45;&gt;Node12</title>
<path fill="none" stroke="midnightblue" d="M725.15,-240.44C725.01,-228.1 724.85,-214.16 724.73,-203.16"/>
<polygon fill="midnightblue" stroke="midnightblue" points="721.66,-240.8 725.27,-250.76 728.66,-240.72 721.66,-240.8"/>
</g>
<!-- Node13&#45;&gt;Node4 -->
<g id="edge20" class="edge">
<title>Node13&#45;&gt;Node4</title>
<path fill="none" stroke="midnightblue" d="M869.19,-244.09C858.52,-234.4 848.23,-222.46 842.5,-209 833.27,-187.33 832.79,-177.46 842.5,-156 851.7,-135.66 871.33,-119.38 887.46,-108.69"/>
<polygon fill="midnightblue" stroke="midnightblue" points="867.09,-246.9 876.97,-250.74 871.64,-241.58 867.09,-246.9"/>
</g>
<!-- Node13&#45;&gt;Node14 -->
<g id="edge21" class="edge">
<title>Node13&#45;&gt;Node14</title>
<path fill="none" stroke="midnightblue" d="M908.57,-240.44C909.42,-228.1 910.39,-214.16 911.14,-203.16"/>
<polygon fill="midnightblue" stroke="midnightblue" points="905.06,-240.54 907.86,-250.76 912.04,-241.02 905.06,-240.54"/>
</g>
<!-- Node15&#45;&gt;Node4 -->
<g id="edge24" class="edge">
<title>Node15&#45;&gt;Node4</title>
<path fill="none" stroke="midnightblue" d="M1052.64,-243.72C1042.19,-233.22 1030.45,-220.87 1020.5,-209 1001.88,-186.79 1001.96,-177.48 982.5,-156 966.43,-138.26 945.54,-120.47 930.78,-108.63"/>
<polygon fill="midnightblue" stroke="midnightblue" points="1050.41,-246.44 1059.98,-251 1055.34,-241.47 1050.41,-246.44"/>
</g>
<!-- Node15&#45;&gt;Node16 -->
<g id="edge25" class="edge">
<title>Node15&#45;&gt;Node16</title>
<path fill="none" stroke="midnightblue" d="M1083.26,-240.44C1084.4,-228.1 1085.68,-214.16 1086.69,-203.16"/>
<polygon fill="midnightblue" stroke="midnightblue" points="1079.75,-240.48 1082.32,-250.76 1086.72,-241.12 1079.75,-240.48"/>
</g>
<!-- Node17&#45;&gt;Node4 -->
<g id="edge27" class="edge">
<title>Node17&#45;&gt;Node4</title>
<path fill="none" stroke="midnightblue" d="M1234.96,-244.81C1221.62,-234.39 1206.73,-221.81 1194.5,-209 1174.3,-187.85 1179.77,-172.32 1155.5,-156 1101.88,-119.93 1028.7,-105.01 976.7,-98.85"/>
<polygon fill="midnightblue" stroke="midnightblue" points="1232.97,-247.69 1243.04,-250.99 1237.23,-242.13 1232.97,-247.69"/>
</g>
<!-- Node17&#45;&gt;Node18 -->
<g id="edge28" class="edge">
<title>Node17&#45;&gt;Node18</title>
<path fill="none" stroke="midnightblue" d="M1318.82,-246.48C1346.27,-232.83 1380.22,-215.96 1406.06,-203.11"/>
<polygon fill="midnightblue" stroke="midnightblue" points="1317.17,-243.39 1309.77,-250.98 1320.29,-249.66 1317.17,-243.39"/>
</g>
<!-- Node19 -->
<g id="node19" class="node">
<title>Node19</title>
<g id="a_node19"><a xlink:href="../../dc/d3d/movesplinepath_8cpp.html" target="_top" xlink:title=" ">
<polygon fill="white" stroke="black" points="1204,-167.5 1204,-197.5 1369,-197.5 1369,-167.5 1204,-167.5"/>
<text text-anchor="start" x="1212" y="-185.5" font-family="Helvetica,sans-Serif" font-size="10.00">src/libs/vtools/undocommands</text>
<text text-anchor="middle" x="1286.5" y="-174.5" font-family="Helvetica,sans-Serif" font-size="10.00">/movesplinepath.cpp</text>
</a>
</g>
</g>
<!-- Node17&#45;&gt;Node19 -->
<g id="edge29" class="edge">
<title>Node17&#45;&gt;Node19</title>
<path fill="none" stroke="midnightblue" d="M1275.98,-240.69C1278.66,-226.15 1281.74,-209.36 1283.88,-197.74"/>
<polygon fill="midnightblue" stroke="midnightblue" points="1272.5,-240.29 1274.13,-250.76 1279.38,-241.56 1272.5,-240.29"/>
</g>
<!-- Node21 -->
<g id="node21" class="node">
<title>Node21</title>
<g id="a_node21"><a xlink:href="../../d2/dc5/vtoolcut_8cpp.html" target="_top" xlink:title=" ">
<polygon fill="white" stroke="black" points="1893,-156.5 1893,-208.5 2022,-208.5 2022,-156.5 1893,-156.5"/>
<text text-anchor="start" x="1901" y="-196.5" font-family="Helvetica,sans-Serif" font-size="10.00">src/libs/vtools/tools</text>
<text text-anchor="start" x="1901" y="-185.5" font-family="Helvetica,sans-Serif" font-size="10.00">/drawTools/toolpoint</text>
<text text-anchor="start" x="1901" y="-174.5" font-family="Helvetica,sans-Serif" font-size="10.00">/toolsinglepoint/toolcut</text>
<text text-anchor="middle" x="1957.5" y="-163.5" font-family="Helvetica,sans-Serif" font-size="10.00">/vtoolcut.cpp</text>
</a>
</g>
</g>
<!-- Node20&#45;&gt;Node21 -->
<g id="edge33" class="edge">
<title>Node20&#45;&gt;Node21</title>
<path fill="none" stroke="midnightblue" d="M1886.14,-238.93C1898.98,-228.96 1913,-218.07 1925.18,-208.61"/>
<polygon fill="midnightblue" stroke="midnightblue" points="1883.65,-236.44 1877.9,-245.34 1887.94,-241.97 1883.65,-236.44"/>
</g>
<!-- Node22 -->
<g id="node22" class="node">
<title>Node22</title>
<g id="a_node22"><a xlink:href="../../d5/dbe/vtoolcutarc_8h.html" target="_top" xlink:title=" ">
<polygon fill="white" stroke="black" points="1522,-156.5 1522,-208.5 1651,-208.5 1651,-156.5 1522,-156.5"/>
<text text-anchor="start" x="1530" y="-196.5" font-family="Helvetica,sans-Serif" font-size="10.00">src/libs/vtools/tools</text>
<text text-anchor="start" x="1530" y="-185.5" font-family="Helvetica,sans-Serif" font-size="10.00">/drawTools/toolpoint</text>
<text text-anchor="start" x="1530" y="-174.5" font-family="Helvetica,sans-Serif" font-size="10.00">/toolsinglepoint/toolcut</text>
<text text-anchor="middle" x="1586.5" y="-163.5" font-family="Helvetica,sans-Serif" font-size="10.00">/vtoolcutarc.h</text>
</a>
</g>
</g>
<!-- Node20&#45;&gt;Node22 -->
<g id="edge34" class="edge">
<title>Node20&#45;&gt;Node22</title>
<path fill="none" stroke="midnightblue" d="M1770.98,-246.18C1736.94,-234.99 1696.14,-221.45 1659.5,-209 1656.83,-208.09 1654.11,-207.16 1651.36,-206.22"/>
<polygon fill="midnightblue" stroke="midnightblue" points="1770.26,-249.62 1780.85,-249.42 1772.44,-242.97 1770.26,-249.62"/>
</g>
<!-- Node23 -->
<g id="node23" class="node">
<title>Node23</title>
<g id="a_node23"><a xlink:href="../../dc/db5/vtoolcutarc_8cpp.html" target="_top" xlink:title=" ">
<polygon fill="white" stroke="black" points="1522,-67.5 1522,-119.5 1651,-119.5 1651,-67.5 1522,-67.5"/>
<text text-anchor="start" x="1530" y="-107.5" font-family="Helvetica,sans-Serif" font-size="10.00">src/libs/vtools/tools</text>
<text text-anchor="start" x="1530" y="-96.5" font-family="Helvetica,sans-Serif" font-size="10.00">/drawTools/toolpoint</text>
<text text-anchor="start" x="1530" y="-85.5" font-family="Helvetica,sans-Serif" font-size="10.00">/toolsinglepoint/toolcut</text>
<text text-anchor="middle" x="1586.5" y="-74.5" font-family="Helvetica,sans-Serif" font-size="10.00">/vtoolcutarc.cpp</text>
</a>
</g>
</g>
<!-- Node20&#45;&gt;Node23 -->
<g id="edge37" class="edge">
<title>Node20&#45;&gt;Node23</title>
<path fill="none" stroke="midnightblue" d="M1842.19,-235.47C1837.96,-210.07 1828.36,-176.67 1806.5,-156 1794.97,-145.1 1711.92,-123.8 1651.25,-109.36"/>
<polygon fill="midnightblue" stroke="midnightblue" points="1838.74,-236.07 1843.64,-245.46 1845.67,-235.06 1838.74,-236.07"/>
</g>
<!-- Node24 -->
<g id="node24" class="node">
<title>Node24</title>
<g id="a_node24"><a xlink:href="../../d7/dea/vtoolcutspline_8h.html" target="_top" xlink:title=" ">
<polygon fill="white" stroke="black" points="1669,-156.5 1669,-208.5 1798,-208.5 1798,-156.5 1669,-156.5"/>
<text text-anchor="start" x="1677" y="-196.5" font-family="Helvetica,sans-Serif" font-size="10.00">src/libs/vtools/tools</text>
<text text-anchor="start" x="1677" y="-185.5" font-family="Helvetica,sans-Serif" font-size="10.00">/drawTools/toolpoint</text>
<text text-anchor="start" x="1677" y="-174.5" font-family="Helvetica,sans-Serif" font-size="10.00">/toolsinglepoint/toolcut</text>
<text text-anchor="middle" x="1733.5" y="-163.5" font-family="Helvetica,sans-Serif" font-size="10.00">/vtoolcutspline.h</text>
</a>
</g>
</g>
<!-- Node20&#45;&gt;Node24 -->
<g id="edge38" class="edge">
<title>Node20&#45;&gt;Node24</title>
<path fill="none" stroke="midnightblue" d="M1804.86,-238.93C1792.02,-228.96 1778,-218.07 1765.82,-208.61"/>
<polygon fill="midnightblue" stroke="midnightblue" points="1803.06,-241.97 1813.1,-245.34 1807.35,-236.44 1803.06,-241.97"/>
</g>
<!-- Node25 -->
<g id="node25" class="node">
<title>Node25</title>
<g id="a_node25"><a xlink:href="../../da/dae/vtoolcutspline_8cpp.html" target="_top" xlink:title=" ">
<polygon fill="white" stroke="black" points="1719,-67.5 1719,-119.5 1848,-119.5 1848,-67.5 1719,-67.5"/>
<text text-anchor="start" x="1727" y="-107.5" font-family="Helvetica,sans-Serif" font-size="10.00">src/libs/vtools/tools</text>
<text text-anchor="start" x="1727" y="-96.5" font-family="Helvetica,sans-Serif" font-size="10.00">/drawTools/toolpoint</text>
<text text-anchor="start" x="1727" y="-85.5" font-family="Helvetica,sans-Serif" font-size="10.00">/toolsinglepoint/toolcut</text>
<text text-anchor="middle" x="1783.5" y="-74.5" font-family="Helvetica,sans-Serif" font-size="10.00">/vtoolcutspline.cpp</text>
</a>
</g>
</g>
<!-- Node20&#45;&gt;Node25 -->
<g id="edge41" class="edge">
<title>Node20&#45;&gt;Node25</title>
<path fill="none" stroke="midnightblue" d="M1850.1,-235.15C1851.69,-211.79 1850.94,-181 1840.5,-156 1834.78,-142.3 1824.57,-129.75 1814.35,-119.61"/>
<polygon fill="midnightblue" stroke="midnightblue" points="1846.6,-235.05 1849.24,-245.31 1853.57,-235.64 1846.6,-235.05"/>
</g>
<!-- Node26 -->
<g id="node26" class="node">
<title>Node26</title>
<g id="a_node26"><a xlink:href="../../d6/d9d/vtoolcutsplinepath_8h.html" target="_top" xlink:title=" ">
<polygon fill="white" stroke="black" points="2079,-156.5 2079,-208.5 2208,-208.5 2208,-156.5 2079,-156.5"/>
<text text-anchor="start" x="2087" y="-196.5" font-family="Helvetica,sans-Serif" font-size="10.00">src/libs/vtools/tools</text>
<text text-anchor="start" x="2087" y="-185.5" font-family="Helvetica,sans-Serif" font-size="10.00">/drawTools/toolpoint</text>
<text text-anchor="start" x="2087" y="-174.5" font-family="Helvetica,sans-Serif" font-size="10.00">/toolsinglepoint/toolcut</text>
<text text-anchor="middle" x="2143.5" y="-163.5" font-family="Helvetica,sans-Serif" font-size="10.00">/vtoolcutsplinepath.h</text>
</a>
</g>
</g>
<!-- Node20&#45;&gt;Node26 -->
<g id="edge42" class="edge">
<title>Node20&#45;&gt;Node26</title>
<path fill="none" stroke="midnightblue" d="M1920.07,-250.32C1962.52,-238.65 2016.62,-223.44 2064.5,-209 2069.19,-207.58 2074.03,-206.1 2078.89,-204.58"/>
<polygon fill="midnightblue" stroke="midnightblue" points="1919.09,-246.96 1910.37,-252.99 1920.94,-253.71 1919.09,-246.96"/>
</g>
<!-- Node27 -->
<g id="node27" class="node">
<title>Node27</title>
<g id="a_node27"><a xlink:href="../../d1/ddf/vtoolcutsplinepath_8cpp.html" target="_top" xlink:title=" ">
<polygon fill="white" stroke="black" points="1950,-67.5 1950,-119.5 2081,-119.5 2081,-67.5 1950,-67.5"/>
<text text-anchor="start" x="1958" y="-107.5" font-family="Helvetica,sans-Serif" font-size="10.00">src/libs/vtools/tools</text>
<text text-anchor="start" x="1958" y="-96.5" font-family="Helvetica,sans-Serif" font-size="10.00">/drawTools/toolpoint</text>
<text text-anchor="start" x="1958" y="-85.5" font-family="Helvetica,sans-Serif" font-size="10.00">/toolsinglepoint/toolcut</text>
<text text-anchor="middle" x="2015.5" y="-74.5" font-family="Helvetica,sans-Serif" font-size="10.00">/vtoolcutsplinepath.cpp</text>
</a>
</g>
</g>
<!-- Node20&#45;&gt;Node27 -->
<g id="edge47" class="edge">
<title>Node20&#45;&gt;Node27</title>
<path fill="none" stroke="midnightblue" d="M1920.15,-265.91C1959.8,-259.21 2005.4,-243.79 2030.5,-209 2049.27,-182.99 2038.72,-144.76 2028.16,-119.75"/>
<polygon fill="midnightblue" stroke="midnightblue" points="1919.57,-262.46 1910.22,-267.43 1920.63,-269.37 1919.57,-262.46"/>
</g>
<!-- Node22&#45;&gt;Node4 -->
<g id="edge35" class="edge">
<title>Node22&#45;&gt;Node4</title>
<path fill="none" stroke="midnightblue" d="M1511.72,-156.06C1312.81,-113.23 1085.57,-100.28 976.76,-96.26"/>
<polygon fill="midnightblue" stroke="midnightblue" points="1511.25,-159.54 1521.77,-158.25 1512.75,-152.7 1511.25,-159.54"/>
</g>
<!-- Node22&#45;&gt;Node23 -->
<g id="edge36" class="edge">
<title>Node22&#45;&gt;Node23</title>
<path fill="none" stroke="midnightblue" d="M1586.5,-146.19C1586.5,-137.28 1586.5,-127.9 1586.5,-119.61"/>
<polygon fill="midnightblue" stroke="midnightblue" points="1583,-146.34 1586.5,-156.34 1590,-146.34 1583,-146.34"/>
</g>
<!-- Node24&#45;&gt;Node4 -->
<g id="edge39" class="edge">
<title>Node24&#45;&gt;Node4</title>
<path fill="none" stroke="midnightblue" d="M1658.94,-156.13C1403.16,-103.57 1105.3,-95.43 976.73,-94.42"/>
<polygon fill="midnightblue" stroke="midnightblue" points="1658.28,-159.57 1668.79,-158.18 1659.71,-152.71 1658.28,-159.57"/>
</g>
<!-- Node24&#45;&gt;Node25 -->
<g id="edge40" class="edge">
<title>Node24&#45;&gt;Node25</title>
<path fill="none" stroke="midnightblue" d="M1752.96,-147.64C1758.32,-138.31 1764.05,-128.35 1769.07,-119.61"/>
<polygon fill="midnightblue" stroke="midnightblue" points="1749.91,-145.92 1747.96,-156.34 1755.98,-149.41 1749.91,-145.92"/>
</g>
<!-- Node26&#45;&gt;Node4 -->
<g id="edge43" class="edge">
<title>Node26&#45;&gt;Node4</title>
<path fill="none" stroke="midnightblue" d="M2068.66,-162.77C2055.99,-160.13 2042.92,-157.73 2030.5,-156 1926.29,-141.48 1198.73,-107.53 976.69,-97.4"/>
<polygon fill="midnightblue" stroke="midnightblue" points="2068.2,-166.25 2078.71,-164.93 2069.67,-159.41 2068.2,-166.25"/>
</g>
<!-- Node26&#45;&gt;Node27 -->
<g id="edge44" class="edge">
<title>Node26&#45;&gt;Node27</title>
<path fill="none" stroke="midnightblue" d="M2097.9,-150.5C2082.99,-140.37 2066.63,-129.25 2052.44,-119.61"/>
<polygon fill="midnightblue" stroke="midnightblue" points="2096.24,-153.61 2106.48,-156.34 2100.17,-147.82 2096.24,-153.61"/>
</g>
<!-- Node28 -->
<g id="node28" class="node">
<title>Node28</title>
<g id="a_node28"><a xlink:href="../../da/d99/vtoolcurveintersectaxis_8cpp.html" target="_top" xlink:title=" ">
<polygon fill="white" stroke="black" points="2099,-67.5 2099,-119.5 2256,-119.5 2256,-67.5 2099,-67.5"/>
<text text-anchor="start" x="2107" y="-107.5" font-family="Helvetica,sans-Serif" font-size="10.00">src/libs/vtools/tools</text>
<text text-anchor="start" x="2107" y="-96.5" font-family="Helvetica,sans-Serif" font-size="10.00">/drawTools/toolpoint</text>
<text text-anchor="start" x="2107" y="-85.5" font-family="Helvetica,sans-Serif" font-size="10.00">/toolsinglepoint/toollinepoint</text>
<text text-anchor="middle" x="2177.5" y="-74.5" font-family="Helvetica,sans-Serif" font-size="10.00">/vtoolcurveintersectaxis.cpp</text>
</a>
</g>
</g>
<!-- Node26&#45;&gt;Node28 -->
<g id="edge45" class="edge">
<title>Node26&#45;&gt;Node28</title>
<path fill="none" stroke="midnightblue" d="M2157.07,-146.77C2160.62,-137.69 2164.38,-128.08 2167.69,-119.61"/>
<polygon fill="midnightblue" stroke="midnightblue" points="2153.71,-145.75 2153.33,-156.34 2160.23,-148.3 2153.71,-145.75"/>
</g>
<!-- Node29 -->
<g id="node29" class="node">
<title>Node29</title>
<g id="a_node29"><a xlink:href="../../d7/d3d/vistoolcutsplinepath_8cpp.html" target="_top" xlink:title=" ">
<polygon fill="white" stroke="black" points="2274.5,-78.5 2274.5,-108.5 2438.5,-108.5 2438.5,-78.5 2274.5,-78.5"/>
<text text-anchor="start" x="2282.5" y="-96.5" font-family="Helvetica,sans-Serif" font-size="10.00">src/libs/vtools/visualization</text>
<text text-anchor="middle" x="2356.5" y="-85.5" font-family="Helvetica,sans-Serif" font-size="10.00">/path/vistoolcutsplinepath.cpp</text>
</a>
</g>
</g>
<!-- Node26&#45;&gt;Node29 -->
<g id="edge46" class="edge">
<title>Node26&#45;&gt;Node29</title>
<path fill="none" stroke="midnightblue" d="M2214.38,-152.55C2250.62,-137.75 2293.08,-120.4 2322.09,-108.55"/>
<polygon fill="midnightblue" stroke="midnightblue" points="2212.76,-149.43 2204.82,-156.45 2215.4,-155.91 2212.76,-149.43"/>
</g>
</g>
</svg>
