<?xml version="1.0" encoding="UTF-8" standalone="no"?>
<!DOCTYPE svg PUBLIC "-//W3C//DTD SVG 1.1//EN"
 "http://www.w3.org/Graphics/SVG/1.1/DTD/svg11.dtd">
<!-- Generated by graphviz version 2.43.0 (0)
 -->
<!-- Title: src/libs/vpatterndb/measurements.cpp Pages: 1 -->
<svg width="953pt" height="203pt"
 viewBox="0.00 0.00 952.82 203.00" xmlns="http://www.w3.org/2000/svg" xmlns:xlink="http://www.w3.org/1999/xlink">
<g id="graph0" class="graph" transform="scale(1 1) rotate(0) translate(4 199)">
<title>src/libs/vpatterndb/measurements.cpp</title>
<!-- Node1 -->
<g id="Node000001" class="node">
<title>Node1</title>
<g id="a_Node000001"><a xlink:title=" ">
<polygon fill="#999999" stroke="#666666" points="428.82,-195 315.82,-195 315.82,-165 428.82,-165 428.82,-195"/>
<text text-anchor="start" x="323.82" y="-183" font-family="Helvetica,sans-Serif" font-size="10.00">src/libs/vpatterndb</text>
<text text-anchor="middle" x="372.32" y="-172" font-family="Helvetica,sans-Serif" font-size="10.00">/measurements.cpp</text>
</a>
</g>
</g>
<!-- Node2 -->
<g id="Node000002" class="node">
<title>Node2</title>
<g id="a_Node000002"><a xlink:href="../../dc/db7/measurements_8h.html" target="_top" xlink:title=" ">
<polygon fill="white" stroke="#666666" points="421.82,-129 322.82,-129 322.82,-110 421.82,-110 421.82,-129"/>
<text text-anchor="middle" x="372.32" y="-117" font-family="Helvetica,sans-Serif" font-size="10.00">measurements.h</text>
</a>
</g>
</g>
<!-- Node1&#45;&gt;Node2 -->
<g id="edge1_Node000001_Node000002" class="edge">
<title>Node1&#45;&gt;Node2</title>
<g id="a_edge1_Node000001_Node000002"><a xlink:title=" ">
<path fill="none" stroke="#63b8ff" d="M372.32,-164.84C372.32,-157.21 372.32,-147.7 372.32,-139.45"/>
<polygon fill="#63b8ff" stroke="#63b8ff" points="375.82,-139.27 372.32,-129.27 368.82,-139.27 375.82,-139.27"/>
</a>
</g>
</g>
<!-- Node4 -->
<g id="Node000004" class="node">
<title>Node4</title>
<g id="a_Node000004"><a xlink:href="../../d0/de0/vtranslatemeasurements_8h.html" target="_top" xlink:title=" ">
<polygon fill="white" stroke="#666666" points="293.82,-129 144.82,-129 144.82,-110 293.82,-110 293.82,-129"/>
<text text-anchor="middle" x="219.32" y="-117" font-family="Helvetica,sans-Serif" font-size="10.00">vtranslatemeasurements.h</text>
</a>
</g>
</g>
<!-- Node1&#45;&gt;Node4 -->
<g id="edge3_Node000001_Node000004" class="edge">
<title>Node1&#45;&gt;Node4</title>
<g id="a_edge3_Node000001_Node000004"><a xlink:title=" ">
<path fill="none" stroke="#63b8ff" d="M335.67,-164.99C310.03,-155.18 276.1,-142.21 251.5,-132.81"/>
<polygon fill="#63b8ff" stroke="#63b8ff" points="252.5,-129.44 241.91,-129.14 250,-135.98 252.5,-129.44"/>
</a>
</g>
</g>
<!-- Node9 -->
<g id="Node000009" class="node">
<title>Node9</title>
<g id="a_Node000009"><a xlink:href="../../d4/da4/def_8h.html" target="_top" xlink:title=" ">
<polygon fill="white" stroke="#666666" points="658.32,-129 576.32,-129 576.32,-110 658.32,-110 658.32,-129"/>
<text text-anchor="middle" x="617.32" y="-117" font-family="Helvetica,sans-Serif" font-size="10.00">../vmisc/def.h</text>
</a>
</g>
</g>
<!-- Node1&#45;&gt;Node9 -->
<g id="edge9_Node000001_Node000009" class="edge">
<title>Node1&#45;&gt;Node9</title>
<g id="a_edge9_Node000001_Node000009"><a xlink:title=" ">
<path fill="none" stroke="#63b8ff" d="M428.83,-165.51C472.22,-155.15 531.33,-141.03 571.72,-131.39"/>
<polygon fill="#63b8ff" stroke="#63b8ff" points="572.65,-134.76 581.57,-129.04 571.03,-127.95 572.65,-134.76"/>
</a>
</g>
</g>
<!-- Node3 -->
<g id="Node000003" class="node">
<title>Node3</title>
<g id="a_Node000003"><a xlink:title=" ">
<polygon fill="#e0e0e0" stroke="#999999" points="407.32,-74 337.32,-74 337.32,-55 407.32,-55 407.32,-74"/>
<text text-anchor="middle" x="372.32" y="-62" font-family="Helvetica,sans-Serif" font-size="10.00">QStringList</text>
</a>
</g>
</g>
<!-- Node2&#45;&gt;Node3 -->
<g id="edge2_Node000002_Node000003" class="edge">
<title>Node2&#45;&gt;Node3</title>
<g id="a_edge2_Node000002_Node000003"><a xlink:title=" ">
<path fill="none" stroke="#63b8ff" d="M372.32,-109.75C372.32,-102.8 372.32,-92.85 372.32,-84.13"/>
<polygon fill="#63b8ff" stroke="#63b8ff" points="375.82,-84.09 372.32,-74.09 368.82,-84.09 375.82,-84.09"/>
</a>
</g>
</g>
<!-- Node5 -->
<g id="Node000005" class="node">
<title>Node5</title>
<g id="a_Node000005"><a xlink:title=" ">
<polygon fill="#e0e0e0" stroke="#999999" points="241.82,-74 196.82,-74 196.82,-55 241.82,-55 241.82,-74"/>
<text text-anchor="middle" x="219.32" y="-62" font-family="Helvetica,sans-Serif" font-size="10.00">QMap</text>
</a>
</g>
</g>
<!-- Node4&#45;&gt;Node5 -->
<g id="edge4_Node000004_Node000005" class="edge">
<title>Node4&#45;&gt;Node5</title>
<g id="a_edge4_Node000004_Node000005"><a xlink:title=" ">
<path fill="none" stroke="#63b8ff" d="M219.32,-109.75C219.32,-102.8 219.32,-92.85 219.32,-84.13"/>
<polygon fill="#63b8ff" stroke="#63b8ff" points="222.82,-84.09 219.32,-74.09 215.82,-84.09 222.82,-84.09"/>
</a>
</g>
</g>
<!-- Node6 -->
<g id="Node000006" class="node">
<title>Node6</title>
<g id="a_Node000006"><a xlink:title=" ">
<polygon fill="#e0e0e0" stroke="#999999" points="122.82,-19 69.82,-19 69.82,0 122.82,0 122.82,-19"/>
<text text-anchor="middle" x="96.32" y="-7" font-family="Helvetica,sans-Serif" font-size="10.00">QString</text>
</a>
</g>
</g>
<!-- Node4&#45;&gt;Node6 -->
<g id="edge5_Node000004_Node000006" class="edge">
<title>Node4&#45;&gt;Node6</title>
<g id="a_edge5_Node000004_Node000006"><a xlink:title=" ">
<path fill="none" stroke="#63b8ff" d="M144.7,-112.85C90.18,-106.98 22.83,-95.53 5.32,-74 -14.24,-49.96 26.71,-31.06 59.85,-20.33"/>
<polygon fill="#63b8ff" stroke="#63b8ff" points="61.28,-23.55 69.81,-17.27 59.22,-16.86 61.28,-23.55"/>
</a>
</g>
</g>
<!-- Node7 -->
<g id="Node000007" class="node">
<title>Node7</title>
<g id="a_Node000007"><a xlink:title=" ">
<polygon fill="#e0e0e0" stroke="#999999" points="318.82,-74 259.82,-74 259.82,-55 318.82,-55 318.82,-74"/>
<text text-anchor="middle" x="289.32" y="-62" font-family="Helvetica,sans-Serif" font-size="10.00">QtGlobal</text>
</a>
</g>
</g>
<!-- Node4&#45;&gt;Node7 -->
<g id="edge6_Node000004_Node000007" class="edge">
<title>Node4&#45;&gt;Node7</title>
<g id="a_edge6_Node000004_Node000007"><a xlink:title=" ">
<path fill="none" stroke="#63b8ff" d="M230.56,-109.98C241.11,-102 257.12,-89.88 269.76,-80.31"/>
<polygon fill="#63b8ff" stroke="#63b8ff" points="272.01,-83 277.87,-74.17 267.78,-77.42 272.01,-83"/>
</a>
</g>
</g>
<!-- Node8 -->
<g id="Node000008" class="node">
<title>Node8</title>
<g id="a_Node000008"><a xlink:href="../../da/da3/qmutranslation_8h.html" target="_top" xlink:title="The VTranslation class help store string for translation.">
<polygon fill="white" stroke="#666666" points="178.32,-74 14.32,-74 14.32,-55 178.32,-55 178.32,-74"/>
<text text-anchor="middle" x="96.32" y="-62" font-family="Helvetica,sans-Serif" font-size="10.00">../qmuparser/qmutranslation.h</text>
</a>
</g>
</g>
<!-- Node4&#45;&gt;Node8 -->
<g id="edge7_Node000004_Node000008" class="edge">
<title>Node4&#45;&gt;Node8</title>
<g id="a_edge7_Node000004_Node000008"><a xlink:title=" ">
<path fill="none" stroke="#63b8ff" d="M199.56,-109.98C179.59,-101.38 148.51,-87.99 125.67,-78.15"/>
<polygon fill="#63b8ff" stroke="#63b8ff" points="127.01,-74.91 116.44,-74.17 124.24,-81.34 127.01,-74.91"/>
</a>
</g>
</g>
<!-- Node8&#45;&gt;Node6 -->
<g id="edge8_Node000008_Node000006" class="edge">
<title>Node8&#45;&gt;Node6</title>
<g id="a_edge8_Node000008_Node000006"><a xlink:title=" ">
<path fill="none" stroke="#63b8ff" d="M96.32,-54.75C96.32,-47.8 96.32,-37.85 96.32,-29.13"/>
<polygon fill="#63b8ff" stroke="#63b8ff" points="99.82,-29.09 96.32,-19.09 92.82,-29.09 99.82,-29.09"/>
</a>
</g>
</g>
<!-- Node9&#45;&gt;Node3 -->
<g id="edge13_Node000009_Node000003" class="edge">
<title>Node9&#45;&gt;Node3</title>
<g id="a_edge13_Node000009_Node000003"><a xlink:title=" ">
<path fill="none" stroke="#63b8ff" d="M577.95,-109.98C534.19,-100.52 463.63,-85.25 417.61,-75.3"/>
<polygon fill="#63b8ff" stroke="#63b8ff" points="418.12,-71.83 407.61,-73.13 416.64,-78.67 418.12,-71.83"/>
</a>
</g>
</g>
<!-- Node9&#45;&gt;Node6 -->
<g id="edge12_Node000009_Node000006" class="edge">
<title>Node9&#45;&gt;Node6</title>
<g id="a_edge12_Node000009_Node000006"><a xlink:title=" ">
<path fill="none" stroke="#63b8ff" d="M658.41,-117.91C728.66,-115.57 859.98,-104.65 813.32,-55 789.8,-29.98 276.08,-15.07 133.01,-11.4"/>
<polygon fill="#63b8ff" stroke="#63b8ff" points="133.06,-7.9 122.98,-11.14 132.88,-14.9 133.06,-7.9"/>
</a>
</g>
</g>
<!-- Node9&#45;&gt;Node7 -->
<g id="edge15_Node000009_Node000007" class="edge">
<title>Node9&#45;&gt;Node7</title>
<g id="a_edge15_Node000009_Node000007"><a xlink:title=" ">
<path fill="none" stroke="#63b8ff" d="M576.02,-112.96C521.74,-105.5 423.19,-91.33 329.06,-74.04"/>
<polygon fill="#63b8ff" stroke="#63b8ff" points="329.56,-70.57 319.09,-72.19 328.28,-77.45 329.56,-70.57"/>
</a>
</g>
</g>
<!-- Node10 -->
<g id="Node000010" class="node">
<title>Node10</title>
<g id="a_Node000010"><a xlink:title=" ">
<polygon fill="#e0e0e0" stroke="#999999" points="545.32,-74 425.32,-74 425.32,-55 545.32,-55 545.32,-74"/>
<text text-anchor="middle" x="485.32" y="-62" font-family="Helvetica,sans-Serif" font-size="10.00">qcompilerdetection.h</text>
</a>
</g>
</g>
<!-- Node9&#45;&gt;Node10 -->
<g id="edge10_Node000009_Node000010" class="edge">
<title>Node9&#45;&gt;Node10</title>
<g id="a_edge10_Node000009_Node000010"><a xlink:title=" ">
<path fill="none" stroke="#63b8ff" d="M596.11,-109.98C574.59,-101.34 541.03,-87.87 516.49,-78.02"/>
<polygon fill="#63b8ff" stroke="#63b8ff" points="517.5,-74.65 506.91,-74.17 514.89,-81.14 517.5,-74.65"/>
</a>
</g>
</g>
<!-- Node11 -->
<g id="Node000011" class="node">
<title>Node11</title>
<g id="a_Node000011"><a xlink:title=" ">
<polygon fill="#e0e0e0" stroke="#999999" points="613.32,-74 563.32,-74 563.32,-55 613.32,-55 613.32,-74"/>
<text text-anchor="middle" x="588.32" y="-62" font-family="Helvetica,sans-Serif" font-size="10.00">QLineF</text>
</a>
</g>
</g>
<!-- Node9&#45;&gt;Node11 -->
<g id="edge11_Node000009_Node000011" class="edge">
<title>Node9&#45;&gt;Node11</title>
<g id="a_edge11_Node000009_Node000011"><a xlink:title=" ">
<path fill="none" stroke="#63b8ff" d="M612.53,-109.75C608.56,-102.49 602.79,-91.95 597.88,-82.98"/>
<polygon fill="#63b8ff" stroke="#63b8ff" points="600.89,-81.18 593.02,-74.09 594.75,-84.54 600.89,-81.18"/>
</a>
</g>
</g>
<!-- Node12 -->
<g id="Node000012" class="node">
<title>Node12</title>
<g id="a_Node000012"><a xlink:title=" ">
<polygon fill="#e0e0e0" stroke="#999999" points="660.82,-74 631.82,-74 631.82,-55 660.82,-55 660.82,-74"/>
<text text-anchor="middle" x="646.32" y="-62" font-family="Helvetica,sans-Serif" font-size="10.00">Qt</text>
</a>
</g>
</g>
<!-- Node9&#45;&gt;Node12 -->
<g id="edge14_Node000009_Node000012" class="edge">
<title>Node9&#45;&gt;Node12</title>
<g id="a_edge14_Node000009_Node000012"><a xlink:title=" ">
<path fill="none" stroke="#63b8ff" d="M622.11,-109.75C626.08,-102.49 631.84,-91.95 636.75,-82.98"/>
<polygon fill="#63b8ff" stroke="#63b8ff" points="639.89,-84.54 641.62,-74.09 633.75,-81.18 639.89,-84.54"/>
</a>
</g>
</g>
<!-- Node13 -->
<g id="Node000013" class="node">
<title>Node13</title>
<g id="a_Node000013"><a xlink:title=" ">
<polygon fill="#e0e0e0" stroke="#999999" points="735.32,-74 679.32,-74 679.32,-55 735.32,-55 735.32,-74"/>
<text text-anchor="middle" x="707.32" y="-62" font-family="Helvetica,sans-Serif" font-size="10.00">QPrinter</text>
</a>
</g>
</g>
<!-- Node9&#45;&gt;Node13 -->
<g id="edge16_Node000009_Node000013" class="edge">
<title>Node9&#45;&gt;Node13</title>
<g id="a_edge16_Node000009_Node000013"><a xlink:title=" ">
<path fill="none" stroke="#63b8ff" d="M631.78,-109.98C645.73,-101.77 667.11,-89.18 683.57,-79.49"/>
<polygon fill="#63b8ff" stroke="#63b8ff" points="685.75,-82.26 692.59,-74.17 682.2,-76.23 685.75,-82.26"/>
</a>
</g>
</g>
<!-- Node14 -->
<g id="Node000014" class="node">
<title>Node14</title>
<g id="a_Node000014"><a xlink:title=" ">
<polygon fill="#e0e0e0" stroke="#999999" points="804.82,-74 753.82,-74 753.82,-55 804.82,-55 804.82,-74"/>
<text text-anchor="middle" x="779.32" y="-62" font-family="Helvetica,sans-Serif" font-size="10.00">csignal</text>
</a>
</g>
</g>
<!-- Node9&#45;&gt;Node14 -->
<g id="edge17_Node000009_Node000014" class="edge">
<title>Node9&#45;&gt;Node14</title>
<g id="a_edge17_Node000009_Node000014"><a xlink:title=" ">
<path fill="none" stroke="#63b8ff" d="M643.35,-109.98C670.59,-101.07 713.53,-87.02 743.86,-77.1"/>
<polygon fill="#63b8ff" stroke="#63b8ff" points="745.21,-80.34 753.62,-73.91 743.03,-73.69 745.21,-80.34"/>
</a>
</g>
</g>
<!-- Node15 -->
<g id="Node000015" class="node">
<title>Node15</title>
<g id="a_Node000015"><a xlink:href="../../d4/d82/debugbreak_8h.html" target="_top" xlink:title=" ">
<polygon fill="white" stroke="#666666" points="944.82,-74 861.82,-74 861.82,-55 944.82,-55 944.82,-74"/>
<text text-anchor="middle" x="903.32" y="-62" font-family="Helvetica,sans-Serif" font-size="10.00">debugbreak.h</text>
</a>
</g>
</g>
<!-- Node9&#45;&gt;Node15 -->
<g id="edge18_Node000009_Node000015" class="edge">
<title>Node9&#45;&gt;Node15</title>
<g id="a_edge18_Node000009_Node000015"><a xlink:title=" ">
<path fill="none" stroke="#63b8ff" d="M658.6,-110.85C709.57,-101.4 796.28,-85.33 851.63,-75.08"/>
<polygon fill="#63b8ff" stroke="#63b8ff" points="852.39,-78.5 861.58,-73.23 851.11,-71.61 852.39,-78.5"/>
</a>
</g>
</g>
<!-- Node16 -->
<g id="Node000016" class="node">
<title>Node16</title>
<g id="a_Node000016"><a xlink:title=" ">
<polygon fill="#e0e0e0" stroke="#999999" points="930.82,-19 875.82,-19 875.82,0 930.82,0 930.82,-19"/>
<text text-anchor="middle" x="903.32" y="-7" font-family="Helvetica,sans-Serif" font-size="10.00">signal.h</text>
</a>
</g>
</g>
<!-- Node15&#45;&gt;Node16 -->
<g id="edge19_Node000015_Node000016" class="edge">
<title>Node15&#45;&gt;Node16</title>
<g id="a_edge19_Node000015_Node000016"><a xlink:title=" ">
<path fill="none" stroke="#63b8ff" d="M903.32,-54.75C903.32,-47.8 903.32,-37.85 903.32,-29.13"/>
<polygon fill="#63b8ff" stroke="#63b8ff" points="906.82,-29.09 903.32,-19.09 899.82,-29.09 906.82,-29.09"/>
</a>
</g>
</g>
</g>
</svg>
