<?xml version="1.0" encoding="UTF-8" standalone="no"?>
<!DOCTYPE svg PUBLIC "-//W3C//DTD SVG 1.1//EN"
 "http://www.w3.org/Graphics/SVG/1.1/DTD/svg11.dtd">
<!-- Generated by graphviz version 2.43.0 (0)
 -->
<!-- Title: src/libs/vpatterndb/vtranslatevars.h Pages: 1 -->
<svg width="6056pt" height="307pt"
 viewBox="0.00 0.00 6055.96 307.00" xmlns="http://www.w3.org/2000/svg" xmlns:xlink="http://www.w3.org/1999/xlink">
<g id="graph0" class="graph" transform="scale(1 1) rotate(0) translate(4 303)">
<title>src/libs/vpatterndb/vtranslatevars.h</title>
<polygon fill="white" stroke="transparent" points="-4,4 -4,-303 6051.96,-303 6051.96,4 -4,4"/>
<!-- Node1 -->
<g id="node1" class="node">
<title>Node1</title>
<g id="a_node1"><a xlink:title=" ">
<polygon fill="#bfbfbf" stroke="black" points="2824.46,-268.5 2824.46,-298.5 2931.46,-298.5 2931.46,-268.5 2824.46,-268.5"/>
<text text-anchor="start" x="2832.46" y="-286.5" font-family="Helvetica,sans-Serif" font-size="10.00">src/libs/vpatterndb</text>
<text text-anchor="middle" x="2877.96" y="-275.5" font-family="Helvetica,sans-Serif" font-size="10.00">/vtranslatevars.h</text>
</a>
</g>
</g>
<!-- Node2 -->
<g id="node2" class="node">
<title>Node2</title>
<g id="a_node2"><a xlink:href="../../d5/d74/vabstractapplication_8h.html" target="_top" xlink:title=" ">
<polygon fill="white" stroke="black" points="2739.46,-140 2739.46,-159 2934.46,-159 2934.46,-140 2739.46,-140"/>
<text text-anchor="middle" x="2836.96" y="-147" font-family="Helvetica,sans-Serif" font-size="10.00">src/libs/vmisc/vabstractapplication.h</text>
</a>
</g>
</g>
<!-- Node1&#45;&gt;Node2 -->
<g id="edge1" class="edge">
<title>Node1&#45;&gt;Node2</title>
<path fill="none" stroke="midnightblue" d="M2870.58,-258.71C2861.29,-228.81 2845.82,-179 2839.64,-159.1"/>
<polygon fill="midnightblue" stroke="midnightblue" points="2867.27,-259.86 2873.58,-268.37 2873.95,-257.79 2867.27,-259.86"/>
</g>
<!-- Node22 -->
<g id="node18" class="node">
<title>Node22</title>
<g id="a_node18"><a xlink:href="../../db/d11/vformula_8cpp.html" target="_top" xlink:title=" ">
<polygon fill="white" stroke="black" points="358.46,-67.5 358.46,-97.5 465.46,-97.5 465.46,-67.5 358.46,-67.5"/>
<text text-anchor="start" x="366.46" y="-85.5" font-family="Helvetica,sans-Serif" font-size="10.00">src/libs/vpatterndb</text>
<text text-anchor="middle" x="411.96" y="-74.5" font-family="Helvetica,sans-Serif" font-size="10.00">/vformula.cpp</text>
</a>
</g>
</g>
<!-- Node1&#45;&gt;Node22 -->
<g id="edge56" class="edge">
<title>Node1&#45;&gt;Node22</title>
<path fill="none" stroke="midnightblue" d="M2813.96,-282.41C2399.12,-281.52 105.31,-271.78 6.96,-165 -2.37,-154.87 -2.26,-144.24 6.96,-134 58.25,-77.05 274.39,-110.75 349.96,-98 352.69,-97.54 355.47,-97.03 358.28,-96.49"/>
<polygon fill="midnightblue" stroke="midnightblue" points="2814.25,-285.91 2824.26,-282.43 2814.27,-278.91 2814.25,-285.91"/>
</g>
<!-- Node26 -->
<g id="node22" class="node">
<title>Node26</title>
<g id="a_node22"><a xlink:href="../../d6/d46/vcontainer_8cpp.html" target="_top" xlink:title=" ">
<polygon fill="white" stroke="black" points="1004.46,-67.5 1004.46,-97.5 1111.46,-97.5 1111.46,-67.5 1004.46,-67.5"/>
<text text-anchor="start" x="1012.46" y="-85.5" font-family="Helvetica,sans-Serif" font-size="10.00">src/libs/vpatterndb</text>
<text text-anchor="middle" x="1057.96" y="-74.5" font-family="Helvetica,sans-Serif" font-size="10.00">/vcontainer.cpp</text>
</a>
</g>
</g>
<!-- Node1&#45;&gt;Node26 -->
<g id="edge57" class="edge">
<title>Node1&#45;&gt;Node26</title>
<path fill="none" stroke="midnightblue" d="M2814.06,-275.31C2617.97,-253.31 2007.43,-185.3 1500.96,-134 1332.18,-116.9 1288.43,-125.08 1120.96,-98 1117.86,-97.5 1114.69,-96.93 1111.49,-96.32"/>
<polygon fill="midnightblue" stroke="midnightblue" points="2813.86,-278.81 2824.19,-276.45 2814.64,-271.85 2813.86,-278.81"/>
</g>
<!-- Node27 -->
<g id="node23" class="node">
<title>Node27</title>
<g id="a_node23"><a xlink:href="../../de/d3e/vtranslatevars_8cpp.html" target="_top" xlink:title=" ">
<polygon fill="white" stroke="black" points="5937.96,-67.5 5937.96,-97.5 6047.96,-97.5 6047.96,-67.5 5937.96,-67.5"/>
<text text-anchor="start" x="5945.96" y="-85.5" font-family="Helvetica,sans-Serif" font-size="10.00">src/libs/vpatterndb</text>
<text text-anchor="middle" x="5992.96" y="-74.5" font-family="Helvetica,sans-Serif" font-size="10.00">/vtranslatevars.cpp</text>
</a>
</g>
</g>
<!-- Node1&#45;&gt;Node27 -->
<g id="edge58" class="edge">
<title>Node1&#45;&gt;Node27</title>
<path fill="none" stroke="midnightblue" d="M2892.78,-259.99C2907.11,-240.41 2930.74,-213.32 2958.96,-201 3261.59,-68.9 5601.5,-140.39 5928.96,-98 5931.9,-97.62 5934.9,-97.17 5937.92,-96.66"/>
<polygon fill="midnightblue" stroke="midnightblue" points="2889.78,-258.18 2886.88,-268.37 2895.5,-262.21 2889.78,-258.18"/>
</g>
<!-- Node42 -->
<g id="node38" class="node">
<title>Node42</title>
<g id="a_node38"><a xlink:href="../../d3/df7/vcontainer_8h.html" target="_top" xlink:title=" ">
<polygon fill="white" stroke="black" points="829.46,-201.5 829.46,-231.5 936.46,-231.5 936.46,-201.5 829.46,-201.5"/>
<text text-anchor="start" x="837.46" y="-219.5" font-family="Helvetica,sans-Serif" font-size="10.00">src/libs/vpatterndb</text>
<text text-anchor="middle" x="882.96" y="-208.5" font-family="Helvetica,sans-Serif" font-size="10.00">/vcontainer.h</text>
</a>
</g>
</g>
<!-- Node1&#45;&gt;Node42 -->
<g id="edge38" class="edge">
<title>Node1&#45;&gt;Node42</title>
<path fill="none" stroke="midnightblue" d="M2813.96,-280.41C2510.28,-270.52 1217.71,-228.41 936.93,-219.26"/>
<polygon fill="midnightblue" stroke="midnightblue" points="2814.24,-283.93 2824.35,-280.75 2814.46,-276.93 2814.24,-283.93"/>
</g>
<!-- Node62 -->
<g id="node48" class="node">
<title>Node62</title>
<g id="a_node48"><a xlink:href="../../df/de5/dialogspline_8cpp.html" target="_top" xlink:title=" ">
<polygon fill="white" stroke="black" points="2967.96,-201.5 2967.96,-231.5 3093.96,-231.5 3093.96,-201.5 2967.96,-201.5"/>
<text text-anchor="start" x="2975.96" y="-219.5" font-family="Helvetica,sans-Serif" font-size="10.00">src/libs/vtools/dialogs</text>
<text text-anchor="middle" x="3030.96" y="-208.5" font-family="Helvetica,sans-Serif" font-size="10.00">/tools/dialogspline.cpp</text>
</a>
</g>
</g>
<!-- Node1&#45;&gt;Node62 -->
<g id="edge59" class="edge">
<title>Node1&#45;&gt;Node62</title>
<path fill="none" stroke="midnightblue" d="M2920.55,-264.41C2944.98,-254.03 2975.19,-241.2 2997.83,-231.58"/>
<polygon fill="midnightblue" stroke="midnightblue" points="2919,-261.26 2911.16,-268.4 2921.74,-267.71 2919,-261.26"/>
</g>
<!-- Node63 -->
<g id="node49" class="node">
<title>Node63</title>
<g id="a_node49"><a xlink:href="../../dc/dc2/dialogsplinepath_8cpp.html" target="_top" xlink:title=" ">
<polygon fill="white" stroke="black" points="3111.96,-201.5 3111.96,-231.5 3259.96,-231.5 3259.96,-201.5 3111.96,-201.5"/>
<text text-anchor="start" x="3119.96" y="-219.5" font-family="Helvetica,sans-Serif" font-size="10.00">src/libs/vtools/dialogs</text>
<text text-anchor="middle" x="3185.96" y="-208.5" font-family="Helvetica,sans-Serif" font-size="10.00">/tools/dialogsplinepath.cpp</text>
</a>
</g>
</g>
<!-- Node1&#45;&gt;Node63 -->
<g id="edge60" class="edge">
<title>Node1&#45;&gt;Node63</title>
<path fill="none" stroke="midnightblue" d="M2941.71,-269.05C2993.68,-258.08 3066.84,-242.64 3119.52,-231.52"/>
<polygon fill="midnightblue" stroke="midnightblue" points="2940.68,-265.69 2931.61,-271.18 2942.12,-272.54 2940.68,-265.69"/>
</g>
<!-- Node64 -->
<g id="node50" class="node">
<title>Node64</title>
<g id="a_node50"><a xlink:href="../../d1/d75/vistoolendline_8cpp.html" target="_top" xlink:title=" ">
<polygon fill="white" stroke="black" points="3278.46,-201.5 3278.46,-231.5 3427.46,-231.5 3427.46,-201.5 3278.46,-201.5"/>
<text text-anchor="start" x="3286.46" y="-219.5" font-family="Helvetica,sans-Serif" font-size="10.00">src/libs/vtools/visualization</text>
<text text-anchor="middle" x="3352.96" y="-208.5" font-family="Helvetica,sans-Serif" font-size="10.00">/line/vistoolendline.cpp</text>
</a>
</g>
</g>
<!-- Node1&#45;&gt;Node64 -->
<g id="edge61" class="edge">
<title>Node1&#45;&gt;Node64</title>
<path fill="none" stroke="midnightblue" d="M2941.59,-275.12C3019.06,-265.95 3153.83,-249.36 3268.96,-232 3272.04,-231.54 3275.17,-231.05 3278.34,-230.55"/>
<polygon fill="midnightblue" stroke="midnightblue" points="2941.03,-271.67 2931.51,-276.32 2941.85,-278.62 2941.03,-271.67"/>
</g>
<!-- Node3 -->
<g id="node3" class="node">
<title>Node3</title>
<g id="a_node3"><a xlink:href="../../d4/d90/fvupdater_8cpp.html" target="_top" xlink:title=" ">
<polygon fill="white" stroke="black" points="2002.46,-73 2002.46,-92 2155.46,-92 2155.46,-73 2002.46,-73"/>
<text text-anchor="middle" x="2078.96" y="-80" font-family="Helvetica,sans-Serif" font-size="10.00">src/libs/fervor/fvupdater.cpp</text>
</a>
</g>
</g>
<!-- Node2&#45;&gt;Node3 -->
<g id="edge2" class="edge">
<title>Node2&#45;&gt;Node3</title>
<path fill="none" stroke="midnightblue" d="M2729.24,-143.55C2596.1,-136.7 2362.75,-122.36 2163.96,-98 2151.04,-96.42 2137.08,-94.23 2124.28,-92.04"/>
<polygon fill="midnightblue" stroke="midnightblue" points="2729.28,-147.05 2739.44,-144.06 2729.63,-140.06 2729.28,-147.05"/>
</g>
<!-- Node4 -->
<g id="node4" class="node">
<title>Node4</title>
<g id="a_node4"><a xlink:href="../../d9/dc8/dxiface_8cpp.html" target="_top" xlink:title=" ">
<polygon fill="white" stroke="black" points="2173.46,-73 2173.46,-92 2308.46,-92 2308.46,-73 2173.46,-73"/>
<text text-anchor="middle" x="2240.96" y="-80" font-family="Helvetica,sans-Serif" font-size="10.00">src/libs/vdxf/dxiface.cpp</text>
</a>
</g>
</g>
<!-- Node2&#45;&gt;Node4 -->
<g id="edge3" class="edge">
<title>Node2&#45;&gt;Node4</title>
<path fill="none" stroke="midnightblue" d="M2729.36,-140.95C2623.96,-132.86 2458.95,-118.4 2316.96,-98 2305.53,-96.36 2293.2,-94.18 2281.87,-92.02"/>
<polygon fill="midnightblue" stroke="midnightblue" points="2729.13,-144.44 2739.37,-141.71 2729.66,-137.46 2729.13,-144.44"/>
</g>
<!-- Node5 -->
<g id="node5" class="node">
<title>Node5</title>
<g id="a_node5"><a xlink:href="../../da/d75/vabstractarc__p_8h.html" target="_top" xlink:title=" ">
<polygon fill="white" stroke="red" points="2326.46,-67.5 2326.46,-97.5 2433.46,-97.5 2433.46,-67.5 2326.46,-67.5"/>
<text text-anchor="start" x="2334.46" y="-85.5" font-family="Helvetica,sans-Serif" font-size="10.00">src/libs/vgeometry</text>
<text text-anchor="middle" x="2379.96" y="-74.5" font-family="Helvetica,sans-Serif" font-size="10.00">/vabstractarc_p.h</text>
</a>
</g>
</g>
<!-- Node2&#45;&gt;Node5 -->
<g id="edge4" class="edge">
<title>Node2&#45;&gt;Node5</title>
<path fill="none" stroke="midnightblue" d="M2739.8,-138.89C2659.58,-130.28 2542.93,-116.21 2441.96,-98 2439.25,-97.51 2436.47,-96.98 2433.66,-96.41"/>
<polygon fill="midnightblue" stroke="midnightblue" points="2739.57,-142.38 2749.88,-139.96 2740.31,-135.42 2739.57,-142.38"/>
</g>
<!-- Node7 -->
<g id="node6" class="node">
<title>Node7</title>
<g id="a_node6"><a xlink:href="../../dc/da3/varc__p_8h.html" target="_top" xlink:title=" ">
<polygon fill="white" stroke="red" points="2451.46,-67.5 2451.46,-97.5 2558.46,-97.5 2558.46,-67.5 2451.46,-67.5"/>
<text text-anchor="start" x="2459.46" y="-85.5" font-family="Helvetica,sans-Serif" font-size="10.00">src/libs/vgeometry</text>
<text text-anchor="middle" x="2504.96" y="-74.5" font-family="Helvetica,sans-Serif" font-size="10.00">/varc_p.h</text>
</a>
</g>
</g>
<!-- Node2&#45;&gt;Node7 -->
<g id="edge5" class="edge">
<title>Node2&#45;&gt;Node7</title>
<path fill="none" stroke="midnightblue" d="M2777.68,-138.2C2722.87,-128.49 2639.23,-113.2 2566.96,-98 2564.26,-97.43 2561.49,-96.84 2558.7,-96.22"/>
<polygon fill="midnightblue" stroke="midnightblue" points="2777.11,-141.65 2787.56,-139.95 2778.33,-134.76 2777.11,-141.65"/>
</g>
<!-- Node9 -->
<g id="node7" class="node">
<title>Node9</title>
<g id="a_node7"><a xlink:href="../../d5/d8e/vcubicbezier__p_8h.html" target="_top" xlink:title=" ">
<polygon fill="white" stroke="red" points="2576.46,-67.5 2576.46,-97.5 2683.46,-97.5 2683.46,-67.5 2576.46,-67.5"/>
<text text-anchor="start" x="2584.46" y="-85.5" font-family="Helvetica,sans-Serif" font-size="10.00">src/libs/vgeometry</text>
<text text-anchor="middle" x="2629.96" y="-74.5" font-family="Helvetica,sans-Serif" font-size="10.00">/vcubicbezier_p.h</text>
</a>
</g>
</g>
<!-- Node2&#45;&gt;Node9 -->
<g id="edge6" class="edge">
<title>Node2&#45;&gt;Node9</title>
<path fill="none" stroke="midnightblue" d="M2799.62,-136.77C2764.53,-125.75 2711.95,-109.24 2674.64,-97.53"/>
<polygon fill="midnightblue" stroke="midnightblue" points="2798.89,-140.21 2809.48,-139.87 2800.98,-133.53 2798.89,-140.21"/>
</g>
<!-- Node11 -->
<g id="node8" class="node">
<title>Node11</title>
<g id="a_node8"><a xlink:href="../../d6/dfb/vellipticalarc_8cpp.html" target="_top" xlink:title=" ">
<polygon fill="white" stroke="black" points="2988.46,-0.5 2988.46,-30.5 3095.46,-30.5 3095.46,-0.5 2988.46,-0.5"/>
<text text-anchor="start" x="2996.46" y="-18.5" font-family="Helvetica,sans-Serif" font-size="10.00">src/libs/vgeometry</text>
<text text-anchor="middle" x="3041.96" y="-7.5" font-family="Helvetica,sans-Serif" font-size="10.00">/vellipticalarc.cpp</text>
</a>
</g>
</g>
<!-- Node2&#45;&gt;Node11 -->
<g id="edge7" class="edge">
<title>Node2&#45;&gt;Node11</title>
<path fill="none" stroke="midnightblue" d="M2836.17,-129.71C2836.45,-111.32 2839.84,-83.71 2855.96,-67 2890.11,-31.6 2946.37,-20.2 2988.09,-16.92"/>
<polygon fill="midnightblue" stroke="midnightblue" points="2832.67,-129.84 2836.31,-139.79 2839.67,-129.74 2832.67,-129.84"/>
</g>
<!-- Node12 -->
<g id="node9" class="node">
<title>Node12</title>
<g id="a_node9"><a xlink:href="../../df/dde/vellipticalarc__p_8h.html" target="_top" xlink:title=" ">
<polygon fill="white" stroke="black" points="3194.46,-67.5 3194.46,-97.5 3301.46,-97.5 3301.46,-67.5 3194.46,-67.5"/>
<text text-anchor="start" x="3202.46" y="-85.5" font-family="Helvetica,sans-Serif" font-size="10.00">src/libs/vgeometry</text>
<text text-anchor="middle" x="3247.96" y="-74.5" font-family="Helvetica,sans-Serif" font-size="10.00">/vellipticalarc_p.h</text>
</a>
</g>
</g>
<!-- Node2&#45;&gt;Node12 -->
<g id="edge8" class="edge">
<title>Node2&#45;&gt;Node12</title>
<path fill="none" stroke="midnightblue" d="M2910.59,-138.61C2996.9,-126.87 3134.68,-107.69 3185.96,-98 3188.68,-97.49 3191.46,-96.94 3194.26,-96.36"/>
<polygon fill="midnightblue" stroke="midnightblue" points="2910.03,-135.15 2900.59,-139.96 2910.97,-142.09 2910.03,-135.15"/>
</g>
<!-- Node13 -->
<g id="node10" class="node">
<title>Node13</title>
<g id="a_node10"><a xlink:href="../../d1/d76/vspline__p_8h.html" target="_top" xlink:title=" ">
<polygon fill="white" stroke="red" points="2865.46,-67.5 2865.46,-97.5 2972.46,-97.5 2972.46,-67.5 2865.46,-67.5"/>
<text text-anchor="start" x="2873.46" y="-85.5" font-family="Helvetica,sans-Serif" font-size="10.00">src/libs/vgeometry</text>
<text text-anchor="middle" x="2918.96" y="-74.5" font-family="Helvetica,sans-Serif" font-size="10.00">/vspline_p.h</text>
</a>
</g>
</g>
<!-- Node2&#45;&gt;Node13 -->
<g id="edge10" class="edge">
<title>Node2&#45;&gt;Node13</title>
<path fill="none" stroke="midnightblue" d="M2856.22,-133.24C2869.83,-122.45 2887.93,-108.1 2901.19,-97.59"/>
<polygon fill="midnightblue" stroke="midnightblue" points="2853.69,-130.78 2848.02,-139.73 2858.03,-136.26 2853.69,-130.78"/>
</g>
<!-- Node15 -->
<g id="node11" class="node">
<title>Node15</title>
<g id="a_node11"><a xlink:href="../../d9/d15/vabstractpiece_8cpp.html" target="_top" xlink:title=" ">
<polygon fill="white" stroke="black" points="2990.96,-73 2990.96,-92 3176.96,-92 3176.96,-73 2990.96,-73"/>
<text text-anchor="middle" x="3083.96" y="-80" font-family="Helvetica,sans-Serif" font-size="10.00">src/libs/vlayout/vabstractpiece.cpp</text>
</a>
</g>
</g>
<!-- Node2&#45;&gt;Node15 -->
<g id="edge11" class="edge">
<title>Node2&#45;&gt;Node15</title>
<path fill="none" stroke="midnightblue" d="M2879.44,-137.32C2928.21,-124.49 3007.16,-103.71 3051.35,-92.08"/>
<polygon fill="midnightblue" stroke="midnightblue" points="2878.29,-134.01 2869.51,-139.94 2880.07,-140.78 2878.29,-134.01"/>
</g>
<!-- Node16 -->
<g id="node12" class="node">
<title>Node16</title>
<g id="a_node12"><a xlink:href="../../dd/d70/vlayoutpiece_8cpp.html" target="_top" xlink:title=" ">
<polygon fill="white" stroke="black" points="483.46,-73 483.46,-92 660.46,-92 660.46,-73 483.46,-73"/>
<text text-anchor="middle" x="571.96" y="-80" font-family="Helvetica,sans-Serif" font-size="10.00">src/libs/vlayout/vlayoutpiece.cpp</text>
</a>
</g>
</g>
<!-- Node2&#45;&gt;Node16 -->
<g id="edge12" class="edge">
<title>Node2&#45;&gt;Node16</title>
<path fill="none" stroke="midnightblue" d="M2729.2,-147.75C2349.76,-144.85 1076.6,-132.69 669.96,-98 654.11,-96.65 636.92,-94.38 621.43,-92.03"/>
<polygon fill="midnightblue" stroke="midnightblue" points="2729.33,-151.25 2739.35,-147.83 2729.38,-144.25 2729.33,-151.25"/>
</g>
<!-- Node17 -->
<g id="node13" class="node">
<title>Node17</title>
<g id="a_node13"><a xlink:href="../../d8/d70/vtextmanager_8cpp.html" target="_top" xlink:title=" ">
<polygon fill="white" stroke="black" points="678.96,-73 678.96,-92 860.96,-92 860.96,-73 678.96,-73"/>
<text text-anchor="middle" x="769.96" y="-80" font-family="Helvetica,sans-Serif" font-size="10.00">src/libs/vlayout/vtextmanager.cpp</text>
</a>
</g>
</g>
<!-- Node2&#45;&gt;Node17 -->
<g id="edge13" class="edge">
<title>Node2&#45;&gt;Node17</title>
<path fill="none" stroke="midnightblue" d="M2729.29,-147.42C2373.21,-143.57 1235.65,-129.1 869.96,-98 853.8,-96.63 836.26,-94.35 820.45,-92.01"/>
<polygon fill="midnightblue" stroke="midnightblue" points="2729.3,-150.92 2739.34,-147.52 2729.37,-143.92 2729.3,-150.92"/>
</g>
<!-- Node18 -->
<g id="node14" class="node">
<title>Node18</title>
<g id="a_node14"><a xlink:href="../../db/d65/dialogexporttocsv_8cpp.html" target="_top" xlink:title=" ">
<polygon fill="white" stroke="black" points="3319.46,-67.5 3319.46,-97.5 3446.46,-97.5 3446.46,-67.5 3319.46,-67.5"/>
<text text-anchor="start" x="3327.46" y="-85.5" font-family="Helvetica,sans-Serif" font-size="10.00">src/libs/vmisc/dialogs</text>
<text text-anchor="middle" x="3382.96" y="-74.5" font-family="Helvetica,sans-Serif" font-size="10.00">/dialogexporttocsv.cpp</text>
</a>
</g>
</g>
<!-- Node2&#45;&gt;Node18 -->
<g id="edge14" class="edge">
<title>Node2&#45;&gt;Node18</title>
<path fill="none" stroke="midnightblue" d="M2909.59,-138.69C2922.37,-137.05 2935.55,-135.43 2947.96,-134 3108.59,-115.53 3150.04,-121.78 3309.96,-98 3313.03,-97.54 3316.17,-97.05 3319.33,-96.52"/>
<polygon fill="midnightblue" stroke="midnightblue" points="2908.91,-135.24 2899.44,-140 2909.81,-142.19 2908.91,-135.24"/>
</g>
<!-- Node19 -->
<g id="node15" class="node">
<title>Node19</title>
<g id="a_node15"><a xlink:href="../../d6/d0b/def_8cpp.html" target="_top" xlink:title=" ">
<polygon fill="white" stroke="black" points="3464.96,-73 3464.96,-92 3586.96,-92 3586.96,-73 3464.96,-73"/>
<text text-anchor="middle" x="3525.96" y="-80" font-family="Helvetica,sans-Serif" font-size="10.00">src/libs/vmisc/def.cpp</text>
</a>
</g>
</g>
<!-- Node2&#45;&gt;Node19 -->
<g id="edge15" class="edge">
<title>Node2&#45;&gt;Node19</title>
<path fill="none" stroke="midnightblue" d="M2907.28,-138.68C2920.77,-136.97 2934.79,-135.33 2947.96,-134 3172.73,-111.36 3231.16,-128.67 3454.96,-98 3466.06,-96.48 3478.02,-94.26 3488.9,-92.02"/>
<polygon fill="midnightblue" stroke="midnightblue" points="2906.56,-135.24 2897.09,-139.99 2907.45,-142.18 2906.56,-135.24"/>
</g>
<!-- Node20 -->
<g id="node16" class="node">
<title>Node20</title>
<g id="a_node16"><a xlink:href="../../d0/df6/vabstractapplication_8cpp.html" target="_top" xlink:title=" ">
<polygon fill="white" stroke="black" points="3604.96,-73 3604.96,-92 3810.96,-92 3810.96,-73 3604.96,-73"/>
<text text-anchor="middle" x="3707.96" y="-80" font-family="Helvetica,sans-Serif" font-size="10.00">src/libs/vmisc/vabstractapplication.cpp</text>
</a>
</g>
</g>
<!-- Node2&#45;&gt;Node20 -->
<g id="edge16" class="edge">
<title>Node2&#45;&gt;Node20</title>
<path fill="none" stroke="midnightblue" d="M2905.91,-138.68C2919.81,-136.93 2934.34,-135.27 2947.96,-134 3235.17,-107.3 3308.74,-124.53 3595.96,-98 3613.05,-96.42 3631.54,-94.23 3648.48,-92.02"/>
<polygon fill="midnightblue" stroke="midnightblue" points="2905.39,-135.22 2895.92,-139.97 2906.28,-142.16 2905.39,-135.22"/>
</g>
<!-- Node21 -->
<g id="node17" class="node">
<title>Node21</title>
<g id="a_node17"><a xlink:href="../../d4/d4f/pmsystems_8cpp.html" target="_top" xlink:title=" ">
<polygon fill="white" stroke="black" points="3829.46,-67.5 3829.46,-97.5 3936.46,-97.5 3936.46,-67.5 3829.46,-67.5"/>
<text text-anchor="start" x="3837.46" y="-85.5" font-family="Helvetica,sans-Serif" font-size="10.00">src/libs/vpatterndb</text>
<text text-anchor="middle" x="3882.96" y="-74.5" font-family="Helvetica,sans-Serif" font-size="10.00">/pmsystems.cpp</text>
</a>
</g>
</g>
<!-- Node2&#45;&gt;Node21 -->
<g id="edge17" class="edge">
<title>Node2&#45;&gt;Node21</title>
<path fill="none" stroke="midnightblue" d="M2904.94,-138.65C2919.14,-136.87 2934.02,-135.2 2947.96,-134 3334.43,-100.85 3435.54,-149.72 3819.96,-98 3822.97,-97.6 3826.04,-97.12 3829.13,-96.58"/>
<polygon fill="midnightblue" stroke="midnightblue" points="2904.23,-135.21 2894.76,-139.96 2905.12,-142.16 2904.23,-135.21"/>
</g>
<!-- Node2&#45;&gt;Node22 -->
<g id="edge18" class="edge">
<title>Node2&#45;&gt;Node22</title>
<path fill="none" stroke="midnightblue" d="M2729.2,-147.52C2296.65,-143.4 698.9,-126.39 473.96,-98 471.22,-97.65 468.43,-97.24 465.61,-96.77"/>
<polygon fill="midnightblue" stroke="midnightblue" points="2729.17,-151.02 2739.2,-147.61 2729.24,-144.02 2729.17,-151.02"/>
</g>
<!-- Node23 -->
<g id="node19" class="node">
<title>Node23</title>
<g id="a_node19"><a xlink:href="../../df/d7a/vpiece_8cpp.html" target="_top" xlink:title=" ">
<polygon fill="white" stroke="black" points="879.46,-67.5 879.46,-97.5 986.46,-97.5 986.46,-67.5 879.46,-67.5"/>
<text text-anchor="start" x="887.46" y="-85.5" font-family="Helvetica,sans-Serif" font-size="10.00">src/libs/vpatterndb</text>
<text text-anchor="middle" x="932.96" y="-74.5" font-family="Helvetica,sans-Serif" font-size="10.00">/vpiece.cpp</text>
</a>
</g>
</g>
<!-- Node2&#45;&gt;Node23 -->
<g id="edge19" class="edge">
<title>Node2&#45;&gt;Node23</title>
<path fill="none" stroke="midnightblue" d="M2729.07,-148.41C2387.64,-147.66 1333.5,-141.77 994.96,-98 992.22,-97.65 989.43,-97.22 986.61,-96.75"/>
<polygon fill="midnightblue" stroke="midnightblue" points="2729.19,-151.91 2739.2,-148.43 2729.21,-144.91 2729.19,-151.91"/>
</g>
<!-- Node24 -->
<g id="node20" class="node">
<title>Node24</title>
<g id="a_node20"><a xlink:href="../../df/dba/vpiecenode__p_8h.html" target="_top" xlink:title=" ">
<polygon fill="white" stroke="black" points="2701.46,-67.5 2701.46,-97.5 2808.46,-97.5 2808.46,-67.5 2701.46,-67.5"/>
<text text-anchor="start" x="2709.46" y="-85.5" font-family="Helvetica,sans-Serif" font-size="10.00">src/libs/vpatterndb</text>
<text text-anchor="middle" x="2754.96" y="-74.5" font-family="Helvetica,sans-Serif" font-size="10.00">/vpiecenode_p.h</text>
</a>
</g>
</g>
<!-- Node2&#45;&gt;Node24 -->
<g id="edge20" class="edge">
<title>Node2&#45;&gt;Node24</title>
<path fill="none" stroke="midnightblue" d="M2817.71,-133.24C2804.1,-122.45 2786,-108.1 2772.74,-97.59"/>
<polygon fill="midnightblue" stroke="midnightblue" points="2815.9,-136.26 2825.91,-139.73 2820.24,-130.78 2815.9,-136.26"/>
</g>
<!-- Node2&#45;&gt;Node26 -->
<g id="edge22" class="edge">
<title>Node2&#45;&gt;Node26</title>
<path fill="none" stroke="midnightblue" d="M2729.17,-145.91C2365.3,-137.1 1200.7,-108.25 1120.96,-98 1117.96,-97.61 1114.89,-97.15 1111.8,-96.62"/>
<polygon fill="midnightblue" stroke="midnightblue" points="2729.1,-149.41 2739.18,-146.15 2729.27,-142.41 2729.1,-149.41"/>
</g>
<!-- Node2&#45;&gt;Node27 -->
<g id="edge23" class="edge">
<title>Node2&#45;&gt;Node27</title>
<path fill="none" stroke="midnightblue" d="M2902.35,-138.66C2917.31,-136.77 2933.16,-135.05 2947.96,-134 3608.79,-87.01 5271.04,-175.62 5928.96,-98 5931.91,-97.65 5934.91,-97.23 5937.93,-96.74"/>
<polygon fill="midnightblue" stroke="midnightblue" points="2901.63,-135.22 2892.17,-139.99 2902.54,-142.16 2901.63,-135.22"/>
</g>
<!-- Node28 -->
<g id="node24" class="node">
<title>Node28</title>
<g id="a_node24"><a xlink:href="../../df/d40/export__format__combobox_8cpp.html" target="_top" xlink:title=" ">
<polygon fill="white" stroke="black" points="3954.46,-67.5 3954.46,-97.5 4087.46,-97.5 4087.46,-67.5 3954.46,-67.5"/>
<text text-anchor="start" x="3962.46" y="-85.5" font-family="Helvetica,sans-Serif" font-size="10.00">src/libs/vwidgets/export</text>
<text text-anchor="middle" x="4020.96" y="-74.5" font-family="Helvetica,sans-Serif" font-size="10.00">_format_combobox.cpp</text>
</a>
</g>
</g>
<!-- Node2&#45;&gt;Node28 -->
<g id="edge24" class="edge">
<title>Node2&#45;&gt;Node28</title>
<path fill="none" stroke="midnightblue" d="M2904.46,-138.65C2918.8,-136.85 2933.86,-135.17 2947.96,-134 3389.84,-97.24 3504.36,-147.69 3944.96,-98 3948.03,-97.65 3951.17,-97.25 3954.32,-96.81"/>
<polygon fill="midnightblue" stroke="midnightblue" points="2903.65,-135.23 2894.18,-139.98 2904.55,-142.17 2903.65,-135.23"/>
</g>
<!-- Node29 -->
<g id="node25" class="node">
<title>Node29</title>
<g id="a_node25"><a xlink:href="../../d3/d4f/mouse__coordinates_8cpp.html" target="_top" xlink:title=" ">
<polygon fill="white" stroke="black" points="4105.96,-67.5 4105.96,-97.5 4239.96,-97.5 4239.96,-67.5 4105.96,-67.5"/>
<text text-anchor="start" x="4113.96" y="-85.5" font-family="Helvetica,sans-Serif" font-size="10.00">src/libs/vwidgets/mouse</text>
<text text-anchor="middle" x="4172.96" y="-74.5" font-family="Helvetica,sans-Serif" font-size="10.00">_coordinates.cpp</text>
</a>
</g>
</g>
<!-- Node2&#45;&gt;Node29 -->
<g id="edge25" class="edge">
<title>Node2&#45;&gt;Node29</title>
<path fill="none" stroke="midnightblue" d="M2904.22,-138.63C2918.63,-136.82 2933.78,-135.15 2947.96,-134 3456.78,-92.89 3588.51,-153.4 4095.96,-98 4099.21,-97.65 4102.52,-97.23 4105.86,-96.77"/>
<polygon fill="midnightblue" stroke="midnightblue" points="2903.36,-135.22 2893.89,-139.97 2904.26,-142.16 2903.36,-135.22"/>
</g>
<!-- Node30 -->
<g id="node26" class="node">
<title>Node30</title>
<g id="a_node26"><a xlink:href="../../d8/d76/scene__rect_8cpp.html" target="_top" xlink:title=" ">
<polygon fill="white" stroke="black" points="4257.96,-67.5 4257.96,-97.5 4387.96,-97.5 4387.96,-67.5 4257.96,-67.5"/>
<text text-anchor="start" x="4265.96" y="-85.5" font-family="Helvetica,sans-Serif" font-size="10.00">src/libs/vwidgets/scene</text>
<text text-anchor="middle" x="4322.96" y="-74.5" font-family="Helvetica,sans-Serif" font-size="10.00">_rect.cpp</text>
</a>
</g>
</g>
<!-- Node2&#45;&gt;Node30 -->
<g id="edge26" class="edge">
<title>Node2&#45;&gt;Node30</title>
<path fill="none" stroke="midnightblue" d="M2903.56,-138.68C2918.16,-136.84 2933.56,-135.14 2947.96,-134 3524.61,-88.48 3674.05,-161.83 4248.96,-98 4251.83,-97.68 4254.74,-97.31 4257.69,-96.9"/>
<polygon fill="midnightblue" stroke="midnightblue" points="2903.07,-135.21 2893.6,-139.97 2903.97,-142.15 2903.07,-135.21"/>
</g>
<!-- Node31 -->
<g id="node27" class="node">
<title>Node31</title>
<g id="a_node27"><a xlink:href="../../d7/d1b/pen__toolbar_8cpp.html" target="_top" xlink:title=" ">
<polygon fill="white" stroke="black" points="4406.46,-67.5 4406.46,-97.5 4525.46,-97.5 4525.46,-67.5 4406.46,-67.5"/>
<text text-anchor="start" x="4414.46" y="-85.5" font-family="Helvetica,sans-Serif" font-size="10.00">src/libs/vwidgets/pen</text>
<text text-anchor="middle" x="4465.96" y="-74.5" font-family="Helvetica,sans-Serif" font-size="10.00">_toolbar.cpp</text>
</a>
</g>
</g>
<!-- Node2&#45;&gt;Node31 -->
<g id="edge27" class="edge">
<title>Node2&#45;&gt;Node31</title>
<path fill="none" stroke="midnightblue" d="M2903.32,-138.68C2917.99,-136.83 2933.48,-135.12 2947.96,-134 3590.24,-84.21 3757.09,-172.55 4396.96,-98 4400,-97.65 4403.11,-97.22 4406.24,-96.75"/>
<polygon fill="midnightblue" stroke="midnightblue" points="2902.78,-135.22 2893.31,-139.97 2903.68,-142.16 2902.78,-135.22"/>
</g>
<!-- Node32 -->
<g id="node28" class="node">
<title>Node32</title>
<g id="a_node28"><a xlink:href="../../dd/df6/vabstractmainwindow_8cpp.html" target="_top" xlink:title=" ">
<polygon fill="white" stroke="black" points="4543.46,-73 4543.46,-92 4772.46,-92 4772.46,-73 4543.46,-73"/>
<text text-anchor="middle" x="4657.96" y="-80" font-family="Helvetica,sans-Serif" font-size="10.00">src/libs/vwidgets/vabstractmainwindow.cpp</text>
</a>
</g>
</g>
<!-- Node2&#45;&gt;Node32 -->
<g id="edge28" class="edge">
<title>Node2&#45;&gt;Node32</title>
<path fill="none" stroke="midnightblue" d="M2903.08,-138.68C2917.82,-136.82 2933.4,-135.11 2947.96,-134 3651.43,-80.23 3831.18,-147.35 4534.96,-98 4554.7,-96.62 4576.13,-94.35 4595.5,-92.02"/>
<polygon fill="midnightblue" stroke="midnightblue" points="2902.49,-135.23 2893.03,-139.99 2903.39,-142.17 2902.49,-135.23"/>
</g>
<!-- Node33 -->
<g id="node29" class="node">
<title>Node33</title>
<g id="a_node29"><a xlink:href="../../de/d45/vcontrolpointspline_8cpp.html" target="_top" xlink:title=" ">
<polygon fill="white" stroke="black" points="4790.46,-73 4790.46,-92 5005.46,-92 5005.46,-73 4790.46,-73"/>
<text text-anchor="middle" x="4897.96" y="-80" font-family="Helvetica,sans-Serif" font-size="10.00">src/libs/vwidgets/vcontrolpointspline.cpp</text>
</a>
</g>
</g>
<!-- Node2&#45;&gt;Node33 -->
<g id="edge29" class="edge">
<title>Node2&#45;&gt;Node33</title>
<path fill="none" stroke="midnightblue" d="M2902.84,-138.68C2917.65,-136.81 2933.32,-135.1 2947.96,-134 3760.96,-73.11 3968.81,-156.64 4781.96,-98 4800.69,-96.65 4821.03,-94.38 4839.37,-92.04"/>
<polygon fill="midnightblue" stroke="midnightblue" points="2902.2,-135.23 2892.74,-139.99 2903.11,-142.17 2902.2,-135.23"/>
</g>
<!-- Node34 -->
<g id="node30" class="node">
<title>Node34</title>
<g id="a_node30"><a xlink:href="../../de/dec/vgraphicssimpletextitem_8cpp.html" target="_top" xlink:title=" ">
<polygon fill="white" stroke="black" points="5023.96,-73 5023.96,-92 5267.96,-92 5267.96,-73 5023.96,-73"/>
<text text-anchor="middle" x="5145.96" y="-80" font-family="Helvetica,sans-Serif" font-size="10.00">src/libs/vwidgets/vgraphicssimpletextitem.cpp</text>
</a>
</g>
</g>
<!-- Node2&#45;&gt;Node34 -->
<g id="edge30" class="edge">
<title>Node2&#45;&gt;Node34</title>
<path fill="none" stroke="midnightblue" d="M2902.83,-138.65C2917.65,-136.79 2933.32,-135.08 2947.96,-134 3864.28,-66.39 4098.03,-156.6 5014.96,-98 5036.09,-96.65 5059.05,-94.38 5079.76,-92.04"/>
<polygon fill="midnightblue" stroke="midnightblue" points="2902.2,-135.21 2892.74,-139.97 2903.11,-142.15 2902.2,-135.21"/>
</g>
<!-- Node35 -->
<g id="node31" class="node">
<title>Node35</title>
<g id="a_node31"><a xlink:href="../../d1/d90/vgrainlineitem_8cpp.html" target="_top" xlink:title=" ">
<polygon fill="white" stroke="black" points="5286.46,-73 5286.46,-92 5479.46,-92 5479.46,-73 5286.46,-73"/>
<text text-anchor="middle" x="5382.96" y="-80" font-family="Helvetica,sans-Serif" font-size="10.00">src/libs/vwidgets/vgrainlineitem.cpp</text>
</a>
</g>
</g>
<!-- Node2&#45;&gt;Node35 -->
<g id="edge31" class="edge">
<title>Node2&#45;&gt;Node35</title>
<path fill="none" stroke="midnightblue" d="M2902.59,-138.66C2917.48,-136.78 2933.24,-135.07 2947.96,-134 3980.47,-58.83 4244.69,-176.29 5276.96,-98 5294.28,-96.69 5313.09,-94.4 5329.99,-92.02"/>
<polygon fill="midnightblue" stroke="midnightblue" points="2901.92,-135.22 2892.45,-139.98 2902.82,-142.16 2901.92,-135.22"/>
</g>
<!-- Node36 -->
<g id="node32" class="node">
<title>Node36</title>
<g id="a_node32"><a xlink:href="../../d1/d88/vmaingraphicsscene_8cpp.html" target="_top" xlink:title=" ">
<polygon fill="white" stroke="black" points="5497.96,-73 5497.96,-92 5719.96,-92 5719.96,-73 5497.96,-73"/>
<text text-anchor="middle" x="5608.96" y="-80" font-family="Helvetica,sans-Serif" font-size="10.00">src/libs/vwidgets/vmaingraphicsscene.cpp</text>
</a>
</g>
</g>
<!-- Node2&#45;&gt;Node36 -->
<g id="edge32" class="edge">
<title>Node2&#45;&gt;Node36</title>
<path fill="none" stroke="midnightblue" d="M2902.59,-138.65C2917.48,-136.77 2933.24,-135.06 2947.96,-134 4074.48,-52.72 4362.07,-173.85 5488.96,-98 5508.54,-96.68 5529.83,-94.39 5548.96,-92.02"/>
<polygon fill="midnightblue" stroke="midnightblue" points="2901.92,-135.21 2892.45,-139.97 2902.82,-142.15 2901.92,-135.21"/>
</g>
<!-- Node37 -->
<g id="node33" class="node">
<title>Node37</title>
<g id="a_node33"><a xlink:href="../../d0/d5d/vscenepoint_8cpp.html" target="_top" xlink:title=" ">
<polygon fill="white" stroke="black" points="5738.46,-73 5738.46,-92 5919.46,-92 5919.46,-73 5738.46,-73"/>
<text text-anchor="middle" x="5828.96" y="-80" font-family="Helvetica,sans-Serif" font-size="10.00">src/libs/vwidgets/vscenepoint.cpp</text>
</a>
</g>
</g>
<!-- Node2&#45;&gt;Node37 -->
<g id="edge33" class="edge">
<title>Node2&#45;&gt;Node37</title>
<path fill="none" stroke="midnightblue" d="M2902.35,-138.67C2917.31,-136.78 2933.16,-135.06 2947.96,-134 4180.92,-45.79 4496.66,-194.9 5728.96,-98 5745.4,-96.71 5763.25,-94.41 5779.26,-92.02"/>
<polygon fill="midnightblue" stroke="midnightblue" points="2901.63,-135.23 2892.17,-140 2902.54,-142.17 2901.63,-135.23"/>
</g>
<!-- Node38 -->
<g id="node34" class="node">
<title>Node38</title>
<g id="a_node34"><a xlink:href="../../d2/d31/vmaingraphicsview_8cpp.html" target="_top" xlink:title=" ">
<polygon fill="white" stroke="black" points="1129.96,-73 1129.96,-92 1345.96,-92 1345.96,-73 1129.96,-73"/>
<text text-anchor="middle" x="1237.96" y="-80" font-family="Helvetica,sans-Serif" font-size="10.00">src/libs/vwidgets/vmaingraphicsview.cpp</text>
</a>
</g>
</g>
<!-- Node2&#45;&gt;Node38 -->
<g id="edge34" class="edge">
<title>Node2&#45;&gt;Node38</title>
<path fill="none" stroke="midnightblue" d="M2729.01,-146.07C2434.63,-139.26 1622.08,-119.06 1354.96,-98 1336.5,-96.54 1316.47,-94.31 1298.28,-92.02"/>
<polygon fill="midnightblue" stroke="midnightblue" points="2729.19,-149.58 2739.27,-146.31 2729.35,-142.58 2729.19,-149.58"/>
</g>
<!-- Node39 -->
<g id="node35" class="node">
<title>Node39</title>
<g id="a_node35"><a xlink:href="../../de/d22/vsimplecurve_8cpp.html" target="_top" xlink:title=" ">
<polygon fill="white" stroke="black" points="1363.96,-73 1363.96,-92 1551.96,-92 1551.96,-73 1363.96,-73"/>
<text text-anchor="middle" x="1457.96" y="-80" font-family="Helvetica,sans-Serif" font-size="10.00">src/libs/vwidgets/vsimplecurve.cpp</text>
</a>
</g>
</g>
<!-- Node2&#45;&gt;Node39 -->
<g id="edge35" class="edge">
<title>Node2&#45;&gt;Node39</title>
<path fill="none" stroke="midnightblue" d="M2729.26,-145.63C2464.39,-138.35 1786.47,-118.28 1560.96,-98 1544.69,-96.54 1527.05,-94.29 1511.04,-92.01"/>
<polygon fill="midnightblue" stroke="midnightblue" points="2729.18,-149.13 2739.27,-145.9 2729.37,-142.13 2729.18,-149.13"/>
</g>
<!-- Node40 -->
<g id="node36" class="node">
<title>Node40</title>
<g id="a_node36"><a xlink:href="../../df/d38/vsimplepoint_8cpp.html" target="_top" xlink:title=" ">
<polygon fill="white" stroke="black" points="1570.46,-73 1570.46,-92 1755.46,-92 1755.46,-73 1570.46,-73"/>
<text text-anchor="middle" x="1662.96" y="-80" font-family="Helvetica,sans-Serif" font-size="10.00">src/libs/vwidgets/vsimplepoint.cpp</text>
</a>
</g>
</g>
<!-- Node2&#45;&gt;Node40 -->
<g id="edge36" class="edge">
<title>Node2&#45;&gt;Node40</title>
<path fill="none" stroke="midnightblue" d="M2728.92,-146.83C2535.16,-143.07 2115.98,-131.47 1763.96,-98 1748.18,-96.5 1731.09,-94.28 1715.53,-92.02"/>
<polygon fill="midnightblue" stroke="midnightblue" points="2729.03,-150.33 2739.1,-147.02 2729.17,-143.33 2729.03,-150.33"/>
</g>
<!-- Node41 -->
<g id="node37" class="node">
<title>Node41</title>
<g id="a_node37"><a xlink:href="../../df/df5/vtextgraphicsitem_8cpp.html" target="_top" xlink:title=" ">
<polygon fill="white" stroke="black" points="1773.46,-73 1773.46,-92 1984.46,-92 1984.46,-73 1773.46,-73"/>
<text text-anchor="middle" x="1878.96" y="-80" font-family="Helvetica,sans-Serif" font-size="10.00">src/libs/vwidgets/vtextgraphicsitem.cpp</text>
</a>
</g>
</g>
<!-- Node2&#45;&gt;Node41 -->
<g id="edge37" class="edge">
<title>Node2&#45;&gt;Node41</title>
<path fill="none" stroke="midnightblue" d="M2728.97,-144.35C2568.28,-137.65 2256.82,-122.65 1992.96,-98 1975.68,-96.39 1956.98,-94.19 1939.82,-92"/>
<polygon fill="midnightblue" stroke="midnightblue" points="2729.2,-147.86 2739.33,-144.78 2729.49,-140.87 2729.2,-147.86"/>
</g>
<!-- Node12&#45;&gt;Node11 -->
<g id="edge9" class="edge">
<title>Node12&#45;&gt;Node11</title>
<path fill="none" stroke="midnightblue" d="M3193.91,-64.44C3160.52,-53.91 3118.18,-40.55 3086.69,-30.61"/>
<polygon fill="midnightblue" stroke="midnightblue" points="3192.93,-67.8 3203.52,-67.48 3195.04,-61.13 3192.93,-67.8"/>
</g>
<!-- Node25 -->
<g id="node21" class="node">
<title>Node25</title>
<g id="a_node21"><a xlink:href="../../d8/dba/vpiecenode_8cpp.html" target="_top" xlink:title=" ">
<polygon fill="white" stroke="black" points="1504.46,-0.5 1504.46,-30.5 1611.46,-30.5 1611.46,-0.5 1504.46,-0.5"/>
<text text-anchor="start" x="1512.46" y="-18.5" font-family="Helvetica,sans-Serif" font-size="10.00">src/libs/vpatterndb</text>
<text text-anchor="middle" x="1557.96" y="-7.5" font-family="Helvetica,sans-Serif" font-size="10.00">/vpiecenode.cpp</text>
</a>
</g>
</g>
<!-- Node24&#45;&gt;Node25 -->
<g id="edge21" class="edge">
<title>Node24&#45;&gt;Node25</title>
<path fill="none" stroke="midnightblue" d="M2691.09,-67.1C2459.66,-37.56 1804.36,-21.73 1611.77,-17.6"/>
<polygon fill="midnightblue" stroke="midnightblue" points="2690.75,-70.59 2701.13,-68.43 2691.67,-63.65 2690.75,-70.59"/>
</g>
<!-- Node42&#45;&gt;Node2 -->
<g id="edge45" class="edge">
<title>Node42&#45;&gt;Node2</title>
<path fill="none" stroke="midnightblue" d="M946.67,-213.38C1231.99,-203.89 2393.46,-165.25 2739.33,-153.75"/>
<polygon fill="midnightblue" stroke="midnightblue" points="946.38,-209.89 936.5,-213.72 946.61,-216.88 946.38,-209.89"/>
</g>
<!-- Node42&#45;&gt;Node17 -->
<g id="edge44" class="edge">
<title>Node42&#45;&gt;Node17</title>
<path fill="none" stroke="midnightblue" d="M904.89,-193.53C919.29,-176.37 933.21,-152.44 919.96,-134 903.93,-111.68 877.54,-99.1 851.32,-92.04"/>
<polygon fill="midnightblue" stroke="midnightblue" points="901.96,-191.56 897.9,-201.35 907.18,-196.22 901.96,-191.56"/>
</g>
<!-- Node42&#45;&gt;Node22 -->
<g id="edge48" class="edge">
<title>Node42&#45;&gt;Node22</title>
<path fill="none" stroke="midnightblue" d="M819.69,-199.14C792.94,-190.87 762.01,-179.49 735.96,-165 716.92,-154.41 717.85,-142.92 697.96,-134 605.97,-92.72 572.9,-117.49 473.96,-98 471.25,-97.47 468.48,-96.9 465.68,-96.31"/>
<polygon fill="midnightblue" stroke="midnightblue" points="818.76,-202.51 829.34,-202.04 820.78,-195.81 818.76,-202.51"/>
</g>
<!-- Node42&#45;&gt;Node23 -->
<g id="edge50" class="edge">
<title>Node42&#45;&gt;Node23</title>
<path fill="none" stroke="midnightblue" d="M922.93,-196.12C934.8,-188.23 946.37,-177.88 952.96,-165 964.18,-143.08 951.87,-114.58 942.21,-97.75"/>
<polygon fill="midnightblue" stroke="midnightblue" points="920.98,-193.21 914.31,-201.44 924.66,-199.17 920.98,-193.21"/>
</g>
<!-- Node42&#45;&gt;Node25 -->
<g id="edge51" class="edge">
<title>Node42&#45;&gt;Node25</title>
<path fill="none" stroke="midnightblue" d="M818.97,-214.19C621.74,-209.84 34.78,-194.47 6.96,-165 -2.49,-154.98 -0.19,-145.78 6.96,-134 40.51,-78.78 73.49,-83.44 135.96,-67 269.97,-31.74 1261.44,-19.5 1504.36,-17.01"/>
<polygon fill="midnightblue" stroke="midnightblue" points="819.1,-217.69 829.18,-214.41 819.26,-210.69 819.1,-217.69"/>
</g>
<!-- Node42&#45;&gt;Node26 -->
<g id="edge53" class="edge">
<title>Node42&#45;&gt;Node26</title>
<path fill="none" stroke="midnightblue" d="M920,-196.38C935.89,-187.58 954.35,-176.54 969.96,-165 998.43,-143.96 1027.9,-114.92 1044.48,-97.79"/>
<polygon fill="midnightblue" stroke="midnightblue" points="918.09,-193.44 910.98,-201.29 921.44,-199.58 918.09,-193.44"/>
</g>
<!-- Node43 -->
<g id="node39" class="node">
<title>Node43</title>
<g id="a_node39"><a xlink:href="../../d4/dd6/vmeasurements_8h.html" target="_top" xlink:title=" ">
<polygon fill="white" stroke="black" points="504.46,-140 504.46,-159 689.46,-159 689.46,-140 504.46,-140"/>
<text text-anchor="middle" x="596.96" y="-147" font-family="Helvetica,sans-Serif" font-size="10.00">src/libs/vformat/vmeasurements.h</text>
</a>
</g>
</g>
<!-- Node42&#45;&gt;Node43 -->
<g id="edge39" class="edge">
<title>Node42&#45;&gt;Node43</title>
<path fill="none" stroke="midnightblue" d="M819.23,-201.02C762.52,-188.13 681.5,-169.71 634.56,-159.04"/>
<polygon fill="midnightblue" stroke="midnightblue" points="818.64,-204.47 829.17,-203.27 820.19,-197.64 818.64,-204.47"/>
</g>
<!-- Node44 -->
<g id="node40" class="node">
<title>Node44</title>
<g id="a_node40"><a xlink:href="../../de/db3/vmeasurements_8cpp.html" target="_top" xlink:title=" ">
<polygon fill="white" stroke="black" points="144.96,-73 144.96,-92 340.96,-92 340.96,-73 144.96,-73"/>
<text text-anchor="middle" x="242.96" y="-80" font-family="Helvetica,sans-Serif" font-size="10.00">src/libs/vformat/vmeasurements.cpp</text>
</a>
</g>
</g>
<!-- Node42&#45;&gt;Node44 -->
<g id="edge41" class="edge">
<title>Node42&#45;&gt;Node44</title>
<path fill="none" stroke="midnightblue" d="M819.19,-211.54C724.47,-204.94 551.68,-189.88 494.96,-165 475.32,-156.38 477.15,-143.6 457.96,-134 413.56,-111.78 359.07,-99.11 316.05,-92.03"/>
<polygon fill="midnightblue" stroke="midnightblue" points="819.01,-215.04 829.23,-212.23 819.49,-208.06 819.01,-215.04"/>
</g>
<!-- Node45 -->
<g id="node41" class="node">
<title>Node45</title>
<g id="a_node41"><a xlink:href="../../d6/de0/vlayoutpiece_8h.html" target="_top" xlink:title=" ">
<polygon fill="white" stroke="red" points="744.96,-140 744.96,-159 910.96,-159 910.96,-140 744.96,-140"/>
<text text-anchor="middle" x="827.96" y="-147" font-family="Helvetica,sans-Serif" font-size="10.00">src/libs/vlayout/vlayoutpiece.h</text>
</a>
</g>
</g>
<!-- Node42&#45;&gt;Node45 -->
<g id="edge42" class="edge">
<title>Node42&#45;&gt;Node45</title>
<path fill="none" stroke="midnightblue" d="M864.48,-193.66C854.5,-181.86 842.74,-167.97 835.32,-159.19"/>
<polygon fill="midnightblue" stroke="midnightblue" points="861.9,-196.02 871.03,-201.4 867.24,-191.5 861.9,-196.02"/>
</g>
<!-- Node54 -->
<g id="node42" class="node">
<title>Node54</title>
<g id="a_node42"><a xlink:href="../../d1/de1/vincrement__p_8h.html" target="_top" xlink:title=" ">
<polygon fill="white" stroke="red" points="1043.46,-134.5 1043.46,-164.5 1186.46,-164.5 1186.46,-134.5 1043.46,-134.5"/>
<text text-anchor="start" x="1051.46" y="-152.5" font-family="Helvetica,sans-Serif" font-size="10.00">src/libs/vpatterndb</text>
<text text-anchor="middle" x="1114.96" y="-141.5" font-family="Helvetica,sans-Serif" font-size="10.00">/variables/vincrement_p.h</text>
</a>
</g>
</g>
<!-- Node42&#45;&gt;Node54 -->
<g id="edge46" class="edge">
<title>Node42&#45;&gt;Node54</title>
<path fill="none" stroke="midnightblue" d="M942.87,-198.71C980.63,-188.14 1028.82,-174.63 1064.6,-164.61"/>
<polygon fill="midnightblue" stroke="midnightblue" points="941.7,-195.41 933.02,-201.48 943.59,-202.15 941.7,-195.41"/>
</g>
<!-- Node56 -->
<g id="node43" class="node">
<title>Node56</title>
<g id="a_node43"><a xlink:href="../../d6/dc1/vmeasurement__p_8h.html" target="_top" xlink:title=" ">
<polygon fill="white" stroke="red" points="1204.96,-134.5 1204.96,-164.5 1366.96,-164.5 1366.96,-134.5 1204.96,-134.5"/>
<text text-anchor="start" x="1212.96" y="-152.5" font-family="Helvetica,sans-Serif" font-size="10.00">src/libs/vpatterndb</text>
<text text-anchor="middle" x="1285.96" y="-141.5" font-family="Helvetica,sans-Serif" font-size="10.00">/variables/vmeasurement_p.h</text>
</a>
</g>
</g>
<!-- Node42&#45;&gt;Node56 -->
<g id="edge47" class="edge">
<title>Node42&#45;&gt;Node56</title>
<path fill="none" stroke="midnightblue" d="M946.46,-205.26C1016.23,-194.01 1128.5,-175.9 1204.66,-163.61"/>
<polygon fill="midnightblue" stroke="midnightblue" points="945.8,-201.82 936.48,-206.87 946.91,-208.73 945.8,-201.82"/>
</g>
<!-- Node58 -->
<g id="node44" class="node">
<title>Node58</title>
<g id="a_node44"><a xlink:href="../../d6/d91/vnodedetail_8cpp.html" target="_top" xlink:title=" ">
<polygon fill="white" stroke="black" points="1385.46,-134.5 1385.46,-164.5 1492.46,-164.5 1492.46,-134.5 1385.46,-134.5"/>
<text text-anchor="start" x="1393.46" y="-152.5" font-family="Helvetica,sans-Serif" font-size="10.00">src/libs/vpatterndb</text>
<text text-anchor="middle" x="1438.96" y="-141.5" font-family="Helvetica,sans-Serif" font-size="10.00">/vnodedetail.cpp</text>
</a>
</g>
</g>
<!-- Node42&#45;&gt;Node58 -->
<g id="edge49" class="edge">
<title>Node42&#45;&gt;Node58</title>
<path fill="none" stroke="midnightblue" d="M946.74,-211.51C1041.02,-205.03 1222.97,-190.34 1375.96,-165 1379.07,-164.49 1382.24,-163.91 1385.44,-163.3"/>
<polygon fill="midnightblue" stroke="midnightblue" points="946.25,-208.03 936.51,-212.2 946.72,-215.02 946.25,-208.03"/>
</g>
<!-- Node59 -->
<g id="node45" class="node">
<title>Node59</title>
<g id="a_node45"><a xlink:href="../../da/de1/vpiecepath_8cpp.html" target="_top" xlink:title=" ">
<polygon fill="white" stroke="black" points="16.46,-134.5 16.46,-164.5 123.46,-164.5 123.46,-134.5 16.46,-134.5"/>
<text text-anchor="start" x="24.46" y="-152.5" font-family="Helvetica,sans-Serif" font-size="10.00">src/libs/vpatterndb</text>
<text text-anchor="middle" x="69.96" y="-141.5" font-family="Helvetica,sans-Serif" font-size="10.00">/vpiecepath.cpp</text>
</a>
</g>
</g>
<!-- Node42&#45;&gt;Node59 -->
<g id="edge52" class="edge">
<title>Node42&#45;&gt;Node59</title>
<path fill="none" stroke="midnightblue" d="M819.21,-214.7C689.23,-212.31 384.57,-202.78 131.96,-165 129.23,-164.59 126.44,-164.12 123.63,-163.61"/>
<polygon fill="midnightblue" stroke="midnightblue" points="819.32,-218.2 829.38,-214.88 819.44,-211.2 819.32,-218.2"/>
</g>
<!-- Node60 -->
<g id="node46" class="node">
<title>Node60</title>
<g id="a_node46"><a xlink:href="../../d1/d3a/abstracttest_8cpp.html" target="_top" xlink:title=" ">
<polygon fill="white" stroke="black" points="141.46,-140 141.46,-159 302.46,-159 302.46,-140 141.46,-140"/>
<text text-anchor="middle" x="221.96" y="-147" font-family="Helvetica,sans-Serif" font-size="10.00">src/libs/vtest/abstracttest.cpp</text>
</a>
</g>
</g>
<!-- Node42&#45;&gt;Node60 -->
<g id="edge54" class="edge">
<title>Node42&#45;&gt;Node60</title>
<path fill="none" stroke="midnightblue" d="M819.12,-211.35C713.4,-204.14 495.46,-187.87 311.96,-165 298.62,-163.34 284.21,-161.18 270.92,-159.04"/>
<polygon fill="midnightblue" stroke="midnightblue" points="819.08,-214.86 829.3,-212.04 819.56,-207.87 819.08,-214.86"/>
</g>
<!-- Node61 -->
<g id="node47" class="node">
<title>Node61</title>
<g id="a_node47"><a xlink:href="../../da/db4/piece__tablewidgetitem_8cpp.html" target="_top" xlink:title=" ">
<polygon fill="white" stroke="black" points="320.96,-134.5 320.96,-164.5 448.96,-164.5 448.96,-134.5 320.96,-134.5"/>
<text text-anchor="start" x="328.96" y="-152.5" font-family="Helvetica,sans-Serif" font-size="10.00">src/libs/vwidgets/piece</text>
<text text-anchor="middle" x="384.96" y="-141.5" font-family="Helvetica,sans-Serif" font-size="10.00">_tablewidgetitem.cpp</text>
</a>
</g>
</g>
<!-- Node42&#45;&gt;Node61 -->
<g id="edge55" class="edge">
<title>Node42&#45;&gt;Node61</title>
<path fill="none" stroke="midnightblue" d="M819.48,-209.15C737.09,-200.61 588.93,-184.26 462.96,-165 458.47,-164.31 453.84,-163.56 449.18,-162.78"/>
<polygon fill="midnightblue" stroke="midnightblue" points="819.14,-212.63 829.44,-210.18 819.86,-205.67 819.14,-212.63"/>
</g>
<!-- Node43&#45;&gt;Node44 -->
<g id="edge40" class="edge">
<title>Node43&#45;&gt;Node44</title>
<path fill="none" stroke="midnightblue" d="M540.41,-138.12C470.83,-125.34 354.02,-103.89 289.43,-92.03"/>
<polygon fill="midnightblue" stroke="midnightblue" points="539.85,-141.57 550.32,-139.94 541.12,-134.69 539.85,-141.57"/>
</g>
<!-- Node45&#45;&gt;Node16 -->
<g id="edge43" class="edge">
<title>Node45&#45;&gt;Node16</title>
<path fill="none" stroke="midnightblue" d="M784.26,-137.4C733.74,-124.58 651.66,-103.74 605.77,-92.08"/>
<polygon fill="midnightblue" stroke="midnightblue" points="783.68,-140.87 794.23,-139.94 785.4,-134.08 783.68,-140.87"/>
</g>
</g>
</svg>
