<?xml version="1.0" encoding="UTF-8" standalone="no"?>
<!DOCTYPE svg PUBLIC "-//W3C//DTD SVG 1.1//EN"
 "http://www.w3.org/Graphics/SVG/1.1/DTD/svg11.dtd">
<!-- Generated by graphviz version 2.43.0 (0)
 -->
<!-- Title: DialogLayoutSettings Pages: 1 -->
<svg width="151pt" height="902pt"
 viewBox="0.00 0.00 151.00 902.00" xmlns="http://www.w3.org/2000/svg" xmlns:xlink="http://www.w3.org/1999/xlink">
<g id="graph0" class="graph" transform="scale(1 1) rotate(0) translate(4 898)">
<title>DialogLayoutSettings</title>
<!-- Node1 -->
<g id="Node000001" class="node">
<title>Node1</title>
<g id="a_Node000001"><a xlink:title=" ">
<polygon fill="#999999" stroke="transparent" points="143,-679 0,-679 0,0 143,0 143,-679"/>
<text text-anchor="start" x="19.5" y="-666.5" font-family="Helvetica,sans-Serif" font-size="10.00">DialogLayoutSettings</text>
<text text-anchor="start" x="7" y="-651.5" font-family="Helvetica,sans-Serif" font-size="10.00">&#45;</text>
<text text-anchor="start" x="17.5" y="-651.5" font-family="Helvetica,sans-Serif" font-size="10.00">disableSettings</text>
<text text-anchor="start" x="7" y="-636.5" font-family="Helvetica,sans-Serif" font-size="10.00">&#45;</text>
<text text-anchor="start" x="17.5" y="-636.5" font-family="Helvetica,sans-Serif" font-size="10.00">ui</text>
<text text-anchor="start" x="7" y="-621.5" font-family="Helvetica,sans-Serif" font-size="10.00">&#45;</text>
<text text-anchor="start" x="17.5" y="-621.5" font-family="Helvetica,sans-Serif" font-size="10.00">oldPaperUnit</text>
<text text-anchor="start" x="7" y="-606.5" font-family="Helvetica,sans-Serif" font-size="10.00">&#45;</text>
<text text-anchor="start" x="17.5" y="-606.5" font-family="Helvetica,sans-Serif" font-size="10.00">oldLayoutUnit</text>
<text text-anchor="start" x="7" y="-591.5" font-family="Helvetica,sans-Serif" font-size="10.00">&#45;</text>
<text text-anchor="start" x="17.5" y="-591.5" font-family="Helvetica,sans-Serif" font-size="10.00">generator</text>
<text text-anchor="start" x="7" y="-576.5" font-family="Helvetica,sans-Serif" font-size="10.00">&#45;</text>
<text text-anchor="start" x="17.5" y="-576.5" font-family="Helvetica,sans-Serif" font-size="10.00">isInitialized</text>
<text text-anchor="start" x="7" y="-561.5" font-family="Helvetica,sans-Serif" font-size="10.00">&#45;</text>
<text text-anchor="start" x="17.5" y="-561.5" font-family="Helvetica,sans-Serif" font-size="10.00">pageFormatNames</text>
<text text-anchor="start" x="4.5" y="-546.5" font-family="Helvetica,sans-Serif" font-size="10.00">+</text>
<text text-anchor="start" x="17.5" y="-546.5" font-family="Helvetica,sans-Serif" font-size="10.00">DialogLayoutSettings()</text>
<text text-anchor="start" x="4.5" y="-531.5" font-family="Helvetica,sans-Serif" font-size="10.00">+</text>
<text text-anchor="start" x="17.5" y="-531.5" font-family="Helvetica,sans-Serif" font-size="10.00">~DialogLayoutSettings()</text>
<text text-anchor="start" x="4.5" y="-516.5" font-family="Helvetica,sans-Serif" font-size="10.00">+</text>
<text text-anchor="start" x="17.5" y="-516.5" font-family="Helvetica,sans-Serif" font-size="10.00">GetPaperHeight()</text>
<text text-anchor="start" x="4.5" y="-501.5" font-family="Helvetica,sans-Serif" font-size="10.00">+</text>
<text text-anchor="start" x="17.5" y="-501.5" font-family="Helvetica,sans-Serif" font-size="10.00">SetPaperHeight()</text>
<text text-anchor="start" x="4.5" y="-486.5" font-family="Helvetica,sans-Serif" font-size="10.00">+</text>
<text text-anchor="start" x="17.5" y="-486.5" font-family="Helvetica,sans-Serif" font-size="10.00">GetPaperWidth()</text>
<text text-anchor="start" x="4.5" y="-471.5" font-family="Helvetica,sans-Serif" font-size="10.00">+</text>
<text text-anchor="start" x="17.5" y="-471.5" font-family="Helvetica,sans-Serif" font-size="10.00">SetPaperWidth()</text>
<text text-anchor="start" x="4.5" y="-456.5" font-family="Helvetica,sans-Serif" font-size="10.00">+</text>
<text text-anchor="start" x="17.5" y="-456.5" font-family="Helvetica,sans-Serif" font-size="10.00">GetShift()</text>
<text text-anchor="start" x="4.5" y="-441.5" font-family="Helvetica,sans-Serif" font-size="10.00">+</text>
<text text-anchor="start" x="17.5" y="-441.5" font-family="Helvetica,sans-Serif" font-size="10.00">SetShift()</text>
<text text-anchor="start" x="4.5" y="-426.5" font-family="Helvetica,sans-Serif" font-size="10.00">+</text>
<text text-anchor="start" x="17.5" y="-426.5" font-family="Helvetica,sans-Serif" font-size="10.00">GetLayoutWidth()</text>
<text text-anchor="start" x="4.5" y="-411.5" font-family="Helvetica,sans-Serif" font-size="10.00">+</text>
<text text-anchor="start" x="17.5" y="-411.5" font-family="Helvetica,sans-Serif" font-size="10.00">SetLayoutWidth()</text>
<text text-anchor="start" x="17.5" y="-396.5" font-family="Helvetica,sans-Serif" font-size="10.00">and 28 more...</text>
<text text-anchor="start" x="4.5" y="-381.5" font-family="Helvetica,sans-Serif" font-size="10.00">+</text>
<text text-anchor="start" x="17.5" y="-381.5" font-family="Helvetica,sans-Serif" font-size="10.00">MakeHelpTemplateList()</text>
<text text-anchor="start" x="4.5" y="-366.5" font-family="Helvetica,sans-Serif" font-size="10.00">+</text>
<text text-anchor="start" x="17.5" y="-366.5" font-family="Helvetica,sans-Serif" font-size="10.00">MakeGroupsHelp()</text>
<text text-anchor="start" x="4.5" y="-351.5" font-family="Helvetica,sans-Serif" font-size="10.00">+</text>
<text text-anchor="start" x="17.5" y="-351.5" font-family="Helvetica,sans-Serif" font-size="10.00">DialogAccepted()</text>
<text text-anchor="start" x="4.5" y="-336.5" font-family="Helvetica,sans-Serif" font-size="10.00">#</text>
<text text-anchor="start" x="17.5" y="-336.5" font-family="Helvetica,sans-Serif" font-size="10.00">showEvent()</text>
<text text-anchor="start" x="4.5" y="-321.5" font-family="Helvetica,sans-Serif" font-size="10.00">#</text>
<text text-anchor="start" x="17.5" y="-321.5" font-family="Helvetica,sans-Serif" font-size="10.00">getTemplateSize()</text>
<text text-anchor="start" x="7" y="-306.5" font-family="Helvetica,sans-Serif" font-size="10.00">&#45;</text>
<text text-anchor="start" x="17.5" y="-306.5" font-family="Helvetica,sans-Serif" font-size="10.00">InitPaperUnits()</text>
<text text-anchor="start" x="7" y="-291.5" font-family="Helvetica,sans-Serif" font-size="10.00">&#45;</text>
<text text-anchor="start" x="17.5" y="-291.5" font-family="Helvetica,sans-Serif" font-size="10.00">InitLayoutUnits()</text>
<text text-anchor="start" x="7" y="-276.5" font-family="Helvetica,sans-Serif" font-size="10.00">&#45;</text>
<text text-anchor="start" x="17.5" y="-276.5" font-family="Helvetica,sans-Serif" font-size="10.00">InitPrinter()</text>
<text text-anchor="start" x="7" y="-261.5" font-family="Helvetica,sans-Serif" font-size="10.00">&#45;</text>
<text text-anchor="start" x="17.5" y="-261.5" font-family="Helvetica,sans-Serif" font-size="10.00">Template()</text>
<text text-anchor="start" x="7" y="-246.5" font-family="Helvetica,sans-Serif" font-size="10.00">&#45;</text>
<text text-anchor="start" x="17.5" y="-246.5" font-family="Helvetica,sans-Serif" font-size="10.00">MinPrinterFields()</text>
<text text-anchor="start" x="7" y="-231.5" font-family="Helvetica,sans-Serif" font-size="10.00">&#45;</text>
<text text-anchor="start" x="17.5" y="-231.5" font-family="Helvetica,sans-Serif" font-size="10.00">GetDefPrinterFields()</text>
<text text-anchor="start" x="7" y="-216.5" font-family="Helvetica,sans-Serif" font-size="10.00">&#45;</text>
<text text-anchor="start" x="17.5" y="-216.5" font-family="Helvetica,sans-Serif" font-size="10.00">PaperUnit()</text>
<text text-anchor="start" x="7" y="-201.5" font-family="Helvetica,sans-Serif" font-size="10.00">&#45;</text>
<text text-anchor="start" x="17.5" y="-201.5" font-family="Helvetica,sans-Serif" font-size="10.00">LayoutUnit()</text>
<text text-anchor="start" x="7" y="-186.5" font-family="Helvetica,sans-Serif" font-size="10.00">&#45;</text>
<text text-anchor="start" x="17.5" y="-186.5" font-family="Helvetica,sans-Serif" font-size="10.00">CorrectPaperDecimals()</text>
<text text-anchor="start" x="7" y="-171.5" font-family="Helvetica,sans-Serif" font-size="10.00">&#45;</text>
<text text-anchor="start" x="17.5" y="-171.5" font-family="Helvetica,sans-Serif" font-size="10.00">CorrectLayoutDecimals()</text>
<text text-anchor="start" x="17.5" y="-156.5" font-family="Helvetica,sans-Serif" font-size="10.00">and 6 more...</text>
<text text-anchor="start" x="7" y="-141.5" font-family="Helvetica,sans-Serif" font-size="10.00">&#45;</text>
<text text-anchor="start" x="17.5" y="-141.5" font-family="Helvetica,sans-Serif" font-size="10.00">ConvertPaperSize()</text>
<text text-anchor="start" x="7" y="-126.5" font-family="Helvetica,sans-Serif" font-size="10.00">&#45;</text>
<text text-anchor="start" x="17.5" y="-126.5" font-family="Helvetica,sans-Serif" font-size="10.00">ConvertLayoutSize()</text>
<text text-anchor="start" x="7" y="-111.5" font-family="Helvetica,sans-Serif" font-size="10.00">&#45;</text>
<text text-anchor="start" x="17.5" y="-111.5" font-family="Helvetica,sans-Serif" font-size="10.00">TemplateSelected()</text>
<text text-anchor="start" x="7" y="-96.5" font-family="Helvetica,sans-Serif" font-size="10.00">&#45;</text>
<text text-anchor="start" x="17.5" y="-96.5" font-family="Helvetica,sans-Serif" font-size="10.00">FindTemplate()</text>
<text text-anchor="start" x="7" y="-81.5" font-family="Helvetica,sans-Serif" font-size="10.00">&#45;</text>
<text text-anchor="start" x="17.5" y="-81.5" font-family="Helvetica,sans-Serif" font-size="10.00">PaperSizeChanged()</text>
<text text-anchor="start" x="7" y="-66.5" font-family="Helvetica,sans-Serif" font-size="10.00">&#45;</text>
<text text-anchor="start" x="17.5" y="-66.5" font-family="Helvetica,sans-Serif" font-size="10.00">Swap()</text>
<text text-anchor="start" x="7" y="-51.5" font-family="Helvetica,sans-Serif" font-size="10.00">&#45;</text>
<text text-anchor="start" x="17.5" y="-51.5" font-family="Helvetica,sans-Serif" font-size="10.00">RestoreDefaults()</text>
<text text-anchor="start" x="7" y="-36.5" font-family="Helvetica,sans-Serif" font-size="10.00">&#45;</text>
<text text-anchor="start" x="17.5" y="-36.5" font-family="Helvetica,sans-Serif" font-size="10.00">PrinterMargins()</text>
<text text-anchor="start" x="7" y="-21.5" font-family="Helvetica,sans-Serif" font-size="10.00">&#45;</text>
<text text-anchor="start" x="17.5" y="-21.5" font-family="Helvetica,sans-Serif" font-size="10.00">CorrectMaxFileds()</text>
<text text-anchor="start" x="7" y="-6.5" font-family="Helvetica,sans-Serif" font-size="10.00">&#45;</text>
<text text-anchor="start" x="17.5" y="-6.5" font-family="Helvetica,sans-Serif" font-size="10.00">IgnoreAllFields()</text>
<polygon fill="#666666" stroke="#666666" points="0.5,-661.5 0.5,-661.5 143.5,-661.5 143.5,-661.5 0.5,-661.5"/>
<polygon fill="#666666" stroke="#666666" points="0.5,-556.5 0.5,-556.5 15.5,-556.5 15.5,-556.5 0.5,-556.5"/>
<polygon fill="#666666" stroke="#666666" points="15.5,-556.5 15.5,-556.5 143.5,-556.5 143.5,-556.5 15.5,-556.5"/>
<polygon fill="none" stroke="#666666" points="0,0 0,-679 143,-679 143,0 0,0"/>
</a>
</g>
</g>
<!-- Node2 -->
<g id="Node000002" class="node">
<title>Node2</title>
<g id="a_Node000002"><a xlink:href="../../d1/dbb/classVAbstractLayoutDialog.html" target="_top" xlink:title=" ">
<polygon fill="white" stroke="transparent" points="141.5,-809 1.5,-809 1.5,-715 141.5,-715 141.5,-809"/>
<text text-anchor="start" x="15.5" y="-797" font-family="Helvetica,sans-Serif" font-size="10.00">VAbstractLayoutDialog</text>
<text text-anchor="start" x="5.5" y="-782" font-family="Helvetica,sans-Serif" font-size="10.00">#</text>
<text text-anchor="start" x="18.5" y="-782" font-family="Helvetica,sans-Serif" font-size="10.00">pageFormatNames</text>
<text text-anchor="start" x="5.5" y="-767" font-family="Helvetica,sans-Serif" font-size="10.00">+</text>
<text text-anchor="start" x="18.5" y="-767" font-family="Helvetica,sans-Serif" font-size="10.00">VAbstractLayoutDialog()</text>
<text text-anchor="start" x="5.5" y="-752" font-family="Helvetica,sans-Serif" font-size="10.00">#</text>
<text text-anchor="start" x="18.5" y="-752" font-family="Helvetica,sans-Serif" font-size="10.00">getTemplateSize()</text>
<text text-anchor="start" x="5.5" y="-737" font-family="Helvetica,sans-Serif" font-size="10.00">#</text>
<text text-anchor="start" x="18.5" y="-737" font-family="Helvetica,sans-Serif" font-size="10.00">RoundTemplateSize()</text>
<text text-anchor="start" x="5.5" y="-722" font-family="Helvetica,sans-Serif" font-size="10.00">#</text>
<text text-anchor="start" x="18.5" y="-722" font-family="Helvetica,sans-Serif" font-size="10.00">initTemplates()</text>
<polygon fill="#666666" stroke="#666666" points="1.5,-792 1.5,-792 141.5,-792 141.5,-792 1.5,-792"/>
<polygon fill="#666666" stroke="#666666" points="1.5,-777 1.5,-777 16.5,-777 16.5,-777 1.5,-777"/>
<polygon fill="#666666" stroke="#666666" points="16.5,-777 16.5,-777 141.5,-777 141.5,-777 16.5,-777"/>
<polygon fill="none" stroke="#666666" points="1.5,-715 1.5,-809 141.5,-809 141.5,-715 1.5,-715"/>
</a>
</g>
</g>
<!-- Node2&#45;&gt;Node1 -->
<g id="edge1_Node000001_Node000002" class="edge">
<title>Node2&#45;&gt;Node1</title>
<g id="a_edge1_Node000001_Node000002"><a xlink:title=" ">
<path fill="none" stroke="#63b8ff" d="M71.5,-704.75C71.5,-696.81 71.5,-688.23 71.5,-679.12"/>
<polygon fill="none" stroke="#63b8ff" points="68,-704.8 71.5,-714.8 75,-704.8 68,-704.8"/>
</a>
</g>
</g>
<!-- Node3 -->
<g id="Node000003" class="node">
<title>Node3</title>
<g id="a_Node000003"><a xlink:title=" ">
<polygon fill="white" stroke="transparent" points="96.5,-894 46.5,-894 46.5,-845 96.5,-845 96.5,-894"/>
<text text-anchor="start" x="51.5" y="-881.5" font-family="Helvetica,sans-Serif" font-size="10.00">QDialog</text>
<text text-anchor="start" x="69.5" y="-866.5" font-family="Helvetica,sans-Serif" font-size="10.00"> </text>
<text text-anchor="start" x="69.5" y="-851.5" font-family="Helvetica,sans-Serif" font-size="10.00"> </text>
<polygon fill="#666666" stroke="#666666" points="46.5,-876.5 46.5,-876.5 96.5,-876.5 96.5,-876.5 46.5,-876.5"/>
<polygon fill="#666666" stroke="#666666" points="46.5,-861.5 46.5,-861.5 96.5,-861.5 96.5,-861.5 46.5,-861.5"/>
<polygon fill="none" stroke="#666666" points="46.5,-845 46.5,-894 96.5,-894 96.5,-845 46.5,-845"/>
</a>
</g>
</g>
<!-- Node3&#45;&gt;Node2 -->
<g id="edge2_Node000002_Node000003" class="edge">
<title>Node3&#45;&gt;Node2</title>
<g id="a_edge2_Node000002_Node000003"><a xlink:title=" ">
<path fill="none" stroke="#63b8ff" d="M71.5,-834.61C71.5,-826.48 71.5,-817.66 71.5,-809.08"/>
<polygon fill="none" stroke="#63b8ff" points="68,-834.82 71.5,-844.82 75,-834.82 68,-834.82"/>
</a>
</g>
</g>
</g>
</svg>
