<?xml version="1.0" encoding="UTF-8" standalone="no"?>
<!DOCTYPE svg PUBLIC "-//W3C//DTD SVG 1.1//EN"
 "http://www.w3.org/Graphics/SVG/1.1/DTD/svg11.dtd">
<!-- Generated by graphviz version 2.43.0 (0)
 -->
<!-- Title: src/libs/vpatterndb/variables.h Pages: 1 -->
<svg width="6970pt" height="307pt"
 viewBox="0.00 0.00 6970.00 307.00" xmlns="http://www.w3.org/2000/svg" xmlns:xlink="http://www.w3.org/1999/xlink">
<g id="graph0" class="graph" transform="scale(1 1) rotate(0) translate(4 303)">
<title>src/libs/vpatterndb/variables.h</title>
<polygon fill="white" stroke="transparent" points="-4,4 -4,-303 6966,-303 6966,4 -4,4"/>
<!-- Node1 -->
<g id="node1" class="node">
<title>Node1</title>
<g id="a_node1"><a xlink:title=" ">
<polygon fill="#bfbfbf" stroke="black" points="5942.5,-268.5 5942.5,-298.5 6049.5,-298.5 6049.5,-268.5 5942.5,-268.5"/>
<text text-anchor="start" x="5950.5" y="-286.5" font-family="Helvetica,sans-Serif" font-size="10.00">src/libs/vpatterndb</text>
<text text-anchor="middle" x="5996" y="-275.5" font-family="Helvetica,sans-Serif" font-size="10.00">/variables.h</text>
</a>
</g>
</g>
<!-- Node2 -->
<g id="node2" class="node">
<title>Node2</title>
<g id="a_node2"><a xlink:href="../../d3/df7/vcontainer_8h.html" target="_top" xlink:title=" ">
<polygon fill="white" stroke="black" points="5942.5,-201.5 5942.5,-231.5 6049.5,-231.5 6049.5,-201.5 5942.5,-201.5"/>
<text text-anchor="start" x="5950.5" y="-219.5" font-family="Helvetica,sans-Serif" font-size="10.00">src/libs/vpatterndb</text>
<text text-anchor="middle" x="5996" y="-208.5" font-family="Helvetica,sans-Serif" font-size="10.00">/vcontainer.h</text>
</a>
</g>
</g>
<!-- Node1&#45;&gt;Node2 -->
<g id="edge1" class="edge">
<title>Node1&#45;&gt;Node2</title>
<path fill="none" stroke="midnightblue" d="M5996,-258.11C5996,-249.15 5996,-239.32 5996,-231.58"/>
<polygon fill="midnightblue" stroke="midnightblue" points="5992.5,-258.4 5996,-268.4 5999.5,-258.4 5992.5,-258.4"/>
</g>
<!-- Node3 -->
<g id="node3" class="node">
<title>Node3</title>
<g id="a_node3"><a xlink:href="../../d4/dd6/vmeasurements_8h.html" target="_top" xlink:title=" ">
<polygon fill="white" stroke="black" points="527.5,-140 527.5,-159 712.5,-159 712.5,-140 527.5,-140"/>
<text text-anchor="middle" x="620" y="-147" font-family="Helvetica,sans-Serif" font-size="10.00">src/libs/vformat/vmeasurements.h</text>
</a>
</g>
</g>
<!-- Node2&#45;&gt;Node3 -->
<g id="edge2" class="edge">
<title>Node2&#45;&gt;Node3</title>
<path fill="none" stroke="midnightblue" d="M5931.88,-215.33C5414.36,-213.86 1912.25,-202.61 856,-165 808.72,-163.32 756.18,-160.21 712.7,-157.3"/>
<polygon fill="midnightblue" stroke="midnightblue" points="5932.13,-218.83 5942.14,-215.36 5932.15,-211.83 5932.13,-218.83"/>
</g>
<!-- Node4 -->
<g id="node4" class="node">
<title>Node4</title>
<g id="a_node4"><a xlink:href="../../de/db3/vmeasurements_8cpp.html" target="_top" xlink:title=" ">
<polygon fill="white" stroke="black" points="0,-73 0,-92 196,-92 196,-73 0,-73"/>
<text text-anchor="middle" x="98" y="-80" font-family="Helvetica,sans-Serif" font-size="10.00">src/libs/vformat/vmeasurements.cpp</text>
</a>
</g>
</g>
<!-- Node2&#45;&gt;Node4 -->
<g id="edge4" class="edge">
<title>Node2&#45;&gt;Node4</title>
<path fill="none" stroke="midnightblue" d="M5932.22,-215.62C5357.72,-216.6 1082.75,-221.92 518,-165 372.04,-150.29 201.31,-109.77 130.91,-92.02"/>
<polygon fill="midnightblue" stroke="midnightblue" points="5932.39,-219.12 5942.39,-215.6 5932.38,-212.12 5932.39,-219.12"/>
</g>
<!-- Node5 -->
<g id="node5" class="node">
<title>Node5</title>
<g id="a_node5"><a xlink:href="../../d6/de0/vlayoutpiece_8h.html" target="_top" xlink:title=" ">
<polygon fill="white" stroke="black" points="865,-140 865,-159 1031,-159 1031,-140 865,-140"/>
<text text-anchor="middle" x="948" y="-147" font-family="Helvetica,sans-Serif" font-size="10.00">src/libs/vlayout/vlayoutpiece.h</text>
</a>
</g>
</g>
<!-- Node2&#45;&gt;Node5 -->
<g id="edge5" class="edge">
<title>Node2&#45;&gt;Node5</title>
<path fill="none" stroke="midnightblue" d="M5932.04,-214.68C5394.82,-207.76 1640.12,-159.41 1031.31,-151.57"/>
<polygon fill="midnightblue" stroke="midnightblue" points="5932.26,-218.18 5942.3,-214.81 5932.35,-211.18 5932.26,-218.18"/>
</g>
<!-- Node15 -->
<g id="node14" class="node">
<title>Node15</title>
<g id="a_node14"><a xlink:href="../../d8/d70/vtextmanager_8cpp.html" target="_top" xlink:title=" ">
<polygon fill="white" stroke="black" points="1536,-73 1536,-92 1718,-92 1718,-73 1536,-73"/>
<text text-anchor="middle" x="1627" y="-80" font-family="Helvetica,sans-Serif" font-size="10.00">src/libs/vlayout/vtextmanager.cpp</text>
</a>
</g>
</g>
<!-- Node2&#45;&gt;Node15 -->
<g id="edge16" class="edge">
<title>Node2&#45;&gt;Node15</title>
<path fill="none" stroke="midnightblue" d="M5932.17,-214.6C5648.72,-210.54 4475.67,-192.84 3513,-165 2719,-142.03 2518.07,-169.98 1727,-98 1711.1,-96.55 1693.87,-94.3 1678.26,-92"/>
<polygon fill="midnightblue" stroke="midnightblue" points="5932.21,-218.11 5942.26,-214.75 5932.31,-211.11 5932.21,-218.11"/>
</g>
<!-- Node16 -->
<g id="node15" class="node">
<title>Node16</title>
<g id="a_node15"><a xlink:href="../../d5/d74/vabstractapplication_8h.html" target="_top" xlink:title=" ">
<polygon fill="white" stroke="red" points="3522.5,-140 3522.5,-159 3717.5,-159 3717.5,-140 3522.5,-140"/>
<text text-anchor="middle" x="3620" y="-147" font-family="Helvetica,sans-Serif" font-size="10.00">src/libs/vmisc/vabstractapplication.h</text>
</a>
</g>
</g>
<!-- Node2&#45;&gt;Node16 -->
<g id="edge17" class="edge">
<title>Node2&#45;&gt;Node16</title>
<path fill="none" stroke="midnightblue" d="M5932.23,-213.76C5605.06,-204.8 4114.8,-164.04 3717.55,-153.17"/>
<polygon fill="midnightblue" stroke="midnightblue" points="5932.39,-217.26 5942.48,-214.04 5932.58,-210.26 5932.39,-217.26"/>
</g>
<!-- Node34 -->
<g id="node29" class="node">
<title>Node34</title>
<g id="a_node29"><a xlink:href="../../db/d11/vformula_8cpp.html" target="_top" xlink:title=" ">
<polygon fill="white" stroke="black" points="5801.5,-67.5 5801.5,-97.5 5908.5,-97.5 5908.5,-67.5 5801.5,-67.5"/>
<text text-anchor="start" x="5809.5" y="-85.5" font-family="Helvetica,sans-Serif" font-size="10.00">src/libs/vpatterndb</text>
<text text-anchor="middle" x="5855" y="-74.5" font-family="Helvetica,sans-Serif" font-size="10.00">/vformula.cpp</text>
</a>
</g>
</g>
<!-- Node2&#45;&gt;Node34 -->
<g id="edge52" class="edge">
<title>Node2&#45;&gt;Node34</title>
<path fill="none" stroke="midnightblue" d="M5973.3,-194.25C5944.24,-167.04 5894.71,-120.68 5869.98,-97.52"/>
<polygon fill="midnightblue" stroke="midnightblue" points="5971.22,-197.09 5980.91,-201.37 5976,-191.98 5971.22,-197.09"/>
</g>
<!-- Node35 -->
<g id="node30" class="node">
<title>Node35</title>
<g id="a_node30"><a xlink:href="../../d6/d46/vcontainer_8cpp.html" target="_top" xlink:title=" ">
<polygon fill="white" stroke="black" points="5926.5,-67.5 5926.5,-97.5 6033.5,-97.5 6033.5,-67.5 5926.5,-67.5"/>
<text text-anchor="start" x="5934.5" y="-85.5" font-family="Helvetica,sans-Serif" font-size="10.00">src/libs/vpatterndb</text>
<text text-anchor="middle" x="5980" y="-74.5" font-family="Helvetica,sans-Serif" font-size="10.00">/vcontainer.cpp</text>
</a>
</g>
</g>
<!-- Node2&#45;&gt;Node35 -->
<g id="edge53" class="edge">
<title>Node2&#45;&gt;Node35</title>
<path fill="none" stroke="midnightblue" d="M5988.01,-191.37C5985.62,-183.1 5983.3,-173.73 5982,-165 5978.53,-141.62 5978.73,-114.06 5979.3,-97.72"/>
<polygon fill="midnightblue" stroke="midnightblue" points="5984.72,-192.58 5990.99,-201.12 5991.41,-190.53 5984.72,-192.58"/>
</g>
<!-- Node36 -->
<g id="node31" class="node">
<title>Node36</title>
<g id="a_node31"><a xlink:href="../../df/d7a/vpiece_8cpp.html" target="_top" xlink:title=" ">
<polygon fill="white" stroke="black" points="6051.5,-67.5 6051.5,-97.5 6158.5,-97.5 6158.5,-67.5 6051.5,-67.5"/>
<text text-anchor="start" x="6059.5" y="-85.5" font-family="Helvetica,sans-Serif" font-size="10.00">src/libs/vpatterndb</text>
<text text-anchor="middle" x="6105" y="-74.5" font-family="Helvetica,sans-Serif" font-size="10.00">/vpiece.cpp</text>
</a>
</g>
</g>
<!-- Node2&#45;&gt;Node36 -->
<g id="edge55" class="edge">
<title>Node2&#45;&gt;Node36</title>
<path fill="none" stroke="midnightblue" d="M5998.37,-191.41C6001.13,-173.95 6007.11,-150.59 6020,-134 6032.53,-117.87 6051.78,-105.82 6068.79,-97.55"/>
<polygon fill="midnightblue" stroke="midnightblue" points="5994.89,-191.03 5997.03,-201.4 6001.83,-191.96 5994.89,-191.03"/>
</g>
<!-- Node39 -->
<g id="node34" class="node">
<title>Node39</title>
<g id="a_node34"><a xlink:href="../../d8/dba/vpiecenode_8cpp.html" target="_top" xlink:title=" ">
<polygon fill="white" stroke="black" points="4913.5,-0.5 4913.5,-30.5 5020.5,-30.5 5020.5,-0.5 4913.5,-0.5"/>
<text text-anchor="start" x="4921.5" y="-18.5" font-family="Helvetica,sans-Serif" font-size="10.00">src/libs/vpatterndb</text>
<text text-anchor="middle" x="4967" y="-7.5" font-family="Helvetica,sans-Serif" font-size="10.00">/vpiecenode.cpp</text>
</a>
</g>
</g>
<!-- Node2&#45;&gt;Node39 -->
<g id="edge56" class="edge">
<title>Node2&#45;&gt;Node39</title>
<path fill="none" stroke="midnightblue" d="M6006.98,-192.11C6016.68,-173.83 6032.47,-149.07 6053,-134 6095.83,-102.56 6135.59,-140.86 6167,-98 6175.14,-86.89 6176.54,-76.95 6167,-67 6126.84,-25.12 5249.02,-17.89 5020.82,-16.72"/>
<polygon fill="midnightblue" stroke="midnightblue" points="6003.74,-190.74 6002.34,-201.24 6009.99,-193.91 6003.74,-190.74"/>
</g>
<!-- Node54 -->
<g id="node45" class="node">
<title>Node54</title>
<g id="a_node45"><a xlink:href="../../d1/de1/vincrement__p_8h.html" target="_top" xlink:title=" ">
<polygon fill="white" stroke="red" points="6062.5,-134.5 6062.5,-164.5 6205.5,-164.5 6205.5,-134.5 6062.5,-134.5"/>
<text text-anchor="start" x="6070.5" y="-152.5" font-family="Helvetica,sans-Serif" font-size="10.00">src/libs/vpatterndb</text>
<text text-anchor="middle" x="6134" y="-141.5" font-family="Helvetica,sans-Serif" font-size="10.00">/variables/vincrement_p.h</text>
</a>
</g>
</g>
<!-- Node2&#45;&gt;Node54 -->
<g id="edge50" class="edge">
<title>Node2&#45;&gt;Node54</title>
<path fill="none" stroke="midnightblue" d="M6035,-197.13C6056.93,-186.8 6083.87,-174.11 6104.11,-164.58"/>
<polygon fill="midnightblue" stroke="midnightblue" points="6033.5,-193.97 6025.94,-201.4 6036.48,-200.3 6033.5,-193.97"/>
</g>
<!-- Node56 -->
<g id="node46" class="node">
<title>Node56</title>
<g id="a_node46"><a xlink:href="../../d6/dc1/vmeasurement__p_8h.html" target="_top" xlink:title=" ">
<polygon fill="white" stroke="red" points="6224,-134.5 6224,-164.5 6386,-164.5 6386,-134.5 6224,-134.5"/>
<text text-anchor="start" x="6232" y="-152.5" font-family="Helvetica,sans-Serif" font-size="10.00">src/libs/vpatterndb</text>
<text text-anchor="middle" x="6305" y="-141.5" font-family="Helvetica,sans-Serif" font-size="10.00">/variables/vmeasurement_p.h</text>
</a>
</g>
</g>
<!-- Node2&#45;&gt;Node56 -->
<g id="edge51" class="edge">
<title>Node2&#45;&gt;Node56</title>
<path fill="none" stroke="midnightblue" d="M6059.63,-202.12C6111.79,-191.14 6185.38,-175.66 6238.34,-164.52"/>
<polygon fill="midnightblue" stroke="midnightblue" points="6058.89,-198.69 6049.82,-204.18 6060.33,-205.54 6058.89,-198.69"/>
</g>
<!-- Node58 -->
<g id="node47" class="node">
<title>Node58</title>
<g id="a_node47"><a xlink:href="../../d6/d91/vnodedetail_8cpp.html" target="_top" xlink:title=" ">
<polygon fill="white" stroke="black" points="6404.5,-134.5 6404.5,-164.5 6511.5,-164.5 6511.5,-134.5 6404.5,-134.5"/>
<text text-anchor="start" x="6412.5" y="-152.5" font-family="Helvetica,sans-Serif" font-size="10.00">src/libs/vpatterndb</text>
<text text-anchor="middle" x="6458" y="-141.5" font-family="Helvetica,sans-Serif" font-size="10.00">/vnodedetail.cpp</text>
</a>
</g>
</g>
<!-- Node2&#45;&gt;Node58 -->
<g id="edge54" class="edge">
<title>Node2&#45;&gt;Node58</title>
<path fill="none" stroke="midnightblue" d="M6059.78,-209.42C6138.8,-201.43 6277.4,-185.92 6395,-165 6398.09,-164.45 6401.26,-163.85 6404.46,-163.21"/>
<polygon fill="midnightblue" stroke="midnightblue" points="6059.1,-205.97 6049.5,-210.45 6059.8,-212.94 6059.1,-205.97"/>
</g>
<!-- Node59 -->
<g id="node48" class="node">
<title>Node59</title>
<g id="a_node48"><a xlink:href="../../da/de1/vpiecepath_8cpp.html" target="_top" xlink:title=" ">
<polygon fill="white" stroke="black" points="6529.5,-134.5 6529.5,-164.5 6636.5,-164.5 6636.5,-134.5 6529.5,-134.5"/>
<text text-anchor="start" x="6537.5" y="-152.5" font-family="Helvetica,sans-Serif" font-size="10.00">src/libs/vpatterndb</text>
<text text-anchor="middle" x="6583" y="-141.5" font-family="Helvetica,sans-Serif" font-size="10.00">/vpiecepath.cpp</text>
</a>
</g>
</g>
<!-- Node2&#45;&gt;Node59 -->
<g id="edge57" class="edge">
<title>Node2&#45;&gt;Node59</title>
<path fill="none" stroke="midnightblue" d="M6059.74,-212.13C6158.89,-206.26 6355.85,-192.13 6521,-165 6523.73,-164.55 6526.51,-164.05 6529.32,-163.52"/>
<polygon fill="midnightblue" stroke="midnightblue" points="6059.37,-208.64 6049.59,-212.72 6059.78,-215.63 6059.37,-208.64"/>
</g>
<!-- Node60 -->
<g id="node49" class="node">
<title>Node60</title>
<g id="a_node49"><a xlink:href="../../d1/d3a/abstracttest_8cpp.html" target="_top" xlink:title=" ">
<polygon fill="white" stroke="black" points="6654.5,-140 6654.5,-159 6815.5,-159 6815.5,-140 6654.5,-140"/>
<text text-anchor="middle" x="6735" y="-147" font-family="Helvetica,sans-Serif" font-size="10.00">src/libs/vtest/abstracttest.cpp</text>
</a>
</g>
</g>
<!-- Node2&#45;&gt;Node60 -->
<g id="edge58" class="edge">
<title>Node2&#45;&gt;Node60</title>
<path fill="none" stroke="midnightblue" d="M6059.84,-212.32C6176.51,-206.12 6431.92,-190.71 6646,-165 6659.37,-163.39 6673.8,-161.23 6687.07,-159.07"/>
<polygon fill="midnightblue" stroke="midnightblue" points="6059.46,-208.84 6049.65,-212.86 6059.83,-215.83 6059.46,-208.84"/>
</g>
<!-- Node61 -->
<g id="node50" class="node">
<title>Node61</title>
<g id="a_node50"><a xlink:href="../../da/db4/piece__tablewidgetitem_8cpp.html" target="_top" xlink:title=" ">
<polygon fill="white" stroke="black" points="6834,-134.5 6834,-164.5 6962,-164.5 6962,-134.5 6834,-134.5"/>
<text text-anchor="start" x="6842" y="-152.5" font-family="Helvetica,sans-Serif" font-size="10.00">src/libs/vwidgets/piece</text>
<text text-anchor="middle" x="6898" y="-141.5" font-family="Helvetica,sans-Serif" font-size="10.00">_tablewidgetitem.cpp</text>
</a>
</g>
</g>
<!-- Node2&#45;&gt;Node61 -->
<g id="edge59" class="edge">
<title>Node2&#45;&gt;Node61</title>
<path fill="none" stroke="midnightblue" d="M6059.65,-214.55C6198.96,-211.84 6541.09,-201.67 6825,-165 6827.95,-164.62 6830.95,-164.19 6833.99,-163.72"/>
<polygon fill="midnightblue" stroke="midnightblue" points="6059.51,-211.05 6049.58,-214.74 6059.64,-218.05 6059.51,-211.05"/>
</g>
<!-- Node3&#45;&gt;Node4 -->
<g id="edge3" class="edge">
<title>Node3&#45;&gt;Node4</title>
<path fill="none" stroke="midnightblue" d="M537.65,-138.81C453.89,-128.88 320.35,-112.83 205,-98 190.31,-96.11 174.5,-94.01 159.65,-92"/>
<polygon fill="midnightblue" stroke="midnightblue" points="537.28,-142.29 547.62,-139.99 538.1,-135.34 537.28,-142.29"/>
</g>
<!-- Node6 -->
<g id="node6" class="node">
<title>Node6</title>
<g id="a_node6"><a xlink:href="../../dd/d66/vdxfengine_8cpp.html" target="_top" xlink:title=" ">
<polygon fill="white" stroke="black" points="214,-73 214,-92 368,-92 368,-73 214,-73"/>
<text text-anchor="middle" x="291" y="-80" font-family="Helvetica,sans-Serif" font-size="10.00">src/libs/vdxf/vdxfengine.cpp</text>
</a>
</g>
</g>
<!-- Node5&#45;&gt;Node6 -->
<g id="edge6" class="edge">
<title>Node5&#45;&gt;Node6</title>
<path fill="none" stroke="midnightblue" d="M854.54,-142.5C741.25,-134.71 544.68,-119.52 377,-98 364.23,-96.36 350.47,-94.21 337.77,-92.07"/>
<polygon fill="midnightblue" stroke="midnightblue" points="854.35,-146 864.56,-143.19 854.82,-139.02 854.35,-146"/>
</g>
<!-- Node7 -->
<g id="node7" class="node">
<title>Node7</title>
<g id="a_node7"><a xlink:href="../../de/da8/vbank_8cpp.html" target="_top" xlink:title=" ">
<polygon fill="white" stroke="black" points="386,-73 386,-92 530,-92 530,-73 386,-73"/>
<text text-anchor="middle" x="458" y="-80" font-family="Helvetica,sans-Serif" font-size="10.00">src/libs/vlayout/vbank.cpp</text>
</a>
</g>
</g>
<!-- Node5&#45;&gt;Node7 -->
<g id="edge7" class="edge">
<title>Node5&#45;&gt;Node7</title>
<path fill="none" stroke="midnightblue" d="M858.5,-138.87C775.51,-129.6 648.68,-114.58 539,-98 527.42,-96.25 514.94,-94.13 503.34,-92.06"/>
<polygon fill="midnightblue" stroke="midnightblue" points="858.33,-142.37 868.65,-139.99 859.1,-135.41 858.33,-142.37"/>
</g>
<!-- Node8 -->
<g id="node8" class="node">
<title>Node8</title>
<g id="a_node8"><a xlink:href="../../df/d5d/vcontour_8cpp.html" target="_top" xlink:title=" ">
<polygon fill="white" stroke="black" points="548,-73 548,-92 704,-92 704,-73 548,-73"/>
<text text-anchor="middle" x="626" y="-80" font-family="Helvetica,sans-Serif" font-size="10.00">src/libs/vlayout/vcontour.cpp</text>
</a>
</g>
</g>
<!-- Node5&#45;&gt;Node8 -->
<g id="edge8" class="edge">
<title>Node5&#45;&gt;Node8</title>
<path fill="none" stroke="midnightblue" d="M895.39,-137.88C831.97,-125.08 726.66,-103.82 668.26,-92.03"/>
<polygon fill="midnightblue" stroke="midnightblue" points="895.08,-141.39 905.57,-139.94 896.46,-134.53 895.08,-141.39"/>
</g>
<!-- Node9 -->
<g id="node9" class="node">
<title>Node9</title>
<g id="a_node9"><a xlink:href="../../d3/d39/vlayoutgenerator_8cpp.html" target="_top" xlink:title=" ">
<polygon fill="white" stroke="black" points="722.5,-73 722.5,-92 919.5,-92 919.5,-73 722.5,-73"/>
<text text-anchor="middle" x="821" y="-80" font-family="Helvetica,sans-Serif" font-size="10.00">src/libs/vlayout/vlayoutgenerator.cpp</text>
</a>
</g>
</g>
<!-- Node5&#45;&gt;Node9 -->
<g id="edge9" class="edge">
<title>Node5&#45;&gt;Node9</title>
<path fill="none" stroke="midnightblue" d="M922.16,-135.27C897,-122.4 859.51,-103.21 837.93,-92.17"/>
<polygon fill="midnightblue" stroke="midnightblue" points="920.64,-138.43 931.14,-139.87 923.83,-132.2 920.64,-138.43"/>
</g>
<!-- Node10 -->
<g id="node10" class="node">
<title>Node10</title>
<g id="a_node10"><a xlink:href="../../d2/d2d/vlayoutpaper__p_8h.html" target="_top" xlink:title=" ">
<polygon fill="white" stroke="black" points="976.5,-73 976.5,-92 1155.5,-92 1155.5,-73 976.5,-73"/>
<text text-anchor="middle" x="1066" y="-80" font-family="Helvetica,sans-Serif" font-size="10.00">src/libs/vlayout/vlayoutpaper_p.h</text>
</a>
</g>
</g>
<!-- Node5&#45;&gt;Node10 -->
<g id="edge10" class="edge">
<title>Node5&#45;&gt;Node10</title>
<path fill="none" stroke="midnightblue" d="M972.89,-134.79C996.28,-121.9 1030.56,-103.02 1050.34,-92.13"/>
<polygon fill="midnightblue" stroke="midnightblue" points="970.98,-131.84 963.91,-139.73 974.36,-137.97 970.98,-131.84"/>
</g>
<!-- Node11 -->
<g id="node11" class="node">
<title>Node11</title>
<g id="a_node11"><a xlink:href="../../d1/dd1/vlayoutpaper_8cpp.html" target="_top" xlink:title=" ">
<polygon fill="white" stroke="black" points="977,-6 977,-25 1155,-25 1155,-6 977,-6"/>
<text text-anchor="middle" x="1066" y="-13" font-family="Helvetica,sans-Serif" font-size="10.00">src/libs/vlayout/vlayoutpaper.cpp</text>
</a>
</g>
</g>
<!-- Node5&#45;&gt;Node11 -->
<g id="edge13" class="edge">
<title>Node5&#45;&gt;Node11</title>
<path fill="none" stroke="midnightblue" d="M948,-129.85C948.92,-111.97 952.83,-85.11 967,-67 983.65,-45.73 1011.7,-32.62 1033.7,-25.11"/>
<polygon fill="midnightblue" stroke="midnightblue" points="944.5,-129.8 947.75,-139.88 951.49,-129.98 944.5,-129.8"/>
</g>
<!-- Node12 -->
<g id="node12" class="node">
<title>Node12</title>
<g id="a_node12"><a xlink:href="../../dd/d70/vlayoutpiece_8cpp.html" target="_top" xlink:title=" ">
<polygon fill="white" stroke="black" points="1340.5,-73 1340.5,-92 1517.5,-92 1517.5,-73 1340.5,-73"/>
<text text-anchor="middle" x="1429" y="-80" font-family="Helvetica,sans-Serif" font-size="10.00">src/libs/vlayout/vlayoutpiece.cpp</text>
</a>
</g>
</g>
<!-- Node5&#45;&gt;Node12 -->
<g id="edge12" class="edge">
<title>Node5&#45;&gt;Node12</title>
<path fill="none" stroke="midnightblue" d="M1025.3,-138.67C1102.69,-128.75 1225.16,-112.81 1331,-98 1344.46,-96.12 1358.94,-94.02 1372.54,-92.01"/>
<polygon fill="midnightblue" stroke="midnightblue" points="1024.63,-135.23 1015.15,-139.97 1025.52,-142.17 1024.63,-135.23"/>
</g>
<!-- Node13 -->
<g id="node13" class="node">
<title>Node13</title>
<g id="a_node13"><a xlink:href="../../db/d5c/vposition_8h.html" target="_top" xlink:title=" ">
<polygon fill="white" stroke="red" points="1174,-73 1174,-92 1322,-92 1322,-73 1174,-73"/>
<text text-anchor="middle" x="1248" y="-80" font-family="Helvetica,sans-Serif" font-size="10.00">src/libs/vlayout/vposition.h</text>
</a>
</g>
</g>
<!-- Node5&#45;&gt;Node13 -->
<g id="edge14" class="edge">
<title>Node5&#45;&gt;Node13</title>
<path fill="none" stroke="midnightblue" d="M997.37,-137.8C1056.41,-125.01 1154.04,-103.86 1208.38,-92.08"/>
<polygon fill="midnightblue" stroke="midnightblue" points="996.56,-134.4 987.53,-139.94 998.04,-141.24 996.56,-134.4"/>
</g>
<!-- Node10&#45;&gt;Node11 -->
<g id="edge11" class="edge">
<title>Node10&#45;&gt;Node11</title>
<path fill="none" stroke="midnightblue" d="M1066,-62.54C1066,-50.17 1066,-34.62 1066,-25.13"/>
<polygon fill="midnightblue" stroke="midnightblue" points="1062.5,-62.73 1066,-72.73 1069.5,-62.73 1062.5,-62.73"/>
</g>
<!-- Node13&#45;&gt;Node11 -->
<g id="edge15" class="edge">
<title>Node13&#45;&gt;Node11</title>
<path fill="none" stroke="midnightblue" d="M1214.22,-69.44C1178.12,-56.54 1121.79,-36.42 1089.98,-25.06"/>
<polygon fill="midnightblue" stroke="midnightblue" points="1213.24,-72.8 1223.83,-72.87 1215.59,-66.21 1213.24,-72.8"/>
</g>
<!-- Node16&#45;&gt;Node12 -->
<g id="edge28" class="edge">
<title>Node16&#45;&gt;Node12</title>
<path fill="none" stroke="midnightblue" d="M3512.16,-147.65C3141.11,-144.45 1918.41,-131.55 1527,-98 1511.15,-96.64 1493.96,-94.37 1478.47,-92.03"/>
<polygon fill="midnightblue" stroke="midnightblue" points="3512.33,-151.15 3522.36,-147.74 3512.39,-144.15 3512.33,-151.15"/>
</g>
<!-- Node16&#45;&gt;Node15 -->
<g id="edge29" class="edge">
<title>Node16&#45;&gt;Node15</title>
<path fill="none" stroke="midnightblue" d="M3512.23,-147.29C3164.97,-143.13 2077.52,-127.98 1727,-98 1710.92,-96.62 1693.48,-94.36 1677.74,-92.03"/>
<polygon fill="midnightblue" stroke="midnightblue" points="3512.25,-150.79 3522.29,-147.41 3512.33,-143.79 3512.25,-150.79"/>
</g>
<!-- Node17 -->
<g id="node16" class="node">
<title>Node17</title>
<g id="a_node16"><a xlink:href="../../d4/d90/fvupdater_8cpp.html" target="_top" xlink:title=" ">
<polygon fill="white" stroke="black" points="1736.5,-73 1736.5,-92 1889.5,-92 1889.5,-73 1736.5,-73"/>
<text text-anchor="middle" x="1813" y="-80" font-family="Helvetica,sans-Serif" font-size="10.00">src/libs/fervor/fvupdater.cpp</text>
</a>
</g>
</g>
<!-- Node16&#45;&gt;Node17 -->
<g id="edge18" class="edge">
<title>Node16&#45;&gt;Node17</title>
<path fill="none" stroke="midnightblue" d="M3512.03,-147.31C3185.77,-143.4 2213.21,-129.35 1898,-98 1884.3,-96.64 1869.46,-94.38 1856.08,-92.05"/>
<polygon fill="midnightblue" stroke="midnightblue" points="3512.38,-150.81 3522.43,-147.43 3512.47,-143.81 3512.38,-150.81"/>
</g>
<!-- Node18 -->
<g id="node17" class="node">
<title>Node18</title>
<g id="a_node17"><a xlink:href="../../d9/dc8/dxiface_8cpp.html" target="_top" xlink:title=" ">
<polygon fill="white" stroke="black" points="1907.5,-73 1907.5,-92 2042.5,-92 2042.5,-73 1907.5,-73"/>
<text text-anchor="middle" x="1975" y="-80" font-family="Helvetica,sans-Serif" font-size="10.00">src/libs/vdxf/dxiface.cpp</text>
</a>
</g>
</g>
<!-- Node16&#45;&gt;Node18 -->
<g id="edge19" class="edge">
<title>Node16&#45;&gt;Node18</title>
<path fill="none" stroke="midnightblue" d="M3512.11,-147.23C3205.85,-143.26 2334.91,-129.46 2051,-98 2038.72,-96.64 2025.45,-94.38 2013.49,-92.05"/>
<polygon fill="midnightblue" stroke="midnightblue" points="3512.29,-150.73 3522.33,-147.36 3512.38,-143.73 3512.29,-150.73"/>
</g>
<!-- Node19 -->
<g id="node18" class="node">
<title>Node19</title>
<g id="a_node18"><a xlink:href="../../da/d75/vabstractarc__p_8h.html" target="_top" xlink:title=" ">
<polygon fill="white" stroke="red" points="2060.5,-67.5 2060.5,-97.5 2167.5,-97.5 2167.5,-67.5 2060.5,-67.5"/>
<text text-anchor="start" x="2068.5" y="-85.5" font-family="Helvetica,sans-Serif" font-size="10.00">src/libs/vgeometry</text>
<text text-anchor="middle" x="2114" y="-74.5" font-family="Helvetica,sans-Serif" font-size="10.00">/vabstractarc_p.h</text>
</a>
</g>
</g>
<!-- Node16&#45;&gt;Node19 -->
<g id="edge20" class="edge">
<title>Node16&#45;&gt;Node19</title>
<path fill="none" stroke="midnightblue" d="M3512.09,-147.45C3222.73,-144.2 2434.03,-132.35 2176,-98 2173.26,-97.64 2170.46,-97.2 2167.65,-96.72"/>
<polygon fill="midnightblue" stroke="midnightblue" points="3512.14,-150.95 3522.17,-147.56 3512.21,-143.95 3512.14,-150.95"/>
</g>
<!-- Node21 -->
<g id="node19" class="node">
<title>Node21</title>
<g id="a_node19"><a xlink:href="../../dc/da3/varc__p_8h.html" target="_top" xlink:title=" ">
<polygon fill="white" stroke="red" points="2185.5,-67.5 2185.5,-97.5 2292.5,-97.5 2292.5,-67.5 2185.5,-67.5"/>
<text text-anchor="start" x="2193.5" y="-85.5" font-family="Helvetica,sans-Serif" font-size="10.00">src/libs/vgeometry</text>
<text text-anchor="middle" x="2239" y="-74.5" font-family="Helvetica,sans-Serif" font-size="10.00">/varc_p.h</text>
</a>
</g>
</g>
<!-- Node16&#45;&gt;Node21 -->
<g id="edge21" class="edge">
<title>Node16&#45;&gt;Node21</title>
<path fill="none" stroke="midnightblue" d="M3511.98,-147.03C3240.33,-142.9 2533.91,-129.4 2301,-98 2298.26,-97.63 2295.47,-97.2 2292.65,-96.71"/>
<polygon fill="midnightblue" stroke="midnightblue" points="3512.19,-150.53 3522.24,-147.18 3512.29,-143.53 3512.19,-150.53"/>
</g>
<!-- Node23 -->
<g id="node20" class="node">
<title>Node23</title>
<g id="a_node20"><a xlink:href="../../d5/d8e/vcubicbezier__p_8h.html" target="_top" xlink:title=" ">
<polygon fill="white" stroke="red" points="2310.5,-67.5 2310.5,-97.5 2417.5,-97.5 2417.5,-67.5 2310.5,-67.5"/>
<text text-anchor="start" x="2318.5" y="-85.5" font-family="Helvetica,sans-Serif" font-size="10.00">src/libs/vgeometry</text>
<text text-anchor="middle" x="2364" y="-74.5" font-family="Helvetica,sans-Serif" font-size="10.00">/vcubicbezier_p.h</text>
</a>
</g>
</g>
<!-- Node16&#45;&gt;Node23 -->
<g id="edge22" class="edge">
<title>Node16&#45;&gt;Node23</title>
<path fill="none" stroke="midnightblue" d="M3512.07,-146.23C3260.14,-140.55 2639.04,-124.29 2432,-98 2427.33,-97.41 2422.5,-96.66 2417.68,-95.81"/>
<polygon fill="midnightblue" stroke="midnightblue" points="3512.25,-149.73 3522.33,-146.46 3512.41,-142.74 3512.25,-149.73"/>
</g>
<!-- Node25 -->
<g id="node21" class="node">
<title>Node25</title>
<g id="a_node21"><a xlink:href="../../df/dde/vellipticalarc__p_8h.html" target="_top" xlink:title=" ">
<polygon fill="white" stroke="black" points="2474.5,-67.5 2474.5,-97.5 2581.5,-97.5 2581.5,-67.5 2474.5,-67.5"/>
<text text-anchor="start" x="2482.5" y="-85.5" font-family="Helvetica,sans-Serif" font-size="10.00">src/libs/vgeometry</text>
<text text-anchor="middle" x="2528" y="-74.5" font-family="Helvetica,sans-Serif" font-size="10.00">/vellipticalarc_p.h</text>
</a>
</g>
</g>
<!-- Node16&#45;&gt;Node25 -->
<g id="edge23" class="edge">
<title>Node16&#45;&gt;Node25</title>
<path fill="none" stroke="midnightblue" d="M3512.23,-145.69C3285.46,-139.36 2765.49,-122.62 2590,-98 2587.26,-97.62 2584.47,-97.17 2581.66,-96.67"/>
<polygon fill="midnightblue" stroke="midnightblue" points="3512.38,-149.19 3522.47,-145.97 3512.58,-142.19 3512.38,-149.19"/>
</g>
<!-- Node26 -->
<g id="node22" class="node">
<title>Node26</title>
<g id="a_node22"><a xlink:href="../../d6/dfb/vellipticalarc_8cpp.html" target="_top" xlink:title=" ">
<polygon fill="white" stroke="black" points="2433.5,-0.5 2433.5,-30.5 2540.5,-30.5 2540.5,-0.5 2433.5,-0.5"/>
<text text-anchor="start" x="2441.5" y="-18.5" font-family="Helvetica,sans-Serif" font-size="10.00">src/libs/vgeometry</text>
<text text-anchor="middle" x="2487" y="-7.5" font-family="Helvetica,sans-Serif" font-size="10.00">/vellipticalarc.cpp</text>
</a>
</g>
</g>
<!-- Node16&#45;&gt;Node26 -->
<g id="edge25" class="edge">
<title>Node16&#45;&gt;Node26</title>
<path fill="none" stroke="midnightblue" d="M3511.97,-147.77C3231.76,-145.35 2500.86,-135.46 2465,-98 2447.37,-79.58 2463.87,-48.55 2476.25,-30.56"/>
<polygon fill="midnightblue" stroke="midnightblue" points="3512.12,-151.27 3522.15,-147.86 3512.18,-144.27 3512.12,-151.27"/>
</g>
<!-- Node27 -->
<g id="node23" class="node">
<title>Node27</title>
<g id="a_node23"><a xlink:href="../../d1/d76/vspline__p_8h.html" target="_top" xlink:title=" ">
<polygon fill="white" stroke="red" points="2599.5,-67.5 2599.5,-97.5 2706.5,-97.5 2706.5,-67.5 2599.5,-67.5"/>
<text text-anchor="start" x="2607.5" y="-85.5" font-family="Helvetica,sans-Serif" font-size="10.00">src/libs/vgeometry</text>
<text text-anchor="middle" x="2653" y="-74.5" font-family="Helvetica,sans-Serif" font-size="10.00">/vspline_p.h</text>
</a>
</g>
</g>
<!-- Node16&#45;&gt;Node27 -->
<g id="edge26" class="edge">
<title>Node16&#45;&gt;Node27</title>
<path fill="none" stroke="midnightblue" d="M3512.27,-148.4C3342.23,-146.91 3001.58,-138.54 2716,-98 2713,-97.57 2709.93,-97.08 2706.84,-96.53"/>
<polygon fill="midnightblue" stroke="midnightblue" points="3512.45,-151.9 3522.48,-148.48 3512.51,-144.9 3512.45,-151.9"/>
</g>
<!-- Node29 -->
<g id="node24" class="node">
<title>Node29</title>
<g id="a_node24"><a xlink:href="../../d9/d15/vabstractpiece_8cpp.html" target="_top" xlink:title=" ">
<polygon fill="white" stroke="black" points="2725,-73 2725,-92 2911,-92 2911,-73 2725,-73"/>
<text text-anchor="middle" x="2818" y="-80" font-family="Helvetica,sans-Serif" font-size="10.00">src/libs/vlayout/vabstractpiece.cpp</text>
</a>
</g>
</g>
<!-- Node16&#45;&gt;Node29 -->
<g id="edge27" class="edge">
<title>Node16&#45;&gt;Node29</title>
<path fill="none" stroke="midnightblue" d="M3512.29,-143.05C3374.67,-135.55 3129.2,-120.39 2920,-98 2904.71,-96.36 2888.18,-94.19 2872.97,-92.02"/>
<polygon fill="midnightblue" stroke="midnightblue" points="3512.25,-146.55 3522.42,-143.6 3512.63,-139.56 3512.25,-146.55"/>
</g>
<!-- Node30 -->
<g id="node25" class="node">
<title>Node30</title>
<g id="a_node25"><a xlink:href="../../db/d65/dialogexporttocsv_8cpp.html" target="_top" xlink:title=" ">
<polygon fill="white" stroke="black" points="2929.5,-67.5 2929.5,-97.5 3056.5,-97.5 3056.5,-67.5 2929.5,-67.5"/>
<text text-anchor="start" x="2937.5" y="-85.5" font-family="Helvetica,sans-Serif" font-size="10.00">src/libs/vmisc/dialogs</text>
<text text-anchor="middle" x="2993" y="-74.5" font-family="Helvetica,sans-Serif" font-size="10.00">/dialogexporttocsv.cpp</text>
</a>
</g>
</g>
<!-- Node16&#45;&gt;Node30 -->
<g id="edge30" class="edge">
<title>Node16&#45;&gt;Node30</title>
<path fill="none" stroke="midnightblue" d="M3512.03,-142.03C3400.09,-134.54 3220.22,-120.28 3066,-98 3062.93,-97.56 3059.8,-97.07 3056.63,-96.55"/>
<polygon fill="midnightblue" stroke="midnightblue" points="3512.1,-145.54 3522.31,-142.71 3512.57,-138.56 3512.1,-145.54"/>
</g>
<!-- Node31 -->
<g id="node26" class="node">
<title>Node31</title>
<g id="a_node26"><a xlink:href="../../d6/d0b/def_8cpp.html" target="_top" xlink:title=" ">
<polygon fill="white" stroke="black" points="3075,-73 3075,-92 3197,-92 3197,-73 3075,-73"/>
<text text-anchor="middle" x="3136" y="-80" font-family="Helvetica,sans-Serif" font-size="10.00">src/libs/vmisc/def.cpp</text>
</a>
</g>
</g>
<!-- Node16&#45;&gt;Node31 -->
<g id="edge31" class="edge">
<title>Node16&#45;&gt;Node31</title>
<path fill="none" stroke="midnightblue" d="M3522.82,-138.95C3438.72,-130.13 3313.97,-115.74 3206,-98 3195.71,-96.31 3184.64,-94.17 3174.4,-92.05"/>
<polygon fill="midnightblue" stroke="midnightblue" points="3522.56,-142.44 3532.87,-139.99 3523.29,-135.48 3522.56,-142.44"/>
</g>
<!-- Node32 -->
<g id="node27" class="node">
<title>Node32</title>
<g id="a_node27"><a xlink:href="../../d0/df6/vabstractapplication_8cpp.html" target="_top" xlink:title=" ">
<polygon fill="white" stroke="black" points="3215,-73 3215,-92 3421,-92 3421,-73 3215,-73"/>
<text text-anchor="middle" x="3318" y="-80" font-family="Helvetica,sans-Serif" font-size="10.00">src/libs/vmisc/vabstractapplication.cpp</text>
</a>
</g>
</g>
<!-- Node16&#45;&gt;Node32 -->
<g id="edge32" class="edge">
<title>Node16&#45;&gt;Node32</title>
<path fill="none" stroke="midnightblue" d="M3570.3,-137.8C3510.87,-125.01 3412.59,-103.86 3357.88,-92.08"/>
<polygon fill="midnightblue" stroke="midnightblue" points="3569.7,-141.25 3580.21,-139.94 3571.17,-134.41 3569.7,-141.25"/>
</g>
<!-- Node33 -->
<g id="node28" class="node">
<title>Node33</title>
<g id="a_node28"><a xlink:href="../../d4/d4f/pmsystems_8cpp.html" target="_top" xlink:title=" ">
<polygon fill="white" stroke="black" points="3439.5,-67.5 3439.5,-97.5 3546.5,-97.5 3546.5,-67.5 3439.5,-67.5"/>
<text text-anchor="start" x="3447.5" y="-85.5" font-family="Helvetica,sans-Serif" font-size="10.00">src/libs/vpatterndb</text>
<text text-anchor="middle" x="3493" y="-74.5" font-family="Helvetica,sans-Serif" font-size="10.00">/pmsystems.cpp</text>
</a>
</g>
</g>
<!-- Node16&#45;&gt;Node33 -->
<g id="edge33" class="edge">
<title>Node16&#45;&gt;Node33</title>
<path fill="none" stroke="midnightblue" d="M3594,-135.19C3572.64,-124.26 3542.45,-108.81 3520.65,-97.65"/>
<polygon fill="midnightblue" stroke="midnightblue" points="3592.64,-138.43 3603.14,-139.87 3595.83,-132.2 3592.64,-138.43"/>
</g>
<!-- Node16&#45;&gt;Node34 -->
<g id="edge34" class="edge">
<title>Node16&#45;&gt;Node34</title>
<path fill="none" stroke="midnightblue" d="M3727.81,-148.89C4108.12,-149.8 5386.01,-148.9 5792,-98 5795.01,-97.62 5798.08,-97.16 5801.17,-96.65"/>
<polygon fill="midnightblue" stroke="midnightblue" points="3727.64,-145.39 3717.63,-148.86 3727.62,-152.39 3727.64,-145.39"/>
</g>
<!-- Node16&#45;&gt;Node35 -->
<g id="edge35" class="edge">
<title>Node16&#45;&gt;Node35</title>
<path fill="none" stroke="midnightblue" d="M3727.91,-147.42C4152.94,-143.01 5698.85,-125.21 5917,-98 5920.01,-97.62 5923.08,-97.17 5926.17,-96.65"/>
<polygon fill="midnightblue" stroke="midnightblue" points="3727.74,-143.93 3717.78,-147.53 3727.81,-150.92 3727.74,-143.93"/>
</g>
<!-- Node16&#45;&gt;Node36 -->
<g id="edge36" class="edge">
<title>Node16&#45;&gt;Node36</title>
<path fill="none" stroke="midnightblue" d="M3727.85,-147.56C4167.36,-143.53 5810.94,-126.69 6042,-98 6045.01,-97.63 6048.08,-97.17 6051.17,-96.65"/>
<polygon fill="midnightblue" stroke="midnightblue" points="3727.66,-144.06 3717.69,-147.65 3727.72,-151.06 3727.66,-144.06"/>
</g>
<!-- Node37 -->
<g id="node32" class="node">
<title>Node37</title>
<g id="a_node32"><a xlink:href="../../de/d3e/vtranslatevars_8cpp.html" target="_top" xlink:title=" ">
<polygon fill="white" stroke="black" points="3565,-67.5 3565,-97.5 3675,-97.5 3675,-67.5 3565,-67.5"/>
<text text-anchor="start" x="3573" y="-85.5" font-family="Helvetica,sans-Serif" font-size="10.00">src/libs/vpatterndb</text>
<text text-anchor="middle" x="3620" y="-74.5" font-family="Helvetica,sans-Serif" font-size="10.00">/vtranslatevars.cpp</text>
</a>
</g>
</g>
<!-- Node16&#45;&gt;Node37 -->
<g id="edge37" class="edge">
<title>Node16&#45;&gt;Node37</title>
<path fill="none" stroke="midnightblue" d="M3620,-129.41C3620,-119.22 3620,-106.9 3620,-97.59"/>
<polygon fill="midnightblue" stroke="midnightblue" points="3616.5,-129.73 3620,-139.73 3623.5,-129.73 3616.5,-129.73"/>
</g>
<!-- Node38 -->
<g id="node33" class="node">
<title>Node38</title>
<g id="a_node33"><a xlink:href="../../df/dba/vpiecenode__p_8h.html" target="_top" xlink:title=" ">
<polygon fill="white" stroke="black" points="3693.5,-67.5 3693.5,-97.5 3800.5,-97.5 3800.5,-67.5 3693.5,-67.5"/>
<text text-anchor="start" x="3701.5" y="-85.5" font-family="Helvetica,sans-Serif" font-size="10.00">src/libs/vpatterndb</text>
<text text-anchor="middle" x="3747" y="-74.5" font-family="Helvetica,sans-Serif" font-size="10.00">/vpiecenode_p.h</text>
</a>
</g>
</g>
<!-- Node16&#45;&gt;Node38 -->
<g id="edge38" class="edge">
<title>Node16&#45;&gt;Node38</title>
<path fill="none" stroke="midnightblue" d="M3646,-135.19C3667.36,-124.26 3697.55,-108.81 3719.35,-97.65"/>
<polygon fill="midnightblue" stroke="midnightblue" points="3644.17,-132.2 3636.86,-139.87 3647.36,-138.43 3644.17,-132.2"/>
</g>
<!-- Node40 -->
<g id="node35" class="node">
<title>Node40</title>
<g id="a_node35"><a xlink:href="../../df/d40/export__format__combobox_8cpp.html" target="_top" xlink:title=" ">
<polygon fill="white" stroke="black" points="3818.5,-67.5 3818.5,-97.5 3951.5,-97.5 3951.5,-67.5 3818.5,-67.5"/>
<text text-anchor="start" x="3826.5" y="-85.5" font-family="Helvetica,sans-Serif" font-size="10.00">src/libs/vwidgets/export</text>
<text text-anchor="middle" x="3885" y="-74.5" font-family="Helvetica,sans-Serif" font-size="10.00">_format_combobox.cpp</text>
</a>
</g>
</g>
<!-- Node16&#45;&gt;Node40 -->
<g id="edge40" class="edge">
<title>Node16&#45;&gt;Node40</title>
<path fill="none" stroke="midnightblue" d="M3664.65,-137.55C3709.51,-126.55 3778.8,-109.55 3827.68,-97.56"/>
<polygon fill="midnightblue" stroke="midnightblue" points="3663.79,-134.15 3654.92,-139.94 3665.46,-140.95 3663.79,-134.15"/>
</g>
<!-- Node41 -->
<g id="node36" class="node">
<title>Node41</title>
<g id="a_node36"><a xlink:href="../../d3/d4f/mouse__coordinates_8cpp.html" target="_top" xlink:title=" ">
<polygon fill="white" stroke="black" points="3970,-67.5 3970,-97.5 4104,-97.5 4104,-67.5 3970,-67.5"/>
<text text-anchor="start" x="3978" y="-85.5" font-family="Helvetica,sans-Serif" font-size="10.00">src/libs/vwidgets/mouse</text>
<text text-anchor="middle" x="4037" y="-74.5" font-family="Helvetica,sans-Serif" font-size="10.00">_coordinates.cpp</text>
</a>
</g>
</g>
<!-- Node16&#45;&gt;Node41 -->
<g id="edge41" class="edge">
<title>Node16&#45;&gt;Node41</title>
<path fill="none" stroke="midnightblue" d="M3692.78,-138.52C3761.71,-128.87 3868.06,-113.48 3960,-98 3963.22,-97.46 3966.51,-96.89 3969.84,-96.31"/>
<polygon fill="midnightblue" stroke="midnightblue" points="3691.89,-135.11 3682.47,-139.96 3692.86,-142.04 3691.89,-135.11"/>
</g>
<!-- Node42 -->
<g id="node37" class="node">
<title>Node42</title>
<g id="a_node37"><a xlink:href="../../d7/d1b/pen__toolbar_8cpp.html" target="_top" xlink:title=" ">
<polygon fill="white" stroke="black" points="4122.5,-67.5 4122.5,-97.5 4241.5,-97.5 4241.5,-67.5 4122.5,-67.5"/>
<text text-anchor="start" x="4130.5" y="-85.5" font-family="Helvetica,sans-Serif" font-size="10.00">src/libs/vwidgets/pen</text>
<text text-anchor="middle" x="4182" y="-74.5" font-family="Helvetica,sans-Serif" font-size="10.00">_toolbar.cpp</text>
</a>
</g>
</g>
<!-- Node16&#45;&gt;Node42 -->
<g id="edge42" class="edge">
<title>Node16&#45;&gt;Node42</title>
<path fill="none" stroke="midnightblue" d="M3727.8,-140.74C3827.96,-132.75 3981.09,-118.56 4113,-98 4116.02,-97.53 4119.11,-97.01 4122.23,-96.46"/>
<polygon fill="midnightblue" stroke="midnightblue" points="3727.36,-137.26 3717.67,-141.54 3727.92,-144.24 3727.36,-137.26"/>
</g>
<!-- Node43 -->
<g id="node38" class="node">
<title>Node43</title>
<g id="a_node38"><a xlink:href="../../d8/d76/scene__rect_8cpp.html" target="_top" xlink:title=" ">
<polygon fill="white" stroke="black" points="4260,-67.5 4260,-97.5 4390,-97.5 4390,-67.5 4260,-67.5"/>
<text text-anchor="start" x="4268" y="-85.5" font-family="Helvetica,sans-Serif" font-size="10.00">src/libs/vwidgets/scene</text>
<text text-anchor="middle" x="4325" y="-74.5" font-family="Helvetica,sans-Serif" font-size="10.00">_rect.cpp</text>
</a>
</g>
</g>
<!-- Node16&#45;&gt;Node43 -->
<g id="edge43" class="edge">
<title>Node16&#45;&gt;Node43</title>
<path fill="none" stroke="midnightblue" d="M3727.78,-143.51C3853.54,-136.84 4067.53,-122.87 4250,-98 4253.15,-97.57 4256.38,-97.09 4259.62,-96.58"/>
<polygon fill="midnightblue" stroke="midnightblue" points="3727.57,-140.01 3717.76,-144.03 3727.93,-147 3727.57,-140.01"/>
</g>
<!-- Node44 -->
<g id="node39" class="node">
<title>Node44</title>
<g id="a_node39"><a xlink:href="../../dd/df6/vabstractmainwindow_8cpp.html" target="_top" xlink:title=" ">
<polygon fill="white" stroke="black" points="4408.5,-73 4408.5,-92 4637.5,-92 4637.5,-73 4408.5,-73"/>
<text text-anchor="middle" x="4523" y="-80" font-family="Helvetica,sans-Serif" font-size="10.00">src/libs/vwidgets/vabstractmainwindow.cpp</text>
</a>
</g>
</g>
<!-- Node16&#45;&gt;Node44 -->
<g id="edge44" class="edge">
<title>Node16&#45;&gt;Node44</title>
<path fill="none" stroke="midnightblue" d="M3727.75,-143.28C3878.2,-135.59 4159.69,-119.73 4399,-98 4417.35,-96.33 4437.18,-94.18 4455.49,-92.04"/>
<polygon fill="midnightblue" stroke="midnightblue" points="3727.4,-139.79 3717.59,-143.8 3727.75,-146.78 3727.4,-139.79"/>
</g>
<!-- Node45 -->
<g id="node40" class="node">
<title>Node45</title>
<g id="a_node40"><a xlink:href="../../de/d45/vcontrolpointspline_8cpp.html" target="_top" xlink:title=" ">
<polygon fill="white" stroke="black" points="4655.5,-73 4655.5,-92 4870.5,-92 4870.5,-73 4655.5,-73"/>
<text text-anchor="middle" x="4763" y="-80" font-family="Helvetica,sans-Serif" font-size="10.00">src/libs/vwidgets/vcontrolpointspline.cpp</text>
</a>
</g>
</g>
<!-- Node16&#45;&gt;Node45 -->
<g id="edge45" class="edge">
<title>Node16&#45;&gt;Node45</title>
<path fill="none" stroke="midnightblue" d="M3727.89,-145.82C3915.05,-140.58 4311.89,-126.89 4646,-98 4663.94,-96.45 4683.38,-94.25 4701.16,-92.03"/>
<polygon fill="midnightblue" stroke="midnightblue" points="3727.67,-142.32 3717.77,-146.1 3727.87,-149.32 3727.67,-142.32"/>
</g>
<!-- Node46 -->
<g id="node41" class="node">
<title>Node46</title>
<g id="a_node41"><a xlink:href="../../d1/d90/vgrainlineitem_8cpp.html" target="_top" xlink:title=" ">
<polygon fill="white" stroke="black" points="4888.5,-73 4888.5,-92 5081.5,-92 5081.5,-73 4888.5,-73"/>
<text text-anchor="middle" x="4985" y="-80" font-family="Helvetica,sans-Serif" font-size="10.00">src/libs/vwidgets/vgrainlineitem.cpp</text>
</a>
</g>
</g>
<!-- Node16&#45;&gt;Node46 -->
<g id="edge46" class="edge">
<title>Node16&#45;&gt;Node46</title>
<path fill="none" stroke="midnightblue" d="M3727.91,-147.65C3945.86,-145.17 4454.02,-135.5 4879,-98 4895.65,-96.53 4913.7,-94.3 4930.1,-92.03"/>
<polygon fill="midnightblue" stroke="midnightblue" points="3727.71,-144.15 3717.75,-147.77 3727.79,-151.15 3727.71,-144.15"/>
</g>
<!-- Node47 -->
<g id="node42" class="node">
<title>Node47</title>
<g id="a_node42"><a xlink:href="../../de/dec/vgraphicssimpletextitem_8cpp.html" target="_top" xlink:title=" ">
<polygon fill="white" stroke="black" points="5100,-73 5100,-92 5344,-92 5344,-73 5100,-73"/>
<text text-anchor="middle" x="5222" y="-80" font-family="Helvetica,sans-Serif" font-size="10.00">src/libs/vwidgets/vgraphicssimpletextitem.cpp</text>
</a>
</g>
</g>
<!-- Node16&#45;&gt;Node47 -->
<g id="edge47" class="edge">
<title>Node16&#45;&gt;Node47</title>
<path fill="none" stroke="midnightblue" d="M3728.02,-147.56C3971.41,-144.84 4581.22,-134.63 5090,-98 5110.7,-96.51 5133.15,-94.28 5153.58,-92"/>
<polygon fill="midnightblue" stroke="midnightblue" points="3727.72,-144.07 3717.76,-147.68 3727.79,-151.07 3727.72,-144.07"/>
</g>
<!-- Node48 -->
<g id="node43" class="node">
<title>Node48</title>
<g id="a_node43"><a xlink:href="../../d1/d88/vmaingraphicsscene_8cpp.html" target="_top" xlink:title=" ">
<polygon fill="white" stroke="black" points="5362,-73 5362,-92 5584,-92 5584,-73 5362,-73"/>
<text text-anchor="middle" x="5473" y="-80" font-family="Helvetica,sans-Serif" font-size="10.00">src/libs/vwidgets/vmaingraphicsscene.cpp</text>
</a>
</g>
</g>
<!-- Node16&#45;&gt;Node48 -->
<g id="edge48" class="edge">
<title>Node16&#45;&gt;Node48</title>
<path fill="none" stroke="midnightblue" d="M3728.17,-148.77C4001.08,-148.7 4739.56,-143.9 5353,-98 5372.04,-96.58 5392.71,-94.33 5411.44,-92.03"/>
<polygon fill="midnightblue" stroke="midnightblue" points="3727.88,-145.27 3717.88,-148.77 3727.88,-152.27 3727.88,-145.27"/>
</g>
<!-- Node49 -->
<g id="node44" class="node">
<title>Node49</title>
<g id="a_node44"><a xlink:href="../../d0/d5d/vscenepoint_8cpp.html" target="_top" xlink:title=" ">
<polygon fill="white" stroke="black" points="5602.5,-73 5602.5,-92 5783.5,-92 5783.5,-73 5602.5,-73"/>
<text text-anchor="middle" x="5693" y="-80" font-family="Helvetica,sans-Serif" font-size="10.00">src/libs/vwidgets/vscenepoint.cpp</text>
</a>
</g>
</g>
<!-- Node16&#45;&gt;Node49 -->
<g id="edge49" class="edge">
<title>Node16&#45;&gt;Node49</title>
<path fill="none" stroke="midnightblue" d="M3727.7,-147.43C4084.51,-143.6 5226.09,-129.19 5593,-98 5609.17,-96.63 5626.71,-94.35 5642.52,-92.01"/>
<polygon fill="midnightblue" stroke="midnightblue" points="3727.59,-143.93 3717.63,-147.53 3727.66,-150.93 3727.59,-143.93"/>
</g>
<!-- Node25&#45;&gt;Node26 -->
<g id="edge24" class="edge">
<title>Node25&#45;&gt;Node26</title>
<path fill="none" stroke="midnightblue" d="M2513.72,-58.87C2507.79,-49.46 2501.09,-38.83 2495.88,-30.58"/>
<polygon fill="midnightblue" stroke="midnightblue" points="2510.81,-60.81 2519.1,-67.4 2516.73,-57.07 2510.81,-60.81"/>
</g>
<!-- Node38&#45;&gt;Node39 -->
<g id="edge39" class="edge">
<title>Node38&#45;&gt;Node39</title>
<path fill="none" stroke="midnightblue" d="M3810.88,-66.94C4046.75,-36.61 4718.51,-21.4 4913.42,-17.51"/>
<polygon fill="midnightblue" stroke="midnightblue" points="3810.1,-63.52 3800.65,-68.31 3811.03,-70.46 3810.1,-63.52"/>
</g>
</g>
</svg>
