<?xml version="1.0" encoding="UTF-8" standalone="no"?>
<!DOCTYPE svg PUBLIC "-//W3C//DTD SVG 1.1//EN"
 "http://www.w3.org/Graphics/SVG/1.1/DTD/svg11.dtd">
<!-- Generated by graphviz version 2.43.0 (0)
 -->
<!-- Title: src/libs/vgeometry/vabstractcubicbezierpath.h Pages: 1 -->
<svg width="4896pt" height="307pt"
 viewBox="0.00 0.00 4895.50 307.00" xmlns="http://www.w3.org/2000/svg" xmlns:xlink="http://www.w3.org/1999/xlink">
<g id="graph0" class="graph" transform="scale(1 1) rotate(0) translate(4 303)">
<title>src/libs/vgeometry/vabstractcubicbezierpath.h</title>
<polygon fill="white" stroke="transparent" points="-4,4 -4,-303 4891.5,-303 4891.5,4 -4,4"/>
<!-- Node1 -->
<g id="node1" class="node">
<title>Node1</title>
<g id="a_node1"><a xlink:title=" ">
<polygon fill="#bfbfbf" stroke="black" points="1158,-268.5 1158,-298.5 1310,-298.5 1310,-268.5 1158,-268.5"/>
<text text-anchor="start" x="1166" y="-286.5" font-family="Helvetica,sans-Serif" font-size="10.00">src/libs/vgeometry</text>
<text text-anchor="middle" x="1234" y="-275.5" font-family="Helvetica,sans-Serif" font-size="10.00">/vabstractcubicbezierpath.h</text>
</a>
</g>
</g>
<!-- Node2 -->
<g id="node2" class="node">
<title>Node2</title>
<g id="a_node2"><a xlink:href="../../db/d0a/vabstractcubicbezierpath_8cpp.html" target="_top" xlink:title=" ">
<polygon fill="white" stroke="black" points="868.5,-201.5 868.5,-231.5 1031.5,-231.5 1031.5,-201.5 868.5,-201.5"/>
<text text-anchor="start" x="876.5" y="-219.5" font-family="Helvetica,sans-Serif" font-size="10.00">src/libs/vgeometry</text>
<text text-anchor="middle" x="950" y="-208.5" font-family="Helvetica,sans-Serif" font-size="10.00">/vabstractcubicbezierpath.cpp</text>
</a>
</g>
</g>
<!-- Node1&#45;&gt;Node2 -->
<g id="edge1" class="edge">
<title>Node1&#45;&gt;Node2</title>
<path fill="none" stroke="midnightblue" d="M1162.72,-266.19C1116.21,-255.54 1056.1,-241.78 1011.65,-231.61"/>
<polygon fill="midnightblue" stroke="midnightblue" points="1162.2,-269.66 1172.73,-268.48 1163.76,-262.83 1162.2,-269.66"/>
</g>
<!-- Node3 -->
<g id="node3" class="node">
<title>Node3</title>
<g id="a_node3"><a xlink:href="../../dd/dbe/vcubicbezierpath_8h.html" target="_top" xlink:title=" ">
<polygon fill="white" stroke="black" points="1050,-201.5 1050,-231.5 1162,-231.5 1162,-201.5 1050,-201.5"/>
<text text-anchor="start" x="1058" y="-219.5" font-family="Helvetica,sans-Serif" font-size="10.00">src/libs/vgeometry</text>
<text text-anchor="middle" x="1106" y="-208.5" font-family="Helvetica,sans-Serif" font-size="10.00">/vcubicbezierpath.h</text>
</a>
</g>
</g>
<!-- Node1&#45;&gt;Node3 -->
<g id="edge2" class="edge">
<title>Node1&#45;&gt;Node3</title>
<path fill="none" stroke="midnightblue" d="M1197.28,-263.85C1177.04,-253.58 1152.33,-241.03 1133.72,-231.58"/>
<polygon fill="midnightblue" stroke="midnightblue" points="1195.72,-266.99 1206.23,-268.4 1198.89,-260.75 1195.72,-266.99"/>
</g>
<!-- Node5 -->
<g id="node5" class="node">
<title>Node5</title>
<g id="a_node5"><a xlink:href="../../d0/d39/vsplinepath_8h.html" target="_top" xlink:title=" ">
<polygon fill="white" stroke="black" points="1180.5,-201.5 1180.5,-231.5 1287.5,-231.5 1287.5,-201.5 1180.5,-201.5"/>
<text text-anchor="start" x="1188.5" y="-219.5" font-family="Helvetica,sans-Serif" font-size="10.00">src/libs/vgeometry</text>
<text text-anchor="middle" x="1234" y="-208.5" font-family="Helvetica,sans-Serif" font-size="10.00">/vsplinepath.h</text>
</a>
</g>
</g>
<!-- Node1&#45;&gt;Node5 -->
<g id="edge4" class="edge">
<title>Node1&#45;&gt;Node5</title>
<path fill="none" stroke="midnightblue" d="M1234,-258.11C1234,-249.15 1234,-239.32 1234,-231.58"/>
<polygon fill="midnightblue" stroke="midnightblue" points="1230.5,-258.4 1234,-268.4 1237.5,-258.4 1230.5,-258.4"/>
</g>
<!-- Node10 -->
<g id="node10" class="node">
<title>Node10</title>
<g id="a_node10"><a xlink:href="../../d3/df7/vcontainer_8h.html" target="_top" xlink:title=" ">
<polygon fill="white" stroke="black" points="3612.5,-201.5 3612.5,-231.5 3719.5,-231.5 3719.5,-201.5 3612.5,-201.5"/>
<text text-anchor="start" x="3620.5" y="-219.5" font-family="Helvetica,sans-Serif" font-size="10.00">src/libs/vpatterndb</text>
<text text-anchor="middle" x="3666" y="-208.5" font-family="Helvetica,sans-Serif" font-size="10.00">/vcontainer.h</text>
</a>
</g>
</g>
<!-- Node1&#45;&gt;Node10 -->
<g id="edge9" class="edge">
<title>Node1&#45;&gt;Node10</title>
<path fill="none" stroke="midnightblue" d="M1320.2,-280.2C1709.63,-269.79 3299.33,-227.3 3612.34,-218.93"/>
<polygon fill="midnightblue" stroke="midnightblue" points="1320.03,-276.7 1310.13,-280.47 1320.22,-283.7 1320.03,-276.7"/>
</g>
<!-- Node46 -->
<g id="node41" class="node">
<title>Node46</title>
<g id="a_node41"><a xlink:href="../../d6/d46/vcontainer_8cpp.html" target="_top" xlink:title=" ">
<polygon fill="white" stroke="black" points="4780.5,-67.5 4780.5,-97.5 4887.5,-97.5 4887.5,-67.5 4780.5,-67.5"/>
<text text-anchor="start" x="4788.5" y="-85.5" font-family="Helvetica,sans-Serif" font-size="10.00">src/libs/vpatterndb</text>
<text text-anchor="middle" x="4834" y="-74.5" font-family="Helvetica,sans-Serif" font-size="10.00">/vcontainer.cpp</text>
</a>
</g>
</g>
<!-- Node1&#45;&gt;Node46 -->
<g id="edge62" class="edge">
<title>Node1&#45;&gt;Node46</title>
<path fill="none" stroke="midnightblue" d="M1320.22,-282.76C1639.64,-283.31 2785.78,-281.49 3729,-232 4080.89,-213.54 4171.64,-224.23 4519,-165 4617,-148.29 4729.14,-116.03 4789.65,-97.51"/>
<polygon fill="midnightblue" stroke="midnightblue" points="1320.12,-279.26 1310.11,-282.74 1320.1,-286.26 1320.12,-279.26"/>
</g>
<!-- Node4 -->
<g id="node4" class="node">
<title>Node4</title>
<g id="a_node4"><a xlink:href="../../de/df0/vcubicbezierpath_8cpp.html" target="_top" xlink:title=" ">
<polygon fill="white" stroke="black" points="478.5,-134.5 478.5,-164.5 601.5,-164.5 601.5,-134.5 478.5,-134.5"/>
<text text-anchor="start" x="486.5" y="-152.5" font-family="Helvetica,sans-Serif" font-size="10.00">src/libs/vgeometry</text>
<text text-anchor="middle" x="540" y="-141.5" font-family="Helvetica,sans-Serif" font-size="10.00">/vcubicbezierpath.cpp</text>
</a>
</g>
</g>
<!-- Node3&#45;&gt;Node4 -->
<g id="edge3" class="edge">
<title>Node3&#45;&gt;Node4</title>
<path fill="none" stroke="midnightblue" d="M1040.3,-201.05C1040.2,-201.03 1040.1,-201.02 1040,-201 850.37,-172.36 799.8,-192.5 610,-165 607.3,-164.61 604.54,-164.18 601.76,-163.72"/>
<polygon fill="midnightblue" stroke="midnightblue" points="1039.49,-204.46 1049.93,-202.65 1040.64,-197.55 1039.49,-204.46"/>
</g>
<!-- Node6 -->
<g id="node6" class="node">
<title>Node6</title>
<g id="a_node6"><a xlink:href="../../db/d6a/vsplinepath_8cpp.html" target="_top" xlink:title=" ">
<polygon fill="white" stroke="black" points="619.5,-134.5 619.5,-164.5 726.5,-164.5 726.5,-134.5 619.5,-134.5"/>
<text text-anchor="start" x="627.5" y="-152.5" font-family="Helvetica,sans-Serif" font-size="10.00">src/libs/vgeometry</text>
<text text-anchor="middle" x="673" y="-141.5" font-family="Helvetica,sans-Serif" font-size="10.00">/vsplinepath.cpp</text>
</a>
</g>
</g>
<!-- Node5&#45;&gt;Node6 -->
<g id="edge5" class="edge">
<title>Node5&#45;&gt;Node6</title>
<path fill="none" stroke="midnightblue" d="M1170.57,-201.11C977.11,-171.9 923.89,-194.72 735,-165 732.27,-164.57 729.48,-164.09 726.67,-163.56"/>
<polygon fill="midnightblue" stroke="midnightblue" points="1170.07,-204.57 1180.49,-202.63 1171.13,-197.65 1170.07,-204.57"/>
</g>
<!-- Node7 -->
<g id="node7" class="node">
<title>Node7</title>
<g id="a_node7"><a xlink:href="../../d1/d3a/abstracttest_8cpp.html" target="_top" xlink:title=" ">
<polygon fill="white" stroke="black" points="744.5,-140 744.5,-159 905.5,-159 905.5,-140 744.5,-140"/>
<text text-anchor="middle" x="825" y="-147" font-family="Helvetica,sans-Serif" font-size="10.00">src/libs/vtest/abstracttest.cpp</text>
</a>
</g>
</g>
<!-- Node5&#45;&gt;Node7 -->
<g id="edge6" class="edge">
<title>Node5&#45;&gt;Node7</title>
<path fill="none" stroke="midnightblue" d="M1170.45,-201C1058.52,-180.39 1028.33,-181.03 920,-165 907.13,-163.09 893.28,-161 880.25,-159.02"/>
<polygon fill="midnightblue" stroke="midnightblue" points="1169.98,-204.47 1180.45,-202.85 1171.25,-197.59 1169.98,-204.47"/>
</g>
<!-- Node8 -->
<g id="node8" class="node">
<title>Node8</title>
<g id="a_node8"><a xlink:href="../../d8/d13/vcontrolpointspline_8h.html" target="_top" xlink:title=" ">
<polygon fill="white" stroke="black" points="1445,-140 1445,-159 1649,-159 1649,-140 1445,-140"/>
<text text-anchor="middle" x="1547" y="-147" font-family="Helvetica,sans-Serif" font-size="10.00">src/libs/vwidgets/vcontrolpointspline.h</text>
</a>
</g>
</g>
<!-- Node5&#45;&gt;Node8 -->
<g id="edge7" class="edge">
<title>Node5&#45;&gt;Node8</title>
<path fill="none" stroke="midnightblue" d="M1297.9,-202.23C1360.13,-189.31 1452.85,-170.05 1505.86,-159.04"/>
<polygon fill="midnightblue" stroke="midnightblue" points="1296.89,-198.87 1287.81,-204.33 1298.31,-205.72 1296.89,-198.87"/>
</g>
<!-- Node9 -->
<g id="node9" class="node">
<title>Node9</title>
<g id="a_node9"><a xlink:href="../../de/d45/vcontrolpointspline_8cpp.html" target="_top" xlink:title=" ">
<polygon fill="white" stroke="black" points="1535.5,-73 1535.5,-92 1750.5,-92 1750.5,-73 1535.5,-73"/>
<text text-anchor="middle" x="1643" y="-80" font-family="Helvetica,sans-Serif" font-size="10.00">src/libs/vwidgets/vcontrolpointspline.cpp</text>
</a>
</g>
</g>
<!-- Node8&#45;&gt;Node9 -->
<g id="edge8" class="edge">
<title>Node8&#45;&gt;Node9</title>
<path fill="none" stroke="midnightblue" d="M1568.28,-134.09C1587.27,-121.24 1614.45,-102.83 1630.26,-92.13"/>
<polygon fill="midnightblue" stroke="midnightblue" points="1566.27,-131.23 1559.95,-139.73 1570.19,-137.03 1566.27,-131.23"/>
</g>
<!-- Node10&#45;&gt;Node7 -->
<g id="edge60" class="edge">
<title>Node10&#45;&gt;Node7</title>
<path fill="none" stroke="midnightblue" d="M3602.16,-215.48C3242.45,-215.2 1465.59,-211.45 920,-165 904.54,-163.68 887.77,-161.41 872.69,-159.05"/>
<polygon fill="midnightblue" stroke="midnightblue" points="3602.38,-218.98 3612.38,-215.49 3602.38,-211.98 3602.38,-218.98"/>
</g>
<!-- Node11 -->
<g id="node11" class="node">
<title>Node11</title>
<g id="a_node11"><a xlink:href="../../d4/dd6/vmeasurements_8h.html" target="_top" xlink:title=" ">
<polygon fill="white" stroke="black" points="961.5,-140 961.5,-159 1146.5,-159 1146.5,-140 961.5,-140"/>
<text text-anchor="middle" x="1054" y="-147" font-family="Helvetica,sans-Serif" font-size="10.00">src/libs/vformat/vmeasurements.h</text>
</a>
</g>
</g>
<!-- Node10&#45;&gt;Node11 -->
<g id="edge10" class="edge">
<title>Node10&#45;&gt;Node11</title>
<path fill="none" stroke="midnightblue" d="M3602.27,-215.26C3261.58,-213.85 1652.22,-205.11 1156,-165 1139.42,-163.66 1121.42,-161.38 1105.23,-159.02"/>
<polygon fill="midnightblue" stroke="midnightblue" points="3602.43,-218.77 3612.45,-215.31 3602.46,-211.77 3602.43,-218.77"/>
</g>
<!-- Node12 -->
<g id="node12" class="node">
<title>Node12</title>
<g id="a_node12"><a xlink:href="../../de/db3/vmeasurements_8cpp.html" target="_top" xlink:title=" ">
<polygon fill="white" stroke="black" points="0,-73 0,-92 196,-92 196,-73 0,-73"/>
<text text-anchor="middle" x="98" y="-80" font-family="Helvetica,sans-Serif" font-size="10.00">src/libs/vformat/vmeasurements.cpp</text>
</a>
</g>
</g>
<!-- Node10&#45;&gt;Node12 -->
<g id="edge12" class="edge">
<title>Node10&#45;&gt;Node12</title>
<path fill="none" stroke="midnightblue" d="M3602.32,-215.49C3205.13,-215.3 1080.32,-212.05 952,-165 931.54,-157.5 934.34,-141.83 914,-134 766.78,-77.32 362.08,-112.61 205,-98 188.48,-96.46 170.6,-94.26 154.26,-92.03"/>
<polygon fill="midnightblue" stroke="midnightblue" points="3602.48,-218.99 3612.48,-215.5 3602.48,-211.99 3602.48,-218.99"/>
</g>
<!-- Node13 -->
<g id="node13" class="node">
<title>Node13</title>
<g id="a_node13"><a xlink:href="../../d6/de0/vlayoutpiece_8h.html" target="_top" xlink:title=" ">
<polygon fill="white" stroke="black" points="1165,-140 1165,-159 1331,-159 1331,-140 1165,-140"/>
<text text-anchor="middle" x="1248" y="-147" font-family="Helvetica,sans-Serif" font-size="10.00">src/libs/vlayout/vlayoutpiece.h</text>
</a>
</g>
</g>
<!-- Node10&#45;&gt;Node13 -->
<g id="edge13" class="edge">
<title>Node10&#45;&gt;Node13</title>
<path fill="none" stroke="midnightblue" d="M3602.24,-215.32C3336.73,-214.32 2292.86,-207.71 1436,-165 1401.67,-163.29 1363.87,-160.54 1331.23,-157.9"/>
<polygon fill="midnightblue" stroke="midnightblue" points="3602.45,-218.82 3612.46,-215.36 3602.47,-211.82 3602.45,-218.82"/>
</g>
<!-- Node23 -->
<g id="node22" class="node">
<title>Node23</title>
<g id="a_node22"><a xlink:href="../../d8/d70/vtextmanager_8cpp.html" target="_top" xlink:title=" ">
<polygon fill="white" stroke="black" points="1769,-73 1769,-92 1951,-92 1951,-73 1769,-73"/>
<text text-anchor="middle" x="1860" y="-80" font-family="Helvetica,sans-Serif" font-size="10.00">src/libs/vlayout/vtextmanager.cpp</text>
</a>
</g>
</g>
<!-- Node10&#45;&gt;Node23 -->
<g id="edge24" class="edge">
<title>Node10&#45;&gt;Node23</title>
<path fill="none" stroke="midnightblue" d="M3602.15,-212.84C3376.95,-203.08 2598.94,-166.23 1960,-98 1944.91,-96.39 1928.6,-94.21 1913.62,-92.03"/>
<polygon fill="midnightblue" stroke="midnightblue" points="3602.31,-216.35 3612.45,-213.28 3602.61,-209.35 3602.31,-216.35"/>
</g>
<!-- Node24 -->
<g id="node23" class="node">
<title>Node24</title>
<g id="a_node23"><a xlink:href="../../d5/d74/vabstractapplication_8h.html" target="_top" xlink:title=" ">
<polygon fill="white" stroke="red" points="3128.5,-140 3128.5,-159 3323.5,-159 3323.5,-140 3128.5,-140"/>
<text text-anchor="middle" x="3226" y="-147" font-family="Helvetica,sans-Serif" font-size="10.00">src/libs/vmisc/vabstractapplication.h</text>
</a>
</g>
</g>
<!-- Node10&#45;&gt;Node24 -->
<g id="edge25" class="edge">
<title>Node10&#45;&gt;Node24</title>
<path fill="none" stroke="midnightblue" d="M3602.39,-206.1C3516.86,-193.47 3366.04,-171.19 3283.67,-159.02"/>
<polygon fill="midnightblue" stroke="midnightblue" points="3602.08,-209.6 3612.49,-207.59 3603.11,-202.67 3602.08,-209.6"/>
</g>
<!-- Node42 -->
<g id="node37" class="node">
<title>Node42</title>
<g id="a_node37"><a xlink:href="../../db/d11/vformula_8cpp.html" target="_top" xlink:title=" ">
<polygon fill="white" stroke="black" points="4491.5,-67.5 4491.5,-97.5 4598.5,-97.5 4598.5,-67.5 4491.5,-67.5"/>
<text text-anchor="start" x="4499.5" y="-85.5" font-family="Helvetica,sans-Serif" font-size="10.00">src/libs/vpatterndb</text>
<text text-anchor="middle" x="4545" y="-74.5" font-family="Helvetica,sans-Serif" font-size="10.00">/vformula.cpp</text>
</a>
</g>
</g>
<!-- Node10&#45;&gt;Node42 -->
<g id="edge54" class="edge">
<title>Node10&#45;&gt;Node42</title>
<path fill="none" stroke="midnightblue" d="M3659.82,-191.44C3656.69,-173.08 3656.21,-148.54 3671,-134 3703.2,-102.34 4438.27,-104.17 4483,-98 4485.74,-97.62 4488.53,-97.18 4491.35,-96.69"/>
<polygon fill="midnightblue" stroke="midnightblue" points="3656.43,-192.32 3661.87,-201.41 3663.29,-190.91 3656.43,-192.32"/>
</g>
<!-- Node43 -->
<g id="node38" class="node">
<title>Node43</title>
<g id="a_node38"><a xlink:href="../../df/d7a/vpiece_8cpp.html" target="_top" xlink:title=" ">
<polygon fill="white" stroke="black" points="4616.5,-67.5 4616.5,-97.5 4723.5,-97.5 4723.5,-67.5 4616.5,-67.5"/>
<text text-anchor="start" x="4624.5" y="-85.5" font-family="Helvetica,sans-Serif" font-size="10.00">src/libs/vpatterndb</text>
<text text-anchor="middle" x="4670" y="-74.5" font-family="Helvetica,sans-Serif" font-size="10.00">/vpiece.cpp</text>
</a>
</g>
</g>
<!-- Node10&#45;&gt;Node43 -->
<g id="edge56" class="edge">
<title>Node10&#45;&gt;Node43</title>
<path fill="none" stroke="midnightblue" d="M3671.65,-191.48C3677.53,-172.36 3688.79,-146.74 3709,-134 3793.56,-80.67 4508.94,-111.44 4608,-98 4610.74,-97.63 4613.53,-97.19 4616.35,-96.7"/>
<polygon fill="midnightblue" stroke="midnightblue" points="3668.22,-190.75 3668.91,-201.32 3674.96,-192.62 3668.22,-190.75"/>
</g>
<!-- Node45 -->
<g id="node40" class="node">
<title>Node45</title>
<g id="a_node40"><a xlink:href="../../d8/dba/vpiecenode_8cpp.html" target="_top" xlink:title=" ">
<polygon fill="white" stroke="black" points="4247.5,-0.5 4247.5,-30.5 4354.5,-30.5 4354.5,-0.5 4247.5,-0.5"/>
<text text-anchor="start" x="4255.5" y="-18.5" font-family="Helvetica,sans-Serif" font-size="10.00">src/libs/vpatterndb</text>
<text text-anchor="middle" x="4301" y="-7.5" font-family="Helvetica,sans-Serif" font-size="10.00">/vpiecenode.cpp</text>
</a>
</g>
</g>
<!-- Node10&#45;&gt;Node45 -->
<g id="edge57" class="edge">
<title>Node10&#45;&gt;Node45</title>
<path fill="none" stroke="midnightblue" d="M3684.77,-193.53C3705.2,-169.69 3735.22,-134.85 3737,-134 3836.95,-86.32 4656.12,-177.71 4733,-98 4742.56,-88.08 4742.16,-77.29 4733,-67 4708.25,-39.18 4465.17,-24.25 4354.9,-18.86"/>
<polygon fill="midnightblue" stroke="midnightblue" points="3682.11,-191.26 3678.26,-201.14 3687.42,-195.81 3682.11,-191.26"/>
</g>
<!-- Node10&#45;&gt;Node46 -->
<g id="edge59" class="edge">
<title>Node10&#45;&gt;Node46</title>
<path fill="none" stroke="midnightblue" d="M3694.05,-195.55C3727.89,-171.49 3780.37,-134.21 3781,-134 3988.46,-63.74 4548.63,-124.94 4766,-98 4770.67,-97.42 4775.5,-96.68 4780.32,-95.84"/>
<polygon fill="midnightblue" stroke="midnightblue" points="3692.01,-192.71 3685.89,-201.35 3696.07,-198.41 3692.01,-192.71"/>
</g>
<!-- Node61 -->
<g id="node46" class="node">
<title>Node61</title>
<g id="a_node46"><a xlink:href="../../d1/de1/vincrement__p_8h.html" target="_top" xlink:title=" ">
<polygon fill="white" stroke="red" points="3789.5,-134.5 3789.5,-164.5 3932.5,-164.5 3932.5,-134.5 3789.5,-134.5"/>
<text text-anchor="start" x="3797.5" y="-152.5" font-family="Helvetica,sans-Serif" font-size="10.00">src/libs/vpatterndb</text>
<text text-anchor="middle" x="3861" y="-141.5" font-family="Helvetica,sans-Serif" font-size="10.00">/variables/vincrement_p.h</text>
</a>
</g>
</g>
<!-- Node10&#45;&gt;Node61 -->
<g id="edge52" class="edge">
<title>Node10&#45;&gt;Node61</title>
<path fill="none" stroke="midnightblue" d="M3717.82,-198.23C3749.36,-187.71 3789.15,-174.45 3818.77,-164.58"/>
<polygon fill="midnightblue" stroke="midnightblue" points="3716.69,-194.91 3708.31,-201.4 3718.91,-201.55 3716.69,-194.91"/>
</g>
<!-- Node63 -->
<g id="node47" class="node">
<title>Node63</title>
<g id="a_node47"><a xlink:href="../../d6/dc1/vmeasurement__p_8h.html" target="_top" xlink:title=" ">
<polygon fill="white" stroke="red" points="3951,-134.5 3951,-164.5 4113,-164.5 4113,-134.5 3951,-134.5"/>
<text text-anchor="start" x="3959" y="-152.5" font-family="Helvetica,sans-Serif" font-size="10.00">src/libs/vpatterndb</text>
<text text-anchor="middle" x="4032" y="-141.5" font-family="Helvetica,sans-Serif" font-size="10.00">/variables/vmeasurement_p.h</text>
</a>
</g>
</g>
<!-- Node10&#45;&gt;Node63 -->
<g id="edge53" class="edge">
<title>Node10&#45;&gt;Node63</title>
<path fill="none" stroke="midnightblue" d="M3729.66,-204.2C3791.66,-193.18 3886.09,-176.41 3952.89,-164.55"/>
<polygon fill="midnightblue" stroke="midnightblue" points="3728.85,-200.78 3719.61,-205.98 3730.07,-207.68 3728.85,-200.78"/>
</g>
<!-- Node65 -->
<g id="node48" class="node">
<title>Node65</title>
<g id="a_node48"><a xlink:href="../../d6/d91/vnodedetail_8cpp.html" target="_top" xlink:title=" ">
<polygon fill="white" stroke="black" points="4131.5,-134.5 4131.5,-164.5 4238.5,-164.5 4238.5,-134.5 4131.5,-134.5"/>
<text text-anchor="start" x="4139.5" y="-152.5" font-family="Helvetica,sans-Serif" font-size="10.00">src/libs/vpatterndb</text>
<text text-anchor="middle" x="4185" y="-141.5" font-family="Helvetica,sans-Serif" font-size="10.00">/vnodedetail.cpp</text>
</a>
</g>
</g>
<!-- Node10&#45;&gt;Node65 -->
<g id="edge55" class="edge">
<title>Node10&#45;&gt;Node65</title>
<path fill="none" stroke="midnightblue" d="M3729.78,-210.78C3818.24,-203.71 3983.02,-188.61 4122,-165 4125.1,-164.47 4128.27,-163.89 4131.47,-163.27"/>
<polygon fill="midnightblue" stroke="midnightblue" points="3729.33,-207.31 3719.63,-211.59 3729.88,-214.29 3729.33,-207.31"/>
</g>
<!-- Node66 -->
<g id="node49" class="node">
<title>Node66</title>
<g id="a_node49"><a xlink:href="../../da/de1/vpiecepath_8cpp.html" target="_top" xlink:title=" ">
<polygon fill="white" stroke="black" points="4256.5,-134.5 4256.5,-164.5 4363.5,-164.5 4363.5,-134.5 4256.5,-134.5"/>
<text text-anchor="start" x="4264.5" y="-152.5" font-family="Helvetica,sans-Serif" font-size="10.00">src/libs/vpatterndb</text>
<text text-anchor="middle" x="4310" y="-141.5" font-family="Helvetica,sans-Serif" font-size="10.00">/vpiecepath.cpp</text>
</a>
</g>
</g>
<!-- Node10&#45;&gt;Node66 -->
<g id="edge58" class="edge">
<title>Node10&#45;&gt;Node66</title>
<path fill="none" stroke="midnightblue" d="M3729.7,-212.96C3837.15,-208.01 4060.98,-194.83 4248,-165 4250.73,-164.56 4253.52,-164.08 4256.32,-163.55"/>
<polygon fill="midnightblue" stroke="midnightblue" points="3729.5,-209.46 3719.67,-213.41 3729.82,-216.46 3729.5,-209.46"/>
</g>
<!-- Node67 -->
<g id="node50" class="node">
<title>Node67</title>
<g id="a_node50"><a xlink:href="../../da/db4/piece__tablewidgetitem_8cpp.html" target="_top" xlink:title=" ">
<polygon fill="white" stroke="black" points="4382,-134.5 4382,-164.5 4510,-164.5 4510,-134.5 4382,-134.5"/>
<text text-anchor="start" x="4390" y="-152.5" font-family="Helvetica,sans-Serif" font-size="10.00">src/libs/vwidgets/piece</text>
<text text-anchor="middle" x="4446" y="-141.5" font-family="Helvetica,sans-Serif" font-size="10.00">_tablewidgetitem.cpp</text>
</a>
</g>
</g>
<!-- Node10&#45;&gt;Node67 -->
<g id="edge61" class="edge">
<title>Node10&#45;&gt;Node67</title>
<path fill="none" stroke="midnightblue" d="M3730,-213.6C3854.39,-209.33 4137.24,-196.71 4373,-165 4375.95,-164.6 4378.95,-164.16 4381.98,-163.69"/>
<polygon fill="midnightblue" stroke="midnightblue" points="3729.77,-210.11 3719.89,-213.94 3730.01,-217.1 3729.77,-210.11"/>
</g>
<!-- Node11&#45;&gt;Node12 -->
<g id="edge11" class="edge">
<title>Node11&#45;&gt;Node12</title>
<path fill="none" stroke="midnightblue" d="M988.47,-138.62C975.1,-136.87 961.12,-135.21 948,-134 618.79,-103.57 534.22,-128.23 205,-98 188.39,-96.47 170.39,-94.26 153.98,-92.01"/>
<polygon fill="midnightblue" stroke="midnightblue" points="988.16,-142.11 998.54,-139.98 989.1,-135.18 988.16,-142.11"/>
</g>
<!-- Node14 -->
<g id="node14" class="node">
<title>Node14</title>
<g id="a_node14"><a xlink:href="../../dd/d66/vdxfengine_8cpp.html" target="_top" xlink:title=" ">
<polygon fill="white" stroke="black" points="214,-73 214,-92 368,-92 368,-73 214,-73"/>
<text text-anchor="middle" x="291" y="-80" font-family="Helvetica,sans-Serif" font-size="10.00">src/libs/vdxf/vdxfengine.cpp</text>
</a>
</g>
</g>
<!-- Node13&#45;&gt;Node14 -->
<g id="edge14" class="edge">
<title>Node13&#45;&gt;Node14</title>
<path fill="none" stroke="midnightblue" d="M1189.89,-138.45C1178.36,-136.73 1166.32,-135.14 1155,-134 810.6,-99.29 721.18,-134.84 377,-98 363.45,-96.55 348.8,-94.33 335.49,-92.05"/>
<polygon fill="midnightblue" stroke="midnightblue" points="1189.44,-141.92 1199.86,-139.98 1190.51,-135 1189.44,-141.92"/>
</g>
<!-- Node15 -->
<g id="node15" class="node">
<title>Node15</title>
<g id="a_node15"><a xlink:href="../../de/da8/vbank_8cpp.html" target="_top" xlink:title=" ">
<polygon fill="white" stroke="black" points="386,-73 386,-92 530,-92 530,-73 386,-73"/>
<text text-anchor="middle" x="458" y="-80" font-family="Helvetica,sans-Serif" font-size="10.00">src/libs/vlayout/vbank.cpp</text>
</a>
</g>
</g>
<!-- Node13&#45;&gt;Node15 -->
<g id="edge15" class="edge">
<title>Node13&#45;&gt;Node15</title>
<path fill="none" stroke="midnightblue" d="M1188.76,-138.39C1177.57,-136.73 1165.95,-135.17 1155,-134 882.31,-104.84 811.35,-130.22 539,-98 526.37,-96.51 512.74,-94.3 500.32,-92.05"/>
<polygon fill="midnightblue" stroke="midnightblue" points="1188.47,-141.89 1198.89,-139.94 1189.53,-134.97 1188.47,-141.89"/>
</g>
<!-- Node16 -->
<g id="node16" class="node">
<title>Node16</title>
<g id="a_node16"><a xlink:href="../../df/d5d/vcontour_8cpp.html" target="_top" xlink:title=" ">
<polygon fill="white" stroke="black" points="548,-73 548,-92 704,-92 704,-73 548,-73"/>
<text text-anchor="middle" x="626" y="-80" font-family="Helvetica,sans-Serif" font-size="10.00">src/libs/vlayout/vcontour.cpp</text>
</a>
</g>
</g>
<!-- Node13&#45;&gt;Node16 -->
<g id="edge16" class="edge">
<title>Node13&#45;&gt;Node16</title>
<path fill="none" stroke="midnightblue" d="M1187.98,-138.48C1177.03,-136.84 1165.68,-135.27 1155,-134 959.27,-110.8 908.6,-122.22 713,-98 699.93,-96.38 685.82,-94.21 672.85,-92.05"/>
<polygon fill="midnightblue" stroke="midnightblue" points="1187.48,-141.95 1197.9,-140 1188.54,-135.03 1187.48,-141.95"/>
</g>
<!-- Node17 -->
<g id="node17" class="node">
<title>Node17</title>
<g id="a_node17"><a xlink:href="../../d3/d39/vlayoutgenerator_8cpp.html" target="_top" xlink:title=" ">
<polygon fill="white" stroke="black" points="722.5,-73 722.5,-92 919.5,-92 919.5,-73 722.5,-73"/>
<text text-anchor="middle" x="821" y="-80" font-family="Helvetica,sans-Serif" font-size="10.00">src/libs/vlayout/vlayoutgenerator.cpp</text>
</a>
</g>
</g>
<!-- Node13&#45;&gt;Node17 -->
<g id="edge17" class="edge">
<title>Node13&#45;&gt;Node17</title>
<path fill="none" stroke="midnightblue" d="M1183.24,-138.36C1173.77,-136.89 1164.13,-135.4 1155,-134 1057.76,-119.07 944.55,-102.02 878.04,-92.04"/>
<polygon fill="midnightblue" stroke="midnightblue" points="1183,-141.87 1193.42,-139.95 1184.08,-134.95 1183,-141.87"/>
</g>
<!-- Node18 -->
<g id="node18" class="node">
<title>Node18</title>
<g id="a_node18"><a xlink:href="../../d2/d2d/vlayoutpaper__p_8h.html" target="_top" xlink:title=" ">
<polygon fill="white" stroke="black" points="976.5,-73 976.5,-92 1155.5,-92 1155.5,-73 976.5,-73"/>
<text text-anchor="middle" x="1066" y="-80" font-family="Helvetica,sans-Serif" font-size="10.00">src/libs/vlayout/vlayoutpaper_p.h</text>
</a>
</g>
</g>
<!-- Node13&#45;&gt;Node18 -->
<g id="edge18" class="edge">
<title>Node13&#45;&gt;Node18</title>
<path fill="none" stroke="midnightblue" d="M1214.22,-136.44C1178.12,-123.54 1121.79,-103.42 1089.98,-92.06"/>
<polygon fill="midnightblue" stroke="midnightblue" points="1213.24,-139.8 1223.83,-139.87 1215.59,-133.21 1213.24,-139.8"/>
</g>
<!-- Node19 -->
<g id="node19" class="node">
<title>Node19</title>
<g id="a_node19"><a xlink:href="../../d1/dd1/vlayoutpaper_8cpp.html" target="_top" xlink:title=" ">
<polygon fill="white" stroke="black" points="977,-6 977,-25 1155,-25 1155,-6 977,-6"/>
<text text-anchor="middle" x="1066" y="-13" font-family="Helvetica,sans-Serif" font-size="10.00">src/libs/vlayout/vlayoutpaper.cpp</text>
</a>
</g>
</g>
<!-- Node13&#45;&gt;Node19 -->
<g id="edge20" class="edge">
<title>Node13&#45;&gt;Node19</title>
<path fill="none" stroke="midnightblue" d="M1185.48,-138.28C1103.76,-124.78 970.52,-102.21 967,-98 940.94,-66.83 1002.35,-38.68 1039.76,-25.09"/>
<polygon fill="midnightblue" stroke="midnightblue" points="1185.23,-141.79 1195.67,-139.96 1186.37,-134.88 1185.23,-141.79"/>
</g>
<!-- Node20 -->
<g id="node20" class="node">
<title>Node20</title>
<g id="a_node20"><a xlink:href="../../db/d5c/vposition_8h.html" target="_top" xlink:title=" ">
<polygon fill="white" stroke="red" points="1174,-73 1174,-92 1322,-92 1322,-73 1174,-73"/>
<text text-anchor="middle" x="1248" y="-80" font-family="Helvetica,sans-Serif" font-size="10.00">src/libs/vlayout/vposition.h</text>
</a>
</g>
</g>
<!-- Node13&#45;&gt;Node20 -->
<g id="edge21" class="edge">
<title>Node13&#45;&gt;Node20</title>
<path fill="none" stroke="midnightblue" d="M1248,-129.54C1248,-117.17 1248,-101.62 1248,-92.13"/>
<polygon fill="midnightblue" stroke="midnightblue" points="1244.5,-129.73 1248,-139.73 1251.5,-129.73 1244.5,-129.73"/>
</g>
<!-- Node22 -->
<g id="node21" class="node">
<title>Node22</title>
<g id="a_node21"><a xlink:href="../../dd/d70/vlayoutpiece_8cpp.html" target="_top" xlink:title=" ">
<polygon fill="white" stroke="black" points="1340.5,-73 1340.5,-92 1517.5,-92 1517.5,-73 1340.5,-73"/>
<text text-anchor="middle" x="1429" y="-80" font-family="Helvetica,sans-Serif" font-size="10.00">src/libs/vlayout/vlayoutpiece.cpp</text>
</a>
</g>
</g>
<!-- Node13&#45;&gt;Node22 -->
<g id="edge23" class="edge">
<title>Node13&#45;&gt;Node22</title>
<path fill="none" stroke="midnightblue" d="M1281.59,-136.44C1317.5,-123.54 1373.52,-103.42 1405.15,-92.06"/>
<polygon fill="midnightblue" stroke="midnightblue" points="1280.26,-133.19 1272.04,-139.87 1282.63,-139.78 1280.26,-133.19"/>
</g>
<!-- Node18&#45;&gt;Node19 -->
<g id="edge19" class="edge">
<title>Node18&#45;&gt;Node19</title>
<path fill="none" stroke="midnightblue" d="M1066,-62.54C1066,-50.17 1066,-34.62 1066,-25.13"/>
<polygon fill="midnightblue" stroke="midnightblue" points="1062.5,-62.73 1066,-72.73 1069.5,-62.73 1062.5,-62.73"/>
</g>
<!-- Node20&#45;&gt;Node19 -->
<g id="edge22" class="edge">
<title>Node20&#45;&gt;Node19</title>
<path fill="none" stroke="midnightblue" d="M1214.22,-69.44C1178.12,-56.54 1121.79,-36.42 1089.98,-25.06"/>
<polygon fill="midnightblue" stroke="midnightblue" points="1213.24,-72.8 1223.83,-72.87 1215.59,-66.21 1213.24,-72.8"/>
</g>
<!-- Node24&#45;&gt;Node9 -->
<g id="edge51" class="edge">
<title>Node24&#45;&gt;Node9</title>
<path fill="none" stroke="midnightblue" d="M3118.24,-148.06C2875.43,-146.36 2267.13,-138.08 1760,-98 1741.53,-96.54 1721.5,-94.3 1703.32,-92.02"/>
<polygon fill="midnightblue" stroke="midnightblue" points="3118.45,-151.56 3128.48,-148.13 3118.5,-144.56 3118.45,-151.56"/>
</g>
<!-- Node24&#45;&gt;Node22 -->
<g id="edge36" class="edge">
<title>Node24&#45;&gt;Node22</title>
<path fill="none" stroke="midnightblue" d="M3118.02,-146.97C2794.62,-142.12 1837.03,-125.77 1526,-98 1510.4,-96.61 1493.48,-94.34 1478.21,-92.01"/>
<polygon fill="midnightblue" stroke="midnightblue" points="3118.28,-150.47 3128.33,-147.12 3118.38,-143.48 3118.28,-150.47"/>
</g>
<!-- Node24&#45;&gt;Node23 -->
<g id="edge37" class="edge">
<title>Node24&#45;&gt;Node23</title>
<path fill="none" stroke="midnightblue" d="M3118.29,-147.98C2899.55,-146.09 2387.73,-137.43 1960,-98 1944.19,-96.54 1927.06,-94.3 1911.52,-92.02"/>
<polygon fill="midnightblue" stroke="midnightblue" points="3118.46,-151.48 3128.49,-148.06 3118.52,-144.48 3118.46,-151.48"/>
</g>
<!-- Node25 -->
<g id="node24" class="node">
<title>Node25</title>
<g id="a_node24"><a xlink:href="../../d4/d90/fvupdater_8cpp.html" target="_top" xlink:title=" ">
<polygon fill="white" stroke="black" points="1969.5,-73 1969.5,-92 2122.5,-92 2122.5,-73 1969.5,-73"/>
<text text-anchor="middle" x="2046" y="-80" font-family="Helvetica,sans-Serif" font-size="10.00">src/libs/fervor/fvupdater.cpp</text>
</a>
</g>
</g>
<!-- Node24&#45;&gt;Node25 -->
<g id="edge26" class="edge">
<title>Node24&#45;&gt;Node25</title>
<path fill="none" stroke="midnightblue" d="M3118.23,-147.91C2921.52,-145.87 2491.32,-136.89 2131,-98 2117.6,-96.55 2103.12,-94.33 2089.97,-92.06"/>
<polygon fill="midnightblue" stroke="midnightblue" points="3118.24,-151.41 3128.28,-148.01 3118.31,-144.41 3118.24,-151.41"/>
</g>
<!-- Node26 -->
<g id="node25" class="node">
<title>Node26</title>
<g id="a_node25"><a xlink:href="../../d9/dc8/dxiface_8cpp.html" target="_top" xlink:title=" ">
<polygon fill="white" stroke="black" points="2140.5,-73 2140.5,-92 2275.5,-92 2275.5,-73 2140.5,-73"/>
<text text-anchor="middle" x="2208" y="-80" font-family="Helvetica,sans-Serif" font-size="10.00">src/libs/vdxf/dxiface.cpp</text>
</a>
</g>
</g>
<!-- Node24&#45;&gt;Node26 -->
<g id="edge27" class="edge">
<title>Node24&#45;&gt;Node26</title>
<path fill="none" stroke="midnightblue" d="M3118.32,-147.44C2942.9,-144.67 2584.82,-134.59 2284,-98 2272,-96.54 2259.04,-94.31 2247.29,-92.04"/>
<polygon fill="midnightblue" stroke="midnightblue" points="3118.27,-150.94 3128.32,-147.6 3118.38,-143.95 3118.27,-150.94"/>
</g>
<!-- Node27 -->
<g id="node26" class="node">
<title>Node27</title>
<g id="a_node26"><a xlink:href="../../da/d75/vabstractarc__p_8h.html" target="_top" xlink:title=" ">
<polygon fill="white" stroke="red" points="2293.5,-67.5 2293.5,-97.5 2400.5,-97.5 2400.5,-67.5 2293.5,-67.5"/>
<text text-anchor="start" x="2301.5" y="-85.5" font-family="Helvetica,sans-Serif" font-size="10.00">src/libs/vgeometry</text>
<text text-anchor="middle" x="2347" y="-74.5" font-family="Helvetica,sans-Serif" font-size="10.00">/vabstractarc_p.h</text>
</a>
</g>
</g>
<!-- Node24&#45;&gt;Node27 -->
<g id="edge28" class="edge">
<title>Node24&#45;&gt;Node27</title>
<path fill="none" stroke="midnightblue" d="M3118.18,-147.59C2961.29,-144.96 2661.29,-135.03 2409,-98 2406.27,-97.6 2403.47,-97.14 2400.66,-96.63"/>
<polygon fill="midnightblue" stroke="midnightblue" points="3118.25,-151.09 3128.3,-147.75 3118.36,-144.09 3118.25,-151.09"/>
</g>
<!-- Node29 -->
<g id="node27" class="node">
<title>Node29</title>
<g id="a_node27"><a xlink:href="../../dc/da3/varc__p_8h.html" target="_top" xlink:title=" ">
<polygon fill="white" stroke="red" points="2418.5,-67.5 2418.5,-97.5 2525.5,-97.5 2525.5,-67.5 2418.5,-67.5"/>
<text text-anchor="start" x="2426.5" y="-85.5" font-family="Helvetica,sans-Serif" font-size="10.00">src/libs/vgeometry</text>
<text text-anchor="middle" x="2472" y="-74.5" font-family="Helvetica,sans-Serif" font-size="10.00">/varc_p.h</text>
</a>
</g>
</g>
<!-- Node24&#45;&gt;Node29 -->
<g id="edge29" class="edge">
<title>Node24&#45;&gt;Node29</title>
<path fill="none" stroke="midnightblue" d="M3118.28,-145.87C2981.67,-141.33 2739.19,-129.28 2534,-98 2531.27,-97.58 2528.48,-97.11 2525.67,-96.59"/>
<polygon fill="midnightblue" stroke="midnightblue" points="3118.23,-149.37 3128.34,-146.19 3118.45,-142.37 3118.23,-149.37"/>
</g>
<!-- Node31 -->
<g id="node28" class="node">
<title>Node31</title>
<g id="a_node28"><a xlink:href="../../d5/d8e/vcubicbezier__p_8h.html" target="_top" xlink:title=" ">
<polygon fill="white" stroke="red" points="2543.5,-67.5 2543.5,-97.5 2650.5,-97.5 2650.5,-67.5 2543.5,-67.5"/>
<text text-anchor="start" x="2551.5" y="-85.5" font-family="Helvetica,sans-Serif" font-size="10.00">src/libs/vgeometry</text>
<text text-anchor="middle" x="2597" y="-74.5" font-family="Helvetica,sans-Serif" font-size="10.00">/vcubicbezier_p.h</text>
</a>
</g>
</g>
<!-- Node24&#45;&gt;Node31 -->
<g id="edge30" class="edge">
<title>Node24&#45;&gt;Node31</title>
<path fill="none" stroke="midnightblue" d="M3118.22,-142.66C3004.93,-135.62 2821.75,-121.68 2665,-98 2660.35,-97.3 2655.53,-96.47 2650.71,-95.58"/>
<polygon fill="midnightblue" stroke="midnightblue" points="3118.08,-146.16 3128.28,-143.28 3118.51,-139.17 3118.08,-146.16"/>
</g>
<!-- Node33 -->
<g id="node29" class="node">
<title>Node33</title>
<g id="a_node29"><a xlink:href="../../df/dde/vellipticalarc__p_8h.html" target="_top" xlink:title=" ">
<polygon fill="white" stroke="black" points="2707.5,-67.5 2707.5,-97.5 2814.5,-97.5 2814.5,-67.5 2707.5,-67.5"/>
<text text-anchor="start" x="2715.5" y="-85.5" font-family="Helvetica,sans-Serif" font-size="10.00">src/libs/vgeometry</text>
<text text-anchor="middle" x="2761" y="-74.5" font-family="Helvetica,sans-Serif" font-size="10.00">/vellipticalarc_p.h</text>
</a>
</g>
</g>
<!-- Node24&#45;&gt;Node33 -->
<g id="edge31" class="edge">
<title>Node24&#45;&gt;Node33</title>
<path fill="none" stroke="midnightblue" d="M3127.12,-138.9C3045.49,-130.3 2926.78,-116.24 2824,-98 2820.91,-97.45 2817.73,-96.85 2814.54,-96.21"/>
<polygon fill="midnightblue" stroke="midnightblue" points="3127.08,-142.41 3137.39,-139.97 3127.81,-135.45 3127.08,-142.41"/>
</g>
<!-- Node34 -->
<g id="node30" class="node">
<title>Node34</title>
<g id="a_node30"><a xlink:href="../../d6/dfb/vellipticalarc_8cpp.html" target="_top" xlink:title=" ">
<polygon fill="white" stroke="black" points="2666.5,-0.5 2666.5,-30.5 2773.5,-30.5 2773.5,-0.5 2666.5,-0.5"/>
<text text-anchor="start" x="2674.5" y="-18.5" font-family="Helvetica,sans-Serif" font-size="10.00">src/libs/vgeometry</text>
<text text-anchor="middle" x="2720" y="-7.5" font-family="Helvetica,sans-Serif" font-size="10.00">/vellipticalarc.cpp</text>
</a>
</g>
</g>
<!-- Node24&#45;&gt;Node34 -->
<g id="edge33" class="edge">
<title>Node24&#45;&gt;Node34</title>
<path fill="none" stroke="midnightblue" d="M3118.15,-145.77C2972.16,-140.94 2726.6,-128.37 2699,-98 2682,-79.29 2697.57,-48.65 2709.45,-30.75"/>
<polygon fill="midnightblue" stroke="midnightblue" points="3118.38,-149.28 3128.48,-146.1 3118.6,-142.28 3118.38,-149.28"/>
</g>
<!-- Node35 -->
<g id="node31" class="node">
<title>Node35</title>
<g id="a_node31"><a xlink:href="../../d1/d76/vspline__p_8h.html" target="_top" xlink:title=" ">
<polygon fill="white" stroke="red" points="2832.5,-67.5 2832.5,-97.5 2939.5,-97.5 2939.5,-67.5 2832.5,-67.5"/>
<text text-anchor="start" x="2840.5" y="-85.5" font-family="Helvetica,sans-Serif" font-size="10.00">src/libs/vgeometry</text>
<text text-anchor="middle" x="2886" y="-74.5" font-family="Helvetica,sans-Serif" font-size="10.00">/vspline_p.h</text>
</a>
</g>
</g>
<!-- Node24&#45;&gt;Node35 -->
<g id="edge34" class="edge">
<title>Node24&#45;&gt;Node35</title>
<path fill="none" stroke="midnightblue" d="M3165.17,-138.24C3108.95,-128.56 3023.14,-113.28 2949,-98 2945.92,-97.37 2942.76,-96.7 2939.58,-96.01"/>
<polygon fill="midnightblue" stroke="midnightblue" points="3164.87,-141.74 3175.32,-139.98 3166.06,-134.84 3164.87,-141.74"/>
</g>
<!-- Node37 -->
<g id="node32" class="node">
<title>Node37</title>
<g id="a_node32"><a xlink:href="../../d9/d15/vabstractpiece_8cpp.html" target="_top" xlink:title=" ">
<polygon fill="white" stroke="black" points="2958,-73 2958,-92 3144,-92 3144,-73 2958,-73"/>
<text text-anchor="middle" x="3051" y="-80" font-family="Helvetica,sans-Serif" font-size="10.00">src/libs/vlayout/vabstractpiece.cpp</text>
</a>
</g>
</g>
<!-- Node24&#45;&gt;Node37 -->
<g id="edge35" class="edge">
<title>Node24&#45;&gt;Node37</title>
<path fill="none" stroke="midnightblue" d="M3193.07,-136.27C3158.34,-123.37 3104.51,-103.38 3074.06,-92.06"/>
<polygon fill="midnightblue" stroke="midnightblue" points="3192.17,-139.67 3202.76,-139.87 3194.61,-133.11 3192.17,-139.67"/>
</g>
<!-- Node38 -->
<g id="node33" class="node">
<title>Node38</title>
<g id="a_node33"><a xlink:href="../../db/d65/dialogexporttocsv_8cpp.html" target="_top" xlink:title=" ">
<polygon fill="white" stroke="black" points="3162.5,-67.5 3162.5,-97.5 3289.5,-97.5 3289.5,-67.5 3162.5,-67.5"/>
<text text-anchor="start" x="3170.5" y="-85.5" font-family="Helvetica,sans-Serif" font-size="10.00">src/libs/vmisc/dialogs</text>
<text text-anchor="middle" x="3226" y="-74.5" font-family="Helvetica,sans-Serif" font-size="10.00">/dialogexporttocsv.cpp</text>
</a>
</g>
</g>
<!-- Node24&#45;&gt;Node38 -->
<g id="edge38" class="edge">
<title>Node24&#45;&gt;Node38</title>
<path fill="none" stroke="midnightblue" d="M3226,-129.41C3226,-119.22 3226,-106.9 3226,-97.59"/>
<polygon fill="midnightblue" stroke="midnightblue" points="3222.5,-129.73 3226,-139.73 3229.5,-129.73 3222.5,-129.73"/>
</g>
<!-- Node39 -->
<g id="node34" class="node">
<title>Node39</title>
<g id="a_node34"><a xlink:href="../../d0/df6/vabstractapplication_8cpp.html" target="_top" xlink:title=" ">
<polygon fill="white" stroke="black" points="3308,-73 3308,-92 3514,-92 3514,-73 3308,-73"/>
<text text-anchor="middle" x="3411" y="-80" font-family="Helvetica,sans-Serif" font-size="10.00">src/libs/vmisc/vabstractapplication.cpp</text>
</a>
</g>
</g>
<!-- Node24&#45;&gt;Node39 -->
<g id="edge39" class="edge">
<title>Node24&#45;&gt;Node39</title>
<path fill="none" stroke="midnightblue" d="M3260.34,-136.44C3297.04,-123.54 3354.29,-103.42 3386.63,-92.06"/>
<polygon fill="midnightblue" stroke="midnightblue" points="3258.84,-133.25 3250.57,-139.87 3261.16,-139.86 3258.84,-133.25"/>
</g>
<!-- Node40 -->
<g id="node35" class="node">
<title>Node40</title>
<g id="a_node35"><a xlink:href="../../d6/d0b/def_8cpp.html" target="_top" xlink:title=" ">
<polygon fill="white" stroke="black" points="3532,-73 3532,-92 3654,-92 3654,-73 3532,-73"/>
<text text-anchor="middle" x="3593" y="-80" font-family="Helvetica,sans-Serif" font-size="10.00">src/libs/vmisc/def.cpp</text>
</a>
</g>
</g>
<!-- Node24&#45;&gt;Node40 -->
<g id="edge40" class="edge">
<title>Node24&#45;&gt;Node40</title>
<path fill="none" stroke="midnightblue" d="M3289.6,-138.36C3349.82,-128.6 3442.71,-113.14 3523,-98 3532.76,-96.16 3543.25,-94.05 3553.07,-92.03"/>
<polygon fill="midnightblue" stroke="midnightblue" points="3288.8,-134.95 3279.49,-140 3289.92,-141.86 3288.8,-134.95"/>
</g>
<!-- Node41 -->
<g id="node36" class="node">
<title>Node41</title>
<g id="a_node36"><a xlink:href="../../d4/d4f/pmsystems_8cpp.html" target="_top" xlink:title=" ">
<polygon fill="white" stroke="black" points="3672.5,-67.5 3672.5,-97.5 3779.5,-97.5 3779.5,-67.5 3672.5,-67.5"/>
<text text-anchor="start" x="3680.5" y="-85.5" font-family="Helvetica,sans-Serif" font-size="10.00">src/libs/vpatterndb</text>
<text text-anchor="middle" x="3726" y="-74.5" font-family="Helvetica,sans-Serif" font-size="10.00">/pmsystems.cpp</text>
</a>
</g>
</g>
<!-- Node24&#45;&gt;Node41 -->
<g id="edge41" class="edge">
<title>Node24&#45;&gt;Node41</title>
<path fill="none" stroke="midnightblue" d="M3333.72,-139.42C3422.46,-131.13 3551.39,-117.23 3663,-98 3666.1,-97.47 3669.27,-96.88 3672.47,-96.25"/>
<polygon fill="midnightblue" stroke="midnightblue" points="3333.27,-135.94 3323.64,-140.35 3333.92,-142.91 3333.27,-135.94"/>
</g>
<!-- Node24&#45;&gt;Node42 -->
<g id="edge42" class="edge">
<title>Node24&#45;&gt;Node42</title>
<path fill="none" stroke="midnightblue" d="M3333.83,-144.72C3628.05,-134.35 4426.59,-105.66 4483,-98 4485.74,-97.63 4488.53,-97.19 4491.35,-96.7"/>
<polygon fill="midnightblue" stroke="midnightblue" points="3333.44,-141.24 3323.57,-145.09 3333.69,-148.23 3333.44,-141.24"/>
</g>
<!-- Node24&#45;&gt;Node43 -->
<g id="edge43" class="edge">
<title>Node24&#45;&gt;Node43</title>
<path fill="none" stroke="midnightblue" d="M3333.84,-144.84C3653.63,-133.94 4576.54,-102.21 4608,-98 4610.74,-97.63 4613.53,-97.2 4616.35,-96.72"/>
<polygon fill="midnightblue" stroke="midnightblue" points="3333.51,-141.35 3323.63,-145.18 3333.75,-148.34 3333.51,-141.35"/>
</g>
<!-- Node44 -->
<g id="node39" class="node">
<title>Node44</title>
<g id="a_node39"><a xlink:href="../../df/dba/vpiecenode__p_8h.html" target="_top" xlink:title=" ">
<polygon fill="white" stroke="black" points="3797.5,-67.5 3797.5,-97.5 3904.5,-97.5 3904.5,-67.5 3797.5,-67.5"/>
<text text-anchor="start" x="3805.5" y="-85.5" font-family="Helvetica,sans-Serif" font-size="10.00">src/libs/vpatterndb</text>
<text text-anchor="middle" x="3851" y="-74.5" font-family="Helvetica,sans-Serif" font-size="10.00">/vpiecenode_p.h</text>
</a>
</g>
</g>
<!-- Node24&#45;&gt;Node44 -->
<g id="edge44" class="edge">
<title>Node24&#45;&gt;Node44</title>
<path fill="none" stroke="midnightblue" d="M3333.75,-143.34C3447.48,-136.84 3631.7,-123.32 3789,-98 3791.73,-97.56 3794.52,-97.07 3797.32,-96.54"/>
<polygon fill="midnightblue" stroke="midnightblue" points="3333.44,-139.85 3323.65,-143.9 3333.83,-146.84 3333.44,-139.85"/>
</g>
<!-- Node24&#45;&gt;Node46 -->
<g id="edge46" class="edge">
<title>Node24&#45;&gt;Node46</title>
<path fill="none" stroke="midnightblue" d="M3333.92,-145.57C3655.76,-136.72 4595.07,-110.18 4733,-98 4748.44,-96.64 4765.12,-94.51 4780.4,-92.3"/>
<polygon fill="midnightblue" stroke="midnightblue" points="3333.56,-142.07 3323.66,-145.85 3333.75,-149.07 3333.56,-142.07"/>
</g>
<!-- Node47 -->
<g id="node42" class="node">
<title>Node47</title>
<g id="a_node42"><a xlink:href="../../de/d3e/vtranslatevars_8cpp.html" target="_top" xlink:title=" ">
<polygon fill="white" stroke="black" points="3923,-67.5 3923,-97.5 4033,-97.5 4033,-67.5 3923,-67.5"/>
<text text-anchor="start" x="3931" y="-85.5" font-family="Helvetica,sans-Serif" font-size="10.00">src/libs/vpatterndb</text>
<text text-anchor="middle" x="3978" y="-74.5" font-family="Helvetica,sans-Serif" font-size="10.00">/vtranslatevars.cpp</text>
</a>
</g>
</g>
<!-- Node24&#45;&gt;Node47 -->
<g id="edge47" class="edge">
<title>Node24&#45;&gt;Node47</title>
<path fill="none" stroke="midnightblue" d="M3333.64,-145.58C3469.53,-140.75 3710.17,-128.4 3914,-98 3916.93,-97.56 3919.92,-97.07 3922.94,-96.52"/>
<polygon fill="midnightblue" stroke="midnightblue" points="3333.51,-142.08 3323.64,-145.93 3333.75,-149.07 3333.51,-142.08"/>
</g>
<!-- Node48 -->
<g id="node43" class="node">
<title>Node48</title>
<g id="a_node43"><a xlink:href="../../d3/d4f/mouse__coordinates_8cpp.html" target="_top" xlink:title=" ">
<polygon fill="white" stroke="black" points="4051,-67.5 4051,-97.5 4185,-97.5 4185,-67.5 4051,-67.5"/>
<text text-anchor="start" x="4059" y="-85.5" font-family="Helvetica,sans-Serif" font-size="10.00">src/libs/vwidgets/mouse</text>
<text text-anchor="middle" x="4118" y="-74.5" font-family="Helvetica,sans-Serif" font-size="10.00">_coordinates.cpp</text>
</a>
</g>
</g>
<!-- Node24&#45;&gt;Node48 -->
<g id="edge48" class="edge">
<title>Node24&#45;&gt;Node48</title>
<path fill="none" stroke="midnightblue" d="M3333.82,-146.17C3490.37,-141.81 3789.48,-129.77 4042,-98 4044.93,-97.63 4047.92,-97.22 4050.94,-96.77"/>
<polygon fill="midnightblue" stroke="midnightblue" points="3333.62,-142.68 3323.72,-146.45 3333.81,-149.68 3333.62,-142.68"/>
</g>
<!-- Node49 -->
<g id="node44" class="node">
<title>Node49</title>
<g id="a_node44"><a xlink:href="../../df/d40/export__format__combobox_8cpp.html" target="_top" xlink:title=" ">
<polygon fill="white" stroke="black" points="4203.5,-67.5 4203.5,-97.5 4336.5,-97.5 4336.5,-67.5 4203.5,-67.5"/>
<text text-anchor="start" x="4211.5" y="-85.5" font-family="Helvetica,sans-Serif" font-size="10.00">src/libs/vwidgets/export</text>
<text text-anchor="middle" x="4270" y="-74.5" font-family="Helvetica,sans-Serif" font-size="10.00">_format_combobox.cpp</text>
</a>
</g>
</g>
<!-- Node24&#45;&gt;Node49 -->
<g id="edge49" class="edge">
<title>Node24&#45;&gt;Node49</title>
<path fill="none" stroke="midnightblue" d="M3333.98,-144.73C3550.37,-136.86 4030.37,-117.78 4194,-98 4197.07,-97.63 4200.2,-97.21 4203.35,-96.75"/>
<polygon fill="midnightblue" stroke="midnightblue" points="3333.74,-141.23 3323.87,-145.09 3333.99,-148.23 3333.74,-141.23"/>
</g>
<!-- Node50 -->
<g id="node45" class="node">
<title>Node50</title>
<g id="a_node45"><a xlink:href="../../d7/d1b/pen__toolbar_8cpp.html" target="_top" xlink:title=" ">
<polygon fill="white" stroke="black" points="4354.5,-67.5 4354.5,-97.5 4473.5,-97.5 4473.5,-67.5 4354.5,-67.5"/>
<text text-anchor="start" x="4362.5" y="-85.5" font-family="Helvetica,sans-Serif" font-size="10.00">src/libs/vwidgets/pen</text>
<text text-anchor="middle" x="4414" y="-74.5" font-family="Helvetica,sans-Serif" font-size="10.00">_toolbar.cpp</text>
</a>
</g>
</g>
<!-- Node24&#45;&gt;Node50 -->
<g id="edge50" class="edge">
<title>Node24&#45;&gt;Node50</title>
<path fill="none" stroke="midnightblue" d="M3334.05,-144.65C3595.42,-135.17 4247.59,-110.62 4346,-98 4348.75,-97.65 4351.56,-97.24 4354.39,-96.79"/>
<polygon fill="midnightblue" stroke="midnightblue" points="3333.66,-141.16 3323.79,-145.02 3333.91,-148.15 3333.66,-141.16"/>
</g>
<!-- Node33&#45;&gt;Node34 -->
<g id="edge32" class="edge">
<title>Node33&#45;&gt;Node34</title>
<path fill="none" stroke="midnightblue" d="M2746.72,-58.87C2740.79,-49.46 2734.09,-38.83 2728.88,-30.58"/>
<polygon fill="midnightblue" stroke="midnightblue" points="2743.81,-60.81 2752.1,-67.4 2749.73,-57.07 2743.81,-60.81"/>
</g>
<!-- Node44&#45;&gt;Node45 -->
<g id="edge45" class="edge">
<title>Node44&#45;&gt;Node45</title>
<path fill="none" stroke="midnightblue" d="M3914.67,-67C4039.54,-44.9 4174.22,-29.5 4247.22,-21.86"/>
<polygon fill="midnightblue" stroke="midnightblue" points="3913.77,-63.6 3904.54,-68.81 3915,-70.49 3913.77,-63.6"/>
</g>
</g>
</svg>
