<?xml version="1.0" encoding="UTF-8" standalone="no"?>
<!DOCTYPE svg PUBLIC "-//W3C//DTD SVG 1.1//EN"
 "http://www.w3.org/Graphics/SVG/1.1/DTD/svg11.dtd">
<!-- Generated by graphviz version 2.43.0 (0)
 -->
<!-- Title: src/libs/vgeometry/vabstractcubicbezierpath.h Pages: 1 -->
<svg width="4872pt" height="307pt"
 viewBox="0.00 0.00 4871.99 307.00" xmlns="http://www.w3.org/2000/svg" xmlns:xlink="http://www.w3.org/1999/xlink">
<g id="graph0" class="graph" transform="scale(1 1) rotate(0) translate(4 303)">
<title>src/libs/vgeometry/vabstractcubicbezierpath.h</title>
<polygon fill="white" stroke="transparent" points="-4,4 -4,-303 4867.99,-303 4867.99,4 -4,4"/>
<!-- Node1 -->
<g id="node1" class="node">
<title>Node1</title>
<g id="a_node1"><a xlink:title=" ">
<polygon fill="#bfbfbf" stroke="black" points="703.99,-268.5 703.99,-298.5 855.99,-298.5 855.99,-268.5 703.99,-268.5"/>
<text text-anchor="start" x="711.99" y="-286.5" font-family="Helvetica,sans-Serif" font-size="10.00">src/libs/vgeometry</text>
<text text-anchor="middle" x="779.99" y="-275.5" font-family="Helvetica,sans-Serif" font-size="10.00">/vabstractcubicbezierpath.h</text>
</a>
</g>
</g>
<!-- Node2 -->
<g id="node2" class="node">
<title>Node2</title>
<g id="a_node2"><a xlink:href="../../db/d0a/vabstractcubicbezierpath_8cpp.html" target="_top" xlink:title=" ">
<polygon fill="white" stroke="black" points="414.49,-201.5 414.49,-231.5 577.49,-231.5 577.49,-201.5 414.49,-201.5"/>
<text text-anchor="start" x="422.49" y="-219.5" font-family="Helvetica,sans-Serif" font-size="10.00">src/libs/vgeometry</text>
<text text-anchor="middle" x="495.99" y="-208.5" font-family="Helvetica,sans-Serif" font-size="10.00">/vabstractcubicbezierpath.cpp</text>
</a>
</g>
</g>
<!-- Node1&#45;&gt;Node2 -->
<g id="edge1" class="edge">
<title>Node1&#45;&gt;Node2</title>
<path fill="none" stroke="midnightblue" d="M708.71,-266.19C662.2,-255.54 602.1,-241.78 557.65,-231.61"/>
<polygon fill="midnightblue" stroke="midnightblue" points="708.19,-269.66 718.72,-268.48 709.75,-262.83 708.19,-269.66"/>
</g>
<!-- Node3 -->
<g id="node3" class="node">
<title>Node3</title>
<g id="a_node3"><a xlink:href="../../dd/dbe/vcubicbezierpath_8h.html" target="_top" xlink:title=" ">
<polygon fill="white" stroke="black" points="595.99,-201.5 595.99,-231.5 707.99,-231.5 707.99,-201.5 595.99,-201.5"/>
<text text-anchor="start" x="603.99" y="-219.5" font-family="Helvetica,sans-Serif" font-size="10.00">src/libs/vgeometry</text>
<text text-anchor="middle" x="651.99" y="-208.5" font-family="Helvetica,sans-Serif" font-size="10.00">/vcubicbezierpath.h</text>
</a>
</g>
</g>
<!-- Node1&#45;&gt;Node3 -->
<g id="edge2" class="edge">
<title>Node1&#45;&gt;Node3</title>
<path fill="none" stroke="midnightblue" d="M743.27,-263.85C723.04,-253.58 698.32,-241.03 679.71,-231.58"/>
<polygon fill="midnightblue" stroke="midnightblue" points="741.72,-266.99 752.22,-268.4 744.89,-260.75 741.72,-266.99"/>
</g>
<!-- Node5 -->
<g id="node5" class="node">
<title>Node5</title>
<g id="a_node5"><a xlink:href="../../d0/d39/vsplinepath_8h.html" target="_top" xlink:title=" ">
<polygon fill="white" stroke="black" points="726.49,-201.5 726.49,-231.5 833.49,-231.5 833.49,-201.5 726.49,-201.5"/>
<text text-anchor="start" x="734.49" y="-219.5" font-family="Helvetica,sans-Serif" font-size="10.00">src/libs/vgeometry</text>
<text text-anchor="middle" x="779.99" y="-208.5" font-family="Helvetica,sans-Serif" font-size="10.00">/vsplinepath.h</text>
</a>
</g>
</g>
<!-- Node1&#45;&gt;Node5 -->
<g id="edge4" class="edge">
<title>Node1&#45;&gt;Node5</title>
<path fill="none" stroke="midnightblue" d="M779.99,-258.11C779.99,-249.15 779.99,-239.32 779.99,-231.58"/>
<polygon fill="midnightblue" stroke="midnightblue" points="776.49,-258.4 779.99,-268.4 783.49,-258.4 776.49,-258.4"/>
</g>
<!-- Node10 -->
<g id="node10" class="node">
<title>Node10</title>
<g id="a_node10"><a xlink:href="../../d3/df7/vcontainer_8h.html" target="_top" xlink:title=" ">
<polygon fill="white" stroke="black" points="1545.49,-201.5 1545.49,-231.5 1652.49,-231.5 1652.49,-201.5 1545.49,-201.5"/>
<text text-anchor="start" x="1553.49" y="-219.5" font-family="Helvetica,sans-Serif" font-size="10.00">src/libs/vpatterndb</text>
<text text-anchor="middle" x="1598.99" y="-208.5" font-family="Helvetica,sans-Serif" font-size="10.00">/vcontainer.h</text>
</a>
</g>
</g>
<!-- Node1&#45;&gt;Node10 -->
<g id="edge9" class="edge">
<title>Node1&#45;&gt;Node10</title>
<path fill="none" stroke="midnightblue" d="M866.43,-275.64C1035.76,-262.2 1406.73,-232.76 1545.34,-221.76"/>
<polygon fill="midnightblue" stroke="midnightblue" points="866,-272.16 856.31,-276.44 866.55,-279.14 866,-272.16"/>
</g>
<!-- Node43 -->
<g id="node38" class="node">
<title>Node43</title>
<g id="a_node38"><a xlink:href="../../d6/d46/vcontainer_8cpp.html" target="_top" xlink:title=" ">
<polygon fill="white" stroke="black" points="3436.49,-67.5 3436.49,-97.5 3543.49,-97.5 3543.49,-67.5 3436.49,-67.5"/>
<text text-anchor="start" x="3444.49" y="-85.5" font-family="Helvetica,sans-Serif" font-size="10.00">src/libs/vpatterndb</text>
<text text-anchor="middle" x="3489.99" y="-74.5" font-family="Helvetica,sans-Serif" font-size="10.00">/vcontainer.cpp</text>
</a>
</g>
</g>
<!-- Node1&#45;&gt;Node43 -->
<g id="edge62" class="edge">
<title>Node1&#45;&gt;Node43</title>
<path fill="none" stroke="midnightblue" d="M866.25,-278.09C1024.17,-269.91 1370.36,-251.41 1661.99,-232 2447.4,-179.72 2650.01,-217.76 3427.99,-98 3430.72,-97.58 3433.51,-97.1 3436.32,-96.59"/>
<polygon fill="midnightblue" stroke="midnightblue" points="865.92,-274.61 856.12,-278.62 866.29,-281.6 865.92,-274.61"/>
</g>
<!-- Node4 -->
<g id="node4" class="node">
<title>Node4</title>
<g id="a_node4"><a xlink:href="../../de/df0/vcubicbezierpath_8cpp.html" target="_top" xlink:title=" ">
<polygon fill="white" stroke="black" points="287.49,-134.5 287.49,-164.5 410.49,-164.5 410.49,-134.5 287.49,-134.5"/>
<text text-anchor="start" x="295.49" y="-152.5" font-family="Helvetica,sans-Serif" font-size="10.00">src/libs/vgeometry</text>
<text text-anchor="middle" x="348.99" y="-141.5" font-family="Helvetica,sans-Serif" font-size="10.00">/vcubicbezierpath.cpp</text>
</a>
</g>
</g>
<!-- Node3&#45;&gt;Node4 -->
<g id="edge3" class="edge">
<title>Node3&#45;&gt;Node4</title>
<path fill="none" stroke="midnightblue" d="M585.9,-200.77C520.52,-186.57 456.39,-173.01 410.67,-163.4"/>
<polygon fill="midnightblue" stroke="midnightblue" points="585.47,-204.26 595.98,-202.97 586.95,-197.42 585.47,-204.26"/>
</g>
<!-- Node6 -->
<g id="node6" class="node">
<title>Node6</title>
<g id="a_node6"><a xlink:href="../../db/d6a/vsplinepath_8cpp.html" target="_top" xlink:title=" ">
<polygon fill="white" stroke="black" points="650.49,-134.5 650.49,-164.5 757.49,-164.5 757.49,-134.5 650.49,-134.5"/>
<text text-anchor="start" x="658.49" y="-152.5" font-family="Helvetica,sans-Serif" font-size="10.00">src/libs/vgeometry</text>
<text text-anchor="middle" x="703.99" y="-141.5" font-family="Helvetica,sans-Serif" font-size="10.00">/vsplinepath.cpp</text>
</a>
</g>
</g>
<!-- Node5&#45;&gt;Node6 -->
<g id="edge5" class="edge">
<title>Node5&#45;&gt;Node6</title>
<path fill="none" stroke="midnightblue" d="M755.89,-194.88C744.34,-185.01 730.8,-173.43 720.45,-164.58"/>
<polygon fill="midnightblue" stroke="midnightblue" points="753.63,-197.56 763.5,-201.4 758.18,-192.24 753.63,-197.56"/>
</g>
<!-- Node7 -->
<g id="node7" class="node">
<title>Node7</title>
<g id="a_node7"><a xlink:href="../../d1/d3a/abstracttest_8cpp.html" target="_top" xlink:title=" ">
<polygon fill="white" stroke="black" points="775.49,-140 775.49,-159 936.49,-159 936.49,-140 775.49,-140"/>
<text text-anchor="middle" x="855.99" y="-147" font-family="Helvetica,sans-Serif" font-size="10.00">src/libs/vtest/abstracttest.cpp</text>
</a>
</g>
</g>
<!-- Node5&#45;&gt;Node7 -->
<g id="edge6" class="edge">
<title>Node5&#45;&gt;Node7</title>
<path fill="none" stroke="midnightblue" d="M804.35,-194.67C818.38,-182.67 835.27,-168.22 845.83,-159.19"/>
<polygon fill="midnightblue" stroke="midnightblue" points="801.81,-192.24 796.48,-201.4 806.36,-197.56 801.81,-192.24"/>
</g>
<!-- Node8 -->
<g id="node8" class="node">
<title>Node8</title>
<g id="a_node8"><a xlink:href="../../d8/d13/vcontrolpointspline_8h.html" target="_top" xlink:title=" ">
<polygon fill="white" stroke="black" points="428.99,-140 428.99,-159 632.99,-159 632.99,-140 428.99,-140"/>
<text text-anchor="middle" x="530.99" y="-147" font-family="Helvetica,sans-Serif" font-size="10.00">src/libs/vwidgets/vcontrolpointspline.h</text>
</a>
</g>
</g>
<!-- Node5&#45;&gt;Node8 -->
<g id="edge7" class="edge">
<title>Node5&#45;&gt;Node8</title>
<path fill="none" stroke="midnightblue" d="M716.44,-198.91C667.68,-186.18 602.35,-169.13 563.66,-159.03"/>
<polygon fill="midnightblue" stroke="midnightblue" points="715.71,-202.34 726.27,-201.48 717.48,-195.56 715.71,-202.34"/>
</g>
<!-- Node9 -->
<g id="node9" class="node">
<title>Node9</title>
<g id="a_node9"><a xlink:href="../../de/d45/vcontrolpointspline_8cpp.html" target="_top" xlink:title=" ">
<polygon fill="white" stroke="black" points="16.49,-73 16.49,-92 231.49,-92 231.49,-73 16.49,-73"/>
<text text-anchor="middle" x="123.99" y="-80" font-family="Helvetica,sans-Serif" font-size="10.00">src/libs/vwidgets/vcontrolpointspline.cpp</text>
</a>
</g>
</g>
<!-- Node8&#45;&gt;Node9 -->
<g id="edge8" class="edge">
<title>Node8&#45;&gt;Node9</title>
<path fill="none" stroke="midnightblue" d="M467.44,-138.35C387.63,-125.6 252.14,-103.96 177.42,-92.03"/>
<polygon fill="midnightblue" stroke="midnightblue" points="466.94,-141.81 477.37,-139.94 468.04,-134.9 466.94,-141.81"/>
</g>
<!-- Node10&#45;&gt;Node7 -->
<g id="edge60" class="edge">
<title>Node10&#45;&gt;Node7</title>
<path fill="none" stroke="midnightblue" d="M1534.87,-212.3C1417.66,-206.06 1161.09,-190.6 945.99,-165 932.48,-163.39 917.89,-161.23 904.47,-159.06"/>
<polygon fill="midnightblue" stroke="midnightblue" points="1534.92,-215.81 1545.09,-212.84 1535.29,-208.82 1534.92,-215.81"/>
</g>
<!-- Node11 -->
<g id="node11" class="node">
<title>Node11</title>
<g id="a_node11"><a xlink:href="../../d4/dd6/vmeasurements_8h.html" target="_top" xlink:title=" ">
<polygon fill="white" stroke="black" points="1895.49,-140 1895.49,-159 2080.49,-159 2080.49,-140 1895.49,-140"/>
<text text-anchor="middle" x="1987.99" y="-147" font-family="Helvetica,sans-Serif" font-size="10.00">src/libs/vformat/vmeasurements.h</text>
</a>
</g>
</g>
<!-- Node10&#45;&gt;Node11 -->
<g id="edge10" class="edge">
<title>Node10&#45;&gt;Node11</title>
<path fill="none" stroke="midnightblue" d="M1662.68,-204.86C1739.35,-192.05 1866.54,-170.79 1937.03,-159.02"/>
<polygon fill="midnightblue" stroke="midnightblue" points="1661.96,-201.43 1652.67,-206.53 1663.11,-208.33 1661.96,-201.43"/>
</g>
<!-- Node12 -->
<g id="node12" class="node">
<title>Node12</title>
<g id="a_node12"><a xlink:href="../../de/db3/vmeasurements_8cpp.html" target="_top" xlink:title=" ">
<polygon fill="white" stroke="black" points="3222.99,-73 3222.99,-92 3418.99,-92 3418.99,-73 3222.99,-73"/>
<text text-anchor="middle" x="3320.99" y="-80" font-family="Helvetica,sans-Serif" font-size="10.00">src/libs/vformat/vmeasurements.cpp</text>
</a>
</g>
</g>
<!-- Node10&#45;&gt;Node12 -->
<g id="edge12" class="edge">
<title>Node10&#45;&gt;Node12</title>
<path fill="none" stroke="midnightblue" d="M1662.71,-213.12C1777.35,-208.14 2013.58,-194.56 2089.99,-165 2111.63,-156.63 2110.08,-141.62 2131.99,-134 2245.61,-94.5 3094.13,-108.09 3213.99,-98 3230.99,-96.57 3249.43,-94.32 3266.13,-92.02"/>
<polygon fill="midnightblue" stroke="midnightblue" points="1662.51,-209.62 1652.67,-213.54 1662.81,-216.61 1662.51,-209.62"/>
</g>
<!-- Node13 -->
<g id="node13" class="node">
<title>Node13</title>
<g id="a_node13"><a xlink:href="../../d6/de0/vlayoutpiece_8h.html" target="_top" xlink:title=" ">
<polygon fill="white" stroke="black" points="4152.99,-140 4152.99,-159 4318.99,-159 4318.99,-140 4152.99,-140"/>
<text text-anchor="middle" x="4235.99" y="-147" font-family="Helvetica,sans-Serif" font-size="10.00">src/libs/vlayout/vlayoutpiece.h</text>
</a>
</g>
</g>
<!-- Node10&#45;&gt;Node13 -->
<g id="edge13" class="edge">
<title>Node10&#45;&gt;Node13</title>
<path fill="none" stroke="midnightblue" d="M1662.66,-213.93C2017.69,-205.18 3751.28,-162.45 4152.84,-152.55"/>
<polygon fill="midnightblue" stroke="midnightblue" points="1662.47,-210.43 1652.56,-214.18 1662.65,-217.43 1662.47,-210.43"/>
</g>
<!-- Node23 -->
<g id="node22" class="node">
<title>Node23</title>
<g id="a_node22"><a xlink:href="../../d8/d70/vtextmanager_8cpp.html" target="_top" xlink:title=" ">
<polygon fill="white" stroke="black" points="374.99,-73 374.99,-92 556.99,-92 556.99,-73 374.99,-73"/>
<text text-anchor="middle" x="465.99" y="-80" font-family="Helvetica,sans-Serif" font-size="10.00">src/libs/vlayout/vtextmanager.cpp</text>
</a>
</g>
</g>
<!-- Node10&#45;&gt;Node23 -->
<g id="edge24" class="edge">
<title>Node10&#45;&gt;Node23</title>
<path fill="none" stroke="midnightblue" d="M1605.21,-191.4C1608.36,-173.02 1608.85,-148.47 1593.99,-134 1553.1,-94.16 623.86,-103.06 566.99,-98 550.94,-96.57 533.53,-94.32 517.77,-92.02"/>
<polygon fill="midnightblue" stroke="midnightblue" points="1601.74,-190.88 1603.15,-201.38 1608.6,-192.3 1601.74,-190.88"/>
</g>
<!-- Node24 -->
<g id="node23" class="node">
<title>Node24</title>
<g id="a_node23"><a xlink:href="../../d5/d74/vabstractapplication_8h.html" target="_top" xlink:title=" ">
<polygon fill="white" stroke="red" points="1645.49,-140 1645.49,-159 1840.49,-159 1840.49,-140 1645.49,-140"/>
<text text-anchor="middle" x="1742.99" y="-147" font-family="Helvetica,sans-Serif" font-size="10.00">src/libs/vmisc/vabstractapplication.h</text>
</a>
</g>
</g>
<!-- Node10&#45;&gt;Node24 -->
<g id="edge25" class="edge">
<title>Node10&#45;&gt;Node24</title>
<path fill="none" stroke="midnightblue" d="M1639.69,-197.13C1667.4,-184.62 1702.81,-168.64 1724.15,-159.01"/>
<polygon fill="midnightblue" stroke="midnightblue" points="1637.91,-194.09 1630.24,-201.4 1640.79,-200.47 1637.91,-194.09"/>
</g>
<!-- Node42 -->
<g id="node37" class="node">
<title>Node42</title>
<g id="a_node37"><a xlink:href="../../db/d11/vformula_8cpp.html" target="_top" xlink:title=" ">
<polygon fill="white" stroke="black" points="3097.49,-67.5 3097.49,-97.5 3204.49,-97.5 3204.49,-67.5 3097.49,-67.5"/>
<text text-anchor="start" x="3105.49" y="-85.5" font-family="Helvetica,sans-Serif" font-size="10.00">src/libs/vpatterndb</text>
<text text-anchor="middle" x="3150.99" y="-74.5" font-family="Helvetica,sans-Serif" font-size="10.00">/vformula.cpp</text>
</a>
</g>
</g>
<!-- Node10&#45;&gt;Node42 -->
<g id="edge54" class="edge">
<title>Node10&#45;&gt;Node42</title>
<path fill="none" stroke="midnightblue" d="M1663.03,-211.4C1715.47,-206.02 1790.46,-193.61 1849.99,-165 1869.33,-155.71 1866.94,-141.63 1886.99,-134 2011.87,-86.47 2956.5,-115.3 3088.99,-98 3091.73,-97.64 3094.53,-97.22 3097.35,-96.74"/>
<polygon fill="midnightblue" stroke="midnightblue" points="1662.47,-207.94 1652.85,-212.38 1663.14,-214.9 1662.47,-207.94"/>
</g>
<!-- Node10&#45;&gt;Node43 -->
<g id="edge55" class="edge">
<title>Node10&#45;&gt;Node43</title>
<path fill="none" stroke="midnightblue" d="M1662.75,-213.71C1783.81,-209.6 2042.25,-197.24 2124.99,-165 2146.28,-156.71 2144.44,-141.57 2165.99,-134 2298.34,-87.49 3288.88,-116.06 3427.99,-98 3430.73,-97.64 3433.53,-97.22 3436.35,-96.74"/>
<polygon fill="midnightblue" stroke="midnightblue" points="1662.4,-210.22 1652.52,-214.05 1662.63,-217.21 1662.4,-210.22"/>
</g>
<!-- Node44 -->
<g id="node39" class="node">
<title>Node44</title>
<g id="a_node39"><a xlink:href="../../df/d7a/vpiece_8cpp.html" target="_top" xlink:title=" ">
<polygon fill="white" stroke="black" points="249.49,-67.5 249.49,-97.5 356.49,-97.5 356.49,-67.5 249.49,-67.5"/>
<text text-anchor="start" x="257.49" y="-85.5" font-family="Helvetica,sans-Serif" font-size="10.00">src/libs/vpatterndb</text>
<text text-anchor="middle" x="302.99" y="-74.5" font-family="Helvetica,sans-Serif" font-size="10.00">/vpiece.cpp</text>
</a>
</g>
</g>
<!-- Node10&#45;&gt;Node44 -->
<g id="edge57" class="edge">
<title>Node10&#45;&gt;Node44</title>
<path fill="none" stroke="midnightblue" d="M1593.38,-191.43C1587.52,-172.27 1576.26,-146.65 1555.99,-134 1499.88,-98.99 431.59,-106.46 365.99,-98 362.99,-97.61 359.92,-97.15 356.82,-96.62"/>
<polygon fill="midnightblue" stroke="midnightblue" points="1590.06,-192.58 1596.1,-201.29 1596.81,-190.72 1590.06,-192.58"/>
</g>
<!-- Node47 -->
<g id="node42" class="node">
<title>Node47</title>
<g id="a_node42"><a xlink:href="../../d8/dba/vpiecenode_8cpp.html" target="_top" xlink:title=" ">
<polygon fill="white" stroke="black" points="255.49,-0.5 255.49,-30.5 362.49,-30.5 362.49,-0.5 255.49,-0.5"/>
<text text-anchor="start" x="263.49" y="-18.5" font-family="Helvetica,sans-Serif" font-size="10.00">src/libs/vpatterndb</text>
<text text-anchor="middle" x="308.99" y="-7.5" font-family="Helvetica,sans-Serif" font-size="10.00">/vpiecenode.cpp</text>
</a>
</g>
</g>
<!-- Node10&#45;&gt;Node47 -->
<g id="edge58" class="edge">
<title>Node10&#45;&gt;Node47</title>
<path fill="none" stroke="midnightblue" d="M1580.27,-193.74C1560.24,-170.73 1530.33,-137.3 1522.99,-134 1446.14,-99.49 65.85,-158.27 6.99,-98 -2.63,-88.14 -1.91,-77.52 6.99,-67 38.21,-30.13 177.32,-20.16 255.39,-17.48"/>
<polygon fill="midnightblue" stroke="midnightblue" points="1577.7,-196.12 1586.89,-201.38 1582.99,-191.53 1577.7,-196.12"/>
</g>
<!-- Node61 -->
<g id="node46" class="node">
<title>Node61</title>
<g id="a_node46"><a xlink:href="../../d1/de1/vincrement__p_8h.html" target="_top" xlink:title=" ">
<polygon fill="white" stroke="red" points="2174.49,-134.5 2174.49,-164.5 2317.49,-164.5 2317.49,-134.5 2174.49,-134.5"/>
<text text-anchor="start" x="2182.49" y="-152.5" font-family="Helvetica,sans-Serif" font-size="10.00">src/libs/vpatterndb</text>
<text text-anchor="middle" x="2245.99" y="-141.5" font-family="Helvetica,sans-Serif" font-size="10.00">/variables/vincrement_p.h</text>
</a>
</g>
</g>
<!-- Node10&#45;&gt;Node61 -->
<g id="edge52" class="edge">
<title>Node10&#45;&gt;Node61</title>
<path fill="none" stroke="midnightblue" d="M1662.56,-211.38C1766.74,-204.28 1980.25,-188.21 2159.99,-165 2164.65,-164.4 2169.44,-163.73 2174.26,-163.02"/>
<polygon fill="midnightblue" stroke="midnightblue" points="1662.26,-207.9 1652.52,-212.06 1662.73,-214.88 1662.26,-207.9"/>
</g>
<!-- Node63 -->
<g id="node47" class="node">
<title>Node63</title>
<g id="a_node47"><a xlink:href="../../d6/dc1/vmeasurement__p_8h.html" target="_top" xlink:title=" ">
<polygon fill="white" stroke="red" points="954.99,-134.5 954.99,-164.5 1116.99,-164.5 1116.99,-134.5 954.99,-134.5"/>
<text text-anchor="start" x="962.99" y="-152.5" font-family="Helvetica,sans-Serif" font-size="10.00">src/libs/vpatterndb</text>
<text text-anchor="middle" x="1035.99" y="-141.5" font-family="Helvetica,sans-Serif" font-size="10.00">/variables/vmeasurement_p.h</text>
</a>
</g>
</g>
<!-- Node10&#45;&gt;Node63 -->
<g id="edge53" class="edge">
<title>Node10&#45;&gt;Node63</title>
<path fill="none" stroke="midnightblue" d="M1535.31,-209.74C1444.52,-201.28 1272.71,-184.39 1126.99,-165 1123.82,-164.58 1120.59,-164.13 1117.33,-163.67"/>
<polygon fill="midnightblue" stroke="midnightblue" points="1535.16,-213.24 1545.44,-210.68 1535.81,-206.27 1535.16,-213.24"/>
</g>
<!-- Node65 -->
<g id="node48" class="node">
<title>Node65</title>
<g id="a_node48"><a xlink:href="../../d6/d91/vnodedetail_8cpp.html" target="_top" xlink:title=" ">
<polygon fill="white" stroke="black" points="1135.49,-134.5 1135.49,-164.5 1242.49,-164.5 1242.49,-134.5 1135.49,-134.5"/>
<text text-anchor="start" x="1143.49" y="-152.5" font-family="Helvetica,sans-Serif" font-size="10.00">src/libs/vpatterndb</text>
<text text-anchor="middle" x="1188.99" y="-141.5" font-family="Helvetica,sans-Serif" font-size="10.00">/vnodedetail.cpp</text>
</a>
</g>
</g>
<!-- Node10&#45;&gt;Node65 -->
<g id="edge56" class="edge">
<title>Node10&#45;&gt;Node65</title>
<path fill="none" stroke="midnightblue" d="M1535.31,-207.82C1465.51,-199.03 1350.37,-183.45 1251.99,-165 1248.9,-164.42 1245.74,-163.79 1242.55,-163.14"/>
<polygon fill="midnightblue" stroke="midnightblue" points="1534.91,-211.3 1545.27,-209.06 1535.78,-204.35 1534.91,-211.3"/>
</g>
<!-- Node66 -->
<g id="node49" class="node">
<title>Node66</title>
<g id="a_node49"><a xlink:href="../../da/de1/vpiecepath_8cpp.html" target="_top" xlink:title=" ">
<polygon fill="white" stroke="black" points="1260.49,-134.5 1260.49,-164.5 1367.49,-164.5 1367.49,-134.5 1260.49,-134.5"/>
<text text-anchor="start" x="1268.49" y="-152.5" font-family="Helvetica,sans-Serif" font-size="10.00">src/libs/vpatterndb</text>
<text text-anchor="middle" x="1313.99" y="-141.5" font-family="Helvetica,sans-Serif" font-size="10.00">/vpiecepath.cpp</text>
</a>
</g>
</g>
<!-- Node10&#45;&gt;Node66 -->
<g id="edge59" class="edge">
<title>Node10&#45;&gt;Node66</title>
<path fill="none" stroke="midnightblue" d="M1535.37,-201.07C1490.98,-191 1430.37,-177.21 1376.99,-165 1373.93,-164.3 1370.78,-163.58 1367.61,-162.85"/>
<polygon fill="midnightblue" stroke="midnightblue" points="1534.63,-204.49 1545.15,-203.29 1536.18,-197.67 1534.63,-204.49"/>
</g>
<!-- Node67 -->
<g id="node50" class="node">
<title>Node67</title>
<g id="a_node50"><a xlink:href="../../da/db4/piece__tablewidgetitem_8cpp.html" target="_top" xlink:title=" ">
<polygon fill="white" stroke="black" points="1385.99,-134.5 1385.99,-164.5 1513.99,-164.5 1513.99,-134.5 1385.99,-134.5"/>
<text text-anchor="start" x="1393.99" y="-152.5" font-family="Helvetica,sans-Serif" font-size="10.00">src/libs/vwidgets/piece</text>
<text text-anchor="middle" x="1449.99" y="-141.5" font-family="Helvetica,sans-Serif" font-size="10.00">_tablewidgetitem.cpp</text>
</a>
</g>
</g>
<!-- Node10&#45;&gt;Node67 -->
<g id="edge61" class="edge">
<title>Node10&#45;&gt;Node67</title>
<path fill="none" stroke="midnightblue" d="M1557.2,-197.27C1533.47,-186.92 1504.21,-174.15 1482.26,-164.58"/>
<polygon fill="midnightblue" stroke="midnightblue" points="1556.1,-200.61 1566.66,-201.4 1558.9,-194.19 1556.1,-200.61"/>
</g>
<!-- Node11&#45;&gt;Node12 -->
<g id="edge11" class="edge">
<title>Node11&#45;&gt;Node12</title>
<path fill="none" stroke="midnightblue" d="M2052.61,-138.57C2066.25,-136.78 2080.57,-135.13 2093.99,-134 2590.27,-92.19 2717.69,-139.49 3213.99,-98 3230.99,-96.58 3249.43,-94.34 3266.13,-92.03"/>
<polygon fill="midnightblue" stroke="midnightblue" points="2051.78,-135.15 2042.34,-139.96 2052.72,-142.09 2051.78,-135.15"/>
</g>
<!-- Node14 -->
<g id="node14" class="node">
<title>Node14</title>
<g id="a_node14"><a xlink:href="../../dd/d66/vdxfengine_8cpp.html" target="_top" xlink:title=" ">
<polygon fill="white" stroke="black" points="4547.99,-73 4547.99,-92 4701.99,-92 4701.99,-73 4547.99,-73"/>
<text text-anchor="middle" x="4624.99" y="-80" font-family="Helvetica,sans-Serif" font-size="10.00">src/libs/vdxf/vdxfengine.cpp</text>
</a>
</g>
</g>
<!-- Node13&#45;&gt;Node14 -->
<g id="edge14" class="edge">
<title>Node13&#45;&gt;Node14</title>
<path fill="none" stroke="midnightblue" d="M4297.08,-138.35C4358.28,-128.18 4455.17,-112.05 4538.99,-98 4550.49,-96.07 4562.85,-93.99 4574.52,-92.03"/>
<polygon fill="midnightblue" stroke="midnightblue" points="4296.49,-134.9 4287.2,-140 4297.64,-141.81 4296.49,-134.9"/>
</g>
<!-- Node15 -->
<g id="node15" class="node">
<title>Node15</title>
<g id="a_node15"><a xlink:href="../../de/da8/vbank_8cpp.html" target="_top" xlink:title=" ">
<polygon fill="white" stroke="black" points="4719.99,-73 4719.99,-92 4863.99,-92 4863.99,-73 4719.99,-73"/>
<text text-anchor="middle" x="4791.99" y="-80" font-family="Helvetica,sans-Serif" font-size="10.00">src/libs/vlayout/vbank.cpp</text>
</a>
</g>
</g>
<!-- Node13&#45;&gt;Node15 -->
<g id="edge15" class="edge">
<title>Node13&#45;&gt;Node15</title>
<path fill="none" stroke="midnightblue" d="M4328.98,-140.59C4424.92,-131.96 4578.77,-116.84 4710.99,-98 4722.87,-96.31 4735.68,-94.16 4747.52,-92.05"/>
<polygon fill="midnightblue" stroke="midnightblue" points="4328.67,-137.1 4319.02,-141.48 4329.29,-144.07 4328.67,-137.1"/>
</g>
<!-- Node16 -->
<g id="node16" class="node">
<title>Node16</title>
<g id="a_node16"><a xlink:href="../../df/d5d/vcontour_8cpp.html" target="_top" xlink:title=" ">
<polygon fill="white" stroke="black" points="3756.99,-73 3756.99,-92 3912.99,-92 3912.99,-73 3756.99,-73"/>
<text text-anchor="middle" x="3834.99" y="-80" font-family="Helvetica,sans-Serif" font-size="10.00">src/libs/vlayout/vcontour.cpp</text>
</a>
</g>
</g>
<!-- Node13&#45;&gt;Node16 -->
<g id="edge16" class="edge">
<title>Node13&#45;&gt;Node16</title>
<path fill="none" stroke="midnightblue" d="M4172.61,-138.34C4109.37,-128.18 4009.45,-112.1 3922.99,-98 3911.23,-96.08 3898.58,-94.01 3886.64,-92.04"/>
<polygon fill="midnightblue" stroke="midnightblue" points="4172.39,-141.85 4182.82,-139.98 4173.5,-134.94 4172.39,-141.85"/>
</g>
<!-- Node17 -->
<g id="node17" class="node">
<title>Node17</title>
<g id="a_node17"><a xlink:href="../../d3/d39/vlayoutgenerator_8cpp.html" target="_top" xlink:title=" ">
<polygon fill="white" stroke="black" points="3931.49,-73 3931.49,-92 4128.49,-92 4128.49,-73 3931.49,-73"/>
<text text-anchor="middle" x="4029.99" y="-80" font-family="Helvetica,sans-Serif" font-size="10.00">src/libs/vlayout/vlayoutgenerator.cpp</text>
</a>
</g>
</g>
<!-- Node13&#45;&gt;Node17 -->
<g id="edge17" class="edge">
<title>Node13&#45;&gt;Node17</title>
<path fill="none" stroke="midnightblue" d="M4199.06,-136.85C4158.26,-123.97 4093.52,-103.55 4057.13,-92.06"/>
<polygon fill="midnightblue" stroke="midnightblue" points="4198.05,-140.2 4208.64,-139.87 4200.15,-133.52 4198.05,-140.2"/>
</g>
<!-- Node18 -->
<g id="node18" class="node">
<title>Node18</title>
<g id="a_node18"><a xlink:href="../../d2/d2d/vlayoutpaper__p_8h.html" target="_top" xlink:title=" ">
<polygon fill="white" stroke="black" points="4146.49,-73 4146.49,-92 4325.49,-92 4325.49,-73 4146.49,-73"/>
<text text-anchor="middle" x="4235.99" y="-80" font-family="Helvetica,sans-Serif" font-size="10.00">src/libs/vlayout/vlayoutpaper_p.h</text>
</a>
</g>
</g>
<!-- Node13&#45;&gt;Node18 -->
<g id="edge18" class="edge">
<title>Node13&#45;&gt;Node18</title>
<path fill="none" stroke="midnightblue" d="M4235.99,-129.54C4235.99,-117.17 4235.99,-101.62 4235.99,-92.13"/>
<polygon fill="midnightblue" stroke="midnightblue" points="4232.49,-129.73 4235.99,-139.73 4239.49,-129.73 4232.49,-129.73"/>
</g>
<!-- Node19 -->
<g id="node19" class="node">
<title>Node19</title>
<g id="a_node19"><a xlink:href="../../d1/dd1/vlayoutpaper_8cpp.html" target="_top" xlink:title=" ">
<polygon fill="white" stroke="black" points="4264.99,-6 4264.99,-25 4442.99,-25 4442.99,-6 4264.99,-6"/>
<text text-anchor="middle" x="4353.99" y="-13" font-family="Helvetica,sans-Serif" font-size="10.00">src/libs/vlayout/vlayoutpaper.cpp</text>
</a>
</g>
</g>
<!-- Node13&#45;&gt;Node19 -->
<g id="edge21" class="edge">
<title>Node13&#45;&gt;Node19</title>
<path fill="none" stroke="midnightblue" d="M4277.89,-136.38C4297.96,-128.53 4320.69,-116.28 4334.99,-98 4352.19,-76.03 4354.28,-41.17 4354.25,-25.12"/>
<polygon fill="midnightblue" stroke="midnightblue" points="4276.49,-133.17 4268.3,-139.89 4278.89,-139.74 4276.49,-133.17"/>
</g>
<!-- Node20 -->
<g id="node20" class="node">
<title>Node20</title>
<g id="a_node20"><a xlink:href="../../dd/d70/vlayoutpiece_8cpp.html" target="_top" xlink:title=" ">
<polygon fill="white" stroke="black" points="3561.49,-73 3561.49,-92 3738.49,-92 3738.49,-73 3561.49,-73"/>
<text text-anchor="middle" x="3649.99" y="-80" font-family="Helvetica,sans-Serif" font-size="10.00">src/libs/vlayout/vlayoutpiece.cpp</text>
</a>
</g>
</g>
<!-- Node13&#45;&gt;Node20 -->
<g id="edge20" class="edge">
<title>Node13&#45;&gt;Node20</title>
<path fill="none" stroke="midnightblue" d="M4142.77,-140.08C4044.46,-130.91 3885.12,-115.23 3747.99,-98 3733.91,-96.23 3718.73,-94.1 3704.62,-92.02"/>
<polygon fill="midnightblue" stroke="midnightblue" points="4142.69,-143.58 4152.98,-141.03 4143.34,-136.61 4142.69,-143.58"/>
</g>
<!-- Node21 -->
<g id="node21" class="node">
<title>Node21</title>
<g id="a_node21"><a xlink:href="../../db/d5c/vposition_8h.html" target="_top" xlink:title=" ">
<polygon fill="white" stroke="red" points="4381.99,-73 4381.99,-92 4529.99,-92 4529.99,-73 4381.99,-73"/>
<text text-anchor="middle" x="4455.99" y="-80" font-family="Helvetica,sans-Serif" font-size="10.00">src/libs/vlayout/vposition.h</text>
</a>
</g>
</g>
<!-- Node13&#45;&gt;Node21 -->
<g id="edge22" class="edge">
<title>Node13&#45;&gt;Node21</title>
<path fill="none" stroke="midnightblue" d="M4274.88,-137.01C4318.42,-124.15 4387.98,-103.59 4427.01,-92.06"/>
<polygon fill="midnightblue" stroke="midnightblue" points="4273.81,-133.68 4265.21,-139.87 4275.79,-140.39 4273.81,-133.68"/>
</g>
<!-- Node18&#45;&gt;Node19 -->
<g id="edge19" class="edge">
<title>Node18&#45;&gt;Node19</title>
<path fill="none" stroke="midnightblue" d="M4260.89,-67.79C4284.27,-54.9 4318.55,-36.02 4338.33,-25.13"/>
<polygon fill="midnightblue" stroke="midnightblue" points="4258.98,-64.84 4251.91,-72.73 4262.36,-70.97 4258.98,-64.84"/>
</g>
<!-- Node21&#45;&gt;Node19 -->
<g id="edge23" class="edge">
<title>Node21&#45;&gt;Node19</title>
<path fill="none" stroke="midnightblue" d="M4433.66,-67.27C4413.47,-54.4 4384.4,-35.88 4367.53,-25.13"/>
<polygon fill="midnightblue" stroke="midnightblue" points="4431.92,-70.31 4442.24,-72.73 4435.69,-64.41 4431.92,-70.31"/>
</g>
<!-- Node24&#45;&gt;Node9 -->
<g id="edge51" class="edge">
<title>Node24&#45;&gt;Node9</title>
<path fill="none" stroke="midnightblue" d="M1634.84,-139.19C1609.02,-137.22 1581.54,-135.34 1555.99,-134 972.13,-103.39 824,-142 240.99,-98 222.32,-96.59 202.05,-94.34 183.7,-92.02"/>
<polygon fill="midnightblue" stroke="midnightblue" points="1634.79,-142.7 1645.03,-139.98 1635.33,-135.72 1634.79,-142.7"/>
</g>
<!-- Node24&#45;&gt;Node20 -->
<g id="edge36" class="edge">
<title>Node24&#45;&gt;Node20</title>
<path fill="none" stroke="midnightblue" d="M1826.73,-138.94C1846.47,-137 1867.45,-135.19 1886.99,-134 2626.23,-88.86 2815.05,-160.87 3552.99,-98 3568.77,-96.66 3585.89,-94.37 3601.29,-92.01"/>
<polygon fill="midnightblue" stroke="midnightblue" points="1826.13,-135.49 1816.53,-139.97 1826.83,-142.45 1826.13,-135.49"/>
</g>
<!-- Node24&#45;&gt;Node23 -->
<g id="edge37" class="edge">
<title>Node24&#45;&gt;Node23</title>
<path fill="none" stroke="midnightblue" d="M1675.73,-138.66C1661.33,-136.85 1646.18,-135.16 1631.99,-134 1159.98,-95.28 1038.76,-139.71 566.99,-98 550.94,-96.58 533.53,-94.34 517.77,-92.04"/>
<polygon fill="midnightblue" stroke="midnightblue" points="1675.7,-142.18 1686.07,-140 1676.6,-135.24 1675.7,-142.18"/>
</g>
<!-- Node25 -->
<g id="node24" class="node">
<title>Node25</title>
<g id="a_node24"><a xlink:href="../../d4/d90/fvupdater_8cpp.html" target="_top" xlink:title=" ">
<polygon fill="white" stroke="black" points="990.49,-73 990.49,-92 1143.49,-92 1143.49,-73 990.49,-73"/>
<text text-anchor="middle" x="1066.99" y="-80" font-family="Helvetica,sans-Serif" font-size="10.00">src/libs/fervor/fvupdater.cpp</text>
</a>
</g>
</g>
<!-- Node24&#45;&gt;Node25 -->
<g id="edge26" class="edge">
<title>Node24&#45;&gt;Node25</title>
<path fill="none" stroke="midnightblue" d="M1672.44,-138.69C1659.02,-137 1645.09,-135.35 1631.99,-134 1419.62,-112.17 1364.92,-123.77 1152.99,-98 1139.92,-96.41 1125.8,-94.23 1112.85,-92.04"/>
<polygon fill="midnightblue" stroke="midnightblue" points="1672.21,-142.19 1682.57,-140 1673.1,-135.25 1672.21,-142.19"/>
</g>
<!-- Node26 -->
<g id="node25" class="node">
<title>Node26</title>
<g id="a_node25"><a xlink:href="../../d9/dc8/dxiface_8cpp.html" target="_top" xlink:title=" ">
<polygon fill="white" stroke="black" points="1161.49,-73 1161.49,-92 1296.49,-92 1296.49,-73 1161.49,-73"/>
<text text-anchor="middle" x="1228.99" y="-80" font-family="Helvetica,sans-Serif" font-size="10.00">src/libs/vdxf/dxiface.cpp</text>
</a>
</g>
</g>
<!-- Node24&#45;&gt;Node26 -->
<g id="edge27" class="edge">
<title>Node24&#45;&gt;Node26</title>
<path fill="none" stroke="midnightblue" d="M1669.05,-138.63C1656.68,-137.04 1643.98,-135.44 1631.99,-134 1487.27,-116.56 1450.17,-119.5 1305.99,-98 1294.69,-96.31 1282.52,-94.17 1271.26,-92.06"/>
<polygon fill="midnightblue" stroke="midnightblue" points="1668.97,-142.15 1679.33,-139.96 1669.87,-135.21 1668.97,-142.15"/>
</g>
<!-- Node27 -->
<g id="node26" class="node">
<title>Node27</title>
<g id="a_node26"><a xlink:href="../../da/d75/vabstractarc__p_8h.html" target="_top" xlink:title=" ">
<polygon fill="white" stroke="red" points="1314.49,-67.5 1314.49,-97.5 1421.49,-97.5 1421.49,-67.5 1314.49,-67.5"/>
<text text-anchor="start" x="1322.49" y="-85.5" font-family="Helvetica,sans-Serif" font-size="10.00">src/libs/vgeometry</text>
<text text-anchor="middle" x="1367.99" y="-74.5" font-family="Helvetica,sans-Serif" font-size="10.00">/vabstractarc_p.h</text>
</a>
</g>
</g>
<!-- Node24&#45;&gt;Node27 -->
<g id="edge28" class="edge">
<title>Node24&#45;&gt;Node27</title>
<path fill="none" stroke="midnightblue" d="M1672.69,-138.47C1609.31,-129.11 1513.63,-114.18 1430.99,-98 1427.91,-97.4 1424.75,-96.75 1421.56,-96.08"/>
<polygon fill="midnightblue" stroke="midnightblue" points="1672.57,-141.99 1682.97,-139.98 1673.59,-135.06 1672.57,-141.99"/>
</g>
<!-- Node29 -->
<g id="node27" class="node">
<title>Node29</title>
<g id="a_node27"><a xlink:href="../../dc/da3/varc__p_8h.html" target="_top" xlink:title=" ">
<polygon fill="white" stroke="red" points="1439.49,-67.5 1439.49,-97.5 1546.49,-97.5 1546.49,-67.5 1439.49,-67.5"/>
<text text-anchor="start" x="1447.49" y="-85.5" font-family="Helvetica,sans-Serif" font-size="10.00">src/libs/vgeometry</text>
<text text-anchor="middle" x="1492.99" y="-74.5" font-family="Helvetica,sans-Serif" font-size="10.00">/varc_p.h</text>
</a>
</g>
</g>
<!-- Node24&#45;&gt;Node29 -->
<g id="edge29" class="edge">
<title>Node24&#45;&gt;Node29</title>
<path fill="none" stroke="midnightblue" d="M1700.3,-137.4C1657.83,-126.36 1592.53,-109.38 1546.59,-97.44"/>
<polygon fill="midnightblue" stroke="midnightblue" points="1699.49,-140.81 1710.05,-139.94 1701.26,-134.03 1699.49,-140.81"/>
</g>
<!-- Node31 -->
<g id="node28" class="node">
<title>Node31</title>
<g id="a_node28"><a xlink:href="../../d5/d8e/vcubicbezier__p_8h.html" target="_top" xlink:title=" ">
<polygon fill="white" stroke="red" points="1564.49,-67.5 1564.49,-97.5 1671.49,-97.5 1671.49,-67.5 1564.49,-67.5"/>
<text text-anchor="start" x="1572.49" y="-85.5" font-family="Helvetica,sans-Serif" font-size="10.00">src/libs/vgeometry</text>
<text text-anchor="middle" x="1617.99" y="-74.5" font-family="Helvetica,sans-Serif" font-size="10.00">/vcubicbezier_p.h</text>
</a>
</g>
</g>
<!-- Node24&#45;&gt;Node31 -->
<g id="edge30" class="edge">
<title>Node24&#45;&gt;Node31</title>
<path fill="none" stroke="midnightblue" d="M1717.41,-135.19C1696.38,-124.26 1666.67,-108.81 1645.21,-97.65"/>
<polygon fill="midnightblue" stroke="midnightblue" points="1715.91,-138.36 1726.39,-139.87 1719.14,-132.15 1715.91,-138.36"/>
</g>
<!-- Node33 -->
<g id="node29" class="node">
<title>Node33</title>
<g id="a_node29"><a xlink:href="../../df/dde/vellipticalarc__p_8h.html" target="_top" xlink:title=" ">
<polygon fill="white" stroke="black" points="1689.49,-67.5 1689.49,-97.5 1796.49,-97.5 1796.49,-67.5 1689.49,-67.5"/>
<text text-anchor="start" x="1697.49" y="-85.5" font-family="Helvetica,sans-Serif" font-size="10.00">src/libs/vgeometry</text>
<text text-anchor="middle" x="1742.99" y="-74.5" font-family="Helvetica,sans-Serif" font-size="10.00">/vellipticalarc_p.h</text>
</a>
</g>
</g>
<!-- Node24&#45;&gt;Node33 -->
<g id="edge31" class="edge">
<title>Node24&#45;&gt;Node33</title>
<path fill="none" stroke="midnightblue" d="M1742.99,-129.41C1742.99,-119.22 1742.99,-106.9 1742.99,-97.59"/>
<polygon fill="midnightblue" stroke="midnightblue" points="1739.49,-129.73 1742.99,-139.73 1746.49,-129.73 1739.49,-129.73"/>
</g>
<!-- Node34 -->
<g id="node30" class="node">
<title>Node34</title>
<g id="a_node30"><a xlink:href="../../d6/dfb/vellipticalarc_8cpp.html" target="_top" xlink:title=" ">
<polygon fill="white" stroke="black" points="2276.49,-0.5 2276.49,-30.5 2383.49,-30.5 2383.49,-0.5 2276.49,-0.5"/>
<text text-anchor="start" x="2284.49" y="-18.5" font-family="Helvetica,sans-Serif" font-size="10.00">src/libs/vgeometry</text>
<text text-anchor="middle" x="2329.99" y="-7.5" font-family="Helvetica,sans-Serif" font-size="10.00">/vellipticalarc.cpp</text>
</a>
</g>
</g>
<!-- Node24&#45;&gt;Node34 -->
<g id="edge33" class="edge">
<title>Node24&#45;&gt;Node34</title>
<path fill="none" stroke="midnightblue" d="M1810.49,-138.64C1824.83,-136.84 1839.89,-135.16 1853.99,-134 1911.89,-129.23 2858.63,-139.78 2898.99,-98 2908.57,-88.09 2908.3,-77.16 2898.99,-67 2864.6,-29.41 2518.77,-19.63 2383.67,-17.23"/>
<polygon fill="midnightblue" stroke="midnightblue" points="1809.68,-135.21 1800.21,-139.97 1810.57,-142.16 1809.68,-135.21"/>
</g>
<!-- Node35 -->
<g id="node31" class="node">
<title>Node35</title>
<g id="a_node31"><a xlink:href="../../d1/d76/vspline__p_8h.html" target="_top" xlink:title=" ">
<polygon fill="white" stroke="red" points="1814.49,-67.5 1814.49,-97.5 1921.49,-97.5 1921.49,-67.5 1814.49,-67.5"/>
<text text-anchor="start" x="1822.49" y="-85.5" font-family="Helvetica,sans-Serif" font-size="10.00">src/libs/vgeometry</text>
<text text-anchor="middle" x="1867.99" y="-74.5" font-family="Helvetica,sans-Serif" font-size="10.00">/vspline_p.h</text>
</a>
</g>
</g>
<!-- Node24&#45;&gt;Node35 -->
<g id="edge34" class="edge">
<title>Node24&#45;&gt;Node35</title>
<path fill="none" stroke="midnightblue" d="M1768.58,-135.19C1789.61,-124.26 1819.32,-108.81 1840.78,-97.65"/>
<polygon fill="midnightblue" stroke="midnightblue" points="1766.85,-132.15 1759.59,-139.87 1770.08,-138.36 1766.85,-132.15"/>
</g>
<!-- Node37 -->
<g id="node32" class="node">
<title>Node37</title>
<g id="a_node32"><a xlink:href="../../d9/d15/vabstractpiece_8cpp.html" target="_top" xlink:title=" ">
<polygon fill="white" stroke="black" points="1939.99,-73 1939.99,-92 2125.99,-92 2125.99,-73 1939.99,-73"/>
<text text-anchor="middle" x="2032.99" y="-80" font-family="Helvetica,sans-Serif" font-size="10.00">src/libs/vlayout/vabstractpiece.cpp</text>
</a>
</g>
</g>
<!-- Node24&#45;&gt;Node37 -->
<g id="edge35" class="edge">
<title>Node24&#45;&gt;Node37</title>
<path fill="none" stroke="midnightblue" d="M1791.07,-137.72C1848.18,-124.92 1942.28,-103.83 1994.7,-92.08"/>
<polygon fill="midnightblue" stroke="midnightblue" points="1790.2,-134.33 1781.2,-139.94 1791.73,-141.16 1790.2,-134.33"/>
</g>
<!-- Node38 -->
<g id="node33" class="node">
<title>Node38</title>
<g id="a_node33"><a xlink:href="../../db/d65/dialogexporttocsv_8cpp.html" target="_top" xlink:title=" ">
<polygon fill="white" stroke="black" points="2144.49,-67.5 2144.49,-97.5 2271.49,-97.5 2271.49,-67.5 2144.49,-67.5"/>
<text text-anchor="start" x="2152.49" y="-85.5" font-family="Helvetica,sans-Serif" font-size="10.00">src/libs/vmisc/dialogs</text>
<text text-anchor="middle" x="2207.99" y="-74.5" font-family="Helvetica,sans-Serif" font-size="10.00">/dialogexporttocsv.cpp</text>
</a>
</g>
</g>
<!-- Node24&#45;&gt;Node38 -->
<g id="edge38" class="edge">
<title>Node24&#45;&gt;Node38</title>
<path fill="none" stroke="midnightblue" d="M1818.13,-138.66C1830.12,-137.1 1842.4,-135.5 1853.99,-134 1978.86,-117.85 2010.73,-118.28 2134.99,-98 2138.05,-97.5 2141.18,-96.97 2144.34,-96.41"/>
<polygon fill="midnightblue" stroke="midnightblue" points="1817.6,-135.2 1808.14,-139.96 1818.51,-142.14 1817.6,-135.2"/>
</g>
<!-- Node39 -->
<g id="node34" class="node">
<title>Node39</title>
<g id="a_node34"><a xlink:href="../../d6/d0b/def_8cpp.html" target="_top" xlink:title=" ">
<polygon fill="white" stroke="black" points="2289.99,-73 2289.99,-92 2411.99,-92 2411.99,-73 2289.99,-73"/>
<text text-anchor="middle" x="2350.99" y="-80" font-family="Helvetica,sans-Serif" font-size="10.00">src/libs/vmisc/def.cpp</text>
</a>
</g>
</g>
<!-- Node24&#45;&gt;Node39 -->
<g id="edge39" class="edge">
<title>Node24&#45;&gt;Node39</title>
<path fill="none" stroke="midnightblue" d="M1814.27,-138.7C1827.46,-137.02 1841.14,-135.38 1853.99,-134 2043.36,-113.66 2092.52,-125.36 2280.99,-98 2291.8,-96.43 2303.45,-94.23 2314.09,-92.01"/>
<polygon fill="midnightblue" stroke="midnightblue" points="1813.76,-135.23 1804.29,-139.98 1814.66,-142.18 1813.76,-135.23"/>
</g>
<!-- Node40 -->
<g id="node35" class="node">
<title>Node40</title>
<g id="a_node35"><a xlink:href="../../d0/df6/vabstractapplication_8cpp.html" target="_top" xlink:title=" ">
<polygon fill="white" stroke="black" points="2429.99,-73 2429.99,-92 2635.99,-92 2635.99,-73 2429.99,-73"/>
<text text-anchor="middle" x="2532.99" y="-80" font-family="Helvetica,sans-Serif" font-size="10.00">src/libs/vmisc/vabstractapplication.cpp</text>
</a>
</g>
</g>
<!-- Node24&#45;&gt;Node40 -->
<g id="edge40" class="edge">
<title>Node24&#45;&gt;Node40</title>
<path fill="none" stroke="midnightblue" d="M1812.82,-138.66C1826.46,-136.94 1840.66,-135.29 1853.99,-134 2105.32,-109.63 2169.65,-122.22 2420.99,-98 2437.88,-96.37 2456.14,-94.19 2472.92,-92.01"/>
<polygon fill="midnightblue" stroke="midnightblue" points="1812.01,-135.23 1802.53,-139.98 1812.9,-142.18 1812.01,-135.23"/>
</g>
<!-- Node41 -->
<g id="node36" class="node">
<title>Node41</title>
<g id="a_node36"><a xlink:href="../../d4/d4f/pmsystems_8cpp.html" target="_top" xlink:title=" ">
<polygon fill="white" stroke="black" points="2654.49,-67.5 2654.49,-97.5 2761.49,-97.5 2761.49,-67.5 2654.49,-67.5"/>
<text text-anchor="start" x="2662.49" y="-85.5" font-family="Helvetica,sans-Serif" font-size="10.00">src/libs/vpatterndb</text>
<text text-anchor="middle" x="2707.99" y="-74.5" font-family="Helvetica,sans-Serif" font-size="10.00">/pmsystems.cpp</text>
</a>
</g>
</g>
<!-- Node24&#45;&gt;Node41 -->
<g id="edge41" class="edge">
<title>Node24&#45;&gt;Node41</title>
<path fill="none" stroke="midnightblue" d="M1811.22,-138.67C1825.33,-136.89 1840.13,-135.22 1853.99,-134 2204.56,-103.18 2296.32,-145.66 2644.99,-98 2648,-97.59 2651.07,-97.1 2654.16,-96.56"/>
<polygon fill="midnightblue" stroke="midnightblue" points="1810.55,-135.22 1801.08,-139.97 1811.44,-142.17 1810.55,-135.22"/>
</g>
<!-- Node24&#45;&gt;Node42 -->
<g id="edge42" class="edge">
<title>Node24&#45;&gt;Node42</title>
<path fill="none" stroke="midnightblue" d="M1809.59,-138.69C1824.19,-136.85 1839.59,-135.15 1853.99,-134 2401.38,-90.38 2544.47,-168.88 3088.99,-98 3091.73,-97.64 3094.53,-97.22 3097.35,-96.74"/>
<polygon fill="midnightblue" stroke="midnightblue" points="1809.1,-135.23 1799.63,-139.98 1810,-142.17 1809.1,-135.23"/>
</g>
<!-- Node24&#45;&gt;Node43 -->
<g id="edge43" class="edge">
<title>Node24&#45;&gt;Node43</title>
<path fill="none" stroke="midnightblue" d="M1826.73,-138.97C1846.47,-137.03 1867.45,-135.21 1886.99,-134 2228.88,-112.83 3088.19,-141.23 3427.99,-98 3430.73,-97.65 3433.53,-97.23 3436.35,-96.76"/>
<polygon fill="midnightblue" stroke="midnightblue" points="1826.13,-135.51 1816.53,-139.99 1826.83,-142.48 1826.13,-135.51"/>
</g>
<!-- Node24&#45;&gt;Node44 -->
<g id="edge44" class="edge">
<title>Node24&#45;&gt;Node44</title>
<path fill="none" stroke="midnightblue" d="M1655.61,-139C1635.4,-137.08 1613.96,-135.26 1593.99,-134 1049.07,-99.54 907.56,-167.57 365.99,-98 362.99,-97.61 359.92,-97.15 356.82,-96.62"/>
<polygon fill="midnightblue" stroke="midnightblue" points="1655.45,-142.5 1665.74,-139.98 1656.12,-135.53 1655.45,-142.5"/>
</g>
<!-- Node45 -->
<g id="node40" class="node">
<title>Node45</title>
<g id="a_node40"><a xlink:href="../../de/d3e/vtranslatevars_8cpp.html" target="_top" xlink:title=" ">
<polygon fill="white" stroke="black" points="2779.99,-67.5 2779.99,-97.5 2889.99,-97.5 2889.99,-67.5 2779.99,-67.5"/>
<text text-anchor="start" x="2787.99" y="-85.5" font-family="Helvetica,sans-Serif" font-size="10.00">src/libs/vpatterndb</text>
<text text-anchor="middle" x="2834.99" y="-74.5" font-family="Helvetica,sans-Serif" font-size="10.00">/vtranslatevars.cpp</text>
</a>
</g>
</g>
<!-- Node24&#45;&gt;Node45 -->
<g id="edge45" class="edge">
<title>Node24&#45;&gt;Node45</title>
<path fill="none" stroke="midnightblue" d="M1810.73,-138.66C1825,-136.87 1839.97,-135.19 1853.99,-134 2260.41,-99.55 2366.62,-151.29 2770.99,-98 2773.93,-97.61 2776.93,-97.16 2779.95,-96.64"/>
<polygon fill="midnightblue" stroke="midnightblue" points="1809.97,-135.23 1800.5,-139.98 1810.86,-142.17 1809.97,-135.23"/>
</g>
<!-- Node46 -->
<g id="node41" class="node">
<title>Node46</title>
<g id="a_node41"><a xlink:href="../../df/dba/vpiecenode__p_8h.html" target="_top" xlink:title=" ">
<polygon fill="white" stroke="black" points="575.49,-67.5 575.49,-97.5 682.49,-97.5 682.49,-67.5 575.49,-67.5"/>
<text text-anchor="start" x="583.49" y="-85.5" font-family="Helvetica,sans-Serif" font-size="10.00">src/libs/vpatterndb</text>
<text text-anchor="middle" x="628.99" y="-74.5" font-family="Helvetica,sans-Serif" font-size="10.00">/vpiecenode_p.h</text>
</a>
</g>
</g>
<!-- Node24&#45;&gt;Node46 -->
<g id="edge46" class="edge">
<title>Node24&#45;&gt;Node46</title>
<path fill="none" stroke="midnightblue" d="M1675.25,-138.65C1660.99,-136.86 1646.02,-135.18 1631.99,-134 1215.39,-98.89 1106.43,-153.13 691.99,-98 688.99,-97.6 685.92,-97.12 682.83,-96.59"/>
<polygon fill="midnightblue" stroke="midnightblue" points="1675.12,-142.16 1685.49,-139.97 1676.02,-135.22 1675.12,-142.16"/>
</g>
<!-- Node48 -->
<g id="node43" class="node">
<title>Node48</title>
<g id="a_node43"><a xlink:href="../../df/d40/export__format__combobox_8cpp.html" target="_top" xlink:title=" ">
<polygon fill="white" stroke="black" points="2946.49,-67.5 2946.49,-97.5 3079.49,-97.5 3079.49,-67.5 2946.49,-67.5"/>
<text text-anchor="start" x="2954.49" y="-85.5" font-family="Helvetica,sans-Serif" font-size="10.00">src/libs/vwidgets/export</text>
<text text-anchor="middle" x="3012.99" y="-74.5" font-family="Helvetica,sans-Serif" font-size="10.00">_format_combobox.cpp</text>
</a>
</g>
</g>
<!-- Node24&#45;&gt;Node48 -->
<g id="edge48" class="edge">
<title>Node24&#45;&gt;Node48</title>
<path fill="none" stroke="midnightblue" d="M1810.25,-138.66C1824.66,-136.84 1839.81,-135.16 1853.99,-134 2331.78,-94.91 2455.27,-148.37 2931.99,-98 2936.68,-97.5 2941.51,-96.9 2946.36,-96.21"/>
<polygon fill="midnightblue" stroke="midnightblue" points="1809.39,-135.24 1799.92,-139.99 1810.29,-142.18 1809.39,-135.24"/>
</g>
<!-- Node49 -->
<g id="node44" class="node">
<title>Node49</title>
<g id="a_node44"><a xlink:href="../../d3/d4f/mouse__coordinates_8cpp.html" target="_top" xlink:title=" ">
<polygon fill="white" stroke="black" points="700.99,-67.5 700.99,-97.5 834.99,-97.5 834.99,-67.5 700.99,-67.5"/>
<text text-anchor="start" x="708.99" y="-85.5" font-family="Helvetica,sans-Serif" font-size="10.00">src/libs/vwidgets/mouse</text>
<text text-anchor="middle" x="767.99" y="-74.5" font-family="Helvetica,sans-Serif" font-size="10.00">_coordinates.cpp</text>
</a>
</g>
</g>
<!-- Node24&#45;&gt;Node49 -->
<g id="edge49" class="edge">
<title>Node24&#45;&gt;Node49</title>
<path fill="none" stroke="midnightblue" d="M1674.77,-138.67C1660.65,-136.89 1645.86,-135.22 1631.99,-134 1283.2,-103.3 1192.79,-138.5 844.99,-98 841.75,-97.62 838.44,-97.19 835.1,-96.71"/>
<polygon fill="midnightblue" stroke="midnightblue" points="1674.54,-142.17 1684.91,-139.98 1675.44,-135.23 1674.54,-142.17"/>
</g>
<!-- Node50 -->
<g id="node45" class="node">
<title>Node50</title>
<g id="a_node45"><a xlink:href="../../d7/d1b/pen__toolbar_8cpp.html" target="_top" xlink:title=" ">
<polygon fill="white" stroke="black" points="853.49,-67.5 853.49,-97.5 972.49,-97.5 972.49,-67.5 853.49,-67.5"/>
<text text-anchor="start" x="861.49" y="-85.5" font-family="Helvetica,sans-Serif" font-size="10.00">src/libs/vwidgets/pen</text>
<text text-anchor="middle" x="912.99" y="-74.5" font-family="Helvetica,sans-Serif" font-size="10.00">_toolbar.cpp</text>
</a>
</g>
</g>
<!-- Node24&#45;&gt;Node50 -->
<g id="edge50" class="edge">
<title>Node24&#45;&gt;Node50</title>
<path fill="none" stroke="midnightblue" d="M1674.05,-138.68C1660.15,-136.93 1645.62,-135.27 1631.99,-134 1343.9,-107.24 1268.84,-135.86 981.99,-98 978.96,-97.6 975.86,-97.14 972.74,-96.63"/>
<polygon fill="midnightblue" stroke="midnightblue" points="1673.67,-142.16 1684.04,-139.97 1674.57,-135.22 1673.67,-142.16"/>
</g>
<!-- Node33&#45;&gt;Node34 -->
<g id="edge32" class="edge">
<title>Node33&#45;&gt;Node34</title>
<path fill="none" stroke="midnightblue" d="M1806.56,-67.06C1984.04,-38.76 2182.62,-24.86 2276.14,-19.37"/>
<polygon fill="midnightblue" stroke="midnightblue" points="1805.83,-63.63 1796.52,-68.68 1806.95,-70.54 1805.83,-63.63"/>
</g>
<!-- Node46&#45;&gt;Node47 -->
<g id="edge47" class="edge">
<title>Node46&#45;&gt;Node47</title>
<path fill="none" stroke="midnightblue" d="M565.62,-66.96C489.34,-50.79 412.68,-35.99 362.75,-26.54"/>
<polygon fill="midnightblue" stroke="midnightblue" points="564.89,-70.38 575.4,-69.04 566.35,-63.54 564.89,-70.38"/>
</g>
</g>
</svg>
