<?xml version="1.0" encoding="UTF-8" standalone="no"?>
<!DOCTYPE svg PUBLIC "-//W3C//DTD SVG 1.1//EN"
 "http://www.w3.org/Graphics/SVG/1.1/DTD/svg11.dtd">
<!-- Generated by graphviz version 2.43.0 (0)
 -->
<!-- Title: src/libs/vmisc/vabstractapplication.h Pages: 1 -->
<!--zoomable 162 -->
<svg id="main" version="1.1" xmlns="http://www.w3.org/2000/svg" xmlns:xlink="http://www.w3.org/1999/xlink" xml:space="preserve" onload="init(evt)">
<style type="text/css"><![CDATA[
.edge:hover path { stroke: red; }
.edge:hover polygon { stroke: red; fill: red; }
]]></style>
<script type="text/javascript"><![CDATA[
var edges = document.getElementsByTagName('g');
if (edges && edges.length) {
  for (var i=0;i<edges.length;i++) {
    if (edges[i].id.substr(0,4)=='edge') {
      edges[i].setAttribute('class','edge');
    }
  }
}
]]></script>
        <defs>
                <circle id="rim" cx="0" cy="0" r="7"/>
                <circle id="rim2" cx="0" cy="0" r="3.5"/>
                <g id="zoomPlus">
                        <use xlink:href="#rim" fill="#404040">
                                <set attributeName="fill" to="#808080" begin="zoomplus.mouseover" end="zoomplus.mouseout"/>
                        </use>
                        <path d="M-4,0h8M0,-4v8" fill="none" stroke="white" stroke-width="1.5" pointer-events="none"/>
                </g>
                <g id="zoomMin">
                        <use xlink:href="#rim" fill="#404040">
                                <set attributeName="fill" to="#808080" begin="zoomminus.mouseover" end="zoomminus.mouseout"/>
                        </use>
                        <path d="M-4,0h8" fill="none" stroke="white" stroke-width="1.5" pointer-events="none"/>
                </g>
                <g id="dirArrow">
                        <path fill="none" stroke="white" stroke-width="1.5" d="M0,-3.0v7 M-2.5,-0.5L0,-3.0L2.5,-0.5"/>
                </g>
               <g id="resetDef">
                       <use xlink:href="#rim2" fill="#404040">
                               <set attributeName="fill" to="#808080" begin="reset.mouseover" end="reset.mouseout"/>
                       </use>
               </g>
        </defs>

<script type="text/javascript">
var viewWidth = 5699;
var viewHeight = 162;
var sectionId = 'dynsection-1';
</script>
<script xlink:href="../../svgpan.js"/>
<svg id="graph" class="graph">
<g id="viewport">
<title>src/libs/vmisc/vabstractapplication.h</title>
<polygon fill="white" stroke="transparent" points="-4,4 -4,-158 5695,-158 5695,4 -4,4"/>
<!-- Node1 -->
<g id="node1" class="node">
<title>Node1</title>
<g id="a_node1"><a xlink:title=" ">
<polygon fill="#bfbfbf" stroke="black" points="2367,-134.5 2367,-153.5 2562,-153.5 2562,-134.5 2367,-134.5"/>
<text text-anchor="middle" x="2464.5" y="-141.5" font-family="Helvetica,sans-Serif" font-size="10.00">src/libs/vmisc/vabstractapplication.h</text>
</a>
</g>
</g>
<!-- Node2 -->
<g id="node2" class="node">
<title>Node2</title>
<g id="a_node2"><a xlink:href="../../d4/d90/fvupdater_8cpp.html" target="_top" xlink:title=" ">
<polygon fill="white" stroke="black" points="0,-73 0,-92 153,-92 153,-73 0,-73"/>
<text text-anchor="middle" x="76.5" y="-80" font-family="Helvetica,sans-Serif" font-size="10.00">src/libs/fervor/fvupdater.cpp</text>
</a>
</g>
</g>
<!-- Node1&#45;&gt;Node2 -->
<g id="edge1" class="edge">
<title>Node1&#45;&gt;Node2</title>
<path fill="none" stroke="midnightblue" d="M2356.72,-143.03C1961.98,-142.81 595.71,-139.05 161.5,-98 147.64,-96.69 132.63,-94.42 119.14,-92.06"/>
<polygon fill="midnightblue" stroke="midnightblue" points="2356.98,-146.53 2366.99,-143.04 2356.99,-139.53 2356.98,-146.53"/>
</g>
<!-- Node3 -->
<g id="node3" class="node">
<title>Node3</title>
<g id="a_node3"><a xlink:href="../../d9/dc8/dxiface_8cpp.html" target="_top" xlink:title=" ">
<polygon fill="white" stroke="black" points="171,-73 171,-92 306,-92 306,-73 171,-73"/>
<text text-anchor="middle" x="238.5" y="-80" font-family="Helvetica,sans-Serif" font-size="10.00">src/libs/vdxf/dxiface.cpp</text>
</a>
</g>
</g>
<!-- Node1&#45;&gt;Node3 -->
<g id="edge2" class="edge">
<title>Node1&#45;&gt;Node3</title>
<path fill="none" stroke="midnightblue" d="M2356.88,-143.13C1979.43,-143.23 716.94,-140.3 314.5,-98 302.08,-96.69 288.65,-94.42 276.59,-92.06"/>
<polygon fill="midnightblue" stroke="midnightblue" points="2356.98,-146.63 2366.98,-143.13 2356.98,-139.63 2356.98,-146.63"/>
</g>
<!-- Node4 -->
<g id="node4" class="node">
<title>Node4</title>
<g id="a_node4"><a xlink:href="../../da/d75/vabstractarc__p_8h.html" target="_top" xlink:title=" ">
<polygon fill="white" stroke="black" points="324,-67.5 324,-97.5 431,-97.5 431,-67.5 324,-67.5"/>
<text text-anchor="start" x="332" y="-85.5" font-family="Helvetica,sans-Serif" font-size="10.00">src/libs/vgeometry</text>
<text text-anchor="middle" x="377.5" y="-74.5" font-family="Helvetica,sans-Serif" font-size="10.00">/vabstractarc_p.h</text>
</a>
</g>
</g>
<!-- Node1&#45;&gt;Node4 -->
<g id="edge3" class="edge">
<title>Node1&#45;&gt;Node4</title>
<path fill="none" stroke="midnightblue" d="M2356.67,-143.55C1993.3,-144.95 815.38,-145.61 439.5,-98 436.76,-97.65 433.96,-97.24 431.14,-96.76"/>
<polygon fill="midnightblue" stroke="midnightblue" points="2356.93,-147.05 2366.92,-143.51 2356.91,-140.05 2356.93,-147.05"/>
</g>
<!-- Node6 -->
<g id="node6" class="node">
<title>Node6</title>
<g id="a_node6"><a xlink:href="../../dc/da3/varc__p_8h.html" target="_top" xlink:title=" ">
<polygon fill="white" stroke="black" points="449,-67.5 449,-97.5 556,-97.5 556,-67.5 449,-67.5"/>
<text text-anchor="start" x="457" y="-85.5" font-family="Helvetica,sans-Serif" font-size="10.00">src/libs/vgeometry</text>
<text text-anchor="middle" x="502.5" y="-74.5" font-family="Helvetica,sans-Serif" font-size="10.00">/varc_p.h</text>
</a>
</g>
</g>
<!-- Node1&#45;&gt;Node6 -->
<g id="edge5" class="edge">
<title>Node1&#45;&gt;Node6</title>
<path fill="none" stroke="midnightblue" d="M2356.81,-143.37C2008.53,-144.09 914.95,-142.64 564.5,-98 561.76,-97.65 558.96,-97.23 556.15,-96.76"/>
<polygon fill="midnightblue" stroke="midnightblue" points="2356.9,-146.86 2366.9,-143.34 2356.89,-139.86 2356.9,-146.86"/>
</g>
<!-- Node8 -->
<g id="node8" class="node">
<title>Node8</title>
<g id="a_node8"><a xlink:href="../../d5/d8e/vcubicbezier__p_8h.html" target="_top" xlink:title=" ">
<polygon fill="white" stroke="black" points="574,-67.5 574,-97.5 681,-97.5 681,-67.5 574,-67.5"/>
<text text-anchor="start" x="582" y="-85.5" font-family="Helvetica,sans-Serif" font-size="10.00">src/libs/vgeometry</text>
<text text-anchor="middle" x="627.5" y="-74.5" font-family="Helvetica,sans-Serif" font-size="10.00">/vcubicbezier_p.h</text>
</a>
</g>
</g>
<!-- Node1&#45;&gt;Node8 -->
<g id="edge7" class="edge">
<title>Node1&#45;&gt;Node8</title>
<path fill="none" stroke="midnightblue" d="M2356.82,-143.15C2023.97,-143.17 1014.53,-139.68 689.5,-98 686.76,-97.65 683.96,-97.23 681.15,-96.75"/>
<polygon fill="midnightblue" stroke="midnightblue" points="2356.95,-146.65 2366.95,-143.15 2356.95,-139.65 2356.95,-146.65"/>
</g>
<!-- Node10 -->
<g id="node10" class="node">
<title>Node10</title>
<g id="a_node10"><a xlink:href="../../df/dde/vellipticalarc__p_8h.html" target="_top" xlink:title=" ">
<polygon fill="white" stroke="black" points="699,-67.5 699,-97.5 806,-97.5 806,-67.5 699,-67.5"/>
<text text-anchor="start" x="707" y="-85.5" font-family="Helvetica,sans-Serif" font-size="10.00">src/libs/vgeometry</text>
<text text-anchor="middle" x="752.5" y="-74.5" font-family="Helvetica,sans-Serif" font-size="10.00">/vellipticalarc_p.h</text>
</a>
</g>
</g>
<!-- Node1&#45;&gt;Node10 -->
<g id="edge9" class="edge">
<title>Node1&#45;&gt;Node10</title>
<path fill="none" stroke="midnightblue" d="M2356.67,-142.62C2040.51,-141.1 1119.29,-133.64 820.5,-98 815.83,-97.44 811,-96.72 806.17,-95.89"/>
<polygon fill="midnightblue" stroke="midnightblue" points="2356.74,-146.12 2366.76,-142.67 2356.78,-139.12 2356.74,-146.12"/>
</g>
<!-- Node11 -->
<g id="node11" class="node">
<title>Node11</title>
<g id="a_node11"><a xlink:href="../../d6/dfb/vellipticalarc_8cpp.html" target="_top" xlink:title=" ">
<polygon fill="white" stroke="black" points="719,-0.5 719,-30.5 826,-30.5 826,-0.5 719,-0.5"/>
<text text-anchor="start" x="727" y="-18.5" font-family="Helvetica,sans-Serif" font-size="10.00">src/libs/vgeometry</text>
<text text-anchor="middle" x="772.5" y="-7.5" font-family="Helvetica,sans-Serif" font-size="10.00">/vellipticalarc.cpp</text>
</a>
</g>
</g>
<!-- Node1&#45;&gt;Node11 -->
<g id="edge11" class="edge">
<title>Node1&#45;&gt;Node11</title>
<path fill="none" stroke="midnightblue" d="M2356.69,-142.18C2006.94,-139.25 922.36,-127.78 853.5,-98 836.75,-90.75 802.55,-52.22 784.42,-30.83"/>
<polygon fill="midnightblue" stroke="midnightblue" points="2356.8,-145.68 2366.82,-142.27 2356.85,-138.69 2356.8,-145.68"/>
</g>
<!-- Node12 -->
<g id="node12" class="node">
<title>Node12</title>
<g id="a_node12"><a xlink:href="../../d1/d76/vspline__p_8h.html" target="_top" xlink:title=" ">
<polygon fill="white" stroke="black" points="863,-67.5 863,-97.5 970,-97.5 970,-67.5 863,-67.5"/>
<text text-anchor="start" x="871" y="-85.5" font-family="Helvetica,sans-Serif" font-size="10.00">src/libs/vgeometry</text>
<text text-anchor="middle" x="916.5" y="-74.5" font-family="Helvetica,sans-Serif" font-size="10.00">/vspline_p.h</text>
</a>
</g>
</g>
<!-- Node1&#45;&gt;Node12 -->
<g id="edge12" class="edge">
<title>Node1&#45;&gt;Node12</title>
<path fill="none" stroke="midnightblue" d="M2356.71,-142.47C2061.79,-140.6 1245.9,-132.36 979.5,-98 976.49,-97.61 973.42,-97.15 970.33,-96.62"/>
<polygon fill="midnightblue" stroke="midnightblue" points="2356.96,-145.97 2366.98,-142.54 2357,-138.98 2356.96,-145.97"/>
</g>
<!-- Node14 -->
<g id="node14" class="node">
<title>Node14</title>
<g id="a_node14"><a xlink:href="../../d9/d15/vabstractpiece_8cpp.html" target="_top" xlink:title=" ">
<polygon fill="white" stroke="black" points="988.5,-73 988.5,-92 1174.5,-92 1174.5,-73 988.5,-73"/>
<text text-anchor="middle" x="1081.5" y="-80" font-family="Helvetica,sans-Serif" font-size="10.00">src/libs/vlayout/vabstractpiece.cpp</text>
</a>
</g>
</g>
<!-- Node1&#45;&gt;Node14 -->
<g id="edge14" class="edge">
<title>Node1&#45;&gt;Node14</title>
<path fill="none" stroke="midnightblue" d="M2356.36,-143.07C2135.52,-142.35 1616.91,-136.31 1183.5,-98 1167.29,-96.57 1149.71,-94.32 1133.79,-92.02"/>
<polygon fill="midnightblue" stroke="midnightblue" points="2356.64,-146.57 2366.65,-143.1 2356.67,-139.57 2356.64,-146.57"/>
</g>
<!-- Node15 -->
<g id="node15" class="node">
<title>Node15</title>
<g id="a_node15"><a xlink:href="../../d8/d70/vtextmanager_8cpp.html" target="_top" xlink:title=" ">
<polygon fill="white" stroke="black" points="1192.5,-73 1192.5,-92 1374.5,-92 1374.5,-73 1192.5,-73"/>
<text text-anchor="middle" x="1283.5" y="-80" font-family="Helvetica,sans-Serif" font-size="10.00">src/libs/vlayout/vtextmanager.cpp</text>
</a>
</g>
</g>
<!-- Node1&#45;&gt;Node15 -->
<g id="edge15" class="edge">
<title>Node1&#45;&gt;Node15</title>
<path fill="none" stroke="midnightblue" d="M2356.4,-142.16C2161.53,-139.83 1738.58,-131.05 1383.5,-98 1367.69,-96.53 1350.56,-94.29 1335.02,-92"/>
<polygon fill="midnightblue" stroke="midnightblue" points="2356.6,-145.66 2366.64,-142.28 2356.68,-138.66 2356.6,-145.66"/>
</g>
<!-- Node16 -->
<g id="node16" class="node">
<title>Node16</title>
<g id="a_node16"><a xlink:href="../../dd/d70/vlayoutpiece_8cpp.html" target="_top" xlink:title=" ">
<polygon fill="white" stroke="black" points="1393,-73 1393,-92 1570,-92 1570,-73 1393,-73"/>
<text text-anchor="middle" x="1481.5" y="-80" font-family="Helvetica,sans-Serif" font-size="10.00">src/libs/vlayout/vlayoutpiece.cpp</text>
</a>
</g>
</g>
<!-- Node1&#45;&gt;Node16 -->
<g id="edge16" class="edge">
<title>Node1&#45;&gt;Node16</title>
<path fill="none" stroke="midnightblue" d="M2356.44,-140.85C2189.45,-136.77 1858.79,-125.7 1579.5,-98 1564.27,-96.49 1547.78,-94.28 1532.75,-92.03"/>
<polygon fill="midnightblue" stroke="midnightblue" points="2356.63,-144.35 2366.71,-141.1 2356.79,-137.36 2356.63,-144.35"/>
</g>
<!-- Node17 -->
<g id="node17" class="node">
<title>Node17</title>
<g id="a_node17"><a xlink:href="../../d6/d0b/def_8cpp.html" target="_top" xlink:title=" ">
<polygon fill="white" stroke="black" points="1588.5,-73 1588.5,-92 1710.5,-92 1710.5,-73 1588.5,-73"/>
<text text-anchor="middle" x="1649.5" y="-80" font-family="Helvetica,sans-Serif" font-size="10.00">src/libs/vmisc/def.cpp</text>
</a>
</g>
</g>
<!-- Node1&#45;&gt;Node17 -->
<g id="edge17" class="edge">
<title>Node1&#45;&gt;Node17</title>
<path fill="none" stroke="midnightblue" d="M2356.49,-141.34C2211.14,-138 1944.81,-127.98 1719.5,-98 1708.43,-96.53 1696.49,-94.3 1685.66,-92.03"/>
<polygon fill="midnightblue" stroke="midnightblue" points="2356.67,-144.85 2366.74,-141.57 2356.82,-137.85 2356.67,-144.85"/>
</g>
<!-- Node18 -->
<g id="node18" class="node">
<title>Node18</title>
<g id="a_node18"><a xlink:href="../../db/d65/dialogexporttocsv_8cpp.html" target="_top" xlink:title=" ">
<polygon fill="white" stroke="black" points="1729,-67.5 1729,-97.5 1856,-97.5 1856,-67.5 1729,-67.5"/>
<text text-anchor="start" x="1737" y="-85.5" font-family="Helvetica,sans-Serif" font-size="10.00">src/libs/vmisc/dialogs</text>
<text text-anchor="middle" x="1792.5" y="-74.5" font-family="Helvetica,sans-Serif" font-size="10.00">/dialogexporttocsv.cpp</text>
</a>
</g>
</g>
<!-- Node1&#45;&gt;Node18 -->
<g id="edge18" class="edge">
<title>Node1&#45;&gt;Node18</title>
<path fill="none" stroke="midnightblue" d="M2356.55,-138.83C2236.29,-133.27 2036.31,-121.29 1865.5,-98 1862.43,-97.58 1859.29,-97.11 1856.12,-96.61"/>
<polygon fill="midnightblue" stroke="midnightblue" points="2356.7,-142.34 2366.85,-139.3 2357.02,-135.35 2356.7,-142.34"/>
</g>
<!-- Node19 -->
<g id="node19" class="node">
<title>Node19</title>
<g id="a_node19"><a xlink:href="../../d0/df6/vabstractapplication_8cpp.html" target="_top" xlink:title=" ">
<polygon fill="white" stroke="black" points="1874.5,-73 1874.5,-92 2080.5,-92 2080.5,-73 1874.5,-73"/>
<text text-anchor="middle" x="1977.5" y="-80" font-family="Helvetica,sans-Serif" font-size="10.00">src/libs/vmisc/vabstractapplication.cpp</text>
</a>
</g>
</g>
<!-- Node1&#45;&gt;Node19 -->
<g id="edge19" class="edge">
<title>Node1&#45;&gt;Node19</title>
<path fill="none" stroke="midnightblue" d="M2381.89,-133.31C2305.89,-124.34 2190.07,-110.54 2089.5,-98 2074.32,-96.11 2058,-94.02 2042.63,-92.04"/>
<polygon fill="midnightblue" stroke="midnightblue" points="2381.54,-136.79 2391.89,-134.49 2382.36,-129.84 2381.54,-136.79"/>
</g>
<!-- Node20 -->
<g id="node20" class="node">
<title>Node20</title>
<g id="a_node20"><a xlink:href="../../d4/d4f/pmsystems_8cpp.html" target="_top" xlink:title=" ">
<polygon fill="white" stroke="black" points="2099,-67.5 2099,-97.5 2206,-97.5 2206,-67.5 2099,-67.5"/>
<text text-anchor="start" x="2107" y="-85.5" font-family="Helvetica,sans-Serif" font-size="10.00">src/libs/vpatterndb</text>
<text text-anchor="middle" x="2152.5" y="-74.5" font-family="Helvetica,sans-Serif" font-size="10.00">/pmsystems.cpp</text>
</a>
</g>
</g>
<!-- Node1&#45;&gt;Node20 -->
<g id="edge20" class="edge">
<title>Node1&#45;&gt;Node20</title>
<path fill="none" stroke="midnightblue" d="M2402.5,-132.76C2351.8,-124.16 2278.34,-111.2 2214.5,-98 2211.79,-97.44 2209.02,-96.85 2206.23,-96.25"/>
<polygon fill="midnightblue" stroke="midnightblue" points="2402.2,-136.25 2412.64,-134.47 2403.36,-129.35 2402.2,-136.25"/>
</g>
<!-- Node21 -->
<g id="node21" class="node">
<title>Node21</title>
<g id="a_node21"><a xlink:href="../../d6/d46/vcontainer_8cpp.html" target="_top" xlink:title=" ">
<polygon fill="white" stroke="black" points="2224,-67.5 2224,-97.5 2331,-97.5 2331,-67.5 2224,-67.5"/>
<text text-anchor="start" x="2232" y="-85.5" font-family="Helvetica,sans-Serif" font-size="10.00">src/libs/vpatterndb</text>
<text text-anchor="middle" x="2277.5" y="-74.5" font-family="Helvetica,sans-Serif" font-size="10.00">/vcontainer.cpp</text>
</a>
</g>
</g>
<!-- Node1&#45;&gt;Node21 -->
<g id="edge21" class="edge">
<title>Node1&#45;&gt;Node21</title>
<path fill="none" stroke="midnightblue" d="M2427.91,-131.36C2397.44,-121.66 2353.95,-107.83 2321.57,-97.52"/>
<polygon fill="midnightblue" stroke="midnightblue" points="2427.12,-134.78 2437.71,-134.48 2429.24,-128.11 2427.12,-134.78"/>
</g>
<!-- Node22 -->
<g id="node22" class="node">
<title>Node22</title>
<g id="a_node22"><a xlink:href="../../db/d11/vformula_8cpp.html" target="_top" xlink:title=" ">
<polygon fill="white" stroke="black" points="2349,-67.5 2349,-97.5 2456,-97.5 2456,-67.5 2349,-67.5"/>
<text text-anchor="start" x="2357" y="-85.5" font-family="Helvetica,sans-Serif" font-size="10.00">src/libs/vpatterndb</text>
<text text-anchor="middle" x="2402.5" y="-74.5" font-family="Helvetica,sans-Serif" font-size="10.00">/vformula.cpp</text>
</a>
</g>
</g>
<!-- Node1&#45;&gt;Node22 -->
<g id="edge22" class="edge">
<title>Node1&#45;&gt;Node22</title>
<path fill="none" stroke="midnightblue" d="M2448.21,-127.37C2438.57,-118.11 2426.45,-106.48 2417.11,-97.52"/>
<polygon fill="midnightblue" stroke="midnightblue" points="2445.98,-130.08 2455.62,-134.48 2450.83,-125.03 2445.98,-130.08"/>
</g>
<!-- Node23 -->
<g id="node23" class="node">
<title>Node23</title>
<g id="a_node23"><a xlink:href="../../df/d7a/vpiece_8cpp.html" target="_top" xlink:title=" ">
<polygon fill="white" stroke="black" points="2474,-67.5 2474,-97.5 2581,-97.5 2581,-67.5 2474,-67.5"/>
<text text-anchor="start" x="2482" y="-85.5" font-family="Helvetica,sans-Serif" font-size="10.00">src/libs/vpatterndb</text>
<text text-anchor="middle" x="2527.5" y="-74.5" font-family="Helvetica,sans-Serif" font-size="10.00">/vpiece.cpp</text>
</a>
</g>
</g>
<!-- Node1&#45;&gt;Node23 -->
<g id="edge23" class="edge">
<title>Node1&#45;&gt;Node23</title>
<path fill="none" stroke="midnightblue" d="M2481.05,-127.37C2490.85,-118.11 2503.17,-106.48 2512.65,-97.52"/>
<polygon fill="midnightblue" stroke="midnightblue" points="2478.39,-125.06 2473.53,-134.48 2483.2,-130.15 2478.39,-125.06"/>
</g>
<!-- Node24 -->
<g id="node24" class="node">
<title>Node24</title>
<g id="a_node24"><a xlink:href="../../df/dba/vpiecenode__p_8h.html" target="_top" xlink:title=" ">
<polygon fill="white" stroke="black" points="2599,-67.5 2599,-97.5 2706,-97.5 2706,-67.5 2599,-67.5"/>
<text text-anchor="start" x="2607" y="-85.5" font-family="Helvetica,sans-Serif" font-size="10.00">src/libs/vpatterndb</text>
<text text-anchor="middle" x="2652.5" y="-74.5" font-family="Helvetica,sans-Serif" font-size="10.00">/vpiecenode_p.h</text>
</a>
</g>
</g>
<!-- Node1&#45;&gt;Node24 -->
<g id="edge24" class="edge">
<title>Node1&#45;&gt;Node24</title>
<path fill="none" stroke="midnightblue" d="M2501.29,-131.36C2531.92,-121.66 2575.64,-107.83 2608.19,-97.52"/>
<polygon fill="midnightblue" stroke="midnightblue" points="2499.91,-128.12 2491.44,-134.48 2502.03,-134.79 2499.91,-128.12"/>
</g>
<!-- Node26 -->
<g id="node26" class="node">
<title>Node26</title>
<g id="a_node26"><a xlink:href="../../de/d3e/vtranslatevars_8cpp.html" target="_top" xlink:title=" ">
<polygon fill="white" stroke="black" points="2724.5,-67.5 2724.5,-97.5 2834.5,-97.5 2834.5,-67.5 2724.5,-67.5"/>
<text text-anchor="start" x="2732.5" y="-85.5" font-family="Helvetica,sans-Serif" font-size="10.00">src/libs/vpatterndb</text>
<text text-anchor="middle" x="2779.5" y="-74.5" font-family="Helvetica,sans-Serif" font-size="10.00">/vtranslatevars.cpp</text>
</a>
</g>
</g>
<!-- Node1&#45;&gt;Node26 -->
<g id="edge26" class="edge">
<title>Node1&#45;&gt;Node26</title>
<path fill="none" stroke="midnightblue" d="M2525.93,-132.79C2576.84,-124.13 2651.03,-111.08 2715.5,-98 2718.4,-97.41 2721.38,-96.79 2724.38,-96.16"/>
<polygon fill="midnightblue" stroke="midnightblue" points="2525.34,-129.34 2516.07,-134.46 2526.51,-136.24 2525.34,-129.34"/>
</g>
<!-- Node27 -->
<g id="node27" class="node">
<title>Node27</title>
<g id="a_node27"><a xlink:href="../../df/d40/export__format__combobox_8cpp.html" target="_top" xlink:title=" ">
<polygon fill="white" stroke="black" points="2853,-67.5 2853,-97.5 2986,-97.5 2986,-67.5 2853,-67.5"/>
<text text-anchor="start" x="2861" y="-85.5" font-family="Helvetica,sans-Serif" font-size="10.00">src/libs/vwidgets/export</text>
<text text-anchor="middle" x="2919.5" y="-74.5" font-family="Helvetica,sans-Serif" font-size="10.00">_format_combobox.cpp</text>
</a>
</g>
</g>
<!-- Node1&#45;&gt;Node27 -->
<g id="edge27" class="edge">
<title>Node1&#45;&gt;Node27</title>
<path fill="none" stroke="midnightblue" d="M2561.04,-133.43C2637.79,-125.37 2747.77,-112.8 2843.5,-98 2846.55,-97.53 2849.67,-97.02 2852.82,-96.5"/>
<polygon fill="midnightblue" stroke="midnightblue" points="2560.49,-129.97 2550.91,-134.49 2561.22,-136.93 2560.49,-129.97"/>
</g>
<!-- Node28 -->
<g id="node28" class="node">
<title>Node28</title>
<g id="a_node28"><a xlink:href="../../d3/d4f/mouse__coordinates_8cpp.html" target="_top" xlink:title=" ">
<polygon fill="white" stroke="black" points="3004.5,-67.5 3004.5,-97.5 3138.5,-97.5 3138.5,-67.5 3004.5,-67.5"/>
<text text-anchor="start" x="3012.5" y="-85.5" font-family="Helvetica,sans-Serif" font-size="10.00">src/libs/vwidgets/mouse</text>
<text text-anchor="middle" x="3071.5" y="-74.5" font-family="Helvetica,sans-Serif" font-size="10.00">_coordinates.cpp</text>
</a>
</g>
</g>
<!-- Node1&#45;&gt;Node28 -->
<g id="edge28" class="edge">
<title>Node1&#45;&gt;Node28</title>
<path fill="none" stroke="midnightblue" d="M2572.43,-137.15C2679.97,-130.55 2849.66,-118.04 2995.5,-98 2998.43,-97.6 3001.41,-97.16 3004.43,-96.69"/>
<polygon fill="midnightblue" stroke="midnightblue" points="2571.99,-133.67 2562.22,-137.77 2572.41,-140.66 2571.99,-133.67"/>
</g>
<!-- Node29 -->
<g id="node29" class="node">
<title>Node29</title>
<g id="a_node29"><a xlink:href="../../d7/d1b/pen__toolbar_8cpp.html" target="_top" xlink:title=" ">
<polygon fill="white" stroke="black" points="3157,-67.5 3157,-97.5 3276,-97.5 3276,-67.5 3157,-67.5"/>
<text text-anchor="start" x="3165" y="-85.5" font-family="Helvetica,sans-Serif" font-size="10.00">src/libs/vwidgets/pen</text>
<text text-anchor="middle" x="3216.5" y="-74.5" font-family="Helvetica,sans-Serif" font-size="10.00">_toolbar.cpp</text>
</a>
</g>
</g>
<!-- Node1&#45;&gt;Node29 -->
<g id="edge29" class="edge">
<title>Node1&#45;&gt;Node29</title>
<path fill="none" stroke="midnightblue" d="M2572.55,-140.59C2707.6,-136.5 2945.56,-125.73 3147.5,-98 3150.53,-97.58 3153.63,-97.11 3156.75,-96.6"/>
<polygon fill="midnightblue" stroke="midnightblue" points="2572.1,-137.1 2562.21,-140.9 2572.31,-144.1 2572.1,-137.1"/>
</g>
<!-- Node30 -->
<g id="node30" class="node">
<title>Node30</title>
<g id="a_node30"><a xlink:href="../../d8/d76/scene__rect_8cpp.html" target="_top" xlink:title=" ">
<polygon fill="white" stroke="black" points="3294.5,-67.5 3294.5,-97.5 3424.5,-97.5 3424.5,-67.5 3294.5,-67.5"/>
<text text-anchor="start" x="3302.5" y="-85.5" font-family="Helvetica,sans-Serif" font-size="10.00">src/libs/vwidgets/scene</text>
<text text-anchor="middle" x="3359.5" y="-74.5" font-family="Helvetica,sans-Serif" font-size="10.00">_rect.cpp</text>
</a>
</g>
</g>
<!-- Node1&#45;&gt;Node30 -->
<g id="edge30" class="edge">
<title>Node1&#45;&gt;Node30</title>
<path fill="none" stroke="midnightblue" d="M2572.36,-141.85C2729.71,-139.09 3031.16,-129.73 3285.5,-98 3288.36,-97.64 3291.27,-97.24 3294.21,-96.8"/>
<polygon fill="midnightblue" stroke="midnightblue" points="2572.14,-138.35 2562.2,-142.02 2572.26,-145.35 2572.14,-138.35"/>
</g>
<!-- Node31 -->
<g id="node31" class="node">
<title>Node31</title>
<g id="a_node31"><a xlink:href="../../dd/df6/vabstractmainwindow_8cpp.html" target="_top" xlink:title=" ">
<polygon fill="white" stroke="black" points="3443,-73 3443,-92 3672,-92 3672,-73 3443,-73"/>
<text text-anchor="middle" x="3557.5" y="-80" font-family="Helvetica,sans-Serif" font-size="10.00">src/libs/vwidgets/vabstractmainwindow.cpp</text>
</a>
</g>
</g>
<!-- Node1&#45;&gt;Node31 -->
<g id="edge31" class="edge">
<title>Node1&#45;&gt;Node31</title>
<path fill="none" stroke="midnightblue" d="M2572.51,-140.45C2751.67,-135.67 3121.48,-123.46 3433.5,-98 3452.51,-96.45 3473.1,-94.25 3491.94,-92.03"/>
<polygon fill="midnightblue" stroke="midnightblue" points="2572.2,-136.96 2562.3,-140.72 2572.39,-143.96 2572.2,-136.96"/>
</g>
<!-- Node32 -->
<g id="node32" class="node">
<title>Node32</title>
<g id="a_node32"><a xlink:href="../../de/d45/vcontrolpointspline_8cpp.html" target="_top" xlink:title=" ">
<polygon fill="white" stroke="black" points="3690,-73 3690,-92 3905,-92 3905,-73 3690,-73"/>
<text text-anchor="middle" x="3797.5" y="-80" font-family="Helvetica,sans-Serif" font-size="10.00">src/libs/vwidgets/vcontrolpointspline.cpp</text>
</a>
</g>
</g>
<!-- Node1&#45;&gt;Node32 -->
<g id="edge32" class="edge">
<title>Node1&#45;&gt;Node32</title>
<path fill="none" stroke="midnightblue" d="M2572.3,-142.17C2784.83,-139.85 3272.77,-131.04 3681.5,-98 3699.71,-96.53 3719.45,-94.3 3737.4,-92.03"/>
<polygon fill="midnightblue" stroke="midnightblue" points="2572.04,-138.68 2562.08,-142.28 2572.12,-145.68 2572.04,-138.68"/>
</g>
<!-- Node33 -->
<g id="node33" class="node">
<title>Node33</title>
<g id="a_node33"><a xlink:href="../../d1/d90/vgrainlineitem_8cpp.html" target="_top" xlink:title=" ">
<polygon fill="white" stroke="black" points="3923,-73 3923,-92 4116,-92 4116,-73 3923,-73"/>
<text text-anchor="middle" x="4019.5" y="-80" font-family="Helvetica,sans-Serif" font-size="10.00">src/libs/vwidgets/vgrainlineitem.cpp</text>
</a>
</g>
</g>
<!-- Node1&#45;&gt;Node33 -->
<g id="edge33" class="edge">
<title>Node1&#45;&gt;Node33</title>
<path fill="none" stroke="midnightblue" d="M2572.46,-143.56C2813.59,-143.96 3414.11,-140.2 3914.5,-98 3931.28,-96.59 3949.48,-94.33 3965.94,-92.01"/>
<polygon fill="midnightblue" stroke="midnightblue" points="2572.3,-140.06 2562.29,-143.54 2572.29,-147.06 2572.3,-140.06"/>
</g>
<!-- Node34 -->
<g id="node34" class="node">
<title>Node34</title>
<g id="a_node34"><a xlink:href="../../de/dec/vgraphicssimpletextitem_8cpp.html" target="_top" xlink:title=" ">
<polygon fill="white" stroke="black" points="4134.5,-73 4134.5,-92 4378.5,-92 4378.5,-73 4134.5,-73"/>
<text text-anchor="middle" x="4256.5" y="-80" font-family="Helvetica,sans-Serif" font-size="10.00">src/libs/vwidgets/vgraphicssimpletextitem.cpp</text>
</a>
</g>
</g>
<!-- Node1&#45;&gt;Node34 -->
<g id="edge34" class="edge">
<title>Node1&#45;&gt;Node34</title>
<path fill="none" stroke="midnightblue" d="M2572.85,-143.18C2838.05,-142.94 3540.82,-138.21 4125.5,-98 4146.27,-96.57 4168.83,-94.33 4189.28,-92.03"/>
<polygon fill="midnightblue" stroke="midnightblue" points="2572.45,-139.68 2562.46,-143.19 2572.46,-146.68 2572.45,-139.68"/>
</g>
<!-- Node35 -->
<g id="node35" class="node">
<title>Node35</title>
<g id="a_node35"><a xlink:href="../../d1/d88/vmaingraphicsscene_8cpp.html" target="_top" xlink:title=" ">
<polygon fill="white" stroke="black" points="4396.5,-73 4396.5,-92 4618.5,-92 4618.5,-73 4396.5,-73"/>
<text text-anchor="middle" x="4507.5" y="-80" font-family="Helvetica,sans-Serif" font-size="10.00">src/libs/vwidgets/vmaingraphicsscene.cpp</text>
</a>
</g>
</g>
<!-- Node1&#45;&gt;Node35 -->
<g id="edge35" class="edge">
<title>Node1&#45;&gt;Node35</title>
<path fill="none" stroke="midnightblue" d="M2572.42,-141.85C2923.44,-137.9 4030.56,-123.68 4387.5,-98 4406.76,-96.61 4427.67,-94.35 4446.56,-92.02"/>
<polygon fill="midnightblue" stroke="midnightblue" points="2572.22,-138.35 2562.26,-141.97 2572.3,-145.35 2572.22,-138.35"/>
</g>
<!-- Node36 -->
<g id="node36" class="node">
<title>Node36</title>
<g id="a_node36"><a xlink:href="../../d2/d31/vmaingraphicsview_8cpp.html" target="_top" xlink:title=" ">
<polygon fill="white" stroke="black" points="4636.5,-73 4636.5,-92 4852.5,-92 4852.5,-73 4636.5,-73"/>
<text text-anchor="middle" x="4744.5" y="-80" font-family="Helvetica,sans-Serif" font-size="10.00">src/libs/vwidgets/vmaingraphicsview.cpp</text>
</a>
</g>
</g>
<!-- Node1&#45;&gt;Node36 -->
<g id="edge36" class="edge">
<title>Node1&#45;&gt;Node36</title>
<path fill="none" stroke="midnightblue" d="M2572.36,-142.22C2951.41,-139.25 4221.34,-127.32 4627.5,-98 4646.38,-96.64 4666.9,-94.37 4685.4,-92.02"/>
<polygon fill="midnightblue" stroke="midnightblue" points="2572.19,-138.72 2562.22,-142.3 2572.25,-145.72 2572.19,-138.72"/>
</g>
<!-- Node37 -->
<g id="node37" class="node">
<title>Node37</title>
<g id="a_node37"><a xlink:href="../../d0/d5d/vscenepoint_8cpp.html" target="_top" xlink:title=" ">
<polygon fill="white" stroke="black" points="4871,-73 4871,-92 5052,-92 5052,-73 4871,-73"/>
<text text-anchor="middle" x="4961.5" y="-80" font-family="Helvetica,sans-Serif" font-size="10.00">src/libs/vwidgets/vscenepoint.cpp</text>
</a>
</g>
</g>
<!-- Node1&#45;&gt;Node37 -->
<g id="edge37" class="edge">
<title>Node1&#45;&gt;Node37</title>
<path fill="none" stroke="midnightblue" d="M2572.53,-142.77C2977.79,-141.63 4407.53,-135.03 4861.5,-98 4877.76,-96.67 4895.4,-94.4 4911.28,-92.04"/>
<polygon fill="midnightblue" stroke="midnightblue" points="2572.27,-139.27 2562.28,-142.8 2572.29,-146.27 2572.27,-139.27"/>
</g>
<!-- Node38 -->
<g id="node38" class="node">
<title>Node38</title>
<g id="a_node38"><a xlink:href="../../de/d22/vsimplecurve_8cpp.html" target="_top" xlink:title=" ">
<polygon fill="white" stroke="black" points="5070.5,-73 5070.5,-92 5258.5,-92 5258.5,-73 5070.5,-73"/>
<text text-anchor="middle" x="5164.5" y="-80" font-family="Helvetica,sans-Serif" font-size="10.00">src/libs/vwidgets/vsimplecurve.cpp</text>
</a>
</g>
</g>
<!-- Node1&#45;&gt;Node38 -->
<g id="edge38" class="edge">
<title>Node1&#45;&gt;Node38</title>
<path fill="none" stroke="midnightblue" d="M2572.47,-142.89C2998.82,-142.21 4566.11,-137.01 5061.5,-98 5078.33,-96.67 5096.61,-94.38 5113.03,-92.01"/>
<polygon fill="midnightblue" stroke="midnightblue" points="2572.3,-139.39 2562.31,-142.91 2572.32,-146.39 2572.3,-139.39"/>
</g>
<!-- Node39 -->
<g id="node39" class="node">
<title>Node39</title>
<g id="a_node39"><a xlink:href="../../df/d38/vsimplepoint_8cpp.html" target="_top" xlink:title=" ">
<polygon fill="white" stroke="black" points="5277,-73 5277,-92 5462,-92 5462,-73 5277,-73"/>
<text text-anchor="middle" x="5369.5" y="-80" font-family="Helvetica,sans-Serif" font-size="10.00">src/libs/vwidgets/vsimplepoint.cpp</text>
</a>
</g>
</g>
<!-- Node1&#45;&gt;Node39 -->
<g id="edge39" class="edge">
<title>Node1&#45;&gt;Node39</title>
<path fill="none" stroke="midnightblue" d="M2572.35,-143.08C3019.5,-143.11 4729.4,-140.4 5267.5,-98 5284.17,-96.69 5302.27,-94.4 5318.53,-92.02"/>
<polygon fill="midnightblue" stroke="midnightblue" points="2572.34,-139.58 2562.34,-143.07 2572.34,-146.58 2572.34,-139.58"/>
</g>
<!-- Node40 -->
<g id="node40" class="node">
<title>Node40</title>
<g id="a_node40"><a xlink:href="../../df/df5/vtextgraphicsitem_8cpp.html" target="_top" xlink:title=" ">
<polygon fill="white" stroke="black" points="5480,-73 5480,-92 5691,-92 5691,-73 5480,-73"/>
<text text-anchor="middle" x="5585.5" y="-80" font-family="Helvetica,sans-Serif" font-size="10.00">src/libs/vwidgets/vtextgraphicsitem.cpp</text>
</a>
</g>
</g>
<!-- Node1&#45;&gt;Node40 -->
<g id="edge40" class="edge">
<title>Node1&#45;&gt;Node40</title>
<path fill="none" stroke="midnightblue" d="M2572.31,-143C3039.37,-142.76 4890.7,-139.15 5471.5,-98 5490.11,-96.68 5510.33,-94.39 5528.51,-92.02"/>
<polygon fill="midnightblue" stroke="midnightblue" points="2572.19,-139.5 2562.2,-143.01 2572.2,-146.5 2572.19,-139.5"/>
</g>
<!-- Node5 -->
<g id="node5" class="node">
<title>Node5</title>
<g id="a_node5"><a xlink:href="../../d4/da1/vabstractarc_8cpp.html" target="_top" xlink:title=" ">
<polygon fill="white" stroke="black" points="324,-0.5 324,-30.5 431,-30.5 431,-0.5 324,-0.5"/>
<text text-anchor="start" x="332" y="-18.5" font-family="Helvetica,sans-Serif" font-size="10.00">src/libs/vgeometry</text>
<text text-anchor="middle" x="377.5" y="-7.5" font-family="Helvetica,sans-Serif" font-size="10.00">/vabstractarc.cpp</text>
</a>
</g>
</g>
<!-- Node4&#45;&gt;Node5 -->
<g id="edge4" class="edge">
<title>Node4&#45;&gt;Node5</title>
<path fill="none" stroke="midnightblue" d="M377.5,-57.11C377.5,-48.15 377.5,-38.32 377.5,-30.58"/>
<polygon fill="midnightblue" stroke="midnightblue" points="374,-57.4 377.5,-67.4 381,-57.4 374,-57.4"/>
</g>
<!-- Node7 -->
<g id="node7" class="node">
<title>Node7</title>
<g id="a_node7"><a xlink:href="../../d5/ded/varc_8cpp.html" target="_top" xlink:title=" ">
<polygon fill="white" stroke="black" points="449,-0.5 449,-30.5 556,-30.5 556,-0.5 449,-0.5"/>
<text text-anchor="start" x="457" y="-18.5" font-family="Helvetica,sans-Serif" font-size="10.00">src/libs/vgeometry</text>
<text text-anchor="middle" x="502.5" y="-7.5" font-family="Helvetica,sans-Serif" font-size="10.00">/varc.cpp</text>
</a>
</g>
</g>
<!-- Node6&#45;&gt;Node7 -->
<g id="edge6" class="edge">
<title>Node6&#45;&gt;Node7</title>
<path fill="none" stroke="midnightblue" d="M502.5,-57.11C502.5,-48.15 502.5,-38.32 502.5,-30.58"/>
<polygon fill="midnightblue" stroke="midnightblue" points="499,-57.4 502.5,-67.4 506,-57.4 499,-57.4"/>
</g>
<!-- Node9 -->
<g id="node9" class="node">
<title>Node9</title>
<g id="a_node9"><a xlink:href="../../d2/d26/vcubicbezier_8cpp.html" target="_top" xlink:title=" ">
<polygon fill="white" stroke="black" points="574,-0.5 574,-30.5 681,-30.5 681,-0.5 574,-0.5"/>
<text text-anchor="start" x="582" y="-18.5" font-family="Helvetica,sans-Serif" font-size="10.00">src/libs/vgeometry</text>
<text text-anchor="middle" x="627.5" y="-7.5" font-family="Helvetica,sans-Serif" font-size="10.00">/vcubicbezier.cpp</text>
</a>
</g>
</g>
<!-- Node8&#45;&gt;Node9 -->
<g id="edge8" class="edge">
<title>Node8&#45;&gt;Node9</title>
<path fill="none" stroke="midnightblue" d="M627.5,-57.11C627.5,-48.15 627.5,-38.32 627.5,-30.58"/>
<polygon fill="midnightblue" stroke="midnightblue" points="624,-57.4 627.5,-67.4 631,-57.4 624,-57.4"/>
</g>
<!-- Node10&#45;&gt;Node11 -->
<g id="edge10" class="edge">
<title>Node10&#45;&gt;Node11</title>
<path fill="none" stroke="midnightblue" d="M759.82,-57.7C762.63,-48.59 765.73,-38.49 768.17,-30.58"/>
<polygon fill="midnightblue" stroke="midnightblue" points="756.44,-56.81 756.84,-67.4 763.13,-58.87 756.44,-56.81"/>
</g>
<!-- Node13 -->
<g id="node13" class="node">
<title>Node13</title>
<g id="a_node13"><a xlink:href="../../d5/dd2/vspline_8cpp.html" target="_top" xlink:title=" ">
<polygon fill="white" stroke="black" points="863,-0.5 863,-30.5 970,-30.5 970,-0.5 863,-0.5"/>
<text text-anchor="start" x="871" y="-18.5" font-family="Helvetica,sans-Serif" font-size="10.00">src/libs/vgeometry</text>
<text text-anchor="middle" x="916.5" y="-7.5" font-family="Helvetica,sans-Serif" font-size="10.00">/vspline.cpp</text>
</a>
</g>
</g>
<!-- Node12&#45;&gt;Node13 -->
<g id="edge13" class="edge">
<title>Node12&#45;&gt;Node13</title>
<path fill="none" stroke="midnightblue" d="M916.5,-57.11C916.5,-48.15 916.5,-38.32 916.5,-30.58"/>
<polygon fill="midnightblue" stroke="midnightblue" points="913,-57.4 916.5,-67.4 920,-57.4 913,-57.4"/>
</g>
<!-- Node25 -->
<g id="node25" class="node">
<title>Node25</title>
<g id="a_node25"><a xlink:href="../../d8/dba/vpiecenode_8cpp.html" target="_top" xlink:title=" ">
<polygon fill="white" stroke="black" points="2599,-0.5 2599,-30.5 2706,-30.5 2706,-0.5 2599,-0.5"/>
<text text-anchor="start" x="2607" y="-18.5" font-family="Helvetica,sans-Serif" font-size="10.00">src/libs/vpatterndb</text>
<text text-anchor="middle" x="2652.5" y="-7.5" font-family="Helvetica,sans-Serif" font-size="10.00">/vpiecenode.cpp</text>
</a>
</g>
</g>
<!-- Node24&#45;&gt;Node25 -->
<g id="edge25" class="edge">
<title>Node24&#45;&gt;Node25</title>
<path fill="none" stroke="midnightblue" d="M2652.5,-57.11C2652.5,-48.15 2652.5,-38.32 2652.5,-30.58"/>
<polygon fill="midnightblue" stroke="midnightblue" points="2649,-57.4 2652.5,-67.4 2656,-57.4 2649,-57.4"/>
</g>
</g>
</svg>
        <g id="navigator" transform="translate(0 0)" fill="#404254">
                <rect fill="#f2f5e9" fill-opacity="0.5" stroke="#606060" stroke-width=".5" x="0" y="0" width="60" height="60"/>
                <use id="zoomplus" xlink:href="#zoomPlus" x="17" y="9" onmousedown="handleZoom(evt,'in')"/>
                <use id="zoomminus" xlink:href="#zoomMin" x="42" y="9" onmousedown="handleZoom(evt,'out')"/>
                <use id="reset" xlink:href="#resetDef" x="30" y="36" onmousedown="handleReset()"/>
                <g id="arrowUp" xlink:href="#dirArrow" transform="translate(30 24)" onmousedown="handlePan(0,-1)">
                  <use xlink:href="#rim" fill="#404040">
                        <set attributeName="fill" to="#808080" begin="arrowUp.mouseover" end="arrowUp.mouseout"/>
                  </use>
                  <path fill="none" stroke="white" stroke-width="1.5" d="M0,-3.0v7 M-2.5,-0.5L0,-3.0L2.5,-0.5"/>
                </g>
                <g id="arrowRight" xlink:href="#dirArrow" transform="rotate(90) translate(36 -43)" onmousedown="handlePan(1,0)">
                  <use xlink:href="#rim" fill="#404040">
                        <set attributeName="fill" to="#808080" begin="arrowRight.mouseover" end="arrowRight.mouseout"/>
                  </use>
                  <path fill="none" stroke="white" stroke-width="1.5" d="M0,-3.0v7 M-2.5,-0.5L0,-3.0L2.5,-0.5"/>
                </g>
                <g id="arrowDown" xlink:href="#dirArrow" transform="rotate(180) translate(-30 -48)" onmousedown="handlePan(0,1)">
                  <use xlink:href="#rim" fill="#404040">
                        <set attributeName="fill" to="#808080" begin="arrowDown.mouseover" end="arrowDown.mouseout"/>
                  </use>
                  <path fill="none" stroke="white" stroke-width="1.5" d="M0,-3.0v7 M-2.5,-0.5L0,-3.0L2.5,-0.5"/>
                </g>
                <g id="arrowLeft" xlink:href="#dirArrow" transform="rotate(270) translate(-36 17)" onmousedown="handlePan(-1,0)">
                  <use xlink:href="#rim" fill="#404040">
                        <set attributeName="fill" to="#808080" begin="arrowLeft.mouseover" end="arrowLeft.mouseout"/>
                  </use>
                  <path fill="none" stroke="white" stroke-width="1.5" d="M0,-3.0v7 M-2.5,-0.5L0,-3.0L2.5,-0.5"/>
                </g>
        </g>
        <svg viewBox="0 0 15 15" width="100%" height="30px" preserveAspectRatio="xMaxYMin meet">
         <g id="arrow_out" transform="scale(0.3 0.3)">
          <a xlink:href="vabstractapplication_8h__dep__incl_org.svg" target="_base">
           <rect id="button" ry="5" rx="5" y="6" x="6" height="38" width="38"
                fill="#f2f5e9" fill-opacity="0.5" stroke="#606060" stroke-width="1.0"/>
           <path id="arrow"
             d="M 11.500037,31.436501 C 11.940474,20.09759 22.043105,11.32322 32.158766,21.979434 L 37.068811,17.246167 C 37.068811,17.246167 37.088388,32 37.088388,32 L 22.160133,31.978069 C 22.160133,31.978069 26.997745,27.140456 26.997745,27.140456 C 18.528582,18.264221 13.291696,25.230495 11.500037,31.436501 z"
             style="fill:#404040;"/>
          </a>
         </g>
        </svg>
</svg>
