<?xml version="1.0" encoding="UTF-8" standalone="no"?>
<!DOCTYPE svg PUBLIC "-//W3C//DTD SVG 1.1//EN"
 "http://www.w3.org/Graphics/SVG/1.1/DTD/svg11.dtd">
<!-- Generated by graphviz version 2.43.0 (0)
 -->
<!-- Title: src/app/seamly2d/dialogs/vabstractlayoutdialog.cpp Pages: 1 -->
<svg width="2561pt" height="313pt"
 viewBox="0.00 0.00 2560.60 313.00" xmlns="http://www.w3.org/2000/svg" xmlns:xlink="http://www.w3.org/1999/xlink">
<g id="graph0" class="graph" transform="scale(1 1) rotate(0) translate(4 309)">
<title>src/app/seamly2d/dialogs/vabstractlayoutdialog.cpp</title>
<!-- Node1 -->
<g id="Node000001" class="node">
<title>Node1</title>
<g id="a_Node000001"><a xlink:title=" ">
<polygon fill="#999999" stroke="#666666" points="1210.6,-305 1064.6,-305 1064.6,-275 1210.6,-275 1210.6,-305"/>
<text text-anchor="start" x="1072.6" y="-293" font-family="Helvetica,sans-Serif" font-size="10.00">src/app/seamly2d/dialogs</text>
<text text-anchor="middle" x="1137.6" y="-282" font-family="Helvetica,sans-Serif" font-size="10.00">/vabstractlayoutdialog.cpp</text>
</a>
</g>
</g>
<!-- Node2 -->
<g id="Node000002" class="node">
<title>Node2</title>
<g id="a_Node000002"><a xlink:href="../../d5/d48/vabstractlayoutdialog_8h.html" target="_top" xlink:title=" ">
<polygon fill="white" stroke="#666666" points="913.6,-74 781.6,-74 781.6,-55 913.6,-55 913.6,-74"/>
<text text-anchor="middle" x="847.6" y="-62" font-family="Helvetica,sans-Serif" font-size="10.00">vabstractlayoutdialog.h</text>
</a>
</g>
</g>
<!-- Node1&#45;&gt;Node2 -->
<g id="edge1_Node000001_Node000002" class="edge">
<title>Node1&#45;&gt;Node2</title>
<g id="a_edge1_Node000001_Node000002"><a xlink:title=" ">
<path fill="none" stroke="#63b8ff" d="M1167.16,-274.94C1198.46,-258.21 1246.14,-227.03 1266.6,-184 1275.54,-165.2 1268.06,-120.67 1256.6,-110 1232.77,-87.82 1035.46,-74.66 923.84,-68.93"/>
<polygon fill="#63b8ff" stroke="#63b8ff" points="923.8,-65.42 913.64,-68.41 923.45,-72.41 923.8,-65.42"/>
</a>
</g>
</g>
<!-- Node6 -->
<g id="Node000006" class="node">
<title>Node6</title>
<g id="a_Node000006"><a xlink:href="../../d9/d02/vapplication_8h.html" target="_top" xlink:title=" ">
<polygon fill="white" stroke="#666666" points="1049.1,-239 930.1,-239 930.1,-220 1049.1,-220 1049.1,-239"/>
<text text-anchor="middle" x="989.6" y="-227" font-family="Helvetica,sans-Serif" font-size="10.00">../core/vapplication.h</text>
</a>
</g>
</g>
<!-- Node1&#45;&gt;Node6 -->
<g id="edge5_Node000001_Node000006" class="edge">
<title>Node1&#45;&gt;Node6</title>
<g id="a_edge5_Node000001_Node000006"><a xlink:title=" ">
<path fill="none" stroke="#63b8ff" d="M1102.15,-274.99C1077.46,-265.23 1044.82,-252.33 1021.05,-242.93"/>
<polygon fill="#63b8ff" stroke="#63b8ff" points="1022.04,-239.56 1011.46,-239.14 1019.47,-246.07 1022.04,-239.56"/>
</a>
</g>
</g>
<!-- Node3 -->
<g id="Node000003" class="node">
<title>Node3</title>
<g id="a_Node000003"><a xlink:title=" ">
<polygon fill="#e0e0e0" stroke="#999999" points="572.1,-19 495.1,-19 495.1,0 572.1,0 572.1,-19"/>
<text text-anchor="middle" x="533.6" y="-7" font-family="Helvetica,sans-Serif" font-size="10.00">../ifc/ifcdef.h</text>
</a>
</g>
</g>
<!-- Node2&#45;&gt;Node3 -->
<g id="edge2_Node000002_Node000003" class="edge">
<title>Node2&#45;&gt;Node3</title>
<g id="a_edge2_Node000002_Node000003"><a xlink:title=" ">
<path fill="none" stroke="#63b8ff" d="M797.15,-54.98C738.11,-45.02 641.01,-28.63 582.6,-18.77"/>
<polygon fill="#63b8ff" stroke="#63b8ff" points="582.96,-15.28 572.52,-17.07 581.8,-22.18 582.96,-15.28"/>
</a>
</g>
</g>
<!-- Node4 -->
<g id="Node000004" class="node">
<title>Node4</title>
<g id="a_Node000004"><a xlink:title=" ">
<polygon fill="#e0e0e0" stroke="#999999" points="928.1,-19 851.1,-19 851.1,0 928.1,0 928.1,-19"/>
<text text-anchor="middle" x="889.6" y="-7" font-family="Helvetica,sans-Serif" font-size="10.00">QComboBox</text>
</a>
</g>
</g>
<!-- Node2&#45;&gt;Node4 -->
<g id="edge3_Node000002_Node000004" class="edge">
<title>Node2&#45;&gt;Node4</title>
<g id="a_edge3_Node000002_Node000004"><a xlink:title=" ">
<path fill="none" stroke="#63b8ff" d="M854.53,-54.75C860.47,-47.26 869.17,-36.28 876.42,-27.13"/>
<polygon fill="#63b8ff" stroke="#63b8ff" points="879.32,-29.1 882.79,-19.09 873.84,-24.75 879.32,-29.1"/>
</a>
</g>
</g>
<!-- Node5 -->
<g id="Node000005" class="node">
<title>Node5</title>
<g id="a_Node000005"><a xlink:title=" ">
<polygon fill="#e0e0e0" stroke="#999999" points="832.6,-19 776.6,-19 776.6,0 832.6,0 832.6,-19"/>
<text text-anchor="middle" x="804.6" y="-7" font-family="Helvetica,sans-Serif" font-size="10.00">QDialog</text>
</a>
</g>
</g>
<!-- Node2&#45;&gt;Node5 -->
<g id="edge4_Node000002_Node000005" class="edge">
<title>Node2&#45;&gt;Node5</title>
<g id="a_edge4_Node000002_Node000005"><a xlink:title=" ">
<path fill="none" stroke="#63b8ff" d="M840.5,-54.75C834.42,-47.26 825.51,-36.28 818.09,-27.13"/>
<polygon fill="#63b8ff" stroke="#63b8ff" points="820.59,-24.65 811.57,-19.09 815.15,-29.06 820.59,-24.65"/>
</a>
</g>
</g>
<!-- Node7 -->
<g id="Node000007" class="node">
<title>Node7</title>
<g id="a_Node000007"><a xlink:title=" ">
<polygon fill="#e0e0e0" stroke="#999999" points="884.1,-184 717.1,-184 717.1,-165 884.1,-165 884.1,-184"/>
<text text-anchor="middle" x="800.6" y="-172" font-family="Helvetica,sans-Serif" font-size="10.00">../vmisc/vabstractapplication.h</text>
</a>
</g>
</g>
<!-- Node6&#45;&gt;Node7 -->
<g id="edge6_Node000006_Node000007" class="edge">
<title>Node6&#45;&gt;Node7</title>
<g id="a_edge6_Node000006_Node000007"><a xlink:title=" ">
<path fill="none" stroke="#63b8ff" d="M959.23,-219.98C927.23,-211.01 876.64,-196.82 841.22,-186.89"/>
<polygon fill="#63b8ff" stroke="#63b8ff" points="841.78,-183.41 831.2,-184.08 839.89,-190.15 841.78,-183.41"/>
</a>
</g>
</g>
<!-- Node8 -->
<g id="Node000008" class="node">
<title>Node8</title>
<g id="a_Node000008"><a xlink:href="../../d7/d5b/options_8h.html" target="_top" xlink:title=" ">
<polygon fill="white" stroke="#666666" points="233.1,-184 162.1,-184 162.1,-165 233.1,-165 233.1,-184"/>
<text text-anchor="middle" x="197.6" y="-172" font-family="Helvetica,sans-Serif" font-size="10.00">../options.h</text>
</a>
</g>
</g>
<!-- Node6&#45;&gt;Node8 -->
<g id="edge7_Node000006_Node000008" class="edge">
<title>Node6&#45;&gt;Node8</title>
<g id="a_edge7_Node000006_Node000008"><a xlink:title=" ">
<path fill="none" stroke="#63b8ff" d="M930.07,-224.52C778.26,-214.36 379.09,-187.65 243.46,-178.57"/>
<polygon fill="#63b8ff" stroke="#63b8ff" points="243.62,-175.07 233.41,-177.9 243.15,-182.06 243.62,-175.07"/>
</a>
</g>
</g>
<!-- Node12 -->
<g id="Node000012" class="node">
<title>Node12</title>
<g id="a_Node000012"><a xlink:title=" ">
<polygon fill="#e0e0e0" stroke="#999999" points="1077.6,-184 901.6,-184 901.6,-165 1077.6,-165 1077.6,-184"/>
<text text-anchor="middle" x="989.6" y="-172" font-family="Helvetica,sans-Serif" font-size="10.00">../vwidgets/vmaingraphicsview.h</text>
</a>
</g>
</g>
<!-- Node6&#45;&gt;Node12 -->
<g id="edge12_Node000006_Node000012" class="edge">
<title>Node6&#45;&gt;Node12</title>
<g id="a_edge12_Node000006_Node000012"><a xlink:title=" ">
<path fill="none" stroke="#63b8ff" d="M989.6,-219.75C989.6,-212.8 989.6,-202.85 989.6,-194.13"/>
<polygon fill="#63b8ff" stroke="#63b8ff" points="993.1,-194.09 989.6,-184.09 986.1,-194.09 993.1,-194.09"/>
</a>
</g>
</g>
<!-- Node13 -->
<g id="Node000013" class="node">
<title>Node13</title>
<g id="a_Node000013"><a xlink:title=" ">
<polygon fill="#e0e0e0" stroke="#999999" points="1257.1,-184 1096.1,-184 1096.1,-165 1257.1,-165 1257.1,-184"/>
<text text-anchor="middle" x="1176.6" y="-172" font-family="Helvetica,sans-Serif" font-size="10.00">../vpatterndb/vtranslatevars.h</text>
</a>
</g>
</g>
<!-- Node6&#45;&gt;Node13 -->
<g id="edge13_Node000006_Node000013" class="edge">
<title>Node6&#45;&gt;Node13</title>
<g id="a_edge13_Node000006_Node000013"><a xlink:title=" ">
<path fill="none" stroke="#63b8ff" d="M1019.64,-219.98C1051.31,-211.01 1101.36,-196.82 1136.41,-186.89"/>
<polygon fill="#63b8ff" stroke="#63b8ff" points="1137.65,-190.18 1146.32,-184.08 1135.74,-183.44 1137.65,-190.18"/>
</a>
</g>
</g>
<!-- Node14 -->
<g id="Node000014" class="node">
<title>Node14</title>
<g id="a_Node000014"><a xlink:href="../../dd/db2/vsettings_8h.html" target="_top" xlink:title=" ">
<polygon fill="white" stroke="#666666" points="1551.1,-184 1480.1,-184 1480.1,-165 1551.1,-165 1551.1,-184"/>
<text text-anchor="middle" x="1515.6" y="-172" font-family="Helvetica,sans-Serif" font-size="10.00">vsettings.h</text>
</a>
</g>
</g>
<!-- Node6&#45;&gt;Node14 -->
<g id="edge14_Node000006_Node000014" class="edge">
<title>Node6&#45;&gt;Node14</title>
<g id="a_edge14_Node000006_Node000014"><a xlink:title=" ">
<path fill="none" stroke="#63b8ff" d="M1049.17,-222.5C1155.2,-211.81 1374.47,-189.72 1469.74,-180.12"/>
<polygon fill="#63b8ff" stroke="#63b8ff" points="1470.32,-183.58 1479.92,-179.09 1469.62,-176.62 1470.32,-183.58"/>
</a>
</g>
</g>
<!-- Node37 -->
<g id="Node000037" class="node">
<title>Node37</title>
<g id="a_Node000037"><a xlink:href="../../dd/d57/vcmdexport_8h.html" target="_top" xlink:title=" ">
<polygon fill="white" stroke="#666666" points="699.6,-184 615.6,-184 615.6,-165 699.6,-165 699.6,-184"/>
<text text-anchor="middle" x="657.6" y="-172" font-family="Helvetica,sans-Serif" font-size="10.00">vcmdexport.h</text>
</a>
</g>
</g>
<!-- Node6&#45;&gt;Node37 -->
<g id="edge47_Node000006_Node000037" class="edge">
<title>Node6&#45;&gt;Node37</title>
<g id="a_edge47_Node000006_Node000037"><a xlink:title=" ">
<path fill="none" stroke="#63b8ff" d="M934.92,-219.98C880.44,-211.45 794.1,-197.86 709.64,-184.16"/>
<polygon fill="#63b8ff" stroke="#63b8ff" points="710.05,-180.68 699.62,-182.53 708.93,-187.59 710.05,-180.68"/>
</a>
</g>
</g>
<!-- Node8&#45;&gt;Node3 -->
<g id="edge8_Node000008_Node000003" class="edge">
<title>Node8&#45;&gt;Node3</title>
<g id="a_edge8_Node000008_Node000003"><a xlink:title=" ">
<path fill="none" stroke="#63b8ff" d="M161.92,-173.22C96.05,-171.49 -34.18,-161.65 8.6,-110 68.91,-37.18 366.06,-17.24 484.62,-12.14"/>
<polygon fill="#63b8ff" stroke="#63b8ff" points="485.01,-15.63 494.86,-11.72 484.72,-8.63 485.01,-15.63"/>
</a>
</g>
</g>
<!-- Node9 -->
<g id="Node000009" class="node">
<title>Node9</title>
<g id="a_Node000009"><a xlink:title=" ">
<polygon fill="#e0e0e0" stroke="#999999" points="277.1,-129 118.1,-129 118.1,-110 277.1,-110 277.1,-129"/>
<text text-anchor="middle" x="197.6" y="-117" font-family="Helvetica,sans-Serif" font-size="10.00">../vgeometry/vgeometrydef.h</text>
</a>
</g>
</g>
<!-- Node8&#45;&gt;Node9 -->
<g id="edge9_Node000008_Node000009" class="edge">
<title>Node8&#45;&gt;Node9</title>
<g id="a_edge9_Node000008_Node000009"><a xlink:title=" ">
<path fill="none" stroke="#63b8ff" d="M197.6,-164.75C197.6,-157.8 197.6,-147.85 197.6,-139.13"/>
<polygon fill="#63b8ff" stroke="#63b8ff" points="201.1,-139.09 197.6,-129.09 194.1,-139.09 201.1,-139.09"/>
</a>
</g>
</g>
<!-- Node10 -->
<g id="Node000010" class="node">
<title>Node10</title>
<g id="a_Node000010"><a xlink:title=" ">
<polygon fill="#e0e0e0" stroke="#999999" points="422.1,-129 295.1,-129 295.1,-110 422.1,-110 422.1,-129"/>
<text text-anchor="middle" x="358.6" y="-117" font-family="Helvetica,sans-Serif" font-size="10.00">../qmuparser/qmudef.h</text>
</a>
</g>
</g>
<!-- Node8&#45;&gt;Node10 -->
<g id="edge10_Node000008_Node000010" class="edge">
<title>Node8&#45;&gt;Node10</title>
<g id="a_edge10_Node000008_Node000010"><a xlink:title=" ">
<path fill="none" stroke="#63b8ff" d="M223.47,-164.98C250.38,-156.13 292.72,-142.19 322.83,-132.28"/>
<polygon fill="#63b8ff" stroke="#63b8ff" points="324.12,-135.53 332.53,-129.08 321.94,-128.88 324.12,-135.53"/>
</a>
</g>
</g>
<!-- Node11 -->
<g id="Node000011" class="node">
<title>Node11</title>
<g id="a_Node000011"><a xlink:title=" ">
<polygon fill="#e0e0e0" stroke="#999999" points="99.6,-129 17.6,-129 17.6,-110 99.6,-110 99.6,-129"/>
<text text-anchor="middle" x="58.6" y="-117" font-family="Helvetica,sans-Serif" font-size="10.00">../vmisc/def.h</text>
</a>
</g>
</g>
<!-- Node8&#45;&gt;Node11 -->
<g id="edge11_Node000008_Node000011" class="edge">
<title>Node8&#45;&gt;Node11</title>
<g id="a_edge11_Node000008_Node000011"><a xlink:title=" ">
<path fill="none" stroke="#63b8ff" d="M175.27,-164.98C152.4,-156.27 116.64,-142.63 90.74,-132.75"/>
<polygon fill="#63b8ff" stroke="#63b8ff" points="91.93,-129.46 81.34,-129.17 89.43,-136 91.93,-129.46"/>
</a>
</g>
</g>
<!-- Node15 -->
<g id="Node000015" class="node">
<title>Node15</title>
<g id="a_Node000015"><a xlink:title=" ">
<polygon fill="#e0e0e0" stroke="#999999" points="1507.6,-74 1427.6,-74 1427.6,-55 1507.6,-55 1507.6,-74"/>
<text text-anchor="middle" x="1467.6" y="-62" font-family="Helvetica,sans-Serif" font-size="10.00">QMetaObject</text>
</a>
</g>
</g>
<!-- Node14&#45;&gt;Node15 -->
<g id="edge15_Node000014_Node000015" class="edge">
<title>Node14&#45;&gt;Node15</title>
<g id="a_edge15_Node000014_Node000015"><a xlink:title=" ">
<path fill="none" stroke="#63b8ff" d="M1511.67,-164.66C1503.79,-146.93 1485.92,-106.73 1475.52,-83.32"/>
<polygon fill="#63b8ff" stroke="#63b8ff" points="1478.71,-81.87 1471.45,-74.16 1472.31,-84.72 1478.71,-81.87"/>
</a>
</g>
</g>
<!-- Node16 -->
<g id="Node000016" class="node">
<title>Node16</title>
<g id="a_Node000016"><a xlink:title=" ">
<polygon fill="#e0e0e0" stroke="#999999" points="1581.6,-74 1525.6,-74 1525.6,-55 1581.6,-55 1581.6,-74"/>
<text text-anchor="middle" x="1553.6" y="-62" font-family="Helvetica,sans-Serif" font-size="10.00">QObject</text>
</a>
</g>
</g>
<!-- Node14&#45;&gt;Node16 -->
<g id="edge16_Node000014_Node000016" class="edge">
<title>Node14&#45;&gt;Node16</title>
<g id="a_edge16_Node000014_Node000016"><a xlink:title=" ">
<path fill="none" stroke="#63b8ff" d="M1518.71,-164.66C1524.92,-147.01 1538.97,-107.09 1547.22,-83.64"/>
<polygon fill="#63b8ff" stroke="#63b8ff" points="1550.53,-84.75 1550.55,-74.16 1543.93,-82.43 1550.53,-84.75"/>
</a>
</g>
</g>
<!-- Node17 -->
<g id="Node000017" class="node">
<title>Node17</title>
<g id="a_Node000017"><a xlink:title=" ">
<polygon fill="#e0e0e0" stroke="#999999" points="1855.6,-74 1791.6,-74 1791.6,-55 1855.6,-55 1855.6,-74"/>
<text text-anchor="middle" x="1823.6" y="-62" font-family="Helvetica,sans-Serif" font-size="10.00">QSettings</text>
</a>
</g>
</g>
<!-- Node14&#45;&gt;Node17 -->
<g id="edge17_Node000014_Node000017" class="edge">
<title>Node14&#45;&gt;Node17</title>
<g id="a_edge17_Node000014_Node000017"><a xlink:title=" ">
<path fill="none" stroke="#63b8ff" d="M1551.34,-168.32C1590.75,-161.91 1655.61,-149.28 1708.6,-129 1743.04,-115.82 1779.86,-93.95 1802.31,-79.63"/>
<polygon fill="#63b8ff" stroke="#63b8ff" points="1804.23,-82.55 1810.73,-74.18 1800.43,-76.68 1804.23,-82.55"/>
</a>
</g>
</g>
<!-- Node18 -->
<g id="Node000018" class="node">
<title>Node18</title>
<g id="a_Node000018"><a xlink:title=" ">
<polygon fill="#e0e0e0" stroke="#999999" points="1927.1,-74 1874.1,-74 1874.1,-55 1927.1,-55 1927.1,-74"/>
<text text-anchor="middle" x="1900.6" y="-62" font-family="Helvetica,sans-Serif" font-size="10.00">QString</text>
</a>
</g>
</g>
<!-- Node14&#45;&gt;Node18 -->
<g id="edge18_Node000014_Node000018" class="edge">
<title>Node14&#45;&gt;Node18</title>
<g id="a_edge18_Node000014_Node000018"><a xlink:title=" ">
<path fill="none" stroke="#63b8ff" d="M1551.32,-168.56C1596.29,-161.87 1675.63,-148.48 1741.6,-129 1788.93,-115.02 1841.75,-92.46 1873.02,-78.34"/>
<polygon fill="#63b8ff" stroke="#63b8ff" points="1874.74,-81.4 1882.39,-74.07 1871.84,-75.03 1874.74,-81.4"/>
</a>
</g>
</g>
<!-- Node19 -->
<g id="Node000019" class="node">
<title>Node19</title>
<g id="a_Node000019"><a xlink:title=" ">
<polygon fill="#e0e0e0" stroke="#999999" points="1643.1,-19 1584.1,-19 1584.1,0 1643.1,0 1643.1,-19"/>
<text text-anchor="middle" x="1613.6" y="-7" font-family="Helvetica,sans-Serif" font-size="10.00">QtGlobal</text>
</a>
</g>
</g>
<!-- Node14&#45;&gt;Node19 -->
<g id="edge19_Node000014_Node000019" class="edge">
<title>Node14&#45;&gt;Node19</title>
<g id="a_edge19_Node000014_Node000019"><a xlink:title=" ">
<path fill="none" stroke="#63b8ff" d="M1498.95,-164.94C1463.3,-145.51 1385.44,-96.57 1418.6,-55 1437.64,-31.13 1522.56,-19.05 1573.85,-13.83"/>
<polygon fill="#63b8ff" stroke="#63b8ff" points="1574.33,-17.3 1583.94,-12.85 1573.65,-10.34 1574.33,-17.3"/>
</a>
</g>
</g>
<!-- Node20 -->
<g id="Node000020" class="node">
<title>Node20</title>
<g id="a_Node000020"><a xlink:title=" ">
<polygon fill="#e0e0e0" stroke="#999999" points="1095.1,-74 1032.1,-74 1032.1,-55 1095.1,-55 1095.1,-74"/>
<text text-anchor="middle" x="1063.6" y="-62" font-family="Helvetica,sans-Serif" font-size="10.00">QMargins</text>
</a>
</g>
</g>
<!-- Node14&#45;&gt;Node20 -->
<g id="edge20_Node000014_Node000020" class="edge">
<title>Node14&#45;&gt;Node20</title>
<g id="a_edge20_Node000014_Node000020"><a xlink:title=" ">
<path fill="none" stroke="#63b8ff" d="M1483.18,-164.93C1450.96,-156.28 1400.18,-142.35 1356.6,-129 1331.07,-121.18 1325.45,-116.71 1299.6,-110 1232.3,-92.52 1152.53,-78.93 1105.1,-71.58"/>
<polygon fill="#63b8ff" stroke="#63b8ff" points="1105.62,-68.12 1095.2,-70.06 1104.56,-75.04 1105.62,-68.12"/>
</a>
</g>
</g>
<!-- Node21 -->
<g id="Node000021" class="node">
<title>Node21</title>
<g id="a_Node000021"><a xlink:href="../../d4/da4/def_8h.html" target="_top" xlink:title=" ">
<polygon fill="white" stroke="#666666" points="2171.6,-129 2089.6,-129 2089.6,-110 2171.6,-110 2171.6,-129"/>
<text text-anchor="middle" x="2130.6" y="-117" font-family="Helvetica,sans-Serif" font-size="10.00">../vmisc/def.h</text>
</a>
</g>
</g>
<!-- Node14&#45;&gt;Node21 -->
<g id="edge21_Node000014_Node000021" class="edge">
<title>Node14&#45;&gt;Node21</title>
<g id="a_edge21_Node000014_Node000021"><a xlink:title=" ">
<path fill="none" stroke="#63b8ff" d="M1551.32,-170.42C1655.2,-161.47 1957.46,-135.42 2079.05,-124.94"/>
<polygon fill="#63b8ff" stroke="#63b8ff" points="2079.55,-128.41 2089.21,-124.07 2078.95,-121.44 2079.55,-128.41"/>
</a>
</g>
</g>
<!-- Node30 -->
<g id="Node000030" class="node">
<title>Node30</title>
<g id="a_Node000030"><a xlink:href="../../de/dec/vbank_8h.html" target="_top" xlink:title=" ">
<polygon fill="white" stroke="#666666" points="1371.6,-74 1267.6,-74 1267.6,-55 1371.6,-55 1371.6,-74"/>
<text text-anchor="middle" x="1319.6" y="-62" font-family="Helvetica,sans-Serif" font-size="10.00">../vlayout/vbank.h</text>
</a>
</g>
</g>
<!-- Node14&#45;&gt;Node30 -->
<g id="edge32_Node000014_Node000030" class="edge">
<title>Node14&#45;&gt;Node30</title>
<g id="a_edge32_Node000014_Node000030"><a xlink:title=" ">
<path fill="none" stroke="#63b8ff" d="M1479.84,-165.75C1452.65,-158.82 1415.02,-146.96 1385.6,-129 1364.92,-116.38 1345.47,-96.29 1333.12,-82.09"/>
<polygon fill="#63b8ff" stroke="#63b8ff" points="1335.52,-79.51 1326.4,-74.13 1330.18,-84.02 1335.52,-79.51"/>
</a>
</g>
</g>
<!-- Node34 -->
<g id="Node000034" class="node">
<title>Node34</title>
<g id="a_Node000034"><a xlink:href="../../d4/d5c/vcommonsettings_8h.html" target="_top" xlink:title=" ">
<polygon fill="white" stroke="#666666" points="1699.1,-129 1586.1,-129 1586.1,-110 1699.1,-110 1699.1,-129"/>
<text text-anchor="middle" x="1642.6" y="-117" font-family="Helvetica,sans-Serif" font-size="10.00">vcommonsettings.h</text>
</a>
</g>
</g>
<!-- Node14&#45;&gt;Node34 -->
<g id="edge37_Node000014_Node000034" class="edge">
<title>Node14&#45;&gt;Node34</title>
<g id="a_edge37_Node000014_Node000034"><a xlink:title=" ">
<path fill="none" stroke="#63b8ff" d="M1536,-164.98C1556.62,-156.38 1588.71,-142.99 1612.29,-133.15"/>
<polygon fill="#63b8ff" stroke="#63b8ff" points="1613.94,-136.25 1621.82,-129.17 1611.25,-129.79 1613.94,-136.25"/>
</a>
</g>
</g>
<!-- Node21&#45;&gt;Node18 -->
<g id="edge24_Node000021_Node000018" class="edge">
<title>Node21&#45;&gt;Node18</title>
<g id="a_edge24_Node000021_Node000018"><a xlink:title=" ">
<path fill="none" stroke="#63b8ff" d="M2093.03,-109.96C2056,-101.52 1997.53,-88.15 1937.39,-74.17"/>
<polygon fill="#63b8ff" stroke="#63b8ff" points="1937.86,-70.69 1927.33,-71.83 1936.28,-77.51 1937.86,-70.69"/>
</a>
</g>
</g>
<!-- Node21&#45;&gt;Node19 -->
<g id="edge27_Node000021_Node000019" class="edge">
<title>Node21&#45;&gt;Node19</title>
<g id="a_edge27_Node000021_Node000019"><a xlink:title=" ">
<path fill="none" stroke="#63b8ff" d="M2117.7,-109.81C2093.99,-93.99 2044.12,-61.55 2024.6,-55 1956.35,-32.1 1742.71,-17.76 1653.43,-12.63"/>
<polygon fill="#63b8ff" stroke="#63b8ff" points="1653.36,-9.12 1643.18,-12.05 1652.96,-16.11 1653.36,-9.12"/>
</a>
</g>
</g>
<!-- Node22 -->
<g id="Node000022" class="node">
<title>Node22</title>
<g id="a_Node000022"><a xlink:title=" ">
<polygon fill="#e0e0e0" stroke="#999999" points="2329.6,-74 2209.6,-74 2209.6,-55 2329.6,-55 2329.6,-74"/>
<text text-anchor="middle" x="2269.6" y="-62" font-family="Helvetica,sans-Serif" font-size="10.00">qcompilerdetection.h</text>
</a>
</g>
</g>
<!-- Node21&#45;&gt;Node22 -->
<g id="edge22_Node000021_Node000022" class="edge">
<title>Node21&#45;&gt;Node22</title>
<g id="a_edge22_Node000021_Node000022"><a xlink:title=" ">
<path fill="none" stroke="#63b8ff" d="M2152.93,-109.98C2175.8,-101.27 2211.56,-87.63 2237.46,-77.75"/>
<polygon fill="#63b8ff" stroke="#63b8ff" points="2238.76,-81 2246.86,-74.17 2236.27,-74.46 2238.76,-81"/>
</a>
</g>
</g>
<!-- Node23 -->
<g id="Node000023" class="node">
<title>Node23</title>
<g id="a_Node000023"><a xlink:title=" ">
<polygon fill="#e0e0e0" stroke="#999999" points="2121.6,-74 2071.6,-74 2071.6,-55 2121.6,-55 2121.6,-74"/>
<text text-anchor="middle" x="2096.6" y="-62" font-family="Helvetica,sans-Serif" font-size="10.00">QLineF</text>
</a>
</g>
</g>
<!-- Node21&#45;&gt;Node23 -->
<g id="edge23_Node000021_Node000023" class="edge">
<title>Node21&#45;&gt;Node23</title>
<g id="a_edge23_Node000021_Node000023"><a xlink:title=" ">
<path fill="none" stroke="#63b8ff" d="M2124.98,-109.75C2120.28,-102.42 2113.43,-91.73 2107.63,-82.7"/>
<polygon fill="#63b8ff" stroke="#63b8ff" points="2110.45,-80.62 2102.11,-74.09 2104.56,-84.4 2110.45,-80.62"/>
</a>
</g>
</g>
<!-- Node24 -->
<g id="Node000024" class="node">
<title>Node24</title>
<g id="a_Node000024"><a xlink:title=" ">
<polygon fill="#e0e0e0" stroke="#999999" points="2015.6,-74 1945.6,-74 1945.6,-55 2015.6,-55 2015.6,-74"/>
<text text-anchor="middle" x="1980.6" y="-62" font-family="Helvetica,sans-Serif" font-size="10.00">QStringList</text>
</a>
</g>
</g>
<!-- Node21&#45;&gt;Node24 -->
<g id="edge25_Node000021_Node000024" class="edge">
<title>Node21&#45;&gt;Node24</title>
<g id="a_edge25_Node000021_Node000024"><a xlink:title=" ">
<path fill="none" stroke="#63b8ff" d="M2106.5,-109.98C2081.72,-101.23 2042.89,-87.51 2014.91,-77.62"/>
<polygon fill="#63b8ff" stroke="#63b8ff" points="2015.73,-74.2 2005.14,-74.17 2013.4,-80.8 2015.73,-74.2"/>
</a>
</g>
</g>
<!-- Node25 -->
<g id="Node000025" class="node">
<title>Node25</title>
<g id="a_Node000025"><a xlink:title=" ">
<polygon fill="#e0e0e0" stroke="#999999" points="2377.1,-74 2348.1,-74 2348.1,-55 2377.1,-55 2377.1,-74"/>
<text text-anchor="middle" x="2362.6" y="-62" font-family="Helvetica,sans-Serif" font-size="10.00">Qt</text>
</a>
</g>
</g>
<!-- Node21&#45;&gt;Node25 -->
<g id="edge26_Node000021_Node000025" class="edge">
<title>Node21&#45;&gt;Node25</title>
<g id="a_edge26_Node000021_Node000025"><a xlink:title=" ">
<path fill="none" stroke="#63b8ff" d="M2171.64,-111.35C2211.81,-103.99 2274.85,-91.48 2338.21,-73.78"/>
<polygon fill="#63b8ff" stroke="#63b8ff" points="2339.31,-77.11 2347.97,-71.02 2337.4,-70.38 2339.31,-77.11"/>
</a>
</g>
</g>
<!-- Node26 -->
<g id="Node000026" class="node">
<title>Node26</title>
<g id="a_Node000026"><a xlink:title=" ">
<polygon fill="#e0e0e0" stroke="#999999" points="2552.6,-74 2496.6,-74 2496.6,-55 2552.6,-55 2552.6,-74"/>
<text text-anchor="middle" x="2524.6" y="-62" font-family="Helvetica,sans-Serif" font-size="10.00">QPrinter</text>
</a>
</g>
</g>
<!-- Node21&#45;&gt;Node26 -->
<g id="edge28_Node000021_Node000026" class="edge">
<title>Node21&#45;&gt;Node26</title>
<g id="a_edge28_Node000021_Node000026"><a xlink:title=" ">
<path fill="none" stroke="#63b8ff" d="M2171.76,-114.74C2236.59,-108.53 2366.6,-94.86 2486.31,-74.07"/>
<polygon fill="#63b8ff" stroke="#63b8ff" points="2487.13,-77.47 2496.38,-72.29 2485.92,-70.58 2487.13,-77.47"/>
</a>
</g>
</g>
<!-- Node27 -->
<g id="Node000027" class="node">
<title>Node27</title>
<g id="a_Node000027"><a xlink:title=" ">
<polygon fill="#e0e0e0" stroke="#999999" points="2191.1,-74 2140.1,-74 2140.1,-55 2191.1,-55 2191.1,-74"/>
<text text-anchor="middle" x="2165.6" y="-62" font-family="Helvetica,sans-Serif" font-size="10.00">csignal</text>
</a>
</g>
</g>
<!-- Node21&#45;&gt;Node27 -->
<g id="edge29_Node000021_Node000027" class="edge">
<title>Node21&#45;&gt;Node27</title>
<g id="a_edge29_Node000021_Node000027"><a xlink:title=" ">
<path fill="none" stroke="#63b8ff" d="M2136.38,-109.75C2141.22,-102.42 2148.28,-91.73 2154.24,-82.7"/>
<polygon fill="#63b8ff" stroke="#63b8ff" points="2157.34,-84.36 2159.93,-74.09 2151.5,-80.5 2157.34,-84.36"/>
</a>
</g>
</g>
<!-- Node28 -->
<g id="Node000028" class="node">
<title>Node28</title>
<g id="a_Node000028"><a xlink:href="../../d4/d82/debugbreak_8h.html" target="_top" xlink:title=" ">
<polygon fill="white" stroke="#666666" points="2478.1,-74 2395.1,-74 2395.1,-55 2478.1,-55 2478.1,-74"/>
<text text-anchor="middle" x="2436.6" y="-62" font-family="Helvetica,sans-Serif" font-size="10.00">debugbreak.h</text>
</a>
</g>
</g>
<!-- Node21&#45;&gt;Node28 -->
<g id="edge30_Node000021_Node000028" class="edge">
<title>Node21&#45;&gt;Node28</title>
<g id="a_edge30_Node000021_Node000028"><a xlink:title=" ">
<path fill="none" stroke="#63b8ff" d="M2171.87,-111.35C2227.08,-101.79 2324.96,-84.84 2384.98,-74.44"/>
<polygon fill="#63b8ff" stroke="#63b8ff" points="2385.75,-77.86 2395.01,-72.7 2384.56,-70.96 2385.75,-77.86"/>
</a>
</g>
</g>
<!-- Node29 -->
<g id="Node000029" class="node">
<title>Node29</title>
<g id="a_Node000029"><a xlink:title=" ">
<polygon fill="#e0e0e0" stroke="#999999" points="2464.1,-19 2409.1,-19 2409.1,0 2464.1,0 2464.1,-19"/>
<text text-anchor="middle" x="2436.6" y="-7" font-family="Helvetica,sans-Serif" font-size="10.00">signal.h</text>
</a>
</g>
</g>
<!-- Node28&#45;&gt;Node29 -->
<g id="edge31_Node000028_Node000029" class="edge">
<title>Node28&#45;&gt;Node29</title>
<g id="a_edge31_Node000028_Node000029"><a xlink:title=" ">
<path fill="none" stroke="#63b8ff" d="M2436.6,-54.75C2436.6,-47.8 2436.6,-37.85 2436.6,-29.13"/>
<polygon fill="#63b8ff" stroke="#63b8ff" points="2440.1,-29.09 2436.6,-19.09 2433.1,-29.09 2440.1,-29.09"/>
</a>
</g>
</g>
<!-- Node30&#45;&gt;Node19 -->
<g id="edge36_Node000030_Node000019" class="edge">
<title>Node30&#45;&gt;Node19</title>
<g id="a_edge36_Node000030_Node000019"><a xlink:title=" ">
<path fill="none" stroke="#63b8ff" d="M1366.83,-54.98C1424.32,-44.62 1520.36,-27.31 1574.1,-17.62"/>
<polygon fill="#63b8ff" stroke="#63b8ff" points="1574.72,-21.07 1583.94,-15.85 1573.48,-14.18 1574.72,-21.07"/>
</a>
</g>
</g>
<!-- Node31 -->
<g id="Node000031" class="node">
<title>Node31</title>
<g id="a_Node000031"><a xlink:title=" ">
<polygon fill="#e0e0e0" stroke="#999999" points="1344.1,-19 1295.1,-19 1295.1,0 1344.1,0 1344.1,-19"/>
<text text-anchor="middle" x="1319.6" y="-7" font-family="Helvetica,sans-Serif" font-size="10.00">QHash</text>
</a>
</g>
</g>
<!-- Node30&#45;&gt;Node31 -->
<g id="edge33_Node000030_Node000031" class="edge">
<title>Node30&#45;&gt;Node31</title>
<g id="a_edge33_Node000030_Node000031"><a xlink:title=" ">
<path fill="none" stroke="#63b8ff" d="M1319.6,-54.75C1319.6,-47.8 1319.6,-37.85 1319.6,-29.13"/>
<polygon fill="#63b8ff" stroke="#63b8ff" points="1323.1,-29.09 1319.6,-19.09 1316.1,-29.09 1323.1,-29.09"/>
</a>
</g>
</g>
<!-- Node32 -->
<g id="Node000032" class="node">
<title>Node32</title>
<g id="a_Node000032"><a xlink:title=" ">
<polygon fill="#e0e0e0" stroke="#999999" points="1414.6,-19 1362.6,-19 1362.6,0 1414.6,0 1414.6,-19"/>
<text text-anchor="middle" x="1388.6" y="-7" font-family="Helvetica,sans-Serif" font-size="10.00">QRectF</text>
</a>
</g>
</g>
<!-- Node30&#45;&gt;Node32 -->
<g id="edge34_Node000030_Node000032" class="edge">
<title>Node30&#45;&gt;Node32</title>
<g id="a_edge34_Node000030_Node000032"><a xlink:title=" ">
<path fill="none" stroke="#63b8ff" d="M1330.68,-54.98C1341.08,-47 1356.86,-34.88 1369.32,-25.31"/>
<polygon fill="#63b8ff" stroke="#63b8ff" points="1371.51,-28.04 1377.31,-19.17 1367.25,-22.49 1371.51,-28.04"/>
</a>
</g>
</g>
<!-- Node33 -->
<g id="Node000033" class="node">
<title>Node33</title>
<g id="a_Node000033"><a xlink:title=" ">
<polygon fill="#e0e0e0" stroke="#999999" points="1277.1,-19 1222.1,-19 1222.1,0 1277.1,0 1277.1,-19"/>
<text text-anchor="middle" x="1249.6" y="-7" font-family="Helvetica,sans-Serif" font-size="10.00">QVector</text>
</a>
</g>
</g>
<!-- Node30&#45;&gt;Node33 -->
<g id="edge35_Node000030_Node000033" class="edge">
<title>Node30&#45;&gt;Node33</title>
<g id="a_edge35_Node000030_Node000033"><a xlink:title=" ">
<path fill="none" stroke="#63b8ff" d="M1308.35,-54.98C1297.8,-47 1281.8,-34.88 1269.16,-25.31"/>
<polygon fill="#63b8ff" stroke="#63b8ff" points="1271.14,-22.42 1261.05,-19.17 1266.91,-28 1271.14,-22.42"/>
</a>
</g>
</g>
<!-- Node34&#45;&gt;Node15 -->
<g id="edge39_Node000034_Node000015" class="edge">
<title>Node34&#45;&gt;Node15</title>
<g id="a_edge39_Node000034_Node000015"><a xlink:title=" ">
<path fill="none" stroke="#63b8ff" d="M1614.48,-109.98C1584.97,-101.05 1538.41,-86.94 1505.63,-77.02"/>
<polygon fill="#63b8ff" stroke="#63b8ff" points="1506.52,-73.63 1495.94,-74.08 1504.49,-80.33 1506.52,-73.63"/>
</a>
</g>
</g>
<!-- Node34&#45;&gt;Node16 -->
<g id="edge40_Node000034_Node000016" class="edge">
<title>Node34&#45;&gt;Node16</title>
<g id="a_edge40_Node000034_Node000016"><a xlink:title=" ">
<path fill="none" stroke="#63b8ff" d="M1628.3,-109.98C1614.5,-101.77 1593.36,-89.18 1577.08,-79.49"/>
<polygon fill="#63b8ff" stroke="#63b8ff" points="1578.54,-76.28 1568.16,-74.17 1574.96,-82.29 1578.54,-76.28"/>
</a>
</g>
</g>
<!-- Node34&#45;&gt;Node17 -->
<g id="edge41_Node000034_Node000017" class="edge">
<title>Node34&#45;&gt;Node17</title>
<g id="a_edge41_Node000034_Node000017"><a xlink:title=" ">
<path fill="none" stroke="#63b8ff" d="M1671.68,-109.98C1702.2,-101.05 1750.36,-86.94 1784.26,-77.02"/>
<polygon fill="#63b8ff" stroke="#63b8ff" points="1785.68,-80.25 1794.29,-74.08 1783.71,-73.53 1785.68,-80.25"/>
</a>
</g>
</g>
<!-- Node34&#45;&gt;Node18 -->
<g id="edge43_Node000034_Node000018" class="edge">
<title>Node34&#45;&gt;Node18</title>
<g id="a_edge43_Node000034_Node000018"><a xlink:title=" ">
<path fill="none" stroke="#63b8ff" d="M1687.34,-110C1730.14,-101.76 1796.73,-88.67 1863.96,-74.08"/>
<polygon fill="#63b8ff" stroke="#63b8ff" points="1864.86,-77.46 1873.89,-71.91 1863.37,-70.62 1864.86,-77.46"/>
</a>
</g>
</g>
<!-- Node34&#45;&gt;Node19 -->
<g id="edge45_Node000034_Node000019" class="edge">
<title>Node34&#45;&gt;Node19</title>
<g id="a_edge45_Node000034_Node000019"><a xlink:title=" ">
<path fill="none" stroke="#63b8ff" d="M1682.73,-109.94C1719.05,-100.27 1764.1,-82.22 1744.6,-55 1724.08,-26.36 1684.06,-15.93 1653.62,-12.24"/>
<polygon fill="#63b8ff" stroke="#63b8ff" points="1653.61,-8.72 1643.31,-11.2 1652.9,-15.69 1653.61,-8.72"/>
</a>
</g>
</g>
<!-- Node34&#45;&gt;Node24 -->
<g id="edge44_Node000034_Node000024" class="edge">
<title>Node34&#45;&gt;Node24</title>
<g id="a_edge44_Node000034_Node000024"><a xlink:title=" ">
<path fill="none" stroke="#63b8ff" d="M1699.34,-110.61C1756.49,-102.5 1847.44,-89.18 1935.65,-74.1"/>
<polygon fill="#63b8ff" stroke="#63b8ff" points="1936.29,-77.55 1945.56,-72.4 1935.11,-70.65 1936.29,-77.55"/>
</a>
</g>
</g>
<!-- Node34&#45;&gt;Node30 -->
<g id="edge46_Node000034_Node000030" class="edge">
<title>Node34&#45;&gt;Node30</title>
<g id="a_edge46_Node000034_Node000030"><a xlink:title=" ">
<path fill="none" stroke="#63b8ff" d="M1590.7,-109.98C1533.81,-100.65 1442.55,-85.67 1381.85,-75.71"/>
<polygon fill="#63b8ff" stroke="#63b8ff" points="1382.07,-72.2 1371.63,-74.04 1380.93,-79.11 1382.07,-72.2"/>
</a>
</g>
</g>
<!-- Node35 -->
<g id="Node000035" class="node">
<title>Node35</title>
<g id="a_Node000035"><a xlink:title=" ">
<polygon fill="#e0e0e0" stroke="#999999" points="1673.1,-74 1600.1,-74 1600.1,-55 1673.1,-55 1673.1,-74"/>
<text text-anchor="middle" x="1636.6" y="-62" font-family="Helvetica,sans-Serif" font-size="10.00">QByteArray</text>
</a>
</g>
</g>
<!-- Node34&#45;&gt;Node35 -->
<g id="edge38_Node000034_Node000035" class="edge">
<title>Node34&#45;&gt;Node35</title>
<g id="a_edge38_Node000034_Node000035"><a xlink:title=" ">
<path fill="none" stroke="#63b8ff" d="M1641.61,-109.75C1640.82,-102.8 1639.69,-92.85 1638.71,-84.13"/>
<polygon fill="#63b8ff" stroke="#63b8ff" points="1642.17,-83.63 1637.57,-74.09 1635.22,-84.42 1642.17,-83.63"/>
</a>
</g>
</g>
<!-- Node36 -->
<g id="Node000036" class="node">
<title>Node36</title>
<g id="a_Node000036"><a xlink:title=" ">
<polygon fill="#e0e0e0" stroke="#999999" points="1735.6,-74 1691.6,-74 1691.6,-55 1735.6,-55 1735.6,-74"/>
<text text-anchor="middle" x="1713.6" y="-62" font-family="Helvetica,sans-Serif" font-size="10.00">QSize</text>
</a>
</g>
</g>
<!-- Node34&#45;&gt;Node36 -->
<g id="edge42_Node000034_Node000036" class="edge">
<title>Node34&#45;&gt;Node36</title>
<g id="a_edge42_Node000034_Node000036"><a xlink:title=" ">
<path fill="none" stroke="#63b8ff" d="M1654.01,-109.98C1664.71,-102 1680.94,-89.88 1693.76,-80.31"/>
<polygon fill="#63b8ff" stroke="#63b8ff" points="1696.06,-82.96 1701.98,-74.17 1691.88,-77.35 1696.06,-82.96"/>
</a>
</g>
</g>
<!-- Node38 -->
<g id="Node000038" class="node">
<title>Node38</title>
<g id="a_Node000038"><a xlink:title=" ">
<polygon fill="#e0e0e0" stroke="#999999" points="498.6,-129 440.6,-129 440.6,-110 498.6,-110 498.6,-129"/>
<text text-anchor="middle" x="469.6" y="-117" font-family="Helvetica,sans-Serif" font-size="10.00">memory</text>
</a>
</g>
</g>
<!-- Node37&#45;&gt;Node38 -->
<g id="edge48_Node000037_Node000038" class="edge">
<title>Node37&#45;&gt;Node38</title>
<g id="a_edge48_Node000037_Node000038"><a xlink:title=" ">
<path fill="none" stroke="#63b8ff" d="M627.39,-164.98C595.18,-155.9 544.04,-141.49 508.75,-131.54"/>
<polygon fill="#63b8ff" stroke="#63b8ff" points="509.38,-128.08 498.8,-128.73 507.48,-134.81 509.38,-128.08"/>
</a>
</g>
</g>
<!-- Node39 -->
<g id="Node000039" class="node">
<title>Node39</title>
<g id="a_Node000039"><a xlink:title=" ">
<polygon fill="#e0e0e0" stroke="#999999" points="564.1,-129 517.1,-129 517.1,-110 564.1,-110 564.1,-129"/>
<text text-anchor="middle" x="540.6" y="-117" font-family="Helvetica,sans-Serif" font-size="10.00">vector</text>
</a>
</g>
</g>
<!-- Node37&#45;&gt;Node39 -->
<g id="edge49_Node000037_Node000039" class="edge">
<title>Node37&#45;&gt;Node39</title>
<g id="a_edge49_Node000037_Node000039"><a xlink:title=" ">
<path fill="none" stroke="#63b8ff" d="M638.8,-164.98C619.98,-156.46 590.78,-143.23 569.1,-133.41"/>
<polygon fill="#63b8ff" stroke="#63b8ff" points="570.29,-130.11 559.74,-129.17 567.4,-136.48 570.29,-130.11"/>
</a>
</g>
</g>
<!-- Node40 -->
<g id="Node000040" class="node">
<title>Node40</title>
<g id="a_Node000040"><a xlink:title=" ">
<polygon fill="#e0e0e0" stroke="#999999" points="853.6,-129 773.6,-129 773.6,-110 853.6,-110 853.6,-129"/>
<text text-anchor="middle" x="813.6" y="-117" font-family="Helvetica,sans-Serif" font-size="10.00">QTextStream</text>
</a>
</g>
</g>
<!-- Node37&#45;&gt;Node40 -->
<g id="edge50_Node000037_Node000040" class="edge">
<title>Node37&#45;&gt;Node40</title>
<g id="a_edge50_Node000037_Node000040"><a xlink:title=" ">
<path fill="none" stroke="#63b8ff" d="M682.66,-164.98C708.63,-156.16 749.41,-142.31 778.56,-132.41"/>
<polygon fill="#63b8ff" stroke="#63b8ff" points="780,-135.61 788.34,-129.08 777.74,-128.99 780,-135.61"/>
</a>
</g>
</g>
<!-- Node41 -->
<g id="Node000041" class="node">
<title>Node41</title>
<g id="a_Node000041"><a xlink:title=" ">
<polygon fill="#e0e0e0" stroke="#999999" points="973.1,-129 872.1,-129 872.1,-110 973.1,-110 973.1,-129"/>
<text text-anchor="middle" x="922.6" y="-117" font-family="Helvetica,sans-Serif" font-size="10.00">QCoreApplication</text>
</a>
</g>
</g>
<!-- Node37&#45;&gt;Node41 -->
<g id="edge51_Node000037_Node000041" class="edge">
<title>Node37&#45;&gt;Node41</title>
<g id="a_edge51_Node000037_Node000041"><a xlink:title=" ">
<path fill="none" stroke="#63b8ff" d="M699.88,-165.04C746.09,-155.8 820.17,-140.99 870.08,-131"/>
<polygon fill="#63b8ff" stroke="#63b8ff" points="870.91,-134.41 880.03,-129.01 869.54,-127.54 870.91,-134.41"/>
</a>
</g>
</g>
<!-- Node42 -->
<g id="Node000042" class="node">
<title>Node42</title>
<g id="a_Node000042"><a xlink:title=" ">
<polygon fill="#e0e0e0" stroke="#999999" points="1116.1,-129 991.1,-129 991.1,-110 1116.1,-110 1116.1,-129"/>
<text text-anchor="middle" x="1053.6" y="-117" font-family="Helvetica,sans-Serif" font-size="10.00">QCommandLineParser</text>
</a>
</g>
</g>
<!-- Node37&#45;&gt;Node42 -->
<g id="edge52_Node000037_Node000042" class="edge">
<title>Node37&#45;&gt;Node42</title>
<g id="a_edge52_Node000037_Node000042"><a xlink:title=" ">
<path fill="none" stroke="#63b8ff" d="M699.6,-166.37C702.65,-165.9 705.67,-165.43 708.6,-165 759.48,-157.48 895.38,-140.27 980.64,-129.59"/>
<polygon fill="#63b8ff" stroke="#63b8ff" points="981.29,-133.04 990.77,-128.32 980.42,-126.09 981.29,-133.04"/>
</a>
</g>
</g>
<!-- Node43 -->
<g id="Node000043" class="node">
<title>Node43</title>
<g id="a_Node000043"><a xlink:href="../../d2/d2b/dialoglayoutsettings_8h.html" target="_top" xlink:title=" ">
<polygon fill="white" stroke="#666666" points="755.1,-129 582.1,-129 582.1,-110 755.1,-110 755.1,-129"/>
<text text-anchor="middle" x="668.6" y="-117" font-family="Helvetica,sans-Serif" font-size="10.00">../dialogs/dialoglayoutsettings.h</text>
</a>
</g>
</g>
<!-- Node37&#45;&gt;Node43 -->
<g id="edge53_Node000037_Node000043" class="edge">
<title>Node37&#45;&gt;Node43</title>
<g id="a_edge53_Node000037_Node000043"><a xlink:title=" ">
<path fill="none" stroke="#63b8ff" d="M659.41,-164.75C660.86,-157.8 662.92,-147.85 664.73,-139.13"/>
<polygon fill="#63b8ff" stroke="#63b8ff" points="668.21,-139.59 666.82,-129.09 661.36,-138.17 668.21,-139.59"/>
</a>
</g>
</g>
<!-- Node46 -->
<g id="Node000046" class="node">
<title>Node46</title>
<g id="a_Node000046"><a xlink:title=" ">
<polygon fill="#e0e0e0" stroke="#999999" points="1247.1,-129 1134.1,-129 1134.1,-110 1247.1,-110 1247.1,-129"/>
<text text-anchor="middle" x="1190.6" y="-117" font-family="Helvetica,sans-Serif" font-size="10.00">../vmisc/vsysexits.h</text>
</a>
</g>
</g>
<!-- Node37&#45;&gt;Node46 -->
<g id="edge59_Node000037_Node000046" class="edge">
<title>Node37&#45;&gt;Node46</title>
<g id="a_edge59_Node000037_Node000046"><a xlink:title=" ">
<path fill="none" stroke="#63b8ff" d="M699.86,-166.19C702.81,-165.76 705.75,-165.36 708.6,-165 889.91,-142.1 938.95,-148.82 1123.84,-129.15"/>
<polygon fill="#63b8ff" stroke="#63b8ff" points="1124.33,-132.61 1133.9,-128.06 1123.58,-125.65 1124.33,-132.61"/>
</a>
</g>
</g>
<!-- Node43&#45;&gt;Node2 -->
<g id="edge54_Node000043_Node000002" class="edge">
<title>Node43&#45;&gt;Node2</title>
<g id="a_edge54_Node000043_Node000002"><a xlink:title=" ">
<path fill="none" stroke="#63b8ff" d="M697.36,-109.98C727.54,-101.05 775.17,-86.94 808.7,-77.02"/>
<polygon fill="#63b8ff" stroke="#63b8ff" points="810.02,-80.28 818.61,-74.08 808.03,-73.57 810.02,-80.28"/>
</a>
</g>
</g>
<!-- Node43&#45;&gt;Node3 -->
<g id="edge56_Node000043_Node000003" class="edge">
<title>Node43&#45;&gt;Node3</title>
<g id="a_edge56_Node000043_Node000003"><a xlink:title=" ">
<path fill="none" stroke="#63b8ff" d="M619.19,-110C596.12,-103.67 569.98,-92.74 552.6,-74 541.35,-61.87 536.75,-43.34 534.87,-29.42"/>
<polygon fill="#63b8ff" stroke="#63b8ff" points="538.31,-28.67 533.85,-19.06 531.34,-29.35 538.31,-28.67"/>
</a>
</g>
</g>
<!-- Node43&#45;&gt;Node20 -->
<g id="edge58_Node000043_Node000020" class="edge">
<title>Node43&#45;&gt;Node20</title>
<g id="a_edge58_Node000043_Node000020"><a xlink:title=" ">
<path fill="none" stroke="#63b8ff" d="M732.06,-109.98C813.58,-99.05 952.79,-80.37 1022,-71.08"/>
<polygon fill="#63b8ff" stroke="#63b8ff" points="1022.64,-74.53 1032.08,-69.73 1021.71,-67.59 1022.64,-74.53"/>
</a>
</g>
</g>
<!-- Node44 -->
<g id="Node000044" class="node">
<title>Node44</title>
<g id="a_Node000044"><a xlink:title=" ">
<polygon fill="#e0e0e0" stroke="#999999" points="665.6,-74 561.6,-74 561.6,-55 665.6,-55 665.6,-74"/>
<text text-anchor="middle" x="613.6" y="-62" font-family="Helvetica,sans-Serif" font-size="10.00">../vlayout/vbank.h</text>
</a>
</g>
</g>
<!-- Node43&#45;&gt;Node44 -->
<g id="edge55_Node000043_Node000044" class="edge">
<title>Node43&#45;&gt;Node44</title>
<g id="a_edge55_Node000043_Node000044"><a xlink:title=" ">
<path fill="none" stroke="#63b8ff" d="M659.52,-109.75C651.51,-102.03 639.64,-90.6 629.98,-81.28"/>
<polygon fill="#63b8ff" stroke="#63b8ff" points="632.14,-78.51 622.51,-74.09 627.28,-83.55 632.14,-78.51"/>
</a>
</g>
</g>
<!-- Node45 -->
<g id="Node000045" class="node">
<title>Node45</title>
<g id="a_Node000045"><a xlink:title=" ">
<polygon fill="#e0e0e0" stroke="#999999" points="763.1,-74 684.1,-74 684.1,-55 763.1,-55 763.1,-74"/>
<text text-anchor="middle" x="723.6" y="-62" font-family="Helvetica,sans-Serif" font-size="10.00">QCloseEvent</text>
</a>
</g>
</g>
<!-- Node43&#45;&gt;Node45 -->
<g id="edge57_Node000043_Node000045" class="edge">
<title>Node43&#45;&gt;Node45</title>
<g id="a_edge57_Node000043_Node000045"><a xlink:title=" ">
<path fill="none" stroke="#63b8ff" d="M677.68,-109.75C685.69,-102.03 697.56,-90.6 707.22,-81.28"/>
<polygon fill="#63b8ff" stroke="#63b8ff" points="709.91,-83.55 714.69,-74.09 705.06,-78.51 709.91,-83.55"/>
</a>
</g>
</g>
</g>
</svg>
