<?xml version="1.0" encoding="UTF-8" standalone="no"?>
<!DOCTYPE svg PUBLIC "-//W3C//DTD SVG 1.1//EN"
 "http://www.w3.org/Graphics/SVG/1.1/DTD/svg11.dtd">
<!-- Generated by graphviz version 2.43.0 (0)
 -->
<!-- Title: src/app/seamly2d/dialogs/dialognewpattern.cpp Pages: 1 -->
<svg width="2091pt" height="313pt"
 viewBox="0.00 0.00 2090.56 313.00" xmlns="http://www.w3.org/2000/svg" xmlns:xlink="http://www.w3.org/1999/xlink">
<g id="graph0" class="graph" transform="scale(1 1) rotate(0) translate(4 309)">
<title>src/app/seamly2d/dialogs/dialognewpattern.cpp</title>
<!-- Node1 -->
<g id="Node000001" class="node">
<title>Node1</title>
<g id="a_Node000001"><a xlink:title=" ">
<polygon fill="#999999" stroke="#666666" points="1588.56,-305 1447.56,-305 1447.56,-275 1588.56,-275 1588.56,-305"/>
<text text-anchor="start" x="1455.56" y="-293" font-family="Helvetica,sans-Serif" font-size="10.00">src/app/seamly2d/dialogs</text>
<text text-anchor="middle" x="1518.06" y="-282" font-family="Helvetica,sans-Serif" font-size="10.00">/dialognewpattern.cpp</text>
</a>
</g>
</g>
<!-- Node2 -->
<g id="Node000002" class="node">
<title>Node2</title>
<g id="a_Node000002"><a xlink:href="../../dd/d10/dialognewpattern_8h.html" target="_top" xlink:title=" ">
<polygon fill="white" stroke="#666666" points="286.56,-239 175.56,-239 175.56,-220 286.56,-220 286.56,-239"/>
<text text-anchor="middle" x="231.06" y="-227" font-family="Helvetica,sans-Serif" font-size="10.00">dialognewpattern.h</text>
</a>
</g>
</g>
<!-- Node1&#45;&gt;Node2 -->
<g id="edge1_Node000001_Node000002" class="edge">
<title>Node1&#45;&gt;Node2</title>
<g id="a_edge1_Node000001_Node000002"><a xlink:title=" ">
<path fill="none" stroke="#63b8ff" d="M1447.49,-285.79C1221.19,-275.51 515.71,-243.44 296.63,-233.48"/>
<polygon fill="#63b8ff" stroke="#63b8ff" points="296.72,-229.98 286.57,-233.02 296.4,-236.97 296.72,-229.98"/>
</a>
</g>
</g>
<!-- Node5 -->
<g id="Node000005" class="node">
<title>Node5</title>
<g id="a_Node000005"><a xlink:title=" ">
<polygon fill="#e0e0e0" stroke="#999999" points="1298.56,-239 1173.56,-239 1173.56,-220 1298.56,-220 1298.56,-239"/>
<text text-anchor="middle" x="1236.06" y="-227" font-family="Helvetica,sans-Serif" font-size="10.00">ui_dialognewpattern.h</text>
</a>
</g>
</g>
<!-- Node1&#45;&gt;Node5 -->
<g id="edge4_Node000001_Node000005" class="edge">
<title>Node1&#45;&gt;Node5</title>
<g id="a_edge4_Node000001_Node000005"><a xlink:title=" ">
<path fill="none" stroke="#63b8ff" d="M1450.51,-274.99C1400.37,-264.59 1333.03,-250.62 1287.28,-241.13"/>
<polygon fill="#63b8ff" stroke="#63b8ff" points="1287.79,-237.66 1277.29,-239.05 1286.37,-244.51 1287.79,-237.66"/>
</a>
</g>
</g>
<!-- Node6 -->
<g id="Node000006" class="node">
<title>Node6</title>
<g id="a_Node000006"><a xlink:href="../../d9/d02/vapplication_8h.html" target="_top" xlink:title=" ">
<polygon fill="white" stroke="#666666" points="1155.56,-239 1036.56,-239 1036.56,-220 1155.56,-220 1155.56,-239"/>
<text text-anchor="middle" x="1096.06" y="-227" font-family="Helvetica,sans-Serif" font-size="10.00">../core/vapplication.h</text>
</a>
</g>
</g>
<!-- Node1&#45;&gt;Node6 -->
<g id="edge5_Node000001_Node000006" class="edge">
<title>Node1&#45;&gt;Node6</title>
<g id="a_edge5_Node000001_Node000006"><a xlink:title=" ">
<path fill="none" stroke="#63b8ff" d="M1447.42,-279.21C1369.17,-268.36 1243.77,-250.98 1165.85,-240.17"/>
<polygon fill="#63b8ff" stroke="#63b8ff" points="1166.04,-236.67 1155.65,-238.76 1165.07,-243.6 1166.04,-236.67"/>
</a>
</g>
</g>
<!-- Node17 -->
<g id="Node000017" class="node">
<title>Node17</title>
<g id="a_Node000017"><a xlink:title=" ">
<polygon fill="#e0e0e0" stroke="#999999" points="110.06,-74 46.06,-74 46.06,-55 110.06,-55 110.06,-74"/>
<text text-anchor="middle" x="78.06" y="-62" font-family="Helvetica,sans-Serif" font-size="10.00">QSettings</text>
</a>
</g>
</g>
<!-- Node1&#45;&gt;Node17 -->
<g id="edge61_Node000001_Node000017" class="edge">
<title>Node1&#45;&gt;Node17</title>
<g id="a_edge61_Node000001_Node000017"><a xlink:title=" ">
<path fill="none" stroke="#63b8ff" d="M1447.38,-288.66C1186.71,-287.08 288.04,-278.79 166.06,-239 82.97,-211.9 44.08,-206.17 3.06,-129 -8.8,-106.69 18.15,-88.94 42.99,-77.95"/>
<polygon fill="#63b8ff" stroke="#63b8ff" points="44.43,-81.14 52.32,-74.07 41.74,-74.68 44.43,-81.14"/>
</a>
</g>
</g>
<!-- Node49 -->
<g id="Node000049" class="node">
<title>Node49</title>
<g id="a_Node000049"><a xlink:title=" ">
<polygon fill="#e0e0e0" stroke="#999999" points="1429.06,-239 1317.06,-239 1317.06,-220 1429.06,-220 1429.06,-239"/>
<text text-anchor="middle" x="1373.06" y="-227" font-family="Helvetica,sans-Serif" font-size="10.00">../vmisc/vsettings.h</text>
</a>
</g>
</g>
<!-- Node1&#45;&gt;Node49 -->
<g id="edge56_Node000001_Node000049" class="edge">
<title>Node1&#45;&gt;Node49</title>
<g id="a_edge56_Node000001_Node000049"><a xlink:title=" ">
<path fill="none" stroke="#63b8ff" d="M1483.33,-274.99C1459.13,-265.23 1427.16,-252.33 1403.87,-242.93"/>
<polygon fill="#63b8ff" stroke="#63b8ff" points="1405.05,-239.63 1394.47,-239.14 1402.43,-246.13 1405.05,-239.63"/>
</a>
</g>
</g>
<!-- Node50 -->
<g id="Node000050" class="node">
<title>Node50</title>
<g id="a_Node000050"><a xlink:title=" ">
<polygon fill="#e0e0e0" stroke="#999999" points="1589.06,-239 1447.06,-239 1447.06,-220 1589.06,-220 1589.06,-239"/>
<text text-anchor="middle" x="1518.06" y="-227" font-family="Helvetica,sans-Serif" font-size="10.00">../vpatterndb/vcontainer.h</text>
</a>
</g>
</g>
<!-- Node1&#45;&gt;Node50 -->
<g id="edge57_Node000001_Node000050" class="edge">
<title>Node1&#45;&gt;Node50</title>
<g id="a_edge57_Node000001_Node000050"><a xlink:title=" ">
<path fill="none" stroke="#63b8ff" d="M1518.06,-274.84C1518.06,-267.21 1518.06,-257.7 1518.06,-249.45"/>
<polygon fill="#63b8ff" stroke="#63b8ff" points="1521.56,-249.27 1518.06,-239.27 1514.56,-249.27 1521.56,-249.27"/>
</a>
</g>
</g>
<!-- Node51 -->
<g id="Node000051" class="node">
<title>Node51</title>
<g id="a_Node000051"><a xlink:title=" ">
<polygon fill="#e0e0e0" stroke="#999999" points="1680.56,-239 1607.56,-239 1607.56,-220 1680.56,-220 1680.56,-239"/>
<text text-anchor="middle" x="1644.06" y="-227" font-family="Helvetica,sans-Serif" font-size="10.00">QFileDialog</text>
</a>
</g>
</g>
<!-- Node1&#45;&gt;Node51 -->
<g id="edge58_Node000001_Node000051" class="edge">
<title>Node1&#45;&gt;Node51</title>
<g id="a_edge58_Node000001_Node000051"><a xlink:title=" ">
<path fill="none" stroke="#63b8ff" d="M1548.24,-274.99C1568.88,-265.4 1596.06,-252.79 1616.19,-243.44"/>
<polygon fill="#63b8ff" stroke="#63b8ff" points="1617.85,-246.52 1625.45,-239.14 1614.91,-240.18 1617.85,-246.52"/>
</a>
</g>
</g>
<!-- Node52 -->
<g id="Node000052" class="node">
<title>Node52</title>
<g id="a_Node000052"><a xlink:title=" ">
<polygon fill="#e0e0e0" stroke="#999999" points="1785.06,-239 1699.06,-239 1699.06,-220 1785.06,-220 1785.06,-239"/>
<text text-anchor="middle" x="1742.06" y="-227" font-family="Helvetica,sans-Serif" font-size="10.00">QMessageBox</text>
</a>
</g>
</g>
<!-- Node1&#45;&gt;Node52 -->
<g id="edge59_Node000001_Node000052" class="edge">
<title>Node1&#45;&gt;Node52</title>
<g id="a_edge59_Node000001_Node000052"><a xlink:title=" ">
<path fill="none" stroke="#63b8ff" d="M1571.71,-274.99C1610.87,-264.76 1663.23,-251.09 1699.52,-241.61"/>
<polygon fill="#63b8ff" stroke="#63b8ff" points="1700.51,-244.97 1709.3,-239.05 1698.74,-238.19 1700.51,-244.97"/>
</a>
</g>
</g>
<!-- Node53 -->
<g id="Node000053" class="node">
<title>Node53</title>
<g id="a_Node000053"><a xlink:title=" ">
<polygon fill="#e0e0e0" stroke="#999999" points="1883.06,-239 1803.06,-239 1803.06,-220 1883.06,-220 1883.06,-239"/>
<text text-anchor="middle" x="1843.06" y="-227" font-family="Helvetica,sans-Serif" font-size="10.00">QPushButton</text>
</a>
</g>
</g>
<!-- Node1&#45;&gt;Node53 -->
<g id="edge60_Node000001_Node000053" class="edge">
<title>Node1&#45;&gt;Node53</title>
<g id="a_edge60_Node000001_Node000053"><a xlink:title=" ">
<path fill="none" stroke="#63b8ff" d="M1588.58,-276.31C1650.14,-265.23 1737.96,-249.42 1792.68,-239.57"/>
<polygon fill="#63b8ff" stroke="#63b8ff" points="1793.61,-242.96 1802.83,-237.74 1792.37,-236.07 1793.61,-242.96"/>
</a>
</g>
</g>
<!-- Node54 -->
<g id="Node000054" class="node">
<title>Node54</title>
<g id="a_Node000054"><a xlink:title=" ">
<polygon fill="#e0e0e0" stroke="#999999" points="1996.56,-239 1901.56,-239 1901.56,-220 1996.56,-220 1996.56,-239"/>
<text text-anchor="middle" x="1949.06" y="-227" font-family="Helvetica,sans-Serif" font-size="10.00">QGuiApplication</text>
</a>
</g>
</g>
<!-- Node1&#45;&gt;Node54 -->
<g id="edge62_Node000001_Node000054" class="edge">
<title>Node1&#45;&gt;Node54</title>
<g id="a_edge62_Node000001_Node000054"><a xlink:title=" ">
<path fill="none" stroke="#63b8ff" d="M1588.76,-279.87C1661.79,-270.37 1779.35,-254.87 1891.35,-239.08"/>
<polygon fill="#63b8ff" stroke="#63b8ff" points="1892.07,-242.51 1901.48,-237.65 1891.09,-235.58 1892.07,-242.51"/>
</a>
</g>
</g>
<!-- Node55 -->
<g id="Node000055" class="node">
<title>Node55</title>
<g id="a_Node000055"><a xlink:title=" ">
<polygon fill="#e0e0e0" stroke="#999999" points="2071.56,-239 2014.56,-239 2014.56,-220 2071.56,-220 2071.56,-239"/>
<text text-anchor="middle" x="2043.06" y="-227" font-family="Helvetica,sans-Serif" font-size="10.00">QScreen</text>
</a>
</g>
</g>
<!-- Node1&#45;&gt;Node55 -->
<g id="edge63_Node000001_Node000055" class="edge">
<title>Node1&#45;&gt;Node55</title>
<g id="a_edge63_Node000001_Node000055"><a xlink:title=" ">
<path fill="none" stroke="#63b8ff" d="M1588.73,-284.51C1681.92,-277.99 1851.13,-264.01 2004.37,-239.1"/>
<polygon fill="#63b8ff" stroke="#63b8ff" points="2005.14,-242.52 2014.44,-237.44 2004.01,-235.61 2005.14,-242.52"/>
</a>
</g>
</g>
<!-- Node3 -->
<g id="Node000003" class="node">
<title>Node3</title>
<g id="a_Node000003"><a xlink:title=" ">
<polygon fill="#e0e0e0" stroke="#999999" points="259.06,-184 203.06,-184 203.06,-165 259.06,-165 259.06,-184"/>
<text text-anchor="middle" x="231.06" y="-172" font-family="Helvetica,sans-Serif" font-size="10.00">QDialog</text>
</a>
</g>
</g>
<!-- Node2&#45;&gt;Node3 -->
<g id="edge2_Node000002_Node000003" class="edge">
<title>Node2&#45;&gt;Node3</title>
<g id="a_edge2_Node000002_Node000003"><a xlink:title=" ">
<path fill="none" stroke="#63b8ff" d="M231.06,-219.75C231.06,-212.8 231.06,-202.85 231.06,-194.13"/>
<polygon fill="#63b8ff" stroke="#63b8ff" points="234.56,-194.09 231.06,-184.09 227.56,-194.09 234.56,-194.09"/>
</a>
</g>
</g>
<!-- Node4 -->
<g id="Node000004" class="node">
<title>Node4</title>
<g id="a_Node000004"><a xlink:title=" ">
<polygon fill="#e0e0e0" stroke="#999999" points="94.06,-129 12.06,-129 12.06,-110 94.06,-110 94.06,-129"/>
<text text-anchor="middle" x="53.06" y="-117" font-family="Helvetica,sans-Serif" font-size="10.00">../vmisc/def.h</text>
</a>
</g>
</g>
<!-- Node2&#45;&gt;Node4 -->
<g id="edge3_Node000002_Node000004" class="edge">
<title>Node2&#45;&gt;Node4</title>
<g id="a_edge3_Node000002_Node000004"><a xlink:title=" ">
<path fill="none" stroke="#63b8ff" d="M216.79,-219.84C186.07,-201.2 113.4,-157.11 76.07,-134.46"/>
<polygon fill="#63b8ff" stroke="#63b8ff" points="77.76,-131.39 67.39,-129.2 74.12,-137.38 77.76,-131.39"/>
</a>
</g>
</g>
<!-- Node7 -->
<g id="Node000007" class="node">
<title>Node7</title>
<g id="a_Node000007"><a xlink:title=" ">
<polygon fill="#e0e0e0" stroke="#999999" points="1709.56,-184 1542.56,-184 1542.56,-165 1709.56,-165 1709.56,-184"/>
<text text-anchor="middle" x="1626.06" y="-172" font-family="Helvetica,sans-Serif" font-size="10.00">../vmisc/vabstractapplication.h</text>
</a>
</g>
</g>
<!-- Node6&#45;&gt;Node7 -->
<g id="edge6_Node000006_Node000007" class="edge">
<title>Node6&#45;&gt;Node7</title>
<g id="a_edge6_Node000006_Node000007"><a xlink:title=" ">
<path fill="none" stroke="#63b8ff" d="M1155.75,-220.94C1158.56,-220.62 1161.34,-220.3 1164.06,-220 1233.05,-212.37 1418.46,-194.85 1532.32,-184.21"/>
<polygon fill="#63b8ff" stroke="#63b8ff" points="1532.79,-187.68 1542.43,-183.27 1532.14,-180.71 1532.79,-187.68"/>
</a>
</g>
</g>
<!-- Node8 -->
<g id="Node000008" class="node">
<title>Node8</title>
<g id="a_Node000008"><a xlink:href="../../d7/d5b/options_8h.html" target="_top" xlink:title=" ">
<polygon fill="white" stroke="#666666" points="388.56,-184 317.56,-184 317.56,-165 388.56,-165 388.56,-184"/>
<text text-anchor="middle" x="353.06" y="-172" font-family="Helvetica,sans-Serif" font-size="10.00">../options.h</text>
</a>
</g>
</g>
<!-- Node6&#45;&gt;Node8 -->
<g id="edge7_Node000006_Node000008" class="edge">
<title>Node6&#45;&gt;Node8</title>
<g id="a_edge7_Node000006_Node000008"><a xlink:title=" ">
<path fill="none" stroke="#63b8ff" d="M1036.51,-224.25C892.48,-213.98 527.7,-187.96 398.93,-178.77"/>
<polygon fill="#63b8ff" stroke="#63b8ff" points="398.86,-175.26 388.64,-178.04 398.36,-182.24 398.86,-175.26"/>
</a>
</g>
</g>
<!-- Node12 -->
<g id="Node000012" class="node">
<title>Node12</title>
<g id="a_Node000012"><a xlink:title=" ">
<polygon fill="#e0e0e0" stroke="#999999" points="1903.06,-184 1727.06,-184 1727.06,-165 1903.06,-165 1903.06,-184"/>
<text text-anchor="middle" x="1815.06" y="-172" font-family="Helvetica,sans-Serif" font-size="10.00">../vwidgets/vmaingraphicsview.h</text>
</a>
</g>
</g>
<!-- Node6&#45;&gt;Node12 -->
<g id="edge12_Node000006_Node000012" class="edge">
<title>Node6&#45;&gt;Node12</title>
<g id="a_edge12_Node000006_Node000012"><a xlink:title=" ">
<path fill="none" stroke="#63b8ff" d="M1155.74,-220.84C1158.55,-220.54 1161.33,-220.26 1164.06,-220 1406.77,-196.98 1470.85,-202.74 1716.59,-184.17"/>
<polygon fill="#63b8ff" stroke="#63b8ff" points="1717.21,-187.63 1726.92,-183.39 1716.68,-180.65 1717.21,-187.63"/>
</a>
</g>
</g>
<!-- Node13 -->
<g id="Node000013" class="node">
<title>Node13</title>
<g id="a_Node000013"><a xlink:title=" ">
<polygon fill="#e0e0e0" stroke="#999999" points="2082.56,-184 1921.56,-184 1921.56,-165 2082.56,-165 2082.56,-184"/>
<text text-anchor="middle" x="2002.06" y="-172" font-family="Helvetica,sans-Serif" font-size="10.00">../vpatterndb/vtranslatevars.h</text>
</a>
</g>
</g>
<!-- Node6&#45;&gt;Node13 -->
<g id="edge13_Node000006_Node000013" class="edge">
<title>Node6&#45;&gt;Node13</title>
<g id="a_edge13_Node000006_Node000013"><a xlink:title=" ">
<path fill="none" stroke="#63b8ff" d="M1155.73,-220.78C1158.55,-220.5 1161.33,-220.24 1164.06,-220 1492.25,-191.63 1578.31,-207.32 1910.71,-184.06"/>
<polygon fill="#63b8ff" stroke="#63b8ff" points="1911.39,-187.52 1921.12,-183.32 1910.9,-180.54 1911.39,-187.52"/>
</a>
</g>
</g>
<!-- Node14 -->
<g id="Node000014" class="node">
<title>Node14</title>
<g id="a_Node000014"><a xlink:href="../../dd/db2/vsettings_8h.html" target="_top" xlink:title=" ">
<polygon fill="white" stroke="#666666" points="745.56,-184 674.56,-184 674.56,-165 745.56,-165 745.56,-184"/>
<text text-anchor="middle" x="710.06" y="-172" font-family="Helvetica,sans-Serif" font-size="10.00">vsettings.h</text>
</a>
</g>
</g>
<!-- Node6&#45;&gt;Node14 -->
<g id="edge14_Node000006_Node000014" class="edge">
<title>Node6&#45;&gt;Node14</title>
<g id="a_edge14_Node000006_Node000014"><a xlink:title=" ">
<path fill="none" stroke="#63b8ff" d="M1036.17,-220.28C958.82,-209.66 825.87,-191.4 756.01,-181.81"/>
<polygon fill="#63b8ff" stroke="#63b8ff" points="756.15,-178.3 745.76,-180.4 755.2,-185.23 756.15,-178.3"/>
</a>
</g>
</g>
<!-- Node37 -->
<g id="Node000037" class="node">
<title>Node37</title>
<g id="a_Node000037"><a xlink:href="../../dd/d57/vcmdexport_8h.html" target="_top" xlink:title=" ">
<polygon fill="white" stroke="#666666" points="1525.06,-184 1441.06,-184 1441.06,-165 1525.06,-165 1525.06,-184"/>
<text text-anchor="middle" x="1483.06" y="-172" font-family="Helvetica,sans-Serif" font-size="10.00">vcmdexport.h</text>
</a>
</g>
</g>
<!-- Node6&#45;&gt;Node37 -->
<g id="edge46_Node000006_Node000037" class="edge">
<title>Node6&#45;&gt;Node37</title>
<g id="a_edge46_Node000006_Node000037"><a xlink:title=" ">
<path fill="none" stroke="#63b8ff" d="M1155.68,-220.33C1230.95,-210.03 1359.25,-192.46 1430.84,-182.65"/>
<polygon fill="#63b8ff" stroke="#63b8ff" points="1431.55,-186.09 1440.98,-181.26 1430.6,-179.15 1431.55,-186.09"/>
</a>
</g>
</g>
<!-- Node8&#45;&gt;Node4 -->
<g id="edge11_Node000008_Node000004" class="edge">
<title>Node8&#45;&gt;Node4</title>
<g id="a_edge11_Node000008_Node000004"><a xlink:title=" ">
<path fill="none" stroke="#63b8ff" d="M317.46,-167.21C264.65,-157.88 165.23,-140.32 104.49,-129.59"/>
<polygon fill="#63b8ff" stroke="#63b8ff" points="104.81,-126.09 94.36,-127.8 103.6,-132.98 104.81,-126.09"/>
</a>
</g>
</g>
<!-- Node9 -->
<g id="Node000009" class="node">
<title>Node9</title>
<g id="a_Node000009"><a xlink:title=" ">
<polygon fill="#e0e0e0" stroke="#999999" points="1387.56,-74 1310.56,-74 1310.56,-55 1387.56,-55 1387.56,-74"/>
<text text-anchor="middle" x="1349.06" y="-62" font-family="Helvetica,sans-Serif" font-size="10.00">../ifc/ifcdef.h</text>
</a>
</g>
</g>
<!-- Node8&#45;&gt;Node9 -->
<g id="edge8_Node000008_Node000009" class="edge">
<title>Node8&#45;&gt;Node9</title>
<g id="a_edge8_Node000008_Node000009"><a xlink:title=" ">
<path fill="none" stroke="#63b8ff" d="M388.87,-172.13C484.29,-168.21 752.43,-155.52 974.06,-129 1091.85,-114.91 1229.01,-89.32 1300.33,-75.31"/>
<polygon fill="#63b8ff" stroke="#63b8ff" points="1301.23,-78.7 1310.37,-73.33 1299.88,-71.83 1301.23,-78.7"/>
</a>
</g>
</g>
<!-- Node10 -->
<g id="Node000010" class="node">
<title>Node10</title>
<g id="a_Node000010"><a xlink:title=" ">
<polygon fill="#e0e0e0" stroke="#999999" points="271.56,-129 112.56,-129 112.56,-110 271.56,-110 271.56,-129"/>
<text text-anchor="middle" x="192.06" y="-117" font-family="Helvetica,sans-Serif" font-size="10.00">../vgeometry/vgeometrydef.h</text>
</a>
</g>
</g>
<!-- Node8&#45;&gt;Node10 -->
<g id="edge9_Node000008_Node000010" class="edge">
<title>Node8&#45;&gt;Node10</title>
<g id="a_edge9_Node000008_Node000010"><a xlink:title=" ">
<path fill="none" stroke="#63b8ff" d="M327.19,-164.98C300.28,-156.13 257.94,-142.19 227.83,-132.28"/>
<polygon fill="#63b8ff" stroke="#63b8ff" points="228.72,-128.88 218.13,-129.08 226.53,-135.53 228.72,-128.88"/>
</a>
</g>
</g>
<!-- Node11 -->
<g id="Node000011" class="node">
<title>Node11</title>
<g id="a_Node000011"><a xlink:title=" ">
<polygon fill="#e0e0e0" stroke="#999999" points="416.56,-129 289.56,-129 289.56,-110 416.56,-110 416.56,-129"/>
<text text-anchor="middle" x="353.06" y="-117" font-family="Helvetica,sans-Serif" font-size="10.00">../qmuparser/qmudef.h</text>
</a>
</g>
</g>
<!-- Node8&#45;&gt;Node11 -->
<g id="edge10_Node000008_Node000011" class="edge">
<title>Node8&#45;&gt;Node11</title>
<g id="a_edge10_Node000008_Node000011"><a xlink:title=" ">
<path fill="none" stroke="#63b8ff" d="M353.06,-164.75C353.06,-157.8 353.06,-147.85 353.06,-139.13"/>
<polygon fill="#63b8ff" stroke="#63b8ff" points="356.56,-139.09 353.06,-129.09 349.56,-139.09 356.56,-139.09"/>
</a>
</g>
</g>
<!-- Node15 -->
<g id="Node000015" class="node">
<title>Node15</title>
<g id="a_Node000015"><a xlink:title=" ">
<polygon fill="#e0e0e0" stroke="#999999" points="522.06,-74 442.06,-74 442.06,-55 522.06,-55 522.06,-74"/>
<text text-anchor="middle" x="482.06" y="-62" font-family="Helvetica,sans-Serif" font-size="10.00">QMetaObject</text>
</a>
</g>
</g>
<!-- Node14&#45;&gt;Node15 -->
<g id="edge15_Node000014_Node000015" class="edge">
<title>Node14&#45;&gt;Node15</title>
<g id="a_edge15_Node000014_Node000015"><a xlink:title=" ">
<path fill="none" stroke="#63b8ff" d="M701.89,-164.8C688.67,-151.21 661.22,-124.95 633.06,-110 601.39,-93.19 562.53,-81.92 532.17,-74.93"/>
<polygon fill="#63b8ff" stroke="#63b8ff" points="532.74,-71.47 522.22,-72.72 531.22,-78.31 532.74,-71.47"/>
</a>
</g>
</g>
<!-- Node16 -->
<g id="Node000016" class="node">
<title>Node16</title>
<g id="a_Node000016"><a xlink:title=" ">
<polygon fill="#e0e0e0" stroke="#999999" points="596.06,-74 540.06,-74 540.06,-55 596.06,-55 596.06,-74"/>
<text text-anchor="middle" x="568.06" y="-62" font-family="Helvetica,sans-Serif" font-size="10.00">QObject</text>
</a>
</g>
</g>
<!-- Node14&#45;&gt;Node16 -->
<g id="edge16_Node000014_Node000016" class="edge">
<title>Node14&#45;&gt;Node16</title>
<g id="a_edge16_Node000014_Node000016"><a xlink:title=" ">
<path fill="none" stroke="#63b8ff" d="M706.22,-165C699.82,-151.67 685.81,-125.76 667.06,-110 649.29,-95.06 625.7,-84.2 606,-76.94"/>
<polygon fill="#63b8ff" stroke="#63b8ff" points="606.99,-73.58 596.4,-73.57 604.67,-80.19 606.99,-73.58"/>
</a>
</g>
</g>
<!-- Node14&#45;&gt;Node17 -->
<g id="edge17_Node000014_Node000017" class="edge">
<title>Node14&#45;&gt;Node17</title>
<g id="a_edge17_Node000014_Node000017"><a xlink:title=" ">
<path fill="none" stroke="#63b8ff" d="M674.18,-170.92C624.58,-166.51 532.84,-155.31 459.06,-129 442.75,-123.19 441.52,-115.34 425.06,-110 297.84,-68.78 256.18,-94.64 120.19,-74.02"/>
<polygon fill="#63b8ff" stroke="#63b8ff" points="120.66,-70.55 110.24,-72.45 119.57,-77.46 120.66,-70.55"/>
</a>
</g>
</g>
<!-- Node18 -->
<g id="Node000018" class="node">
<title>Node18</title>
<g id="a_Node000018"><a xlink:title=" ">
<polygon fill="#e0e0e0" stroke="#999999" points="755.56,-74 702.56,-74 702.56,-55 755.56,-55 755.56,-74"/>
<text text-anchor="middle" x="729.06" y="-62" font-family="Helvetica,sans-Serif" font-size="10.00">QString</text>
</a>
</g>
</g>
<!-- Node14&#45;&gt;Node18 -->
<g id="edge18_Node000014_Node000018" class="edge">
<title>Node14&#45;&gt;Node18</title>
<g id="a_edge18_Node000014_Node000018"><a xlink:title=" ">
<path fill="none" stroke="#63b8ff" d="M711.61,-164.66C714.69,-147.17 721.61,-107.8 725.75,-84.27"/>
<polygon fill="#63b8ff" stroke="#63b8ff" points="729.25,-84.61 727.53,-74.16 722.35,-83.4 729.25,-84.61"/>
</a>
</g>
</g>
<!-- Node19 -->
<g id="Node000019" class="node">
<title>Node19</title>
<g id="a_Node000019"><a xlink:title=" ">
<polygon fill="#e0e0e0" stroke="#999999" points="628.56,-19 569.56,-19 569.56,0 628.56,0 628.56,-19"/>
<text text-anchor="middle" x="599.06" y="-7" font-family="Helvetica,sans-Serif" font-size="10.00">QtGlobal</text>
</a>
</g>
</g>
<!-- Node14&#45;&gt;Node19 -->
<g id="edge19_Node000014_Node000019" class="edge">
<title>Node14&#45;&gt;Node19</title>
<g id="a_edge19_Node000014_Node000019"><a xlink:title=" ">
<path fill="none" stroke="#63b8ff" d="M745.94,-169.16C808.14,-161.55 939.97,-145.1 1051.06,-129 1070.26,-126.22 1383.46,-88.76 1396.06,-74 1401.54,-67.58 1401.86,-61.14 1396.06,-55 1369.79,-27.23 796.56,-14.27 638.89,-11.22"/>
<polygon fill="#63b8ff" stroke="#63b8ff" points="638.75,-7.72 628.69,-11.03 638.62,-14.72 638.75,-7.72"/>
</a>
</g>
</g>
<!-- Node20 -->
<g id="Node000020" class="node">
<title>Node20</title>
<g id="a_Node000020"><a xlink:title=" ">
<polygon fill="#e0e0e0" stroke="#999999" points="1507.56,-74 1444.56,-74 1444.56,-55 1507.56,-55 1507.56,-74"/>
<text text-anchor="middle" x="1476.06" y="-62" font-family="Helvetica,sans-Serif" font-size="10.00">QMargins</text>
</a>
</g>
</g>
<!-- Node14&#45;&gt;Node20 -->
<g id="edge20_Node000014_Node000020" class="edge">
<title>Node14&#45;&gt;Node20</title>
<g id="a_edge20_Node000014_Node000020"><a xlink:title=" ">
<path fill="none" stroke="#63b8ff" d="M745.58,-174.27C828.41,-175.24 1040.23,-172.8 1210.06,-129 1230.29,-123.78 1233.14,-116.3 1253.06,-110 1270.09,-104.61 1374.54,-84.59 1434.26,-73.33"/>
<polygon fill="#63b8ff" stroke="#63b8ff" points="1434.97,-76.76 1444.15,-71.47 1433.68,-69.88 1434.97,-76.76"/>
</a>
</g>
</g>
<!-- Node21 -->
<g id="Node000021" class="node">
<title>Node21</title>
<g id="a_Node000021"><a xlink:href="../../d4/da4/def_8h.html" target="_top" xlink:title=" ">
<polygon fill="white" stroke="#666666" points="965.06,-129 883.06,-129 883.06,-110 965.06,-110 965.06,-129"/>
<text text-anchor="middle" x="924.06" y="-117" font-family="Helvetica,sans-Serif" font-size="10.00">../vmisc/def.h</text>
</a>
</g>
</g>
<!-- Node14&#45;&gt;Node21 -->
<g id="edge21_Node000014_Node000021" class="edge">
<title>Node14&#45;&gt;Node21</title>
<g id="a_edge21_Node000014_Node000021"><a xlink:title=" ">
<path fill="none" stroke="#63b8ff" d="M744.44,-164.98C781.15,-155.89 839.44,-141.46 879.61,-131.51"/>
<polygon fill="#63b8ff" stroke="#63b8ff" points="880.54,-134.88 889.4,-129.08 878.86,-128.09 880.54,-134.88"/>
</a>
</g>
</g>
<!-- Node30 -->
<g id="Node000030" class="node">
<title>Node30</title>
<g id="a_Node000030"><a xlink:href="../../de/dec/vbank_8h.html" target="_top" xlink:title=" ">
<polygon fill="white" stroke="#666666" points="232.06,-74 128.06,-74 128.06,-55 232.06,-55 232.06,-74"/>
<text text-anchor="middle" x="180.06" y="-62" font-family="Helvetica,sans-Serif" font-size="10.00">../vlayout/vbank.h</text>
</a>
</g>
</g>
<!-- Node14&#45;&gt;Node30 -->
<g id="edge31_Node000014_Node000030" class="edge">
<title>Node14&#45;&gt;Node30</title>
<g id="a_edge31_Node000014_Node000030"><a xlink:title=" ">
<path fill="none" stroke="#63b8ff" d="M674.51,-168.18C632.63,-161.39 561.25,-148.18 502.06,-129 482.18,-122.56 479.1,-115.92 459.06,-110 438.66,-103.98 317.81,-85.68 242,-74.52"/>
<polygon fill="#63b8ff" stroke="#63b8ff" points="242.48,-71.05 232.08,-73.06 241.46,-77.97 242.48,-71.05"/>
</a>
</g>
</g>
<!-- Node34 -->
<g id="Node000034" class="node">
<title>Node34</title>
<g id="a_Node000034"><a xlink:href="../../d4/d5c/vcommonsettings_8h.html" target="_top" xlink:title=" ">
<polygon fill="white" stroke="#666666" points="624.56,-129 511.56,-129 511.56,-110 624.56,-110 624.56,-129"/>
<text text-anchor="middle" x="568.06" y="-117" font-family="Helvetica,sans-Serif" font-size="10.00">vcommonsettings.h</text>
</a>
</g>
</g>
<!-- Node14&#45;&gt;Node34 -->
<g id="edge36_Node000014_Node000034" class="edge">
<title>Node14&#45;&gt;Node34</title>
<g id="a_edge36_Node000014_Node000034"><a xlink:title=" ">
<path fill="none" stroke="#63b8ff" d="M687.24,-164.98C663.88,-156.27 627.35,-142.63 600.89,-132.75"/>
<polygon fill="#63b8ff" stroke="#63b8ff" points="601.88,-129.39 591.29,-129.17 599.43,-135.95 601.88,-129.39"/>
</a>
</g>
</g>
<!-- Node21&#45;&gt;Node18 -->
<g id="edge24_Node000021_Node000018" class="edge">
<title>Node21&#45;&gt;Node18</title>
<g id="a_edge24_Node000021_Node000018"><a xlink:title=" ">
<path fill="none" stroke="#63b8ff" d="M892.73,-109.98C857.99,-100.54 802.03,-85.33 765.4,-75.38"/>
<polygon fill="#63b8ff" stroke="#63b8ff" points="766.18,-71.96 755.61,-72.72 764.34,-78.72 766.18,-71.96"/>
</a>
</g>
</g>
<!-- Node21&#45;&gt;Node19 -->
<g id="edge27_Node000021_Node000019" class="edge">
<title>Node21&#45;&gt;Node19</title>
<g id="a_edge27_Node000021_Node000019"><a xlink:title=" ">
<path fill="none" stroke="#63b8ff" d="M898.27,-109.86C873.57,-101.39 835.38,-87.78 803.06,-74 785.32,-66.44 782.11,-61.76 764.06,-55 722.26,-39.34 672.61,-26.72 638.76,-18.97"/>
<polygon fill="#63b8ff" stroke="#63b8ff" points="639.32,-15.51 628.8,-16.73 637.78,-22.34 639.32,-15.51"/>
</a>
</g>
</g>
<!-- Node22 -->
<g id="Node000022" class="node">
<title>Node22</title>
<g id="a_Node000022"><a xlink:title=" ">
<polygon fill="#e0e0e0" stroke="#999999" points="932.06,-74 812.06,-74 812.06,-55 932.06,-55 932.06,-74"/>
<text text-anchor="middle" x="872.06" y="-62" font-family="Helvetica,sans-Serif" font-size="10.00">qcompilerdetection.h</text>
</a>
</g>
</g>
<!-- Node21&#45;&gt;Node22 -->
<g id="edge22_Node000021_Node000022" class="edge">
<title>Node21&#45;&gt;Node22</title>
<g id="a_edge22_Node000021_Node000022"><a xlink:title=" ">
<path fill="none" stroke="#63b8ff" d="M915.47,-109.75C907.9,-102.03 896.68,-90.6 887.54,-81.28"/>
<polygon fill="#63b8ff" stroke="#63b8ff" points="889.99,-78.78 880.48,-74.09 884.99,-83.68 889.99,-78.78"/>
</a>
</g>
</g>
<!-- Node23 -->
<g id="Node000023" class="node">
<title>Node23</title>
<g id="a_Node000023"><a xlink:title=" ">
<polygon fill="#e0e0e0" stroke="#999999" points="1000.06,-74 950.06,-74 950.06,-55 1000.06,-55 1000.06,-74"/>
<text text-anchor="middle" x="975.06" y="-62" font-family="Helvetica,sans-Serif" font-size="10.00">QLineF</text>
</a>
</g>
</g>
<!-- Node21&#45;&gt;Node23 -->
<g id="edge23_Node000021_Node000023" class="edge">
<title>Node21&#45;&gt;Node23</title>
<g id="a_edge23_Node000021_Node000023"><a xlink:title=" ">
<path fill="none" stroke="#63b8ff" d="M932.48,-109.75C939.83,-102.11 950.69,-90.82 959.6,-81.56"/>
<polygon fill="#63b8ff" stroke="#63b8ff" points="962.38,-83.72 966.79,-74.09 957.34,-78.87 962.38,-83.72"/>
</a>
</g>
</g>
<!-- Node24 -->
<g id="Node000024" class="node">
<title>Node24</title>
<g id="a_Node000024"><a xlink:title=" ">
<polygon fill="#e0e0e0" stroke="#999999" points="684.06,-74 614.06,-74 614.06,-55 684.06,-55 684.06,-74"/>
<text text-anchor="middle" x="649.06" y="-62" font-family="Helvetica,sans-Serif" font-size="10.00">QStringList</text>
</a>
</g>
</g>
<!-- Node21&#45;&gt;Node24 -->
<g id="edge25_Node000021_Node000024" class="edge">
<title>Node21&#45;&gt;Node24</title>
<g id="a_edge25_Node000021_Node000024"><a xlink:title=" ">
<path fill="none" stroke="#63b8ff" d="M882.74,-110.55C838.6,-102.05 766.29,-88.13 694.28,-74.23"/>
<polygon fill="#63b8ff" stroke="#63b8ff" points="694.6,-70.73 684.12,-72.28 693.28,-77.61 694.6,-70.73"/>
</a>
</g>
</g>
<!-- Node25 -->
<g id="Node000025" class="node">
<title>Node25</title>
<g id="a_Node000025"><a xlink:title=" ">
<polygon fill="#e0e0e0" stroke="#999999" points="1047.56,-74 1018.56,-74 1018.56,-55 1047.56,-55 1047.56,-74"/>
<text text-anchor="middle" x="1033.06" y="-62" font-family="Helvetica,sans-Serif" font-size="10.00">Qt</text>
</a>
</g>
</g>
<!-- Node21&#45;&gt;Node25 -->
<g id="edge26_Node000021_Node000025" class="edge">
<title>Node21&#45;&gt;Node25</title>
<g id="a_edge26_Node000021_Node000025"><a xlink:title=" ">
<path fill="none" stroke="#63b8ff" d="M941.57,-109.98C959.88,-101.08 988.73,-87.05 1009.13,-77.13"/>
<polygon fill="#63b8ff" stroke="#63b8ff" points="1010.92,-80.16 1018.38,-72.63 1007.86,-73.86 1010.92,-80.16"/>
</a>
</g>
</g>
<!-- Node26 -->
<g id="Node000026" class="node">
<title>Node26</title>
<g id="a_Node000026"><a xlink:title=" ">
<polygon fill="#e0e0e0" stroke="#999999" points="1122.06,-74 1066.06,-74 1066.06,-55 1122.06,-55 1122.06,-74"/>
<text text-anchor="middle" x="1094.06" y="-62" font-family="Helvetica,sans-Serif" font-size="10.00">QPrinter</text>
</a>
</g>
</g>
<!-- Node21&#45;&gt;Node26 -->
<g id="edge28_Node000021_Node000026" class="edge">
<title>Node21&#45;&gt;Node26</title>
<g id="a_edge28_Node000021_Node000026"><a xlink:title=" ">
<path fill="none" stroke="#63b8ff" d="M951.37,-109.98C979.91,-101.09 1024.88,-87.07 1056.7,-77.15"/>
<polygon fill="#63b8ff" stroke="#63b8ff" points="1058.02,-80.4 1066.53,-74.08 1055.94,-73.72 1058.02,-80.4"/>
</a>
</g>
</g>
<!-- Node27 -->
<g id="Node000027" class="node">
<title>Node27</title>
<g id="a_Node000027"><a xlink:title=" ">
<polygon fill="#e0e0e0" stroke="#999999" points="1191.56,-74 1140.56,-74 1140.56,-55 1191.56,-55 1191.56,-74"/>
<text text-anchor="middle" x="1166.06" y="-62" font-family="Helvetica,sans-Serif" font-size="10.00">csignal</text>
</a>
</g>
</g>
<!-- Node21&#45;&gt;Node27 -->
<g id="edge29_Node000021_Node000027" class="edge">
<title>Node21&#45;&gt;Node27</title>
<g id="a_edge29_Node000021_Node000027"><a xlink:title=" ">
<path fill="none" stroke="#63b8ff" d="M965.37,-109.96C1005.16,-101.65 1067.29,-88.49 1130.69,-74.03"/>
<polygon fill="#63b8ff" stroke="#63b8ff" points="1131.49,-77.44 1140.46,-71.8 1129.93,-70.62 1131.49,-77.44"/>
</a>
</g>
</g>
<!-- Node28 -->
<g id="Node000028" class="node">
<title>Node28</title>
<g id="a_Node000028"><a xlink:href="../../d4/d82/debugbreak_8h.html" target="_top" xlink:title=" ">
<polygon fill="#fff0f0" stroke="red" points="1292.56,-74 1209.56,-74 1209.56,-55 1292.56,-55 1292.56,-74"/>
<text text-anchor="middle" x="1251.06" y="-62" font-family="Helvetica,sans-Serif" font-size="10.00">debugbreak.h</text>
</a>
</g>
</g>
<!-- Node21&#45;&gt;Node28 -->
<g id="edge30_Node000021_Node000028" class="edge">
<title>Node21&#45;&gt;Node28</title>
<g id="a_edge30_Node000021_Node000028"><a xlink:title=" ">
<path fill="none" stroke="#63b8ff" d="M965.22,-111.93C1017.21,-103.62 1109.72,-88.78 1199.26,-74.12"/>
<polygon fill="#63b8ff" stroke="#63b8ff" points="1200.01,-77.55 1209.31,-72.48 1198.88,-70.64 1200.01,-77.55"/>
</a>
</g>
</g>
<!-- Node30&#45;&gt;Node19 -->
<g id="edge35_Node000030_Node000019" class="edge">
<title>Node30&#45;&gt;Node19</title>
<g id="a_edge35_Node000030_Node000019"><a xlink:title=" ">
<path fill="none" stroke="#63b8ff" d="M232.29,-56.17C235.26,-55.77 238.19,-55.38 241.06,-55 356.58,-39.77 493.27,-23.17 559.35,-15.24"/>
<polygon fill="#63b8ff" stroke="#63b8ff" points="559.82,-18.71 569.33,-14.04 558.99,-11.76 559.82,-18.71"/>
</a>
</g>
</g>
<!-- Node31 -->
<g id="Node000031" class="node">
<title>Node31</title>
<g id="a_Node000031"><a xlink:title=" ">
<polygon fill="#e0e0e0" stroke="#999999" points="274.56,-19 225.56,-19 225.56,0 274.56,0 274.56,-19"/>
<text text-anchor="middle" x="250.06" y="-7" font-family="Helvetica,sans-Serif" font-size="10.00">QHash</text>
</a>
</g>
</g>
<!-- Node30&#45;&gt;Node31 -->
<g id="edge32_Node000030_Node000031" class="edge">
<title>Node30&#45;&gt;Node31</title>
<g id="a_edge32_Node000030_Node000031"><a xlink:title=" ">
<path fill="none" stroke="#63b8ff" d="M191.3,-54.98C201.85,-47 217.86,-34.88 230.5,-25.31"/>
<polygon fill="#63b8ff" stroke="#63b8ff" points="232.75,-28 238.61,-19.17 228.52,-22.42 232.75,-28"/>
</a>
</g>
</g>
<!-- Node32 -->
<g id="Node000032" class="node">
<title>Node32</title>
<g id="a_Node000032"><a xlink:title=" ">
<polygon fill="#e0e0e0" stroke="#999999" points="134.06,-19 82.06,-19 82.06,0 134.06,0 134.06,-19"/>
<text text-anchor="middle" x="108.06" y="-7" font-family="Helvetica,sans-Serif" font-size="10.00">QRectF</text>
</a>
</g>
</g>
<!-- Node30&#45;&gt;Node32 -->
<g id="edge33_Node000030_Node000032" class="edge">
<title>Node30&#45;&gt;Node32</title>
<g id="a_edge33_Node000030_Node000032"><a xlink:title=" ">
<path fill="none" stroke="#63b8ff" d="M168.49,-54.98C157.64,-47 141.18,-34.88 128.17,-25.31"/>
<polygon fill="#63b8ff" stroke="#63b8ff" points="129.96,-22.28 119.84,-19.17 125.81,-27.92 129.96,-22.28"/>
</a>
</g>
</g>
<!-- Node33 -->
<g id="Node000033" class="node">
<title>Node33</title>
<g id="a_Node000033"><a xlink:title=" ">
<polygon fill="#e0e0e0" stroke="#999999" points="207.56,-19 152.56,-19 152.56,0 207.56,0 207.56,-19"/>
<text text-anchor="middle" x="180.06" y="-7" font-family="Helvetica,sans-Serif" font-size="10.00">QVector</text>
</a>
</g>
</g>
<!-- Node30&#45;&gt;Node33 -->
<g id="edge34_Node000030_Node000033" class="edge">
<title>Node30&#45;&gt;Node33</title>
<g id="a_edge34_Node000030_Node000033"><a xlink:title=" ">
<path fill="none" stroke="#63b8ff" d="M180.06,-54.75C180.06,-47.8 180.06,-37.85 180.06,-29.13"/>
<polygon fill="#63b8ff" stroke="#63b8ff" points="183.56,-29.09 180.06,-19.09 176.56,-29.09 183.56,-29.09"/>
</a>
</g>
</g>
<!-- Node34&#45;&gt;Node15 -->
<g id="edge38_Node000034_Node000015" class="edge">
<title>Node34&#45;&gt;Node15</title>
<g id="a_edge38_Node000034_Node000015"><a xlink:title=" ">
<path fill="none" stroke="#63b8ff" d="M554.24,-109.98C540.9,-101.77 520.48,-89.18 504.75,-79.49"/>
<polygon fill="#63b8ff" stroke="#63b8ff" points="506.48,-76.44 496.13,-74.17 502.8,-82.4 506.48,-76.44"/>
</a>
</g>
</g>
<!-- Node34&#45;&gt;Node16 -->
<g id="edge39_Node000034_Node000016" class="edge">
<title>Node34&#45;&gt;Node16</title>
<g id="a_edge39_Node000034_Node000016"><a xlink:title=" ">
<path fill="none" stroke="#63b8ff" d="M568.06,-109.75C568.06,-102.8 568.06,-92.85 568.06,-84.13"/>
<polygon fill="#63b8ff" stroke="#63b8ff" points="571.56,-84.09 568.06,-74.09 564.56,-84.09 571.56,-84.09"/>
</a>
</g>
</g>
<!-- Node34&#45;&gt;Node17 -->
<g id="edge40_Node000034_Node000017" class="edge">
<title>Node34&#45;&gt;Node17</title>
<g id="a_edge40_Node000034_Node000017"><a xlink:title=" ">
<path fill="none" stroke="#63b8ff" d="M511.44,-113.64C412.16,-105 209.51,-86.8 120.28,-74"/>
<polygon fill="#63b8ff" stroke="#63b8ff" points="120.63,-70.51 110.23,-72.5 119.6,-77.44 120.63,-70.51"/>
</a>
</g>
</g>
<!-- Node34&#45;&gt;Node18 -->
<g id="edge42_Node000034_Node000018" class="edge">
<title>Node34&#45;&gt;Node18</title>
<g id="a_edge42_Node000034_Node000018"><a xlink:title=" ">
<path fill="none" stroke="#63b8ff" d="M593.92,-109.98C620.84,-101.13 663.18,-87.19 693.28,-77.28"/>
<polygon fill="#63b8ff" stroke="#63b8ff" points="694.58,-80.53 702.99,-74.08 692.39,-73.88 694.58,-80.53"/>
</a>
</g>
</g>
<!-- Node34&#45;&gt;Node19 -->
<g id="edge44_Node000034_Node000019" class="edge">
<title>Node34&#45;&gt;Node19</title>
<g id="a_edge44_Node000034_Node000019"><a xlink:title=" ">
<path fill="none" stroke="#63b8ff" d="M511.55,-111.75C464.33,-103.73 408.38,-87.16 433.06,-55 448.32,-35.11 515.06,-22.16 559.13,-15.61"/>
<polygon fill="#63b8ff" stroke="#63b8ff" points="559.85,-19.04 569.25,-14.15 558.86,-12.11 559.85,-19.04"/>
</a>
</g>
</g>
<!-- Node34&#45;&gt;Node24 -->
<g id="edge43_Node000034_Node000024" class="edge">
<title>Node34&#45;&gt;Node24</title>
<g id="a_edge43_Node000034_Node000024"><a xlink:title=" ">
<path fill="none" stroke="#63b8ff" d="M581.07,-109.98C593.51,-101.84 612.51,-89.41 627.27,-79.76"/>
<polygon fill="#63b8ff" stroke="#63b8ff" points="629.35,-82.57 635.81,-74.17 625.52,-76.72 629.35,-82.57"/>
</a>
</g>
</g>
<!-- Node34&#45;&gt;Node30 -->
<g id="edge45_Node000034_Node000030" class="edge">
<title>Node34&#45;&gt;Node30</title>
<g id="a_edge45_Node000034_Node000030"><a xlink:title=" ">
<path fill="none" stroke="#63b8ff" d="M511.34,-110.84C448.22,-102.3 342.9,-88.01 242.33,-74.17"/>
<polygon fill="#63b8ff" stroke="#63b8ff" points="242.68,-70.69 232.3,-72.79 241.73,-77.62 242.68,-70.69"/>
</a>
</g>
</g>
<!-- Node35 -->
<g id="Node000035" class="node">
<title>Node35</title>
<g id="a_Node000035"><a xlink:title=" ">
<polygon fill="#e0e0e0" stroke="#999999" points="323.56,-74 250.56,-74 250.56,-55 323.56,-55 323.56,-74"/>
<text text-anchor="middle" x="287.06" y="-62" font-family="Helvetica,sans-Serif" font-size="10.00">QByteArray</text>
</a>
</g>
</g>
<!-- Node34&#45;&gt;Node35 -->
<g id="edge37_Node000034_Node000035" class="edge">
<title>Node34&#45;&gt;Node35</title>
<g id="a_edge37_Node000034_Node000035"><a xlink:title=" ">
<path fill="none" stroke="#63b8ff" d="M522.91,-109.98C470.99,-100.19 386.16,-84.19 333.64,-74.29"/>
<polygon fill="#63b8ff" stroke="#63b8ff" points="334.06,-70.8 323.59,-72.39 332.77,-77.68 334.06,-70.8"/>
</a>
</g>
</g>
<!-- Node36 -->
<g id="Node000036" class="node">
<title>Node36</title>
<g id="a_Node000036"><a xlink:title=" ">
<polygon fill="#e0e0e0" stroke="#999999" points="386.06,-74 342.06,-74 342.06,-55 386.06,-55 386.06,-74"/>
<text text-anchor="middle" x="364.06" y="-62" font-family="Helvetica,sans-Serif" font-size="10.00">QSize</text>
</a>
</g>
</g>
<!-- Node34&#45;&gt;Node36 -->
<g id="edge41_Node000034_Node000036" class="edge">
<title>Node34&#45;&gt;Node36</title>
<g id="a_edge41_Node000034_Node000036"><a xlink:title=" ">
<path fill="none" stroke="#63b8ff" d="M535.28,-109.98C496.98,-100.03 434.03,-83.68 396.07,-73.82"/>
<polygon fill="#63b8ff" stroke="#63b8ff" points="396.62,-70.34 386.06,-71.22 394.86,-77.12 396.62,-70.34"/>
</a>
</g>
</g>
<!-- Node38 -->
<g id="Node000038" class="node">
<title>Node38</title>
<g id="a_Node000038"><a xlink:title=" ">
<polygon fill="#e0e0e0" stroke="#999999" points="1512.06,-129 1454.06,-129 1454.06,-110 1512.06,-110 1512.06,-129"/>
<text text-anchor="middle" x="1483.06" y="-117" font-family="Helvetica,sans-Serif" font-size="10.00">memory</text>
</a>
</g>
</g>
<!-- Node37&#45;&gt;Node38 -->
<g id="edge47_Node000037_Node000038" class="edge">
<title>Node37&#45;&gt;Node38</title>
<g id="a_edge47_Node000037_Node000038"><a xlink:title=" ">
<path fill="none" stroke="#63b8ff" d="M1483.06,-164.75C1483.06,-157.8 1483.06,-147.85 1483.06,-139.13"/>
<polygon fill="#63b8ff" stroke="#63b8ff" points="1486.56,-139.09 1483.06,-129.09 1479.56,-139.09 1486.56,-139.09"/>
</a>
</g>
</g>
<!-- Node39 -->
<g id="Node000039" class="node">
<title>Node39</title>
<g id="a_Node000039"><a xlink:title=" ">
<polygon fill="#e0e0e0" stroke="#999999" points="1577.56,-129 1530.56,-129 1530.56,-110 1577.56,-110 1577.56,-129"/>
<text text-anchor="middle" x="1554.06" y="-117" font-family="Helvetica,sans-Serif" font-size="10.00">vector</text>
</a>
</g>
</g>
<!-- Node37&#45;&gt;Node39 -->
<g id="edge48_Node000037_Node000039" class="edge">
<title>Node37&#45;&gt;Node39</title>
<g id="a_edge48_Node000037_Node000039"><a xlink:title=" ">
<path fill="none" stroke="#63b8ff" d="M1494.46,-164.98C1505.17,-157 1521.4,-144.88 1534.22,-135.31"/>
<polygon fill="#63b8ff" stroke="#63b8ff" points="1536.52,-137.96 1542.44,-129.17 1532.33,-132.35 1536.52,-137.96"/>
</a>
</g>
</g>
<!-- Node40 -->
<g id="Node000040" class="node">
<title>Node40</title>
<g id="a_Node000040"><a xlink:title=" ">
<polygon fill="#e0e0e0" stroke="#999999" points="1676.06,-129 1596.06,-129 1596.06,-110 1676.06,-110 1676.06,-129"/>
<text text-anchor="middle" x="1636.06" y="-117" font-family="Helvetica,sans-Serif" font-size="10.00">QTextStream</text>
</a>
</g>
</g>
<!-- Node37&#45;&gt;Node40 -->
<g id="edge49_Node000037_Node000040" class="edge">
<title>Node37&#45;&gt;Node40</title>
<g id="a_edge49_Node000037_Node000040"><a xlink:title=" ">
<path fill="none" stroke="#63b8ff" d="M1507.64,-164.98C1533.1,-156.16 1573.1,-142.31 1601.69,-132.41"/>
<polygon fill="#63b8ff" stroke="#63b8ff" points="1602.98,-135.66 1611.28,-129.08 1600.69,-129.05 1602.98,-135.66"/>
</a>
</g>
</g>
<!-- Node41 -->
<g id="Node000041" class="node">
<title>Node41</title>
<g id="a_Node000041"><a xlink:title=" ">
<polygon fill="#e0e0e0" stroke="#999999" points="1795.56,-129 1694.56,-129 1694.56,-110 1795.56,-110 1795.56,-129"/>
<text text-anchor="middle" x="1745.06" y="-117" font-family="Helvetica,sans-Serif" font-size="10.00">QCoreApplication</text>
</a>
</g>
</g>
<!-- Node37&#45;&gt;Node41 -->
<g id="edge50_Node000037_Node000041" class="edge">
<title>Node37&#45;&gt;Node41</title>
<g id="a_edge50_Node000037_Node000041"><a xlink:title=" ">
<path fill="none" stroke="#63b8ff" d="M1525.15,-164.98C1570.76,-155.76 1643.58,-141.03 1692.81,-131.07"/>
<polygon fill="#63b8ff" stroke="#63b8ff" points="1693.52,-134.5 1702.63,-129.08 1692.14,-127.63 1693.52,-134.5"/>
</a>
</g>
</g>
<!-- Node42 -->
<g id="Node000042" class="node">
<title>Node42</title>
<g id="a_Node000042"><a xlink:title=" ">
<polygon fill="#e0e0e0" stroke="#999999" points="1938.56,-129 1813.56,-129 1813.56,-110 1938.56,-110 1938.56,-129"/>
<text text-anchor="middle" x="1876.06" y="-117" font-family="Helvetica,sans-Serif" font-size="10.00">QCommandLineParser</text>
</a>
</g>
</g>
<!-- Node37&#45;&gt;Node42 -->
<g id="edge51_Node000037_Node000042" class="edge">
<title>Node37&#45;&gt;Node42</title>
<g id="a_edge51_Node000037_Node000042"><a xlink:title=" ">
<path fill="none" stroke="#63b8ff" d="M1525.06,-166.38C1528.1,-165.9 1531.13,-165.43 1534.06,-165 1584.43,-157.53 1718.83,-140.34 1803.37,-129.65"/>
<polygon fill="#63b8ff" stroke="#63b8ff" points="1803.94,-133.1 1813.43,-128.38 1803.07,-126.16 1803.94,-133.1"/>
</a>
</g>
</g>
<!-- Node43 -->
<g id="Node000043" class="node">
<title>Node43</title>
<g id="a_Node000043"><a xlink:href="../../d2/d2b/dialoglayoutsettings_8h.html" target="_top" xlink:title=" ">
<polygon fill="#fff0f0" stroke="red" points="1435.56,-129 1262.56,-129 1262.56,-110 1435.56,-110 1435.56,-129"/>
<text text-anchor="middle" x="1349.06" y="-117" font-family="Helvetica,sans-Serif" font-size="10.00">../dialogs/dialoglayoutsettings.h</text>
</a>
</g>
</g>
<!-- Node37&#45;&gt;Node43 -->
<g id="edge52_Node000037_Node000043" class="edge">
<title>Node37&#45;&gt;Node43</title>
<g id="a_edge52_Node000037_Node000043"><a xlink:title=" ">
<path fill="none" stroke="#63b8ff" d="M1461.53,-164.98C1439.58,-156.3 1405.32,-142.75 1380.37,-132.88"/>
<polygon fill="#63b8ff" stroke="#63b8ff" points="1381.56,-129.59 1370.98,-129.17 1378.99,-136.1 1381.56,-129.59"/>
</a>
</g>
</g>
<!-- Node48 -->
<g id="Node000048" class="node">
<title>Node48</title>
<g id="a_Node000048"><a xlink:title=" ">
<polygon fill="#e0e0e0" stroke="#999999" points="2069.56,-129 1956.56,-129 1956.56,-110 2069.56,-110 2069.56,-129"/>
<text text-anchor="middle" x="2013.06" y="-117" font-family="Helvetica,sans-Serif" font-size="10.00">../vmisc/vsysexits.h</text>
</a>
</g>
</g>
<!-- Node37&#45;&gt;Node48 -->
<g id="edge55_Node000037_Node000048" class="edge">
<title>Node37&#45;&gt;Node48</title>
<g id="a_edge55_Node000037_Node000048"><a xlink:title=" ">
<path fill="none" stroke="#63b8ff" d="M1525.32,-166.19C1528.27,-165.76 1531.21,-165.36 1534.06,-165 1714.07,-142.21 1762.75,-148.74 1946.37,-129.14"/>
<polygon fill="#63b8ff" stroke="#63b8ff" points="1946.79,-132.61 1956.35,-128.06 1946.04,-125.65 1946.79,-132.61"/>
</a>
</g>
</g>
<!-- Node43&#45;&gt;Node9 -->
<g id="edge53_Node000043_Node000009" class="edge">
<title>Node43&#45;&gt;Node9</title>
<g id="a_edge53_Node000043_Node000009"><a xlink:title=" ">
<path fill="none" stroke="#63b8ff" d="M1349.06,-109.75C1349.06,-102.8 1349.06,-92.85 1349.06,-84.13"/>
<polygon fill="#63b8ff" stroke="#63b8ff" points="1352.56,-84.09 1349.06,-74.09 1345.56,-84.09 1352.56,-84.09"/>
</a>
</g>
</g>
<!-- Node43&#45;&gt;Node20 -->
<g id="edge54_Node000043_Node000020" class="edge">
<title>Node43&#45;&gt;Node20</title>
<g id="a_edge54_Node000043_Node000020"><a xlink:title=" ">
<path fill="none" stroke="#63b8ff" d="M1369.46,-109.98C1390.08,-101.38 1422.16,-87.99 1445.75,-78.15"/>
<polygon fill="#63b8ff" stroke="#63b8ff" points="1447.4,-81.25 1455.28,-74.17 1444.7,-74.79 1447.4,-81.25"/>
</a>
</g>
</g>
</g>
</svg>
