<?xml version="1.0" encoding="UTF-8" standalone="no"?>
<!DOCTYPE svg PUBLIC "-//W3C//DTD SVG 1.1//EN"
 "http://www.w3.org/Graphics/SVG/1.1/DTD/svg11.dtd">
<!-- Generated by graphviz version 2.43.0 (0)
 -->
<!-- Title: src/libs/vtools/dialogs/tools/dialogsinglepoint.cpp Pages: 1 -->
<svg width="2993pt" height="214pt"
 viewBox="0.00 0.00 2992.50 214.00" xmlns="http://www.w3.org/2000/svg" xmlns:xlink="http://www.w3.org/1999/xlink">
<g id="graph0" class="graph" transform="scale(1 1) rotate(0) translate(4 210)">
<title>src/libs/vtools/dialogs/tools/dialogsinglepoint.cpp</title>
<!-- Node1 -->
<g id="Node000001" class="node">
<title>Node1</title>
<g id="a_Node000001"><a xlink:title=" ">
<polygon fill="#999999" stroke="#666666" points="1313.5,-206 1162.5,-206 1162.5,-176 1313.5,-176 1313.5,-206"/>
<text text-anchor="start" x="1170.5" y="-194" font-family="Helvetica,sans-Serif" font-size="10.00">src/libs/vtools/dialogs</text>
<text text-anchor="middle" x="1238" y="-183" font-family="Helvetica,sans-Serif" font-size="10.00">/tools/dialogsinglepoint.cpp</text>
</a>
</g>
</g>
<!-- Node2 -->
<g id="Node000002" class="node">
<title>Node2</title>
<g id="a_Node000002"><a xlink:href="../../d9/d14/dialogsinglepoint_8h.html" target="_top" xlink:title=" ">
<polygon fill="white" stroke="#666666" points="411,-140 301,-140 301,-121 411,-121 411,-140"/>
<text text-anchor="middle" x="356" y="-128" font-family="Helvetica,sans-Serif" font-size="10.00">dialogsinglepoint.h</text>
</a>
</g>
</g>
<!-- Node1&#45;&gt;Node2 -->
<g id="edge1_Node000001_Node000002" class="edge">
<title>Node1&#45;&gt;Node2</title>
<g id="a_edge1_Node000001_Node000002"><a xlink:title=" ">
<path fill="none" stroke="#63b8ff" d="M1162.42,-184.99C992.18,-173.7 581.1,-146.43 421.18,-135.82"/>
<polygon fill="#63b8ff" stroke="#63b8ff" points="421.23,-132.32 411.02,-135.15 420.76,-139.3 421.23,-132.32"/>
</a>
</g>
</g>
<!-- Node9 -->
<g id="Node000009" class="node">
<title>Node9</title>
<g id="a_Node000009"><a xlink:href="../../d1/d30/dialogtool_8h.html" target="_top" xlink:title=" ">
<polygon fill="white" stroke="#666666" points="1210,-85 1136,-85 1136,-66 1210,-66 1210,-85"/>
<text text-anchor="middle" x="1173" y="-73" font-family="Helvetica,sans-Serif" font-size="10.00">dialogtool.h</text>
</a>
</g>
</g>
<!-- Node1&#45;&gt;Node9 -->
<g id="edge41_Node000001_Node000009" class="edge">
<title>Node1&#45;&gt;Node9</title>
<g id="a_edge41_Node000001_Node000009"><a xlink:title=" ">
<path fill="none" stroke="#63b8ff" d="M1229.77,-175.63C1217.86,-154.84 1195.87,-116.44 1183.03,-94.02"/>
<polygon fill="#63b8ff" stroke="#63b8ff" points="1186.01,-92.17 1178,-85.23 1179.93,-95.65 1186.01,-92.17"/>
</a>
</g>
</g>
<!-- Node15 -->
<g id="Node000015" class="node">
<title>Node15</title>
<g id="a_Node000015"><a xlink:title=" ">
<polygon fill="#e0e0e0" stroke="#999999" points="521.5,-24.5 458.5,-24.5 458.5,-5.5 521.5,-5.5 521.5,-24.5"/>
<text text-anchor="middle" x="490" y="-12.5" font-family="Helvetica,sans-Serif" font-size="10.00">QLineEdit</text>
</a>
</g>
</g>
<!-- Node1&#45;&gt;Node15 -->
<g id="edge38_Node000001_Node000015" class="edge">
<title>Node1&#45;&gt;Node15</title>
<g id="a_edge38_Node000001_Node000015"><a xlink:title=" ">
<path fill="none" stroke="#63b8ff" d="M1162.88,-175.96C1032.8,-151.01 757.72,-95.35 530,-30 527.59,-29.31 525.11,-28.55 522.62,-27.76"/>
<polygon fill="#63b8ff" stroke="#63b8ff" points="523.72,-24.44 513.12,-24.6 521.5,-31.08 523.72,-24.44"/>
</a>
</g>
</g>
<!-- Node28 -->
<g id="Node000028" class="node">
<title>Node28</title>
<g id="a_Node000028"><a xlink:title=" ">
<polygon fill="#e0e0e0" stroke="#999999" points="2799,-24.5 2717,-24.5 2717,-5.5 2799,-5.5 2799,-24.5"/>
<text text-anchor="middle" x="2758" y="-12.5" font-family="Helvetica,sans-Serif" font-size="10.00">../vmisc/def.h</text>
</a>
</g>
</g>
<!-- Node1&#45;&gt;Node28 -->
<g id="edge39_Node000001_Node000028" class="edge">
<title>Node1&#45;&gt;Node28</title>
<g id="a_edge39_Node000001_Node000028"><a xlink:title=" ">
<path fill="none" stroke="#63b8ff" d="M1235.72,-175.72C1232.43,-149.35 1229.86,-93.19 1262,-66 1323.34,-14.09 2628.53,-41.93 2708,-30 2712.76,-29.29 2717.72,-28.26 2722.57,-27.08"/>
<polygon fill="#63b8ff" stroke="#63b8ff" points="2723.54,-30.45 2732.31,-24.51 2721.75,-23.68 2723.54,-30.45"/>
</a>
</g>
</g>
<!-- Node30 -->
<g id="Node000030" class="node">
<title>Node30</title>
<g id="a_Node000030"><a xlink:title=" ">
<polygon fill="#e0e0e0" stroke="#999999" points="2984.5,-24.5 2817.5,-24.5 2817.5,-5.5 2984.5,-5.5 2984.5,-24.5"/>
<text text-anchor="middle" x="2901" y="-12.5" font-family="Helvetica,sans-Serif" font-size="10.00">../vmisc/vabstractapplication.h</text>
</a>
</g>
</g>
<!-- Node1&#45;&gt;Node30 -->
<g id="edge40_Node000001_Node000030" class="edge">
<title>Node1&#45;&gt;Node30</title>
<g id="a_edge40_Node000001_Node000030"><a xlink:title=" ">
<path fill="none" stroke="#63b8ff" d="M1245,-175.92C1254.04,-159.47 1271.45,-132.97 1295,-121 1595.27,31.61 2473.02,-65.22 2808,-30 2818.34,-28.91 2829.28,-27.5 2839.9,-25.99"/>
<polygon fill="#63b8ff" stroke="#63b8ff" points="2840.55,-29.43 2849.94,-24.53 2839.54,-22.51 2840.55,-29.43"/>
</a>
</g>
</g>
<!-- Node33 -->
<g id="Node000033" class="node">
<title>Node33</title>
<g id="a_Node000033"><a xlink:title=" ">
<polygon fill="#e0e0e0" stroke="#999999" points="1402,-140 1304,-140 1304,-121 1402,-121 1402,-140"/>
<text text-anchor="middle" x="1353" y="-128" font-family="Helvetica,sans-Serif" font-size="10.00">QDoubleSpinBox</text>
</a>
</g>
</g>
<!-- Node1&#45;&gt;Node33 -->
<g id="edge37_Node000001_Node000033" class="edge">
<title>Node1&#45;&gt;Node33</title>
<g id="a_edge37_Node000001_Node000033"><a xlink:title=" ">
<path fill="none" stroke="#63b8ff" d="M1265.55,-175.99C1284.22,-166.49 1308.74,-154.02 1327.06,-144.69"/>
<polygon fill="#63b8ff" stroke="#63b8ff" points="1328.69,-147.79 1336.02,-140.14 1325.52,-141.55 1328.69,-147.79"/>
</a>
</g>
</g>
<!-- Node34 -->
<g id="Node000034" class="node">
<title>Node34</title>
<g id="a_Node000034"><a xlink:title=" ">
<polygon fill="#e0e0e0" stroke="#999999" points="1544,-140 1420,-140 1420,-121 1544,-121 1544,-140"/>
<text text-anchor="middle" x="1482" y="-128" font-family="Helvetica,sans-Serif" font-size="10.00">ui_dialogsinglepoint.h</text>
</a>
</g>
</g>
<!-- Node1&#45;&gt;Node34 -->
<g id="edge42_Node000001_Node000034" class="edge">
<title>Node1&#45;&gt;Node34</title>
<g id="a_edge42_Node000001_Node000034"><a xlink:title=" ">
<path fill="none" stroke="#63b8ff" d="M1296.44,-175.99C1339.37,-165.7 1396.87,-151.91 1436.42,-142.43"/>
<polygon fill="#63b8ff" stroke="#63b8ff" points="1437.41,-145.79 1446.32,-140.05 1435.78,-138.98 1437.41,-145.79"/>
</a>
</g>
</g>
<!-- Node3 -->
<g id="Node000003" class="node">
<title>Node3</title>
<g id="a_Node000003"><a xlink:title=" ">
<polygon fill="#e0e0e0" stroke="#999999" points="120,-24.5 0,-24.5 0,-5.5 120,-5.5 120,-24.5"/>
<text text-anchor="middle" x="60" y="-12.5" font-family="Helvetica,sans-Serif" font-size="10.00">qcompilerdetection.h</text>
</a>
</g>
</g>
<!-- Node2&#45;&gt;Node3 -->
<g id="edge2_Node000002_Node000003" class="edge">
<title>Node2&#45;&gt;Node3</title>
<g id="a_edge2_Node000002_Node000003"><a xlink:title=" ">
<path fill="none" stroke="#63b8ff" d="M333.75,-120.97C281.79,-101.04 152.29,-51.39 91.92,-28.24"/>
<polygon fill="#63b8ff" stroke="#63b8ff" points="93.1,-24.94 82.51,-24.63 90.59,-31.48 93.1,-24.94"/>
</a>
</g>
</g>
<!-- Node4 -->
<g id="Node000004" class="node">
<title>Node4</title>
<g id="a_Node000004"><a xlink:title=" ">
<polygon fill="#e0e0e0" stroke="#999999" points="218,-24.5 138,-24.5 138,-5.5 218,-5.5 218,-24.5"/>
<text text-anchor="middle" x="178" y="-12.5" font-family="Helvetica,sans-Serif" font-size="10.00">QMetaObject</text>
</a>
</g>
</g>
<!-- Node2&#45;&gt;Node4 -->
<g id="edge3_Node000002_Node000004" class="edge">
<title>Node2&#45;&gt;Node4</title>
<g id="a_edge3_Node000002_Node000004"><a xlink:title=" ">
<path fill="none" stroke="#63b8ff" d="M342.62,-120.97C312.21,-101.58 237.64,-54.03 200.2,-30.16"/>
<polygon fill="#63b8ff" stroke="#63b8ff" points="201.85,-27.06 191.53,-24.63 198.08,-32.96 201.85,-27.06"/>
</a>
</g>
</g>
<!-- Node5 -->
<g id="Node000005" class="node">
<title>Node5</title>
<g id="a_Node000005"><a xlink:title=" ">
<polygon fill="#e0e0e0" stroke="#999999" points="292,-24.5 236,-24.5 236,-5.5 292,-5.5 292,-24.5"/>
<text text-anchor="middle" x="264" y="-12.5" font-family="Helvetica,sans-Serif" font-size="10.00">QObject</text>
</a>
</g>
</g>
<!-- Node2&#45;&gt;Node5 -->
<g id="edge4_Node000002_Node000005" class="edge">
<title>Node2&#45;&gt;Node5</title>
<g id="a_edge4_Node000002_Node000005"><a xlink:title=" ">
<path fill="none" stroke="#63b8ff" d="M349.09,-120.97C333.9,-102.24 297.41,-57.22 277.51,-32.66"/>
<polygon fill="#63b8ff" stroke="#63b8ff" points="280.01,-30.19 271,-24.63 274.57,-34.6 280.01,-30.19"/>
</a>
</g>
</g>
<!-- Node6 -->
<g id="Node000006" class="node">
<title>Node6</title>
<g id="a_Node000006"><a xlink:title=" ">
<polygon fill="#e0e0e0" stroke="#999999" points="458.5,-85 403.5,-85 403.5,-66 458.5,-66 458.5,-85"/>
<text text-anchor="middle" x="431" y="-73" font-family="Helvetica,sans-Serif" font-size="10.00">QPointF</text>
</a>
</g>
</g>
<!-- Node2&#45;&gt;Node6 -->
<g id="edge5_Node000002_Node000006" class="edge">
<title>Node2&#45;&gt;Node6</title>
<g id="a_edge5_Node000002_Node000006"><a xlink:title=" ">
<path fill="none" stroke="#63b8ff" d="M368.05,-120.98C379.46,-112.92 396.83,-100.65 410.43,-91.03"/>
<polygon fill="#63b8ff" stroke="#63b8ff" points="412.58,-93.8 418.73,-85.17 408.54,-88.08 412.58,-93.8"/>
</a>
</g>
</g>
<!-- Node7 -->
<g id="Node000007" class="node">
<title>Node7</title>
<g id="a_Node000007"><a xlink:title=" ">
<polygon fill="#e0e0e0" stroke="#999999" points="363.5,-24.5 310.5,-24.5 310.5,-5.5 363.5,-5.5 363.5,-24.5"/>
<text text-anchor="middle" x="337" y="-12.5" font-family="Helvetica,sans-Serif" font-size="10.00">QString</text>
</a>
</g>
</g>
<!-- Node2&#45;&gt;Node7 -->
<g id="edge6_Node000002_Node000007" class="edge">
<title>Node2&#45;&gt;Node7</title>
<g id="a_edge6_Node000002_Node000007"><a xlink:title=" ">
<path fill="none" stroke="#63b8ff" d="M354.57,-120.97C351.52,-102.73 344.29,-59.57 340.12,-34.64"/>
<polygon fill="#63b8ff" stroke="#63b8ff" points="343.55,-33.91 338.44,-24.63 336.64,-35.07 343.55,-33.91"/>
</a>
</g>
</g>
<!-- Node8 -->
<g id="Node000008" class="node">
<title>Node8</title>
<g id="a_Node000008"><a xlink:title=" ">
<polygon fill="#e0e0e0" stroke="#999999" points="440.5,-24.5 381.5,-24.5 381.5,-5.5 440.5,-5.5 440.5,-24.5"/>
<text text-anchor="middle" x="411" y="-12.5" font-family="Helvetica,sans-Serif" font-size="10.00">QtGlobal</text>
</a>
</g>
</g>
<!-- Node2&#45;&gt;Node8 -->
<g id="edge7_Node000002_Node000008" class="edge">
<title>Node2&#45;&gt;Node8</title>
<g id="a_edge7_Node000002_Node000008"><a xlink:title=" ">
<path fill="none" stroke="#63b8ff" d="M360.13,-120.97C369.09,-102.48 390.45,-58.4 402.45,-33.64"/>
<polygon fill="#63b8ff" stroke="#63b8ff" points="405.61,-35.16 406.82,-24.63 399.31,-32.1 405.61,-35.16"/>
</a>
</g>
</g>
<!-- Node2&#45;&gt;Node9 -->
<g id="edge8_Node000002_Node000009" class="edge">
<title>Node2&#45;&gt;Node9</title>
<g id="a_edge8_Node000002_Node000009"><a xlink:title=" ">
<path fill="none" stroke="#63b8ff" d="M411.19,-125.92C562.79,-116.08 983.72,-88.78 1125.61,-79.57"/>
<polygon fill="#63b8ff" stroke="#63b8ff" points="1125.97,-83.06 1135.73,-78.92 1125.52,-76.07 1125.97,-83.06"/>
</a>
</g>
</g>
<!-- Node9&#45;&gt;Node3 -->
<g id="edge9_Node000009_Node000003" class="edge">
<title>Node9&#45;&gt;Node3</title>
<g id="a_edge9_Node000009_Node000003"><a xlink:title=" ">
<path fill="none" stroke="#63b8ff" d="M1135.98,-73.71C974.4,-70.12 330.01,-54.52 129,-30 121.74,-29.11 114.11,-27.88 106.67,-26.5"/>
<polygon fill="#63b8ff" stroke="#63b8ff" points="107.19,-23.04 96.71,-24.56 105.86,-29.91 107.19,-23.04"/>
</a>
</g>
</g>
<!-- Node9&#45;&gt;Node4 -->
<g id="edge20_Node000009_Node000004" class="edge">
<title>Node9&#45;&gt;Node4</title>
<g id="a_edge20_Node000009_Node000004"><a xlink:title=" ">
<path fill="none" stroke="#63b8ff" d="M1135.88,-73.9C983.64,-71.26 406.69,-59.49 227,-30 222.56,-29.27 217.95,-28.28 213.41,-27.16"/>
<polygon fill="#63b8ff" stroke="#63b8ff" points="214.25,-23.76 203.68,-24.55 212.43,-30.52 214.25,-23.76"/>
</a>
</g>
</g>
<!-- Node9&#45;&gt;Node5 -->
<g id="edge21_Node000009_Node000005" class="edge">
<title>Node9&#45;&gt;Node5</title>
<g id="a_edge21_Node000009_Node000005"><a xlink:title=" ">
<path fill="none" stroke="#63b8ff" d="M1135.8,-74.13C990.9,-72.47 464.21,-64.17 301,-30 298.32,-29.44 295.58,-28.71 292.86,-27.89"/>
<polygon fill="#63b8ff" stroke="#63b8ff" points="293.84,-24.52 283.25,-24.57 291.56,-31.14 293.84,-24.52"/>
</a>
</g>
</g>
<!-- Node9&#45;&gt;Node7 -->
<g id="edge25_Node000009_Node000007" class="edge">
<title>Node9&#45;&gt;Node7</title>
<g id="a_edge25_Node000009_Node000007"><a xlink:title=" ">
<path fill="none" stroke="#63b8ff" d="M1135.56,-74.03C997.95,-72.04 520.39,-62.87 372,-30 369.63,-29.47 367.21,-28.81 364.8,-28.05"/>
<polygon fill="#63b8ff" stroke="#63b8ff" points="365.77,-24.68 355.17,-24.57 363.38,-31.26 365.77,-24.68"/>
</a>
</g>
</g>
<!-- Node9&#45;&gt;Node8 -->
<g id="edge27_Node000009_Node000008" class="edge">
<title>Node9&#45;&gt;Node8</title>
<g id="a_edge27_Node000009_Node000008"><a xlink:title=" ">
<path fill="none" stroke="#63b8ff" d="M1135.69,-73.64C1007,-70.45 582.25,-58.01 449,-30 446.16,-29.4 443.25,-28.64 440.37,-27.77"/>
<polygon fill="#63b8ff" stroke="#63b8ff" points="441.39,-24.42 430.79,-24.53 439.15,-31.05 441.39,-24.42"/>
</a>
</g>
</g>
<!-- Node10 -->
<g id="Node000010" class="node">
<title>Node10</title>
<g id="a_Node000010"><a xlink:title=" ">
<polygon fill="#e0e0e0" stroke="#999999" points="2460.5,-24.5 2387.5,-24.5 2387.5,-5.5 2460.5,-5.5 2460.5,-24.5"/>
<text text-anchor="middle" x="2424" y="-12.5" font-family="Helvetica,sans-Serif" font-size="10.00">QCheckBox</text>
</a>
</g>
</g>
<!-- Node9&#45;&gt;Node10 -->
<g id="edge10_Node000009_Node000010" class="edge">
<title>Node9&#45;&gt;Node10</title>
<g id="a_edge10_Node000009_Node000010"><a xlink:title=" ">
<path fill="none" stroke="#63b8ff" d="M1210.25,-67.7C1214.87,-67.03 1219.53,-66.44 1224,-66 1734.67,-15.71 1871.69,-113.43 2378,-30 2381.96,-29.35 2386.06,-28.44 2390.11,-27.41"/>
<polygon fill="#63b8ff" stroke="#63b8ff" points="2391.26,-30.72 2399.93,-24.63 2389.36,-23.98 2391.26,-30.72"/>
</a>
</g>
</g>
<!-- Node11 -->
<g id="Node000011" class="node">
<title>Node11</title>
<g id="a_Node000011"><a xlink:title=" ">
<polygon fill="#e0e0e0" stroke="#999999" points="2529,-24.5 2479,-24.5 2479,-5.5 2529,-5.5 2529,-24.5"/>
<text text-anchor="middle" x="2504" y="-12.5" font-family="Helvetica,sans-Serif" font-size="10.00">QColor</text>
</a>
</g>
</g>
<!-- Node9&#45;&gt;Node11 -->
<g id="edge11_Node000009_Node000011" class="edge">
<title>Node9&#45;&gt;Node11</title>
<g id="a_edge11_Node000009_Node000011"><a xlink:title=" ">
<path fill="none" stroke="#63b8ff" d="M1210.25,-67.69C1214.87,-67.02 1219.53,-66.43 1224,-66 1499.7,-39.17 2199.07,-87.68 2470,-30 2472.37,-29.5 2474.79,-28.83 2477.18,-28.07"/>
<polygon fill="#63b8ff" stroke="#63b8ff" points="2478.59,-31.28 2486.74,-24.52 2476.15,-24.72 2478.59,-31.28"/>
</a>
</g>
</g>
<!-- Node12 -->
<g id="Node000012" class="node">
<title>Node12</title>
<g id="a_Node000012"><a xlink:title=" ">
<polygon fill="#e0e0e0" stroke="#999999" points="2624.5,-24.5 2547.5,-24.5 2547.5,-5.5 2624.5,-5.5 2624.5,-24.5"/>
<text text-anchor="middle" x="2586" y="-12.5" font-family="Helvetica,sans-Serif" font-size="10.00">QComboBox</text>
</a>
</g>
</g>
<!-- Node9&#45;&gt;Node12 -->
<g id="edge12_Node000009_Node000012" class="edge">
<title>Node9&#45;&gt;Node12</title>
<g id="a_edge12_Node000009_Node000012"><a xlink:title=" ">
<path fill="none" stroke="#63b8ff" d="M1210.25,-67.68C1214.86,-67.02 1219.53,-66.43 1224,-66 1514.76,-37.92 2249.42,-75.27 2538,-30 2542.24,-29.33 2546.64,-28.4 2550.98,-27.33"/>
<polygon fill="#63b8ff" stroke="#63b8ff" points="2552.13,-30.64 2560.87,-24.65 2550.3,-23.89 2552.13,-30.64"/>
</a>
</g>
</g>
<!-- Node13 -->
<g id="Node000013" class="node">
<title>Node13</title>
<g id="a_Node000013"><a xlink:title=" ">
<polygon fill="#e0e0e0" stroke="#999999" points="2699,-24.5 2643,-24.5 2643,-5.5 2699,-5.5 2699,-24.5"/>
<text text-anchor="middle" x="2671" y="-12.5" font-family="Helvetica,sans-Serif" font-size="10.00">QDialog</text>
</a>
</g>
</g>
<!-- Node9&#45;&gt;Node13 -->
<g id="edge13_Node000009_Node000013" class="edge">
<title>Node9&#45;&gt;Node13</title>
<g id="a_edge13_Node000009_Node000013"><a xlink:title=" ">
<path fill="none" stroke="#63b8ff" d="M1210.24,-67.68C1214.86,-67.01 1219.53,-66.43 1224,-66 1536.01,-36.16 2326.42,-90.31 2634,-30 2636.84,-29.44 2639.75,-28.69 2642.63,-27.82"/>
<polygon fill="#63b8ff" stroke="#63b8ff" points="2643.85,-31.1 2652.16,-24.53 2641.56,-24.49 2643.85,-31.1"/>
</a>
</g>
</g>
<!-- Node14 -->
<g id="Node000014" class="node">
<title>Node14</title>
<g id="a_Node000014"><a xlink:title=" ">
<polygon fill="#e0e0e0" stroke="#999999" points="646.5,-24.5 539.5,-24.5 539.5,-5.5 646.5,-5.5 646.5,-24.5"/>
<text text-anchor="middle" x="593" y="-12.5" font-family="Helvetica,sans-Serif" font-size="10.00">QDialogButtonBox</text>
</a>
</g>
</g>
<!-- Node9&#45;&gt;Node14 -->
<g id="edge14_Node000009_Node000014" class="edge">
<title>Node9&#45;&gt;Node14</title>
<g id="a_edge14_Node000009_Node000014"><a xlink:title=" ">
<path fill="none" stroke="#63b8ff" d="M1135.73,-73.04C1050.29,-69.32 833.84,-57.74 655,-30 649.13,-29.09 642.99,-27.94 636.95,-26.7"/>
<polygon fill="#63b8ff" stroke="#63b8ff" points="637.46,-23.23 626.95,-24.54 635.99,-30.07 637.46,-23.23"/>
</a>
</g>
</g>
<!-- Node9&#45;&gt;Node15 -->
<g id="edge15_Node000009_Node000015" class="edge">
<title>Node9&#45;&gt;Node15</title>
<g id="a_edge15_Node000009_Node000015"><a xlink:title=" ">
<path fill="none" stroke="#63b8ff" d="M1135.81,-73.23C1016.94,-68.98 647.14,-54.1 530,-30 527,-29.38 523.91,-28.6 520.85,-27.71"/>
<polygon fill="#63b8ff" stroke="#63b8ff" points="521.88,-24.36 511.29,-24.63 519.74,-31.03 521.88,-24.36"/>
</a>
</g>
</g>
<!-- Node16 -->
<g id="Node000016" class="node">
<title>Node16</title>
<g id="a_Node000016"><a xlink:title=" ">
<polygon fill="#e0e0e0" stroke="#999999" points="705.5,-24.5 664.5,-24.5 664.5,-5.5 705.5,-5.5 705.5,-24.5"/>
<text text-anchor="middle" x="685" y="-12.5" font-family="Helvetica,sans-Serif" font-size="10.00">QList</text>
</a>
</g>
</g>
<!-- Node9&#45;&gt;Node16 -->
<g id="edge16_Node000009_Node000016" class="edge">
<title>Node9&#45;&gt;Node16</title>
<g id="a_edge16_Node000009_Node000016"><a xlink:title=" ">
<path fill="none" stroke="#63b8ff" d="M1135.72,-75.11C1056.68,-75.48 867.01,-71.54 715,-30 713.51,-29.59 712,-29.12 710.5,-28.59"/>
<polygon fill="#63b8ff" stroke="#63b8ff" points="711.39,-25.17 700.81,-24.6 708.72,-31.64 711.39,-25.17"/>
</a>
</g>
</g>
<!-- Node17 -->
<g id="Node000017" class="node">
<title>Node17</title>
<g id="a_Node000017"><a xlink:title=" ">
<polygon fill="#e0e0e0" stroke="#999999" points="800,-24.5 724,-24.5 724,-5.5 800,-5.5 800,-24.5"/>
<text text-anchor="middle" x="762" y="-12.5" font-family="Helvetica,sans-Serif" font-size="10.00">QListWidget</text>
</a>
</g>
</g>
<!-- Node9&#45;&gt;Node17 -->
<g id="edge17_Node000009_Node000017" class="edge">
<title>Node9&#45;&gt;Node17</title>
<g id="a_edge17_Node000009_Node000017"><a xlink:title=" ">
<path fill="none" stroke="#63b8ff" d="M1135.98,-72.04C1069.81,-67.18 927.1,-54.63 809,-30 805.37,-29.24 801.61,-28.34 797.88,-27.36"/>
<polygon fill="#63b8ff" stroke="#63b8ff" points="798.72,-23.96 788.15,-24.64 796.84,-30.7 798.72,-23.96"/>
</a>
</g>
</g>
<!-- Node18 -->
<g id="Node000018" class="node">
<title>Node18</title>
<g id="a_Node000018"><a xlink:title=" ">
<polygon fill="#e0e0e0" stroke="#999999" points="874,-24.5 818,-24.5 818,-5.5 874,-5.5 874,-24.5"/>
<text text-anchor="middle" x="846" y="-12.5" font-family="Helvetica,sans-Serif" font-size="10.00">QLocale</text>
</a>
</g>
</g>
<!-- Node9&#45;&gt;Node18 -->
<g id="edge18_Node000009_Node000018" class="edge">
<title>Node9&#45;&gt;Node18</title>
<g id="a_edge18_Node000009_Node000018"><a xlink:title=" ">
<path fill="none" stroke="#63b8ff" d="M1135.87,-71.31C1080.22,-65.98 972.17,-53.43 883,-30 880.7,-29.4 878.35,-28.7 876,-27.95"/>
<polygon fill="#63b8ff" stroke="#63b8ff" points="877.09,-24.62 866.49,-24.63 874.78,-31.23 877.09,-24.62"/>
</a>
</g>
</g>
<!-- Node19 -->
<g id="Node000019" class="node">
<title>Node19</title>
<g id="a_Node000019"><a xlink:title=" ">
<polygon fill="#e0e0e0" stroke="#999999" points="937.5,-24.5 892.5,-24.5 892.5,-5.5 937.5,-5.5 937.5,-24.5"/>
<text text-anchor="middle" x="915" y="-12.5" font-family="Helvetica,sans-Serif" font-size="10.00">QMap</text>
</a>
</g>
</g>
<!-- Node9&#45;&gt;Node19 -->
<g id="edge19_Node000009_Node000019" class="edge">
<title>Node9&#45;&gt;Node19</title>
<g id="a_edge19_Node000009_Node000019"><a xlink:title=" ">
<path fill="none" stroke="#63b8ff" d="M1135.78,-69.89C1090.26,-63.64 1011.23,-50.82 946,-30 944.56,-29.54 943.09,-29.03 941.63,-28.49"/>
<polygon fill="#63b8ff" stroke="#63b8ff" points="942.68,-25.14 932.1,-24.57 940.02,-31.61 942.68,-25.14"/>
</a>
</g>
</g>
<!-- Node20 -->
<g id="Node000020" class="node">
<title>Node20</title>
<g id="a_Node000020"><a xlink:title=" ">
<polygon fill="#e0e0e0" stroke="#999999" points="1014.5,-24.5 955.5,-24.5 955.5,-5.5 1014.5,-5.5 1014.5,-24.5"/>
<text text-anchor="middle" x="985" y="-12.5" font-family="Helvetica,sans-Serif" font-size="10.00">QPointer</text>
</a>
</g>
</g>
<!-- Node9&#45;&gt;Node20 -->
<g id="edge22_Node000009_Node000020" class="edge">
<title>Node9&#45;&gt;Node20</title>
<g id="a_edge22_Node000009_Node000020"><a xlink:title=" ">
<path fill="none" stroke="#63b8ff" d="M1142.6,-65.95C1112.38,-57.32 1064.78,-43.4 1024,-30 1022.1,-29.38 1020.16,-28.72 1018.2,-28.06"/>
<polygon fill="#63b8ff" stroke="#63b8ff" points="1019.03,-24.64 1008.44,-24.65 1016.73,-31.25 1019.03,-24.64"/>
</a>
</g>
</g>
<!-- Node21 -->
<g id="Node000021" class="node">
<title>Node21</title>
<g id="a_Node000021"><a xlink:title=" ">
<polygon fill="#e0e0e0" stroke="#999999" points="1113,-24.5 1033,-24.5 1033,-5.5 1113,-5.5 1113,-24.5"/>
<text text-anchor="middle" x="1073" y="-12.5" font-family="Helvetica,sans-Serif" font-size="10.00">QPushButton</text>
</a>
</g>
</g>
<!-- Node9&#45;&gt;Node21 -->
<g id="edge23_Node000009_Node000021" class="edge">
<title>Node9&#45;&gt;Node21</title>
<g id="a_edge23_Node000009_Node000021"><a xlink:title=" ">
<path fill="none" stroke="#63b8ff" d="M1158.24,-65.87C1142,-56.36 1115.65,-40.95 1096.54,-29.77"/>
<polygon fill="#63b8ff" stroke="#63b8ff" points="1098.21,-26.7 1087.82,-24.67 1094.68,-32.74 1098.21,-26.7"/>
</a>
</g>
</g>
<!-- Node22 -->
<g id="Node000022" class="node">
<title>Node22</title>
<g id="a_Node000022"><a xlink:title=" ">
<polygon fill="#e0e0e0" stroke="#999999" points="1215,-24.5 1131,-24.5 1131,-5.5 1215,-5.5 1215,-24.5"/>
<text text-anchor="middle" x="1173" y="-12.5" font-family="Helvetica,sans-Serif" font-size="10.00">QRadioButton</text>
</a>
</g>
</g>
<!-- Node9&#45;&gt;Node22 -->
<g id="edge24_Node000009_Node000022" class="edge">
<title>Node9&#45;&gt;Node22</title>
<g id="a_edge24_Node000009_Node000022"><a xlink:title=" ">
<path fill="none" stroke="#63b8ff" d="M1173,-65.87C1173,-57.75 1173,-45.31 1173,-34.89"/>
<polygon fill="#63b8ff" stroke="#63b8ff" points="1176.5,-34.67 1173,-24.67 1169.5,-34.67 1176.5,-34.67"/>
</a>
</g>
</g>
<!-- Node23 -->
<g id="Node000023" class="node">
<title>Node23</title>
<g id="a_Node000023"><a xlink:title=" ">
<polygon fill="#e0e0e0" stroke="#999999" points="1292.5,-24.5 1233.5,-24.5 1233.5,-5.5 1292.5,-5.5 1292.5,-24.5"/>
<text text-anchor="middle" x="1263" y="-12.5" font-family="Helvetica,sans-Serif" font-size="10.00">QVariant</text>
</a>
</g>
</g>
<!-- Node9&#45;&gt;Node23 -->
<g id="edge26_Node000009_Node000023" class="edge">
<title>Node9&#45;&gt;Node23</title>
<g id="a_edge26_Node000009_Node000023"><a xlink:title=" ">
<path fill="none" stroke="#63b8ff" d="M1186.28,-65.87C1200.64,-56.54 1223.76,-41.51 1240.87,-30.38"/>
<polygon fill="#63b8ff" stroke="#63b8ff" points="1243.19,-33.05 1249.67,-24.67 1239.37,-27.18 1243.19,-33.05"/>
</a>
</g>
</g>
<!-- Node24 -->
<g id="Node000024" class="node">
<title>Node24</title>
<g id="a_Node000024"><a xlink:title=" ">
<polygon fill="#e0e0e0" stroke="#999999" points="1431.5,-30 1310.5,-30 1310.5,0 1431.5,0 1431.5,-30"/>
<text text-anchor="start" x="1318.5" y="-18" font-family="Helvetica,sans-Serif" font-size="10.00">../vtools/visualization</text>
<text text-anchor="middle" x="1371" y="-7" font-family="Helvetica,sans-Serif" font-size="10.00">/visualization.h</text>
</a>
</g>
</g>
<!-- Node9&#45;&gt;Node24 -->
<g id="edge28_Node000009_Node000024" class="edge">
<title>Node9&#45;&gt;Node24</title>
<g id="a_edge28_Node000009_Node000024"><a xlink:title=" ">
<path fill="none" stroke="#63b8ff" d="M1201.79,-65.99C1231.03,-57.35 1277.11,-43.74 1313.8,-32.9"/>
<polygon fill="#63b8ff" stroke="#63b8ff" points="1314.8,-36.25 1323.4,-30.06 1312.82,-29.54 1314.8,-36.25"/>
</a>
</g>
</g>
<!-- Node25 -->
<g id="Node000025" class="node">
<title>Node25</title>
<g id="a_Node000025"><a xlink:title=" ">
<polygon fill="#e0e0e0" stroke="#999999" points="1602,-24.5 1450,-24.5 1450,-5.5 1602,-5.5 1602,-24.5"/>
<text text-anchor="middle" x="1526" y="-12.5" font-family="Helvetica,sans-Serif" font-size="10.00">../ifc/xml/vabstractpattern.h</text>
</a>
</g>
</g>
<!-- Node9&#45;&gt;Node25 -->
<g id="edge29_Node000009_Node000025" class="edge">
<title>Node9&#45;&gt;Node25</title>
<g id="a_edge29_Node000009_Node000025"><a xlink:title=" ">
<path fill="none" stroke="#63b8ff" d="M1210.05,-68.32C1214.74,-67.54 1219.48,-66.75 1224,-66 1307.13,-52.19 1403.15,-36.3 1464.2,-26.21"/>
<polygon fill="#63b8ff" stroke="#63b8ff" points="1465.14,-29.6 1474.43,-24.52 1463.99,-22.7 1465.14,-29.6"/>
</a>
</g>
</g>
<!-- Node26 -->
<g id="Node000026" class="node">
<title>Node26</title>
<g id="a_Node000026"><a xlink:title=" ">
<polygon fill="#e0e0e0" stroke="#999999" points="1697.5,-24.5 1620.5,-24.5 1620.5,-5.5 1697.5,-5.5 1697.5,-24.5"/>
<text text-anchor="middle" x="1659" y="-12.5" font-family="Helvetica,sans-Serif" font-size="10.00">../ifc/ifcdef.h</text>
</a>
</g>
</g>
<!-- Node9&#45;&gt;Node26 -->
<g id="edge30_Node000009_Node000026" class="edge">
<title>Node9&#45;&gt;Node26</title>
<g id="a_edge30_Node000009_Node000026"><a xlink:title=" ">
<path fill="none" stroke="#63b8ff" d="M1210,-68.01C1214.7,-67.28 1219.46,-66.59 1224,-66 1395.31,-43.79 1441.31,-62.33 1611,-30 1614.96,-29.24 1619.07,-28.3 1623.14,-27.27"/>
<polygon fill="#63b8ff" stroke="#63b8ff" points="1624.34,-30.56 1633.06,-24.55 1622.49,-23.81 1624.34,-30.56"/>
</a>
</g>
</g>
<!-- Node27 -->
<g id="Node000027" class="node">
<title>Node27</title>
<g id="a_Node000027"><a xlink:title=" ">
<polygon fill="#e0e0e0" stroke="#999999" points="1874.5,-24.5 1715.5,-24.5 1715.5,-5.5 1874.5,-5.5 1874.5,-24.5"/>
<text text-anchor="middle" x="1795" y="-12.5" font-family="Helvetica,sans-Serif" font-size="10.00">../vgeometry/vgeometrydef.h</text>
</a>
</g>
</g>
<!-- Node9&#45;&gt;Node27 -->
<g id="edge31_Node000009_Node000027" class="edge">
<title>Node9&#45;&gt;Node27</title>
<g id="a_edge31_Node000009_Node000027"><a xlink:title=" ">
<path fill="none" stroke="#63b8ff" d="M1210.27,-67.89C1214.88,-67.19 1219.54,-66.54 1224,-66 1437.72,-40.28 1493.19,-54.93 1707,-30 1716.47,-28.9 1726.47,-27.51 1736.21,-26.05"/>
<polygon fill="#63b8ff" stroke="#63b8ff" points="1736.88,-29.49 1746.23,-24.5 1735.81,-22.57 1736.88,-29.49"/>
</a>
</g>
</g>
<!-- Node9&#45;&gt;Node28 -->
<g id="edge32_Node000009_Node000028" class="edge">
<title>Node9&#45;&gt;Node28</title>
<g id="a_edge32_Node000009_Node000028"><a xlink:title=" ">
<path fill="none" stroke="#63b8ff" d="M1210.24,-67.67C1214.86,-67.01 1219.53,-66.42 1224,-66 1552.4,-34.81 2381.76,-78.85 2708,-30 2712.76,-29.29 2717.72,-28.26 2722.57,-27.08"/>
<polygon fill="#63b8ff" stroke="#63b8ff" points="2723.54,-30.45 2732.32,-24.51 2721.75,-23.68 2723.54,-30.45"/>
</a>
</g>
</g>
<!-- Node29 -->
<g id="Node000029" class="node">
<title>Node29</title>
<g id="a_Node000029"><a xlink:title=" ">
<polygon fill="#e0e0e0" stroke="#999999" points="1995.5,-24.5 1892.5,-24.5 1892.5,-5.5 1995.5,-5.5 1995.5,-24.5"/>
<text text-anchor="middle" x="1944" y="-12.5" font-family="Helvetica,sans-Serif" font-size="10.00">../vmisc/logging.h</text>
</a>
</g>
</g>
<!-- Node9&#45;&gt;Node29 -->
<g id="edge33_Node000009_Node000029" class="edge">
<title>Node9&#45;&gt;Node29</title>
<g id="a_edge33_Node000009_Node000029"><a xlink:title=" ">
<path fill="none" stroke="#63b8ff" d="M1210.26,-67.8C1214.87,-67.12 1219.54,-66.49 1224,-66 1516,-33.8 1593.18,-71.53 1884,-30 1889.9,-29.16 1896.08,-28.02 1902.13,-26.75"/>
<polygon fill="#63b8ff" stroke="#63b8ff" points="1903.12,-30.12 1912.12,-24.53 1901.6,-23.28 1903.12,-30.12"/>
</a>
</g>
</g>
<!-- Node9&#45;&gt;Node30 -->
<g id="edge34_Node000009_Node000030" class="edge">
<title>Node9&#45;&gt;Node30</title>
<g id="a_edge34_Node000009_Node000030"><a xlink:title=" ">
<path fill="none" stroke="#63b8ff" d="M1210.19,-70.35C1226.13,-68.72 1244.96,-67.01 1262,-66 1948.09,-25.3 2123.26,-89.27 2808,-30 2819.08,-29.04 2830.86,-27.6 2842.17,-26"/>
<polygon fill="#63b8ff" stroke="#63b8ff" points="2843,-29.42 2852.39,-24.5 2841.99,-22.49 2843,-29.42"/>
</a>
</g>
</g>
<!-- Node31 -->
<g id="Node000031" class="node">
<title>Node31</title>
<g id="a_Node000031"><a xlink:title=" ">
<polygon fill="#e0e0e0" stroke="#999999" points="2168.5,-24.5 2013.5,-24.5 2013.5,-5.5 2168.5,-5.5 2168.5,-24.5"/>
<text text-anchor="middle" x="2091" y="-12.5" font-family="Helvetica,sans-Serif" font-size="10.00">../vmisc/vcommonsettings.h</text>
</a>
</g>
</g>
<!-- Node9&#45;&gt;Node31 -->
<g id="edge35_Node000009_Node000031" class="edge">
<title>Node9&#45;&gt;Node31</title>
<g id="a_edge35_Node000009_Node000031"><a xlink:title=" ">
<path fill="none" stroke="#63b8ff" d="M1210.25,-67.77C1214.87,-67.09 1219.54,-66.47 1224,-66 1569.54,-29.37 1659.39,-65.98 2005,-30 2014.6,-29 2024.76,-27.63 2034.61,-26.13"/>
<polygon fill="#63b8ff" stroke="#63b8ff" points="2035.38,-29.55 2044.71,-24.54 2034.29,-22.64 2035.38,-29.55"/>
</a>
</g>
</g>
<!-- Node32 -->
<g id="Node000032" class="node">
<title>Node32</title>
<g id="a_Node000032"><a xlink:title=" ">
<polygon fill="#e0e0e0" stroke="#999999" points="2369,-24.5 2187,-24.5 2187,-5.5 2369,-5.5 2369,-24.5"/>
<text text-anchor="middle" x="2278" y="-12.5" font-family="Helvetica,sans-Serif" font-size="10.00">../vwidgets/vmaingraphicsscene.h</text>
</a>
</g>
</g>
<!-- Node9&#45;&gt;Node32 -->
<g id="edge36_Node000009_Node000032" class="edge">
<title>Node9&#45;&gt;Node32</title>
<g id="a_edge36_Node000009_Node000032"><a xlink:title=" ">
<path fill="none" stroke="#63b8ff" d="M1210.25,-67.73C1214.87,-67.06 1219.53,-66.45 1224,-66 1646.12,-23.04 1755.36,-67.46 2178,-30 2189.8,-28.95 2202.34,-27.48 2214.4,-25.89"/>
<polygon fill="#63b8ff" stroke="#63b8ff" points="2214.97,-29.34 2224.4,-24.52 2214.02,-22.41 2214.97,-29.34"/>
</a>
</g>
</g>
</g>
</svg>
