<?xml version="1.0" encoding="UTF-8" standalone="no"?>
<!DOCTYPE svg PUBLIC "-//W3C//DTD SVG 1.1//EN"
 "http://www.w3.org/Graphics/SVG/1.1/DTD/svg11.dtd">
<!-- Generated by graphviz version 2.43.0 (0)
 -->
<!-- Title: src/libs/vwidgets/vmaingraphicsscene.h Pages: 1 -->
<svg width="957pt" height="192pt"
 viewBox="0.00 0.00 956.50 192.00" xmlns="http://www.w3.org/2000/svg" xmlns:xlink="http://www.w3.org/1999/xlink">
<g id="graph0" class="graph" transform="scale(1 1) rotate(0) translate(4 188)">
<title>src/libs/vwidgets/vmaingraphicsscene.h</title>
<!-- Node1 -->
<g id="Node000001" class="node">
<title>Node1</title>
<g id="a_Node000001"><a xlink:title=" ">
<polygon fill="#999999" stroke="#666666" points="631.5,-184 420.5,-184 420.5,-165 631.5,-165 631.5,-184"/>
<text text-anchor="middle" x="526" y="-172" font-family="Helvetica,sans-Serif" font-size="10.00">src/libs/vwidgets/vmaingraphicsscene.h</text>
</a>
</g>
</g>
<!-- Node2 -->
<g id="Node000002" class="node">
<title>Node2</title>
<g id="a_Node000002"><a xlink:title=" ">
<polygon fill="#e0e0e0" stroke="#999999" points="120,-74 0,-74 0,-55 120,-55 120,-74"/>
<text text-anchor="middle" x="60" y="-62" font-family="Helvetica,sans-Serif" font-size="10.00">qcompilerdetection.h</text>
</a>
</g>
</g>
<!-- Node1&#45;&gt;Node2 -->
<g id="edge1_Node000001_Node000002" class="edge">
<title>Node1&#45;&gt;Node2</title>
<g id="a_edge1_Node000001_Node000002"><a xlink:title=" ">
<path fill="none" stroke="#63b8ff" d="M420.35,-165.69C358.02,-159.35 278.07,-148.2 209,-129 163.73,-116.41 114.07,-93.2 85.04,-78.6"/>
<polygon fill="#63b8ff" stroke="#63b8ff" points="86.53,-75.43 76.03,-74 83.35,-81.66 86.53,-75.43"/>
</a>
</g>
</g>
<!-- Node3 -->
<g id="Node000003" class="node">
<title>Node3</title>
<g id="a_Node000003"><a xlink:title=" ">
<polygon fill="#e0e0e0" stroke="#999999" points="468,-129 372,-129 372,-110 468,-110 468,-129"/>
<text text-anchor="middle" x="420" y="-117" font-family="Helvetica,sans-Serif" font-size="10.00">QGraphicsScene</text>
</a>
</g>
</g>
<!-- Node1&#45;&gt;Node3 -->
<g id="edge2_Node000001_Node000003" class="edge">
<title>Node1&#45;&gt;Node3</title>
<g id="a_edge2_Node000001_Node000003"><a xlink:title=" ">
<path fill="none" stroke="#63b8ff" d="M508.97,-164.98C492.07,-156.54 465.94,-143.47 446.36,-133.68"/>
<polygon fill="#63b8ff" stroke="#63b8ff" points="447.85,-130.51 437.34,-129.17 444.72,-136.77 447.85,-130.51"/>
</a>
</g>
</g>
<!-- Node4 -->
<g id="Node000004" class="node">
<title>Node4</title>
<g id="a_Node000004"><a xlink:title=" ">
<polygon fill="#e0e0e0" stroke="#999999" points="566,-129 486,-129 486,-110 566,-110 566,-129"/>
<text text-anchor="middle" x="526" y="-117" font-family="Helvetica,sans-Serif" font-size="10.00">QMetaObject</text>
</a>
</g>
</g>
<!-- Node1&#45;&gt;Node4 -->
<g id="edge3_Node000001_Node000004" class="edge">
<title>Node1&#45;&gt;Node4</title>
<g id="a_edge3_Node000001_Node000004"><a xlink:title=" ">
<path fill="none" stroke="#63b8ff" d="M526,-164.75C526,-157.8 526,-147.85 526,-139.13"/>
<polygon fill="#63b8ff" stroke="#63b8ff" points="529.5,-139.09 526,-129.09 522.5,-139.09 529.5,-139.09"/>
</a>
</g>
</g>
<!-- Node5 -->
<g id="Node000005" class="node">
<title>Node5</title>
<g id="a_Node000005"><a xlink:title=" ">
<polygon fill="#e0e0e0" stroke="#999999" points="640,-129 584,-129 584,-110 640,-110 640,-129"/>
<text text-anchor="middle" x="612" y="-117" font-family="Helvetica,sans-Serif" font-size="10.00">QObject</text>
</a>
</g>
</g>
<!-- Node1&#45;&gt;Node5 -->
<g id="edge4_Node000001_Node000005" class="edge">
<title>Node1&#45;&gt;Node5</title>
<g id="a_edge4_Node000001_Node000005"><a xlink:title=" ">
<path fill="none" stroke="#63b8ff" d="M539.82,-164.98C553.15,-156.77 573.58,-144.18 589.31,-134.49"/>
<polygon fill="#63b8ff" stroke="#63b8ff" points="591.25,-137.4 597.93,-129.17 587.58,-131.44 591.25,-137.4"/>
</a>
</g>
</g>
<!-- Node6 -->
<g id="Node000006" class="node">
<title>Node6</title>
<g id="a_Node000006"><a xlink:title=" ">
<polygon fill="#e0e0e0" stroke="#999999" points="713.5,-129 658.5,-129 658.5,-110 713.5,-110 713.5,-129"/>
<text text-anchor="middle" x="686" y="-117" font-family="Helvetica,sans-Serif" font-size="10.00">QPointF</text>
</a>
</g>
</g>
<!-- Node1&#45;&gt;Node6 -->
<g id="edge5_Node000001_Node000006" class="edge">
<title>Node1&#45;&gt;Node6</title>
<g id="a_edge5_Node000001_Node000006"><a xlink:title=" ">
<path fill="none" stroke="#63b8ff" d="M551.71,-164.98C578.45,-156.13 620.53,-142.19 650.45,-132.28"/>
<polygon fill="#63b8ff" stroke="#63b8ff" points="651.7,-135.55 660.09,-129.08 649.5,-128.9 651.7,-135.55"/>
</a>
</g>
</g>
<!-- Node7 -->
<g id="Node000007" class="node">
<title>Node7</title>
<g id="a_Node000007"><a xlink:title=" ">
<polygon fill="#e0e0e0" stroke="#999999" points="784,-129 732,-129 732,-110 784,-110 784,-129"/>
<text text-anchor="middle" x="758" y="-117" font-family="Helvetica,sans-Serif" font-size="10.00">QRectF</text>
</a>
</g>
</g>
<!-- Node1&#45;&gt;Node7 -->
<g id="edge6_Node000001_Node000007" class="edge">
<title>Node1&#45;&gt;Node7</title>
<g id="a_edge6_Node000001_Node000007"><a xlink:title=" ">
<path fill="none" stroke="#63b8ff" d="M564.55,-164.99C602.19,-156.63 661.38,-143.37 721.58,-129.31"/>
<polygon fill="#63b8ff" stroke="#63b8ff" points="722.7,-132.64 731.64,-126.95 721.1,-125.82 722.7,-132.64"/>
</a>
</g>
</g>
<!-- Node8 -->
<g id="Node000008" class="node">
<title>Node8</title>
<g id="a_Node000008"><a xlink:title=" ">
<polygon fill="#e0e0e0" stroke="#999999" points="191.5,-74 138.5,-74 138.5,-55 191.5,-55 191.5,-74"/>
<text text-anchor="middle" x="165" y="-62" font-family="Helvetica,sans-Serif" font-size="10.00">QString</text>
</a>
</g>
</g>
<!-- Node1&#45;&gt;Node8 -->
<g id="edge7_Node000001_Node000008" class="edge">
<title>Node1&#45;&gt;Node8</title>
<g id="a_edge7_Node000001_Node000008"><a xlink:title=" ">
<path fill="none" stroke="#63b8ff" d="M420.31,-169.55C366.03,-164.39 299.94,-153.14 245,-129 219.52,-117.81 195.22,-96.47 180.22,-81.64"/>
<polygon fill="#63b8ff" stroke="#63b8ff" points="182.4,-78.86 172.9,-74.17 177.4,-83.76 182.4,-78.86"/>
</a>
</g>
</g>
<!-- Node9 -->
<g id="Node000009" class="node">
<title>Node9</title>
<g id="a_Node000009"><a xlink:title=" ">
<polygon fill="#e0e0e0" stroke="#999999" points="875.5,-129 802.5,-129 802.5,-110 875.5,-110 875.5,-129"/>
<text text-anchor="middle" x="839" y="-117" font-family="Helvetica,sans-Serif" font-size="10.00">QTransform</text>
</a>
</g>
</g>
<!-- Node1&#45;&gt;Node9 -->
<g id="edge8_Node000001_Node000009" class="edge">
<title>Node1&#45;&gt;Node9</title>
<g id="a_edge8_Node000001_Node000009"><a xlink:title=" ">
<path fill="none" stroke="#63b8ff" d="M578.73,-164.99C630.42,-156.59 711.71,-143.21 792.05,-129.14"/>
<polygon fill="#63b8ff" stroke="#63b8ff" points="793.11,-132.51 802.35,-127.33 791.9,-125.61 793.11,-132.51"/>
</a>
</g>
</g>
<!-- Node10 -->
<g id="Node000010" class="node">
<title>Node10</title>
<g id="a_Node000010"><a xlink:title=" ">
<polygon fill="#e0e0e0" stroke="#999999" points="948.5,-129 893.5,-129 893.5,-110 948.5,-110 948.5,-129"/>
<text text-anchor="middle" x="921" y="-117" font-family="Helvetica,sans-Serif" font-size="10.00">QVector</text>
</a>
</g>
</g>
<!-- Node1&#45;&gt;Node10 -->
<g id="edge9_Node000001_Node000010" class="edge">
<title>Node1&#45;&gt;Node10</title>
<g id="a_edge9_Node000001_Node000010"><a xlink:title=" ">
<path fill="none" stroke="#63b8ff" d="M616.78,-165C687.19,-157.77 787.37,-146.09 883.29,-129.15"/>
<polygon fill="#63b8ff" stroke="#63b8ff" points="883.93,-132.59 893.15,-127.39 882.69,-125.7 883.93,-132.59"/>
</a>
</g>
</g>
<!-- Node11 -->
<g id="Node000011" class="node">
<title>Node11</title>
<g id="a_Node000011"><a xlink:title=" ">
<polygon fill="#e0e0e0" stroke="#999999" points="268.5,-74 209.5,-74 209.5,-55 268.5,-55 268.5,-74"/>
<text text-anchor="middle" x="239" y="-62" font-family="Helvetica,sans-Serif" font-size="10.00">QtGlobal</text>
</a>
</g>
</g>
<!-- Node1&#45;&gt;Node11 -->
<g id="edge10_Node000001_Node000011" class="edge">
<title>Node1&#45;&gt;Node11</title>
<g id="a_edge10_Node000001_Node000011"><a xlink:title=" ">
<path fill="none" stroke="#63b8ff" d="M420.41,-166.28C358.16,-160.02 287,-148.75 263,-129 249.64,-118.01 243.71,-98.75 241.08,-84.31"/>
<polygon fill="#63b8ff" stroke="#63b8ff" points="244.49,-83.42 239.61,-74.02 237.56,-84.42 244.49,-83.42"/>
</a>
</g>
</g>
<!-- Node12 -->
<g id="Node000012" class="node">
<title>Node12</title>
<g id="a_Node000012"><a xlink:href="../../d4/da4/def_8h.html" target="_top" xlink:title=" ">
<polygon fill="white" stroke="#666666" points="354,-129 272,-129 272,-110 354,-110 354,-129"/>
<text text-anchor="middle" x="313" y="-117" font-family="Helvetica,sans-Serif" font-size="10.00">../vmisc/def.h</text>
</a>
</g>
</g>
<!-- Node1&#45;&gt;Node12 -->
<g id="edge11_Node000001_Node000012" class="edge">
<title>Node1&#45;&gt;Node12</title>
<g id="a_edge11_Node000001_Node000012"><a xlink:title=" ">
<path fill="none" stroke="#63b8ff" d="M491.78,-164.98C455.24,-155.89 397.22,-141.46 357.24,-131.51"/>
<polygon fill="#63b8ff" stroke="#63b8ff" points="358.04,-128.1 347.49,-129.08 356.35,-134.89 358.04,-128.1"/>
</a>
</g>
</g>
<!-- Node12&#45;&gt;Node2 -->
<g id="edge12_Node000012_Node000002" class="edge">
<title>Node12&#45;&gt;Node2</title>
<g id="a_edge12_Node000012_Node000002"><a xlink:title=" ">
<path fill="none" stroke="#63b8ff" d="M272.35,-109.98C228.5,-100.8 158.58,-86.15 111.05,-76.19"/>
<polygon fill="#63b8ff" stroke="#63b8ff" points="111.47,-72.71 100.97,-74.08 110.04,-79.56 111.47,-72.71"/>
</a>
</g>
</g>
<!-- Node12&#45;&gt;Node8 -->
<g id="edge14_Node000012_Node000008" class="edge">
<title>Node12&#45;&gt;Node8</title>
<g id="a_edge14_Node000012_Node000008"><a xlink:title=" ">
<path fill="none" stroke="#63b8ff" d="M289.22,-109.98C264.77,-101.23 226.47,-87.51 198.85,-77.62"/>
<polygon fill="#63b8ff" stroke="#63b8ff" points="199.81,-74.25 189.21,-74.17 197.45,-80.84 199.81,-74.25"/>
</a>
</g>
</g>
<!-- Node12&#45;&gt;Node11 -->
<g id="edge17_Node000012_Node000011" class="edge">
<title>Node12&#45;&gt;Node11</title>
<g id="a_edge17_Node000012_Node000011"><a xlink:title=" ">
<path fill="none" stroke="#63b8ff" d="M301.11,-109.98C289.85,-101.92 272.71,-89.65 259.29,-80.03"/>
<polygon fill="#63b8ff" stroke="#63b8ff" points="261.27,-77.15 251.11,-74.17 257.2,-82.84 261.27,-77.15"/>
</a>
</g>
</g>
<!-- Node13 -->
<g id="Node000013" class="node">
<title>Node13</title>
<g id="a_Node000013"><a xlink:title=" ">
<polygon fill="#e0e0e0" stroke="#999999" points="582,-74 532,-74 532,-55 582,-55 582,-74"/>
<text text-anchor="middle" x="557" y="-62" font-family="Helvetica,sans-Serif" font-size="10.00">QLineF</text>
</a>
</g>
</g>
<!-- Node12&#45;&gt;Node13 -->
<g id="edge13_Node000012_Node000013" class="edge">
<title>Node12&#45;&gt;Node13</title>
<g id="a_edge13_Node000012_Node000013"><a xlink:title=" ">
<path fill="none" stroke="#63b8ff" d="M354.14,-110.24C394.48,-102.04 457.96,-88.86 521.92,-74.19"/>
<polygon fill="#63b8ff" stroke="#63b8ff" points="522.82,-77.57 531.77,-71.91 521.24,-70.75 522.82,-77.57"/>
</a>
</g>
</g>
<!-- Node14 -->
<g id="Node000014" class="node">
<title>Node14</title>
<g id="a_Node000014"><a xlink:title=" ">
<polygon fill="#e0e0e0" stroke="#999999" points="670,-74 600,-74 600,-55 670,-55 670,-74"/>
<text text-anchor="middle" x="635" y="-62" font-family="Helvetica,sans-Serif" font-size="10.00">QStringList</text>
</a>
</g>
</g>
<!-- Node12&#45;&gt;Node14 -->
<g id="edge15_Node000012_Node000014" class="edge">
<title>Node12&#45;&gt;Node14</title>
<g id="a_edge15_Node000012_Node000014"><a xlink:title=" ">
<path fill="none" stroke="#63b8ff" d="M354.19,-111.46C357.17,-110.96 360.13,-110.47 363,-110 461.07,-93.92 488.27,-91.85 589.89,-74.15"/>
<polygon fill="#63b8ff" stroke="#63b8ff" points="590.71,-77.55 599.96,-72.38 589.5,-70.66 590.71,-77.55"/>
</a>
</g>
</g>
<!-- Node15 -->
<g id="Node000015" class="node">
<title>Node15</title>
<g id="a_Node000015"><a xlink:title=" ">
<polygon fill="#e0e0e0" stroke="#999999" points="717.5,-74 688.5,-74 688.5,-55 717.5,-55 717.5,-74"/>
<text text-anchor="middle" x="703" y="-62" font-family="Helvetica,sans-Serif" font-size="10.00">Qt</text>
</a>
</g>
</g>
<!-- Node12&#45;&gt;Node15 -->
<g id="edge16_Node000012_Node000015" class="edge">
<title>Node12&#45;&gt;Node15</title>
<g id="a_edge16_Node000012_Node000015"><a xlink:title=" ">
<path fill="none" stroke="#63b8ff" d="M354.17,-111.32C357.16,-110.85 360.12,-110.41 363,-110 499.81,-90.59 539.5,-105.11 678.68,-73.5"/>
<polygon fill="#63b8ff" stroke="#63b8ff" points="679.48,-76.91 688.43,-71.25 677.9,-70.09 679.48,-76.91"/>
</a>
</g>
</g>
<!-- Node16 -->
<g id="Node000016" class="node">
<title>Node16</title>
<g id="a_Node000016"><a xlink:title=" ">
<polygon fill="#e0e0e0" stroke="#999999" points="343,-74 287,-74 287,-55 343,-55 343,-74"/>
<text text-anchor="middle" x="315" y="-62" font-family="Helvetica,sans-Serif" font-size="10.00">QPrinter</text>
</a>
</g>
</g>
<!-- Node12&#45;&gt;Node16 -->
<g id="edge18_Node000012_Node000016" class="edge">
<title>Node12&#45;&gt;Node16</title>
<g id="a_edge18_Node000012_Node000016"><a xlink:title=" ">
<path fill="none" stroke="#63b8ff" d="M313.33,-109.75C313.59,-102.8 313.97,-92.85 314.3,-84.13"/>
<polygon fill="#63b8ff" stroke="#63b8ff" points="317.8,-84.21 314.68,-74.09 310.8,-83.95 317.8,-84.21"/>
</a>
</g>
</g>
<!-- Node17 -->
<g id="Node000017" class="node">
<title>Node17</title>
<g id="a_Node000017"><a xlink:title=" ">
<polygon fill="#e0e0e0" stroke="#999999" points="412.5,-74 361.5,-74 361.5,-55 412.5,-55 412.5,-74"/>
<text text-anchor="middle" x="387" y="-62" font-family="Helvetica,sans-Serif" font-size="10.00">csignal</text>
</a>
</g>
</g>
<!-- Node12&#45;&gt;Node17 -->
<g id="edge19_Node000012_Node000017" class="edge">
<title>Node12&#45;&gt;Node17</title>
<g id="a_edge19_Node000012_Node000017"><a xlink:title=" ">
<path fill="none" stroke="#63b8ff" d="M324.89,-109.98C336.15,-101.92 353.29,-89.65 366.71,-80.03"/>
<polygon fill="#63b8ff" stroke="#63b8ff" points="368.8,-82.84 374.89,-74.17 364.73,-77.15 368.8,-82.84"/>
</a>
</g>
</g>
<!-- Node18 -->
<g id="Node000018" class="node">
<title>Node18</title>
<g id="a_Node000018"><a xlink:href="../../d4/d82/debugbreak_8h.html" target="_top" xlink:title=" ">
<polygon fill="white" stroke="#666666" points="513.5,-74 430.5,-74 430.5,-55 513.5,-55 513.5,-74"/>
<text text-anchor="middle" x="472" y="-62" font-family="Helvetica,sans-Serif" font-size="10.00">debugbreak.h</text>
</a>
</g>
</g>
<!-- Node12&#45;&gt;Node18 -->
<g id="edge20_Node000012_Node000018" class="edge">
<title>Node12&#45;&gt;Node18</title>
<g id="a_edge20_Node000012_Node000018"><a xlink:title=" ">
<path fill="none" stroke="#63b8ff" d="M338.55,-109.98C365.12,-101.13 406.94,-87.19 436.67,-77.28"/>
<polygon fill="#63b8ff" stroke="#63b8ff" points="437.87,-80.56 446.25,-74.08 435.66,-73.92 437.87,-80.56"/>
</a>
</g>
</g>
<!-- Node19 -->
<g id="Node000019" class="node">
<title>Node19</title>
<g id="a_Node000019"><a xlink:title=" ">
<polygon fill="#e0e0e0" stroke="#999999" points="499.5,-19 444.5,-19 444.5,0 499.5,0 499.5,-19"/>
<text text-anchor="middle" x="472" y="-7" font-family="Helvetica,sans-Serif" font-size="10.00">signal.h</text>
</a>
</g>
</g>
<!-- Node18&#45;&gt;Node19 -->
<g id="edge21_Node000018_Node000019" class="edge">
<title>Node18&#45;&gt;Node19</title>
<g id="a_edge21_Node000018_Node000019"><a xlink:title=" ">
<path fill="none" stroke="#63b8ff" d="M472,-54.75C472,-47.8 472,-37.85 472,-29.13"/>
<polygon fill="#63b8ff" stroke="#63b8ff" points="475.5,-29.09 472,-19.09 468.5,-29.09 475.5,-29.09"/>
</a>
</g>
</g>
</g>
</svg>
