<?xml version="1.0" encoding="UTF-8" standalone="no"?>
<!DOCTYPE svg PUBLIC "-//W3C//DTD SVG 1.1//EN"
 "http://www.w3.org/Graphics/SVG/1.1/DTD/svg11.dtd">
<!-- Generated by graphviz version 2.43.0 (0)
 -->
<!-- Title: src/libs/vgeometry/vabstractarc.h Pages: 1 -->
<svg width="1291pt" height="313pt"
 viewBox="0.00 0.00 1290.84 313.00" xmlns="http://www.w3.org/2000/svg" xmlns:xlink="http://www.w3.org/1999/xlink">
<g id="graph0" class="graph" transform="scale(1 1) rotate(0) translate(4 309)">
<title>src/libs/vgeometry/vabstractarc.h</title>
<!-- Node1 -->
<g id="Node000001" class="node">
<title>Node1</title>
<g id="a_Node000001"><a xlink:title=" ">
<polygon fill="#999999" stroke="#666666" points="870.5,-305 763.5,-305 763.5,-275 870.5,-275 870.5,-305"/>
<text text-anchor="start" x="771.5" y="-293" font-family="Helvetica,sans-Serif" font-size="10.00">src/libs/vgeometry</text>
<text text-anchor="middle" x="817" y="-282" font-family="Helvetica,sans-Serif" font-size="10.00">/vabstractarc.h</text>
</a>
</g>
</g>
<!-- Node2 -->
<g id="Node000002" class="node">
<title>Node2</title>
<g id="a_Node000002"><a xlink:title=" ">
<polygon fill="#e0e0e0" stroke="#999999" points="120,-74 0,-74 0,-55 120,-55 120,-74"/>
<text text-anchor="middle" x="60" y="-62" font-family="Helvetica,sans-Serif" font-size="10.00">qcompilerdetection.h</text>
</a>
</g>
</g>
<!-- Node1&#45;&gt;Node2 -->
<g id="edge1_Node000001_Node000002" class="edge">
<title>Node1&#45;&gt;Node2</title>
<g id="a_edge1_Node000001_Node000002"><a xlink:title=" ">
<path fill="none" stroke="#63b8ff" d="M763.25,-281.71C705.63,-273.41 611.68,-258.42 532,-239 373.58,-200.38 332.68,-191.33 182,-129 146.55,-114.34 107.54,-93.07 83.4,-79.26"/>
<polygon fill="#63b8ff" stroke="#63b8ff" points="85.03,-76.16 74.62,-74.19 81.53,-82.22 85.03,-76.16"/>
</a>
</g>
</g>
<!-- Node3 -->
<g id="Node000003" class="node">
<title>Node3</title>
<g id="a_Node000003"><a xlink:title=" ">
<polygon fill="#e0e0e0" stroke="#999999" points="1139,-129 1023,-129 1023,-110 1139,-110 1139,-129"/>
<text text-anchor="middle" x="1081" y="-117" font-family="Helvetica,sans-Serif" font-size="10.00">QSharedDataPointer</text>
</a>
</g>
</g>
<!-- Node1&#45;&gt;Node3 -->
<g id="edge2_Node000001_Node000003" class="edge">
<title>Node1&#45;&gt;Node3</title>
<g id="a_edge2_Node000001_Node000003"><a xlink:title=" ">
<path fill="none" stroke="#63b8ff" d="M854.52,-274.91C897.92,-257.55 970.29,-225.2 1024,-184 1041.55,-170.54 1058.02,-151.18 1068.69,-137.38"/>
<polygon fill="#63b8ff" stroke="#63b8ff" points="1071.61,-139.33 1074.83,-129.24 1066.02,-135.12 1071.61,-139.33"/>
</a>
</g>
</g>
<!-- Node4 -->
<g id="Node000004" class="node">
<title>Node4</title>
<g id="a_Node000004"><a xlink:title=" ">
<polygon fill="#e0e0e0" stroke="#999999" points="640.5,-74 587.5,-74 587.5,-55 640.5,-55 640.5,-74"/>
<text text-anchor="middle" x="614" y="-62" font-family="Helvetica,sans-Serif" font-size="10.00">QString</text>
</a>
</g>
</g>
<!-- Node1&#45;&gt;Node4 -->
<g id="edge3_Node000001_Node000004" class="edge">
<title>Node1&#45;&gt;Node4</title>
<g id="a_edge3_Node000001_Node000004"><a xlink:title=" ">
<path fill="none" stroke="#63b8ff" d="M763.49,-285.22C691.29,-277.52 562.28,-254.21 480,-184 453.13,-161.07 429.56,-138.08 451,-110 454.92,-104.87 530.56,-85.74 577.41,-74.3"/>
<polygon fill="#63b8ff" stroke="#63b8ff" points="578.32,-77.68 587.21,-71.92 576.67,-70.88 578.32,-77.68"/>
</a>
</g>
</g>
<!-- Node5 -->
<g id="Node000005" class="node">
<title>Node5</title>
<g id="a_Node000005"><a xlink:title=" ">
<polygon fill="#e0e0e0" stroke="#999999" points="809.5,-74 750.5,-74 750.5,-55 809.5,-55 809.5,-74"/>
<text text-anchor="middle" x="780" y="-62" font-family="Helvetica,sans-Serif" font-size="10.00">QtGlobal</text>
</a>
</g>
</g>
<!-- Node1&#45;&gt;Node5 -->
<g id="edge4_Node000001_Node000005" class="edge">
<title>Node1&#45;&gt;Node5</title>
<g id="a_edge4_Node000001_Node000005"><a xlink:title=" ">
<path fill="none" stroke="#63b8ff" d="M870.65,-285.89C1012.02,-275.89 1376.1,-237.36 1260,-110 1230.57,-77.72 929.84,-68.49 819.94,-66.19"/>
<polygon fill="#63b8ff" stroke="#63b8ff" points="819.68,-62.68 809.61,-65.98 819.54,-69.68 819.68,-62.68"/>
</a>
</g>
</g>
<!-- Node6 -->
<g id="Node000006" class="node">
<title>Node6</title>
<g id="a_Node000006"><a xlink:href="../../d3/da5/ifcdef_8h.html" target="_top" xlink:title=" ">
<polygon fill="white" stroke="#666666" points="565.5,-184 488.5,-184 488.5,-165 565.5,-165 565.5,-184"/>
<text text-anchor="middle" x="527" y="-172" font-family="Helvetica,sans-Serif" font-size="10.00">../ifc/ifcdef.h</text>
</a>
</g>
</g>
<!-- Node1&#45;&gt;Node6 -->
<g id="edge5_Node000001_Node000006" class="edge">
<title>Node1&#45;&gt;Node6</title>
<g id="a_edge5_Node000001_Node000006"><a xlink:title=" ">
<path fill="none" stroke="#63b8ff" d="M781.15,-274.97C723.94,-252.58 612.93,-209.13 558.56,-187.85"/>
<polygon fill="#63b8ff" stroke="#63b8ff" points="559.68,-184.53 549.09,-184.14 557.12,-191.05 559.68,-184.53"/>
</a>
</g>
</g>
<!-- Node16 -->
<g id="Node000016" class="node">
<title>Node16</title>
<g id="a_Node000016"><a xlink:href="../../d5/d82/vabstractcurve_8h.html" target="_top" xlink:title=" ">
<polygon fill="white" stroke="#666666" points="866,-239 768,-239 768,-220 866,-220 866,-239"/>
<text text-anchor="middle" x="817" y="-227" font-family="Helvetica,sans-Serif" font-size="10.00">vabstractcurve.h</text>
</a>
</g>
</g>
<!-- Node1&#45;&gt;Node16 -->
<g id="edge22_Node000001_Node000016" class="edge">
<title>Node1&#45;&gt;Node16</title>
<g id="a_edge22_Node000001_Node000016"><a xlink:title=" ">
<path fill="none" stroke="#63b8ff" d="M817,-274.84C817,-267.21 817,-257.7 817,-249.45"/>
<polygon fill="#63b8ff" stroke="#63b8ff" points="820.5,-249.27 817,-239.27 813.5,-249.27 820.5,-249.27"/>
</a>
</g>
</g>
<!-- Node22 -->
<g id="Node000022" class="node">
<title>Node22</title>
<g id="a_Node000022"><a xlink:href="../../d5/d9d/vgeometrydef_8h.html" target="_top" xlink:title=" ">
<polygon fill="white" stroke="#666666" points="1251,-129 1157,-129 1157,-110 1251,-110 1251,-129"/>
<text text-anchor="middle" x="1204" y="-117" font-family="Helvetica,sans-Serif" font-size="10.00">vgeometrydef.h</text>
</a>
</g>
</g>
<!-- Node1&#45;&gt;Node22 -->
<g id="edge41_Node000001_Node000022" class="edge">
<title>Node1&#45;&gt;Node22</title>
<g id="a_edge41_Node000001_Node000022"><a xlink:title=" ">
<path fill="none" stroke="#63b8ff" d="M863.92,-274.93C893.32,-265.67 931.8,-252.76 965,-239 1045.74,-205.52 1137.33,-157 1179.89,-133.81"/>
<polygon fill="#63b8ff" stroke="#63b8ff" points="1181.58,-136.87 1188.68,-129 1178.22,-130.73 1181.58,-136.87"/>
</a>
</g>
</g>
<!-- Node6&#45;&gt;Node4 -->
<g id="edge6_Node000006_Node000004" class="edge">
<title>Node6&#45;&gt;Node4</title>
<g id="a_edge6_Node000006_Node000004"><a xlink:title=" ">
<path fill="none" stroke="#63b8ff" d="M505.62,-164.99C480.22,-153.61 443.24,-132.29 460,-110 463.63,-105.18 533.06,-86.45 577.45,-74.89"/>
<polygon fill="#63b8ff" stroke="#63b8ff" points="578.52,-78.22 587.32,-72.32 576.76,-71.45 578.52,-78.22"/>
</a>
</g>
</g>
<!-- Node6&#45;&gt;Node5 -->
<g id="edge8_Node000006_Node000005" class="edge">
<title>Node6&#45;&gt;Node5</title>
<g id="a_edge8_Node000006_Node000005"><a xlink:title=" ">
<path fill="none" stroke="#63b8ff" d="M546.17,-164.94C573.87,-152.62 626.73,-129.24 672,-110 698.06,-98.93 727.82,-86.7 749.49,-77.86"/>
<polygon fill="#63b8ff" stroke="#63b8ff" points="750.89,-81.07 758.83,-74.06 748.25,-74.59 750.89,-81.07"/>
</a>
</g>
</g>
<!-- Node7 -->
<g id="Node000007" class="node">
<title>Node7</title>
<g id="a_Node000007"><a xlink:title=" ">
<polygon fill="#e0e0e0" stroke="#999999" points="569,-74 499,-74 499,-55 569,-55 569,-74"/>
<text text-anchor="middle" x="534" y="-62" font-family="Helvetica,sans-Serif" font-size="10.00">QStringList</text>
</a>
</g>
</g>
<!-- Node6&#45;&gt;Node7 -->
<g id="edge7_Node000006_Node000007" class="edge">
<title>Node6&#45;&gt;Node7</title>
<g id="a_edge7_Node000006_Node000007"><a xlink:title=" ">
<path fill="none" stroke="#63b8ff" d="M488.26,-165.29C452.46,-155.79 407.39,-137.8 426,-110 433.99,-98.07 466.19,-85.72 493.36,-77.07"/>
<polygon fill="#63b8ff" stroke="#63b8ff" points="494.58,-80.36 503.1,-74.05 492.51,-73.67 494.58,-80.36"/>
</a>
</g>
</g>
<!-- Node8 -->
<g id="Node000008" class="node">
<title>Node8</title>
<g id="a_Node000008"><a xlink:href="../../d4/da4/def_8h.html" target="_top" xlink:title=" ">
<polygon fill="white" stroke="#666666" points="336,-129 254,-129 254,-110 336,-110 336,-129"/>
<text text-anchor="middle" x="295" y="-117" font-family="Helvetica,sans-Serif" font-size="10.00">../vmisc/def.h</text>
</a>
</g>
</g>
<!-- Node6&#45;&gt;Node8 -->
<g id="edge9_Node000006_Node000008" class="edge">
<title>Node6&#45;&gt;Node8</title>
<g id="a_edge9_Node000006_Node000008"><a xlink:title=" ">
<path fill="none" stroke="#63b8ff" d="M489.73,-164.98C449.68,-155.84 385.93,-141.27 342.36,-131.32"/>
<polygon fill="#63b8ff" stroke="#63b8ff" points="343.1,-127.9 332.57,-129.08 341.54,-134.72 343.1,-127.9"/>
</a>
</g>
</g>
<!-- Node15 -->
<g id="Node000015" class="node">
<title>Node15</title>
<g id="a_Node000015"><a xlink:href="../../d6/dcd/diagnostic_8h.html" target="_top" xlink:title=" ">
<polygon fill="white" stroke="#666666" points="585.5,-129 468.5,-129 468.5,-110 585.5,-110 585.5,-129"/>
<text text-anchor="middle" x="527" y="-117" font-family="Helvetica,sans-Serif" font-size="10.00">../vmisc/diagnostic.h</text>
</a>
</g>
</g>
<!-- Node6&#45;&gt;Node15 -->
<g id="edge20_Node000006_Node000015" class="edge">
<title>Node6&#45;&gt;Node15</title>
<g id="a_edge20_Node000006_Node000015"><a xlink:title=" ">
<path fill="none" stroke="#63b8ff" d="M527,-164.75C527,-157.8 527,-147.85 527,-139.13"/>
<polygon fill="#63b8ff" stroke="#63b8ff" points="530.5,-139.09 527,-129.09 523.5,-139.09 530.5,-139.09"/>
</a>
</g>
</g>
<!-- Node8&#45;&gt;Node2 -->
<g id="edge10_Node000008_Node000002" class="edge">
<title>Node8&#45;&gt;Node2</title>
<g id="a_edge10_Node000008_Node000002"><a xlink:title=" ">
<path fill="none" stroke="#63b8ff" d="M257.24,-109.98C216.68,-100.84 152.11,-86.27 107.97,-76.32"/>
<polygon fill="#63b8ff" stroke="#63b8ff" points="108.58,-72.87 98.05,-74.08 107.04,-79.7 108.58,-72.87"/>
</a>
</g>
</g>
<!-- Node8&#45;&gt;Node4 -->
<g id="edge12_Node000008_Node000004" class="edge">
<title>Node8&#45;&gt;Node4</title>
<g id="a_edge12_Node000008_Node000004"><a xlink:title=" ">
<path fill="none" stroke="#63b8ff" d="M336.14,-112.12C404.22,-101.54 536.25,-80.98 577.25,-73.87"/>
<polygon fill="#63b8ff" stroke="#63b8ff" points="578.1,-77.28 587.31,-72.04 576.85,-70.39 578.1,-77.28"/>
</a>
</g>
</g>
<!-- Node8&#45;&gt;Node5 -->
<g id="edge15_Node000008_Node000005" class="edge">
<title>Node8&#45;&gt;Node5</title>
<g id="a_edge15_Node000008_Node000005"><a xlink:title=" ">
<path fill="none" stroke="#63b8ff" d="M336.35,-113.98C428.46,-103.92 649.5,-79.76 740.17,-69.85"/>
<polygon fill="#63b8ff" stroke="#63b8ff" points="740.75,-73.31 750.31,-68.74 739.99,-66.35 740.75,-73.31"/>
</a>
</g>
</g>
<!-- Node8&#45;&gt;Node7 -->
<g id="edge13_Node000008_Node000007" class="edge">
<title>Node8&#45;&gt;Node7</title>
<g id="a_edge13_Node000008_Node000007"><a xlink:title=" ">
<path fill="none" stroke="#63b8ff" d="M333.4,-109.98C375.84,-100.57 444.14,-85.43 489.04,-75.47"/>
<polygon fill="#63b8ff" stroke="#63b8ff" points="489.81,-78.89 498.81,-73.3 488.29,-72.05 489.81,-78.89"/>
</a>
</g>
</g>
<!-- Node9 -->
<g id="Node000009" class="node">
<title>Node9</title>
<g id="a_Node000009"><a xlink:title=" ">
<polygon fill="#e0e0e0" stroke="#999999" points="188,-74 138,-74 138,-55 188,-55 188,-74"/>
<text text-anchor="middle" x="163" y="-62" font-family="Helvetica,sans-Serif" font-size="10.00">QLineF</text>
</a>
</g>
</g>
<!-- Node8&#45;&gt;Node9 -->
<g id="edge11_Node000008_Node000009" class="edge">
<title>Node8&#45;&gt;Node9</title>
<g id="a_edge11_Node000008_Node000009"><a xlink:title=" ">
<path fill="none" stroke="#63b8ff" d="M273.79,-109.98C252.27,-101.34 218.72,-87.87 194.17,-78.02"/>
<polygon fill="#63b8ff" stroke="#63b8ff" points="195.18,-74.65 184.59,-74.17 192.57,-81.14 195.18,-74.65"/>
</a>
</g>
</g>
<!-- Node10 -->
<g id="Node000010" class="node">
<title>Node10</title>
<g id="a_Node000010"><a xlink:title=" ">
<polygon fill="#e0e0e0" stroke="#999999" points="235.5,-74 206.5,-74 206.5,-55 235.5,-55 235.5,-74"/>
<text text-anchor="middle" x="221" y="-62" font-family="Helvetica,sans-Serif" font-size="10.00">Qt</text>
</a>
</g>
</g>
<!-- Node8&#45;&gt;Node10 -->
<g id="edge14_Node000008_Node000010" class="edge">
<title>Node8&#45;&gt;Node10</title>
<g id="a_edge14_Node000008_Node000010"><a xlink:title=" ">
<path fill="none" stroke="#63b8ff" d="M283.11,-109.98C271.85,-101.92 254.71,-89.65 241.29,-80.03"/>
<polygon fill="#63b8ff" stroke="#63b8ff" points="243.27,-77.15 233.11,-74.17 239.2,-82.84 243.27,-77.15"/>
</a>
</g>
</g>
<!-- Node11 -->
<g id="Node000011" class="node">
<title>Node11</title>
<g id="a_Node000011"><a xlink:title=" ">
<polygon fill="#e0e0e0" stroke="#999999" points="310,-74 254,-74 254,-55 310,-55 310,-74"/>
<text text-anchor="middle" x="282" y="-62" font-family="Helvetica,sans-Serif" font-size="10.00">QPrinter</text>
</a>
</g>
</g>
<!-- Node8&#45;&gt;Node11 -->
<g id="edge16_Node000008_Node000011" class="edge">
<title>Node8&#45;&gt;Node11</title>
<g id="a_edge16_Node000008_Node000011"><a xlink:title=" ">
<path fill="none" stroke="#63b8ff" d="M292.85,-109.75C291.13,-102.72 288.65,-92.62 286.5,-83.84"/>
<polygon fill="#63b8ff" stroke="#63b8ff" points="289.89,-82.97 284.11,-74.09 283.09,-84.63 289.89,-82.97"/>
</a>
</g>
</g>
<!-- Node12 -->
<g id="Node000012" class="node">
<title>Node12</title>
<g id="a_Node000012"><a xlink:title=" ">
<polygon fill="#e0e0e0" stroke="#999999" points="379.5,-74 328.5,-74 328.5,-55 379.5,-55 379.5,-74"/>
<text text-anchor="middle" x="354" y="-62" font-family="Helvetica,sans-Serif" font-size="10.00">csignal</text>
</a>
</g>
</g>
<!-- Node8&#45;&gt;Node12 -->
<g id="edge17_Node000008_Node000012" class="edge">
<title>Node8&#45;&gt;Node12</title>
<g id="a_edge17_Node000008_Node000012"><a xlink:title=" ">
<path fill="none" stroke="#63b8ff" d="M304.48,-109.98C313.2,-102.15 326.34,-90.34 336.9,-80.86"/>
<polygon fill="#63b8ff" stroke="#63b8ff" points="339.25,-83.46 344.35,-74.17 334.57,-78.25 339.25,-83.46"/>
</a>
</g>
</g>
<!-- Node13 -->
<g id="Node000013" class="node">
<title>Node13</title>
<g id="a_Node000013"><a xlink:href="../../d4/d82/debugbreak_8h.html" target="_top" xlink:title=" ">
<polygon fill="white" stroke="#666666" points="480.5,-74 397.5,-74 397.5,-55 480.5,-55 480.5,-74"/>
<text text-anchor="middle" x="439" y="-62" font-family="Helvetica,sans-Serif" font-size="10.00">debugbreak.h</text>
</a>
</g>
</g>
<!-- Node8&#45;&gt;Node13 -->
<g id="edge18_Node000008_Node000013" class="edge">
<title>Node8&#45;&gt;Node13</title>
<g id="a_edge18_Node000008_Node000013"><a xlink:title=" ">
<path fill="none" stroke="#63b8ff" d="M318.14,-109.98C341.82,-101.27 378.87,-87.63 405.71,-77.75"/>
<polygon fill="#63b8ff" stroke="#63b8ff" points="407.27,-80.91 415.44,-74.17 404.85,-74.34 407.27,-80.91"/>
</a>
</g>
</g>
<!-- Node14 -->
<g id="Node000014" class="node">
<title>Node14</title>
<g id="a_Node000014"><a xlink:title=" ">
<polygon fill="#e0e0e0" stroke="#999999" points="466.5,-19 411.5,-19 411.5,0 466.5,0 466.5,-19"/>
<text text-anchor="middle" x="439" y="-7" font-family="Helvetica,sans-Serif" font-size="10.00">signal.h</text>
</a>
</g>
</g>
<!-- Node13&#45;&gt;Node14 -->
<g id="edge19_Node000013_Node000014" class="edge">
<title>Node13&#45;&gt;Node14</title>
<g id="a_edge19_Node000013_Node000014"><a xlink:title=" ">
<path fill="none" stroke="#63b8ff" d="M439,-54.75C439,-47.8 439,-37.85 439,-29.13"/>
<polygon fill="#63b8ff" stroke="#63b8ff" points="442.5,-29.09 439,-19.09 435.5,-29.09 442.5,-29.09"/>
</a>
</g>
</g>
<!-- Node15&#45;&gt;Node5 -->
<g id="edge21_Node000015_Node000005" class="edge">
<title>Node15&#45;&gt;Node5</title>
<g id="a_edge21_Node000015_Node000005"><a xlink:title=" ">
<path fill="none" stroke="#63b8ff" d="M567.65,-109.98C615.15,-100.03 693.22,-83.68 740.31,-73.82"/>
<polygon fill="#63b8ff" stroke="#63b8ff" points="741.08,-77.23 750.15,-71.75 739.64,-70.38 741.08,-77.23"/>
</a>
</g>
</g>
<!-- Node16&#45;&gt;Node2 -->
<g id="edge23_Node000016_Node000002" class="edge">
<title>Node16&#45;&gt;Node2</title>
<g id="a_edge23_Node000016_Node000002"><a xlink:title=" ">
<path fill="none" stroke="#63b8ff" d="M767.93,-223.56C702.12,-216.57 581.74,-202.58 480,-184 374.48,-164.73 348.08,-158.67 245,-129 190.71,-113.37 128.86,-91.24 92.2,-77.66"/>
<polygon fill="#63b8ff" stroke="#63b8ff" points="93.14,-74.27 82.55,-74.06 90.7,-80.83 93.14,-74.27"/>
</a>
</g>
</g>
<!-- Node16&#45;&gt;Node3 -->
<g id="edge25_Node000016_Node000003" class="edge">
<title>Node16&#45;&gt;Node3</title>
<g id="a_edge25_Node000016_Node000003"><a xlink:title=" ">
<path fill="none" stroke="#63b8ff" d="M866.34,-221.5C903.08,-215.03 953.8,-203.42 995,-184 1021.3,-171.6 1047.63,-150.59 1064.09,-136.16"/>
<polygon fill="#63b8ff" stroke="#63b8ff" points="1066.64,-138.57 1071.75,-129.29 1061.97,-133.36 1066.64,-138.57"/>
</a>
</g>
</g>
<!-- Node16&#45;&gt;Node4 -->
<g id="edge26_Node000016_Node000004" class="edge">
<title>Node16&#45;&gt;Node4</title>
<g id="a_edge26_Node000016_Node000004"><a xlink:title=" ">
<path fill="none" stroke="#63b8ff" d="M767.87,-223.51C717.64,-217.33 644.44,-204.96 626,-184 601.73,-156.41 605.37,-110.02 609.87,-84.23"/>
<polygon fill="#63b8ff" stroke="#63b8ff" points="613.34,-84.75 611.84,-74.26 606.47,-83.4 613.34,-84.75"/>
</a>
</g>
</g>
<!-- Node16&#45;&gt;Node5 -->
<g id="edge29_Node000016_Node000005" class="edge">
<title>Node16&#45;&gt;Node5</title>
<g id="a_edge29_Node000016_Node000005"><a xlink:title=" ">
<path fill="none" stroke="#63b8ff" d="M827.44,-219.87C836.42,-211.7 848.74,-198.55 854,-184 856.87,-176.06 856.51,-173.06 854,-165 843.44,-131.14 815.82,-99.65 797.47,-81.5"/>
<polygon fill="#63b8ff" stroke="#63b8ff" points="799.43,-78.53 789.79,-74.14 794.59,-83.59 799.43,-78.53"/>
</a>
</g>
</g>
<!-- Node16&#45;&gt;Node6 -->
<g id="edge30_Node000016_Node000006" class="edge">
<title>Node16&#45;&gt;Node6</title>
<g id="a_edge30_Node000016_Node000006"><a xlink:title=" ">
<path fill="none" stroke="#63b8ff" d="M770.41,-219.98C717.01,-210.23 629.9,-194.31 575.65,-184.39"/>
<polygon fill="#63b8ff" stroke="#63b8ff" points="576.06,-180.91 565.59,-182.55 574.8,-187.79 576.06,-180.91"/>
</a>
</g>
</g>
<!-- Node17 -->
<g id="Node000017" class="node">
<title>Node17</title>
<g id="a_Node000017"><a xlink:title=" ">
<polygon fill="#e0e0e0" stroke="#999999" points="844.5,-184 789.5,-184 789.5,-165 844.5,-165 844.5,-184"/>
<text text-anchor="middle" x="817" y="-172" font-family="Helvetica,sans-Serif" font-size="10.00">QPointF</text>
</a>
</g>
</g>
<!-- Node16&#45;&gt;Node17 -->
<g id="edge24_Node000016_Node000017" class="edge">
<title>Node16&#45;&gt;Node17</title>
<g id="a_edge24_Node000016_Node000017"><a xlink:title=" ">
<path fill="none" stroke="#63b8ff" d="M817,-219.75C817,-212.8 817,-202.85 817,-194.13"/>
<polygon fill="#63b8ff" stroke="#63b8ff" points="820.5,-194.09 817,-184.09 813.5,-194.09 820.5,-194.09"/>
</a>
</g>
</g>
<!-- Node18 -->
<g id="Node000018" class="node">
<title>Node18</title>
<g id="a_Node000018"><a xlink:title=" ">
<polygon fill="#e0e0e0" stroke="#999999" points="1004.5,-129 939.5,-129 939.5,-110 1004.5,-110 1004.5,-129"/>
<text text-anchor="middle" x="972" y="-117" font-family="Helvetica,sans-Serif" font-size="10.00">QTypeInfo</text>
</a>
</g>
</g>
<!-- Node16&#45;&gt;Node18 -->
<g id="edge27_Node000016_Node000018" class="edge">
<title>Node16&#45;&gt;Node18</title>
<g id="a_edge27_Node000016_Node000018"><a xlink:title=" ">
<path fill="none" stroke="#63b8ff" d="M866.05,-221.54C908.24,-214.42 964.39,-201.88 978,-184 987.73,-171.22 984.51,-152.54 979.89,-138.75"/>
<polygon fill="#63b8ff" stroke="#63b8ff" points="983.12,-137.41 976.27,-129.33 976.59,-139.92 983.12,-137.41"/>
</a>
</g>
</g>
<!-- Node19 -->
<g id="Node000019" class="node">
<title>Node19</title>
<g id="a_Node000019"><a xlink:title=" ">
<polygon fill="#e0e0e0" stroke="#999999" points="806.5,-129 751.5,-129 751.5,-110 806.5,-110 806.5,-129"/>
<text text-anchor="middle" x="779" y="-117" font-family="Helvetica,sans-Serif" font-size="10.00">QVector</text>
</a>
</g>
</g>
<!-- Node16&#45;&gt;Node19 -->
<g id="edge28_Node000016_Node000019" class="edge">
<title>Node16&#45;&gt;Node19</title>
<g id="a_edge28_Node000016_Node000019"><a xlink:title=" ">
<path fill="none" stroke="#63b8ff" d="M806.95,-219.77C798.28,-211.53 786.33,-198.34 781,-184 775.65,-169.61 775.53,-152.09 776.53,-139.1"/>
<polygon fill="#63b8ff" stroke="#63b8ff" points="780.02,-139.36 777.6,-129.05 773.06,-138.62 780.02,-139.36"/>
</a>
</g>
</g>
<!-- Node20 -->
<g id="Node000020" class="node">
<title>Node20</title>
<g id="a_Node000020"><a xlink:href="../../db/db3/vmath_8h.html" target="_top" xlink:title=" ">
<polygon fill="white" stroke="#666666" points="733,-184 635,-184 635,-165 733,-165 733,-184"/>
<text text-anchor="middle" x="684" y="-172" font-family="Helvetica,sans-Serif" font-size="10.00">../vmisc/vmath.h</text>
</a>
</g>
</g>
<!-- Node16&#45;&gt;Node20 -->
<g id="edge31_Node000016_Node000020" class="edge">
<title>Node16&#45;&gt;Node20</title>
<g id="a_edge31_Node000016_Node000020"><a xlink:title=" ">
<path fill="none" stroke="#63b8ff" d="M795.63,-219.98C773.85,-211.3 739.84,-197.75 715.08,-187.88"/>
<polygon fill="#63b8ff" stroke="#63b8ff" points="716.34,-184.62 705.76,-184.17 713.75,-191.12 716.34,-184.62"/>
</a>
</g>
</g>
<!-- Node16&#45;&gt;Node22 -->
<g id="edge33_Node000016_Node000022" class="edge">
<title>Node16&#45;&gt;Node22</title>
<g id="a_edge33_Node000016_Node000022"><a xlink:title=" ">
<path fill="none" stroke="#63b8ff" d="M865.11,-219.96C907.34,-212.04 970.23,-199.2 1024,-184 1077.34,-168.92 1137.83,-146.44 1173.34,-132.66"/>
<polygon fill="#63b8ff" stroke="#63b8ff" points="1174.63,-135.92 1182.67,-129.02 1172.09,-129.4 1174.63,-135.92"/>
</a>
</g>
</g>
<!-- Node23 -->
<g id="Node000023" class="node">
<title>Node23</title>
<g id="a_Node000023"><a xlink:href="../../d2/d07/vgobject_8h.html" target="_top" xlink:title=" ">
<polygon fill="white" stroke="#666666" points="969,-184 901,-184 901,-165 969,-165 969,-184"/>
<text text-anchor="middle" x="935" y="-172" font-family="Helvetica,sans-Serif" font-size="10.00">vgobject.h</text>
</a>
</g>
</g>
<!-- Node16&#45;&gt;Node23 -->
<g id="edge34_Node000016_Node000023" class="edge">
<title>Node16&#45;&gt;Node23</title>
<g id="a_edge34_Node000016_Node000023"><a xlink:title=" ">
<path fill="none" stroke="#63b8ff" d="M835.96,-219.98C855.03,-211.42 884.66,-198.11 906.55,-188.28"/>
<polygon fill="#63b8ff" stroke="#63b8ff" points="908.01,-191.46 915.7,-184.17 905.14,-185.07 908.01,-191.46"/>
</a>
</g>
</g>
<!-- Node21 -->
<g id="Node000021" class="node">
<title>Node21</title>
<g id="a_Node000021"><a xlink:title=" ">
<polygon fill="#e0e0e0" stroke="#999999" points="733.5,-129 680.5,-129 680.5,-110 733.5,-110 733.5,-129"/>
<text text-anchor="middle" x="707" y="-117" font-family="Helvetica,sans-Serif" font-size="10.00">QtMath</text>
</a>
</g>
</g>
<!-- Node20&#45;&gt;Node21 -->
<g id="edge32_Node000020_Node000021" class="edge">
<title>Node20&#45;&gt;Node21</title>
<g id="a_edge32_Node000020_Node000021"><a xlink:title=" ">
<path fill="none" stroke="#63b8ff" d="M687.8,-164.75C690.91,-157.57 695.42,-147.18 699.29,-138.27"/>
<polygon fill="#63b8ff" stroke="#63b8ff" points="702.5,-139.66 703.27,-129.09 696.08,-136.87 702.5,-139.66"/>
</a>
</g>
</g>
<!-- Node23&#45;&gt;Node3 -->
<g id="edge35_Node000023_Node000003" class="edge">
<title>Node23&#45;&gt;Node3</title>
<g id="a_edge35_Node000023_Node000003"><a xlink:title=" ">
<path fill="none" stroke="#63b8ff" d="M958.46,-164.98C982.58,-156.23 1020.37,-142.51 1047.6,-132.62"/>
<polygon fill="#63b8ff" stroke="#63b8ff" points="1048.91,-135.87 1057.12,-129.17 1046.52,-129.29 1048.91,-135.87"/>
</a>
</g>
</g>
<!-- Node23&#45;&gt;Node4 -->
<g id="edge36_Node000023_Node000004" class="edge">
<title>Node23&#45;&gt;Node4</title>
<g id="a_edge36_Node000023_Node000004"><a xlink:title=" ">
<path fill="none" stroke="#63b8ff" d="M921.65,-164.8C900.21,-151.19 856.42,-124.92 816,-110 760.21,-89.41 692.08,-76.84 650.92,-70.53"/>
<polygon fill="#63b8ff" stroke="#63b8ff" points="651.21,-67.03 640.81,-69.02 650.18,-73.96 651.21,-67.03"/>
</a>
</g>
</g>
<!-- Node23&#45;&gt;Node5 -->
<g id="edge39_Node000023_Node000005" class="edge">
<title>Node23&#45;&gt;Node5</title>
<g id="a_edge39_Node000023_Node000005"><a xlink:title=" ">
<path fill="none" stroke="#63b8ff" d="M930.52,-164.95C923.11,-151.56 907.11,-125.57 887,-110 867.09,-94.58 841.06,-83.6 819.67,-76.41"/>
<polygon fill="#63b8ff" stroke="#63b8ff" points="820.49,-72.99 809.89,-73.27 818.35,-79.66 820.49,-72.99"/>
</a>
</g>
</g>
<!-- Node23&#45;&gt;Node18 -->
<g id="edge37_Node000023_Node000018" class="edge">
<title>Node23&#45;&gt;Node18</title>
<g id="a_edge37_Node000023_Node000018"><a xlink:title=" ">
<path fill="none" stroke="#63b8ff" d="M941.11,-164.75C946.28,-157.34 953.85,-146.5 960.19,-137.41"/>
<polygon fill="#63b8ff" stroke="#63b8ff" points="963.15,-139.29 966,-129.09 957.41,-135.29 963.15,-139.29"/>
</a>
</g>
</g>
<!-- Node23&#45;&gt;Node19 -->
<g id="edge38_Node000023_Node000019" class="edge">
<title>Node23&#45;&gt;Node19</title>
<g id="a_edge38_Node000023_Node000019"><a xlink:title=" ">
<path fill="none" stroke="#63b8ff" d="M909.94,-164.98C883.97,-156.16 843.19,-142.31 814.04,-132.41"/>
<polygon fill="#63b8ff" stroke="#63b8ff" points="814.85,-128.99 804.26,-129.08 812.6,-135.61 814.85,-128.99"/>
</a>
</g>
</g>
<!-- Node23&#45;&gt;Node22 -->
<g id="edge40_Node000023_Node000022" class="edge">
<title>Node23&#45;&gt;Node22</title>
<g id="a_edge40_Node000023_Node000022"><a xlink:title=" ">
<path fill="none" stroke="#63b8ff" d="M969.07,-166.79C1014.76,-157.79 1096.37,-141.71 1150.35,-131.07"/>
<polygon fill="#63b8ff" stroke="#63b8ff" points="1151.29,-134.45 1160.43,-129.09 1149.94,-127.58 1151.29,-134.45"/>
</a>
</g>
</g>
</g>
</svg>
