<?xml version="1.0" encoding="UTF-8" standalone="no"?>
<!DOCTYPE svg PUBLIC "-//W3C//DTD SVG 1.1//EN"
 "http://www.w3.org/Graphics/SVG/1.1/DTD/svg11.dtd">
<!-- Generated by graphviz version 2.43.0 (0)
 -->
<!-- Title: src/libs/vgeometry/vcubicbezierpath.h Pages: 1 -->
<!--zoomable 423 -->

<svg id="main" version="1.1" xmlns="http://www.w3.org/2000/svg" xmlns:xlink="http://www.w3.org/1999/xlink" xml:space="preserve" onload="init(evt)">
<style type="text/css"><![CDATA[
.node, .edge {opacity: 0.7;}
.node.selected, .edge.selected {opacity: 1;}
.edge:hover path { stroke: red; }
.edge:hover polygon { stroke: red; fill: red; }
]]></style>

<defs>
  <circle id="rim" cx="0" cy="0" r="7"/>
  <circle id="rim2" cx="0" cy="0" r="3.5"/>
  <g id="zoomPlus">
    <use xlink:href="#rim" fill="#404040"><set attributeName="fill" to="#808080" begin="zoomplus.mouseover" end="zoomplus.mouseout"/></use>
    <path d="M-4,0h8M0,-4v8" fill="none" stroke="white" stroke-width="1.5" pointer-events="none"/>
  </g>
  <g id="zoomMin">
    <use xlink:href="#rim" fill="#404040"><set attributeName="fill" to="#808080" begin="zoomminus.mouseover" end="zoomminus.mouseout"/></use>
    <path d="M-4,0h8" fill="none" stroke="white" stroke-width="1.5" pointer-events="none"/>
  </g>
  <g id="arrowUp" transform="translate(30 24)">
    <use xlink:href="#rim"/>
    <path pointer-events="none" fill="none" stroke="white" stroke-width="1.5" d="M0,-3.0v7 M-2.5,-0.5L0,-3.0L2.5,-0.5"/>
  </g>
  <g id="arrowRight" transform="rotate(90) translate(36 -43)">
    <use xlink:href="#rim"/>
    <path pointer-events="none" fill="none" stroke="white" stroke-width="1.5" d="M0,-3.0v7 M-2.5,-0.5L0,-3.0L2.5,-0.5"/>
  </g>
  <g id="arrowDown" transform="rotate(180) translate(-30 -48)">
    <use xlink:href="#rim"/>
    <path pointer-events="none" fill="none" stroke="white" stroke-width="1.5" d="M0,-3.0v7 M-2.5,-0.5L0,-3.0L2.5,-0.5"/>
  </g>
  <g id="arrowLeft" transform="rotate(270) translate(-36 17)">
    <use xlink:href="#rim"/>
    <path pointer-events="none" fill="none" stroke="white" stroke-width="1.5" d="M0,-3.0v7 M-2.5,-0.5L0,-3.0L2.5,-0.5"/>
  </g>
  <g id="resetDef">
    <use xlink:href="#rim2" fill="#404040"><set attributeName="fill" to="#808080" begin="reset.mouseover" end="reset.mouseout"/></use>
  </g>
</defs>
<script type="application/ecmascript">
var viewWidth = 1526;
var viewHeight = 423;
var sectionId = 'dynsection-0';
</script>
<script type="application/ecmascript" xlink:href="../../svg.min.js"/>
<svg id="graph" class="graph">
<g id="viewport">
<title>src/libs/vgeometry/vcubicbezierpath.h</title>
<!-- Node1 -->
<g id="Node000001" class="node">
<title>Node1</title>
<g id="a_Node000001"><a xlink:title=" ">
<polygon fill="#999999" stroke="#666666" points="869,-415 757,-415 757,-385 869,-385 869,-415"/>
<text text-anchor="start" x="765" y="-403" font-family="Helvetica,sans-Serif" font-size="10.00">src/libs/vgeometry</text>
<text text-anchor="middle" x="813" y="-392" font-family="Helvetica,sans-Serif" font-size="10.00">/vcubicbezierpath.h</text>
</a>
</g>
</g>
<!-- Node2 -->
<g id="Node000002" class="node">
<title>Node2</title>
<g id="a_Node000002"><a xlink:title=" ">
<polygon fill="#e0e0e0" stroke="#999999" points="871,-74 751,-74 751,-55 871,-55 871,-74"/>
<text text-anchor="middle" x="811" y="-62" font-family="Helvetica,sans-Serif" font-size="10.00">qcompilerdetection.h</text>
</a>
</g>
</g>
<!-- Node1&#45;&gt;Node2 -->
<g id="edge1_Node000001_Node000002" class="edge">
<title>Node1&#45;&gt;Node2</title>
<g id="a_edge1_Node000001_Node000002"><a xlink:title=" ">
<path fill="none" stroke="#63b8ff" d="M756.94,-399.09C678.1,-395.94 544,-377.12 544,-285.5 544,-285.5 544,-285.5 544,-228.5 544,-199.04 543.14,-186.75 563,-165 578.11,-148.46 711.61,-100.23 776.24,-77.55"/>
<polygon fill="#63b8ff" stroke="#63b8ff" points="777.71,-80.74 786,-74.14 775.4,-74.14 777.71,-80.74"/>
</a>
</g>
</g>
<!-- Node3 -->
<g id="Node000003" class="node">
<title>Node3</title>
<g id="a_Node000003"><a xlink:title=" ">
<polygon fill="#e0e0e0" stroke="#999999" points="205.5,-294 104.5,-294 104.5,-275 205.5,-275 205.5,-294"/>
<text text-anchor="middle" x="155" y="-282" font-family="Helvetica,sans-Serif" font-size="10.00">QCoreApplication</text>
</a>
</g>
</g>
<!-- Node1&#45;&gt;Node3 -->
<g id="edge2_Node000001_Node000003" class="edge">
<title>Node1&#45;&gt;Node3</title>
<g id="a_edge2_Node000001_Node000003"><a xlink:title=" ">
<path fill="none" stroke="#63b8ff" d="M756.9,-396.29C670.61,-391.35 500.47,-378.52 359,-349 296.91,-336.04 226.74,-312.06 186.99,-297.57"/>
<polygon fill="#63b8ff" stroke="#63b8ff" points="188.16,-294.27 177.57,-294.1 185.74,-300.84 188.16,-294.27"/>
</a>
</g>
</g>
<!-- Node4 -->
<g id="Node000004" class="node">
<title>Node4</title>
<g id="a_Node000004"><a xlink:title=" ">
<polygon fill="#e0e0e0" stroke="#999999" points="857.5,-184 802.5,-184 802.5,-165 857.5,-165 857.5,-184"/>
<text text-anchor="middle" x="830" y="-172" font-family="Helvetica,sans-Serif" font-size="10.00">QPointF</text>
</a>
</g>
</g>
<!-- Node1&#45;&gt;Node4 -->
<g id="edge3_Node000001_Node000004" class="edge">
<title>Node1&#45;&gt;Node4</title>
<g id="a_edge3_Node000001_Node000004"><a xlink:title=" ">
<path fill="none" stroke="#63b8ff" d="M814.09,-384.68C817.05,-345.76 825.24,-238.07 828.57,-194.33"/>
<polygon fill="#63b8ff" stroke="#63b8ff" points="832.07,-194.47 829.34,-184.23 825.09,-193.94 832.07,-194.47"/>
</a>
</g>
</g>
<!-- Node5 -->
<g id="Node000005" class="node">
<title>Node5</title>
<g id="a_Node000005"><a xlink:title=" ">
<polygon fill="#e0e0e0" stroke="#999999" points="944,-129 828,-129 828,-110 944,-110 944,-129"/>
<text text-anchor="middle" x="886" y="-117" font-family="Helvetica,sans-Serif" font-size="10.00">QSharedDataPointer</text>
</a>
</g>
</g>
<!-- Node1&#45;&gt;Node5 -->
<g id="edge4_Node000001_Node000005" class="edge">
<title>Node1&#45;&gt;Node5</title>
<g id="a_edge4_Node000001_Node000005"><a xlink:title=" ">
<path fill="none" stroke="#63b8ff" d="M818.62,-384.7C822.4,-374.77 827.35,-361.2 831,-349 854.01,-272.15 874.11,-178.58 882.21,-139.29"/>
<polygon fill="#63b8ff" stroke="#63b8ff" points="885.67,-139.81 884.24,-129.31 878.81,-138.41 885.67,-139.81"/>
</a>
</g>
</g>
<!-- Node6 -->
<g id="Node000006" class="node">
<title>Node6</title>
<g id="a_Node000006"><a xlink:title=" ">
<polygon fill="#e0e0e0" stroke="#999999" points="1036.5,-74 983.5,-74 983.5,-55 1036.5,-55 1036.5,-74"/>
<text text-anchor="middle" x="1010" y="-62" font-family="Helvetica,sans-Serif" font-size="10.00">QString</text>
</a>
</g>
</g>
<!-- Node1&#45;&gt;Node6 -->
<g id="edge5_Node000001_Node000006" class="edge">
<title>Node1&#45;&gt;Node6</title>
<g id="a_edge5_Node000001_Node000006"><a xlink:title=" ">
<path fill="none" stroke="#63b8ff" d="M869.33,-399.36C969.93,-398.81 1186.5,-392.14 1363,-349 1435.32,-331.32 1518,-359.95 1518,-285.5 1518,-285.5 1518,-285.5 1518,-173.5 1518,-77.1 1163.6,-66.39 1046.82,-65.48"/>
<polygon fill="#63b8ff" stroke="#63b8ff" points="1046.62,-61.98 1036.6,-65.42 1046.58,-68.98 1046.62,-61.98"/>
</a>
</g>
</g>
<!-- Node7 -->
<g id="Node000007" class="node">
<title>Node7</title>
<g id="a_Node000007"><a xlink:title=" ">
<polygon fill="#e0e0e0" stroke="#999999" points="1215.5,-129 1150.5,-129 1150.5,-110 1215.5,-110 1215.5,-129"/>
<text text-anchor="middle" x="1183" y="-117" font-family="Helvetica,sans-Serif" font-size="10.00">QTypeInfo</text>
</a>
</g>
</g>
<!-- Node1&#45;&gt;Node7 -->
<g id="edge6_Node000001_Node000007" class="edge">
<title>Node1&#45;&gt;Node7</title>
<g id="a_edge6_Node000001_Node000007"><a xlink:title=" ">
<path fill="none" stroke="#63b8ff" d="M869.18,-399.15C987.26,-398.57 1256.81,-392.39 1336,-349 1408.79,-309.11 1426.07,-224.31 1368,-165 1348.46,-145.04 1274.02,-132.03 1225.73,-125.5"/>
<polygon fill="#63b8ff" stroke="#63b8ff" points="1225.93,-122 1215.56,-124.17 1225.02,-128.94 1225.93,-122"/>
</a>
</g>
</g>
<!-- Node8 -->
<g id="Node000008" class="node">
<title>Node8</title>
<g id="a_Node000008"><a xlink:title=" ">
<polygon fill="#e0e0e0" stroke="#999999" points="121.5,-129 66.5,-129 66.5,-110 121.5,-110 121.5,-129"/>
<text text-anchor="middle" x="94" y="-117" font-family="Helvetica,sans-Serif" font-size="10.00">QVector</text>
</a>
</g>
</g>
<!-- Node1&#45;&gt;Node8 -->
<g id="edge7_Node000001_Node000008" class="edge">
<title>Node1&#45;&gt;Node8</title>
<g id="a_edge7_Node000001_Node000008"><a xlink:title=" ">
<path fill="none" stroke="#63b8ff" d="M756.7,-396.26C584.41,-387.12 76,-354.32 76,-285.5 76,-285.5 76,-285.5 76,-228.5 76,-196.61 83.73,-160.14 89.06,-138.78"/>
<polygon fill="#63b8ff" stroke="#63b8ff" points="92.45,-139.66 91.57,-129.1 85.67,-137.9 92.45,-139.66"/>
</a>
</g>
</g>
<!-- Node9 -->
<g id="Node000009" class="node">
<title>Node9</title>
<g id="a_Node000009"><a xlink:title=" ">
<polygon fill="#e0e0e0" stroke="#999999" points="255.5,-74 196.5,-74 196.5,-55 255.5,-55 255.5,-74"/>
<text text-anchor="middle" x="226" y="-62" font-family="Helvetica,sans-Serif" font-size="10.00">QtGlobal</text>
</a>
</g>
</g>
<!-- Node1&#45;&gt;Node9 -->
<g id="edge8_Node000001_Node000009" class="edge">
<title>Node1&#45;&gt;Node9</title>
<g id="a_edge8_Node000001_Node000009"><a xlink:title=" ">
<path fill="none" stroke="#63b8ff" d="M756.87,-396.8C620.64,-391.13 275.42,-374.63 163,-349 87.2,-331.72 0,-363.25 0,-285.5 0,-285.5 0,-285.5 0,-173.5 0,-91.94 121.31,-71.92 186.18,-67.04"/>
<polygon fill="#63b8ff" stroke="#63b8ff" points="186.71,-70.51 196.45,-66.36 186.24,-63.53 186.71,-70.51"/>
</a>
</g>
</g>
<!-- Node10 -->
<g id="Node000010" class="node">
<title>Node10</title>
<g id="a_Node000010"><a xlink:href="../../db/d83/vabstractcubicbezierpath_8h.html" target="_top" xlink:title=" ">
<polygon fill="white" stroke="#666666" points="516.5,-349 367.5,-349 367.5,-330 516.5,-330 516.5,-349"/>
<text text-anchor="middle" x="442" y="-337" font-family="Helvetica,sans-Serif" font-size="10.00">vabstractcubicbezierpath.h</text>
</a>
</g>
</g>
<!-- Node1&#45;&gt;Node10 -->
<g id="edge9_Node000001_Node000010" class="edge">
<title>Node1&#45;&gt;Node10</title>
<g id="a_edge9_Node000001_Node000010"><a xlink:title=" ">
<path fill="none" stroke="#63b8ff" d="M756.65,-390.12C689.32,-379.5 576.92,-361.77 506.27,-350.63"/>
<polygon fill="#63b8ff" stroke="#63b8ff" points="506.58,-347.14 496.16,-349.04 505.49,-354.05 506.58,-347.14"/>
</a>
</g>
</g>
<!-- Node25 -->
<g id="Node000025" class="node">
<title>Node25</title>
<g id="a_Node000025"><a xlink:href="../../d5/d9d/vgeometrydef_8h.html" target="_top" xlink:title=" ">
<polygon fill="white" stroke="#666666" points="1132,-129 1038,-129 1038,-110 1132,-110 1132,-129"/>
<text text-anchor="middle" x="1085" y="-117" font-family="Helvetica,sans-Serif" font-size="10.00">vgeometrydef.h</text>
</a>
</g>
</g>
<!-- Node1&#45;&gt;Node25 -->
<g id="edge54_Node000001_Node000025" class="edge">
<title>Node1&#45;&gt;Node25</title>
<g id="a_edge54_Node000001_Node000025"><a xlink:title=" ">
<path fill="none" stroke="#63b8ff" d="M869.07,-399.25C1009.66,-398.37 1366,-386.2 1366,-285.5 1366,-285.5 1366,-285.5 1366,-228.5 1366,-199.04 1369.07,-184.52 1347,-165 1343.16,-161.6 1217.98,-141.41 1142.07,-129.43"/>
<polygon fill="#63b8ff" stroke="#63b8ff" points="1142.58,-125.96 1132.15,-127.86 1141.49,-132.88 1142.58,-125.96"/>
</a>
</g>
</g>
<!-- Node27 -->
<g id="Node000027" class="node">
<title>Node27</title>
<g id="a_Node000027"><a xlink:href="../../d1/d48/vpointf_8h.html" target="_top" xlink:title=" ">
<polygon fill="white" stroke="#666666" points="1172.5,-239 1113.5,-239 1113.5,-220 1172.5,-220 1172.5,-239"/>
<text text-anchor="middle" x="1143" y="-227" font-family="Helvetica,sans-Serif" font-size="10.00">vpointf.h</text>
</a>
</g>
</g>
<!-- Node1&#45;&gt;Node27 -->
<g id="edge55_Node000001_Node000027" class="edge">
<title>Node1&#45;&gt;Node27</title>
<g id="a_edge55_Node000001_Node000027"><a xlink:title=" ">
<path fill="none" stroke="#63b8ff" d="M840.57,-384.92C903.35,-352.86 1056.26,-274.79 1117.26,-243.64"/>
<polygon fill="#63b8ff" stroke="#63b8ff" points="1118.92,-246.73 1126.23,-239.06 1115.73,-240.49 1118.92,-246.73"/>
</a>
</g>
</g>
<!-- Node10&#45;&gt;Node2 -->
<g id="edge10_Node000010_Node000002" class="edge">
<title>Node10&#45;&gt;Node2</title>
<g id="a_edge10_Node000010_Node000002"><a xlink:title=" ">
<path fill="none" stroke="#63b8ff" d="M430.97,-329.73C417.3,-317.73 396.85,-295.34 406,-275 436.21,-207.81 469.13,-206.5 530,-165 552.25,-149.83 612.81,-119.52 638,-110 676.81,-95.33 722.31,-83.84 756.9,-76.21"/>
<polygon fill="#63b8ff" stroke="#63b8ff" points="757.78,-79.6 766.81,-74.07 756.3,-72.76 757.78,-79.6"/>
</a>
</g>
</g>
<!-- Node10&#45;&gt;Node3 -->
<g id="edge11_Node000010_Node000003" class="edge">
<title>Node10&#45;&gt;Node3</title>
<g id="a_edge11_Node000010_Node000003"><a xlink:title=" ">
<path fill="none" stroke="#63b8ff" d="M395.89,-329.98C345.72,-320.72 265.49,-305.9 211.56,-295.94"/>
<polygon fill="#63b8ff" stroke="#63b8ff" points="211.94,-292.46 201.47,-294.08 210.67,-299.34 211.94,-292.46"/>
</a>
</g>
</g>
<!-- Node10&#45;&gt;Node4 -->
<g id="edge12_Node000010_Node000004" class="edge">
<title>Node10&#45;&gt;Node4</title>
<g id="a_edge12_Node000010_Node000004"><a xlink:title=" ">
<path fill="none" stroke="#63b8ff" d="M487.99,-329.99C551.31,-316.95 667.57,-288.24 756,-239 778.75,-226.33 800.88,-205.96 814.92,-191.72"/>
<polygon fill="#63b8ff" stroke="#63b8ff" points="817.79,-193.78 822.19,-184.15 812.74,-188.93 817.79,-193.78"/>
</a>
</g>
</g>
<!-- Node10&#45;&gt;Node6 -->
<g id="edge13_Node000010_Node000006" class="edge">
<title>Node10&#45;&gt;Node6</title>
<g id="a_edge13_Node000010_Node000006"><a xlink:title=" ">
<path fill="none" stroke="#63b8ff" d="M516.7,-338.52C717.74,-336.74 1261.86,-319.31 1362,-184 1442.75,-74.89 1152.65,-65.1 1047.03,-65.06"/>
<polygon fill="#63b8ff" stroke="#63b8ff" points="1046.81,-61.56 1036.82,-65.09 1046.83,-68.56 1046.81,-61.56"/>
</a>
</g>
</g>
<!-- Node10&#45;&gt;Node8 -->
<g id="edge14_Node000010_Node000008" class="edge">
<title>Node10&#45;&gt;Node8</title>
<g id="a_edge14_Node000010_Node000008"><a xlink:title=" ">
<path fill="none" stroke="#63b8ff" d="M428.36,-329.95C375.42,-296.79 183.23,-176.4 116.79,-134.77"/>
<polygon fill="#63b8ff" stroke="#63b8ff" points="118.26,-131.57 107.93,-129.22 114.54,-137.5 118.26,-131.57"/>
</a>
</g>
</g>
<!-- Node10&#45;&gt;Node9 -->
<g id="edge15_Node000010_Node000009" class="edge">
<title>Node10&#45;&gt;Node9</title>
<g id="a_edge15_Node000010_Node000009"><a xlink:title=" ">
<path fill="none" stroke="#63b8ff" d="M397.42,-330C312.63,-311.12 130.05,-256.84 57,-129 28.47,-79.07 127.65,-68.09 186.13,-65.88"/>
<polygon fill="#63b8ff" stroke="#63b8ff" points="186.3,-69.38 196.19,-65.57 186.09,-62.38 186.3,-69.38"/>
</a>
</g>
</g>
<!-- Node11 -->
<g id="Node000011" class="node">
<title>Node11</title>
<g id="a_Node000011"><a xlink:href="../../d8/d94/vabstractbezier_8h.html" target="_top" xlink:title=" ">
<polygon fill="white" stroke="#666666" points="515.5,-294 414.5,-294 414.5,-275 515.5,-275 515.5,-294"/>
<text text-anchor="middle" x="465" y="-282" font-family="Helvetica,sans-Serif" font-size="10.00">vabstractbezier.h</text>
</a>
</g>
</g>
<!-- Node10&#45;&gt;Node11 -->
<g id="edge16_Node000010_Node000011" class="edge">
<title>Node10&#45;&gt;Node11</title>
<g id="a_edge16_Node000010_Node000011"><a xlink:title=" ">
<path fill="none" stroke="#63b8ff" d="M445.8,-329.75C448.91,-322.57 453.42,-312.18 457.29,-303.27"/>
<polygon fill="#63b8ff" stroke="#63b8ff" points="460.5,-304.66 461.27,-294.09 454.08,-301.87 460.5,-304.66"/>
</a>
</g>
</g>
<!-- Node10&#45;&gt;Node25 -->
<g id="edge53_Node000010_Node000025" class="edge">
<title>Node10&#45;&gt;Node25</title>
<g id="a_edge53_Node000010_Node000025"><a xlink:title=" ">
<path fill="none" stroke="#63b8ff" d="M516.34,-329.94C629.29,-314.45 848.2,-274.57 1011,-184 1033.75,-171.34 1055.88,-150.97 1069.92,-136.73"/>
<polygon fill="#63b8ff" stroke="#63b8ff" points="1072.79,-138.79 1077.19,-129.15 1067.74,-133.94 1072.79,-138.79"/>
</a>
</g>
</g>
<!-- Node11&#45;&gt;Node9 -->
<g id="edge17_Node000011_Node000009" class="edge">
<title>Node11&#45;&gt;Node9</title>
<g id="a_edge17_Node000011_Node000009"><a xlink:title=" ">
<path fill="none" stroke="#63b8ff" d="M441.17,-274.93C383.47,-254.01 239.84,-200.8 224,-184 200.71,-159.29 197.57,-143.13 205,-110 207.08,-100.74 211.3,-91.14 215.43,-83.23"/>
<polygon fill="#63b8ff" stroke="#63b8ff" points="218.6,-84.72 220.42,-74.28 212.49,-81.31 218.6,-84.72"/>
</a>
</g>
</g>
<!-- Node12 -->
<g id="Node000012" class="node">
<title>Node12</title>
<g id="a_Node000012"><a xlink:href="../../d5/d82/vabstractcurve_8h.html" target="_top" xlink:title=" ">
<polygon fill="white" stroke="#666666" points="747,-239 649,-239 649,-220 747,-220 747,-239"/>
<text text-anchor="middle" x="698" y="-227" font-family="Helvetica,sans-Serif" font-size="10.00">vabstractcurve.h</text>
</a>
</g>
</g>
<!-- Node11&#45;&gt;Node12 -->
<g id="edge18_Node000011_Node000012" class="edge">
<title>Node11&#45;&gt;Node12</title>
<g id="a_edge18_Node000011_Node000012"><a xlink:title=" ">
<path fill="none" stroke="#63b8ff" d="M502.44,-274.98C542.65,-265.84 606.68,-251.27 650.44,-241.32"/>
<polygon fill="#63b8ff" stroke="#63b8ff" points="651.3,-244.71 660.27,-239.08 649.74,-237.89 651.3,-244.71"/>
</a>
</g>
</g>
<!-- Node12&#45;&gt;Node2 -->
<g id="edge19_Node000012_Node000002" class="edge">
<title>Node12&#45;&gt;Node2</title>
<g id="a_edge19_Node000012_Node000002"><a xlink:title=" ">
<path fill="none" stroke="#63b8ff" d="M701.32,-219.98C706.62,-207.09 717.97,-182.29 733,-165 750.49,-144.87 764.14,-149.66 781,-129 792.07,-115.43 800.16,-97.1 805.13,-83.63"/>
<polygon fill="#63b8ff" stroke="#63b8ff" points="808.49,-84.63 808.45,-74.04 801.87,-82.35 808.49,-84.63"/>
</a>
</g>
</g>
<!-- Node12&#45;&gt;Node4 -->
<g id="edge20_Node000012_Node000004" class="edge">
<title>Node12&#45;&gt;Node4</title>
<g id="a_edge20_Node000012_Node000004"><a xlink:title=" ">
<path fill="none" stroke="#63b8ff" d="M719.21,-219.98C740.73,-211.34 774.28,-197.87 798.83,-188.02"/>
<polygon fill="#63b8ff" stroke="#63b8ff" points="800.43,-191.14 808.41,-184.17 797.82,-184.65 800.43,-191.14"/>
</a>
</g>
</g>
<!-- Node12&#45;&gt;Node5 -->
<g id="edge21_Node000012_Node000005" class="edge">
<title>Node12&#45;&gt;Node5</title>
<g id="a_edge21_Node000012_Node000005"><a xlink:title=" ">
<path fill="none" stroke="#63b8ff" d="M704.28,-219.88C714.53,-206.39 736.11,-180.26 760,-165 783.89,-149.74 813.67,-138.91 838.28,-131.76"/>
<polygon fill="#63b8ff" stroke="#63b8ff" points="839.44,-135.07 848.13,-129.01 837.56,-128.33 839.44,-135.07"/>
</a>
</g>
</g>
<!-- Node12&#45;&gt;Node6 -->
<g id="edge22_Node000012_Node000006" class="edge">
<title>Node12&#45;&gt;Node6</title>
<g id="a_edge22_Node000012_Node000006"><a xlink:title=" ">
<path fill="none" stroke="#63b8ff" d="M747.29,-224.18C826.25,-216.79 973.97,-200.89 991,-184 1017.42,-157.8 1016.22,-110.49 1013.09,-84.27"/>
<polygon fill="#63b8ff" stroke="#63b8ff" points="1016.52,-83.56 1011.65,-74.15 1009.59,-84.55 1016.52,-83.56"/>
</a>
</g>
</g>
<!-- Node12&#45;&gt;Node7 -->
<g id="edge23_Node000012_Node000007" class="edge">
<title>Node12&#45;&gt;Node7</title>
<g id="a_edge23_Node000012_Node000007"><a xlink:title=" ">
<path fill="none" stroke="#63b8ff" d="M747.06,-225.55C811.49,-220.83 927.75,-209.38 1024,-184 1071.98,-171.35 1124.99,-148.2 1156.08,-133.62"/>
<polygon fill="#63b8ff" stroke="#63b8ff" points="1157.83,-136.66 1165.36,-129.21 1154.83,-130.33 1157.83,-136.66"/>
</a>
</g>
</g>
<!-- Node12&#45;&gt;Node8 -->
<g id="edge24_Node000012_Node000008" class="edge">
<title>Node12&#45;&gt;Node8</title>
<g id="a_edge24_Node000012_Node000008"><a xlink:title=" ">
<path fill="none" stroke="#63b8ff" d="M648.67,-226.43C542.3,-221.55 294.47,-207.94 214,-184 176.87,-172.95 137.95,-149.92 114.85,-134.84"/>
<polygon fill="#63b8ff" stroke="#63b8ff" points="116.51,-131.74 106.25,-129.11 112.63,-137.57 116.51,-131.74"/>
</a>
</g>
</g>
<!-- Node12&#45;&gt;Node9 -->
<g id="edge25_Node000012_Node000009" class="edge">
<title>Node12&#45;&gt;Node9</title>
<g id="a_edge25_Node000012_Node000009"><a xlink:title=" ">
<path fill="none" stroke="#63b8ff" d="M648.97,-225.87C540.25,-219.71 285.84,-203.41 252,-184 225.78,-168.96 221.35,-157.74 212,-129 207.1,-113.92 211.79,-96.27 217.02,-83.42"/>
<polygon fill="#63b8ff" stroke="#63b8ff" points="220.23,-84.82 221.16,-74.27 213.85,-81.94 220.23,-84.82"/>
</a>
</g>
</g>
<!-- Node13 -->
<g id="Node000013" class="node">
<title>Node13</title>
<g id="a_Node000013"><a xlink:href="../../d3/da5/ifcdef_8h.html" target="_top" xlink:title=" ">
<polygon fill="white" stroke="#666666" points="477.5,-184 400.5,-184 400.5,-165 477.5,-165 477.5,-184"/>
<text text-anchor="middle" x="439" y="-172" font-family="Helvetica,sans-Serif" font-size="10.00">../ifc/ifcdef.h</text>
</a>
</g>
</g>
<!-- Node12&#45;&gt;Node13 -->
<g id="edge26_Node000012_Node000013" class="edge">
<title>Node12&#45;&gt;Node13</title>
<g id="a_edge26_Node000012_Node000013"><a xlink:title=" ">
<path fill="none" stroke="#63b8ff" d="M656.39,-219.98C610.33,-210.56 536.19,-195.39 487.53,-185.43"/>
<polygon fill="#63b8ff" stroke="#63b8ff" points="488.05,-181.96 477.55,-183.39 486.65,-188.82 488.05,-181.96"/>
</a>
</g>
</g>
<!-- Node23 -->
<g id="Node000023" class="node">
<title>Node23</title>
<g id="a_Node000023"><a xlink:href="../../db/db3/vmath_8h.html" target="_top" xlink:title=" ">
<polygon fill="white" stroke="#666666" points="670,-184 572,-184 572,-165 670,-165 670,-184"/>
<text text-anchor="middle" x="621" y="-172" font-family="Helvetica,sans-Serif" font-size="10.00">../vmisc/vmath.h</text>
</a>
</g>
</g>
<!-- Node12&#45;&gt;Node23 -->
<g id="edge43_Node000012_Node000023" class="edge">
<title>Node12&#45;&gt;Node23</title>
<g id="a_edge43_Node000012_Node000023"><a xlink:title=" ">
<path fill="none" stroke="#63b8ff" d="M685.63,-219.98C673.91,-211.92 656.08,-199.65 642.11,-190.03"/>
<polygon fill="#63b8ff" stroke="#63b8ff" points="643.82,-186.96 633.6,-184.17 639.85,-192.72 643.82,-186.96"/>
</a>
</g>
</g>
<!-- Node12&#45;&gt;Node25 -->
<g id="edge45_Node000012_Node000025" class="edge">
<title>Node12&#45;&gt;Node25</title>
<g id="a_edge45_Node000012_Node000025"><a xlink:title=" ">
<path fill="none" stroke="#63b8ff" d="M709.64,-219.87C731.05,-204.17 776.1,-171.9 794,-165 835.53,-148.98 955.26,-134.16 1027.56,-126.32"/>
<polygon fill="#63b8ff" stroke="#63b8ff" points="1028.29,-129.76 1037.86,-125.22 1027.55,-122.8 1028.29,-129.76"/>
</a>
</g>
</g>
<!-- Node26 -->
<g id="Node000026" class="node">
<title>Node26</title>
<g id="a_Node000026"><a xlink:href="../../d2/d07/vgobject_8h.html" target="_top" xlink:title=" ">
<polygon fill="white" stroke="#666666" points="982,-184 914,-184 914,-165 982,-165 982,-184"/>
<text text-anchor="middle" x="948" y="-172" font-family="Helvetica,sans-Serif" font-size="10.00">vgobject.h</text>
</a>
</g>
</g>
<!-- Node12&#45;&gt;Node26 -->
<g id="edge46_Node000012_Node000026" class="edge">
<title>Node12&#45;&gt;Node26</title>
<g id="a_edge46_Node000012_Node000026"><a xlink:title=" ">
<path fill="none" stroke="#63b8ff" d="M738.17,-219.98C783.56,-210.36 857.21,-194.75 904.09,-184.81"/>
<polygon fill="#63b8ff" stroke="#63b8ff" points="904.9,-188.22 913.96,-182.72 903.45,-181.37 904.9,-188.22"/>
</a>
</g>
</g>
<!-- Node13&#45;&gt;Node6 -->
<g id="edge27_Node000013_Node000006" class="edge">
<title>Node13&#45;&gt;Node6</title>
<g id="a_edge27_Node000013_Node000006"><a xlink:title=" ">
<path fill="none" stroke="#63b8ff" d="M471.77,-164.89C522.53,-151.77 623.38,-126.54 710,-110 804.26,-92 916.36,-77.07 973.12,-69.97"/>
<polygon fill="#63b8ff" stroke="#63b8ff" points="973.9,-73.4 983.39,-68.69 973.03,-66.45 973.9,-73.4"/>
</a>
</g>
</g>
<!-- Node13&#45;&gt;Node9 -->
<g id="edge29_Node000013_Node000009" class="edge">
<title>Node13&#45;&gt;Node9</title>
<g id="a_edge29_Node000013_Node000009"><a xlink:title=" ">
<path fill="none" stroke="#63b8ff" d="M433.36,-164.69C424.1,-150.95 404.35,-124.48 381,-110 345.47,-87.96 298.65,-76.49 265.8,-70.76"/>
<polygon fill="#63b8ff" stroke="#63b8ff" points="266.09,-67.26 255.65,-69.1 264.95,-74.17 266.09,-67.26"/>
</a>
</g>
</g>
<!-- Node14 -->
<g id="Node000014" class="node">
<title>Node14</title>
<g id="a_Node000014"><a xlink:title=" ">
<polygon fill="#e0e0e0" stroke="#999999" points="372,-74 302,-74 302,-55 372,-55 372,-74"/>
<text text-anchor="middle" x="337" y="-62" font-family="Helvetica,sans-Serif" font-size="10.00">QStringList</text>
</a>
</g>
</g>
<!-- Node13&#45;&gt;Node14 -->
<g id="edge28_Node000013_Node000014" class="edge">
<title>Node13&#45;&gt;Node14</title>
<g id="a_edge28_Node000013_Node000014"><a xlink:title=" ">
<path fill="none" stroke="#63b8ff" d="M437.47,-164.75C434.77,-151.54 428.07,-126.34 414,-110 402.07,-96.14 384.7,-85.59 369.48,-78.24"/>
<polygon fill="#63b8ff" stroke="#63b8ff" points="370.89,-75.04 360.34,-74.08 367.99,-81.41 370.89,-75.04"/>
</a>
</g>
</g>
<!-- Node15 -->
<g id="Node000015" class="node">
<title>Node15</title>
<g id="a_Node000015"><a xlink:href="../../d4/da4/def_8h.html" target="_top" xlink:title=" ">
<polygon fill="white" stroke="#666666" points="586,-129 504,-129 504,-110 586,-110 586,-129"/>
<text text-anchor="middle" x="545" y="-117" font-family="Helvetica,sans-Serif" font-size="10.00">../vmisc/def.h</text>
</a>
</g>
</g>
<!-- Node13&#45;&gt;Node15 -->
<g id="edge30_Node000013_Node000015" class="edge">
<title>Node13&#45;&gt;Node15</title>
<g id="a_edge30_Node000013_Node000015"><a xlink:title=" ">
<path fill="none" stroke="#63b8ff" d="M456.03,-164.98C472.93,-156.54 499.06,-143.47 518.64,-133.68"/>
<polygon fill="#63b8ff" stroke="#63b8ff" points="520.28,-136.77 527.66,-129.17 517.15,-130.51 520.28,-136.77"/>
</a>
</g>
</g>
<!-- Node22 -->
<g id="Node000022" class="node">
<title>Node22</title>
<g id="a_Node000022"><a xlink:href="../../d6/dcd/diagnostic_8h.html" target="_top" xlink:title=" ">
<polygon fill="white" stroke="#666666" points="371.5,-129 254.5,-129 254.5,-110 371.5,-110 371.5,-129"/>
<text text-anchor="middle" x="313" y="-117" font-family="Helvetica,sans-Serif" font-size="10.00">../vmisc/diagnostic.h</text>
</a>
</g>
</g>
<!-- Node13&#45;&gt;Node22 -->
<g id="edge41_Node000013_Node000022" class="edge">
<title>Node13&#45;&gt;Node22</title>
<g id="a_edge41_Node000013_Node000022"><a xlink:title=" ">
<path fill="none" stroke="#63b8ff" d="M418.76,-164.98C398.3,-156.38 366.47,-142.99 343.07,-133.15"/>
<polygon fill="#63b8ff" stroke="#63b8ff" points="344.19,-129.82 333.61,-129.17 341.47,-136.27 344.19,-129.82"/>
</a>
</g>
</g>
<!-- Node15&#45;&gt;Node2 -->
<g id="edge31_Node000015_Node000002" class="edge">
<title>Node15&#45;&gt;Node2</title>
<g id="a_edge31_Node000015_Node000002"><a xlink:title=" ">
<path fill="none" stroke="#63b8ff" d="M586.27,-110.28C632.55,-101.06 707.72,-86.08 758.24,-76.01"/>
<polygon fill="#63b8ff" stroke="#63b8ff" points="759.19,-79.39 768.31,-74.01 757.82,-72.53 759.19,-79.39"/>
</a>
</g>
</g>
<!-- Node15&#45;&gt;Node6 -->
<g id="edge33_Node000015_Node000006" class="edge">
<title>Node15&#45;&gt;Node6</title>
<g id="a_edge33_Node000015_Node000006"><a xlink:title=" ">
<path fill="none" stroke="#63b8ff" d="M586.27,-113.8C676.1,-103.56 888.12,-79.39 973.47,-69.66"/>
<polygon fill="#63b8ff" stroke="#63b8ff" points="973.93,-73.13 983.47,-68.52 973.14,-66.18 973.93,-73.13"/>
</a>
</g>
</g>
<!-- Node15&#45;&gt;Node9 -->
<g id="edge36_Node000015_Node000009" class="edge">
<title>Node15&#45;&gt;Node9</title>
<g id="a_edge36_Node000015_Node000009"><a xlink:title=" ">
<path fill="none" stroke="#63b8ff" d="M503.95,-111.68C442.23,-101.43 326.3,-82.16 265.5,-72.06"/>
<polygon fill="#63b8ff" stroke="#63b8ff" points="265.96,-68.59 255.52,-70.41 264.81,-75.5 265.96,-68.59"/>
</a>
</g>
</g>
<!-- Node15&#45;&gt;Node14 -->
<g id="edge34_Node000015_Node000014" class="edge">
<title>Node15&#45;&gt;Node14</title>
<g id="a_edge34_Node000015_Node000014"><a xlink:title=" ">
<path fill="none" stroke="#63b8ff" d="M511.58,-109.98C476.06,-100.93 419.73,-86.58 380.7,-76.64"/>
<polygon fill="#63b8ff" stroke="#63b8ff" points="381.24,-73.16 370.68,-74.08 379.51,-79.94 381.24,-73.16"/>
</a>
</g>
</g>
<!-- Node16 -->
<g id="Node000016" class="node">
<title>Node16</title>
<g id="a_Node000016"><a xlink:title=" ">
<polygon fill="#e0e0e0" stroke="#999999" points="440,-74 390,-74 390,-55 440,-55 440,-74"/>
<text text-anchor="middle" x="415" y="-62" font-family="Helvetica,sans-Serif" font-size="10.00">QLineF</text>
</a>
</g>
</g>
<!-- Node15&#45;&gt;Node16 -->
<g id="edge32_Node000015_Node000016" class="edge">
<title>Node15&#45;&gt;Node16</title>
<g id="a_edge32_Node000015_Node000016"><a xlink:title=" ">
<path fill="none" stroke="#63b8ff" d="M524.11,-109.98C502.92,-101.34 469.87,-87.87 445.7,-78.02"/>
<polygon fill="#63b8ff" stroke="#63b8ff" points="446.85,-74.7 436.27,-74.17 444.21,-81.19 446.85,-74.7"/>
</a>
</g>
</g>
<!-- Node17 -->
<g id="Node000017" class="node">
<title>Node17</title>
<g id="a_Node000017"><a xlink:title=" ">
<polygon fill="#e0e0e0" stroke="#999999" points="487.5,-74 458.5,-74 458.5,-55 487.5,-55 487.5,-74"/>
<text text-anchor="middle" x="473" y="-62" font-family="Helvetica,sans-Serif" font-size="10.00">Qt</text>
</a>
</g>
</g>
<!-- Node15&#45;&gt;Node17 -->
<g id="edge35_Node000015_Node000017" class="edge">
<title>Node15&#45;&gt;Node17</title>
<g id="a_edge35_Node000015_Node000017"><a xlink:title=" ">
<path fill="none" stroke="#63b8ff" d="M533.43,-109.98C522.58,-102 506.12,-89.88 493.12,-80.31"/>
<polygon fill="#63b8ff" stroke="#63b8ff" points="494.91,-77.28 484.78,-74.17 490.76,-82.92 494.91,-77.28"/>
</a>
</g>
</g>
<!-- Node18 -->
<g id="Node000018" class="node">
<title>Node18</title>
<g id="a_Node000018"><a xlink:title=" ">
<polygon fill="#e0e0e0" stroke="#999999" points="562,-74 506,-74 506,-55 562,-55 562,-74"/>
<text text-anchor="middle" x="534" y="-62" font-family="Helvetica,sans-Serif" font-size="10.00">QPrinter</text>
</a>
</g>
</g>
<!-- Node15&#45;&gt;Node18 -->
<g id="edge37_Node000015_Node000018" class="edge">
<title>Node15&#45;&gt;Node18</title>
<g id="a_edge37_Node000015_Node000018"><a xlink:title=" ">
<path fill="none" stroke="#63b8ff" d="M543.18,-109.75C541.74,-102.8 539.68,-92.85 537.87,-84.13"/>
<polygon fill="#63b8ff" stroke="#63b8ff" points="541.24,-83.17 535.78,-74.09 534.39,-84.59 541.24,-83.17"/>
</a>
</g>
</g>
<!-- Node19 -->
<g id="Node000019" class="node">
<title>Node19</title>
<g id="a_Node000019"><a xlink:title=" ">
<polygon fill="#e0e0e0" stroke="#999999" points="631.5,-74 580.5,-74 580.5,-55 631.5,-55 631.5,-74"/>
<text text-anchor="middle" x="606" y="-62" font-family="Helvetica,sans-Serif" font-size="10.00">csignal</text>
</a>
</g>
</g>
<!-- Node15&#45;&gt;Node19 -->
<g id="edge38_Node000015_Node000019" class="edge">
<title>Node15&#45;&gt;Node19</title>
<g id="a_edge38_Node000015_Node000019"><a xlink:title=" ">
<path fill="none" stroke="#63b8ff" d="M554.8,-109.98C563.82,-102.15 577.41,-90.34 588.32,-80.86"/>
<polygon fill="#63b8ff" stroke="#63b8ff" points="590.77,-83.37 596.02,-74.17 586.18,-78.09 590.77,-83.37"/>
</a>
</g>
</g>
<!-- Node20 -->
<g id="Node000020" class="node">
<title>Node20</title>
<g id="a_Node000020"><a xlink:href="../../d4/d82/debugbreak_8h.html" target="_top" xlink:title=" ">
<polygon fill="white" stroke="#666666" points="732.5,-74 649.5,-74 649.5,-55 732.5,-55 732.5,-74"/>
<text text-anchor="middle" x="691" y="-62" font-family="Helvetica,sans-Serif" font-size="10.00">debugbreak.h</text>
</a>
</g>
</g>
<!-- Node15&#45;&gt;Node20 -->
<g id="edge39_Node000015_Node000020" class="edge">
<title>Node15&#45;&gt;Node20</title>
<g id="a_edge39_Node000015_Node000020"><a xlink:title=" ">
<path fill="none" stroke="#63b8ff" d="M568.46,-109.98C592.58,-101.23 630.37,-87.51 657.6,-77.62"/>
<polygon fill="#63b8ff" stroke="#63b8ff" points="658.91,-80.87 667.12,-74.17 656.52,-74.29 658.91,-80.87"/>
</a>
</g>
</g>
<!-- Node21 -->
<g id="Node000021" class="node">
<title>Node21</title>
<g id="a_Node000021"><a xlink:title=" ">
<polygon fill="#e0e0e0" stroke="#999999" points="718.5,-19 663.5,-19 663.5,0 718.5,0 718.5,-19"/>
<text text-anchor="middle" x="691" y="-7" font-family="Helvetica,sans-Serif" font-size="10.00">signal.h</text>
</a>
</g>
</g>
<!-- Node20&#45;&gt;Node21 -->
<g id="edge40_Node000020_Node000021" class="edge">
<title>Node20&#45;&gt;Node21</title>
<g id="a_edge40_Node000020_Node000021"><a xlink:title=" ">
<path fill="none" stroke="#63b8ff" d="M691,-54.75C691,-47.8 691,-37.85 691,-29.13"/>
<polygon fill="#63b8ff" stroke="#63b8ff" points="694.5,-29.09 691,-19.09 687.5,-29.09 694.5,-29.09"/>
</a>
</g>
</g>
<!-- Node22&#45;&gt;Node9 -->
<g id="edge42_Node000022_Node000009" class="edge">
<title>Node22&#45;&gt;Node9</title>
<g id="a_edge42_Node000022_Node000009"><a xlink:title=" ">
<path fill="none" stroke="#63b8ff" d="M299.02,-109.98C285.53,-101.77 264.87,-89.18 248.96,-79.49"/>
<polygon fill="#63b8ff" stroke="#63b8ff" points="250.59,-76.38 240.23,-74.17 246.95,-82.36 250.59,-76.38"/>
</a>
</g>
</g>
<!-- Node24 -->
<g id="Node000024" class="node">
<title>Node24</title>
<g id="a_Node000024"><a xlink:title=" ">
<polygon fill="#e0e0e0" stroke="#999999" points="771.5,-129 718.5,-129 718.5,-110 771.5,-110 771.5,-129"/>
<text text-anchor="middle" x="745" y="-117" font-family="Helvetica,sans-Serif" font-size="10.00">QtMath</text>
</a>
</g>
</g>
<!-- Node23&#45;&gt;Node24 -->
<g id="edge44_Node000023_Node000024" class="edge">
<title>Node23&#45;&gt;Node24</title>
<g id="a_edge44_Node000023_Node000024"><a xlink:title=" ">
<path fill="none" stroke="#63b8ff" d="M640.92,-164.98C661.05,-156.38 692.38,-142.99 715.41,-133.15"/>
<polygon fill="#63b8ff" stroke="#63b8ff" points="716.9,-136.32 724.71,-129.17 714.14,-129.88 716.9,-136.32"/>
</a>
</g>
</g>
<!-- Node26&#45;&gt;Node5 -->
<g id="edge47_Node000026_Node000005" class="edge">
<title>Node26&#45;&gt;Node5</title>
<g id="a_edge47_Node000026_Node000005"><a xlink:title=" ">
<path fill="none" stroke="#63b8ff" d="M938.04,-164.98C928.87,-157.15 915.06,-145.34 903.97,-135.86"/>
<polygon fill="#63b8ff" stroke="#63b8ff" points="906.02,-133.01 896.14,-129.17 901.47,-138.33 906.02,-133.01"/>
</a>
</g>
</g>
<!-- Node26&#45;&gt;Node6 -->
<g id="edge48_Node000026_Node000006" class="edge">
<title>Node26&#45;&gt;Node6</title>
<g id="a_edge48_Node000026_Node000006"><a xlink:title=" ">
<path fill="none" stroke="#63b8ff" d="M953.07,-164.66C963.3,-146.85 986.54,-106.37 999.95,-83.01"/>
<polygon fill="#63b8ff" stroke="#63b8ff" points="1003.09,-84.57 1005.03,-74.16 997.02,-81.09 1003.09,-84.57"/>
</a>
</g>
</g>
<!-- Node26&#45;&gt;Node7 -->
<g id="edge49_Node000026_Node000007" class="edge">
<title>Node26&#45;&gt;Node7</title>
<g id="a_edge49_Node000026_Node000007"><a xlink:title=" ">
<path fill="none" stroke="#63b8ff" d="M982.17,-165.79C1024.07,-156.34 1095.08,-140.33 1140.47,-130.09"/>
<polygon fill="#63b8ff" stroke="#63b8ff" points="1141.32,-133.49 1150.3,-127.87 1139.78,-126.66 1141.32,-133.49"/>
</a>
</g>
</g>
<!-- Node26&#45;&gt;Node8 -->
<g id="edge50_Node000026_Node000008" class="edge">
<title>Node26&#45;&gt;Node8</title>
<g id="a_edge50_Node000026_Node000008"><a xlink:title=" ">
<path fill="none" stroke="#63b8ff" d="M913.74,-169.54C899.33,-167.97 882.36,-166.25 867,-165 830.04,-162 282.27,-131.1 131.92,-122.63"/>
<polygon fill="#63b8ff" stroke="#63b8ff" points="131.98,-119.13 121.8,-122.06 131.59,-126.12 131.98,-119.13"/>
</a>
</g>
</g>
<!-- Node26&#45;&gt;Node9 -->
<g id="edge51_Node000026_Node000009" class="edge">
<title>Node26&#45;&gt;Node9</title>
<g id="a_edge51_Node000026_Node000009"><a xlink:title=" ">
<path fill="none" stroke="#63b8ff" d="M913.72,-169.84C899.3,-168.32 882.33,-166.55 867,-165 701.73,-148.33 658.87,-156.14 495,-129 451.05,-121.72 329.36,-91.6 265.81,-75.6"/>
<polygon fill="#63b8ff" stroke="#63b8ff" points="266.31,-72.12 255.76,-73.06 264.6,-78.9 266.31,-72.12"/>
</a>
</g>
</g>
<!-- Node26&#45;&gt;Node25 -->
<g id="edge52_Node000026_Node000025" class="edge">
<title>Node26&#45;&gt;Node25</title>
<g id="a_edge52_Node000026_Node000025"><a xlink:title=" ">
<path fill="none" stroke="#63b8ff" d="M970.01,-164.98C992.45,-156.3 1027.48,-142.75 1052.99,-132.88"/>
<polygon fill="#63b8ff" stroke="#63b8ff" points="1054.52,-136.04 1062.59,-129.17 1052,-129.51 1054.52,-136.04"/>
</a>
</g>
</g>
<!-- Node27&#45;&gt;Node2 -->
<g id="edge56_Node000027_Node000002" class="edge">
<title>Node27&#45;&gt;Node2</title>
<g id="a_edge56_Node000027_Node000002"><a xlink:title=" ">
<path fill="none" stroke="#63b8ff" d="M1156.91,-219.93C1188.19,-199.64 1258.77,-147.6 1225,-110 1213.67,-97.39 996.65,-79.37 881.47,-70.63"/>
<polygon fill="#63b8ff" stroke="#63b8ff" points="881.56,-67.13 871.32,-69.87 881.03,-74.11 881.56,-67.13"/>
</a>
</g>
</g>
<!-- Node27&#45;&gt;Node5 -->
<g id="edge58_Node000027_Node000005" class="edge">
<title>Node27&#45;&gt;Node5</title>
<g id="a_edge58_Node000027_Node000005"><a xlink:title=" ">
<path fill="none" stroke="#63b8ff" d="M1122.4,-219.84C1077.08,-200.8 968.57,-155.2 915.81,-133.03"/>
<polygon fill="#63b8ff" stroke="#63b8ff" points="916.91,-129.69 906.34,-129.05 914.2,-136.15 916.91,-129.69"/>
</a>
</g>
</g>
<!-- Node27&#45;&gt;Node6 -->
<g id="edge59_Node000027_Node000006" class="edge">
<title>Node27&#45;&gt;Node6</title>
<g id="a_edge59_Node000027_Node000006"><a xlink:title=" ">
<path fill="none" stroke="#63b8ff" d="M1172.78,-226.47C1224.03,-222.28 1325.46,-210.75 1347,-184 1352.3,-177.42 1351.11,-172.38 1347,-165 1324.36,-124.39 1301.43,-126.62 1258,-110 1186.26,-82.54 1096.24,-71.81 1046.78,-67.79"/>
<polygon fill="#63b8ff" stroke="#63b8ff" points="1046.81,-64.28 1036.57,-67 1046.27,-71.26 1046.81,-64.28"/>
</a>
</g>
</g>
<!-- Node27&#45;&gt;Node7 -->
<g id="edge60_Node000027_Node000007" class="edge">
<title>Node27&#45;&gt;Node7</title>
<g id="a_edge60_Node000027_Node000007"><a xlink:title=" ">
<path fill="none" stroke="#63b8ff" d="M1151.66,-219.83C1159.46,-211.44 1170.52,-197.97 1176,-184 1181.64,-169.63 1183.22,-152.11 1183.48,-139.11"/>
<polygon fill="#63b8ff" stroke="#63b8ff" points="1186.98,-139.04 1183.44,-129.05 1179.98,-139.07 1186.98,-139.04"/>
</a>
</g>
</g>
<!-- Node27&#45;&gt;Node9 -->
<g id="edge61_Node000027_Node000009" class="edge">
<title>Node27&#45;&gt;Node9</title>
<g id="a_edge61_Node000027_Node000009"><a xlink:title=" ">
<path fill="none" stroke="#63b8ff" d="M1113.11,-227.53C978.28,-223.04 430.14,-203.73 356,-184 303.18,-169.94 281.47,-170.59 246,-129 235.34,-116.5 230.35,-98.29 228.02,-84.58"/>
<polygon fill="#63b8ff" stroke="#63b8ff" points="231.44,-83.77 226.63,-74.34 224.51,-84.72 231.44,-83.77"/>
</a>
</g>
</g>
<!-- Node27&#45;&gt;Node22 -->
<g id="edge62_Node000027_Node000022" class="edge">
<title>Node27&#45;&gt;Node22</title>
<g id="a_edge62_Node000027_Node000022"><a xlink:title=" ">
<path fill="none" stroke="#63b8ff" d="M1113.49,-227.81C982.88,-224.62 460.17,-210.29 392,-184 365.96,-173.96 341.86,-151.98 327.29,-136.71"/>
<polygon fill="#63b8ff" stroke="#63b8ff" points="329.58,-134.03 320.23,-129.04 324.43,-138.77 329.58,-134.03"/>
</a>
</g>
</g>
<!-- Node27&#45;&gt;Node25 -->
<g id="edge63_Node000027_Node000025" class="edge">
<title>Node27&#45;&gt;Node25</title>
<g id="a_edge63_Node000027_Node000025"><a xlink:title=" ">
<path fill="none" stroke="#63b8ff" d="M1144.35,-219.71C1145.88,-206.9 1147.11,-182.7 1138,-165 1131.64,-152.65 1120.21,-142.38 1109.59,-134.83"/>
<polygon fill="#63b8ff" stroke="#63b8ff" points="1111.27,-131.73 1100.99,-129.14 1107.4,-137.57 1111.27,-131.73"/>
</a>
</g>
</g>
<!-- Node27&#45;&gt;Node26 -->
<g id="edge64_Node000027_Node000026" class="edge">
<title>Node27&#45;&gt;Node26</title>
<g id="a_edge64_Node000027_Node000026"><a xlink:title=" ">
<path fill="none" stroke="#63b8ff" d="M1113.38,-220.45C1080.37,-211.48 1026.74,-196.9 989.54,-186.79"/>
<polygon fill="#63b8ff" stroke="#63b8ff" points="990.08,-183.31 979.51,-184.07 988.25,-190.07 990.08,-183.31"/>
</a>
</g>
</g>
<!-- Node28 -->
<g id="Node000028" class="node">
<title>Node28</title>
<g id="a_Node000028"><a xlink:title=" ">
<polygon fill="#e0e0e0" stroke="#999999" points="1337.5,-184 1266.5,-184 1266.5,-165 1337.5,-165 1337.5,-184"/>
<text text-anchor="middle" x="1302" y="-172" font-family="Helvetica,sans-Serif" font-size="10.00">QMetaType</text>
</a>
</g>
</g>
<!-- Node27&#45;&gt;Node28 -->
<g id="edge57_Node000027_Node000028" class="edge">
<title>Node27&#45;&gt;Node28</title>
<g id="a_edge57_Node000027_Node000028"><a xlink:title=" ">
<path fill="none" stroke="#63b8ff" d="M1168.55,-219.98C1195.12,-211.13 1236.94,-197.19 1266.67,-187.28"/>
<polygon fill="#63b8ff" stroke="#63b8ff" points="1267.87,-190.56 1276.25,-184.08 1265.66,-183.92 1267.87,-190.56"/>
</a>
</g>
</g>
</g>
</svg>

<g id="navigator" transform="translate(0 0)" fill="#404254">
  <rect fill="#f2f5e9" fill-opacity="0.5" stroke="#606060" stroke-width=".5" x="0" y="0" width="60" height="60"/>
  <use id="zoomplus" xlink:href="#zoomPlus" x="17" y="9" onmousedown="handleZoom(evt,'in')"/>
  <use id="zoomminus" xlink:href="#zoomMin" x="42" y="9" onmousedown="handleZoom(evt,'out')"/>
  <use id="reset" xlink:href="#resetDef" x="30" y="36" onmousedown="handleReset()"/>
   <use id="arrowup" xlink:href="#arrowUp" x="0" y="0" onmousedown="handlePan(0,-1)"/>
  <use id="arrowright" xlink:href="#arrowRight" x="0" y="0" onmousedown="handlePan(1,0)"/>
  <use id="arrowdown" xlink:href="#arrowDown" x="0" y="0" onmousedown="handlePan(0,1)"/>
  <use id="arrowleft" xlink:href="#arrowLeft" x="0" y="0" onmousedown="handlePan(-1,0)"/>
</g>
<svg viewBox="0 0 15 15" width="100%" height="30px" preserveAspectRatio="xMaxYMin meet">
 <g id="arrow_out" transform="scale(0.3 0.3)">
  <a xlink:href="vcubicbezierpath_8h__incl_org.svg" target="_base">
   <rect id="button" ry="5" rx="5" y="6" x="6" height="38" width="38"
        fill="#f2f5e9" fill-opacity="0.5" stroke="#606060" stroke-width="1.0"/>
   <path id="arrow"
     d="M 11.500037,31.436501 C 11.940474,20.09759 22.043105,11.32322 32.158766,21.979434 L 37.068811,17.246167 C 37.068811,17.246167 37.088388,32 37.088388,32 L 22.160133,31.978069 C 22.160133,31.978069 26.997745,27.140456 26.997745,27.140456 C 18.528582,18.264221 13.291696,25.230495 11.500037,31.436501 z"
     style="fill:#404040;"/>
  </a>
 </g>
</svg>

<style type='text/css'>
<![CDATA[
[data-mouse-over-selected='false'] { opacity: 0.7; }
[data-mouse-over-selected='true']  { opacity: 1.0; }
]]>
</style>
<script type="application/ecmascript"><![CDATA[
document.addEventListener('DOMContentLoaded', (event) => {
  highlightEdges();
  highlightAdjacentNodes();
});
]]></script>
</svg>
