<?xml version="1.0" encoding="UTF-8" standalone="no"?>
<!DOCTYPE svg PUBLIC "-//W3C//DTD SVG 1.1//EN"
 "http://www.w3.org/Graphics/SVG/1.1/DTD/svg11.dtd">
<!-- Generated by graphviz version 2.43.0 (0)
 -->
<!-- Title: src/libs/ifc/exception/vexceptionbadid.h Pages: 1 -->
<svg width="6559pt" height="307pt"
 viewBox="0.00 0.00 6559.00 307.00" xmlns="http://www.w3.org/2000/svg" xmlns:xlink="http://www.w3.org/1999/xlink">
<g id="graph0" class="graph" transform="scale(1 1) rotate(0) translate(4 303)">
<title>src/libs/ifc/exception/vexceptionbadid.h</title>
<polygon fill="white" stroke="transparent" points="-4,4 -4,-303 6555,-303 6555,4 -4,4"/>
<!-- Node1 -->
<g id="node1" class="node">
<title>Node1</title>
<g id="a_node1"><a xlink:title=" ">
<polygon fill="#bfbfbf" stroke="black" points="5360.5,-268.5 5360.5,-298.5 5477.5,-298.5 5477.5,-268.5 5360.5,-268.5"/>
<text text-anchor="start" x="5368.5" y="-286.5" font-family="Helvetica,sans-Serif" font-size="10.00">src/libs/ifc/exception</text>
<text text-anchor="middle" x="5419" y="-275.5" font-family="Helvetica,sans-Serif" font-size="10.00">/vexceptionbadid.h</text>
</a>
</g>
</g>
<!-- Node2 -->
<g id="node2" class="node">
<title>Node2</title>
<g id="a_node2"><a xlink:href="../../d5/d85/vexceptionbadid_8cpp.html" target="_top" xlink:title=" ">
<polygon fill="white" stroke="black" points="5185.5,-201.5 5185.5,-231.5 5306.5,-231.5 5306.5,-201.5 5185.5,-201.5"/>
<text text-anchor="start" x="5193.5" y="-219.5" font-family="Helvetica,sans-Serif" font-size="10.00">src/libs/ifc/exception</text>
<text text-anchor="middle" x="5246" y="-208.5" font-family="Helvetica,sans-Serif" font-size="10.00">/vexceptionbadid.cpp</text>
</a>
</g>
</g>
<!-- Node1&#45;&gt;Node2 -->
<g id="edge1" class="edge">
<title>Node1&#45;&gt;Node2</title>
<path fill="none" stroke="midnightblue" d="M5371.94,-264.82C5344.13,-254.37 5309.41,-241.32 5283.47,-231.58"/>
<polygon fill="midnightblue" stroke="midnightblue" points="5370.87,-268.16 5381.46,-268.4 5373.33,-261.6 5370.87,-268.16"/>
</g>
<!-- Node3 -->
<g id="node3" class="node">
<title>Node3</title>
<g id="a_node3"><a xlink:href="../../d7/d49/vdomdocument_8cpp.html" target="_top" xlink:title=" ">
<polygon fill="white" stroke="black" points="5325,-207 5325,-226 5513,-226 5513,-207 5325,-207"/>
<text text-anchor="middle" x="5419" y="-214" font-family="Helvetica,sans-Serif" font-size="10.00">src/libs/ifc/xml/vdomdocument.cpp</text>
</a>
</g>
</g>
<!-- Node1&#45;&gt;Node3 -->
<g id="edge2" class="edge">
<title>Node1&#45;&gt;Node3</title>
<path fill="none" stroke="midnightblue" d="M5419,-258.25C5419,-247.02 5419,-234.38 5419,-226.19"/>
<polygon fill="midnightblue" stroke="midnightblue" points="5415.5,-258.4 5419,-268.4 5422.5,-258.4 5415.5,-258.4"/>
</g>
<!-- Node4 -->
<g id="node4" class="node">
<title>Node4</title>
<g id="a_node4"><a xlink:href="../../d3/df7/vcontainer_8h.html" target="_top" xlink:title=" ">
<polygon fill="white" stroke="black" points="5531.5,-201.5 5531.5,-231.5 5638.5,-231.5 5638.5,-201.5 5531.5,-201.5"/>
<text text-anchor="start" x="5539.5" y="-219.5" font-family="Helvetica,sans-Serif" font-size="10.00">src/libs/vpatterndb</text>
<text text-anchor="middle" x="5585" y="-208.5" font-family="Helvetica,sans-Serif" font-size="10.00">/vcontainer.h</text>
</a>
</g>
</g>
<!-- Node1&#45;&gt;Node4 -->
<g id="edge3" class="edge">
<title>Node1&#45;&gt;Node4</title>
<path fill="none" stroke="midnightblue" d="M5464.51,-264.68C5491.13,-254.26 5524.27,-241.28 5549.05,-231.58"/>
<polygon fill="midnightblue" stroke="midnightblue" points="5463.05,-261.49 5455.02,-268.4 5465.61,-268.01 5463.05,-261.49"/>
</g>
<!-- Node5 -->
<g id="node5" class="node">
<title>Node5</title>
<g id="a_node5"><a xlink:href="../../d4/dd6/vmeasurements_8h.html" target="_top" xlink:title=" ">
<polygon fill="white" stroke="black" points="138.5,-140 138.5,-159 323.5,-159 323.5,-140 138.5,-140"/>
<text text-anchor="middle" x="231" y="-147" font-family="Helvetica,sans-Serif" font-size="10.00">src/libs/vformat/vmeasurements.h</text>
</a>
</g>
</g>
<!-- Node4&#45;&gt;Node5 -->
<g id="edge4" class="edge">
<title>Node4&#45;&gt;Node5</title>
<path fill="none" stroke="midnightblue" d="M5521,-201.27C5159.11,-169.2 872.4,-171.27 602,-165 507.11,-162.8 398.64,-158.33 323.6,-154.94"/>
<polygon fill="midnightblue" stroke="midnightblue" points="5520.88,-204.77 5531.18,-202.3 5521.58,-197.81 5520.88,-204.77"/>
</g>
<!-- Node6 -->
<g id="node6" class="node">
<title>Node6</title>
<g id="a_node6"><a xlink:href="../../de/db3/vmeasurements_8cpp.html" target="_top" xlink:title=" ">
<polygon fill="white" stroke="black" points="0,-73 0,-92 196,-92 196,-73 0,-73"/>
<text text-anchor="middle" x="98" y="-80" font-family="Helvetica,sans-Serif" font-size="10.00">src/libs/vformat/vmeasurements.cpp</text>
</a>
</g>
</g>
<!-- Node4&#45;&gt;Node6 -->
<g id="edge6" class="edge">
<title>Node4&#45;&gt;Node6</title>
<path fill="none" stroke="midnightblue" d="M5521.05,-201.16C4952.29,-140.11 1291.97,-198.06 768,-165 537.03,-150.43 263.67,-109.83 150.79,-92.04"/>
<polygon fill="midnightblue" stroke="midnightblue" points="5520.85,-204.66 5531.18,-202.3 5521.63,-197.7 5520.85,-204.66"/>
</g>
<!-- Node7 -->
<g id="node7" class="node">
<title>Node7</title>
<g id="a_node7"><a xlink:href="../../d6/de0/vlayoutpiece_8h.html" target="_top" xlink:title=" ">
<polygon fill="white" stroke="black" points="777,-140 777,-159 943,-159 943,-140 777,-140"/>
<text text-anchor="middle" x="860" y="-147" font-family="Helvetica,sans-Serif" font-size="10.00">src/libs/vlayout/vlayoutpiece.h</text>
</a>
</g>
</g>
<!-- Node4&#45;&gt;Node7 -->
<g id="edge7" class="edge">
<title>Node4&#45;&gt;Node7</title>
<path fill="none" stroke="midnightblue" d="M5520.86,-201.7C5289.4,-192.32 1551.24,-156.99 943.26,-151.28"/>
<polygon fill="midnightblue" stroke="midnightblue" points="5520.99,-205.22 5531.18,-202.31 5521.4,-198.23 5520.99,-205.22"/>
</g>
<!-- Node17 -->
<g id="node16" class="node">
<title>Node17</title>
<g id="a_node16"><a xlink:href="../../d8/d70/vtextmanager_8cpp.html" target="_top" xlink:title=" ">
<polygon fill="white" stroke="black" points="1535,-73 1535,-92 1717,-92 1717,-73 1535,-73"/>
<text text-anchor="middle" x="1626" y="-80" font-family="Helvetica,sans-Serif" font-size="10.00">src/libs/vlayout/vtextmanager.cpp</text>
</a>
</g>
</g>
<!-- Node4&#45;&gt;Node17 -->
<g id="edge18" class="edge">
<title>Node4&#45;&gt;Node17</title>
<path fill="none" stroke="midnightblue" d="M5521.17,-201.13C5032.02,-143.65 3848.72,-178.59 3375,-165 2641.81,-143.96 2456.37,-165.61 1726,-98 1710.19,-96.54 1693.06,-94.3 1677.52,-92.01"/>
<polygon fill="midnightblue" stroke="midnightblue" points="5520.83,-204.62 5531.18,-202.33 5521.66,-197.66 5520.83,-204.62"/>
</g>
<!-- Node18 -->
<g id="node17" class="node">
<title>Node18</title>
<g id="a_node17"><a xlink:href="../../d5/d74/vabstractapplication_8h.html" target="_top" xlink:title=" ">
<polygon fill="white" stroke="red" points="3384.5,-140 3384.5,-159 3579.5,-159 3579.5,-140 3384.5,-140"/>
<text text-anchor="middle" x="3482" y="-147" font-family="Helvetica,sans-Serif" font-size="10.00">src/libs/vmisc/vabstractapplication.h</text>
</a>
</g>
</g>
<!-- Node4&#45;&gt;Node18 -->
<g id="edge19" class="edge">
<title>Node4&#45;&gt;Node18</title>
<path fill="none" stroke="midnightblue" d="M5520.95,-201.1C5118.86,-152.69 3929.39,-150.04 3579.69,-150.31"/>
<polygon fill="midnightblue" stroke="midnightblue" points="5520.82,-204.61 5531.17,-202.36 5521.68,-197.66 5520.82,-204.61"/>
</g>
<!-- Node36 -->
<g id="node31" class="node">
<title>Node36</title>
<g id="a_node31"><a xlink:href="../../d6/d46/vcontainer_8cpp.html" target="_top" xlink:title=" ">
<polygon fill="white" stroke="black" points="5390.5,-67.5 5390.5,-97.5 5497.5,-97.5 5497.5,-67.5 5390.5,-67.5"/>
<text text-anchor="start" x="5398.5" y="-85.5" font-family="Helvetica,sans-Serif" font-size="10.00">src/libs/vpatterndb</text>
<text text-anchor="middle" x="5444" y="-74.5" font-family="Helvetica,sans-Serif" font-size="10.00">/vcontainer.cpp</text>
</a>
</g>
</g>
<!-- Node4&#45;&gt;Node36 -->
<g id="edge52" class="edge">
<title>Node4&#45;&gt;Node36</title>
<path fill="none" stroke="midnightblue" d="M5562.3,-194.25C5533.24,-167.04 5483.71,-120.68 5458.98,-97.52"/>
<polygon fill="midnightblue" stroke="midnightblue" points="5560.22,-197.09 5569.91,-201.37 5565,-191.98 5560.22,-197.09"/>
</g>
<!-- Node37 -->
<g id="node32" class="node">
<title>Node37</title>
<g id="a_node32"><a xlink:href="../../db/d11/vformula_8cpp.html" target="_top" xlink:title=" ">
<polygon fill="white" stroke="black" points="5515.5,-67.5 5515.5,-97.5 5622.5,-97.5 5622.5,-67.5 5515.5,-67.5"/>
<text text-anchor="start" x="5523.5" y="-85.5" font-family="Helvetica,sans-Serif" font-size="10.00">src/libs/vpatterndb</text>
<text text-anchor="middle" x="5569" y="-74.5" font-family="Helvetica,sans-Serif" font-size="10.00">/vformula.cpp</text>
</a>
</g>
</g>
<!-- Node4&#45;&gt;Node37 -->
<g id="edge54" class="edge">
<title>Node4&#45;&gt;Node37</title>
<path fill="none" stroke="midnightblue" d="M5577.01,-191.37C5574.62,-183.1 5572.3,-173.73 5571,-165 5567.53,-141.62 5567.73,-114.06 5568.3,-97.72"/>
<polygon fill="midnightblue" stroke="midnightblue" points="5573.72,-192.58 5579.99,-201.12 5580.41,-190.53 5573.72,-192.58"/>
</g>
<!-- Node39 -->
<g id="node34" class="node">
<title>Node39</title>
<g id="a_node34"><a xlink:href="../../d8/dba/vpiecenode_8cpp.html" target="_top" xlink:title=" ">
<polygon fill="white" stroke="black" points="4293.5,-0.5 4293.5,-30.5 4400.5,-30.5 4400.5,-0.5 4293.5,-0.5"/>
<text text-anchor="start" x="4301.5" y="-18.5" font-family="Helvetica,sans-Serif" font-size="10.00">src/libs/vpatterndb</text>
<text text-anchor="middle" x="4347" y="-7.5" font-family="Helvetica,sans-Serif" font-size="10.00">/vpiecenode.cpp</text>
</a>
</g>
</g>
<!-- Node4&#45;&gt;Node39 -->
<g id="edge56" class="edge">
<title>Node4&#45;&gt;Node39</title>
<path fill="none" stroke="midnightblue" d="M5596.13,-192.36C5606.04,-174.06 5622.19,-149.14 5643,-134 5685.96,-102.74 5725.59,-140.86 5757,-98 5765.14,-86.89 5766.57,-76.92 5757,-67 5709.09,-17.34 4652.71,-15.98 4400.65,-16.36"/>
<polygon fill="midnightblue" stroke="midnightblue" points="5593.02,-190.76 5591.52,-201.24 5599.23,-193.98 5593.02,-190.76"/>
</g>
<!-- Node40 -->
<g id="node35" class="node">
<title>Node40</title>
<g id="a_node35"><a xlink:href="../../df/d7a/vpiece_8cpp.html" target="_top" xlink:title=" ">
<polygon fill="white" stroke="black" points="5640.5,-67.5 5640.5,-97.5 5747.5,-97.5 5747.5,-67.5 5640.5,-67.5"/>
<text text-anchor="start" x="5648.5" y="-85.5" font-family="Helvetica,sans-Serif" font-size="10.00">src/libs/vpatterndb</text>
<text text-anchor="middle" x="5694" y="-74.5" font-family="Helvetica,sans-Serif" font-size="10.00">/vpiece.cpp</text>
</a>
</g>
</g>
<!-- Node4&#45;&gt;Node40 -->
<g id="edge55" class="edge">
<title>Node4&#45;&gt;Node40</title>
<path fill="none" stroke="midnightblue" d="M5587.37,-191.41C5590.13,-173.95 5596.11,-150.59 5609,-134 5621.53,-117.87 5640.78,-105.82 5657.79,-97.55"/>
<polygon fill="midnightblue" stroke="midnightblue" points="5583.89,-191.03 5586.03,-201.4 5590.83,-191.96 5583.89,-191.03"/>
</g>
<!-- Node56 -->
<g id="node45" class="node">
<title>Node56</title>
<g id="a_node45"><a xlink:href="../../d1/de1/vincrement__p_8h.html" target="_top" xlink:title=" ">
<polygon fill="white" stroke="red" points="5651.5,-134.5 5651.5,-164.5 5794.5,-164.5 5794.5,-134.5 5651.5,-134.5"/>
<text text-anchor="start" x="5659.5" y="-152.5" font-family="Helvetica,sans-Serif" font-size="10.00">src/libs/vpatterndb</text>
<text text-anchor="middle" x="5723" y="-141.5" font-family="Helvetica,sans-Serif" font-size="10.00">/variables/vincrement_p.h</text>
</a>
</g>
</g>
<!-- Node4&#45;&gt;Node56 -->
<g id="edge50" class="edge">
<title>Node4&#45;&gt;Node56</title>
<path fill="none" stroke="midnightblue" d="M5624,-197.13C5645.93,-186.8 5672.87,-174.11 5693.11,-164.58"/>
<polygon fill="midnightblue" stroke="midnightblue" points="5622.5,-193.97 5614.94,-201.4 5625.48,-200.3 5622.5,-193.97"/>
</g>
<!-- Node58 -->
<g id="node46" class="node">
<title>Node58</title>
<g id="a_node46"><a xlink:href="../../d6/dc1/vmeasurement__p_8h.html" target="_top" xlink:title=" ">
<polygon fill="white" stroke="red" points="5813,-134.5 5813,-164.5 5975,-164.5 5975,-134.5 5813,-134.5"/>
<text text-anchor="start" x="5821" y="-152.5" font-family="Helvetica,sans-Serif" font-size="10.00">src/libs/vpatterndb</text>
<text text-anchor="middle" x="5894" y="-141.5" font-family="Helvetica,sans-Serif" font-size="10.00">/variables/vmeasurement_p.h</text>
</a>
</g>
</g>
<!-- Node4&#45;&gt;Node58 -->
<g id="edge51" class="edge">
<title>Node4&#45;&gt;Node58</title>
<path fill="none" stroke="midnightblue" d="M5648.63,-202.12C5700.79,-191.14 5774.38,-175.66 5827.34,-164.52"/>
<polygon fill="midnightblue" stroke="midnightblue" points="5647.89,-198.69 5638.82,-204.18 5649.33,-205.54 5647.89,-198.69"/>
</g>
<!-- Node60 -->
<g id="node47" class="node">
<title>Node60</title>
<g id="a_node47"><a xlink:href="../../d6/d91/vnodedetail_8cpp.html" target="_top" xlink:title=" ">
<polygon fill="white" stroke="black" points="5993.5,-134.5 5993.5,-164.5 6100.5,-164.5 6100.5,-134.5 5993.5,-134.5"/>
<text text-anchor="start" x="6001.5" y="-152.5" font-family="Helvetica,sans-Serif" font-size="10.00">src/libs/vpatterndb</text>
<text text-anchor="middle" x="6047" y="-141.5" font-family="Helvetica,sans-Serif" font-size="10.00">/vnodedetail.cpp</text>
</a>
</g>
</g>
<!-- Node4&#45;&gt;Node60 -->
<g id="edge53" class="edge">
<title>Node4&#45;&gt;Node60</title>
<path fill="none" stroke="midnightblue" d="M5648.78,-209.42C5727.8,-201.43 5866.4,-185.92 5984,-165 5987.09,-164.45 5990.26,-163.85 5993.46,-163.21"/>
<polygon fill="midnightblue" stroke="midnightblue" points="5648.1,-205.97 5638.5,-210.45 5648.8,-212.94 5648.1,-205.97"/>
</g>
<!-- Node61 -->
<g id="node48" class="node">
<title>Node61</title>
<g id="a_node48"><a xlink:href="../../da/de1/vpiecepath_8cpp.html" target="_top" xlink:title=" ">
<polygon fill="white" stroke="black" points="6118.5,-134.5 6118.5,-164.5 6225.5,-164.5 6225.5,-134.5 6118.5,-134.5"/>
<text text-anchor="start" x="6126.5" y="-152.5" font-family="Helvetica,sans-Serif" font-size="10.00">src/libs/vpatterndb</text>
<text text-anchor="middle" x="6172" y="-141.5" font-family="Helvetica,sans-Serif" font-size="10.00">/vpiecepath.cpp</text>
</a>
</g>
</g>
<!-- Node4&#45;&gt;Node61 -->
<g id="edge57" class="edge">
<title>Node4&#45;&gt;Node61</title>
<path fill="none" stroke="midnightblue" d="M5648.74,-212.13C5747.89,-206.26 5944.85,-192.13 6110,-165 6112.73,-164.55 6115.51,-164.05 6118.32,-163.52"/>
<polygon fill="midnightblue" stroke="midnightblue" points="5648.37,-208.64 5638.59,-212.72 5648.78,-215.63 5648.37,-208.64"/>
</g>
<!-- Node62 -->
<g id="node49" class="node">
<title>Node62</title>
<g id="a_node49"><a xlink:href="../../d1/d3a/abstracttest_8cpp.html" target="_top" xlink:title=" ">
<polygon fill="white" stroke="black" points="6243.5,-140 6243.5,-159 6404.5,-159 6404.5,-140 6243.5,-140"/>
<text text-anchor="middle" x="6324" y="-147" font-family="Helvetica,sans-Serif" font-size="10.00">src/libs/vtest/abstracttest.cpp</text>
</a>
</g>
</g>
<!-- Node4&#45;&gt;Node62 -->
<g id="edge58" class="edge">
<title>Node4&#45;&gt;Node62</title>
<path fill="none" stroke="midnightblue" d="M5648.84,-212.32C5765.51,-206.12 6020.92,-190.71 6235,-165 6248.37,-163.39 6262.8,-161.23 6276.07,-159.07"/>
<polygon fill="midnightblue" stroke="midnightblue" points="5648.46,-208.84 5638.65,-212.86 5648.83,-215.83 5648.46,-208.84"/>
</g>
<!-- Node63 -->
<g id="node50" class="node">
<title>Node63</title>
<g id="a_node50"><a xlink:href="../../da/db4/piece__tablewidgetitem_8cpp.html" target="_top" xlink:title=" ">
<polygon fill="white" stroke="black" points="6423,-134.5 6423,-164.5 6551,-164.5 6551,-134.5 6423,-134.5"/>
<text text-anchor="start" x="6431" y="-152.5" font-family="Helvetica,sans-Serif" font-size="10.00">src/libs/vwidgets/piece</text>
<text text-anchor="middle" x="6487" y="-141.5" font-family="Helvetica,sans-Serif" font-size="10.00">_tablewidgetitem.cpp</text>
</a>
</g>
</g>
<!-- Node4&#45;&gt;Node63 -->
<g id="edge59" class="edge">
<title>Node4&#45;&gt;Node63</title>
<path fill="none" stroke="midnightblue" d="M5648.65,-214.55C5787.96,-211.84 6130.09,-201.67 6414,-165 6416.95,-164.62 6419.95,-164.19 6422.99,-163.72"/>
<polygon fill="midnightblue" stroke="midnightblue" points="5648.51,-211.05 5638.58,-214.74 5648.64,-218.05 5648.51,-211.05"/>
</g>
<!-- Node5&#45;&gt;Node6 -->
<g id="edge5" class="edge">
<title>Node5&#45;&gt;Node6</title>
<path fill="none" stroke="midnightblue" d="M204.28,-135.44C177.94,-122.57 138.43,-103.26 115.73,-92.17"/>
<polygon fill="midnightblue" stroke="midnightblue" points="202.82,-138.62 213.34,-139.87 205.89,-132.33 202.82,-138.62"/>
</g>
<!-- Node8 -->
<g id="node8" class="node">
<title>Node8</title>
<g id="a_node8"><a xlink:href="../../dd/d66/vdxfengine_8cpp.html" target="_top" xlink:title=" ">
<polygon fill="white" stroke="black" points="616,-73 616,-92 770,-92 770,-73 616,-73"/>
<text text-anchor="middle" x="693" y="-80" font-family="Helvetica,sans-Serif" font-size="10.00">src/libs/vdxf/vdxfengine.cpp</text>
</a>
</g>
</g>
<!-- Node7&#45;&gt;Node8 -->
<g id="edge8" class="edge">
<title>Node7&#45;&gt;Node8</title>
<path fill="none" stroke="midnightblue" d="M828.15,-136.1C794.99,-123.2 743.94,-103.33 715,-92.06"/>
<polygon fill="midnightblue" stroke="midnightblue" points="827.24,-139.5 837.82,-139.87 829.77,-132.98 827.24,-139.5"/>
</g>
<!-- Node9 -->
<g id="node9" class="node">
<title>Node9</title>
<g id="a_node9"><a xlink:href="../../de/da8/vbank_8cpp.html" target="_top" xlink:title=" ">
<polygon fill="white" stroke="black" points="788,-73 788,-92 932,-92 932,-73 788,-73"/>
<text text-anchor="middle" x="860" y="-80" font-family="Helvetica,sans-Serif" font-size="10.00">src/libs/vlayout/vbank.cpp</text>
</a>
</g>
</g>
<!-- Node7&#45;&gt;Node9 -->
<g id="edge9" class="edge">
<title>Node7&#45;&gt;Node9</title>
<path fill="none" stroke="midnightblue" d="M860,-129.54C860,-117.17 860,-101.62 860,-92.13"/>
<polygon fill="midnightblue" stroke="midnightblue" points="856.5,-129.73 860,-139.73 863.5,-129.73 856.5,-129.73"/>
</g>
<!-- Node10 -->
<g id="node10" class="node">
<title>Node10</title>
<g id="a_node10"><a xlink:href="../../df/d5d/vcontour_8cpp.html" target="_top" xlink:title=" ">
<polygon fill="white" stroke="black" points="950,-73 950,-92 1106,-92 1106,-73 950,-73"/>
<text text-anchor="middle" x="1028" y="-80" font-family="Helvetica,sans-Serif" font-size="10.00">src/libs/vlayout/vcontour.cpp</text>
</a>
</g>
</g>
<!-- Node7&#45;&gt;Node10 -->
<g id="edge10" class="edge">
<title>Node7&#45;&gt;Node10</title>
<path fill="none" stroke="midnightblue" d="M892.04,-136.1C925.39,-123.2 976.75,-103.33 1005.87,-92.06"/>
<polygon fill="midnightblue" stroke="midnightblue" points="890.37,-133 882.31,-139.87 892.9,-139.52 890.37,-133"/>
</g>
<!-- Node11 -->
<g id="node11" class="node">
<title>Node11</title>
<g id="a_node11"><a xlink:href="../../d3/d39/vlayoutgenerator_8cpp.html" target="_top" xlink:title=" ">
<polygon fill="white" stroke="black" points="1124.5,-73 1124.5,-92 1321.5,-92 1321.5,-73 1124.5,-73"/>
<text text-anchor="middle" x="1223" y="-80" font-family="Helvetica,sans-Serif" font-size="10.00">src/libs/vlayout/vlayoutgenerator.cpp</text>
</a>
</g>
</g>
<!-- Node7&#45;&gt;Node11 -->
<g id="edge11" class="edge">
<title>Node7&#45;&gt;Node11</title>
<path fill="none" stroke="midnightblue" d="M917.99,-138.12C989.34,-125.34 1109.12,-103.89 1175.35,-92.03"/>
<polygon fill="midnightblue" stroke="midnightblue" points="917.06,-134.73 907.83,-139.94 918.29,-141.62 917.06,-134.73"/>
</g>
<!-- Node12 -->
<g id="node12" class="node">
<title>Node12</title>
<g id="a_node12"><a xlink:href="../../d2/d2d/vlayoutpaper__p_8h.html" target="_top" xlink:title=" ">
<polygon fill="white" stroke="black" points="214.5,-73 214.5,-92 393.5,-92 393.5,-73 214.5,-73"/>
<text text-anchor="middle" x="304" y="-80" font-family="Helvetica,sans-Serif" font-size="10.00">src/libs/vlayout/vlayoutpaper_p.h</text>
</a>
</g>
</g>
<!-- Node7&#45;&gt;Node12 -->
<g id="edge12" class="edge">
<title>Node7&#45;&gt;Node12</title>
<path fill="none" stroke="midnightblue" d="M766.75,-139.17C674.32,-129.69 528.72,-114.15 403,-98 388.96,-96.2 373.82,-94.07 359.71,-92.01"/>
<polygon fill="midnightblue" stroke="midnightblue" points="766.62,-142.68 776.92,-140.21 767.33,-135.71 766.62,-142.68"/>
</g>
<!-- Node13 -->
<g id="node13" class="node">
<title>Node13</title>
<g id="a_node13"><a xlink:href="../../d1/dd1/vlayoutpaper_8cpp.html" target="_top" xlink:title=" ">
<polygon fill="white" stroke="black" points="397,-6 397,-25 575,-25 575,-6 397,-6"/>
<text text-anchor="middle" x="486" y="-13" font-family="Helvetica,sans-Serif" font-size="10.00">src/libs/vlayout/vlayoutpaper.cpp</text>
</a>
</g>
</g>
<!-- Node7&#45;&gt;Node13 -->
<g id="edge14" class="edge">
<title>Node7&#45;&gt;Node13</title>
<path fill="none" stroke="midnightblue" d="M766.75,-140.84C717.43,-134.13 656.93,-121.55 607,-98 587.29,-88.7 586.8,-79.58 569,-67 546.28,-50.93 518.36,-34.6 501.39,-25.02"/>
<polygon fill="midnightblue" stroke="midnightblue" points="766.41,-144.33 776.78,-142.15 767.31,-137.38 766.41,-144.33"/>
</g>
<!-- Node14 -->
<g id="node14" class="node">
<title>Node14</title>
<g id="a_node14"><a xlink:href="../../db/d5c/vposition_8h.html" target="_top" xlink:title=" ">
<polygon fill="white" stroke="red" points="412,-73 412,-92 560,-92 560,-73 412,-73"/>
<text text-anchor="middle" x="486" y="-80" font-family="Helvetica,sans-Serif" font-size="10.00">src/libs/vlayout/vposition.h</text>
</a>
</g>
</g>
<!-- Node7&#45;&gt;Node14 -->
<g id="edge15" class="edge">
<title>Node7&#45;&gt;Node14</title>
<path fill="none" stroke="midnightblue" d="M800.7,-138.19C727.25,-125.43 603.47,-103.92 535.09,-92.03"/>
<polygon fill="midnightblue" stroke="midnightblue" points="800.27,-141.67 810.72,-139.94 801.47,-134.77 800.27,-141.67"/>
</g>
<!-- Node16 -->
<g id="node15" class="node">
<title>Node16</title>
<g id="a_node15"><a xlink:href="../../dd/d70/vlayoutpiece_8cpp.html" target="_top" xlink:title=" ">
<polygon fill="white" stroke="black" points="1339.5,-73 1339.5,-92 1516.5,-92 1516.5,-73 1339.5,-73"/>
<text text-anchor="middle" x="1428" y="-80" font-family="Helvetica,sans-Serif" font-size="10.00">src/libs/vlayout/vlayoutpiece.cpp</text>
</a>
</g>
</g>
<!-- Node7&#45;&gt;Node16 -->
<g id="edge17" class="edge">
<title>Node7&#45;&gt;Node16</title>
<path fill="none" stroke="midnightblue" d="M953.47,-139.56C1048.41,-130.23 1199.62,-114.64 1330,-98 1343.99,-96.21 1359.07,-94.08 1373.11,-92.01"/>
<polygon fill="midnightblue" stroke="midnightblue" points="952.93,-136.1 943.32,-140.56 953.61,-143.07 952.93,-136.1"/>
</g>
<!-- Node12&#45;&gt;Node13 -->
<g id="edge13" class="edge">
<title>Node12&#45;&gt;Node13</title>
<path fill="none" stroke="midnightblue" d="M337.78,-69.44C373.88,-56.54 430.21,-36.42 462.02,-25.06"/>
<polygon fill="midnightblue" stroke="midnightblue" points="336.41,-66.21 328.17,-72.87 338.76,-72.8 336.41,-66.21"/>
</g>
<!-- Node14&#45;&gt;Node13 -->
<g id="edge16" class="edge">
<title>Node14&#45;&gt;Node13</title>
<path fill="none" stroke="midnightblue" d="M486,-62.54C486,-50.17 486,-34.62 486,-25.13"/>
<polygon fill="midnightblue" stroke="midnightblue" points="482.5,-62.73 486,-72.73 489.5,-62.73 482.5,-62.73"/>
</g>
<!-- Node18&#45;&gt;Node16 -->
<g id="edge31" class="edge">
<title>Node18&#45;&gt;Node16</title>
<path fill="none" stroke="midnightblue" d="M3374.31,-147.44C3019.52,-143.67 1889.39,-129.46 1526,-98 1510.15,-96.63 1492.96,-94.35 1477.47,-92.01"/>
<polygon fill="midnightblue" stroke="midnightblue" points="3374.29,-150.94 3384.32,-147.54 3374.36,-143.94 3374.29,-150.94"/>
</g>
<!-- Node18&#45;&gt;Node17 -->
<g id="edge30" class="edge">
<title>Node18&#45;&gt;Node17</title>
<path fill="none" stroke="midnightblue" d="M3374.45,-147.03C3044.36,-142.27 2048.63,-125.94 1726,-98 1709.92,-96.61 1692.48,-94.34 1676.74,-92.01"/>
<polygon fill="midnightblue" stroke="midnightblue" points="3374.44,-150.53 3384.49,-147.18 3374.54,-143.53 3374.44,-150.53"/>
</g>
<!-- Node19 -->
<g id="node18" class="node">
<title>Node19</title>
<g id="a_node18"><a xlink:href="../../d4/d90/fvupdater_8cpp.html" target="_top" xlink:title=" ">
<polygon fill="white" stroke="black" points="4691.5,-73 4691.5,-92 4844.5,-92 4844.5,-73 4691.5,-73"/>
<text text-anchor="middle" x="4768" y="-80" font-family="Helvetica,sans-Serif" font-size="10.00">src/libs/fervor/fvupdater.cpp</text>
</a>
</g>
</g>
<!-- Node18&#45;&gt;Node19 -->
<g id="edge20" class="edge">
<title>Node18&#45;&gt;Node19</title>
<path fill="none" stroke="midnightblue" d="M3589.64,-148.47C3800.08,-147.42 4280.56,-140.12 4682,-98 4695.7,-96.56 4710.53,-94.31 4723.95,-92.01"/>
<polygon fill="midnightblue" stroke="midnightblue" points="3589.5,-144.97 3579.52,-148.52 3589.53,-151.97 3589.5,-144.97"/>
</g>
<!-- Node20 -->
<g id="node19" class="node">
<title>Node20</title>
<g id="a_node19"><a xlink:href="../../d9/dc8/dxiface_8cpp.html" target="_top" xlink:title=" ">
<polygon fill="white" stroke="black" points="4862.5,-73 4862.5,-92 4997.5,-92 4997.5,-73 4862.5,-73"/>
<text text-anchor="middle" x="4930" y="-80" font-family="Helvetica,sans-Serif" font-size="10.00">src/libs/vdxf/dxiface.cpp</text>
</a>
</g>
</g>
<!-- Node18&#45;&gt;Node20 -->
<g id="edge21" class="edge">
<title>Node18&#45;&gt;Node20</title>
<path fill="none" stroke="midnightblue" d="M3589.75,-146.61C3868.56,-141.39 4608.96,-125.32 4853,-98 4865.44,-96.61 4878.88,-94.34 4891,-92.01"/>
<polygon fill="midnightblue" stroke="midnightblue" points="3589.56,-143.11 3579.62,-146.8 3589.69,-150.11 3589.56,-143.11"/>
</g>
<!-- Node21 -->
<g id="node20" class="node">
<title>Node21</title>
<g id="a_node20"><a xlink:href="../../da/d75/vabstractarc__p_8h.html" target="_top" xlink:title=" ">
<polygon fill="white" stroke="red" points="5015.5,-67.5 5015.5,-97.5 5122.5,-97.5 5122.5,-67.5 5015.5,-67.5"/>
<text text-anchor="start" x="5023.5" y="-85.5" font-family="Helvetica,sans-Serif" font-size="10.00">src/libs/vgeometry</text>
<text text-anchor="middle" x="5069" y="-74.5" font-family="Helvetica,sans-Serif" font-size="10.00">/vabstractarc_p.h</text>
</a>
</g>
</g>
<!-- Node18&#45;&gt;Node21 -->
<g id="edge22" class="edge">
<title>Node18&#45;&gt;Node21</title>
<path fill="none" stroke="midnightblue" d="M3589.77,-147.63C3889.99,-144.79 4731.76,-133.76 5006,-98 5009,-97.61 5012.08,-97.14 5015.17,-96.61"/>
<polygon fill="midnightblue" stroke="midnightblue" points="3589.72,-144.13 3579.75,-147.73 3589.78,-151.13 3589.72,-144.13"/>
</g>
<!-- Node23 -->
<g id="node21" class="node">
<title>Node23</title>
<g id="a_node21"><a xlink:href="../../dc/da3/varc__p_8h.html" target="_top" xlink:title=" ">
<polygon fill="white" stroke="red" points="5140.5,-67.5 5140.5,-97.5 5247.5,-97.5 5247.5,-67.5 5140.5,-67.5"/>
<text text-anchor="start" x="5148.5" y="-85.5" font-family="Helvetica,sans-Serif" font-size="10.00">src/libs/vgeometry</text>
<text text-anchor="middle" x="5194" y="-74.5" font-family="Helvetica,sans-Serif" font-size="10.00">/varc_p.h</text>
</a>
</g>
</g>
<!-- Node18&#45;&gt;Node23 -->
<g id="edge23" class="edge">
<title>Node18&#45;&gt;Node23</title>
<path fill="none" stroke="midnightblue" d="M3589.63,-147.95C3906.32,-145.9 4831.46,-136.68 5131,-98 5134.01,-97.61 5137.08,-97.14 5140.17,-96.62"/>
<polygon fill="midnightblue" stroke="midnightblue" points="3589.5,-144.45 3579.53,-148.02 3589.55,-151.45 3589.5,-144.45"/>
</g>
<!-- Node25 -->
<g id="node22" class="node">
<title>Node25</title>
<g id="a_node22"><a xlink:href="../../d5/d8e/vcubicbezier__p_8h.html" target="_top" xlink:title=" ">
<polygon fill="white" stroke="red" points="5265.5,-67.5 5265.5,-97.5 5372.5,-97.5 5372.5,-67.5 5265.5,-67.5"/>
<text text-anchor="start" x="5273.5" y="-85.5" font-family="Helvetica,sans-Serif" font-size="10.00">src/libs/vgeometry</text>
<text text-anchor="middle" x="5319" y="-74.5" font-family="Helvetica,sans-Serif" font-size="10.00">/vcubicbezier_p.h</text>
</a>
</g>
</g>
<!-- Node18&#45;&gt;Node25 -->
<g id="edge24" class="edge">
<title>Node18&#45;&gt;Node25</title>
<path fill="none" stroke="midnightblue" d="M3589.9,-148.22C3922.85,-146.93 4931.21,-139.58 5256,-98 5259.01,-97.62 5262.08,-97.15 5265.17,-96.63"/>
<polygon fill="midnightblue" stroke="midnightblue" points="3589.76,-144.72 3579.78,-148.26 3589.79,-151.72 3589.76,-144.72"/>
</g>
<!-- Node27 -->
<g id="node23" class="node">
<title>Node27</title>
<g id="a_node23"><a xlink:href="../../df/dde/vellipticalarc__p_8h.html" target="_top" xlink:title=" ">
<polygon fill="white" stroke="black" points="1735.5,-67.5 1735.5,-97.5 1842.5,-97.5 1842.5,-67.5 1735.5,-67.5"/>
<text text-anchor="start" x="1743.5" y="-85.5" font-family="Helvetica,sans-Serif" font-size="10.00">src/libs/vgeometry</text>
<text text-anchor="middle" x="1789" y="-74.5" font-family="Helvetica,sans-Serif" font-size="10.00">/vellipticalarc_p.h</text>
</a>
</g>
</g>
<!-- Node18&#45;&gt;Node27 -->
<g id="edge25" class="edge">
<title>Node18&#45;&gt;Node27</title>
<path fill="none" stroke="midnightblue" d="M3374.32,-147.67C3060.76,-144.85 2151.95,-133.74 1857,-98 1852.33,-97.43 1847.5,-96.7 1842.67,-95.87"/>
<polygon fill="midnightblue" stroke="midnightblue" points="3374.29,-151.17 3384.32,-147.76 3374.35,-144.17 3374.29,-151.17"/>
</g>
<!-- Node28 -->
<g id="node24" class="node">
<title>Node28</title>
<g id="a_node24"><a xlink:href="../../d6/dfb/vellipticalarc_8cpp.html" target="_top" xlink:title=" ">
<polygon fill="white" stroke="black" points="1776.5,-0.5 1776.5,-30.5 1883.5,-30.5 1883.5,-0.5 1776.5,-0.5"/>
<text text-anchor="start" x="1784.5" y="-18.5" font-family="Helvetica,sans-Serif" font-size="10.00">src/libs/vgeometry</text>
<text text-anchor="middle" x="1830" y="-7.5" font-family="Helvetica,sans-Serif" font-size="10.00">/vellipticalarc.cpp</text>
</a>
</g>
</g>
<!-- Node18&#45;&gt;Node28 -->
<g id="edge27" class="edge">
<title>Node18&#45;&gt;Node28</title>
<path fill="none" stroke="midnightblue" d="M3374.22,-146.34C3021.58,-139.12 1922.86,-115.27 1890,-98 1862.32,-83.45 1844.12,-49.73 1835.61,-30.53"/>
<polygon fill="midnightblue" stroke="midnightblue" points="3374.36,-149.84 3384.43,-146.55 3374.5,-142.85 3374.36,-149.84"/>
</g>
<!-- Node29 -->
<g id="node25" class="node">
<title>Node29</title>
<g id="a_node25"><a xlink:href="../../d1/d76/vspline__p_8h.html" target="_top" xlink:title=" ">
<polygon fill="white" stroke="red" points="1899.5,-67.5 1899.5,-97.5 2006.5,-97.5 2006.5,-67.5 1899.5,-67.5"/>
<text text-anchor="start" x="1907.5" y="-85.5" font-family="Helvetica,sans-Serif" font-size="10.00">src/libs/vgeometry</text>
<text text-anchor="middle" x="1953" y="-74.5" font-family="Helvetica,sans-Serif" font-size="10.00">/vspline_p.h</text>
</a>
</g>
</g>
<!-- Node18&#45;&gt;Node29 -->
<g id="edge28" class="edge">
<title>Node18&#45;&gt;Node29</title>
<path fill="none" stroke="midnightblue" d="M3374.29,-147.47C3082.05,-144.24 2278.57,-132.41 2016,-98 2013,-97.61 2009.92,-97.13 2006.83,-96.6"/>
<polygon fill="midnightblue" stroke="midnightblue" points="3374.43,-150.97 3384.46,-147.58 3374.5,-143.97 3374.43,-150.97"/>
</g>
<!-- Node31 -->
<g id="node26" class="node">
<title>Node31</title>
<g id="a_node26"><a xlink:href="../../d9/d15/vabstractpiece_8cpp.html" target="_top" xlink:title=" ">
<polygon fill="white" stroke="black" points="2025,-73 2025,-92 2211,-92 2211,-73 2025,-73"/>
<text text-anchor="middle" x="2118" y="-80" font-family="Helvetica,sans-Serif" font-size="10.00">src/libs/vlayout/vabstractpiece.cpp</text>
</a>
</g>
</g>
<!-- Node18&#45;&gt;Node31 -->
<g id="edge29" class="edge">
<title>Node18&#45;&gt;Node31</title>
<path fill="none" stroke="midnightblue" d="M3374.23,-147.86C3155.96,-145.75 2646.16,-136.72 2220,-98 2203.88,-96.54 2186.41,-94.29 2170.56,-92.01"/>
<polygon fill="midnightblue" stroke="midnightblue" points="3374.37,-151.36 3384.4,-147.95 3374.44,-144.36 3374.37,-151.36"/>
</g>
<!-- Node32 -->
<g id="node27" class="node">
<title>Node32</title>
<g id="a_node27"><a xlink:href="../../db/d65/dialogexporttocsv_8cpp.html" target="_top" xlink:title=" ">
<polygon fill="white" stroke="black" points="2229.5,-67.5 2229.5,-97.5 2356.5,-97.5 2356.5,-67.5 2229.5,-67.5"/>
<text text-anchor="start" x="2237.5" y="-85.5" font-family="Helvetica,sans-Serif" font-size="10.00">src/libs/vmisc/dialogs</text>
<text text-anchor="middle" x="2293" y="-74.5" font-family="Helvetica,sans-Serif" font-size="10.00">/dialogexporttocsv.cpp</text>
</a>
</g>
</g>
<!-- Node18&#45;&gt;Node32 -->
<g id="edge32" class="edge">
<title>Node18&#45;&gt;Node32</title>
<path fill="none" stroke="midnightblue" d="M3373.99,-149.01C3174.22,-148.76 2733.85,-142.6 2366,-98 2362.92,-97.63 2359.78,-97.2 2356.61,-96.72"/>
<polygon fill="midnightblue" stroke="midnightblue" points="3374.18,-152.51 3384.19,-149.02 3374.19,-145.51 3374.18,-152.51"/>
</g>
<!-- Node33 -->
<g id="node28" class="node">
<title>Node33</title>
<g id="a_node28"><a xlink:href="../../d6/d0b/def_8cpp.html" target="_top" xlink:title=" ">
<polygon fill="white" stroke="black" points="2375,-73 2375,-92 2497,-92 2497,-73 2375,-73"/>
<text text-anchor="middle" x="2436" y="-80" font-family="Helvetica,sans-Serif" font-size="10.00">src/libs/vmisc/def.cpp</text>
</a>
</g>
</g>
<!-- Node18&#45;&gt;Node33 -->
<g id="edge33" class="edge">
<title>Node18&#45;&gt;Node33</title>
<path fill="none" stroke="midnightblue" d="M3374.22,-148.28C3193.81,-146.72 2819.6,-138.35 2506,-98 2494.8,-96.56 2482.72,-94.31 2471.79,-92.01"/>
<polygon fill="midnightblue" stroke="midnightblue" points="3374.21,-151.78 3384.24,-148.36 3374.27,-144.78 3374.21,-151.78"/>
</g>
<!-- Node34 -->
<g id="node29" class="node">
<title>Node34</title>
<g id="a_node29"><a xlink:href="../../d0/df6/vabstractapplication_8cpp.html" target="_top" xlink:title=" ">
<polygon fill="white" stroke="black" points="2515,-73 2515,-92 2721,-92 2721,-73 2515,-73"/>
<text text-anchor="middle" x="2618" y="-80" font-family="Helvetica,sans-Serif" font-size="10.00">src/libs/vmisc/vabstractapplication.cpp</text>
</a>
</g>
</g>
<!-- Node18&#45;&gt;Node34 -->
<g id="edge34" class="edge">
<title>Node18&#45;&gt;Node34</title>
<path fill="none" stroke="midnightblue" d="M3374.19,-143.35C3228.01,-135.9 2958.91,-120.48 2730,-98 2713.22,-96.35 2695.07,-94.17 2678.37,-92.01"/>
<polygon fill="midnightblue" stroke="midnightblue" points="3374.33,-146.87 3384.5,-143.88 3374.69,-139.88 3374.33,-146.87"/>
</g>
<!-- Node35 -->
<g id="node30" class="node">
<title>Node35</title>
<g id="a_node30"><a xlink:href="../../d4/d4f/pmsystems_8cpp.html" target="_top" xlink:title=" ">
<polygon fill="white" stroke="black" points="2739.5,-67.5 2739.5,-97.5 2846.5,-97.5 2846.5,-67.5 2739.5,-67.5"/>
<text text-anchor="start" x="2747.5" y="-85.5" font-family="Helvetica,sans-Serif" font-size="10.00">src/libs/vpatterndb</text>
<text text-anchor="middle" x="2793" y="-74.5" font-family="Helvetica,sans-Serif" font-size="10.00">/pmsystems.cpp</text>
</a>
</g>
</g>
<!-- Node18&#45;&gt;Node35 -->
<g id="edge35" class="edge">
<title>Node18&#45;&gt;Node35</title>
<path fill="none" stroke="midnightblue" d="M3373.9,-144.7C3248.48,-139.16 3035.77,-126.26 2855,-98 2852.27,-97.57 2849.48,-97.09 2846.67,-96.57"/>
<polygon fill="midnightblue" stroke="midnightblue" points="3374.12,-148.21 3384.26,-145.15 3374.42,-141.22 3374.12,-148.21"/>
</g>
<!-- Node18&#45;&gt;Node36 -->
<g id="edge36" class="edge">
<title>Node18&#45;&gt;Node36</title>
<path fill="none" stroke="midnightblue" d="M3589.63,-148.46C3937.72,-147.89 5030.7,-142.52 5381,-98 5384.01,-97.62 5387.08,-97.16 5390.17,-96.63"/>
<polygon fill="midnightblue" stroke="midnightblue" points="3589.54,-144.96 3579.55,-148.48 3589.55,-151.96 3589.54,-144.96"/>
</g>
<!-- Node18&#45;&gt;Node37 -->
<g id="edge37" class="edge">
<title>Node18&#45;&gt;Node37</title>
<path fill="none" stroke="midnightblue" d="M3589.78,-148.67C3952.96,-148.79 5130.26,-145.44 5506,-98 5509.01,-97.62 5512.08,-97.16 5515.17,-96.64"/>
<polygon fill="midnightblue" stroke="midnightblue" points="3589.53,-145.17 3579.53,-148.67 3589.53,-152.17 3589.53,-145.17"/>
</g>
<!-- Node38 -->
<g id="node33" class="node">
<title>Node38</title>
<g id="a_node33"><a xlink:href="../../df/dba/vpiecenode__p_8h.html" target="_top" xlink:title=" ">
<polygon fill="white" stroke="black" points="2864.5,-67.5 2864.5,-97.5 2971.5,-97.5 2971.5,-67.5 2864.5,-67.5"/>
<text text-anchor="start" x="2872.5" y="-85.5" font-family="Helvetica,sans-Serif" font-size="10.00">src/libs/vpatterndb</text>
<text text-anchor="middle" x="2918" y="-74.5" font-family="Helvetica,sans-Serif" font-size="10.00">/vpiecenode_p.h</text>
</a>
</g>
</g>
<!-- Node18&#45;&gt;Node38 -->
<g id="edge38" class="edge">
<title>Node18&#45;&gt;Node38</title>
<path fill="none" stroke="midnightblue" d="M3374.09,-141.56C3272.27,-134.09 3115.61,-120.18 2981,-98 2977.9,-97.49 2974.72,-96.92 2971.53,-96.3"/>
<polygon fill="midnightblue" stroke="midnightblue" points="3373.84,-145.05 3384.07,-142.29 3374.35,-138.07 3373.84,-145.05"/>
</g>
<!-- Node18&#45;&gt;Node40 -->
<g id="edge40" class="edge">
<title>Node18&#45;&gt;Node40</title>
<path fill="none" stroke="midnightblue" d="M3589.63,-148.85C3967.12,-149.65 5229.66,-148.37 5631,-98 5634.01,-97.62 5637.08,-97.16 5640.17,-96.64"/>
<polygon fill="midnightblue" stroke="midnightblue" points="3589.54,-145.35 3579.53,-148.83 3589.53,-152.35 3589.54,-145.35"/>
</g>
<!-- Node41 -->
<g id="node36" class="node">
<title>Node41</title>
<g id="a_node36"><a xlink:href="../../de/d3e/vtranslatevars_8cpp.html" target="_top" xlink:title=" ">
<polygon fill="white" stroke="black" points="2990,-67.5 2990,-97.5 3100,-97.5 3100,-67.5 2990,-67.5"/>
<text text-anchor="start" x="2998" y="-85.5" font-family="Helvetica,sans-Serif" font-size="10.00">src/libs/vpatterndb</text>
<text text-anchor="middle" x="3045" y="-74.5" font-family="Helvetica,sans-Serif" font-size="10.00">/vtranslatevars.cpp</text>
</a>
</g>
</g>
<!-- Node18&#45;&gt;Node41 -->
<g id="edge41" class="edge">
<title>Node18&#45;&gt;Node41</title>
<path fill="none" stroke="midnightblue" d="M3394.19,-138.83C3318.39,-129.95 3206.09,-115.53 3109,-98 3106.09,-97.47 3103.1,-96.9 3100.09,-96.31"/>
<polygon fill="midnightblue" stroke="midnightblue" points="3393.84,-142.31 3404.18,-139.99 3394.65,-135.36 3393.84,-142.31"/>
</g>
<!-- Node42 -->
<g id="node37" class="node">
<title>Node42</title>
<g id="a_node37"><a xlink:href="../../df/d40/export__format__combobox_8cpp.html" target="_top" xlink:title=" ">
<polygon fill="white" stroke="black" points="3118.5,-67.5 3118.5,-97.5 3251.5,-97.5 3251.5,-67.5 3118.5,-67.5"/>
<text text-anchor="start" x="3126.5" y="-85.5" font-family="Helvetica,sans-Serif" font-size="10.00">src/libs/vwidgets/export</text>
<text text-anchor="middle" x="3185" y="-74.5" font-family="Helvetica,sans-Serif" font-size="10.00">_format_combobox.cpp</text>
</a>
</g>
</g>
<!-- Node18&#45;&gt;Node42 -->
<g id="edge42" class="edge">
<title>Node18&#45;&gt;Node42</title>
<path fill="none" stroke="midnightblue" d="M3432.9,-137.75C3382.67,-126.76 3304.37,-109.63 3249.24,-97.56"/>
<polygon fill="midnightblue" stroke="midnightblue" points="3432.35,-141.22 3442.87,-139.94 3433.85,-134.38 3432.35,-141.22"/>
</g>
<!-- Node43 -->
<g id="node38" class="node">
<title>Node43</title>
<g id="a_node38"><a xlink:href="../../d3/d4f/mouse__coordinates_8cpp.html" target="_top" xlink:title=" ">
<polygon fill="white" stroke="black" points="3270,-67.5 3270,-97.5 3404,-97.5 3404,-67.5 3270,-67.5"/>
<text text-anchor="start" x="3278" y="-85.5" font-family="Helvetica,sans-Serif" font-size="10.00">src/libs/vwidgets/mouse</text>
<text text-anchor="middle" x="3337" y="-74.5" font-family="Helvetica,sans-Serif" font-size="10.00">_coordinates.cpp</text>
</a>
</g>
</g>
<!-- Node18&#45;&gt;Node43 -->
<g id="edge43" class="edge">
<title>Node18&#45;&gt;Node43</title>
<path fill="none" stroke="midnightblue" d="M3453.6,-135.77C3429.05,-124.77 3393.64,-108.89 3368.29,-97.53"/>
<polygon fill="midnightblue" stroke="midnightblue" points="3452.19,-138.97 3462.75,-139.87 3455.05,-132.58 3452.19,-138.97"/>
</g>
<!-- Node44 -->
<g id="node39" class="node">
<title>Node44</title>
<g id="a_node39"><a xlink:href="../../d7/d1b/pen__toolbar_8cpp.html" target="_top" xlink:title=" ">
<polygon fill="white" stroke="black" points="3422.5,-67.5 3422.5,-97.5 3541.5,-97.5 3541.5,-67.5 3422.5,-67.5"/>
<text text-anchor="start" x="3430.5" y="-85.5" font-family="Helvetica,sans-Serif" font-size="10.00">src/libs/vwidgets/pen</text>
<text text-anchor="middle" x="3482" y="-74.5" font-family="Helvetica,sans-Serif" font-size="10.00">_toolbar.cpp</text>
</a>
</g>
</g>
<!-- Node18&#45;&gt;Node44 -->
<g id="edge44" class="edge">
<title>Node18&#45;&gt;Node44</title>
<path fill="none" stroke="midnightblue" d="M3482,-129.41C3482,-119.22 3482,-106.9 3482,-97.59"/>
<polygon fill="midnightblue" stroke="midnightblue" points="3478.5,-129.73 3482,-139.73 3485.5,-129.73 3478.5,-129.73"/>
</g>
<!-- Node45 -->
<g id="node40" class="node">
<title>Node45</title>
<g id="a_node40"><a xlink:href="../../d8/d76/scene__rect_8cpp.html" target="_top" xlink:title=" ">
<polygon fill="white" stroke="black" points="3560,-67.5 3560,-97.5 3690,-97.5 3690,-67.5 3560,-67.5"/>
<text text-anchor="start" x="3568" y="-85.5" font-family="Helvetica,sans-Serif" font-size="10.00">src/libs/vwidgets/scene</text>
<text text-anchor="middle" x="3625" y="-74.5" font-family="Helvetica,sans-Serif" font-size="10.00">_rect.cpp</text>
</a>
</g>
</g>
<!-- Node18&#45;&gt;Node45 -->
<g id="edge45" class="edge">
<title>Node18&#45;&gt;Node45</title>
<path fill="none" stroke="midnightblue" d="M3510.33,-135.62C3534.52,-124.63 3569.25,-108.84 3594.14,-97.53"/>
<polygon fill="midnightblue" stroke="midnightblue" points="3508.64,-132.54 3500.99,-139.87 3511.54,-138.92 3508.64,-132.54"/>
</g>
<!-- Node46 -->
<g id="node41" class="node">
<title>Node46</title>
<g id="a_node41"><a xlink:href="../../dd/df6/vabstractmainwindow_8cpp.html" target="_top" xlink:title=" ">
<polygon fill="white" stroke="black" points="3708.5,-73 3708.5,-92 3937.5,-92 3937.5,-73 3708.5,-73"/>
<text text-anchor="middle" x="3823" y="-80" font-family="Helvetica,sans-Serif" font-size="10.00">src/libs/vwidgets/vabstractmainwindow.cpp</text>
</a>
</g>
</g>
<!-- Node18&#45;&gt;Node46 -->
<g id="edge46" class="edge">
<title>Node18&#45;&gt;Node46</title>
<path fill="none" stroke="midnightblue" d="M3536.89,-138.04C3603.96,-125.25 3716.15,-103.87 3778.24,-92.03"/>
<polygon fill="midnightblue" stroke="midnightblue" points="3536.1,-134.62 3526.93,-139.94 3537.41,-141.5 3536.1,-134.62"/>
</g>
<!-- Node47 -->
<g id="node42" class="node">
<title>Node47</title>
<g id="a_node42"><a xlink:href="../../de/d45/vcontrolpointspline_8cpp.html" target="_top" xlink:title=" ">
<polygon fill="white" stroke="black" points="3955.5,-73 3955.5,-92 4170.5,-92 4170.5,-73 3955.5,-73"/>
<text text-anchor="middle" x="4063" y="-80" font-family="Helvetica,sans-Serif" font-size="10.00">src/libs/vwidgets/vcontrolpointspline.cpp</text>
</a>
</g>
</g>
<!-- Node18&#45;&gt;Node47 -->
<g id="edge47" class="edge">
<title>Node18&#45;&gt;Node47</title>
<path fill="none" stroke="midnightblue" d="M3573.77,-138.92C3667.41,-129.05 3816.89,-113.03 3946,-98 3962.06,-96.13 3979.35,-94.03 3995.58,-92.03"/>
<polygon fill="midnightblue" stroke="midnightblue" points="3573.34,-135.45 3563.76,-139.97 3574.07,-142.41 3573.34,-135.45"/>
</g>
<!-- Node48 -->
<g id="node43" class="node">
<title>Node48</title>
<g id="a_node43"><a xlink:href="../../de/dec/vgraphicssimpletextitem_8cpp.html" target="_top" xlink:title=" ">
<polygon fill="white" stroke="black" points="4189,-73 4189,-92 4433,-92 4433,-73 4189,-73"/>
<text text-anchor="middle" x="4311" y="-80" font-family="Helvetica,sans-Serif" font-size="10.00">src/libs/vwidgets/vgraphicssimpletextitem.cpp</text>
</a>
</g>
</g>
<!-- Node18&#45;&gt;Node48 -->
<g id="edge48" class="edge">
<title>Node18&#45;&gt;Node48</title>
<path fill="none" stroke="midnightblue" d="M3589.72,-141.94C3726.75,-133.31 3970.66,-116.98 4179,-98 4198.06,-96.26 4218.63,-94.13 4237.74,-92.04"/>
<polygon fill="midnightblue" stroke="midnightblue" points="3589.4,-138.45 3579.63,-142.57 3589.83,-145.44 3589.4,-138.45"/>
</g>
<!-- Node49 -->
<g id="node44" class="node">
<title>Node49</title>
<g id="a_node44"><a xlink:href="../../d1/d88/vmaingraphicsscene_8cpp.html" target="_top" xlink:title=" ">
<polygon fill="white" stroke="black" points="4451,-73 4451,-92 4673,-92 4673,-73 4451,-73"/>
<text text-anchor="middle" x="4562" y="-80" font-family="Helvetica,sans-Serif" font-size="10.00">src/libs/vwidgets/vmaingraphicsscene.cpp</text>
</a>
</g>
</g>
<!-- Node18&#45;&gt;Node49 -->
<g id="edge49" class="edge">
<title>Node18&#45;&gt;Node49</title>
<path fill="none" stroke="midnightblue" d="M3589.72,-145.21C3767.49,-139.25 4133.32,-124.74 4442,-98 4460.29,-96.42 4480.1,-94.22 4498.25,-92.02"/>
<polygon fill="midnightblue" stroke="midnightblue" points="3589.46,-141.72 3579.58,-145.55 3589.7,-148.72 3589.46,-141.72"/>
</g>
<!-- Node27&#45;&gt;Node28 -->
<g id="edge26" class="edge">
<title>Node27&#45;&gt;Node28</title>
<path fill="none" stroke="midnightblue" d="M1803.28,-58.87C1809.21,-49.46 1815.91,-38.83 1821.12,-30.58"/>
<polygon fill="midnightblue" stroke="midnightblue" points="1800.27,-57.07 1797.9,-67.4 1806.19,-60.81 1800.27,-57.07"/>
</g>
<!-- Node38&#45;&gt;Node39 -->
<g id="edge39" class="edge">
<title>Node38&#45;&gt;Node39</title>
<path fill="none" stroke="midnightblue" d="M2981.96,-67.1C3261.78,-32.21 4076.54,-19.87 4293.46,-17.13"/>
<polygon fill="midnightblue" stroke="midnightblue" points="2981.3,-63.66 2971.83,-68.4 2982.2,-70.6 2981.3,-63.66"/>
</g>
</g>
</svg>
