<?xml version="1.0" encoding="UTF-8" standalone="no"?>
<!DOCTYPE svg PUBLIC "-//W3C//DTD SVG 1.1//EN"
 "http://www.w3.org/Graphics/SVG/1.1/DTD/svg11.dtd">
<!-- Generated by graphviz version 2.43.0 (0)
 -->
<!-- Title: src/libs/vgeometry/vellipticalarc.h Pages: 1 -->
<svg width="1638pt" height="368pt"
 viewBox="0.00 0.00 1637.50 368.00" xmlns="http://www.w3.org/2000/svg" xmlns:xlink="http://www.w3.org/1999/xlink">
<g id="graph0" class="graph" transform="scale(1 1) rotate(0) translate(4 364)">
<title>src/libs/vgeometry/vellipticalarc.h</title>
<!-- Node1 -->
<g id="Node000001" class="node">
<title>Node1</title>
<g id="a_Node000001"><a xlink:title=" ">
<polygon fill="#999999" stroke="#666666" points="921.5,-360 814.5,-360 814.5,-330 921.5,-330 921.5,-360"/>
<text text-anchor="start" x="822.5" y="-348" font-family="Helvetica,sans-Serif" font-size="10.00">src/libs/vgeometry</text>
<text text-anchor="middle" x="868" y="-337" font-family="Helvetica,sans-Serif" font-size="10.00">/vellipticalarc.h</text>
</a>
</g>
</g>
<!-- Node2 -->
<g id="Node000002" class="node">
<title>Node2</title>
<g id="a_Node000002"><a xlink:title=" ">
<polygon fill="#e0e0e0" stroke="#999999" points="120,-74 0,-74 0,-55 120,-55 120,-74"/>
<text text-anchor="middle" x="60" y="-62" font-family="Helvetica,sans-Serif" font-size="10.00">qcompilerdetection.h</text>
</a>
</g>
</g>
<!-- Node1&#45;&gt;Node2 -->
<g id="edge1_Node000001_Node000002" class="edge">
<title>Node1&#45;&gt;Node2</title>
<g id="a_edge1_Node000001_Node000002"><a xlink:title=" ">
<path fill="none" stroke="#63b8ff" d="M814.25,-341.96C636.22,-334.51 77,-305.16 77,-230.5 77,-230.5 77,-230.5 77,-173.5 77,-141.8 69.77,-105.51 64.74,-84.09"/>
<polygon fill="#63b8ff" stroke="#63b8ff" points="68.07,-82.99 62.29,-74.11 61.27,-84.65 68.07,-82.99"/>
</a>
</g>
</g>
<!-- Node3 -->
<g id="Node000003" class="node">
<title>Node3</title>
<g id="a_Node000003"><a xlink:title=" ">
<polygon fill="#e0e0e0" stroke="#999999" points="1629.5,-294 1528.5,-294 1528.5,-275 1629.5,-275 1629.5,-294"/>
<text text-anchor="middle" x="1579" y="-282" font-family="Helvetica,sans-Serif" font-size="10.00">QCoreApplication</text>
</a>
</g>
</g>
<!-- Node1&#45;&gt;Node3 -->
<g id="edge2_Node000001_Node000003" class="edge">
<title>Node1&#45;&gt;Node3</title>
<g id="a_edge2_Node000001_Node000003"><a xlink:title=" ">
<path fill="none" stroke="#63b8ff" d="M921.69,-340.81C1032.53,-334 1294.71,-316.81 1514,-294 1515.31,-293.86 1516.62,-293.72 1517.95,-293.58"/>
<polygon fill="#63b8ff" stroke="#63b8ff" points="1518.75,-297.01 1528.29,-292.39 1517.95,-290.06 1518.75,-297.01"/>
</a>
</g>
</g>
<!-- Node4 -->
<g id="Node000004" class="node">
<title>Node4</title>
<g id="a_Node000004"><a xlink:title=" ">
<polygon fill="#e0e0e0" stroke="#999999" points="247.5,-184 192.5,-184 192.5,-165 247.5,-165 247.5,-184"/>
<text text-anchor="middle" x="220" y="-172" font-family="Helvetica,sans-Serif" font-size="10.00">QPointF</text>
</a>
</g>
</g>
<!-- Node1&#45;&gt;Node4 -->
<g id="edge3_Node000001_Node000004" class="edge">
<title>Node1&#45;&gt;Node4</title>
<g id="a_edge3_Node000001_Node000004"><a xlink:title=" ">
<path fill="none" stroke="#63b8ff" d="M814.49,-338.71C750.78,-331.69 641.5,-317.4 550,-294 435.95,-264.83 305.89,-212.11 249.1,-188.06"/>
<polygon fill="#63b8ff" stroke="#63b8ff" points="250.25,-184.75 239.68,-184.05 247.51,-191.19 250.25,-184.75"/>
</a>
</g>
</g>
<!-- Node5 -->
<g id="Node000005" class="node">
<title>Node5</title>
<g id="a_Node000005"><a xlink:title=" ">
<polygon fill="#e0e0e0" stroke="#999999" points="757,-129 641,-129 641,-110 757,-110 757,-129"/>
<text text-anchor="middle" x="699" y="-117" font-family="Helvetica,sans-Serif" font-size="10.00">QSharedDataPointer</text>
</a>
</g>
</g>
<!-- Node1&#45;&gt;Node5 -->
<g id="edge4_Node000001_Node000005" class="edge">
<title>Node1&#45;&gt;Node5</title>
<g id="a_edge4_Node000001_Node000005"><a xlink:title=" ">
<path fill="none" stroke="#63b8ff" d="M814.32,-338.22C760.55,-331.19 683.25,-317.28 665,-294 628.3,-247.16 666.68,-171.77 687.48,-137.92"/>
<polygon fill="#63b8ff" stroke="#63b8ff" points="690.62,-139.5 693.03,-129.18 684.71,-135.75 690.62,-139.5"/>
</a>
</g>
</g>
<!-- Node6 -->
<g id="Node000006" class="node">
<title>Node6</title>
<g id="a_Node000006"><a xlink:title=" ">
<polygon fill="#e0e0e0" stroke="#999999" points="640.5,-74 587.5,-74 587.5,-55 640.5,-55 640.5,-74"/>
<text text-anchor="middle" x="614" y="-62" font-family="Helvetica,sans-Serif" font-size="10.00">QString</text>
</a>
</g>
</g>
<!-- Node1&#45;&gt;Node6 -->
<g id="edge5_Node000001_Node000006" class="edge">
<title>Node1&#45;&gt;Node6</title>
<g id="a_edge5_Node000001_Node000006"><a xlink:title=" ">
<path fill="none" stroke="#63b8ff" d="M814.49,-340.46C666,-329.33 255,-289.37 183,-184 128.34,-104.01 97.93,-187.73 332,-129 364.52,-120.84 372.36,-117.64 405,-110 478.48,-92.8 499.69,-91.13 577.5,-74.05"/>
<polygon fill="#63b8ff" stroke="#63b8ff" points="578.27,-77.47 587.28,-71.89 576.76,-70.63 578.27,-77.47"/>
</a>
</g>
</g>
<!-- Node7 -->
<g id="Node000007" class="node">
<title>Node7</title>
<g id="a_Node000007"><a xlink:title=" ">
<polygon fill="#e0e0e0" stroke="#999999" points="1316.5,-129 1251.5,-129 1251.5,-110 1316.5,-110 1316.5,-129"/>
<text text-anchor="middle" x="1284" y="-117" font-family="Helvetica,sans-Serif" font-size="10.00">QTypeInfo</text>
</a>
</g>
</g>
<!-- Node1&#45;&gt;Node7 -->
<g id="edge6_Node000001_Node000007" class="edge">
<title>Node1&#45;&gt;Node7</title>
<g id="a_edge6_Node000001_Node000007"><a xlink:title=" ">
<path fill="none" stroke="#63b8ff" d="M921.66,-343.33C987.98,-340.83 1103.17,-330.94 1194,-294 1258.63,-267.72 1286.49,-250.99 1306,-184 1310.63,-168.11 1303.37,-150.33 1295.98,-137.64"/>
<polygon fill="#63b8ff" stroke="#63b8ff" points="1298.83,-135.59 1290.5,-129.04 1292.92,-139.35 1298.83,-135.59"/>
</a>
</g>
</g>
<!-- Node8 -->
<g id="Node000008" class="node">
<title>Node8</title>
<g id="a_Node000008"><a xlink:title=" ">
<polygon fill="#e0e0e0" stroke="#999999" points="868.5,-129 813.5,-129 813.5,-110 868.5,-110 868.5,-129"/>
<text text-anchor="middle" x="841" y="-117" font-family="Helvetica,sans-Serif" font-size="10.00">QVector</text>
</a>
</g>
</g>
<!-- Node1&#45;&gt;Node8 -->
<g id="edge7_Node000001_Node000008" class="edge">
<title>Node1&#45;&gt;Node8</title>
<g id="a_edge7_Node000001_Node000008"><a xlink:title=" ">
<path fill="none" stroke="#63b8ff" d="M866.27,-329.68C861.57,-290.76 848.56,-183.07 843.27,-139.33"/>
<polygon fill="#63b8ff" stroke="#63b8ff" points="846.73,-138.74 842.05,-129.23 839.78,-139.58 846.73,-138.74"/>
</a>
</g>
</g>
<!-- Node9 -->
<g id="Node000009" class="node">
<title>Node9</title>
<g id="a_Node000009"><a xlink:title=" ">
<polygon fill="#e0e0e0" stroke="#999999" points="1045.5,-74 986.5,-74 986.5,-55 1045.5,-55 1045.5,-74"/>
<text text-anchor="middle" x="1016" y="-62" font-family="Helvetica,sans-Serif" font-size="10.00">QtGlobal</text>
</a>
</g>
</g>
<!-- Node1&#45;&gt;Node9 -->
<g id="edge8_Node000001_Node000009" class="edge">
<title>Node1&#45;&gt;Node9</title>
<g id="a_edge8_Node000001_Node000009"><a xlink:title=" ">
<path fill="none" stroke="#63b8ff" d="M921.61,-340.01C1074.21,-327.95 1500,-289.06 1500,-230.5 1500,-230.5 1500,-230.5 1500,-173.5 1500,-82.71 1171.46,-68.21 1055.75,-65.92"/>
<polygon fill="#63b8ff" stroke="#63b8ff" points="1055.61,-62.42 1045.55,-65.74 1055.48,-69.42 1055.61,-62.42"/>
</a>
</g>
</g>
<!-- Node10 -->
<g id="Node000010" class="node">
<title>Node10</title>
<g id="a_Node000010"><a xlink:href="../../d0/d17/vabstractarc_8h.html" target="_top" xlink:title=" ">
<polygon fill="white" stroke="#666666" points="760,-294 674,-294 674,-275 760,-275 760,-294"/>
<text text-anchor="middle" x="717" y="-282" font-family="Helvetica,sans-Serif" font-size="10.00">vabstractarc.h</text>
</a>
</g>
</g>
<!-- Node1&#45;&gt;Node10 -->
<g id="edge9_Node000001_Node000010" class="edge">
<title>Node1&#45;&gt;Node10</title>
<g id="a_edge9_Node000001_Node000010"><a xlink:title=" ">
<path fill="none" stroke="#63b8ff" d="M831.83,-329.99C806.53,-320.18 773.04,-307.21 748.76,-297.81"/>
<polygon fill="#63b8ff" stroke="#63b8ff" points="749.89,-294.49 739.3,-294.14 747.36,-301.02 749.89,-294.49"/>
</a>
</g>
</g>
<!-- Node24 -->
<g id="Node000024" class="node">
<title>Node24</title>
<g id="a_Node000024"><a xlink:href="../../d5/d9d/vgeometrydef_8h.html" target="_top" xlink:title=" ">
<polygon fill="white" stroke="#666666" points="1231,-129 1137,-129 1137,-110 1231,-110 1231,-129"/>
<text text-anchor="middle" x="1184" y="-117" font-family="Helvetica,sans-Serif" font-size="10.00">vgeometrydef.h</text>
</a>
</g>
</g>
<!-- Node1&#45;&gt;Node24 -->
<g id="edge51_Node000001_Node000024" class="edge">
<title>Node1&#45;&gt;Node24</title>
<g id="a_edge51_Node000001_Node000024"><a xlink:title=" ">
<path fill="none" stroke="#63b8ff" d="M921.52,-343.68C1018.09,-339.74 1218.21,-315.34 1291,-184 1305.58,-157.69 1272.64,-141.21 1239.56,-131.66"/>
<polygon fill="#63b8ff" stroke="#63b8ff" points="1240.37,-128.25 1229.81,-129.03 1238.55,-135.01 1240.37,-128.25"/>
</a>
</g>
</g>
<!-- Node26 -->
<g id="Node000026" class="node">
<title>Node26</title>
<g id="a_Node000026"><a xlink:href="../../d1/d48/vpointf_8h.html" target="_top" xlink:title=" ">
<polygon fill="white" stroke="#666666" points="1193.5,-239 1134.5,-239 1134.5,-220 1193.5,-220 1193.5,-239"/>
<text text-anchor="middle" x="1164" y="-227" font-family="Helvetica,sans-Serif" font-size="10.00">vpointf.h</text>
</a>
</g>
</g>
<!-- Node1&#45;&gt;Node26 -->
<g id="edge52_Node000001_Node000026" class="edge">
<title>Node1&#45;&gt;Node26</title>
<g id="a_edge52_Node000001_Node000026"><a xlink:title=" ">
<path fill="none" stroke="#63b8ff" d="M904.59,-329.97C962.98,-307.58 1076.29,-264.13 1131.79,-242.85"/>
<polygon fill="#63b8ff" stroke="#63b8ff" points="1133.37,-245.99 1141.46,-239.14 1130.86,-239.46 1133.37,-245.99"/>
</a>
</g>
</g>
<!-- Node10&#45;&gt;Node2 -->
<g id="edge10_Node000010_Node000002" class="edge">
<title>Node10&#45;&gt;Node2</title>
<g id="a_edge10_Node000010_Node000002"><a xlink:title=" ">
<path fill="none" stroke="#63b8ff" d="M673.93,-284.15C579.23,-283.8 348.17,-273.09 183,-184 135.14,-158.19 92.73,-108.55 72.53,-82.47"/>
<polygon fill="#63b8ff" stroke="#63b8ff" points="75.16,-80.15 66.33,-74.3 69.59,-84.38 75.16,-80.15"/>
</a>
</g>
</g>
<!-- Node10&#45;&gt;Node5 -->
<g id="edge11_Node000010_Node000005" class="edge">
<title>Node10&#45;&gt;Node5</title>
<g id="a_edge11_Node000010_Node000005"><a xlink:title=" ">
<path fill="none" stroke="#63b8ff" d="M711.68,-274.68C706.77,-265.97 699.81,-252.09 697,-239 689.59,-204.42 693.03,-162.86 696.09,-139.28"/>
<polygon fill="#63b8ff" stroke="#63b8ff" points="699.57,-139.65 697.52,-129.25 692.64,-138.66 699.57,-139.65"/>
</a>
</g>
</g>
<!-- Node10&#45;&gt;Node6 -->
<g id="edge12_Node000010_Node000006" class="edge">
<title>Node10&#45;&gt;Node6</title>
<g id="a_edge12_Node000010_Node000006"><a xlink:title=" ">
<path fill="none" stroke="#63b8ff" d="M673.79,-277.52C589.59,-264.88 408.54,-232.57 372,-184 334.36,-133.98 378.26,-146.22 459,-110 480.1,-100.53 538.54,-84.75 577.32,-74.75"/>
<polygon fill="#63b8ff" stroke="#63b8ff" points="578.39,-78.08 587.21,-72.21 576.65,-71.3 578.39,-78.08"/>
</a>
</g>
</g>
<!-- Node10&#45;&gt;Node9 -->
<g id="edge13_Node000010_Node000009" class="edge">
<title>Node10&#45;&gt;Node9</title>
<g id="a_edge13_Node000010_Node000009"><a xlink:title=" ">
<path fill="none" stroke="#63b8ff" d="M760.2,-283.32C887.14,-281.8 1254.74,-269.92 1329,-184 1350.94,-158.61 1366.08,-135.27 1344,-110 1306.96,-67.6 1134.45,-64.03 1055.56,-64.7"/>
<polygon fill="#63b8ff" stroke="#63b8ff" points="1055.48,-61.2 1045.52,-64.81 1055.56,-68.2 1055.48,-61.2"/>
</a>
</g>
</g>
<!-- Node11 -->
<g id="Node000011" class="node">
<title>Node11</title>
<g id="a_Node000011"><a xlink:href="../../d3/da5/ifcdef_8h.html" target="_top" xlink:title=" ">
<polygon fill="white" stroke="#666666" points="457.5,-184 380.5,-184 380.5,-165 457.5,-165 457.5,-184"/>
<text text-anchor="middle" x="419" y="-172" font-family="Helvetica,sans-Serif" font-size="10.00">../ifc/ifcdef.h</text>
</a>
</g>
</g>
<!-- Node10&#45;&gt;Node11 -->
<g id="edge14_Node000010_Node000011" class="edge">
<title>Node10&#45;&gt;Node11</title>
<g id="a_edge14_Node000010_Node000011"><a xlink:title=" ">
<path fill="none" stroke="#63b8ff" d="M706.18,-274.93C688.39,-261.28 651.42,-234.63 616,-220 589.55,-209.07 516.72,-193.99 467.42,-184.49"/>
<polygon fill="#63b8ff" stroke="#63b8ff" points="468.07,-181.05 457.59,-182.61 466.75,-187.92 468.07,-181.05"/>
</a>
</g>
</g>
<!-- Node21 -->
<g id="Node000021" class="node">
<title>Node21</title>
<g id="a_Node000021"><a xlink:href="../../d5/d82/vabstractcurve_8h.html" target="_top" xlink:title=" ">
<polygon fill="white" stroke="#666666" points="804,-239 706,-239 706,-220 804,-220 804,-239"/>
<text text-anchor="middle" x="755" y="-227" font-family="Helvetica,sans-Serif" font-size="10.00">vabstractcurve.h</text>
</a>
</g>
</g>
<!-- Node10&#45;&gt;Node21 -->
<g id="edge31_Node000010_Node000021" class="edge">
<title>Node10&#45;&gt;Node21</title>
<g id="a_edge31_Node000010_Node000021"><a xlink:title=" ">
<path fill="none" stroke="#63b8ff" d="M723.27,-274.75C728.59,-267.34 736.36,-256.5 742.88,-247.41"/>
<polygon fill="#63b8ff" stroke="#63b8ff" points="745.86,-249.26 748.84,-239.09 740.17,-245.18 745.86,-249.26"/>
</a>
</g>
</g>
<!-- Node10&#45;&gt;Node24 -->
<g id="edge50_Node000010_Node000024" class="edge">
<title>Node10&#45;&gt;Node24</title>
<g id="a_edge50_Node000010_Node000024"><a xlink:title=" ">
<path fill="none" stroke="#63b8ff" d="M753.07,-274.96C815.47,-259.74 947.1,-225.55 1054,-184 1091.78,-169.31 1133.59,-147.91 1159.34,-134.09"/>
<polygon fill="#63b8ff" stroke="#63b8ff" points="1161.25,-137.04 1168.37,-129.2 1157.91,-130.88 1161.25,-137.04"/>
</a>
</g>
</g>
<!-- Node11&#45;&gt;Node6 -->
<g id="edge15_Node000011_Node000006" class="edge">
<title>Node11&#45;&gt;Node6</title>
<g id="a_edge15_Node000011_Node000006"><a xlink:title=" ">
<path fill="none" stroke="#63b8ff" d="M426.35,-164.94C438.27,-151.53 463.1,-125.51 489,-110 516.74,-93.39 551.64,-81.62 577.51,-74.37"/>
<polygon fill="#63b8ff" stroke="#63b8ff" points="578.56,-77.71 587.3,-71.72 576.73,-70.96 578.56,-77.71"/>
</a>
</g>
</g>
<!-- Node11&#45;&gt;Node9 -->
<g id="edge17_Node000011_Node000009" class="edge">
<title>Node11&#45;&gt;Node9</title>
<g id="a_edge17_Node000011_Node000009"><a xlink:title=" ">
<path fill="none" stroke="#63b8ff" d="M432.23,-164.95C457.99,-148.39 513.21,-113.24 523,-110 606.93,-82.27 874.33,-70.37 976.13,-66.77"/>
<polygon fill="#63b8ff" stroke="#63b8ff" points="976.43,-70.26 986.3,-66.41 976.19,-63.26 976.43,-70.26"/>
</a>
</g>
</g>
<!-- Node12 -->
<g id="Node000012" class="node">
<title>Node12</title>
<g id="a_Node000012"><a xlink:title=" ">
<polygon fill="#e0e0e0" stroke="#999999" points="569,-74 499,-74 499,-55 569,-55 569,-74"/>
<text text-anchor="middle" x="534" y="-62" font-family="Helvetica,sans-Serif" font-size="10.00">QStringList</text>
</a>
</g>
</g>
<!-- Node11&#45;&gt;Node12 -->
<g id="edge16_Node000011_Node000012" class="edge">
<title>Node11&#45;&gt;Node12</title>
<g id="a_edge16_Node000011_Node000012"><a xlink:title=" ">
<path fill="none" stroke="#63b8ff" d="M421.54,-164.68C425.76,-151.4 435.32,-126.09 451,-110 464.64,-96.01 483.64,-85.38 500.02,-78.02"/>
<polygon fill="#63b8ff" stroke="#63b8ff" points="501.47,-81.21 509.3,-74.07 498.73,-74.77 501.47,-81.21"/>
</a>
</g>
</g>
<!-- Node13 -->
<g id="Node000013" class="node">
<title>Node13</title>
<g id="a_Node000013"><a xlink:href="../../d4/da4/def_8h.html" target="_top" xlink:title=" ">
<polygon fill="white" stroke="#666666" points="323,-129 241,-129 241,-110 323,-110 323,-129"/>
<text text-anchor="middle" x="282" y="-117" font-family="Helvetica,sans-Serif" font-size="10.00">../vmisc/def.h</text>
</a>
</g>
</g>
<!-- Node11&#45;&gt;Node13 -->
<g id="edge18_Node000011_Node000013" class="edge">
<title>Node11&#45;&gt;Node13</title>
<g id="a_edge18_Node000011_Node000013"><a xlink:title=" ">
<path fill="none" stroke="#63b8ff" d="M396.99,-164.98C374.55,-156.3 339.52,-142.75 314.01,-132.88"/>
<polygon fill="#63b8ff" stroke="#63b8ff" points="315,-129.51 304.41,-129.17 312.48,-136.04 315,-129.51"/>
</a>
</g>
</g>
<!-- Node20 -->
<g id="Node000020" class="node">
<title>Node20</title>
<g id="a_Node000020"><a xlink:href="../../d6/dcd/diagnostic_8h.html" target="_top" xlink:title=" ">
<polygon fill="white" stroke="#666666" points="1118.5,-129 1001.5,-129 1001.5,-110 1118.5,-110 1118.5,-129"/>
<text text-anchor="middle" x="1060" y="-117" font-family="Helvetica,sans-Serif" font-size="10.00">../vmisc/diagnostic.h</text>
</a>
</g>
</g>
<!-- Node11&#45;&gt;Node20 -->
<g id="edge29_Node000011_Node000020" class="edge">
<title>Node11&#45;&gt;Node20</title>
<g id="a_edge29_Node000011_Node000020"><a xlink:title=" ">
<path fill="none" stroke="#63b8ff" d="M457.72,-166.3C460.86,-165.82 463.98,-165.38 467,-165 655.98,-141.24 880.56,-128.61 991.28,-123.41"/>
<polygon fill="#63b8ff" stroke="#63b8ff" points="991.48,-126.91 1001.31,-122.95 991.16,-119.92 991.48,-126.91"/>
</a>
</g>
</g>
<!-- Node13&#45;&gt;Node2 -->
<g id="edge19_Node000013_Node000002" class="edge">
<title>Node13&#45;&gt;Node2</title>
<g id="a_edge19_Node000013_Node000002"><a xlink:title=" ">
<path fill="none" stroke="#63b8ff" d="M246.33,-109.98C208.17,-100.87 147.53,-86.4 105.85,-76.45"/>
<polygon fill="#63b8ff" stroke="#63b8ff" points="106.49,-73 95.95,-74.08 104.86,-79.81 106.49,-73"/>
</a>
</g>
</g>
<!-- Node13&#45;&gt;Node6 -->
<g id="edge21_Node000013_Node000006" class="edge">
<title>Node13&#45;&gt;Node6</title>
<g id="a_edge21_Node000013_Node000006"><a xlink:title=" ">
<path fill="none" stroke="#63b8ff" d="M323.14,-112.12C327.82,-111.4 332.51,-110.68 337,-110 440.93,-94.21 469.97,-94.43 577.37,-73.97"/>
<polygon fill="#63b8ff" stroke="#63b8ff" points="578.16,-77.39 587.32,-72.06 576.84,-70.51 578.16,-77.39"/>
</a>
</g>
</g>
<!-- Node13&#45;&gt;Node9 -->
<g id="edge24_Node000013_Node000009" class="edge">
<title>Node13&#45;&gt;Node9</title>
<g id="a_edge24_Node000013_Node000009"><a xlink:title=" ">
<path fill="none" stroke="#63b8ff" d="M323.04,-115.54C452.1,-106.22 848.71,-77.58 976.14,-68.38"/>
<polygon fill="#63b8ff" stroke="#63b8ff" points="976.51,-71.86 986.23,-67.65 976.01,-64.88 976.51,-71.86"/>
</a>
</g>
</g>
<!-- Node13&#45;&gt;Node12 -->
<g id="edge22_Node000013_Node000012" class="edge">
<title>Node13&#45;&gt;Node12</title>
<g id="a_edge22_Node000013_Node000012"><a xlink:title=" ">
<path fill="none" stroke="#63b8ff" d="M322.49,-109.98C367.98,-100.42 441.64,-84.92 488.93,-74.98"/>
<polygon fill="#63b8ff" stroke="#63b8ff" points="489.83,-78.37 498.9,-72.88 488.39,-71.52 489.83,-78.37"/>
</a>
</g>
</g>
<!-- Node14 -->
<g id="Node000014" class="node">
<title>Node14</title>
<g id="a_Node000014"><a xlink:title=" ">
<polygon fill="#e0e0e0" stroke="#999999" points="188,-74 138,-74 138,-55 188,-55 188,-74"/>
<text text-anchor="middle" x="163" y="-62" font-family="Helvetica,sans-Serif" font-size="10.00">QLineF</text>
</a>
</g>
</g>
<!-- Node13&#45;&gt;Node14 -->
<g id="edge20_Node000013_Node000014" class="edge">
<title>Node13&#45;&gt;Node14</title>
<g id="a_edge20_Node000013_Node000014"><a xlink:title=" ">
<path fill="none" stroke="#63b8ff" d="M262.88,-109.98C243.65,-101.42 213.77,-88.11 191.69,-78.28"/>
<polygon fill="#63b8ff" stroke="#63b8ff" points="193.03,-75.04 182.47,-74.17 190.18,-81.44 193.03,-75.04"/>
</a>
</g>
</g>
<!-- Node15 -->
<g id="Node000015" class="node">
<title>Node15</title>
<g id="a_Node000015"><a xlink:title=" ">
<polygon fill="#e0e0e0" stroke="#999999" points="235.5,-74 206.5,-74 206.5,-55 235.5,-55 235.5,-74"/>
<text text-anchor="middle" x="221" y="-62" font-family="Helvetica,sans-Serif" font-size="10.00">Qt</text>
</a>
</g>
</g>
<!-- Node13&#45;&gt;Node15 -->
<g id="edge23_Node000013_Node000015" class="edge">
<title>Node13&#45;&gt;Node15</title>
<g id="a_edge23_Node000013_Node000015"><a xlink:title=" ">
<path fill="none" stroke="#63b8ff" d="M272.2,-109.98C263.18,-102.15 249.59,-90.34 238.68,-80.86"/>
<polygon fill="#63b8ff" stroke="#63b8ff" points="240.82,-78.09 230.98,-74.17 236.23,-83.37 240.82,-78.09"/>
</a>
</g>
</g>
<!-- Node16 -->
<g id="Node000016" class="node">
<title>Node16</title>
<g id="a_Node000016"><a xlink:title=" ">
<polygon fill="#e0e0e0" stroke="#999999" points="310,-74 254,-74 254,-55 310,-55 310,-74"/>
<text text-anchor="middle" x="282" y="-62" font-family="Helvetica,sans-Serif" font-size="10.00">QPrinter</text>
</a>
</g>
</g>
<!-- Node13&#45;&gt;Node16 -->
<g id="edge25_Node000013_Node000016" class="edge">
<title>Node13&#45;&gt;Node16</title>
<g id="a_edge25_Node000013_Node000016"><a xlink:title=" ">
<path fill="none" stroke="#63b8ff" d="M282,-109.75C282,-102.8 282,-92.85 282,-84.13"/>
<polygon fill="#63b8ff" stroke="#63b8ff" points="285.5,-84.09 282,-74.09 278.5,-84.09 285.5,-84.09"/>
</a>
</g>
</g>
<!-- Node17 -->
<g id="Node000017" class="node">
<title>Node17</title>
<g id="a_Node000017"><a xlink:title=" ">
<polygon fill="#e0e0e0" stroke="#999999" points="379.5,-74 328.5,-74 328.5,-55 379.5,-55 379.5,-74"/>
<text text-anchor="middle" x="354" y="-62" font-family="Helvetica,sans-Serif" font-size="10.00">csignal</text>
</a>
</g>
</g>
<!-- Node13&#45;&gt;Node17 -->
<g id="edge26_Node000013_Node000017" class="edge">
<title>Node13&#45;&gt;Node17</title>
<g id="a_edge26_Node000013_Node000017"><a xlink:title=" ">
<path fill="none" stroke="#63b8ff" d="M293.57,-109.98C304.42,-102 320.88,-89.88 333.88,-80.31"/>
<polygon fill="#63b8ff" stroke="#63b8ff" points="336.24,-82.92 342.22,-74.17 332.09,-77.28 336.24,-82.92"/>
</a>
</g>
</g>
<!-- Node18 -->
<g id="Node000018" class="node">
<title>Node18</title>
<g id="a_Node000018"><a xlink:href="../../d4/d82/debugbreak_8h.html" target="_top" xlink:title=" ">
<polygon fill="white" stroke="#666666" points="480.5,-74 397.5,-74 397.5,-55 480.5,-55 480.5,-74"/>
<text text-anchor="middle" x="439" y="-62" font-family="Helvetica,sans-Serif" font-size="10.00">debugbreak.h</text>
</a>
</g>
</g>
<!-- Node13&#45;&gt;Node18 -->
<g id="edge27_Node000013_Node000018" class="edge">
<title>Node13&#45;&gt;Node18</title>
<g id="a_edge27_Node000013_Node000018"><a xlink:title=" ">
<path fill="none" stroke="#63b8ff" d="M307.22,-109.98C333.36,-101.16 374.4,-87.31 403.73,-77.41"/>
<polygon fill="#63b8ff" stroke="#63b8ff" points="405.22,-80.6 413.58,-74.08 402.98,-73.96 405.22,-80.6"/>
</a>
</g>
</g>
<!-- Node19 -->
<g id="Node000019" class="node">
<title>Node19</title>
<g id="a_Node000019"><a xlink:title=" ">
<polygon fill="#e0e0e0" stroke="#999999" points="466.5,-19 411.5,-19 411.5,0 466.5,0 466.5,-19"/>
<text text-anchor="middle" x="439" y="-7" font-family="Helvetica,sans-Serif" font-size="10.00">signal.h</text>
</a>
</g>
</g>
<!-- Node18&#45;&gt;Node19 -->
<g id="edge28_Node000018_Node000019" class="edge">
<title>Node18&#45;&gt;Node19</title>
<g id="a_edge28_Node000018_Node000019"><a xlink:title=" ">
<path fill="none" stroke="#63b8ff" d="M439,-54.75C439,-47.8 439,-37.85 439,-29.13"/>
<polygon fill="#63b8ff" stroke="#63b8ff" points="442.5,-29.09 439,-19.09 435.5,-29.09 442.5,-29.09"/>
</a>
</g>
</g>
<!-- Node20&#45;&gt;Node9 -->
<g id="edge30_Node000020_Node000009" class="edge">
<title>Node20&#45;&gt;Node9</title>
<g id="a_edge30_Node000020_Node000009"><a xlink:title=" ">
<path fill="none" stroke="#63b8ff" d="M1052.73,-109.75C1046.46,-102.18 1037.21,-91.05 1029.57,-81.84"/>
<polygon fill="#63b8ff" stroke="#63b8ff" points="1032.21,-79.55 1023.13,-74.09 1026.83,-84.02 1032.21,-79.55"/>
</a>
</g>
</g>
<!-- Node21&#45;&gt;Node2 -->
<g id="edge32_Node000021_Node000002" class="edge">
<title>Node21&#45;&gt;Node2</title>
<g id="a_edge32_Node000021_Node000002"><a xlink:title=" ">
<path fill="none" stroke="#63b8ff" d="M705.79,-227.53C627.02,-225.04 468.25,-216.09 338,-184 273.49,-168.11 260.12,-155.03 199,-129 159.7,-112.26 114.85,-91.46 86.97,-78.32"/>
<polygon fill="#63b8ff" stroke="#63b8ff" points="88.4,-75.13 77.86,-74.02 85.41,-81.46 88.4,-75.13"/>
</a>
</g>
</g>
<!-- Node21&#45;&gt;Node4 -->
<g id="edge33_Node000021_Node000004" class="edge">
<title>Node21&#45;&gt;Node4</title>
<g id="a_edge33_Node000021_Node000004"><a xlink:title=" ">
<path fill="none" stroke="#63b8ff" d="M705.81,-225.85C616.88,-220.67 423.57,-207.57 262,-184 260.72,-183.81 259.41,-183.61 258.1,-183.4"/>
<polygon fill="#63b8ff" stroke="#63b8ff" points="258.4,-179.9 247.94,-181.6 257.18,-186.79 258.4,-179.9"/>
</a>
</g>
</g>
<!-- Node21&#45;&gt;Node5 -->
<g id="edge34_Node000021_Node000005" class="edge">
<title>Node21&#45;&gt;Node5</title>
<g id="a_edge34_Node000021_Node000005"><a xlink:title=" ">
<path fill="none" stroke="#63b8ff" d="M750.42,-219.66C741.22,-201.93 720.38,-161.73 708.24,-138.32"/>
<polygon fill="#63b8ff" stroke="#63b8ff" points="711.2,-136.42 703.49,-129.16 704.99,-139.65 711.2,-136.42"/>
</a>
</g>
</g>
<!-- Node21&#45;&gt;Node6 -->
<g id="edge35_Node000021_Node000006" class="edge">
<title>Node21&#45;&gt;Node6</title>
<g id="a_edge35_Node000021_Node000006"><a xlink:title=" ">
<path fill="none" stroke="#63b8ff" d="M738.75,-219.81C712.32,-204.84 660.14,-171.64 632,-129 623.12,-115.55 618.57,-97.72 616.26,-84.37"/>
<polygon fill="#63b8ff" stroke="#63b8ff" points="619.72,-83.81 614.81,-74.42 612.79,-84.82 619.72,-83.81"/>
</a>
</g>
</g>
<!-- Node21&#45;&gt;Node7 -->
<g id="edge36_Node000021_Node000007" class="edge">
<title>Node21&#45;&gt;Node7</title>
<g id="a_edge36_Node000021_Node000007"><a xlink:title=" ">
<path fill="none" stroke="#63b8ff" d="M804.01,-223.06C863.5,-216.04 966.71,-202.47 1054,-184 1123.14,-169.37 1202.27,-146.04 1247.37,-132.1"/>
<polygon fill="#63b8ff" stroke="#63b8ff" points="1248.49,-135.42 1257,-129.11 1246.41,-128.73 1248.49,-135.42"/>
</a>
</g>
</g>
<!-- Node21&#45;&gt;Node8 -->
<g id="edge37_Node000021_Node000008" class="edge">
<title>Node21&#45;&gt;Node8</title>
<g id="a_edge37_Node000021_Node000008"><a xlink:title=" ">
<path fill="none" stroke="#63b8ff" d="M762.04,-219.66C776.41,-201.61 809.33,-160.28 827.8,-137.08"/>
<polygon fill="#63b8ff" stroke="#63b8ff" points="830.61,-139.16 834.11,-129.16 825.14,-134.8 830.61,-139.16"/>
</a>
</g>
</g>
<!-- Node21&#45;&gt;Node9 -->
<g id="edge38_Node000021_Node000009" class="edge">
<title>Node21&#45;&gt;Node9</title>
<g id="a_edge38_Node000021_Node000009"><a xlink:title=" ">
<path fill="none" stroke="#63b8ff" d="M755.96,-219.73C758.87,-197.59 769.69,-139.13 805,-110 830.65,-88.84 922.32,-75.62 976.02,-69.51"/>
<polygon fill="#63b8ff" stroke="#63b8ff" points="976.67,-72.96 986.22,-68.38 975.9,-66 976.67,-72.96"/>
</a>
</g>
</g>
<!-- Node21&#45;&gt;Node11 -->
<g id="edge39_Node000021_Node000011" class="edge">
<title>Node21&#45;&gt;Node11</title>
<g id="a_edge39_Node000021_Node000011"><a xlink:title=" ">
<path fill="none" stroke="#63b8ff" d="M705.77,-221.23C650.46,-212.99 557.73,-198.94 467.85,-184.11"/>
<polygon fill="#63b8ff" stroke="#63b8ff" points="468.2,-180.62 457.76,-182.44 467.05,-187.53 468.2,-180.62"/>
</a>
</g>
</g>
<!-- Node22 -->
<g id="Node000022" class="node">
<title>Node22</title>
<g id="a_Node000022"><a xlink:href="../../db/db3/vmath_8h.html" target="_top" xlink:title=" ">
<polygon fill="white" stroke="#666666" points="574,-184 476,-184 476,-165 574,-165 574,-184"/>
<text text-anchor="middle" x="525" y="-172" font-family="Helvetica,sans-Serif" font-size="10.00">../vmisc/vmath.h</text>
</a>
</g>
</g>
<!-- Node21&#45;&gt;Node22 -->
<g id="edge40_Node000021_Node000022" class="edge">
<title>Node21&#45;&gt;Node22</title>
<g id="a_edge40_Node000021_Node000022"><a xlink:title=" ">
<path fill="none" stroke="#63b8ff" d="M718.05,-219.98C678.43,-210.86 615.41,-196.33 572.23,-186.38"/>
<polygon fill="#63b8ff" stroke="#63b8ff" points="572.77,-182.92 562.24,-184.08 571.2,-189.74 572.77,-182.92"/>
</a>
</g>
</g>
<!-- Node21&#45;&gt;Node24 -->
<g id="edge42_Node000021_Node000024" class="edge">
<title>Node21&#45;&gt;Node24</title>
<g id="a_edge42_Node000021_Node000024"><a xlink:title=" ">
<path fill="none" stroke="#63b8ff" d="M804.17,-222.62C856.13,-215.8 940.2,-202.98 1011,-184 1062.89,-170.09 1121.14,-147.1 1155.08,-132.94"/>
<polygon fill="#63b8ff" stroke="#63b8ff" points="1156.54,-136.12 1164.4,-129.02 1153.82,-129.67 1156.54,-136.12"/>
</a>
</g>
</g>
<!-- Node25 -->
<g id="Node000025" class="node">
<title>Node25</title>
<g id="a_Node000025"><a xlink:href="../../d2/d07/vgobject_8h.html" target="_top" xlink:title=" ">
<polygon fill="white" stroke="#666666" points="1002,-184 934,-184 934,-165 1002,-165 1002,-184"/>
<text text-anchor="middle" x="968" y="-172" font-family="Helvetica,sans-Serif" font-size="10.00">vgobject.h</text>
</a>
</g>
</g>
<!-- Node21&#45;&gt;Node25 -->
<g id="edge43_Node000021_Node000025" class="edge">
<title>Node21&#45;&gt;Node25</title>
<g id="a_edge43_Node000021_Node000025"><a xlink:title=" ">
<path fill="none" stroke="#63b8ff" d="M789.22,-219.98C825.86,-210.87 884.12,-196.37 924.11,-186.42"/>
<polygon fill="#63b8ff" stroke="#63b8ff" points="925,-189.81 933.86,-183.99 923.31,-183.01 925,-189.81"/>
</a>
</g>
</g>
<!-- Node23 -->
<g id="Node000023" class="node">
<title>Node23</title>
<g id="a_Node000023"><a xlink:title=" ">
<polygon fill="#e0e0e0" stroke="#999999" points="584.5,-129 531.5,-129 531.5,-110 584.5,-110 584.5,-129"/>
<text text-anchor="middle" x="558" y="-117" font-family="Helvetica,sans-Serif" font-size="10.00">QtMath</text>
</a>
</g>
</g>
<!-- Node22&#45;&gt;Node23 -->
<g id="edge41_Node000022_Node000023" class="edge">
<title>Node22&#45;&gt;Node23</title>
<g id="a_edge41_Node000022_Node000023"><a xlink:title=" ">
<path fill="none" stroke="#63b8ff" d="M530.45,-164.75C535.01,-157.42 541.67,-146.73 547.29,-137.7"/>
<polygon fill="#63b8ff" stroke="#63b8ff" points="550.34,-139.43 552.65,-129.09 544.4,-135.73 550.34,-139.43"/>
</a>
</g>
</g>
<!-- Node25&#45;&gt;Node5 -->
<g id="edge44_Node000025_Node000005" class="edge">
<title>Node25&#45;&gt;Node5</title>
<g id="a_edge44_Node000025_Node000005"><a xlink:title=" ">
<path fill="none" stroke="#63b8ff" d="M933.93,-166.79C888.24,-157.79 806.63,-141.71 752.65,-131.07"/>
<polygon fill="#63b8ff" stroke="#63b8ff" points="753.06,-127.58 742.57,-129.09 751.71,-134.45 753.06,-127.58"/>
</a>
</g>
</g>
<!-- Node25&#45;&gt;Node6 -->
<g id="edge45_Node000025_Node000006" class="edge">
<title>Node25&#45;&gt;Node6</title>
<g id="a_edge45_Node000025_Node000006"><a xlink:title=" ">
<path fill="none" stroke="#63b8ff" d="M962.99,-164.78C954.36,-150.67 935.26,-123.07 911,-110 866.68,-86.13 720.26,-72.95 650.96,-67.92"/>
<polygon fill="#63b8ff" stroke="#63b8ff" points="651.15,-64.42 640.93,-67.21 650.66,-71.4 651.15,-64.42"/>
</a>
</g>
</g>
<!-- Node25&#45;&gt;Node7 -->
<g id="edge46_Node000025_Node000007" class="edge">
<title>Node25&#45;&gt;Node7</title>
<g id="a_edge46_Node000025_Node000007"><a xlink:title=" ">
<path fill="none" stroke="#63b8ff" d="M1002.4,-168.2C1054.07,-160.16 1154.74,-144.21 1240,-129 1240.46,-128.92 1240.92,-128.84 1241.39,-128.75"/>
<polygon fill="#63b8ff" stroke="#63b8ff" points="1242.14,-132.17 1251.34,-126.92 1240.87,-125.29 1242.14,-132.17"/>
</a>
</g>
</g>
<!-- Node25&#45;&gt;Node8 -->
<g id="edge47_Node000025_Node000008" class="edge">
<title>Node25&#45;&gt;Node8</title>
<g id="a_edge47_Node000025_Node000008"><a xlink:title=" ">
<path fill="none" stroke="#63b8ff" d="M947.6,-164.98C926.98,-156.38 894.89,-142.99 871.31,-133.15"/>
<polygon fill="#63b8ff" stroke="#63b8ff" points="872.35,-129.79 861.78,-129.17 869.66,-136.25 872.35,-129.79"/>
</a>
</g>
</g>
<!-- Node25&#45;&gt;Node9 -->
<g id="edge48_Node000025_Node000009" class="edge">
<title>Node25&#45;&gt;Node9</title>
<g id="a_edge48_Node000025_Node000009"><a xlink:title=" ">
<path fill="none" stroke="#63b8ff" d="M971.12,-164.76C975.6,-152.4 984.28,-129.2 993,-110 997.09,-100.99 1002.08,-91.2 1006.37,-83.11"/>
<polygon fill="#63b8ff" stroke="#63b8ff" points="1009.49,-84.7 1011.15,-74.23 1003.33,-81.38 1009.49,-84.7"/>
</a>
</g>
</g>
<!-- Node25&#45;&gt;Node24 -->
<g id="edge49_Node000025_Node000024" class="edge">
<title>Node25&#45;&gt;Node24</title>
<g id="a_edge49_Node000025_Node000024"><a xlink:title=" ">
<path fill="none" stroke="#63b8ff" d="M1002.23,-165.1C1039.29,-156.01 1098.57,-141.46 1139.29,-131.47"/>
<polygon fill="#63b8ff" stroke="#63b8ff" points="1140.34,-134.82 1149.22,-129.03 1138.67,-128.02 1140.34,-134.82"/>
</a>
</g>
</g>
<!-- Node26&#45;&gt;Node2 -->
<g id="edge53_Node000026_Node000002" class="edge">
<title>Node26&#45;&gt;Node2</title>
<g id="a_edge53_Node000026_Node000002"><a xlink:title=" ">
<path fill="none" stroke="#63b8ff" d="M1134.13,-228.09C1008.36,-226.16 521.51,-216.68 372,-184 369.96,-183.55 233.91,-129.84 232,-129 214.35,-121.25 210.85,-117.3 193,-110 161.92,-97.29 125.74,-85.37 98.97,-77.06"/>
<polygon fill="#63b8ff" stroke="#63b8ff" points="99.78,-73.65 89.2,-74.07 97.73,-80.35 99.78,-73.65"/>
</a>
</g>
</g>
<!-- Node26&#45;&gt;Node5 -->
<g id="edge55_Node000026_Node000005" class="edge">
<title>Node26&#45;&gt;Node5</title>
<g id="a_edge55_Node000026_Node000005"><a xlink:title=" ">
<path fill="none" stroke="#63b8ff" d="M1134.31,-225.18C1083.99,-219.21 978.91,-205.27 892,-184 834.13,-169.84 768.61,-146.72 730.72,-132.63"/>
<polygon fill="#63b8ff" stroke="#63b8ff" points="731.84,-129.31 721.25,-129.08 729.39,-135.87 731.84,-129.31"/>
</a>
</g>
</g>
<!-- Node26&#45;&gt;Node6 -->
<g id="edge56_Node000026_Node000006" class="edge">
<title>Node26&#45;&gt;Node6</title>
<g id="a_edge56_Node000026_Node000006"><a xlink:title=" ">
<path fill="none" stroke="#63b8ff" d="M1134.27,-225.93C1078.06,-220.59 958.83,-206.87 925,-184 892.72,-162.18 910.46,-131.55 878,-110 841.32,-85.65 714.34,-72.97 650.81,-68.02"/>
<polygon fill="#63b8ff" stroke="#63b8ff" points="651.05,-64.53 640.81,-67.27 650.52,-71.51 651.05,-64.53"/>
</a>
</g>
</g>
<!-- Node26&#45;&gt;Node7 -->
<g id="edge57_Node000026_Node000007" class="edge">
<title>Node26&#45;&gt;Node7</title>
<g id="a_edge57_Node000026_Node000007"><a xlink:title=" ">
<path fill="none" stroke="#63b8ff" d="M1193.66,-227.42C1223.79,-224.55 1269.04,-214.97 1291,-184 1300.31,-170.88 1296.82,-152.24 1292.05,-138.55"/>
<polygon fill="#63b8ff" stroke="#63b8ff" points="1295.29,-137.22 1288.34,-129.22 1288.78,-139.81 1295.29,-137.22"/>
</a>
</g>
</g>
<!-- Node26&#45;&gt;Node9 -->
<g id="edge58_Node000026_Node000009" class="edge">
<title>Node26&#45;&gt;Node9</title>
<g id="a_edge58_Node000026_Node000009"><a xlink:title=" ">
<path fill="none" stroke="#63b8ff" d="M1193.69,-226.95C1225.7,-223.72 1276.2,-213.86 1307,-184 1331.38,-160.36 1348.24,-135.66 1326,-110 1291.48,-70.17 1131.44,-65.15 1055.8,-65.05"/>
<polygon fill="#63b8ff" stroke="#63b8ff" points="1055.71,-61.55 1045.71,-65.07 1055.72,-68.55 1055.71,-61.55"/>
</a>
</g>
</g>
<!-- Node26&#45;&gt;Node20 -->
<g id="edge59_Node000026_Node000020" class="edge">
<title>Node26&#45;&gt;Node20</title>
<g id="a_edge59_Node000026_Node000020"><a xlink:title=" ">
<path fill="none" stroke="#63b8ff" d="M1155.49,-219.66C1137.96,-201.46 1097.6,-159.55 1075.38,-136.47"/>
<polygon fill="#63b8ff" stroke="#63b8ff" points="1077.8,-133.93 1068.34,-129.16 1072.75,-138.79 1077.8,-133.93"/>
</a>
</g>
</g>
<!-- Node26&#45;&gt;Node24 -->
<g id="edge60_Node000026_Node000024" class="edge">
<title>Node26&#45;&gt;Node24</title>
<g id="a_edge60_Node000026_Node000024"><a xlink:title=" ">
<path fill="none" stroke="#63b8ff" d="M1165.64,-219.66C1168.88,-202.17 1176.17,-162.8 1180.52,-139.27"/>
<polygon fill="#63b8ff" stroke="#63b8ff" points="1184.02,-139.63 1182.4,-129.16 1177.13,-138.35 1184.02,-139.63"/>
</a>
</g>
</g>
<!-- Node26&#45;&gt;Node25 -->
<g id="edge61_Node000026_Node000025" class="edge">
<title>Node26&#45;&gt;Node25</title>
<g id="a_edge61_Node000026_Node000025"><a xlink:title=" ">
<path fill="none" stroke="#63b8ff" d="M1134.23,-220.45C1101.05,-211.48 1047.14,-196.9 1009.75,-186.79"/>
<polygon fill="#63b8ff" stroke="#63b8ff" points="1010.24,-183.3 999.68,-184.07 1008.42,-190.05 1010.24,-183.3"/>
</a>
</g>
</g>
<!-- Node27 -->
<g id="Node000027" class="node">
<title>Node27</title>
<g id="a_Node000027"><a xlink:title=" ">
<polygon fill="#e0e0e0" stroke="#999999" points="1281.5,-184 1210.5,-184 1210.5,-165 1281.5,-165 1281.5,-184"/>
<text text-anchor="middle" x="1246" y="-172" font-family="Helvetica,sans-Serif" font-size="10.00">QMetaType</text>
</a>
</g>
</g>
<!-- Node26&#45;&gt;Node27 -->
<g id="edge54_Node000026_Node000027" class="edge">
<title>Node26&#45;&gt;Node27</title>
<g id="a_edge54_Node000026_Node000027"><a xlink:title=" ">
<path fill="none" stroke="#63b8ff" d="M1177.17,-219.98C1189.77,-211.84 1209,-199.41 1223.94,-189.76"/>
<polygon fill="#63b8ff" stroke="#63b8ff" points="1226.09,-192.54 1232.59,-184.17 1222.29,-186.66 1226.09,-192.54"/>
</a>
</g>
</g>
</g>
</svg>
