<?xml version="1.0" encoding="UTF-8" standalone="no"?>
<!DOCTYPE svg PUBLIC "-//W3C//DTD SVG 1.1//EN"
 "http://www.w3.org/Graphics/SVG/1.1/DTD/svg11.dtd">
<!-- Generated by graphviz version 2.43.0 (0)
 -->
<!-- Title: IntersectCirclesVisual Pages: 1 -->
<!--zoomable 1782 -->

<svg id="main" version="1.1" xmlns="http://www.w3.org/2000/svg" xmlns:xlink="http://www.w3.org/1999/xlink" xml:space="preserve" onload="init(evt)">
<style type="text/css"><![CDATA[
.node, .edge {opacity: 0.7;}
.node.selected, .edge.selected {opacity: 1;}
.edge:hover path { stroke: red; }
.edge:hover polygon { stroke: red; fill: red; }
]]></style>

<defs>
  <circle id="rim" cx="0" cy="0" r="7"/>
  <circle id="rim2" cx="0" cy="0" r="3.5"/>
  <g id="zoomPlus">
    <use xlink:href="#rim" fill="#404040"><set attributeName="fill" to="#808080" begin="zoomplus.mouseover" end="zoomplus.mouseout"/></use>
    <path d="M-4,0h8M0,-4v8" fill="none" stroke="white" stroke-width="1.5" pointer-events="none"/>
  </g>
  <g id="zoomMin">
    <use xlink:href="#rim" fill="#404040"><set attributeName="fill" to="#808080" begin="zoomminus.mouseover" end="zoomminus.mouseout"/></use>
    <path d="M-4,0h8" fill="none" stroke="white" stroke-width="1.5" pointer-events="none"/>
  </g>
  <g id="arrowUp" transform="translate(30 24)">
    <use xlink:href="#rim"/>
    <path pointer-events="none" fill="none" stroke="white" stroke-width="1.5" d="M0,-3.0v7 M-2.5,-0.5L0,-3.0L2.5,-0.5"/>
  </g>
  <g id="arrowRight" transform="rotate(90) translate(36 -43)">
    <use xlink:href="#rim"/>
    <path pointer-events="none" fill="none" stroke="white" stroke-width="1.5" d="M0,-3.0v7 M-2.5,-0.5L0,-3.0L2.5,-0.5"/>
  </g>
  <g id="arrowDown" transform="rotate(180) translate(-30 -48)">
    <use xlink:href="#rim"/>
    <path pointer-events="none" fill="none" stroke="white" stroke-width="1.5" d="M0,-3.0v7 M-2.5,-0.5L0,-3.0L2.5,-0.5"/>
  </g>
  <g id="arrowLeft" transform="rotate(270) translate(-36 17)">
    <use xlink:href="#rim"/>
    <path pointer-events="none" fill="none" stroke="white" stroke-width="1.5" d="M0,-3.0v7 M-2.5,-0.5L0,-3.0L2.5,-0.5"/>
  </g>
  <g id="resetDef">
    <use xlink:href="#rim2" fill="#404040"><set attributeName="fill" to="#808080" begin="reset.mouseover" end="reset.mouseout"/></use>
  </g>
</defs>
<script type="application/ecmascript">
var viewWidth = 490;
var viewHeight = 1782;
var sectionId = 'dynsection-1';
</script>
<script type="application/ecmascript" xlink:href="../../svg.min.js"/>
<svg id="graph" class="graph">
<g id="viewport">
<title>IntersectCirclesVisual</title>
<!-- Node1 -->
<g id="Node000001" class="node">
<title>Node1</title>
<g id="a_Node000001"><a xlink:title=" ">
<polygon fill="#999999" stroke="transparent" points="432,-274 288,-274 288,0 432,0 432,-274"/>
<text text-anchor="start" x="307" y="-262" font-family="Helvetica,sans-Serif" font-size="10.00">IntersectCirclesVisual</text>
<text text-anchor="start" x="294.5" y="-247" font-family="Helvetica,sans-Serif" font-size="10.00">&#45;</text>
<text text-anchor="start" x="305" y="-247" font-family="Helvetica,sans-Serif" font-size="10.00">object2Id</text>
<text text-anchor="start" x="294.5" y="-232" font-family="Helvetica,sans-Serif" font-size="10.00">&#45;</text>
<text text-anchor="start" x="305" y="-232" font-family="Helvetica,sans-Serif" font-size="10.00">c1Radius</text>
<text text-anchor="start" x="294.5" y="-217" font-family="Helvetica,sans-Serif" font-size="10.00">&#45;</text>
<text text-anchor="start" x="305" y="-217" font-family="Helvetica,sans-Serif" font-size="10.00">c2Radius</text>
<text text-anchor="start" x="294.5" y="-202" font-family="Helvetica,sans-Serif" font-size="10.00">&#45;</text>
<text text-anchor="start" x="305" y="-202" font-family="Helvetica,sans-Serif" font-size="10.00">crossPoint</text>
<text text-anchor="start" x="294.5" y="-187" font-family="Helvetica,sans-Serif" font-size="10.00">&#45;</text>
<text text-anchor="start" x="305" y="-187" font-family="Helvetica,sans-Serif" font-size="10.00">c1Path</text>
<text text-anchor="start" x="294.5" y="-172" font-family="Helvetica,sans-Serif" font-size="10.00">&#45;</text>
<text text-anchor="start" x="305" y="-172" font-family="Helvetica,sans-Serif" font-size="10.00">c2Path</text>
<text text-anchor="start" x="294.5" y="-157" font-family="Helvetica,sans-Serif" font-size="10.00">&#45;</text>
<text text-anchor="start" x="305" y="-157" font-family="Helvetica,sans-Serif" font-size="10.00">m_secondrySupportColor</text>
<text text-anchor="start" x="294.5" y="-142" font-family="Helvetica,sans-Serif" font-size="10.00">&#45;</text>
<text text-anchor="start" x="305" y="-142" font-family="Helvetica,sans-Serif" font-size="10.00">m_tertiarySupportColor</text>
<text text-anchor="start" x="292" y="-127" font-family="Helvetica,sans-Serif" font-size="10.00">+</text>
<text text-anchor="start" x="305" y="-127" font-family="Helvetica,sans-Serif" font-size="10.00">IntersectCirclesVisual()</text>
<text text-anchor="start" x="292" y="-112" font-family="Helvetica,sans-Serif" font-size="10.00">+</text>
<text text-anchor="start" x="305" y="-112" font-family="Helvetica,sans-Serif" font-size="10.00">~IntersectCirclesVisual()</text>
<text text-anchor="start" x="292" y="-97" font-family="Helvetica,sans-Serif" font-size="10.00">+</text>
<text text-anchor="start" x="305" y="-97" font-family="Helvetica,sans-Serif" font-size="10.00">RefreshGeometry()</text>
<text text-anchor="start" x="292" y="-82" font-family="Helvetica,sans-Serif" font-size="10.00">+</text>
<text text-anchor="start" x="305" y="-82" font-family="Helvetica,sans-Serif" font-size="10.00">VisualMode()</text>
<text text-anchor="start" x="292" y="-67" font-family="Helvetica,sans-Serif" font-size="10.00">+</text>
<text text-anchor="start" x="305" y="-67" font-family="Helvetica,sans-Serif" font-size="10.00">setObject2Id()</text>
<text text-anchor="start" x="292" y="-52" font-family="Helvetica,sans-Serif" font-size="10.00">+</text>
<text text-anchor="start" x="305" y="-52" font-family="Helvetica,sans-Serif" font-size="10.00">setC1Radius()</text>
<text text-anchor="start" x="292" y="-37" font-family="Helvetica,sans-Serif" font-size="10.00">+</text>
<text text-anchor="start" x="305" y="-37" font-family="Helvetica,sans-Serif" font-size="10.00">setC2Radius()</text>
<text text-anchor="start" x="292" y="-22" font-family="Helvetica,sans-Serif" font-size="10.00">+</text>
<text text-anchor="start" x="305" y="-22" font-family="Helvetica,sans-Serif" font-size="10.00">setCrossPoint()</text>
<text text-anchor="start" x="292" y="-7" font-family="Helvetica,sans-Serif" font-size="10.00">+</text>
<text text-anchor="start" x="305" y="-7" font-family="Helvetica,sans-Serif" font-size="10.00">type()</text>
<polygon fill="#666666" stroke="#666666" points="288,-257 288,-257 432,-257 432,-257 288,-257"/>
<polygon fill="#666666" stroke="#666666" points="288,-137 288,-137 303,-137 303,-137 288,-137"/>
<polygon fill="#666666" stroke="#666666" points="303,-137 303,-137 432,-137 432,-137 303,-137"/>
<polygon fill="none" stroke="#666666" points="288,0 288,-274 432,-274 432,0 288,0"/>
</a>
</g>
</g>
<!-- Node2 -->
<g id="Node000002" class="node">
<title>Node2</title>
<g id="a_Node000002"><a xlink:href="../../de/d0e/classVisLine.html" target="_top" xlink:title=" ">
<polygon fill="white" stroke="transparent" points="343,-542 251,-542 251,-343 343,-343 343,-542"/>
<text text-anchor="start" x="279" y="-529.5" font-family="Helvetica,sans-Serif" font-size="10.00">VisLine</text>
<text text-anchor="start" x="295" y="-514.5" font-family="Helvetica,sans-Serif" font-size="10.00"> </text>
<text text-anchor="start" x="255" y="-499.5" font-family="Helvetica,sans-Serif" font-size="10.00">+</text>
<text text-anchor="start" x="268" y="-499.5" font-family="Helvetica,sans-Serif" font-size="10.00">VisLine()</text>
<text text-anchor="start" x="255" y="-484.5" font-family="Helvetica,sans-Serif" font-size="10.00">+</text>
<text text-anchor="start" x="268" y="-484.5" font-family="Helvetica,sans-Serif" font-size="10.00">~VisLine()</text>
<text text-anchor="start" x="255" y="-469.5" font-family="Helvetica,sans-Serif" font-size="10.00">+</text>
<text text-anchor="start" x="268" y="-469.5" font-family="Helvetica,sans-Serif" font-size="10.00">type()</text>
<text text-anchor="start" x="255" y="-454.5" font-family="Helvetica,sans-Serif" font-size="10.00">+</text>
<text text-anchor="start" x="268" y="-454.5" font-family="Helvetica,sans-Serif" font-size="10.00">CorrectAngle()</text>
<text text-anchor="start" x="255" y="-439.5" font-family="Helvetica,sans-Serif" font-size="10.00">#</text>
<text text-anchor="start" x="268" y="-439.5" font-family="Helvetica,sans-Serif" font-size="10.00">Ray()</text>
<text text-anchor="start" x="255" y="-424.5" font-family="Helvetica,sans-Serif" font-size="10.00">#</text>
<text text-anchor="start" x="268" y="-424.5" font-family="Helvetica,sans-Serif" font-size="10.00">Ray()</text>
<text text-anchor="start" x="255" y="-409.5" font-family="Helvetica,sans-Serif" font-size="10.00">#</text>
<text text-anchor="start" x="268" y="-409.5" font-family="Helvetica,sans-Serif" font-size="10.00">Axis()</text>
<text text-anchor="start" x="255" y="-394.5" font-family="Helvetica,sans-Serif" font-size="10.00">#</text>
<text text-anchor="start" x="268" y="-394.5" font-family="Helvetica,sans-Serif" font-size="10.00">Axis()</text>
<text text-anchor="start" x="255" y="-379.5" font-family="Helvetica,sans-Serif" font-size="10.00">#</text>
<text text-anchor="start" x="268" y="-379.5" font-family="Helvetica,sans-Serif" font-size="10.00">initPen()</text>
<text text-anchor="start" x="255" y="-364.5" font-family="Helvetica,sans-Serif" font-size="10.00">#</text>
<text text-anchor="start" x="268" y="-364.5" font-family="Helvetica,sans-Serif" font-size="10.00">AddOnScene()</text>
<text text-anchor="start" x="255" y="-349.5" font-family="Helvetica,sans-Serif" font-size="10.00">#</text>
<text text-anchor="start" x="268" y="-349.5" font-family="Helvetica,sans-Serif" font-size="10.00">DrawRay()</text>
<polygon fill="#666666" stroke="#666666" points="251,-524.5 251,-524.5 343,-524.5 343,-524.5 251,-524.5"/>
<polygon fill="#666666" stroke="#666666" points="251,-509.5 251,-509.5 343,-509.5 343,-509.5 251,-509.5"/>
<polygon fill="none" stroke="#666666" points="251,-343 251,-542 343,-542 343,-343 251,-343"/>
</a>
</g>
</g>
<!-- Node2&#45;&gt;Node1 -->
<g id="edge1_Node000001_Node000002" class="edge">
<title>Node2&#45;&gt;Node1</title>
<g id="a_edge1_Node000001_Node000002"><a xlink:title=" ">
<path fill="none" stroke="#63b8ff" d="M319.51,-333.07C323.47,-313.96 327.65,-293.85 331.75,-274.1"/>
<polygon fill="none" stroke="#63b8ff" points="316.06,-332.46 317.45,-342.96 322.91,-333.88 316.06,-332.46"/>
</a>
</g>
</g>
<!-- Node3 -->
<g id="Node000003" class="node">
<title>Node3</title>
<g id="a_Node000003"><a xlink:href="../../d7/d24/classVisualization.html" target="_top" xlink:title=" ">
<polygon fill="white" stroke="transparent" points="212.5,-1168 97.5,-1168 97.5,-579 212.5,-579 212.5,-1168"/>
<text text-anchor="start" x="123.5" y="-1155.5" font-family="Helvetica,sans-Serif" font-size="10.00">Visualization</text>
<text text-anchor="start" x="102" y="-1140.5" font-family="Helvetica,sans-Serif" font-size="10.00">#</text>
<text text-anchor="start" x="115" y="-1140.5" font-family="Helvetica,sans-Serif" font-size="10.00">scenePos</text>
<text text-anchor="start" x="102" y="-1125.5" font-family="Helvetica,sans-Serif" font-size="10.00">#</text>
<text text-anchor="start" x="115" y="-1125.5" font-family="Helvetica,sans-Serif" font-size="10.00">mainColor</text>
<text text-anchor="start" x="102" y="-1110.5" font-family="Helvetica,sans-Serif" font-size="10.00">#</text>
<text text-anchor="start" x="115" y="-1110.5" font-family="Helvetica,sans-Serif" font-size="10.00">supportColor</text>
<text text-anchor="start" x="102" y="-1095.5" font-family="Helvetica,sans-Serif" font-size="10.00">#</text>
<text text-anchor="start" x="115" y="-1095.5" font-family="Helvetica,sans-Serif" font-size="10.00">lineStyle</text>
<text text-anchor="start" x="102" y="-1080.5" font-family="Helvetica,sans-Serif" font-size="10.00">#</text>
<text text-anchor="start" x="115" y="-1080.5" font-family="Helvetica,sans-Serif" font-size="10.00">lineWeight</text>
<text text-anchor="start" x="102" y="-1065.5" font-family="Helvetica,sans-Serif" font-size="10.00">#</text>
<text text-anchor="start" x="115" y="-1065.5" font-family="Helvetica,sans-Serif" font-size="10.00">object1Id</text>
<text text-anchor="start" x="102" y="-1050.5" font-family="Helvetica,sans-Serif" font-size="10.00">#</text>
<text text-anchor="start" x="115" y="-1050.5" font-family="Helvetica,sans-Serif" font-size="10.00">toolTip</text>
<text text-anchor="start" x="102" y="-1035.5" font-family="Helvetica,sans-Serif" font-size="10.00">#</text>
<text text-anchor="start" x="115" y="-1035.5" font-family="Helvetica,sans-Serif" font-size="10.00">mode</text>
<text text-anchor="start" x="102" y="-1020.5" font-family="Helvetica,sans-Serif" font-size="10.00">+</text>
<text text-anchor="start" x="115" y="-1020.5" font-family="Helvetica,sans-Serif" font-size="10.00">Visualization()</text>
<text text-anchor="start" x="102" y="-1005.5" font-family="Helvetica,sans-Serif" font-size="10.00">+</text>
<text text-anchor="start" x="115" y="-1005.5" font-family="Helvetica,sans-Serif" font-size="10.00">~Visualization()</text>
<text text-anchor="start" x="102" y="-990.5" font-family="Helvetica,sans-Serif" font-size="10.00">+</text>
<text text-anchor="start" x="115" y="-990.5" font-family="Helvetica,sans-Serif" font-size="10.00">RefreshGeometry()</text>
<text text-anchor="start" x="102" y="-975.5" font-family="Helvetica,sans-Serif" font-size="10.00">+</text>
<text text-anchor="start" x="115" y="-975.5" font-family="Helvetica,sans-Serif" font-size="10.00">setObject1Id()</text>
<text text-anchor="start" x="102" y="-960.5" font-family="Helvetica,sans-Serif" font-size="10.00">+</text>
<text text-anchor="start" x="115" y="-960.5" font-family="Helvetica,sans-Serif" font-size="10.00">setLineStyle()</text>
<text text-anchor="start" x="102" y="-945.5" font-family="Helvetica,sans-Serif" font-size="10.00">+</text>
<text text-anchor="start" x="115" y="-945.5" font-family="Helvetica,sans-Serif" font-size="10.00">setLineWeight()</text>
<text text-anchor="start" x="102" y="-930.5" font-family="Helvetica,sans-Serif" font-size="10.00">+</text>
<text text-anchor="start" x="115" y="-930.5" font-family="Helvetica,sans-Serif" font-size="10.00">setScenePos()</text>
<text text-anchor="start" x="102" y="-915.5" font-family="Helvetica,sans-Serif" font-size="10.00">+</text>
<text text-anchor="start" x="115" y="-915.5" font-family="Helvetica,sans-Serif" font-size="10.00">VisualMode()</text>
<text text-anchor="start" x="102" y="-900.5" font-family="Helvetica,sans-Serif" font-size="10.00">+</text>
<text text-anchor="start" x="115" y="-900.5" font-family="Helvetica,sans-Serif" font-size="10.00">setMainColor()</text>
<text text-anchor="start" x="102" y="-885.5" font-family="Helvetica,sans-Serif" font-size="10.00">+</text>
<text text-anchor="start" x="115" y="-885.5" font-family="Helvetica,sans-Serif" font-size="10.00">getData()</text>
<text text-anchor="start" x="102" y="-870.5" font-family="Helvetica,sans-Serif" font-size="10.00">+</text>
<text text-anchor="start" x="115" y="-870.5" font-family="Helvetica,sans-Serif" font-size="10.00">setData()</text>
<text text-anchor="start" x="102" y="-855.5" font-family="Helvetica,sans-Serif" font-size="10.00">+</text>
<text text-anchor="start" x="115" y="-855.5" font-family="Helvetica,sans-Serif" font-size="10.00">GetMode()</text>
<text text-anchor="start" x="102" y="-840.5" font-family="Helvetica,sans-Serif" font-size="10.00">+</text>
<text text-anchor="start" x="115" y="-840.5" font-family="Helvetica,sans-Serif" font-size="10.00">SetMode()</text>
<text text-anchor="start" x="102" y="-825.5" font-family="Helvetica,sans-Serif" font-size="10.00">+</text>
<text text-anchor="start" x="115" y="-825.5" font-family="Helvetica,sans-Serif" font-size="10.00">CurrentToolTip()</text>
<text text-anchor="start" x="102" y="-810.5" font-family="Helvetica,sans-Serif" font-size="10.00">+</text>
<text text-anchor="start" x="115" y="-810.5" font-family="Helvetica,sans-Serif" font-size="10.00">FindLength()</text>
<text text-anchor="start" x="102" y="-795.5" font-family="Helvetica,sans-Serif" font-size="10.00">+</text>
<text text-anchor="start" x="115" y="-795.5" font-family="Helvetica,sans-Serif" font-size="10.00">FindVal()</text>
<text text-anchor="start" x="102" y="-780.5" font-family="Helvetica,sans-Serif" font-size="10.00">+</text>
<text text-anchor="start" x="115" y="-780.5" font-family="Helvetica,sans-Serif" font-size="10.00">mousePos()</text>
<text text-anchor="start" x="102" y="-765.5" font-family="Helvetica,sans-Serif" font-size="10.00">#</text>
<text text-anchor="start" x="115" y="-765.5" font-family="Helvetica,sans-Serif" font-size="10.00">initPen()</text>
<text text-anchor="start" x="102" y="-750.5" font-family="Helvetica,sans-Serif" font-size="10.00">#</text>
<text text-anchor="start" x="115" y="-750.5" font-family="Helvetica,sans-Serif" font-size="10.00">AddOnScene()</text>
<text text-anchor="start" x="102" y="-735.5" font-family="Helvetica,sans-Serif" font-size="10.00">#</text>
<text text-anchor="start" x="115" y="-735.5" font-family="Helvetica,sans-Serif" font-size="10.00">InitPoint()</text>
<text text-anchor="start" x="102" y="-720.5" font-family="Helvetica,sans-Serif" font-size="10.00">#</text>
<text text-anchor="start" x="115" y="-720.5" font-family="Helvetica,sans-Serif" font-size="10.00">DrawPoint()</text>
<text text-anchor="start" x="102" y="-705.5" font-family="Helvetica,sans-Serif" font-size="10.00">#</text>
<text text-anchor="start" x="115" y="-705.5" font-family="Helvetica,sans-Serif" font-size="10.00">DrawLine()</text>
<text text-anchor="start" x="102" y="-690.5" font-family="Helvetica,sans-Serif" font-size="10.00">#</text>
<text text-anchor="start" x="115" y="-690.5" font-family="Helvetica,sans-Serif" font-size="10.00">DrawPath()</text>
<text text-anchor="start" x="102" y="-675.5" font-family="Helvetica,sans-Serif" font-size="10.00">#</text>
<text text-anchor="start" x="115" y="-675.5" font-family="Helvetica,sans-Serif" font-size="10.00">DrawPath()</text>
<text text-anchor="start" x="102" y="-660.5" font-family="Helvetica,sans-Serif" font-size="10.00">#</text>
<text text-anchor="start" x="115" y="-660.5" font-family="Helvetica,sans-Serif" font-size="10.00">drawArrowedLine()</text>
<text text-anchor="start" x="102" y="-645.5" font-family="Helvetica,sans-Serif" font-size="10.00">#</text>
<text text-anchor="start" x="115" y="-645.5" font-family="Helvetica,sans-Serif" font-size="10.00">drawArrow()</text>
<text text-anchor="start" x="102" y="-630.5" font-family="Helvetica,sans-Serif" font-size="10.00">#</text>
<text text-anchor="start" x="115" y="-630.5" font-family="Helvetica,sans-Serif" font-size="10.00">addItem()</text>
<text text-anchor="start" x="102" y="-615.5" font-family="Helvetica,sans-Serif" font-size="10.00">#</text>
<text text-anchor="start" x="115" y="-615.5" font-family="Helvetica,sans-Serif" font-size="10.00">InitItem()</text>
<text text-anchor="start" x="102" y="-600.5" font-family="Helvetica,sans-Serif" font-size="10.00">#</text>
<text text-anchor="start" x="115" y="-600.5" font-family="Helvetica,sans-Serif" font-size="10.00">GetPointItem()</text>
<text text-anchor="start" x="104.5" y="-585.5" font-family="Helvetica,sans-Serif" font-size="10.00">&#45;</text>
<text text-anchor="start" x="115" y="-585.5" font-family="Helvetica,sans-Serif" font-size="10.00">initPointItem()</text>
<polygon fill="#666666" stroke="#666666" points="98,-1150.5 98,-1150.5 213,-1150.5 213,-1150.5 98,-1150.5"/>
<polygon fill="#666666" stroke="#666666" points="98,-1030.5 98,-1030.5 113,-1030.5 113,-1030.5 98,-1030.5"/>
<polygon fill="#666666" stroke="#666666" points="113,-1030.5 113,-1030.5 213,-1030.5 213,-1030.5 113,-1030.5"/>
<polygon fill="none" stroke="#666666" points="97.5,-579 97.5,-1168 212.5,-1168 212.5,-579 97.5,-579"/>
</a>
</g>
</g>
<!-- Node3&#45;&gt;Node2 -->
<g id="edge2_Node000002_Node000003" class="edge">
<title>Node3&#45;&gt;Node2</title>
<g id="a_edge2_Node000002_Node000003"><a xlink:title=" ">
<path fill="none" stroke="#63b8ff" d="M215.56,-643.31C222.38,-621.44 229.56,-599.71 237,-579 241.3,-567.01 246.18,-554.6 251.26,-542.36"/>
<polygon fill="none" stroke="#63b8ff" points="212.17,-642.44 212.56,-653.03 218.86,-644.51 212.17,-642.44"/>
</a>
</g>
</g>
<!-- Node4 -->
<g id="Node000004" class="node">
<title>Node4</title>
<g id="a_Node000004"><a xlink:title=" ">
<polygon fill="white" stroke="transparent" points="50,-1519 0,-1519 0,-1470 50,-1470 50,-1519"/>
<text text-anchor="start" x="5" y="-1506.5" font-family="Helvetica,sans-Serif" font-size="10.00">QObject</text>
<text text-anchor="start" x="23" y="-1491.5" font-family="Helvetica,sans-Serif" font-size="10.00"> </text>
<text text-anchor="start" x="23" y="-1476.5" font-family="Helvetica,sans-Serif" font-size="10.00"> </text>
<polygon fill="#666666" stroke="#666666" points="0,-1501.5 0,-1501.5 50,-1501.5 50,-1501.5 0,-1501.5"/>
<polygon fill="#666666" stroke="#666666" points="0,-1486.5 0,-1486.5 50,-1486.5 50,-1486.5 0,-1486.5"/>
<polygon fill="none" stroke="#666666" points="0,-1470 0,-1519 50,-1519 50,-1470 0,-1470"/>
</a>
</g>
</g>
<!-- Node4&#45;&gt;Node3 -->
<g id="edge3_Node000003_Node000004" class="edge">
<title>Node4&#45;&gt;Node3</title>
<g id="a_edge3_Node000003_Node000004"><a xlink:title=" ">
<path fill="none" stroke="#63b8ff" d="M27.44,-1459.71C31.63,-1407.04 41.46,-1302.35 59,-1215 69.28,-1163.82 83.31,-1109.08 97.48,-1058.8"/>
<polygon fill="none" stroke="#63b8ff" points="23.94,-1459.59 26.66,-1469.83 30.92,-1460.13 23.94,-1459.59"/>
</a>
</g>
</g>
<!-- Node5 -->
<g id="Node000005" class="node">
<title>Node5</title>
<g id="a_Node000005"><a xlink:href="../../d2/d83/classVContainer.html" target="_top" xlink:title="The VContainer class container of all variables.">
<polygon fill="white" stroke="transparent" points="241.5,-1774 68.5,-1774 68.5,-1215 241.5,-1215 241.5,-1774"/>
<text text-anchor="start" x="128" y="-1761.5" font-family="Helvetica,sans-Serif" font-size="10.00">VContainer</text>
<text text-anchor="start" x="75.5" y="-1746.5" font-family="Helvetica,sans-Serif" font-size="10.00">&#45;</text>
<text text-anchor="start" x="86" y="-1746.5" font-family="Helvetica,sans-Serif" font-size="10.00">d</text>
<text text-anchor="start" x="75.5" y="-1731.5" font-family="Helvetica,sans-Serif" font-size="10.00">&#45;</text>
<text text-anchor="start" x="86" y="-1731.5" font-family="Helvetica,sans-Serif" font-size="10.00">_id</text>
<text text-anchor="start" x="75.5" y="-1716.5" font-family="Helvetica,sans-Serif" font-size="10.00">&#45;</text>
<text text-anchor="start" x="86" y="-1716.5" font-family="Helvetica,sans-Serif" font-size="10.00">_size</text>
<text text-anchor="start" x="75.5" y="-1701.5" font-family="Helvetica,sans-Serif" font-size="10.00">&#45;</text>
<text text-anchor="start" x="86" y="-1701.5" font-family="Helvetica,sans-Serif" font-size="10.00">_height</text>
<text text-anchor="start" x="75.5" y="-1686.5" font-family="Helvetica,sans-Serif" font-size="10.00">&#45;</text>
<text text-anchor="start" x="86" y="-1686.5" font-family="Helvetica,sans-Serif" font-size="10.00">uniqueNames</text>
<text text-anchor="start" x="73" y="-1671.5" font-family="Helvetica,sans-Serif" font-size="10.00">+</text>
<text text-anchor="start" x="86" y="-1671.5" font-family="Helvetica,sans-Serif" font-size="10.00">VContainer()</text>
<text text-anchor="start" x="73" y="-1656.5" font-family="Helvetica,sans-Serif" font-size="10.00">+</text>
<text text-anchor="start" x="86" y="-1656.5" font-family="Helvetica,sans-Serif" font-size="10.00">VContainer()</text>
<text text-anchor="start" x="73" y="-1641.5" font-family="Helvetica,sans-Serif" font-size="10.00">+</text>
<text text-anchor="start" x="86" y="-1641.5" font-family="Helvetica,sans-Serif" font-size="10.00">~VContainer()</text>
<text text-anchor="start" x="73" y="-1626.5" font-family="Helvetica,sans-Serif" font-size="10.00">+</text>
<text text-anchor="start" x="86" y="-1626.5" font-family="Helvetica,sans-Serif" font-size="10.00">operator=()</text>
<text text-anchor="start" x="73" y="-1611.5" font-family="Helvetica,sans-Serif" font-size="10.00">+</text>
<text text-anchor="start" x="86" y="-1611.5" font-family="Helvetica,sans-Serif" font-size="10.00">Swap()</text>
<text text-anchor="start" x="73" y="-1596.5" font-family="Helvetica,sans-Serif" font-size="10.00">+</text>
<text text-anchor="start" x="86" y="-1596.5" font-family="Helvetica,sans-Serif" font-size="10.00">GeometricObject()</text>
<text text-anchor="start" x="73" y="-1581.5" font-family="Helvetica,sans-Serif" font-size="10.00">+</text>
<text text-anchor="start" x="86" y="-1581.5" font-family="Helvetica,sans-Serif" font-size="10.00">GetGObject()</text>
<text text-anchor="start" x="73" y="-1566.5" font-family="Helvetica,sans-Serif" font-size="10.00">+</text>
<text text-anchor="start" x="86" y="-1566.5" font-family="Helvetica,sans-Serif" font-size="10.00">GetPiece()</text>
<text text-anchor="start" x="73" y="-1551.5" font-family="Helvetica,sans-Serif" font-size="10.00">+</text>
<text text-anchor="start" x="86" y="-1551.5" font-family="Helvetica,sans-Serif" font-size="10.00">GetPiecePath()</text>
<text text-anchor="start" x="73" y="-1536.5" font-family="Helvetica,sans-Serif" font-size="10.00">+</text>
<text text-anchor="start" x="86" y="-1536.5" font-family="Helvetica,sans-Serif" font-size="10.00">GetVariable()</text>
<text text-anchor="start" x="86" y="-1521.5" font-family="Helvetica,sans-Serif" font-size="10.00">and 34 more...</text>
<text text-anchor="start" x="73" y="-1506.5" font-family="Helvetica,sans-Serif" font-size="10.00">+</text>
<text text-anchor="start" x="86" y="-1506.5" font-family="Helvetica,sans-Serif" font-size="10.00">GetFakeGObject()</text>
<text text-anchor="start" x="73" y="-1491.5" font-family="Helvetica,sans-Serif" font-size="10.00">+</text>
<text text-anchor="start" x="86" y="-1491.5" font-family="Helvetica,sans-Serif" font-size="10.00">getId()</text>
<text text-anchor="start" x="73" y="-1476.5" font-family="Helvetica,sans-Serif" font-size="10.00">+</text>
<text text-anchor="start" x="86" y="-1476.5" font-family="Helvetica,sans-Serif" font-size="10.00">getNextId()</text>
<text text-anchor="start" x="73" y="-1461.5" font-family="Helvetica,sans-Serif" font-size="10.00">+</text>
<text text-anchor="start" x="86" y="-1461.5" font-family="Helvetica,sans-Serif" font-size="10.00">UpdateId()</text>
<text text-anchor="start" x="73" y="-1446.5" font-family="Helvetica,sans-Serif" font-size="10.00">+</text>
<text text-anchor="start" x="86" y="-1446.5" font-family="Helvetica,sans-Serif" font-size="10.00">ClearUniqueNames()</text>
<text text-anchor="start" x="73" y="-1431.5" font-family="Helvetica,sans-Serif" font-size="10.00">+</text>
<text text-anchor="start" x="86" y="-1431.5" font-family="Helvetica,sans-Serif" font-size="10.00">ClearUniqueIncrementNames()</text>
<text text-anchor="start" x="73" y="-1416.5" font-family="Helvetica,sans-Serif" font-size="10.00">+</text>
<text text-anchor="start" x="86" y="-1416.5" font-family="Helvetica,sans-Serif" font-size="10.00">SetSize()</text>
<text text-anchor="start" x="73" y="-1401.5" font-family="Helvetica,sans-Serif" font-size="10.00">+</text>
<text text-anchor="start" x="86" y="-1401.5" font-family="Helvetica,sans-Serif" font-size="10.00">SetHeight()</text>
<text text-anchor="start" x="73" y="-1386.5" font-family="Helvetica,sans-Serif" font-size="10.00">+</text>
<text text-anchor="start" x="86" y="-1386.5" font-family="Helvetica,sans-Serif" font-size="10.00">size()</text>
<text text-anchor="start" x="73" y="-1371.5" font-family="Helvetica,sans-Serif" font-size="10.00">+</text>
<text text-anchor="start" x="86" y="-1371.5" font-family="Helvetica,sans-Serif" font-size="10.00">rsize()</text>
<text text-anchor="start" x="73" y="-1356.5" font-family="Helvetica,sans-Serif" font-size="10.00">+</text>
<text text-anchor="start" x="86" y="-1356.5" font-family="Helvetica,sans-Serif" font-size="10.00">height()</text>
<text text-anchor="start" x="73" y="-1341.5" font-family="Helvetica,sans-Serif" font-size="10.00">+</text>
<text text-anchor="start" x="86" y="-1341.5" font-family="Helvetica,sans-Serif" font-size="10.00">rheight()</text>
<text text-anchor="start" x="73" y="-1326.5" font-family="Helvetica,sans-Serif" font-size="10.00">+</text>
<text text-anchor="start" x="86" y="-1326.5" font-family="Helvetica,sans-Serif" font-size="10.00">IsUnique()</text>
<text text-anchor="start" x="73" y="-1311.5" font-family="Helvetica,sans-Serif" font-size="10.00">+</text>
<text text-anchor="start" x="86" y="-1311.5" font-family="Helvetica,sans-Serif" font-size="10.00">AllUniqueNames()</text>
<text text-anchor="start" x="75.5" y="-1296.5" font-family="Helvetica,sans-Serif" font-size="10.00">&#45;</text>
<text text-anchor="start" x="86" y="-1296.5" font-family="Helvetica,sans-Serif" font-size="10.00">AddCurve()</text>
<text text-anchor="start" x="75.5" y="-1281.5" font-family="Helvetica,sans-Serif" font-size="10.00">&#45;</text>
<text text-anchor="start" x="86" y="-1281.5" font-family="Helvetica,sans-Serif" font-size="10.00">qHash()</text>
<text text-anchor="start" x="75.5" y="-1266.5" font-family="Helvetica,sans-Serif" font-size="10.00">&#45;</text>
<text text-anchor="start" x="86" y="-1266.5" font-family="Helvetica,sans-Serif" font-size="10.00">GetObject()</text>
<text text-anchor="start" x="75.5" y="-1251.5" font-family="Helvetica,sans-Serif" font-size="10.00">&#45;</text>
<text text-anchor="start" x="86" y="-1251.5" font-family="Helvetica,sans-Serif" font-size="10.00">UpdateObject()</text>
<text text-anchor="start" x="75.5" y="-1236.5" font-family="Helvetica,sans-Serif" font-size="10.00">&#45;</text>
<text text-anchor="start" x="86" y="-1236.5" font-family="Helvetica,sans-Serif" font-size="10.00">DataVar()</text>
<text text-anchor="start" x="75.5" y="-1221.5" font-family="Helvetica,sans-Serif" font-size="10.00">&#45;</text>
<text text-anchor="start" x="86" y="-1221.5" font-family="Helvetica,sans-Serif" font-size="10.00">AddObject()</text>
<polygon fill="#666666" stroke="#666666" points="69,-1756.5 69,-1756.5 242,-1756.5 242,-1756.5 69,-1756.5"/>
<polygon fill="#666666" stroke="#666666" points="69,-1681.5 69,-1681.5 84,-1681.5 84,-1681.5 69,-1681.5"/>
<polygon fill="#666666" stroke="#666666" points="84,-1681.5 84,-1681.5 242,-1681.5 242,-1681.5 84,-1681.5"/>
<polygon fill="none" stroke="#666666" points="68.5,-1215 68.5,-1774 241.5,-1774 241.5,-1215 68.5,-1215"/>
</a>
</g>
</g>
<!-- Node5&#45;&gt;Node3 -->
<g id="edge4_Node000003_Node000005" class="edge">
<title>Node5&#45;&gt;Node3</title>
<g id="a_edge4_Node000003_Node000005"><a xlink:title=" ">
<path fill="none" stroke="#63b8ff" d="M155,-1214.78C155,-1203.47 155,-1192.11 155,-1180.74"/>
<polygon fill="none" stroke="#63b8ff" points="155,-1180.42 151,-1174.42 155,-1168.42 159,-1174.42 155,-1180.42"/>
</a>
</g>
<text text-anchor="middle" x="172" y="-1189" font-family="Helvetica,sans-Serif" font-size="10.00" fill="grey"> #data</text>
</g>
<!-- Node6 -->
<g id="Node000006" class="node">
<title>Node6</title>
<g id="a_Node000006"><a xlink:href="../../dd/da2/classVScaledLine.html" target="_top" xlink:title=" ">
<polygon fill="white" stroke="transparent" points="347.5,-943 246.5,-943 246.5,-804 347.5,-804 347.5,-943"/>
<text text-anchor="start" x="267.5" y="-930.5" font-family="Helvetica,sans-Serif" font-size="10.00">VScaledLine</text>
<text text-anchor="start" x="253.5" y="-915.5" font-family="Helvetica,sans-Serif" font-size="10.00">&#45;</text>
<text text-anchor="start" x="264" y="-915.5" font-family="Helvetica,sans-Serif" font-size="10.00">basicWidth</text>
<text text-anchor="start" x="251" y="-900.5" font-family="Helvetica,sans-Serif" font-size="10.00">+</text>
<text text-anchor="start" x="264" y="-900.5" font-family="Helvetica,sans-Serif" font-size="10.00">VScaledLine()</text>
<text text-anchor="start" x="251" y="-885.5" font-family="Helvetica,sans-Serif" font-size="10.00">+</text>
<text text-anchor="start" x="264" y="-885.5" font-family="Helvetica,sans-Serif" font-size="10.00">VScaledLine()</text>
<text text-anchor="start" x="251" y="-870.5" font-family="Helvetica,sans-Serif" font-size="10.00">+</text>
<text text-anchor="start" x="264" y="-870.5" font-family="Helvetica,sans-Serif" font-size="10.00">~VScaledLine()</text>
<text text-anchor="start" x="251" y="-855.5" font-family="Helvetica,sans-Serif" font-size="10.00">+</text>
<text text-anchor="start" x="264" y="-855.5" font-family="Helvetica,sans-Serif" font-size="10.00">type()</text>
<text text-anchor="start" x="251" y="-840.5" font-family="Helvetica,sans-Serif" font-size="10.00">+</text>
<text text-anchor="start" x="264" y="-840.5" font-family="Helvetica,sans-Serif" font-size="10.00">paint()</text>
<text text-anchor="start" x="251" y="-825.5" font-family="Helvetica,sans-Serif" font-size="10.00">+</text>
<text text-anchor="start" x="264" y="-825.5" font-family="Helvetica,sans-Serif" font-size="10.00">GetBasicWidth()</text>
<text text-anchor="start" x="251" y="-810.5" font-family="Helvetica,sans-Serif" font-size="10.00">+</text>
<text text-anchor="start" x="264" y="-810.5" font-family="Helvetica,sans-Serif" font-size="10.00">setBasicWidth()</text>
<polygon fill="#666666" stroke="#666666" points="247,-925.5 247,-925.5 348,-925.5 348,-925.5 247,-925.5"/>
<polygon fill="#666666" stroke="#666666" points="247,-910.5 247,-910.5 262,-910.5 262,-910.5 247,-910.5"/>
<polygon fill="#666666" stroke="#666666" points="262,-910.5 262,-910.5 348,-910.5 348,-910.5 262,-910.5"/>
<polygon fill="none" stroke="#666666" points="246.5,-804 246.5,-943 347.5,-943 347.5,-804 246.5,-804"/>
</a>
</g>
</g>
<!-- Node6&#45;&gt;Node2 -->
<g id="edge5_Node000002_Node000006" class="edge">
<title>Node6&#45;&gt;Node2</title>
<g id="a_edge5_Node000002_Node000006"><a xlink:title=" ">
<path fill="none" stroke="#63b8ff" d="M297,-793.38C297,-722.57 297,-618.47 297,-542.23"/>
<polygon fill="none" stroke="#63b8ff" points="293.5,-793.57 297,-803.57 300.5,-793.57 293.5,-793.57"/>
</a>
</g>
</g>
<!-- Node7 -->
<g id="Node000007" class="node">
<title>Node7</title>
<g id="a_Node000007"><a xlink:title=" ">
<polygon fill="white" stroke="transparent" points="364,-1519 260,-1519 260,-1470 364,-1470 364,-1519"/>
<text text-anchor="start" x="265" y="-1506.5" font-family="Helvetica,sans-Serif" font-size="10.00">QGraphicsLineItem</text>
<text text-anchor="start" x="310" y="-1491.5" font-family="Helvetica,sans-Serif" font-size="10.00"> </text>
<text text-anchor="start" x="310" y="-1476.5" font-family="Helvetica,sans-Serif" font-size="10.00"> </text>
<polygon fill="#666666" stroke="#666666" points="260,-1501.5 260,-1501.5 364,-1501.5 364,-1501.5 260,-1501.5"/>
<polygon fill="#666666" stroke="#666666" points="260,-1486.5 260,-1486.5 364,-1486.5 364,-1486.5 260,-1486.5"/>
<polygon fill="none" stroke="#666666" points="260,-1470 260,-1519 364,-1519 364,-1470 260,-1470"/>
</a>
</g>
</g>
<!-- Node7&#45;&gt;Node6 -->
<g id="edge6_Node000006_Node000007" class="edge">
<title>Node7&#45;&gt;Node6</title>
<g id="a_edge6_Node000006_Node000007"><a xlink:title=" ">
<path fill="none" stroke="#63b8ff" d="M311.18,-1459.78C308.81,-1361.74 301.87,-1075.38 298.66,-943.03"/>
<polygon fill="none" stroke="#63b8ff" points="307.69,-1460.08 311.43,-1469.99 314.69,-1459.91 307.69,-1460.08"/>
</a>
</g>
</g>
<!-- Node8 -->
<g id="Node000008" class="node">
<title>Node8</title>
<g id="a_Node000008"><a xlink:href="../../d8/dbf/classVScaledEllipse.html" target="_top" xlink:title=" ">
<polygon fill="white" stroke="transparent" points="474.5,-489.5 365.5,-489.5 365.5,-395.5 474.5,-395.5 474.5,-489.5"/>
<text text-anchor="start" x="384.5" y="-477.5" font-family="Helvetica,sans-Serif" font-size="10.00">VScaledEllipse</text>
<text text-anchor="start" x="418.5" y="-462.5" font-family="Helvetica,sans-Serif" font-size="10.00"> </text>
<text text-anchor="start" x="370" y="-447.5" font-family="Helvetica,sans-Serif" font-size="10.00">+</text>
<text text-anchor="start" x="383" y="-447.5" font-family="Helvetica,sans-Serif" font-size="10.00">VScaledEllipse()</text>
<text text-anchor="start" x="370" y="-432.5" font-family="Helvetica,sans-Serif" font-size="10.00">+</text>
<text text-anchor="start" x="383" y="-432.5" font-family="Helvetica,sans-Serif" font-size="10.00">~VScaledEllipse()</text>
<text text-anchor="start" x="370" y="-417.5" font-family="Helvetica,sans-Serif" font-size="10.00">+</text>
<text text-anchor="start" x="383" y="-417.5" font-family="Helvetica,sans-Serif" font-size="10.00">type()</text>
<text text-anchor="start" x="370" y="-402.5" font-family="Helvetica,sans-Serif" font-size="10.00">+</text>
<text text-anchor="start" x="383" y="-402.5" font-family="Helvetica,sans-Serif" font-size="10.00">paint()</text>
<polygon fill="#666666" stroke="#666666" points="366,-472.5 366,-472.5 475,-472.5 475,-472.5 366,-472.5"/>
<polygon fill="#666666" stroke="#666666" points="366,-457.5 366,-457.5 475,-457.5 475,-457.5 366,-457.5"/>
<polygon fill="none" stroke="#666666" points="365.5,-395.5 365.5,-489.5 474.5,-489.5 474.5,-395.5 365.5,-395.5"/>
</a>
</g>
</g>
<!-- Node8&#45;&gt;Node1 -->
<g id="edge7_Node000001_Node000008" class="edge">
<title>Node8&#45;&gt;Node1</title>
<g id="a_edge7_Node000001_Node000008"><a xlink:title=" ">
<path fill="none" stroke="#63b8ff" d="M410.89,-395.4C405.07,-365.96 397.16,-325.98 389.32,-286.32"/>
<polygon fill="none" stroke="#63b8ff" points="389.28,-286.08 384.19,-280.97 386.95,-274.31 392.04,-279.42 389.28,-286.08"/>
</a>
</g>
<text text-anchor="middle" x="421.5" y="-317" font-family="Helvetica,sans-Serif" font-size="10.00" fill="grey"> &#45;c1Center</text>
<text text-anchor="middle" x="421.5" y="-306" font-family="Helvetica,sans-Serif" font-size="10.00" fill="grey">&#45;c2Center</text>
<text text-anchor="middle" x="421.5" y="-295" font-family="Helvetica,sans-Serif" font-size="10.00" fill="grey">&#45;point</text>
</g>
<!-- Node9 -->
<g id="Node000009" class="node">
<title>Node9</title>
<g id="a_Node000009"><a xlink:title=" ">
<polygon fill="white" stroke="transparent" points="482,-898 366,-898 366,-849 482,-849 482,-898"/>
<text text-anchor="start" x="371" y="-885.5" font-family="Helvetica,sans-Serif" font-size="10.00">QGraphicsEllipseItem</text>
<text text-anchor="start" x="422" y="-870.5" font-family="Helvetica,sans-Serif" font-size="10.00"> </text>
<text text-anchor="start" x="422" y="-855.5" font-family="Helvetica,sans-Serif" font-size="10.00"> </text>
<polygon fill="#666666" stroke="#666666" points="366,-880.5 366,-880.5 482,-880.5 482,-880.5 366,-880.5"/>
<polygon fill="#666666" stroke="#666666" points="366,-865.5 366,-865.5 482,-865.5 482,-865.5 366,-865.5"/>
<polygon fill="none" stroke="#666666" points="366,-849 366,-898 482,-898 482,-849 366,-849"/>
</a>
</g>
</g>
<!-- Node9&#45;&gt;Node8 -->
<g id="edge8_Node000008_Node000009" class="edge">
<title>Node9&#45;&gt;Node8</title>
<g id="a_edge8_Node000008_Node000009"><a xlink:title=" ">
<path fill="none" stroke="#63b8ff" d="M423.69,-838.81C422.97,-762.51 421.24,-576.41 420.43,-489.55"/>
<polygon fill="none" stroke="#63b8ff" points="420.19,-838.86 423.78,-848.82 427.19,-838.79 420.19,-838.86"/>
</a>
</g>
</g>
</g>
</svg>

<g id="navigator" transform="translate(0 0)" fill="#404254">
  <rect fill="#f2f5e9" fill-opacity="0.5" stroke="#606060" stroke-width=".5" x="0" y="0" width="60" height="60"/>
  <use id="zoomplus" xlink:href="#zoomPlus" x="17" y="9" onmousedown="handleZoom(evt,'in')"/>
  <use id="zoomminus" xlink:href="#zoomMin" x="42" y="9" onmousedown="handleZoom(evt,'out')"/>
  <use id="reset" xlink:href="#resetDef" x="30" y="36" onmousedown="handleReset()"/>
   <use id="arrowup" xlink:href="#arrowUp" x="0" y="0" onmousedown="handlePan(0,-1)"/>
  <use id="arrowright" xlink:href="#arrowRight" x="0" y="0" onmousedown="handlePan(1,0)"/>
  <use id="arrowdown" xlink:href="#arrowDown" x="0" y="0" onmousedown="handlePan(0,1)"/>
  <use id="arrowleft" xlink:href="#arrowLeft" x="0" y="0" onmousedown="handlePan(-1,0)"/>
</g>
<svg viewBox="0 0 15 15" width="100%" height="30px" preserveAspectRatio="xMaxYMin meet">
 <g id="arrow_out" transform="scale(0.3 0.3)">
  <a xlink:href="classIntersectCirclesVisual__coll__graph_org.svg" target="_base">
   <rect id="button" ry="5" rx="5" y="6" x="6" height="38" width="38"
        fill="#f2f5e9" fill-opacity="0.5" stroke="#606060" stroke-width="1.0"/>
   <path id="arrow"
     d="M 11.500037,31.436501 C 11.940474,20.09759 22.043105,11.32322 32.158766,21.979434 L 37.068811,17.246167 C 37.068811,17.246167 37.088388,32 37.088388,32 L 22.160133,31.978069 C 22.160133,31.978069 26.997745,27.140456 26.997745,27.140456 C 18.528582,18.264221 13.291696,25.230495 11.500037,31.436501 z"
     style="fill:#404040;"/>
  </a>
 </g>
</svg>

<style type='text/css'>
<![CDATA[
[data-mouse-over-selected='false'] { opacity: 0.7; }
[data-mouse-over-selected='true']  { opacity: 1.0; }
]]>
</style>
<script type="application/ecmascript"><![CDATA[
document.addEventListener('DOMContentLoaded', (event) => {
  highlightEdges();
  highlightAdjacentNodes();
});
]]></script>
</svg>
