<?xml version="1.0" encoding="UTF-8" standalone="no"?>
<!DOCTYPE svg PUBLIC "-//W3C//DTD SVG 1.1//EN"
 "http://www.w3.org/Graphics/SVG/1.1/DTD/svg11.dtd">
<!-- Generated by graphviz version 2.43.0 (0)
 -->
<!-- Title: src/libs/vtools/tools/pattern_piece_tool.h Pages: 1 -->
<svg width="1991pt" height="181pt"
 viewBox="0.00 0.00 1990.50 181.00" xmlns="http://www.w3.org/2000/svg" xmlns:xlink="http://www.w3.org/1999/xlink">
<g id="graph0" class="graph" transform="scale(1 1) rotate(0) translate(4 177)">
<title>src/libs/vtools/tools/pattern_piece_tool.h</title>
<!-- Node1 -->
<g id="Node000001" class="node">
<title>Node1</title>
<g id="a_Node000001"><a xlink:title=" ">
<polygon fill="#999999" stroke="#666666" points="1137.5,-173 1018.5,-173 1018.5,-143 1137.5,-143 1137.5,-173"/>
<text text-anchor="start" x="1026.5" y="-161" font-family="Helvetica,sans-Serif" font-size="10.00">src/libs/vtools/tools</text>
<text text-anchor="middle" x="1078" y="-150" font-family="Helvetica,sans-Serif" font-size="10.00">/pattern_piece_tool.h</text>
</a>
</g>
</g>
<!-- Node2 -->
<g id="Node000002" class="node">
<title>Node2</title>
<g id="a_Node000002"><a xlink:href="../../d8/dd9/mainwindow_8cpp.html" target="_top" xlink:title=" ">
<polygon fill="white" stroke="#666666" points="188,-96 0,-96 0,-77 188,-77 188,-96"/>
<text text-anchor="middle" x="94" y="-84" font-family="Helvetica,sans-Serif" font-size="10.00">src/app/seamly2d/mainwindow.cpp</text>
</a>
</g>
</g>
<!-- Node1&#45;&gt;Node2 -->
<g id="edge1_Node000001_Node000002" class="edge">
<title>Node1&#45;&gt;Node2</title>
<g id="a_edge1_Node000001_Node000002"><a xlink:title=" ">
<path fill="none" stroke="#63b8ff" d="M1008.08,-156.12C858.65,-153.58 497.33,-143.79 197,-107 175.5,-104.37 151.74,-99.97 132.45,-96.01"/>
<polygon fill="#63b8ff" stroke="#63b8ff" points="1008.41,-159.63 1018.47,-156.3 1008.53,-152.63 1008.41,-159.63"/>
</a>
</g>
</g>
<!-- Node3 -->
<g id="Node000003" class="node">
<title>Node3</title>
<g id="a_Node000003"><a xlink:href="../../d6/d80/anchorpoint__dialog_8cpp.html" target="_top" xlink:title=" ">
<polygon fill="white" stroke="#666666" points="366,-101.5 206,-101.5 206,-71.5 366,-71.5 366,-101.5"/>
<text text-anchor="start" x="214" y="-89.5" font-family="Helvetica,sans-Serif" font-size="10.00">src/libs/vtools/dialogs</text>
<text text-anchor="middle" x="286" y="-78.5" font-family="Helvetica,sans-Serif" font-size="10.00">/tools/anchorpoint_dialog.cpp</text>
</a>
</g>
</g>
<!-- Node1&#45;&gt;Node3 -->
<g id="edge2_Node000001_Node000003" class="edge">
<title>Node1&#45;&gt;Node3</title>
<g id="a_edge2_Node000001_Node000003"><a xlink:title=" ">
<path fill="none" stroke="#63b8ff" d="M1008.1,-155.37C881.33,-151.69 605.28,-140.24 375,-107 364.98,-105.55 354.41,-103.61 344.19,-101.51"/>
<polygon fill="#63b8ff" stroke="#63b8ff" points="1008.34,-158.88 1018.44,-155.67 1008.54,-151.89 1008.34,-158.88"/>
</a>
</g>
</g>
<!-- Node4 -->
<g id="Node000004" class="node">
<title>Node4</title>
<g id="a_Node000004"><a xlink:href="../../dc/d82/dialoginternalpath_8cpp.html" target="_top" xlink:title=" ">
<polygon fill="white" stroke="#666666" points="569.5,-101.5 384.5,-101.5 384.5,-71.5 569.5,-71.5 569.5,-101.5"/>
<text text-anchor="start" x="392.5" y="-89.5" font-family="Helvetica,sans-Serif" font-size="10.00">src/libs/vtools/dialogs</text>
<text text-anchor="middle" x="477" y="-78.5" font-family="Helvetica,sans-Serif" font-size="10.00">/tools/piece/dialoginternalpath.cpp</text>
</a>
</g>
</g>
<!-- Node1&#45;&gt;Node4 -->
<g id="edge3_Node000001_Node000004" class="edge">
<title>Node1&#45;&gt;Node4</title>
<g id="a_edge3_Node000001_Node000004"><a xlink:title=" ">
<path fill="none" stroke="#63b8ff" d="M1007.88,-152.01C910.93,-144.66 730.62,-129.32 578,-107 567.31,-105.44 556.03,-103.52 545.04,-101.51"/>
<polygon fill="#63b8ff" stroke="#63b8ff" points="1007.9,-155.52 1018.14,-152.79 1008.43,-148.54 1007.9,-155.52"/>
</a>
</g>
</g>
<!-- Node5 -->
<g id="Node000005" class="node">
<title>Node5</title>
<g id="a_Node000005"><a xlink:href="../../de/d46/pattern__piece__dialog_8cpp.html" target="_top" xlink:title=" ">
<polygon fill="white" stroke="#666666" points="730.5,-107 587.5,-107 587.5,-66 730.5,-66 730.5,-107"/>
<text text-anchor="start" x="595.5" y="-95" font-family="Helvetica,sans-Serif" font-size="10.00">src/libs/vtools/dialogs</text>
<text text-anchor="start" x="595.5" y="-84" font-family="Helvetica,sans-Serif" font-size="10.00">/tools/piece/pattern_piece</text>
<text text-anchor="middle" x="659" y="-73" font-family="Helvetica,sans-Serif" font-size="10.00">_dialog.cpp</text>
</a>
</g>
</g>
<!-- Node1&#45;&gt;Node5 -->
<g id="edge4_Node000001_Node000005" class="edge">
<title>Node1&#45;&gt;Node5</title>
<g id="a_edge4_Node000001_Node000005"><a xlink:title=" ">
<path fill="none" stroke="#63b8ff" d="M1008.04,-148.61C939.27,-139.9 831.47,-125.05 739,-107 736.33,-106.48 733.62,-105.93 730.89,-105.36"/>
<polygon fill="#63b8ff" stroke="#63b8ff" points="1007.96,-152.12 1018.32,-149.9 1008.83,-145.18 1007.96,-152.12"/>
</a>
</g>
</g>
<!-- Node6 -->
<g id="Node000006" class="node">
<title>Node6</title>
<g id="a_Node000006"><a xlink:href="../../d9/d3a/anchorpoint__tool_8cpp.html" target="_top" xlink:title=" ">
<polygon fill="white" stroke="#666666" points="887.5,-107 748.5,-107 748.5,-66 887.5,-66 887.5,-107"/>
<text text-anchor="start" x="756.5" y="-95" font-family="Helvetica,sans-Serif" font-size="10.00">src/libs/vtools/tools</text>
<text text-anchor="start" x="756.5" y="-84" font-family="Helvetica,sans-Serif" font-size="10.00">/nodeDetails/anchorpoint</text>
<text text-anchor="middle" x="818" y="-73" font-family="Helvetica,sans-Serif" font-size="10.00">_tool.cpp</text>
</a>
</g>
</g>
<!-- Node1&#45;&gt;Node6 -->
<g id="edge5_Node000001_Node000006" class="edge">
<title>Node1&#45;&gt;Node6</title>
<g id="a_edge5_Node000001_Node000006"><a xlink:title=" ">
<path fill="none" stroke="#63b8ff" d="M1015.35,-140.25C976.87,-129.97 927.52,-116.78 887.8,-106.16"/>
<polygon fill="#63b8ff" stroke="#63b8ff" points="1014.82,-143.73 1025.39,-142.94 1016.63,-136.97 1014.82,-143.73"/>
</a>
</g>
</g>
<!-- Node7 -->
<g id="Node000007" class="node">
<title>Node7</title>
<g id="a_Node000007"><a xlink:href="../../d4/d7b/vnodepoint_8cpp.html" target="_top" xlink:title=" ">
<polygon fill="white" stroke="#666666" points="1062,-101.5 906,-101.5 906,-71.5 1062,-71.5 1062,-101.5"/>
<text text-anchor="start" x="914" y="-89.5" font-family="Helvetica,sans-Serif" font-size="10.00">src/libs/vtools/tools</text>
<text text-anchor="middle" x="984" y="-78.5" font-family="Helvetica,sans-Serif" font-size="10.00">/nodeDetails/vnodepoint.cpp</text>
</a>
</g>
</g>
<!-- Node1&#45;&gt;Node7 -->
<g id="edge6_Node000001_Node000007" class="edge">
<title>Node1&#45;&gt;Node7</title>
<g id="a_edge6_Node000001_Node000007"><a xlink:title=" ">
<path fill="none" stroke="#63b8ff" d="M1050.87,-136.94C1035.54,-125.6 1016.75,-111.71 1002.99,-101.54"/>
<polygon fill="#63b8ff" stroke="#63b8ff" points="1048.86,-139.8 1058.98,-142.94 1053.02,-134.18 1048.86,-139.8"/>
</a>
</g>
</g>
<!-- Node8 -->
<g id="Node000008" class="node">
<title>Node8</title>
<g id="a_Node000008"><a xlink:href="../../d3/dd9/vtoolinternalpath_8cpp.html" target="_top" xlink:title=" ">
<polygon fill="white" stroke="#666666" points="1265.5,-101.5 1080.5,-101.5 1080.5,-71.5 1265.5,-71.5 1265.5,-101.5"/>
<text text-anchor="start" x="1088.5" y="-89.5" font-family="Helvetica,sans-Serif" font-size="10.00">src/libs/vtools/tools</text>
<text text-anchor="middle" x="1173" y="-78.5" font-family="Helvetica,sans-Serif" font-size="10.00">/nodeDetails/vtoolinternalpath.cpp</text>
</a>
</g>
</g>
<!-- Node1&#45;&gt;Node8 -->
<g id="edge7_Node000001_Node000008" class="edge">
<title>Node1&#45;&gt;Node8</title>
<g id="a_edge7_Node000001_Node000008"><a xlink:title=" ">
<path fill="none" stroke="#63b8ff" d="M1105.42,-136.94C1120.91,-125.6 1139.9,-111.71 1153.8,-101.54"/>
<polygon fill="#63b8ff" stroke="#63b8ff" points="1103.23,-134.21 1097.22,-142.94 1107.36,-139.86 1103.23,-134.21"/>
</a>
</g>
</g>
<!-- Node9 -->
<g id="Node000009" class="node">
<title>Node9</title>
<g id="a_Node000009"><a xlink:href="../../d8/dea/pattern__piece__tool_8cpp.html" target="_top" xlink:title=" ">
<polygon fill="white" stroke="#666666" points="1643.5,-30 1512.5,-30 1512.5,0 1643.5,0 1643.5,-30"/>
<text text-anchor="start" x="1520.5" y="-18" font-family="Helvetica,sans-Serif" font-size="10.00">src/libs/vtools/tools</text>
<text text-anchor="middle" x="1578" y="-7" font-family="Helvetica,sans-Serif" font-size="10.00">/pattern_piece_tool.cpp</text>
</a>
</g>
</g>
<!-- Node1&#45;&gt;Node9 -->
<g id="edge8_Node000001_Node000009" class="edge">
<title>Node1&#45;&gt;Node9</title>
<g id="a_edge8_Node000001_Node000009"><a xlink:title=" ">
<path fill="none" stroke="#63b8ff" d="M1147.99,-155.22C1280.43,-151.13 1557.14,-138.84 1586,-107 1605.07,-85.97 1593.56,-49.86 1584.91,-30.04"/>
<polygon fill="#63b8ff" stroke="#63b8ff" points="1147.82,-151.73 1137.93,-155.53 1148.04,-158.72 1147.82,-151.73"/>
</a>
</g>
</g>
<!-- Node10 -->
<g id="Node000010" class="node">
<title>Node10</title>
<g id="a_Node000010"><a xlink:href="../../d4/d9f/union__tool_8cpp.html" target="_top" xlink:title=" ">
<polygon fill="white" stroke="#666666" points="1577.5,-101.5 1466.5,-101.5 1466.5,-71.5 1577.5,-71.5 1577.5,-101.5"/>
<text text-anchor="start" x="1474.5" y="-89.5" font-family="Helvetica,sans-Serif" font-size="10.00">src/libs/vtools/tools</text>
<text text-anchor="middle" x="1522" y="-78.5" font-family="Helvetica,sans-Serif" font-size="10.00">/union_tool.cpp</text>
</a>
</g>
</g>
<!-- Node1&#45;&gt;Node10 -->
<g id="edge9_Node000001_Node000010" class="edge">
<title>Node1&#45;&gt;Node10</title>
<g id="a_edge9_Node000001_Node000010"><a xlink:title=" ">
<path fill="none" stroke="#63b8ff" d="M1147.58,-151.19C1224.03,-144.03 1350.18,-129.91 1457,-107 1464.03,-105.49 1471.4,-103.6 1478.54,-101.58"/>
<polygon fill="#63b8ff" stroke="#63b8ff" points="1147.22,-147.71 1137.59,-152.12 1147.87,-154.68 1147.22,-147.71"/>
</a>
</g>
</g>
<!-- Node11 -->
<g id="Node000011" class="node">
<title>Node11</title>
<g id="a_Node000011"><a xlink:href="../../d2/de0/addpiece_8h.html" target="_top" xlink:title=" ">
<polygon fill="white" stroke="#666666" points="1448.5,-101.5 1283.5,-101.5 1283.5,-71.5 1448.5,-71.5 1448.5,-101.5"/>
<text text-anchor="start" x="1291.5" y="-89.5" font-family="Helvetica,sans-Serif" font-size="10.00">src/libs/vtools/undocommands</text>
<text text-anchor="middle" x="1366" y="-78.5" font-family="Helvetica,sans-Serif" font-size="10.00">/addpiece.h</text>
</a>
</g>
</g>
<!-- Node1&#45;&gt;Node11 -->
<g id="edge10_Node000001_Node000011" class="edge">
<title>Node1&#45;&gt;Node11</title>
<g id="a_edge10_Node000001_Node000011"><a xlink:title=" ">
<path fill="none" stroke="#63b8ff" d="M1146.2,-140.54C1195.39,-128.67 1261.08,-112.82 1307.81,-101.54"/>
<polygon fill="#63b8ff" stroke="#63b8ff" points="1145.18,-137.19 1136.28,-142.94 1146.82,-143.99 1145.18,-137.19"/>
</a>
</g>
</g>
<!-- Node13 -->
<g id="Node000013" class="node">
<title>Node13</title>
<g id="a_Node000013"><a xlink:href="../../da/d10/deletepiece_8h.html" target="_top" xlink:title=" ">
<polygon fill="white" stroke="#666666" points="1799.5,-101.5 1634.5,-101.5 1634.5,-71.5 1799.5,-71.5 1799.5,-101.5"/>
<text text-anchor="start" x="1642.5" y="-89.5" font-family="Helvetica,sans-Serif" font-size="10.00">src/libs/vtools/undocommands</text>
<text text-anchor="middle" x="1717" y="-78.5" font-family="Helvetica,sans-Serif" font-size="10.00">/deletepiece.h</text>
</a>
</g>
</g>
<!-- Node1&#45;&gt;Node13 -->
<g id="edge13_Node000001_Node000013" class="edge">
<title>Node1&#45;&gt;Node13</title>
<g id="a_edge13_Node000001_Node000013"><a xlink:title=" ">
<path fill="none" stroke="#63b8ff" d="M1147.6,-152.96C1251.03,-146.41 1451.24,-131.68 1620,-107 1630.45,-105.47 1641.48,-103.55 1652.21,-101.52"/>
<polygon fill="#63b8ff" stroke="#63b8ff" points="1147.36,-149.46 1137.59,-153.58 1147.79,-156.45 1147.36,-149.46"/>
</a>
</g>
</g>
<!-- Node15 -->
<g id="Node000015" class="node">
<title>Node15</title>
<g id="a_Node000015"><a xlink:href="../../d1/d05/savepieceoptions_8cpp.html" target="_top" xlink:title=" ">
<polygon fill="white" stroke="#666666" points="1982.5,-101.5 1817.5,-101.5 1817.5,-71.5 1982.5,-71.5 1982.5,-101.5"/>
<text text-anchor="start" x="1825.5" y="-89.5" font-family="Helvetica,sans-Serif" font-size="10.00">src/libs/vtools/undocommands</text>
<text text-anchor="middle" x="1900" y="-78.5" font-family="Helvetica,sans-Serif" font-size="10.00">/savepieceoptions.cpp</text>
</a>
</g>
</g>
<!-- Node1&#45;&gt;Node15 -->
<g id="edge16_Node000001_Node000015" class="edge">
<title>Node1&#45;&gt;Node15</title>
<g id="a_edge16_Node000001_Node000015"><a xlink:title=" ">
<path fill="none" stroke="#63b8ff" d="M1147.76,-155.54C1278.21,-152.08 1567.69,-140.93 1809,-107 1819.24,-105.56 1830.05,-103.62 1840.5,-101.52"/>
<polygon fill="#63b8ff" stroke="#63b8ff" points="1147.42,-152.05 1137.52,-155.8 1147.61,-159.05 1147.42,-152.05"/>
</a>
</g>
</g>
<!-- Node11&#45;&gt;Node9 -->
<g id="edge11_Node000011_Node000009" class="edge">
<title>Node11&#45;&gt;Node9</title>
<g id="a_edge11_Node000011_Node000009"><a xlink:title=" ">
<path fill="none" stroke="#63b8ff" d="M1418.72,-68.22C1454.63,-56.45 1501.56,-41.06 1535.16,-30.04"/>
<polygon fill="#63b8ff" stroke="#63b8ff" points="1417.31,-64.99 1408.9,-71.44 1419.49,-71.65 1417.31,-64.99"/>
</a>
</g>
</g>
<!-- Node12 -->
<g id="Node000012" class="node">
<title>Node12</title>
<g id="a_Node000012"><a xlink:href="../../dd/d33/addpiece_8cpp.html" target="_top" xlink:title=" ">
<polygon fill="white" stroke="#666666" points="1448.5,-30 1283.5,-30 1283.5,0 1448.5,0 1448.5,-30"/>
<text text-anchor="start" x="1291.5" y="-18" font-family="Helvetica,sans-Serif" font-size="10.00">src/libs/vtools/undocommands</text>
<text text-anchor="middle" x="1366" y="-7" font-family="Helvetica,sans-Serif" font-size="10.00">/addpiece.cpp</text>
</a>
</g>
</g>
<!-- Node11&#45;&gt;Node12 -->
<g id="edge12_Node000011_Node000012" class="edge">
<title>Node11&#45;&gt;Node12</title>
<g id="a_edge12_Node000011_Node000012"><a xlink:title=" ">
<path fill="none" stroke="#63b8ff" d="M1366,-61.25C1366,-50.81 1366,-38.99 1366,-30.04"/>
<polygon fill="#63b8ff" stroke="#63b8ff" points="1362.5,-61.44 1366,-71.44 1369.5,-61.44 1362.5,-61.44"/>
</a>
</g>
</g>
<!-- Node13&#45;&gt;Node9 -->
<g id="edge14_Node000013_Node000009" class="edge">
<title>Node13&#45;&gt;Node9</title>
<g id="a_edge14_Node000013_Node000009"><a xlink:title=" ">
<path fill="none" stroke="#63b8ff" d="M1679.69,-66.84C1656.54,-55.27 1627.27,-40.64 1606.09,-30.04"/>
<polygon fill="#63b8ff" stroke="#63b8ff" points="1678.36,-70.09 1688.87,-71.44 1681.49,-63.83 1678.36,-70.09"/>
</a>
</g>
</g>
<!-- Node14 -->
<g id="Node000014" class="node">
<title>Node14</title>
<g id="a_Node000014"><a xlink:href="../../da/d5c/deletepiece_8cpp.html" target="_top" xlink:title=" ">
<polygon fill="white" stroke="#666666" points="1826.5,-30 1661.5,-30 1661.5,0 1826.5,0 1826.5,-30"/>
<text text-anchor="start" x="1669.5" y="-18" font-family="Helvetica,sans-Serif" font-size="10.00">src/libs/vtools/undocommands</text>
<text text-anchor="middle" x="1744" y="-7" font-family="Helvetica,sans-Serif" font-size="10.00">/deletepiece.cpp</text>
</a>
</g>
</g>
<!-- Node13&#45;&gt;Node14 -->
<g id="edge15_Node000013_Node000014" class="edge">
<title>Node13&#45;&gt;Node14</title>
<g id="a_edge15_Node000013_Node000014"><a xlink:title=" ">
<path fill="none" stroke="#63b8ff" d="M1726.17,-61.9C1730.28,-51.31 1735,-39.18 1738.54,-30.04"/>
<polygon fill="#63b8ff" stroke="#63b8ff" points="1722.82,-60.85 1722.46,-71.44 1729.35,-63.38 1722.82,-60.85"/>
</a>
</g>
</g>
</g>
</svg>
