<?xml version="1.0" encoding="UTF-8" standalone="no"?>
<!DOCTYPE svg PUBLIC "-//W3C//DTD SVG 1.1//EN"
 "http://www.w3.org/Graphics/SVG/1.1/DTD/svg11.dtd">
<!-- Generated by graphviz version 2.43.0 (0)
 -->
<!-- Title: src/libs/ifc/exception/vexceptionwrongid.h Pages: 1 -->
<svg width="856pt" height="313pt"
 viewBox="0.00 0.00 856.16 313.00" xmlns="http://www.w3.org/2000/svg" xmlns:xlink="http://www.w3.org/1999/xlink">
<g id="graph0" class="graph" transform="scale(1 1) rotate(0) translate(4 309)">
<title>src/libs/ifc/exception/vexceptionwrongid.h</title>
<!-- Node1 -->
<g id="Node000001" class="node">
<title>Node1</title>
<g id="a_Node000001"><a xlink:title=" ">
<polygon fill="#999999" stroke="#666666" points="557.5,-305 435.5,-305 435.5,-275 557.5,-275 557.5,-305"/>
<text text-anchor="start" x="443.5" y="-293" font-family="Helvetica,sans-Serif" font-size="10.00">src/libs/ifc/exception</text>
<text text-anchor="middle" x="496.5" y="-282" font-family="Helvetica,sans-Serif" font-size="10.00">/vexceptionwrongid.h</text>
</a>
</g>
</g>
<!-- Node2 -->
<g id="Node000002" class="node">
<title>Node2</title>
<g id="a_Node000002"><a xlink:title=" ">
<polygon fill="#e0e0e0" stroke="#999999" points="645.5,-74 525.5,-74 525.5,-55 645.5,-55 645.5,-74"/>
<text text-anchor="middle" x="585.5" y="-62" font-family="Helvetica,sans-Serif" font-size="10.00">qcompilerdetection.h</text>
</a>
</g>
</g>
<!-- Node1&#45;&gt;Node2 -->
<g id="edge1_Node000001_Node000002" class="edge">
<title>Node1&#45;&gt;Node2</title>
<g id="a_edge1_Node000001_Node000002"><a xlink:title=" ">
<path fill="none" stroke="#63b8ff" d="M502.2,-274.68C517.76,-235.6 560.95,-127.15 578.22,-83.78"/>
<polygon fill="#63b8ff" stroke="#63b8ff" points="581.58,-84.82 582.02,-74.23 575.07,-82.23 581.58,-84.82"/>
</a>
</g>
</g>
<!-- Node3 -->
<g id="Node000003" class="node">
<title>Node3</title>
<g id="a_Node000003"><a xlink:title=" ">
<polygon fill="#e0e0e0" stroke="#999999" points="717,-74 664,-74 664,-55 717,-55 717,-74"/>
<text text-anchor="middle" x="690.5" y="-62" font-family="Helvetica,sans-Serif" font-size="10.00">QString</text>
</a>
</g>
</g>
<!-- Node1&#45;&gt;Node3 -->
<g id="edge2_Node000001_Node000003" class="edge">
<title>Node1&#45;&gt;Node3</title>
<g id="a_edge2_Node000001_Node000003"><a xlink:title=" ">
<path fill="none" stroke="#63b8ff" d="M557.83,-279.11C647.09,-263.32 805.84,-229.5 839.5,-184 875.86,-134.85 781.87,-94.85 726.93,-76.45"/>
<polygon fill="#63b8ff" stroke="#63b8ff" points="727.76,-73.04 717.16,-73.27 725.59,-79.69 727.76,-73.04"/>
</a>
</g>
</g>
<!-- Node4 -->
<g id="Node000004" class="node">
<title>Node4</title>
<g id="a_Node000004"><a xlink:title=" ">
<polygon fill="#e0e0e0" stroke="#999999" points="59,-74 0,-74 0,-55 59,-55 59,-74"/>
<text text-anchor="middle" x="29.5" y="-62" font-family="Helvetica,sans-Serif" font-size="10.00">QtGlobal</text>
</a>
</g>
</g>
<!-- Node1&#45;&gt;Node4 -->
<g id="edge3_Node000001_Node000004" class="edge">
<title>Node1&#45;&gt;Node4</title>
<g id="a_edge3_Node000001_Node000004"><a xlink:title=" ">
<path fill="none" stroke="#63b8ff" d="M445.34,-274.95C366.76,-251.97 213.43,-201.55 98.5,-129 77.56,-115.78 57.14,-95.84 44.01,-81.85"/>
<polygon fill="#63b8ff" stroke="#63b8ff" points="46.52,-79.4 37.18,-74.39 41.35,-84.12 46.52,-79.4"/>
</a>
</g>
</g>
<!-- Node5 -->
<g id="Node000005" class="node">
<title>Node5</title>
<g id="a_Node000005"><a xlink:href="../../d3/da5/ifcdef_8h.html" target="_top" xlink:title=" ">
<polygon fill="white" stroke="#666666" points="468.5,-184 406.5,-184 406.5,-165 468.5,-165 468.5,-184"/>
<text text-anchor="middle" x="437.5" y="-172" font-family="Helvetica,sans-Serif" font-size="10.00">../ifcdef.h</text>
</a>
</g>
</g>
<!-- Node1&#45;&gt;Node5 -->
<g id="edge4_Node000001_Node000005" class="edge">
<title>Node1&#45;&gt;Node5</title>
<g id="a_edge4_Node000001_Node000005"><a xlink:title=" ">
<path fill="none" stroke="#63b8ff" d="M489.03,-274.63C478.27,-253.93 458.44,-215.78 446.77,-193.32"/>
<polygon fill="#63b8ff" stroke="#63b8ff" points="449.76,-191.49 442.04,-184.23 443.54,-194.72 449.76,-191.49"/>
</a>
</g>
</g>
<!-- Node15 -->
<g id="Node000015" class="node">
<title>Node15</title>
<g id="a_Node000015"><a xlink:href="../../d1/d44/vexception_8h.html" target="_top" xlink:title=" ">
<polygon fill="white" stroke="#666666" points="631.5,-239 551.5,-239 551.5,-220 631.5,-220 631.5,-239"/>
<text text-anchor="middle" x="591.5" y="-227" font-family="Helvetica,sans-Serif" font-size="10.00">vexception.h</text>
</a>
</g>
</g>
<!-- Node1&#45;&gt;Node15 -->
<g id="edge21_Node000001_Node000015" class="edge">
<title>Node1&#45;&gt;Node15</title>
<g id="a_edge21_Node000001_Node000015"><a xlink:title=" ">
<path fill="none" stroke="#63b8ff" d="M519.5,-274.84C534.5,-265.6 554,-253.59 568.93,-244.4"/>
<polygon fill="#63b8ff" stroke="#63b8ff" points="570.86,-247.32 577.54,-239.09 567.19,-241.36 570.86,-247.32"/>
</a>
</g>
</g>
<!-- Node5&#45;&gt;Node3 -->
<g id="edge5_Node000005_Node000003" class="edge">
<title>Node5&#45;&gt;Node3</title>
<g id="a_edge5_Node000005_Node000003"><a xlink:title=" ">
<path fill="none" stroke="#63b8ff" d="M457.78,-164.84C502.39,-145.8 609.21,-100.2 661.15,-78.03"/>
<polygon fill="#63b8ff" stroke="#63b8ff" points="662.66,-81.19 670.48,-74.05 659.91,-74.75 662.66,-81.19"/>
</a>
</g>
</g>
<!-- Node5&#45;&gt;Node4 -->
<g id="edge7_Node000005_Node000004" class="edge">
<title>Node5&#45;&gt;Node4</title>
<g id="a_edge7_Node000005_Node000004"><a xlink:title=" ">
<path fill="none" stroke="#63b8ff" d="M409.61,-164.94C380.59,-156.03 333.83,-141.62 293.5,-129 266.8,-120.65 260.53,-117.19 233.5,-110 163.68,-91.42 142.98,-90.3 69.58,-74.43"/>
<polygon fill="#63b8ff" stroke="#63b8ff" points="69.88,-70.91 59.37,-72.2 68.39,-77.75 69.88,-70.91"/>
</a>
</g>
</g>
<!-- Node6 -->
<g id="Node000006" class="node">
<title>Node6</title>
<g id="a_Node000006"><a xlink:title=" ">
<polygon fill="#e0e0e0" stroke="#999999" points="507.5,-74 437.5,-74 437.5,-55 507.5,-55 507.5,-74"/>
<text text-anchor="middle" x="472.5" y="-62" font-family="Helvetica,sans-Serif" font-size="10.00">QStringList</text>
</a>
</g>
</g>
<!-- Node5&#45;&gt;Node6 -->
<g id="edge6_Node000005_Node000006" class="edge">
<title>Node5&#45;&gt;Node6</title>
<g id="a_edge6_Node000005_Node000006"><a xlink:title=" ">
<path fill="none" stroke="#63b8ff" d="M440.36,-164.66C446.06,-147.09 458.91,-107.45 466.52,-83.95"/>
<polygon fill="#63b8ff" stroke="#63b8ff" points="469.94,-84.75 469.69,-74.16 463.28,-82.59 469.94,-84.75"/>
</a>
</g>
</g>
<!-- Node7 -->
<g id="Node000007" class="node">
<title>Node7</title>
<g id="a_Node000007"><a xlink:href="../../d4/da4/def_8h.html" target="_top" xlink:title=" ">
<polygon fill="white" stroke="#666666" points="384.5,-129 302.5,-129 302.5,-110 384.5,-110 384.5,-129"/>
<text text-anchor="middle" x="343.5" y="-117" font-family="Helvetica,sans-Serif" font-size="10.00">../vmisc/def.h</text>
</a>
</g>
</g>
<!-- Node5&#45;&gt;Node7 -->
<g id="edge8_Node000005_Node000007" class="edge">
<title>Node5&#45;&gt;Node7</title>
<g id="a_edge8_Node000005_Node000007"><a xlink:title=" ">
<path fill="none" stroke="#63b8ff" d="M422.4,-164.98C407.68,-156.69 385.08,-143.94 367.83,-134.22"/>
<polygon fill="#63b8ff" stroke="#63b8ff" points="369.31,-131.03 358.88,-129.17 365.87,-137.13 369.31,-131.03"/>
</a>
</g>
</g>
<!-- Node14 -->
<g id="Node000014" class="node">
<title>Node14</title>
<g id="a_Node000014"><a xlink:href="../../d6/dcd/diagnostic_8h.html" target="_top" xlink:title=" ">
<polygon fill="white" stroke="#666666" points="225,-129 108,-129 108,-110 225,-110 225,-129"/>
<text text-anchor="middle" x="166.5" y="-117" font-family="Helvetica,sans-Serif" font-size="10.00">../vmisc/diagnostic.h</text>
</a>
</g>
</g>
<!-- Node5&#45;&gt;Node14 -->
<g id="edge19_Node000005_Node000014" class="edge">
<title>Node5&#45;&gt;Node14</title>
<g id="a_edge19_Node000005_Node000014"><a xlink:title=" ">
<path fill="none" stroke="#63b8ff" d="M406.41,-167.42C361,-158.54 275.87,-141.89 220.2,-131"/>
<polygon fill="#63b8ff" stroke="#63b8ff" points="220.64,-127.52 210.16,-129.04 219.3,-134.39 220.64,-127.52"/>
</a>
</g>
</g>
<!-- Node7&#45;&gt;Node2 -->
<g id="edge9_Node000007_Node000002" class="edge">
<title>Node7&#45;&gt;Node2</title>
<g id="a_edge9_Node000007_Node000002"><a xlink:title=" ">
<path fill="none" stroke="#63b8ff" d="M382.38,-109.98C424.24,-100.82 490.93,-86.21 536.38,-76.26"/>
<polygon fill="#63b8ff" stroke="#63b8ff" points="537.29,-79.64 546.31,-74.08 535.8,-72.8 537.29,-79.64"/>
</a>
</g>
</g>
<!-- Node7&#45;&gt;Node3 -->
<g id="edge11_Node000007_Node000003" class="edge">
<title>Node7&#45;&gt;Node3</title>
<g id="a_edge11_Node000007_Node000003"><a xlink:title=" ">
<path fill="none" stroke="#63b8ff" d="M384.95,-113.77C442.87,-106.9 551.51,-93.05 653.93,-73.95"/>
<polygon fill="#63b8ff" stroke="#63b8ff" points="654.64,-77.37 663.82,-72.08 653.35,-70.49 654.64,-77.37"/>
</a>
</g>
</g>
<!-- Node7&#45;&gt;Node4 -->
<g id="edge14_Node000007_Node000004" class="edge">
<title>Node7&#45;&gt;Node4</title>
<g id="a_edge14_Node000007_Node000004"><a xlink:title=" ">
<path fill="none" stroke="#63b8ff" d="M302.21,-112.64C250.09,-105.06 157.44,-91.01 69.23,-74.25"/>
<polygon fill="#63b8ff" stroke="#63b8ff" points="69.82,-70.8 59.34,-72.35 68.5,-77.67 69.82,-70.8"/>
</a>
</g>
</g>
<!-- Node7&#45;&gt;Node6 -->
<g id="edge12_Node000007_Node000006" class="edge">
<title>Node7&#45;&gt;Node6</title>
<g id="a_edge12_Node000007_Node000006"><a xlink:title=" ">
<path fill="none" stroke="#63b8ff" d="M364.23,-109.98C385.26,-101.34 418.05,-87.87 442.04,-78.02"/>
<polygon fill="#63b8ff" stroke="#63b8ff" points="443.48,-81.21 451.4,-74.17 440.82,-74.73 443.48,-81.21"/>
</a>
</g>
</g>
<!-- Node8 -->
<g id="Node000008" class="node">
<title>Node8</title>
<g id="a_Node000008"><a xlink:title=" ">
<polygon fill="#e0e0e0" stroke="#999999" points="297.5,-74 247.5,-74 247.5,-55 297.5,-55 297.5,-74"/>
<text text-anchor="middle" x="272.5" y="-62" font-family="Helvetica,sans-Serif" font-size="10.00">QLineF</text>
</a>
</g>
</g>
<!-- Node7&#45;&gt;Node8 -->
<g id="edge10_Node000007_Node000008" class="edge">
<title>Node7&#45;&gt;Node8</title>
<g id="a_edge10_Node000007_Node000008"><a xlink:title=" ">
<path fill="none" stroke="#63b8ff" d="M332.09,-109.98C321.39,-102 305.16,-89.88 292.34,-80.31"/>
<polygon fill="#63b8ff" stroke="#63b8ff" points="294.22,-77.35 284.11,-74.17 290.03,-82.96 294.22,-77.35"/>
</a>
</g>
</g>
<!-- Node9 -->
<g id="Node000009" class="node">
<title>Node9</title>
<g id="a_Node000009"><a xlink:title=" ">
<polygon fill="#e0e0e0" stroke="#999999" points="345,-74 316,-74 316,-55 345,-55 345,-74"/>
<text text-anchor="middle" x="330.5" y="-62" font-family="Helvetica,sans-Serif" font-size="10.00">Qt</text>
</a>
</g>
</g>
<!-- Node7&#45;&gt;Node9 -->
<g id="edge13_Node000007_Node000009" class="edge">
<title>Node7&#45;&gt;Node9</title>
<g id="a_edge13_Node000007_Node000009"><a xlink:title=" ">
<path fill="none" stroke="#63b8ff" d="M341.35,-109.75C339.63,-102.72 337.15,-92.62 335,-83.84"/>
<polygon fill="#63b8ff" stroke="#63b8ff" points="338.39,-82.97 332.61,-74.09 331.59,-84.63 338.39,-82.97"/>
</a>
</g>
</g>
<!-- Node10 -->
<g id="Node000010" class="node">
<title>Node10</title>
<g id="a_Node000010"><a xlink:title=" ">
<polygon fill="#e0e0e0" stroke="#999999" points="419.5,-74 363.5,-74 363.5,-55 419.5,-55 419.5,-74"/>
<text text-anchor="middle" x="391.5" y="-62" font-family="Helvetica,sans-Serif" font-size="10.00">QPrinter</text>
</a>
</g>
</g>
<!-- Node7&#45;&gt;Node10 -->
<g id="edge15_Node000007_Node000010" class="edge">
<title>Node7&#45;&gt;Node10</title>
<g id="a_edge15_Node000007_Node000010"><a xlink:title=" ">
<path fill="none" stroke="#63b8ff" d="M351.43,-109.75C358.35,-102.11 368.57,-90.82 376.95,-81.56"/>
<polygon fill="#63b8ff" stroke="#63b8ff" points="379.6,-83.85 383.72,-74.09 374.41,-79.15 379.6,-83.85"/>
</a>
</g>
</g>
<!-- Node11 -->
<g id="Node000011" class="node">
<title>Node11</title>
<g id="a_Node000011"><a xlink:title=" ">
<polygon fill="#e0e0e0" stroke="#999999" points="128,-74 77,-74 77,-55 128,-55 128,-74"/>
<text text-anchor="middle" x="102.5" y="-62" font-family="Helvetica,sans-Serif" font-size="10.00">csignal</text>
</a>
</g>
</g>
<!-- Node7&#45;&gt;Node11 -->
<g id="edge16_Node000007_Node000011" class="edge">
<title>Node7&#45;&gt;Node11</title>
<g id="a_edge16_Node000007_Node000011"><a xlink:title=" ">
<path fill="none" stroke="#63b8ff" d="M302.17,-110.04C262.45,-101.81 200.48,-88.73 138.11,-74.32"/>
<polygon fill="#63b8ff" stroke="#63b8ff" points="138.63,-70.85 128.1,-72 137.05,-77.67 138.63,-70.85"/>
</a>
</g>
</g>
<!-- Node12 -->
<g id="Node000012" class="node">
<title>Node12</title>
<g id="a_Node000012"><a xlink:href="../../d4/d82/debugbreak_8h.html" target="_top" xlink:title=" ">
<polygon fill="white" stroke="#666666" points="229,-74 146,-74 146,-55 229,-55 229,-74"/>
<text text-anchor="middle" x="187.5" y="-62" font-family="Helvetica,sans-Serif" font-size="10.00">debugbreak.h</text>
</a>
</g>
</g>
<!-- Node7&#45;&gt;Node12 -->
<g id="edge17_Node000007_Node000012" class="edge">
<title>Node7&#45;&gt;Node12</title>
<g id="a_edge17_Node000007_Node000012"><a xlink:title=" ">
<path fill="none" stroke="#63b8ff" d="M318.44,-109.98C292.47,-101.16 251.69,-87.31 222.54,-77.41"/>
<polygon fill="#63b8ff" stroke="#63b8ff" points="223.35,-73.99 212.76,-74.08 221.1,-80.61 223.35,-73.99"/>
</a>
</g>
</g>
<!-- Node13 -->
<g id="Node000013" class="node">
<title>Node13</title>
<g id="a_Node000013"><a xlink:title=" ">
<polygon fill="#e0e0e0" stroke="#999999" points="215,-19 160,-19 160,0 215,0 215,-19"/>
<text text-anchor="middle" x="187.5" y="-7" font-family="Helvetica,sans-Serif" font-size="10.00">signal.h</text>
</a>
</g>
</g>
<!-- Node12&#45;&gt;Node13 -->
<g id="edge18_Node000012_Node000013" class="edge">
<title>Node12&#45;&gt;Node13</title>
<g id="a_edge18_Node000012_Node000013"><a xlink:title=" ">
<path fill="none" stroke="#63b8ff" d="M187.5,-54.75C187.5,-47.8 187.5,-37.85 187.5,-29.13"/>
<polygon fill="#63b8ff" stroke="#63b8ff" points="191,-29.09 187.5,-19.09 184,-29.09 191,-29.09"/>
</a>
</g>
</g>
<!-- Node14&#45;&gt;Node4 -->
<g id="edge20_Node000014_Node000004" class="edge">
<title>Node14&#45;&gt;Node4</title>
<g id="a_edge20_Node000014_Node000004"><a xlink:title=" ">
<path fill="none" stroke="#63b8ff" d="M144.49,-109.98C122.05,-101.3 87.02,-87.75 61.51,-77.88"/>
<polygon fill="#63b8ff" stroke="#63b8ff" points="62.5,-74.51 51.91,-74.17 59.98,-81.04 62.5,-74.51"/>
</a>
</g>
</g>
<!-- Node15&#45;&gt;Node2 -->
<g id="edge22_Node000015_Node000002" class="edge">
<title>Node15&#45;&gt;Node2</title>
<g id="a_edge22_Node000015_Node000002"><a xlink:title=" ">
<path fill="none" stroke="#63b8ff" d="M591.18,-219.74C590.24,-194.31 587.51,-120.08 586.21,-84.69"/>
<polygon fill="#63b8ff" stroke="#63b8ff" points="589.69,-84.17 585.82,-74.31 582.69,-84.43 589.69,-84.17"/>
</a>
</g>
</g>
<!-- Node15&#45;&gt;Node3 -->
<g id="edge25_Node000015_Node000003" class="edge">
<title>Node15&#45;&gt;Node3</title>
<g id="a_edge25_Node000015_Node000003"><a xlink:title=" ">
<path fill="none" stroke="#63b8ff" d="M596.82,-219.74C612.54,-193.87 658.93,-117.48 679.94,-82.88"/>
<polygon fill="#63b8ff" stroke="#63b8ff" points="682.95,-84.67 685.15,-74.31 676.97,-81.04 682.95,-84.67"/>
</a>
</g>
</g>
<!-- Node15&#45;&gt;Node5 -->
<g id="edge26_Node000015_Node000005" class="edge">
<title>Node15&#45;&gt;Node5</title>
<g id="a_edge26_Node000015_Node000005"><a xlink:title=" ">
<path fill="none" stroke="#63b8ff" d="M566.76,-219.98C541.13,-211.16 500.87,-197.31 472.09,-187.41"/>
<polygon fill="#63b8ff" stroke="#63b8ff" points="473.03,-184.03 462.44,-184.08 470.75,-190.65 473.03,-184.03"/>
</a>
</g>
</g>
<!-- Node16 -->
<g id="Node000016" class="node">
<title>Node16</title>
<g id="a_Node000016"><a xlink:title=" ">
<polygon fill="#e0e0e0" stroke="#999999" points="740,-184 639,-184 639,-165 740,-165 740,-184"/>
<text text-anchor="middle" x="689.5" y="-172" font-family="Helvetica,sans-Serif" font-size="10.00">QCoreApplication</text>
</a>
</g>
</g>
<!-- Node15&#45;&gt;Node16 -->
<g id="edge23_Node000015_Node000016" class="edge">
<title>Node15&#45;&gt;Node16</title>
<g id="a_edge23_Node000015_Node000016"><a xlink:title=" ">
<path fill="none" stroke="#63b8ff" d="M607.25,-219.98C622.73,-211.61 646.59,-198.7 664.64,-188.95"/>
<polygon fill="#63b8ff" stroke="#63b8ff" points="666.34,-192.01 673.47,-184.17 663.01,-185.85 666.34,-192.01"/>
</a>
</g>
</g>
<!-- Node17 -->
<g id="Node000017" class="node">
<title>Node17</title>
<g id="a_Node000017"><a xlink:title=" ">
<polygon fill="#e0e0e0" stroke="#999999" points="830.5,-184 758.5,-184 758.5,-165 830.5,-165 830.5,-184"/>
<text text-anchor="middle" x="794.5" y="-172" font-family="Helvetica,sans-Serif" font-size="10.00">QException</text>
</a>
</g>
</g>
<!-- Node15&#45;&gt;Node17 -->
<g id="edge24_Node000015_Node000017" class="edge">
<title>Node15&#45;&gt;Node17</title>
<g id="a_edge24_Node000015_Node000017"><a xlink:title=" ">
<path fill="none" stroke="#63b8ff" d="M624.12,-219.98C658.79,-210.93 713.76,-196.58 751.85,-186.64"/>
<polygon fill="#63b8ff" stroke="#63b8ff" points="752.84,-189.99 761.63,-184.08 751.07,-183.22 752.84,-189.99"/>
</a>
</g>
</g>
</g>
</svg>
