<?xml version="1.0" encoding="UTF-8" standalone="no"?>
<!DOCTYPE svg PUBLIC "-//W3C//DTD SVG 1.1//EN"
 "http://www.w3.org/Graphics/SVG/1.1/DTD/svg11.dtd">
<!-- Generated by graphviz version 2.43.0 (0)
 -->
<!-- Title: src/libs/qmuparser/qmuparsererror.h Pages: 1 -->
<!--zoomable 566 -->

<svg id="main" version="1.1" xmlns="http://www.w3.org/2000/svg" xmlns:xlink="http://www.w3.org/1999/xlink" xml:space="preserve" onload="init(evt)">
<style type="text/css"><![CDATA[
.node, .edge {opacity: 0.7;}
.node.selected, .edge.selected {opacity: 1;}
.edge:hover path { stroke: red; }
.edge:hover polygon { stroke: red; fill: red; }
]]></style>

<defs>
  <circle id="rim" cx="0" cy="0" r="7"/>
  <circle id="rim2" cx="0" cy="0" r="3.5"/>
  <g id="zoomPlus">
    <use xlink:href="#rim" fill="#404040"><set attributeName="fill" to="#808080" begin="zoomplus.mouseover" end="zoomplus.mouseout"/></use>
    <path d="M-4,0h8M0,-4v8" fill="none" stroke="white" stroke-width="1.5" pointer-events="none"/>
  </g>
  <g id="zoomMin">
    <use xlink:href="#rim" fill="#404040"><set attributeName="fill" to="#808080" begin="zoomminus.mouseover" end="zoomminus.mouseout"/></use>
    <path d="M-4,0h8" fill="none" stroke="white" stroke-width="1.5" pointer-events="none"/>
  </g>
  <g id="arrowUp" transform="translate(30 24)">
    <use xlink:href="#rim"/>
    <path pointer-events="none" fill="none" stroke="white" stroke-width="1.5" d="M0,-3.0v7 M-2.5,-0.5L0,-3.0L2.5,-0.5"/>
  </g>
  <g id="arrowRight" transform="rotate(90) translate(36 -43)">
    <use xlink:href="#rim"/>
    <path pointer-events="none" fill="none" stroke="white" stroke-width="1.5" d="M0,-3.0v7 M-2.5,-0.5L0,-3.0L2.5,-0.5"/>
  </g>
  <g id="arrowDown" transform="rotate(180) translate(-30 -48)">
    <use xlink:href="#rim"/>
    <path pointer-events="none" fill="none" stroke="white" stroke-width="1.5" d="M0,-3.0v7 M-2.5,-0.5L0,-3.0L2.5,-0.5"/>
  </g>
  <g id="arrowLeft" transform="rotate(270) translate(-36 17)">
    <use xlink:href="#rim"/>
    <path pointer-events="none" fill="none" stroke="white" stroke-width="1.5" d="M0,-3.0v7 M-2.5,-0.5L0,-3.0L2.5,-0.5"/>
  </g>
  <g id="resetDef">
    <use xlink:href="#rim2" fill="#404040"><set attributeName="fill" to="#808080" begin="reset.mouseover" end="reset.mouseout"/></use>
  </g>
</defs>
<script type="application/ecmascript">
var viewWidth = 1203;
var viewHeight = 566;
var sectionId = 'dynsection-1';
</script>
<script type="application/ecmascript" xlink:href="../../svg.min.js"/>
<svg id="graph" class="graph">
<g id="viewport">
<title>src/libs/qmuparser/qmuparsererror.h</title>
<!-- Node1 -->
<g id="Node000001" class="node">
<title>Node1</title>
<g id="a_Node000001"><a xlink:title="This file defines the error class used by the parser.">
<polygon fill="#999999" stroke="#666666" points="869,-558 762,-558 762,-528 869,-528 869,-558"/>
<text text-anchor="start" x="770" y="-546" font-family="Helvetica,sans-Serif" font-size="10.00">src/libs/qmuparser</text>
<text text-anchor="middle" x="815.5" y="-535" font-family="Helvetica,sans-Serif" font-size="10.00">/qmuparsererror.h</text>
</a>
</g>
</g>
<!-- Node2 -->
<g id="Node000002" class="node">
<title>Node2</title>
<g id="a_Node000002"><a xlink:href="../../da/d59/qmuparser_8cpp.html" target="_top" xlink:title="Implementation of the standard floating point QmuParser.">
<polygon fill="white" stroke="#666666" points="567,-228 460,-228 460,-198 567,-198 567,-228"/>
<text text-anchor="start" x="468" y="-216" font-family="Helvetica,sans-Serif" font-size="10.00">src/libs/qmuparser</text>
<text text-anchor="middle" x="513.5" y="-205" font-family="Helvetica,sans-Serif" font-size="10.00">/qmuparser.cpp</text>
</a>
</g>
</g>
<!-- Node1&#45;&gt;Node2 -->
<g id="edge1_Node000001_Node000002" class="edge">
<title>Node1&#45;&gt;Node2</title>
<g id="a_edge1_Node000001_Node000002"><a xlink:title=" ">
<path fill="none" stroke="#63b8ff" d="M751.97,-534.07C641.92,-518.54 427.5,-479.6 427.5,-412 427.5,-412 427.5,-412 427.5,-344 427.5,-307.46 426.43,-294.54 446.5,-264 456.38,-248.96 472.41,-236.76 486.31,-228.18"/>
<polygon fill="#63b8ff" stroke="#63b8ff" points="751.57,-537.55 761.96,-535.45 752.53,-530.61 751.57,-537.55"/>
</a>
</g>
</g>
<!-- Node3 -->
<g id="Node000003" class="node">
<title>Node3</title>
<g id="a_Node000003"><a xlink:href="../../df/d18/qmuparserbase_8h.html" target="_top" xlink:title="This file contains the class definition of the qmuparser engine.">
<polygon fill="white" stroke="#666666" points="710,-360 603,-360 603,-330 710,-330 710,-360"/>
<text text-anchor="start" x="611" y="-348" font-family="Helvetica,sans-Serif" font-size="10.00">src/libs/qmuparser</text>
<text text-anchor="middle" x="656.5" y="-337" font-family="Helvetica,sans-Serif" font-size="10.00">/qmuparserbase.h</text>
</a>
</g>
</g>
<!-- Node1&#45;&gt;Node3 -->
<g id="edge2_Node000001_Node000003" class="edge">
<title>Node1&#45;&gt;Node3</title>
<g id="a_edge2_Node000001_Node000003"><a xlink:title=" ">
<path fill="none" stroke="#63b8ff" d="M819.47,-517.55C823.16,-485.9 824.49,-430.71 796.5,-396 785.2,-381.99 744.64,-368.4 710.07,-358.93"/>
<polygon fill="#63b8ff" stroke="#63b8ff" points="815.97,-517.31 818.11,-527.69 822.9,-518.24 815.97,-517.31"/>
</a>
</g>
</g>
<!-- Node8 -->
<g id="Node000008" class="node">
<title>Node8</title>
<g id="a_Node000008"><a xlink:href="../../dd/d20/qmutokenparser_8cpp.html" target="_top" xlink:title=" ">
<polygon fill="white" stroke="#666666" points="119,-96 0,-96 0,-66 119,-66 119,-96"/>
<text text-anchor="start" x="8" y="-84" font-family="Helvetica,sans-Serif" font-size="10.00">src/libs/qmuparser</text>
<text text-anchor="middle" x="59.5" y="-73" font-family="Helvetica,sans-Serif" font-size="10.00">/qmutokenparser.cpp</text>
</a>
</g>
</g>
<!-- Node1&#45;&gt;Node8 -->
<g id="edge38_Node000001_Node000008" class="edge">
<title>Node1&#45;&gt;Node8</title>
<g id="a_edge38_Node000001_Node000008"><a xlink:title=" ">
<path fill="none" stroke="#63b8ff" d="M751.89,-540.28C623.65,-536.19 338.46,-523.72 246.5,-492 184.85,-470.74 123.5,-477.21 123.5,-412 123.5,-412 123.5,-412 123.5,-212 123.5,-165.71 90.44,-118.81 71.84,-96.08"/>
<polygon fill="#63b8ff" stroke="#63b8ff" points="751.85,-543.78 761.96,-540.6 752.07,-536.79 751.85,-543.78"/>
</a>
</g>
</g>
<!-- Node9 -->
<g id="Node000009" class="node">
<title>Node9</title>
<g id="a_Node000009"><a xlink:href="../../de/db3/vmeasurements_8cpp.html" target="_top" xlink:title=" ">
<polygon fill="white" stroke="#666666" points="625.5,-90.5 429.5,-90.5 429.5,-71.5 625.5,-71.5 625.5,-90.5"/>
<text text-anchor="middle" x="527.5" y="-78.5" font-family="Helvetica,sans-Serif" font-size="10.00">src/libs/vformat/vmeasurements.cpp</text>
</a>
</g>
</g>
<!-- Node1&#45;&gt;Node9 -->
<g id="edge39_Node000001_Node000009" class="edge">
<title>Node1&#45;&gt;Node9</title>
<g id="a_edge39_Node000001_Node000009"><a xlink:title=" ">
<path fill="none" stroke="#63b8ff" d="M751.75,-537.39C666.46,-530.42 520.4,-515.49 472.5,-492 426.5,-469.44 389.5,-463.23 389.5,-412 389.5,-412 389.5,-412 389.5,-212 389.5,-148.97 466.72,-107.49 505.63,-90.6"/>
<polygon fill="#63b8ff" stroke="#63b8ff" points="751.59,-540.89 761.84,-538.2 752.15,-533.91 751.59,-540.89"/>
</a>
</g>
</g>
<!-- Node12 -->
<g id="Node000012" class="node">
<title>Node12</title>
<g id="a_Node000012"><a xlink:href="../../de/d3e/vtranslatevars_8cpp.html" target="_top" xlink:title=" ">
<polygon fill="white" stroke="#666666" points="247.5,-96 137.5,-96 137.5,-66 247.5,-66 247.5,-96"/>
<text text-anchor="start" x="145.5" y="-84" font-family="Helvetica,sans-Serif" font-size="10.00">src/libs/vpatterndb</text>
<text text-anchor="middle" x="192.5" y="-73" font-family="Helvetica,sans-Serif" font-size="10.00">/vtranslatevars.cpp</text>
</a>
</g>
</g>
<!-- Node1&#45;&gt;Node12 -->
<g id="edge42_Node000001_Node000012" class="edge">
<title>Node1&#45;&gt;Node12</title>
<g id="a_edge42_Node000001_Node000012"><a xlink:title=" ">
<path fill="none" stroke="#63b8ff" d="M751.52,-541.71C595.57,-539.28 208.5,-522.16 208.5,-412 208.5,-412 208.5,-412 208.5,-212 208.5,-169.7 200.05,-120.24 195.43,-96.36"/>
<polygon fill="#63b8ff" stroke="#63b8ff" points="751.85,-545.21 761.9,-541.85 751.95,-538.22 751.85,-545.21"/>
</a>
</g>
</g>
<!-- Node15 -->
<g id="Node000015" class="node">
<title>Node15</title>
<g id="a_Node000015"><a xlink:href="../../db/d8e/vpatterndb_2calculator_8cpp.html" target="_top" xlink:title=" ">
<polygon fill="white" stroke="#666666" points="1070,-96 963,-96 963,-66 1070,-66 1070,-96"/>
<text text-anchor="start" x="971" y="-84" font-family="Helvetica,sans-Serif" font-size="10.00">src/libs/vpatterndb</text>
<text text-anchor="middle" x="1016.5" y="-73" font-family="Helvetica,sans-Serif" font-size="10.00">/calculator.cpp</text>
</a>
</g>
</g>
<!-- Node1&#45;&gt;Node15 -->
<g id="edge40_Node000001_Node000015" class="edge">
<title>Node1&#45;&gt;Node15</title>
<g id="a_edge40_Node000001_Node000015"><a xlink:title=" ">
<path fill="none" stroke="#63b8ff" d="M879.07,-538.06C949.1,-532.41 1055.64,-519.47 1084.5,-492 1110.97,-466.81 1103.5,-448.54 1103.5,-412 1103.5,-412 1103.5,-412 1103.5,-212 1103.5,-162.85 1060.01,-118.21 1034.53,-96.28"/>
<polygon fill="#63b8ff" stroke="#63b8ff" points="878.72,-534.58 869.02,-538.85 879.26,-541.56 878.72,-534.58"/>
</a>
</g>
</g>
<!-- Node16 -->
<g id="Node000016" class="node">
<title>Node16</title>
<g id="a_Node000016"><a xlink:href="../../db/d11/vformula_8cpp.html" target="_top" xlink:title=" ">
<polygon fill="white" stroke="#666666" points="1195,-96 1088,-96 1088,-66 1195,-66 1195,-96"/>
<text text-anchor="start" x="1096" y="-84" font-family="Helvetica,sans-Serif" font-size="10.00">src/libs/vpatterndb</text>
<text text-anchor="middle" x="1141.5" y="-73" font-family="Helvetica,sans-Serif" font-size="10.00">/vformula.cpp</text>
</a>
</g>
</g>
<!-- Node1&#45;&gt;Node16 -->
<g id="edge41_Node000001_Node000016" class="edge">
<title>Node1&#45;&gt;Node16</title>
<g id="a_edge41_Node000001_Node000016"><a xlink:title=" ">
<path fill="none" stroke="#63b8ff" d="M879.34,-538.14C954.37,-532.42 1073.02,-519.28 1107.5,-492 1137.8,-468.03 1141.5,-450.63 1141.5,-412 1141.5,-412 1141.5,-412 1141.5,-212 1141.5,-169.8 1141.5,-119.88 1141.5,-96.04"/>
<polygon fill="#63b8ff" stroke="#63b8ff" points="878.78,-534.68 869.06,-538.9 879.29,-541.66 878.78,-534.68"/>
</a>
</g>
</g>
<!-- Node18 -->
<g id="Node000018" class="node">
<title>Node18</title>
<g id="a_Node000018"><a xlink:href="../../df/dbf/qmuparsertest_8cpp.html" target="_top" xlink:title="This file contains the implementation of parser test cases.">
<polygon fill="white" stroke="#666666" points="910,-162 799,-162 799,-132 910,-132 910,-162"/>
<text text-anchor="start" x="807" y="-150" font-family="Helvetica,sans-Serif" font-size="10.00">src/libs/qmuparser</text>
<text text-anchor="middle" x="854.5" y="-139" font-family="Helvetica,sans-Serif" font-size="10.00">/qmuparsertest.cpp</text>
</a>
</g>
</g>
<!-- Node1&#45;&gt;Node18 -->
<g id="edge27_Node000001_Node000018" class="edge">
<title>Node1&#45;&gt;Node18</title>
<g id="a_edge27_Node000001_Node000018"><a xlink:title=" ">
<path fill="none" stroke="#63b8ff" d="M850.34,-522.49C884.51,-500.5 931.5,-461.29 931.5,-412 931.5,-412 931.5,-412 931.5,-278 931.5,-241.46 931.48,-229.23 912.5,-198 903.66,-183.46 889.16,-170.96 876.87,-162.09"/>
<polygon fill="#63b8ff" stroke="#63b8ff" points="848.18,-519.72 841.53,-527.97 851.87,-525.66 848.18,-519.72"/>
</a>
</g>
</g>
<!-- Node19 -->
<g id="Node000019" class="node">
<title>Node19</title>
<g id="a_Node000019"><a xlink:href="../../db/dfa/qmuparsertest_8h.html" target="_top" xlink:title="This file contains the parser test class.">
<polygon fill="white" stroke="#666666" points="903,-228 796,-228 796,-198 903,-198 903,-228"/>
<text text-anchor="start" x="804" y="-216" font-family="Helvetica,sans-Serif" font-size="10.00">src/libs/qmuparser</text>
<text text-anchor="middle" x="849.5" y="-205" font-family="Helvetica,sans-Serif" font-size="10.00">/qmuparsertest.h</text>
</a>
</g>
</g>
<!-- Node1&#45;&gt;Node19 -->
<g id="edge28_Node000001_Node000019" class="edge">
<title>Node1&#45;&gt;Node19</title>
<g id="a_edge28_Node000001_Node000019"><a xlink:title=" ">
<path fill="none" stroke="#63b8ff" d="M838.39,-520.52C861.4,-496.49 893.5,-455.22 893.5,-412 893.5,-412 893.5,-412 893.5,-344 893.5,-299.92 870.52,-251.66 857.78,-228.28"/>
<polygon fill="#63b8ff" stroke="#63b8ff" points="835.83,-518.13 831.28,-527.7 840.81,-523.05 835.83,-518.13"/>
</a>
</g>
</g>
<!-- Node22 -->
<g id="Node000022" class="node">
<title>Node22</title>
<g id="a_Node000022"><a xlink:href="../../d1/d4b/qmuparserbytecode_8cpp.html" target="_top" xlink:title=" ">
<polygon fill="white" stroke="#666666" points="865,-360 728,-360 728,-330 865,-330 865,-360"/>
<text text-anchor="start" x="736" y="-348" font-family="Helvetica,sans-Serif" font-size="10.00">src/libs/qmuparser</text>
<text text-anchor="middle" x="796.5" y="-337" font-family="Helvetica,sans-Serif" font-size="10.00">/qmuparserbytecode.cpp</text>
</a>
</g>
</g>
<!-- Node1&#45;&gt;Node22 -->
<g id="edge25_Node000001_Node000022" class="edge">
<title>Node1&#45;&gt;Node22</title>
<g id="a_edge25_Node000001_Node000022"><a xlink:title=" ">
<path fill="none" stroke="#63b8ff" d="M823.25,-518.19C831.57,-488.84 842.02,-437.7 829.5,-396 825.49,-382.65 816.64,-369.58 809.11,-360.15"/>
<polygon fill="#63b8ff" stroke="#63b8ff" points="819.84,-517.38 820.32,-527.97 826.54,-519.39 819.84,-517.38"/>
</a>
</g>
</g>
<!-- Node23 -->
<g id="Node000023" class="node">
<title>Node23</title>
<g id="a_Node000023"><a xlink:href="../../dd/d4f/qmuparsererror_8cpp.html" target="_top" xlink:title=" ">
<polygon fill="white" stroke="#666666" points="1075,-492 960,-492 960,-462 1075,-462 1075,-492"/>
<text text-anchor="start" x="968" y="-480" font-family="Helvetica,sans-Serif" font-size="10.00">src/libs/qmuparser</text>
<text text-anchor="middle" x="1017.5" y="-469" font-family="Helvetica,sans-Serif" font-size="10.00">/qmuparsererror.cpp</text>
</a>
</g>
</g>
<!-- Node1&#45;&gt;Node23 -->
<g id="edge26_Node000001_Node000023" class="edge">
<title>Node1&#45;&gt;Node23</title>
<g id="a_edge26_Node000001_Node000023"><a xlink:title=" ">
<path fill="none" stroke="#63b8ff" d="M869.61,-524.86C902.05,-514.58 942.77,-501.68 973.27,-492.01"/>
<polygon fill="#63b8ff" stroke="#63b8ff" points="868.31,-521.6 859.83,-527.95 870.42,-528.27 868.31,-521.6"/>
</a>
</g>
</g>
<!-- Node24 -->
<g id="Node000024" class="node">
<title>Node24</title>
<g id="a_Node000024"><a xlink:href="../../d7/ddf/qmuparsertoken_8h.html" target="_top" xlink:title="This file contains the parser token definition.">
<polygon fill="white" stroke="#666666" points="732.5,-492 624.5,-492 624.5,-462 732.5,-462 732.5,-492"/>
<text text-anchor="start" x="632.5" y="-480" font-family="Helvetica,sans-Serif" font-size="10.00">src/libs/qmuparser</text>
<text text-anchor="middle" x="678.5" y="-469" font-family="Helvetica,sans-Serif" font-size="10.00">/qmuparsertoken.h</text>
</a>
</g>
</g>
<!-- Node1&#45;&gt;Node24 -->
<g id="edge29_Node000001_Node000024" class="edge">
<title>Node1&#45;&gt;Node24</title>
<g id="a_edge29_Node000001_Node000024"><a xlink:title=" ">
<path fill="none" stroke="#63b8ff" d="M776.22,-523.65C754.67,-513.58 728.38,-501.3 708.5,-492.01"/>
<polygon fill="#63b8ff" stroke="#63b8ff" points="774.89,-526.89 785.43,-527.95 777.86,-520.55 774.89,-526.89"/>
</a>
</g>
</g>
<!-- Node26 -->
<g id="Node000026" class="node">
<title>Node26</title>
<g id="a_Node000026"><a xlink:href="../../db/d1b/qmuparsertokenreader_8h.html" target="_top" xlink:title="This file contains the parser token reader definition.">
<polygon fill="white" stroke="#666666" points="605,-426 466,-426 466,-396 605,-396 605,-426"/>
<text text-anchor="start" x="474" y="-414" font-family="Helvetica,sans-Serif" font-size="10.00">src/libs/qmuparser</text>
<text text-anchor="middle" x="535.5" y="-403" font-family="Helvetica,sans-Serif" font-size="10.00">/qmuparsertokenreader.h</text>
</a>
</g>
</g>
<!-- Node1&#45;&gt;Node26 -->
<g id="edge37_Node000001_Node000026" class="edge">
<title>Node1&#45;&gt;Node26</title>
<g id="a_edge37_Node000001_Node000026"><a xlink:title=" ">
<path fill="none" stroke="#63b8ff" d="M751.5,-534.94C710.54,-528.33 657.42,-515.73 615.5,-492 585.76,-475.16 559.49,-444.25 545.71,-426.18"/>
<polygon fill="#63b8ff" stroke="#63b8ff" points="751.23,-538.44 761.64,-536.5 752.29,-531.52 751.23,-538.44"/>
</a>
</g>
</g>
<!-- Node4 -->
<g id="Node000004" class="node">
<title>Node4</title>
<g id="a_Node000004"><a xlink:href="../../d6/dc3/qmuparser_8h.html" target="_top" xlink:title="Definition of the standard floating point parser.">
<polygon fill="white" stroke="#666666" points="865,-294 758,-294 758,-264 865,-264 865,-294"/>
<text text-anchor="start" x="766" y="-282" font-family="Helvetica,sans-Serif" font-size="10.00">src/libs/qmuparser</text>
<text text-anchor="middle" x="811.5" y="-271" font-family="Helvetica,sans-Serif" font-size="10.00">/qmuparser.h</text>
</a>
</g>
</g>
<!-- Node3&#45;&gt;Node4 -->
<g id="edge3_Node000003_Node000004" class="edge">
<title>Node3&#45;&gt;Node4</title>
<g id="a_edge3_Node000003_Node000004"><a xlink:title=" ">
<path fill="none" stroke="#63b8ff" d="M699.96,-326.05C724.52,-315.91 754.77,-303.43 777.56,-294.01"/>
<polygon fill="#63b8ff" stroke="#63b8ff" points="698.42,-322.9 690.52,-329.95 701.09,-329.37 698.42,-322.9"/>
</a>
</g>
</g>
<!-- Node20 -->
<g id="Node000020" class="node">
<title>Node20</title>
<g id="a_Node000020"><a xlink:href="../../d0/d70/qmuparserbase_8cpp.html" target="_top" xlink:title="This file contains the basic implementation of the muparser engine.">
<polygon fill="white" stroke="#666666" points="739.5,-294 623.5,-294 623.5,-264 739.5,-264 739.5,-294"/>
<text text-anchor="start" x="631.5" y="-282" font-family="Helvetica,sans-Serif" font-size="10.00">src/libs/qmuparser</text>
<text text-anchor="middle" x="681.5" y="-271" font-family="Helvetica,sans-Serif" font-size="10.00">/qmuparserbase.cpp</text>
</a>
</g>
</g>
<!-- Node3&#45;&gt;Node20 -->
<g id="edge23_Node000003_Node000020" class="edge">
<title>Node3&#45;&gt;Node20</title>
<g id="a_edge23_Node000003_Node000020"><a xlink:title=" ">
<path fill="none" stroke="#63b8ff" d="M665.72,-320.39C669.16,-311.59 672.96,-301.86 675.97,-294.16"/>
<polygon fill="#63b8ff" stroke="#63b8ff" points="662.43,-319.21 662.05,-329.8 668.95,-321.76 662.43,-319.21"/>
</a>
</g>
</g>
<!-- Node21 -->
<g id="Node000021" class="node">
<title>Node21</title>
<g id="a_Node000021"><a xlink:href="../../df/d10/qmuparsertokenreader_8cpp.html" target="_top" xlink:title="This file contains the parser token reader implementation.">
<polygon fill="white" stroke="#666666" points="605.5,-294 455.5,-294 455.5,-264 605.5,-264 605.5,-294"/>
<text text-anchor="start" x="463.5" y="-282" font-family="Helvetica,sans-Serif" font-size="10.00">src/libs/qmuparser</text>
<text text-anchor="middle" x="530.5" y="-271" font-family="Helvetica,sans-Serif" font-size="10.00">/qmuparsertokenreader.cpp</text>
</a>
</g>
</g>
<!-- Node3&#45;&gt;Node21 -->
<g id="edge24_Node000003_Node000021" class="edge">
<title>Node3&#45;&gt;Node21</title>
<g id="a_edge24_Node000003_Node000021"><a xlink:title=" ">
<path fill="none" stroke="#63b8ff" d="M619.84,-325.38C600.12,-315.36 576.21,-303.22 558.09,-294.01"/>
<polygon fill="#63b8ff" stroke="#63b8ff" points="618.35,-328.55 628.85,-329.95 621.52,-322.31 618.35,-328.55"/>
</a>
</g>
</g>
<!-- Node4&#45;&gt;Node2 -->
<g id="edge19_Node000004_Node000002" class="edge">
<title>Node4&#45;&gt;Node2</title>
<g id="a_edge19_Node000004_Node000002"><a xlink:title=" ">
<path fill="none" stroke="#63b8ff" d="M747.83,-263.87C679.69,-249.07 612.61,-234.85 567.2,-225.28"/>
<polygon fill="#63b8ff" stroke="#63b8ff" points="747.38,-267.35 757.89,-266.05 748.86,-260.51 747.38,-267.35"/>
</a>
</g>
</g>
<!-- Node5 -->
<g id="Node000005" class="node">
<title>Node5</title>
<g id="a_Node000005"><a xlink:href="../../d7/da3/qmuformulabase_8h.html" target="_top" xlink:title=" ">
<polygon fill="white" stroke="#666666" points="718.5,-228 606.5,-228 606.5,-198 718.5,-198 718.5,-228"/>
<text text-anchor="start" x="614.5" y="-216" font-family="Helvetica,sans-Serif" font-size="10.00">src/libs/qmuparser</text>
<text text-anchor="middle" x="662.5" y="-205" font-family="Helvetica,sans-Serif" font-size="10.00">/qmuformulabase.h</text>
</a>
</g>
</g>
<!-- Node4&#45;&gt;Node5 -->
<g id="edge4_Node000004_Node000005" class="edge">
<title>Node4&#45;&gt;Node5</title>
<g id="a_edge4_Node000004_Node000005"><a xlink:title=" ">
<path fill="none" stroke="#63b8ff" d="M769.41,-259.92C745.86,-249.8 716.94,-237.38 695.12,-228.01"/>
<polygon fill="#63b8ff" stroke="#63b8ff" points="768.23,-263.22 778.8,-263.95 770.99,-256.79 768.23,-263.22"/>
</a>
</g>
</g>
<!-- Node4&#45;&gt;Node18 -->
<g id="edge20_Node000004_Node000018" class="edge">
<title>Node4&#45;&gt;Node18</title>
<g id="a_edge20_Node000004_Node000018"><a xlink:title=" ">
<path fill="none" stroke="#63b8ff" d="M795.66,-254.94C786.48,-238.51 778.37,-216.2 787.5,-198 795.31,-182.43 810.52,-170.47 824.47,-162.16"/>
<polygon fill="#63b8ff" stroke="#63b8ff" points="792.89,-257.12 801.07,-263.86 798.88,-253.49 792.89,-257.12"/>
</a>
</g>
</g>
<!-- Node4&#45;&gt;Node19 -->
<g id="edge21_Node000004_Node000019" class="edge">
<title>Node4&#45;&gt;Node19</title>
<g id="a_edge21_Node000004_Node000019"><a xlink:title=" ">
<path fill="none" stroke="#63b8ff" d="M825.18,-254.96C830.5,-246 836.42,-236.03 841.09,-228.16"/>
<polygon fill="#63b8ff" stroke="#63b8ff" points="822.03,-253.41 819.93,-263.8 828.05,-256.98 822.03,-253.41"/>
</a>
</g>
</g>
<!-- Node6 -->
<g id="Node000006" class="node">
<title>Node6</title>
<g id="a_Node000006"><a xlink:href="../../d4/d67/qmuformulabase_8cpp.html" target="_top" xlink:title=" ">
<polygon fill="white" stroke="#666666" points="656,-162 533,-162 533,-132 656,-132 656,-162"/>
<text text-anchor="start" x="541" y="-150" font-family="Helvetica,sans-Serif" font-size="10.00">src/libs/qmuparser</text>
<text text-anchor="middle" x="594.5" y="-139" font-family="Helvetica,sans-Serif" font-size="10.00">/qmuformulabase.cpp</text>
</a>
</g>
</g>
<!-- Node5&#45;&gt;Node6 -->
<g id="edge5_Node000005_Node000006" class="edge">
<title>Node5&#45;&gt;Node6</title>
<g id="a_edge5_Node000005_Node000006"><a xlink:title=" ">
<path fill="none" stroke="#63b8ff" d="M640.11,-190.92C630.08,-181.49 618.52,-170.61 609.55,-162.16"/>
<polygon fill="#63b8ff" stroke="#63b8ff" points="637.73,-193.49 647.41,-197.8 642.53,-188.39 637.73,-193.49"/>
</a>
</g>
</g>
<!-- Node7 -->
<g id="Node000007" class="node">
<title>Node7</title>
<g id="a_Node000007"><a xlink:href="../../db/d75/qmutokenparser_8h.html" target="_top" xlink:title=" ">
<polygon fill="white" stroke="#666666" points="361,-162 254,-162 254,-132 361,-132 361,-162"/>
<text text-anchor="start" x="262" y="-150" font-family="Helvetica,sans-Serif" font-size="10.00">src/libs/qmuparser</text>
<text text-anchor="middle" x="307.5" y="-139" font-family="Helvetica,sans-Serif" font-size="10.00">/qmutokenparser.h</text>
</a>
</g>
</g>
<!-- Node5&#45;&gt;Node7 -->
<g id="edge6_Node000005_Node000007" class="edge">
<title>Node5&#45;&gt;Node7</title>
<g id="a_edge6_Node000005_Node000007"><a xlink:title=" ">
<path fill="none" stroke="#63b8ff" d="M596.09,-200.03C528.19,-187.79 424.03,-169.01 361.16,-157.67"/>
<polygon fill="#63b8ff" stroke="#63b8ff" points="595.79,-203.53 606.25,-201.86 597.03,-196.64 595.79,-203.53"/>
</a>
</g>
</g>
<!-- Node13 -->
<g id="Node000013" class="node">
<title>Node13</title>
<g id="a_Node000013"><a xlink:href="../../db/db8/vpatterndb_2calculator_8h.html" target="_top" xlink:title=" ">
<polygon fill="white" stroke="#666666" points="781,-162 674,-162 674,-132 781,-132 781,-162"/>
<text text-anchor="start" x="682" y="-150" font-family="Helvetica,sans-Serif" font-size="10.00">src/libs/vpatterndb</text>
<text text-anchor="middle" x="727.5" y="-139" font-family="Helvetica,sans-Serif" font-size="10.00">/calculator.h</text>
</a>
</g>
</g>
<!-- Node5&#45;&gt;Node13 -->
<g id="edge13_Node000005_Node000013" class="edge">
<title>Node5&#45;&gt;Node13</title>
<g id="a_edge13_Node000005_Node000013"><a xlink:title=" ">
<path fill="none" stroke="#63b8ff" d="M684.19,-190.65C693.71,-181.27 704.62,-170.53 713.11,-162.16"/>
<polygon fill="#63b8ff" stroke="#63b8ff" points="681.6,-188.29 676.93,-197.8 686.51,-193.27 681.6,-188.29"/>
</a>
</g>
</g>
<!-- Node7&#45;&gt;Node8 -->
<g id="edge7_Node000007_Node000008" class="edge">
<title>Node7&#45;&gt;Node8</title>
<g id="a_edge7_Node000007_Node000008"><a xlink:title=" ">
<path fill="none" stroke="#63b8ff" d="M244.26,-129.68C203.94,-119.27 152.22,-105.93 113.77,-96"/>
<polygon fill="#63b8ff" stroke="#63b8ff" points="243.44,-133.08 253.99,-132.19 245.18,-126.3 243.44,-133.08"/>
</a>
</g>
</g>
<!-- Node7&#45;&gt;Node9 -->
<g id="edge8_Node000007_Node000009" class="edge">
<title>Node7&#45;&gt;Node9</title>
<g id="a_edge8_Node000007_Node000009"><a xlink:title=" ">
<path fill="none" stroke="#63b8ff" d="M365.49,-129.13C408.2,-116.71 464.48,-100.33 498.22,-90.52"/>
<polygon fill="#63b8ff" stroke="#63b8ff" points="364.4,-125.8 355.78,-131.95 366.36,-132.52 364.4,-125.8"/>
</a>
</g>
</g>
<!-- Node10 -->
<g id="Node000010" class="node">
<title>Node10</title>
<g id="a_Node000010"><a xlink:href="../../d5/d81/vsplinepoint_8cpp.html" target="_top" xlink:title=" ">
<polygon fill="white" stroke="#666666" points="414,-30 307,-30 307,0 414,0 414,-30"/>
<text text-anchor="start" x="315" y="-18" font-family="Helvetica,sans-Serif" font-size="10.00">src/libs/vgeometry</text>
<text text-anchor="middle" x="360.5" y="-7" font-family="Helvetica,sans-Serif" font-size="10.00">/vsplinepoint.cpp</text>
</a>
</g>
</g>
<!-- Node7&#45;&gt;Node10 -->
<g id="edge9_Node000007_Node000010" class="edge">
<title>Node7&#45;&gt;Node10</title>
<g id="a_edge9_Node000007_Node000010"><a xlink:title=" ">
<path fill="none" stroke="#63b8ff" d="M350.62,-126.77C362.83,-119.06 374.65,-108.89 381.5,-96 392.88,-74.57 380.09,-46.57 370.07,-30.01"/>
<polygon fill="#63b8ff" stroke="#63b8ff" points="348.61,-123.9 341.73,-131.95 352.13,-129.94 348.61,-123.9"/>
</a>
</g>
</g>
<!-- Node11 -->
<g id="Node000011" class="node">
<title>Node11</title>
<g id="a_Node000011"><a xlink:href="../../da/db2/vsplinepoint__p_8h.html" target="_top" xlink:title=" ">
<polygon fill="white" stroke="#666666" points="373,-96 266,-96 266,-66 373,-66 373,-96"/>
<text text-anchor="start" x="274" y="-84" font-family="Helvetica,sans-Serif" font-size="10.00">src/libs/vgeometry</text>
<text text-anchor="middle" x="319.5" y="-73" font-family="Helvetica,sans-Serif" font-size="10.00">/vsplinepoint_p.h</text>
</a>
</g>
</g>
<!-- Node7&#45;&gt;Node11 -->
<g id="edge10_Node000007_Node000011" class="edge">
<title>Node7&#45;&gt;Node11</title>
<g id="a_edge10_Node000007_Node000011"><a xlink:title=" ">
<path fill="none" stroke="#63b8ff" d="M312.03,-121.83C313.66,-113.17 315.43,-103.7 316.84,-96.16"/>
<polygon fill="#63b8ff" stroke="#63b8ff" points="308.57,-121.32 310.16,-131.8 315.45,-122.61 308.57,-121.32"/>
</a>
</g>
</g>
<!-- Node7&#45;&gt;Node12 -->
<g id="edge12_Node000007_Node000012" class="edge">
<title>Node7&#45;&gt;Node12</title>
<g id="a_edge12_Node000007_Node000012"><a xlink:title=" ">
<path fill="none" stroke="#63b8ff" d="M273.3,-126.97C255.45,-117.03 233.99,-105.09 217.68,-96.01"/>
<polygon fill="#63b8ff" stroke="#63b8ff" points="271.82,-130.15 282.26,-131.95 275.23,-124.03 271.82,-130.15"/>
</a>
</g>
</g>
<!-- Node11&#45;&gt;Node10 -->
<g id="edge11_Node000011_Node000010" class="edge">
<title>Node11&#45;&gt;Node10</title>
<g id="a_edge11_Node000011_Node000010"><a xlink:title=" ">
<path fill="none" stroke="#63b8ff" d="M334.08,-57.24C339.86,-48.21 346.34,-38.11 351.43,-30.16"/>
<polygon fill="#63b8ff" stroke="#63b8ff" points="331.05,-55.49 328.6,-65.8 336.94,-59.26 331.05,-55.49"/>
</a>
</g>
</g>
<!-- Node13&#45;&gt;Node9 -->
<g id="edge14_Node000013_Node000009" class="edge">
<title>Node13&#45;&gt;Node9</title>
<g id="a_edge14_Node000013_Node000009"><a xlink:title=" ">
<path fill="none" stroke="#63b8ff" d="M674.04,-128.89C635.31,-116.5 584.6,-100.27 554.12,-90.52"/>
<polygon fill="#63b8ff" stroke="#63b8ff" points="673.02,-132.24 683.61,-131.95 675.15,-125.57 673.02,-132.24"/>
</a>
</g>
</g>
<!-- Node14 -->
<g id="Node000014" class="node">
<title>Node14</title>
<g id="a_Node000014"><a xlink:href="../../dd/d70/vlayoutpiece_8cpp.html" target="_top" xlink:title=" ">
<polygon fill="white" stroke="#666666" points="945,-90.5 768,-90.5 768,-71.5 945,-71.5 945,-90.5"/>
<text text-anchor="middle" x="856.5" y="-78.5" font-family="Helvetica,sans-Serif" font-size="10.00">src/libs/vlayout/vlayoutpiece.cpp</text>
</a>
</g>
</g>
<!-- Node13&#45;&gt;Node14 -->
<g id="edge15_Node000013_Node000014" class="edge">
<title>Node13&#45;&gt;Node14</title>
<g id="a_edge15_Node000013_Node000014"><a xlink:title=" ">
<path fill="none" stroke="#63b8ff" d="M764.87,-127.46C789.44,-115.27 820.42,-99.9 839.33,-90.52"/>
<polygon fill="#63b8ff" stroke="#63b8ff" points="763.21,-124.38 755.81,-131.95 766.32,-130.65 763.21,-124.38"/>
</a>
</g>
</g>
<!-- Node13&#45;&gt;Node15 -->
<g id="edge16_Node000013_Node000015" class="edge">
<title>Node13&#45;&gt;Node15</title>
<g id="a_edge16_Node000013_Node000015"><a xlink:title=" ">
<path fill="none" stroke="#63b8ff" d="M790.92,-131.91C864.96,-115.58 884.65,-111.55 954.5,-96 957.19,-95.4 959.95,-94.78 962.74,-94.16"/>
<polygon fill="#63b8ff" stroke="#63b8ff" points="790.12,-128.5 781.11,-134.08 791.63,-135.34 790.12,-128.5"/>
</a>
</g>
</g>
<!-- Node13&#45;&gt;Node16 -->
<g id="edge17_Node000013_Node000016" class="edge">
<title>Node13&#45;&gt;Node16</title>
<g id="a_edge17_Node000013_Node000016"><a xlink:title=" ">
<path fill="none" stroke="#63b8ff" d="M791.29,-131.99C919.83,-110.34 955.23,-117.72 1079.5,-96 1082.22,-95.53 1085,-95.01 1087.8,-94.47"/>
<polygon fill="#63b8ff" stroke="#63b8ff" points="790.31,-128.6 781.05,-133.74 791.49,-135.5 790.31,-128.6"/>
</a>
</g>
</g>
<!-- Node17 -->
<g id="Node000017" class="node">
<title>Node17</title>
<g id="a_Node000017"><a xlink:href="../../d8/dba/vpiecenode_8cpp.html" target="_top" xlink:title=" ">
<polygon fill="white" stroke="#666666" points="750,-96 643,-96 643,-66 750,-66 750,-96"/>
<text text-anchor="start" x="651" y="-84" font-family="Helvetica,sans-Serif" font-size="10.00">src/libs/vpatterndb</text>
<text text-anchor="middle" x="696.5" y="-73" font-family="Helvetica,sans-Serif" font-size="10.00">/vpiecenode.cpp</text>
</a>
</g>
</g>
<!-- Node13&#45;&gt;Node17 -->
<g id="edge18_Node000013_Node000017" class="edge">
<title>Node13&#45;&gt;Node17</title>
<g id="a_edge18_Node000013_Node000017"><a xlink:title=" ">
<path fill="none" stroke="#63b8ff" d="M716.2,-122.68C711.9,-113.79 707.13,-103.95 703.36,-96.16"/>
<polygon fill="#63b8ff" stroke="#63b8ff" points="713.11,-124.32 720.62,-131.8 719.41,-121.27 713.11,-124.32"/>
</a>
</g>
</g>
<!-- Node19&#45;&gt;Node18 -->
<g id="edge22_Node000019_Node000018" class="edge">
<title>Node19&#45;&gt;Node18</title>
<g id="a_edge22_Node000019_Node000018"><a xlink:title=" ">
<path fill="none" stroke="#63b8ff" d="M851.39,-187.83C852.06,-179.17 852.8,-169.7 853.39,-162.16"/>
<polygon fill="#63b8ff" stroke="#63b8ff" points="847.9,-187.55 850.61,-197.8 854.88,-188.1 847.9,-187.55"/>
</a>
</g>
</g>
<!-- Node24&#45;&gt;Node3 -->
<g id="edge30_Node000024_Node000003" class="edge">
<title>Node24&#45;&gt;Node3</title>
<g id="a_edge30_Node000024_Node000003"><a xlink:title=" ">
<path fill="none" stroke="#63b8ff" d="M663.73,-453.22C659.19,-444.98 654.8,-435.39 652.5,-426 646.99,-403.44 650.37,-376.27 653.39,-360.1"/>
<polygon fill="#63b8ff" stroke="#63b8ff" points="660.72,-455.01 668.8,-461.86 666.76,-451.47 660.72,-455.01"/>
</a>
</g>
</g>
<!-- Node25 -->
<g id="Node000025" class="node">
<title>Node25</title>
<g id="a_Node000025"><a xlink:href="../../dd/da6/qmuparserbytecode_8h.html" target="_top" xlink:title="Definition of the parser bytecode class.">
<polygon fill="white" stroke="#666666" points="787.5,-426 661.5,-426 661.5,-396 787.5,-396 787.5,-426"/>
<text text-anchor="start" x="669.5" y="-414" font-family="Helvetica,sans-Serif" font-size="10.00">src/libs/qmuparser</text>
<text text-anchor="middle" x="724.5" y="-403" font-family="Helvetica,sans-Serif" font-size="10.00">/qmuparserbytecode.h</text>
</a>
</g>
</g>
<!-- Node24&#45;&gt;Node25 -->
<g id="edge31_Node000024_Node000025" class="edge">
<title>Node24&#45;&gt;Node25</title>
<g id="a_edge31_Node000024_Node000025"><a xlink:title=" ">
<path fill="none" stroke="#63b8ff" d="M694.65,-453.53C701.19,-444.43 708.55,-434.19 714.32,-426.16"/>
<polygon fill="#63b8ff" stroke="#63b8ff" points="691.7,-451.63 688.71,-461.8 697.39,-455.72 691.7,-451.63"/>
</a>
</g>
</g>
<!-- Node24&#45;&gt;Node26 -->
<g id="edge34_Node000024_Node000026" class="edge">
<title>Node24&#45;&gt;Node26</title>
<g id="a_edge34_Node000024_Node000026"><a xlink:title=" ">
<path fill="none" stroke="#63b8ff" d="M637.8,-457.78C615.25,-447.69 587.66,-435.34 566.81,-426.01"/>
<polygon fill="#63b8ff" stroke="#63b8ff" points="636.56,-461.06 647.12,-461.95 639.42,-454.68 636.56,-461.06"/>
</a>
</g>
</g>
<!-- Node25&#45;&gt;Node3 -->
<g id="edge32_Node000025_Node000003" class="edge">
<title>Node25&#45;&gt;Node3</title>
<g id="a_edge32_Node000025_Node000003"><a xlink:title=" ">
<path fill="none" stroke="#63b8ff" d="M702.11,-388.92C692.08,-379.49 680.52,-368.61 671.55,-360.16"/>
<polygon fill="#63b8ff" stroke="#63b8ff" points="699.73,-391.49 709.41,-395.8 704.53,-386.39 699.73,-391.49"/>
</a>
</g>
</g>
<!-- Node25&#45;&gt;Node22 -->
<g id="edge33_Node000025_Node000022" class="edge">
<title>Node25&#45;&gt;Node22</title>
<g id="a_edge33_Node000025_Node000022"><a xlink:title=" ">
<path fill="none" stroke="#63b8ff" d="M748.21,-388.92C758.83,-379.49 771.07,-368.61 780.57,-360.16"/>
<polygon fill="#63b8ff" stroke="#63b8ff" points="745.63,-386.54 740.48,-395.8 750.28,-391.77 745.63,-386.54"/>
</a>
</g>
</g>
<!-- Node26&#45;&gt;Node3 -->
<g id="edge35_Node000026_Node000003" class="edge">
<title>Node26&#45;&gt;Node3</title>
<g id="a_edge35_Node000026_Node000003"><a xlink:title=" ">
<path fill="none" stroke="#63b8ff" d="M570.97,-391.24C589.85,-381.25 612.68,-369.18 630.01,-360.01"/>
<polygon fill="#63b8ff" stroke="#63b8ff" points="569.26,-388.19 562.05,-395.95 572.53,-394.37 569.26,-388.19"/>
</a>
</g>
</g>
<!-- Node26&#45;&gt;Node21 -->
<g id="edge36_Node000026_Node000021" class="edge">
<title>Node26&#45;&gt;Node21</title>
<g id="a_edge36_Node000026_Node000021"><a xlink:title=" ">
<path fill="none" stroke="#63b8ff" d="M534.56,-385.68C533.53,-358.7 531.89,-316.11 531.04,-294.14"/>
<polygon fill="#63b8ff" stroke="#63b8ff" points="531.07,-385.98 534.96,-395.84 538.07,-385.71 531.07,-385.98"/>
</a>
</g>
</g>
</g>
</svg>

<g id="navigator" transform="translate(0 0)" fill="#404254">
  <rect fill="#f2f5e9" fill-opacity="0.5" stroke="#606060" stroke-width=".5" x="0" y="0" width="60" height="60"/>
  <use id="zoomplus" xlink:href="#zoomPlus" x="17" y="9" onmousedown="handleZoom(evt,'in')"/>
  <use id="zoomminus" xlink:href="#zoomMin" x="42" y="9" onmousedown="handleZoom(evt,'out')"/>
  <use id="reset" xlink:href="#resetDef" x="30" y="36" onmousedown="handleReset()"/>
   <use id="arrowup" xlink:href="#arrowUp" x="0" y="0" onmousedown="handlePan(0,-1)"/>
  <use id="arrowright" xlink:href="#arrowRight" x="0" y="0" onmousedown="handlePan(1,0)"/>
  <use id="arrowdown" xlink:href="#arrowDown" x="0" y="0" onmousedown="handlePan(0,1)"/>
  <use id="arrowleft" xlink:href="#arrowLeft" x="0" y="0" onmousedown="handlePan(-1,0)"/>
</g>
<svg viewBox="0 0 15 15" width="100%" height="30px" preserveAspectRatio="xMaxYMin meet">
 <g id="arrow_out" transform="scale(0.3 0.3)">
  <a xlink:href="qmuparsererror_8h__dep__incl_org.svg" target="_base">
   <rect id="button" ry="5" rx="5" y="6" x="6" height="38" width="38"
        fill="#f2f5e9" fill-opacity="0.5" stroke="#606060" stroke-width="1.0"/>
   <path id="arrow"
     d="M 11.500037,31.436501 C 11.940474,20.09759 22.043105,11.32322 32.158766,21.979434 L 37.068811,17.246167 C 37.068811,17.246167 37.088388,32 37.088388,32 L 22.160133,31.978069 C 22.160133,31.978069 26.997745,27.140456 26.997745,27.140456 C 18.528582,18.264221 13.291696,25.230495 11.500037,31.436501 z"
     style="fill:#404040;"/>
  </a>
 </g>
</svg>

<style type='text/css'>
<![CDATA[
[data-mouse-over-selected='false'] { opacity: 0.7; }
[data-mouse-over-selected='true']  { opacity: 1.0; }
]]>
</style>
<script type="application/ecmascript"><![CDATA[
document.addEventListener('DOMContentLoaded', (event) => {
  highlightEdges();
  highlightAdjacentNodes();
});
]]></script>
</svg>
