<?xml version="1.0" encoding="UTF-8" standalone="no"?>
<!DOCTYPE svg PUBLIC "-//W3C//DTD SVG 1.1//EN"
 "http://www.w3.org/Graphics/SVG/1.1/DTD/svg11.dtd">
<!-- Generated by graphviz version 2.43.0 (0)
 -->
<!-- Title: DialogSeamlyMePreferences Pages: 1 -->
<svg width="487pt" height="471pt"
 viewBox="0.00 0.00 486.50 471.00" xmlns="http://www.w3.org/2000/svg" xmlns:xlink="http://www.w3.org/1999/xlink">
<g id="graph0" class="graph" transform="scale(1 1) rotate(0) translate(4 467)">
<title>DialogSeamlyMePreferences</title>
<!-- Node1 -->
<g id="Node000001" class="node">
<title>Node1</title>
<g id="a_Node000001"><a xlink:title=" ">
<polygon fill="#999999" stroke="transparent" points="262,-154 84,-154 84,0 262,0 262,-154"/>
<text text-anchor="start" x="102" y="-142" font-family="Helvetica,sans-Serif" font-size="10.00">DialogSeamlyMePreferences</text>
<text text-anchor="start" x="90.5" y="-127" font-family="Helvetica,sans-Serif" font-size="10.00">&#45;</text>
<text text-anchor="start" x="101" y="-127" font-family="Helvetica,sans-Serif" font-size="10.00">ui</text>
<text text-anchor="start" x="90.5" y="-112" font-family="Helvetica,sans-Serif" font-size="10.00">&#45;</text>
<text text-anchor="start" x="101" y="-112" font-family="Helvetica,sans-Serif" font-size="10.00">m_isInitialized</text>
<text text-anchor="start" x="88" y="-97" font-family="Helvetica,sans-Serif" font-size="10.00">+</text>
<text text-anchor="start" x="101" y="-97" font-family="Helvetica,sans-Serif" font-size="10.00">DialogSeamlyMePreferences()</text>
<text text-anchor="start" x="88" y="-82" font-family="Helvetica,sans-Serif" font-size="10.00">+</text>
<text text-anchor="start" x="101" y="-82" font-family="Helvetica,sans-Serif" font-size="10.00">~DialogSeamlyMePreferences()</text>
<text text-anchor="start" x="88" y="-67" font-family="Helvetica,sans-Serif" font-size="10.00">#</text>
<text text-anchor="start" x="101" y="-67" font-family="Helvetica,sans-Serif" font-size="10.00">showEvent()</text>
<text text-anchor="start" x="88" y="-52" font-family="Helvetica,sans-Serif" font-size="10.00">#</text>
<text text-anchor="start" x="101" y="-52" font-family="Helvetica,sans-Serif" font-size="10.00">resizeEvent()</text>
<text text-anchor="start" x="90.5" y="-37" font-family="Helvetica,sans-Serif" font-size="10.00">&#45;</text>
<text text-anchor="start" x="101" y="-37" font-family="Helvetica,sans-Serif" font-size="10.00">Apply()</text>
<text text-anchor="start" x="90.5" y="-22" font-family="Helvetica,sans-Serif" font-size="10.00">&#45;</text>
<text text-anchor="start" x="101" y="-22" font-family="Helvetica,sans-Serif" font-size="10.00">Ok()</text>
<text text-anchor="start" x="90.5" y="-7" font-family="Helvetica,sans-Serif" font-size="10.00">&#45;</text>
<text text-anchor="start" x="101" y="-7" font-family="Helvetica,sans-Serif" font-size="10.00">PageChanged()</text>
<polygon fill="#666666" stroke="#666666" points="84,-137 84,-137 262,-137 262,-137 84,-137"/>
<polygon fill="#666666" stroke="#666666" points="84,-107 84,-107 99,-107 99,-107 84,-107"/>
<polygon fill="#666666" stroke="#666666" points="99,-107 99,-107 262,-107 262,-107 99,-107"/>
<polygon fill="none" stroke="#666666" points="84,0 84,-154 262,-154 262,0 84,0"/>
</a>
</g>
</g>
<!-- Node2 -->
<g id="Node000002" class="node">
<title>Node2</title>
<g id="a_Node000002"><a xlink:title=" ">
<polygon fill="white" stroke="transparent" points="50,-313.5 0,-313.5 0,-264.5 50,-264.5 50,-313.5"/>
<text text-anchor="start" x="5" y="-301" font-family="Helvetica,sans-Serif" font-size="10.00">QDialog</text>
<text text-anchor="start" x="23" y="-286" font-family="Helvetica,sans-Serif" font-size="10.00"> </text>
<text text-anchor="start" x="23" y="-271" font-family="Helvetica,sans-Serif" font-size="10.00"> </text>
<polygon fill="#666666" stroke="#666666" points="0,-296 0,-296 50,-296 50,-296 0,-296"/>
<polygon fill="#666666" stroke="#666666" points="0,-281 0,-281 50,-281 50,-281 0,-281"/>
<polygon fill="none" stroke="#666666" points="0,-264.5 0,-313.5 50,-313.5 50,-264.5 0,-264.5"/>
</a>
</g>
</g>
<!-- Node2&#45;&gt;Node1 -->
<g id="edge1_Node000001_Node000002" class="edge">
<title>Node2&#45;&gt;Node1</title>
<g id="a_edge1_Node000001_Node000002"><a xlink:title=" ">
<path fill="none" stroke="#63b8ff" d="M34.83,-254.42C40.54,-237.66 48.66,-217.5 59,-201 69.13,-184.84 81.54,-168.9 94.4,-154.12"/>
<polygon fill="none" stroke="#63b8ff" points="31.36,-253.76 31.59,-264.35 38.02,-255.93 31.36,-253.76"/>
</a>
</g>
</g>
<!-- Node3 -->
<g id="Node000003" class="node">
<title>Node3</title>
<g id="a_Node000003"><a xlink:href="../../df/de0/classSeamlyMePreferencesConfigurationPage.html" target="_top" xlink:title=" ">
<polygon fill="white" stroke="transparent" points="277.5,-377 68.5,-377 68.5,-201 277.5,-201 277.5,-377"/>
<text text-anchor="start" x="74" y="-365" font-family="Helvetica,sans-Serif" font-size="10.00">SeamlyMePreferencesConfigurationPage</text>
<text text-anchor="start" x="76.5" y="-350" font-family="Helvetica,sans-Serif" font-size="10.00">&#45;</text>
<text text-anchor="start" x="88" y="-350" font-family="Helvetica,sans-Serif" font-size="10.00">ui</text>
<text text-anchor="start" x="76.5" y="-335" font-family="Helvetica,sans-Serif" font-size="10.00">&#45;</text>
<text text-anchor="start" x="88" y="-335" font-family="Helvetica,sans-Serif" font-size="10.00">m_langChanged</text>
<text text-anchor="start" x="76.5" y="-320" font-family="Helvetica,sans-Serif" font-size="10.00">&#45;</text>
<text text-anchor="start" x="88" y="-320" font-family="Helvetica,sans-Serif" font-size="10.00">m_systemChanged</text>
<text text-anchor="start" x="76.5" y="-305" font-family="Helvetica,sans-Serif" font-size="10.00">&#45;</text>
<text text-anchor="start" x="88" y="-305" font-family="Helvetica,sans-Serif" font-size="10.00">m_defGradationChanged</text>
<text text-anchor="start" x="74" y="-290" font-family="Helvetica,sans-Serif" font-size="10.00">+</text>
<text text-anchor="start" x="88" y="-290" font-family="Helvetica,sans-Serif" font-size="10.00">SeamlyMePreferencesConfiguration</text>
<text text-anchor="start" x="88" y="-279" font-family="Helvetica,sans-Serif" font-size="10.00">Page()</text>
<text text-anchor="start" x="74" y="-264" font-family="Helvetica,sans-Serif" font-size="10.00">+</text>
<text text-anchor="start" x="88" y="-264" font-family="Helvetica,sans-Serif" font-size="10.00">~SeamlyMePreferencesConfiguration</text>
<text text-anchor="start" x="88" y="-253" font-family="Helvetica,sans-Serif" font-size="10.00">Page()</text>
<text text-anchor="start" x="74" y="-238" font-family="Helvetica,sans-Serif" font-size="10.00">+</text>
<text text-anchor="start" x="88" y="-238" font-family="Helvetica,sans-Serif" font-size="10.00">Apply()</text>
<text text-anchor="start" x="74" y="-223" font-family="Helvetica,sans-Serif" font-size="10.00">#</text>
<text text-anchor="start" x="88" y="-223" font-family="Helvetica,sans-Serif" font-size="10.00">changeEvent()</text>
<text text-anchor="start" x="76.5" y="-208" font-family="Helvetica,sans-Serif" font-size="10.00">&#45;</text>
<text text-anchor="start" x="88" y="-208" font-family="Helvetica,sans-Serif" font-size="10.00">RetranslateUi()</text>
<polygon fill="#666666" stroke="#666666" points="69,-360 69,-360 278,-360 278,-360 69,-360"/>
<polygon fill="#666666" stroke="#666666" points="69,-300 69,-300 86,-300 86,-300 69,-300"/>
<polygon fill="#666666" stroke="#666666" points="86,-300 86,-300 278,-300 278,-300 86,-300"/>
<polygon fill="none" stroke="#666666" points="68.5,-201 68.5,-377 277.5,-377 277.5,-201 68.5,-201"/>
</a>
</g>
</g>
<!-- Node3&#45;&gt;Node1 -->
<g id="edge2_Node000001_Node000003" class="edge">
<title>Node3&#45;&gt;Node1</title>
<g id="a_edge2_Node000001_Node000003"><a xlink:title=" ">
<path fill="none" stroke="#63b8ff" d="M173,-200.77C173,-189.43 173,-177.81 173,-166.45"/>
<polygon fill="none" stroke="#63b8ff" points="173,-166.25 169,-160.25 173,-154.25 177,-160.25 173,-166.25"/>
</a>
</g>
<text text-anchor="middle" x="227.5" y="-175" font-family="Helvetica,sans-Serif" font-size="10.00" fill="grey"> &#45;m_configurationPage</text>
</g>
<!-- Node4 -->
<g id="Node000004" class="node">
<title>Node4</title>
<g id="a_Node000004"><a xlink:title=" ">
<polygon fill="white" stroke="transparent" points="305.5,-463 252.5,-463 252.5,-414 305.5,-414 305.5,-463"/>
<text text-anchor="start" x="258" y="-450.5" font-family="Helvetica,sans-Serif" font-size="10.00">QWidget</text>
<text text-anchor="start" x="277.5" y="-435.5" font-family="Helvetica,sans-Serif" font-size="10.00"> </text>
<text text-anchor="start" x="277.5" y="-420.5" font-family="Helvetica,sans-Serif" font-size="10.00"> </text>
<polygon fill="#666666" stroke="#666666" points="253,-445.5 253,-445.5 306,-445.5 306,-445.5 253,-445.5"/>
<polygon fill="#666666" stroke="#666666" points="253,-430.5 253,-430.5 306,-430.5 306,-430.5 253,-430.5"/>
<polygon fill="none" stroke="#666666" points="252.5,-414 252.5,-463 305.5,-463 305.5,-414 252.5,-414"/>
</a>
</g>
</g>
<!-- Node4&#45;&gt;Node3 -->
<g id="edge3_Node000003_Node000004" class="edge">
<title>Node4&#45;&gt;Node3</title>
<g id="a_edge3_Node000003_Node000004"><a xlink:title=" ">
<path fill="none" stroke="#63b8ff" d="M256.08,-405.61C249.9,-397.01 242.9,-387.27 235.66,-377.19"/>
<polygon fill="none" stroke="#63b8ff" points="253.29,-407.72 261.97,-413.8 258.98,-403.64 253.29,-407.72"/>
</a>
</g>
</g>
<!-- Node5 -->
<g id="Node000005" class="node">
<title>Node5</title>
<g id="a_Node000005"><a xlink:href="../../d7/d92/classSeamlyMePreferencesPathPage.html" target="_top" xlink:title=" ">
<polygon fill="white" stroke="transparent" points="478.5,-356.5 295.5,-356.5 295.5,-221.5 478.5,-221.5 478.5,-356.5"/>
<text text-anchor="start" x="310.5" y="-344" font-family="Helvetica,sans-Serif" font-size="10.00">SeamlyMePreferencesPathPage</text>
<text text-anchor="start" x="302.5" y="-329" font-family="Helvetica,sans-Serif" font-size="10.00">&#45;</text>
<text text-anchor="start" x="313" y="-329" font-family="Helvetica,sans-Serif" font-size="10.00">ui</text>
<text text-anchor="start" x="300" y="-314" font-family="Helvetica,sans-Serif" font-size="10.00">+</text>
<text text-anchor="start" x="313" y="-314" font-family="Helvetica,sans-Serif" font-size="10.00">SeamlyMePreferencesPathPage()</text>
<text text-anchor="start" x="300" y="-299" font-family="Helvetica,sans-Serif" font-size="10.00">+</text>
<text text-anchor="start" x="313" y="-299" font-family="Helvetica,sans-Serif" font-size="10.00">~SeamlyMePreferencesPath</text>
<text text-anchor="start" x="313" y="-288" font-family="Helvetica,sans-Serif" font-size="10.00">Page()</text>
<text text-anchor="start" x="300" y="-273" font-family="Helvetica,sans-Serif" font-size="10.00">+</text>
<text text-anchor="start" x="313" y="-273" font-family="Helvetica,sans-Serif" font-size="10.00">Apply()</text>
<text text-anchor="start" x="302.5" y="-258" font-family="Helvetica,sans-Serif" font-size="10.00">&#45;</text>
<text text-anchor="start" x="313" y="-258" font-family="Helvetica,sans-Serif" font-size="10.00">InitTable()</text>
<text text-anchor="start" x="302.5" y="-243" font-family="Helvetica,sans-Serif" font-size="10.00">&#45;</text>
<text text-anchor="start" x="313" y="-243" font-family="Helvetica,sans-Serif" font-size="10.00">DefaultPath()</text>
<text text-anchor="start" x="302.5" y="-228" font-family="Helvetica,sans-Serif" font-size="10.00">&#45;</text>
<text text-anchor="start" x="313" y="-228" font-family="Helvetica,sans-Serif" font-size="10.00">EditPath()</text>
<polygon fill="#666666" stroke="#666666" points="296,-339 296,-339 479,-339 479,-339 296,-339"/>
<polygon fill="#666666" stroke="#666666" points="296,-324 296,-324 311,-324 311,-324 296,-324"/>
<polygon fill="#666666" stroke="#666666" points="311,-324 311,-324 479,-324 479,-324 311,-324"/>
<polygon fill="none" stroke="#666666" points="295.5,-221.5 295.5,-356.5 478.5,-356.5 478.5,-221.5 295.5,-221.5"/>
</a>
</g>
</g>
<!-- Node4&#45;&gt;Node5 -->
<g id="edge5_Node000005_Node000004" class="edge">
<title>Node4&#45;&gt;Node5</title>
<g id="a_edge5_Node000005_Node000004"><a xlink:title=" ">
<path fill="none" stroke="#63b8ff" d="M302.27,-405.72C312.81,-391.32 325.7,-373.72 338.21,-356.63"/>
<polygon fill="none" stroke="#63b8ff" points="299.44,-403.67 296.35,-413.8 305.08,-407.8 299.44,-403.67"/>
</a>
</g>
</g>
<!-- Node5&#45;&gt;Node1 -->
<g id="edge4_Node000001_Node000005" class="edge">
<title>Node5&#45;&gt;Node1</title>
<g id="a_edge4_Node000001_Node000005"><a xlink:title=" ">
<path fill="none" stroke="#63b8ff" d="M332.15,-221.3C317.65,-204.71 301.66,-187.31 286,-172 281.27,-167.37 276.33,-162.72 271.29,-158.09"/>
<polygon fill="none" stroke="#63b8ff" points="271.01,-157.84 263.88,-156.79 262.11,-149.8 269.24,-150.85 271.01,-157.84"/>
</a>
</g>
<text text-anchor="middle" x="328.5" y="-175" font-family="Helvetica,sans-Serif" font-size="10.00" fill="grey"> &#45;m_pathPage</text>
</g>
</g>
</svg>
