<?xml version="1.0" encoding="UTF-8" standalone="no"?>
<!DOCTYPE svg PUBLIC "-//W3C//DTD SVG 1.1//EN"
 "http://www.w3.org/Graphics/SVG/1.1/DTD/svg11.dtd">
<!-- Generated by graphviz version 2.43.0 (0)
 -->
<!-- Title: VisPath Pages: 1 -->
<!--zoomable 1364 -->

<svg id="main" version="1.1" xmlns="http://www.w3.org/2000/svg" xmlns:xlink="http://www.w3.org/1999/xlink" xml:space="preserve" onload="init(evt)">
<style type="text/css"><![CDATA[
.node, .edge {opacity: 0.7;}
.node.selected, .edge.selected {opacity: 1;}
.edge:hover path { stroke: red; }
.edge:hover polygon { stroke: red; fill: red; }
]]></style>

<defs>
  <circle id="rim" cx="0" cy="0" r="7"/>
  <circle id="rim2" cx="0" cy="0" r="3.5"/>
  <g id="zoomPlus">
    <use xlink:href="#rim" fill="#404040"><set attributeName="fill" to="#808080" begin="zoomplus.mouseover" end="zoomplus.mouseout"/></use>
    <path d="M-4,0h8M0,-4v8" fill="none" stroke="white" stroke-width="1.5" pointer-events="none"/>
  </g>
  <g id="zoomMin">
    <use xlink:href="#rim" fill="#404040"><set attributeName="fill" to="#808080" begin="zoomminus.mouseover" end="zoomminus.mouseout"/></use>
    <path d="M-4,0h8" fill="none" stroke="white" stroke-width="1.5" pointer-events="none"/>
  </g>
  <g id="arrowUp" transform="translate(30 24)">
    <use xlink:href="#rim"/>
    <path pointer-events="none" fill="none" stroke="white" stroke-width="1.5" d="M0,-3.0v7 M-2.5,-0.5L0,-3.0L2.5,-0.5"/>
  </g>
  <g id="arrowRight" transform="rotate(90) translate(36 -43)">
    <use xlink:href="#rim"/>
    <path pointer-events="none" fill="none" stroke="white" stroke-width="1.5" d="M0,-3.0v7 M-2.5,-0.5L0,-3.0L2.5,-0.5"/>
  </g>
  <g id="arrowDown" transform="rotate(180) translate(-30 -48)">
    <use xlink:href="#rim"/>
    <path pointer-events="none" fill="none" stroke="white" stroke-width="1.5" d="M0,-3.0v7 M-2.5,-0.5L0,-3.0L2.5,-0.5"/>
  </g>
  <g id="arrowLeft" transform="rotate(270) translate(-36 17)">
    <use xlink:href="#rim"/>
    <path pointer-events="none" fill="none" stroke="white" stroke-width="1.5" d="M0,-3.0v7 M-2.5,-0.5L0,-3.0L2.5,-0.5"/>
  </g>
  <g id="resetDef">
    <use xlink:href="#rim2" fill="#404040"><set attributeName="fill" to="#808080" begin="reset.mouseover" end="reset.mouseout"/></use>
  </g>
</defs>
<script type="application/ecmascript">
var viewWidth = 652;
var viewHeight = 1364;
var sectionId = 'dynsection-1';
</script>
<script type="application/ecmascript" xlink:href="../../svg.min.js"/>
<svg id="graph" class="graph">
<g id="viewport">
<title>VisPath</title>
<!-- Node1 -->
<g id="Node000001" class="node">
<title>Node1</title>
<g id="a_Node000001"><a xlink:title=" ">
<polygon fill="#999999" stroke="transparent" points="346.5,-124 255.5,-124 255.5,0 346.5,0 346.5,-124"/>
<text text-anchor="start" x="283" y="-112" font-family="Helvetica,sans-Serif" font-size="10.00">VisPath</text>
<text text-anchor="start" x="299.5" y="-97" font-family="Helvetica,sans-Serif" font-size="10.00"> </text>
<text text-anchor="start" x="260" y="-82" font-family="Helvetica,sans-Serif" font-size="10.00">+</text>
<text text-anchor="start" x="273" y="-82" font-family="Helvetica,sans-Serif" font-size="10.00">VisPath()</text>
<text text-anchor="start" x="260" y="-67" font-family="Helvetica,sans-Serif" font-size="10.00">+</text>
<text text-anchor="start" x="273" y="-67" font-family="Helvetica,sans-Serif" font-size="10.00">~VisPath()</text>
<text text-anchor="start" x="260" y="-52" font-family="Helvetica,sans-Serif" font-size="10.00">+</text>
<text text-anchor="start" x="273" y="-52" font-family="Helvetica,sans-Serif" font-size="10.00">type()</text>
<text text-anchor="start" x="260" y="-37" font-family="Helvetica,sans-Serif" font-size="10.00">#</text>
<text text-anchor="start" x="273" y="-37" font-family="Helvetica,sans-Serif" font-size="10.00">initPen()</text>
<text text-anchor="start" x="260" y="-22" font-family="Helvetica,sans-Serif" font-size="10.00">#</text>
<text text-anchor="start" x="273" y="-22" font-family="Helvetica,sans-Serif" font-size="10.00">AddOnScene()</text>
<text text-anchor="start" x="260" y="-7" font-family="Helvetica,sans-Serif" font-size="10.00">#</text>
<text text-anchor="start" x="273" y="-7" font-family="Helvetica,sans-Serif" font-size="10.00">GetPoint()</text>
<polygon fill="#666666" stroke="#666666" points="256,-107 256,-107 347,-107 347,-107 256,-107"/>
<polygon fill="#666666" stroke="#666666" points="256,-92 256,-92 347,-92 347,-92 256,-92"/>
<polygon fill="none" stroke="#666666" points="255.5,0 255.5,-124 346.5,-124 346.5,0 255.5,0"/>
</a>
</g>
</g>
<!-- Node2 -->
<g id="Node000002" class="node">
<title>Node2</title>
<g id="a_Node000002"><a xlink:href="../../d7/d24/classVisualization.html" target="_top" xlink:title=" ">
<polygon fill="white" stroke="transparent" points="212.5,-750 97.5,-750 97.5,-161 212.5,-161 212.5,-750"/>
<text text-anchor="start" x="123.5" y="-737.5" font-family="Helvetica,sans-Serif" font-size="10.00">Visualization</text>
<text text-anchor="start" x="102" y="-722.5" font-family="Helvetica,sans-Serif" font-size="10.00">#</text>
<text text-anchor="start" x="115" y="-722.5" font-family="Helvetica,sans-Serif" font-size="10.00">scenePos</text>
<text text-anchor="start" x="102" y="-707.5" font-family="Helvetica,sans-Serif" font-size="10.00">#</text>
<text text-anchor="start" x="115" y="-707.5" font-family="Helvetica,sans-Serif" font-size="10.00">mainColor</text>
<text text-anchor="start" x="102" y="-692.5" font-family="Helvetica,sans-Serif" font-size="10.00">#</text>
<text text-anchor="start" x="115" y="-692.5" font-family="Helvetica,sans-Serif" font-size="10.00">supportColor</text>
<text text-anchor="start" x="102" y="-677.5" font-family="Helvetica,sans-Serif" font-size="10.00">#</text>
<text text-anchor="start" x="115" y="-677.5" font-family="Helvetica,sans-Serif" font-size="10.00">lineStyle</text>
<text text-anchor="start" x="102" y="-662.5" font-family="Helvetica,sans-Serif" font-size="10.00">#</text>
<text text-anchor="start" x="115" y="-662.5" font-family="Helvetica,sans-Serif" font-size="10.00">lineWeight</text>
<text text-anchor="start" x="102" y="-647.5" font-family="Helvetica,sans-Serif" font-size="10.00">#</text>
<text text-anchor="start" x="115" y="-647.5" font-family="Helvetica,sans-Serif" font-size="10.00">object1Id</text>
<text text-anchor="start" x="102" y="-632.5" font-family="Helvetica,sans-Serif" font-size="10.00">#</text>
<text text-anchor="start" x="115" y="-632.5" font-family="Helvetica,sans-Serif" font-size="10.00">toolTip</text>
<text text-anchor="start" x="102" y="-617.5" font-family="Helvetica,sans-Serif" font-size="10.00">#</text>
<text text-anchor="start" x="115" y="-617.5" font-family="Helvetica,sans-Serif" font-size="10.00">mode</text>
<text text-anchor="start" x="102" y="-602.5" font-family="Helvetica,sans-Serif" font-size="10.00">+</text>
<text text-anchor="start" x="115" y="-602.5" font-family="Helvetica,sans-Serif" font-size="10.00">Visualization()</text>
<text text-anchor="start" x="102" y="-587.5" font-family="Helvetica,sans-Serif" font-size="10.00">+</text>
<text text-anchor="start" x="115" y="-587.5" font-family="Helvetica,sans-Serif" font-size="10.00">~Visualization()</text>
<text text-anchor="start" x="102" y="-572.5" font-family="Helvetica,sans-Serif" font-size="10.00">+</text>
<text text-anchor="start" x="115" y="-572.5" font-family="Helvetica,sans-Serif" font-size="10.00">RefreshGeometry()</text>
<text text-anchor="start" x="102" y="-557.5" font-family="Helvetica,sans-Serif" font-size="10.00">+</text>
<text text-anchor="start" x="115" y="-557.5" font-family="Helvetica,sans-Serif" font-size="10.00">setObject1Id()</text>
<text text-anchor="start" x="102" y="-542.5" font-family="Helvetica,sans-Serif" font-size="10.00">+</text>
<text text-anchor="start" x="115" y="-542.5" font-family="Helvetica,sans-Serif" font-size="10.00">setLineStyle()</text>
<text text-anchor="start" x="102" y="-527.5" font-family="Helvetica,sans-Serif" font-size="10.00">+</text>
<text text-anchor="start" x="115" y="-527.5" font-family="Helvetica,sans-Serif" font-size="10.00">setLineWeight()</text>
<text text-anchor="start" x="102" y="-512.5" font-family="Helvetica,sans-Serif" font-size="10.00">+</text>
<text text-anchor="start" x="115" y="-512.5" font-family="Helvetica,sans-Serif" font-size="10.00">setScenePos()</text>
<text text-anchor="start" x="102" y="-497.5" font-family="Helvetica,sans-Serif" font-size="10.00">+</text>
<text text-anchor="start" x="115" y="-497.5" font-family="Helvetica,sans-Serif" font-size="10.00">VisualMode()</text>
<text text-anchor="start" x="102" y="-482.5" font-family="Helvetica,sans-Serif" font-size="10.00">+</text>
<text text-anchor="start" x="115" y="-482.5" font-family="Helvetica,sans-Serif" font-size="10.00">setMainColor()</text>
<text text-anchor="start" x="102" y="-467.5" font-family="Helvetica,sans-Serif" font-size="10.00">+</text>
<text text-anchor="start" x="115" y="-467.5" font-family="Helvetica,sans-Serif" font-size="10.00">getData()</text>
<text text-anchor="start" x="102" y="-452.5" font-family="Helvetica,sans-Serif" font-size="10.00">+</text>
<text text-anchor="start" x="115" y="-452.5" font-family="Helvetica,sans-Serif" font-size="10.00">setData()</text>
<text text-anchor="start" x="102" y="-437.5" font-family="Helvetica,sans-Serif" font-size="10.00">+</text>
<text text-anchor="start" x="115" y="-437.5" font-family="Helvetica,sans-Serif" font-size="10.00">GetMode()</text>
<text text-anchor="start" x="102" y="-422.5" font-family="Helvetica,sans-Serif" font-size="10.00">+</text>
<text text-anchor="start" x="115" y="-422.5" font-family="Helvetica,sans-Serif" font-size="10.00">SetMode()</text>
<text text-anchor="start" x="102" y="-407.5" font-family="Helvetica,sans-Serif" font-size="10.00">+</text>
<text text-anchor="start" x="115" y="-407.5" font-family="Helvetica,sans-Serif" font-size="10.00">CurrentToolTip()</text>
<text text-anchor="start" x="102" y="-392.5" font-family="Helvetica,sans-Serif" font-size="10.00">+</text>
<text text-anchor="start" x="115" y="-392.5" font-family="Helvetica,sans-Serif" font-size="10.00">FindLength()</text>
<text text-anchor="start" x="102" y="-377.5" font-family="Helvetica,sans-Serif" font-size="10.00">+</text>
<text text-anchor="start" x="115" y="-377.5" font-family="Helvetica,sans-Serif" font-size="10.00">FindVal()</text>
<text text-anchor="start" x="102" y="-362.5" font-family="Helvetica,sans-Serif" font-size="10.00">+</text>
<text text-anchor="start" x="115" y="-362.5" font-family="Helvetica,sans-Serif" font-size="10.00">mousePos()</text>
<text text-anchor="start" x="102" y="-347.5" font-family="Helvetica,sans-Serif" font-size="10.00">#</text>
<text text-anchor="start" x="115" y="-347.5" font-family="Helvetica,sans-Serif" font-size="10.00">initPen()</text>
<text text-anchor="start" x="102" y="-332.5" font-family="Helvetica,sans-Serif" font-size="10.00">#</text>
<text text-anchor="start" x="115" y="-332.5" font-family="Helvetica,sans-Serif" font-size="10.00">AddOnScene()</text>
<text text-anchor="start" x="102" y="-317.5" font-family="Helvetica,sans-Serif" font-size="10.00">#</text>
<text text-anchor="start" x="115" y="-317.5" font-family="Helvetica,sans-Serif" font-size="10.00">InitPoint()</text>
<text text-anchor="start" x="102" y="-302.5" font-family="Helvetica,sans-Serif" font-size="10.00">#</text>
<text text-anchor="start" x="115" y="-302.5" font-family="Helvetica,sans-Serif" font-size="10.00">DrawPoint()</text>
<text text-anchor="start" x="102" y="-287.5" font-family="Helvetica,sans-Serif" font-size="10.00">#</text>
<text text-anchor="start" x="115" y="-287.5" font-family="Helvetica,sans-Serif" font-size="10.00">DrawLine()</text>
<text text-anchor="start" x="102" y="-272.5" font-family="Helvetica,sans-Serif" font-size="10.00">#</text>
<text text-anchor="start" x="115" y="-272.5" font-family="Helvetica,sans-Serif" font-size="10.00">DrawPath()</text>
<text text-anchor="start" x="102" y="-257.5" font-family="Helvetica,sans-Serif" font-size="10.00">#</text>
<text text-anchor="start" x="115" y="-257.5" font-family="Helvetica,sans-Serif" font-size="10.00">DrawPath()</text>
<text text-anchor="start" x="102" y="-242.5" font-family="Helvetica,sans-Serif" font-size="10.00">#</text>
<text text-anchor="start" x="115" y="-242.5" font-family="Helvetica,sans-Serif" font-size="10.00">drawArrowedLine()</text>
<text text-anchor="start" x="102" y="-227.5" font-family="Helvetica,sans-Serif" font-size="10.00">#</text>
<text text-anchor="start" x="115" y="-227.5" font-family="Helvetica,sans-Serif" font-size="10.00">drawArrow()</text>
<text text-anchor="start" x="102" y="-212.5" font-family="Helvetica,sans-Serif" font-size="10.00">#</text>
<text text-anchor="start" x="115" y="-212.5" font-family="Helvetica,sans-Serif" font-size="10.00">addItem()</text>
<text text-anchor="start" x="102" y="-197.5" font-family="Helvetica,sans-Serif" font-size="10.00">#</text>
<text text-anchor="start" x="115" y="-197.5" font-family="Helvetica,sans-Serif" font-size="10.00">InitItem()</text>
<text text-anchor="start" x="102" y="-182.5" font-family="Helvetica,sans-Serif" font-size="10.00">#</text>
<text text-anchor="start" x="115" y="-182.5" font-family="Helvetica,sans-Serif" font-size="10.00">GetPointItem()</text>
<text text-anchor="start" x="104.5" y="-167.5" font-family="Helvetica,sans-Serif" font-size="10.00">&#45;</text>
<text text-anchor="start" x="115" y="-167.5" font-family="Helvetica,sans-Serif" font-size="10.00">initPointItem()</text>
<polygon fill="#666666" stroke="#666666" points="98,-732.5 98,-732.5 213,-732.5 213,-732.5 98,-732.5"/>
<polygon fill="#666666" stroke="#666666" points="98,-612.5 98,-612.5 113,-612.5 113,-612.5 98,-612.5"/>
<polygon fill="#666666" stroke="#666666" points="113,-612.5 113,-612.5 213,-612.5 213,-612.5 113,-612.5"/>
<polygon fill="none" stroke="#666666" points="97.5,-161 97.5,-750 212.5,-750 212.5,-161 97.5,-161"/>
</a>
</g>
</g>
<!-- Node2&#45;&gt;Node1 -->
<g id="edge1_Node000001_Node000002" class="edge">
<title>Node2&#45;&gt;Node1</title>
<g id="a_edge1_Node000001_Node000002"><a xlink:title=" ">
<path fill="none" stroke="#63b8ff" d="M216.11,-290.63C238.1,-231.68 261.56,-168.76 278.23,-124.05"/>
<polygon fill="none" stroke="#63b8ff" points="212.81,-289.46 212.6,-300.05 219.37,-291.9 212.81,-289.46"/>
</a>
</g>
</g>
<!-- Node3 -->
<g id="Node000003" class="node">
<title>Node3</title>
<g id="a_Node000003"><a xlink:title=" ">
<polygon fill="white" stroke="transparent" points="50,-1101 0,-1101 0,-1052 50,-1052 50,-1101"/>
<text text-anchor="start" x="5" y="-1088.5" font-family="Helvetica,sans-Serif" font-size="10.00">QObject</text>
<text text-anchor="start" x="23" y="-1073.5" font-family="Helvetica,sans-Serif" font-size="10.00"> </text>
<text text-anchor="start" x="23" y="-1058.5" font-family="Helvetica,sans-Serif" font-size="10.00"> </text>
<polygon fill="#666666" stroke="#666666" points="0,-1083.5 0,-1083.5 50,-1083.5 50,-1083.5 0,-1083.5"/>
<polygon fill="#666666" stroke="#666666" points="0,-1068.5 0,-1068.5 50,-1068.5 50,-1068.5 0,-1068.5"/>
<polygon fill="none" stroke="#666666" points="0,-1052 0,-1101 50,-1101 50,-1052 0,-1052"/>
</a>
</g>
</g>
<!-- Node3&#45;&gt;Node2 -->
<g id="edge2_Node000002_Node000003" class="edge">
<title>Node3&#45;&gt;Node2</title>
<g id="a_edge2_Node000002_Node000003"><a xlink:title=" ">
<path fill="none" stroke="#63b8ff" d="M27.44,-1041.71C31.63,-989.04 41.46,-884.35 59,-797 69.28,-745.82 83.31,-691.08 97.48,-640.8"/>
<polygon fill="none" stroke="#63b8ff" points="23.94,-1041.59 26.66,-1051.83 30.92,-1042.13 23.94,-1041.59"/>
</a>
</g>
</g>
<!-- Node4 -->
<g id="Node000004" class="node">
<title>Node4</title>
<g id="a_Node000004"><a xlink:href="../../d2/d83/classVContainer.html" target="_top" xlink:title="The VContainer class container of all variables.">
<polygon fill="white" stroke="transparent" points="241.5,-1356 68.5,-1356 68.5,-797 241.5,-797 241.5,-1356"/>
<text text-anchor="start" x="128" y="-1343.5" font-family="Helvetica,sans-Serif" font-size="10.00">VContainer</text>
<text text-anchor="start" x="75.5" y="-1328.5" font-family="Helvetica,sans-Serif" font-size="10.00">&#45;</text>
<text text-anchor="start" x="86" y="-1328.5" font-family="Helvetica,sans-Serif" font-size="10.00">d</text>
<text text-anchor="start" x="75.5" y="-1313.5" font-family="Helvetica,sans-Serif" font-size="10.00">&#45;</text>
<text text-anchor="start" x="86" y="-1313.5" font-family="Helvetica,sans-Serif" font-size="10.00">_id</text>
<text text-anchor="start" x="75.5" y="-1298.5" font-family="Helvetica,sans-Serif" font-size="10.00">&#45;</text>
<text text-anchor="start" x="86" y="-1298.5" font-family="Helvetica,sans-Serif" font-size="10.00">_size</text>
<text text-anchor="start" x="75.5" y="-1283.5" font-family="Helvetica,sans-Serif" font-size="10.00">&#45;</text>
<text text-anchor="start" x="86" y="-1283.5" font-family="Helvetica,sans-Serif" font-size="10.00">_height</text>
<text text-anchor="start" x="75.5" y="-1268.5" font-family="Helvetica,sans-Serif" font-size="10.00">&#45;</text>
<text text-anchor="start" x="86" y="-1268.5" font-family="Helvetica,sans-Serif" font-size="10.00">uniqueNames</text>
<text text-anchor="start" x="73" y="-1253.5" font-family="Helvetica,sans-Serif" font-size="10.00">+</text>
<text text-anchor="start" x="86" y="-1253.5" font-family="Helvetica,sans-Serif" font-size="10.00">VContainer()</text>
<text text-anchor="start" x="73" y="-1238.5" font-family="Helvetica,sans-Serif" font-size="10.00">+</text>
<text text-anchor="start" x="86" y="-1238.5" font-family="Helvetica,sans-Serif" font-size="10.00">VContainer()</text>
<text text-anchor="start" x="73" y="-1223.5" font-family="Helvetica,sans-Serif" font-size="10.00">+</text>
<text text-anchor="start" x="86" y="-1223.5" font-family="Helvetica,sans-Serif" font-size="10.00">~VContainer()</text>
<text text-anchor="start" x="73" y="-1208.5" font-family="Helvetica,sans-Serif" font-size="10.00">+</text>
<text text-anchor="start" x="86" y="-1208.5" font-family="Helvetica,sans-Serif" font-size="10.00">operator=()</text>
<text text-anchor="start" x="73" y="-1193.5" font-family="Helvetica,sans-Serif" font-size="10.00">+</text>
<text text-anchor="start" x="86" y="-1193.5" font-family="Helvetica,sans-Serif" font-size="10.00">Swap()</text>
<text text-anchor="start" x="73" y="-1178.5" font-family="Helvetica,sans-Serif" font-size="10.00">+</text>
<text text-anchor="start" x="86" y="-1178.5" font-family="Helvetica,sans-Serif" font-size="10.00">GeometricObject()</text>
<text text-anchor="start" x="73" y="-1163.5" font-family="Helvetica,sans-Serif" font-size="10.00">+</text>
<text text-anchor="start" x="86" y="-1163.5" font-family="Helvetica,sans-Serif" font-size="10.00">GetGObject()</text>
<text text-anchor="start" x="73" y="-1148.5" font-family="Helvetica,sans-Serif" font-size="10.00">+</text>
<text text-anchor="start" x="86" y="-1148.5" font-family="Helvetica,sans-Serif" font-size="10.00">GetPiece()</text>
<text text-anchor="start" x="73" y="-1133.5" font-family="Helvetica,sans-Serif" font-size="10.00">+</text>
<text text-anchor="start" x="86" y="-1133.5" font-family="Helvetica,sans-Serif" font-size="10.00">GetPiecePath()</text>
<text text-anchor="start" x="73" y="-1118.5" font-family="Helvetica,sans-Serif" font-size="10.00">+</text>
<text text-anchor="start" x="86" y="-1118.5" font-family="Helvetica,sans-Serif" font-size="10.00">GetVariable()</text>
<text text-anchor="start" x="86" y="-1103.5" font-family="Helvetica,sans-Serif" font-size="10.00">and 34 more...</text>
<text text-anchor="start" x="73" y="-1088.5" font-family="Helvetica,sans-Serif" font-size="10.00">+</text>
<text text-anchor="start" x="86" y="-1088.5" font-family="Helvetica,sans-Serif" font-size="10.00">GetFakeGObject()</text>
<text text-anchor="start" x="73" y="-1073.5" font-family="Helvetica,sans-Serif" font-size="10.00">+</text>
<text text-anchor="start" x="86" y="-1073.5" font-family="Helvetica,sans-Serif" font-size="10.00">getId()</text>
<text text-anchor="start" x="73" y="-1058.5" font-family="Helvetica,sans-Serif" font-size="10.00">+</text>
<text text-anchor="start" x="86" y="-1058.5" font-family="Helvetica,sans-Serif" font-size="10.00">getNextId()</text>
<text text-anchor="start" x="73" y="-1043.5" font-family="Helvetica,sans-Serif" font-size="10.00">+</text>
<text text-anchor="start" x="86" y="-1043.5" font-family="Helvetica,sans-Serif" font-size="10.00">UpdateId()</text>
<text text-anchor="start" x="73" y="-1028.5" font-family="Helvetica,sans-Serif" font-size="10.00">+</text>
<text text-anchor="start" x="86" y="-1028.5" font-family="Helvetica,sans-Serif" font-size="10.00">ClearUniqueNames()</text>
<text text-anchor="start" x="73" y="-1013.5" font-family="Helvetica,sans-Serif" font-size="10.00">+</text>
<text text-anchor="start" x="86" y="-1013.5" font-family="Helvetica,sans-Serif" font-size="10.00">ClearUniqueIncrementNames()</text>
<text text-anchor="start" x="73" y="-998.5" font-family="Helvetica,sans-Serif" font-size="10.00">+</text>
<text text-anchor="start" x="86" y="-998.5" font-family="Helvetica,sans-Serif" font-size="10.00">SetSize()</text>
<text text-anchor="start" x="73" y="-983.5" font-family="Helvetica,sans-Serif" font-size="10.00">+</text>
<text text-anchor="start" x="86" y="-983.5" font-family="Helvetica,sans-Serif" font-size="10.00">SetHeight()</text>
<text text-anchor="start" x="73" y="-968.5" font-family="Helvetica,sans-Serif" font-size="10.00">+</text>
<text text-anchor="start" x="86" y="-968.5" font-family="Helvetica,sans-Serif" font-size="10.00">size()</text>
<text text-anchor="start" x="73" y="-953.5" font-family="Helvetica,sans-Serif" font-size="10.00">+</text>
<text text-anchor="start" x="86" y="-953.5" font-family="Helvetica,sans-Serif" font-size="10.00">rsize()</text>
<text text-anchor="start" x="73" y="-938.5" font-family="Helvetica,sans-Serif" font-size="10.00">+</text>
<text text-anchor="start" x="86" y="-938.5" font-family="Helvetica,sans-Serif" font-size="10.00">height()</text>
<text text-anchor="start" x="73" y="-923.5" font-family="Helvetica,sans-Serif" font-size="10.00">+</text>
<text text-anchor="start" x="86" y="-923.5" font-family="Helvetica,sans-Serif" font-size="10.00">rheight()</text>
<text text-anchor="start" x="73" y="-908.5" font-family="Helvetica,sans-Serif" font-size="10.00">+</text>
<text text-anchor="start" x="86" y="-908.5" font-family="Helvetica,sans-Serif" font-size="10.00">IsUnique()</text>
<text text-anchor="start" x="73" y="-893.5" font-family="Helvetica,sans-Serif" font-size="10.00">+</text>
<text text-anchor="start" x="86" y="-893.5" font-family="Helvetica,sans-Serif" font-size="10.00">AllUniqueNames()</text>
<text text-anchor="start" x="75.5" y="-878.5" font-family="Helvetica,sans-Serif" font-size="10.00">&#45;</text>
<text text-anchor="start" x="86" y="-878.5" font-family="Helvetica,sans-Serif" font-size="10.00">AddCurve()</text>
<text text-anchor="start" x="75.5" y="-863.5" font-family="Helvetica,sans-Serif" font-size="10.00">&#45;</text>
<text text-anchor="start" x="86" y="-863.5" font-family="Helvetica,sans-Serif" font-size="10.00">qHash()</text>
<text text-anchor="start" x="75.5" y="-848.5" font-family="Helvetica,sans-Serif" font-size="10.00">&#45;</text>
<text text-anchor="start" x="86" y="-848.5" font-family="Helvetica,sans-Serif" font-size="10.00">GetObject()</text>
<text text-anchor="start" x="75.5" y="-833.5" font-family="Helvetica,sans-Serif" font-size="10.00">&#45;</text>
<text text-anchor="start" x="86" y="-833.5" font-family="Helvetica,sans-Serif" font-size="10.00">UpdateObject()</text>
<text text-anchor="start" x="75.5" y="-818.5" font-family="Helvetica,sans-Serif" font-size="10.00">&#45;</text>
<text text-anchor="start" x="86" y="-818.5" font-family="Helvetica,sans-Serif" font-size="10.00">DataVar()</text>
<text text-anchor="start" x="75.5" y="-803.5" font-family="Helvetica,sans-Serif" font-size="10.00">&#45;</text>
<text text-anchor="start" x="86" y="-803.5" font-family="Helvetica,sans-Serif" font-size="10.00">AddObject()</text>
<polygon fill="#666666" stroke="#666666" points="69,-1338.5 69,-1338.5 242,-1338.5 242,-1338.5 69,-1338.5"/>
<polygon fill="#666666" stroke="#666666" points="69,-1263.5 69,-1263.5 84,-1263.5 84,-1263.5 69,-1263.5"/>
<polygon fill="#666666" stroke="#666666" points="84,-1263.5 84,-1263.5 242,-1263.5 242,-1263.5 84,-1263.5"/>
<polygon fill="none" stroke="#666666" points="68.5,-797 68.5,-1356 241.5,-1356 241.5,-797 68.5,-797"/>
</a>
</g>
</g>
<!-- Node4&#45;&gt;Node2 -->
<g id="edge3_Node000002_Node000004" class="edge">
<title>Node4&#45;&gt;Node2</title>
<g id="a_edge3_Node000002_Node000004"><a xlink:title=" ">
<path fill="none" stroke="#63b8ff" d="M155,-796.78C155,-785.47 155,-774.11 155,-762.74"/>
<polygon fill="none" stroke="#63b8ff" points="155,-762.42 151,-756.42 155,-750.42 159,-756.42 155,-762.42"/>
</a>
</g>
<text text-anchor="middle" x="172" y="-771" font-family="Helvetica,sans-Serif" font-size="10.00" fill="grey"> #data</text>
</g>
<!-- Node5 -->
<g id="Node000005" class="node">
<title>Node5</title>
<g id="a_Node000005"><a xlink:href="../../d3/d85/classVCurvePathItem.html" target="_top" xlink:title=" ">
<polygon fill="white" stroke="transparent" points="476.5,-532.5 353.5,-532.5 353.5,-378.5 476.5,-378.5 476.5,-532.5"/>
<text text-anchor="start" x="376" y="-520.5" font-family="Helvetica,sans-Serif" font-size="10.00">VCurvePathItem</text>
<text text-anchor="start" x="413.5" y="-505.5" font-family="Helvetica,sans-Serif" font-size="10.00"> </text>
<text text-anchor="start" x="358" y="-490.5" font-family="Helvetica,sans-Serif" font-size="10.00">+</text>
<text text-anchor="start" x="371" y="-490.5" font-family="Helvetica,sans-Serif" font-size="10.00">VCurvePathItem()</text>
<text text-anchor="start" x="358" y="-475.5" font-family="Helvetica,sans-Serif" font-size="10.00">+</text>
<text text-anchor="start" x="371" y="-475.5" font-family="Helvetica,sans-Serif" font-size="10.00">~VCurvePathItem()</text>
<text text-anchor="start" x="358" y="-460.5" font-family="Helvetica,sans-Serif" font-size="10.00">+</text>
<text text-anchor="start" x="371" y="-460.5" font-family="Helvetica,sans-Serif" font-size="10.00">shape()</text>
<text text-anchor="start" x="358" y="-445.5" font-family="Helvetica,sans-Serif" font-size="10.00">+</text>
<text text-anchor="start" x="371" y="-445.5" font-family="Helvetica,sans-Serif" font-size="10.00">paint()</text>
<text text-anchor="start" x="358" y="-430.5" font-family="Helvetica,sans-Serif" font-size="10.00">+</text>
<text text-anchor="start" x="371" y="-430.5" font-family="Helvetica,sans-Serif" font-size="10.00">type()</text>
<text text-anchor="start" x="358" y="-415.5" font-family="Helvetica,sans-Serif" font-size="10.00">+</text>
<text text-anchor="start" x="371" y="-415.5" font-family="Helvetica,sans-Serif" font-size="10.00">SetDirectionArrows()</text>
<text text-anchor="start" x="358" y="-400.5" font-family="Helvetica,sans-Serif" font-size="10.00">+</text>
<text text-anchor="start" x="371" y="-400.5" font-family="Helvetica,sans-Serif" font-size="10.00">SetPoints()</text>
<text text-anchor="start" x="358" y="-385.5" font-family="Helvetica,sans-Serif" font-size="10.00">#</text>
<text text-anchor="start" x="371" y="-385.5" font-family="Helvetica,sans-Serif" font-size="10.00">ScalePenWidth()</text>
<polygon fill="#666666" stroke="#666666" points="354,-515.5 354,-515.5 477,-515.5 477,-515.5 354,-515.5"/>
<polygon fill="#666666" stroke="#666666" points="354,-500.5 354,-500.5 477,-500.5 477,-500.5 354,-500.5"/>
<polygon fill="none" stroke="#666666" points="353.5,-378.5 353.5,-532.5 476.5,-532.5 476.5,-378.5 353.5,-378.5"/>
</a>
</g>
</g>
<!-- Node5&#45;&gt;Node1 -->
<g id="edge4_Node000001_Node000005" class="edge">
<title>Node5&#45;&gt;Node1</title>
<g id="a_edge4_Node000001_Node000005"><a xlink:title=" ">
<path fill="none" stroke="#63b8ff" d="M389.91,-368.32C368.38,-294.39 337.9,-189.71 318.8,-124.13"/>
<polygon fill="none" stroke="#63b8ff" points="386.59,-369.46 392.75,-378.09 393.31,-367.51 386.59,-369.46"/>
</a>
</g>
</g>
<!-- Node6 -->
<g id="Node000006" class="node">
<title>Node6</title>
<g id="a_Node000006"><a xlink:title=" ">
<polygon fill="white" stroke="transparent" points="364,-1101 260,-1101 260,-1052 364,-1052 364,-1101"/>
<text text-anchor="start" x="265" y="-1088.5" font-family="Helvetica,sans-Serif" font-size="10.00">QGraphicsPathItem</text>
<text text-anchor="start" x="310" y="-1073.5" font-family="Helvetica,sans-Serif" font-size="10.00"> </text>
<text text-anchor="start" x="310" y="-1058.5" font-family="Helvetica,sans-Serif" font-size="10.00"> </text>
<polygon fill="#666666" stroke="#666666" points="260,-1083.5 260,-1083.5 364,-1083.5 364,-1083.5 260,-1083.5"/>
<polygon fill="#666666" stroke="#666666" points="260,-1068.5 260,-1068.5 364,-1068.5 364,-1068.5 260,-1068.5"/>
<polygon fill="none" stroke="#666666" points="260,-1052 260,-1101 364,-1101 364,-1052 260,-1052"/>
</a>
</g>
</g>
<!-- Node6&#45;&gt;Node5 -->
<g id="edge5_Node000005_Node000006" class="edge">
<title>Node6&#45;&gt;Node5</title>
<g id="a_edge5_Node000005_Node000006"><a xlink:title=" ">
<path fill="none" stroke="#63b8ff" d="M317.58,-1041.97C333.56,-945.93 379.8,-668.02 402.35,-532.55"/>
<polygon fill="none" stroke="#63b8ff" points="314.1,-1041.55 315.91,-1051.99 321.01,-1042.7 314.1,-1041.55"/>
</a>
</g>
</g>
<!-- Node7 -->
<g id="Node000007" class="node">
<title>Node7</title>
<g id="a_Node000007"><a xlink:href="../../d5/dc2/classQVector.html" target="_top" xlink:title=" ">
<polygon fill="white" stroke="transparent" points="516,-1106.5 382,-1106.5 382,-1046.5 516,-1046.5 516,-1106.5"/>
<text text-anchor="start" x="387" y="-1094.5" font-family="Helvetica,sans-Serif" font-size="10.00">QVector&lt; QPair&lt; QLineF,</text>
<text text-anchor="start" x="419" y="-1083.5" font-family="Helvetica,sans-Serif" font-size="10.00"> QLineF &gt; &gt;</text>
<text text-anchor="start" x="447" y="-1068.5" font-family="Helvetica,sans-Serif" font-size="10.00"> </text>
<text text-anchor="start" x="447" y="-1053.5" font-family="Helvetica,sans-Serif" font-size="10.00"> </text>
<polygon fill="#666666" stroke="#666666" points="382,-1078.5 382,-1078.5 516,-1078.5 516,-1078.5 382,-1078.5"/>
<polygon fill="#666666" stroke="#666666" points="382,-1063.5 382,-1063.5 516,-1063.5 516,-1063.5 382,-1063.5"/>
<polygon fill="none" stroke="#666666" points="382,-1046.5 382,-1106.5 516,-1106.5 516,-1046.5 382,-1046.5"/>
</a>
</g>
</g>
<!-- Node7&#45;&gt;Node5 -->
<g id="edge6_Node000005_Node000007" class="edge">
<title>Node7&#45;&gt;Node5</title>
<g id="a_edge6_Node000005_Node000007"><a xlink:title=" ">
<path fill="none" stroke="#63b8ff" d="M447.41,-1046.47C442.52,-957.52 427.62,-686.18 419.84,-544.59"/>
<polygon fill="none" stroke="#63b8ff" points="419.84,-544.53 415.51,-538.76 419.18,-532.55 423.5,-538.32 419.84,-544.53"/>
</a>
</g>
<text text-anchor="middle" x="482.5" y="-771" font-family="Helvetica,sans-Serif" font-size="10.00" fill="grey"> &#45;m_directionArrows</text>
</g>
<!-- Node8 -->
<g id="Node000008" class="node">
<title>Node8</title>
<g id="a_Node000008"><a xlink:href="../../d5/dc2/classQVector.html" target="_top" xlink:title=" ">
<polygon fill="white" stroke="transparent" points="644,-1101 534,-1101 534,-1052 644,-1052 644,-1101"/>
<text text-anchor="start" x="539" y="-1088.5" font-family="Helvetica,sans-Serif" font-size="10.00">QVector&lt; QPointF &gt;</text>
<text text-anchor="start" x="587" y="-1073.5" font-family="Helvetica,sans-Serif" font-size="10.00"> </text>
<text text-anchor="start" x="587" y="-1058.5" font-family="Helvetica,sans-Serif" font-size="10.00"> </text>
<polygon fill="#666666" stroke="#666666" points="534,-1083.5 534,-1083.5 644,-1083.5 644,-1083.5 534,-1083.5"/>
<polygon fill="#666666" stroke="#666666" points="534,-1068.5 534,-1068.5 644,-1068.5 644,-1068.5 534,-1068.5"/>
<polygon fill="none" stroke="#666666" points="534,-1052 534,-1101 644,-1101 644,-1052 534,-1052"/>
</a>
</g>
</g>
<!-- Node8&#45;&gt;Node5 -->
<g id="edge7_Node000005_Node000008" class="edge">
<title>Node8&#45;&gt;Node5</title>
<g id="a_edge7_Node000005_Node000008"><a xlink:title=" ">
<path fill="none" stroke="#63b8ff" d="M586.53,-1051.61C580.78,-999.43 564.74,-871.62 536,-768 514.5,-690.5 480.81,-605.6 454.43,-544.03"/>
<polygon fill="none" stroke="#63b8ff" points="454.34,-543.83 448.29,-539.91 449.59,-532.81 455.64,-536.74 454.34,-543.83"/>
</a>
</g>
<text text-anchor="middle" x="564" y="-771" font-family="Helvetica,sans-Serif" font-size="10.00" fill="grey"> &#45;m_points</text>
</g>
</g>
</svg>

<g id="navigator" transform="translate(0 0)" fill="#404254">
  <rect fill="#f2f5e9" fill-opacity="0.5" stroke="#606060" stroke-width=".5" x="0" y="0" width="60" height="60"/>
  <use id="zoomplus" xlink:href="#zoomPlus" x="17" y="9" onmousedown="handleZoom(evt,'in')"/>
  <use id="zoomminus" xlink:href="#zoomMin" x="42" y="9" onmousedown="handleZoom(evt,'out')"/>
  <use id="reset" xlink:href="#resetDef" x="30" y="36" onmousedown="handleReset()"/>
   <use id="arrowup" xlink:href="#arrowUp" x="0" y="0" onmousedown="handlePan(0,-1)"/>
  <use id="arrowright" xlink:href="#arrowRight" x="0" y="0" onmousedown="handlePan(1,0)"/>
  <use id="arrowdown" xlink:href="#arrowDown" x="0" y="0" onmousedown="handlePan(0,1)"/>
  <use id="arrowleft" xlink:href="#arrowLeft" x="0" y="0" onmousedown="handlePan(-1,0)"/>
</g>
<svg viewBox="0 0 15 15" width="100%" height="30px" preserveAspectRatio="xMaxYMin meet">
 <g id="arrow_out" transform="scale(0.3 0.3)">
  <a xlink:href="classVisPath__coll__graph_org.svg" target="_base">
   <rect id="button" ry="5" rx="5" y="6" x="6" height="38" width="38"
        fill="#f2f5e9" fill-opacity="0.5" stroke="#606060" stroke-width="1.0"/>
   <path id="arrow"
     d="M 11.500037,31.436501 C 11.940474,20.09759 22.043105,11.32322 32.158766,21.979434 L 37.068811,17.246167 C 37.068811,17.246167 37.088388,32 37.088388,32 L 22.160133,31.978069 C 22.160133,31.978069 26.997745,27.140456 26.997745,27.140456 C 18.528582,18.264221 13.291696,25.230495 11.500037,31.436501 z"
     style="fill:#404040;"/>
  </a>
 </g>
</svg>

<style type='text/css'>
<![CDATA[
[data-mouse-over-selected='false'] { opacity: 0.7; }
[data-mouse-over-selected='true']  { opacity: 1.0; }
]]>
</style>
<script type="application/ecmascript"><![CDATA[
document.addEventListener('DOMContentLoaded', (event) => {
  highlightEdges();
  highlightAdjacentNodes();
});
]]></script>
</svg>
