<?xml version="1.0" encoding="UTF-8" standalone="no"?>
<!DOCTYPE svg PUBLIC "-//W3C//DTD SVG 1.1//EN"
 "http://www.w3.org/Graphics/SVG/1.1/DTD/svg11.dtd">
<!-- Generated by graphviz version 2.43.0 (0)
 -->
<!-- Title: src/libs/vpatterndb/variables/vlineangle.h Pages: 1 -->
<svg width="6501pt" height="374pt"
 viewBox="0.00 0.00 6501.38 374.00" xmlns="http://www.w3.org/2000/svg" xmlns:xlink="http://www.w3.org/1999/xlink">
<g id="graph0" class="graph" transform="scale(1 1) rotate(0) translate(4 370)">
<title>src/libs/vpatterndb/variables/vlineangle.h</title>
<polygon fill="white" stroke="transparent" points="-4,4 -4,-370 6497.38,-370 6497.38,4 -4,4"/>
<!-- Node1 -->
<g id="node1" class="node">
<title>Node1</title>
<g id="a_node1"><a xlink:title=" ">
<polygon fill="#bfbfbf" stroke="black" points="5892,-335.5 5892,-365.5 6020,-365.5 6020,-335.5 5892,-335.5"/>
<text text-anchor="start" x="5900" y="-353.5" font-family="Helvetica,sans-Serif" font-size="10.00">src/libs/vpatterndb</text>
<text text-anchor="middle" x="5956" y="-342.5" font-family="Helvetica,sans-Serif" font-size="10.00">/variables/vlineangle.h</text>
</a>
</g>
</g>
<!-- Node2 -->
<g id="node2" class="node">
<title>Node2</title>
<g id="a_node2"><a xlink:href="../../d6/d98/vlineangle_8cpp.html" target="_top" xlink:title=" ">
<polygon fill="white" stroke="black" points="5745.5,-268.5 5745.5,-298.5 5884.5,-298.5 5884.5,-268.5 5745.5,-268.5"/>
<text text-anchor="start" x="5753.5" y="-286.5" font-family="Helvetica,sans-Serif" font-size="10.00">src/libs/vpatterndb</text>
<text text-anchor="middle" x="5815" y="-275.5" font-family="Helvetica,sans-Serif" font-size="10.00">/variables/vlineangle.cpp</text>
</a>
</g>
</g>
<!-- Node1&#45;&gt;Node2 -->
<g id="edge1" class="edge">
<title>Node1&#45;&gt;Node2</title>
<path fill="none" stroke="midnightblue" d="M5916.15,-331.13C5893.75,-320.8 5866.22,-308.11 5845.54,-298.58"/>
<polygon fill="midnightblue" stroke="midnightblue" points="5914.86,-334.39 5925.41,-335.4 5917.79,-328.03 5914.86,-334.39"/>
</g>
<!-- Node3 -->
<g id="node3" class="node">
<title>Node3</title>
<g id="a_node3"><a xlink:href="../../de/dca/variables_8h.html" target="_top" xlink:title=" ">
<polygon fill="white" stroke="black" points="5902.5,-268.5 5902.5,-298.5 6009.5,-298.5 6009.5,-268.5 5902.5,-268.5"/>
<text text-anchor="start" x="5910.5" y="-286.5" font-family="Helvetica,sans-Serif" font-size="10.00">src/libs/vpatterndb</text>
<text text-anchor="middle" x="5956" y="-275.5" font-family="Helvetica,sans-Serif" font-size="10.00">/variables.h</text>
</a>
</g>
</g>
<!-- Node1&#45;&gt;Node3 -->
<g id="edge2" class="edge">
<title>Node1&#45;&gt;Node3</title>
<path fill="none" stroke="midnightblue" d="M5956,-325.11C5956,-316.15 5956,-306.32 5956,-298.58"/>
<polygon fill="midnightblue" stroke="midnightblue" points="5952.5,-325.4 5956,-335.4 5959.5,-325.4 5952.5,-325.4"/>
</g>
<!-- Node37 -->
<g id="node32" class="node">
<title>Node37</title>
<g id="a_node32"><a xlink:href="../../d6/d46/vcontainer_8cpp.html" target="_top" xlink:title=" ">
<polygon fill="white" stroke="black" points="5611.5,-67.5 5611.5,-97.5 5718.5,-97.5 5718.5,-67.5 5611.5,-67.5"/>
<text text-anchor="start" x="5619.5" y="-85.5" font-family="Helvetica,sans-Serif" font-size="10.00">src/libs/vpatterndb</text>
<text text-anchor="middle" x="5665" y="-74.5" font-family="Helvetica,sans-Serif" font-size="10.00">/vcontainer.cpp</text>
</a>
</g>
</g>
<!-- Node1&#45;&gt;Node37 -->
<g id="edge60" class="edge">
<title>Node1&#45;&gt;Node37</title>
<path fill="none" stroke="midnightblue" d="M6030.38,-343.84C6201.66,-328.27 6599.39,-276.06 6466,-134 6440.4,-106.73 5894.09,-89.68 5718.69,-84.89"/>
<polygon fill="midnightblue" stroke="midnightblue" points="6029.82,-340.38 6020.17,-344.75 6030.44,-347.35 6029.82,-340.38"/>
</g>
<!-- Node4 -->
<g id="node4" class="node">
<title>Node4</title>
<g id="a_node4"><a xlink:href="../../d3/df7/vcontainer_8h.html" target="_top" xlink:title=" ">
<polygon fill="white" stroke="black" points="5456.5,-201.5 5456.5,-231.5 5563.5,-231.5 5563.5,-201.5 5456.5,-201.5"/>
<text text-anchor="start" x="5464.5" y="-219.5" font-family="Helvetica,sans-Serif" font-size="10.00">src/libs/vpatterndb</text>
<text text-anchor="middle" x="5510" y="-208.5" font-family="Helvetica,sans-Serif" font-size="10.00">/vcontainer.h</text>
</a>
</g>
</g>
<!-- Node3&#45;&gt;Node4 -->
<g id="edge3" class="edge">
<title>Node3&#45;&gt;Node4</title>
<path fill="none" stroke="midnightblue" d="M5892.44,-268.01C5768.93,-246.06 5635.85,-230.63 5563.53,-222.93"/>
<polygon fill="midnightblue" stroke="midnightblue" points="5891.99,-271.49 5902.46,-269.81 5893.23,-264.6 5891.99,-271.49"/>
</g>
<!-- Node5 -->
<g id="node5" class="node">
<title>Node5</title>
<g id="a_node5"><a xlink:href="../../d4/dd6/vmeasurements_8h.html" target="_top" xlink:title=" ">
<polygon fill="white" stroke="black" points="160.5,-140 160.5,-159 345.5,-159 345.5,-140 160.5,-140"/>
<text text-anchor="middle" x="253" y="-147" font-family="Helvetica,sans-Serif" font-size="10.00">src/libs/vformat/vmeasurements.h</text>
</a>
</g>
</g>
<!-- Node4&#45;&gt;Node5 -->
<g id="edge4" class="edge">
<title>Node4&#45;&gt;Node5</title>
<path fill="none" stroke="midnightblue" d="M5446.12,-215.42C5026.81,-214.81 2624.59,-209.38 668,-165 557.19,-162.49 429.79,-157.76 345.7,-154.39"/>
<polygon fill="midnightblue" stroke="midnightblue" points="5446.23,-218.92 5456.23,-215.44 5446.24,-211.92 5446.23,-218.92"/>
</g>
<!-- Node6 -->
<g id="node6" class="node">
<title>Node6</title>
<g id="a_node6"><a xlink:href="../../de/db3/vmeasurements_8cpp.html" target="_top" xlink:title=" ">
<polygon fill="white" stroke="black" points="0,-73 0,-92 196,-92 196,-73 0,-73"/>
<text text-anchor="middle" x="98" y="-80" font-family="Helvetica,sans-Serif" font-size="10.00">src/libs/vformat/vmeasurements.cpp</text>
</a>
</g>
</g>
<!-- Node4&#45;&gt;Node6 -->
<g id="edge6" class="edge">
<title>Node4&#45;&gt;Node6</title>
<path fill="none" stroke="midnightblue" d="M5446.3,-215.61C4958.43,-216.36 1807.72,-219.02 856,-165 595.02,-150.19 285.57,-109.72 157.77,-92"/>
<polygon fill="midnightblue" stroke="midnightblue" points="5446.33,-219.11 5456.32,-215.6 5446.32,-212.11 5446.33,-219.11"/>
</g>
<!-- Node7 -->
<g id="node7" class="node">
<title>Node7</title>
<g id="a_node7"><a xlink:href="../../d6/de0/vlayoutpiece_8h.html" target="_top" xlink:title=" ">
<polygon fill="white" stroke="black" points="865,-140 865,-159 1031,-159 1031,-140 865,-140"/>
<text text-anchor="middle" x="948" y="-147" font-family="Helvetica,sans-Serif" font-size="10.00">src/libs/vlayout/vlayoutpiece.h</text>
</a>
</g>
</g>
<!-- Node4&#45;&gt;Node7 -->
<g id="edge7" class="edge">
<title>Node4&#45;&gt;Node7</title>
<path fill="none" stroke="midnightblue" d="M5446.03,-214.59C4941.13,-207.39 1603.37,-159.84 1031.35,-151.69"/>
<polygon fill="midnightblue" stroke="midnightblue" points="5446.34,-218.09 5456.39,-214.74 5446.44,-211.09 5446.34,-218.09"/>
</g>
<!-- Node17 -->
<g id="node16" class="node">
<title>Node17</title>
<g id="a_node16"><a xlink:href="../../d8/d70/vtextmanager_8cpp.html" target="_top" xlink:title=" ">
<polygon fill="white" stroke="black" points="1536,-73 1536,-92 1718,-92 1718,-73 1536,-73"/>
<text text-anchor="middle" x="1627" y="-80" font-family="Helvetica,sans-Serif" font-size="10.00">src/libs/vlayout/vtextmanager.cpp</text>
</a>
</g>
</g>
<!-- Node4&#45;&gt;Node17 -->
<g id="edge18" class="edge">
<title>Node4&#45;&gt;Node17</title>
<path fill="none" stroke="midnightblue" d="M5446.09,-214.59C5012.07,-208.22 2491.43,-168.67 1727,-98 1711.19,-96.54 1694.06,-94.3 1678.52,-92.01"/>
<polygon fill="midnightblue" stroke="midnightblue" points="5446.2,-218.09 5456.25,-214.74 5446.3,-211.09 5446.2,-218.09"/>
</g>
<!-- Node18 -->
<g id="node17" class="node">
<title>Node18</title>
<g id="a_node17"><a xlink:href="../../d5/d74/vabstractapplication_8h.html" target="_top" xlink:title=" ">
<polygon fill="white" stroke="red" points="3395.5,-140 3395.5,-159 3590.5,-159 3590.5,-140 3395.5,-140"/>
<text text-anchor="middle" x="3493" y="-147" font-family="Helvetica,sans-Serif" font-size="10.00">src/libs/vmisc/vabstractapplication.h</text>
</a>
</g>
</g>
<!-- Node4&#45;&gt;Node18 -->
<g id="edge19" class="edge">
<title>Node4&#45;&gt;Node18</title>
<path fill="none" stroke="midnightblue" d="M5445.89,-213.43C5153.38,-204.01 3944.47,-165.05 3590.68,-153.65"/>
<polygon fill="midnightblue" stroke="midnightblue" points="5446.2,-216.95 5456.31,-213.77 5446.43,-209.95 5446.2,-216.95"/>
</g>
<!-- Node36 -->
<g id="node31" class="node">
<title>Node36</title>
<g id="a_node31"><a xlink:href="../../db/d11/vformula_8cpp.html" target="_top" xlink:title=" ">
<polygon fill="white" stroke="black" points="5361.5,-67.5 5361.5,-97.5 5468.5,-97.5 5468.5,-67.5 5361.5,-67.5"/>
<text text-anchor="start" x="5369.5" y="-85.5" font-family="Helvetica,sans-Serif" font-size="10.00">src/libs/vpatterndb</text>
<text text-anchor="middle" x="5415" y="-74.5" font-family="Helvetica,sans-Serif" font-size="10.00">/vformula.cpp</text>
</a>
</g>
</g>
<!-- Node4&#45;&gt;Node36 -->
<g id="edge52" class="edge">
<title>Node4&#45;&gt;Node36</title>
<path fill="none" stroke="midnightblue" d="M5491.82,-193.3C5484.85,-184.59 5476.91,-174.44 5470,-165 5453.06,-141.86 5434.67,-113.99 5424.03,-97.57"/>
<polygon fill="midnightblue" stroke="midnightblue" points="5489.14,-195.56 5498.15,-201.14 5494.59,-191.16 5489.14,-195.56"/>
</g>
<!-- Node4&#45;&gt;Node37 -->
<g id="edge53" class="edge">
<title>Node4&#45;&gt;Node37</title>
<path fill="none" stroke="midnightblue" d="M5504.87,-191.39C5502.56,-173.72 5502.65,-150.12 5515,-134 5521.37,-125.68 5573.38,-109.35 5614.39,-97.51"/>
<polygon fill="midnightblue" stroke="midnightblue" points="5501.46,-192.19 5506.53,-201.49 5508.36,-191.06 5501.46,-192.19"/>
</g>
<!-- Node38 -->
<g id="node33" class="node">
<title>Node38</title>
<g id="a_node33"><a xlink:href="../../df/d7a/vpiece_8cpp.html" target="_top" xlink:title=" ">
<polygon fill="white" stroke="black" points="5486.5,-67.5 5486.5,-97.5 5593.5,-97.5 5593.5,-67.5 5486.5,-67.5"/>
<text text-anchor="start" x="5494.5" y="-85.5" font-family="Helvetica,sans-Serif" font-size="10.00">src/libs/vpatterndb</text>
<text text-anchor="middle" x="5540" y="-74.5" font-family="Helvetica,sans-Serif" font-size="10.00">/vpiece.cpp</text>
</a>
</g>
</g>
<!-- Node4&#45;&gt;Node38 -->
<g id="edge56" class="edge">
<title>Node4&#45;&gt;Node38</title>
<path fill="none" stroke="midnightblue" d="M5490.88,-193.4C5478.97,-176.82 5467.55,-153.69 5477,-134 5484.46,-118.46 5499.3,-106.19 5512.7,-97.64"/>
<polygon fill="midnightblue" stroke="midnightblue" points="5488.18,-195.63 5497.05,-201.43 5493.73,-191.36 5488.18,-195.63"/>
</g>
<!-- Node40 -->
<g id="node35" class="node">
<title>Node40</title>
<g id="a_node35"><a xlink:href="../../d8/dba/vpiecenode_8cpp.html" target="_top" xlink:title=" ">
<polygon fill="white" stroke="black" points="4628.5,-0.5 4628.5,-30.5 4735.5,-30.5 4735.5,-0.5 4628.5,-0.5"/>
<text text-anchor="start" x="4636.5" y="-18.5" font-family="Helvetica,sans-Serif" font-size="10.00">src/libs/vpatterndb</text>
<text text-anchor="middle" x="4682" y="-7.5" font-family="Helvetica,sans-Serif" font-size="10.00">/vpiecenode.cpp</text>
</a>
</g>
</g>
<!-- Node4&#45;&gt;Node40 -->
<g id="edge55" class="edge">
<title>Node4&#45;&gt;Node40</title>
<path fill="none" stroke="midnightblue" d="M5514.99,-191.46C5520.11,-172.95 5529.97,-148.19 5548,-134 5614.77,-81.48 5785.6,-128.5 5727,-67 5692.52,-30.82 4944.7,-19.52 4735.78,-17.07"/>
<polygon fill="midnightblue" stroke="midnightblue" points="5511.57,-190.71 5512.56,-201.26 5518.37,-192.4 5511.57,-190.71"/>
</g>
<!-- Node56 -->
<g id="node45" class="node">
<title>Node56</title>
<g id="a_node45"><a xlink:href="../../d1/de1/vincrement__p_8h.html" target="_top" xlink:title=" ">
<polygon fill="white" stroke="red" points="5557.5,-134.5 5557.5,-164.5 5700.5,-164.5 5700.5,-134.5 5557.5,-134.5"/>
<text text-anchor="start" x="5565.5" y="-152.5" font-family="Helvetica,sans-Serif" font-size="10.00">src/libs/vpatterndb</text>
<text text-anchor="middle" x="5629" y="-141.5" font-family="Helvetica,sans-Serif" font-size="10.00">/variables/vincrement_p.h</text>
</a>
</g>
</g>
<!-- Node4&#45;&gt;Node56 -->
<g id="edge50" class="edge">
<title>Node4&#45;&gt;Node56</title>
<path fill="none" stroke="midnightblue" d="M5544.65,-196.57C5563.37,-186.35 5586.09,-173.94 5603.23,-164.58"/>
<polygon fill="midnightblue" stroke="midnightblue" points="5542.92,-193.53 5535.82,-201.4 5546.28,-199.67 5542.92,-193.53"/>
</g>
<!-- Node58 -->
<g id="node46" class="node">
<title>Node58</title>
<g id="a_node46"><a xlink:href="../../d6/dc1/vmeasurement__p_8h.html" target="_top" xlink:title=" ">
<polygon fill="white" stroke="red" points="5719,-134.5 5719,-164.5 5881,-164.5 5881,-134.5 5719,-134.5"/>
<text text-anchor="start" x="5727" y="-152.5" font-family="Helvetica,sans-Serif" font-size="10.00">src/libs/vpatterndb</text>
<text text-anchor="middle" x="5800" y="-141.5" font-family="Helvetica,sans-Serif" font-size="10.00">/variables/vmeasurement_p.h</text>
</a>
</g>
</g>
<!-- Node4&#45;&gt;Node58 -->
<g id="edge51" class="edge">
<title>Node4&#45;&gt;Node58</title>
<path fill="none" stroke="midnightblue" d="M5573.32,-201.31C5622.02,-190.39 5688.96,-175.39 5737.46,-164.52"/>
<polygon fill="midnightblue" stroke="midnightblue" points="5572.52,-197.9 5563.53,-203.5 5574.05,-204.73 5572.52,-197.9"/>
</g>
<!-- Node60 -->
<g id="node47" class="node">
<title>Node60</title>
<g id="a_node47"><a xlink:href="../../d6/d91/vnodedetail_8cpp.html" target="_top" xlink:title=" ">
<polygon fill="white" stroke="black" points="5899.5,-134.5 5899.5,-164.5 6006.5,-164.5 6006.5,-134.5 5899.5,-134.5"/>
<text text-anchor="start" x="5907.5" y="-152.5" font-family="Helvetica,sans-Serif" font-size="10.00">src/libs/vpatterndb</text>
<text text-anchor="middle" x="5953" y="-141.5" font-family="Helvetica,sans-Serif" font-size="10.00">/vnodedetail.cpp</text>
</a>
</g>
</g>
<!-- Node4&#45;&gt;Node60 -->
<g id="edge54" class="edge">
<title>Node4&#45;&gt;Node60</title>
<path fill="none" stroke="midnightblue" d="M5574.06,-208.85C5649.83,-200.55 5779.61,-184.99 5890,-165 5893.09,-164.44 5896.26,-163.83 5899.45,-163.18"/>
<polygon fill="midnightblue" stroke="midnightblue" points="5573.3,-205.41 5563.74,-209.97 5574.06,-212.37 5573.3,-205.41"/>
</g>
<!-- Node61 -->
<g id="node48" class="node">
<title>Node61</title>
<g id="a_node48"><a xlink:href="../../da/de1/vpiecepath_8cpp.html" target="_top" xlink:title=" ">
<polygon fill="white" stroke="black" points="6024.5,-134.5 6024.5,-164.5 6131.5,-164.5 6131.5,-134.5 6024.5,-134.5"/>
<text text-anchor="start" x="6032.5" y="-152.5" font-family="Helvetica,sans-Serif" font-size="10.00">src/libs/vpatterndb</text>
<text text-anchor="middle" x="6078" y="-141.5" font-family="Helvetica,sans-Serif" font-size="10.00">/vpiecepath.cpp</text>
</a>
</g>
</g>
<!-- Node4&#45;&gt;Node61 -->
<g id="edge57" class="edge">
<title>Node4&#45;&gt;Node61</title>
<path fill="none" stroke="midnightblue" d="M5573.88,-211.71C5670.04,-205.43 5857.5,-190.89 6015,-165 6018.1,-164.49 6021.28,-163.92 6024.48,-163.3"/>
<polygon fill="midnightblue" stroke="midnightblue" points="5573.49,-208.23 5563.74,-212.37 5573.94,-215.22 5573.49,-208.23"/>
</g>
<!-- Node62 -->
<g id="node49" class="node">
<title>Node62</title>
<g id="a_node49"><a xlink:href="../../d1/d3a/abstracttest_8cpp.html" target="_top" xlink:title=" ">
<polygon fill="white" stroke="black" points="6149.5,-140 6149.5,-159 6310.5,-159 6310.5,-140 6149.5,-140"/>
<text text-anchor="middle" x="6230" y="-147" font-family="Helvetica,sans-Serif" font-size="10.00">src/libs/vtest/abstracttest.cpp</text>
</a>
</g>
</g>
<!-- Node4&#45;&gt;Node62 -->
<g id="edge58" class="edge">
<title>Node4&#45;&gt;Node62</title>
<path fill="none" stroke="midnightblue" d="M5574.05,-212.11C5688.25,-205.67 5934.43,-190.05 6141,-165 6154.37,-163.38 6168.8,-161.21 6182.07,-159.05"/>
<polygon fill="midnightblue" stroke="midnightblue" points="5573.54,-208.63 5563.75,-212.68 5573.93,-215.62 5573.54,-208.63"/>
</g>
<!-- Node63 -->
<g id="node50" class="node">
<title>Node63</title>
<g id="a_node50"><a xlink:href="../../da/db4/piece__tablewidgetitem_8cpp.html" target="_top" xlink:title=" ">
<polygon fill="white" stroke="black" points="6329,-134.5 6329,-164.5 6457,-164.5 6457,-134.5 6329,-134.5"/>
<text text-anchor="start" x="6337" y="-152.5" font-family="Helvetica,sans-Serif" font-size="10.00">src/libs/vwidgets/piece</text>
<text text-anchor="middle" x="6393" y="-141.5" font-family="Helvetica,sans-Serif" font-size="10.00">_tablewidgetitem.cpp</text>
</a>
</g>
</g>
<!-- Node4&#45;&gt;Node63 -->
<g id="edge59" class="edge">
<title>Node4&#45;&gt;Node63</title>
<path fill="none" stroke="midnightblue" d="M5574.12,-214.41C5711.43,-211.45 6043.9,-200.86 6320,-165 6322.95,-164.62 6325.95,-164.19 6328.99,-163.72"/>
<polygon fill="midnightblue" stroke="midnightblue" points="5573.71,-210.92 5563.79,-214.63 5573.86,-217.92 5573.71,-210.92"/>
</g>
<!-- Node5&#45;&gt;Node6 -->
<g id="edge5" class="edge">
<title>Node5&#45;&gt;Node6</title>
<path fill="none" stroke="midnightblue" d="M223.07,-135.95C192.38,-123.08 145.46,-103.4 118.67,-92.17"/>
<polygon fill="midnightblue" stroke="midnightblue" points="221.84,-139.23 232.42,-139.87 224.55,-132.77 221.84,-139.23"/>
</g>
<!-- Node8 -->
<g id="node8" class="node">
<title>Node8</title>
<g id="a_node8"><a xlink:href="../../dd/d66/vdxfengine_8cpp.html" target="_top" xlink:title=" ">
<polygon fill="white" stroke="black" points="214,-73 214,-92 368,-92 368,-73 214,-73"/>
<text text-anchor="middle" x="291" y="-80" font-family="Helvetica,sans-Serif" font-size="10.00">src/libs/vdxf/vdxfengine.cpp</text>
</a>
</g>
</g>
<!-- Node7&#45;&gt;Node8 -->
<g id="edge8" class="edge">
<title>Node7&#45;&gt;Node8</title>
<path fill="none" stroke="midnightblue" d="M854.54,-142.5C741.25,-134.71 544.68,-119.52 377,-98 364.23,-96.36 350.47,-94.21 337.77,-92.07"/>
<polygon fill="midnightblue" stroke="midnightblue" points="854.35,-146 864.56,-143.19 854.82,-139.02 854.35,-146"/>
</g>
<!-- Node9 -->
<g id="node9" class="node">
<title>Node9</title>
<g id="a_node9"><a xlink:href="../../de/da8/vbank_8cpp.html" target="_top" xlink:title=" ">
<polygon fill="white" stroke="black" points="386,-73 386,-92 530,-92 530,-73 386,-73"/>
<text text-anchor="middle" x="458" y="-80" font-family="Helvetica,sans-Serif" font-size="10.00">src/libs/vlayout/vbank.cpp</text>
</a>
</g>
</g>
<!-- Node7&#45;&gt;Node9 -->
<g id="edge9" class="edge">
<title>Node7&#45;&gt;Node9</title>
<path fill="none" stroke="midnightblue" d="M858.5,-138.87C775.51,-129.6 648.68,-114.58 539,-98 527.42,-96.25 514.94,-94.13 503.34,-92.06"/>
<polygon fill="midnightblue" stroke="midnightblue" points="858.33,-142.37 868.65,-139.99 859.1,-135.41 858.33,-142.37"/>
</g>
<!-- Node10 -->
<g id="node10" class="node">
<title>Node10</title>
<g id="a_node10"><a xlink:href="../../df/d5d/vcontour_8cpp.html" target="_top" xlink:title=" ">
<polygon fill="white" stroke="black" points="548,-73 548,-92 704,-92 704,-73 548,-73"/>
<text text-anchor="middle" x="626" y="-80" font-family="Helvetica,sans-Serif" font-size="10.00">src/libs/vlayout/vcontour.cpp</text>
</a>
</g>
</g>
<!-- Node7&#45;&gt;Node10 -->
<g id="edge10" class="edge">
<title>Node7&#45;&gt;Node10</title>
<path fill="none" stroke="midnightblue" d="M895.39,-137.88C831.97,-125.08 726.66,-103.82 668.26,-92.03"/>
<polygon fill="midnightblue" stroke="midnightblue" points="895.08,-141.39 905.57,-139.94 896.46,-134.53 895.08,-141.39"/>
</g>
<!-- Node11 -->
<g id="node11" class="node">
<title>Node11</title>
<g id="a_node11"><a xlink:href="../../d3/d39/vlayoutgenerator_8cpp.html" target="_top" xlink:title=" ">
<polygon fill="white" stroke="black" points="722.5,-73 722.5,-92 919.5,-92 919.5,-73 722.5,-73"/>
<text text-anchor="middle" x="821" y="-80" font-family="Helvetica,sans-Serif" font-size="10.00">src/libs/vlayout/vlayoutgenerator.cpp</text>
</a>
</g>
</g>
<!-- Node7&#45;&gt;Node11 -->
<g id="edge11" class="edge">
<title>Node7&#45;&gt;Node11</title>
<path fill="none" stroke="midnightblue" d="M922.16,-135.27C897,-122.4 859.51,-103.21 837.93,-92.17"/>
<polygon fill="midnightblue" stroke="midnightblue" points="920.64,-138.43 931.14,-139.87 923.83,-132.2 920.64,-138.43"/>
</g>
<!-- Node12 -->
<g id="node12" class="node">
<title>Node12</title>
<g id="a_node12"><a xlink:href="../../d1/dd1/vlayoutpaper_8cpp.html" target="_top" xlink:title=" ">
<polygon fill="white" stroke="black" points="977,-6 977,-25 1155,-25 1155,-6 977,-6"/>
<text text-anchor="middle" x="1066" y="-13" font-family="Helvetica,sans-Serif" font-size="10.00">src/libs/vlayout/vlayoutpaper.cpp</text>
</a>
</g>
</g>
<!-- Node7&#45;&gt;Node12 -->
<g id="edge12" class="edge">
<title>Node7&#45;&gt;Node12</title>
<path fill="none" stroke="midnightblue" d="M948,-129.85C948.92,-111.97 952.83,-85.11 967,-67 983.65,-45.73 1011.7,-32.62 1033.7,-25.11"/>
<polygon fill="midnightblue" stroke="midnightblue" points="944.5,-129.8 947.75,-139.88 951.49,-129.98 944.5,-129.8"/>
</g>
<!-- Node13 -->
<g id="node13" class="node">
<title>Node13</title>
<g id="a_node13"><a xlink:href="../../d2/d2d/vlayoutpaper__p_8h.html" target="_top" xlink:title=" ">
<polygon fill="white" stroke="black" points="976.5,-73 976.5,-92 1155.5,-92 1155.5,-73 976.5,-73"/>
<text text-anchor="middle" x="1066" y="-80" font-family="Helvetica,sans-Serif" font-size="10.00">src/libs/vlayout/vlayoutpaper_p.h</text>
</a>
</g>
</g>
<!-- Node7&#45;&gt;Node13 -->
<g id="edge13" class="edge">
<title>Node7&#45;&gt;Node13</title>
<path fill="none" stroke="midnightblue" d="M972.89,-134.79C996.28,-121.9 1030.56,-103.02 1050.34,-92.13"/>
<polygon fill="midnightblue" stroke="midnightblue" points="970.98,-131.84 963.91,-139.73 974.36,-137.97 970.98,-131.84"/>
</g>
<!-- Node14 -->
<g id="node14" class="node">
<title>Node14</title>
<g id="a_node14"><a xlink:href="../../dd/d70/vlayoutpiece_8cpp.html" target="_top" xlink:title=" ">
<polygon fill="white" stroke="black" points="1340.5,-73 1340.5,-92 1517.5,-92 1517.5,-73 1340.5,-73"/>
<text text-anchor="middle" x="1429" y="-80" font-family="Helvetica,sans-Serif" font-size="10.00">src/libs/vlayout/vlayoutpiece.cpp</text>
</a>
</g>
</g>
<!-- Node7&#45;&gt;Node14 -->
<g id="edge15" class="edge">
<title>Node7&#45;&gt;Node14</title>
<path fill="none" stroke="midnightblue" d="M1025.3,-138.67C1102.69,-128.75 1225.16,-112.81 1331,-98 1344.46,-96.12 1358.94,-94.02 1372.54,-92.01"/>
<polygon fill="midnightblue" stroke="midnightblue" points="1024.63,-135.23 1015.15,-139.97 1025.52,-142.17 1024.63,-135.23"/>
</g>
<!-- Node15 -->
<g id="node15" class="node">
<title>Node15</title>
<g id="a_node15"><a xlink:href="../../db/d5c/vposition_8h.html" target="_top" xlink:title=" ">
<polygon fill="white" stroke="red" points="1174,-73 1174,-92 1322,-92 1322,-73 1174,-73"/>
<text text-anchor="middle" x="1248" y="-80" font-family="Helvetica,sans-Serif" font-size="10.00">src/libs/vlayout/vposition.h</text>
</a>
</g>
</g>
<!-- Node7&#45;&gt;Node15 -->
<g id="edge16" class="edge">
<title>Node7&#45;&gt;Node15</title>
<path fill="none" stroke="midnightblue" d="M997.37,-137.8C1056.41,-125.01 1154.04,-103.86 1208.38,-92.08"/>
<polygon fill="midnightblue" stroke="midnightblue" points="996.56,-134.4 987.53,-139.94 998.04,-141.24 996.56,-134.4"/>
</g>
<!-- Node13&#45;&gt;Node12 -->
<g id="edge14" class="edge">
<title>Node13&#45;&gt;Node12</title>
<path fill="none" stroke="midnightblue" d="M1066,-62.54C1066,-50.17 1066,-34.62 1066,-25.13"/>
<polygon fill="midnightblue" stroke="midnightblue" points="1062.5,-62.73 1066,-72.73 1069.5,-62.73 1062.5,-62.73"/>
</g>
<!-- Node15&#45;&gt;Node12 -->
<g id="edge17" class="edge">
<title>Node15&#45;&gt;Node12</title>
<path fill="none" stroke="midnightblue" d="M1214.22,-69.44C1178.12,-56.54 1121.79,-36.42 1089.98,-25.06"/>
<polygon fill="midnightblue" stroke="midnightblue" points="1213.24,-72.8 1223.83,-72.87 1215.59,-66.21 1213.24,-72.8"/>
</g>
<!-- Node18&#45;&gt;Node14 -->
<g id="edge30" class="edge">
<title>Node18&#45;&gt;Node14</title>
<path fill="none" stroke="midnightblue" d="M3385.37,-147.46C3029.47,-143.73 1892.46,-129.61 1527,-98 1511.15,-96.63 1493.96,-94.36 1478.47,-92.01"/>
<polygon fill="midnightblue" stroke="midnightblue" points="3385.38,-150.96 3395.42,-147.56 3385.45,-143.96 3385.38,-150.96"/>
</g>
<!-- Node18&#45;&gt;Node17 -->
<g id="edge31" class="edge">
<title>Node18&#45;&gt;Node17</title>
<path fill="none" stroke="midnightblue" d="M3385.42,-147.05C3054.04,-142.34 2051.66,-126.09 1727,-98 1710.92,-96.61 1693.48,-94.35 1677.74,-92.02"/>
<polygon fill="midnightblue" stroke="midnightblue" points="3385.45,-150.55 3395.5,-147.2 3385.55,-143.55 3385.45,-150.55"/>
</g>
<!-- Node19 -->
<g id="node18" class="node">
<title>Node19</title>
<g id="a_node18"><a xlink:href="../../d4/d90/fvupdater_8cpp.html" target="_top" xlink:title=" ">
<polygon fill="white" stroke="black" points="1736.5,-73 1736.5,-92 1889.5,-92 1889.5,-73 1736.5,-73"/>
<text text-anchor="middle" x="1813" y="-80" font-family="Helvetica,sans-Serif" font-size="10.00">src/libs/fervor/fvupdater.cpp</text>
</a>
</g>
</g>
<!-- Node18&#45;&gt;Node19 -->
<g id="edge20" class="edge">
<title>Node18&#45;&gt;Node19</title>
<path fill="none" stroke="midnightblue" d="M3385,-147.02C3075.23,-142.45 2187.42,-127.13 1898,-98 1884.3,-96.62 1869.46,-94.36 1856.09,-92.03"/>
<polygon fill="midnightblue" stroke="midnightblue" points="3385.28,-150.52 3395.33,-147.17 3385.38,-143.52 3385.28,-150.52"/>
</g>
<!-- Node20 -->
<g id="node19" class="node">
<title>Node20</title>
<g id="a_node19"><a xlink:href="../../d9/dc8/dxiface_8cpp.html" target="_top" xlink:title=" ">
<polygon fill="white" stroke="black" points="1907.5,-73 1907.5,-92 2042.5,-92 2042.5,-73 1907.5,-73"/>
<text text-anchor="middle" x="1975" y="-80" font-family="Helvetica,sans-Serif" font-size="10.00">src/libs/vdxf/dxiface.cpp</text>
</a>
</g>
</g>
<!-- Node18&#45;&gt;Node20 -->
<g id="edge21" class="edge">
<title>Node18&#45;&gt;Node20</title>
<path fill="none" stroke="midnightblue" d="M3385.31,-146.87C3096.53,-142.17 2309.32,-126.99 2051,-98 2038.72,-96.62 2025.45,-94.36 2013.49,-92.03"/>
<polygon fill="midnightblue" stroke="midnightblue" points="3385.32,-150.37 3395.37,-147.04 3385.43,-143.37 3385.32,-150.37"/>
</g>
<!-- Node21 -->
<g id="node20" class="node">
<title>Node21</title>
<g id="a_node20"><a xlink:href="../../da/d75/vabstractarc__p_8h.html" target="_top" xlink:title=" ">
<polygon fill="white" stroke="red" points="2060.5,-67.5 2060.5,-97.5 2167.5,-97.5 2167.5,-67.5 2060.5,-67.5"/>
<text text-anchor="start" x="2068.5" y="-85.5" font-family="Helvetica,sans-Serif" font-size="10.00">src/libs/vgeometry</text>
<text text-anchor="middle" x="2114" y="-74.5" font-family="Helvetica,sans-Serif" font-size="10.00">/vabstractarc_p.h</text>
</a>
</g>
</g>
<!-- Node18&#45;&gt;Node21 -->
<g id="edge22" class="edge">
<title>Node18&#45;&gt;Node21</title>
<path fill="none" stroke="midnightblue" d="M3385.14,-147.02C3113.91,-142.89 2408.56,-129.36 2176,-98 2173.26,-97.63 2170.47,-97.2 2167.65,-96.71"/>
<polygon fill="midnightblue" stroke="midnightblue" points="3385.33,-150.53 3395.38,-147.18 3385.44,-143.53 3385.33,-150.53"/>
</g>
<!-- Node23 -->
<g id="node21" class="node">
<title>Node23</title>
<g id="a_node21"><a xlink:href="../../dc/da3/varc__p_8h.html" target="_top" xlink:title=" ">
<polygon fill="white" stroke="red" points="2185.5,-67.5 2185.5,-97.5 2292.5,-97.5 2292.5,-67.5 2185.5,-67.5"/>
<text text-anchor="start" x="2193.5" y="-85.5" font-family="Helvetica,sans-Serif" font-size="10.00">src/libs/vgeometry</text>
<text text-anchor="middle" x="2239" y="-74.5" font-family="Helvetica,sans-Serif" font-size="10.00">/varc_p.h</text>
</a>
</g>
</g>
<!-- Node18&#45;&gt;Node23 -->
<g id="edge23" class="edge">
<title>Node18&#45;&gt;Node23</title>
<path fill="none" stroke="midnightblue" d="M3385.13,-146.52C3132.58,-141.46 2508.6,-126.42 2301,-98 2298.26,-97.63 2295.47,-97.19 2292.65,-96.7"/>
<polygon fill="midnightblue" stroke="midnightblue" points="3385.35,-150.02 3395.42,-146.72 3385.49,-143.02 3385.35,-150.02"/>
</g>
<!-- Node25 -->
<g id="node22" class="node">
<title>Node25</title>
<g id="a_node22"><a xlink:href="../../df/dde/vellipticalarc__p_8h.html" target="_top" xlink:title=" ">
<polygon fill="white" stroke="black" points="2310.5,-67.5 2310.5,-97.5 2417.5,-97.5 2417.5,-67.5 2310.5,-67.5"/>
<text text-anchor="start" x="2318.5" y="-85.5" font-family="Helvetica,sans-Serif" font-size="10.00">src/libs/vgeometry</text>
<text text-anchor="middle" x="2364" y="-74.5" font-family="Helvetica,sans-Serif" font-size="10.00">/vellipticalarc_p.h</text>
</a>
</g>
</g>
<!-- Node18&#45;&gt;Node25 -->
<g id="edge24" class="edge">
<title>Node18&#45;&gt;Node25</title>
<path fill="none" stroke="midnightblue" d="M3385.15,-149.14C3192.82,-148.99 2778.31,-142.86 2432,-98 2427.33,-97.4 2422.51,-96.64 2417.68,-95.79"/>
<polygon fill="midnightblue" stroke="midnightblue" points="3385.26,-152.64 3395.26,-149.14 3385.26,-145.64 3385.26,-152.64"/>
</g>
<!-- Node26 -->
<g id="node23" class="node">
<title>Node26</title>
<g id="a_node23"><a xlink:href="../../d6/dfb/vellipticalarc_8cpp.html" target="_top" xlink:title=" ">
<polygon fill="white" stroke="black" points="2351.5,-0.5 2351.5,-30.5 2458.5,-30.5 2458.5,-0.5 2351.5,-0.5"/>
<text text-anchor="start" x="2359.5" y="-18.5" font-family="Helvetica,sans-Serif" font-size="10.00">src/libs/vgeometry</text>
<text text-anchor="middle" x="2405" y="-7.5" font-family="Helvetica,sans-Serif" font-size="10.00">/vellipticalarc.cpp</text>
</a>
</g>
</g>
<!-- Node18&#45;&gt;Node26 -->
<g id="edge27" class="edge">
<title>Node18&#45;&gt;Node26</title>
<path fill="none" stroke="midnightblue" d="M3385.05,-148.4C3137.58,-147.44 2544.44,-140.64 2465,-98 2437.6,-83.29 2419.41,-49.96 2410.79,-30.79"/>
<polygon fill="midnightblue" stroke="midnightblue" points="3385.13,-151.9 3395.14,-148.44 3385.16,-144.9 3385.13,-151.9"/>
</g>
<!-- Node27 -->
<g id="node24" class="node">
<title>Node27</title>
<g id="a_node24"><a xlink:href="../../d5/d8e/vcubicbezier__p_8h.html" target="_top" xlink:title=" ">
<polygon fill="white" stroke="red" points="2474.5,-67.5 2474.5,-97.5 2581.5,-97.5 2581.5,-67.5 2474.5,-67.5"/>
<text text-anchor="start" x="2482.5" y="-85.5" font-family="Helvetica,sans-Serif" font-size="10.00">src/libs/vgeometry</text>
<text text-anchor="middle" x="2528" y="-74.5" font-family="Helvetica,sans-Serif" font-size="10.00">/vcubicbezier_p.h</text>
</a>
</g>
</g>
<!-- Node18&#45;&gt;Node27 -->
<g id="edge26" class="edge">
<title>Node18&#45;&gt;Node27</title>
<path fill="none" stroke="midnightblue" d="M3385.03,-148.51C3215.04,-147.16 2875,-138.98 2590,-98 2587.26,-97.61 2584.47,-97.15 2581.66,-96.65"/>
<polygon fill="midnightblue" stroke="midnightblue" points="3385.21,-152.01 3395.24,-148.58 3385.26,-145.01 3385.21,-152.01"/>
</g>
<!-- Node29 -->
<g id="node25" class="node">
<title>Node29</title>
<g id="a_node25"><a xlink:href="../../d1/d76/vspline__p_8h.html" target="_top" xlink:title=" ">
<polygon fill="white" stroke="red" points="2599.5,-67.5 2599.5,-97.5 2706.5,-97.5 2706.5,-67.5 2599.5,-67.5"/>
<text text-anchor="start" x="2607.5" y="-85.5" font-family="Helvetica,sans-Serif" font-size="10.00">src/libs/vgeometry</text>
<text text-anchor="middle" x="2653" y="-74.5" font-family="Helvetica,sans-Serif" font-size="10.00">/vspline_p.h</text>
</a>
</g>
</g>
<!-- Node18&#45;&gt;Node29 -->
<g id="edge28" class="edge">
<title>Node18&#45;&gt;Node29</title>
<path fill="none" stroke="midnightblue" d="M3385.09,-146.97C3234.51,-143.6 2953.14,-132.76 2716,-98 2712.89,-97.54 2709.71,-97.01 2706.5,-96.43"/>
<polygon fill="midnightblue" stroke="midnightblue" points="3385.19,-150.48 3395.26,-147.19 3385.34,-143.48 3385.19,-150.48"/>
</g>
<!-- Node31 -->
<g id="node26" class="node">
<title>Node31</title>
<g id="a_node26"><a xlink:href="../../d9/d15/vabstractpiece_8cpp.html" target="_top" xlink:title=" ">
<polygon fill="white" stroke="black" points="2725,-73 2725,-92 2911,-92 2911,-73 2725,-73"/>
<text text-anchor="middle" x="2818" y="-80" font-family="Helvetica,sans-Serif" font-size="10.00">src/libs/vlayout/vabstractpiece.cpp</text>
</a>
</g>
</g>
<!-- Node18&#45;&gt;Node31 -->
<g id="edge29" class="edge">
<title>Node18&#45;&gt;Node31</title>
<path fill="none" stroke="midnightblue" d="M3385.01,-140.71C3269.69,-131.98 3081.67,-116.6 2920,-98 2905.07,-96.28 2888.96,-94.13 2874.05,-92.02"/>
<polygon fill="midnightblue" stroke="midnightblue" points="3385.02,-144.22 3395.25,-141.48 3385.55,-137.24 3385.02,-144.22"/>
</g>
<!-- Node32 -->
<g id="node27" class="node">
<title>Node32</title>
<g id="a_node27"><a xlink:href="../../db/d65/dialogexporttocsv_8cpp.html" target="_top" xlink:title=" ">
<polygon fill="white" stroke="black" points="2929.5,-67.5 2929.5,-97.5 3056.5,-97.5 3056.5,-67.5 2929.5,-67.5"/>
<text text-anchor="start" x="2937.5" y="-85.5" font-family="Helvetica,sans-Serif" font-size="10.00">src/libs/vmisc/dialogs</text>
<text text-anchor="middle" x="2993" y="-74.5" font-family="Helvetica,sans-Serif" font-size="10.00">/dialogexporttocsv.cpp</text>
</a>
</g>
</g>
<!-- Node18&#45;&gt;Node32 -->
<g id="edge32" class="edge">
<title>Node18&#45;&gt;Node32</title>
<path fill="none" stroke="midnightblue" d="M3393.48,-138.96C3306.74,-130.11 3177.7,-115.67 3066,-98 3062.94,-97.52 3059.81,-96.99 3056.65,-96.45"/>
<polygon fill="midnightblue" stroke="midnightblue" points="3393.27,-142.46 3403.58,-139.98 3393.98,-135.49 3393.27,-142.46"/>
</g>
<!-- Node33 -->
<g id="node28" class="node">
<title>Node33</title>
<g id="a_node28"><a xlink:href="../../d6/d0b/def_8cpp.html" target="_top" xlink:title=" ">
<polygon fill="white" stroke="black" points="3075,-73 3075,-92 3197,-92 3197,-73 3075,-73"/>
<text text-anchor="middle" x="3136" y="-80" font-family="Helvetica,sans-Serif" font-size="10.00">src/libs/vmisc/def.cpp</text>
</a>
</g>
</g>
<!-- Node18&#45;&gt;Node33 -->
<g id="edge33" class="edge">
<title>Node18&#45;&gt;Node33</title>
<path fill="none" stroke="midnightblue" d="M3431.72,-138.27C3373.55,-128.42 3283.69,-112.88 3206,-98 3196.37,-96.16 3186.02,-94.07 3176.31,-92.07"/>
<polygon fill="midnightblue" stroke="midnightblue" points="3431.41,-141.76 3441.85,-139.98 3432.57,-134.86 3431.41,-141.76"/>
</g>
<!-- Node34 -->
<g id="node29" class="node">
<title>Node34</title>
<g id="a_node29"><a xlink:href="../../d0/df6/vabstractapplication_8cpp.html" target="_top" xlink:title=" ">
<polygon fill="white" stroke="black" points="3215,-73 3215,-92 3421,-92 3421,-73 3215,-73"/>
<text text-anchor="middle" x="3318" y="-80" font-family="Helvetica,sans-Serif" font-size="10.00">src/libs/vmisc/vabstractapplication.cpp</text>
</a>
</g>
</g>
<!-- Node18&#45;&gt;Node34 -->
<g id="edge34" class="edge">
<title>Node18&#45;&gt;Node34</title>
<path fill="none" stroke="midnightblue" d="M3460.07,-136.27C3425.34,-123.37 3371.51,-103.38 3341.06,-92.06"/>
<polygon fill="midnightblue" stroke="midnightblue" points="3459.17,-139.67 3469.76,-139.87 3461.61,-133.11 3459.17,-139.67"/>
</g>
<!-- Node35 -->
<g id="node30" class="node">
<title>Node35</title>
<g id="a_node30"><a xlink:href="../../d4/d4f/pmsystems_8cpp.html" target="_top" xlink:title=" ">
<polygon fill="white" stroke="black" points="3439.5,-67.5 3439.5,-97.5 3546.5,-97.5 3546.5,-67.5 3439.5,-67.5"/>
<text text-anchor="start" x="3447.5" y="-85.5" font-family="Helvetica,sans-Serif" font-size="10.00">src/libs/vpatterndb</text>
<text text-anchor="middle" x="3493" y="-74.5" font-family="Helvetica,sans-Serif" font-size="10.00">/pmsystems.cpp</text>
</a>
</g>
</g>
<!-- Node18&#45;&gt;Node35 -->
<g id="edge35" class="edge">
<title>Node18&#45;&gt;Node35</title>
<path fill="none" stroke="midnightblue" d="M3493,-129.41C3493,-119.22 3493,-106.9 3493,-97.59"/>
<polygon fill="midnightblue" stroke="midnightblue" points="3489.5,-129.73 3493,-139.73 3496.5,-129.73 3489.5,-129.73"/>
</g>
<!-- Node18&#45;&gt;Node36 -->
<g id="edge36" class="edge">
<title>Node18&#45;&gt;Node36</title>
<path fill="none" stroke="midnightblue" d="M3600.69,-148.39C3943.97,-147.59 5009.86,-141.58 5352,-98 5355.01,-97.62 5358.08,-97.15 5361.17,-96.63"/>
<polygon fill="midnightblue" stroke="midnightblue" points="3600.5,-144.89 3590.5,-148.41 3600.51,-151.89 3600.5,-144.89"/>
</g>
<!-- Node18&#45;&gt;Node37 -->
<g id="edge37" class="edge">
<title>Node18&#45;&gt;Node37</title>
<path fill="none" stroke="midnightblue" d="M3600.82,-148.8C3973.95,-149.38 5208.91,-147.43 5602,-98 5605.01,-97.62 5608.08,-97.16 5611.17,-96.64"/>
<polygon fill="midnightblue" stroke="midnightblue" points="3600.57,-145.3 3590.57,-148.78 3600.56,-152.3 3600.57,-145.3"/>
</g>
<!-- Node18&#45;&gt;Node38 -->
<g id="edge38" class="edge">
<title>Node18&#45;&gt;Node38</title>
<path fill="none" stroke="midnightblue" d="M3600.8,-148.61C3959.29,-148.51 5109.43,-144.5 5477,-98 5480.01,-97.62 5483.08,-97.16 5486.17,-96.64"/>
<polygon fill="midnightblue" stroke="midnightblue" points="3600.68,-145.11 3590.69,-148.61 3600.69,-152.11 3600.68,-145.11"/>
</g>
<!-- Node39 -->
<g id="node34" class="node">
<title>Node39</title>
<g id="a_node34"><a xlink:href="../../df/dba/vpiecenode__p_8h.html" target="_top" xlink:title=" ">
<polygon fill="white" stroke="black" points="3564.5,-67.5 3564.5,-97.5 3671.5,-97.5 3671.5,-67.5 3564.5,-67.5"/>
<text text-anchor="start" x="3572.5" y="-85.5" font-family="Helvetica,sans-Serif" font-size="10.00">src/libs/vpatterndb</text>
<text text-anchor="middle" x="3618" y="-74.5" font-family="Helvetica,sans-Serif" font-size="10.00">/vpiecenode_p.h</text>
</a>
</g>
</g>
<!-- Node18&#45;&gt;Node39 -->
<g id="edge39" class="edge">
<title>Node18&#45;&gt;Node39</title>
<path fill="none" stroke="midnightblue" d="M3518.59,-135.19C3539.61,-124.26 3569.33,-108.81 3590.79,-97.65"/>
<polygon fill="midnightblue" stroke="midnightblue" points="3516.86,-132.15 3509.6,-139.87 3520.09,-138.36 3516.86,-132.15"/>
</g>
<!-- Node41 -->
<g id="node36" class="node">
<title>Node41</title>
<g id="a_node36"><a xlink:href="../../de/d3e/vtranslatevars_8cpp.html" target="_top" xlink:title=" ">
<polygon fill="white" stroke="black" points="3690,-67.5 3690,-97.5 3800,-97.5 3800,-67.5 3690,-67.5"/>
<text text-anchor="start" x="3698" y="-85.5" font-family="Helvetica,sans-Serif" font-size="10.00">src/libs/vpatterndb</text>
<text text-anchor="middle" x="3745" y="-74.5" font-family="Helvetica,sans-Serif" font-size="10.00">/vtranslatevars.cpp</text>
</a>
</g>
</g>
<!-- Node18&#45;&gt;Node41 -->
<g id="edge41" class="edge">
<title>Node18&#45;&gt;Node41</title>
<path fill="none" stroke="midnightblue" d="M3536,-137.41C3578.67,-126.4 3644.2,-109.5 3690.49,-97.56"/>
<polygon fill="midnightblue" stroke="midnightblue" points="3535.01,-134.05 3526.2,-139.94 3536.76,-140.83 3535.01,-134.05"/>
</g>
<!-- Node42 -->
<g id="node37" class="node">
<title>Node42</title>
<g id="a_node37"><a xlink:href="../../df/d40/export__format__combobox_8cpp.html" target="_top" xlink:title=" ">
<polygon fill="white" stroke="black" points="3818.5,-67.5 3818.5,-97.5 3951.5,-97.5 3951.5,-67.5 3818.5,-67.5"/>
<text text-anchor="start" x="3826.5" y="-85.5" font-family="Helvetica,sans-Serif" font-size="10.00">src/libs/vwidgets/export</text>
<text text-anchor="middle" x="3885" y="-74.5" font-family="Helvetica,sans-Serif" font-size="10.00">_format_combobox.cpp</text>
</a>
</g>
</g>
<!-- Node18&#45;&gt;Node42 -->
<g id="edge42" class="edge">
<title>Node18&#45;&gt;Node42</title>
<path fill="none" stroke="midnightblue" d="M3559.56,-138.46C3623.58,-128.66 3723.03,-113.07 3809,-98 3812.04,-97.47 3815.15,-96.91 3818.29,-96.34"/>
<polygon fill="midnightblue" stroke="midnightblue" points="3558.95,-135.01 3549.6,-139.98 3560.01,-141.93 3558.95,-135.01"/>
</g>
<!-- Node43 -->
<g id="node38" class="node">
<title>Node43</title>
<g id="a_node38"><a xlink:href="../../d7/d1b/pen__toolbar_8cpp.html" target="_top" xlink:title=" ">
<polygon fill="white" stroke="black" points="3969.5,-67.5 3969.5,-97.5 4088.5,-97.5 4088.5,-67.5 3969.5,-67.5"/>
<text text-anchor="start" x="3977.5" y="-85.5" font-family="Helvetica,sans-Serif" font-size="10.00">src/libs/vwidgets/pen</text>
<text text-anchor="middle" x="4029" y="-74.5" font-family="Helvetica,sans-Serif" font-size="10.00">_toolbar.cpp</text>
</a>
</g>
</g>
<!-- Node18&#45;&gt;Node43 -->
<g id="edge43" class="edge">
<title>Node18&#45;&gt;Node43</title>
<path fill="none" stroke="midnightblue" d="M3601.05,-139.88C3695.97,-131.59 3837.61,-117.43 3960,-98 3963.02,-97.52 3966.11,-97 3969.23,-96.44"/>
<polygon fill="midnightblue" stroke="midnightblue" points="3600.53,-136.42 3590.87,-140.77 3601.13,-143.39 3600.53,-136.42"/>
</g>
<!-- Node44 -->
<g id="node39" class="node">
<title>Node44</title>
<g id="a_node39"><a xlink:href="../../d8/d76/scene__rect_8cpp.html" target="_top" xlink:title=" ">
<polygon fill="white" stroke="black" points="4107,-67.5 4107,-97.5 4237,-97.5 4237,-67.5 4107,-67.5"/>
<text text-anchor="start" x="4115" y="-85.5" font-family="Helvetica,sans-Serif" font-size="10.00">src/libs/vwidgets/scene</text>
<text text-anchor="middle" x="4172" y="-74.5" font-family="Helvetica,sans-Serif" font-size="10.00">_rect.cpp</text>
</a>
</g>
</g>
<!-- Node18&#45;&gt;Node44 -->
<g id="edge44" class="edge">
<title>Node18&#45;&gt;Node44</title>
<path fill="none" stroke="midnightblue" d="M3600.66,-143C3721.77,-136 3924.13,-121.87 4097,-98 4100.15,-97.56 4103.37,-97.08 4106.62,-96.57"/>
<polygon fill="midnightblue" stroke="midnightblue" points="3600.43,-139.51 3590.64,-143.57 3600.83,-146.5 3600.43,-139.51"/>
</g>
<!-- Node45 -->
<g id="node40" class="node">
<title>Node45</title>
<g id="a_node40"><a xlink:href="../../d3/d4f/mouse__coordinates_8cpp.html" target="_top" xlink:title=" ">
<polygon fill="white" stroke="black" points="4255,-67.5 4255,-97.5 4389,-97.5 4389,-67.5 4255,-67.5"/>
<text text-anchor="start" x="4263" y="-85.5" font-family="Helvetica,sans-Serif" font-size="10.00">src/libs/vwidgets/mouse</text>
<text text-anchor="middle" x="4322" y="-74.5" font-family="Helvetica,sans-Serif" font-size="10.00">_coordinates.cpp</text>
</a>
</g>
</g>
<!-- Node18&#45;&gt;Node45 -->
<g id="edge45" class="edge">
<title>Node18&#45;&gt;Node45</title>
<path fill="none" stroke="midnightblue" d="M3600.88,-145.39C3747.44,-140.22 4017.4,-127.36 4246,-98 4248.93,-97.62 4251.92,-97.2 4254.93,-96.75"/>
<polygon fill="midnightblue" stroke="midnightblue" points="3600.42,-141.9 3590.54,-145.74 3600.66,-148.9 3600.42,-141.9"/>
</g>
<!-- Node46 -->
<g id="node41" class="node">
<title>Node46</title>
<g id="a_node41"><a xlink:href="../../dd/df6/vabstractmainwindow_8cpp.html" target="_top" xlink:title=" ">
<polygon fill="white" stroke="black" points="4407.5,-73 4407.5,-92 4636.5,-92 4636.5,-73 4407.5,-73"/>
<text text-anchor="middle" x="4522" y="-80" font-family="Helvetica,sans-Serif" font-size="10.00">src/libs/vwidgets/vabstractmainwindow.cpp</text>
</a>
</g>
</g>
<!-- Node18&#45;&gt;Node46 -->
<g id="edge46" class="edge">
<title>Node18&#45;&gt;Node46</title>
<path fill="none" stroke="midnightblue" d="M3600.76,-144.6C3770.51,-137.99 4110.5,-122.81 4398,-98 4416.68,-96.39 4436.89,-94.21 4455.47,-92.03"/>
<polygon fill="midnightblue" stroke="midnightblue" points="3600.42,-141.11 3590.57,-145 3600.7,-148.11 3600.42,-141.11"/>
</g>
<!-- Node47 -->
<g id="node42" class="node">
<title>Node47</title>
<g id="a_node42"><a xlink:href="../../de/d45/vcontrolpointspline_8cpp.html" target="_top" xlink:title=" ">
<polygon fill="white" stroke="black" points="4654.5,-73 4654.5,-92 4869.5,-92 4869.5,-73 4654.5,-73"/>
<text text-anchor="middle" x="4762" y="-80" font-family="Helvetica,sans-Serif" font-size="10.00">src/libs/vwidgets/vcontrolpointspline.cpp</text>
</a>
</g>
</g>
<!-- Node18&#45;&gt;Node47 -->
<g id="edge47" class="edge">
<title>Node18&#45;&gt;Node47</title>
<path fill="none" stroke="midnightblue" d="M3600.76,-146.63C3804.86,-142.46 4261.71,-130.1 4645,-98 4663.15,-96.48 4682.83,-94.26 4700.77,-92.02"/>
<polygon fill="midnightblue" stroke="midnightblue" points="3600.57,-143.14 3590.64,-146.84 3600.71,-150.13 3600.57,-143.14"/>
</g>
<!-- Node48 -->
<g id="node43" class="node">
<title>Node48</title>
<g id="a_node43"><a xlink:href="../../de/dec/vgraphicssimpletextitem_8cpp.html" target="_top" xlink:title=" ">
<polygon fill="white" stroke="black" points="4888,-73 4888,-92 5132,-92 5132,-73 4888,-73"/>
<text text-anchor="middle" x="5010" y="-80" font-family="Helvetica,sans-Serif" font-size="10.00">src/libs/vwidgets/vgraphicssimpletextitem.cpp</text>
</a>
</g>
</g>
<!-- Node18&#45;&gt;Node48 -->
<g id="edge48" class="edge">
<title>Node18&#45;&gt;Node48</title>
<path fill="none" stroke="midnightblue" d="M3600.7,-147.25C3833.87,-143.94 4402.72,-132.72 4878,-98 4898.58,-96.5 4920.9,-94.27 4941.24,-92.01"/>
<polygon fill="midnightblue" stroke="midnightblue" points="3600.47,-143.75 3590.52,-147.39 3600.57,-150.75 3600.47,-143.75"/>
</g>
<!-- Node49 -->
<g id="node44" class="node">
<title>Node49</title>
<g id="a_node44"><a xlink:href="../../d1/d90/vgrainlineitem_8cpp.html" target="_top" xlink:title=" ">
<polygon fill="white" stroke="black" points="5150.5,-73 5150.5,-92 5343.5,-92 5343.5,-73 5150.5,-73"/>
<text text-anchor="middle" x="5247" y="-80" font-family="Helvetica,sans-Serif" font-size="10.00">src/libs/vwidgets/vgrainlineitem.cpp</text>
</a>
</g>
</g>
<!-- Node18&#45;&gt;Node49 -->
<g id="edge49" class="edge">
<title>Node18&#45;&gt;Node49</title>
<path fill="none" stroke="midnightblue" d="M3601.06,-149.12C3864.71,-149.77 4561.83,-146.35 5141,-98 5157.94,-96.59 5176.31,-94.33 5192.92,-92.02"/>
<polygon fill="midnightblue" stroke="midnightblue" points="3600.73,-145.62 3590.72,-149.09 3600.71,-152.62 3600.73,-145.62"/>
</g>
<!-- Node25&#45;&gt;Node26 -->
<g id="edge25" class="edge">
<title>Node25&#45;&gt;Node26</title>
<path fill="none" stroke="midnightblue" d="M2378.28,-58.87C2384.21,-49.46 2390.91,-38.83 2396.12,-30.58"/>
<polygon fill="midnightblue" stroke="midnightblue" points="2375.27,-57.07 2372.9,-67.4 2381.19,-60.81 2375.27,-57.07"/>
</g>
<!-- Node39&#45;&gt;Node40 -->
<g id="edge40" class="edge">
<title>Node39&#45;&gt;Node40</title>
<path fill="none" stroke="midnightblue" d="M3681.84,-67.07C4048.01,-16.97 4479.18,-14.95 4628.25,-15.9"/>
<polygon fill="midnightblue" stroke="midnightblue" points="3681.27,-63.62 3671.84,-68.45 3682.23,-70.55 3681.27,-63.62"/>
</g>
</g>
</svg>
