<?xml version="1.0" encoding="UTF-8" standalone="no"?>
<!DOCTYPE svg PUBLIC "-//W3C//DTD SVG 1.1//EN"
 "http://www.w3.org/Graphics/SVG/1.1/DTD/svg11.dtd">
<!-- Generated by graphviz version 2.43.0 (0)
 -->
<!-- Title: src/libs/vtools/dialogs/tools/dialogpointofcontact.h Pages: 1 -->
<!--zoomable 159 -->

<svg id="main" version="1.1" xmlns="http://www.w3.org/2000/svg" xmlns:xlink="http://www.w3.org/1999/xlink" xml:space="preserve" onload="init(evt)">
<style type="text/css"><![CDATA[
.node, .edge {opacity: 0.7;}
.node.selected, .edge.selected {opacity: 1;}
.edge:hover path { stroke: red; }
.edge:hover polygon { stroke: red; fill: red; }
]]></style>

<defs>
  <circle id="rim" cx="0" cy="0" r="7"/>
  <circle id="rim2" cx="0" cy="0" r="3.5"/>
  <g id="zoomPlus">
    <use xlink:href="#rim" fill="#404040"><set attributeName="fill" to="#808080" begin="zoomplus.mouseover" end="zoomplus.mouseout"/></use>
    <path d="M-4,0h8M0,-4v8" fill="none" stroke="white" stroke-width="1.5" pointer-events="none"/>
  </g>
  <g id="zoomMin">
    <use xlink:href="#rim" fill="#404040"><set attributeName="fill" to="#808080" begin="zoomminus.mouseover" end="zoomminus.mouseout"/></use>
    <path d="M-4,0h8" fill="none" stroke="white" stroke-width="1.5" pointer-events="none"/>
  </g>
  <g id="arrowUp" transform="translate(30 24)">
    <use xlink:href="#rim"/>
    <path pointer-events="none" fill="none" stroke="white" stroke-width="1.5" d="M0,-3.0v7 M-2.5,-0.5L0,-3.0L2.5,-0.5"/>
  </g>
  <g id="arrowRight" transform="rotate(90) translate(36 -43)">
    <use xlink:href="#rim"/>
    <path pointer-events="none" fill="none" stroke="white" stroke-width="1.5" d="M0,-3.0v7 M-2.5,-0.5L0,-3.0L2.5,-0.5"/>
  </g>
  <g id="arrowDown" transform="rotate(180) translate(-30 -48)">
    <use xlink:href="#rim"/>
    <path pointer-events="none" fill="none" stroke="white" stroke-width="1.5" d="M0,-3.0v7 M-2.5,-0.5L0,-3.0L2.5,-0.5"/>
  </g>
  <g id="arrowLeft" transform="rotate(270) translate(-36 17)">
    <use xlink:href="#rim"/>
    <path pointer-events="none" fill="none" stroke="white" stroke-width="1.5" d="M0,-3.0v7 M-2.5,-0.5L0,-3.0L2.5,-0.5"/>
  </g>
  <g id="resetDef">
    <use xlink:href="#rim2" fill="#404040"><set attributeName="fill" to="#808080" begin="reset.mouseover" end="reset.mouseout"/></use>
  </g>
</defs>
<script type="application/ecmascript">
var viewWidth = 2994;
var viewHeight = 159;
var sectionId = 'dynsection-0';
</script>
<script type="application/ecmascript" xlink:href="../../svg.min.js"/>
<svg id="graph" class="graph">
<g id="viewport">
<title>src/libs/vtools/dialogs/tools/dialogpointofcontact.h</title>
<!-- Node1 -->
<g id="Node000001" class="node">
<title>Node1</title>
<g id="a_Node000001"><a xlink:title=" ">
<polygon fill="#999999" stroke="#666666" points="461,-151 305,-151 305,-121 461,-121 461,-151"/>
<text text-anchor="start" x="313" y="-139" font-family="Helvetica,sans-Serif" font-size="10.00">src/libs/vtools/dialogs</text>
<text text-anchor="middle" x="383" y="-128" font-family="Helvetica,sans-Serif" font-size="10.00">/tools/dialogpointofcontact.h</text>
</a>
</g>
</g>
<!-- Node2 -->
<g id="Node000002" class="node">
<title>Node2</title>
<g id="a_Node000002"><a xlink:title=" ">
<polygon fill="#e0e0e0" stroke="#999999" points="120,-24.5 0,-24.5 0,-5.5 120,-5.5 120,-24.5"/>
<text text-anchor="middle" x="60" y="-12.5" font-family="Helvetica,sans-Serif" font-size="10.00">qcompilerdetection.h</text>
</a>
</g>
</g>
<!-- Node1&#45;&gt;Node2 -->
<g id="edge1_Node000001_Node000002" class="edge">
<title>Node1&#45;&gt;Node2</title>
<g id="a_edge1_Node000001_Node000002"><a xlink:title=" ">
<path fill="none" stroke="#63b8ff" d="M345,-121C281.02,-97.43 152.91,-50.23 92.69,-28.04"/>
<polygon fill="#63b8ff" stroke="#63b8ff" points="93.88,-24.75 83.29,-24.58 91.46,-31.32 93.88,-24.75"/>
</a>
</g>
</g>
<!-- Node3 -->
<g id="Node000003" class="node">
<title>Node3</title>
<g id="a_Node000003"><a xlink:title=" ">
<polygon fill="#e0e0e0" stroke="#999999" points="218,-24.5 138,-24.5 138,-5.5 218,-5.5 218,-24.5"/>
<text text-anchor="middle" x="178" y="-12.5" font-family="Helvetica,sans-Serif" font-size="10.00">QMetaObject</text>
</a>
</g>
</g>
<!-- Node1&#45;&gt;Node3 -->
<g id="edge2_Node000001_Node000003" class="edge">
<title>Node1&#45;&gt;Node3</title>
<g id="a_edge2_Node000001_Node000003"><a xlink:title=" ">
<path fill="none" stroke="#63b8ff" d="M358.68,-120.88C319.08,-97.9 241.16,-52.66 201.86,-29.85"/>
<polygon fill="#63b8ff" stroke="#63b8ff" points="203.15,-26.55 192.75,-24.56 199.64,-32.61 203.15,-26.55"/>
</a>
</g>
</g>
<!-- Node4 -->
<g id="Node000004" class="node">
<title>Node4</title>
<g id="a_Node000004"><a xlink:title=" ">
<polygon fill="#e0e0e0" stroke="#999999" points="292,-24.5 236,-24.5 236,-5.5 292,-5.5 292,-24.5"/>
<text text-anchor="middle" x="264" y="-12.5" font-family="Helvetica,sans-Serif" font-size="10.00">QObject</text>
</a>
</g>
</g>
<!-- Node1&#45;&gt;Node4 -->
<g id="edge3_Node000001_Node000004" class="edge">
<title>Node1&#45;&gt;Node4</title>
<g id="a_edge3_Node000001_Node000004"><a xlink:title=" ">
<path fill="none" stroke="#63b8ff" d="M368.88,-120.88C346.54,-98.54 303.16,-55.16 279.81,-31.81"/>
<polygon fill="#63b8ff" stroke="#63b8ff" points="282.26,-29.31 272.71,-24.71 277.31,-34.26 282.26,-29.31"/>
</a>
</g>
</g>
<!-- Node5 -->
<g id="Node000005" class="node">
<title>Node5</title>
<g id="a_Node000005"><a xlink:title=" ">
<polygon fill="#e0e0e0" stroke="#999999" points="363.5,-24.5 310.5,-24.5 310.5,-5.5 363.5,-5.5 363.5,-24.5"/>
<text text-anchor="middle" x="337" y="-12.5" font-family="Helvetica,sans-Serif" font-size="10.00">QString</text>
</a>
</g>
</g>
<!-- Node1&#45;&gt;Node5 -->
<g id="edge4_Node000001_Node000005" class="edge">
<title>Node1&#45;&gt;Node5</title>
<g id="a_edge4_Node000001_Node000005"><a xlink:title=" ">
<path fill="none" stroke="#63b8ff" d="M377.54,-120.88C369.2,-99.31 353.29,-58.15 344.08,-34.31"/>
<polygon fill="#63b8ff" stroke="#63b8ff" points="347.24,-32.78 340.37,-24.71 340.71,-35.3 347.24,-32.78"/>
</a>
</g>
</g>
<!-- Node6 -->
<g id="Node000006" class="node">
<title>Node6</title>
<g id="a_Node000006"><a xlink:title=" ">
<polygon fill="#e0e0e0" stroke="#999999" points="440.5,-24.5 381.5,-24.5 381.5,-5.5 440.5,-5.5 440.5,-24.5"/>
<text text-anchor="middle" x="411" y="-12.5" font-family="Helvetica,sans-Serif" font-size="10.00">QtGlobal</text>
</a>
</g>
</g>
<!-- Node1&#45;&gt;Node6 -->
<g id="edge5_Node000001_Node000006" class="edge">
<title>Node1&#45;&gt;Node6</title>
<g id="a_edge5_Node000001_Node000006"><a xlink:title=" ">
<path fill="none" stroke="#63b8ff" d="M386.32,-120.88C391.37,-99.41 400.99,-58.52 406.61,-34.64"/>
<polygon fill="#63b8ff" stroke="#63b8ff" points="410.07,-35.25 408.95,-24.71 403.25,-33.64 410.07,-35.25"/>
</a>
</g>
</g>
<!-- Node7 -->
<g id="Node000007" class="node">
<title>Node7</title>
<g id="a_Node000007"><a xlink:title=" ">
<polygon fill="#e0e0e0" stroke="#999999" points="541,-24.5 459,-24.5 459,-5.5 541,-5.5 541,-24.5"/>
<text text-anchor="middle" x="500" y="-12.5" font-family="Helvetica,sans-Serif" font-size="10.00">../vmisc/def.h</text>
</a>
</g>
</g>
<!-- Node1&#45;&gt;Node7 -->
<g id="edge6_Node000001_Node000007" class="edge">
<title>Node1&#45;&gt;Node7</title>
<g id="a_edge6_Node000001_Node000007"><a xlink:title=" ">
<path fill="none" stroke="#63b8ff" d="M396.88,-120.88C418.76,-98.63 461.13,-55.54 484.16,-32.11"/>
<polygon fill="#63b8ff" stroke="#63b8ff" points="486.92,-34.3 491.44,-24.71 481.93,-29.39 486.92,-34.3"/>
</a>
</g>
</g>
<!-- Node8 -->
<g id="Node000008" class="node">
<title>Node8</title>
<g id="a_Node000008"><a xlink:href="../../d1/d30/dialogtool_8h.html" target="_top" xlink:title=" ">
<polygon fill="white" stroke="#666666" points="1517,-85 1443,-85 1443,-66 1517,-66 1517,-85"/>
<text text-anchor="middle" x="1480" y="-73" font-family="Helvetica,sans-Serif" font-size="10.00">dialogtool.h</text>
</a>
</g>
</g>
<!-- Node1&#45;&gt;Node8 -->
<g id="edge7_Node000001_Node000008" class="edge">
<title>Node1&#45;&gt;Node8</title>
<g id="a_edge7_Node000001_Node000008"><a xlink:title=" ">
<path fill="none" stroke="#63b8ff" d="M461.01,-130.84C674.13,-119.47 1261.64,-88.14 1432.69,-79.02"/>
<polygon fill="#63b8ff" stroke="#63b8ff" points="1433.08,-82.51 1442.88,-78.48 1432.71,-75.52 1433.08,-82.51"/>
</a>
</g>
</g>
<!-- Node31 -->
<g id="Node000031" class="node">
<title>Node31</title>
<g id="a_Node000031"><a xlink:title=" ">
<polygon fill="#e0e0e0" stroke="#999999" points="1675,-85 1535,-85 1535,-66 1675,-66 1675,-85"/>
<text text-anchor="middle" x="1605" y="-73" font-family="Helvetica,sans-Serif" font-size="10.00">ui_dialogpointofcontact.h</text>
</a>
</g>
</g>
<!-- Node1&#45;&gt;Node31 -->
<g id="edge36_Node000001_Node000031" class="edge">
<title>Node1&#45;&gt;Node31</title>
<g id="a_edge36_Node000001_Node000031"><a xlink:title=" ">
<path fill="none" stroke="#63b8ff" d="M461.06,-133.29C644.62,-128.91 1118.21,-115.45 1524.62,-85.05"/>
<polygon fill="#63b8ff" stroke="#63b8ff" points="1525.1,-88.53 1534.81,-84.29 1524.58,-81.55 1525.1,-88.53"/>
</a>
</g>
</g>
<!-- Node8&#45;&gt;Node2 -->
<g id="edge8_Node000008_Node000002" class="edge">
<title>Node8&#45;&gt;Node2</title>
<g id="a_edge8_Node000008_Node000002"><a xlink:title=" ">
<path fill="none" stroke="#63b8ff" d="M1442.73,-74.12C1253.08,-72.03 393.84,-61.01 129,-30 121.66,-29.14 113.93,-27.9 106.41,-26.52"/>
<polygon fill="#63b8ff" stroke="#63b8ff" points="106.83,-23.03 96.34,-24.56 105.49,-29.91 106.83,-23.03"/>
</a>
</g>
</g>
<!-- Node8&#45;&gt;Node3 -->
<g id="edge19_Node000008_Node000003" class="edge">
<title>Node8&#45;&gt;Node3</title>
<g id="a_edge19_Node000008_Node000003"><a xlink:title=" ">
<path fill="none" stroke="#63b8ff" d="M1442.72,-74.39C1261.35,-73.7 470.08,-68.46 227,-30 222.5,-29.29 217.84,-28.3 213.25,-27.17"/>
<polygon fill="#63b8ff" stroke="#63b8ff" points="213.99,-23.74 203.42,-24.53 212.17,-30.5 213.99,-23.74"/>
</a>
</g>
</g>
<!-- Node8&#45;&gt;Node4 -->
<g id="edge20_Node000008_Node000004" class="edge">
<title>Node8&#45;&gt;Node4</title>
<g id="a_edge20_Node000008_Node000004"><a xlink:title=" ">
<path fill="none" stroke="#63b8ff" d="M1442.84,-74.71C1268.09,-75.45 527.11,-75.77 301,-30 298.32,-29.46 295.57,-28.74 292.85,-27.93"/>
<polygon fill="#63b8ff" stroke="#63b8ff" points="293.83,-24.56 283.24,-24.63 291.56,-31.18 293.83,-24.56"/>
</a>
</g>
</g>
<!-- Node8&#45;&gt;Node5 -->
<g id="edge24_Node000008_Node000005" class="edge">
<title>Node8&#45;&gt;Node5</title>
<g id="a_edge24_Node000008_Node000005"><a xlink:title=" ">
<path fill="none" stroke="#63b8ff" d="M1442.84,-74.7C1274.57,-75.32 583.1,-75.07 372,-30 369.62,-29.49 367.2,-28.84 364.79,-28.09"/>
<polygon fill="#63b8ff" stroke="#63b8ff" points="365.75,-24.72 355.16,-24.62 363.38,-31.3 365.75,-24.72"/>
</a>
</g>
</g>
<!-- Node8&#45;&gt;Node6 -->
<g id="edge26_Node000008_Node000006" class="edge">
<title>Node8&#45;&gt;Node6</title>
<g id="a_edge26_Node000008_Node000006"><a xlink:title=" ">
<path fill="none" stroke="#63b8ff" d="M1442.83,-74.39C1282.06,-73.68 645.83,-68.46 450,-30 446.99,-29.41 443.9,-28.63 440.85,-27.73"/>
<polygon fill="#63b8ff" stroke="#63b8ff" points="441.91,-24.4 431.32,-24.6 439.72,-31.05 441.91,-24.4"/>
</a>
</g>
</g>
<!-- Node8&#45;&gt;Node7 -->
<g id="edge31_Node000008_Node000007" class="edge">
<title>Node8&#45;&gt;Node7</title>
<g id="a_edge31_Node000008_Node000007"><a xlink:title=" ">
<path fill="none" stroke="#63b8ff" d="M1442.79,-73.81C1292.16,-70.85 727.3,-58.07 551,-30 546.26,-29.25 541.33,-28.22 536.49,-27.05"/>
<polygon fill="#63b8ff" stroke="#63b8ff" points="537.31,-23.65 526.75,-24.53 535.56,-30.43 537.31,-23.65"/>
</a>
</g>
</g>
<!-- Node9 -->
<g id="Node000009" class="node">
<title>Node9</title>
<g id="a_Node000009"><a xlink:title=" ">
<polygon fill="#e0e0e0" stroke="#999999" points="1312.5,-24.5 1239.5,-24.5 1239.5,-5.5 1312.5,-5.5 1312.5,-24.5"/>
<text text-anchor="middle" x="1276" y="-12.5" font-family="Helvetica,sans-Serif" font-size="10.00">QCheckBox</text>
</a>
</g>
</g>
<!-- Node8&#45;&gt;Node9 -->
<g id="edge9_Node000008_Node000009" class="edge">
<title>Node8&#45;&gt;Node9</title>
<g id="a_edge9_Node000008_Node000009"><a xlink:title=" ">
<path fill="none" stroke="#63b8ff" d="M1449.06,-65.99C1417.17,-57.17 1366.03,-42.9 1322,-30 1319.22,-29.19 1316.35,-28.34 1313.46,-27.47"/>
<polygon fill="#63b8ff" stroke="#63b8ff" points="1314.29,-24.07 1303.7,-24.53 1312.27,-30.77 1314.29,-24.07"/>
</a>
</g>
</g>
<!-- Node10 -->
<g id="Node000010" class="node">
<title>Node10</title>
<g id="a_Node000010"><a xlink:title=" ">
<polygon fill="#e0e0e0" stroke="#999999" points="1381,-24.5 1331,-24.5 1331,-5.5 1381,-5.5 1381,-24.5"/>
<text text-anchor="middle" x="1356" y="-12.5" font-family="Helvetica,sans-Serif" font-size="10.00">QColor</text>
</a>
</g>
</g>
<!-- Node8&#45;&gt;Node10 -->
<g id="edge10_Node000008_Node000010" class="edge">
<title>Node8&#45;&gt;Node10</title>
<g id="a_edge10_Node000008_Node000010"><a xlink:title=" ">
<path fill="none" stroke="#63b8ff" d="M1461.97,-65.99C1441.31,-56.25 1407.22,-40.16 1383.3,-28.88"/>
<polygon fill="#63b8ff" stroke="#63b8ff" points="1384.59,-25.62 1374.05,-24.52 1381.6,-31.95 1384.59,-25.62"/>
</a>
</g>
</g>
<!-- Node11 -->
<g id="Node000011" class="node">
<title>Node11</title>
<g id="a_Node000011"><a xlink:title=" ">
<polygon fill="#e0e0e0" stroke="#999999" points="1476.5,-24.5 1399.5,-24.5 1399.5,-5.5 1476.5,-5.5 1476.5,-24.5"/>
<text text-anchor="middle" x="1438" y="-12.5" font-family="Helvetica,sans-Serif" font-size="10.00">QComboBox</text>
</a>
</g>
</g>
<!-- Node8&#45;&gt;Node11 -->
<g id="edge11_Node000008_Node000011" class="edge">
<title>Node8&#45;&gt;Node11</title>
<g id="a_edge11_Node000008_Node000011"><a xlink:title=" ">
<path fill="none" stroke="#63b8ff" d="M1473.8,-65.87C1467.6,-57.23 1457.89,-43.7 1450.14,-32.92"/>
<polygon fill="#63b8ff" stroke="#63b8ff" points="1452.9,-30.75 1444.22,-24.67 1447.21,-34.83 1452.9,-30.75"/>
</a>
</g>
</g>
<!-- Node12 -->
<g id="Node000012" class="node">
<title>Node12</title>
<g id="a_Node000012"><a xlink:title=" ">
<polygon fill="#e0e0e0" stroke="#999999" points="1551,-24.5 1495,-24.5 1495,-5.5 1551,-5.5 1551,-24.5"/>
<text text-anchor="middle" x="1523" y="-12.5" font-family="Helvetica,sans-Serif" font-size="10.00">QDialog</text>
</a>
</g>
</g>
<!-- Node8&#45;&gt;Node12 -->
<g id="edge12_Node000008_Node000012" class="edge">
<title>Node8&#45;&gt;Node12</title>
<g id="a_edge12_Node000008_Node000012"><a xlink:title=" ">
<path fill="none" stroke="#63b8ff" d="M1486.34,-65.87C1492.7,-57.23 1502.64,-43.7 1510.57,-32.92"/>
<polygon fill="#63b8ff" stroke="#63b8ff" points="1513.53,-34.8 1516.63,-24.67 1507.89,-30.65 1513.53,-34.8"/>
</a>
</g>
</g>
<!-- Node13 -->
<g id="Node000013" class="node">
<title>Node13</title>
<g id="a_Node000013"><a xlink:title=" ">
<polygon fill="#e0e0e0" stroke="#999999" points="1676.5,-24.5 1569.5,-24.5 1569.5,-5.5 1676.5,-5.5 1676.5,-24.5"/>
<text text-anchor="middle" x="1623" y="-12.5" font-family="Helvetica,sans-Serif" font-size="10.00">QDialogButtonBox</text>
</a>
</g>
</g>
<!-- Node8&#45;&gt;Node13 -->
<g id="edge13_Node000008_Node000013" class="edge">
<title>Node8&#45;&gt;Node13</title>
<g id="a_edge13_Node000008_Node000013"><a xlink:title=" ">
<path fill="none" stroke="#63b8ff" d="M1500.79,-65.99C1524.94,-56.12 1564.98,-39.73 1592.62,-28.43"/>
<polygon fill="#63b8ff" stroke="#63b8ff" points="1594.25,-31.54 1602.18,-24.52 1591.6,-25.06 1594.25,-31.54"/>
</a>
</g>
</g>
<!-- Node14 -->
<g id="Node000014" class="node">
<title>Node14</title>
<g id="a_Node000014"><a xlink:title=" ">
<polygon fill="#e0e0e0" stroke="#999999" points="1757.5,-24.5 1694.5,-24.5 1694.5,-5.5 1757.5,-5.5 1757.5,-24.5"/>
<text text-anchor="middle" x="1726" y="-12.5" font-family="Helvetica,sans-Serif" font-size="10.00">QLineEdit</text>
</a>
</g>
</g>
<!-- Node8&#45;&gt;Node14 -->
<g id="edge14_Node000008_Node000014" class="edge">
<title>Node8&#45;&gt;Node14</title>
<g id="a_edge14_Node000008_Node000014"><a xlink:title=" ">
<path fill="none" stroke="#63b8ff" d="M1517.41,-67C1567.8,-56.8 1654.75,-38.81 1686,-30 1688.42,-29.32 1690.9,-28.57 1693.39,-27.79"/>
<polygon fill="#63b8ff" stroke="#63b8ff" points="1694.5,-31.1 1702.89,-24.64 1692.3,-24.46 1694.5,-31.1"/>
</a>
</g>
</g>
<!-- Node15 -->
<g id="Node000015" class="node">
<title>Node15</title>
<g id="a_Node000015"><a xlink:title=" ">
<polygon fill="#e0e0e0" stroke="#999999" points="1816.5,-24.5 1775.5,-24.5 1775.5,-5.5 1816.5,-5.5 1816.5,-24.5"/>
<text text-anchor="middle" x="1796" y="-12.5" font-family="Helvetica,sans-Serif" font-size="10.00">QList</text>
</a>
</g>
</g>
<!-- Node8&#45;&gt;Node15 -->
<g id="edge15_Node000008_Node000015" class="edge">
<title>Node8&#45;&gt;Node15</title>
<g id="a_edge15_Node000008_Node000015"><a xlink:title=" ">
<path fill="none" stroke="#63b8ff" d="M1517.14,-67.52C1520.13,-67 1523.12,-66.48 1526,-66 1632.82,-48.16 1663.51,-61.9 1767,-30 1768.26,-29.61 1769.54,-29.17 1770.82,-28.7"/>
<polygon fill="#63b8ff" stroke="#63b8ff" points="1772.58,-31.75 1780.4,-24.59 1769.83,-25.32 1772.58,-31.75"/>
</a>
</g>
</g>
<!-- Node16 -->
<g id="Node000016" class="node">
<title>Node16</title>
<g id="a_Node000016"><a xlink:title=" ">
<polygon fill="#e0e0e0" stroke="#999999" points="1911,-24.5 1835,-24.5 1835,-5.5 1911,-5.5 1911,-24.5"/>
<text text-anchor="middle" x="1873" y="-12.5" font-family="Helvetica,sans-Serif" font-size="10.00">QListWidget</text>
</a>
</g>
</g>
<!-- Node8&#45;&gt;Node16 -->
<g id="edge16_Node000008_Node000016" class="edge">
<title>Node8&#45;&gt;Node16</title>
<g id="a_edge16_Node000008_Node000016"><a xlink:title=" ">
<path fill="none" stroke="#63b8ff" d="M1517.12,-67.43C1520.12,-66.92 1523.11,-66.44 1526,-66 1658.76,-45.79 1694.51,-57.27 1826,-30 1829.72,-29.23 1833.57,-28.3 1837.4,-27.29"/>
<polygon fill="#63b8ff" stroke="#63b8ff" points="1838.66,-30.57 1847.34,-24.5 1836.77,-23.83 1838.66,-30.57"/>
</a>
</g>
</g>
<!-- Node17 -->
<g id="Node000017" class="node">
<title>Node17</title>
<g id="a_Node000017"><a xlink:title=" ">
<polygon fill="#e0e0e0" stroke="#999999" points="1985,-24.5 1929,-24.5 1929,-5.5 1985,-5.5 1985,-24.5"/>
<text text-anchor="middle" x="1957" y="-12.5" font-family="Helvetica,sans-Serif" font-size="10.00">QLocale</text>
</a>
</g>
</g>
<!-- Node8&#45;&gt;Node17 -->
<g id="edge17_Node000008_Node000017" class="edge">
<title>Node8&#45;&gt;Node17</title>
<g id="a_edge17_Node000008_Node000017"><a xlink:title=" ">
<path fill="none" stroke="#63b8ff" d="M1517.11,-67.34C1520.11,-66.85 1523.1,-66.4 1526,-66 1700.19,-42 1748.65,-69.48 1920,-30 1922.52,-29.42 1925.1,-28.71 1927.66,-27.92"/>
<polygon fill="#63b8ff" stroke="#63b8ff" points="1929.03,-31.14 1937.34,-24.57 1926.74,-24.53 1929.03,-31.14"/>
</a>
</g>
</g>
<!-- Node18 -->
<g id="Node000018" class="node">
<title>Node18</title>
<g id="a_Node000018"><a xlink:title=" ">
<polygon fill="#e0e0e0" stroke="#999999" points="2048.5,-24.5 2003.5,-24.5 2003.5,-5.5 2048.5,-5.5 2048.5,-24.5"/>
<text text-anchor="middle" x="2026" y="-12.5" font-family="Helvetica,sans-Serif" font-size="10.00">QMap</text>
</a>
</g>
</g>
<!-- Node8&#45;&gt;Node18 -->
<g id="edge18_Node000008_Node000018" class="edge">
<title>Node8&#45;&gt;Node18</title>
<g id="a_edge18_Node000008_Node000018"><a xlink:title=" ">
<path fill="none" stroke="#63b8ff" d="M1517.1,-67.3C1520.11,-66.82 1523.1,-66.38 1526,-66 1732.86,-39.01 1791.59,-80.52 1994,-30 1995.94,-29.52 1997.91,-28.92 1999.88,-28.26"/>
<polygon fill="#63b8ff" stroke="#63b8ff" points="2001.41,-31.42 2009.43,-24.5 1998.85,-24.9 2001.41,-31.42"/>
</a>
</g>
</g>
<!-- Node19 -->
<g id="Node000019" class="node">
<title>Node19</title>
<g id="a_Node000019"><a xlink:title=" ">
<polygon fill="#e0e0e0" stroke="#999999" points="2125.5,-24.5 2066.5,-24.5 2066.5,-5.5 2125.5,-5.5 2125.5,-24.5"/>
<text text-anchor="middle" x="2096" y="-12.5" font-family="Helvetica,sans-Serif" font-size="10.00">QPointer</text>
</a>
</g>
</g>
<!-- Node8&#45;&gt;Node19 -->
<g id="edge21_Node000008_Node000019" class="edge">
<title>Node8&#45;&gt;Node19</title>
<g id="a_edge21_Node000008_Node000019"><a xlink:title=" ">
<path fill="none" stroke="#63b8ff" d="M1517.1,-67.27C1520.1,-66.8 1523.1,-66.36 1526,-66 1761.13,-36.42 1826.23,-79.47 2058,-30 2060.84,-29.39 2063.75,-28.62 2066.63,-27.75"/>
<polygon fill="#63b8ff" stroke="#63b8ff" points="2067.85,-31.03 2076.2,-24.51 2065.61,-24.4 2067.85,-31.03"/>
</a>
</g>
</g>
<!-- Node20 -->
<g id="Node000020" class="node">
<title>Node20</title>
<g id="a_Node000020"><a xlink:title=" ">
<polygon fill="#e0e0e0" stroke="#999999" points="2224,-24.5 2144,-24.5 2144,-5.5 2224,-5.5 2224,-24.5"/>
<text text-anchor="middle" x="2184" y="-12.5" font-family="Helvetica,sans-Serif" font-size="10.00">QPushButton</text>
</a>
</g>
</g>
<!-- Node8&#45;&gt;Node20 -->
<g id="edge22_Node000008_Node000020" class="edge">
<title>Node8&#45;&gt;Node20</title>
<g id="a_edge22_Node000008_Node000020"><a xlink:title=" ">
<path fill="none" stroke="#63b8ff" d="M1517.1,-67.24C1520.1,-66.77 1523.1,-66.35 1526,-66 1795.16,-33.3 1867.71,-75.52 2135,-30 2139.27,-29.27 2143.7,-28.31 2148.06,-27.23"/>
<polygon fill="#63b8ff" stroke="#63b8ff" points="2149.3,-30.53 2158.05,-24.56 2147.49,-23.77 2149.3,-30.53"/>
</a>
</g>
</g>
<!-- Node21 -->
<g id="Node000021" class="node">
<title>Node21</title>
<g id="a_Node000021"><a xlink:title=" ">
<polygon fill="#e0e0e0" stroke="#999999" points="2326,-24.5 2242,-24.5 2242,-5.5 2326,-5.5 2326,-24.5"/>
<text text-anchor="middle" x="2284" y="-12.5" font-family="Helvetica,sans-Serif" font-size="10.00">QRadioButton</text>
</a>
</g>
</g>
<!-- Node8&#45;&gt;Node21 -->
<g id="edge23_Node000008_Node000021" class="edge">
<title>Node8&#45;&gt;Node21</title>
<g id="a_edge23_Node000008_Node000021"><a xlink:title=" ">
<path fill="none" stroke="#63b8ff" d="M1517.09,-67.21C1520.1,-66.75 1523.1,-66.34 1526,-66 1838.49,-29.34 1922.36,-79.94 2233,-30 2237.74,-29.24 2242.66,-28.2 2247.51,-27.04"/>
<polygon fill="#63b8ff" stroke="#63b8ff" points="2248.44,-30.42 2257.24,-24.52 2246.68,-23.64 2248.44,-30.42"/>
</a>
</g>
</g>
<!-- Node22 -->
<g id="Node000022" class="node">
<title>Node22</title>
<g id="a_Node000022"><a xlink:title=" ">
<polygon fill="#e0e0e0" stroke="#999999" points="2403.5,-24.5 2344.5,-24.5 2344.5,-5.5 2403.5,-5.5 2403.5,-24.5"/>
<text text-anchor="middle" x="2374" y="-12.5" font-family="Helvetica,sans-Serif" font-size="10.00">QVariant</text>
</a>
</g>
</g>
<!-- Node8&#45;&gt;Node22 -->
<g id="edge25_Node000008_Node000022" class="edge">
<title>Node8&#45;&gt;Node22</title>
<g id="a_edge25_Node000008_Node000022"><a xlink:title=" ">
<path fill="none" stroke="#63b8ff" d="M1517.09,-67.19C1520.1,-66.74 1523.1,-66.33 1526,-66 1883.59,-25.2 1981.88,-99.58 2335,-30 2338.01,-29.41 2341.1,-28.62 2344.15,-27.73"/>
<polygon fill="#63b8ff" stroke="#63b8ff" points="2345.28,-31.04 2353.68,-24.59 2343.09,-24.4 2345.28,-31.04"/>
</a>
</g>
</g>
<!-- Node23 -->
<g id="Node000023" class="node">
<title>Node23</title>
<g id="a_Node000023"><a xlink:title=" ">
<polygon fill="#e0e0e0" stroke="#999999" points="2542.5,-30 2421.5,-30 2421.5,0 2542.5,0 2542.5,-30"/>
<text text-anchor="start" x="2429.5" y="-18" font-family="Helvetica,sans-Serif" font-size="10.00">../vtools/visualization</text>
<text text-anchor="middle" x="2482" y="-7" font-family="Helvetica,sans-Serif" font-size="10.00">/visualization.h</text>
</a>
</g>
</g>
<!-- Node8&#45;&gt;Node23 -->
<g id="edge27_Node000008_Node000023" class="edge">
<title>Node8&#45;&gt;Node23</title>
<g id="a_edge27_Node000008_Node000023"><a xlink:title=" ">
<path fill="none" stroke="#63b8ff" d="M1517.09,-67.18C1520.1,-66.73 1523.09,-66.33 1526,-66 1914.74,-22.42 2019.52,-76.44 2410.95,-30.12"/>
<polygon fill="#63b8ff" stroke="#63b8ff" points="2411.62,-33.56 2421.13,-28.9 2410.79,-26.61 2411.62,-33.56"/>
</a>
</g>
</g>
<!-- Node24 -->
<g id="Node000024" class="node">
<title>Node24</title>
<g id="a_Node000024"><a xlink:title=" ">
<polygon fill="#e0e0e0" stroke="#999999" points="2713,-24.5 2561,-24.5 2561,-5.5 2713,-5.5 2713,-24.5"/>
<text text-anchor="middle" x="2637" y="-12.5" font-family="Helvetica,sans-Serif" font-size="10.00">../ifc/xml/vabstractpattern.h</text>
</a>
</g>
</g>
<!-- Node8&#45;&gt;Node24 -->
<g id="edge28_Node000008_Node000024" class="edge">
<title>Node8&#45;&gt;Node24</title>
<g id="a_edge28_Node000008_Node000024"><a xlink:title=" ">
<path fill="none" stroke="#63b8ff" d="M1517.09,-67.16C1520.1,-66.71 1523.09,-66.32 1526,-66 1979.58,-16.41 2097.96,-75.17 2552,-30 2561.61,-29.04 2571.78,-27.68 2581.61,-26.17"/>
<polygon fill="#63b8ff" stroke="#63b8ff" points="2582.38,-29.6 2591.71,-24.56 2581.28,-22.68 2582.38,-29.6"/>
</a>
</g>
</g>
<!-- Node25 -->
<g id="Node000025" class="node">
<title>Node25</title>
<g id="a_Node000025"><a xlink:title=" ">
<polygon fill="#e0e0e0" stroke="#999999" points="2808.5,-24.5 2731.5,-24.5 2731.5,-5.5 2808.5,-5.5 2808.5,-24.5"/>
<text text-anchor="middle" x="2770" y="-12.5" font-family="Helvetica,sans-Serif" font-size="10.00">../ifc/ifcdef.h</text>
</a>
</g>
</g>
<!-- Node8&#45;&gt;Node25 -->
<g id="edge29_Node000008_Node000025" class="edge">
<title>Node8&#45;&gt;Node25</title>
<g id="a_edge29_Node000008_Node000025"><a xlink:title=" ">
<path fill="none" stroke="#63b8ff" d="M1517.09,-67.14C1520.09,-66.7 1523.09,-66.31 1526,-66 2054.79,-9.52 2196.74,-113.12 2722,-30 2726.24,-29.33 2730.64,-28.39 2734.97,-27.32"/>
<polygon fill="#63b8ff" stroke="#63b8ff" points="2736.13,-30.63 2744.86,-24.63 2734.3,-23.88 2736.13,-30.63"/>
</a>
</g>
</g>
<!-- Node26 -->
<g id="Node000026" class="node">
<title>Node26</title>
<g id="a_Node000026"><a xlink:title=" ">
<polygon fill="#e0e0e0" stroke="#999999" points="2985.5,-24.5 2826.5,-24.5 2826.5,-5.5 2985.5,-5.5 2985.5,-24.5"/>
<text text-anchor="middle" x="2906" y="-12.5" font-family="Helvetica,sans-Serif" font-size="10.00">../vgeometry/vgeometrydef.h</text>
</a>
</g>
</g>
<!-- Node8&#45;&gt;Node26 -->
<g id="edge30_Node000008_Node000026" class="edge">
<title>Node8&#45;&gt;Node26</title>
<g id="a_edge30_Node000008_Node000026"><a xlink:title=" ">
<path fill="none" stroke="#63b8ff" d="M1517.09,-67.14C1520.09,-66.7 1523.09,-66.31 1526,-66 2097.26,-5.63 2246.03,-83.24 2818,-30 2828.27,-29.04 2839.16,-27.64 2849.66,-26.08"/>
<polygon fill="#63b8ff" stroke="#63b8ff" points="2850.21,-29.53 2859.56,-24.54 2849.14,-22.61 2850.21,-29.53"/>
</a>
</g>
</g>
<!-- Node27 -->
<g id="Node000027" class="node">
<title>Node27</title>
<g id="a_Node000027"><a xlink:title=" ">
<polygon fill="#e0e0e0" stroke="#999999" points="662.5,-24.5 559.5,-24.5 559.5,-5.5 662.5,-5.5 662.5,-24.5"/>
<text text-anchor="middle" x="611" y="-12.5" font-family="Helvetica,sans-Serif" font-size="10.00">../vmisc/logging.h</text>
</a>
</g>
</g>
<!-- Node8&#45;&gt;Node27 -->
<g id="edge32_Node000008_Node000027" class="edge">
<title>Node8&#45;&gt;Node27</title>
<g id="a_edge32_Node000008_Node000027"><a xlink:title=" ">
<path fill="none" stroke="#63b8ff" d="M1442.73,-74.7C1327.5,-74.84 966.91,-71.65 672,-30 666,-29.15 659.73,-28.01 653.58,-26.74"/>
<polygon fill="#63b8ff" stroke="#63b8ff" points="653.93,-23.24 643.42,-24.52 652.44,-30.08 653.93,-23.24"/>
</a>
</g>
</g>
<!-- Node28 -->
<g id="Node000028" class="node">
<title>Node28</title>
<g id="a_Node000028"><a xlink:title=" ">
<polygon fill="#e0e0e0" stroke="#999999" points="847.5,-24.5 680.5,-24.5 680.5,-5.5 847.5,-5.5 847.5,-24.5"/>
<text text-anchor="middle" x="764" y="-12.5" font-family="Helvetica,sans-Serif" font-size="10.00">../vmisc/vabstractapplication.h</text>
</a>
</g>
</g>
<!-- Node8&#45;&gt;Node28 -->
<g id="edge33_Node000008_Node000028" class="edge">
<title>Node8&#45;&gt;Node28</title>
<g id="a_edge33_Node000008_Node000028"><a xlink:title=" ">
<path fill="none" stroke="#63b8ff" d="M1442.69,-72.85C1345.83,-68.36 1078.48,-54.54 857,-30 847.02,-28.89 836.47,-27.51 826.19,-26.05"/>
<polygon fill="#63b8ff" stroke="#63b8ff" points="826.45,-22.55 816.04,-24.57 825.43,-29.48 826.45,-22.55"/>
</a>
</g>
</g>
<!-- Node29 -->
<g id="Node000029" class="node">
<title>Node29</title>
<g id="a_Node000029"><a xlink:title=" ">
<polygon fill="#e0e0e0" stroke="#999999" points="1020.5,-24.5 865.5,-24.5 865.5,-5.5 1020.5,-5.5 1020.5,-24.5"/>
<text text-anchor="middle" x="943" y="-12.5" font-family="Helvetica,sans-Serif" font-size="10.00">../vmisc/vcommonsettings.h</text>
</a>
</g>
</g>
<!-- Node8&#45;&gt;Node29 -->
<g id="edge34_Node000008_Node000029" class="edge">
<title>Node8&#45;&gt;Node29</title>
<g id="a_edge34_Node000008_Node000029"><a xlink:title=" ">
<path fill="none" stroke="#63b8ff" d="M1442.87,-71.6C1365.78,-65.41 1182.79,-49.83 1030,-30 1021.18,-28.86 1011.88,-27.51 1002.78,-26.11"/>
<polygon fill="#63b8ff" stroke="#63b8ff" points="1003.03,-22.61 992.61,-24.52 1001.95,-29.52 1003.03,-22.61"/>
</a>
</g>
</g>
<!-- Node30 -->
<g id="Node000030" class="node">
<title>Node30</title>
<g id="a_Node000030"><a xlink:title=" ">
<polygon fill="#e0e0e0" stroke="#999999" points="1221,-24.5 1039,-24.5 1039,-5.5 1221,-5.5 1221,-24.5"/>
<text text-anchor="middle" x="1130" y="-12.5" font-family="Helvetica,sans-Serif" font-size="10.00">../vwidgets/vmaingraphicsscene.h</text>
</a>
</g>
</g>
<!-- Node8&#45;&gt;Node30 -->
<g id="edge35_Node000008_Node000030" class="edge">
<title>Node8&#45;&gt;Node30</title>
<g id="a_edge35_Node000008_Node000030"><a xlink:title=" ">
<path fill="none" stroke="#63b8ff" d="M1442.88,-68.29C1382.81,-58.25 1263.71,-38.35 1191.03,-26.2"/>
<polygon fill="#63b8ff" stroke="#63b8ff" points="1191.53,-22.74 1181.09,-24.54 1190.38,-29.64 1191.53,-22.74"/>
</a>
</g>
</g>
</g>
</svg>

<g id="navigator" transform="translate(0 0)" fill="#404254">
  <rect fill="#f2f5e9" fill-opacity="0.5" stroke="#606060" stroke-width=".5" x="0" y="0" width="60" height="60"/>
  <use id="zoomplus" xlink:href="#zoomPlus" x="17" y="9" onmousedown="handleZoom(evt,'in')"/>
  <use id="zoomminus" xlink:href="#zoomMin" x="42" y="9" onmousedown="handleZoom(evt,'out')"/>
  <use id="reset" xlink:href="#resetDef" x="30" y="36" onmousedown="handleReset()"/>
   <use id="arrowup" xlink:href="#arrowUp" x="0" y="0" onmousedown="handlePan(0,-1)"/>
  <use id="arrowright" xlink:href="#arrowRight" x="0" y="0" onmousedown="handlePan(1,0)"/>
  <use id="arrowdown" xlink:href="#arrowDown" x="0" y="0" onmousedown="handlePan(0,1)"/>
  <use id="arrowleft" xlink:href="#arrowLeft" x="0" y="0" onmousedown="handlePan(-1,0)"/>
</g>
<svg viewBox="0 0 15 15" width="100%" height="30px" preserveAspectRatio="xMaxYMin meet">
 <g id="arrow_out" transform="scale(0.3 0.3)">
  <a xlink:href="dialogpointofcontact_8h__incl_org.svg" target="_base">
   <rect id="button" ry="5" rx="5" y="6" x="6" height="38" width="38"
        fill="#f2f5e9" fill-opacity="0.5" stroke="#606060" stroke-width="1.0"/>
   <path id="arrow"
     d="M 11.500037,31.436501 C 11.940474,20.09759 22.043105,11.32322 32.158766,21.979434 L 37.068811,17.246167 C 37.068811,17.246167 37.088388,32 37.088388,32 L 22.160133,31.978069 C 22.160133,31.978069 26.997745,27.140456 26.997745,27.140456 C 18.528582,18.264221 13.291696,25.230495 11.500037,31.436501 z"
     style="fill:#404040;"/>
  </a>
 </g>
</svg>

<style type='text/css'>
<![CDATA[
[data-mouse-over-selected='false'] { opacity: 0.7; }
[data-mouse-over-selected='true']  { opacity: 1.0; }
]]>
</style>
<script type="application/ecmascript"><![CDATA[
document.addEventListener('DOMContentLoaded', (event) => {
  highlightEdges();
  highlightAdjacentNodes();
});
]]></script>
</svg>
