<?xml version="1.0" encoding="UTF-8" standalone="no"?>
<!DOCTYPE svg PUBLIC "-//W3C//DTD SVG 1.1//EN"
 "http://www.w3.org/Graphics/SVG/1.1/DTD/svg11.dtd">
<!-- Generated by graphviz version 2.43.0 (0)
 -->
<!-- Title: src/libs/ifc/xml/vabstractconverter.cpp Pages: 1 -->
<svg width="2480pt" height="357pt"
 viewBox="0.00 0.00 2479.50 357.00" xmlns="http://www.w3.org/2000/svg" xmlns:xlink="http://www.w3.org/1999/xlink">
<g id="graph0" class="graph" transform="scale(1 1) rotate(0) translate(4 353)">
<title>src/libs/ifc/xml/vabstractconverter.cpp</title>
<!-- Node1 -->
<g id="Node000001" class="node">
<title>Node1</title>
<g id="a_Node000001"><a xlink:title=" ">
<polygon fill="#999999" stroke="#666666" points="1844.5,-349 1641.5,-349 1641.5,-330 1844.5,-330 1844.5,-349"/>
<text text-anchor="middle" x="1743" y="-337" font-family="Helvetica,sans-Serif" font-size="10.00">src/libs/ifc/xml/vabstractconverter.cpp</text>
</a>
</g>
</g>
<!-- Node2 -->
<g id="Node000002" class="node">
<title>Node2</title>
<g id="a_Node000002"><a xlink:href="../../df/de4/vabstractconverter_8h.html" target="_top" xlink:title=" ">
<polygon fill="white" stroke="#666666" points="764.5,-294 647.5,-294 647.5,-275 764.5,-275 764.5,-294"/>
<text text-anchor="middle" x="706" y="-282" font-family="Helvetica,sans-Serif" font-size="10.00">vabstractconverter.h</text>
</a>
</g>
</g>
<!-- Node1&#45;&gt;Node2 -->
<g id="edge1_Node000001_Node000002" class="edge">
<title>Node1&#45;&gt;Node2</title>
<g id="a_edge1_Node000001_Node000002"><a xlink:title=" ">
<path fill="none" stroke="#63b8ff" d="M1641.21,-333.3C1430.83,-322.55 952.94,-298.12 774.71,-289.01"/>
<polygon fill="#63b8ff" stroke="#63b8ff" points="774.84,-285.51 764.67,-288.5 774.48,-292.5 774.84,-285.51"/>
</a>
</g>
</g>
<!-- Node8 -->
<g id="Node000008" class="node">
<title>Node8</title>
<g id="a_Node000008"><a xlink:href="../../d8/da5/vdomdocument_8h.html" target="_top" xlink:title=" ">
<polygon fill="white" stroke="#666666" points="1417,-239 1315,-239 1315,-220 1417,-220 1417,-239"/>
<text text-anchor="middle" x="1366" y="-227" font-family="Helvetica,sans-Serif" font-size="10.00">vdomdocument.h</text>
</a>
</g>
</g>
<!-- Node1&#45;&gt;Node8 -->
<g id="edge66_Node000001_Node000008" class="edge">
<title>Node1&#45;&gt;Node8</title>
<g id="a_edge66_Node000001_Node000008"><a xlink:title=" ">
<path fill="none" stroke="#63b8ff" d="M1713.1,-329.94C1645.6,-310.6 1481.38,-263.55 1405.56,-241.83"/>
<polygon fill="#63b8ff" stroke="#63b8ff" points="1406.48,-238.46 1395.9,-239.07 1404.55,-245.18 1406.48,-238.46"/>
</a>
</g>
</g>
<!-- Node10 -->
<g id="Node000010" class="node">
<title>Node10</title>
<g id="a_Node000010"><a xlink:title=" ">
<polygon fill="#e0e0e0" stroke="#999999" points="1654,-184 1566,-184 1566,-165 1654,-165 1654,-184"/>
<text text-anchor="middle" x="1610" y="-172" font-family="Helvetica,sans-Serif" font-size="10.00">QDomElement</text>
</a>
</g>
</g>
<!-- Node1&#45;&gt;Node10 -->
<g id="edge25_Node000001_Node000010" class="edge">
<title>Node1&#45;&gt;Node10</title>
<g id="a_edge25_Node000001_Node000010"><a xlink:title=" ">
<path fill="none" stroke="#63b8ff" d="M1716.46,-329.9C1698.21,-322.8 1674.54,-311.1 1659,-294 1632.51,-264.86 1619.23,-219.41 1613.55,-194.1"/>
<polygon fill="#63b8ff" stroke="#63b8ff" points="1616.92,-193.1 1611.46,-184.02 1610.07,-194.52 1616.92,-193.1"/>
</a>
</g>
</g>
<!-- Node11 -->
<g id="Node000011" class="node">
<title>Node11</title>
<g id="a_Node000011"><a xlink:title=" ">
<polygon fill="#e0e0e0" stroke="#999999" points="1745.5,-184 1672.5,-184 1672.5,-165 1745.5,-165 1745.5,-184"/>
<text text-anchor="middle" x="1709" y="-172" font-family="Helvetica,sans-Serif" font-size="10.00">QDomNode</text>
</a>
</g>
</g>
<!-- Node1&#45;&gt;Node11 -->
<g id="edge26_Node000001_Node000011" class="edge">
<title>Node1&#45;&gt;Node11</title>
<g id="a_edge26_Node000001_Node000011"><a xlink:title=" ">
<path fill="none" stroke="#63b8ff" d="M1717.49,-329.9C1701.31,-322.96 1681.65,-311.44 1672,-294 1656.07,-265.22 1660.82,-250.93 1672,-220 1675.94,-209.09 1683.86,-198.96 1691.36,-191.14"/>
<polygon fill="#63b8ff" stroke="#63b8ff" points="1693.84,-193.61 1698.56,-184.13 1688.95,-188.6 1693.84,-193.61"/>
</a>
</g>
</g>
<!-- Node13 -->
<g id="Node000013" class="node">
<title>Node13</title>
<g id="a_Node000013"><a xlink:title=" ">
<polygon fill="#e0e0e0" stroke="#999999" points="1846.5,-184 1763.5,-184 1763.5,-165 1846.5,-165 1846.5,-184"/>
<text text-anchor="middle" x="1805" y="-172" font-family="Helvetica,sans-Serif" font-size="10.00">QLatin1String</text>
</a>
</g>
</g>
<!-- Node1&#45;&gt;Node13 -->
<g id="edge30_Node000001_Node000013" class="edge">
<title>Node1&#45;&gt;Node13</title>
<g id="a_edge30_Node000001_Node000013"><a xlink:title=" ">
<path fill="none" stroke="#63b8ff" d="M1733.98,-329.96C1725.93,-321.66 1714.71,-308.25 1710,-294 1699.68,-262.77 1692.35,-247.75 1710,-220 1719.88,-204.45 1736.79,-194.25 1753.62,-187.58"/>
<polygon fill="#63b8ff" stroke="#63b8ff" points="1755.24,-190.72 1763.47,-184.06 1752.88,-184.13 1755.24,-190.72"/>
</a>
</g>
</g>
<!-- Node14 -->
<g id="Node000014" class="node">
<title>Node14</title>
<g id="a_Node000014"><a xlink:title=" ">
<polygon fill="#e0e0e0" stroke="#999999" points="1969,-184 1865,-184 1865,-165 1969,-165 1969,-184"/>
<text text-anchor="middle" x="1917" y="-172" font-family="Helvetica,sans-Serif" font-size="10.00">QStaticStringData</text>
</a>
</g>
</g>
<!-- Node1&#45;&gt;Node14 -->
<g id="edge34_Node000001_Node000014" class="edge">
<title>Node1&#45;&gt;Node14</title>
<g id="a_edge34_Node000001_Node000014"><a xlink:title=" ">
<path fill="none" stroke="#63b8ff" d="M1740.27,-329.87C1734.12,-308.54 1721.66,-252.72 1748,-220 1755.47,-210.72 1817.32,-196.09 1864.06,-186.16"/>
<polygon fill="#63b8ff" stroke="#63b8ff" points="1865.01,-189.54 1874.07,-184.05 1863.57,-182.69 1865.01,-189.54"/>
</a>
</g>
</g>
<!-- Node15 -->
<g id="Node000015" class="node">
<title>Node15</title>
<g id="a_Node000015"><a xlink:title=" ">
<polygon fill="#e0e0e0" stroke="#999999" points="2063,-184 1987,-184 1987,-165 2063,-165 2063,-184"/>
<text text-anchor="middle" x="2025" y="-172" font-family="Helvetica,sans-Serif" font-size="10.00">QStringData</text>
</a>
</g>
</g>
<!-- Node1&#45;&gt;Node15 -->
<g id="edge35_Node000001_Node000015" class="edge">
<title>Node1&#45;&gt;Node15</title>
<g id="a_edge35_Node000001_Node000015"><a xlink:title=" ">
<path fill="none" stroke="#63b8ff" d="M1743.37,-329.72C1744.79,-307.55 1751.78,-249.02 1786,-220 1786.92,-219.22 1907.39,-197.05 1976.92,-184.3"/>
<polygon fill="#63b8ff" stroke="#63b8ff" points="1977.58,-187.74 1986.79,-182.49 1976.32,-180.85 1977.58,-187.74"/>
</a>
</g>
</g>
<!-- Node16 -->
<g id="Node000016" class="node">
<title>Node16</title>
<g id="a_Node000016"><a xlink:title=" ">
<polygon fill="#e0e0e0" stroke="#999999" points="2170.5,-184 2081.5,-184 2081.5,-165 2170.5,-165 2170.5,-184"/>
<text text-anchor="middle" x="2126" y="-172" font-family="Helvetica,sans-Serif" font-size="10.00">QStringDataPtr</text>
</a>
</g>
</g>
<!-- Node1&#45;&gt;Node16 -->
<g id="edge36_Node000001_Node000016" class="edge">
<title>Node1&#45;&gt;Node16</title>
<g id="a_edge36_Node000001_Node000016"><a xlink:title=" ">
<path fill="none" stroke="#63b8ff" d="M1751.08,-329.89C1764.16,-316.41 1791.31,-290.3 1819,-275 1901.92,-229.19 2009.24,-200.49 2072.54,-186.28"/>
<polygon fill="#63b8ff" stroke="#63b8ff" points="2073.68,-189.61 2082.7,-184.04 2072.18,-182.77 2073.68,-189.61"/>
</a>
</g>
</g>
<!-- Node22 -->
<g id="Node000022" class="node">
<title>Node22</title>
<g id="a_Node000022"><a xlink:title=" ">
<polygon fill="#e0e0e0" stroke="#999999" points="1866,-294 1828,-294 1828,-275 1866,-275 1866,-294"/>
<text text-anchor="middle" x="1847" y="-282" font-family="Helvetica,sans-Serif" font-size="10.00">QDir</text>
</a>
</g>
</g>
<!-- Node1&#45;&gt;Node22 -->
<g id="edge24_Node000001_Node000022" class="edge">
<title>Node1&#45;&gt;Node22</title>
<g id="a_edge24_Node000001_Node000022"><a xlink:title=" ">
<path fill="none" stroke="#63b8ff" d="M1759.71,-329.98C1776.21,-321.57 1801.7,-308.59 1820.88,-298.81"/>
<polygon fill="#63b8ff" stroke="#63b8ff" points="1822.67,-301.83 1829.99,-294.17 1819.49,-295.59 1822.67,-301.83"/>
</a>
</g>
</g>
<!-- Node23 -->
<g id="Node000023" class="node">
<title>Node23</title>
<g id="a_Node000023"><a xlink:title=" ">
<polygon fill="#e0e0e0" stroke="#999999" points="1974,-294 1884,-294 1884,-275 1974,-275 1974,-294"/>
<text text-anchor="middle" x="1929" y="-282" font-family="Helvetica,sans-Serif" font-size="10.00">QDomNodeList</text>
</a>
</g>
</g>
<!-- Node1&#45;&gt;Node23 -->
<g id="edge27_Node000001_Node000023" class="edge">
<title>Node1&#45;&gt;Node23</title>
<g id="a_edge27_Node000001_Node000023"><a xlink:title=" ">
<path fill="none" stroke="#63b8ff" d="M1772.88,-329.98C1804.38,-321.01 1854.17,-306.82 1889.03,-296.89"/>
<polygon fill="#63b8ff" stroke="#63b8ff" points="1890.22,-300.19 1898.88,-294.08 1888.31,-293.46 1890.22,-300.19"/>
</a>
</g>
</g>
<!-- Node24 -->
<g id="Node000024" class="node">
<title>Node24</title>
<g id="a_Node000024"><a xlink:title=" ">
<polygon fill="#e0e0e0" stroke="#999999" points="2033.5,-294 1992.5,-294 1992.5,-275 2033.5,-275 2033.5,-294"/>
<text text-anchor="middle" x="2013" y="-282" font-family="Helvetica,sans-Serif" font-size="10.00">QFile</text>
</a>
</g>
</g>
<!-- Node1&#45;&gt;Node24 -->
<g id="edge28_Node000001_Node000024" class="edge">
<title>Node1&#45;&gt;Node24</title>
<g id="a_edge28_Node000001_Node000024"><a xlink:title=" ">
<path fill="none" stroke="#63b8ff" d="M1797.15,-329.93C1843.8,-322.22 1913.09,-309.97 1982.6,-293.9"/>
<polygon fill="#63b8ff" stroke="#63b8ff" points="1983.47,-297.29 1992.41,-291.61 1981.87,-290.47 1983.47,-297.29"/>
</a>
</g>
</g>
<!-- Node25 -->
<g id="Node000025" class="node">
<title>Node25</title>
<g id="a_Node000025"><a xlink:title=" ">
<polygon fill="#e0e0e0" stroke="#999999" points="2112,-294 2052,-294 2052,-275 2112,-275 2112,-294"/>
<text text-anchor="middle" x="2082" y="-282" font-family="Helvetica,sans-Serif" font-size="10.00">QFileInfo</text>
</a>
</g>
</g>
<!-- Node1&#45;&gt;Node25 -->
<g id="edge29_Node000001_Node000025" class="edge">
<title>Node1&#45;&gt;Node25</title>
<g id="a_edge29_Node000001_Node000025"><a xlink:title=" ">
<path fill="none" stroke="#63b8ff" d="M1809.35,-329.96C1868.02,-322.12 1956.14,-309.61 2041.9,-294.1"/>
<polygon fill="#63b8ff" stroke="#63b8ff" points="2042.6,-297.53 2051.81,-292.29 2041.34,-290.64 2042.6,-297.53"/>
</a>
</g>
</g>
<!-- Node26 -->
<g id="Node000026" class="node">
<title>Node26</title>
<g id="a_Node000026"><a xlink:title=" ">
<polygon fill="#e0e0e0" stroke="#999999" points="2175.5,-294 2130.5,-294 2130.5,-275 2175.5,-275 2175.5,-294"/>
<text text-anchor="middle" x="2153" y="-282" font-family="Helvetica,sans-Serif" font-size="10.00">QMap</text>
</a>
</g>
</g>
<!-- Node1&#45;&gt;Node26 -->
<g id="edge31_Node000001_Node000026" class="edge">
<title>Node1&#45;&gt;Node26</title>
<g id="a_edge31_Node000001_Node000026"><a xlink:title=" ">
<path fill="none" stroke="#63b8ff" d="M1844.67,-330.49C1918.65,-323.73 2021.31,-312.45 2120.47,-293.82"/>
<polygon fill="#63b8ff" stroke="#63b8ff" points="2121.2,-297.25 2130.37,-291.94 2119.89,-290.37 2121.2,-297.25"/>
</a>
</g>
</g>
<!-- Node27 -->
<g id="Node000027" class="node">
<title>Node27</title>
<g id="a_Node000027"><a xlink:title=" ">
<polygon fill="#e0e0e0" stroke="#999999" points="2308.5,-294 2193.5,-294 2193.5,-275 2308.5,-275 2308.5,-294"/>
<text text-anchor="middle" x="2251" y="-282" font-family="Helvetica,sans-Serif" font-size="10.00">QRegularExpression</text>
</a>
</g>
</g>
<!-- Node1&#45;&gt;Node27 -->
<g id="edge32_Node000001_Node000027" class="edge">
<title>Node1&#45;&gt;Node27</title>
<g id="a_edge32_Node000001_Node000027"><a xlink:title=" ">
<path fill="none" stroke="#63b8ff" d="M1834.93,-329.99C1922.03,-321.76 2056.8,-308.58 2183.17,-294.18"/>
<polygon fill="#63b8ff" stroke="#63b8ff" points="2183.88,-297.63 2193.42,-293.01 2183.09,-290.67 2183.88,-297.63"/>
</a>
</g>
</g>
<!-- Node28 -->
<g id="Node000028" class="node">
<title>Node28</title>
<g id="a_Node000028"><a xlink:title=" ">
<polygon fill="#e0e0e0" stroke="#999999" points="2471.5,-294 2326.5,-294 2326.5,-275 2471.5,-275 2471.5,-294"/>
<text text-anchor="middle" x="2399" y="-282" font-family="Helvetica,sans-Serif" font-size="10.00">QRegularExpressionMatch</text>
</a>
</g>
</g>
<!-- Node1&#45;&gt;Node28 -->
<g id="edge33_Node000001_Node000028" class="edge">
<title>Node1&#45;&gt;Node28</title>
<g id="a_edge33_Node000001_Node000028"><a xlink:title=" ">
<path fill="none" stroke="#63b8ff" d="M1844.6,-331.48C1957.31,-323.5 2144.85,-309.65 2315.95,-294.17"/>
<polygon fill="#63b8ff" stroke="#63b8ff" points="2316.51,-297.63 2326.15,-293.24 2315.88,-290.66 2316.51,-297.63"/>
</a>
</g>
</g>
<!-- Node29 -->
<g id="Node000029" class="node">
<title>Node29</title>
<g id="a_Node000029"><a xlink:title=" ">
<polygon fill="#e0e0e0" stroke="#999999" points="208,-74 138,-74 138,-55 208,-55 208,-74"/>
<text text-anchor="middle" x="173" y="-62" font-family="Helvetica,sans-Serif" font-size="10.00">QStringList</text>
</a>
</g>
</g>
<!-- Node1&#45;&gt;Node29 -->
<g id="edge37_Node000001_Node000029" class="edge">
<title>Node1&#45;&gt;Node29</title>
<g id="a_edge37_Node000001_Node000029"><a xlink:title=" ">
<path fill="none" stroke="#63b8ff" d="M1641.08,-338.2C1364.35,-336.9 603.13,-330.06 355,-294 244.96,-278.01 113,-341.7 113,-230.5 113,-230.5 113,-230.5 113,-173.5 113,-137.09 139.38,-101.48 157.16,-81.62"/>
<polygon fill="#63b8ff" stroke="#63b8ff" points="159.89,-83.82 164.15,-74.11 154.77,-79.05 159.89,-83.82"/>
</a>
</g>
</g>
<!-- Node30 -->
<g id="Node000030" class="node">
<title>Node30</title>
<g id="a_Node000030"><a xlink:href="../../d1/d44/vexception_8h.html" target="_top" xlink:title=" ">
<polygon fill="white" stroke="#666666" points="413,-239 273,-239 273,-220 413,-220 413,-239"/>
<text text-anchor="middle" x="343" y="-227" font-family="Helvetica,sans-Serif" font-size="10.00">../exception/vexception.h</text>
</a>
</g>
</g>
<!-- Node1&#45;&gt;Node30 -->
<g id="edge38_Node000001_Node000030" class="edge">
<title>Node1&#45;&gt;Node30</title>
<g id="a_edge38_Node000001_Node000030"><a xlink:title=" ">
<path fill="none" stroke="#63b8ff" d="M1641.27,-337.99C1333.38,-336.06 429.29,-327.56 376,-294 360.27,-284.09 351.65,-264.06 347.21,-249.14"/>
<polygon fill="#63b8ff" stroke="#63b8ff" points="350.57,-248.18 344.67,-239.38 343.8,-249.94 350.57,-248.18"/>
</a>
</g>
</g>
<!-- Node41 -->
<g id="Node000041" class="node">
<title>Node41</title>
<g id="a_Node000041"><a xlink:href="../../d0/d21/vexceptionwrongid_8h.html" target="_top" xlink:title=" ">
<polygon fill="white" stroke="#666666" points="564.5,-294 385.5,-294 385.5,-275 564.5,-275 564.5,-294"/>
<text text-anchor="middle" x="475" y="-282" font-family="Helvetica,sans-Serif" font-size="10.00">../exception/vexceptionwrongid.h</text>
</a>
</g>
</g>
<!-- Node1&#45;&gt;Node41 -->
<g id="edge60_Node000001_Node000041" class="edge">
<title>Node1&#45;&gt;Node41</title>
<g id="a_edge60_Node000001_Node000041"><a xlink:title=" ">
<path fill="none" stroke="#63b8ff" d="M1641.29,-334.81C1446.53,-327.65 1007.44,-311.07 638,-294 617.57,-293.06 595.7,-291.97 574.82,-290.89"/>
<polygon fill="#63b8ff" stroke="#63b8ff" points="574.83,-287.39 564.67,-290.37 574.47,-294.38 574.83,-287.39"/>
</a>
</g>
</g>
<!-- Node3 -->
<g id="Node000003" class="node">
<title>Node3</title>
<g id="a_Node000003"><a xlink:title=" ">
<polygon fill="#e0e0e0" stroke="#999999" points="120,-74 0,-74 0,-55 120,-55 120,-74"/>
<text text-anchor="middle" x="60" y="-62" font-family="Helvetica,sans-Serif" font-size="10.00">qcompilerdetection.h</text>
</a>
</g>
</g>
<!-- Node2&#45;&gt;Node3 -->
<g id="edge2_Node000002_Node000003" class="edge">
<title>Node2&#45;&gt;Node3</title>
<g id="a_edge2_Node000002_Node000003"><a xlink:title=" ">
<path fill="none" stroke="#63b8ff" d="M675.25,-274.96C597.5,-253.11 387.03,-192.42 216,-129 171.47,-112.49 120.65,-91.37 89.44,-78.13"/>
<polygon fill="#63b8ff" stroke="#63b8ff" points="90.61,-74.82 80.04,-74.13 87.87,-81.26 90.61,-74.82"/>
</a>
</g>
</g>
<!-- Node4 -->
<g id="Node000004" class="node">
<title>Node4</title>
<g id="a_Node000004"><a xlink:title=" ">
<polygon fill="#e0e0e0" stroke="#999999" points="722.5,-184 621.5,-184 621.5,-165 722.5,-165 722.5,-184"/>
<text text-anchor="middle" x="672" y="-172" font-family="Helvetica,sans-Serif" font-size="10.00">QCoreApplication</text>
</a>
</g>
</g>
<!-- Node2&#45;&gt;Node4 -->
<g id="edge3_Node000002_Node000004" class="edge">
<title>Node2&#45;&gt;Node4</title>
<g id="a_edge3_Node000002_Node000004"><a xlink:title=" ">
<path fill="none" stroke="#63b8ff" d="M688.54,-274.88C675.53,-267.38 658.72,-255.18 651,-239 643.84,-223.99 651.26,-205.9 659.2,-192.87"/>
<polygon fill="#63b8ff" stroke="#63b8ff" points="662.21,-194.66 664.86,-184.4 656.39,-190.77 662.21,-194.66"/>
</a>
</g>
</g>
<!-- Node5 -->
<g id="Node000005" class="node">
<title>Node5</title>
<g id="a_Node000005"><a xlink:title=" ">
<polygon fill="#e0e0e0" stroke="#999999" points="640.5,-74 587.5,-74 587.5,-55 640.5,-55 640.5,-74"/>
<text text-anchor="middle" x="614" y="-62" font-family="Helvetica,sans-Serif" font-size="10.00">QString</text>
</a>
</g>
</g>
<!-- Node2&#45;&gt;Node5 -->
<g id="edge4_Node000002_Node000005" class="edge">
<title>Node2&#45;&gt;Node5</title>
<g id="a_edge4_Node000002_Node000005"><a xlink:title=" ">
<path fill="none" stroke="#63b8ff" d="M690.89,-274.88C677.68,-266.81 658.53,-253.8 645,-239 625.77,-217.96 619.61,-211.47 612,-184 609.75,-175.86 609.8,-173.15 612,-165 616.83,-147.12 628.17,-146.88 633,-129 635.2,-120.85 634.69,-118.27 633,-110 631.11,-100.74 627.21,-91.03 623.43,-83.04"/>
<polygon fill="#63b8ff" stroke="#63b8ff" points="626.51,-81.37 618.88,-74.02 620.26,-84.53 626.51,-81.37"/>
</a>
</g>
</g>
<!-- Node6 -->
<g id="Node000006" class="node">
<title>Node6</title>
<g id="a_Node000006"><a xlink:title=" ">
<polygon fill="#e0e0e0" stroke="#999999" points="752.5,-239 659.5,-239 659.5,-220 752.5,-220 752.5,-239"/>
<text text-anchor="middle" x="706" y="-227" font-family="Helvetica,sans-Serif" font-size="10.00">QTemporaryFile</text>
</a>
</g>
</g>
<!-- Node2&#45;&gt;Node6 -->
<g id="edge5_Node000002_Node000006" class="edge">
<title>Node2&#45;&gt;Node6</title>
<g id="a_edge5_Node000002_Node000006"><a xlink:title=" ">
<path fill="none" stroke="#63b8ff" d="M706,-274.75C706,-267.8 706,-257.85 706,-249.13"/>
<polygon fill="#63b8ff" stroke="#63b8ff" points="709.5,-249.09 706,-239.09 702.5,-249.09 709.5,-249.09"/>
</a>
</g>
</g>
<!-- Node7 -->
<g id="Node000007" class="node">
<title>Node7</title>
<g id="a_Node000007"><a xlink:title=" ">
<polygon fill="#e0e0e0" stroke="#999999" points="737.5,-74 678.5,-74 678.5,-55 737.5,-55 737.5,-74"/>
<text text-anchor="middle" x="708" y="-62" font-family="Helvetica,sans-Serif" font-size="10.00">QtGlobal</text>
</a>
</g>
</g>
<!-- Node2&#45;&gt;Node7 -->
<g id="edge6_Node000002_Node000007" class="edge">
<title>Node2&#45;&gt;Node7</title>
<g id="a_edge6_Node000002_Node000007"><a xlink:title=" ">
<path fill="none" stroke="#63b8ff" d="M723.46,-274.88C736.47,-267.38 753.28,-255.18 761,-239 774.34,-211.05 795.89,-230.26 743,-110 738.42,-99.58 730.82,-89.49 723.87,-81.55"/>
<polygon fill="#63b8ff" stroke="#63b8ff" points="726.38,-79.11 717.02,-74.14 721.24,-83.86 726.38,-79.11"/>
</a>
</g>
</g>
<!-- Node2&#45;&gt;Node8 -->
<g id="edge7_Node000002_Node000008" class="edge">
<title>Node2&#45;&gt;Node8</title>
<g id="a_edge7_Node000002_Node000008"><a xlink:title=" ">
<path fill="none" stroke="#63b8ff" d="M764.57,-278.8C888.85,-268.82 1177.91,-245.6 1304.62,-235.43"/>
<polygon fill="#63b8ff" stroke="#63b8ff" points="1305.23,-238.89 1314.92,-234.6 1304.67,-231.91 1305.23,-238.89"/>
</a>
</g>
</g>
<!-- Node8&#45;&gt;Node4 -->
<g id="edge8_Node000008_Node000004" class="edge">
<title>Node8&#45;&gt;Node4</title>
<g id="a_edge8_Node000008_Node000004"><a xlink:title=" ">
<path fill="none" stroke="#63b8ff" d="M1314.61,-224.76C1212.01,-217.25 974.51,-199.74 775,-184 761.25,-182.92 746.48,-181.72 732.53,-180.57"/>
<polygon fill="#63b8ff" stroke="#63b8ff" points="732.8,-177.08 722.55,-179.74 732.23,-184.06 732.8,-177.08"/>
</a>
</g>
</g>
<!-- Node8&#45;&gt;Node5 -->
<g id="edge15_Node000008_Node000005" class="edge">
<title>Node8&#45;&gt;Node5</title>
<g id="a_edge15_Node000008_Node000005"><a xlink:title=" ">
<path fill="none" stroke="#63b8ff" d="M1314.98,-227.23C1197.29,-223.84 909.88,-212.79 818,-184 743.73,-160.73 667.32,-106.72 632.87,-80.42"/>
<polygon fill="#63b8ff" stroke="#63b8ff" points="634.72,-77.43 624.67,-74.08 630.44,-82.96 634.72,-77.43"/>
</a>
</g>
</g>
<!-- Node8&#45;&gt;Node7 -->
<g id="edge18_Node000008_Node000007" class="edge">
<title>Node8&#45;&gt;Node7</title>
<g id="a_edge18_Node000008_Node000007"><a xlink:title=" ">
<path fill="none" stroke="#63b8ff" d="M1314.83,-228.85C1200.51,-228.89 928.08,-224.57 847,-184 807.59,-164.28 814.85,-138.22 781,-110 766.6,-97.99 748.63,-87 734.13,-78.94"/>
<polygon fill="#63b8ff" stroke="#63b8ff" points="735.63,-75.78 725.17,-74.09 732.3,-81.93 735.63,-75.78"/>
</a>
</g>
</g>
<!-- Node9 -->
<g id="Node000009" class="node">
<title>Node9</title>
<g id="a_Node000009"><a xlink:title=" ">
<polygon fill="#e0e0e0" stroke="#999999" points="1210,-184 1112,-184 1112,-165 1210,-165 1210,-184"/>
<text text-anchor="middle" x="1161" y="-172" font-family="Helvetica,sans-Serif" font-size="10.00">QDomDocument</text>
</a>
</g>
</g>
<!-- Node8&#45;&gt;Node9 -->
<g id="edge9_Node000008_Node000009" class="edge">
<title>Node8&#45;&gt;Node9</title>
<g id="a_edge9_Node000008_Node000009"><a xlink:title=" ">
<path fill="none" stroke="#63b8ff" d="M1333.06,-219.98C1298.05,-210.93 1242.53,-196.58 1204.07,-186.64"/>
<polygon fill="#63b8ff" stroke="#63b8ff" points="1204.75,-183.2 1194.19,-184.08 1203,-189.97 1204.75,-183.2"/>
</a>
</g>
</g>
<!-- Node8&#45;&gt;Node10 -->
<g id="edge10_Node000008_Node000010" class="edge">
<title>Node8&#45;&gt;Node10</title>
<g id="a_edge10_Node000008_Node000010"><a xlink:title=" ">
<path fill="none" stroke="#63b8ff" d="M1405.2,-219.98C1447.41,-210.82 1514.65,-196.21 1560.48,-186.26"/>
<polygon fill="#63b8ff" stroke="#63b8ff" points="1561.46,-189.63 1570.49,-184.08 1559.97,-182.78 1561.46,-189.63"/>
</a>
</g>
</g>
<!-- Node8&#45;&gt;Node11 -->
<g id="edge11_Node000008_Node000011" class="edge">
<title>Node8&#45;&gt;Node11</title>
<g id="a_edge11_Node000008_Node000011"><a xlink:title=" ">
<path fill="none" stroke="#63b8ff" d="M1417.06,-221.39C1474.22,-213.31 1569.85,-199.43 1662.27,-184.07"/>
<polygon fill="#63b8ff" stroke="#63b8ff" points="1663.07,-187.49 1672.36,-182.39 1661.92,-180.58 1663.07,-187.49"/>
</a>
</g>
</g>
<!-- Node12 -->
<g id="Node000012" class="node">
<title>Node12</title>
<g id="a_Node000012"><a xlink:title=" ">
<polygon fill="#e0e0e0" stroke="#999999" points="1277.5,-184 1228.5,-184 1228.5,-165 1277.5,-165 1277.5,-184"/>
<text text-anchor="middle" x="1253" y="-172" font-family="Helvetica,sans-Serif" font-size="10.00">QHash</text>
</a>
</g>
</g>
<!-- Node8&#45;&gt;Node12 -->
<g id="edge12_Node000008_Node000012" class="edge">
<title>Node8&#45;&gt;Node12</title>
<g id="a_edge12_Node000008_Node000012"><a xlink:title=" ">
<path fill="none" stroke="#63b8ff" d="M1347.84,-219.98C1329.75,-211.5 1301.72,-198.35 1280.81,-188.54"/>
<polygon fill="#63b8ff" stroke="#63b8ff" points="1282.03,-185.25 1271.49,-184.17 1279.05,-191.59 1282.03,-185.25"/>
</a>
</g>
</g>
<!-- Node8&#45;&gt;Node13 -->
<g id="edge13_Node000008_Node000013" class="edge">
<title>Node8&#45;&gt;Node13</title>
<g id="a_edge13_Node000008_Node000013"><a xlink:title=" ">
<path fill="none" stroke="#63b8ff" d="M1417.09,-223.55C1489.59,-216.33 1626.72,-201.95 1753.05,-184.21"/>
<polygon fill="#63b8ff" stroke="#63b8ff" points="1753.87,-187.63 1763.28,-182.77 1752.89,-180.7 1753.87,-187.63"/>
</a>
</g>
</g>
<!-- Node8&#45;&gt;Node14 -->
<g id="edge14_Node000008_Node000014" class="edge">
<title>Node8&#45;&gt;Node14</title>
<g id="a_edge14_Node000008_Node000014"><a xlink:title=" ">
<path fill="none" stroke="#63b8ff" d="M1417.23,-224.66C1504.65,-217.93 1688.51,-203 1854.38,-184.13"/>
<polygon fill="#63b8ff" stroke="#63b8ff" points="1855.24,-187.56 1864.78,-182.94 1854.44,-180.6 1855.24,-187.56"/>
</a>
</g>
</g>
<!-- Node8&#45;&gt;Node15 -->
<g id="edge16_Node000008_Node000015" class="edge">
<title>Node8&#45;&gt;Node15</title>
<g id="a_edge16_Node000008_Node000015"><a xlink:title=" ">
<path fill="none" stroke="#63b8ff" d="M1417.36,-226.61C1521.14,-222.4 1763.39,-210.53 1976.7,-184.03"/>
<polygon fill="#63b8ff" stroke="#63b8ff" points="1977.35,-187.47 1986.83,-182.75 1976.47,-180.53 1977.35,-187.47"/>
</a>
</g>
</g>
<!-- Node8&#45;&gt;Node16 -->
<g id="edge17_Node000008_Node000016" class="edge">
<title>Node8&#45;&gt;Node16</title>
<g id="a_edge17_Node000008_Node000016"><a xlink:title=" ">
<path fill="none" stroke="#63b8ff" d="M1417.08,-226.91C1532.01,-222.99 1819.82,-211.2 2071.2,-183.97"/>
<polygon fill="#63b8ff" stroke="#63b8ff" points="2071.69,-187.44 2081.25,-182.87 2070.93,-180.48 2071.69,-187.44"/>
</a>
</g>
</g>
<!-- Node17 -->
<g id="Node000017" class="node">
<title>Node17</title>
<g id="a_Node000017"><a xlink:title=" ">
<polygon fill="#e0e0e0" stroke="#999999" points="1352,-184 1296,-184 1296,-165 1352,-165 1352,-184"/>
<text text-anchor="middle" x="1324" y="-172" font-family="Helvetica,sans-Serif" font-size="10.00">QLocale</text>
</a>
</g>
</g>
<!-- Node8&#45;&gt;Node17 -->
<g id="edge19_Node000008_Node000017" class="edge">
<title>Node8&#45;&gt;Node17</title>
<g id="a_edge19_Node000008_Node000017"><a xlink:title=" ">
<path fill="none" stroke="#63b8ff" d="M1359.06,-219.75C1353.13,-212.26 1344.43,-201.28 1337.18,-192.13"/>
<polygon fill="#63b8ff" stroke="#63b8ff" points="1339.76,-189.75 1330.81,-184.09 1334.27,-194.1 1339.76,-189.75"/>
</a>
</g>
</g>
<!-- Node18 -->
<g id="Node000018" class="node">
<title>Node18</title>
<g id="a_Node000018"><a xlink:title=" ">
<polygon fill="#e0e0e0" stroke="#999999" points="1447.5,-184 1370.5,-184 1370.5,-165 1447.5,-165 1447.5,-184"/>
<text text-anchor="middle" x="1409" y="-172" font-family="Helvetica,sans-Serif" font-size="10.00">../ifc/ifcdef.h</text>
</a>
</g>
</g>
<!-- Node8&#45;&gt;Node18 -->
<g id="edge20_Node000008_Node000018" class="edge">
<title>Node8&#45;&gt;Node18</title>
<g id="a_edge20_Node000008_Node000018"><a xlink:title=" ">
<path fill="none" stroke="#63b8ff" d="M1373.1,-219.75C1379.17,-212.26 1388.09,-201.28 1395.51,-192.13"/>
<polygon fill="#63b8ff" stroke="#63b8ff" points="1398.45,-194.06 1402.03,-184.09 1393.01,-189.65 1398.45,-194.06"/>
</a>
</g>
</g>
<!-- Node19 -->
<g id="Node000019" class="node">
<title>Node19</title>
<g id="a_Node000019"><a xlink:title=" ">
<polygon fill="#e0e0e0" stroke="#999999" points="1548,-184 1466,-184 1466,-165 1548,-165 1548,-184"/>
<text text-anchor="middle" x="1507" y="-172" font-family="Helvetica,sans-Serif" font-size="10.00">../vmisc/def.h</text>
</a>
</g>
</g>
<!-- Node8&#45;&gt;Node19 -->
<g id="edge21_Node000008_Node000019" class="edge">
<title>Node8&#45;&gt;Node19</title>
<g id="a_edge21_Node000008_Node000019"><a xlink:title=" ">
<path fill="none" stroke="#63b8ff" d="M1388.65,-219.98C1411.85,-211.27 1448.12,-197.63 1474.4,-187.75"/>
<polygon fill="#63b8ff" stroke="#63b8ff" points="1475.8,-190.97 1483.93,-184.17 1473.34,-184.41 1475.8,-190.97"/>
</a>
</g>
</g>
<!-- Node20 -->
<g id="Node000020" class="node">
<title>Node20</title>
<g id="a_Node000020"><a xlink:title=" ">
<polygon fill="#e0e0e0" stroke="#999999" points="972.5,-184 855.5,-184 855.5,-165 972.5,-165 972.5,-184"/>
<text text-anchor="middle" x="914" y="-172" font-family="Helvetica,sans-Serif" font-size="10.00">../vmisc/diagnostic.h</text>
</a>
</g>
</g>
<!-- Node8&#45;&gt;Node20 -->
<g id="edge22_Node000008_Node000020" class="edge">
<title>Node8&#45;&gt;Node20</title>
<g id="a_edge22_Node000008_Node000020"><a xlink:title=" ">
<path fill="none" stroke="#63b8ff" d="M1314.74,-222.71C1243.04,-214.57 1108.44,-199.18 982.79,-184.08"/>
<polygon fill="#63b8ff" stroke="#63b8ff" points="982.95,-180.58 972.6,-182.86 982.11,-187.53 982.95,-180.58"/>
</a>
</g>
</g>
<!-- Node21 -->
<g id="Node000021" class="node">
<title>Node21</title>
<g id="a_Node000021"><a xlink:title=" ">
<polygon fill="#e0e0e0" stroke="#999999" points="1093.5,-184 990.5,-184 990.5,-165 1093.5,-165 1093.5,-184"/>
<text text-anchor="middle" x="1042" y="-172" font-family="Helvetica,sans-Serif" font-size="10.00">../vmisc/logging.h</text>
</a>
</g>
</g>
<!-- Node8&#45;&gt;Node21 -->
<g id="edge23_Node000008_Node000021" class="edge">
<title>Node8&#45;&gt;Node21</title>
<g id="a_edge23_Node000008_Node000021"><a xlink:title=" ">
<path fill="none" stroke="#63b8ff" d="M1314.66,-220.1C1257.36,-210.73 1164.68,-195.57 1103.54,-185.57"/>
<polygon fill="#63b8ff" stroke="#63b8ff" points="1104.07,-182.11 1093.63,-183.95 1102.94,-189.01 1104.07,-182.11"/>
</a>
</g>
</g>
<!-- Node30&#45;&gt;Node3 -->
<g id="edge39_Node000030_Node000003" class="edge">
<title>Node30&#45;&gt;Node3</title>
<g id="a_edge39_Node000030_Node000003"><a xlink:title=" ">
<path fill="none" stroke="#63b8ff" d="M308.88,-220C282.13,-212.57 244.45,-200.4 214,-184 159.09,-154.43 103.17,-105.77 76.34,-81.01"/>
<polygon fill="#63b8ff" stroke="#63b8ff" points="78.68,-78.41 68.98,-74.14 73.9,-83.52 78.68,-78.41"/>
</a>
</g>
</g>
<!-- Node30&#45;&gt;Node4 -->
<g id="edge40_Node000030_Node000004" class="edge">
<title>Node30&#45;&gt;Node4</title>
<g id="a_edge40_Node000030_Node000004"><a xlink:title=" ">
<path fill="none" stroke="#63b8ff" d="M395.86,-219.98C454.71,-210.5 549.64,-195.21 611.43,-185.26"/>
<polygon fill="#63b8ff" stroke="#63b8ff" points="612.12,-188.69 621.43,-183.65 611,-181.78 612.12,-188.69"/>
</a>
</g>
</g>
<!-- Node30&#45;&gt;Node5 -->
<g id="edge42_Node000030_Node000005" class="edge">
<title>Node30&#45;&gt;Node5</title>
<g id="a_edge42_Node000030_Node000005"><a xlink:title=" ">
<path fill="none" stroke="#63b8ff" d="M345.52,-219.96C352.51,-197.84 374.37,-138.44 415,-110 473.29,-69.2 503.17,-88.74 577.49,-73.95"/>
<polygon fill="#63b8ff" stroke="#63b8ff" points="578.23,-77.37 587.27,-71.86 576.76,-70.53 578.23,-77.37"/>
</a>
</g>
</g>
<!-- Node31 -->
<g id="Node000031" class="node">
<title>Node31</title>
<g id="a_Node000031"><a xlink:title=" ">
<polygon fill="#e0e0e0" stroke="#999999" points="295,-184 223,-184 223,-165 295,-165 295,-184"/>
<text text-anchor="middle" x="259" y="-172" font-family="Helvetica,sans-Serif" font-size="10.00">QException</text>
</a>
</g>
</g>
<!-- Node30&#45;&gt;Node31 -->
<g id="edge41_Node000030_Node000031" class="edge">
<title>Node30&#45;&gt;Node31</title>
<g id="a_edge41_Node000030_Node000031"><a xlink:title=" ">
<path fill="none" stroke="#63b8ff" d="M329.5,-219.98C316.6,-211.84 296.9,-199.41 281.6,-189.76"/>
<polygon fill="#63b8ff" stroke="#63b8ff" points="283.07,-186.55 272.74,-184.17 279.33,-192.47 283.07,-186.55"/>
</a>
</g>
</g>
<!-- Node32 -->
<g id="Node000032" class="node">
<title>Node32</title>
<g id="a_Node000032"><a xlink:href="../../d3/da5/ifcdef_8h.html" target="_top" xlink:title=" ">
<polygon fill="white" stroke="#666666" points="451,-184 389,-184 389,-165 451,-165 451,-184"/>
<text text-anchor="middle" x="420" y="-172" font-family="Helvetica,sans-Serif" font-size="10.00">../ifcdef.h</text>
</a>
</g>
</g>
<!-- Node30&#45;&gt;Node32 -->
<g id="edge43_Node000030_Node000032" class="edge">
<title>Node30&#45;&gt;Node32</title>
<g id="a_edge43_Node000030_Node000032"><a xlink:title=" ">
<path fill="none" stroke="#63b8ff" d="M355.37,-219.98C367.09,-211.92 384.92,-199.65 398.89,-190.03"/>
<polygon fill="#63b8ff" stroke="#63b8ff" points="401.15,-192.72 407.4,-184.17 397.18,-186.96 401.15,-192.72"/>
</a>
</g>
</g>
<!-- Node32&#45;&gt;Node5 -->
<g id="edge44_Node000032_Node000005" class="edge">
<title>Node32&#45;&gt;Node5</title>
<g id="a_edge44_Node000032_Node000005"><a xlink:title=" ">
<path fill="none" stroke="#63b8ff" d="M418.14,-164.89C415.78,-151.41 413.49,-125.3 427,-110 427.32,-109.64 522.94,-87.01 577.3,-74.16"/>
<polygon fill="#63b8ff" stroke="#63b8ff" points="578.34,-77.52 587.26,-71.81 576.73,-70.7 578.34,-77.52"/>
</a>
</g>
</g>
<!-- Node32&#45;&gt;Node7 -->
<g id="edge46_Node000032_Node000007" class="edge">
<title>Node32&#45;&gt;Node7</title>
<g id="a_edge46_Node000032_Node000007"><a xlink:title=" ">
<path fill="none" stroke="#63b8ff" d="M427.73,-165C440.8,-151.18 468.7,-124.01 498,-110 527.63,-95.83 616,-80.08 668.18,-71.64"/>
<polygon fill="#63b8ff" stroke="#63b8ff" points="668.79,-75.09 678.11,-70.05 667.68,-68.18 668.79,-75.09"/>
</a>
</g>
</g>
<!-- Node32&#45;&gt;Node29 -->
<g id="edge45_Node000032_Node000029" class="edge">
<title>Node32&#45;&gt;Node29</title>
<g id="a_edge45_Node000032_Node000029"><a xlink:title=" ">
<path fill="none" stroke="#63b8ff" d="M388.9,-169.97C352.83,-164.9 292.39,-153.34 246,-129 223.12,-117 201.38,-96.49 187.67,-82.04"/>
<polygon fill="#63b8ff" stroke="#63b8ff" points="189.93,-79.32 180.58,-74.34 184.78,-84.06 189.93,-79.32"/>
</a>
</g>
</g>
<!-- Node33 -->
<g id="Node000033" class="node">
<title>Node33</title>
<g id="a_Node000033"><a xlink:href="../../d4/da4/def_8h.html" target="_top" xlink:title=" ">
<polygon fill="white" stroke="#666666" points="337,-129 255,-129 255,-110 337,-110 337,-129"/>
<text text-anchor="middle" x="296" y="-117" font-family="Helvetica,sans-Serif" font-size="10.00">../vmisc/def.h</text>
</a>
</g>
</g>
<!-- Node32&#45;&gt;Node33 -->
<g id="edge47_Node000032_Node000033" class="edge">
<title>Node32&#45;&gt;Node33</title>
<g id="a_edge47_Node000032_Node000033"><a xlink:title=" ">
<path fill="none" stroke="#63b8ff" d="M400.08,-164.98C379.95,-156.38 348.62,-142.99 325.59,-133.15"/>
<polygon fill="#63b8ff" stroke="#63b8ff" points="326.86,-129.88 316.29,-129.17 324.1,-136.32 326.86,-129.88"/>
</a>
</g>
</g>
<!-- Node40 -->
<g id="Node000040" class="node">
<title>Node40</title>
<g id="a_Node000040"><a xlink:href="../../d6/dcd/diagnostic_8h.html" target="_top" xlink:title=" ">
<polygon fill="white" stroke="#666666" points="624.5,-129 507.5,-129 507.5,-110 624.5,-110 624.5,-129"/>
<text text-anchor="middle" x="566" y="-117" font-family="Helvetica,sans-Serif" font-size="10.00">../vmisc/diagnostic.h</text>
</a>
</g>
</g>
<!-- Node32&#45;&gt;Node40 -->
<g id="edge58_Node000032_Node000040" class="edge">
<title>Node32&#45;&gt;Node40</title>
<g id="a_edge58_Node000032_Node000040"><a xlink:title=" ">
<path fill="none" stroke="#63b8ff" d="M443.46,-164.98C467.58,-156.23 505.37,-142.51 532.6,-132.62"/>
<polygon fill="#63b8ff" stroke="#63b8ff" points="533.91,-135.87 542.12,-129.17 531.52,-129.29 533.91,-135.87"/>
</a>
</g>
</g>
<!-- Node33&#45;&gt;Node3 -->
<g id="edge48_Node000033_Node000003" class="edge">
<title>Node33&#45;&gt;Node3</title>
<g id="a_edge48_Node000033_Node000003"><a xlink:title=" ">
<path fill="none" stroke="#63b8ff" d="M258.08,-109.98C217.35,-100.84 152.5,-86.27 108.18,-76.32"/>
<polygon fill="#63b8ff" stroke="#63b8ff" points="108.74,-72.86 98.21,-74.08 107.2,-79.69 108.74,-72.86"/>
</a>
</g>
</g>
<!-- Node33&#45;&gt;Node5 -->
<g id="edge50_Node000033_Node000005" class="edge">
<title>Node33&#45;&gt;Node5</title>
<g id="a_edge50_Node000033_Node000005"><a xlink:title=" ">
<path fill="none" stroke="#63b8ff" d="M337.28,-112.07C405.23,-101.48 536.48,-80.96 577.3,-73.87"/>
<polygon fill="#63b8ff" stroke="#63b8ff" points="578.1,-77.28 587.31,-72.04 576.85,-70.39 578.1,-77.28"/>
</a>
</g>
</g>
<!-- Node33&#45;&gt;Node7 -->
<g id="edge53_Node000033_Node000007" class="edge">
<title>Node33&#45;&gt;Node7</title>
<g id="a_edge53_Node000033_Node000007"><a xlink:title=" ">
<path fill="none" stroke="#63b8ff" d="M337.06,-113.56C402.92,-105.59 536.21,-89.23 649,-74 655.26,-73.15 661.89,-72.23 668.35,-71.31"/>
<polygon fill="#63b8ff" stroke="#63b8ff" points="668.9,-74.77 678.3,-69.88 667.91,-67.84 668.9,-74.77"/>
</a>
</g>
</g>
<!-- Node33&#45;&gt;Node29 -->
<g id="edge51_Node000033_Node000029" class="edge">
<title>Node33&#45;&gt;Node29</title>
<g id="a_edge51_Node000033_Node000029"><a xlink:title=" ">
<path fill="none" stroke="#63b8ff" d="M276.24,-109.98C256.27,-101.38 225.2,-87.99 202.35,-78.15"/>
<polygon fill="#63b8ff" stroke="#63b8ff" points="203.69,-74.91 193.12,-74.17 200.92,-81.34 203.69,-74.91"/>
</a>
</g>
</g>
<!-- Node34 -->
<g id="Node000034" class="node">
<title>Node34</title>
<g id="a_Node000034"><a xlink:title=" ">
<polygon fill="#e0e0e0" stroke="#999999" points="569,-74 519,-74 519,-55 569,-55 569,-74"/>
<text text-anchor="middle" x="544" y="-62" font-family="Helvetica,sans-Serif" font-size="10.00">QLineF</text>
</a>
</g>
</g>
<!-- Node33&#45;&gt;Node34 -->
<g id="edge49_Node000033_Node000034" class="edge">
<title>Node33&#45;&gt;Node34</title>
<g id="a_edge49_Node000033_Node000034"><a xlink:title=" ">
<path fill="none" stroke="#63b8ff" d="M337.32,-110.28C380.29,-101.63 449.49,-87.44 509,-74 509.1,-73.98 509.2,-73.96 509.3,-73.93"/>
<polygon fill="#63b8ff" stroke="#63b8ff" points="509.84,-77.4 518.79,-71.73 508.25,-70.58 509.84,-77.4"/>
</a>
</g>
</g>
<!-- Node35 -->
<g id="Node000035" class="node">
<title>Node35</title>
<g id="a_Node000035"><a xlink:title=" ">
<polygon fill="#e0e0e0" stroke="#999999" points="255.5,-74 226.5,-74 226.5,-55 255.5,-55 255.5,-74"/>
<text text-anchor="middle" x="241" y="-62" font-family="Helvetica,sans-Serif" font-size="10.00">Qt</text>
</a>
</g>
</g>
<!-- Node33&#45;&gt;Node35 -->
<g id="edge52_Node000033_Node000035" class="edge">
<title>Node33&#45;&gt;Node35</title>
<g id="a_edge52_Node000033_Node000035"><a xlink:title=" ">
<path fill="none" stroke="#63b8ff" d="M286.92,-109.75C278.91,-102.03 267.04,-90.6 257.38,-81.28"/>
<polygon fill="#63b8ff" stroke="#63b8ff" points="259.54,-78.51 249.91,-74.09 254.69,-83.55 259.54,-78.51"/>
</a>
</g>
</g>
<!-- Node36 -->
<g id="Node000036" class="node">
<title>Node36</title>
<g id="a_Node000036"><a xlink:title=" ">
<polygon fill="#e0e0e0" stroke="#999999" points="330,-74 274,-74 274,-55 330,-55 330,-74"/>
<text text-anchor="middle" x="302" y="-62" font-family="Helvetica,sans-Serif" font-size="10.00">QPrinter</text>
</a>
</g>
</g>
<!-- Node33&#45;&gt;Node36 -->
<g id="edge54_Node000033_Node000036" class="edge">
<title>Node33&#45;&gt;Node36</title>
<g id="a_edge54_Node000033_Node000036"><a xlink:title=" ">
<path fill="none" stroke="#63b8ff" d="M296.99,-109.75C297.78,-102.8 298.9,-92.85 299.89,-84.13"/>
<polygon fill="#63b8ff" stroke="#63b8ff" points="303.38,-84.42 301.03,-74.09 296.42,-83.63 303.38,-84.42"/>
</a>
</g>
</g>
<!-- Node37 -->
<g id="Node000037" class="node">
<title>Node37</title>
<g id="a_Node000037"><a xlink:title=" ">
<polygon fill="#e0e0e0" stroke="#999999" points="399.5,-74 348.5,-74 348.5,-55 399.5,-55 399.5,-74"/>
<text text-anchor="middle" x="374" y="-62" font-family="Helvetica,sans-Serif" font-size="10.00">csignal</text>
</a>
</g>
</g>
<!-- Node33&#45;&gt;Node37 -->
<g id="edge55_Node000033_Node000037" class="edge">
<title>Node33&#45;&gt;Node37</title>
<g id="a_edge55_Node000033_Node000037"><a xlink:title=" ">
<path fill="none" stroke="#63b8ff" d="M308.53,-109.98C320.4,-101.92 338.46,-89.65 352.61,-80.03"/>
<polygon fill="#63b8ff" stroke="#63b8ff" points="354.94,-82.69 361.24,-74.17 351,-76.9 354.94,-82.69"/>
</a>
</g>
</g>
<!-- Node38 -->
<g id="Node000038" class="node">
<title>Node38</title>
<g id="a_Node000038"><a xlink:href="../../d4/d82/debugbreak_8h.html" target="_top" xlink:title=" ">
<polygon fill="white" stroke="#666666" points="500.5,-74 417.5,-74 417.5,-55 500.5,-55 500.5,-74"/>
<text text-anchor="middle" x="459" y="-62" font-family="Helvetica,sans-Serif" font-size="10.00">debugbreak.h</text>
</a>
</g>
</g>
<!-- Node33&#45;&gt;Node38 -->
<g id="edge56_Node000033_Node000038" class="edge">
<title>Node33&#45;&gt;Node38</title>
<g id="a_edge56_Node000033_Node000038"><a xlink:title=" ">
<path fill="none" stroke="#63b8ff" d="M322.19,-109.98C349.44,-101.13 392.3,-87.19 422.78,-77.28"/>
<polygon fill="#63b8ff" stroke="#63b8ff" points="424.18,-80.5 432.61,-74.08 422.01,-73.85 424.18,-80.5"/>
</a>
</g>
</g>
<!-- Node39 -->
<g id="Node000039" class="node">
<title>Node39</title>
<g id="a_Node000039"><a xlink:title=" ">
<polygon fill="#e0e0e0" stroke="#999999" points="486.5,-19 431.5,-19 431.5,0 486.5,0 486.5,-19"/>
<text text-anchor="middle" x="459" y="-7" font-family="Helvetica,sans-Serif" font-size="10.00">signal.h</text>
</a>
</g>
</g>
<!-- Node38&#45;&gt;Node39 -->
<g id="edge57_Node000038_Node000039" class="edge">
<title>Node38&#45;&gt;Node39</title>
<g id="a_edge57_Node000038_Node000039"><a xlink:title=" ">
<path fill="none" stroke="#63b8ff" d="M459,-54.75C459,-47.8 459,-37.85 459,-29.13"/>
<polygon fill="#63b8ff" stroke="#63b8ff" points="462.5,-29.09 459,-19.09 455.5,-29.09 462.5,-29.09"/>
</a>
</g>
</g>
<!-- Node40&#45;&gt;Node7 -->
<g id="edge59_Node000040_Node000007" class="edge">
<title>Node40&#45;&gt;Node7</title>
<g id="a_edge59_Node000040_Node000007"><a xlink:title=" ">
<path fill="none" stroke="#63b8ff" d="M588.81,-109.98C612.17,-101.27 648.7,-87.63 675.17,-77.75"/>
<polygon fill="#63b8ff" stroke="#63b8ff" points="676.63,-80.95 684.77,-74.17 674.18,-74.39 676.63,-80.95"/>
</a>
</g>
</g>
<!-- Node41&#45;&gt;Node3 -->
<g id="edge61_Node000041_Node000003" class="edge">
<title>Node41&#45;&gt;Node3</title>
<g id="a_edge61_Node000041_Node000003"><a xlink:title=" ">
<path fill="none" stroke="#63b8ff" d="M401.67,-274.98C360.13,-268.46 307.86,-257.36 264,-239 182.7,-204.96 160.06,-192.56 99,-129 86,-115.47 75.21,-96.89 68.3,-83.32"/>
<polygon fill="#63b8ff" stroke="#63b8ff" points="71.33,-81.55 63.8,-74.09 65.04,-84.62 71.33,-81.55"/>
</a>
</g>
</g>
<!-- Node41&#45;&gt;Node5 -->
<g id="edge62_Node000041_Node000005" class="edge">
<title>Node41&#45;&gt;Node5</title>
<g id="a_edge62_Node000041_Node000005"><a xlink:title=" ">
<path fill="none" stroke="#63b8ff" d="M473.33,-274.76C468.61,-247.18 457.9,-160.8 498,-110 508.21,-97.07 547.52,-83.73 577.58,-75.07"/>
<polygon fill="#63b8ff" stroke="#63b8ff" points="578.69,-78.39 587.37,-72.32 576.79,-71.66 578.69,-78.39"/>
</a>
</g>
</g>
<!-- Node41&#45;&gt;Node7 -->
<g id="edge63_Node000041_Node000007" class="edge">
<title>Node41&#45;&gt;Node7</title>
<g id="a_edge63_Node000041_Node000007"><a xlink:title=" ">
<path fill="none" stroke="#63b8ff" d="M484.13,-274.95C519.22,-242.13 645.63,-123.85 691.35,-81.08"/>
<polygon fill="#63b8ff" stroke="#63b8ff" points="693.77,-83.61 698.68,-74.22 688.98,-78.5 693.77,-83.61"/>
</a>
</g>
</g>
<!-- Node41&#45;&gt;Node30 -->
<g id="edge65_Node000041_Node000030" class="edge">
<title>Node41&#45;&gt;Node30</title>
<g id="a_edge65_Node000041_Node000030"><a xlink:title=" ">
<path fill="none" stroke="#63b8ff" d="M453.79,-274.98C432.27,-266.34 398.72,-252.87 374.17,-243.02"/>
<polygon fill="#63b8ff" stroke="#63b8ff" points="375.18,-239.65 364.59,-239.17 372.57,-246.14 375.18,-239.65"/>
</a>
</g>
</g>
<!-- Node41&#45;&gt;Node32 -->
<g id="edge64_Node000041_Node000032" class="edge">
<title>Node41&#45;&gt;Node32</title>
<g id="a_edge64_Node000041_Node000032"><a xlink:title=" ">
<path fill="none" stroke="#63b8ff" d="M470.5,-274.66C461.47,-256.93 441,-216.73 429.07,-193.32"/>
<polygon fill="#63b8ff" stroke="#63b8ff" points="432.07,-191.48 424.41,-184.16 425.83,-194.66 432.07,-191.48"/>
</a>
</g>
</g>
</g>
</svg>
