<?xml version="1.0" encoding="UTF-8" standalone="no"?>
<!DOCTYPE svg PUBLIC "-//W3C//DTD SVG 1.1//EN"
 "http://www.w3.org/Graphics/SVG/1.1/DTD/svg11.dtd">
<!-- Generated by graphviz version 2.43.0 (0)
 -->
<!-- Title: VVariable Pages: 1 -->
<svg width="262pt" height="797pt"
 viewBox="0.00 0.00 262.00 797.00" xmlns="http://www.w3.org/2000/svg" xmlns:xlink="http://www.w3.org/1999/xlink">
<g id="graph0" class="graph" transform="scale(1 1) rotate(0) translate(4 793)">
<title>VVariable</title>
<!-- Node1 -->
<g id="Node000001" class="node">
<title>Node1</title>
<g id="a_Node000001"><a xlink:title=" ">
<polygon fill="#999999" stroke="transparent" points="166,-509 64,-509 64,-355 166,-355 166,-509"/>
<text text-anchor="start" x="91.5" y="-497" font-family="Helvetica,sans-Serif" font-size="10.00">VVariable</text>
<text text-anchor="start" x="70.5" y="-482" font-family="Helvetica,sans-Serif" font-size="10.00">&#45;</text>
<text text-anchor="start" x="81" y="-482" font-family="Helvetica,sans-Serif" font-size="10.00">d</text>
<text text-anchor="start" x="68" y="-467" font-family="Helvetica,sans-Serif" font-size="10.00">+</text>
<text text-anchor="start" x="81" y="-467" font-family="Helvetica,sans-Serif" font-size="10.00">VVariable()</text>
<text text-anchor="start" x="68" y="-452" font-family="Helvetica,sans-Serif" font-size="10.00">+</text>
<text text-anchor="start" x="81" y="-452" font-family="Helvetica,sans-Serif" font-size="10.00">VVariable()</text>
<text text-anchor="start" x="68" y="-437" font-family="Helvetica,sans-Serif" font-size="10.00">+</text>
<text text-anchor="start" x="81" y="-437" font-family="Helvetica,sans-Serif" font-size="10.00">VVariable()</text>
<text text-anchor="start" x="68" y="-422" font-family="Helvetica,sans-Serif" font-size="10.00">+</text>
<text text-anchor="start" x="81" y="-422" font-family="Helvetica,sans-Serif" font-size="10.00">~VVariable()</text>
<text text-anchor="start" x="68" y="-407" font-family="Helvetica,sans-Serif" font-size="10.00">+</text>
<text text-anchor="start" x="81" y="-407" font-family="Helvetica,sans-Serif" font-size="10.00">operator=()</text>
<text text-anchor="start" x="68" y="-392" font-family="Helvetica,sans-Serif" font-size="10.00">+</text>
<text text-anchor="start" x="81" y="-392" font-family="Helvetica,sans-Serif" font-size="10.00">Swap()</text>
<text text-anchor="start" x="68" y="-377" font-family="Helvetica,sans-Serif" font-size="10.00">+</text>
<text text-anchor="start" x="81" y="-377" font-family="Helvetica,sans-Serif" font-size="10.00">GetDescription()</text>
<text text-anchor="start" x="68" y="-362" font-family="Helvetica,sans-Serif" font-size="10.00">+</text>
<text text-anchor="start" x="81" y="-362" font-family="Helvetica,sans-Serif" font-size="10.00">SetDescription()</text>
<polygon fill="#666666" stroke="#666666" points="64,-492 64,-492 166,-492 166,-492 64,-492"/>
<polygon fill="#666666" stroke="#666666" points="64,-477 64,-477 79,-477 79,-477 64,-477"/>
<polygon fill="#666666" stroke="#666666" points="79,-477 79,-477 166,-477 166,-477 79,-477"/>
<polygon fill="none" stroke="#666666" points="64,-355 64,-509 166,-509 166,-355 64,-355"/>
</a>
</g>
</g>
<!-- Node3 -->
<g id="Node000003" class="node">
<title>Node3</title>
<g id="a_Node000003"><a xlink:href="../../dd/d0c/classVIncrement.html" target="_top" xlink:title="The VIncrement class keep data row of increment table.">
<polygon fill="white" stroke="transparent" points="94,-251.5 0,-251.5 0,-67.5 94,-67.5 94,-251.5"/>
<text text-anchor="start" x="18.5" y="-239.5" font-family="Helvetica,sans-Serif" font-size="10.00">VIncrement</text>
<text text-anchor="start" x="6.5" y="-224.5" font-family="Helvetica,sans-Serif" font-size="10.00">&#45;</text>
<text text-anchor="start" x="17" y="-224.5" font-family="Helvetica,sans-Serif" font-size="10.00">d</text>
<text text-anchor="start" x="4" y="-209.5" font-family="Helvetica,sans-Serif" font-size="10.00">+</text>
<text text-anchor="start" x="17" y="-209.5" font-family="Helvetica,sans-Serif" font-size="10.00">VIncrement()</text>
<text text-anchor="start" x="4" y="-194.5" font-family="Helvetica,sans-Serif" font-size="10.00">+</text>
<text text-anchor="start" x="17" y="-194.5" font-family="Helvetica,sans-Serif" font-size="10.00">VIncrement()</text>
<text text-anchor="start" x="4" y="-179.5" font-family="Helvetica,sans-Serif" font-size="10.00">+</text>
<text text-anchor="start" x="17" y="-179.5" font-family="Helvetica,sans-Serif" font-size="10.00">VIncrement()</text>
<text text-anchor="start" x="4" y="-164.5" font-family="Helvetica,sans-Serif" font-size="10.00">+</text>
<text text-anchor="start" x="17" y="-164.5" font-family="Helvetica,sans-Serif" font-size="10.00">~VIncrement()</text>
<text text-anchor="start" x="4" y="-149.5" font-family="Helvetica,sans-Serif" font-size="10.00">+</text>
<text text-anchor="start" x="17" y="-149.5" font-family="Helvetica,sans-Serif" font-size="10.00">operator=()</text>
<text text-anchor="start" x="4" y="-134.5" font-family="Helvetica,sans-Serif" font-size="10.00">+</text>
<text text-anchor="start" x="17" y="-134.5" font-family="Helvetica,sans-Serif" font-size="10.00">Swap()</text>
<text text-anchor="start" x="4" y="-119.5" font-family="Helvetica,sans-Serif" font-size="10.00">+</text>
<text text-anchor="start" x="17" y="-119.5" font-family="Helvetica,sans-Serif" font-size="10.00">getIndex()</text>
<text text-anchor="start" x="4" y="-104.5" font-family="Helvetica,sans-Serif" font-size="10.00">+</text>
<text text-anchor="start" x="17" y="-104.5" font-family="Helvetica,sans-Serif" font-size="10.00">GetFormula()</text>
<text text-anchor="start" x="4" y="-89.5" font-family="Helvetica,sans-Serif" font-size="10.00">+</text>
<text text-anchor="start" x="17" y="-89.5" font-family="Helvetica,sans-Serif" font-size="10.00">IsFormulaOk()</text>
<text text-anchor="start" x="4" y="-74.5" font-family="Helvetica,sans-Serif" font-size="10.00">+</text>
<text text-anchor="start" x="17" y="-74.5" font-family="Helvetica,sans-Serif" font-size="10.00">GetData()</text>
<polygon fill="#666666" stroke="#666666" points="0,-234.5 0,-234.5 94,-234.5 94,-234.5 0,-234.5"/>
<polygon fill="#666666" stroke="#666666" points="0,-219.5 0,-219.5 15,-219.5 15,-219.5 0,-219.5"/>
<polygon fill="#666666" stroke="#666666" points="15,-219.5 15,-219.5 94,-219.5 94,-219.5 15,-219.5"/>
<polygon fill="none" stroke="#666666" points="0,-67.5 0,-251.5 94,-251.5 94,-67.5 0,-67.5"/>
</a>
</g>
</g>
<!-- Node1&#45;&gt;Node3 -->
<g id="edge2_Node000001_Node000003" class="edge">
<title>Node1&#45;&gt;Node3</title>
<g id="a_edge2_Node000001_Node000003"><a xlink:title=" ">
<path fill="none" stroke="#63b8ff" d="M93.38,-345.01C85.92,-315.31 77.53,-281.94 69.96,-251.83"/>
<polygon fill="none" stroke="#63b8ff" points="90.04,-346.09 95.88,-354.93 96.83,-344.38 90.04,-346.09"/>
</a>
</g>
</g>
<!-- Node4 -->
<g id="Node000004" class="node">
<title>Node4</title>
<g id="a_Node000004"><a xlink:href="../../de/dcc/classVMeasurement.html" target="_top" xlink:title="The VMeasurement class keep data row of multisize table.">
<polygon fill="white" stroke="transparent" points="254,-319 112,-319 112,0 254,0 254,-319"/>
<text text-anchor="start" x="145.5" y="-306.5" font-family="Helvetica,sans-Serif" font-size="10.00">VMeasurement</text>
<text text-anchor="start" x="118.5" y="-291.5" font-family="Helvetica,sans-Serif" font-size="10.00">&#45;</text>
<text text-anchor="start" x="129" y="-291.5" font-family="Helvetica,sans-Serif" font-size="10.00">d</text>
<text text-anchor="start" x="116" y="-276.5" font-family="Helvetica,sans-Serif" font-size="10.00">+</text>
<text text-anchor="start" x="129" y="-276.5" font-family="Helvetica,sans-Serif" font-size="10.00">VMeasurement()</text>
<text text-anchor="start" x="116" y="-261.5" font-family="Helvetica,sans-Serif" font-size="10.00">+</text>
<text text-anchor="start" x="129" y="-261.5" font-family="Helvetica,sans-Serif" font-size="10.00">VMeasurement()</text>
<text text-anchor="start" x="116" y="-246.5" font-family="Helvetica,sans-Serif" font-size="10.00">+</text>
<text text-anchor="start" x="129" y="-246.5" font-family="Helvetica,sans-Serif" font-size="10.00">VMeasurement()</text>
<text text-anchor="start" x="116" y="-231.5" font-family="Helvetica,sans-Serif" font-size="10.00">+</text>
<text text-anchor="start" x="129" y="-231.5" font-family="Helvetica,sans-Serif" font-size="10.00">~VMeasurement()</text>
<text text-anchor="start" x="116" y="-216.5" font-family="Helvetica,sans-Serif" font-size="10.00">+</text>
<text text-anchor="start" x="129" y="-216.5" font-family="Helvetica,sans-Serif" font-size="10.00">operator=()</text>
<text text-anchor="start" x="116" y="-201.5" font-family="Helvetica,sans-Serif" font-size="10.00">+</text>
<text text-anchor="start" x="129" y="-201.5" font-family="Helvetica,sans-Serif" font-size="10.00">Swap()</text>
<text text-anchor="start" x="116" y="-186.5" font-family="Helvetica,sans-Serif" font-size="10.00">+</text>
<text text-anchor="start" x="129" y="-186.5" font-family="Helvetica,sans-Serif" font-size="10.00">getGuiText()</text>
<text text-anchor="start" x="116" y="-171.5" font-family="Helvetica,sans-Serif" font-size="10.00">+</text>
<text text-anchor="start" x="129" y="-171.5" font-family="Helvetica,sans-Serif" font-size="10.00">TagName()</text>
<text text-anchor="start" x="116" y="-156.5" font-family="Helvetica,sans-Serif" font-size="10.00">+</text>
<text text-anchor="start" x="129" y="-156.5" font-family="Helvetica,sans-Serif" font-size="10.00">setTagName()</text>
<text text-anchor="start" x="116" y="-141.5" font-family="Helvetica,sans-Serif" font-size="10.00">+</text>
<text text-anchor="start" x="129" y="-141.5" font-family="Helvetica,sans-Serif" font-size="10.00">GetFormula()</text>
<text text-anchor="start" x="129" y="-126.5" font-family="Helvetica,sans-Serif" font-size="10.00">and 16 more...</text>
<text text-anchor="start" x="116" y="-111.5" font-family="Helvetica,sans-Serif" font-size="10.00">+</text>
<text text-anchor="start" x="129" y="-111.5" font-family="Helvetica,sans-Serif" font-size="10.00">ListHeights()</text>
<text text-anchor="start" x="116" y="-96.5" font-family="Helvetica,sans-Serif" font-size="10.00">+</text>
<text text-anchor="start" x="129" y="-96.5" font-family="Helvetica,sans-Serif" font-size="10.00">ListSizes()</text>
<text text-anchor="start" x="116" y="-81.5" font-family="Helvetica,sans-Serif" font-size="10.00">+</text>
<text text-anchor="start" x="129" y="-81.5" font-family="Helvetica,sans-Serif" font-size="10.00">WholeListHeights()</text>
<text text-anchor="start" x="116" y="-66.5" font-family="Helvetica,sans-Serif" font-size="10.00">+</text>
<text text-anchor="start" x="129" y="-66.5" font-family="Helvetica,sans-Serif" font-size="10.00">WholeListSizes()</text>
<text text-anchor="start" x="116" y="-51.5" font-family="Helvetica,sans-Serif" font-size="10.00">+</text>
<text text-anchor="start" x="129" y="-51.5" font-family="Helvetica,sans-Serif" font-size="10.00">IsGradationSizeValid()</text>
<text text-anchor="start" x="116" y="-36.5" font-family="Helvetica,sans-Serif" font-size="10.00">+</text>
<text text-anchor="start" x="129" y="-36.5" font-family="Helvetica,sans-Serif" font-size="10.00">IsGradationHeightValid()</text>
<text text-anchor="start" x="118.5" y="-21.5" font-family="Helvetica,sans-Serif" font-size="10.00">&#45;</text>
<text text-anchor="start" x="129" y="-21.5" font-family="Helvetica,sans-Serif" font-size="10.00">CalcValue()</text>
<text text-anchor="start" x="118.5" y="-6.5" font-family="Helvetica,sans-Serif" font-size="10.00">&#45;</text>
<text text-anchor="start" x="129" y="-6.5" font-family="Helvetica,sans-Serif" font-size="10.00">ListValue()</text>
<polygon fill="#666666" stroke="#666666" points="112,-301.5 112,-301.5 254,-301.5 254,-301.5 112,-301.5"/>
<polygon fill="#666666" stroke="#666666" points="112,-286.5 112,-286.5 127,-286.5 127,-286.5 112,-286.5"/>
<polygon fill="#666666" stroke="#666666" points="127,-286.5 127,-286.5 254,-286.5 254,-286.5 127,-286.5"/>
<polygon fill="none" stroke="#666666" points="112,0 112,-319 254,-319 254,0 112,0"/>
</a>
</g>
</g>
<!-- Node1&#45;&gt;Node4 -->
<g id="edge3_Node000001_Node000004" class="edge">
<title>Node1&#45;&gt;Node4</title>
<g id="a_edge3_Node000001_Node000004"><a xlink:title=" ">
<path fill="none" stroke="#63b8ff" d="M136.58,-345.15C138.71,-336.69 140.91,-327.94 143.14,-319.04"/>
<polygon fill="none" stroke="#63b8ff" points="133.17,-344.38 134.12,-354.93 139.96,-346.09 133.17,-344.38"/>
</a>
</g>
</g>
<!-- Node2 -->
<g id="Node000002" class="node">
<title>Node2</title>
<g id="a_Node000002"><a xlink:href="../../d4/d3d/classVInternalVariable.html" target="_top" xlink:title=" ">
<polygon fill="white" stroke="transparent" points="175.5,-789 54.5,-789 54.5,-545 175.5,-545 175.5,-789"/>
<text text-anchor="start" x="73" y="-777" font-family="Helvetica,sans-Serif" font-size="10.00">VInternalVariable</text>
<text text-anchor="start" x="61.5" y="-762" font-family="Helvetica,sans-Serif" font-size="10.00">&#45;</text>
<text text-anchor="start" x="72" y="-762" font-family="Helvetica,sans-Serif" font-size="10.00">d</text>
<text text-anchor="start" x="59" y="-747" font-family="Helvetica,sans-Serif" font-size="10.00">+</text>
<text text-anchor="start" x="72" y="-747" font-family="Helvetica,sans-Serif" font-size="10.00">VInternalVariable()</text>
<text text-anchor="start" x="59" y="-732" font-family="Helvetica,sans-Serif" font-size="10.00">+</text>
<text text-anchor="start" x="72" y="-732" font-family="Helvetica,sans-Serif" font-size="10.00">VInternalVariable()</text>
<text text-anchor="start" x="59" y="-717" font-family="Helvetica,sans-Serif" font-size="10.00">+</text>
<text text-anchor="start" x="72" y="-717" font-family="Helvetica,sans-Serif" font-size="10.00">~VInternalVariable()</text>
<text text-anchor="start" x="59" y="-702" font-family="Helvetica,sans-Serif" font-size="10.00">+</text>
<text text-anchor="start" x="72" y="-702" font-family="Helvetica,sans-Serif" font-size="10.00">operator=()</text>
<text text-anchor="start" x="59" y="-687" font-family="Helvetica,sans-Serif" font-size="10.00">+</text>
<text text-anchor="start" x="72" y="-687" font-family="Helvetica,sans-Serif" font-size="10.00">Swap()</text>
<text text-anchor="start" x="59" y="-672" font-family="Helvetica,sans-Serif" font-size="10.00">+</text>
<text text-anchor="start" x="72" y="-672" font-family="Helvetica,sans-Serif" font-size="10.00">GetValue()</text>
<text text-anchor="start" x="59" y="-657" font-family="Helvetica,sans-Serif" font-size="10.00">+</text>
<text text-anchor="start" x="72" y="-657" font-family="Helvetica,sans-Serif" font-size="10.00">GetValue()</text>
<text text-anchor="start" x="59" y="-642" font-family="Helvetica,sans-Serif" font-size="10.00">+</text>
<text text-anchor="start" x="72" y="-642" font-family="Helvetica,sans-Serif" font-size="10.00">GetName()</text>
<text text-anchor="start" x="59" y="-627" font-family="Helvetica,sans-Serif" font-size="10.00">+</text>
<text text-anchor="start" x="72" y="-627" font-family="Helvetica,sans-Serif" font-size="10.00">SetName()</text>
<text text-anchor="start" x="59" y="-612" font-family="Helvetica,sans-Serif" font-size="10.00">+</text>
<text text-anchor="start" x="72" y="-612" font-family="Helvetica,sans-Serif" font-size="10.00">GetType()</text>
<text text-anchor="start" x="59" y="-597" font-family="Helvetica,sans-Serif" font-size="10.00">+</text>
<text text-anchor="start" x="72" y="-597" font-family="Helvetica,sans-Serif" font-size="10.00">SetType()</text>
<text text-anchor="start" x="59" y="-582" font-family="Helvetica,sans-Serif" font-size="10.00">+</text>
<text text-anchor="start" x="72" y="-582" font-family="Helvetica,sans-Serif" font-size="10.00">Filter()</text>
<text text-anchor="start" x="59" y="-567" font-family="Helvetica,sans-Serif" font-size="10.00">+</text>
<text text-anchor="start" x="72" y="-567" font-family="Helvetica,sans-Serif" font-size="10.00">isNotUsed()</text>
<text text-anchor="start" x="59" y="-552" font-family="Helvetica,sans-Serif" font-size="10.00">#</text>
<text text-anchor="start" x="72" y="-552" font-family="Helvetica,sans-Serif" font-size="10.00">SetValue()</text>
<polygon fill="#666666" stroke="#666666" points="55,-772 55,-772 176,-772 176,-772 55,-772"/>
<polygon fill="#666666" stroke="#666666" points="55,-757 55,-757 70,-757 70,-757 55,-757"/>
<polygon fill="#666666" stroke="#666666" points="70,-757 70,-757 176,-757 176,-757 70,-757"/>
<polygon fill="none" stroke="#666666" points="54.5,-545 54.5,-789 175.5,-789 175.5,-545 54.5,-545"/>
</a>
</g>
</g>
<!-- Node2&#45;&gt;Node1 -->
<g id="edge1_Node000001_Node000002" class="edge">
<title>Node2&#45;&gt;Node1</title>
<g id="a_edge1_Node000001_Node000002"><a xlink:title=" ">
<path fill="none" stroke="#63b8ff" d="M115,-534.58C115,-525.98 115,-517.48 115,-509.29"/>
<polygon fill="none" stroke="#63b8ff" points="111.5,-534.72 115,-544.72 118.5,-534.72 111.5,-534.72"/>
</a>
</g>
</g>
</g>
</svg>
