<?xml version="1.0" encoding="UTF-8" standalone="no"?>
<!DOCTYPE svg PUBLIC "-//W3C//DTD SVG 1.1//EN"
 "http://www.w3.org/Graphics/SVG/1.1/DTD/svg11.dtd">
<!-- Generated by graphviz version 2.43.0 (0)
 -->
<!-- Title: src/app/seamlyme/dialogs/configpages/seamlymepreferencesconfigurationpage.cpp Pages: 1 -->
<svg width="977pt" height="214pt"
 viewBox="0.00 0.00 976.50 214.00" xmlns="http://www.w3.org/2000/svg" xmlns:xlink="http://www.w3.org/1999/xlink">
<g id="graph0" class="graph" transform="scale(1 1) rotate(0) translate(4 210)">
<title>src/app/seamlyme/dialogs/configpages/seamlymepreferencesconfigurationpage.cpp</title>
<!-- Node1 -->
<g id="Node000001" class="node">
<title>Node1</title>
<g id="a_Node000001"><a xlink:title=" ">
<polygon fill="#999999" stroke="#666666" points="740,-206 441,-206 441,-176 740,-176 740,-206"/>
<text text-anchor="start" x="449" y="-194" font-family="Helvetica,sans-Serif" font-size="10.00">src/app/seamlyme/dialogs</text>
<text text-anchor="middle" x="590.5" y="-183" font-family="Helvetica,sans-Serif" font-size="10.00">/configpages/seamlymepreferencesconfigurationpage.cpp</text>
</a>
</g>
</g>
<!-- Node2 -->
<g id="Node000002" class="node">
<title>Node2</title>
<g id="a_Node000002"><a xlink:href="../../df/d22/seamlymepreferencesconfigurationpage_8h.html" target="_top" xlink:title=" ">
<polygon fill="white" stroke="#666666" points="223,-134.5 0,-134.5 0,-115.5 223,-115.5 223,-134.5"/>
<text text-anchor="middle" x="111.5" y="-122.5" font-family="Helvetica,sans-Serif" font-size="10.00">seamlymepreferencesconfigurationpage.h</text>
</a>
</g>
</g>
<!-- Node1&#45;&gt;Node2 -->
<g id="edge1_Node000001_Node000002" class="edge">
<title>Node1&#45;&gt;Node2</title>
<g id="a_edge1_Node000001_Node000002"><a xlink:title=" ">
<path fill="none" stroke="#63b8ff" d="M485.68,-175.99C394.85,-163.86 265.73,-146.61 185.36,-135.87"/>
<polygon fill="#63b8ff" stroke="#63b8ff" points="185.7,-132.38 175.33,-134.53 184.78,-139.32 185.7,-132.38"/>
</a>
</g>
</g>
<!-- Node4 -->
<g id="Node000004" class="node">
<title>Node4</title>
<g id="a_Node000004"><a xlink:title=" ">
<polygon fill="#e0e0e0" stroke="#999999" points="478,-134.5 241,-134.5 241,-115.5 478,-115.5 478,-134.5"/>
<text text-anchor="middle" x="359.5" y="-122.5" font-family="Helvetica,sans-Serif" font-size="10.00">ui_seamlymepreferencesconfigurationpage.h</text>
</a>
</g>
</g>
<!-- Node1&#45;&gt;Node4 -->
<g id="edge3_Node000001_Node000004" class="edge">
<title>Node1&#45;&gt;Node4</title>
<g id="a_edge3_Node000001_Node000004"><a xlink:title=" ">
<path fill="none" stroke="#63b8ff" d="M539.81,-175.95C497.87,-164.34 439.07,-148.05 400.17,-137.27"/>
<polygon fill="#63b8ff" stroke="#63b8ff" points="400.81,-133.81 390.24,-134.52 398.94,-140.56 400.81,-133.81"/>
</a>
</g>
</g>
<!-- Node5 -->
<g id="Node000005" class="node">
<title>Node5</title>
<g id="a_Node000005"><a xlink:href="../../df/da4/mapplication_8h.html" target="_top" xlink:title=" ">
<polygon fill="white" stroke="#666666" points="603,-134.5 496,-134.5 496,-115.5 603,-115.5 603,-134.5"/>
<text text-anchor="middle" x="549.5" y="-122.5" font-family="Helvetica,sans-Serif" font-size="10.00">../../mapplication.h</text>
</a>
</g>
</g>
<!-- Node1&#45;&gt;Node5 -->
<g id="edge4_Node000001_Node000005" class="edge">
<title>Node1&#45;&gt;Node5</title>
<g id="a_edge4_Node000001_Node000005"><a xlink:title=" ">
<path fill="none" stroke="#63b8ff" d="M581.4,-175.8C575.26,-166.21 567.12,-153.5 560.6,-143.32"/>
<polygon fill="#63b8ff" stroke="#63b8ff" points="563.51,-141.38 555.17,-134.84 557.61,-145.15 563.51,-141.38"/>
</a>
</g>
</g>
<!-- Node8 -->
<g id="Node000008" class="node">
<title>Node8</title>
<g id="a_Node000008"><a xlink:title=" ">
<polygon fill="#e0e0e0" stroke="#999999" points="968.5,-74 804.5,-74 804.5,-55 968.5,-55 968.5,-74"/>
<text text-anchor="middle" x="886.5" y="-62" font-family="Helvetica,sans-Serif" font-size="10.00">../vmisc/vseamlymesettings.h</text>
</a>
</g>
</g>
<!-- Node1&#45;&gt;Node8 -->
<g id="edge11_Node000001_Node000008" class="edge">
<title>Node1&#45;&gt;Node8</title>
<g id="a_edge11_Node000001_Node000008"><a xlink:title=" ">
<path fill="none" stroke="#63b8ff" d="M597.15,-175.86C606.54,-157.55 625.49,-126.06 651.5,-110 676.08,-94.82 743.37,-83 799.67,-75.36"/>
<polygon fill="#63b8ff" stroke="#63b8ff" points="800.23,-78.82 809.68,-74.03 799.31,-71.88 800.23,-78.82"/>
</a>
</g>
</g>
<!-- Node12 -->
<g id="Node000012" class="node">
<title>Node12</title>
<g id="a_Node000012"><a xlink:title=" ">
<polygon fill="#e0e0e0" stroke="#999999" points="787,-140 660,-140 660,-110 787,-110 787,-140"/>
<text text-anchor="start" x="668" y="-128" font-family="Helvetica,sans-Serif" font-size="10.00">../vpatterndb/variables</text>
<text text-anchor="middle" x="723.5" y="-117" font-family="Helvetica,sans-Serif" font-size="10.00">/vmeasurement.h</text>
</a>
</g>
</g>
<!-- Node1&#45;&gt;Node12 -->
<g id="edge12_Node000001_Node000012" class="edge">
<title>Node1&#45;&gt;Node12</title>
<g id="a_edge12_Node000001_Node000012"><a xlink:title=" ">
<path fill="none" stroke="#63b8ff" d="M619.69,-175.95C638.92,-166.7 664.3,-154.49 685.16,-144.45"/>
<polygon fill="#63b8ff" stroke="#63b8ff" points="686.89,-147.5 694.38,-140.01 683.85,-141.19 686.89,-147.5"/>
</a>
</g>
</g>
<!-- Node13 -->
<g id="Node000013" class="node">
<title>Node13</title>
<g id="a_Node000013"><a xlink:title=" ">
<polygon fill="#e0e0e0" stroke="#999999" points="953.5,-134.5 805.5,-134.5 805.5,-115.5 953.5,-115.5 953.5,-134.5"/>
<text text-anchor="middle" x="879.5" y="-122.5" font-family="Helvetica,sans-Serif" font-size="10.00">../vpatterndb/pmsystems.h</text>
</a>
</g>
</g>
<!-- Node1&#45;&gt;Node13 -->
<g id="edge13_Node000001_Node000013" class="edge">
<title>Node1&#45;&gt;Node13</title>
<g id="a_edge13_Node000001_Node000013"><a xlink:title=" ">
<path fill="none" stroke="#63b8ff" d="M653.92,-175.95C707.28,-164.14 782.46,-147.49 831.08,-136.72"/>
<polygon fill="#63b8ff" stroke="#63b8ff" points="832.03,-140.1 841.04,-134.52 830.52,-133.26 832.03,-140.1"/>
</a>
</g>
</g>
<!-- Node3 -->
<g id="Node000003" class="node">
<title>Node3</title>
<g id="a_Node000003"><a xlink:title=" ">
<polygon fill="#e0e0e0" stroke="#999999" points="141,-74 82,-74 82,-55 141,-55 141,-74"/>
<text text-anchor="middle" x="111.5" y="-62" font-family="Helvetica,sans-Serif" font-size="10.00">QWidget</text>
</a>
</g>
</g>
<!-- Node2&#45;&gt;Node3 -->
<g id="edge2_Node000002_Node000003" class="edge">
<title>Node2&#45;&gt;Node3</title>
<g id="a_edge2_Node000002_Node000003"><a xlink:title=" ">
<path fill="none" stroke="#63b8ff" d="M111.5,-115.37C111.5,-107.25 111.5,-94.81 111.5,-84.39"/>
<polygon fill="#63b8ff" stroke="#63b8ff" points="115,-84.17 111.5,-74.17 108,-84.17 115,-84.17"/>
</a>
</g>
</g>
<!-- Node6 -->
<g id="Node000006" class="node">
<title>Node6</title>
<g id="a_Node000006"><a xlink:title=" ">
<polygon fill="#e0e0e0" stroke="#999999" points="333,-74 172,-74 172,-55 333,-55 333,-74"/>
<text text-anchor="middle" x="252.5" y="-62" font-family="Helvetica,sans-Serif" font-size="10.00">../vpatterndb/vtranslatevars.h</text>
</a>
</g>
</g>
<!-- Node5&#45;&gt;Node6 -->
<g id="edge5_Node000005_Node000006" class="edge">
<title>Node5&#45;&gt;Node6</title>
<g id="a_edge5_Node000005_Node000006"><a xlink:title=" ">
<path fill="none" stroke="#63b8ff" d="M511.9,-115.45C503.55,-113.6 494.73,-111.7 486.5,-110 426.32,-97.59 357.16,-84.6 309.72,-75.87"/>
<polygon fill="#63b8ff" stroke="#63b8ff" points="310.11,-72.39 299.64,-74.03 308.85,-79.27 310.11,-72.39"/>
</a>
</g>
</g>
<!-- Node7 -->
<g id="Node000007" class="node">
<title>Node7</title>
<g id="a_Node000007"><a xlink:title=" ">
<polygon fill="#e0e0e0" stroke="#999999" points="433.5,-74 351.5,-74 351.5,-55 433.5,-55 433.5,-74"/>
<text text-anchor="middle" x="392.5" y="-62" font-family="Helvetica,sans-Serif" font-size="10.00">../vmisc/def.h</text>
</a>
</g>
</g>
<!-- Node5&#45;&gt;Node7 -->
<g id="edge6_Node000005_Node000007" class="edge">
<title>Node5&#45;&gt;Node7</title>
<g id="a_edge6_Node000005_Node000007"><a xlink:title=" ">
<path fill="none" stroke="#63b8ff" d="M526.67,-115.49C499.93,-105.53 455.42,-88.95 425.06,-77.63"/>
<polygon fill="#63b8ff" stroke="#63b8ff" points="425.95,-74.23 415.36,-74.02 423.51,-80.79 425.95,-74.23"/>
</a>
</g>
</g>
<!-- Node5&#45;&gt;Node8 -->
<g id="edge7_Node000005_Node000008" class="edge">
<title>Node5&#45;&gt;Node8</title>
<g id="a_edge7_Node000005_Node000008"><a xlink:title=" ">
<path fill="none" stroke="#63b8ff" d="M589.72,-115.45C598.84,-113.58 608.49,-111.67 617.5,-110 686.84,-97.13 766.57,-84.17 821.12,-75.58"/>
<polygon fill="#63b8ff" stroke="#63b8ff" points="821.67,-79.04 831.01,-74.03 820.58,-72.12 821.67,-79.04"/>
</a>
</g>
</g>
<!-- Node9 -->
<g id="Node000009" class="node">
<title>Node9</title>
<g id="a_Node000009"><a xlink:title=" ">
<polygon fill="#e0e0e0" stroke="#999999" points="619,-74 452,-74 452,-55 619,-55 619,-74"/>
<text text-anchor="middle" x="535.5" y="-62" font-family="Helvetica,sans-Serif" font-size="10.00">../vmisc/vabstractapplication.h</text>
</a>
</g>
</g>
<!-- Node5&#45;&gt;Node9 -->
<g id="edge8_Node000005_Node000009" class="edge">
<title>Node5&#45;&gt;Node9</title>
<g id="a_edge8_Node000005_Node000009"><a xlink:title=" ">
<path fill="none" stroke="#63b8ff" d="M547.43,-115.37C545.47,-107.16 542.45,-94.54 539.94,-84.05"/>
<polygon fill="#63b8ff" stroke="#63b8ff" points="543.31,-83.08 537.57,-74.17 536.5,-84.71 543.31,-83.08"/>
</a>
</g>
</g>
<!-- Node10 -->
<g id="Node000010" class="node">
<title>Node10</title>
<g id="a_Node000010"><a xlink:href="../../d0/d0b/dialogmdatabase_8h.html" target="_top" xlink:title=" ">
<polygon fill="white" stroke="#666666" points="786,-74 637,-74 637,-55 786,-55 786,-74"/>
<text text-anchor="middle" x="711.5" y="-62" font-family="Helvetica,sans-Serif" font-size="10.00">dialogs/dialogmdatabase.h</text>
</a>
</g>
</g>
<!-- Node5&#45;&gt;Node10 -->
<g id="edge9_Node000005_Node000010" class="edge">
<title>Node5&#45;&gt;Node10</title>
<g id="a_edge9_Node000005_Node000010"><a xlink:title=" ">
<path fill="none" stroke="#63b8ff" d="M573.06,-115.49C600.77,-105.49 646.97,-88.8 678.31,-77.49"/>
<polygon fill="#63b8ff" stroke="#63b8ff" points="679.7,-80.71 687.92,-74.02 677.32,-74.12 679.7,-80.71"/>
</a>
</g>
</g>
<!-- Node11 -->
<g id="Node000011" class="node">
<title>Node11</title>
<g id="a_Node000011"><a xlink:title=" ">
<polygon fill="#e0e0e0" stroke="#999999" points="739.5,-19 683.5,-19 683.5,0 739.5,0 739.5,-19"/>
<text text-anchor="middle" x="711.5" y="-7" font-family="Helvetica,sans-Serif" font-size="10.00">QDialog</text>
</a>
</g>
</g>
<!-- Node10&#45;&gt;Node11 -->
<g id="edge10_Node000010_Node000011" class="edge">
<title>Node10&#45;&gt;Node11</title>
<g id="a_edge10_Node000010_Node000011"><a xlink:title=" ">
<path fill="none" stroke="#63b8ff" d="M711.5,-54.75C711.5,-47.8 711.5,-37.85 711.5,-29.13"/>
<polygon fill="#63b8ff" stroke="#63b8ff" points="715,-29.09 711.5,-19.09 708,-29.09 715,-29.09"/>
</a>
</g>
</g>
</g>
</svg>
