<?xml version="1.0" encoding="UTF-8" standalone="no"?>
<!DOCTYPE svg PUBLIC "-//W3C//DTD SVG 1.1//EN"
 "http://www.w3.org/Graphics/SVG/1.1/DTD/svg11.dtd">
<!-- Generated by graphviz version 2.43.0 (0)
 -->
<!-- Title: src/app/seamly2d/dialogs/dialogs.h Pages: 1 -->
<!--zoomable 225 -->

<svg id="main" version="1.1" xmlns="http://www.w3.org/2000/svg" xmlns:xlink="http://www.w3.org/1999/xlink" xml:space="preserve" onload="init(evt)">
<style type="text/css"><![CDATA[
.node, .edge {opacity: 0.7;}
.node.selected, .edge.selected {opacity: 1;}
.edge:hover path { stroke: red; }
.edge:hover polygon { stroke: red; fill: red; }
]]></style>

<defs>
  <circle id="rim" cx="0" cy="0" r="7"/>
  <circle id="rim2" cx="0" cy="0" r="3.5"/>
  <g id="zoomPlus">
    <use xlink:href="#rim" fill="#404040"><set attributeName="fill" to="#808080" begin="zoomplus.mouseover" end="zoomplus.mouseout"/></use>
    <path d="M-4,0h8M0,-4v8" fill="none" stroke="white" stroke-width="1.5" pointer-events="none"/>
  </g>
  <g id="zoomMin">
    <use xlink:href="#rim" fill="#404040"><set attributeName="fill" to="#808080" begin="zoomminus.mouseover" end="zoomminus.mouseout"/></use>
    <path d="M-4,0h8" fill="none" stroke="white" stroke-width="1.5" pointer-events="none"/>
  </g>
  <g id="arrowUp" transform="translate(30 24)">
    <use xlink:href="#rim"/>
    <path pointer-events="none" fill="none" stroke="white" stroke-width="1.5" d="M0,-3.0v7 M-2.5,-0.5L0,-3.0L2.5,-0.5"/>
  </g>
  <g id="arrowRight" transform="rotate(90) translate(36 -43)">
    <use xlink:href="#rim"/>
    <path pointer-events="none" fill="none" stroke="white" stroke-width="1.5" d="M0,-3.0v7 M-2.5,-0.5L0,-3.0L2.5,-0.5"/>
  </g>
  <g id="arrowDown" transform="rotate(180) translate(-30 -48)">
    <use xlink:href="#rim"/>
    <path pointer-events="none" fill="none" stroke="white" stroke-width="1.5" d="M0,-3.0v7 M-2.5,-0.5L0,-3.0L2.5,-0.5"/>
  </g>
  <g id="arrowLeft" transform="rotate(270) translate(-36 17)">
    <use xlink:href="#rim"/>
    <path pointer-events="none" fill="none" stroke="white" stroke-width="1.5" d="M0,-3.0v7 M-2.5,-0.5L0,-3.0L2.5,-0.5"/>
  </g>
  <g id="resetDef">
    <use xlink:href="#rim2" fill="#404040"><set attributeName="fill" to="#808080" begin="reset.mouseover" end="reset.mouseout"/></use>
  </g>
</defs>
<script type="application/ecmascript">
var viewWidth = 2431;
var viewHeight = 225;
var sectionId = 'dynsection-0';
</script>
<script type="application/ecmascript" xlink:href="../../svg.min.js"/>
<svg id="graph" class="graph">
<g id="viewport">
<title>src/app/seamly2d/dialogs/dialogs.h</title>
<!-- Node1 -->
<g id="Node000001" class="node">
<title>Node1</title>
<g id="a_Node000001"><a xlink:title=" ">
<polygon fill="#999999" stroke="#666666" points="1419.5,-217 1278.5,-217 1278.5,-187 1419.5,-187 1419.5,-217"/>
<text text-anchor="start" x="1286.5" y="-205" font-family="Helvetica,sans-Serif" font-size="10.00">src/app/seamly2d/dialogs</text>
<text text-anchor="middle" x="1349" y="-194" font-family="Helvetica,sans-Serif" font-size="10.00">/dialogs.h</text>
</a>
</g>
</g>
<!-- Node2 -->
<g id="Node000002" class="node">
<title>Node2</title>
<g id="a_Node000002"><a xlink:href="../../d7/d44/history__dialog_8h.html" target="_top" xlink:title=" ">
<polygon fill="white" stroke="#666666" points="498.5,-145.5 403.5,-145.5 403.5,-126.5 498.5,-126.5 498.5,-145.5"/>
<text text-anchor="middle" x="451" y="-133.5" font-family="Helvetica,sans-Serif" font-size="10.00">history_dialog.h</text>
</a>
</g>
</g>
<!-- Node1&#45;&gt;Node2 -->
<g id="edge1_Node000001_Node000002" class="edge">
<title>Node1&#45;&gt;Node2</title>
<g id="a_edge1_Node000001_Node000002"><a xlink:title=" ">
<path fill="none" stroke="#63b8ff" d="M1278.16,-195.95C1105.72,-183.66 666.74,-152.38 508.76,-141.12"/>
<polygon fill="#63b8ff" stroke="#63b8ff" points="508.98,-137.62 498.76,-140.4 508.49,-144.61 508.98,-137.62"/>
</a>
</g>
</g>
<!-- Node5 -->
<g id="Node000005" class="node">
<title>Node5</title>
<g id="a_Node000005"><a xlink:href="../../de/d7c/dialogvariables_8h.html" target="_top" xlink:title=" ">
<polygon fill="white" stroke="#666666" points="329.5,-145.5 228.5,-145.5 228.5,-126.5 329.5,-126.5 329.5,-145.5"/>
<text text-anchor="middle" x="279" y="-133.5" font-family="Helvetica,sans-Serif" font-size="10.00">dialogvariables.h</text>
</a>
</g>
</g>
<!-- Node1&#45;&gt;Node5 -->
<g id="edge4_Node000001_Node000005" class="edge">
<title>Node1&#45;&gt;Node5</title>
<g id="a_edge4_Node000001_Node000005"><a xlink:title=" ">
<path fill="none" stroke="#63b8ff" d="M1278.5,-198.97C1120.12,-194.05 724.18,-179.71 394,-151 376.33,-149.46 357.19,-147.32 339.68,-145.18"/>
<polygon fill="#63b8ff" stroke="#63b8ff" points="339.94,-141.69 329.59,-143.92 339.08,-148.63 339.94,-141.69"/>
</a>
</g>
</g>
<!-- Node14 -->
<g id="Node000014" class="node">
<title>Node14</title>
<g id="a_Node000014"><a xlink:href="../../d5/d4e/dialogpatternproperties_8h.html" target="_top" xlink:title=" ">
<polygon fill="white" stroke="#666666" points="2178,-145.5 2038,-145.5 2038,-126.5 2178,-126.5 2178,-145.5"/>
<text text-anchor="middle" x="2108" y="-133.5" font-family="Helvetica,sans-Serif" font-size="10.00">dialogpatternproperties.h</text>
</a>
</g>
</g>
<!-- Node1&#45;&gt;Node14 -->
<g id="edge14_Node000001_Node000014" class="edge">
<title>Node1&#45;&gt;Node14</title>
<g id="a_edge14_Node000001_Node000014"><a xlink:title=" ">
<path fill="none" stroke="#63b8ff" d="M1419.72,-198.18C1543.56,-192.71 1807.59,-178.69 2029,-151 2037.34,-149.96 2046.15,-148.63 2054.73,-147.2"/>
<polygon fill="#63b8ff" stroke="#63b8ff" points="2055.39,-150.64 2064.66,-145.5 2054.21,-143.74 2055.39,-150.64"/>
</a>
</g>
</g>
<!-- Node22 -->
<g id="Node000022" class="node">
<title>Node22</title>
<g id="a_Node000022"><a xlink:href="../../dd/d10/dialognewpattern_8h.html" target="_top" xlink:title=" ">
<polygon fill="white" stroke="#666666" points="2019.5,-145.5 1908.5,-145.5 1908.5,-126.5 2019.5,-126.5 2019.5,-145.5"/>
<text text-anchor="middle" x="1964" y="-133.5" font-family="Helvetica,sans-Serif" font-size="10.00">dialognewpattern.h</text>
</a>
</g>
</g>
<!-- Node1&#45;&gt;Node22 -->
<g id="edge22_Node000001_Node000022" class="edge">
<title>Node1&#45;&gt;Node22</title>
<g id="a_edge22_Node000001_Node000022"><a xlink:title=" ">
<path fill="none" stroke="#63b8ff" d="M1419.66,-197.33C1524.66,-191.25 1727.92,-177.1 1899,-151 1905.22,-150.05 1911.73,-148.87 1918.13,-147.61"/>
<polygon fill="#63b8ff" stroke="#63b8ff" points="1918.96,-151.01 1928.04,-145.56 1917.54,-144.15 1918.96,-151.01"/>
</a>
</g>
</g>
<!-- Node23 -->
<g id="Node000023" class="node">
<title>Node23</title>
<g id="a_Node000023"><a xlink:href="../../da/d80/dialogaboutapp_8h.html" target="_top" xlink:title=" ">
<polygon fill="white" stroke="#666666" points="1459.5,-145.5 1358.5,-145.5 1358.5,-126.5 1459.5,-126.5 1459.5,-145.5"/>
<text text-anchor="middle" x="1409" y="-133.5" font-family="Helvetica,sans-Serif" font-size="10.00">dialogaboutapp.h</text>
</a>
</g>
</g>
<!-- Node1&#45;&gt;Node23 -->
<g id="edge25_Node000001_Node000023" class="edge">
<title>Node1&#45;&gt;Node23</title>
<g id="a_edge25_Node000001_Node000023"><a xlink:title=" ">
<path fill="none" stroke="#63b8ff" d="M1362.32,-186.8C1371.58,-176.92 1383.95,-163.72 1393.63,-153.39"/>
<polygon fill="#63b8ff" stroke="#63b8ff" points="1396.42,-155.53 1400.71,-145.84 1391.32,-150.75 1396.42,-155.53"/>
</a>
</g>
</g>
<!-- Node24 -->
<g id="Node000024" class="node">
<title>Node24</title>
<g id="a_Node000024"><a xlink:href="../../d6/d10/dialogpreferences_8h.html" target="_top" xlink:title=" ">
<polygon fill="white" stroke="#666666" points="1590.5,-145.5 1477.5,-145.5 1477.5,-126.5 1590.5,-126.5 1590.5,-145.5"/>
<text text-anchor="middle" x="1534" y="-133.5" font-family="Helvetica,sans-Serif" font-size="10.00">dialogpreferences.h</text>
</a>
</g>
</g>
<!-- Node1&#45;&gt;Node24 -->
<g id="edge27_Node000001_Node000024" class="edge">
<title>Node1&#45;&gt;Node24</title>
<g id="a_edge27_Node000001_Node000024"><a xlink:title=" ">
<path fill="none" stroke="#63b8ff" d="M1389.6,-186.95C1422.61,-175.53 1468.67,-159.6 1499.82,-148.82"/>
<polygon fill="#63b8ff" stroke="#63b8ff" points="1501.07,-152.09 1509.38,-145.52 1498.78,-145.48 1501.07,-152.09"/>
</a>
</g>
</g>
<!-- Node25 -->
<g id="Node000025" class="node">
<title>Node25</title>
<g id="a_Node000025"><a xlink:href="../../df/da7/groups__widget_8h.html" target="_top" xlink:title=" ">
<polygon fill="white" stroke="#666666" points="899.5,-145.5 764.5,-145.5 764.5,-126.5 899.5,-126.5 899.5,-145.5"/>
<text text-anchor="middle" x="832" y="-133.5" font-family="Helvetica,sans-Serif" font-size="10.00">dialogs/groups_widget.h</text>
</a>
</g>
</g>
<!-- Node1&#45;&gt;Node25 -->
<g id="edge29_Node000001_Node000025" class="edge">
<title>Node1&#45;&gt;Node25</title>
<g id="a_edge29_Node000001_Node000025"><a xlink:title=" ">
<path fill="none" stroke="#63b8ff" d="M1278.32,-194.43C1191.24,-186.01 1038.87,-170.16 909,-151 901.52,-149.9 893.66,-148.61 885.93,-147.28"/>
<polygon fill="#63b8ff" stroke="#63b8ff" points="886.35,-143.8 875.89,-145.5 885.13,-150.69 886.35,-143.8"/>
</a>
</g>
</g>
<!-- Node30 -->
<g id="Node000030" class="node">
<title>Node30</title>
<g id="a_Node000030"><a xlink:href="../../d7/d18/pieces__widget_8h.html" target="_top" xlink:title=" ">
<polygon fill="white" stroke="#666666" points="1052,-145.5 918,-145.5 918,-126.5 1052,-126.5 1052,-145.5"/>
<text text-anchor="middle" x="985" y="-133.5" font-family="Helvetica,sans-Serif" font-size="10.00">dialogs/pieces_widget.h</text>
</a>
</g>
</g>
<!-- Node1&#45;&gt;Node30 -->
<g id="edge35_Node000001_Node000030" class="edge">
<title>Node1&#45;&gt;Node30</title>
<g id="a_edge35_Node000001_Node000030"><a xlink:title=" ">
<path fill="none" stroke="#63b8ff" d="M1278.21,-188.82C1220.1,-178.78 1135.7,-164.12 1062,-151 1055.44,-149.83 1048.57,-148.6 1041.74,-147.37"/>
<polygon fill="#63b8ff" stroke="#63b8ff" points="1042.28,-143.91 1031.82,-145.57 1041.03,-150.79 1042.28,-143.91"/>
</a>
</g>
</g>
<!-- Node32 -->
<g id="Node000032" class="node">
<title>Node32</title>
<g id="a_Node000032"><a xlink:href="../../d7/d73/calculator__dialog_8h.html" target="_top" xlink:title=" ">
<polygon fill="white" stroke="#666666" points="1340.5,-151 1237.5,-151 1237.5,-121 1340.5,-121 1340.5,-151"/>
<text text-anchor="start" x="1245.5" y="-139" font-family="Helvetica,sans-Serif" font-size="10.00">dialogs/calculator</text>
<text text-anchor="middle" x="1289" y="-128" font-family="Helvetica,sans-Serif" font-size="10.00">_dialog.h</text>
</a>
</g>
</g>
<!-- Node1&#45;&gt;Node32 -->
<g id="edge38_Node000001_Node000032" class="edge">
<title>Node1&#45;&gt;Node32</title>
<g id="a_edge38_Node000001_Node000032"><a xlink:title=" ">
<path fill="none" stroke="#63b8ff" d="M1335.68,-186.8C1327.92,-178.51 1317.96,-167.89 1309.24,-158.59"/>
<polygon fill="#63b8ff" stroke="#63b8ff" points="1311.67,-156.07 1302.28,-151.16 1306.56,-160.85 1311.67,-156.07"/>
</a>
</g>
</g>
<!-- Node34 -->
<g id="Node000034" class="node">
<title>Node34</title>
<g id="a_Node000034"><a xlink:href="../../dc/d9a/decimalchart__dialog_8h.html" target="_top" xlink:title=" ">
<polygon fill="white" stroke="#666666" points="1727.5,-151 1608.5,-151 1608.5,-121 1727.5,-121 1727.5,-151"/>
<text text-anchor="start" x="1616.5" y="-139" font-family="Helvetica,sans-Serif" font-size="10.00">dialogs/decimalchart</text>
<text text-anchor="middle" x="1668" y="-128" font-family="Helvetica,sans-Serif" font-size="10.00">_dialog.h</text>
</a>
</g>
</g>
<!-- Node1&#45;&gt;Node34 -->
<g id="edge42_Node000001_Node000034" class="edge">
<title>Node1&#45;&gt;Node34</title>
<g id="a_edge42_Node000001_Node000034"><a xlink:title=" ">
<path fill="none" stroke="#63b8ff" d="M1419.62,-187.06C1467.47,-177.58 1532.43,-164.66 1598.17,-151.36"/>
<polygon fill="#63b8ff" stroke="#63b8ff" points="1599.19,-154.73 1608.3,-149.31 1597.8,-147.87 1599.19,-154.73"/>
</a>
</g>
</g>
<!-- Node35 -->
<g id="Node000035" class="node">
<title>Node35</title>
<g id="a_Node000035"><a xlink:href="../../d9/d49/shortcuts__dialog_8h.html" target="_top" xlink:title=" ">
<polygon fill="white" stroke="#666666" points="1890,-145.5 1746,-145.5 1746,-126.5 1890,-126.5 1890,-145.5"/>
<text text-anchor="middle" x="1818" y="-133.5" font-family="Helvetica,sans-Serif" font-size="10.00">dialogs/shortcuts_dialog.h</text>
</a>
</g>
</g>
<!-- Node1&#45;&gt;Node35 -->
<g id="edge44_Node000001_Node000035" class="edge">
<title>Node1&#45;&gt;Node35</title>
<g id="a_edge44_Node000001_Node000035"><a xlink:title=" ">
<path fill="none" stroke="#63b8ff" d="M1419.57,-192.83C1497.43,-183.6 1626.36,-167.68 1737,-151 1744.64,-149.85 1752.67,-148.56 1760.59,-147.24"/>
<polygon fill="#63b8ff" stroke="#63b8ff" points="1761.24,-150.68 1770.51,-145.56 1760.07,-143.78 1761.24,-150.68"/>
</a>
</g>
</g>
<!-- Node36 -->
<g id="Node000036" class="node">
<title>Node36</title>
<g id="a_Node000036"><a xlink:href="../../dd/de2/show__info__dialog_8h.html" target="_top" xlink:title=" ">
<polygon fill="white" stroke="#666666" points="1219.5,-145.5 1070.5,-145.5 1070.5,-126.5 1219.5,-126.5 1219.5,-145.5"/>
<text text-anchor="middle" x="1145" y="-133.5" font-family="Helvetica,sans-Serif" font-size="10.00">dialogs/show_info_dialog.h</text>
</a>
</g>
</g>
<!-- Node1&#45;&gt;Node36 -->
<g id="edge46_Node000001_Node000036" class="edge">
<title>Node1&#45;&gt;Node36</title>
<g id="a_edge46_Node000001_Node000036"><a xlink:title=" ">
<path fill="none" stroke="#63b8ff" d="M1304.23,-186.95C1267.51,-175.43 1216.16,-159.32 1181.8,-148.54"/>
<polygon fill="#63b8ff" stroke="#63b8ff" points="1182.74,-145.17 1172.15,-145.52 1180.64,-151.85 1182.74,-145.17"/>
</a>
</g>
</g>
<!-- Node3 -->
<g id="Node000003" class="node">
<title>Node3</title>
<g id="a_Node000003"><a xlink:title=" ">
<polygon fill="#e0e0e0" stroke="#999999" points="388.5,-85 267.5,-85 267.5,-55 388.5,-55 388.5,-85"/>
<text text-anchor="start" x="275.5" y="-73" font-family="Helvetica,sans-Serif" font-size="10.00">../vtools/dialogs/tools</text>
<text text-anchor="middle" x="328" y="-62" font-family="Helvetica,sans-Serif" font-size="10.00">/dialogtool.h</text>
</a>
</g>
</g>
<!-- Node2&#45;&gt;Node3 -->
<g id="edge2_Node000002_Node000003" class="edge">
<title>Node2&#45;&gt;Node3</title>
<g id="a_edge2_Node000002_Node000003"><a xlink:title=" ">
<path fill="none" stroke="#63b8ff" d="M434.41,-126.37C416.47,-117.03 387.3,-101.86 364.04,-89.75"/>
<polygon fill="#63b8ff" stroke="#63b8ff" points="365.62,-86.63 355.13,-85.12 362.38,-92.84 365.62,-86.63"/>
</a>
</g>
</g>
<!-- Node4 -->
<g id="Node000004" class="node">
<title>Node4</title>
<g id="a_Node000004"><a xlink:title=" ">
<polygon fill="#e0e0e0" stroke="#999999" points="495,-79.5 407,-79.5 407,-60.5 495,-60.5 495,-79.5"/>
<text text-anchor="middle" x="451" y="-67.5" font-family="Helvetica,sans-Serif" font-size="10.00">QDomElement</text>
</a>
</g>
</g>
<!-- Node2&#45;&gt;Node4 -->
<g id="edge3_Node000002_Node000004" class="edge">
<title>Node2&#45;&gt;Node4</title>
<g id="a_edge3_Node000002_Node000004"><a xlink:title=" ">
<path fill="none" stroke="#63b8ff" d="M451,-126.37C451,-117.16 451,-102.29 451,-90.27"/>
<polygon fill="#63b8ff" stroke="#63b8ff" points="454.5,-89.91 451,-79.91 447.5,-89.91 454.5,-89.91"/>
</a>
</g>
</g>
<!-- Node5&#45;&gt;Node3 -->
<g id="edge5_Node000005_Node000003" class="edge">
<title>Node5&#45;&gt;Node3</title>
<g id="a_edge5_Node000005_Node000003"><a xlink:title=" ">
<path fill="none" stroke="#63b8ff" d="M285.61,-126.37C292.02,-117.99 302.03,-104.93 310.71,-93.59"/>
<polygon fill="#63b8ff" stroke="#63b8ff" points="313.71,-95.43 317.01,-85.36 308.15,-91.17 313.71,-95.43"/>
</a>
</g>
</g>
<!-- Node6 -->
<g id="Node000006" class="node">
<title>Node6</title>
<g id="a_Node000006"><a xlink:href="../../d4/d38/vpattern_8h.html" target="_top" xlink:title=" ">
<polygon fill="white" stroke="#666666" points="611,-79.5 513,-79.5 513,-60.5 611,-60.5 611,-79.5"/>
<text text-anchor="middle" x="562" y="-67.5" font-family="Helvetica,sans-Serif" font-size="10.00">../xml/vpattern.h</text>
</a>
</g>
</g>
<!-- Node5&#45;&gt;Node6 -->
<g id="edge6_Node000005_Node000006" class="edge">
<title>Node5&#45;&gt;Node6</title>
<g id="a_edge6_Node000005_Node000006"><a xlink:title=" ">
<path fill="none" stroke="#63b8ff" d="M318.47,-126.46C363.44,-116.67 439.1,-100.04 504,-85 508.32,-84 512.81,-82.94 517.3,-81.88"/>
<polygon fill="#63b8ff" stroke="#63b8ff" points="518.15,-85.27 527.06,-79.54 516.52,-78.46 518.15,-85.27"/>
</a>
</g>
</g>
<!-- Node11 -->
<g id="Node000011" class="node">
<title>Node11</title>
<g id="a_Node000011"><a xlink:title=" ">
<polygon fill="#e0e0e0" stroke="#999999" points="130,-79.5 0,-79.5 0,-60.5 130,-60.5 130,-79.5"/>
<text text-anchor="middle" x="65" y="-67.5" font-family="Helvetica,sans-Serif" font-size="10.00">../vmisc/vtablesearch.h</text>
</a>
</g>
</g>
<!-- Node5&#45;&gt;Node11 -->
<g id="edge11_Node000005_Node000011" class="edge">
<title>Node5&#45;&gt;Node11</title>
<g id="a_edge11_Node000005_Node000011"><a xlink:title=" ">
<path fill="none" stroke="#63b8ff" d="M250.14,-126.37C212.22,-115.03 145.52,-95.08 103.38,-82.48"/>
<polygon fill="#63b8ff" stroke="#63b8ff" points="104.33,-79.11 93.74,-79.6 102.32,-85.82 104.33,-79.11"/>
</a>
</g>
</g>
<!-- Node12 -->
<g id="Node000012" class="node">
<title>Node12</title>
<g id="a_Node000012"><a xlink:title=" ">
<polygon fill="#e0e0e0" stroke="#999999" points="190,-79.5 148,-79.5 148,-60.5 190,-60.5 190,-79.5"/>
<text text-anchor="middle" x="169" y="-67.5" font-family="Helvetica,sans-Serif" font-size="10.00">QPair</text>
</a>
</g>
</g>
<!-- Node5&#45;&gt;Node12 -->
<g id="edge12_Node000005_Node000012" class="edge">
<title>Node5&#45;&gt;Node12</title>
<g id="a_edge12_Node000005_Node000012"><a xlink:title=" ">
<path fill="none" stroke="#63b8ff" d="M264.16,-126.37C245.88,-115.73 214.56,-97.51 192.87,-84.89"/>
<polygon fill="#63b8ff" stroke="#63b8ff" points="194.36,-81.7 183.95,-79.7 190.83,-87.75 194.36,-81.7"/>
</a>
</g>
</g>
<!-- Node13 -->
<g id="Node000013" class="node">
<title>Node13</title>
<g id="a_Node000013"><a xlink:title=" ">
<polygon fill="#e0e0e0" stroke="#999999" points="249.5,-79.5 208.5,-79.5 208.5,-60.5 249.5,-60.5 249.5,-79.5"/>
<text text-anchor="middle" x="229" y="-67.5" font-family="Helvetica,sans-Serif" font-size="10.00">QList</text>
</a>
</g>
</g>
<!-- Node5&#45;&gt;Node13 -->
<g id="edge13_Node000005_Node000013" class="edge">
<title>Node5&#45;&gt;Node13</title>
<g id="a_edge13_Node000005_Node000013"><a xlink:title=" ">
<path fill="none" stroke="#63b8ff" d="M272.26,-126.37C264.62,-116.59 251.99,-100.42 242.34,-88.08"/>
<polygon fill="#63b8ff" stroke="#63b8ff" points="244.87,-85.63 235.96,-79.91 239.36,-89.94 244.87,-85.63"/>
</a>
</g>
</g>
<!-- Node7 -->
<g id="Node000007" class="node">
<title>Node7</title>
<g id="a_Node000007"><a xlink:title=" ">
<polygon fill="#e0e0e0" stroke="#999999" points="803,-19 651,-19 651,0 803,0 803,-19"/>
<text text-anchor="middle" x="727" y="-7" font-family="Helvetica,sans-Serif" font-size="10.00">../ifc/xml/vabstractpattern.h</text>
</a>
</g>
</g>
<!-- Node6&#45;&gt;Node7 -->
<g id="edge7_Node000006_Node000007" class="edge">
<title>Node6&#45;&gt;Node7</title>
<g id="a_edge7_Node000006_Node000007"><a xlink:title=" ">
<path fill="none" stroke="#63b8ff" d="M585.99,-60.49C614.22,-50.49 661.28,-33.8 693.19,-22.49"/>
<polygon fill="#63b8ff" stroke="#63b8ff" points="694.72,-25.66 702.98,-19.02 692.38,-19.06 694.72,-25.66"/>
</a>
</g>
</g>
<!-- Node8 -->
<g id="Node000008" class="node">
<title>Node8</title>
<g id="a_Node000008"><a xlink:title=" ">
<polygon fill="#e0e0e0" stroke="#999999" points="472.5,-19 345.5,-19 345.5,0 472.5,0 472.5,-19"/>
<text text-anchor="middle" x="409" y="-7" font-family="Helvetica,sans-Serif" font-size="10.00">../ifc/xml/vtoolrecord.h</text>
</a>
</g>
</g>
<!-- Node6&#45;&gt;Node8 -->
<g id="edge8_Node000006_Node000008" class="edge">
<title>Node6&#45;&gt;Node8</title>
<g id="a_edge8_Node000006_Node000008"><a xlink:title=" ">
<path fill="none" stroke="#63b8ff" d="M539.75,-60.49C513.69,-50.53 470.32,-33.95 440.73,-22.63"/>
<polygon fill="#63b8ff" stroke="#63b8ff" points="441.86,-19.32 431.27,-19.02 439.36,-25.86 441.86,-19.32"/>
</a>
</g>
</g>
<!-- Node9 -->
<g id="Node000009" class="node">
<title>Node9</title>
<g id="a_Node000009"><a xlink:title=" ">
<polygon fill="#e0e0e0" stroke="#999999" points="633,-19 491,-19 491,0 633,0 633,-19"/>
<text text-anchor="middle" x="562" y="-7" font-family="Helvetica,sans-Serif" font-size="10.00">../vpatterndb/vcontainer.h</text>
</a>
</g>
</g>
<!-- Node6&#45;&gt;Node9 -->
<g id="edge9_Node000006_Node000009" class="edge">
<title>Node6&#45;&gt;Node9</title>
<g id="a_edge9_Node000006_Node000009"><a xlink:title=" ">
<path fill="none" stroke="#63b8ff" d="M562,-60.37C562,-52.25 562,-39.81 562,-29.39"/>
<polygon fill="#63b8ff" stroke="#63b8ff" points="565.5,-29.17 562,-19.17 558.5,-29.17 565.5,-29.17"/>
</a>
</g>
</g>
<!-- Node10 -->
<g id="Node000010" class="node">
<title>Node10</title>
<g id="a_Node000010"><a xlink:title=" ">
<polygon fill="#e0e0e0" stroke="#999999" points="327,-19 169,-19 169,0 327,0 327,-19"/>
<text text-anchor="middle" x="248" y="-7" font-family="Helvetica,sans-Serif" font-size="10.00">../ifc/xml/vpatternconverter.h</text>
</a>
</g>
</g>
<!-- Node6&#45;&gt;Node10 -->
<g id="edge10_Node000006_Node000010" class="edge">
<title>Node6&#45;&gt;Node10</title>
<g id="a_edge10_Node000006_Node000010"><a xlink:title=" ">
<path fill="none" stroke="#63b8ff" d="M528.35,-60.49C520.39,-58.58 511.91,-56.64 504,-55 439.4,-41.6 365.06,-28.99 313.19,-20.64"/>
<polygon fill="#63b8ff" stroke="#63b8ff" points="313.55,-17.15 303.13,-19.02 312.45,-24.06 313.55,-17.15"/>
</a>
</g>
</g>
<!-- Node15 -->
<g id="Node000015" class="node">
<title>Node15</title>
<g id="a_Node000015"><a xlink:title=" ">
<polygon fill="#e0e0e0" stroke="#999999" points="1629,-79.5 1573,-79.5 1573,-60.5 1629,-60.5 1629,-79.5"/>
<text text-anchor="middle" x="1601" y="-67.5" font-family="Helvetica,sans-Serif" font-size="10.00">QDialog</text>
</a>
</g>
</g>
<!-- Node14&#45;&gt;Node15 -->
<g id="edge15_Node000014_Node000015" class="edge">
<title>Node14&#45;&gt;Node15</title>
<g id="a_edge15_Node000014_Node000015"><a xlink:title=" ">
<path fill="none" stroke="#63b8ff" d="M2062.54,-126.47C2051.58,-124.54 2039.89,-122.6 2029,-121 1885.79,-99.96 1714.57,-82.16 1639.48,-74.73"/>
<polygon fill="#63b8ff" stroke="#63b8ff" points="1639.41,-71.2 1629.12,-73.7 1638.73,-78.17 1639.41,-71.2"/>
</a>
</g>
</g>
<!-- Node16 -->
<g id="Node000016" class="node">
<title>Node16</title>
<g id="a_Node000016"><a xlink:href="../../d7/d5b/options_8h.html" target="_top" xlink:title=" ">
<polygon fill="white" stroke="#666666" points="2120.5,-79.5 2049.5,-79.5 2049.5,-60.5 2120.5,-60.5 2120.5,-79.5"/>
<text text-anchor="middle" x="2085" y="-67.5" font-family="Helvetica,sans-Serif" font-size="10.00">../options.h</text>
</a>
</g>
</g>
<!-- Node14&#45;&gt;Node16 -->
<g id="edge16_Node000014_Node000016" class="edge">
<title>Node14&#45;&gt;Node16</title>
<g id="a_edge16_Node000014_Node000016"><a xlink:title=" ">
<path fill="none" stroke="#63b8ff" d="M2104.9,-126.37C2101.52,-116.97 2096.02,-101.67 2091.66,-89.53"/>
<polygon fill="#63b8ff" stroke="#63b8ff" points="2094.88,-88.13 2088.2,-79.91 2088.29,-90.5 2094.88,-88.13"/>
</a>
</g>
</g>
<!-- Node21 -->
<g id="Node000021" class="node">
<title>Node21</title>
<g id="a_Node000021"><a xlink:title=" ">
<polygon fill="#e0e0e0" stroke="#999999" points="2183.5,-79.5 2138.5,-79.5 2138.5,-60.5 2183.5,-60.5 2183.5,-79.5"/>
<text text-anchor="middle" x="2161" y="-67.5" font-family="Helvetica,sans-Serif" font-size="10.00">QMap</text>
</a>
</g>
</g>
<!-- Node14&#45;&gt;Node21 -->
<g id="edge21_Node000014_Node000021" class="edge">
<title>Node14&#45;&gt;Node21</title>
<g id="a_edge21_Node000014_Node000021"><a xlink:title=" ">
<path fill="none" stroke="#63b8ff" d="M2115.15,-126.37C2123.32,-116.5 2136.89,-100.11 2147.16,-87.72"/>
<polygon fill="#63b8ff" stroke="#63b8ff" points="2149.94,-89.84 2153.63,-79.91 2144.55,-85.37 2149.94,-89.84"/>
</a>
</g>
</g>
<!-- Node17 -->
<g id="Node000017" class="node">
<title>Node17</title>
<g id="a_Node000017"><a xlink:title=" ">
<polygon fill="#e0e0e0" stroke="#999999" points="2100.5,-19 2023.5,-19 2023.5,0 2100.5,0 2100.5,-19"/>
<text text-anchor="middle" x="2062" y="-7" font-family="Helvetica,sans-Serif" font-size="10.00">../ifc/ifcdef.h</text>
</a>
</g>
</g>
<!-- Node16&#45;&gt;Node17 -->
<g id="edge17_Node000016_Node000017" class="edge">
<title>Node16&#45;&gt;Node17</title>
<g id="a_edge17_Node000016_Node000017"><a xlink:title=" ">
<path fill="none" stroke="#63b8ff" d="M2081.61,-60.37C2078.34,-52.07 2073.31,-39.28 2069.16,-28.72"/>
<polygon fill="#63b8ff" stroke="#63b8ff" points="2072.32,-27.19 2065.41,-19.17 2065.81,-29.75 2072.32,-27.19"/>
</a>
</g>
</g>
<!-- Node18 -->
<g id="Node000018" class="node">
<title>Node18</title>
<g id="a_Node000018"><a xlink:title=" ">
<polygon fill="#e0e0e0" stroke="#999999" points="2277.5,-19 2118.5,-19 2118.5,0 2277.5,0 2277.5,-19"/>
<text text-anchor="middle" x="2198" y="-7" font-family="Helvetica,sans-Serif" font-size="10.00">../vgeometry/vgeometrydef.h</text>
</a>
</g>
</g>
<!-- Node16&#45;&gt;Node18 -->
<g id="edge18_Node000016_Node000018" class="edge">
<title>Node16&#45;&gt;Node18</title>
<g id="a_edge18_Node000016_Node000018"><a xlink:title=" ">
<path fill="none" stroke="#63b8ff" d="M2101.67,-60.37C2120.28,-50.73 2150.62,-35.03 2172.28,-23.81"/>
<polygon fill="#63b8ff" stroke="#63b8ff" points="2173.99,-26.87 2181.26,-19.17 2170.77,-20.66 2173.99,-26.87"/>
</a>
</g>
</g>
<!-- Node19 -->
<g id="Node000019" class="node">
<title>Node19</title>
<g id="a_Node000019"><a xlink:title=" ">
<polygon fill="#e0e0e0" stroke="#999999" points="2422.5,-19 2295.5,-19 2295.5,0 2422.5,0 2422.5,-19"/>
<text text-anchor="middle" x="2359" y="-7" font-family="Helvetica,sans-Serif" font-size="10.00">../qmuparser/qmudef.h</text>
</a>
</g>
</g>
<!-- Node16&#45;&gt;Node19 -->
<g id="edge19_Node000016_Node000019" class="edge">
<title>Node16&#45;&gt;Node19</title>
<g id="a_edge19_Node000016_Node000019"><a xlink:title=" ">
<path fill="none" stroke="#63b8ff" d="M2111.04,-60.37C2117.22,-58.47 2123.81,-56.56 2130,-55 2185.8,-40.94 2250.2,-28.78 2296.46,-20.74"/>
<polygon fill="#63b8ff" stroke="#63b8ff" points="2297.08,-24.19 2306.34,-19.04 2295.89,-17.29 2297.08,-24.19"/>
</a>
</g>
</g>
<!-- Node20 -->
<g id="Node000020" class="node">
<title>Node20</title>
<g id="a_Node000020"><a xlink:title=" ">
<polygon fill="#e0e0e0" stroke="#999999" points="2005,-19 1923,-19 1923,0 2005,0 2005,-19"/>
<text text-anchor="middle" x="1964" y="-7" font-family="Helvetica,sans-Serif" font-size="10.00">../vmisc/def.h</text>
</a>
</g>
</g>
<!-- Node16&#45;&gt;Node20 -->
<g id="edge20_Node000016_Node000020" class="edge">
<title>Node16&#45;&gt;Node20</title>
<g id="a_edge20_Node000016_Node000020"><a xlink:title=" ">
<path fill="none" stroke="#63b8ff" d="M2067.41,-60.49C2047.24,-50.75 2013.98,-34.66 1990.64,-23.38"/>
<polygon fill="#63b8ff" stroke="#63b8ff" points="1992.14,-20.22 1981.62,-19.02 1989.1,-26.52 1992.14,-20.22"/>
</a>
</g>
</g>
<!-- Node22&#45;&gt;Node15 -->
<g id="edge23_Node000022_Node000015" class="edge">
<title>Node22&#45;&gt;Node15</title>
<g id="a_edge23_Node000022_Node000015"><a xlink:title=" ">
<path fill="none" stroke="#63b8ff" d="M1925.91,-126.49C1917.09,-124.6 1907.73,-122.67 1899,-121 1805.87,-103.17 1695.69,-85.59 1638.97,-76.8"/>
<polygon fill="#63b8ff" stroke="#63b8ff" points="1639.43,-73.33 1629.01,-75.26 1638.36,-80.25 1639.43,-73.33"/>
</a>
</g>
</g>
<!-- Node22&#45;&gt;Node20 -->
<g id="edge24_Node000022_Node000020" class="edge">
<title>Node22&#45;&gt;Node20</title>
<g id="a_edge24_Node000022_Node000020"><a xlink:title=" ">
<path fill="none" stroke="#63b8ff" d="M1964,-126.44C1964,-106.54 1964,-56.76 1964,-29.35"/>
<polygon fill="#63b8ff" stroke="#63b8ff" points="1967.5,-29.12 1964,-19.12 1960.5,-29.12 1967.5,-29.12"/>
</a>
</g>
</g>
<!-- Node23&#45;&gt;Node15 -->
<g id="edge26_Node000023_Node000015" class="edge">
<title>Node23&#45;&gt;Node15</title>
<g id="a_edge26_Node000023_Node000015"><a xlink:title=" ">
<path fill="none" stroke="#63b8ff" d="M1434.89,-126.37C1468.63,-115.12 1527.75,-95.42 1565.61,-82.8"/>
<polygon fill="#63b8ff" stroke="#63b8ff" points="1566.83,-86.08 1575.21,-79.6 1564.62,-79.44 1566.83,-86.08"/>
</a>
</g>
</g>
<!-- Node24&#45;&gt;Node15 -->
<g id="edge28_Node000024_Node000015" class="edge">
<title>Node24&#45;&gt;Node15</title>
<g id="a_edge28_Node000024_Node000015"><a xlink:title=" ">
<path fill="none" stroke="#63b8ff" d="M1543.04,-126.37C1553.57,-116.31 1571.19,-99.48 1584.24,-87.01"/>
<polygon fill="#63b8ff" stroke="#63b8ff" points="1586.86,-89.34 1591.68,-79.91 1582.03,-84.28 1586.86,-89.34"/>
</a>
</g>
</g>
<!-- Node25&#45;&gt;Node7 -->
<g id="edge30_Node000025_Node000007" class="edge">
<title>Node25&#45;&gt;Node7</title>
<g id="a_edge30_Node000025_Node000007"><a xlink:title=" ">
<path fill="none" stroke="#63b8ff" d="M776.74,-126.48C731.4,-118.22 672.42,-104.14 658,-85 649.98,-74.35 651.62,-66.71 658,-55 665.65,-40.97 679.83,-30.69 693.36,-23.57"/>
<polygon fill="#63b8ff" stroke="#63b8ff" points="695.05,-26.64 702.53,-19.14 692.01,-20.34 695.05,-26.64"/>
</a>
</g>
</g>
<!-- Node26 -->
<g id="Node000026" class="node">
<title>Node26</title>
<g id="a_Node000026"><a xlink:title=" ">
<polygon fill="#e0e0e0" stroke="#999999" points="788.5,-85 667.5,-85 667.5,-55 788.5,-55 788.5,-85"/>
<text text-anchor="start" x="675.5" y="-73" font-family="Helvetica,sans-Serif" font-size="10.00">../vtools/dialogs/tools</text>
<text text-anchor="middle" x="728" y="-62" font-family="Helvetica,sans-Serif" font-size="10.00">/editgroup_dialog.h</text>
</a>
</g>
</g>
<!-- Node25&#45;&gt;Node26 -->
<g id="edge31_Node000025_Node000026" class="edge">
<title>Node25&#45;&gt;Node26</title>
<g id="a_edge31_Node000025_Node000026"><a xlink:title=" ">
<path fill="none" stroke="#63b8ff" d="M817.97,-126.37C803.07,-117.2 779.01,-102.39 759.52,-90.4"/>
<polygon fill="#63b8ff" stroke="#63b8ff" points="761.29,-87.38 750.94,-85.12 757.62,-93.34 761.29,-87.38"/>
</a>
</g>
</g>
<!-- Node27 -->
<g id="Node000027" class="node">
<title>Node27</title>
<g id="a_Node000027"><a xlink:title=" ">
<polygon fill="#e0e0e0" stroke="#999999" points="857,-79.5 807,-79.5 807,-60.5 857,-60.5 857,-79.5"/>
<text text-anchor="middle" x="832" y="-67.5" font-family="Helvetica,sans-Serif" font-size="10.00">QColor</text>
</a>
</g>
</g>
<!-- Node25&#45;&gt;Node27 -->
<g id="edge32_Node000025_Node000027" class="edge">
<title>Node25&#45;&gt;Node27</title>
<g id="a_edge32_Node000025_Node000027"><a xlink:title=" ">
<path fill="none" stroke="#63b8ff" d="M832,-126.37C832,-117.16 832,-102.29 832,-90.27"/>
<polygon fill="#63b8ff" stroke="#63b8ff" points="835.5,-89.91 832,-79.91 828.5,-89.91 835.5,-89.91"/>
</a>
</g>
</g>
<!-- Node28 -->
<g id="Node000028" class="node">
<title>Node28</title>
<g id="a_Node000028"><a xlink:title=" ">
<polygon fill="#e0e0e0" stroke="#999999" points="959,-79.5 875,-79.5 875,-60.5 959,-60.5 959,-79.5"/>
<text text-anchor="middle" x="917" y="-67.5" font-family="Helvetica,sans-Serif" font-size="10.00">QTableWidget</text>
</a>
</g>
</g>
<!-- Node25&#45;&gt;Node28 -->
<g id="edge33_Node000025_Node000028" class="edge">
<title>Node25&#45;&gt;Node28</title>
<g id="a_edge33_Node000025_Node000028"><a xlink:title=" ">
<path fill="none" stroke="#63b8ff" d="M843.46,-126.37C857.28,-115.97 880.71,-98.32 897.41,-85.75"/>
<polygon fill="#63b8ff" stroke="#63b8ff" points="899.56,-88.51 905.45,-79.7 895.35,-82.92 899.56,-88.51"/>
</a>
</g>
</g>
<!-- Node29 -->
<g id="Node000029" class="node">
<title>Node29</title>
<g id="a_Node000029"><a xlink:title=" ">
<polygon fill="#e0e0e0" stroke="#999999" points="1036.5,-79.5 977.5,-79.5 977.5,-60.5 1036.5,-60.5 1036.5,-79.5"/>
<text text-anchor="middle" x="1007" y="-67.5" font-family="Helvetica,sans-Serif" font-size="10.00">QWidget</text>
</a>
</g>
</g>
<!-- Node25&#45;&gt;Node29 -->
<g id="edge34_Node000025_Node000029" class="edge">
<title>Node25&#45;&gt;Node29</title>
<g id="a_edge34_Node000025_Node000029"><a xlink:title=" ">
<path fill="none" stroke="#63b8ff" d="M855.6,-126.37C886.09,-115.22 939.32,-95.75 973.85,-83.12"/>
<polygon fill="#63b8ff" stroke="#63b8ff" points="975.3,-86.32 983.49,-79.6 972.9,-79.74 975.3,-86.32"/>
</a>
</g>
</g>
<!-- Node30&#45;&gt;Node29 -->
<g id="edge36_Node000030_Node000029" class="edge">
<title>Node30&#45;&gt;Node29</title>
<g id="a_edge36_Node000030_Node000029"><a xlink:title=" ">
<path fill="none" stroke="#63b8ff" d="M987.97,-126.37C991.2,-116.97 996.46,-101.67 1000.63,-89.53"/>
<polygon fill="#63b8ff" stroke="#63b8ff" points="1004,-90.5 1003.94,-79.91 997.38,-88.22 1004,-90.5"/>
</a>
</g>
</g>
<!-- Node31 -->
<g id="Node000031" class="node">
<title>Node31</title>
<g id="a_Node000031"><a xlink:title=" ">
<polygon fill="#e0e0e0" stroke="#999999" points="1161.5,-79.5 1054.5,-79.5 1054.5,-60.5 1161.5,-60.5 1161.5,-79.5"/>
<text text-anchor="middle" x="1108" y="-67.5" font-family="Helvetica,sans-Serif" font-size="10.00">QTableWidgetItem</text>
</a>
</g>
</g>
<!-- Node30&#45;&gt;Node31 -->
<g id="edge37_Node000030_Node000031" class="edge">
<title>Node30&#45;&gt;Node31</title>
<g id="a_edge37_Node000030_Node000031"><a xlink:title=" ">
<path fill="none" stroke="#63b8ff" d="M1001.59,-126.37C1022.31,-115.59 1058,-97.02 1082.28,-84.38"/>
<polygon fill="#63b8ff" stroke="#63b8ff" points="1084.03,-87.42 1091.28,-79.7 1080.8,-81.21 1084.03,-87.42"/>
</a>
</g>
</g>
<!-- Node32&#45;&gt;Node15 -->
<g id="edge39_Node000032_Node000015" class="edge">
<title>Node32&#45;&gt;Node15</title>
<g id="a_edge39_Node000032_Node000015"><a xlink:title=" ">
<path fill="none" stroke="#63b8ff" d="M1340.56,-123.06C1343.75,-122.35 1346.92,-121.66 1350,-121 1425.24,-104.88 1513.55,-87.69 1562.81,-78.25"/>
<polygon fill="#63b8ff" stroke="#63b8ff" points="1563.55,-81.67 1572.71,-76.36 1562.23,-74.8 1563.55,-81.67"/>
</a>
</g>
</g>
<!-- Node32&#45;&gt;Node29 -->
<g id="edge40_Node000032_Node000029" class="edge">
<title>Node32&#45;&gt;Node29</title>
<g id="a_edge40_Node000032_Node000029"><a xlink:title=" ">
<path fill="none" stroke="#63b8ff" d="M1237.44,-123.05C1234.25,-122.34 1231.08,-121.66 1228,-121 1146.93,-103.73 1124.81,-107.4 1045,-85 1042.72,-84.36 1040.37,-83.64 1038.03,-82.88"/>
<polygon fill="#63b8ff" stroke="#63b8ff" points="1039.1,-79.55 1028.51,-79.6 1036.82,-86.17 1039.1,-79.55"/>
</a>
</g>
</g>
<!-- Node33 -->
<g id="Node000033" class="node">
<title>Node33</title>
<g id="a_Node000033"><a xlink:title=" ">
<polygon fill="#e0e0e0" stroke="#999999" points="1373.5,-85 1252.5,-85 1252.5,-55 1373.5,-55 1373.5,-85"/>
<text text-anchor="start" x="1260.5" y="-73" font-family="Helvetica,sans-Serif" font-size="10.00">../vwidgets/calculator</text>
<text text-anchor="middle" x="1313" y="-62" font-family="Helvetica,sans-Serif" font-size="10.00">/calculator.h</text>
</a>
</g>
</g>
<!-- Node32&#45;&gt;Node33 -->
<g id="edge41_Node000032_Node000033" class="edge">
<title>Node32&#45;&gt;Node33</title>
<g id="a_edge41_Node000032_Node000033"><a xlink:title=" ">
<path fill="none" stroke="#63b8ff" d="M1294.33,-120.8C1297.22,-113.09 1300.86,-103.37 1304.17,-94.56"/>
<polygon fill="#63b8ff" stroke="#63b8ff" points="1307.45,-95.76 1307.69,-85.16 1300.9,-93.3 1307.45,-95.76"/>
</a>
</g>
</g>
<!-- Node34&#45;&gt;Node15 -->
<g id="edge43_Node000034_Node000015" class="edge">
<title>Node34&#45;&gt;Node15</title>
<g id="a_edge43_Node000034_Node000015"><a xlink:title=" ">
<path fill="none" stroke="#63b8ff" d="M1653.13,-120.8C1642.58,-110.72 1628.42,-97.19 1617.52,-86.78"/>
<polygon fill="#63b8ff" stroke="#63b8ff" points="1619.91,-84.22 1610.26,-79.84 1615.07,-89.28 1619.91,-84.22"/>
</a>
</g>
</g>
<!-- Node35&#45;&gt;Node15 -->
<g id="edge45_Node000035_Node000015" class="edge">
<title>Node35&#45;&gt;Node15</title>
<g id="a_edge45_Node000035_Node000015"><a xlink:title=" ">
<path fill="none" stroke="#63b8ff" d="M1788.73,-126.37C1749.96,-114.93 1681.51,-94.75 1638.85,-82.16"/>
<polygon fill="#63b8ff" stroke="#63b8ff" points="1639.7,-78.76 1629.12,-79.29 1637.72,-85.48 1639.7,-78.76"/>
</a>
</g>
</g>
<!-- Node36&#45;&gt;Node6 -->
<g id="edge49_Node000036_Node000006" class="edge">
<title>Node36&#45;&gt;Node6</title>
<g id="a_edge49_Node000036_Node000006"><a xlink:title=" ">
<path fill="none" stroke="#63b8ff" d="M1097.56,-126.45C1085.65,-124.48 1072.88,-122.52 1061,-121 882.63,-98.2 836.6,-105.98 658,-85 646.11,-83.6 633.42,-81.9 621.29,-80.17"/>
<polygon fill="#63b8ff" stroke="#63b8ff" points="621.66,-76.69 611.26,-78.72 620.66,-83.62 621.66,-76.69"/>
</a>
</g>
</g>
<!-- Node36&#45;&gt;Node15 -->
<g id="edge47_Node000036_Node000015" class="edge">
<title>Node36&#45;&gt;Node15</title>
<g id="a_edge47_Node000036_Node000015"><a xlink:title=" ">
<path fill="none" stroke="#63b8ff" d="M1194.71,-126.45C1205.97,-124.59 1217.89,-122.67 1229,-121 1350.72,-102.68 1495.35,-84.17 1562.81,-75.73"/>
<polygon fill="#63b8ff" stroke="#63b8ff" points="1563.47,-79.17 1572.96,-74.46 1562.6,-72.23 1563.47,-79.17"/>
</a>
</g>
</g>
<!-- Node37 -->
<g id="Node000037" class="node">
<title>Node37</title>
<g id="a_Node000037"><a xlink:title=" ">
<polygon fill="#e0e0e0" stroke="#999999" points="1234.5,-79.5 1179.5,-79.5 1179.5,-60.5 1234.5,-60.5 1234.5,-79.5"/>
<text text-anchor="middle" x="1207" y="-67.5" font-family="Helvetica,sans-Serif" font-size="10.00">QImage</text>
</a>
</g>
</g>
<!-- Node36&#45;&gt;Node37 -->
<g id="edge48_Node000036_Node000037" class="edge">
<title>Node36&#45;&gt;Node37</title>
<g id="a_edge48_Node000036_Node000037"><a xlink:title=" ">
<path fill="none" stroke="#63b8ff" d="M1153.36,-126.37C1163.01,-116.4 1179.11,-99.79 1191.15,-87.36"/>
<polygon fill="#63b8ff" stroke="#63b8ff" points="1193.93,-89.52 1198.37,-79.91 1188.9,-84.65 1193.93,-89.52"/>
</a>
</g>
</g>
</g>
</svg>

<g id="navigator" transform="translate(0 0)" fill="#404254">
  <rect fill="#f2f5e9" fill-opacity="0.5" stroke="#606060" stroke-width=".5" x="0" y="0" width="60" height="60"/>
  <use id="zoomplus" xlink:href="#zoomPlus" x="17" y="9" onmousedown="handleZoom(evt,'in')"/>
  <use id="zoomminus" xlink:href="#zoomMin" x="42" y="9" onmousedown="handleZoom(evt,'out')"/>
  <use id="reset" xlink:href="#resetDef" x="30" y="36" onmousedown="handleReset()"/>
   <use id="arrowup" xlink:href="#arrowUp" x="0" y="0" onmousedown="handlePan(0,-1)"/>
  <use id="arrowright" xlink:href="#arrowRight" x="0" y="0" onmousedown="handlePan(1,0)"/>
  <use id="arrowdown" xlink:href="#arrowDown" x="0" y="0" onmousedown="handlePan(0,1)"/>
  <use id="arrowleft" xlink:href="#arrowLeft" x="0" y="0" onmousedown="handlePan(-1,0)"/>
</g>
<svg viewBox="0 0 15 15" width="100%" height="30px" preserveAspectRatio="xMaxYMin meet">
 <g id="arrow_out" transform="scale(0.3 0.3)">
  <a xlink:href="dialogs_8h__incl_org.svg" target="_base">
   <rect id="button" ry="5" rx="5" y="6" x="6" height="38" width="38"
        fill="#f2f5e9" fill-opacity="0.5" stroke="#606060" stroke-width="1.0"/>
   <path id="arrow"
     d="M 11.500037,31.436501 C 11.940474,20.09759 22.043105,11.32322 32.158766,21.979434 L 37.068811,17.246167 C 37.068811,17.246167 37.088388,32 37.088388,32 L 22.160133,31.978069 C 22.160133,31.978069 26.997745,27.140456 26.997745,27.140456 C 18.528582,18.264221 13.291696,25.230495 11.500037,31.436501 z"
     style="fill:#404040;"/>
  </a>
 </g>
</svg>

<style type='text/css'>
<![CDATA[
[data-mouse-over-selected='false'] { opacity: 0.7; }
[data-mouse-over-selected='true']  { opacity: 1.0; }
]]>
</style>
<script type="application/ecmascript"><![CDATA[
document.addEventListener('DOMContentLoaded', (event) => {
  highlightEdges();
  highlightAdjacentNodes();
});
]]></script>
</svg>
