<?xml version="1.0" encoding="UTF-8" standalone="no"?>
<!DOCTYPE svg PUBLIC "-//W3C//DTD SVG 1.1//EN"
 "http://www.w3.org/Graphics/SVG/1.1/DTD/svg11.dtd">
<!-- Generated by graphviz version 2.43.0 (0)
 -->
<!-- Title: src/libs/ifc/xml/vdomdocument.h Pages: 1 -->
<svg width="3095pt" height="274pt"
 viewBox="0.00 0.00 3095.00 274.00" xmlns="http://www.w3.org/2000/svg" xmlns:xlink="http://www.w3.org/1999/xlink">
<g id="graph0" class="graph" transform="scale(1 1) rotate(0) translate(4 270)">
<title>src/libs/ifc/xml/vdomdocument.h</title>
<polygon fill="white" stroke="transparent" points="-4,4 -4,-270 3091,-270 3091,4 -4,4"/>
<!-- Node1 -->
<g id="node1" class="node">
<title>Node1</title>
<g id="a_node1"><a xlink:title=" ">
<polygon fill="#bfbfbf" stroke="black" points="760.5,-246.5 760.5,-265.5 936.5,-265.5 936.5,-246.5 760.5,-246.5"/>
<text text-anchor="middle" x="848.5" y="-253.5" font-family="Helvetica,sans-Serif" font-size="10.00">src/libs/ifc/xml/vdomdocument.h</text>
</a>
</g>
</g>
<!-- Node2 -->
<g id="node2" class="node">
<title>Node2</title>
<g id="a_node2"><a xlink:href="../../df/de4/vabstractconverter_8h.html" target="_top" xlink:title=" ">
<polygon fill="white" stroke="black" points="753,-190.5 753,-209.5 944,-209.5 944,-190.5 753,-190.5"/>
<text text-anchor="middle" x="848.5" y="-197.5" font-family="Helvetica,sans-Serif" font-size="10.00">src/libs/ifc/xml/vabstractconverter.h</text>
</a>
</g>
</g>
<!-- Node1&#45;&gt;Node2 -->
<g id="edge1" class="edge">
<title>Node1&#45;&gt;Node2</title>
<path fill="none" stroke="midnightblue" d="M848.5,-235.8C848.5,-226.91 848.5,-216.78 848.5,-209.75"/>
<polygon fill="midnightblue" stroke="midnightblue" points="845,-236.08 848.5,-246.08 852,-236.08 845,-236.08"/>
</g>
<!-- Node3 -->
<g id="node3" class="node">
<title>Node3</title>
<g id="a_node3"><a xlink:href="../../d4/d9f/vabstractconverter_8cpp.html" target="_top" xlink:title=" ">
<polygon fill="white" stroke="black" points="169,-129 169,-148 372,-148 372,-129 169,-129"/>
<text text-anchor="middle" x="270.5" y="-136" font-family="Helvetica,sans-Serif" font-size="10.00">src/libs/ifc/xml/vabstractconverter.cpp</text>
</a>
</g>
</g>
<!-- Node1&#45;&gt;Node3 -->
<g id="edge24" class="edge">
<title>Node1&#45;&gt;Node3</title>
<path fill="none" stroke="midnightblue" d="M805,-243.99C750.27,-230.34 653.28,-206.82 569.5,-190 485.5,-173.14 387.46,-157.3 327.18,-148.01"/>
<polygon fill="midnightblue" stroke="midnightblue" points="804.17,-247.39 814.72,-246.42 805.87,-240.6 804.17,-247.39"/>
</g>
<!-- Node15 -->
<g id="node15" class="node">
<title>Node15</title>
<g id="a_node15"><a xlink:href="../../de/d7d/vabstractpattern_8cpp.html" target="_top" xlink:title=" ">
<polygon fill="white" stroke="black" points="1422.5,-62 1422.5,-81 1614.5,-81 1614.5,-62 1422.5,-62"/>
<text text-anchor="middle" x="1518.5" y="-69" font-family="Helvetica,sans-Serif" font-size="10.00">src/libs/ifc/xml/vabstractpattern.cpp</text>
</a>
</g>
</g>
<!-- Node1&#45;&gt;Node15 -->
<g id="edge45" class="edge">
<title>Node1&#45;&gt;Node15</title>
<path fill="none" stroke="midnightblue" d="M946.93,-250.62C1061.71,-242.54 1255.13,-219.51 1407.5,-154 1450.33,-135.59 1492.31,-97.94 1509.89,-81.04"/>
<polygon fill="midnightblue" stroke="midnightblue" points="946.5,-247.15 936.76,-251.32 946.98,-254.13 946.5,-247.15"/>
</g>
<!-- Node18 -->
<g id="node18" class="node">
<title>Node18</title>
<g id="a_node18"><a xlink:href="../../d0/d89/vabstractpattern_8h.html" target="_top" xlink:title=" ">
<polygon fill="white" stroke="black" points="2160,-190.5 2160,-209.5 2341,-209.5 2341,-190.5 2160,-190.5"/>
<text text-anchor="middle" x="2250.5" y="-197.5" font-family="Helvetica,sans-Serif" font-size="10.00">src/libs/ifc/xml/vabstractpattern.h</text>
</a>
</g>
</g>
<!-- Node1&#45;&gt;Node18 -->
<g id="edge25" class="edge">
<title>Node1&#45;&gt;Node18</title>
<path fill="none" stroke="midnightblue" d="M946.91,-251.21C1206.81,-241.2 1908.79,-214.16 2159.76,-204.5"/>
<polygon fill="midnightblue" stroke="midnightblue" points="946.59,-247.72 936.73,-251.6 946.86,-254.71 946.59,-247.72"/>
</g>
<!-- Node34 -->
<g id="node34" class="node">
<title>Node34</title>
<g id="a_node34"><a xlink:href="../../d7/d49/vdomdocument_8cpp.html" target="_top" xlink:title=" ">
<polygon fill="white" stroke="black" points="2359.5,-190.5 2359.5,-209.5 2547.5,-209.5 2547.5,-190.5 2359.5,-190.5"/>
<text text-anchor="middle" x="2453.5" y="-197.5" font-family="Helvetica,sans-Serif" font-size="10.00">src/libs/ifc/xml/vdomdocument.cpp</text>
</a>
</g>
</g>
<!-- Node1&#45;&gt;Node34 -->
<g id="edge44" class="edge">
<title>Node1&#45;&gt;Node34</title>
<path fill="none" stroke="midnightblue" d="M946.7,-254C1186.62,-251.14 1821.6,-241 2350.5,-210 2353.46,-209.83 2356.46,-209.64 2359.49,-209.44"/>
<polygon fill="midnightblue" stroke="midnightblue" points="946.57,-250.5 936.61,-254.12 946.65,-257.5 946.57,-250.5"/>
</g>
<!-- Node35 -->
<g id="node35" class="node">
<title>Node35</title>
<g id="a_node35"><a xlink:href="../../d2/d8a/vlabeltemplate_8h.html" target="_top" xlink:title=" ">
<polygon fill="white" stroke="black" points="382,-190.5 382,-209.5 561,-209.5 561,-190.5 382,-190.5"/>
<text text-anchor="middle" x="471.5" y="-197.5" font-family="Helvetica,sans-Serif" font-size="10.00">src/libs/vformat/vlabeltemplate.h</text>
</a>
</g>
</g>
<!-- Node1&#45;&gt;Node35 -->
<g id="edge46" class="edge">
<title>Node1&#45;&gt;Node35</title>
<path fill="none" stroke="midnightblue" d="M778.54,-244.98C707.33,-234.78 598.12,-219.14 530.96,-209.52"/>
<polygon fill="midnightblue" stroke="midnightblue" points="778.37,-248.49 788.76,-246.44 779.36,-241.56 778.37,-248.49"/>
</g>
<!-- Node36 -->
<g id="node36" class="node">
<title>Node36</title>
<g id="a_node36"><a xlink:href="../../d4/dd6/vmeasurements_8h.html" target="_top" xlink:title=" ">
<polygon fill="white" stroke="black" points="0,-190.5 0,-209.5 185,-209.5 185,-190.5 0,-190.5"/>
<text text-anchor="middle" x="92.5" y="-197.5" font-family="Helvetica,sans-Serif" font-size="10.00">src/libs/vformat/vmeasurements.h</text>
</a>
</g>
</g>
<!-- Node1&#45;&gt;Node36 -->
<g id="edge48" class="edge">
<title>Node1&#45;&gt;Node36</title>
<path fill="none" stroke="midnightblue" d="M749.94,-247.96C603.03,-237.47 328.56,-217.86 185.15,-207.62"/>
<polygon fill="midnightblue" stroke="midnightblue" points="750.07,-251.48 760.3,-248.7 750.57,-244.5 750.07,-251.48"/>
</g>
<!-- Node2&#45;&gt;Node3 -->
<g id="edge2" class="edge">
<title>Node2&#45;&gt;Node3</title>
<path fill="none" stroke="midnightblue" d="M742.54,-189.82C647.82,-181.37 505.27,-168.04 381.5,-154 365.76,-152.21 348.79,-150.1 332.98,-148.04"/>
<polygon fill="midnightblue" stroke="midnightblue" points="742.43,-193.32 752.7,-190.72 743.05,-186.35 742.43,-193.32"/>
</g>
<!-- Node4 -->
<g id="node4" class="node">
<title>Node4</title>
<g id="a_node4"><a xlink:href="../../d6/d2d/vabstractmconverter_8h.html" target="_top" xlink:title=" ">
<polygon fill="white" stroke="black" points="877,-129 877,-148 1078,-148 1078,-129 877,-129"/>
<text text-anchor="middle" x="977.5" y="-136" font-family="Helvetica,sans-Serif" font-size="10.00">src/libs/ifc/xml/vabstractmconverter.h</text>
</a>
</g>
</g>
<!-- Node2&#45;&gt;Node4 -->
<g id="edge3" class="edge">
<title>Node2&#45;&gt;Node4</title>
<path fill="none" stroke="midnightblue" d="M876.31,-186.17C901.34,-174.63 937.42,-157.99 959.05,-148.01"/>
<polygon fill="midnightblue" stroke="midnightblue" points="874.6,-183.11 866.98,-190.48 877.53,-189.46 874.6,-183.11"/>
</g>
<!-- Node5 -->
<g id="node5" class="node">
<title>Node5</title>
<g id="a_node5"><a xlink:href="../../dd/d2b/vabstractmconverter_8cpp.html" target="_top" xlink:title=" ">
<polygon fill="white" stroke="black" points="718.5,-62 718.5,-81 930.5,-81 930.5,-62 718.5,-62"/>
<text text-anchor="middle" x="824.5" y="-69" font-family="Helvetica,sans-Serif" font-size="10.00">src/libs/ifc/xml/vabstractmconverter.cpp</text>
</a>
</g>
</g>
<!-- Node2&#45;&gt;Node5 -->
<g id="edge13" class="edge">
<title>Node2&#45;&gt;Node5</title>
<path fill="none" stroke="midnightblue" d="M844.95,-180.31C839.69,-152.58 830.03,-101.63 826.16,-81.26"/>
<polygon fill="midnightblue" stroke="midnightblue" points="841.55,-181.13 846.85,-190.31 848.42,-179.83 841.55,-181.13"/>
</g>
<!-- Node7 -->
<g id="node7" class="node">
<title>Node7</title>
<g id="a_node7"><a xlink:href="../../d1/d8f/vvitconverter_8h.html" target="_top" xlink:title=" ">
<polygon fill="white" stroke="black" points="1024.5,-62 1024.5,-81 1188.5,-81 1188.5,-62 1024.5,-62"/>
<text text-anchor="middle" x="1106.5" y="-69" font-family="Helvetica,sans-Serif" font-size="10.00">src/libs/ifc/xml/vvitconverter.h</text>
</a>
</g>
</g>
<!-- Node2&#45;&gt;Node7 -->
<g id="edge20" class="edge">
<title>Node2&#45;&gt;Node7</title>
<path fill="none" stroke="midnightblue" d="M954.32,-190.21C1008.53,-183.56 1067.14,-172.35 1086.5,-154 1107.02,-134.56 1107.92,-97.78 1107.16,-81.1"/>
<polygon fill="midnightblue" stroke="midnightblue" points="953.78,-186.74 944.26,-191.39 954.6,-193.7 953.78,-186.74"/>
</g>
<!-- Node9 -->
<g id="node9" class="node">
<title>Node9</title>
<g id="a_node9"><a xlink:href="../../d2/d10/vvstconverter_8h.html" target="_top" xlink:title=" ">
<polygon fill="white" stroke="black" points="534,-62 534,-81 701,-81 701,-62 534,-62"/>
<text text-anchor="middle" x="617.5" y="-69" font-family="Helvetica,sans-Serif" font-size="10.00">src/libs/ifc/xml/vvstconverter.h</text>
</a>
</g>
</g>
<!-- Node2&#45;&gt;Node9 -->
<g id="edge22" class="edge">
<title>Node2&#45;&gt;Node9</title>
<path fill="none" stroke="midnightblue" d="M742.7,-191.04C712.71,-184.53 681.67,-173.27 657.5,-154 633.59,-134.94 622.95,-97.96 619.19,-81.17"/>
<polygon fill="midnightblue" stroke="midnightblue" points="742.33,-194.54 752.82,-193.07 743.71,-187.67 742.33,-194.54"/>
</g>
<!-- Node11 -->
<g id="node11" class="node">
<title>Node11</title>
<g id="a_node11"><a xlink:href="../../d5/d35/vlabeltemplateconverter_8h.html" target="_top" xlink:title=" ">
<polygon fill="white" stroke="black" points="390.5,-129 390.5,-148 610.5,-148 610.5,-129 390.5,-129"/>
<text text-anchor="middle" x="500.5" y="-136" font-family="Helvetica,sans-Serif" font-size="10.00">src/libs/ifc/xml/vlabeltemplateconverter.h</text>
</a>
</g>
</g>
<!-- Node2&#45;&gt;Node11 -->
<g id="edge14" class="edge">
<title>Node2&#45;&gt;Node11</title>
<path fill="none" stroke="midnightblue" d="M788.6,-188.76C721.27,-177.25 613.15,-158.76 550.27,-148.01"/>
<polygon fill="midnightblue" stroke="midnightblue" points="788.19,-192.24 798.64,-190.48 789.37,-185.34 788.19,-192.24"/>
</g>
<!-- Node14 -->
<g id="node14" class="node">
<title>Node14</title>
<g id="a_node14"><a xlink:href="../../df/d2f/vpatternconverter_8h.html" target="_top" xlink:title=" ">
<polygon fill="white" stroke="black" points="1212,-129 1212,-148 1399,-148 1399,-129 1212,-129"/>
<text text-anchor="middle" x="1305.5" y="-136" font-family="Helvetica,sans-Serif" font-size="10.00">src/libs/ifc/xml/vpatternconverter.h</text>
</a>
</g>
</g>
<!-- Node2&#45;&gt;Node14 -->
<g id="edge17" class="edge">
<title>Node2&#45;&gt;Node14</title>
<path fill="none" stroke="midnightblue" d="M923.91,-189.18C1012.08,-177.7 1156.55,-158.89 1240.14,-148.01"/>
<polygon fill="midnightblue" stroke="midnightblue" points="923.44,-185.71 913.98,-190.48 924.35,-192.65 923.44,-185.71"/>
</g>
<!-- Node16 -->
<g id="node16" class="node">
<title>Node16</title>
<g id="a_node16"><a xlink:href="../../d5/d2c/vpatternconverter_8cpp.html" target="_top" xlink:title=" ">
<polygon fill="white" stroke="black" points="1206.5,-62 1206.5,-81 1404.5,-81 1404.5,-62 1206.5,-62"/>
<text text-anchor="middle" x="1305.5" y="-69" font-family="Helvetica,sans-Serif" font-size="10.00">src/libs/ifc/xml/vpatternconverter.cpp</text>
</a>
</g>
</g>
<!-- Node2&#45;&gt;Node16 -->
<g id="edge21" class="edge">
<title>Node2&#45;&gt;Node16</title>
<path fill="none" stroke="midnightblue" d="M934.41,-189.11C985.84,-181.97 1052.16,-170.64 1109.5,-154 1178.16,-134.08 1255.32,-97.55 1288.66,-81.02"/>
<polygon fill="midnightblue" stroke="midnightblue" points="933.76,-185.66 924.32,-190.48 934.7,-192.6 933.76,-185.66"/>
</g>
<!-- Node17 -->
<g id="node17" class="node">
<title>Node17</title>
<g id="a_node17"><a xlink:href="../../d4/d90/fvupdater_8cpp.html" target="_top" xlink:title=" ">
<polygon fill="white" stroke="black" points="667,-129 667,-148 820,-148 820,-129 667,-129"/>
<text text-anchor="middle" x="743.5" y="-136" font-family="Helvetica,sans-Serif" font-size="10.00">src/libs/fervor/fvupdater.cpp</text>
</a>
</g>
</g>
<!-- Node2&#45;&gt;Node17 -->
<g id="edge23" class="edge">
<title>Node2&#45;&gt;Node17</title>
<path fill="none" stroke="midnightblue" d="M824.5,-185.4C804.2,-173.9 775.74,-157.77 758.52,-148.01"/>
<polygon fill="midnightblue" stroke="midnightblue" points="823.03,-188.59 833.46,-190.48 826.48,-182.5 823.03,-188.59"/>
</g>
<!-- Node4&#45;&gt;Node5 -->
<g id="edge4" class="edge">
<title>Node4&#45;&gt;Node5</title>
<path fill="none" stroke="midnightblue" d="M947.96,-124.95C917.66,-112.08 871.35,-92.4 844.9,-81.17"/>
<polygon fill="midnightblue" stroke="midnightblue" points="946.61,-128.18 957.18,-128.87 949.35,-121.74 946.61,-128.18"/>
</g>
<!-- Node6 -->
<g id="node6" class="node">
<title>Node6</title>
<g id="a_node6"><a xlink:href="../../d5/dba/vvitconverter_8cpp.html" target="_top" xlink:title=" ">
<polygon fill="white" stroke="black" points="974.5,-0.5 974.5,-19.5 1150.5,-19.5 1150.5,-0.5 974.5,-0.5"/>
<text text-anchor="middle" x="1062.5" y="-7.5" font-family="Helvetica,sans-Serif" font-size="10.00">src/libs/ifc/xml/vvitconverter.cpp</text>
</a>
</g>
</g>
<!-- Node4&#45;&gt;Node6 -->
<g id="edge5" class="edge">
<title>Node4&#45;&gt;Node6</title>
<path fill="none" stroke="midnightblue" d="M983.71,-119.41C990.12,-102.18 1001.19,-75.97 1015.5,-56 1025.76,-41.67 1040.97,-28.1 1051.29,-19.68"/>
<polygon fill="midnightblue" stroke="midnightblue" points="980.4,-118.26 980.33,-128.85 986.99,-120.61 980.4,-118.26"/>
</g>
<!-- Node4&#45;&gt;Node7 -->
<g id="edge6" class="edge">
<title>Node4&#45;&gt;Node7</title>
<path fill="none" stroke="midnightblue" d="M1003.75,-124.27C1029.3,-111.4 1067.39,-92.21 1089.3,-81.17"/>
<polygon fill="midnightblue" stroke="midnightblue" points="1001.99,-121.24 994.63,-128.87 1005.14,-127.49 1001.99,-121.24"/>
</g>
<!-- Node4&#45;&gt;Node9 -->
<g id="edge9" class="edge">
<title>Node4&#45;&gt;Node9</title>
<path fill="none" stroke="midnightblue" d="M919.99,-127.12C849.23,-114.34 730.44,-92.89 664.75,-81.03"/>
<polygon fill="midnightblue" stroke="midnightblue" points="919.6,-130.6 930.07,-128.94 920.85,-123.71 919.6,-130.6"/>
</g>
<!-- Node10 -->
<g id="node10" class="node">
<title>Node10</title>
<g id="a_node10"><a xlink:href="../../d0/dd6/vvstconverter_8cpp.html" target="_top" xlink:title=" ">
<polygon fill="white" stroke="black" points="756.5,-0.5 756.5,-19.5 934.5,-19.5 934.5,-0.5 756.5,-0.5"/>
<text text-anchor="middle" x="845.5" y="-7.5" font-family="Helvetica,sans-Serif" font-size="10.00">src/libs/ifc/xml/vvstconverter.cpp</text>
</a>
</g>
</g>
<!-- Node4&#45;&gt;Node10 -->
<g id="edge12" class="edge">
<title>Node4&#45;&gt;Node10</title>
<path fill="none" stroke="midnightblue" d="M972.86,-119.12C967.49,-101.06 957.04,-73.72 939.5,-56 921.93,-38.25 895.99,-26.56 875.81,-19.56"/>
<polygon fill="midnightblue" stroke="midnightblue" points="969.49,-120.05 975.52,-128.76 976.24,-118.19 969.49,-120.05"/>
</g>
<!-- Node7&#45;&gt;Node6 -->
<g id="edge7" class="edge">
<title>Node7&#45;&gt;Node6</title>
<path fill="none" stroke="midnightblue" d="M1094.18,-53.84C1085.92,-42.67 1075.39,-28.43 1068.79,-19.51"/>
<polygon fill="midnightblue" stroke="midnightblue" points="1091.44,-56.02 1100.2,-61.98 1097.06,-51.85 1091.44,-56.02"/>
</g>
<!-- Node8 -->
<g id="node8" class="node">
<title>Node8</title>
<g id="a_node8"><a xlink:href="../../de/db3/vmeasurements_8cpp.html" target="_top" xlink:title=" ">
<polygon fill="white" stroke="black" points="519.5,-0.5 519.5,-19.5 715.5,-19.5 715.5,-0.5 519.5,-0.5"/>
<text text-anchor="middle" x="617.5" y="-7.5" font-family="Helvetica,sans-Serif" font-size="10.00">src/libs/vformat/vmeasurements.cpp</text>
</a>
</g>
</g>
<!-- Node7&#45;&gt;Node8 -->
<g id="edge8" class="edge">
<title>Node7&#45;&gt;Node8</title>
<path fill="none" stroke="midnightblue" d="M1026.38,-60.75C932.09,-49.28 777.06,-30.41 687.43,-19.51"/>
<polygon fill="midnightblue" stroke="midnightblue" points="1026.09,-64.24 1036.44,-61.98 1026.93,-57.29 1026.09,-64.24"/>
</g>
<!-- Node9&#45;&gt;Node8 -->
<g id="edge11" class="edge">
<title>Node9&#45;&gt;Node8</title>
<path fill="none" stroke="midnightblue" d="M617.5,-51.82C617.5,-41 617.5,-27.9 617.5,-19.51"/>
<polygon fill="midnightblue" stroke="midnightblue" points="614,-51.98 617.5,-61.98 621,-51.98 614,-51.98"/>
</g>
<!-- Node9&#45;&gt;Node10 -->
<g id="edge10" class="edge">
<title>Node9&#45;&gt;Node10</title>
<path fill="none" stroke="midnightblue" d="M660.05,-59.4C704.33,-47.84 772.71,-30 812.89,-19.51"/>
<polygon fill="midnightblue" stroke="midnightblue" points="658.96,-56.06 650.17,-61.98 660.73,-62.84 658.96,-56.06"/>
</g>
<!-- Node12 -->
<g id="node12" class="node">
<title>Node12</title>
<g id="a_node12"><a xlink:href="../../d7/d63/vlabeltemplateconverter_8cpp.html" target="_top" xlink:title=" ">
<polygon fill="white" stroke="black" points="285,-62 285,-81 516,-81 516,-62 285,-62"/>
<text text-anchor="middle" x="400.5" y="-69" font-family="Helvetica,sans-Serif" font-size="10.00">src/libs/ifc/xml/vlabeltemplateconverter.cpp</text>
</a>
</g>
</g>
<!-- Node11&#45;&gt;Node12 -->
<g id="edge15" class="edge">
<title>Node11&#45;&gt;Node12</title>
<path fill="none" stroke="midnightblue" d="M478.61,-123.27C458.81,-110.4 430.31,-91.88 413.77,-81.13"/>
<polygon fill="midnightblue" stroke="midnightblue" points="476.72,-126.22 487.01,-128.73 480.54,-120.35 476.72,-126.22"/>
</g>
<!-- Node13 -->
<g id="node13" class="node">
<title>Node13</title>
<g id="a_node13"><a xlink:href="../../d9/daf/vlabeltemplate_8cpp.html" target="_top" xlink:title=" ">
<polygon fill="white" stroke="black" points="76,-62 76,-81 267,-81 267,-62 76,-62"/>
<text text-anchor="middle" x="171.5" y="-69" font-family="Helvetica,sans-Serif" font-size="10.00">src/libs/vformat/vlabeltemplate.cpp</text>
</a>
</g>
</g>
<!-- Node11&#45;&gt;Node13 -->
<g id="edge16" class="edge">
<title>Node11&#45;&gt;Node13</title>
<path fill="none" stroke="midnightblue" d="M447.14,-126.96C382.39,-114.16 274.47,-92.84 214.68,-81.03"/>
<polygon fill="midnightblue" stroke="midnightblue" points="446.66,-130.43 457.15,-128.94 448.02,-123.56 446.66,-130.43"/>
</g>
<!-- Node14&#45;&gt;Node15 -->
<g id="edge18" class="edge">
<title>Node14&#45;&gt;Node15</title>
<path fill="none" stroke="midnightblue" d="M1343.42,-125.93C1385.59,-113.06 1452.73,-92.57 1490.44,-81.06"/>
<polygon fill="midnightblue" stroke="midnightblue" points="1342.33,-122.6 1333.78,-128.87 1344.37,-129.3 1342.33,-122.6"/>
</g>
<!-- Node14&#45;&gt;Node16 -->
<g id="edge19" class="edge">
<title>Node14&#45;&gt;Node16</title>
<path fill="none" stroke="midnightblue" d="M1305.5,-118.54C1305.5,-106.17 1305.5,-90.62 1305.5,-81.13"/>
<polygon fill="midnightblue" stroke="midnightblue" points="1302,-118.73 1305.5,-128.73 1309,-118.73 1302,-118.73"/>
</g>
<!-- Node18&#45;&gt;Node15 -->
<g id="edge26" class="edge">
<title>Node18&#45;&gt;Node15</title>
<path fill="none" stroke="midnightblue" d="M2190.87,-188.69C2049.85,-164.33 1697.98,-103.52 1567.88,-81.03"/>
<polygon fill="midnightblue" stroke="midnightblue" points="2190.6,-192.2 2201.05,-190.45 2191.79,-185.3 2190.6,-192.2"/>
</g>
<!-- Node19 -->
<g id="node19" class="node">
<title>Node19</title>
<g id="a_node19"><a xlink:href="../../d6/de0/vlayoutpiece_8h.html" target="_top" xlink:title=" ">
<polygon fill="white" stroke="black" points="2071.5,-129 2071.5,-148 2237.5,-148 2237.5,-129 2071.5,-129"/>
<text text-anchor="middle" x="2154.5" y="-136" font-family="Helvetica,sans-Serif" font-size="10.00">src/libs/vlayout/vlayoutpiece.h</text>
</a>
</g>
</g>
<!-- Node18&#45;&gt;Node19 -->
<g id="edge27" class="edge">
<title>Node18&#45;&gt;Node19</title>
<path fill="none" stroke="midnightblue" d="M2228.05,-185.09C2209.53,-173.6 2183.83,-157.68 2168.23,-148.01"/>
<polygon fill="midnightblue" stroke="midnightblue" points="2226.4,-188.18 2236.75,-190.48 2230.09,-182.23 2226.4,-188.18"/>
</g>
<!-- Node29 -->
<g id="node29" class="node">
<title>Node29</title>
<g id="a_node29"><a xlink:href="../../d8/d70/vtextmanager_8cpp.html" target="_top" xlink:title=" ">
<polygon fill="white" stroke="black" points="2255.5,-129 2255.5,-148 2437.5,-148 2437.5,-129 2255.5,-129"/>
<text text-anchor="middle" x="2346.5" y="-136" font-family="Helvetica,sans-Serif" font-size="10.00">src/libs/vlayout/vtextmanager.cpp</text>
</a>
</g>
</g>
<!-- Node18&#45;&gt;Node29 -->
<g id="edge39" class="edge">
<title>Node18&#45;&gt;Node29</title>
<path fill="none" stroke="midnightblue" d="M2272.95,-185.09C2291.47,-173.6 2317.17,-157.68 2332.77,-148.01"/>
<polygon fill="midnightblue" stroke="midnightblue" points="2270.91,-182.23 2264.25,-190.48 2274.6,-188.18 2270.91,-182.23"/>
</g>
<!-- Node30 -->
<g id="node30" class="node">
<title>Node30</title>
<g id="a_node30"><a xlink:href="../../d7/df4/group__tablewidgetitem_8cpp.html" target="_top" xlink:title=" ">
<polygon fill="white" stroke="black" points="2456,-123.5 2456,-153.5 2585,-153.5 2585,-123.5 2456,-123.5"/>
<text text-anchor="start" x="2464" y="-141.5" font-family="Helvetica,sans-Serif" font-size="10.00">src/libs/vwidgets/group</text>
<text text-anchor="middle" x="2520.5" y="-130.5" font-family="Helvetica,sans-Serif" font-size="10.00">_tablewidgetitem.cpp</text>
</a>
</g>
</g>
<!-- Node18&#45;&gt;Node30 -->
<g id="edge40" class="edge">
<title>Node18&#45;&gt;Node30</title>
<path fill="none" stroke="midnightblue" d="M2299.09,-188.29C2343.22,-178.57 2408.59,-164.16 2456.87,-153.52"/>
<polygon fill="midnightblue" stroke="midnightblue" points="2298.2,-184.9 2289.18,-190.48 2299.7,-191.74 2298.2,-184.9"/>
</g>
<!-- Node31 -->
<g id="node31" class="node">
<title>Node31</title>
<g id="a_node31"><a xlink:href="../../d0/da5/export__format__combobox_8h.html" target="_top" xlink:title=" ">
<polygon fill="white" stroke="black" points="2603,-123.5 2603,-153.5 2736,-153.5 2736,-123.5 2603,-123.5"/>
<text text-anchor="start" x="2611" y="-141.5" font-family="Helvetica,sans-Serif" font-size="10.00">src/libs/vwidgets/export</text>
<text text-anchor="middle" x="2669.5" y="-130.5" font-family="Helvetica,sans-Serif" font-size="10.00">_format_combobox.h</text>
</a>
</g>
</g>
<!-- Node18&#45;&gt;Node31 -->
<g id="edge41" class="edge">
<title>Node18&#45;&gt;Node31</title>
<path fill="none" stroke="midnightblue" d="M2335.91,-189.29C2405.64,-181.02 2506.66,-168.22 2594.5,-154 2597.25,-153.55 2600.05,-153.09 2602.88,-152.6"/>
<polygon fill="midnightblue" stroke="midnightblue" points="2335.37,-185.83 2325.85,-190.48 2336.19,-192.78 2335.37,-185.83"/>
</g>
<!-- Node33 -->
<g id="node33" class="node">
<title>Node33</title>
<g id="a_node33"><a xlink:href="../../de/d22/vsimplecurve_8cpp.html" target="_top" xlink:title=" ">
<polygon fill="white" stroke="black" points="2754.5,-129 2754.5,-148 2942.5,-148 2942.5,-129 2754.5,-129"/>
<text text-anchor="middle" x="2848.5" y="-136" font-family="Helvetica,sans-Serif" font-size="10.00">src/libs/vwidgets/vsimplecurve.cpp</text>
</a>
</g>
</g>
<!-- Node18&#45;&gt;Node33 -->
<g id="edge43" class="edge">
<title>Node18&#45;&gt;Node33</title>
<path fill="none" stroke="midnightblue" d="M2351.07,-189.92C2492.95,-177.1 2735.81,-155.12 2745.5,-154 2760.48,-152.27 2776.64,-150.12 2791.63,-148.02"/>
<polygon fill="midnightblue" stroke="midnightblue" points="2350.68,-186.44 2341.03,-190.83 2351.31,-193.41 2350.68,-186.44"/>
</g>
<!-- Node20 -->
<g id="node20" class="node">
<title>Node20</title>
<g id="a_node20"><a xlink:href="../../dd/d66/vdxfengine_8cpp.html" target="_top" xlink:title=" ">
<polygon fill="white" stroke="black" points="1994.5,-62 1994.5,-81 2148.5,-81 2148.5,-62 1994.5,-62"/>
<text text-anchor="middle" x="2071.5" y="-69" font-family="Helvetica,sans-Serif" font-size="10.00">src/libs/vdxf/vdxfengine.cpp</text>
</a>
</g>
</g>
<!-- Node19&#45;&gt;Node20 -->
<g id="edge28" class="edge">
<title>Node19&#45;&gt;Node20</title>
<path fill="none" stroke="midnightblue" d="M2135.43,-122.57C2119.05,-109.74 2096,-91.69 2082.52,-81.13"/>
<polygon fill="midnightblue" stroke="midnightblue" points="2133.28,-125.32 2143.31,-128.73 2137.59,-119.81 2133.28,-125.32"/>
</g>
<!-- Node21 -->
<g id="node21" class="node">
<title>Node21</title>
<g id="a_node21"><a xlink:href="../../de/da8/vbank_8cpp.html" target="_top" xlink:title=" ">
<polygon fill="white" stroke="black" points="2166.5,-62 2166.5,-81 2310.5,-81 2310.5,-62 2166.5,-62"/>
<text text-anchor="middle" x="2238.5" y="-69" font-family="Helvetica,sans-Serif" font-size="10.00">src/libs/vlayout/vbank.cpp</text>
</a>
</g>
</g>
<!-- Node19&#45;&gt;Node21 -->
<g id="edge29" class="edge">
<title>Node19&#45;&gt;Node21</title>
<path fill="none" stroke="midnightblue" d="M2173.8,-122.57C2190.38,-109.74 2213.71,-91.69 2227.35,-81.13"/>
<polygon fill="midnightblue" stroke="midnightblue" points="2171.6,-119.85 2165.83,-128.73 2175.88,-125.38 2171.6,-119.85"/>
</g>
<!-- Node22 -->
<g id="node22" class="node">
<title>Node22</title>
<g id="a_node22"><a xlink:href="../../df/d5d/vcontour_8cpp.html" target="_top" xlink:title=" ">
<polygon fill="white" stroke="black" points="2328.5,-62 2328.5,-81 2484.5,-81 2484.5,-62 2328.5,-62"/>
<text text-anchor="middle" x="2406.5" y="-69" font-family="Helvetica,sans-Serif" font-size="10.00">src/libs/vlayout/vcontour.cpp</text>
</a>
</g>
</g>
<!-- Node19&#45;&gt;Node22 -->
<g id="edge30" class="edge">
<title>Node19&#45;&gt;Node22</title>
<path fill="none" stroke="midnightblue" d="M2197.52,-126.4C2247.25,-113.58 2328.05,-92.74 2373.22,-81.08"/>
<polygon fill="midnightblue" stroke="midnightblue" points="2196.51,-123.05 2187.7,-128.94 2198.26,-129.83 2196.51,-123.05"/>
</g>
<!-- Node23 -->
<g id="node23" class="node">
<title>Node23</title>
<g id="a_node23"><a xlink:href="../../d3/d39/vlayoutgenerator_8cpp.html" target="_top" xlink:title=" ">
<polygon fill="white" stroke="black" points="2503,-62 2503,-81 2700,-81 2700,-62 2503,-62"/>
<text text-anchor="middle" x="2601.5" y="-69" font-family="Helvetica,sans-Serif" font-size="10.00">src/libs/vlayout/vlayoutgenerator.cpp</text>
</a>
</g>
</g>
<!-- Node19&#45;&gt;Node23 -->
<g id="edge31" class="edge">
<title>Node19&#45;&gt;Node23</title>
<path fill="none" stroke="midnightblue" d="M2217.88,-127.38C2227.47,-125.89 2237.24,-124.39 2246.5,-123 2349.16,-107.61 2468.7,-90.84 2539.57,-81.02"/>
<polygon fill="midnightblue" stroke="midnightblue" points="2217.33,-123.93 2207.99,-128.93 2218.41,-130.84 2217.33,-123.93"/>
</g>
<!-- Node24 -->
<g id="node24" class="node">
<title>Node24</title>
<g id="a_node24"><a xlink:href="../../d2/d2d/vlayoutpaper__p_8h.html" target="_top" xlink:title=" ">
<polygon fill="white" stroke="black" points="2757,-62 2757,-81 2936,-81 2936,-62 2757,-62"/>
<text text-anchor="middle" x="2846.5" y="-69" font-family="Helvetica,sans-Serif" font-size="10.00">src/libs/vlayout/vlayoutpaper_p.h</text>
</a>
</g>
</g>
<!-- Node19&#45;&gt;Node24 -->
<g id="edge32" class="edge">
<title>Node19&#45;&gt;Node24</title>
<path fill="none" stroke="midnightblue" d="M2213.49,-127.45C2224.44,-125.8 2235.8,-124.23 2246.5,-123 2466.08,-97.77 2522.7,-110.27 2742.5,-87 2758.09,-85.35 2774.94,-83.17 2790.45,-81.01"/>
<polygon fill="midnightblue" stroke="midnightblue" points="2212.92,-124 2203.57,-128.98 2213.99,-130.92 2212.92,-124"/>
</g>
<!-- Node25 -->
<g id="node25" class="node">
<title>Node25</title>
<g id="a_node25"><a xlink:href="../../d1/dd1/vlayoutpaper_8cpp.html" target="_top" xlink:title=" ">
<polygon fill="white" stroke="black" points="2639.5,-0.5 2639.5,-19.5 2817.5,-19.5 2817.5,-0.5 2639.5,-0.5"/>
<text text-anchor="middle" x="2728.5" y="-7.5" font-family="Helvetica,sans-Serif" font-size="10.00">src/libs/vlayout/vlayoutpaper.cpp</text>
</a>
</g>
</g>
<!-- Node19&#45;&gt;Node25 -->
<g id="edge34" class="edge">
<title>Node19&#45;&gt;Node25</title>
<path fill="none" stroke="midnightblue" d="M2214.2,-127.39C2224.93,-125.77 2236.03,-124.23 2246.5,-123 2297.75,-116.98 2670.09,-120.31 2709.5,-87 2729.44,-70.14 2730.16,-35.82 2729.27,-19.71"/>
<polygon fill="midnightblue" stroke="midnightblue" points="2213.41,-123.97 2204.06,-128.96 2214.47,-130.89 2213.41,-123.97"/>
</g>
<!-- Node26 -->
<g id="node26" class="node">
<title>Node26</title>
<g id="a_node26"><a xlink:href="../../dd/d70/vlayoutpiece_8cpp.html" target="_top" xlink:title=" ">
<polygon fill="white" stroke="black" points="1799,-62 1799,-81 1976,-81 1976,-62 1799,-62"/>
<text text-anchor="middle" x="1887.5" y="-69" font-family="Helvetica,sans-Serif" font-size="10.00">src/libs/vlayout/vlayoutpiece.cpp</text>
</a>
</g>
</g>
<!-- Node19&#45;&gt;Node26 -->
<g id="edge35" class="edge">
<title>Node19&#45;&gt;Node26</title>
<path fill="none" stroke="midnightblue" d="M2109.58,-126.56C2056.94,-113.75 1970.82,-92.78 1922.76,-81.08"/>
<polygon fill="midnightblue" stroke="midnightblue" points="2108.78,-129.97 2119.32,-128.94 2110.43,-123.17 2108.78,-129.97"/>
</g>
<!-- Node27 -->
<g id="node27" class="node">
<title>Node27</title>
<g id="a_node27"><a xlink:href="../../db/d5c/vposition_8h.html" target="_top" xlink:title=" ">
<polygon fill="white" stroke="black" points="1632.5,-62 1632.5,-81 1780.5,-81 1780.5,-62 1632.5,-62"/>
<text text-anchor="middle" x="1706.5" y="-69" font-family="Helvetica,sans-Serif" font-size="10.00">src/libs/vlayout/vposition.h</text>
</a>
</g>
</g>
<!-- Node19&#45;&gt;Node27 -->
<g id="edge36" class="edge">
<title>Node19&#45;&gt;Node27</title>
<path fill="none" stroke="midnightblue" d="M2077.64,-127.67C2003.69,-118.02 1888.8,-102.54 1789.5,-87 1777.94,-85.19 1765.5,-83.1 1753.86,-81.07"/>
<polygon fill="midnightblue" stroke="midnightblue" points="2077.42,-131.17 2087.79,-128.99 2078.33,-124.23 2077.42,-131.17"/>
</g>
<!-- Node24&#45;&gt;Node25 -->
<g id="edge33" class="edge">
<title>Node24&#45;&gt;Node25</title>
<path fill="none" stroke="midnightblue" d="M2820.45,-57.37C2797.58,-45.83 2764.99,-29.4 2745.38,-19.51"/>
<polygon fill="midnightblue" stroke="midnightblue" points="2819.09,-60.6 2829.59,-61.98 2822.24,-54.35 2819.09,-60.6"/>
</g>
<!-- Node27&#45;&gt;Node25 -->
<g id="edge37" class="edge">
<title>Node27&#45;&gt;Node25</title>
<path fill="none" stroke="midnightblue" d="M1759.58,-60.21C1769.49,-58.58 1779.79,-57.08 1789.5,-56 2100.34,-21.54 2471.96,-13.45 2639.2,-11.57"/>
<polygon fill="midnightblue" stroke="midnightblue" points="1758.7,-56.81 1749.43,-61.95 1759.88,-63.71 1758.7,-56.81"/>
</g>
<!-- Node28 -->
<g id="node28" class="node">
<title>Node28</title>
<g id="a_node28"><a xlink:href="../../df/d76/vposition_8cpp.html" target="_top" xlink:title=" ">
<polygon fill="white" stroke="black" points="1627,-0.5 1627,-19.5 1786,-19.5 1786,-0.5 1627,-0.5"/>
<text text-anchor="middle" x="1706.5" y="-7.5" font-family="Helvetica,sans-Serif" font-size="10.00">src/libs/vlayout/vposition.cpp</text>
</a>
</g>
</g>
<!-- Node27&#45;&gt;Node28 -->
<g id="edge38" class="edge">
<title>Node27&#45;&gt;Node28</title>
<path fill="none" stroke="midnightblue" d="M1706.5,-51.82C1706.5,-41 1706.5,-27.9 1706.5,-19.51"/>
<polygon fill="midnightblue" stroke="midnightblue" points="1703,-51.98 1706.5,-61.98 1710,-51.98 1703,-51.98"/>
</g>
<!-- Node32 -->
<g id="node32" class="node">
<title>Node32</title>
<g id="a_node32"><a xlink:href="../../df/d40/export__format__combobox_8cpp.html" target="_top" xlink:title=" ">
<polygon fill="white" stroke="black" points="2954,-56.5 2954,-86.5 3087,-86.5 3087,-56.5 2954,-56.5"/>
<text text-anchor="start" x="2962" y="-74.5" font-family="Helvetica,sans-Serif" font-size="10.00">src/libs/vwidgets/export</text>
<text text-anchor="middle" x="3020.5" y="-63.5" font-family="Helvetica,sans-Serif" font-size="10.00">_format_combobox.cpp</text>
</a>
</g>
</g>
<!-- Node31&#45;&gt;Node32 -->
<g id="edge42" class="edge">
<title>Node31&#45;&gt;Node32</title>
<path fill="none" stroke="midnightblue" d="M2746.29,-122.87C2835.96,-106.31 2859.84,-102.99 2945.5,-87 2948.24,-86.49 2951.03,-85.96 2953.85,-85.43"/>
<polygon fill="midnightblue" stroke="midnightblue" points="2745.42,-119.47 2736.22,-124.73 2746.69,-126.35 2745.42,-119.47"/>
</g>
<!-- Node35&#45;&gt;Node13 -->
<g id="edge47" class="edge">
<title>Node35&#45;&gt;Node13</title>
<path fill="none" stroke="midnightblue" d="M371.58,-198.29C290.95,-195.35 186.64,-185.34 159.5,-154 141.52,-133.24 157.26,-97.78 166.25,-81.34"/>
<polygon fill="midnightblue" stroke="midnightblue" points="371.67,-201.8 381.78,-198.63 371.91,-194.8 371.67,-201.8"/>
</g>
<!-- Node36&#45;&gt;Node8 -->
<g id="edge49" class="edge">
<title>Node36&#45;&gt;Node8</title>
<path fill="none" stroke="midnightblue" d="M81.1,-181.37C63.37,-151.51 34.39,-90.84 66.5,-56 96.48,-23.47 369.09,-14.45 519.28,-11.96"/>
<polygon fill="midnightblue" stroke="midnightblue" points="78.34,-183.56 86.58,-190.23 84.3,-179.88 78.34,-183.56"/>
</g>
</g>
</svg>
