<?xml version="1.0" encoding="UTF-8" standalone="no"?>
<!DOCTYPE svg PUBLIC "-//W3C//DTD SVG 1.1//EN"
 "http://www.w3.org/Graphics/SVG/1.1/DTD/svg11.dtd">
<!-- Generated by graphviz version 2.43.0 (0)
 -->
<!-- Title: src/libs/ifc/xml/vdomdocument.h Pages: 1 -->
<!--zoomable 274 -->
<svg id="main" version="1.1" xmlns="http://www.w3.org/2000/svg" xmlns:xlink="http://www.w3.org/1999/xlink" xml:space="preserve" onload="init(evt)">
<style type="text/css"><![CDATA[
.edge:hover path { stroke: red; }
.edge:hover polygon { stroke: red; fill: red; }
]]></style>
<script type="text/javascript"><![CDATA[
var edges = document.getElementsByTagName('g');
if (edges && edges.length) {
  for (var i=0;i<edges.length;i++) {
    if (edges[i].id.substr(0,4)=='edge') {
      edges[i].setAttribute('class','edge');
    }
  }
}
]]></script>
        <defs>
                <circle id="rim" cx="0" cy="0" r="7"/>
                <circle id="rim2" cx="0" cy="0" r="3.5"/>
                <g id="zoomPlus">
                        <use xlink:href="#rim" fill="#404040">
                                <set attributeName="fill" to="#808080" begin="zoomplus.mouseover" end="zoomplus.mouseout"/>
                        </use>
                        <path d="M-4,0h8M0,-4v8" fill="none" stroke="white" stroke-width="1.5" pointer-events="none"/>
                </g>
                <g id="zoomMin">
                        <use xlink:href="#rim" fill="#404040">
                                <set attributeName="fill" to="#808080" begin="zoomminus.mouseover" end="zoomminus.mouseout"/>
                        </use>
                        <path d="M-4,0h8" fill="none" stroke="white" stroke-width="1.5" pointer-events="none"/>
                </g>
                <g id="dirArrow">
                        <path fill="none" stroke="white" stroke-width="1.5" d="M0,-3.0v7 M-2.5,-0.5L0,-3.0L2.5,-0.5"/>
                </g>
               <g id="resetDef">
                       <use xlink:href="#rim2" fill="#404040">
                               <set attributeName="fill" to="#808080" begin="reset.mouseover" end="reset.mouseout"/>
                       </use>
               </g>
        </defs>

<script type="text/javascript">
var viewWidth = 3059;
var viewHeight = 274;
var sectionId = 'dynsection-1';
</script>
<script xlink:href="../../svgpan.js"/>
<svg id="graph" class="graph">
<g id="viewport">
<title>src/libs/ifc/xml/vdomdocument.h</title>
<polygon fill="white" stroke="transparent" points="-4,4 -4,-270 3054.5,-270 3054.5,4 -4,4"/>
<!-- Node1 -->
<g id="node1" class="node">
<title>Node1</title>
<g id="a_node1"><a xlink:title=" ">
<polygon fill="#bfbfbf" stroke="black" points="1068,-246.5 1068,-265.5 1244,-265.5 1244,-246.5 1068,-246.5"/>
<text text-anchor="middle" x="1156" y="-253.5" font-family="Helvetica,sans-Serif" font-size="10.00">src/libs/ifc/xml/vdomdocument.h</text>
</a>
</g>
</g>
<!-- Node2 -->
<g id="node2" class="node">
<title>Node2</title>
<g id="a_node2"><a xlink:href="../../df/de4/vabstractconverter_8h.html" target="_top" xlink:title=" ">
<polygon fill="white" stroke="black" points="467.5,-190.5 467.5,-209.5 658.5,-209.5 658.5,-190.5 467.5,-190.5"/>
<text text-anchor="middle" x="563" y="-197.5" font-family="Helvetica,sans-Serif" font-size="10.00">src/libs/ifc/xml/vabstractconverter.h</text>
</a>
</g>
</g>
<!-- Node1&#45;&gt;Node2 -->
<g id="edge1" class="edge">
<title>Node1&#45;&gt;Node2</title>
<path fill="none" stroke="midnightblue" d="M1057.63,-246.04C946.19,-235.89 765.91,-219.48 656.52,-209.52"/>
<polygon fill="midnightblue" stroke="midnightblue" points="1057.59,-249.55 1067.86,-246.97 1058.22,-242.58 1057.59,-249.55"/>
</g>
<!-- Node3 -->
<g id="node3" class="node">
<title>Node3</title>
<g id="a_node3"><a xlink:href="../../d4/d9f/vabstractconverter_8cpp.html" target="_top" xlink:title=" ">
<polygon fill="white" stroke="black" points="16.5,-129 16.5,-148 219.5,-148 219.5,-129 16.5,-129"/>
<text text-anchor="middle" x="118" y="-136" font-family="Helvetica,sans-Serif" font-size="10.00">src/libs/ifc/xml/vabstractconverter.cpp</text>
</a>
</g>
</g>
<!-- Node1&#45;&gt;Node3 -->
<g id="edge24" class="edge">
<title>Node1&#45;&gt;Node3</title>
<path fill="none" stroke="midnightblue" d="M1057.37,-252.99C921.78,-249.23 670.43,-238.73 458,-210 344.49,-194.65 212.19,-163.25 151.51,-148.08"/>
<polygon fill="midnightblue" stroke="midnightblue" points="1057.64,-256.5 1067.73,-253.27 1057.83,-249.5 1057.64,-256.5"/>
</g>
<!-- Node15 -->
<g id="node15" class="node">
<title>Node15</title>
<g id="a_node15"><a xlink:href="../../de/d7d/vabstractpattern_8cpp.html" target="_top" xlink:title=" ">
<polygon fill="white" stroke="black" points="1387,-62 1387,-81 1579,-81 1579,-62 1387,-62"/>
<text text-anchor="middle" x="1483" y="-69" font-family="Helvetica,sans-Serif" font-size="10.00">src/libs/ifc/xml/vabstractpattern.cpp</text>
</a>
</g>
</g>
<!-- Node1&#45;&gt;Node15 -->
<g id="edge45" class="edge">
<title>Node1&#45;&gt;Node15</title>
<path fill="none" stroke="midnightblue" d="M1254.48,-253.11C1333.31,-249.41 1435.27,-238.96 1464,-210 1499.48,-174.25 1489.69,-105.23 1484.9,-81.09"/>
<polygon fill="midnightblue" stroke="midnightblue" points="1253.85,-249.64 1244.01,-253.57 1254.15,-256.63 1253.85,-249.64"/>
</g>
<!-- Node18 -->
<g id="node18" class="node">
<title>Node18</title>
<g id="a_node18"><a xlink:href="../../d0/d89/vabstractpattern_8h.html" target="_top" xlink:title=" ">
<polygon fill="white" stroke="black" points="1723.5,-190.5 1723.5,-209.5 1904.5,-209.5 1904.5,-190.5 1723.5,-190.5"/>
<text text-anchor="middle" x="1814" y="-197.5" font-family="Helvetica,sans-Serif" font-size="10.00">src/libs/ifc/xml/vabstractpattern.h</text>
</a>
</g>
</g>
<!-- Node1&#45;&gt;Node18 -->
<g id="edge25" class="edge">
<title>Node1&#45;&gt;Node18</title>
<path fill="none" stroke="midnightblue" d="M1254.16,-246.94C1381.02,-236.53 1600.18,-218.55 1723.3,-208.44"/>
<polygon fill="midnightblue" stroke="midnightblue" points="1253.74,-243.47 1244.06,-247.77 1254.31,-250.44 1253.74,-243.47"/>
</g>
<!-- Node34 -->
<g id="node34" class="node">
<title>Node34</title>
<g id="a_node34"><a xlink:href="../../d7/d49/vdomdocument_8cpp.html" target="_top" xlink:title=" ">
<polygon fill="white" stroke="black" points="1267,-190.5 1267,-209.5 1455,-209.5 1455,-190.5 1267,-190.5"/>
<text text-anchor="middle" x="1361" y="-197.5" font-family="Helvetica,sans-Serif" font-size="10.00">src/libs/ifc/xml/vdomdocument.cpp</text>
</a>
</g>
</g>
<!-- Node1&#45;&gt;Node34 -->
<g id="edge44" class="edge">
<title>Node1&#45;&gt;Node34</title>
<path fill="none" stroke="midnightblue" d="M1198.41,-243.83C1237.11,-233.63 1293.49,-218.78 1328.67,-209.52"/>
<polygon fill="midnightblue" stroke="midnightblue" points="1197.26,-240.51 1188.48,-246.44 1199.04,-247.28 1197.26,-240.51"/>
</g>
<!-- Node35 -->
<g id="node35" class="node">
<title>Node35</title>
<g id="a_node35"><a xlink:href="../../d2/d8a/vlabeltemplate_8h.html" target="_top" xlink:title=" ">
<polygon fill="white" stroke="black" points="866.5,-190.5 866.5,-209.5 1045.5,-209.5 1045.5,-190.5 866.5,-190.5"/>
<text text-anchor="middle" x="956" y="-197.5" font-family="Helvetica,sans-Serif" font-size="10.00">src/libs/vformat/vlabeltemplate.h</text>
</a>
</g>
</g>
<!-- Node1&#45;&gt;Node35 -->
<g id="edge46" class="edge">
<title>Node1&#45;&gt;Node35</title>
<path fill="none" stroke="midnightblue" d="M1114.63,-243.83C1076.86,-233.63 1021.86,-218.78 987.54,-209.52"/>
<polygon fill="midnightblue" stroke="midnightblue" points="1113.74,-247.22 1124.31,-246.44 1115.57,-240.46 1113.74,-247.22"/>
</g>
<!-- Node36 -->
<g id="node36" class="node">
<title>Node36</title>
<g id="a_node36"><a xlink:href="../../d4/dd6/vmeasurements_8h.html" target="_top" xlink:title=" ">
<polygon fill="white" stroke="black" points="1063.5,-190.5 1063.5,-209.5 1248.5,-209.5 1248.5,-190.5 1063.5,-190.5"/>
<text text-anchor="middle" x="1156" y="-197.5" font-family="Helvetica,sans-Serif" font-size="10.00">src/libs/vformat/vmeasurements.h</text>
</a>
</g>
</g>
<!-- Node1&#45;&gt;Node36 -->
<g id="edge48" class="edge">
<title>Node1&#45;&gt;Node36</title>
<path fill="none" stroke="midnightblue" d="M1156,-235.8C1156,-226.91 1156,-216.78 1156,-209.75"/>
<polygon fill="midnightblue" stroke="midnightblue" points="1152.5,-236.08 1156,-246.08 1159.5,-236.08 1152.5,-236.08"/>
</g>
<!-- Node2&#45;&gt;Node3 -->
<g id="edge2" class="edge">
<title>Node2&#45;&gt;Node3</title>
<path fill="none" stroke="midnightblue" d="M489.31,-189.15C403.43,-177.66 262.95,-158.88 181.64,-148.01"/>
<polygon fill="midnightblue" stroke="midnightblue" points="488.87,-192.62 499.24,-190.48 489.79,-185.68 488.87,-192.62"/>
</g>
<!-- Node4 -->
<g id="node4" class="node">
<title>Node4</title>
<g id="a_node4"><a xlink:href="../../d6/d2d/vabstractmconverter_8h.html" target="_top" xlink:title=" ">
<polygon fill="white" stroke="black" points="276.5,-129 276.5,-148 477.5,-148 477.5,-129 276.5,-129"/>
<text text-anchor="middle" x="377" y="-136" font-family="Helvetica,sans-Serif" font-size="10.00">src/libs/ifc/xml/vabstractmconverter.h</text>
</a>
</g>
</g>
<!-- Node2&#45;&gt;Node4 -->
<g id="edge3" class="edge">
<title>Node2&#45;&gt;Node4</title>
<path fill="none" stroke="midnightblue" d="M526.68,-187.38C490.52,-175.82 435.9,-158.34 403.6,-148.01"/>
<polygon fill="midnightblue" stroke="midnightblue" points="525.76,-190.76 536.35,-190.48 527.89,-184.09 525.76,-190.76"/>
</g>
<!-- Node5 -->
<g id="node5" class="node">
<title>Node5</title>
<g id="a_node5"><a xlink:href="../../dd/d2b/vabstractmconverter_8cpp.html" target="_top" xlink:title=" ">
<polygon fill="white" stroke="black" points="0,-62 0,-81 212,-81 212,-62 0,-62"/>
<text text-anchor="middle" x="106" y="-69" font-family="Helvetica,sans-Serif" font-size="10.00">src/libs/ifc/xml/vabstractmconverter.cpp</text>
</a>
</g>
</g>
<!-- Node2&#45;&gt;Node5 -->
<g id="edge13" class="edge">
<title>Node2&#45;&gt;Node5</title>
<path fill="none" stroke="midnightblue" d="M456.91,-196.14C398.79,-191.35 326.67,-180.02 267,-154 246.7,-145.15 247.08,-134.23 228,-123 196.98,-104.74 158.13,-89.89 132.71,-81.12"/>
<polygon fill="midnightblue" stroke="midnightblue" points="456.98,-199.66 467.22,-196.93 457.51,-192.68 456.98,-199.66"/>
</g>
<!-- Node7 -->
<g id="node7" class="node">
<title>Node7</title>
<g id="a_node7"><a xlink:href="../../d1/d8f/vvitconverter_8h.html" target="_top" xlink:title=" ">
<polygon fill="white" stroke="black" points="306,-62 306,-81 470,-81 470,-62 306,-62"/>
<text text-anchor="middle" x="388" y="-69" font-family="Helvetica,sans-Serif" font-size="10.00">src/libs/ifc/xml/vvitconverter.h</text>
</a>
</g>
</g>
<!-- Node2&#45;&gt;Node7 -->
<g id="edge20" class="edge">
<title>Node2&#45;&gt;Node7</title>
<path fill="none" stroke="midnightblue" d="M548.93,-182.42C534.35,-165.95 510.34,-140.65 486,-123 461.36,-105.14 429.52,-89.98 408.94,-81.06"/>
<polygon fill="midnightblue" stroke="midnightblue" points="546.44,-184.9 555.64,-190.15 551.72,-180.31 546.44,-184.9"/>
</g>
<!-- Node9 -->
<g id="node9" class="node">
<title>Node9</title>
<g id="a_node9"><a xlink:href="../../d2/d10/vvstconverter_8h.html" target="_top" xlink:title=" ">
<polygon fill="white" stroke="black" points="488.5,-62 488.5,-81 655.5,-81 655.5,-62 488.5,-62"/>
<text text-anchor="middle" x="572" y="-69" font-family="Helvetica,sans-Serif" font-size="10.00">src/libs/ifc/xml/vvstconverter.h</text>
</a>
</g>
</g>
<!-- Node2&#45;&gt;Node9 -->
<g id="edge22" class="edge">
<title>Node2&#45;&gt;Node9</title>
<path fill="none" stroke="midnightblue" d="M564.19,-179.82C565.16,-164.46 566.6,-142.34 568,-123 569.07,-108.26 570.46,-91.12 571.29,-81.08"/>
<polygon fill="midnightblue" stroke="midnightblue" points="560.68,-179.91 563.55,-190.11 567.66,-180.34 560.68,-179.91"/>
</g>
<!-- Node11 -->
<g id="node11" class="node">
<title>Node11</title>
<g id="a_node11"><a xlink:href="../../d5/d35/vlabeltemplateconverter_8h.html" target="_top" xlink:title=" ">
<polygon fill="white" stroke="black" points="987,-129 987,-148 1207,-148 1207,-129 987,-129"/>
<text text-anchor="middle" x="1097" y="-136" font-family="Helvetica,sans-Serif" font-size="10.00">src/libs/ifc/xml/vlabeltemplateconverter.h</text>
</a>
</g>
</g>
<!-- Node2&#45;&gt;Node11 -->
<g id="edge14" class="edge">
<title>Node2&#45;&gt;Node11</title>
<path fill="none" stroke="midnightblue" d="M653.96,-189.43C737.86,-180.53 865.88,-166.75 977,-154 993.37,-152.12 1010.98,-150.03 1027.53,-148.04"/>
<polygon fill="midnightblue" stroke="midnightblue" points="653.52,-185.96 643.95,-190.49 654.26,-192.92 653.52,-185.96"/>
</g>
<!-- Node14 -->
<g id="node14" class="node">
<title>Node14</title>
<g id="a_node14"><a xlink:href="../../df/d2f/vpatternconverter_8h.html" target="_top" xlink:title=" ">
<polygon fill="white" stroke="black" points="781.5,-129 781.5,-148 968.5,-148 968.5,-129 781.5,-129"/>
<text text-anchor="middle" x="875" y="-136" font-family="Helvetica,sans-Serif" font-size="10.00">src/libs/ifc/xml/vpatternconverter.h</text>
</a>
</g>
</g>
<!-- Node2&#45;&gt;Node14 -->
<g id="edge17" class="edge">
<title>Node2&#45;&gt;Node14</title>
<path fill="none" stroke="midnightblue" d="M617.82,-188.55C678.26,-177.02 774.35,-158.69 830.38,-148.01"/>
<polygon fill="midnightblue" stroke="midnightblue" points="616.87,-185.16 607.7,-190.48 618.18,-192.04 616.87,-185.16"/>
</g>
<!-- Node16 -->
<g id="node16" class="node">
<title>Node16</title>
<g id="a_node16"><a xlink:href="../../d5/d2c/vpatternconverter_8cpp.html" target="_top" xlink:title=" ">
<polygon fill="white" stroke="black" points="674,-62 674,-81 872,-81 872,-62 674,-62"/>
<text text-anchor="middle" x="773" y="-69" font-family="Helvetica,sans-Serif" font-size="10.00">src/libs/ifc/xml/vpatternconverter.cpp</text>
</a>
</g>
</g>
<!-- Node2&#45;&gt;Node16 -->
<g id="edge21" class="edge">
<title>Node2&#45;&gt;Node16</title>
<path fill="none" stroke="midnightblue" d="M567.71,-180.25C573.01,-162.97 583.27,-137.83 601,-123 627.98,-100.44 664.65,-87.96 697.21,-81.05"/>
<polygon fill="midnightblue" stroke="midnightblue" points="564.23,-179.71 564.92,-190.28 570.98,-181.59 564.23,-179.71"/>
</g>
<!-- Node17 -->
<g id="node17" class="node">
<title>Node17</title>
<g id="a_node17"><a xlink:href="../../d4/d90/fvupdater_8cpp.html" target="_top" xlink:title=" ">
<polygon fill="white" stroke="black" points="610.5,-129 610.5,-148 763.5,-148 763.5,-129 610.5,-129"/>
<text text-anchor="middle" x="687" y="-136" font-family="Helvetica,sans-Serif" font-size="10.00">src/libs/fervor/fvupdater.cpp</text>
</a>
</g>
</g>
<!-- Node2&#45;&gt;Node17 -->
<g id="edge23" class="edge">
<title>Node2&#45;&gt;Node17</title>
<path fill="none" stroke="midnightblue" d="M590.05,-186.02C614.1,-174.48 648.56,-157.94 669.27,-148.01"/>
<polygon fill="midnightblue" stroke="midnightblue" points="588.27,-182.99 580.77,-190.48 591.3,-189.3 588.27,-182.99"/>
</g>
<!-- Node4&#45;&gt;Node5 -->
<g id="edge4" class="edge">
<title>Node4&#45;&gt;Node5</title>
<path fill="none" stroke="midnightblue" d="M331.41,-126.56C277.98,-113.75 190.57,-92.78 141.79,-81.08"/>
<polygon fill="midnightblue" stroke="midnightblue" points="330.75,-130.01 341.29,-128.94 332.38,-123.2 330.75,-130.01"/>
</g>
<!-- Node6 -->
<g id="node6" class="node">
<title>Node6</title>
<g id="a_node6"><a xlink:href="../../d5/dba/vvitconverter_8cpp.html" target="_top" xlink:title=" ">
<polygon fill="white" stroke="black" points="152,-0.5 152,-19.5 328,-19.5 328,-0.5 152,-0.5"/>
<text text-anchor="middle" x="240" y="-7.5" font-family="Helvetica,sans-Serif" font-size="10.00">src/libs/ifc/xml/vvitconverter.cpp</text>
</a>
</g>
</g>
<!-- Node4&#45;&gt;Node6 -->
<g id="edge5" class="edge">
<title>Node4&#45;&gt;Node6</title>
<path fill="none" stroke="midnightblue" d="M346.53,-124.82C328.1,-116.11 304.97,-103.19 288,-87 266.77,-66.75 250.84,-35.25 243.87,-19.95"/>
<polygon fill="midnightblue" stroke="midnightblue" points="345.12,-128.03 355.68,-129 348.03,-121.66 345.12,-128.03"/>
</g>
<!-- Node4&#45;&gt;Node7 -->
<g id="edge6" class="edge">
<title>Node4&#45;&gt;Node7</title>
<path fill="none" stroke="midnightblue" d="M380.21,-118.54C382.3,-106.17 384.93,-90.62 386.54,-81.13"/>
<polygon fill="midnightblue" stroke="midnightblue" points="376.7,-118.29 378.48,-128.73 383.6,-119.46 376.7,-118.29"/>
</g>
<!-- Node4&#45;&gt;Node9 -->
<g id="edge9" class="edge">
<title>Node4&#45;&gt;Node9</title>
<path fill="none" stroke="midnightblue" d="M412.7,-125.6C451.36,-112.71 512.08,-92.47 546.31,-81.06"/>
<polygon fill="midnightblue" stroke="midnightblue" points="411.27,-122.39 402.89,-128.87 413.49,-129.03 411.27,-122.39"/>
</g>
<!-- Node10 -->
<g id="node10" class="node">
<title>Node10</title>
<g id="a_node10"><a xlink:href="../../d0/dd6/vvstconverter_8cpp.html" target="_top" xlink:title=" ">
<polygon fill="white" stroke="black" points="346,-0.5 346,-19.5 524,-19.5 524,-0.5 346,-0.5"/>
<text text-anchor="middle" x="435" y="-7.5" font-family="Helvetica,sans-Serif" font-size="10.00">src/libs/ifc/xml/vvstconverter.cpp</text>
</a>
</g>
</g>
<!-- Node4&#45;&gt;Node10 -->
<g id="edge12" class="edge">
<title>Node4&#45;&gt;Node10</title>
<path fill="none" stroke="midnightblue" d="M341.47,-124.58C324.8,-116.51 306.55,-104.31 297,-87 290.35,-74.93 288.91,-67.15 297,-56 310.69,-37.13 332.51,-26.03 354.79,-19.53"/>
<polygon fill="midnightblue" stroke="midnightblue" points="340.46,-127.96 351.02,-128.85 343.32,-121.57 340.46,-127.96"/>
</g>
<!-- Node7&#45;&gt;Node6 -->
<g id="edge7" class="edge">
<title>Node7&#45;&gt;Node6</title>
<path fill="none" stroke="midnightblue" d="M357.23,-58.13C328.48,-46.57 286.32,-29.62 261.17,-19.51"/>
<polygon fill="midnightblue" stroke="midnightblue" points="356.21,-61.49 366.8,-61.98 358.82,-55 356.21,-61.49"/>
</g>
<!-- Node8 -->
<g id="node8" class="node">
<title>Node8</title>
<g id="a_node8"><a xlink:href="../../de/db3/vmeasurements_8cpp.html" target="_top" xlink:title=" ">
<polygon fill="white" stroke="black" points="542,-0.5 542,-19.5 738,-19.5 738,-0.5 542,-0.5"/>
<text text-anchor="middle" x="640" y="-7.5" font-family="Helvetica,sans-Serif" font-size="10.00">src/libs/vformat/vmeasurements.cpp</text>
</a>
</g>
</g>
<!-- Node7&#45;&gt;Node8 -->
<g id="edge8" class="edge">
<title>Node7&#45;&gt;Node8</title>
<path fill="none" stroke="midnightblue" d="M434.11,-59.61C483.02,-48.07 559.27,-30.06 603.96,-19.51"/>
<polygon fill="midnightblue" stroke="midnightblue" points="433.03,-56.27 424.11,-61.98 434.64,-63.08 433.03,-56.27"/>
</g>
<!-- Node9&#45;&gt;Node8 -->
<g id="edge11" class="edge">
<title>Node9&#45;&gt;Node8</title>
<path fill="none" stroke="midnightblue" d="M589.54,-55.15C602.51,-43.81 619.68,-28.78 630.28,-19.51"/>
<polygon fill="midnightblue" stroke="midnightblue" points="586.96,-52.76 581.74,-61.98 591.57,-58.02 586.96,-52.76"/>
</g>
<!-- Node9&#45;&gt;Node10 -->
<g id="edge10" class="edge">
<title>Node9&#45;&gt;Node10</title>
<path fill="none" stroke="midnightblue" d="M543.17,-57.98C516.56,-46.42 477.77,-29.58 454.59,-19.51"/>
<polygon fill="midnightblue" stroke="midnightblue" points="541.8,-61.2 552.37,-61.98 544.59,-54.78 541.8,-61.2"/>
</g>
<!-- Node12 -->
<g id="node12" class="node">
<title>Node12</title>
<g id="a_node12"><a xlink:href="../../d7/d63/vlabeltemplateconverter_8cpp.html" target="_top" xlink:title=" ">
<polygon fill="white" stroke="black" points="890.5,-62 890.5,-81 1121.5,-81 1121.5,-62 890.5,-62"/>
<text text-anchor="middle" x="1006" y="-69" font-family="Helvetica,sans-Serif" font-size="10.00">src/libs/ifc/xml/vlabeltemplateconverter.cpp</text>
</a>
</g>
</g>
<!-- Node11&#45;&gt;Node12 -->
<g id="edge15" class="edge">
<title>Node11&#45;&gt;Node12</title>
<path fill="none" stroke="midnightblue" d="M1076.59,-122.92C1058.6,-110.07 1032.99,-91.78 1018.08,-81.13"/>
<polygon fill="midnightblue" stroke="midnightblue" points="1074.56,-125.77 1084.73,-128.73 1078.62,-120.07 1074.56,-125.77"/>
</g>
<!-- Node13 -->
<g id="node13" class="node">
<title>Node13</title>
<g id="a_node13"><a xlink:href="../../d9/daf/vlabeltemplate_8cpp.html" target="_top" xlink:title=" ">
<polygon fill="white" stroke="black" points="1139.5,-62 1139.5,-81 1330.5,-81 1330.5,-62 1139.5,-62"/>
<text text-anchor="middle" x="1235" y="-69" font-family="Helvetica,sans-Serif" font-size="10.00">src/libs/vformat/vlabeltemplate.cpp</text>
</a>
</g>
</g>
<!-- Node11&#45;&gt;Node13 -->
<g id="edge16" class="edge">
<title>Node11&#45;&gt;Node13</title>
<path fill="none" stroke="midnightblue" d="M1124.72,-124.44C1152.05,-111.57 1193.05,-92.26 1216.6,-81.17"/>
<polygon fill="midnightblue" stroke="midnightblue" points="1122.88,-121.44 1115.33,-128.87 1125.86,-127.77 1122.88,-121.44"/>
</g>
<!-- Node14&#45;&gt;Node15 -->
<g id="edge18" class="edge">
<title>Node14&#45;&gt;Node15</title>
<path fill="none" stroke="midnightblue" d="M942.65,-127.58C954.42,-125.97 966.56,-124.38 978,-123 1138.09,-103.76 1178.56,-103.08 1339,-87 1358.25,-85.07 1378.95,-82.99 1398.48,-81.02"/>
<polygon fill="midnightblue" stroke="midnightblue" points="941.85,-124.16 932.42,-129 942.81,-131.09 941.85,-124.16"/>
</g>
<!-- Node14&#45;&gt;Node16 -->
<g id="edge19" class="edge">
<title>Node14&#45;&gt;Node16</title>
<path fill="none" stroke="midnightblue" d="M852.67,-123.27C832.48,-110.4 803.41,-91.88 786.54,-81.13"/>
<polygon fill="midnightblue" stroke="midnightblue" points="850.93,-126.31 861.24,-128.73 854.69,-120.41 850.93,-126.31"/>
</g>
<!-- Node18&#45;&gt;Node15 -->
<g id="edge26" class="edge">
<title>Node18&#45;&gt;Node15</title>
<path fill="none" stroke="midnightblue" d="M1713.21,-190.66C1647.36,-183.67 1568.48,-171.92 1540,-154 1511.5,-136.07 1493.35,-98.17 1486.31,-81.12"/>
<polygon fill="midnightblue" stroke="midnightblue" points="1712.94,-194.15 1723.24,-191.7 1713.66,-187.19 1712.94,-194.15"/>
</g>
<!-- Node19 -->
<g id="node19" class="node">
<title>Node19</title>
<g id="a_node19"><a xlink:href="../../d6/de0/vlayoutpiece_8h.html" target="_top" xlink:title=" ">
<polygon fill="white" stroke="black" points="2103,-129 2103,-148 2269,-148 2269,-129 2103,-129"/>
<text text-anchor="middle" x="2186" y="-136" font-family="Helvetica,sans-Serif" font-size="10.00">src/libs/vlayout/vlayoutpiece.h</text>
</a>
</g>
</g>
<!-- Node18&#45;&gt;Node19 -->
<g id="edge27" class="edge">
<title>Node18&#45;&gt;Node19</title>
<path fill="none" stroke="midnightblue" d="M1877.58,-188.83C1949.53,-177.32 2065.45,-158.78 2132.8,-148.01"/>
<polygon fill="midnightblue" stroke="midnightblue" points="1876.62,-185.44 1867.3,-190.48 1877.73,-192.35 1876.62,-185.44"/>
</g>
<!-- Node29 -->
<g id="node29" class="node">
<title>Node29</title>
<g id="a_node29"><a xlink:href="../../d8/d70/vtextmanager_8cpp.html" target="_top" xlink:title=" ">
<polygon fill="white" stroke="black" points="1549,-129 1549,-148 1731,-148 1731,-129 1549,-129"/>
<text text-anchor="middle" x="1640" y="-136" font-family="Helvetica,sans-Serif" font-size="10.00">src/libs/vlayout/vtextmanager.cpp</text>
</a>
</g>
</g>
<!-- Node18&#45;&gt;Node29 -->
<g id="edge39" class="edge">
<title>Node18&#45;&gt;Node29</title>
<path fill="none" stroke="midnightblue" d="M1779.59,-187.23C1745.76,-175.67 1694.97,-158.3 1664.88,-148.01"/>
<polygon fill="midnightblue" stroke="midnightblue" points="1778.48,-190.55 1789.07,-190.48 1780.74,-183.93 1778.48,-190.55"/>
</g>
<!-- Node30 -->
<g id="node30" class="node">
<title>Node30</title>
<g id="a_node30"><a xlink:href="../../d0/da5/export__format__combobox_8h.html" target="_top" xlink:title=" ">
<polygon fill="white" stroke="black" points="2602.5,-123.5 2602.5,-153.5 2735.5,-153.5 2735.5,-123.5 2602.5,-123.5"/>
<text text-anchor="start" x="2610.5" y="-141.5" font-family="Helvetica,sans-Serif" font-size="10.00">src/libs/vwidgets/export</text>
<text text-anchor="middle" x="2669" y="-130.5" font-family="Helvetica,sans-Serif" font-size="10.00">_format_combobox.h</text>
</a>
</g>
</g>
<!-- Node18&#45;&gt;Node30 -->
<g id="edge40" class="edge">
<title>Node18&#45;&gt;Node30</title>
<path fill="none" stroke="midnightblue" d="M1914.78,-191.99C2091.57,-179.68 2453,-154.53 2602.25,-144.15"/>
<polygon fill="midnightblue" stroke="midnightblue" points="1914.42,-188.5 1904.69,-192.69 1914.91,-195.49 1914.42,-188.5"/>
</g>
<!-- Node32 -->
<g id="node32" class="node">
<title>Node32</title>
<g id="a_node32"><a xlink:href="../../d7/df4/group__tablewidgetitem_8cpp.html" target="_top" xlink:title=" ">
<polygon fill="white" stroke="black" points="1749.5,-123.5 1749.5,-153.5 1878.5,-153.5 1878.5,-123.5 1749.5,-123.5"/>
<text text-anchor="start" x="1757.5" y="-141.5" font-family="Helvetica,sans-Serif" font-size="10.00">src/libs/vwidgets/group</text>
<text text-anchor="middle" x="1814" y="-130.5" font-family="Helvetica,sans-Serif" font-size="10.00">_tablewidgetitem.cpp</text>
</a>
</g>
</g>
<!-- Node18&#45;&gt;Node32 -->
<g id="edge42" class="edge">
<title>Node18&#45;&gt;Node32</title>
<path fill="none" stroke="midnightblue" d="M1814,-180.23C1814,-171.59 1814,-161.5 1814,-153.52"/>
<polygon fill="midnightblue" stroke="midnightblue" points="1810.5,-180.48 1814,-190.48 1817.5,-180.48 1810.5,-180.48"/>
</g>
<!-- Node33 -->
<g id="node33" class="node">
<title>Node33</title>
<g id="a_node33"><a xlink:href="../../de/d22/vsimplecurve_8cpp.html" target="_top" xlink:title=" ">
<polygon fill="white" stroke="black" points="1897,-129 1897,-148 2085,-148 2085,-129 1897,-129"/>
<text text-anchor="middle" x="1991" y="-136" font-family="Helvetica,sans-Serif" font-size="10.00">src/libs/vwidgets/vsimplecurve.cpp</text>
</a>
</g>
</g>
<!-- Node18&#45;&gt;Node33 -->
<g id="edge43" class="edge">
<title>Node18&#45;&gt;Node33</title>
<path fill="none" stroke="midnightblue" d="M1849.01,-187.23C1883.41,-175.67 1935.08,-158.3 1965.69,-148.01"/>
<polygon fill="midnightblue" stroke="midnightblue" points="1847.72,-183.97 1839.36,-190.48 1849.95,-190.61 1847.72,-183.97"/>
</g>
<!-- Node20 -->
<g id="node20" class="node">
<title>Node20</title>
<g id="a_node20"><a xlink:href="../../dd/d66/vdxfengine_8cpp.html" target="_top" xlink:title=" ">
<polygon fill="white" stroke="black" points="2243,-62 2243,-81 2397,-81 2397,-62 2243,-62"/>
<text text-anchor="middle" x="2320" y="-69" font-family="Helvetica,sans-Serif" font-size="10.00">src/libs/vdxf/vdxfengine.cpp</text>
</a>
</g>
</g>
<!-- Node19&#45;&gt;Node20 -->
<g id="edge28" class="edge">
<title>Node19&#45;&gt;Node20</title>
<path fill="none" stroke="midnightblue" d="M2212.92,-124.44C2239.46,-111.57 2279.27,-92.26 2302.13,-81.17"/>
<polygon fill="midnightblue" stroke="midnightblue" points="2211.26,-121.35 2203.79,-128.87 2214.32,-127.65 2211.26,-121.35"/>
</g>
<!-- Node21 -->
<g id="node21" class="node">
<title>Node21</title>
<g id="a_node21"><a xlink:href="../../de/da8/vbank_8cpp.html" target="_top" xlink:title=" ">
<polygon fill="white" stroke="black" points="2415,-62 2415,-81 2559,-81 2559,-62 2415,-62"/>
<text text-anchor="middle" x="2487" y="-69" font-family="Helvetica,sans-Serif" font-size="10.00">src/libs/vlayout/vbank.cpp</text>
</a>
</g>
</g>
<!-- Node19&#45;&gt;Node21 -->
<g id="edge29" class="edge">
<title>Node19&#45;&gt;Node21</title>
<path fill="none" stroke="midnightblue" d="M2235.54,-126.8C2294.77,-114.01 2392.73,-92.86 2447.25,-81.08"/>
<polygon fill="midnightblue" stroke="midnightblue" points="2234.7,-123.4 2225.66,-128.94 2236.17,-130.25 2234.7,-123.4"/>
</g>
<!-- Node22 -->
<g id="node22" class="node">
<title>Node22</title>
<g id="a_node22"><a xlink:href="../../df/d5d/vcontour_8cpp.html" target="_top" xlink:title=" ">
<polygon fill="white" stroke="black" points="2577,-62 2577,-81 2733,-81 2733,-62 2577,-62"/>
<text text-anchor="middle" x="2655" y="-69" font-family="Helvetica,sans-Serif" font-size="10.00">src/libs/vlayout/vcontour.cpp</text>
</a>
</g>
</g>
<!-- Node19&#45;&gt;Node22 -->
<g id="edge30" class="edge">
<title>Node19&#45;&gt;Node22</title>
<path fill="none" stroke="midnightblue" d="M2265.96,-127.73C2343.32,-118.08 2463.84,-102.56 2568,-87 2580.12,-85.19 2593.15,-83.1 2605.36,-81.07"/>
<polygon fill="midnightblue" stroke="midnightblue" points="2265.3,-124.28 2255.81,-128.99 2266.16,-131.23 2265.3,-124.28"/>
</g>
<!-- Node23 -->
<g id="node23" class="node">
<title>Node23</title>
<g id="a_node23"><a xlink:href="../../d2/d2d/vlayoutpaper__p_8h.html" target="_top" xlink:title=" ">
<polygon fill="white" stroke="black" points="1850.5,-62 1850.5,-81 2029.5,-81 2029.5,-62 1850.5,-62"/>
<text text-anchor="middle" x="1940" y="-69" font-family="Helvetica,sans-Serif" font-size="10.00">src/libs/vlayout/vlayoutpaper_p.h</text>
</a>
</g>
</g>
<!-- Node19&#45;&gt;Node23 -->
<g id="edge31" class="edge">
<title>Node19&#45;&gt;Node23</title>
<path fill="none" stroke="midnightblue" d="M2143.7,-126.32C2095.13,-113.49 2016.49,-92.71 1972.48,-81.08"/>
<polygon fill="midnightblue" stroke="midnightblue" points="2143.02,-129.76 2153.59,-128.94 2144.81,-123 2143.02,-129.76"/>
</g>
<!-- Node24 -->
<g id="node24" class="node">
<title>Node24</title>
<g id="a_node24"><a xlink:href="../../d1/dd1/vlayoutpaper_8cpp.html" target="_top" xlink:title=" ">
<polygon fill="white" stroke="black" points="1851,-0.5 1851,-19.5 2029,-19.5 2029,-0.5 1851,-0.5"/>
<text text-anchor="middle" x="1940" y="-7.5" font-family="Helvetica,sans-Serif" font-size="10.00">src/libs/vlayout/vlayoutpaper.cpp</text>
</a>
</g>
</g>
<!-- Node19&#45;&gt;Node24 -->
<g id="edge34" class="edge">
<title>Node19&#45;&gt;Node24</title>
<path fill="none" stroke="midnightblue" d="M2126.3,-127.38C2115.57,-125.77 2104.47,-124.23 2094,-123 2042.2,-116.94 1661.44,-125.27 1626,-87 1616.64,-76.89 1616.98,-66.41 1626,-56 1654.63,-22.97 1768.5,-13.6 1850.88,-11.25"/>
<polygon fill="midnightblue" stroke="midnightblue" points="2126.03,-130.88 2136.44,-128.95 2127.09,-123.96 2126.03,-130.88"/>
</g>
<!-- Node25 -->
<g id="node25" class="node">
<title>Node25</title>
<g id="a_node25"><a xlink:href="../../d3/d39/vlayoutgenerator_8cpp.html" target="_top" xlink:title=" ">
<polygon fill="white" stroke="black" points="1635.5,-62 1635.5,-81 1832.5,-81 1832.5,-62 1635.5,-62"/>
<text text-anchor="middle" x="1734" y="-69" font-family="Helvetica,sans-Serif" font-size="10.00">src/libs/vlayout/vlayoutgenerator.cpp</text>
</a>
</g>
</g>
<!-- Node19&#45;&gt;Node25 -->
<g id="edge33" class="edge">
<title>Node19&#45;&gt;Node25</title>
<path fill="none" stroke="midnightblue" d="M2122.99,-127.42C2113.28,-125.91 2103.38,-124.4 2094,-123 1990.06,-107.52 1869.04,-90.81 1797.13,-81.03"/>
<polygon fill="midnightblue" stroke="midnightblue" points="2122.57,-130.9 2133,-128.99 2123.66,-123.99 2122.57,-130.9"/>
</g>
<!-- Node26 -->
<g id="node26" class="node">
<title>Node26</title>
<g id="a_node26"><a xlink:href="../../db/d5c/vposition_8h.html" target="_top" xlink:title=" ">
<polygon fill="white" stroke="black" points="2751,-62 2751,-81 2899,-81 2899,-62 2751,-62"/>
<text text-anchor="middle" x="2825" y="-69" font-family="Helvetica,sans-Serif" font-size="10.00">src/libs/vlayout/vposition.h</text>
</a>
</g>
</g>
<!-- Node19&#45;&gt;Node26 -->
<g id="edge35" class="edge">
<title>Node19&#45;&gt;Node26</title>
<path fill="none" stroke="midnightblue" d="M2279.26,-131.39C2389.92,-123.59 2579.87,-108.49 2742,-87 2754.47,-85.35 2767.93,-83.17 2780.31,-81"/>
<polygon fill="midnightblue" stroke="midnightblue" points="2278.86,-127.91 2269.13,-132.1 2279.35,-134.89 2278.86,-127.91"/>
</g>
<!-- Node28 -->
<g id="node28" class="node">
<title>Node28</title>
<g id="a_node28"><a xlink:href="../../dd/d70/vlayoutpiece_8cpp.html" target="_top" xlink:title=" ">
<polygon fill="white" stroke="black" points="2047.5,-62 2047.5,-81 2224.5,-81 2224.5,-62 2047.5,-62"/>
<text text-anchor="middle" x="2136" y="-69" font-family="Helvetica,sans-Serif" font-size="10.00">src/libs/vlayout/vlayoutpiece.cpp</text>
</a>
</g>
</g>
<!-- Node19&#45;&gt;Node28 -->
<g id="edge38" class="edge">
<title>Node19&#45;&gt;Node28</title>
<path fill="none" stroke="midnightblue" d="M2173.13,-120.77C2163.38,-108.1 2150.39,-91.2 2142.64,-81.13"/>
<polygon fill="midnightblue" stroke="midnightblue" points="2170.39,-122.94 2179.26,-128.73 2175.93,-118.67 2170.39,-122.94"/>
</g>
<!-- Node23&#45;&gt;Node24 -->
<g id="edge32" class="edge">
<title>Node23&#45;&gt;Node24</title>
<path fill="none" stroke="midnightblue" d="M1940,-51.82C1940,-41 1940,-27.9 1940,-19.51"/>
<polygon fill="midnightblue" stroke="midnightblue" points="1936.5,-51.98 1940,-61.98 1943.5,-51.98 1936.5,-51.98"/>
</g>
<!-- Node26&#45;&gt;Node24 -->
<g id="edge36" class="edge">
<title>Node26&#45;&gt;Node24</title>
<path fill="none" stroke="midnightblue" d="M2771.58,-60.22C2761.77,-58.6 2751.6,-57.1 2742,-56 2484.31,-26.36 2177.71,-16.04 2029.3,-12.61"/>
<polygon fill="midnightblue" stroke="midnightblue" points="2771.19,-63.7 2781.63,-61.94 2772.36,-56.8 2771.19,-63.7"/>
</g>
<!-- Node27 -->
<g id="node27" class="node">
<title>Node27</title>
<g id="a_node27"><a xlink:href="../../df/d76/vposition_8cpp.html" target="_top" xlink:title=" ">
<polygon fill="white" stroke="black" points="2745.5,-0.5 2745.5,-19.5 2904.5,-19.5 2904.5,-0.5 2745.5,-0.5"/>
<text text-anchor="middle" x="2825" y="-7.5" font-family="Helvetica,sans-Serif" font-size="10.00">src/libs/vlayout/vposition.cpp</text>
</a>
</g>
</g>
<!-- Node26&#45;&gt;Node27 -->
<g id="edge37" class="edge">
<title>Node26&#45;&gt;Node27</title>
<path fill="none" stroke="midnightblue" d="M2825,-51.82C2825,-41 2825,-27.9 2825,-19.51"/>
<polygon fill="midnightblue" stroke="midnightblue" points="2821.5,-51.98 2825,-61.98 2828.5,-51.98 2821.5,-51.98"/>
</g>
<!-- Node31 -->
<g id="node31" class="node">
<title>Node31</title>
<g id="a_node31"><a xlink:href="../../df/d40/export__format__combobox_8cpp.html" target="_top" xlink:title=" ">
<polygon fill="white" stroke="black" points="2917.5,-56.5 2917.5,-86.5 3050.5,-86.5 3050.5,-56.5 2917.5,-56.5"/>
<text text-anchor="start" x="2925.5" y="-74.5" font-family="Helvetica,sans-Serif" font-size="10.00">src/libs/vwidgets/export</text>
<text text-anchor="middle" x="2984" y="-63.5" font-family="Helvetica,sans-Serif" font-size="10.00">_format_combobox.cpp</text>
</a>
</g>
</g>
<!-- Node30&#45;&gt;Node31 -->
<g id="edge41" class="edge">
<title>Node30&#45;&gt;Node31</title>
<path fill="none" stroke="midnightblue" d="M2745.74,-121.67C2798.22,-110.84 2867.1,-96.62 2917.29,-86.26"/>
<polygon fill="midnightblue" stroke="midnightblue" points="2744.89,-118.27 2735.8,-123.72 2746.3,-125.12 2744.89,-118.27"/>
</g>
<!-- Node35&#45;&gt;Node13 -->
<g id="edge47" class="edge">
<title>Node35&#45;&gt;Node13</title>
<path fill="none" stroke="midnightblue" d="M1039.61,-189.18C1110.64,-180.09 1203.1,-166.18 1216,-154 1236.5,-134.65 1236.84,-97.82 1235.8,-81.12"/>
<polygon fill="midnightblue" stroke="midnightblue" points="1038.78,-185.76 1029.3,-190.49 1039.66,-192.7 1038.78,-185.76"/>
</g>
<!-- Node36&#45;&gt;Node8 -->
<g id="edge49" class="edge">
<title>Node36&#45;&gt;Node8</title>
<path fill="none" stroke="midnightblue" d="M1194.46,-187.26C1262.47,-164.7 1391.97,-112.49 1339,-56 1318.78,-34.43 925.79,-19.66 738.14,-13.81"/>
<polygon fill="midnightblue" stroke="midnightblue" points="1193.33,-183.95 1184.91,-190.37 1195.5,-190.61 1193.33,-183.95"/>
</g>
</g>
</svg>
        <g id="navigator" transform="translate(0 0)" fill="#404254">
                <rect fill="#f2f5e9" fill-opacity="0.5" stroke="#606060" stroke-width=".5" x="0" y="0" width="60" height="60"/>
                <use id="zoomplus" xlink:href="#zoomPlus" x="17" y="9" onmousedown="handleZoom(evt,'in')"/>
                <use id="zoomminus" xlink:href="#zoomMin" x="42" y="9" onmousedown="handleZoom(evt,'out')"/>
                <use id="reset" xlink:href="#resetDef" x="30" y="36" onmousedown="handleReset()"/>
                <g id="arrowUp" xlink:href="#dirArrow" transform="translate(30 24)" onmousedown="handlePan(0,-1)">
                  <use xlink:href="#rim" fill="#404040">
                        <set attributeName="fill" to="#808080" begin="arrowUp.mouseover" end="arrowUp.mouseout"/>
                  </use>
                  <path fill="none" stroke="white" stroke-width="1.5" d="M0,-3.0v7 M-2.5,-0.5L0,-3.0L2.5,-0.5"/>
                </g>
                <g id="arrowRight" xlink:href="#dirArrow" transform="rotate(90) translate(36 -43)" onmousedown="handlePan(1,0)">
                  <use xlink:href="#rim" fill="#404040">
                        <set attributeName="fill" to="#808080" begin="arrowRight.mouseover" end="arrowRight.mouseout"/>
                  </use>
                  <path fill="none" stroke="white" stroke-width="1.5" d="M0,-3.0v7 M-2.5,-0.5L0,-3.0L2.5,-0.5"/>
                </g>
                <g id="arrowDown" xlink:href="#dirArrow" transform="rotate(180) translate(-30 -48)" onmousedown="handlePan(0,1)">
                  <use xlink:href="#rim" fill="#404040">
                        <set attributeName="fill" to="#808080" begin="arrowDown.mouseover" end="arrowDown.mouseout"/>
                  </use>
                  <path fill="none" stroke="white" stroke-width="1.5" d="M0,-3.0v7 M-2.5,-0.5L0,-3.0L2.5,-0.5"/>
                </g>
                <g id="arrowLeft" xlink:href="#dirArrow" transform="rotate(270) translate(-36 17)" onmousedown="handlePan(-1,0)">
                  <use xlink:href="#rim" fill="#404040">
                        <set attributeName="fill" to="#808080" begin="arrowLeft.mouseover" end="arrowLeft.mouseout"/>
                  </use>
                  <path fill="none" stroke="white" stroke-width="1.5" d="M0,-3.0v7 M-2.5,-0.5L0,-3.0L2.5,-0.5"/>
                </g>
        </g>
        <svg viewBox="0 0 15 15" width="100%" height="30px" preserveAspectRatio="xMaxYMin meet">
         <g id="arrow_out" transform="scale(0.3 0.3)">
          <a xlink:href="vdomdocument_8h__dep__incl_org.svg" target="_base">
           <rect id="button" ry="5" rx="5" y="6" x="6" height="38" width="38"
                fill="#f2f5e9" fill-opacity="0.5" stroke="#606060" stroke-width="1.0"/>
           <path id="arrow"
             d="M 11.500037,31.436501 C 11.940474,20.09759 22.043105,11.32322 32.158766,21.979434 L 37.068811,17.246167 C 37.068811,17.246167 37.088388,32 37.088388,32 L 22.160133,31.978069 C 22.160133,31.978069 26.997745,27.140456 26.997745,27.140456 C 18.528582,18.264221 13.291696,25.230495 11.500037,31.436501 z"
             style="fill:#404040;"/>
          </a>
         </g>
        </svg>
</svg>
