<?xml version="1.0" encoding="UTF-8" standalone="no"?>
<!DOCTYPE svg PUBLIC "-//W3C//DTD SVG 1.1//EN"
 "http://www.w3.org/Graphics/SVG/1.1/DTD/svg11.dtd">
<!-- Generated by graphviz version 2.43.0 (0)
 -->
<!-- Title: Graphical Class Hierarchy Pages: 1 -->
<svg width="256pt" height="175pt"
 viewBox="0.00 0.00 256.00 175.00" xmlns="http://www.w3.org/2000/svg" xmlns:xlink="http://www.w3.org/1999/xlink">
<g id="graph0" class="graph" transform="scale(1 1) rotate(0) translate(4 171)">
<title>Graphical Class Hierarchy</title>
<!-- Node0 -->
<g id="Node000000" class="node">
<title>Node0</title>
<g id="a_Node000000"><a xlink:title=" ">
<polygon fill="#e0e0e0" stroke="#999999" points="77,-93 0,-93 0,-74 77,-74 77,-93"/>
<text text-anchor="middle" x="38.5" y="-81" font-family="Helvetica,sans-Serif" font-size="10.00">QComboBox</text>
</a>
</g>
</g>
<!-- Node1 -->
<g id="Node000001" class="node">
<title>Node1</title>
<g id="a_Node000001"><a xlink:href="d5/d10/classColorComboBox.html" target="_top" xlink:title=" ">
<polygon fill="white" stroke="#666666" points="228,-167 133,-167 133,-148 228,-148 228,-167"/>
<text text-anchor="middle" x="180.5" y="-155" font-family="Helvetica,sans-Serif" font-size="10.00">ColorComboBox</text>
</a>
</g>
</g>
<!-- Node0&#45;&gt;Node1 -->
<g id="edge10_Node000000_Node000001" class="edge">
<title>Node0&#45;&gt;Node1</title>
<g id="a_edge10_Node000000_Node000001"><a xlink:title=" ">
<path fill="none" stroke="#63b8ff" d="M57.07,-100.04C71.19,-112.52 92.07,-129.19 113,-139.5 119.76,-142.83 127.22,-145.61 134.63,-147.91"/>
<polygon fill="#63b8ff" stroke="#63b8ff" points="59.35,-97.38 49.58,-93.26 54.65,-102.57 59.35,-97.38"/>
</a>
</g>
</g>
<!-- Node2 -->
<g id="Node000002" class="node">
<title>Node2</title>
<g id="a_Node000002"><a xlink:href="d4/d06/classExportFormatCombobox.html" target="_top" xlink:title=" ">
<polygon fill="white" stroke="#666666" points="248,-130 113,-130 113,-111 248,-111 248,-130"/>
<text text-anchor="middle" x="180.5" y="-118" font-family="Helvetica,sans-Serif" font-size="10.00">ExportFormatCombobox</text>
</a>
</g>
</g>
<!-- Node0&#45;&gt;Node2 -->
<g id="edge11_Node000000_Node000002" class="edge">
<title>Node0&#45;&gt;Node2</title>
<g id="a_edge11_Node000000_Node000002"><a xlink:title=" ">
<path fill="none" stroke="#63b8ff" d="M85.36,-95.62C104.09,-100.57 125.45,-106.22 143.08,-110.88"/>
<polygon fill="#63b8ff" stroke="#63b8ff" points="86.12,-92.2 75.55,-93.03 84.33,-98.97 86.12,-92.2"/>
</a>
</g>
</g>
<!-- Node3 -->
<g id="Node000003" class="node">
<title>Node3</title>
<g id="a_Node000003"><a xlink:href="d9/de2/classLineTypeComboBox.html" target="_top" xlink:title=" ">
<polygon fill="white" stroke="#666666" points="237,-93 124,-93 124,-74 237,-74 237,-93"/>
<text text-anchor="middle" x="180.5" y="-81" font-family="Helvetica,sans-Serif" font-size="10.00">LineTypeComboBox</text>
</a>
</g>
</g>
<!-- Node0&#45;&gt;Node3 -->
<g id="edge12_Node000000_Node000003" class="edge">
<title>Node0&#45;&gt;Node3</title>
<g id="a_edge12_Node000000_Node000003"><a xlink:title=" ">
<path fill="none" stroke="#63b8ff" d="M87.14,-83.5C98.99,-83.5 111.78,-83.5 123.97,-83.5"/>
<polygon fill="#63b8ff" stroke="#63b8ff" points="87.02,-80 77.02,-83.5 87.02,-87 87.02,-80"/>
</a>
</g>
</g>
<!-- Node4 -->
<g id="Node000004" class="node">
<title>Node4</title>
<g id="a_Node000004"><a xlink:href="d6/d43/classLineWeightComboBox.html" target="_top" xlink:title=" ">
<polygon fill="white" stroke="#666666" points="242.5,-56 118.5,-56 118.5,-37 242.5,-37 242.5,-56"/>
<text text-anchor="middle" x="180.5" y="-44" font-family="Helvetica,sans-Serif" font-size="10.00">LineWeightComboBox</text>
</a>
</g>
</g>
<!-- Node0&#45;&gt;Node4 -->
<g id="edge13_Node000000_Node000004" class="edge">
<title>Node0&#45;&gt;Node4</title>
<g id="a_edge13_Node000000_Node000004"><a xlink:title=" ">
<path fill="none" stroke="#63b8ff" d="M85.36,-71.38C104.09,-66.43 125.45,-60.78 143.08,-56.12"/>
<polygon fill="#63b8ff" stroke="#63b8ff" points="84.33,-68.03 75.55,-73.97 86.12,-74.8 84.33,-68.03"/>
</a>
</g>
</g>
<!-- Node5 -->
<g id="Node000005" class="node">
<title>Node5</title>
<g id="a_Node000005"><a xlink:href="d8/d5b/classPieceFillComboBox.html" target="_top" xlink:title=" ">
<polygon fill="white" stroke="#666666" points="235.5,-19 125.5,-19 125.5,0 235.5,0 235.5,-19"/>
<text text-anchor="middle" x="180.5" y="-7" font-family="Helvetica,sans-Serif" font-size="10.00">PieceFillComboBox</text>
</a>
</g>
</g>
<!-- Node0&#45;&gt;Node5 -->
<g id="edge14_Node000000_Node000005" class="edge">
<title>Node0&#45;&gt;Node5</title>
<g id="a_edge14_Node000000_Node000005"><a xlink:title=" ">
<path fill="none" stroke="#63b8ff" d="M57.16,-67.35C71.34,-55.15 92.23,-38.8 113,-28.5 120.53,-24.77 128.91,-21.65 137.12,-19.1"/>
<polygon fill="#63b8ff" stroke="#63b8ff" points="54.83,-64.74 49.65,-73.98 59.46,-69.99 54.83,-64.74"/>
</a>
</g>
</g>
</g>
</svg>
