<?xml version="1.0" encoding="UTF-8" standalone="no"?>
<!DOCTYPE svg PUBLIC "-//W3C//DTD SVG 1.1//EN"
 "http://www.w3.org/Graphics/SVG/1.1/DTD/svg11.dtd">
<!-- Generated by graphviz version 2.43.0 (0)
 -->
<!-- Title: Graphical Class Hierarchy Pages: 1 -->
<svg width="365pt" height="221pt"
 viewBox="0.00 0.00 365.00 221.00" xmlns="http://www.w3.org/2000/svg" xmlns:xlink="http://www.w3.org/1999/xlink">
<g id="graph0" class="graph" transform="scale(1 1) rotate(0) translate(4 217)">
<title>Graphical Class Hierarchy</title>
<!-- Node0 -->
<g id="Node000000" class="node">
<title>Node0</title>
<g id="a_Node000000"><a xlink:href="d4/d3d/classVInternalVariable.html" target="_top" xlink:title=" ">
<polygon fill="white" stroke="#666666" points="101,-92 0,-92 0,-73 101,-73 101,-92"/>
<text text-anchor="middle" x="50.5" y="-80" font-family="Helvetica,sans-Serif" font-size="10.00">VInternalVariable</text>
</a>
</g>
</g>
<!-- Node1 -->
<g id="Node000001" class="node">
<title>Node1</title>
<g id="a_Node000001"><a xlink:href="d3/d5a/classVCurveVariable.html" target="_top" xlink:title=" ">
<polygon fill="white" stroke="#666666" points="229,-148 137,-148 137,-129 229,-129 229,-148"/>
<text text-anchor="middle" x="183" y="-136" font-family="Helvetica,sans-Serif" font-size="10.00">VCurveVariable</text>
</a>
</g>
</g>
<!-- Node0&#45;&gt;Node1 -->
<g id="edge392_Node000000_Node000001" class="edge">
<title>Node0&#45;&gt;Node1</title>
<g id="a_edge392_Node000000_Node000001"><a xlink:title=" ">
<path fill="none" stroke="#63b8ff" d="M82.02,-96.4C98.28,-103.72 118.66,-112.76 137,-120.5 143.67,-123.31 150.93,-126.27 157.64,-128.95"/>
<polygon fill="#63b8ff" stroke="#63b8ff" points="83.04,-93.02 72.49,-92.09 80.16,-99.4 83.04,-93.02"/>
</a>
</g>
</g>
<!-- Node6 -->
<g id="Node000006" class="node">
<title>Node6</title>
<g id="a_Node000006"><a xlink:href="d6/d57/classVLengthLine.html" target="_top" xlink:title=" ">
<polygon fill="white" stroke="#666666" points="221.5,-111 144.5,-111 144.5,-92 221.5,-92 221.5,-111"/>
<text text-anchor="middle" x="183" y="-99" font-family="Helvetica,sans-Serif" font-size="10.00">VLengthLine</text>
</a>
</g>
</g>
<!-- Node0&#45;&gt;Node6 -->
<g id="edge397_Node000000_Node000006" class="edge">
<title>Node0&#45;&gt;Node6</title>
<g id="a_edge397_Node000000_Node000006"><a xlink:title=" ">
<path fill="none" stroke="#63b8ff" d="M111.37,-91.22C122.54,-92.84 133.93,-94.5 144.2,-96"/>
<polygon fill="#63b8ff" stroke="#63b8ff" points="111.61,-87.71 101.21,-89.74 110.6,-94.64 111.61,-87.71"/>
</a>
</g>
</g>
<!-- Node7 -->
<g id="Node000007" class="node">
<title>Node7</title>
<g id="a_Node000007"><a xlink:href="d1/d88/classVLineAngle.html" target="_top" xlink:title=" ">
<polygon fill="white" stroke="#666666" points="218.5,-74 147.5,-74 147.5,-55 218.5,-55 218.5,-74"/>
<text text-anchor="middle" x="183" y="-62" font-family="Helvetica,sans-Serif" font-size="10.00">VLineAngle</text>
</a>
</g>
</g>
<!-- Node0&#45;&gt;Node7 -->
<g id="edge398_Node000000_Node000007" class="edge">
<title>Node0&#45;&gt;Node7</title>
<g id="a_edge398_Node000000_Node000007"><a xlink:title=" ">
<path fill="none" stroke="#63b8ff" d="M111.46,-74.23C123.79,-72.53 136.36,-70.79 147.42,-69.27"/>
<polygon fill="#63b8ff" stroke="#63b8ff" points="110.64,-70.81 101.21,-75.64 111.59,-77.74 110.64,-70.81"/>
</a>
</g>
</g>
<!-- Node8 -->
<g id="Node000008" class="node">
<title>Node8</title>
<g id="a_Node000008"><a xlink:href="da/d49/classVVariable.html" target="_top" xlink:title=" ">
<polygon fill="white" stroke="#666666" points="214.5,-37 151.5,-37 151.5,-18 214.5,-18 214.5,-37"/>
<text text-anchor="middle" x="183" y="-25" font-family="Helvetica,sans-Serif" font-size="10.00">VVariable</text>
</a>
</g>
</g>
<!-- Node0&#45;&gt;Node8 -->
<g id="edge399_Node000000_Node000008" class="edge">
<title>Node0&#45;&gt;Node8</title>
<g id="a_edge399_Node000000_Node000008"><a xlink:title=" ">
<path fill="none" stroke="#63b8ff" d="M83.73,-68.91C107.13,-59.06 138.2,-45.96 159.09,-37.16"/>
<polygon fill="#63b8ff" stroke="#63b8ff" points="82.09,-65.81 74.23,-72.92 84.81,-72.26 82.09,-65.81"/>
</a>
</g>
</g>
<!-- Node2 -->
<g id="Node000002" class="node">
<title>Node2</title>
<g id="a_Node000002"><a xlink:href="d1/dd4/classVArcRadius.html" target="_top" xlink:title=" ">
<polygon fill="white" stroke="#666666" points="346.5,-213 275.5,-213 275.5,-194 346.5,-194 346.5,-213"/>
<text text-anchor="middle" x="311" y="-201" font-family="Helvetica,sans-Serif" font-size="10.00">VArcRadius</text>
</a>
</g>
</g>
<!-- Node1&#45;&gt;Node2 -->
<g id="edge393_Node000001_Node000002" class="edge">
<title>Node1&#45;&gt;Node2</title>
<g id="a_edge393_Node000001_Node000002"><a xlink:title=" ">
<path fill="none" stroke="#63b8ff" d="M207.51,-153.36C223.42,-163.11 245.08,-175.8 265,-185.5 271.05,-188.45 277.72,-191.31 284.02,-193.85"/>
<polygon fill="#63b8ff" stroke="#63b8ff" points="209.21,-150.3 198.87,-148.01 205.53,-156.25 209.21,-150.3"/>
</a>
</g>
</g>
<!-- Node3 -->
<g id="Node000003" class="node">
<title>Node3</title>
<g id="a_Node000003"><a xlink:href="d1/ddd/classVCurveAngle.html" target="_top" xlink:title=" ">
<polygon fill="white" stroke="#666666" points="351,-176 271,-176 271,-157 351,-157 351,-176"/>
<text text-anchor="middle" x="311" y="-164" font-family="Helvetica,sans-Serif" font-size="10.00">VCurveAngle</text>
</a>
</g>
</g>
<!-- Node1&#45;&gt;Node3 -->
<g id="edge394_Node000001_Node000003" class="edge">
<title>Node1&#45;&gt;Node3</title>
<g id="a_edge394_Node000001_Node000003"><a xlink:title=" ">
<path fill="none" stroke="#63b8ff" d="M236.9,-150.25C248.32,-152.79 260.21,-155.44 270.99,-157.83"/>
<polygon fill="#63b8ff" stroke="#63b8ff" points="237.53,-146.81 227.01,-148.06 236.01,-153.64 237.53,-146.81"/>
</a>
</g>
</g>
<!-- Node4 -->
<g id="Node000004" class="node">
<title>Node4</title>
<g id="a_Node000004"><a xlink:href="de/d77/classVCurveCLength.html" target="_top" xlink:title=" ">
<polygon fill="white" stroke="#666666" points="357,-139 265,-139 265,-120 357,-120 357,-139"/>
<text text-anchor="middle" x="311" y="-127" font-family="Helvetica,sans-Serif" font-size="10.00">VCurveCLength</text>
</a>
</g>
</g>
<!-- Node1&#45;&gt;Node4 -->
<g id="edge395_Node000001_Node000004" class="edge">
<title>Node1&#45;&gt;Node4</title>
<g id="a_edge395_Node000001_Node000004"><a xlink:title=" ">
<path fill="none" stroke="#63b8ff" d="M239.35,-134.55C247.84,-133.94 256.52,-133.32 264.76,-132.73"/>
<polygon fill="#63b8ff" stroke="#63b8ff" points="238.86,-131.07 229.13,-135.28 239.36,-138.05 238.86,-131.07"/>
</a>
</g>
</g>
<!-- Node5 -->
<g id="Node000005" class="node">
<title>Node5</title>
<g id="a_Node000005"><a xlink:href="d8/d38/classVCurveLength.html" target="_top" xlink:title=" ">
<polygon fill="white" stroke="#666666" points="353.5,-102 268.5,-102 268.5,-83 353.5,-83 353.5,-102"/>
<text text-anchor="middle" x="311" y="-90" font-family="Helvetica,sans-Serif" font-size="10.00">VCurveLength</text>
</a>
</g>
</g>
<!-- Node1&#45;&gt;Node5 -->
<g id="edge396_Node000001_Node000005" class="edge">
<title>Node1&#45;&gt;Node5</title>
<g id="a_edge396_Node000001_Node000005"><a xlink:title=" ">
<path fill="none" stroke="#63b8ff" d="M219.71,-125.46C240.16,-118 265.35,-108.8 283.93,-102.02"/>
<polygon fill="#63b8ff" stroke="#63b8ff" points="218.3,-122.25 210.11,-128.97 220.7,-128.83 218.3,-122.25"/>
</a>
</g>
</g>
<!-- Node9 -->
<g id="Node000009" class="node">
<title>Node9</title>
<g id="a_Node000009"><a xlink:href="dd/d0c/classVIncrement.html" target="_top" xlink:title="The VIncrement class keep data row of increment table.">
<polygon fill="white" stroke="#666666" points="347.5,-56 274.5,-56 274.5,-37 347.5,-37 347.5,-56"/>
<text text-anchor="middle" x="311" y="-44" font-family="Helvetica,sans-Serif" font-size="10.00">VIncrement</text>
</a>
</g>
</g>
<!-- Node8&#45;&gt;Node9 -->
<g id="edge400_Node000008_Node000009" class="edge">
<title>Node8&#45;&gt;Node9</title>
<g id="a_edge400_Node000008_Node000009"><a xlink:title=" ">
<path fill="none" stroke="#63b8ff" d="M224.66,-33.63C240.69,-36.05 258.93,-38.8 274.42,-41.13"/>
<polygon fill="#63b8ff" stroke="#63b8ff" points="224.91,-30.13 214.5,-32.1 223.87,-37.05 224.91,-30.13"/>
</a>
</g>
</g>
<!-- Node10 -->
<g id="Node000010" class="node">
<title>Node10</title>
<g id="a_Node000010"><a xlink:href="de/dcc/classVMeasurement.html" target="_top" xlink:title="The VMeasurement class keep data row of multisize table.">
<polygon fill="white" stroke="#666666" points="356.5,-19 265.5,-19 265.5,0 356.5,0 356.5,-19"/>
<text text-anchor="middle" x="311" y="-7" font-family="Helvetica,sans-Serif" font-size="10.00">VMeasurement</text>
</a>
</g>
</g>
<!-- Node8&#45;&gt;Node10 -->
<g id="edge401_Node000008_Node000010" class="edge">
<title>Node8&#45;&gt;Node10</title>
<g id="a_edge401_Node000008_Node000010"><a xlink:title=" ">
<path fill="none" stroke="#63b8ff" d="M224.6,-21.7C237.65,-19.84 252.17,-17.76 265.48,-15.86"/>
<polygon fill="#63b8ff" stroke="#63b8ff" points="223.91,-18.26 214.5,-23.14 224.9,-25.19 223.91,-18.26"/>
</a>
</g>
</g>
</g>
</svg>
