<?xml version="1.0" encoding="UTF-8" standalone="no"?>
<!DOCTYPE svg PUBLIC "-//W3C//DTD SVG 1.1//EN"
 "http://www.w3.org/Graphics/SVG/1.1/DTD/svg11.dtd">
<!-- Generated by graphviz version 2.43.0 (0)
 -->
<!-- Title: src/app/seamly2d/mainwindow.h Pages: 1 -->
<!--zoomable 258 -->

<svg id="main" version="1.1" xmlns="http://www.w3.org/2000/svg" xmlns:xlink="http://www.w3.org/1999/xlink" xml:space="preserve" onload="init(evt)">
<style type="text/css"><![CDATA[
.node, .edge {opacity: 0.7;}
.node.selected, .edge.selected {opacity: 1;}
.edge:hover path { stroke: red; }
.edge:hover polygon { stroke: red; fill: red; }
]]></style>

<defs>
  <circle id="rim" cx="0" cy="0" r="7"/>
  <circle id="rim2" cx="0" cy="0" r="3.5"/>
  <g id="zoomPlus">
    <use xlink:href="#rim" fill="#404040"><set attributeName="fill" to="#808080" begin="zoomplus.mouseover" end="zoomplus.mouseout"/></use>
    <path d="M-4,0h8M0,-4v8" fill="none" stroke="white" stroke-width="1.5" pointer-events="none"/>
  </g>
  <g id="zoomMin">
    <use xlink:href="#rim" fill="#404040"><set attributeName="fill" to="#808080" begin="zoomminus.mouseover" end="zoomminus.mouseout"/></use>
    <path d="M-4,0h8" fill="none" stroke="white" stroke-width="1.5" pointer-events="none"/>
  </g>
  <g id="arrowUp" transform="translate(30 24)">
    <use xlink:href="#rim"/>
    <path pointer-events="none" fill="none" stroke="white" stroke-width="1.5" d="M0,-3.0v7 M-2.5,-0.5L0,-3.0L2.5,-0.5"/>
  </g>
  <g id="arrowRight" transform="rotate(90) translate(36 -43)">
    <use xlink:href="#rim"/>
    <path pointer-events="none" fill="none" stroke="white" stroke-width="1.5" d="M0,-3.0v7 M-2.5,-0.5L0,-3.0L2.5,-0.5"/>
  </g>
  <g id="arrowDown" transform="rotate(180) translate(-30 -48)">
    <use xlink:href="#rim"/>
    <path pointer-events="none" fill="none" stroke="white" stroke-width="1.5" d="M0,-3.0v7 M-2.5,-0.5L0,-3.0L2.5,-0.5"/>
  </g>
  <g id="arrowLeft" transform="rotate(270) translate(-36 17)">
    <use xlink:href="#rim"/>
    <path pointer-events="none" fill="none" stroke="white" stroke-width="1.5" d="M0,-3.0v7 M-2.5,-0.5L0,-3.0L2.5,-0.5"/>
  </g>
  <g id="resetDef">
    <use xlink:href="#rim2" fill="#404040"><set attributeName="fill" to="#808080" begin="reset.mouseover" end="reset.mouseout"/></use>
  </g>
</defs>
<script type="application/ecmascript">
var viewWidth = 1940;
var viewHeight = 258;
var sectionId = 'dynsection-0';
</script>
<script type="application/ecmascript" xlink:href="../../svg.min.js"/>
<svg id="graph" class="graph">
<g id="viewport">
<title>src/app/seamly2d/mainwindow.h</title>
<!-- Node1 -->
<g id="Node000001" class="node">
<title>Node1</title>
<g id="a_Node000001"><a xlink:title=" ">
<polygon fill="#999999" stroke="#666666" points="1515,-250 1339,-250 1339,-231 1515,-231 1515,-250"/>
<text text-anchor="middle" x="1427" y="-238" font-family="Helvetica,sans-Serif" font-size="10.00">src/app/seamly2d/mainwindow.h</text>
</a>
</g>
</g>
<!-- Node2 -->
<g id="Node000002" class="node">
<title>Node2</title>
<g id="a_Node000002"><a xlink:href="../../d1/d82/mainwindowsnogui_8h.html" target="_top" xlink:title=" ">
<polygon fill="white" stroke="#666666" points="598,-195 478,-195 478,-176 598,-176 598,-195"/>
<text text-anchor="middle" x="538" y="-183" font-family="Helvetica,sans-Serif" font-size="10.00">mainwindowsnogui.h</text>
</a>
</g>
</g>
<!-- Node1&#45;&gt;Node2 -->
<g id="edge1_Node000001_Node000002" class="edge">
<title>Node1&#45;&gt;Node2</title>
<g id="a_edge1_Node000001_Node000002"><a xlink:title=" ">
<path fill="none" stroke="#63b8ff" d="M1338.92,-234.25C1162.52,-223.73 769.08,-200.28 608.4,-190.7"/>
<polygon fill="#63b8ff" stroke="#63b8ff" points="608.35,-187.19 598.16,-190.09 607.93,-194.18 608.35,-187.19"/>
</a>
</g>
</g>
<!-- Node22 -->
<g id="Node000022" class="node">
<title>Node22</title>
<g id="a_Node000022"><a xlink:href="../../dd/d57/vcmdexport_8h.html" target="_top" xlink:title=" ">
<polygon fill="white" stroke="#666666" points="1415,-195 1307,-195 1307,-176 1415,-176 1415,-195"/>
<text text-anchor="middle" x="1361" y="-183" font-family="Helvetica,sans-Serif" font-size="10.00">core/vcmdexport.h</text>
</a>
</g>
</g>
<!-- Node1&#45;&gt;Node22 -->
<g id="edge22_Node000001_Node000022" class="edge">
<title>Node1&#45;&gt;Node22</title>
<g id="a_edge22_Node000001_Node000022"><a xlink:title=" ">
<path fill="none" stroke="#63b8ff" d="M1416.4,-230.98C1406.54,-223.07 1391.65,-211.11 1379.78,-201.58"/>
<polygon fill="#63b8ff" stroke="#63b8ff" points="1381.79,-198.7 1371.8,-195.17 1377.4,-204.16 1381.79,-198.7"/>
</a>
</g>
</g>
<!-- Node33 -->
<g id="Node000033" class="node">
<title>Node33</title>
<g id="a_Node000033"><a xlink:title=" ">
<polygon fill="#e0e0e0" stroke="#999999" points="1554.5,-195 1433.5,-195 1433.5,-176 1554.5,-176 1554.5,-195"/>
<text text-anchor="middle" x="1494" y="-183" font-family="Helvetica,sans-Serif" font-size="10.00">../vmisc/vlockguard.h</text>
</a>
</g>
</g>
<!-- Node1&#45;&gt;Node33 -->
<g id="edge35_Node000001_Node000033" class="edge">
<title>Node1&#45;&gt;Node33</title>
<g id="a_edge35_Node000001_Node000033"><a xlink:title=" ">
<path fill="none" stroke="#63b8ff" d="M1437.76,-230.98C1447.77,-223.07 1462.89,-211.11 1474.93,-201.58"/>
<polygon fill="#63b8ff" stroke="#63b8ff" points="1477.37,-204.12 1483.04,-195.17 1473.03,-198.63 1477.37,-204.12"/>
</a>
</g>
</g>
<!-- Node34 -->
<g id="Node000034" class="node">
<title>Node34</title>
<g id="a_Node000034"><a xlink:title=" ">
<polygon fill="#e0e0e0" stroke="#999999" points="1631.5,-195 1572.5,-195 1572.5,-176 1631.5,-176 1631.5,-195"/>
<text text-anchor="middle" x="1602" y="-183" font-family="Helvetica,sans-Serif" font-size="10.00">QPointer</text>
</a>
</g>
</g>
<!-- Node1&#45;&gt;Node34 -->
<g id="edge36_Node000001_Node000034" class="edge">
<title>Node1&#45;&gt;Node34</title>
<g id="a_edge36_Node000001_Node000034"><a xlink:title=" ">
<path fill="none" stroke="#63b8ff" d="M1455.12,-230.98C1484.62,-222.05 1531.19,-207.94 1563.97,-198.02"/>
<polygon fill="#63b8ff" stroke="#63b8ff" points="1565.11,-201.33 1573.66,-195.08 1563.08,-194.63 1565.11,-201.33"/>
</a>
</g>
</g>
<!-- Node3 -->
<g id="Node000003" class="node">
<title>Node3</title>
<g id="a_Node000003"><a xlink:title=" ">
<polygon fill="#e0e0e0" stroke="#999999" points="151.5,-134.5 64.5,-134.5 64.5,-115.5 151.5,-115.5 151.5,-134.5"/>
<text text-anchor="middle" x="108" y="-122.5" font-family="Helvetica,sans-Serif" font-size="10.00">QMainWindow</text>
</a>
</g>
</g>
<!-- Node2&#45;&gt;Node3 -->
<g id="edge2_Node000002_Node000003" class="edge">
<title>Node2&#45;&gt;Node3</title>
<g id="a_edge2_Node000002_Node000003"><a xlink:title=" ">
<path fill="none" stroke="#63b8ff" d="M477.86,-180.03C403.12,-173.87 271.88,-161.08 161,-140 156.51,-139.15 151.85,-138.12 147.23,-137.02"/>
<polygon fill="#63b8ff" stroke="#63b8ff" points="147.82,-133.56 137.27,-134.52 146.11,-140.35 147.82,-133.56"/>
</a>
</g>
</g>
<!-- Node4 -->
<g id="Node000004" class="node">
<title>Node4</title>
<g id="a_Node000004"><a xlink:title=" ">
<polygon fill="#e0e0e0" stroke="#999999" points="226,-134.5 170,-134.5 170,-115.5 226,-115.5 226,-134.5"/>
<text text-anchor="middle" x="198" y="-122.5" font-family="Helvetica,sans-Serif" font-size="10.00">QPrinter</text>
</a>
</g>
</g>
<!-- Node2&#45;&gt;Node4 -->
<g id="edge3_Node000002_Node000004" class="edge">
<title>Node2&#45;&gt;Node4</title>
<g id="a_edge3_Node000002_Node000004"><a xlink:title=" ">
<path fill="none" stroke="#63b8ff" d="M477.73,-179.51C416.03,-173.51 317.73,-161.46 235,-140 232.56,-139.37 230.05,-138.63 227.56,-137.82"/>
<polygon fill="#63b8ff" stroke="#63b8ff" points="228.7,-134.51 218.1,-134.51 226.38,-141.12 228.7,-134.51"/>
</a>
</g>
</g>
<!-- Node5 -->
<g id="Node000005" class="node">
<title>Node5</title>
<g id="a_Node000005"><a xlink:title=" ">
<polygon fill="#e0e0e0" stroke="#999999" points="320,-134.5 244,-134.5 244,-115.5 320,-115.5 320,-134.5"/>
<text text-anchor="middle" x="282" y="-122.5" font-family="Helvetica,sans-Serif" font-size="10.00">QToolButton</text>
</a>
</g>
</g>
<!-- Node2&#45;&gt;Node5 -->
<g id="edge4_Node000002_Node000005" class="edge">
<title>Node2&#45;&gt;Node5</title>
<g id="a_edge4_Node000002_Node000005"><a xlink:title=" ">
<path fill="none" stroke="#63b8ff" d="M492.91,-175.98C450.42,-167.69 385.08,-154.3 329,-140 325.78,-139.18 322.45,-138.28 319.12,-137.36"/>
<polygon fill="#63b8ff" stroke="#63b8ff" points="319.81,-133.91 309.24,-134.51 317.88,-140.64 319.81,-133.91"/>
</a>
</g>
</g>
<!-- Node6 -->
<g id="Node000006" class="node">
<title>Node6</title>
<g id="a_Node000006"><a xlink:title=" ">
<polygon fill="#e0e0e0" stroke="#999999" points="475.5,-134.5 338.5,-134.5 338.5,-115.5 475.5,-115.5 475.5,-134.5"/>
<text text-anchor="middle" x="407" y="-122.5" font-family="Helvetica,sans-Serif" font-size="10.00">../vlayout/vlayoutpiece.h</text>
</a>
</g>
</g>
<!-- Node2&#45;&gt;Node6 -->
<g id="edge5_Node000002_Node000006" class="edge">
<title>Node2&#45;&gt;Node6</title>
<g id="a_edge5_Node000002_Node000006"><a xlink:title=" ">
<path fill="none" stroke="#63b8ff" d="M518.95,-175.99C497.03,-166.2 460.79,-150.02 435.5,-138.73"/>
<polygon fill="#63b8ff" stroke="#63b8ff" points="436.63,-135.4 426.07,-134.52 433.78,-141.79 436.63,-135.4"/>
</a>
</g>
</g>
<!-- Node7 -->
<g id="Node000007" class="node">
<title>Node7</title>
<g id="a_Node000007"><a xlink:href="../../d4/d38/vpattern_8h.html" target="_top" xlink:title=" ">
<polygon fill="white" stroke="#666666" points="582.5,-134.5 493.5,-134.5 493.5,-115.5 582.5,-115.5 582.5,-134.5"/>
<text text-anchor="middle" x="538" y="-122.5" font-family="Helvetica,sans-Serif" font-size="10.00">xml/vpattern.h</text>
</a>
</g>
</g>
<!-- Node2&#45;&gt;Node7 -->
<g id="edge6_Node000002_Node000007" class="edge">
<title>Node2&#45;&gt;Node7</title>
<g id="a_edge6_Node000002_Node000007"><a xlink:title=" ">
<path fill="none" stroke="#63b8ff" d="M538,-175.87C538,-167.75 538,-155.31 538,-144.89"/>
<polygon fill="#63b8ff" stroke="#63b8ff" points="541.5,-144.67 538,-134.67 534.5,-144.67 541.5,-144.67"/>
</a>
</g>
</g>
<!-- Node12 -->
<g id="Node000012" class="node">
<title>Node12</title>
<g id="a_Node000012"><a xlink:href="../../d1/d8e/export__layout__dialog_8h.html" target="_top" xlink:title=" ">
<polygon fill="white" stroke="#666666" points="723,-140 601,-140 601,-110 723,-110 723,-140"/>
<text text-anchor="start" x="609" y="-128" font-family="Helvetica,sans-Serif" font-size="10.00">dialogs/export_layout</text>
<text text-anchor="middle" x="662" y="-117" font-family="Helvetica,sans-Serif" font-size="10.00">_dialog.h</text>
</a>
</g>
</g>
<!-- Node2&#45;&gt;Node12 -->
<g id="edge11_Node000002_Node000012" class="edge">
<title>Node2&#45;&gt;Node12</title>
<g id="a_edge11_Node000002_Node000012"><a xlink:title=" ">
<path fill="none" stroke="#63b8ff" d="M556.03,-175.99C573.43,-167.79 600.34,-155.09 622.69,-144.55"/>
<polygon fill="#63b8ff" stroke="#63b8ff" points="624.4,-147.61 631.95,-140.18 621.41,-141.28 624.4,-147.61"/>
</a>
</g>
</g>
<!-- Node20 -->
<g id="Node000020" class="node">
<title>Node20</title>
<g id="a_Node000020"><a xlink:title=" ">
<polygon fill="#e0e0e0" stroke="#999999" points="899,-134.5 741,-134.5 741,-115.5 899,-115.5 899,-134.5"/>
<text text-anchor="middle" x="820" y="-122.5" font-family="Helvetica,sans-Serif" font-size="10.00">../vlayout/vlayoutgenerator.h</text>
</a>
</g>
</g>
<!-- Node2&#45;&gt;Node20 -->
<g id="edge20_Node000002_Node000020" class="edge">
<title>Node2&#45;&gt;Node20</title>
<g id="a_edge20_Node000002_Node000020"><a xlink:title=" ">
<path fill="none" stroke="#63b8ff" d="M579.01,-175.99C629.34,-165.55 714.69,-147.85 769.15,-136.55"/>
<polygon fill="#63b8ff" stroke="#63b8ff" points="769.86,-139.98 778.95,-134.52 768.44,-133.12 769.86,-139.98"/>
</a>
</g>
</g>
<!-- Node21 -->
<g id="Node000021" class="node">
<title>Node21</title>
<g id="a_Node000021"><a xlink:title=" ">
<polygon fill="#e0e0e0" stroke="#999999" points="1106.5,-134.5 917.5,-134.5 917.5,-115.5 1106.5,-115.5 1106.5,-134.5"/>
<text text-anchor="middle" x="1012" y="-122.5" font-family="Helvetica,sans-Serif" font-size="10.00">../vwidgets/vabstractmainwindow.h</text>
</a>
</g>
</g>
<!-- Node2&#45;&gt;Node21 -->
<g id="edge21_Node000002_Node000021" class="edge">
<title>Node2&#45;&gt;Node21</title>
<g id="a_edge21_Node000002_Node000021"><a xlink:title=" ">
<path fill="none" stroke="#63b8ff" d="M598.27,-177.52C671.53,-168.97 798.89,-153.9 908,-140 918.27,-138.69 929.11,-137.27 939.75,-135.86"/>
<polygon fill="#63b8ff" stroke="#63b8ff" points="940.43,-139.3 949.88,-134.51 939.5,-132.36 940.43,-139.3"/>
</a>
</g>
</g>
<!-- Node8 -->
<g id="Node000008" class="node">
<title>Node8</title>
<g id="a_Node000008"><a xlink:title=" ">
<polygon fill="#e0e0e0" stroke="#999999" points="152,-74 0,-74 0,-55 152,-55 152,-74"/>
<text text-anchor="middle" x="76" y="-62" font-family="Helvetica,sans-Serif" font-size="10.00">../ifc/xml/vabstractpattern.h</text>
</a>
</g>
</g>
<!-- Node7&#45;&gt;Node8 -->
<g id="edge7_Node000007_Node000008" class="edge">
<title>Node7&#45;&gt;Node8</title>
<g id="a_edge7_Node000007_Node000008"><a xlink:title=" ">
<path fill="none" stroke="#63b8ff" d="M508.18,-115.44C500.36,-113.43 491.91,-111.45 484,-110 453.25,-104.37 272.87,-85.54 162.5,-74.26"/>
<polygon fill="#63b8ff" stroke="#63b8ff" points="162.68,-70.76 152.37,-73.22 161.96,-77.72 162.68,-70.76"/>
</a>
</g>
</g>
<!-- Node9 -->
<g id="Node000009" class="node">
<title>Node9</title>
<g id="a_Node000009"><a xlink:title=" ">
<polygon fill="#e0e0e0" stroke="#999999" points="297.5,-74 170.5,-74 170.5,-55 297.5,-55 297.5,-74"/>
<text text-anchor="middle" x="234" y="-62" font-family="Helvetica,sans-Serif" font-size="10.00">../ifc/xml/vtoolrecord.h</text>
</a>
</g>
</g>
<!-- Node7&#45;&gt;Node9 -->
<g id="edge8_Node000007_Node000009" class="edge">
<title>Node7&#45;&gt;Node9</title>
<g id="a_edge8_Node000007_Node000009"><a xlink:title=" ">
<path fill="none" stroke="#63b8ff" d="M506.69,-115.44C499.28,-113.54 491.38,-111.61 484,-110 421.54,-96.37 349.63,-83.9 299.01,-75.65"/>
<polygon fill="#63b8ff" stroke="#63b8ff" points="299.29,-72.15 288.86,-74.01 298.17,-79.06 299.29,-72.15"/>
</a>
</g>
</g>
<!-- Node10 -->
<g id="Node000010" class="node">
<title>Node10</title>
<g id="a_Node000010"><a xlink:title=" ">
<polygon fill="#e0e0e0" stroke="#999999" points="458,-74 316,-74 316,-55 458,-55 458,-74"/>
<text text-anchor="middle" x="387" y="-62" font-family="Helvetica,sans-Serif" font-size="10.00">../vpatterndb/vcontainer.h</text>
</a>
</g>
</g>
<!-- Node7&#45;&gt;Node10 -->
<g id="edge9_Node000007_Node000010" class="edge">
<title>Node7&#45;&gt;Node10</title>
<g id="a_edge9_Node000007_Node000010"><a xlink:title=" ">
<path fill="none" stroke="#63b8ff" d="M516.04,-115.49C490.32,-105.53 447.52,-88.95 418.32,-77.63"/>
<polygon fill="#63b8ff" stroke="#63b8ff" points="419.57,-74.37 408.98,-74.02 417.04,-80.89 419.57,-74.37"/>
</a>
</g>
</g>
<!-- Node11 -->
<g id="Node000011" class="node">
<title>Node11</title>
<g id="a_Node000011"><a xlink:title=" ">
<polygon fill="#e0e0e0" stroke="#999999" points="634,-74 476,-74 476,-55 634,-55 634,-74"/>
<text text-anchor="middle" x="555" y="-62" font-family="Helvetica,sans-Serif" font-size="10.00">../ifc/xml/vpatternconverter.h</text>
</a>
</g>
</g>
<!-- Node7&#45;&gt;Node11 -->
<g id="edge10_Node000007_Node000011" class="edge">
<title>Node7&#45;&gt;Node11</title>
<g id="a_edge10_Node000007_Node000011"><a xlink:title=" ">
<path fill="none" stroke="#63b8ff" d="M540.51,-115.37C542.89,-107.16 546.56,-94.54 549.61,-84.05"/>
<polygon fill="#63b8ff" stroke="#63b8ff" points="553.05,-84.75 552.48,-74.17 546.33,-82.79 553.05,-84.75"/>
</a>
</g>
</g>
<!-- Node13 -->
<g id="Node000013" class="node">
<title>Node13</title>
<g id="a_Node000013"><a xlink:title=" ">
<polygon fill="#e0e0e0" stroke="#999999" points="762,-19 706,-19 706,0 762,0 762,-19"/>
<text text-anchor="middle" x="734" y="-7" font-family="Helvetica,sans-Serif" font-size="10.00">QDialog</text>
</a>
</g>
</g>
<!-- Node12&#45;&gt;Node13 -->
<g id="edge12_Node000012_Node000013" class="edge">
<title>Node12&#45;&gt;Node13</title>
<g id="a_edge12_Node000012_Node000013"><a xlink:title=" ">
<path fill="none" stroke="#63b8ff" d="M663.41,-109.77C665.41,-95.07 670.13,-71.94 681,-55 688.6,-43.15 700.35,-32.82 710.86,-25.11"/>
<polygon fill="#63b8ff" stroke="#63b8ff" points="713.05,-27.85 719.27,-19.27 709.06,-22.1 713.05,-27.85"/>
</a>
</g>
</g>
<!-- Node14 -->
<g id="Node000014" class="node">
<title>Node14</title>
<g id="a_Node000014"><a xlink:title=" ">
<polygon fill="#e0e0e0" stroke="#999999" points="759.5,-74 690.5,-74 690.5,-55 759.5,-55 759.5,-74"/>
<text text-anchor="middle" x="725" y="-62" font-family="Helvetica,sans-Serif" font-size="10.00">QMarginsF</text>
</a>
</g>
</g>
<!-- Node12&#45;&gt;Node14 -->
<g id="edge13_Node000012_Node000014" class="edge">
<title>Node12&#45;&gt;Node14</title>
<g id="a_edge13_Node000012_Node000014"><a xlink:title=" ">
<path fill="none" stroke="#63b8ff" d="M677.25,-109.84C686.58,-101.17 698.53,-90.08 708.15,-81.15"/>
<polygon fill="#63b8ff" stroke="#63b8ff" points="710.61,-83.64 715.56,-74.27 705.85,-78.51 710.61,-83.64"/>
</a>
</g>
</g>
<!-- Node15 -->
<g id="Node000015" class="node">
<title>Node15</title>
<g id="a_Node000015"><a xlink:title=" ">
<polygon fill="#e0e0e0" stroke="#999999" points="936.5,-74 777.5,-74 777.5,-55 936.5,-55 936.5,-74"/>
<text text-anchor="middle" x="857" y="-62" font-family="Helvetica,sans-Serif" font-size="10.00">../vgeometry/vgeometrydef.h</text>
</a>
</g>
</g>
<!-- Node12&#45;&gt;Node15 -->
<g id="edge14_Node000012_Node000015" class="edge">
<title>Node12&#45;&gt;Node15</title>
<g id="a_edge14_Node000012_Node000015"><a xlink:title=" ">
<path fill="none" stroke="#63b8ff" d="M708.71,-109.99C742.36,-99.89 787.21,-86.44 818.75,-76.98"/>
<polygon fill="#63b8ff" stroke="#63b8ff" points="819.92,-80.28 828.49,-74.05 817.9,-73.57 819.92,-80.28"/>
</a>
</g>
</g>
<!-- Node16 -->
<g id="Node000016" class="node">
<title>Node16</title>
<g id="a_Node000016"><a xlink:title=" ">
<polygon fill="#e0e0e0" stroke="#999999" points="1037,-74 955,-74 955,-55 1037,-55 1037,-74"/>
<text text-anchor="middle" x="996" y="-62" font-family="Helvetica,sans-Serif" font-size="10.00">../vmisc/def.h</text>
</a>
</g>
</g>
<!-- Node12&#45;&gt;Node16 -->
<g id="edge15_Node000012_Node000016" class="edge">
<title>Node12&#45;&gt;Node16</title>
<g id="a_edge15_Node000012_Node000016"><a xlink:title=" ">
<path fill="none" stroke="#63b8ff" d="M723.06,-111.67C726.08,-111.1 729.07,-110.54 732,-110 752.5,-106.22 873.95,-85.88 944.77,-74.05"/>
<polygon fill="#63b8ff" stroke="#63b8ff" points="945.55,-77.47 954.84,-72.37 944.4,-70.56 945.55,-77.47"/>
</a>
</g>
</g>
<!-- Node17 -->
<g id="Node000017" class="node">
<title>Node17</title>
<g id="a_Node000017"><a xlink:href="../../d5/d48/vabstractlayoutdialog_8h.html" target="_top" xlink:title=" ">
<polygon fill="white" stroke="#666666" points="1226,-74 1094,-74 1094,-55 1226,-55 1226,-74"/>
<text text-anchor="middle" x="1160" y="-62" font-family="Helvetica,sans-Serif" font-size="10.00">vabstractlayoutdialog.h</text>
</a>
</g>
</g>
<!-- Node12&#45;&gt;Node17 -->
<g id="edge16_Node000012_Node000017" class="edge">
<title>Node12&#45;&gt;Node17</title>
<g id="a_edge16_Node000012_Node000017"><a xlink:title=" ">
<path fill="none" stroke="#63b8ff" d="M723.02,-111.44C726.05,-110.93 729.06,-110.45 732,-110 854.43,-91.43 997.76,-78.25 1083.59,-71.27"/>
<polygon fill="#63b8ff" stroke="#63b8ff" points="1084.08,-74.74 1093.77,-70.45 1083.52,-67.76 1084.08,-74.74"/>
</a>
</g>
</g>
<!-- Node17&#45;&gt;Node13 -->
<g id="edge19_Node000017_Node000013" class="edge">
<title>Node17&#45;&gt;Node13</title>
<g id="a_edge19_Node000017_Node000013"><a xlink:title=" ">
<path fill="none" stroke="#63b8ff" d="M1093.9,-55.28C1003.69,-44.05 844.93,-24.3 772.26,-15.26"/>
<polygon fill="#63b8ff" stroke="#63b8ff" points="772.54,-11.77 762.18,-14.01 771.68,-18.71 772.54,-11.77"/>
</a>
</g>
</g>
<!-- Node18 -->
<g id="Node000018" class="node">
<title>Node18</title>
<g id="a_Node000018"><a xlink:title=" ">
<polygon fill="#e0e0e0" stroke="#999999" points="1447.5,-19 1370.5,-19 1370.5,0 1447.5,0 1447.5,-19"/>
<text text-anchor="middle" x="1409" y="-7" font-family="Helvetica,sans-Serif" font-size="10.00">../ifc/ifcdef.h</text>
</a>
</g>
</g>
<!-- Node17&#45;&gt;Node18 -->
<g id="edge17_Node000017_Node000018" class="edge">
<title>Node17&#45;&gt;Node18</title>
<g id="a_edge17_Node000017_Node000018"><a xlink:title=" ">
<path fill="none" stroke="#63b8ff" d="M1200.01,-54.98C1243.68,-45.69 1313.62,-30.8 1360.41,-20.84"/>
<polygon fill="#63b8ff" stroke="#63b8ff" points="1361.27,-24.24 1370.32,-18.73 1359.81,-17.39 1361.27,-24.24"/>
</a>
</g>
</g>
<!-- Node19 -->
<g id="Node000019" class="node">
<title>Node19</title>
<g id="a_Node000019"><a xlink:title=" ">
<polygon fill="#e0e0e0" stroke="#999999" points="1198.5,-19 1121.5,-19 1121.5,0 1198.5,0 1198.5,-19"/>
<text text-anchor="middle" x="1160" y="-7" font-family="Helvetica,sans-Serif" font-size="10.00">QComboBox</text>
</a>
</g>
</g>
<!-- Node17&#45;&gt;Node19 -->
<g id="edge18_Node000017_Node000019" class="edge">
<title>Node17&#45;&gt;Node19</title>
<g id="a_edge18_Node000017_Node000019"><a xlink:title=" ">
<path fill="none" stroke="#63b8ff" d="M1160,-54.75C1160,-47.8 1160,-37.85 1160,-29.13"/>
<polygon fill="#63b8ff" stroke="#63b8ff" points="1163.5,-29.09 1160,-19.09 1156.5,-29.09 1163.5,-29.09"/>
</a>
</g>
</g>
<!-- Node23 -->
<g id="Node000023" class="node">
<title>Node23</title>
<g id="a_Node000023"><a xlink:title=" ">
<polygon fill="#e0e0e0" stroke="#999999" points="1183,-134.5 1125,-134.5 1125,-115.5 1183,-115.5 1183,-134.5"/>
<text text-anchor="middle" x="1154" y="-122.5" font-family="Helvetica,sans-Serif" font-size="10.00">memory</text>
</a>
</g>
</g>
<!-- Node22&#45;&gt;Node23 -->
<g id="edge23_Node000022_Node000023" class="edge">
<title>Node22&#45;&gt;Node23</title>
<g id="a_edge23_Node000022_Node000023"><a xlink:title=" ">
<path fill="none" stroke="#63b8ff" d="M1324.45,-175.95C1290.02,-167.64 1237.14,-154.22 1192,-140 1189.88,-139.33 1187.69,-138.61 1185.5,-137.87"/>
<polygon fill="#63b8ff" stroke="#63b8ff" points="1186.58,-134.53 1175.98,-134.5 1184.24,-141.13 1186.58,-134.53"/>
</a>
</g>
</g>
<!-- Node24 -->
<g id="Node000024" class="node">
<title>Node24</title>
<g id="a_Node000024"><a xlink:title=" ">
<polygon fill="#e0e0e0" stroke="#999999" points="1248.5,-134.5 1201.5,-134.5 1201.5,-115.5 1248.5,-115.5 1248.5,-134.5"/>
<text text-anchor="middle" x="1225" y="-122.5" font-family="Helvetica,sans-Serif" font-size="10.00">vector</text>
</a>
</g>
</g>
<!-- Node22&#45;&gt;Node24 -->
<g id="edge24_Node000022_Node000024" class="edge">
<title>Node22&#45;&gt;Node24</title>
<g id="a_edge24_Node000022_Node000024"><a xlink:title=" ">
<path fill="none" stroke="#63b8ff" d="M1341.22,-175.99C1318.36,-166.16 1280.51,-149.88 1254.24,-138.58"/>
<polygon fill="#63b8ff" stroke="#63b8ff" points="1255.37,-135.25 1244.8,-134.52 1252.6,-141.68 1255.37,-135.25"/>
</a>
</g>
</g>
<!-- Node25 -->
<g id="Node000025" class="node">
<title>Node25</title>
<g id="a_Node000025"><a xlink:title=" ">
<polygon fill="#e0e0e0" stroke="#999999" points="1347,-134.5 1267,-134.5 1267,-115.5 1347,-115.5 1347,-134.5"/>
<text text-anchor="middle" x="1307" y="-122.5" font-family="Helvetica,sans-Serif" font-size="10.00">QTextStream</text>
</a>
</g>
</g>
<!-- Node22&#45;&gt;Node25 -->
<g id="edge25_Node000022_Node000025" class="edge">
<title>Node22&#45;&gt;Node25</title>
<g id="a_edge25_Node000022_Node000025"><a xlink:title=" ">
<path fill="none" stroke="#63b8ff" d="M1353.03,-175.87C1344.9,-167.05 1332.07,-153.16 1322.02,-142.27"/>
<polygon fill="#63b8ff" stroke="#63b8ff" points="1324.36,-139.64 1315,-134.67 1319.21,-144.39 1324.36,-139.64"/>
</a>
</g>
</g>
<!-- Node26 -->
<g id="Node000026" class="node">
<title>Node26</title>
<g id="a_Node000026"><a xlink:title=" ">
<polygon fill="#e0e0e0" stroke="#999999" points="1466.5,-134.5 1365.5,-134.5 1365.5,-115.5 1466.5,-115.5 1466.5,-134.5"/>
<text text-anchor="middle" x="1416" y="-122.5" font-family="Helvetica,sans-Serif" font-size="10.00">QCoreApplication</text>
</a>
</g>
</g>
<!-- Node22&#45;&gt;Node26 -->
<g id="edge26_Node000022_Node000026" class="edge">
<title>Node22&#45;&gt;Node26</title>
<g id="a_edge26_Node000022_Node000026"><a xlink:title=" ">
<path fill="none" stroke="#63b8ff" d="M1369.12,-175.87C1377.4,-167.05 1390.47,-153.16 1400.7,-142.27"/>
<polygon fill="#63b8ff" stroke="#63b8ff" points="1403.55,-144.35 1407.85,-134.67 1398.45,-139.56 1403.55,-144.35"/>
</a>
</g>
</g>
<!-- Node27 -->
<g id="Node000027" class="node">
<title>Node27</title>
<g id="a_Node000027"><a xlink:title=" ">
<polygon fill="#e0e0e0" stroke="#999999" points="1609.5,-134.5 1484.5,-134.5 1484.5,-115.5 1609.5,-115.5 1609.5,-134.5"/>
<text text-anchor="middle" x="1547" y="-122.5" font-family="Helvetica,sans-Serif" font-size="10.00">QCommandLineParser</text>
</a>
</g>
</g>
<!-- Node22&#45;&gt;Node27 -->
<g id="edge27_Node000022_Node000027" class="edge">
<title>Node22&#45;&gt;Node27</title>
<g id="a_edge27_Node000022_Node000027"><a xlink:title=" ">
<path fill="none" stroke="#63b8ff" d="M1388.05,-175.99C1420.28,-165.86 1474.29,-148.87 1510.28,-137.55"/>
<polygon fill="#63b8ff" stroke="#63b8ff" points="1511.43,-140.86 1519.92,-134.52 1509.33,-134.18 1511.43,-140.86"/>
</a>
</g>
</g>
<!-- Node28 -->
<g id="Node000028" class="node">
<title>Node28</title>
<g id="a_Node000028"><a xlink:href="../../d2/d2b/dialoglayoutsettings_8h.html" target="_top" xlink:title=" ">
<polygon fill="white" stroke="#666666" points="1800.5,-134.5 1627.5,-134.5 1627.5,-115.5 1800.5,-115.5 1800.5,-134.5"/>
<text text-anchor="middle" x="1714" y="-122.5" font-family="Helvetica,sans-Serif" font-size="10.00">../dialogs/dialoglayoutsettings.h</text>
</a>
</g>
</g>
<!-- Node22&#45;&gt;Node28 -->
<g id="edge28_Node000022_Node000028" class="edge">
<title>Node22&#45;&gt;Node28</title>
<g id="a_edge28_Node000022_Node000028"><a xlink:title=" ">
<path fill="none" stroke="#63b8ff" d="M1412.33,-175.99C1475.99,-165.44 1584.4,-147.48 1652.46,-136.2"/>
<polygon fill="#63b8ff" stroke="#63b8ff" points="1653.32,-139.6 1662.61,-134.52 1652.17,-132.7 1653.32,-139.6"/>
</a>
</g>
</g>
<!-- Node32 -->
<g id="Node000032" class="node">
<title>Node32</title>
<g id="a_Node000032"><a xlink:title=" ">
<polygon fill="#e0e0e0" stroke="#999999" points="1931.5,-134.5 1818.5,-134.5 1818.5,-115.5 1931.5,-115.5 1931.5,-134.5"/>
<text text-anchor="middle" x="1875" y="-122.5" font-family="Helvetica,sans-Serif" font-size="10.00">../vmisc/vsysexits.h</text>
</a>
</g>
</g>
<!-- Node22&#45;&gt;Node32 -->
<g id="edge34_Node000022_Node000032" class="edge">
<title>Node22&#45;&gt;Node32</title>
<g id="a_edge34_Node000022_Node000032"><a xlink:title=" ">
<path fill="none" stroke="#63b8ff" d="M1415.1,-177.16C1418.45,-176.76 1421.77,-176.37 1425,-176 1595.77,-156.68 1640.14,-166.14 1810,-140 1816.21,-139.04 1822.73,-137.86 1829.13,-136.59"/>
<polygon fill="#63b8ff" stroke="#63b8ff" points="1829.96,-139.99 1839.04,-134.54 1828.54,-133.14 1829.96,-139.99"/>
</a>
</g>
</g>
<!-- Node28&#45;&gt;Node17 -->
<g id="edge29_Node000028_Node000017" class="edge">
<title>Node28&#45;&gt;Node17</title>
<g id="a_edge29_Node000028_Node000017"><a xlink:title=" ">
<path fill="none" stroke="#63b8ff" d="M1659.31,-115.47C1646.12,-113.54 1632.07,-111.6 1619,-110 1484.57,-93.59 1327.38,-79.44 1236.21,-71.72"/>
<polygon fill="#63b8ff" stroke="#63b8ff" points="1236.5,-68.23 1226.24,-70.88 1235.91,-75.21 1236.5,-68.23"/>
</a>
</g>
</g>
<!-- Node28&#45;&gt;Node18 -->
<g id="edge31_Node000028_Node000018" class="edge">
<title>Node28&#45;&gt;Node18</title>
<g id="a_edge31_Node000028_Node000018"><a xlink:title=" ">
<path fill="none" stroke="#63b8ff" d="M1678.75,-115.44C1643.8,-106.54 1588.97,-91.49 1543,-74 1504,-59.16 1460.66,-37.66 1434.12,-23.88"/>
<polygon fill="#63b8ff" stroke="#63b8ff" points="1435.62,-20.71 1425.14,-19.17 1432.38,-26.91 1435.62,-20.71"/>
</a>
</g>
</g>
<!-- Node29 -->
<g id="Node000029" class="node">
<title>Node29</title>
<g id="a_Node000029"><a xlink:title=" ">
<polygon fill="#e0e0e0" stroke="#999999" points="1656,-74 1552,-74 1552,-55 1656,-55 1656,-74"/>
<text text-anchor="middle" x="1604" y="-62" font-family="Helvetica,sans-Serif" font-size="10.00">../vlayout/vbank.h</text>
</a>
</g>
</g>
<!-- Node28&#45;&gt;Node29 -->
<g id="edge30_Node000028_Node000029" class="edge">
<title>Node28&#45;&gt;Node29</title>
<g id="a_edge30_Node000028_Node000029"><a xlink:title=" ">
<path fill="none" stroke="#63b8ff" d="M1697.77,-115.37C1679.73,-105.78 1650.38,-90.17 1629.32,-78.97"/>
<polygon fill="#63b8ff" stroke="#63b8ff" points="1630.77,-75.77 1620.3,-74.17 1627.48,-81.95 1630.77,-75.77"/>
</a>
</g>
</g>
<!-- Node30 -->
<g id="Node000030" class="node">
<title>Node30</title>
<g id="a_Node000030"><a xlink:title=" ">
<polygon fill="#e0e0e0" stroke="#999999" points="1753.5,-74 1674.5,-74 1674.5,-55 1753.5,-55 1753.5,-74"/>
<text text-anchor="middle" x="1714" y="-62" font-family="Helvetica,sans-Serif" font-size="10.00">QCloseEvent</text>
</a>
</g>
</g>
<!-- Node28&#45;&gt;Node30 -->
<g id="edge32_Node000028_Node000030" class="edge">
<title>Node28&#45;&gt;Node30</title>
<g id="a_edge32_Node000028_Node000030"><a xlink:title=" ">
<path fill="none" stroke="#63b8ff" d="M1714,-115.37C1714,-107.25 1714,-94.81 1714,-84.39"/>
<polygon fill="#63b8ff" stroke="#63b8ff" points="1717.5,-84.17 1714,-74.17 1710.5,-84.17 1717.5,-84.17"/>
</a>
</g>
</g>
<!-- Node31 -->
<g id="Node000031" class="node">
<title>Node31</title>
<g id="a_Node000031"><a xlink:title=" ">
<polygon fill="#e0e0e0" stroke="#999999" points="1834.5,-74 1771.5,-74 1771.5,-55 1834.5,-55 1834.5,-74"/>
<text text-anchor="middle" x="1803" y="-62" font-family="Helvetica,sans-Serif" font-size="10.00">QMargins</text>
</a>
</g>
</g>
<!-- Node28&#45;&gt;Node31 -->
<g id="edge33_Node000028_Node000031" class="edge">
<title>Node28&#45;&gt;Node31</title>
<g id="a_edge33_Node000028_Node000031"><a xlink:title=" ">
<path fill="none" stroke="#63b8ff" d="M1727.13,-115.37C1741.33,-106.04 1764.2,-91.01 1781.12,-79.88"/>
<polygon fill="#63b8ff" stroke="#63b8ff" points="1783.38,-82.58 1789.81,-74.17 1779.53,-76.74 1783.38,-82.58"/>
</a>
</g>
</g>
</g>
</svg>

<g id="navigator" transform="translate(0 0)" fill="#404254">
  <rect fill="#f2f5e9" fill-opacity="0.5" stroke="#606060" stroke-width=".5" x="0" y="0" width="60" height="60"/>
  <use id="zoomplus" xlink:href="#zoomPlus" x="17" y="9" onmousedown="handleZoom(evt,'in')"/>
  <use id="zoomminus" xlink:href="#zoomMin" x="42" y="9" onmousedown="handleZoom(evt,'out')"/>
  <use id="reset" xlink:href="#resetDef" x="30" y="36" onmousedown="handleReset()"/>
   <use id="arrowup" xlink:href="#arrowUp" x="0" y="0" onmousedown="handlePan(0,-1)"/>
  <use id="arrowright" xlink:href="#arrowRight" x="0" y="0" onmousedown="handlePan(1,0)"/>
  <use id="arrowdown" xlink:href="#arrowDown" x="0" y="0" onmousedown="handlePan(0,1)"/>
  <use id="arrowleft" xlink:href="#arrowLeft" x="0" y="0" onmousedown="handlePan(-1,0)"/>
</g>
<svg viewBox="0 0 15 15" width="100%" height="30px" preserveAspectRatio="xMaxYMin meet">
 <g id="arrow_out" transform="scale(0.3 0.3)">
  <a xlink:href="mainwindow_8h__incl_org.svg" target="_base">
   <rect id="button" ry="5" rx="5" y="6" x="6" height="38" width="38"
        fill="#f2f5e9" fill-opacity="0.5" stroke="#606060" stroke-width="1.0"/>
   <path id="arrow"
     d="M 11.500037,31.436501 C 11.940474,20.09759 22.043105,11.32322 32.158766,21.979434 L 37.068811,17.246167 C 37.068811,17.246167 37.088388,32 37.088388,32 L 22.160133,31.978069 C 22.160133,31.978069 26.997745,27.140456 26.997745,27.140456 C 18.528582,18.264221 13.291696,25.230495 11.500037,31.436501 z"
     style="fill:#404040;"/>
  </a>
 </g>
</svg>

<style type='text/css'>
<![CDATA[
[data-mouse-over-selected='false'] { opacity: 0.7; }
[data-mouse-over-selected='true']  { opacity: 1.0; }
]]>
</style>
<script type="application/ecmascript"><![CDATA[
document.addEventListener('DOMContentLoaded', (event) => {
  highlightEdges();
  highlightAdjacentNodes();
});
]]></script>
</svg>
