<?xml version="1.0" encoding="UTF-8" standalone="no"?>
<!DOCTYPE svg PUBLIC "-//W3C//DTD SVG 1.1//EN"
 "http://www.w3.org/Graphics/SVG/1.1/DTD/svg11.dtd">
<!-- Generated by graphviz version 2.43.0 (0)
 -->
<!-- Title: src/libs/xerces&#45;c/msvc/include/xercesc/dom/impl/DOMNodeBase.hpp Pages: 1 -->
<svg width="1942pt" height="284pt"
 viewBox="0.00 0.00 1942.25 284.00" xmlns="http://www.w3.org/2000/svg" xmlns:xlink="http://www.w3.org/1999/xlink">
<g id="graph0" class="graph" transform="scale(1 1) rotate(0) translate(4 280)">
<title>src/libs/xerces&#45;c/msvc/include/xercesc/dom/impl/DOMNodeBase.hpp</title>
<polygon fill="white" stroke="transparent" points="-4,4 -4,-280 1938.25,-280 1938.25,4 -4,4"/>
<!-- Node1 -->
<g id="node1" class="node">
<title>Node1</title>
<g id="a_node1"><a xlink:title=" ">
<polygon fill="#bfbfbf" stroke="black" points="893.67,-234.5 893.67,-275.5 1037.67,-275.5 1037.67,-234.5 893.67,-234.5"/>
<text text-anchor="start" x="901.67" y="-263.5" font-family="Helvetica,sans-Serif" font-size="10.00">src/libs/xerces&#45;c/msvc</text>
<text text-anchor="start" x="901.67" y="-252.5" font-family="Helvetica,sans-Serif" font-size="10.00">/include/xercesc/dom/impl</text>
<text text-anchor="middle" x="965.67" y="-241.5" font-family="Helvetica,sans-Serif" font-size="10.00">/DOMNodeBase.hpp</text>
</a>
</g>
</g>
<!-- Node2 -->
<g id="node2" class="node">
<title>Node2</title>
<g id="a_node2"><a xlink:href="../../dd/d8d/msvc_2include_2xercesc_2dom_2impl_2DOMCasts_8hpp.html" target="_top" xlink:title=" ">
<polygon fill="white" stroke="black" points="1055.67,-78.5 1055.67,-119.5 1199.67,-119.5 1199.67,-78.5 1055.67,-78.5"/>
<text text-anchor="start" x="1063.67" y="-107.5" font-family="Helvetica,sans-Serif" font-size="10.00">src/libs/xerces&#45;c/msvc</text>
<text text-anchor="start" x="1063.67" y="-96.5" font-family="Helvetica,sans-Serif" font-size="10.00">/include/xercesc/dom/impl</text>
<text text-anchor="middle" x="1127.67" y="-85.5" font-family="Helvetica,sans-Serif" font-size="10.00">/DOMCasts.hpp</text>
</a>
</g>
</g>
<!-- Node1&#45;&gt;Node2 -->
<g id="edge1" class="edge">
<title>Node1&#45;&gt;Node2</title>
<path fill="none" stroke="midnightblue" d="M1048.03,-252.23C1275.01,-246.95 1894.79,-229.68 1924.67,-198 1937.48,-184.42 1937.4,-169.65 1924.67,-156 1875.81,-103.59 1386.61,-99.3 1199.72,-99.6"/>
<polygon fill="midnightblue" stroke="midnightblue" points="1047.76,-248.73 1037.85,-252.46 1047.93,-255.73 1047.76,-248.73"/>
</g>
<!-- Node3 -->
<g id="node3" class="node">
<title>Node3</title>
<g id="a_node3"><a xlink:href="../../dc/d7d/msvc_2include_2xercesc_2dom_2impl_2DOMCommentImpl_8hpp.html" target="_top" xlink:title=" ">
<polygon fill="white" stroke="black" points="17.67,-156.5 17.67,-197.5 161.67,-197.5 161.67,-156.5 17.67,-156.5"/>
<text text-anchor="start" x="25.67" y="-185.5" font-family="Helvetica,sans-Serif" font-size="10.00">src/libs/xerces&#45;c/msvc</text>
<text text-anchor="start" x="25.67" y="-174.5" font-family="Helvetica,sans-Serif" font-size="10.00">/include/xercesc/dom/impl</text>
<text text-anchor="middle" x="89.67" y="-163.5" font-family="Helvetica,sans-Serif" font-size="10.00">/DOMCommentImpl.hpp</text>
</a>
</g>
</g>
<!-- Node1&#45;&gt;Node3 -->
<g id="edge2" class="edge">
<title>Node1&#45;&gt;Node3</title>
<path fill="none" stroke="midnightblue" d="M883.25,-252.85C738.29,-249.78 428.61,-238.62 170.67,-198 167.81,-197.55 164.9,-197.05 161.97,-196.5"/>
<polygon fill="midnightblue" stroke="midnightblue" points="883.33,-256.35 893.4,-253.05 883.47,-249.35 883.33,-256.35"/>
</g>
<!-- Node4 -->
<g id="node4" class="node">
<title>Node4</title>
<g id="a_node4"><a xlink:href="../../de/d08/msvc_2include_2xercesc_2dom_2impl_2DOMAttrImpl_8hpp.html" target="_top" xlink:title=" ">
<polygon fill="white" stroke="black" points="48.67,-78.5 48.67,-119.5 192.67,-119.5 192.67,-78.5 48.67,-78.5"/>
<text text-anchor="start" x="56.67" y="-107.5" font-family="Helvetica,sans-Serif" font-size="10.00">src/libs/xerces&#45;c/msvc</text>
<text text-anchor="start" x="56.67" y="-96.5" font-family="Helvetica,sans-Serif" font-size="10.00">/include/xercesc/dom/impl</text>
<text text-anchor="middle" x="120.67" y="-85.5" font-family="Helvetica,sans-Serif" font-size="10.00">/DOMAttrImpl.hpp</text>
</a>
</g>
</g>
<!-- Node1&#45;&gt;Node4 -->
<g id="edge3" class="edge">
<title>Node1&#45;&gt;Node4</title>
<path fill="none" stroke="midnightblue" d="M883.48,-252.22C656.97,-246.93 38.49,-229.62 8.67,-198 -4.14,-184.42 -1.14,-171.88 8.67,-156 18.79,-139.63 35.29,-127.89 52.56,-119.53"/>
<polygon fill="midnightblue" stroke="midnightblue" points="883.56,-255.73 893.64,-252.46 883.73,-248.73 883.56,-255.73"/>
</g>
<!-- Node6 -->
<g id="node6" class="node">
<title>Node6</title>
<g id="a_node6"><a xlink:href="../../d3/d3c/msvc_2include_2xercesc_2dom_2impl_2DOMCDATASectionImpl_8hpp.html" target="_top" xlink:title=" ">
<polygon fill="white" stroke="black" points="342.17,-156.5 342.17,-197.5 497.17,-197.5 497.17,-156.5 342.17,-156.5"/>
<text text-anchor="start" x="350.17" y="-185.5" font-family="Helvetica,sans-Serif" font-size="10.00">src/libs/xerces&#45;c/msvc</text>
<text text-anchor="start" x="350.17" y="-174.5" font-family="Helvetica,sans-Serif" font-size="10.00">/include/xercesc/dom/impl</text>
<text text-anchor="middle" x="419.67" y="-163.5" font-family="Helvetica,sans-Serif" font-size="10.00">/DOMCDATASectionImpl.hpp</text>
</a>
</g>
</g>
<!-- Node1&#45;&gt;Node6 -->
<g id="edge5" class="edge">
<title>Node1&#45;&gt;Node6</title>
<path fill="none" stroke="midnightblue" d="M883.28,-246.57C791.11,-237.65 637.57,-220.97 506.67,-198 503.62,-197.46 500.51,-196.89 497.38,-196.29"/>
<polygon fill="midnightblue" stroke="midnightblue" points="883.09,-250.07 893.38,-247.54 883.76,-243.1 883.09,-250.07"/>
</g>
<!-- Node7 -->
<g id="node7" class="node">
<title>Node7</title>
<g id="a_node7"><a xlink:href="../../df/d65/msvc_2include_2xercesc_2dom_2impl_2DOMDocumentFragmentImpl_8hpp.html" target="_top" xlink:title=" ">
<polygon fill="white" stroke="black" points="515.17,-156.5 515.17,-197.5 698.17,-197.5 698.17,-156.5 515.17,-156.5"/>
<text text-anchor="start" x="523.17" y="-185.5" font-family="Helvetica,sans-Serif" font-size="10.00">src/libs/xerces&#45;c/msvc</text>
<text text-anchor="start" x="523.17" y="-174.5" font-family="Helvetica,sans-Serif" font-size="10.00">/include/xercesc/dom/impl</text>
<text text-anchor="middle" x="606.67" y="-163.5" font-family="Helvetica,sans-Serif" font-size="10.00">/DOMDocumentFragmentImpl.hpp</text>
</a>
</g>
</g>
<!-- Node1&#45;&gt;Node7 -->
<g id="edge6" class="edge">
<title>Node1&#45;&gt;Node7</title>
<path fill="none" stroke="midnightblue" d="M883.35,-236.57C828.13,-224.88 755.33,-209.47 698.26,-197.39"/>
<polygon fill="midnightblue" stroke="midnightblue" points="882.95,-240.06 893.45,-238.71 884.39,-233.22 882.95,-240.06"/>
</g>
<!-- Node8 -->
<g id="node8" class="node">
<title>Node8</title>
<g id="a_node8"><a xlink:href="../../de/de5/msvc_2include_2xercesc_2dom_2impl_2DOMDocumentTypeImpl_8hpp.html" target="_top" xlink:title=" ">
<polygon fill="white" stroke="black" points="716.17,-156.5 716.17,-197.5 875.17,-197.5 875.17,-156.5 716.17,-156.5"/>
<text text-anchor="start" x="724.17" y="-185.5" font-family="Helvetica,sans-Serif" font-size="10.00">src/libs/xerces&#45;c/msvc</text>
<text text-anchor="start" x="724.17" y="-174.5" font-family="Helvetica,sans-Serif" font-size="10.00">/include/xercesc/dom/impl</text>
<text text-anchor="middle" x="795.67" y="-163.5" font-family="Helvetica,sans-Serif" font-size="10.00">/DOMDocumentTypeImpl.hpp</text>
</a>
</g>
</g>
<!-- Node1&#45;&gt;Node8 -->
<g id="edge7" class="edge">
<title>Node1&#45;&gt;Node8</title>
<path fill="none" stroke="midnightblue" d="M912.72,-230.33C889.13,-219.78 861.69,-207.51 839.3,-197.51"/>
<polygon fill="midnightblue" stroke="midnightblue" points="911.33,-233.54 921.89,-234.43 914.19,-227.15 911.33,-233.54"/>
</g>
<!-- Node9 -->
<g id="node9" class="node">
<title>Node9</title>
<g id="a_node9"><a xlink:href="../../d2/d5e/msvc_2include_2xercesc_2dom_2impl_2DOMDocumentImpl_8hpp.html" target="_top" xlink:title=" ">
<polygon fill="white" stroke="black" points="179.67,-156.5 179.67,-197.5 323.67,-197.5 323.67,-156.5 179.67,-156.5"/>
<text text-anchor="start" x="187.67" y="-185.5" font-family="Helvetica,sans-Serif" font-size="10.00">src/libs/xerces&#45;c/msvc</text>
<text text-anchor="start" x="187.67" y="-174.5" font-family="Helvetica,sans-Serif" font-size="10.00">/include/xercesc/dom/impl</text>
<text text-anchor="middle" x="251.67" y="-163.5" font-family="Helvetica,sans-Serif" font-size="10.00">/DOMDocumentImpl.hpp</text>
</a>
</g>
</g>
<!-- Node1&#45;&gt;Node9 -->
<g id="edge8" class="edge">
<title>Node1&#45;&gt;Node9</title>
<path fill="none" stroke="midnightblue" d="M883.23,-250.76C761.93,-245.07 528.56,-230.65 332.67,-198 329.81,-197.52 326.91,-197 323.98,-196.44"/>
<polygon fill="midnightblue" stroke="midnightblue" points="883.39,-254.27 893.54,-251.23 883.72,-247.28 883.39,-254.27"/>
</g>
<!-- Node10 -->
<g id="node10" class="node">
<title>Node10</title>
<g id="a_node10"><a xlink:href="../../d4/dff/msvc_2include_2xercesc_2dom_2impl_2DOMElementImpl_8hpp.html" target="_top" xlink:title=" ">
<polygon fill="white" stroke="black" points="893.67,-156.5 893.67,-197.5 1037.67,-197.5 1037.67,-156.5 893.67,-156.5"/>
<text text-anchor="start" x="901.67" y="-185.5" font-family="Helvetica,sans-Serif" font-size="10.00">src/libs/xerces&#45;c/msvc</text>
<text text-anchor="start" x="901.67" y="-174.5" font-family="Helvetica,sans-Serif" font-size="10.00">/include/xercesc/dom/impl</text>
<text text-anchor="middle" x="965.67" y="-163.5" font-family="Helvetica,sans-Serif" font-size="10.00">/DOMElementImpl.hpp</text>
</a>
</g>
</g>
<!-- Node1&#45;&gt;Node10 -->
<g id="edge10" class="edge">
<title>Node1&#45;&gt;Node10</title>
<path fill="none" stroke="midnightblue" d="M965.67,-224.3C965.67,-215.3 965.67,-205.65 965.67,-197.51"/>
<polygon fill="midnightblue" stroke="midnightblue" points="962.17,-224.43 965.67,-234.43 969.17,-224.43 962.17,-224.43"/>
</g>
<!-- Node13 -->
<g id="node13" class="node">
<title>Node13</title>
<g id="a_node13"><a xlink:href="../../dc/d29/msvc_2include_2xercesc_2dom_2impl_2DOMEntityImpl_8hpp.html" target="_top" xlink:title=" ">
<polygon fill="white" stroke="black" points="1217.67,-156.5 1217.67,-197.5 1361.67,-197.5 1361.67,-156.5 1217.67,-156.5"/>
<text text-anchor="start" x="1225.67" y="-185.5" font-family="Helvetica,sans-Serif" font-size="10.00">src/libs/xerces&#45;c/msvc</text>
<text text-anchor="start" x="1225.67" y="-174.5" font-family="Helvetica,sans-Serif" font-size="10.00">/include/xercesc/dom/impl</text>
<text text-anchor="middle" x="1289.67" y="-163.5" font-family="Helvetica,sans-Serif" font-size="10.00">/DOMEntityImpl.hpp</text>
</a>
</g>
</g>
<!-- Node1&#45;&gt;Node13 -->
<g id="edge14" class="edge">
<title>Node1&#45;&gt;Node13</title>
<path fill="none" stroke="midnightblue" d="M1047.63,-235.45C1094.78,-224.69 1155.1,-210.78 1208.67,-198 1211.49,-197.33 1214.36,-196.64 1217.26,-195.94"/>
<polygon fill="midnightblue" stroke="midnightblue" points="1046.75,-232.06 1037.78,-237.69 1048.3,-238.88 1046.75,-232.06"/>
</g>
<!-- Node14 -->
<g id="node14" class="node">
<title>Node14</title>
<g id="a_node14"><a xlink:href="../../dc/dba/msvc_2include_2xercesc_2dom_2impl_2DOMEntityReferenceImpl_8hpp.html" target="_top" xlink:title=" ">
<polygon fill="white" stroke="black" points="1379.67,-156.5 1379.67,-197.5 1543.67,-197.5 1543.67,-156.5 1379.67,-156.5"/>
<text text-anchor="start" x="1387.67" y="-185.5" font-family="Helvetica,sans-Serif" font-size="10.00">src/libs/xerces&#45;c/msvc</text>
<text text-anchor="start" x="1387.67" y="-174.5" font-family="Helvetica,sans-Serif" font-size="10.00">/include/xercesc/dom/impl</text>
<text text-anchor="middle" x="1461.67" y="-163.5" font-family="Helvetica,sans-Serif" font-size="10.00">/DOMEntityReferenceImpl.hpp</text>
</a>
</g>
</g>
<!-- Node1&#45;&gt;Node14 -->
<g id="edge15" class="edge">
<title>Node1&#45;&gt;Node14</title>
<path fill="none" stroke="midnightblue" d="M1048.02,-244.55C1130.06,-234.67 1259.49,-217.87 1370.67,-198 1373.54,-197.49 1376.45,-196.95 1379.39,-196.39"/>
<polygon fill="midnightblue" stroke="midnightblue" points="1047.52,-241.08 1038,-245.75 1048.35,-248.03 1047.52,-241.08"/>
</g>
<!-- Node15 -->
<g id="node15" class="node">
<title>Node15</title>
<g id="a_node15"><a xlink:href="../../d1/d32/msvc_2include_2xercesc_2dom_2impl_2DOMNotationImpl_8hpp.html" target="_top" xlink:title=" ">
<polygon fill="white" stroke="black" points="1561.67,-156.5 1561.67,-197.5 1705.67,-197.5 1705.67,-156.5 1561.67,-156.5"/>
<text text-anchor="start" x="1569.67" y="-185.5" font-family="Helvetica,sans-Serif" font-size="10.00">src/libs/xerces&#45;c/msvc</text>
<text text-anchor="start" x="1569.67" y="-174.5" font-family="Helvetica,sans-Serif" font-size="10.00">/include/xercesc/dom/impl</text>
<text text-anchor="middle" x="1633.67" y="-163.5" font-family="Helvetica,sans-Serif" font-size="10.00">/DOMNotationImpl.hpp</text>
</a>
</g>
</g>
<!-- Node1&#45;&gt;Node15 -->
<g id="edge16" class="edge">
<title>Node1&#45;&gt;Node15</title>
<path fill="none" stroke="midnightblue" d="M1048.01,-249.97C1162.03,-243.52 1374.13,-228.39 1552.67,-198 1555.53,-197.51 1558.43,-196.98 1561.36,-196.41"/>
<polygon fill="midnightblue" stroke="midnightblue" points="1047.75,-246.48 1037.96,-250.53 1048.14,-253.47 1047.75,-246.48"/>
</g>
<!-- Node16 -->
<g id="node16" class="node">
<title>Node16</title>
<g id="a_node16"><a xlink:href="../../dc/d12/msvc_2include_2xercesc_2dom_2impl_2DOMProcessingInstructionImpl_8hpp.html" target="_top" xlink:title=" ">
<polygon fill="white" stroke="black" points="1724.17,-156.5 1724.17,-197.5 1915.17,-197.5 1915.17,-156.5 1724.17,-156.5"/>
<text text-anchor="start" x="1732.17" y="-185.5" font-family="Helvetica,sans-Serif" font-size="10.00">src/libs/xerces&#45;c/msvc</text>
<text text-anchor="start" x="1732.17" y="-174.5" font-family="Helvetica,sans-Serif" font-size="10.00">/include/xercesc/dom/impl</text>
<text text-anchor="middle" x="1819.67" y="-163.5" font-family="Helvetica,sans-Serif" font-size="10.00">/DOMProcessingInstructionImpl.hpp</text>
</a>
</g>
</g>
<!-- Node1&#45;&gt;Node16 -->
<g id="edge17" class="edge">
<title>Node1&#45;&gt;Node16</title>
<path fill="none" stroke="midnightblue" d="M1047.82,-250.91C1185.99,-245.04 1473.47,-229.88 1714.67,-198 1717.71,-197.6 1720.79,-197.17 1723.89,-196.71"/>
<polygon fill="midnightblue" stroke="midnightblue" points="1047.57,-247.42 1037.73,-251.34 1047.87,-254.41 1047.57,-247.42"/>
</g>
<!-- Node17 -->
<g id="node17" class="node">
<title>Node17</title>
<g id="a_node17"><a xlink:href="../../df/de1/msvc_2include_2xercesc_2dom_2impl_2DOMTextImpl_8hpp.html" target="_top" xlink:title=" ">
<polygon fill="white" stroke="black" points="1055.67,-156.5 1055.67,-197.5 1199.67,-197.5 1199.67,-156.5 1055.67,-156.5"/>
<text text-anchor="start" x="1063.67" y="-185.5" font-family="Helvetica,sans-Serif" font-size="10.00">src/libs/xerces&#45;c/msvc</text>
<text text-anchor="start" x="1063.67" y="-174.5" font-family="Helvetica,sans-Serif" font-size="10.00">/include/xercesc/dom/impl</text>
<text text-anchor="middle" x="1127.67" y="-163.5" font-family="Helvetica,sans-Serif" font-size="10.00">/DOMTextImpl.hpp</text>
</a>
</g>
</g>
<!-- Node1&#45;&gt;Node17 -->
<g id="edge18" class="edge">
<title>Node1&#45;&gt;Node17</title>
<path fill="none" stroke="midnightblue" d="M1016.72,-230.05C1039.07,-219.57 1064.95,-207.42 1086.09,-197.51"/>
<polygon fill="midnightblue" stroke="midnightblue" points="1014.96,-227.01 1007.39,-234.43 1017.93,-233.35 1014.96,-227.01"/>
</g>
<!-- Node5 -->
<g id="node5" class="node">
<title>Node5</title>
<g id="a_node5"><a xlink:href="../../de/d6a/msvc_2include_2xercesc_2dom_2impl_2DOMAttrNSImpl_8hpp.html" target="_top" xlink:title=" ">
<polygon fill="white" stroke="black" points="48.67,-0.5 48.67,-41.5 192.67,-41.5 192.67,-0.5 48.67,-0.5"/>
<text text-anchor="start" x="56.67" y="-29.5" font-family="Helvetica,sans-Serif" font-size="10.00">src/libs/xerces&#45;c/msvc</text>
<text text-anchor="start" x="56.67" y="-18.5" font-family="Helvetica,sans-Serif" font-size="10.00">/include/xercesc/dom/impl</text>
<text text-anchor="middle" x="120.67" y="-7.5" font-family="Helvetica,sans-Serif" font-size="10.00">/DOMAttrNSImpl.hpp</text>
</a>
</g>
</g>
<!-- Node4&#45;&gt;Node5 -->
<g id="edge4" class="edge">
<title>Node4&#45;&gt;Node5</title>
<path fill="none" stroke="midnightblue" d="M120.67,-68.3C120.67,-59.3 120.67,-49.65 120.67,-41.51"/>
<polygon fill="midnightblue" stroke="midnightblue" points="117.17,-68.43 120.67,-78.43 124.17,-68.43 117.17,-68.43"/>
</g>
<!-- Node9&#45;&gt;Node4 -->
<g id="edge9" class="edge">
<title>Node9&#45;&gt;Node4</title>
<path fill="none" stroke="midnightblue" d="M208.93,-151.2C191.2,-140.92 170.93,-129.16 154.29,-119.51"/>
<polygon fill="midnightblue" stroke="midnightblue" points="207.53,-154.44 217.93,-156.43 211.04,-148.38 207.53,-154.44"/>
</g>
<!-- Node10&#45;&gt;Node2 -->
<g id="edge11" class="edge">
<title>Node10&#45;&gt;Node2</title>
<path fill="none" stroke="midnightblue" d="M1016.72,-152.05C1039.07,-141.57 1064.95,-129.42 1086.09,-119.51"/>
<polygon fill="midnightblue" stroke="midnightblue" points="1014.96,-149.01 1007.39,-156.43 1017.93,-155.35 1014.96,-149.01"/>
</g>
<!-- Node11 -->
<g id="node11" class="node">
<title>Node11</title>
<g id="a_node11"><a xlink:href="../../d4/da4/msvc_2include_2xercesc_2dom_2impl_2DOMElementNSImpl_8hpp.html" target="_top" xlink:title=" ">
<polygon fill="white" stroke="black" points="893.67,-78.5 893.67,-119.5 1037.67,-119.5 1037.67,-78.5 893.67,-78.5"/>
<text text-anchor="start" x="901.67" y="-107.5" font-family="Helvetica,sans-Serif" font-size="10.00">src/libs/xerces&#45;c/msvc</text>
<text text-anchor="start" x="901.67" y="-96.5" font-family="Helvetica,sans-Serif" font-size="10.00">/include/xercesc/dom/impl</text>
<text text-anchor="middle" x="965.67" y="-85.5" font-family="Helvetica,sans-Serif" font-size="10.00">/DOMElementNSImpl.hpp</text>
</a>
</g>
</g>
<!-- Node10&#45;&gt;Node11 -->
<g id="edge12" class="edge">
<title>Node10&#45;&gt;Node11</title>
<path fill="none" stroke="midnightblue" d="M965.67,-146.3C965.67,-137.3 965.67,-127.65 965.67,-119.51"/>
<polygon fill="midnightblue" stroke="midnightblue" points="962.17,-146.43 965.67,-156.43 969.17,-146.43 962.17,-146.43"/>
</g>
<!-- Node12 -->
<g id="node12" class="node">
<title>Node12</title>
<g id="a_node12"><a xlink:href="../../db/d0c/msvc_2include_2xercesc_2dom_2impl_2XSDElementNSImpl_8hpp.html" target="_top" xlink:title=" ">
<polygon fill="white" stroke="black" points="893.67,-0.5 893.67,-41.5 1037.67,-41.5 1037.67,-0.5 893.67,-0.5"/>
<text text-anchor="start" x="901.67" y="-29.5" font-family="Helvetica,sans-Serif" font-size="10.00">src/libs/xerces&#45;c/msvc</text>
<text text-anchor="start" x="901.67" y="-18.5" font-family="Helvetica,sans-Serif" font-size="10.00">/include/xercesc/dom/impl</text>
<text text-anchor="middle" x="965.67" y="-7.5" font-family="Helvetica,sans-Serif" font-size="10.00">/XSDElementNSImpl.hpp</text>
</a>
</g>
</g>
<!-- Node11&#45;&gt;Node12 -->
<g id="edge13" class="edge">
<title>Node11&#45;&gt;Node12</title>
<path fill="none" stroke="midnightblue" d="M965.67,-68.3C965.67,-59.3 965.67,-49.65 965.67,-41.51"/>
<polygon fill="midnightblue" stroke="midnightblue" points="962.17,-68.43 965.67,-78.43 969.17,-68.43 962.17,-68.43"/>
</g>
<!-- Node17&#45;&gt;Node2 -->
<g id="edge19" class="edge">
<title>Node17&#45;&gt;Node2</title>
<path fill="none" stroke="midnightblue" d="M1127.67,-146.3C1127.67,-137.3 1127.67,-127.65 1127.67,-119.51"/>
<polygon fill="midnightblue" stroke="midnightblue" points="1124.17,-146.43 1127.67,-156.43 1131.17,-146.43 1124.17,-146.43"/>
</g>
</g>
</svg>
