<?xml version="1.0" encoding="UTF-8" standalone="no"?>
<!DOCTYPE svg PUBLIC "-//W3C//DTD SVG 1.1//EN"
 "http://www.w3.org/Graphics/SVG/1.1/DTD/svg11.dtd">
<!-- Generated by graphviz version 2.43.0 (0)
 -->
<!-- Title: src/libs/vtools/tools/drawTools/toolpoint/toolsinglepoint/toollinepoint/vtoollinepoint.h Pages: 1 -->
<svg width="2612pt" height="306pt"
 viewBox="0.00 0.00 2612.00 306.00" xmlns="http://www.w3.org/2000/svg" xmlns:xlink="http://www.w3.org/1999/xlink">
<g id="graph0" class="graph" transform="scale(1 1) rotate(0) translate(4 302)">
<title>src/libs/vtools/tools/drawTools/toolpoint/toolsinglepoint/toollinepoint/vtoollinepoint.h</title>
<polygon fill="white" stroke="transparent" points="-4,4 -4,-302 2608,-302 2608,4 -4,4"/>
<!-- Node1 -->
<g id="node1" class="node">
<title>Node1</title>
<g id="a_node1"><a xlink:title=" ">
<polygon fill="#bfbfbf" stroke="black" points="1227,-245.5 1227,-297.5 1384,-297.5 1384,-245.5 1227,-245.5"/>
<text text-anchor="start" x="1235" y="-285.5" font-family="Helvetica,sans-Serif" font-size="10.00">src/libs/vtools/tools</text>
<text text-anchor="start" x="1235" y="-274.5" font-family="Helvetica,sans-Serif" font-size="10.00">/drawTools/toolpoint</text>
<text text-anchor="start" x="1235" y="-263.5" font-family="Helvetica,sans-Serif" font-size="10.00">/toolsinglepoint/toollinepoint</text>
<text text-anchor="middle" x="1305.5" y="-252.5" font-family="Helvetica,sans-Serif" font-size="10.00">/vtoollinepoint.h</text>
</a>
</g>
</g>
<!-- Node2 -->
<g id="node2" class="node">
<title>Node2</title>
<g id="a_node2"><a xlink:href="../../d5/d9f/vtoolalongline_8h.html" target="_top" xlink:title=" ">
<polygon fill="white" stroke="black" points="624,-156.5 624,-208.5 781,-208.5 781,-156.5 624,-156.5"/>
<text text-anchor="start" x="632" y="-196.5" font-family="Helvetica,sans-Serif" font-size="10.00">src/libs/vtools/tools</text>
<text text-anchor="start" x="632" y="-185.5" font-family="Helvetica,sans-Serif" font-size="10.00">/drawTools/toolpoint</text>
<text text-anchor="start" x="632" y="-174.5" font-family="Helvetica,sans-Serif" font-size="10.00">/toolsinglepoint/toollinepoint</text>
<text text-anchor="middle" x="702.5" y="-163.5" font-family="Helvetica,sans-Serif" font-size="10.00">/vtoolalongline.h</text>
</a>
</g>
</g>
<!-- Node1&#45;&gt;Node2 -->
<g id="edge1" class="edge">
<title>Node1&#45;&gt;Node2</title>
<path fill="none" stroke="midnightblue" d="M1216.76,-263.8C1114.53,-255.15 941.81,-237.72 795.5,-209 790.82,-208.08 786.03,-207.05 781.21,-205.94"/>
<polygon fill="midnightblue" stroke="midnightblue" points="1216.48,-267.29 1226.74,-264.63 1217.07,-260.31 1216.48,-267.29"/>
</g>
<!-- Node5 -->
<g id="node5" class="node">
<title>Node5</title>
<g id="a_node5"><a xlink:href="../../d8/d68/vtoolalongline_8cpp.html" target="_top" xlink:title=" ">
<polygon fill="white" stroke="black" points="342,-67.5 342,-119.5 499,-119.5 499,-67.5 342,-67.5"/>
<text text-anchor="start" x="350" y="-107.5" font-family="Helvetica,sans-Serif" font-size="10.00">src/libs/vtools/tools</text>
<text text-anchor="start" x="350" y="-96.5" font-family="Helvetica,sans-Serif" font-size="10.00">/drawTools/toolpoint</text>
<text text-anchor="start" x="350" y="-85.5" font-family="Helvetica,sans-Serif" font-size="10.00">/toolsinglepoint/toollinepoint</text>
<text text-anchor="middle" x="420.5" y="-74.5" font-family="Helvetica,sans-Serif" font-size="10.00">/vtoolalongline.cpp</text>
</a>
</g>
</g>
<!-- Node1&#45;&gt;Node5 -->
<g id="edge5" class="edge">
<title>Node1&#45;&gt;Node5</title>
<path fill="none" stroke="midnightblue" d="M1216.41,-267.46C1055.79,-261.16 724.17,-244.25 614.5,-209 552.69,-189.13 489.47,-146.89 452.66,-119.64"/>
<polygon fill="midnightblue" stroke="midnightblue" points="1216.61,-270.97 1226.74,-267.85 1216.88,-263.97 1216.61,-270.97"/>
</g>
<!-- Node6 -->
<g id="node6" class="node">
<title>Node6</title>
<g id="a_node6"><a xlink:href="../../d9/d45/vtoolbisector_8h.html" target="_top" xlink:title=" ">
<polygon fill="white" stroke="black" points="246,-156.5 246,-208.5 403,-208.5 403,-156.5 246,-156.5"/>
<text text-anchor="start" x="254" y="-196.5" font-family="Helvetica,sans-Serif" font-size="10.00">src/libs/vtools/tools</text>
<text text-anchor="start" x="254" y="-185.5" font-family="Helvetica,sans-Serif" font-size="10.00">/drawTools/toolpoint</text>
<text text-anchor="start" x="254" y="-174.5" font-family="Helvetica,sans-Serif" font-size="10.00">/toolsinglepoint/toollinepoint</text>
<text text-anchor="middle" x="324.5" y="-163.5" font-family="Helvetica,sans-Serif" font-size="10.00">/vtoolbisector.h</text>
</a>
</g>
</g>
<!-- Node1&#45;&gt;Node6 -->
<g id="edge6" class="edge">
<title>Node1&#45;&gt;Node6</title>
<path fill="none" stroke="midnightblue" d="M1216.78,-265.98C1067.11,-257.86 755.1,-238.82 492.5,-209 463.33,-205.69 431.46,-201.1 403.39,-196.72"/>
<polygon fill="midnightblue" stroke="midnightblue" points="1216.66,-269.47 1226.83,-266.52 1217.04,-262.48 1216.66,-269.47"/>
</g>
<!-- Node7 -->
<g id="node7" class="node">
<title>Node7</title>
<g id="a_node7"><a xlink:href="../../d6/d07/vtoolbisector_8cpp.html" target="_top" xlink:title=" ">
<polygon fill="white" stroke="black" points="0,-67.5 0,-119.5 157,-119.5 157,-67.5 0,-67.5"/>
<text text-anchor="start" x="8" y="-107.5" font-family="Helvetica,sans-Serif" font-size="10.00">src/libs/vtools/tools</text>
<text text-anchor="start" x="8" y="-96.5" font-family="Helvetica,sans-Serif" font-size="10.00">/drawTools/toolpoint</text>
<text text-anchor="start" x="8" y="-85.5" font-family="Helvetica,sans-Serif" font-size="10.00">/toolsinglepoint/toollinepoint</text>
<text text-anchor="middle" x="78.5" y="-74.5" font-family="Helvetica,sans-Serif" font-size="10.00">/vtoolbisector.cpp</text>
</a>
</g>
</g>
<!-- Node1&#45;&gt;Node7 -->
<g id="edge10" class="edge">
<title>Node1&#45;&gt;Node7</title>
<path fill="none" stroke="midnightblue" d="M1216.92,-268.26C977.2,-261.79 327.62,-241.47 236.5,-209 183.21,-190.01 132.21,-147.07 103.19,-119.51"/>
<polygon fill="midnightblue" stroke="midnightblue" points="1216.9,-271.76 1226.99,-268.53 1217.09,-264.76 1216.9,-271.76"/>
</g>
<!-- Node9 -->
<g id="node9" class="node">
<title>Node9</title>
<g id="a_node9"><a xlink:href="../../d5/de5/vtoolendline_8h.html" target="_top" xlink:title=" ">
<polygon fill="white" stroke="black" points="838,-156.5 838,-208.5 995,-208.5 995,-156.5 838,-156.5"/>
<text text-anchor="start" x="846" y="-196.5" font-family="Helvetica,sans-Serif" font-size="10.00">src/libs/vtools/tools</text>
<text text-anchor="start" x="846" y="-185.5" font-family="Helvetica,sans-Serif" font-size="10.00">/drawTools/toolpoint</text>
<text text-anchor="start" x="846" y="-174.5" font-family="Helvetica,sans-Serif" font-size="10.00">/toolsinglepoint/toollinepoint</text>
<text text-anchor="middle" x="916.5" y="-163.5" font-family="Helvetica,sans-Serif" font-size="10.00">/vtoolendline.h</text>
</a>
</g>
</g>
<!-- Node1&#45;&gt;Node9 -->
<g id="edge11" class="edge">
<title>Node1&#45;&gt;Node9</title>
<path fill="none" stroke="midnightblue" d="M1216.96,-253.61C1157.97,-241.99 1078.84,-225.69 1009.5,-209 1004.78,-207.86 999.94,-206.66 995.06,-205.41"/>
<polygon fill="midnightblue" stroke="midnightblue" points="1216.5,-257.09 1226.99,-255.58 1217.85,-250.22 1216.5,-257.09"/>
</g>
<!-- Node10 -->
<g id="node10" class="node">
<title>Node10</title>
<g id="a_node10"><a xlink:href="../../d7/d91/vtoolendline_8cpp.html" target="_top" xlink:title=" ">
<polygon fill="white" stroke="black" points="517,-67.5 517,-119.5 674,-119.5 674,-67.5 517,-67.5"/>
<text text-anchor="start" x="525" y="-107.5" font-family="Helvetica,sans-Serif" font-size="10.00">src/libs/vtools/tools</text>
<text text-anchor="start" x="525" y="-96.5" font-family="Helvetica,sans-Serif" font-size="10.00">/drawTools/toolpoint</text>
<text text-anchor="start" x="525" y="-85.5" font-family="Helvetica,sans-Serif" font-size="10.00">/toolsinglepoint/toollinepoint</text>
<text text-anchor="middle" x="595.5" y="-74.5" font-family="Helvetica,sans-Serif" font-size="10.00">/vtoolendline.cpp</text>
</a>
</g>
</g>
<!-- Node1&#45;&gt;Node10 -->
<g id="edge15" class="edge">
<title>Node1&#45;&gt;Node10</title>
<path fill="none" stroke="midnightblue" d="M1216.61,-267.31C1097.15,-261.64 892.38,-246.63 828.5,-209 803.3,-194.16 813.27,-173.03 789.5,-156 784.42,-152.36 725.69,-133.95 674.16,-118.22"/>
<polygon fill="midnightblue" stroke="midnightblue" points="1216.69,-270.82 1226.84,-267.79 1217.01,-263.83 1216.69,-270.82"/>
</g>
<!-- Node11 -->
<g id="node11" class="node">
<title>Node11</title>
<g id="a_node11"><a xlink:href="../../da/d99/vtoolcurveintersectaxis_8cpp.html" target="_top" xlink:title=" ">
<polygon fill="white" stroke="black" points="692,-67.5 692,-119.5 849,-119.5 849,-67.5 692,-67.5"/>
<text text-anchor="start" x="700" y="-107.5" font-family="Helvetica,sans-Serif" font-size="10.00">src/libs/vtools/tools</text>
<text text-anchor="start" x="700" y="-96.5" font-family="Helvetica,sans-Serif" font-size="10.00">/drawTools/toolpoint</text>
<text text-anchor="start" x="700" y="-85.5" font-family="Helvetica,sans-Serif" font-size="10.00">/toolsinglepoint/toollinepoint</text>
<text text-anchor="middle" x="770.5" y="-74.5" font-family="Helvetica,sans-Serif" font-size="10.00">/vtoolcurveintersectaxis.cpp</text>
</a>
</g>
</g>
<!-- Node1&#45;&gt;Node11 -->
<g id="edge14" class="edge">
<title>Node1&#45;&gt;Node11</title>
<path fill="none" stroke="midnightblue" d="M1216.52,-265.18C1162.47,-258.36 1094.17,-243.08 1042.5,-209 1018.09,-192.9 1027.8,-172.27 1003.5,-156 948.32,-119.06 922.62,-137.24 858.5,-120 855.43,-119.17 852.3,-118.32 849.14,-117.45"/>
<polygon fill="midnightblue" stroke="midnightblue" points="1216.44,-268.69 1226.79,-266.39 1217.27,-261.74 1216.44,-268.69"/>
</g>
<!-- Node12 -->
<g id="node12" class="node">
<title>Node12</title>
<g id="a_node12"><a xlink:href="../../d7/d6b/vtoolcurveintersectaxis_8h.html" target="_top" xlink:title=" ">
<polygon fill="white" stroke="black" points="1052,-156.5 1052,-208.5 1209,-208.5 1209,-156.5 1052,-156.5"/>
<text text-anchor="start" x="1060" y="-196.5" font-family="Helvetica,sans-Serif" font-size="10.00">src/libs/vtools/tools</text>
<text text-anchor="start" x="1060" y="-185.5" font-family="Helvetica,sans-Serif" font-size="10.00">/drawTools/toolpoint</text>
<text text-anchor="start" x="1060" y="-174.5" font-family="Helvetica,sans-Serif" font-size="10.00">/toolsinglepoint/toollinepoint</text>
<text text-anchor="middle" x="1130.5" y="-163.5" font-family="Helvetica,sans-Serif" font-size="10.00">/vtoolcurveintersectaxis.h</text>
</a>
</g>
</g>
<!-- Node1&#45;&gt;Node12 -->
<g id="edge16" class="edge">
<title>Node1&#45;&gt;Node12</title>
<path fill="none" stroke="midnightblue" d="M1245.71,-240.78C1224.66,-230.31 1201.22,-218.66 1181,-208.61"/>
<polygon fill="midnightblue" stroke="midnightblue" points="1244.37,-244.02 1254.88,-245.34 1247.49,-237.75 1244.37,-244.02"/>
</g>
<!-- Node14 -->
<g id="node14" class="node">
<title>Node14</title>
<g id="a_node14"><a xlink:href="../../d1/d35/vtoolheight_8cpp.html" target="_top" xlink:title=" ">
<polygon fill="white" stroke="black" points="1751,-67.5 1751,-119.5 1908,-119.5 1908,-67.5 1751,-67.5"/>
<text text-anchor="start" x="1759" y="-107.5" font-family="Helvetica,sans-Serif" font-size="10.00">src/libs/vtools/tools</text>
<text text-anchor="start" x="1759" y="-96.5" font-family="Helvetica,sans-Serif" font-size="10.00">/drawTools/toolpoint</text>
<text text-anchor="start" x="1759" y="-85.5" font-family="Helvetica,sans-Serif" font-size="10.00">/toolsinglepoint/toollinepoint</text>
<text text-anchor="middle" x="1829.5" y="-74.5" font-family="Helvetica,sans-Serif" font-size="10.00">/vtoolheight.cpp</text>
</a>
</g>
</g>
<!-- Node1&#45;&gt;Node14 -->
<g id="edge20" class="edge">
<title>Node1&#45;&gt;Node14</title>
<path fill="none" stroke="midnightblue" d="M1394.59,-269.37C1515.29,-266.13 1722.49,-253.96 1781.5,-209 1809.62,-187.57 1821.41,-146.61 1826.25,-119.93"/>
<polygon fill="midnightblue" stroke="midnightblue" points="1394.17,-265.88 1384.26,-269.63 1394.35,-272.88 1394.17,-265.88"/>
</g>
<!-- Node15 -->
<g id="node15" class="node">
<title>Node15</title>
<g id="a_node15"><a xlink:href="../../de/d1f/vtoollineintersectaxis_8h.html" target="_top" xlink:title=" ">
<polygon fill="white" stroke="black" points="1227,-156.5 1227,-208.5 1384,-208.5 1384,-156.5 1227,-156.5"/>
<text text-anchor="start" x="1235" y="-196.5" font-family="Helvetica,sans-Serif" font-size="10.00">src/libs/vtools/tools</text>
<text text-anchor="start" x="1235" y="-185.5" font-family="Helvetica,sans-Serif" font-size="10.00">/drawTools/toolpoint</text>
<text text-anchor="start" x="1235" y="-174.5" font-family="Helvetica,sans-Serif" font-size="10.00">/toolsinglepoint/toollinepoint</text>
<text text-anchor="middle" x="1305.5" y="-163.5" font-family="Helvetica,sans-Serif" font-size="10.00">/vtoollineintersectaxis.h</text>
</a>
</g>
</g>
<!-- Node1&#45;&gt;Node15 -->
<g id="edge21" class="edge">
<title>Node1&#45;&gt;Node15</title>
<path fill="none" stroke="midnightblue" d="M1305.5,-235.19C1305.5,-226.28 1305.5,-216.9 1305.5,-208.61"/>
<polygon fill="midnightblue" stroke="midnightblue" points="1302,-235.34 1305.5,-245.34 1309,-235.34 1302,-235.34"/>
</g>
<!-- Node16 -->
<g id="node16" class="node">
<title>Node16</title>
<g id="a_node16"><a xlink:href="../../db/d82/vtoollineintersectaxis_8cpp.html" target="_top" xlink:title=" ">
<polygon fill="white" stroke="black" points="1409,-67.5 1409,-119.5 1566,-119.5 1566,-67.5 1409,-67.5"/>
<text text-anchor="start" x="1417" y="-107.5" font-family="Helvetica,sans-Serif" font-size="10.00">src/libs/vtools/tools</text>
<text text-anchor="start" x="1417" y="-96.5" font-family="Helvetica,sans-Serif" font-size="10.00">/drawTools/toolpoint</text>
<text text-anchor="start" x="1417" y="-85.5" font-family="Helvetica,sans-Serif" font-size="10.00">/toolsinglepoint/toollinepoint</text>
<text text-anchor="middle" x="1487.5" y="-74.5" font-family="Helvetica,sans-Serif" font-size="10.00">/vtoollineintersectaxis.cpp</text>
</a>
</g>
</g>
<!-- Node1&#45;&gt;Node16 -->
<g id="edge25" class="edge">
<title>Node1&#45;&gt;Node16</title>
<path fill="none" stroke="midnightblue" d="M1354.93,-239.68C1367.82,-230.57 1381.24,-220.05 1392.5,-209 1413.38,-188.52 1412.96,-178.62 1431.5,-156 1441.57,-143.71 1453.32,-130.63 1463.46,-119.71"/>
<polygon fill="midnightblue" stroke="midnightblue" points="1352.81,-236.89 1346.57,-245.45 1356.79,-242.65 1352.81,-236.89"/>
</g>
<!-- Node18 -->
<g id="node18" class="node">
<title>Node18</title>
<g id="a_node18"><a xlink:href="../../d7/df1/vtoollinepoint_8cpp.html" target="_top" xlink:title=" ">
<polygon fill="white" stroke="black" points="1616,-156.5 1616,-208.5 1773,-208.5 1773,-156.5 1616,-156.5"/>
<text text-anchor="start" x="1624" y="-196.5" font-family="Helvetica,sans-Serif" font-size="10.00">src/libs/vtools/tools</text>
<text text-anchor="start" x="1624" y="-185.5" font-family="Helvetica,sans-Serif" font-size="10.00">/drawTools/toolpoint</text>
<text text-anchor="start" x="1624" y="-174.5" font-family="Helvetica,sans-Serif" font-size="10.00">/toolsinglepoint/toollinepoint</text>
<text text-anchor="middle" x="1694.5" y="-163.5" font-family="Helvetica,sans-Serif" font-size="10.00">/vtoollinepoint.cpp</text>
</a>
</g>
</g>
<!-- Node1&#45;&gt;Node18 -->
<g id="edge26" class="edge">
<title>Node1&#45;&gt;Node18</title>
<path fill="none" stroke="midnightblue" d="M1394.01,-254.36C1454.2,-242.91 1535.49,-226.51 1606.5,-209 1609.59,-208.24 1612.73,-207.44 1615.9,-206.62"/>
<polygon fill="midnightblue" stroke="midnightblue" points="1393.33,-250.92 1384.16,-256.22 1394.64,-257.8 1393.33,-250.92"/>
</g>
<!-- Node19 -->
<g id="node19" class="node">
<title>Node19</title>
<g id="a_node19"><a xlink:href="../../d8/d3f/vtoolheight_8h.html" target="_top" xlink:title=" ">
<polygon fill="white" stroke="black" points="1441,-156.5 1441,-208.5 1598,-208.5 1598,-156.5 1441,-156.5"/>
<text text-anchor="start" x="1449" y="-196.5" font-family="Helvetica,sans-Serif" font-size="10.00">src/libs/vtools/tools</text>
<text text-anchor="start" x="1449" y="-185.5" font-family="Helvetica,sans-Serif" font-size="10.00">/drawTools/toolpoint</text>
<text text-anchor="start" x="1449" y="-174.5" font-family="Helvetica,sans-Serif" font-size="10.00">/toolsinglepoint/toollinepoint</text>
<text text-anchor="middle" x="1519.5" y="-163.5" font-family="Helvetica,sans-Serif" font-size="10.00">/vtoolheight.h</text>
</a>
</g>
</g>
<!-- Node1&#45;&gt;Node19 -->
<g id="edge27" class="edge">
<title>Node1&#45;&gt;Node19</title>
<path fill="none" stroke="midnightblue" d="M1376.65,-241.58C1402.97,-230.88 1432.56,-218.85 1457.95,-208.52"/>
<polygon fill="midnightblue" stroke="midnightblue" points="1375.06,-238.44 1367.11,-245.45 1377.69,-244.93 1375.06,-238.44"/>
</g>
<!-- Node21 -->
<g id="node21" class="node">
<title>Node21</title>
<g id="a_node21"><a xlink:href="../../d4/ddb/vtoolnormal_8cpp.html" target="_top" xlink:title=" ">
<polygon fill="white" stroke="black" points="2093,-67.5 2093,-119.5 2250,-119.5 2250,-67.5 2093,-67.5"/>
<text text-anchor="start" x="2101" y="-107.5" font-family="Helvetica,sans-Serif" font-size="10.00">src/libs/vtools/tools</text>
<text text-anchor="start" x="2101" y="-96.5" font-family="Helvetica,sans-Serif" font-size="10.00">/drawTools/toolpoint</text>
<text text-anchor="start" x="2101" y="-85.5" font-family="Helvetica,sans-Serif" font-size="10.00">/toolsinglepoint/toollinepoint</text>
<text text-anchor="middle" x="2171.5" y="-74.5" font-family="Helvetica,sans-Serif" font-size="10.00">/vtoolnormal.cpp</text>
</a>
</g>
</g>
<!-- Node1&#45;&gt;Node21 -->
<g id="edge31" class="edge">
<title>Node1&#45;&gt;Node21</title>
<path fill="none" stroke="midnightblue" d="M1394.2,-270.47C1565.55,-269.22 1935.33,-260.44 2050.5,-209 2094.34,-189.42 2132.2,-147.09 2153.4,-119.74"/>
<polygon fill="midnightblue" stroke="midnightblue" points="1394.18,-266.97 1384.2,-270.53 1394.22,-273.97 1394.18,-266.97"/>
</g>
<!-- Node22 -->
<g id="node22" class="node">
<title>Node22</title>
<g id="a_node22"><a xlink:href="../../d5/deb/vtoolshoulderpoint_8h.html" target="_top" xlink:title=" ">
<polygon fill="white" stroke="black" points="2211,-156.5 2211,-208.5 2368,-208.5 2368,-156.5 2211,-156.5"/>
<text text-anchor="start" x="2219" y="-196.5" font-family="Helvetica,sans-Serif" font-size="10.00">src/libs/vtools/tools</text>
<text text-anchor="start" x="2219" y="-185.5" font-family="Helvetica,sans-Serif" font-size="10.00">/drawTools/toolpoint</text>
<text text-anchor="start" x="2219" y="-174.5" font-family="Helvetica,sans-Serif" font-size="10.00">/toolsinglepoint/toollinepoint</text>
<text text-anchor="middle" x="2289.5" y="-163.5" font-family="Helvetica,sans-Serif" font-size="10.00">/vtoolshoulderpoint.h</text>
</a>
</g>
</g>
<!-- Node1&#45;&gt;Node22 -->
<g id="edge32" class="edge">
<title>Node1&#45;&gt;Node22</title>
<path fill="none" stroke="midnightblue" d="M1394.33,-266.55C1546.49,-259.2 1866.58,-241.16 2135.5,-209 2160.12,-206.06 2186.82,-201.96 2210.96,-197.91"/>
<polygon fill="midnightblue" stroke="midnightblue" points="1393.94,-263.07 1384.11,-267.04 1394.27,-270.06 1393.94,-263.07"/>
</g>
<!-- Node23 -->
<g id="node23" class="node">
<title>Node23</title>
<g id="a_node23"><a xlink:href="../../dd/dab/vtoolshoulderpoint_8cpp.html" target="_top" xlink:title=" ">
<polygon fill="white" stroke="black" points="2447,-67.5 2447,-119.5 2604,-119.5 2604,-67.5 2447,-67.5"/>
<text text-anchor="start" x="2455" y="-107.5" font-family="Helvetica,sans-Serif" font-size="10.00">src/libs/vtools/tools</text>
<text text-anchor="start" x="2455" y="-96.5" font-family="Helvetica,sans-Serif" font-size="10.00">/drawTools/toolpoint</text>
<text text-anchor="start" x="2455" y="-85.5" font-family="Helvetica,sans-Serif" font-size="10.00">/toolsinglepoint/toollinepoint</text>
<text text-anchor="middle" x="2525.5" y="-74.5" font-family="Helvetica,sans-Serif" font-size="10.00">/vtoolshoulderpoint.cpp</text>
</a>
</g>
</g>
<!-- Node1&#45;&gt;Node23 -->
<g id="edge36" class="edge">
<title>Node1&#45;&gt;Node23</title>
<path fill="none" stroke="midnightblue" d="M1394.38,-268.42C1634.92,-262.36 2286.65,-242.98 2377.5,-209 2428.31,-190 2475.81,-147.06 2502.7,-119.5"/>
<polygon fill="midnightblue" stroke="midnightblue" points="1394.19,-264.92 1384.28,-268.67 1394.36,-271.92 1394.19,-264.92"/>
</g>
<!-- Node25 -->
<g id="node25" class="node">
<title>Node25</title>
<g id="a_node25"><a xlink:href="../../da/d73/vtoolnormal_8h.html" target="_top" xlink:title=" ">
<polygon fill="white" stroke="black" points="1884,-156.5 1884,-208.5 2041,-208.5 2041,-156.5 1884,-156.5"/>
<text text-anchor="start" x="1892" y="-196.5" font-family="Helvetica,sans-Serif" font-size="10.00">src/libs/vtools/tools</text>
<text text-anchor="start" x="1892" y="-185.5" font-family="Helvetica,sans-Serif" font-size="10.00">/drawTools/toolpoint</text>
<text text-anchor="start" x="1892" y="-174.5" font-family="Helvetica,sans-Serif" font-size="10.00">/toolsinglepoint/toollinepoint</text>
<text text-anchor="middle" x="1962.5" y="-163.5" font-family="Helvetica,sans-Serif" font-size="10.00">/vtoolnormal.h</text>
</a>
</g>
</g>
<!-- Node1&#45;&gt;Node25 -->
<g id="edge37" class="edge">
<title>Node1&#45;&gt;Node25</title>
<path fill="none" stroke="midnightblue" d="M1394.22,-262.14C1498.82,-251.8 1677.79,-232.66 1830.5,-209 1847.8,-206.32 1866.29,-203.02 1883.79,-199.7"/>
<polygon fill="midnightblue" stroke="midnightblue" points="1393.63,-258.68 1384.02,-263.14 1394.31,-265.64 1393.63,-258.68"/>
</g>
<!-- Node3 -->
<g id="node3" class="node">
<title>Node3</title>
<g id="a_node3"><a xlink:href="../../d4/d56/drawtools_8h.html" target="_top" xlink:title=" ">
<polygon fill="white" stroke="black" points="1069.5,-78.5 1069.5,-108.5 1197.5,-108.5 1197.5,-78.5 1069.5,-78.5"/>
<text text-anchor="start" x="1077.5" y="-96.5" font-family="Helvetica,sans-Serif" font-size="10.00">src/libs/vtools/tools</text>
<text text-anchor="middle" x="1133.5" y="-85.5" font-family="Helvetica,sans-Serif" font-size="10.00">/drawTools/drawtools.h</text>
</a>
</g>
</g>
<!-- Node2&#45;&gt;Node3 -->
<g id="edge2" class="edge">
<title>Node2&#45;&gt;Node3</title>
<path fill="none" stroke="midnightblue" d="M791.04,-163.05C803.6,-160.59 816.36,-158.17 828.5,-156 931.22,-137.65 959.27,-145.31 1060.5,-120 1072.74,-116.94 1085.84,-112.69 1097.51,-108.53"/>
<polygon fill="midnightblue" stroke="midnightblue" points="790.16,-159.66 781.03,-165.03 791.52,-166.52 790.16,-159.66"/>
</g>
<!-- Node2&#45;&gt;Node5 -->
<g id="edge4" class="edge">
<title>Node2&#45;&gt;Node5</title>
<path fill="none" stroke="midnightblue" d="M614.21,-154.26C577.35,-142.89 534.88,-129.79 499.12,-118.76"/>
<polygon fill="midnightblue" stroke="midnightblue" points="613.36,-157.66 623.95,-157.27 615.42,-150.97 613.36,-157.66"/>
</g>
<!-- Node4 -->
<g id="node4" class="node">
<title>Node4</title>
<g id="a_node4"><a xlink:href="../../d5/da5/tools_8h.html" target="_top" xlink:title=" ">
<polygon fill="white" stroke="black" points="1078,-0.5 1078,-30.5 1189,-30.5 1189,-0.5 1078,-0.5"/>
<text text-anchor="start" x="1086" y="-18.5" font-family="Helvetica,sans-Serif" font-size="10.00">src/libs/vtools/tools</text>
<text text-anchor="middle" x="1133.5" y="-7.5" font-family="Helvetica,sans-Serif" font-size="10.00">/tools.h</text>
</a>
</g>
</g>
<!-- Node3&#45;&gt;Node4 -->
<g id="edge3" class="edge">
<title>Node3&#45;&gt;Node4</title>
<path fill="none" stroke="midnightblue" d="M1133.5,-68.09C1133.5,-55.76 1133.5,-41.22 1133.5,-30.73"/>
<polygon fill="midnightblue" stroke="midnightblue" points="1130,-68.2 1133.5,-78.2 1137,-68.21 1130,-68.2"/>
</g>
<!-- Node6&#45;&gt;Node3 -->
<g id="edge7" class="edge">
<title>Node6&#45;&gt;Node3</title>
<path fill="none" stroke="midnightblue" d="M413.39,-173.52C470.77,-168.41 547.04,-161.69 614.5,-156 812.66,-139.29 865.93,-161.13 1060.5,-120 1073.37,-117.28 1087.09,-112.9 1099.11,-108.54"/>
<polygon fill="midnightblue" stroke="midnightblue" points="412.91,-170.05 403.26,-174.42 413.53,-177.02 412.91,-170.05"/>
</g>
<!-- Node6&#45;&gt;Node7 -->
<g id="edge8" class="edge">
<title>Node6&#45;&gt;Node7</title>
<path fill="none" stroke="midnightblue" d="M243.91,-153C213.36,-142.19 178.83,-129.98 149.25,-119.52"/>
<polygon fill="midnightblue" stroke="midnightblue" points="243.08,-156.42 253.68,-156.45 245.42,-149.82 243.08,-156.42"/>
</g>
<!-- Node8 -->
<g id="node8" class="node">
<title>Node8</title>
<g id="a_node8"><a xlink:href="../../df/d33/vistoolbisector_8cpp.html" target="_top" xlink:title=" ">
<polygon fill="white" stroke="black" points="175,-78.5 175,-108.5 324,-108.5 324,-78.5 175,-78.5"/>
<text text-anchor="start" x="183" y="-96.5" font-family="Helvetica,sans-Serif" font-size="10.00">src/libs/vtools/visualization</text>
<text text-anchor="middle" x="249.5" y="-85.5" font-family="Helvetica,sans-Serif" font-size="10.00">/line/vistoolbisector.cpp</text>
</a>
</g>
</g>
<!-- Node6&#45;&gt;Node8 -->
<g id="edge9" class="edge">
<title>Node6&#45;&gt;Node8</title>
<path fill="none" stroke="midnightblue" d="M296.02,-148.47C284.19,-134.74 271.08,-119.53 261.8,-108.77"/>
<polygon fill="midnightblue" stroke="midnightblue" points="293.63,-151.05 302.81,-156.34 298.93,-146.48 293.63,-151.05"/>
</g>
<!-- Node9&#45;&gt;Node3 -->
<g id="edge12" class="edge">
<title>Node9&#45;&gt;Node3</title>
<path fill="none" stroke="midnightblue" d="M988.71,-152.55C1025.63,-137.75 1068.89,-120.4 1098.45,-108.55"/>
<polygon fill="midnightblue" stroke="midnightblue" points="986.95,-149.48 978.97,-156.45 989.56,-155.98 986.95,-149.48"/>
</g>
<!-- Node9&#45;&gt;Node10 -->
<g id="edge13" class="edge">
<title>Node9&#45;&gt;Node10</title>
<path fill="none" stroke="midnightblue" d="M827.94,-157.18C826.45,-156.78 824.97,-156.39 823.5,-156 760.98,-139.45 744.88,-137.1 682.5,-120 679.77,-119.25 676.99,-118.48 674.19,-117.7"/>
<polygon fill="midnightblue" stroke="midnightblue" points="827.32,-160.63 837.88,-159.84 829.13,-153.87 827.32,-160.63"/>
</g>
<!-- Node12&#45;&gt;Node3 -->
<g id="edge17" class="edge">
<title>Node12&#45;&gt;Node3</title>
<path fill="none" stroke="midnightblue" d="M1131.72,-146.15C1132.17,-133.05 1132.66,-118.93 1133.01,-108.77"/>
<polygon fill="midnightblue" stroke="midnightblue" points="1128.21,-146.22 1131.37,-156.34 1135.21,-146.46 1128.21,-146.22"/>
</g>
<!-- Node12&#45;&gt;Node11 -->
<g id="edge18" class="edge">
<title>Node12&#45;&gt;Node11</title>
<path fill="none" stroke="midnightblue" d="M1041.96,-157.07C1040.46,-156.71 1038.98,-156.35 1037.5,-156 958.55,-137.26 937.32,-139.31 858.5,-120 855.41,-119.24 852.27,-118.45 849.09,-117.63"/>
<polygon fill="midnightblue" stroke="midnightblue" points="1041.4,-160.54 1051.95,-159.55 1043.09,-153.75 1041.4,-160.54"/>
</g>
<!-- Node13 -->
<g id="node13" class="node">
<title>Node13</title>
<g id="a_node13"><a xlink:href="../../db/dd5/vistoolcurveintersectaxis_8cpp.html" target="_top" xlink:title=" ">
<polygon fill="white" stroke="black" points="867.5,-78.5 867.5,-108.5 1051.5,-108.5 1051.5,-78.5 867.5,-78.5"/>
<text text-anchor="start" x="875.5" y="-96.5" font-family="Helvetica,sans-Serif" font-size="10.00">src/libs/vtools/visualization</text>
<text text-anchor="middle" x="959.5" y="-85.5" font-family="Helvetica,sans-Serif" font-size="10.00">/line/vistoolcurveintersectaxis.cpp</text>
</a>
</g>
</g>
<!-- Node12&#45;&gt;Node13 -->
<g id="edge19" class="edge">
<title>Node12&#45;&gt;Node13</title>
<path fill="none" stroke="midnightblue" d="M1071.88,-151.68C1043.14,-137.05 1009.88,-120.13 987.05,-108.52"/>
<polygon fill="midnightblue" stroke="midnightblue" points="1070.54,-154.92 1081.04,-156.34 1073.71,-148.68 1070.54,-154.92"/>
</g>
<!-- Node15&#45;&gt;Node3 -->
<g id="edge22" class="edge">
<title>Node15&#45;&gt;Node3</title>
<path fill="none" stroke="midnightblue" d="M1246.54,-151.68C1217.63,-137.05 1184.18,-120.13 1161.21,-108.52"/>
<polygon fill="midnightblue" stroke="midnightblue" points="1245.25,-154.95 1255.75,-156.34 1248.41,-148.7 1245.25,-154.95"/>
</g>
<!-- Node15&#45;&gt;Node16 -->
<g id="edge23" class="edge">
<title>Node15&#45;&gt;Node16</title>
<path fill="none" stroke="midnightblue" d="M1367.39,-151.92C1389.36,-141.41 1413.86,-129.7 1434.98,-119.61"/>
<polygon fill="midnightblue" stroke="midnightblue" points="1365.65,-148.87 1358.14,-156.34 1368.67,-155.18 1365.65,-148.87"/>
</g>
<!-- Node17 -->
<g id="node17" class="node">
<title>Node17</title>
<g id="a_node17"><a xlink:href="../../d0/ddf/vistoollineintersectaxis_8cpp.html" target="_top" xlink:title=" ">
<polygon fill="white" stroke="black" points="1216,-78.5 1216,-108.5 1391,-108.5 1391,-78.5 1216,-78.5"/>
<text text-anchor="start" x="1224" y="-96.5" font-family="Helvetica,sans-Serif" font-size="10.00">src/libs/vtools/visualization</text>
<text text-anchor="middle" x="1303.5" y="-85.5" font-family="Helvetica,sans-Serif" font-size="10.00">/line/vistoollineintersectaxis.cpp</text>
</a>
</g>
</g>
<!-- Node15&#45;&gt;Node17 -->
<g id="edge24" class="edge">
<title>Node15&#45;&gt;Node17</title>
<path fill="none" stroke="midnightblue" d="M1304.69,-146.15C1304.39,-133.05 1304.06,-118.93 1303.83,-108.77"/>
<polygon fill="midnightblue" stroke="midnightblue" points="1301.19,-146.42 1304.92,-156.34 1308.19,-146.26 1301.19,-146.42"/>
</g>
<!-- Node19&#45;&gt;Node3 -->
<g id="edge28" class="edge">
<title>Node19&#45;&gt;Node3</title>
<path fill="none" stroke="midnightblue" d="M1431.09,-163.67C1418.15,-161.08 1404.98,-158.46 1392.5,-156 1309.89,-139.71 1287.79,-141.94 1206.5,-120 1194.58,-116.78 1181.79,-112.58 1170.31,-108.52"/>
<polygon fill="midnightblue" stroke="midnightblue" points="1430.44,-167.1 1440.93,-165.64 1431.81,-160.24 1430.44,-167.1"/>
</g>
<!-- Node19&#45;&gt;Node14 -->
<g id="edge29" class="edge">
<title>Node19&#45;&gt;Node14</title>
<path fill="none" stroke="midnightblue" d="M1608.18,-155.56C1667.98,-138.96 1684.71,-135.8 1741.5,-120 1744.56,-119.15 1747.69,-118.27 1750.84,-117.38"/>
<polygon fill="midnightblue" stroke="midnightblue" points="1606.89,-152.28 1598.2,-158.34 1608.77,-159.03 1606.89,-152.28"/>
</g>
<!-- Node20 -->
<g id="node20" class="node">
<title>Node20</title>
<g id="a_node20"><a xlink:href="../../d5/dc6/vistoolheight_8cpp.html" target="_top" xlink:title=" ">
<polygon fill="white" stroke="black" points="1584,-78.5 1584,-108.5 1733,-108.5 1733,-78.5 1584,-78.5"/>
<text text-anchor="start" x="1592" y="-96.5" font-family="Helvetica,sans-Serif" font-size="10.00">src/libs/vtools/visualization</text>
<text text-anchor="middle" x="1658.5" y="-85.5" font-family="Helvetica,sans-Serif" font-size="10.00">/line/vistoolheight.cpp</text>
</a>
</g>
</g>
<!-- Node19&#45;&gt;Node20 -->
<g id="edge30" class="edge">
<title>Node19&#45;&gt;Node20</title>
<path fill="none" stroke="midnightblue" d="M1568.36,-150.92C1591.44,-136.47 1617.87,-119.93 1636.11,-108.52"/>
<polygon fill="midnightblue" stroke="midnightblue" points="1566.32,-148.06 1559.7,-156.34 1570.04,-154 1566.32,-148.06"/>
</g>
<!-- Node22&#45;&gt;Node3 -->
<g id="edge33" class="edge">
<title>Node22&#45;&gt;Node3</title>
<path fill="none" stroke="midnightblue" d="M2200.75,-170.67C2155.79,-165.53 2100.31,-159.72 2050.5,-156 1676.09,-128.07 1575.24,-190.67 1206.5,-120 1193.32,-117.47 1179.29,-113.03 1167.1,-108.55"/>
<polygon fill="midnightblue" stroke="midnightblue" points="2200.43,-174.16 2210.76,-171.82 2201.23,-167.2 2200.43,-174.16"/>
</g>
<!-- Node22&#45;&gt;Node23 -->
<g id="edge34" class="edge">
<title>Node22&#45;&gt;Node23</title>
<path fill="none" stroke="midnightblue" d="M2367.2,-152.86C2396.41,-142.09 2429.37,-129.94 2457.63,-119.52"/>
<polygon fill="midnightblue" stroke="midnightblue" points="2365.62,-149.71 2357.44,-156.45 2368.04,-156.28 2365.62,-149.71"/>
</g>
<!-- Node24 -->
<g id="node24" class="node">
<title>Node24</title>
<g id="a_node24"><a xlink:href="../../d8/db4/vistoolshoulderpoint_8cpp.html" target="_top" xlink:title=" ">
<polygon fill="white" stroke="black" points="2268,-78.5 2268,-108.5 2429,-108.5 2429,-78.5 2268,-78.5"/>
<text text-anchor="start" x="2276" y="-96.5" font-family="Helvetica,sans-Serif" font-size="10.00">src/libs/vtools/visualization</text>
<text text-anchor="middle" x="2348.5" y="-85.5" font-family="Helvetica,sans-Serif" font-size="10.00">/line/vistoolshoulderpoint.cpp</text>
</a>
</g>
</g>
<!-- Node22&#45;&gt;Node24 -->
<g id="edge35" class="edge">
<title>Node22&#45;&gt;Node24</title>
<path fill="none" stroke="midnightblue" d="M2312.42,-147.7C2321.6,-134.17 2331.66,-119.33 2338.83,-108.77"/>
<polygon fill="midnightblue" stroke="midnightblue" points="2309.28,-146.1 2306.57,-156.34 2315.07,-150.02 2309.28,-146.1"/>
</g>
<!-- Node25&#45;&gt;Node3 -->
<g id="edge38" class="edge">
<title>Node25&#45;&gt;Node3</title>
<path fill="none" stroke="midnightblue" d="M1873.61,-167.58C1844.33,-163.37 1811.58,-159.06 1781.5,-156 1526.76,-130.12 1457.49,-170.69 1206.5,-120 1193.47,-117.37 1179.6,-112.96 1167.49,-108.54"/>
<polygon fill="midnightblue" stroke="midnightblue" points="1873.41,-171.09 1883.81,-169.06 1874.42,-164.16 1873.41,-171.09"/>
</g>
<!-- Node25&#45;&gt;Node21 -->
<g id="edge39" class="edge">
<title>Node25&#45;&gt;Node21</title>
<path fill="none" stroke="midnightblue" d="M2031.98,-152.58C2057.69,-141.88 2086.59,-129.85 2111.39,-119.52"/>
<polygon fill="midnightblue" stroke="midnightblue" points="2030.56,-149.38 2022.67,-156.45 2033.25,-155.84 2030.56,-149.38"/>
</g>
<!-- Node26 -->
<g id="node26" class="node">
<title>Node26</title>
<g id="a_node26"><a xlink:href="../../db/ded/vistoolnormal_8cpp.html" target="_top" xlink:title=" ">
<polygon fill="white" stroke="black" points="1926,-78.5 1926,-108.5 2075,-108.5 2075,-78.5 1926,-78.5"/>
<text text-anchor="start" x="1934" y="-96.5" font-family="Helvetica,sans-Serif" font-size="10.00">src/libs/vtools/visualization</text>
<text text-anchor="middle" x="2000.5" y="-85.5" font-family="Helvetica,sans-Serif" font-size="10.00">/line/vistoolnormal.cpp</text>
</a>
</g>
</g>
<!-- Node25&#45;&gt;Node26 -->
<g id="edge40" class="edge">
<title>Node25&#45;&gt;Node26</title>
<path fill="none" stroke="midnightblue" d="M1977.6,-146.92C1983.42,-133.61 1989.74,-119.13 1994.27,-108.77"/>
<polygon fill="midnightblue" stroke="midnightblue" points="1974.29,-145.77 1973.49,-156.34 1980.7,-148.57 1974.29,-145.77"/>
</g>
</g>
</svg>
