<?xml version="1.0" encoding="UTF-8" standalone="no"?>
<!DOCTYPE svg PUBLIC "-//W3C//DTD SVG 1.1//EN"
 "http://www.w3.org/Graphics/SVG/1.1/DTD/svg11.dtd">
<!-- Generated by graphviz version 2.43.0 (0)
 -->
<!-- Title: src/libs/vlayout/vbank.h Pages: 1 -->
<svg width="6224pt" height="341pt"
 viewBox="0.00 0.00 6224.00 341.00" xmlns="http://www.w3.org/2000/svg" xmlns:xlink="http://www.w3.org/1999/xlink">
<g id="graph0" class="graph" transform="scale(1 1) rotate(0) translate(4 337)">
<title>src/libs/vlayout/vbank.h</title>
<polygon fill="white" stroke="transparent" points="-4,4 -4,-337 6220,-337 6220,4 -4,4"/>
<!-- Node1 -->
<g id="node1" class="node">
<title>Node1</title>
<g id="a_node1"><a xlink:title=" ">
<polygon fill="#bfbfbf" stroke="black" points="2487,-313.5 2487,-332.5 2620,-332.5 2620,-313.5 2487,-313.5"/>
<text text-anchor="middle" x="2553.5" y="-320.5" font-family="Helvetica,sans-Serif" font-size="10.00">src/libs/vlayout/vbank.h</text>
</a>
</g>
</g>
<!-- Node2 -->
<g id="node2" class="node">
<title>Node2</title>
<g id="a_node2"><a xlink:href="../../de/da8/vbank_8cpp.html" target="_top" xlink:title=" ">
<polygon fill="white" stroke="black" points="2197.5,-257.5 2197.5,-276.5 2341.5,-276.5 2341.5,-257.5 2197.5,-257.5"/>
<text text-anchor="middle" x="2269.5" y="-264.5" font-family="Helvetica,sans-Serif" font-size="10.00">src/libs/vlayout/vbank.cpp</text>
</a>
</g>
</g>
<!-- Node1&#45;&gt;Node2 -->
<g id="edge1" class="edge">
<title>Node1&#45;&gt;Node2</title>
<path fill="none" stroke="midnightblue" d="M2498.47,-311.54C2444.8,-301.33 2364.16,-286 2314.29,-276.52"/>
<polygon fill="midnightblue" stroke="midnightblue" points="2498.02,-315.01 2508.5,-313.44 2499.33,-308.14 2498.02,-315.01"/>
</g>
<!-- Node3 -->
<g id="node3" class="node">
<title>Node3</title>
<g id="a_node3"><a xlink:href="../../dc/d3c/vlayoutgenerator_8h.html" target="_top" xlink:title=" ">
<polygon fill="white" stroke="black" points="2359.5,-257.5 2359.5,-276.5 2545.5,-276.5 2545.5,-257.5 2359.5,-257.5"/>
<text text-anchor="middle" x="2452.5" y="-264.5" font-family="Helvetica,sans-Serif" font-size="10.00">src/libs/vlayout/vlayoutgenerator.h</text>
</a>
</g>
</g>
<!-- Node1&#45;&gt;Node3 -->
<g id="edge2" class="edge">
<title>Node1&#45;&gt;Node3</title>
<path fill="none" stroke="midnightblue" d="M2528.42,-308.59C2509.74,-298.61 2484.8,-285.27 2468.69,-276.65"/>
<polygon fill="midnightblue" stroke="midnightblue" points="2526.8,-311.7 2537.27,-313.32 2530.1,-305.52 2526.8,-311.7"/>
</g>
<!-- Node5 -->
<g id="node5" class="node">
<title>Node5</title>
<g id="a_node5"><a xlink:href="../../d4/d5c/vcommonsettings_8h.html" target="_top" xlink:title=" ">
<polygon fill="white" stroke="black" points="2564,-257.5 2564,-276.5 2747,-276.5 2747,-257.5 2564,-257.5"/>
<text text-anchor="middle" x="2655.5" y="-264.5" font-family="Helvetica,sans-Serif" font-size="10.00">src/libs/vmisc/vcommonsettings.h</text>
</a>
</g>
</g>
<!-- Node1&#45;&gt;Node5 -->
<g id="edge4" class="edge">
<title>Node1&#45;&gt;Node5</title>
<path fill="none" stroke="midnightblue" d="M2578.83,-308.59C2597.69,-298.61 2622.88,-285.27 2639.15,-276.65"/>
<polygon fill="midnightblue" stroke="midnightblue" points="2577.09,-305.55 2569.89,-313.32 2580.36,-311.74 2577.09,-305.55"/>
</g>
<!-- Node49 -->
<g id="node45" class="node">
<title>Node49</title>
<g id="a_node45"><a xlink:href="../../dd/db2/vsettings_8h.html" target="_top" xlink:title=" ">
<polygon fill="white" stroke="black" points="5026.5,-201.5 5026.5,-220.5 5166.5,-220.5 5166.5,-201.5 5026.5,-201.5"/>
<text text-anchor="middle" x="5096.5" y="-208.5" font-family="Helvetica,sans-Serif" font-size="10.00">src/libs/vmisc/vsettings.h</text>
</a>
</g>
</g>
<!-- Node1&#45;&gt;Node49 -->
<g id="edge62" class="edge">
<title>Node1&#45;&gt;Node49</title>
<path fill="none" stroke="midnightblue" d="M2630.21,-318.68C3007.67,-302.35 4664.06,-230.71 5026.33,-215.04"/>
<polygon fill="midnightblue" stroke="midnightblue" points="2630.05,-315.19 2620.21,-319.11 2630.35,-322.18 2630.05,-315.19"/>
</g>
<!-- Node4 -->
<g id="node4" class="node">
<title>Node4</title>
<g id="a_node4"><a xlink:href="../../d3/d39/vlayoutgenerator_8cpp.html" target="_top" xlink:title=" ">
<polygon fill="white" stroke="black" points="1853,-201.5 1853,-220.5 2050,-220.5 2050,-201.5 1853,-201.5"/>
<text text-anchor="middle" x="1951.5" y="-208.5" font-family="Helvetica,sans-Serif" font-size="10.00">src/libs/vlayout/vlayoutgenerator.cpp</text>
</a>
</g>
</g>
<!-- Node3&#45;&gt;Node4 -->
<g id="edge3" class="edge">
<title>Node3&#45;&gt;Node4</title>
<path fill="none" stroke="midnightblue" d="M2363.28,-256.38C2268.8,-246.2 2121.06,-230.28 2030.61,-220.53"/>
<polygon fill="midnightblue" stroke="midnightblue" points="2363.07,-259.88 2373.39,-257.47 2363.82,-252.92 2363.07,-259.88"/>
</g>
<!-- Node6 -->
<g id="node6" class="node">
<title>Node6</title>
<g id="a_node6"><a xlink:href="../../d4/d90/fvupdater_8cpp.html" target="_top" xlink:title=" ">
<polygon fill="white" stroke="black" points="211,-73 211,-92 364,-92 364,-73 211,-73"/>
<text text-anchor="middle" x="287.5" y="-80" font-family="Helvetica,sans-Serif" font-size="10.00">src/libs/fervor/fvupdater.cpp</text>
</a>
</g>
</g>
<!-- Node5&#45;&gt;Node6 -->
<g id="edge5" class="edge">
<title>Node5&#45;&gt;Node6</title>
<path fill="none" stroke="midnightblue" d="M2553.7,-256.81C2411.83,-243.96 2171.63,-222.08 2169.5,-221 2123.45,-197.65 2139.36,-155.69 2092.5,-134 2005.77,-93.84 467.65,-107.06 372.5,-98 358.64,-96.68 343.63,-94.41 330.14,-92.04"/>
<polygon fill="midnightblue" stroke="midnightblue" points="2553.46,-260.3 2563.74,-257.71 2554.09,-253.33 2553.46,-260.3"/>
</g>
<!-- Node7 -->
<g id="node7" class="node">
<title>Node7</title>
<g id="a_node7"><a xlink:href="../../dd/d70/vlayoutpiece_8cpp.html" target="_top" xlink:title=" ">
<polygon fill="white" stroke="black" points="611,-73 611,-92 788,-92 788,-73 611,-73"/>
<text text-anchor="middle" x="699.5" y="-80" font-family="Helvetica,sans-Serif" font-size="10.00">src/libs/vlayout/vlayoutpiece.cpp</text>
</a>
</g>
</g>
<!-- Node5&#45;&gt;Node7 -->
<g id="edge6" class="edge">
<title>Node5&#45;&gt;Node7</title>
<path fill="none" stroke="midnightblue" d="M2553.64,-256.8C2425.59,-245.06 2221.49,-225.71 2214.5,-221 2178.23,-196.55 2205.67,-157.06 2168.5,-134 2103.71,-93.8 872.46,-104.65 796.5,-98 780.89,-96.63 763.98,-94.38 748.71,-92.05"/>
<polygon fill="midnightblue" stroke="midnightblue" points="2553.6,-260.31 2563.87,-257.74 2554.23,-253.34 2553.6,-260.31"/>
</g>
<!-- Node8 -->
<g id="node8" class="node">
<title>Node8</title>
<g id="a_node8"><a xlink:href="../../d5/d74/vabstractapplication_8h.html" target="_top" xlink:title=" ">
<polygon fill="white" stroke="black" points="2683,-140 2683,-159 2878,-159 2878,-140 2683,-140"/>
<text text-anchor="middle" x="2780.5" y="-147" font-family="Helvetica,sans-Serif" font-size="10.00">src/libs/vmisc/vabstractapplication.h</text>
</a>
</g>
</g>
<!-- Node5&#45;&gt;Node8 -->
<g id="edge7" class="edge">
<title>Node5&#45;&gt;Node8</title>
<path fill="none" stroke="midnightblue" d="M2672.31,-250.47C2698.93,-225.87 2749.9,-178.78 2771,-159.28"/>
<polygon fill="midnightblue" stroke="midnightblue" points="2669.86,-247.96 2664.9,-257.32 2674.62,-253.1 2669.86,-247.96"/>
</g>
<!-- Node27 -->
<g id="node23" class="node">
<title>Node27</title>
<g id="a_node23"><a xlink:href="../../db/d11/vformula_8cpp.html" target="_top" xlink:title=" ">
<polygon fill="white" stroke="black" points="806,-67.5 806,-97.5 913,-97.5 913,-67.5 806,-67.5"/>
<text text-anchor="start" x="814" y="-85.5" font-family="Helvetica,sans-Serif" font-size="10.00">src/libs/vpatterndb</text>
<text text-anchor="middle" x="859.5" y="-74.5" font-family="Helvetica,sans-Serif" font-size="10.00">/vformula.cpp</text>
</a>
</g>
</g>
<!-- Node5&#45;&gt;Node27 -->
<g id="edge55" class="edge">
<title>Node5&#45;&gt;Node27</title>
<path fill="none" stroke="midnightblue" d="M2654.57,-246.9C2652.89,-232.53 2648.37,-213.27 2636.5,-201 2570.14,-132.42 2526.55,-150.2 2432.5,-134 2101.5,-76.99 1254.68,-140.47 921.5,-98 918.76,-97.65 915.96,-97.23 913.15,-96.76"/>
<polygon fill="midnightblue" stroke="midnightblue" points="2651.11,-247.47 2655.41,-257.16 2658.09,-246.91 2651.11,-247.47"/>
</g>
<!-- Node29 -->
<g id="node25" class="node">
<title>Node29</title>
<g id="a_node25"><a xlink:href="../../df/dba/vpiecenode__p_8h.html" target="_top" xlink:title=" ">
<polygon fill="white" stroke="black" points="4956,-67.5 4956,-97.5 5063,-97.5 5063,-67.5 4956,-67.5"/>
<text text-anchor="start" x="4964" y="-85.5" font-family="Helvetica,sans-Serif" font-size="10.00">src/libs/vpatterndb</text>
<text text-anchor="middle" x="5009.5" y="-74.5" font-family="Helvetica,sans-Serif" font-size="10.00">/vpiecenode_p.h</text>
</a>
</g>
</g>
<!-- Node5&#45;&gt;Node29 -->
<g id="edge56" class="edge">
<title>Node5&#45;&gt;Node29</title>
<path fill="none" stroke="midnightblue" d="M2757.14,-256.79C3012.96,-233.81 3704.28,-173.02 4281.5,-134 4577.26,-114.01 4654.05,-139.91 4947.5,-98 4950.24,-97.61 4953.03,-97.16 4955.84,-96.66"/>
<polygon fill="midnightblue" stroke="midnightblue" points="2756.77,-253.31 2747.12,-257.69 2757.39,-260.28 2756.77,-253.31"/>
</g>
<!-- Node32 -->
<g id="node28" class="node">
<title>Node32</title>
<g id="a_node28"><a xlink:href="../../df/d40/export__format__combobox_8cpp.html" target="_top" xlink:title=" ">
<polygon fill="white" stroke="black" points="5081,-67.5 5081,-97.5 5214,-97.5 5214,-67.5 5081,-67.5"/>
<text text-anchor="start" x="5089" y="-85.5" font-family="Helvetica,sans-Serif" font-size="10.00">src/libs/vwidgets/export</text>
<text text-anchor="middle" x="5147.5" y="-74.5" font-family="Helvetica,sans-Serif" font-size="10.00">_format_combobox.cpp</text>
</a>
</g>
</g>
<!-- Node5&#45;&gt;Node32 -->
<g id="edge57" class="edge">
<title>Node5&#45;&gt;Node32</title>
<path fill="none" stroke="midnightblue" d="M2757.25,-259.66C3186.81,-232.8 4840.56,-128.37 5072.5,-98 5075.26,-97.64 5078.07,-97.24 5080.91,-96.81"/>
<polygon fill="midnightblue" stroke="midnightblue" points="2756.78,-256.18 2747.02,-260.3 2757.22,-263.17 2756.78,-256.18"/>
</g>
<!-- Node38 -->
<g id="node34" class="node">
<title>Node38</title>
<g id="a_node34"><a xlink:href="../../d1/d88/vmaingraphicsscene_8cpp.html" target="_top" xlink:title=" ">
<polygon fill="white" stroke="black" points="5232.5,-73 5232.5,-92 5454.5,-92 5454.5,-73 5232.5,-73"/>
<text text-anchor="middle" x="5343.5" y="-80" font-family="Helvetica,sans-Serif" font-size="10.00">src/libs/vwidgets/vmaingraphicsscene.cpp</text>
</a>
</g>
</g>
<!-- Node5&#45;&gt;Node38 -->
<g id="edge58" class="edge">
<title>Node5&#45;&gt;Node38</title>
<path fill="none" stroke="midnightblue" d="M2757.13,-261.15C2921.42,-253.22 3255.53,-236.81 3538.5,-221 3947.95,-198.12 4050.62,-196.51 4459.5,-165 4607.26,-153.61 4643.88,-147.04 4791.5,-134 4983.42,-117.04 5031.83,-117.56 5223.5,-98 5240.72,-96.24 5259.31,-94.11 5276.59,-92.03"/>
<polygon fill="midnightblue" stroke="midnightblue" points="2756.86,-257.65 2747.04,-261.63 2757.2,-264.65 2756.86,-257.65"/>
</g>
<!-- Node39 -->
<g id="node35" class="node">
<title>Node39</title>
<g id="a_node35"><a xlink:href="../../d1/d90/vgrainlineitem_8cpp.html" target="_top" xlink:title=" ">
<polygon fill="white" stroke="black" points="0,-73 0,-92 193,-92 193,-73 0,-73"/>
<text text-anchor="middle" x="96.5" y="-80" font-family="Helvetica,sans-Serif" font-size="10.00">src/libs/vwidgets/vgrainlineitem.cpp</text>
</a>
</g>
</g>
<!-- Node5&#45;&gt;Node39 -->
<g id="edge59" class="edge">
<title>Node5&#45;&gt;Node39</title>
<path fill="none" stroke="midnightblue" d="M2553.8,-256.95C2369.24,-241.16 2320.15,-250.14 2141.5,-221 2104.05,-214.89 2096.04,-206.52 2058.5,-201 1240.68,-80.8 1024.27,-177.49 201.5,-98 185.38,-96.44 167.94,-94.24 151.98,-92.03"/>
<polygon fill="midnightblue" stroke="midnightblue" points="2553.58,-260.45 2563.84,-257.82 2554.18,-253.47 2553.58,-260.45"/>
</g>
<!-- Node43 -->
<g id="node39" class="node">
<title>Node43</title>
<g id="a_node39"><a xlink:href="../../d2/d31/vmaingraphicsview_8cpp.html" target="_top" xlink:title=" ">
<polygon fill="white" stroke="black" points="5472.5,-73 5472.5,-92 5688.5,-92 5688.5,-73 5472.5,-73"/>
<text text-anchor="middle" x="5580.5" y="-80" font-family="Helvetica,sans-Serif" font-size="10.00">src/libs/vwidgets/vmaingraphicsview.cpp</text>
</a>
</g>
</g>
<!-- Node5&#45;&gt;Node43 -->
<g id="edge60" class="edge">
<title>Node5&#45;&gt;Node43</title>
<path fill="none" stroke="midnightblue" d="M2757.24,-262.47C2949.16,-255.66 3377.78,-239.7 3738.5,-221 4139.18,-200.23 4239.31,-193.7 4639.5,-165 5005.99,-138.71 5097.99,-135.49 5463.5,-98 5480.5,-96.26 5498.86,-94.11 5515.88,-92"/>
<polygon fill="midnightblue" stroke="midnightblue" points="2757.04,-258.98 2747.17,-262.83 2757.29,-265.97 2757.04,-258.98"/>
</g>
<!-- Node45 -->
<g id="node41" class="node">
<title>Node45</title>
<g id="a_node41"><a xlink:href="../../df/df5/vtextgraphicsitem_8cpp.html" target="_top" xlink:title=" ">
<polygon fill="white" stroke="black" points="382,-73 382,-92 593,-92 593,-73 382,-73"/>
<text text-anchor="middle" x="487.5" y="-80" font-family="Helvetica,sans-Serif" font-size="10.00">src/libs/vwidgets/vtextgraphicsitem.cpp</text>
</a>
</g>
</g>
<!-- Node5&#45;&gt;Node45 -->
<g id="edge61" class="edge">
<title>Node5&#45;&gt;Node45</title>
<path fill="none" stroke="midnightblue" d="M2553.42,-256.55C2418.81,-244.01 2198.38,-223.21 2194.5,-221 2152.77,-197.28 2173.08,-156.17 2130.5,-134 2055.14,-94.76 686.23,-104.37 601.5,-98 583.2,-96.62 563.33,-94.36 545.38,-92.03"/>
<polygon fill="midnightblue" stroke="midnightblue" points="2553.47,-260.07 2563.76,-257.51 2554.12,-253.1 2553.47,-260.07"/>
</g>
<!-- Node46 -->
<g id="node42" class="node">
<title>Node46</title>
<g id="a_node42"><a xlink:href="../../d4/d11/vcommonsettings_8cpp.html" target="_top" xlink:title=" ">
<polygon fill="white" stroke="black" points="2433.5,-201.5 2433.5,-220.5 2627.5,-220.5 2627.5,-201.5 2433.5,-201.5"/>
<text text-anchor="middle" x="2530.5" y="-208.5" font-family="Helvetica,sans-Serif" font-size="10.00">src/libs/vmisc/vcommonsettings.cpp</text>
</a>
</g>
</g>
<!-- Node5&#45;&gt;Node46 -->
<g id="edge44" class="edge">
<title>Node5&#45;&gt;Node46</title>
<path fill="none" stroke="midnightblue" d="M2626.26,-253.37C2602.85,-243.26 2570.66,-229.35 2550.21,-220.52"/>
<polygon fill="midnightblue" stroke="midnightblue" points="2625.13,-256.69 2635.69,-257.44 2627.9,-250.26 2625.13,-256.69"/>
</g>
<!-- Node47 -->
<g id="node43" class="node">
<title>Node47</title>
<g id="a_node43"><a xlink:href="../../df/da4/vseamlymesettings_8h.html" target="_top" xlink:title=" ">
<polygon fill="white" stroke="black" points="2223.5,-201.5 2223.5,-220.5 2415.5,-220.5 2415.5,-201.5 2223.5,-201.5"/>
<text text-anchor="middle" x="2319.5" y="-208.5" font-family="Helvetica,sans-Serif" font-size="10.00">src/libs/vmisc/vseamlymesettings.h</text>
</a>
</g>
</g>
<!-- Node5&#45;&gt;Node47 -->
<g id="edge45" class="edge">
<title>Node5&#45;&gt;Node47</title>
<path fill="none" stroke="midnightblue" d="M2592.37,-255.85C2528.88,-245.65 2432.11,-230.1 2372.49,-220.52"/>
<polygon fill="midnightblue" stroke="midnightblue" points="2591.83,-259.31 2602.26,-257.44 2592.94,-252.4 2591.83,-259.31"/>
</g>
<!-- Node5&#45;&gt;Node49 -->
<g id="edge47" class="edge">
<title>Node5&#45;&gt;Node49</title>
<path fill="none" stroke="midnightblue" d="M2757.3,-264.31C3067.04,-259.06 4025.35,-242.16 4819.5,-221 4889.96,-219.12 4970.49,-216.45 5026.49,-214.5"/>
<polygon fill="midnightblue" stroke="midnightblue" points="2756.94,-260.81 2747,-264.48 2757.06,-267.81 2756.94,-260.81"/>
</g>
<!-- Node8&#45;&gt;Node6 -->
<g id="edge8" class="edge">
<title>Node8&#45;&gt;Node6</title>
<path fill="none" stroke="midnightblue" d="M2672.25,-143.32C2603.58,-140.19 2512.84,-136.38 2432.5,-134 1974.85,-120.47 828.36,-140.62 372.5,-98 358.64,-96.7 343.63,-94.44 330.14,-92.07"/>
<polygon fill="midnightblue" stroke="midnightblue" points="2672.5,-146.83 2682.65,-143.79 2672.82,-139.84 2672.5,-146.83"/>
</g>
<!-- Node8&#45;&gt;Node7 -->
<g id="edge18" class="edge">
<title>Node8&#45;&gt;Node7</title>
<path fill="none" stroke="midnightblue" d="M2672.25,-143.44C2603.57,-140.37 2512.84,-136.56 2432.5,-134 1705.58,-110.86 1521.15,-159.89 796.5,-98 780.72,-96.65 763.61,-94.37 748.21,-92.01"/>
<polygon fill="midnightblue" stroke="midnightblue" points="2672.5,-146.96 2682.64,-143.91 2672.81,-139.96 2672.5,-146.96"/>
</g>
<!-- Node9 -->
<g id="node9" class="node">
<title>Node9</title>
<g id="a_node9"><a xlink:href="../../d9/dc8/dxiface_8cpp.html" target="_top" xlink:title=" ">
<polygon fill="white" stroke="black" points="4428,-73 4428,-92 4563,-92 4563,-73 4428,-73"/>
<text text-anchor="middle" x="4495.5" y="-80" font-family="Helvetica,sans-Serif" font-size="10.00">src/libs/vdxf/dxiface.cpp</text>
</a>
</g>
</g>
<!-- Node8&#45;&gt;Node9 -->
<g id="edge9" class="edge">
<title>Node8&#45;&gt;Node9</title>
<path fill="none" stroke="midnightblue" d="M2888.24,-147.4C3203.62,-143.83 4121.37,-130.83 4419.5,-98 4431.78,-96.65 4445.05,-94.39 4457.02,-92.06"/>
<polygon fill="midnightblue" stroke="midnightblue" points="2888.14,-143.9 2878.18,-147.51 2888.22,-150.9 2888.14,-143.9"/>
</g>
<!-- Node10 -->
<g id="node10" class="node">
<title>Node10</title>
<g id="a_node10"><a xlink:href="../../da/d75/vabstractarc__p_8h.html" target="_top" xlink:title=" ">
<polygon fill="white" stroke="red" points="4581,-67.5 4581,-97.5 4688,-97.5 4688,-67.5 4581,-67.5"/>
<text text-anchor="start" x="4589" y="-85.5" font-family="Helvetica,sans-Serif" font-size="10.00">src/libs/vgeometry</text>
<text text-anchor="middle" x="4634.5" y="-74.5" font-family="Helvetica,sans-Serif" font-size="10.00">/vabstractarc_p.h</text>
</a>
</g>
</g>
<!-- Node8&#45;&gt;Node10 -->
<g id="edge10" class="edge">
<title>Node8&#45;&gt;Node10</title>
<path fill="none" stroke="midnightblue" d="M2888.42,-146.73C3250.13,-140.61 4406.22,-119.56 4572.5,-98 4575.24,-97.64 4578.04,-97.22 4580.85,-96.74"/>
<polygon fill="midnightblue" stroke="midnightblue" points="2888.15,-143.23 2878.21,-146.9 2888.27,-150.23 2888.15,-143.23"/>
</g>
<!-- Node12 -->
<g id="node11" class="node">
<title>Node12</title>
<g id="a_node11"><a xlink:href="../../d5/d8e/vcubicbezier__p_8h.html" target="_top" xlink:title=" ">
<polygon fill="white" stroke="red" points="4706,-67.5 4706,-97.5 4813,-97.5 4813,-67.5 4706,-67.5"/>
<text text-anchor="start" x="4714" y="-85.5" font-family="Helvetica,sans-Serif" font-size="10.00">src/libs/vgeometry</text>
<text text-anchor="middle" x="4759.5" y="-74.5" font-family="Helvetica,sans-Serif" font-size="10.00">/vcubicbezier_p.h</text>
</a>
</g>
</g>
<!-- Node8&#45;&gt;Node12 -->
<g id="edge11" class="edge">
<title>Node8&#45;&gt;Node12</title>
<path fill="none" stroke="midnightblue" d="M2888.15,-146.94C3265.98,-141.3 4518.4,-121.06 4697.5,-98 4700.24,-97.65 4703.04,-97.22 4705.85,-96.75"/>
<polygon fill="midnightblue" stroke="midnightblue" points="2887.99,-143.45 2878.04,-147.09 2888.09,-150.44 2887.99,-143.45"/>
</g>
<!-- Node14 -->
<g id="node12" class="node">
<title>Node14</title>
<g id="a_node12"><a xlink:href="../../dc/da3/varc__p_8h.html" target="_top" xlink:title=" ">
<polygon fill="white" stroke="red" points="4831,-67.5 4831,-97.5 4938,-97.5 4938,-67.5 4831,-67.5"/>
<text text-anchor="start" x="4839" y="-85.5" font-family="Helvetica,sans-Serif" font-size="10.00">src/libs/vgeometry</text>
<text text-anchor="middle" x="4884.5" y="-74.5" font-family="Helvetica,sans-Serif" font-size="10.00">/varc_p.h</text>
</a>
</g>
</g>
<!-- Node8&#45;&gt;Node14 -->
<g id="edge12" class="edge">
<title>Node8&#45;&gt;Node14</title>
<path fill="none" stroke="midnightblue" d="M2888.42,-147.13C3282.46,-141.93 4630.63,-122.55 4822.5,-98 4825.24,-97.65 4828.04,-97.23 4830.85,-96.76"/>
<polygon fill="midnightblue" stroke="midnightblue" points="2888.11,-143.63 2878.16,-147.26 2888.21,-150.63 2888.11,-143.63"/>
</g>
<!-- Node16 -->
<g id="node13" class="node">
<title>Node16</title>
<g id="a_node13"><a xlink:href="../../df/dde/vellipticalarc__p_8h.html" target="_top" xlink:title=" ">
<polygon fill="white" stroke="black" points="931,-67.5 931,-97.5 1038,-97.5 1038,-67.5 931,-67.5"/>
<text text-anchor="start" x="939" y="-85.5" font-family="Helvetica,sans-Serif" font-size="10.00">src/libs/vgeometry</text>
<text text-anchor="middle" x="984.5" y="-74.5" font-family="Helvetica,sans-Serif" font-size="10.00">/vellipticalarc_p.h</text>
</a>
</g>
</g>
<!-- Node8&#45;&gt;Node16 -->
<g id="edge13" class="edge">
<title>Node8&#45;&gt;Node16</title>
<path fill="none" stroke="midnightblue" d="M2714.39,-138.68C2699.64,-136.82 2684.06,-135.11 2669.5,-134 1952.73,-79.36 1766.5,-181.32 1052.5,-98 1047.82,-97.45 1042.99,-96.74 1038.17,-95.92"/>
<polygon fill="midnightblue" stroke="midnightblue" points="2714.07,-142.17 2724.44,-139.98 2714.97,-135.22 2714.07,-142.17"/>
</g>
<!-- Node17 -->
<g id="node14" class="node">
<title>Node17</title>
<g id="a_node14"><a xlink:href="../../d6/dfb/vellipticalarc_8cpp.html" target="_top" xlink:title=" ">
<polygon fill="white" stroke="black" points="972,-0.5 972,-30.5 1079,-30.5 1079,-0.5 972,-0.5"/>
<text text-anchor="start" x="980" y="-18.5" font-family="Helvetica,sans-Serif" font-size="10.00">src/libs/vgeometry</text>
<text text-anchor="middle" x="1025.5" y="-7.5" font-family="Helvetica,sans-Serif" font-size="10.00">/vellipticalarc.cpp</text>
</a>
</g>
</g>
<!-- Node8&#45;&gt;Node17 -->
<g id="edge15" class="edge">
<title>Node8&#45;&gt;Node17</title>
<path fill="none" stroke="midnightblue" d="M2714.39,-138.68C2699.64,-136.82 2684.06,-135.11 2669.5,-134 2581.73,-127.29 1163.6,-138.6 1085.5,-98 1057.75,-83.57 1039.58,-49.81 1031.09,-30.57"/>
<polygon fill="midnightblue" stroke="midnightblue" points="2714.07,-142.17 2724.44,-139.99 2714.97,-135.23 2714.07,-142.17"/>
</g>
<!-- Node18 -->
<g id="node15" class="node">
<title>Node18</title>
<g id="a_node15"><a xlink:href="../../d1/d76/vspline__p_8h.html" target="_top" xlink:title=" ">
<polygon fill="white" stroke="red" points="1095,-67.5 1095,-97.5 1202,-97.5 1202,-67.5 1095,-67.5"/>
<text text-anchor="start" x="1103" y="-85.5" font-family="Helvetica,sans-Serif" font-size="10.00">src/libs/vgeometry</text>
<text text-anchor="middle" x="1148.5" y="-74.5" font-family="Helvetica,sans-Serif" font-size="10.00">/vspline_p.h</text>
</a>
</g>
</g>
<!-- Node8&#45;&gt;Node18 -->
<g id="edge16" class="edge">
<title>Node8&#45;&gt;Node18</title>
<path fill="none" stroke="midnightblue" d="M2714.15,-138.67C2699.47,-136.82 2683.98,-135.12 2669.5,-134 2023.24,-83.95 1854.6,-179.11 1211.5,-98 1208.49,-97.62 1205.42,-97.16 1202.33,-96.64"/>
<polygon fill="midnightblue" stroke="midnightblue" points="2713.78,-142.16 2724.15,-139.97 2714.68,-135.21 2713.78,-142.16"/>
</g>
<!-- Node20 -->
<g id="node16" class="node">
<title>Node20</title>
<g id="a_node16"><a xlink:href="../../d9/d15/vabstractpiece_8cpp.html" target="_top" xlink:title=" ">
<polygon fill="white" stroke="black" points="1220.5,-73 1220.5,-92 1406.5,-92 1406.5,-73 1220.5,-73"/>
<text text-anchor="middle" x="1313.5" y="-80" font-family="Helvetica,sans-Serif" font-size="10.00">src/libs/vlayout/vabstractpiece.cpp</text>
</a>
</g>
</g>
<!-- Node8&#45;&gt;Node20 -->
<g id="edge17" class="edge">
<title>Node8&#45;&gt;Node20</title>
<path fill="none" stroke="midnightblue" d="M2713.9,-138.69C2699.3,-136.85 2683.9,-135.14 2669.5,-134 2113.69,-89.83 1971.05,-145.31 1415.5,-98 1399.1,-96.6 1381.32,-94.34 1365.26,-92.01"/>
<polygon fill="midnightblue" stroke="midnightblue" points="2713.5,-142.16 2723.86,-139.98 2714.4,-135.22 2713.5,-142.16"/>
</g>
<!-- Node21 -->
<g id="node17" class="node">
<title>Node21</title>
<g id="a_node17"><a xlink:href="../../d8/d70/vtextmanager_8cpp.html" target="_top" xlink:title=" ">
<polygon fill="white" stroke="black" points="1424.5,-73 1424.5,-92 1606.5,-92 1606.5,-73 1424.5,-73"/>
<text text-anchor="middle" x="1515.5" y="-80" font-family="Helvetica,sans-Serif" font-size="10.00">src/libs/vlayout/vtextmanager.cpp</text>
</a>
</g>
</g>
<!-- Node8&#45;&gt;Node21 -->
<g id="edge19" class="edge">
<title>Node8&#45;&gt;Node21</title>
<path fill="none" stroke="midnightblue" d="M2713.24,-138.66C2698.83,-136.85 2683.68,-135.17 2669.5,-134 2202.36,-95.6 2082.36,-139.69 1615.5,-98 1599.6,-96.58 1582.37,-94.34 1566.76,-92.04"/>
<polygon fill="midnightblue" stroke="midnightblue" points="2713.21,-142.19 2723.57,-140 2714.1,-135.25 2713.21,-142.19"/>
</g>
<!-- Node22 -->
<g id="node18" class="node">
<title>Node22</title>
<g id="a_node18"><a xlink:href="../../db/d65/dialogexporttocsv_8cpp.html" target="_top" xlink:title=" ">
<polygon fill="white" stroke="black" points="1625,-67.5 1625,-97.5 1752,-97.5 1752,-67.5 1625,-67.5"/>
<text text-anchor="start" x="1633" y="-85.5" font-family="Helvetica,sans-Serif" font-size="10.00">src/libs/vmisc/dialogs</text>
<text text-anchor="middle" x="1688.5" y="-74.5" font-family="Helvetica,sans-Serif" font-size="10.00">/dialogexporttocsv.cpp</text>
</a>
</g>
</g>
<!-- Node8&#45;&gt;Node22 -->
<g id="edge20" class="edge">
<title>Node8&#45;&gt;Node22</title>
<path fill="none" stroke="midnightblue" d="M2712.76,-138.66C2698.5,-136.87 2683.52,-135.19 2669.5,-134 2267.08,-99.81 2162.57,-145.49 1761.5,-98 1758.42,-97.64 1755.28,-97.21 1752.11,-96.74"/>
<polygon fill="midnightblue" stroke="midnightblue" points="2712.63,-142.18 2723,-139.98 2713.53,-135.23 2712.63,-142.18"/>
</g>
<!-- Node23 -->
<g id="node19" class="node">
<title>Node23</title>
<g id="a_node19"><a xlink:href="../../d6/d0b/def_8cpp.html" target="_top" xlink:title=" ">
<polygon fill="white" stroke="black" points="1770.5,-73 1770.5,-92 1892.5,-92 1892.5,-73 1770.5,-73"/>
<text text-anchor="middle" x="1831.5" y="-80" font-family="Helvetica,sans-Serif" font-size="10.00">src/libs/vmisc/def.cpp</text>
</a>
</g>
</g>
<!-- Node8&#45;&gt;Node23 -->
<g id="edge21" class="edge">
<title>Node8&#45;&gt;Node23</title>
<path fill="none" stroke="midnightblue" d="M2712.28,-138.68C2698.16,-136.9 2683.36,-135.23 2669.5,-134 2329.13,-103.84 2240.52,-140.79 1901.5,-98 1890.3,-96.59 1878.21,-94.34 1867.29,-92.04"/>
<polygon fill="midnightblue" stroke="midnightblue" points="2712.05,-142.18 2722.42,-139.99 2712.95,-135.24 2712.05,-142.18"/>
</g>
<!-- Node24 -->
<g id="node20" class="node">
<title>Node24</title>
<g id="a_node20"><a xlink:href="../../d0/df6/vabstractapplication_8cpp.html" target="_top" xlink:title=" ">
<polygon fill="white" stroke="black" points="1910.5,-73 1910.5,-92 2116.5,-92 2116.5,-73 1910.5,-73"/>
<text text-anchor="middle" x="2013.5" y="-80" font-family="Helvetica,sans-Serif" font-size="10.00">src/libs/vmisc/vabstractapplication.cpp</text>
</a>
</g>
</g>
<!-- Node8&#45;&gt;Node24 -->
<g id="edge22" class="edge">
<title>Node8&#45;&gt;Node24</title>
<path fill="none" stroke="midnightblue" d="M2710.43,-138.66C2696.87,-136.95 2682.75,-135.3 2669.5,-134 2428.36,-110.29 2366.66,-121.57 2125.5,-98 2108.72,-96.36 2090.57,-94.19 2073.87,-92.02"/>
<polygon fill="midnightblue" stroke="midnightblue" points="2710.3,-142.17 2720.67,-139.97 2711.2,-135.23 2710.3,-142.17"/>
</g>
<!-- Node25 -->
<g id="node21" class="node">
<title>Node25</title>
<g id="a_node21"><a xlink:href="../../d4/d4f/pmsystems_8cpp.html" target="_top" xlink:title=" ">
<polygon fill="white" stroke="black" points="2135,-67.5 2135,-97.5 2242,-97.5 2242,-67.5 2135,-67.5"/>
<text text-anchor="start" x="2143" y="-85.5" font-family="Helvetica,sans-Serif" font-size="10.00">src/libs/vpatterndb</text>
<text text-anchor="middle" x="2188.5" y="-74.5" font-family="Helvetica,sans-Serif" font-size="10.00">/pmsystems.cpp</text>
</a>
</g>
</g>
<!-- Node8&#45;&gt;Node25 -->
<g id="edge23" class="edge">
<title>Node8&#45;&gt;Node25</title>
<path fill="none" stroke="midnightblue" d="M2709.22,-138.72C2696.03,-137.04 2682.36,-135.39 2669.5,-134 2483.68,-113.89 2435.09,-127.36 2250.5,-98 2247.77,-97.57 2244.98,-97.08 2242.17,-96.55"/>
<polygon fill="midnightblue" stroke="midnightblue" points="2708.83,-142.19 2719.2,-140 2709.73,-135.25 2708.83,-142.19"/>
</g>
<!-- Node26 -->
<g id="node22" class="node">
<title>Node26</title>
<g id="a_node22"><a xlink:href="../../d6/d46/vcontainer_8cpp.html" target="_top" xlink:title=" ">
<polygon fill="white" stroke="black" points="2260,-67.5 2260,-97.5 2367,-97.5 2367,-67.5 2260,-67.5"/>
<text text-anchor="start" x="2268" y="-85.5" font-family="Helvetica,sans-Serif" font-size="10.00">src/libs/vpatterndb</text>
<text text-anchor="middle" x="2313.5" y="-74.5" font-family="Helvetica,sans-Serif" font-size="10.00">/vcontainer.cpp</text>
</a>
</g>
</g>
<!-- Node8&#45;&gt;Node26 -->
<g id="edge24" class="edge">
<title>Node8&#45;&gt;Node26</title>
<path fill="none" stroke="midnightblue" d="M2705.84,-138.66C2693.69,-137.09 2681.25,-135.49 2669.5,-134 2538.9,-117.47 2505.11,-121.02 2375.5,-98 2372.78,-97.52 2370,-96.99 2367.2,-96.43"/>
<polygon fill="midnightblue" stroke="midnightblue" points="2705.58,-142.16 2715.95,-139.98 2706.48,-135.22 2705.58,-142.16"/>
</g>
<!-- Node8&#45;&gt;Node27 -->
<g id="edge25" class="edge">
<title>Node8&#45;&gt;Node27</title>
<path fill="none" stroke="midnightblue" d="M2714.39,-138.66C2699.64,-136.8 2684.06,-135.1 2669.5,-134 2282.07,-104.79 1306.99,-146.5 921.5,-98 918.76,-97.65 915.96,-97.24 913.14,-96.77"/>
<polygon fill="midnightblue" stroke="midnightblue" points="2714.07,-142.15 2724.44,-139.96 2714.97,-135.21 2714.07,-142.15"/>
</g>
<!-- Node28 -->
<g id="node24" class="node">
<title>Node28</title>
<g id="a_node24"><a xlink:href="../../df/d7a/vpiece_8cpp.html" target="_top" xlink:title=" ">
<polygon fill="white" stroke="black" points="2385,-67.5 2385,-97.5 2492,-97.5 2492,-67.5 2385,-67.5"/>
<text text-anchor="start" x="2393" y="-85.5" font-family="Helvetica,sans-Serif" font-size="10.00">src/libs/vpatterndb</text>
<text text-anchor="middle" x="2438.5" y="-74.5" font-family="Helvetica,sans-Serif" font-size="10.00">/vpiece.cpp</text>
</a>
</g>
</g>
<!-- Node8&#45;&gt;Node28 -->
<g id="edge26" class="edge">
<title>Node8&#45;&gt;Node28</title>
<path fill="none" stroke="midnightblue" d="M2719.33,-138.28C2662.69,-128.62 2576.21,-113.35 2501.5,-98 2498.42,-97.37 2495.26,-96.7 2492.08,-96.01"/>
<polygon fill="midnightblue" stroke="midnightblue" points="2718.75,-141.73 2729.19,-139.96 2719.92,-134.83 2718.75,-141.73"/>
</g>
<!-- Node8&#45;&gt;Node29 -->
<g id="edge27" class="edge">
<title>Node8&#45;&gt;Node29</title>
<path fill="none" stroke="midnightblue" d="M2888.08,-147.3C3297.11,-142.54 4742.73,-124.05 4947.5,-98 4950.24,-97.65 4953.04,-97.23 4955.85,-96.76"/>
<polygon fill="midnightblue" stroke="midnightblue" points="2887.99,-143.8 2878.03,-147.41 2888.07,-150.8 2887.99,-143.8"/>
</g>
<!-- Node31 -->
<g id="node27" class="node">
<title>Node31</title>
<g id="a_node27"><a xlink:href="../../de/d3e/vtranslatevars_8cpp.html" target="_top" xlink:title=" ">
<polygon fill="white" stroke="black" points="2510.5,-67.5 2510.5,-97.5 2620.5,-97.5 2620.5,-67.5 2510.5,-67.5"/>
<text text-anchor="start" x="2518.5" y="-85.5" font-family="Helvetica,sans-Serif" font-size="10.00">src/libs/vpatterndb</text>
<text text-anchor="middle" x="2565.5" y="-74.5" font-family="Helvetica,sans-Serif" font-size="10.00">/vtranslatevars.cpp</text>
</a>
</g>
</g>
<!-- Node8&#45;&gt;Node31 -->
<g id="edge29" class="edge">
<title>Node8&#45;&gt;Node31</title>
<path fill="none" stroke="midnightblue" d="M2742.19,-136.92C2705.73,-125.9 2650.82,-109.29 2611.9,-97.53"/>
<polygon fill="midnightblue" stroke="midnightblue" points="2741.36,-140.32 2751.95,-139.87 2743.39,-133.62 2741.36,-140.32"/>
</g>
<!-- Node8&#45;&gt;Node32 -->
<g id="edge30" class="edge">
<title>Node8&#45;&gt;Node32</title>
<path fill="none" stroke="midnightblue" d="M2888.15,-147.2C3312.16,-141.93 4854.38,-121.32 5072.5,-98 5075.27,-97.7 5078.09,-97.36 5080.93,-96.97"/>
<polygon fill="midnightblue" stroke="midnightblue" points="2888,-143.7 2878.04,-147.32 2888.08,-150.7 2888,-143.7"/>
</g>
<!-- Node33 -->
<g id="node29" class="node">
<title>Node33</title>
<g id="a_node29"><a xlink:href="../../d3/d4f/mouse__coordinates_8cpp.html" target="_top" xlink:title=" ">
<polygon fill="white" stroke="black" points="2638.5,-67.5 2638.5,-97.5 2772.5,-97.5 2772.5,-67.5 2638.5,-67.5"/>
<text text-anchor="start" x="2646.5" y="-85.5" font-family="Helvetica,sans-Serif" font-size="10.00">src/libs/vwidgets/mouse</text>
<text text-anchor="middle" x="2705.5" y="-74.5" font-family="Helvetica,sans-Serif" font-size="10.00">_coordinates.cpp</text>
</a>
</g>
</g>
<!-- Node8&#45;&gt;Node33 -->
<g id="edge31" class="edge">
<title>Node8&#45;&gt;Node33</title>
<path fill="none" stroke="midnightblue" d="M2762.53,-132.93C2750.13,-122.18 2733.77,-108 2721.76,-97.59"/>
<polygon fill="midnightblue" stroke="midnightblue" points="2760.54,-135.83 2770.39,-139.73 2765.12,-130.54 2760.54,-135.83"/>
</g>
<!-- Node34 -->
<g id="node30" class="node">
<title>Node34</title>
<g id="a_node30"><a xlink:href="../../d8/d76/scene__rect_8cpp.html" target="_top" xlink:title=" ">
<polygon fill="white" stroke="black" points="2790.5,-67.5 2790.5,-97.5 2920.5,-97.5 2920.5,-67.5 2790.5,-67.5"/>
<text text-anchor="start" x="2798.5" y="-85.5" font-family="Helvetica,sans-Serif" font-size="10.00">src/libs/vwidgets/scene</text>
<text text-anchor="middle" x="2855.5" y="-74.5" font-family="Helvetica,sans-Serif" font-size="10.00">_rect.cpp</text>
</a>
</g>
</g>
<!-- Node8&#45;&gt;Node34 -->
<g id="edge32" class="edge">
<title>Node8&#45;&gt;Node34</title>
<path fill="none" stroke="midnightblue" d="M2798.47,-132.93C2810.87,-122.18 2827.23,-108 2839.24,-97.59"/>
<polygon fill="midnightblue" stroke="midnightblue" points="2795.88,-130.54 2790.61,-139.73 2800.46,-135.83 2795.88,-130.54"/>
</g>
<!-- Node35 -->
<g id="node31" class="node">
<title>Node35</title>
<g id="a_node31"><a xlink:href="../../d7/d1b/pen__toolbar_8cpp.html" target="_top" xlink:title=" ">
<polygon fill="white" stroke="black" points="2939,-67.5 2939,-97.5 3058,-97.5 3058,-67.5 2939,-67.5"/>
<text text-anchor="start" x="2947" y="-85.5" font-family="Helvetica,sans-Serif" font-size="10.00">src/libs/vwidgets/pen</text>
<text text-anchor="middle" x="2998.5" y="-74.5" font-family="Helvetica,sans-Serif" font-size="10.00">_toolbar.cpp</text>
</a>
</g>
</g>
<!-- Node8&#45;&gt;Node35 -->
<g id="edge33" class="edge">
<title>Node8&#45;&gt;Node35</title>
<path fill="none" stroke="midnightblue" d="M2819.35,-136.92C2856.31,-125.9 2911.99,-109.29 2951.45,-97.53"/>
<polygon fill="midnightblue" stroke="midnightblue" points="2818.03,-133.66 2809.45,-139.87 2820.03,-140.37 2818.03,-133.66"/>
</g>
<!-- Node36 -->
<g id="node32" class="node">
<title>Node36</title>
<g id="a_node32"><a xlink:href="../../dd/df6/vabstractmainwindow_8cpp.html" target="_top" xlink:title=" ">
<polygon fill="white" stroke="black" points="3076,-73 3076,-92 3305,-92 3305,-73 3076,-73"/>
<text text-anchor="middle" x="3190.5" y="-80" font-family="Helvetica,sans-Serif" font-size="10.00">src/libs/vwidgets/vabstractmainwindow.cpp</text>
</a>
</g>
</g>
<!-- Node8&#45;&gt;Node36 -->
<g id="edge34" class="edge">
<title>Node8&#45;&gt;Node36</title>
<path fill="none" stroke="midnightblue" d="M2844.52,-138.35C2924.92,-125.6 3061.41,-103.96 3136.68,-92.03"/>
<polygon fill="midnightblue" stroke="midnightblue" points="2843.85,-134.91 2834.52,-139.94 2844.95,-141.83 2843.85,-134.91"/>
</g>
<!-- Node37 -->
<g id="node33" class="node">
<title>Node37</title>
<g id="a_node33"><a xlink:href="../../de/d45/vcontrolpointspline_8cpp.html" target="_top" xlink:title=" ">
<polygon fill="white" stroke="black" points="3323,-73 3323,-92 3538,-92 3538,-73 3323,-73"/>
<text text-anchor="middle" x="3430.5" y="-80" font-family="Helvetica,sans-Serif" font-size="10.00">src/libs/vwidgets/vcontrolpointspline.cpp</text>
</a>
</g>
</g>
<!-- Node8&#45;&gt;Node37 -->
<g id="edge35" class="edge">
<title>Node8&#45;&gt;Node37</title>
<path fill="none" stroke="midnightblue" d="M2888.28,-139.27C2996.2,-129.79 3166.99,-114.19 3314.5,-98 3330.94,-96.2 3348.67,-94.07 3365.2,-92.01"/>
<polygon fill="midnightblue" stroke="midnightblue" points="2887.69,-135.8 2878.03,-140.16 2888.3,-142.78 2887.69,-135.8"/>
</g>
<!-- Node8&#45;&gt;Node38 -->
<g id="edge36" class="edge">
<title>Node8&#45;&gt;Node38</title>
<path fill="none" stroke="midnightblue" d="M2888.18,-147.7C3297.85,-144.45 4759.52,-130.75 5223.5,-98 5242.86,-96.63 5263.9,-94.36 5282.87,-92.02"/>
<polygon fill="midnightblue" stroke="midnightblue" points="2888.09,-144.2 2878.11,-147.78 2888.14,-151.2 2888.09,-144.2"/>
</g>
<!-- Node8&#45;&gt;Node39 -->
<g id="edge37" class="edge">
<title>Node8&#45;&gt;Node39</title>
<path fill="none" stroke="midnightblue" d="M2672.25,-143.28C2603.58,-140.14 2512.85,-136.32 2432.5,-134 1936.86,-119.68 695.89,-135.98 201.5,-98 184.34,-96.68 165.71,-94.39 148.97,-92.02"/>
<polygon fill="midnightblue" stroke="midnightblue" points="2672.5,-146.79 2682.65,-143.76 2672.82,-139.8 2672.5,-146.79"/>
</g>
<!-- Node40 -->
<g id="node36" class="node">
<title>Node40</title>
<g id="a_node36"><a xlink:href="../../de/dec/vgraphicssimpletextitem_8cpp.html" target="_top" xlink:title=" ">
<polygon fill="white" stroke="black" points="3556.5,-73 3556.5,-92 3800.5,-92 3800.5,-73 3556.5,-73"/>
<text text-anchor="middle" x="3678.5" y="-80" font-family="Helvetica,sans-Serif" font-size="10.00">src/libs/vwidgets/vgraphicssimpletextitem.cpp</text>
</a>
</g>
</g>
<!-- Node8&#45;&gt;Node40 -->
<g id="edge38" class="edge">
<title>Node8&#45;&gt;Node40</title>
<path fill="none" stroke="midnightblue" d="M2888.1,-142.93C3036.59,-134.9 3312.62,-118.72 3547.5,-98 3566.76,-96.3 3587.58,-94.14 3606.83,-92.02"/>
<polygon fill="midnightblue" stroke="midnightblue" points="2887.87,-139.44 2878.07,-143.47 2888.25,-146.43 2887.87,-139.44"/>
</g>
<!-- Node41 -->
<g id="node37" class="node">
<title>Node41</title>
<g id="a_node37"><a xlink:href="../../d0/d5d/vscenepoint_8cpp.html" target="_top" xlink:title=" ">
<polygon fill="white" stroke="black" points="3819,-73 3819,-92 4000,-92 4000,-73 3819,-73"/>
<text text-anchor="middle" x="3909.5" y="-80" font-family="Helvetica,sans-Serif" font-size="10.00">src/libs/vwidgets/vscenepoint.cpp</text>
</a>
</g>
</g>
<!-- Node8&#45;&gt;Node41 -->
<g id="edge39" class="edge">
<title>Node8&#45;&gt;Node41</title>
<path fill="none" stroke="midnightblue" d="M2888.41,-146.57C3076.06,-142.47 3474.52,-130.43 3809.5,-98 3825.13,-96.49 3842.05,-94.26 3857.45,-92"/>
<polygon fill="midnightblue" stroke="midnightblue" points="2888.19,-143.08 2878.26,-146.79 2888.34,-150.08 2888.19,-143.08"/>
</g>
<!-- Node42 -->
<g id="node38" class="node">
<title>Node42</title>
<g id="a_node38"><a xlink:href="../../de/d22/vsimplecurve_8cpp.html" target="_top" xlink:title=" ">
<polygon fill="white" stroke="black" points="4018.5,-73 4018.5,-92 4206.5,-92 4206.5,-73 4018.5,-73"/>
<text text-anchor="middle" x="4112.5" y="-80" font-family="Helvetica,sans-Serif" font-size="10.00">src/libs/vwidgets/vsimplecurve.cpp</text>
</a>
</g>
</g>
<!-- Node8&#45;&gt;Node42 -->
<g id="edge40" class="edge">
<title>Node8&#45;&gt;Node42</title>
<path fill="none" stroke="midnightblue" d="M2888.6,-147.64C3102.87,-145.15 3596.5,-135.46 4009.5,-98 4025.69,-96.53 4043.22,-94.3 4059.16,-92.03"/>
<polygon fill="midnightblue" stroke="midnightblue" points="2888.26,-144.15 2878.3,-147.76 2888.33,-151.14 2888.26,-144.15"/>
</g>
<!-- Node8&#45;&gt;Node43 -->
<g id="edge41" class="edge">
<title>Node8&#45;&gt;Node43</title>
<path fill="none" stroke="midnightblue" d="M2888.39,-147.98C3323.43,-145.63 4949.98,-134.55 5463.5,-98 5482.49,-96.65 5503.12,-94.37 5521.7,-92.01"/>
<polygon fill="midnightblue" stroke="midnightblue" points="2888.31,-144.48 2878.33,-148.03 2888.35,-151.48 2888.31,-144.48"/>
</g>
<!-- Node44 -->
<g id="node40" class="node">
<title>Node44</title>
<g id="a_node40"><a xlink:href="../../df/d38/vsimplepoint_8cpp.html" target="_top" xlink:title=" ">
<polygon fill="white" stroke="black" points="4225,-73 4225,-92 4410,-92 4410,-73 4225,-73"/>
<text text-anchor="middle" x="4317.5" y="-80" font-family="Helvetica,sans-Serif" font-size="10.00">src/libs/vwidgets/vsimplepoint.cpp</text>
</a>
</g>
</g>
<!-- Node8&#45;&gt;Node44 -->
<g id="edge42" class="edge">
<title>Node8&#45;&gt;Node44</title>
<path fill="none" stroke="midnightblue" d="M2888.25,-148.6C3127.5,-147.98 3721,-141.73 4215.5,-98 4231.71,-96.57 4249.29,-94.32 4265.21,-92.02"/>
<polygon fill="midnightblue" stroke="midnightblue" points="2888.15,-145.1 2878.16,-148.63 2888.17,-152.1 2888.15,-145.1"/>
</g>
<!-- Node8&#45;&gt;Node45 -->
<g id="edge43" class="edge">
<title>Node8&#45;&gt;Node45</title>
<path fill="none" stroke="midnightblue" d="M2672.25,-143.38C2603.57,-140.28 2512.84,-136.46 2432.5,-134 1618.95,-109.06 1413.26,-157.43 601.5,-98 582.99,-96.65 562.89,-94.36 544.79,-92"/>
<polygon fill="midnightblue" stroke="midnightblue" points="2672.5,-146.89 2682.64,-143.85 2672.81,-139.9 2672.5,-146.89"/>
</g>
<!-- Node16&#45;&gt;Node17 -->
<g id="edge14" class="edge">
<title>Node16&#45;&gt;Node17</title>
<path fill="none" stroke="midnightblue" d="M998.78,-58.87C1004.71,-49.46 1011.41,-38.83 1016.62,-30.58"/>
<polygon fill="midnightblue" stroke="midnightblue" points="995.77,-57.07 993.4,-67.4 1001.69,-60.81 995.77,-57.07"/>
</g>
<!-- Node30 -->
<g id="node26" class="node">
<title>Node30</title>
<g id="a_node26"><a xlink:href="../../d8/dba/vpiecenode_8cpp.html" target="_top" xlink:title=" ">
<polygon fill="white" stroke="black" points="4956,-0.5 4956,-30.5 5063,-30.5 5063,-0.5 4956,-0.5"/>
<text text-anchor="start" x="4964" y="-18.5" font-family="Helvetica,sans-Serif" font-size="10.00">src/libs/vpatterndb</text>
<text text-anchor="middle" x="5009.5" y="-7.5" font-family="Helvetica,sans-Serif" font-size="10.00">/vpiecenode.cpp</text>
</a>
</g>
</g>
<!-- Node29&#45;&gt;Node30 -->
<g id="edge28" class="edge">
<title>Node29&#45;&gt;Node30</title>
<path fill="none" stroke="midnightblue" d="M5009.5,-57.11C5009.5,-48.15 5009.5,-38.32 5009.5,-30.58"/>
<polygon fill="midnightblue" stroke="midnightblue" points="5006,-57.4 5009.5,-67.4 5013,-57.4 5006,-57.4"/>
</g>
<!-- Node48 -->
<g id="node44" class="node">
<title>Node48</title>
<g id="a_node44"><a xlink:href="../../df/dba/vseamlymesettings_8cpp.html" target="_top" xlink:title=" ">
<polygon fill="white" stroke="black" points="2221,-140 2221,-159 2424,-159 2424,-140 2221,-140"/>
<text text-anchor="middle" x="2322.5" y="-147" font-family="Helvetica,sans-Serif" font-size="10.00">src/libs/vmisc/vseamlymesettings.cpp</text>
</a>
</g>
</g>
<!-- Node47&#45;&gt;Node48 -->
<g id="edge46" class="edge">
<title>Node47&#45;&gt;Node48</title>
<path fill="none" stroke="midnightblue" d="M2320.44,-191.32C2320.99,-180.5 2321.65,-167.4 2322.07,-159.01"/>
<polygon fill="midnightblue" stroke="midnightblue" points="2316.94,-191.31 2319.93,-201.48 2323.93,-191.66 2316.94,-191.31"/>
</g>
<!-- Node49&#45;&gt;Node8 -->
<g id="edge52" class="edge">
<title>Node49&#45;&gt;Node8</title>
<path fill="none" stroke="midnightblue" d="M5016.15,-207.94C4664.57,-198.9 3262.2,-162.88 2878.17,-153.01"/>
<polygon fill="midnightblue" stroke="midnightblue" points="5016.15,-211.44 5026.24,-208.19 5016.33,-204.44 5016.15,-211.44"/>
</g>
<!-- Node49&#45;&gt;Node43 -->
<g id="edge54" class="edge">
<title>Node49&#45;&gt;Node43</title>
<path fill="none" stroke="midnightblue" d="M5139.27,-198.82C5234.62,-173.9 5462.9,-114.24 5547.89,-92.02"/>
<polygon fill="midnightblue" stroke="midnightblue" points="5138.18,-195.49 5129.39,-201.4 5139.95,-202.26 5138.18,-195.49"/>
</g>
<!-- Node50 -->
<g id="node46" class="node">
<title>Node50</title>
<g id="a_node46"><a xlink:href="../../d9/d02/vapplication_8h.html" target="_top" xlink:title=" ">
<polygon fill="white" stroke="red" points="5707,-134.5 5707,-164.5 5834,-164.5 5834,-134.5 5707,-134.5"/>
<text text-anchor="start" x="5715" y="-152.5" font-family="Helvetica,sans-Serif" font-size="10.00">src/app/seamly2d/core</text>
<text text-anchor="middle" x="5770.5" y="-141.5" font-family="Helvetica,sans-Serif" font-size="10.00">/vapplication.h</text>
</a>
</g>
</g>
<!-- Node49&#45;&gt;Node50 -->
<g id="edge48" class="edge">
<title>Node49&#45;&gt;Node50</title>
<path fill="none" stroke="midnightblue" d="M5177.04,-202.89C5312.61,-190.92 5583.64,-167 5706.88,-156.12"/>
<polygon fill="midnightblue" stroke="midnightblue" points="5176.38,-199.43 5166.72,-203.8 5176.99,-206.41 5176.38,-199.43"/>
</g>
<!-- Node74 -->
<g id="node50" class="node">
<title>Node74</title>
<g id="a_node50"><a xlink:href="../../db/d28/vsettings_8cpp.html" target="_top" xlink:title=" ">
<polygon fill="white" stroke="black" points="5852.5,-140 5852.5,-159 6004.5,-159 6004.5,-140 5852.5,-140"/>
<text text-anchor="middle" x="5928.5" y="-147" font-family="Helvetica,sans-Serif" font-size="10.00">src/libs/vmisc/vsettings.cpp</text>
</a>
</g>
</g>
<!-- Node49&#45;&gt;Node74 -->
<g id="edge53" class="edge">
<title>Node49&#45;&gt;Node74</title>
<path fill="none" stroke="midnightblue" d="M5176.76,-208.03C5313.84,-204.02 5601.73,-192.82 5843.5,-165 5856.74,-163.48 5871.04,-161.26 5884.08,-159.02"/>
<polygon fill="midnightblue" stroke="midnightblue" points="5176.65,-204.53 5166.75,-208.32 5176.85,-211.53 5176.65,-204.53"/>
</g>
<!-- Node51 -->
<g id="node47" class="node">
<title>Node51</title>
<g id="a_node47"><a xlink:href="../../d3/dd8/vapplication_8cpp.html" target="_top" xlink:title=" ">
<polygon fill="white" stroke="black" points="5707,-67.5 5707,-97.5 5834,-97.5 5834,-67.5 5707,-67.5"/>
<text text-anchor="start" x="5715" y="-85.5" font-family="Helvetica,sans-Serif" font-size="10.00">src/app/seamly2d/core</text>
<text text-anchor="middle" x="5770.5" y="-74.5" font-family="Helvetica,sans-Serif" font-size="10.00">/vapplication.cpp</text>
</a>
</g>
</g>
<!-- Node50&#45;&gt;Node51 -->
<g id="edge49" class="edge">
<title>Node50&#45;&gt;Node51</title>
<path fill="none" stroke="midnightblue" d="M5770.5,-124.11C5770.5,-115.15 5770.5,-105.32 5770.5,-97.58"/>
<polygon fill="midnightblue" stroke="midnightblue" points="5767,-124.4 5770.5,-134.4 5774,-124.4 5767,-124.4"/>
</g>
<!-- Node52 -->
<g id="node48" class="node">
<title>Node52</title>
<g id="a_node48"><a xlink:href="../../d7/dfa/calculator__dialog_8cpp.html" target="_top" xlink:title=" ">
<polygon fill="white" stroke="black" points="5852,-67.5 5852,-97.5 5993,-97.5 5993,-67.5 5852,-67.5"/>
<text text-anchor="start" x="5860" y="-85.5" font-family="Helvetica,sans-Serif" font-size="10.00">src/app/seamly2d/dialogs</text>
<text text-anchor="middle" x="5922.5" y="-74.5" font-family="Helvetica,sans-Serif" font-size="10.00">/calculator_dialog.cpp</text>
</a>
</g>
</g>
<!-- Node50&#45;&gt;Node52 -->
<g id="edge50" class="edge">
<title>Node50&#45;&gt;Node52</title>
<path fill="none" stroke="midnightblue" d="M5812.81,-130.41C5837.08,-120.03 5867.09,-107.2 5889.58,-97.58"/>
<polygon fill="midnightblue" stroke="midnightblue" points="5811.3,-127.25 5803.48,-134.4 5814.05,-133.68 5811.3,-127.25"/>
</g>
<!-- Node53 -->
<g id="node49" class="node">
<title>Node53</title>
<g id="a_node49"><a xlink:href="../../dc/d20/preferencespathpage_8cpp.html" target="_top" xlink:title=" ">
<polygon fill="white" stroke="black" points="6011,-67.5 6011,-97.5 6216,-97.5 6216,-67.5 6011,-67.5"/>
<text text-anchor="start" x="6019" y="-85.5" font-family="Helvetica,sans-Serif" font-size="10.00">src/app/seamly2d/dialogs</text>
<text text-anchor="middle" x="6113.5" y="-74.5" font-family="Helvetica,sans-Serif" font-size="10.00">/configpages/preferencespathpage.cpp</text>
</a>
</g>
</g>
<!-- Node50&#45;&gt;Node53 -->
<g id="edge51" class="edge">
<title>Node50&#45;&gt;Node53</title>
<path fill="none" stroke="midnightblue" d="M5844.25,-133.87C5915.46,-120.17 5985.56,-107.09 6037.23,-97.53"/>
<polygon fill="midnightblue" stroke="midnightblue" points="5843.35,-130.48 5834.19,-135.81 5844.67,-137.35 5843.35,-130.48"/>
</g>
</g>
</svg>
