<?xml version="1.0" encoding="UTF-8" standalone="no"?>
<!DOCTYPE svg PUBLIC "-//W3C//DTD SVG 1.1//EN"
 "http://www.w3.org/Graphics/SVG/1.1/DTD/svg11.dtd">
<!-- Generated by graphviz version 2.43.0 (0)
 -->
<!-- Title: src/libs/vlayout/vbank.h Pages: 1 -->
<svg width="6674pt" height="341pt"
 viewBox="0.00 0.00 6674.00 341.00" xmlns="http://www.w3.org/2000/svg" xmlns:xlink="http://www.w3.org/1999/xlink">
<g id="graph0" class="graph" transform="scale(1 1) rotate(0) translate(4 337)">
<title>src/libs/vlayout/vbank.h</title>
<polygon fill="white" stroke="transparent" points="-4,4 -4,-337 6670,-337 6670,4 -4,4"/>
<!-- Node1 -->
<g id="node1" class="node">
<title>Node1</title>
<g id="a_node1"><a xlink:title=" ">
<polygon fill="#bfbfbf" stroke="black" points="4856,-313.5 4856,-332.5 4989,-332.5 4989,-313.5 4856,-313.5"/>
<text text-anchor="middle" x="4922.5" y="-320.5" font-family="Helvetica,sans-Serif" font-size="10.00">src/libs/vlayout/vbank.h</text>
</a>
</g>
</g>
<!-- Node2 -->
<g id="node2" class="node">
<title>Node2</title>
<g id="a_node2"><a xlink:href="../../de/da8/vbank_8cpp.html" target="_top" xlink:title=" ">
<polygon fill="white" stroke="black" points="4607.5,-257.5 4607.5,-276.5 4751.5,-276.5 4751.5,-257.5 4607.5,-257.5"/>
<text text-anchor="middle" x="4679.5" y="-264.5" font-family="Helvetica,sans-Serif" font-size="10.00">src/libs/vlayout/vbank.cpp</text>
</a>
</g>
</g>
<!-- Node1&#45;&gt;Node2 -->
<g id="edge1" class="edge">
<title>Node1&#45;&gt;Node2</title>
<path fill="none" stroke="midnightblue" d="M4873.98,-311.22C4828.06,-301.01 4760.05,-285.9 4717.82,-276.52"/>
<polygon fill="midnightblue" stroke="midnightblue" points="4873.47,-314.69 4884,-313.44 4874.99,-307.86 4873.47,-314.69"/>
</g>
<!-- Node3 -->
<g id="node3" class="node">
<title>Node3</title>
<g id="a_node3"><a xlink:href="../../dc/d3c/vlayoutgenerator_8h.html" target="_top" xlink:title=" ">
<polygon fill="white" stroke="black" points="4769.5,-257.5 4769.5,-276.5 4955.5,-276.5 4955.5,-257.5 4769.5,-257.5"/>
<text text-anchor="middle" x="4862.5" y="-264.5" font-family="Helvetica,sans-Serif" font-size="10.00">src/libs/vlayout/vlayoutgenerator.h</text>
</a>
</g>
</g>
<!-- Node1&#45;&gt;Node3 -->
<g id="edge2" class="edge">
<title>Node1&#45;&gt;Node3</title>
<path fill="none" stroke="midnightblue" d="M4905.32,-306.54C4894.62,-296.91 4881.24,-284.87 4872.32,-276.83"/>
<polygon fill="midnightblue" stroke="midnightblue" points="4903.09,-309.24 4912.86,-313.32 4907.77,-304.03 4903.09,-309.24"/>
</g>
<!-- Node5 -->
<g id="node5" class="node">
<title>Node5</title>
<g id="a_node5"><a xlink:href="../../dd/db2/vsettings_8h.html" target="_top" xlink:title=" ">
<polygon fill="white" stroke="black" points="4913.5,-201.5 4913.5,-220.5 5053.5,-220.5 5053.5,-201.5 4913.5,-201.5"/>
<text text-anchor="middle" x="4983.5" y="-208.5" font-family="Helvetica,sans-Serif" font-size="10.00">src/libs/vmisc/vsettings.h</text>
</a>
</g>
</g>
<!-- Node1&#45;&gt;Node5 -->
<g id="edge4" class="edge">
<title>Node1&#45;&gt;Node5</title>
<path fill="none" stroke="midnightblue" d="M4940.47,-306.47C4948.81,-298.41 4958.25,-287.98 4964.5,-277 4974.97,-258.61 4980.11,-233.95 4982.24,-220.92"/>
<polygon fill="midnightblue" stroke="midnightblue" points="4937.93,-304.05 4932.94,-313.4 4942.67,-309.2 4937.93,-304.05"/>
</g>
<!-- Node71 -->
<g id="node48" class="node">
<title>Node71</title>
<g id="a_node48"><a xlink:href="../../d4/d5c/vcommonsettings_8h.html" target="_top" xlink:title=" ">
<polygon fill="white" stroke="black" points="5322,-257.5 5322,-276.5 5505,-276.5 5505,-257.5 5322,-257.5"/>
<text text-anchor="middle" x="5413.5" y="-264.5" font-family="Helvetica,sans-Serif" font-size="10.00">src/libs/vmisc/vcommonsettings.h</text>
</a>
</g>
</g>
<!-- Node1&#45;&gt;Node71 -->
<g id="edge49" class="edge">
<title>Node1&#45;&gt;Node71</title>
<path fill="none" stroke="midnightblue" d="M4999.29,-313.55C5091.1,-303.46 5243.86,-286.66 5335.99,-276.52"/>
<polygon fill="midnightblue" stroke="midnightblue" points="4998.79,-310.09 4989.23,-314.66 4999.55,-317.05 4998.79,-310.09"/>
</g>
<!-- Node4 -->
<g id="node4" class="node">
<title>Node4</title>
<g id="a_node4"><a xlink:href="../../d3/d39/vlayoutgenerator_8cpp.html" target="_top" xlink:title=" ">
<polygon fill="white" stroke="black" points="4698,-201.5 4698,-220.5 4895,-220.5 4895,-201.5 4698,-201.5"/>
<text text-anchor="middle" x="4796.5" y="-208.5" font-family="Helvetica,sans-Serif" font-size="10.00">src/libs/vlayout/vlayoutgenerator.cpp</text>
</a>
</g>
</g>
<!-- Node3&#45;&gt;Node4 -->
<g id="edge3" class="edge">
<title>Node3&#45;&gt;Node4</title>
<path fill="none" stroke="midnightblue" d="M4843.95,-250.82C4832.12,-241.15 4817.21,-228.95 4807.3,-220.83"/>
<polygon fill="midnightblue" stroke="midnightblue" points="4841.94,-253.7 4851.9,-257.32 4846.37,-248.28 4841.94,-253.7"/>
</g>
<!-- Node6 -->
<g id="node6" class="node">
<title>Node6</title>
<g id="a_node6"><a xlink:href="../../d9/d02/vapplication_8h.html" target="_top" xlink:title=" ">
<polygon fill="white" stroke="black" points="2139,-134.5 2139,-164.5 2266,-164.5 2266,-134.5 2139,-134.5"/>
<text text-anchor="start" x="2147" y="-152.5" font-family="Helvetica,sans-Serif" font-size="10.00">src/app/seamly2d/core</text>
<text text-anchor="middle" x="2202.5" y="-141.5" font-family="Helvetica,sans-Serif" font-size="10.00">/vapplication.h</text>
</a>
</g>
</g>
<!-- Node5&#45;&gt;Node6 -->
<g id="edge5" class="edge">
<title>Node5&#45;&gt;Node6</title>
<path fill="none" stroke="midnightblue" d="M4903.19,-201C4346.03,-165.31 2619.56,-153.04 2266.1,-150.87"/>
<polygon fill="midnightblue" stroke="midnightblue" points="4903.11,-204.5 4913.32,-201.66 4903.57,-197.51 4903.11,-204.5"/>
</g>
<!-- Node30 -->
<g id="node30" class="node">
<title>Node30</title>
<g id="a_node30"><a xlink:href="../../d5/d74/vabstractapplication_8h.html" target="_top" xlink:title=" ">
<polygon fill="white" stroke="red" points="5223,-140 5223,-159 5418,-159 5418,-140 5223,-140"/>
<text text-anchor="middle" x="5320.5" y="-147" font-family="Helvetica,sans-Serif" font-size="10.00">src/libs/vmisc/vabstractapplication.h</text>
</a>
</g>
</g>
<!-- Node5&#45;&gt;Node30 -->
<g id="edge29" class="edge">
<title>Node5&#45;&gt;Node30</title>
<path fill="none" stroke="midnightblue" d="M5041.91,-199.69C5107.14,-188.17 5211.54,-169.74 5272.31,-159.01"/>
<polygon fill="midnightblue" stroke="midnightblue" points="5041.02,-196.29 5031.78,-201.48 5042.24,-203.18 5041.02,-196.29"/>
</g>
<!-- Node66 -->
<g id="node45" class="node">
<title>Node66</title>
<g id="a_node45"><a xlink:href="../../d2/d31/vmaingraphicsview_8cpp.html" target="_top" xlink:title=" ">
<polygon fill="white" stroke="black" points="4184.5,-73 4184.5,-92 4400.5,-92 4400.5,-73 4184.5,-73"/>
<text text-anchor="middle" x="4292.5" y="-80" font-family="Helvetica,sans-Serif" font-size="10.00">src/libs/vwidgets/vmaingraphicsview.cpp</text>
</a>
</g>
</g>
<!-- Node5&#45;&gt;Node66 -->
<g id="edge48" class="edge">
<title>Node5&#45;&gt;Node66</title>
<path fill="none" stroke="midnightblue" d="M4984.53,-191.25C4984.38,-173.57 4981.03,-147.79 4964.5,-134 4917.14,-94.48 4471.92,-103.76 4410.5,-98 4392.93,-96.35 4373.93,-94.19 4356.42,-92.03"/>
<polygon fill="midnightblue" stroke="midnightblue" points="4981.03,-191.18 4984.29,-201.26 4988.03,-191.35 4981.03,-191.18"/>
</g>
<!-- Node70 -->
<g id="node47" class="node">
<title>Node70</title>
<g id="a_node47"><a xlink:href="../../db/d28/vsettings_8cpp.html" target="_top" xlink:title=" ">
<polygon fill="white" stroke="black" points="4803.5,-140 4803.5,-159 4955.5,-159 4955.5,-140 4803.5,-140"/>
<text text-anchor="middle" x="4879.5" y="-147" font-family="Helvetica,sans-Serif" font-size="10.00">src/libs/vmisc/vsettings.cpp</text>
</a>
</g>
</g>
<!-- Node5&#45;&gt;Node70 -->
<g id="edge47" class="edge">
<title>Node5&#45;&gt;Node70</title>
<path fill="none" stroke="midnightblue" d="M4959.73,-196.4C4939.62,-184.9 4911.43,-168.77 4894.37,-159.01"/>
<polygon fill="midnightblue" stroke="midnightblue" points="4958.18,-199.55 4968.6,-201.48 4961.66,-193.47 4958.18,-199.55"/>
</g>
<!-- Node7 -->
<g id="node7" class="node">
<title>Node7</title>
<g id="a_node7"><a xlink:href="../../d3/dd8/vapplication_8cpp.html" target="_top" xlink:title=" ">
<polygon fill="white" stroke="black" points="1241,-67.5 1241,-97.5 1368,-97.5 1368,-67.5 1241,-67.5"/>
<text text-anchor="start" x="1249" y="-85.5" font-family="Helvetica,sans-Serif" font-size="10.00">src/app/seamly2d/core</text>
<text text-anchor="middle" x="1304.5" y="-74.5" font-family="Helvetica,sans-Serif" font-size="10.00">/vapplication.cpp</text>
</a>
</g>
</g>
<!-- Node6&#45;&gt;Node7 -->
<g id="edge6" class="edge">
<title>Node6&#45;&gt;Node7</title>
<path fill="none" stroke="midnightblue" d="M2128.74,-147.32C1984.07,-144.27 1653.2,-133.65 1377.5,-98 1374.42,-97.6 1371.28,-97.15 1368.12,-96.66"/>
<polygon fill="midnightblue" stroke="midnightblue" points="2128.76,-150.82 2138.83,-147.53 2128.9,-143.82 2128.76,-150.82"/>
</g>
<!-- Node8 -->
<g id="node8" class="node">
<title>Node8</title>
<g id="a_node8"><a xlink:href="../../d7/dfa/calculator__dialog_8cpp.html" target="_top" xlink:title=" ">
<polygon fill="white" stroke="black" points="1386,-67.5 1386,-97.5 1527,-97.5 1527,-67.5 1386,-67.5"/>
<text text-anchor="start" x="1394" y="-85.5" font-family="Helvetica,sans-Serif" font-size="10.00">src/app/seamly2d/dialogs</text>
<text text-anchor="middle" x="1456.5" y="-74.5" font-family="Helvetica,sans-Serif" font-size="10.00">/calculator_dialog.cpp</text>
</a>
</g>
</g>
<!-- Node6&#45;&gt;Node8 -->
<g id="edge7" class="edge">
<title>Node6&#45;&gt;Node8</title>
<path fill="none" stroke="midnightblue" d="M2128.85,-145.41C2005.79,-139.7 1750.73,-125.46 1536.5,-98 1533.42,-97.61 1530.28,-97.17 1527.11,-96.71"/>
<polygon fill="midnightblue" stroke="midnightblue" points="2128.77,-148.91 2138.92,-145.88 2129.09,-141.92 2128.77,-148.91"/>
</g>
<!-- Node9 -->
<g id="node9" class="node">
<title>Node9</title>
<g id="a_node9"><a xlink:href="../../d2/d2d/preferencesconfigurationpage_8cpp.html" target="_top" xlink:title=" ">
<polygon fill="white" stroke="black" points="1545,-67.5 1545,-97.5 1792,-97.5 1792,-67.5 1545,-67.5"/>
<text text-anchor="start" x="1553" y="-85.5" font-family="Helvetica,sans-Serif" font-size="10.00">src/app/seamly2d/dialogs</text>
<text text-anchor="middle" x="1668.5" y="-74.5" font-family="Helvetica,sans-Serif" font-size="10.00">/configpages/preferencesconfigurationpage.cpp</text>
</a>
</g>
</g>
<!-- Node6&#45;&gt;Node9 -->
<g id="edge8" class="edge">
<title>Node6&#45;&gt;Node9</title>
<path fill="none" stroke="midnightblue" d="M2128.85,-139.53C2039.62,-128.67 1888.26,-110.25 1783.58,-97.51"/>
<polygon fill="midnightblue" stroke="midnightblue" points="2128.53,-143.02 2138.88,-140.76 2129.38,-136.07 2128.53,-143.02"/>
</g>
<!-- Node10 -->
<g id="node10" class="node">
<title>Node10</title>
<g id="a_node10"><a xlink:href="../../dc/d20/preferencespathpage_8cpp.html" target="_top" xlink:title=" ">
<polygon fill="white" stroke="black" points="1810,-67.5 1810,-97.5 2015,-97.5 2015,-67.5 1810,-67.5"/>
<text text-anchor="start" x="1818" y="-85.5" font-family="Helvetica,sans-Serif" font-size="10.00">src/app/seamly2d/dialogs</text>
<text text-anchor="middle" x="1912.5" y="-74.5" font-family="Helvetica,sans-Serif" font-size="10.00">/configpages/preferencespathpage.cpp</text>
</a>
</g>
</g>
<!-- Node6&#45;&gt;Node10 -->
<g id="edge9" class="edge">
<title>Node6&#45;&gt;Node10</title>
<path fill="none" stroke="midnightblue" d="M2130.01,-132.25C2082.48,-121.6 2020.94,-107.81 1975.46,-97.61"/>
<polygon fill="midnightblue" stroke="midnightblue" points="2129.41,-135.7 2139.93,-134.48 2130.94,-128.87 2129.41,-135.7"/>
</g>
<!-- Node11 -->
<g id="node11" class="node">
<title>Node11</title>
<g id="a_node11"><a xlink:href="../../dd/dc2/decimalchart__dialog_8cpp.html" target="_top" xlink:title=" ">
<polygon fill="white" stroke="black" points="2033,-67.5 2033,-97.5 2174,-97.5 2174,-67.5 2033,-67.5"/>
<text text-anchor="start" x="2041" y="-85.5" font-family="Helvetica,sans-Serif" font-size="10.00">src/app/seamly2d/dialogs</text>
<text text-anchor="middle" x="2103.5" y="-74.5" font-family="Helvetica,sans-Serif" font-size="10.00">/decimalchart_dialog.cpp</text>
</a>
</g>
</g>
<!-- Node6&#45;&gt;Node11 -->
<g id="edge10" class="edge">
<title>Node6&#45;&gt;Node11</title>
<path fill="none" stroke="midnightblue" d="M2172.39,-128.73C2157.08,-118.68 2138.81,-106.68 2124.94,-97.58"/>
<polygon fill="midnightblue" stroke="midnightblue" points="2170.74,-131.83 2181.02,-134.4 2174.58,-125.98 2170.74,-131.83"/>
</g>
<!-- Node12 -->
<g id="node12" class="node">
<title>Node12</title>
<g id="a_node12"><a xlink:href="../../dc/d63/preferencespatternpage_8cpp.html" target="_top" xlink:title=" ">
<polygon fill="white" stroke="black" points="2192.5,-67.5 2192.5,-97.5 2410.5,-97.5 2410.5,-67.5 2192.5,-67.5"/>
<text text-anchor="start" x="2200.5" y="-85.5" font-family="Helvetica,sans-Serif" font-size="10.00">src/app/seamly2d/dialogs</text>
<text text-anchor="middle" x="2301.5" y="-74.5" font-family="Helvetica,sans-Serif" font-size="10.00">/configpages/preferencespatternpage.cpp</text>
</a>
</g>
</g>
<!-- Node6&#45;&gt;Node12 -->
<g id="edge11" class="edge">
<title>Node6&#45;&gt;Node12</title>
<path fill="none" stroke="midnightblue" d="M2232.61,-128.73C2247.92,-118.68 2266.19,-106.68 2280.06,-97.58"/>
<polygon fill="midnightblue" stroke="midnightblue" points="2230.42,-125.98 2223.98,-134.4 2234.26,-131.83 2230.42,-125.98"/>
</g>
<!-- Node13 -->
<g id="node13" class="node">
<title>Node13</title>
<g id="a_node13"><a xlink:href="../../d2/d00/vtooloptionspropertybrowser_8cpp.html" target="_top" xlink:title=" ">
<polygon fill="white" stroke="black" points="2428.5,-67.5 2428.5,-97.5 2608.5,-97.5 2608.5,-67.5 2428.5,-67.5"/>
<text text-anchor="start" x="2436.5" y="-85.5" font-family="Helvetica,sans-Serif" font-size="10.00">src/app/seamly2d/core</text>
<text text-anchor="middle" x="2518.5" y="-74.5" font-family="Helvetica,sans-Serif" font-size="10.00">/vtooloptionspropertybrowser.cpp</text>
</a>
</g>
</g>
<!-- Node6&#45;&gt;Node13 -->
<g id="edge12" class="edge">
<title>Node6&#45;&gt;Node13</title>
<path fill="none" stroke="midnightblue" d="M2276.01,-133.38C2328.65,-122.55 2399.02,-108.08 2450.39,-97.51"/>
<polygon fill="midnightblue" stroke="midnightblue" points="2275.16,-129.98 2266.07,-135.42 2276.57,-136.84 2275.16,-129.98"/>
</g>
<!-- Node14 -->
<g id="node14" class="node">
<title>Node14</title>
<g id="a_node14"><a xlink:href="../../dd/d64/dialogaboutapp_8cpp.html" target="_top" xlink:title=" ">
<polygon fill="white" stroke="black" points="2627,-67.5 2627,-97.5 2768,-97.5 2768,-67.5 2627,-67.5"/>
<text text-anchor="start" x="2635" y="-85.5" font-family="Helvetica,sans-Serif" font-size="10.00">src/app/seamly2d/dialogs</text>
<text text-anchor="middle" x="2697.5" y="-74.5" font-family="Helvetica,sans-Serif" font-size="10.00">/dialogaboutapp.cpp</text>
</a>
</g>
</g>
<!-- Node6&#45;&gt;Node14 -->
<g id="edge13" class="edge">
<title>Node6&#45;&gt;Node14</title>
<path fill="none" stroke="midnightblue" d="M2276.39,-140.82C2359.52,-131.88 2498.49,-116.01 2617.5,-98 2620.57,-97.54 2623.7,-97.04 2626.87,-96.53"/>
<polygon fill="midnightblue" stroke="midnightblue" points="2275.86,-137.36 2266.29,-141.9 2276.6,-144.32 2275.86,-137.36"/>
</g>
<!-- Node15 -->
<g id="node15" class="node">
<title>Node15</title>
<g id="a_node15"><a xlink:href="../../d9/d70/preferencesgraphicsviewpage_8cpp.html" target="_top" xlink:title=" ">
<polygon fill="white" stroke="black" points="2786.5,-67.5 2786.5,-97.5 3034.5,-97.5 3034.5,-67.5 2786.5,-67.5"/>
<text text-anchor="start" x="2794.5" y="-85.5" font-family="Helvetica,sans-Serif" font-size="10.00">src/app/seamly2d/dialogs</text>
<text text-anchor="middle" x="2910.5" y="-74.5" font-family="Helvetica,sans-Serif" font-size="10.00">/configpages/preferencesgraphicsviewpage.cpp</text>
</a>
</g>
</g>
<!-- Node6&#45;&gt;Node15 -->
<g id="edge14" class="edge">
<title>Node6&#45;&gt;Node15</title>
<path fill="none" stroke="midnightblue" d="M2276.64,-142.49C2386.2,-133.49 2597.8,-115.68 2777.5,-98 2780.39,-97.72 2783.31,-97.42 2786.26,-97.13"/>
<polygon fill="midnightblue" stroke="midnightblue" points="2276.04,-139.03 2266.36,-143.33 2276.61,-146 2276.04,-139.03"/>
</g>
<!-- Node16 -->
<g id="node16" class="node">
<title>Node16</title>
<g id="a_node16"><a xlink:href="../../d6/d89/dialoglayoutprogress_8cpp.html" target="_top" xlink:title=" ">
<polygon fill="white" stroke="black" points="3053,-67.5 3053,-97.5 3196,-97.5 3196,-67.5 3053,-67.5"/>
<text text-anchor="start" x="3061" y="-85.5" font-family="Helvetica,sans-Serif" font-size="10.00">src/app/seamly2d/dialogs</text>
<text text-anchor="middle" x="3124.5" y="-74.5" font-family="Helvetica,sans-Serif" font-size="10.00">/dialoglayoutprogress.cpp</text>
</a>
</g>
</g>
<!-- Node6&#45;&gt;Node16 -->
<g id="edge15" class="edge">
<title>Node6&#45;&gt;Node16</title>
<path fill="none" stroke="midnightblue" d="M2276.25,-146.97C2422.88,-143.3 2761.24,-131.62 3043.5,-98 3046.48,-97.65 3049.51,-97.25 3052.58,-96.83"/>
<polygon fill="midnightblue" stroke="midnightblue" points="2275.94,-143.48 2266.03,-147.22 2276.11,-150.48 2275.94,-143.48"/>
</g>
<!-- Node17 -->
<g id="node17" class="node">
<title>Node17</title>
<g id="a_node17"><a xlink:href="../../db/def/dialoglayoutsettings_8cpp.html" target="_top" xlink:title=" ">
<polygon fill="white" stroke="black" points="3214,-67.5 3214,-97.5 3355,-97.5 3355,-67.5 3214,-67.5"/>
<text text-anchor="start" x="3222" y="-85.5" font-family="Helvetica,sans-Serif" font-size="10.00">src/app/seamly2d/dialogs</text>
<text text-anchor="middle" x="3284.5" y="-74.5" font-family="Helvetica,sans-Serif" font-size="10.00">/dialoglayoutsettings.cpp</text>
</a>
</g>
</g>
<!-- Node6&#45;&gt;Node17 -->
<g id="edge16" class="edge">
<title>Node6&#45;&gt;Node17</title>
<path fill="none" stroke="midnightblue" d="M2276.22,-148.09C2442.55,-146.45 2859.45,-138.29 3205.5,-98 3208.27,-97.68 3211.09,-97.32 3213.93,-96.93"/>
<polygon fill="midnightblue" stroke="midnightblue" points="2276.08,-144.59 2266.11,-148.19 2276.14,-151.59 2276.08,-144.59"/>
</g>
<!-- Node18 -->
<g id="node18" class="node">
<title>Node18</title>
<g id="a_node18"><a xlink:href="../../de/d87/dialognewpattern_8cpp.html" target="_top" xlink:title=" ">
<polygon fill="white" stroke="black" points="3373,-67.5 3373,-97.5 3514,-97.5 3514,-67.5 3373,-67.5"/>
<text text-anchor="start" x="3381" y="-85.5" font-family="Helvetica,sans-Serif" font-size="10.00">src/app/seamly2d/dialogs</text>
<text text-anchor="middle" x="3443.5" y="-74.5" font-family="Helvetica,sans-Serif" font-size="10.00">/dialognewpattern.cpp</text>
</a>
</g>
</g>
<!-- Node6&#45;&gt;Node18 -->
<g id="edge17" class="edge">
<title>Node6&#45;&gt;Node18</title>
<path fill="none" stroke="midnightblue" d="M2276.14,-148.82C2460.24,-148.85 2955.14,-144.24 3364.5,-98 3367.27,-97.69 3370.09,-97.33 3372.94,-96.95"/>
<polygon fill="midnightblue" stroke="midnightblue" points="2276.04,-145.32 2266.03,-148.81 2276.03,-152.32 2276.04,-145.32"/>
</g>
<!-- Node19 -->
<g id="node19" class="node">
<title>Node19</title>
<g id="a_node19"><a xlink:href="../../d5/d18/dialogpatternproperties_8cpp.html" target="_top" xlink:title=" ">
<polygon fill="white" stroke="black" points="3532,-67.5 3532,-97.5 3687,-97.5 3687,-67.5 3532,-67.5"/>
<text text-anchor="start" x="3540" y="-85.5" font-family="Helvetica,sans-Serif" font-size="10.00">src/app/seamly2d/dialogs</text>
<text text-anchor="middle" x="3609.5" y="-74.5" font-family="Helvetica,sans-Serif" font-size="10.00">/dialogpatternproperties.cpp</text>
</a>
</g>
</g>
<!-- Node6&#45;&gt;Node19 -->
<g id="edge18" class="edge">
<title>Node6&#45;&gt;Node19</title>
<path fill="none" stroke="midnightblue" d="M2276.43,-149C2477.39,-149.66 3050.3,-146.73 3523.5,-98 3526.21,-97.72 3528.97,-97.41 3531.75,-97.07"/>
<polygon fill="midnightblue" stroke="midnightblue" points="2276.3,-145.5 2266.29,-148.97 2276.28,-152.5 2276.3,-145.5"/>
</g>
<!-- Node20 -->
<g id="node20" class="node">
<title>Node20</title>
<g id="a_node20"><a xlink:href="../../d5/dc5/dialogpreferences_8cpp.html" target="_top" xlink:title=" ">
<polygon fill="white" stroke="black" points="3705,-67.5 3705,-97.5 3846,-97.5 3846,-67.5 3705,-67.5"/>
<text text-anchor="start" x="3713" y="-85.5" font-family="Helvetica,sans-Serif" font-size="10.00">src/app/seamly2d/dialogs</text>
<text text-anchor="middle" x="3775.5" y="-74.5" font-family="Helvetica,sans-Serif" font-size="10.00">/dialogpreferences.cpp</text>
</a>
</g>
</g>
<!-- Node6&#45;&gt;Node20 -->
<g id="edge19" class="edge">
<title>Node6&#45;&gt;Node20</title>
<path fill="none" stroke="midnightblue" d="M2276.55,-147.45C2537.92,-143.5 3416.58,-128.25 3696.5,-98 3699.27,-97.7 3702.09,-97.36 3704.94,-96.98"/>
<polygon fill="midnightblue" stroke="midnightblue" points="2276.35,-143.95 2266.41,-147.6 2276.46,-150.95 2276.35,-143.95"/>
</g>
<!-- Node21 -->
<g id="node21" class="node">
<title>Node21</title>
<g id="a_node21"><a xlink:href="../../dd/d54/export__layout__dialog_8cpp.html" target="_top" xlink:title=" ">
<polygon fill="white" stroke="black" points="3864,-67.5 3864,-97.5 4007,-97.5 4007,-67.5 3864,-67.5"/>
<text text-anchor="start" x="3872" y="-85.5" font-family="Helvetica,sans-Serif" font-size="10.00">src/app/seamly2d/dialogs</text>
<text text-anchor="middle" x="3935.5" y="-74.5" font-family="Helvetica,sans-Serif" font-size="10.00">/export_layout_dialog.cpp</text>
</a>
</g>
</g>
<!-- Node6&#45;&gt;Node21 -->
<g id="edge20" class="edge">
<title>Node6&#45;&gt;Node21</title>
<path fill="none" stroke="midnightblue" d="M2276.35,-147.71C2555.02,-144.48 3542.78,-130.93 3855.5,-98 3858.17,-97.72 3860.88,-97.4 3863.61,-97.05"/>
<polygon fill="midnightblue" stroke="midnightblue" points="2276.31,-144.21 2266.35,-147.82 2276.39,-151.21 2276.31,-144.21"/>
</g>
<!-- Node22 -->
<g id="node22" class="node">
<title>Node22</title>
<g id="a_node22"><a xlink:href="../../db/d5c/groups__widget_8cpp.html" target="_top" xlink:title=" ">
<polygon fill="white" stroke="black" points="4025,-67.5 4025,-97.5 4166,-97.5 4166,-67.5 4025,-67.5"/>
<text text-anchor="start" x="4033" y="-85.5" font-family="Helvetica,sans-Serif" font-size="10.00">src/app/seamly2d/dialogs</text>
<text text-anchor="middle" x="4095.5" y="-74.5" font-family="Helvetica,sans-Serif" font-size="10.00">/groups_widget.cpp</text>
</a>
</g>
</g>
<!-- Node6&#45;&gt;Node22 -->
<g id="edge21" class="edge">
<title>Node6&#45;&gt;Node22</title>
<path fill="none" stroke="midnightblue" d="M2276.51,-147.96C2572.35,-145.56 3670.65,-134.34 4016.5,-98 4019.27,-97.71 4022.1,-97.37 4024.94,-97.01"/>
<polygon fill="midnightblue" stroke="midnightblue" points="2276.3,-144.46 2266.33,-148.04 2276.35,-151.46 2276.3,-144.46"/>
</g>
<!-- Node23 -->
<g id="node23" class="node">
<title>Node23</title>
<g id="a_node23"><a xlink:href="../../dd/d84/shortcuts__dialog_8cpp.html" target="_top" xlink:title=" ">
<polygon fill="white" stroke="black" points="0,-67.5 0,-97.5 141,-97.5 141,-67.5 0,-67.5"/>
<text text-anchor="start" x="8" y="-85.5" font-family="Helvetica,sans-Serif" font-size="10.00">src/app/seamly2d/dialogs</text>
<text text-anchor="middle" x="70.5" y="-74.5" font-family="Helvetica,sans-Serif" font-size="10.00">/shortcuts_dialog.cpp</text>
</a>
</g>
</g>
<!-- Node6&#45;&gt;Node23 -->
<g id="edge22" class="edge">
<title>Node6&#45;&gt;Node23</title>
<path fill="none" stroke="midnightblue" d="M2128.73,-148.24C1809.45,-146.86 544.95,-138.9 149.5,-98 146.73,-97.71 143.9,-97.38 141.06,-97.02"/>
<polygon fill="midnightblue" stroke="midnightblue" points="2128.78,-151.74 2138.8,-148.28 2128.81,-144.74 2128.78,-151.74"/>
</g>
<!-- Node24 -->
<g id="node24" class="node">
<title>Node24</title>
<g id="a_node24"><a xlink:href="../../d2/df4/show__info__dialog_8cpp.html" target="_top" xlink:title=" ">
<polygon fill="white" stroke="black" points="159,-67.5 159,-97.5 300,-97.5 300,-67.5 159,-67.5"/>
<text text-anchor="start" x="167" y="-85.5" font-family="Helvetica,sans-Serif" font-size="10.00">src/app/seamly2d/dialogs</text>
<text text-anchor="middle" x="229.5" y="-74.5" font-family="Helvetica,sans-Serif" font-size="10.00">/show_info_dialog.cpp</text>
</a>
</g>
</g>
<!-- Node6&#45;&gt;Node24 -->
<g id="edge23" class="edge">
<title>Node6&#45;&gt;Node24</title>
<path fill="none" stroke="midnightblue" d="M2128.76,-148.06C1825.19,-146.02 671,-135.87 308.5,-98 305.73,-97.71 302.9,-97.38 300.06,-97.01"/>
<polygon fill="midnightblue" stroke="midnightblue" points="2128.75,-151.56 2138.77,-148.13 2128.8,-144.56 2128.75,-151.56"/>
</g>
<!-- Node25 -->
<g id="node25" class="node">
<title>Node25</title>
<g id="a_node25"><a xlink:href="../../dc/d14/app_2seamly2d_2main_8cpp.html" target="_top" xlink:title=" ">
<polygon fill="white" stroke="black" points="318,-73 318,-92 469,-92 469,-73 318,-73"/>
<text text-anchor="middle" x="393.5" y="-80" font-family="Helvetica,sans-Serif" font-size="10.00">src/app/seamly2d/main.cpp</text>
</a>
</g>
</g>
<!-- Node6&#45;&gt;Node25 -->
<g id="edge24" class="edge">
<title>Node6&#45;&gt;Node25</title>
<path fill="none" stroke="midnightblue" d="M2128.41,-147.71C1841.86,-144.44 805.94,-130.56 478.5,-98 464.8,-96.64 449.96,-94.38 436.58,-92.05"/>
<polygon fill="midnightblue" stroke="midnightblue" points="2128.65,-151.21 2138.69,-147.83 2128.73,-144.21 2128.65,-151.21"/>
</g>
<!-- Node26 -->
<g id="node26" class="node">
<title>Node26</title>
<g id="a_node26"><a xlink:href="../../d5/de4/vabstractlayoutdialog_8cpp.html" target="_top" xlink:title=" ">
<polygon fill="white" stroke="black" points="487.5,-67.5 487.5,-97.5 633.5,-97.5 633.5,-67.5 487.5,-67.5"/>
<text text-anchor="start" x="495.5" y="-85.5" font-family="Helvetica,sans-Serif" font-size="10.00">src/app/seamly2d/dialogs</text>
<text text-anchor="middle" x="560.5" y="-74.5" font-family="Helvetica,sans-Serif" font-size="10.00">/vabstractlayoutdialog.cpp</text>
</a>
</g>
</g>
<!-- Node6&#45;&gt;Node26 -->
<g id="edge25" class="edge">
<title>Node6&#45;&gt;Node26</title>
<path fill="none" stroke="midnightblue" d="M2128.81,-147.51C1860.52,-143.69 936.21,-128.56 642.5,-98 639.62,-97.7 636.7,-97.36 633.74,-96.99"/>
<polygon fill="midnightblue" stroke="midnightblue" points="2128.78,-151.01 2138.83,-147.65 2128.88,-144.01 2128.78,-151.01"/>
</g>
<!-- Node27 -->
<g id="node27" class="node">
<title>Node27</title>
<g id="a_node27"><a xlink:href="../../d8/de8/mainwindowsnogui_8cpp.html" target="_top" xlink:title=" ">
<polygon fill="white" stroke="black" points="652,-73 652,-92 873,-92 873,-73 652,-73"/>
<text text-anchor="middle" x="762.5" y="-80" font-family="Helvetica,sans-Serif" font-size="10.00">src/app/seamly2d/mainwindowsnogui.cpp</text>
</a>
</g>
</g>
<!-- Node6&#45;&gt;Node27 -->
<g id="edge26" class="edge">
<title>Node6&#45;&gt;Node27</title>
<path fill="none" stroke="midnightblue" d="M2128.73,-147.8C1928.2,-145.43 1356.35,-135.63 882.5,-98 863.78,-96.51 843.48,-94.29 824.99,-92.04"/>
<polygon fill="midnightblue" stroke="midnightblue" points="2128.82,-151.3 2138.86,-147.91 2128.9,-144.3 2128.82,-151.3"/>
</g>
<!-- Node28 -->
<g id="node28" class="node">
<title>Node28</title>
<g id="a_node28"><a xlink:href="../../d3/d49/vpattern_8cpp.html" target="_top" xlink:title=" ">
<polygon fill="white" stroke="black" points="891,-67.5 891,-97.5 1016,-97.5 1016,-67.5 891,-67.5"/>
<text text-anchor="start" x="899" y="-85.5" font-family="Helvetica,sans-Serif" font-size="10.00">src/app/seamly2d/xml</text>
<text text-anchor="middle" x="953.5" y="-74.5" font-family="Helvetica,sans-Serif" font-size="10.00">/vpattern.cpp</text>
</a>
</g>
</g>
<!-- Node6&#45;&gt;Node28 -->
<g id="edge27" class="edge">
<title>Node6&#45;&gt;Node28</title>
<path fill="none" stroke="midnightblue" d="M2128.47,-146.84C1905.17,-141.57 1240.48,-124.1 1025.5,-98 1022.46,-97.63 1019.36,-97.2 1016.24,-96.73"/>
<polygon fill="midnightblue" stroke="midnightblue" points="2128.69,-150.34 2138.77,-147.08 2128.85,-143.34 2128.69,-150.34"/>
</g>
<!-- Node29 -->
<g id="node29" class="node">
<title>Node29</title>
<g id="a_node29"><a xlink:href="../../d8/dd9/mainwindow_8cpp.html" target="_top" xlink:title=" ">
<polygon fill="white" stroke="black" points="1034.5,-73 1034.5,-92 1222.5,-92 1222.5,-73 1034.5,-73"/>
<text text-anchor="middle" x="1128.5" y="-80" font-family="Helvetica,sans-Serif" font-size="10.00">src/app/seamly2d/mainwindow.cpp</text>
</a>
</g>
</g>
<!-- Node6&#45;&gt;Node29 -->
<g id="edge28" class="edge">
<title>Node6&#45;&gt;Node29</title>
<path fill="none" stroke="midnightblue" d="M2128.45,-146.83C1965.94,-142.68 1565.95,-129.86 1232.5,-98 1216.44,-96.47 1199.05,-94.26 1183.18,-92.03"/>
<polygon fill="midnightblue" stroke="midnightblue" points="2128.72,-150.34 2138.8,-147.09 2128.9,-143.34 2128.72,-150.34"/>
</g>
<!-- Node31 -->
<g id="node31" class="node">
<title>Node31</title>
<g id="a_node31"><a xlink:href="../../d4/d90/fvupdater_8cpp.html" target="_top" xlink:title=" ">
<polygon fill="white" stroke="black" points="6513,-73 6513,-92 6666,-92 6666,-73 6513,-73"/>
<text text-anchor="middle" x="6589.5" y="-80" font-family="Helvetica,sans-Serif" font-size="10.00">src/libs/fervor/fvupdater.cpp</text>
</a>
</g>
</g>
<!-- Node30&#45;&gt;Node31 -->
<g id="edge30" class="edge">
<title>Node30&#45;&gt;Node31</title>
<path fill="none" stroke="midnightblue" d="M5428.3,-148.45C5636.77,-147.35 6109.46,-139.95 6504.5,-98 6518.05,-96.56 6532.7,-94.31 6545.97,-92.01"/>
<polygon fill="midnightblue" stroke="midnightblue" points="5428.25,-144.95 5418.27,-148.5 5428.29,-151.95 5428.25,-144.95"/>
</g>
<!-- Node32 -->
<g id="node32" class="node">
<title>Node32</title>
<g id="a_node32"><a xlink:href="../../d9/dc8/dxiface_8cpp.html" target="_top" xlink:title=" ">
<polygon fill="white" stroke="black" points="4864,-73 4864,-92 4999,-92 4999,-73 4864,-73"/>
<text text-anchor="middle" x="4931.5" y="-80" font-family="Helvetica,sans-Serif" font-size="10.00">src/libs/vdxf/dxiface.cpp</text>
</a>
</g>
</g>
<!-- Node30&#45;&gt;Node32 -->
<g id="edge31" class="edge">
<title>Node30&#45;&gt;Node32</title>
<path fill="none" stroke="midnightblue" d="M5254.98,-138.4C5191.79,-128.53 5093.49,-112.88 5008.5,-98 4997.91,-96.15 4986.53,-94.06 4975.85,-92.05"/>
<polygon fill="midnightblue" stroke="midnightblue" points="5254.78,-141.91 5265.2,-139.99 5255.85,-134.99 5254.78,-141.91"/>
</g>
<!-- Node33 -->
<g id="node33" class="node">
<title>Node33</title>
<g id="a_node33"><a xlink:href="../../da/d75/vabstractarc__p_8h.html" target="_top" xlink:title=" ">
<polygon fill="white" stroke="red" points="5017,-67.5 5017,-97.5 5124,-97.5 5124,-67.5 5017,-67.5"/>
<text text-anchor="start" x="5025" y="-85.5" font-family="Helvetica,sans-Serif" font-size="10.00">src/libs/vgeometry</text>
<text text-anchor="middle" x="5070.5" y="-74.5" font-family="Helvetica,sans-Serif" font-size="10.00">/vabstractarc_p.h</text>
</a>
</g>
</g>
<!-- Node30&#45;&gt;Node33 -->
<g id="edge32" class="edge">
<title>Node30&#45;&gt;Node33</title>
<path fill="none" stroke="midnightblue" d="M5277.81,-137.4C5235.33,-126.36 5170.04,-109.38 5124.1,-97.44"/>
<polygon fill="midnightblue" stroke="midnightblue" points="5277,-140.81 5287.56,-139.94 5278.76,-134.03 5277,-140.81"/>
</g>
<!-- Node35 -->
<g id="node34" class="node">
<title>Node35</title>
<g id="a_node34"><a xlink:href="../../dc/da3/varc__p_8h.html" target="_top" xlink:title=" ">
<polygon fill="white" stroke="red" points="5142,-67.5 5142,-97.5 5249,-97.5 5249,-67.5 5142,-67.5"/>
<text text-anchor="start" x="5150" y="-85.5" font-family="Helvetica,sans-Serif" font-size="10.00">src/libs/vgeometry</text>
<text text-anchor="middle" x="5195.5" y="-74.5" font-family="Helvetica,sans-Serif" font-size="10.00">/varc_p.h</text>
</a>
</g>
</g>
<!-- Node30&#45;&gt;Node35 -->
<g id="edge33" class="edge">
<title>Node30&#45;&gt;Node35</title>
<path fill="none" stroke="midnightblue" d="M5294.91,-135.19C5273.89,-124.26 5244.17,-108.81 5222.71,-97.65"/>
<polygon fill="midnightblue" stroke="midnightblue" points="5293.41,-138.36 5303.9,-139.87 5296.64,-132.15 5293.41,-138.36"/>
</g>
<!-- Node37 -->
<g id="node35" class="node">
<title>Node37</title>
<g id="a_node35"><a xlink:href="../../d5/d8e/vcubicbezier__p_8h.html" target="_top" xlink:title=" ">
<polygon fill="white" stroke="red" points="5267,-67.5 5267,-97.5 5374,-97.5 5374,-67.5 5267,-67.5"/>
<text text-anchor="start" x="5275" y="-85.5" font-family="Helvetica,sans-Serif" font-size="10.00">src/libs/vgeometry</text>
<text text-anchor="middle" x="5320.5" y="-74.5" font-family="Helvetica,sans-Serif" font-size="10.00">/vcubicbezier_p.h</text>
</a>
</g>
</g>
<!-- Node30&#45;&gt;Node37 -->
<g id="edge34" class="edge">
<title>Node30&#45;&gt;Node37</title>
<path fill="none" stroke="midnightblue" d="M5320.5,-129.41C5320.5,-119.22 5320.5,-106.9 5320.5,-97.59"/>
<polygon fill="midnightblue" stroke="midnightblue" points="5317,-129.73 5320.5,-139.73 5324,-129.73 5317,-129.73"/>
</g>
<!-- Node39 -->
<g id="node36" class="node">
<title>Node39</title>
<g id="a_node36"><a xlink:href="../../df/dde/vellipticalarc__p_8h.html" target="_top" xlink:title=" ">
<polygon fill="white" stroke="black" points="5431,-67.5 5431,-97.5 5538,-97.5 5538,-67.5 5431,-67.5"/>
<text text-anchor="start" x="5439" y="-85.5" font-family="Helvetica,sans-Serif" font-size="10.00">src/libs/vgeometry</text>
<text text-anchor="middle" x="5484.5" y="-74.5" font-family="Helvetica,sans-Serif" font-size="10.00">/vellipticalarc_p.h</text>
</a>
</g>
</g>
<!-- Node30&#45;&gt;Node39 -->
<g id="edge35" class="edge">
<title>Node30&#45;&gt;Node39</title>
<path fill="none" stroke="midnightblue" d="M5351.89,-136.06C5379.67,-125.05 5420.18,-108.99 5449.11,-97.53"/>
<polygon fill="midnightblue" stroke="midnightblue" points="5350.28,-132.93 5342.28,-139.87 5352.86,-139.44 5350.28,-132.93"/>
</g>
<!-- Node40 -->
<g id="node37" class="node">
<title>Node40</title>
<g id="a_node37"><a xlink:href="../../d6/dfb/vellipticalarc_8cpp.html" target="_top" xlink:title=" ">
<polygon fill="white" stroke="black" points="5390,-0.5 5390,-30.5 5497,-30.5 5497,-0.5 5390,-0.5"/>
<text text-anchor="start" x="5398" y="-18.5" font-family="Helvetica,sans-Serif" font-size="10.00">src/libs/vgeometry</text>
<text text-anchor="middle" x="5443.5" y="-7.5" font-family="Helvetica,sans-Serif" font-size="10.00">/vellipticalarc.cpp</text>
</a>
</g>
</g>
<!-- Node30&#45;&gt;Node40 -->
<g id="edge37" class="edge">
<title>Node30&#45;&gt;Node40</title>
<path fill="none" stroke="midnightblue" d="M5341.62,-133.75C5354.43,-124.29 5370.72,-111.31 5383.5,-98 5404.18,-76.45 5423.85,-47.58 5434.74,-30.62"/>
<polygon fill="midnightblue" stroke="midnightblue" points="5339.44,-131.01 5333.38,-139.7 5343.54,-136.68 5339.44,-131.01"/>
</g>
<!-- Node41 -->
<g id="node38" class="node">
<title>Node41</title>
<g id="a_node38"><a xlink:href="../../d1/d76/vspline__p_8h.html" target="_top" xlink:title=" ">
<polygon fill="white" stroke="red" points="5556,-67.5 5556,-97.5 5663,-97.5 5663,-67.5 5556,-67.5"/>
<text text-anchor="start" x="5564" y="-85.5" font-family="Helvetica,sans-Serif" font-size="10.00">src/libs/vgeometry</text>
<text text-anchor="middle" x="5609.5" y="-74.5" font-family="Helvetica,sans-Serif" font-size="10.00">/vspline_p.h</text>
</a>
</g>
</g>
<!-- Node30&#45;&gt;Node41 -->
<g id="edge38" class="edge">
<title>Node30&#45;&gt;Node41</title>
<path fill="none" stroke="midnightblue" d="M5369.49,-137.76C5415.49,-127.64 5486.21,-111.99 5547.5,-98 5550.19,-97.39 5552.95,-96.75 5555.74,-96.11"/>
<polygon fill="midnightblue" stroke="midnightblue" points="5368.51,-134.39 5359.49,-139.96 5370.01,-141.23 5368.51,-134.39"/>
</g>
<!-- Node44 -->
<g id="node39" class="node">
<title>Node44</title>
<g id="a_node39"><a xlink:href="../../dd/d70/vlayoutpiece_8cpp.html" target="_top" xlink:title=" ">
<polygon fill="white" stroke="black" points="4419,-73 4419,-92 4596,-92 4596,-73 4419,-73"/>
<text text-anchor="middle" x="4507.5" y="-80" font-family="Helvetica,sans-Serif" font-size="10.00">src/libs/vlayout/vlayoutpiece.cpp</text>
</a>
</g>
</g>
<!-- Node30&#45;&gt;Node44 -->
<g id="edge39" class="edge">
<title>Node30&#45;&gt;Node44</title>
<path fill="none" stroke="midnightblue" d="M5212.74,-139.97C5186.79,-137.97 5159.16,-135.87 5133.5,-134 4898.91,-116.91 4839.35,-123.23 4605.5,-98 4590.62,-96.39 4574.54,-94.21 4559.79,-92.02"/>
<polygon fill="midnightblue" stroke="midnightblue" points="5212.73,-143.48 5222.97,-140.77 5213.27,-136.5 5212.73,-143.48"/>
</g>
<!-- Node51 -->
<g id="node40" class="node">
<title>Node51</title>
<g id="a_node40"><a xlink:href="../../db/d11/vformula_8cpp.html" target="_top" xlink:title=" ">
<polygon fill="white" stroke="black" points="4614,-67.5 4614,-97.5 4721,-97.5 4721,-67.5 4614,-67.5"/>
<text text-anchor="start" x="4622" y="-85.5" font-family="Helvetica,sans-Serif" font-size="10.00">src/libs/vpatterndb</text>
<text text-anchor="middle" x="4667.5" y="-74.5" font-family="Helvetica,sans-Serif" font-size="10.00">/vformula.cpp</text>
</a>
</g>
</g>
<!-- Node30&#45;&gt;Node51 -->
<g id="edge40" class="edge">
<title>Node30&#45;&gt;Node51</title>
<path fill="none" stroke="midnightblue" d="M5225.04,-138.99C5207.25,-137.28 5188.81,-135.55 5171.5,-134 4975.63,-116.48 4924.83,-128.13 4730.5,-98 4727.39,-97.52 4724.21,-96.97 4721.01,-96.37"/>
<polygon fill="midnightblue" stroke="midnightblue" points="5225.13,-142.51 5235.42,-139.99 5225.81,-135.55 5225.13,-142.51"/>
</g>
<!-- Node53 -->
<g id="node41" class="node">
<title>Node53</title>
<g id="a_node41"><a xlink:href="../../df/dba/vpiecenode__p_8h.html" target="_top" xlink:title=" ">
<polygon fill="white" stroke="red" points="4739,-67.5 4739,-97.5 4846,-97.5 4846,-67.5 4739,-67.5"/>
<text text-anchor="start" x="4747" y="-85.5" font-family="Helvetica,sans-Serif" font-size="10.00">src/libs/vpatterndb</text>
<text text-anchor="middle" x="4792.5" y="-74.5" font-family="Helvetica,sans-Serif" font-size="10.00">/vpiecenode_p.h</text>
</a>
</g>
</g>
<!-- Node30&#45;&gt;Node53 -->
<g id="edge41" class="edge">
<title>Node30&#45;&gt;Node53</title>
<path fill="none" stroke="midnightblue" d="M5247.64,-138.68C5234.93,-137.05 5221.84,-135.43 5209.5,-134 5052.41,-115.76 5011.53,-123.79 4855.5,-98 4852.4,-97.49 4849.22,-96.91 4846.03,-96.3"/>
<polygon fill="midnightblue" stroke="midnightblue" points="5247.36,-142.17 5257.73,-139.98 5248.26,-135.23 5247.36,-142.17"/>
</g>
<!-- Node56 -->
<g id="node42" class="node">
<title>Node56</title>
<g id="a_node42"><a xlink:href="../../df/d40/export__format__combobox_8cpp.html" target="_top" xlink:title=" ">
<polygon fill="white" stroke="black" points="5681,-67.5 5681,-97.5 5814,-97.5 5814,-67.5 5681,-67.5"/>
<text text-anchor="start" x="5689" y="-85.5" font-family="Helvetica,sans-Serif" font-size="10.00">src/libs/vwidgets/export</text>
<text text-anchor="middle" x="5747.5" y="-74.5" font-family="Helvetica,sans-Serif" font-size="10.00">_format_combobox.cpp</text>
</a>
</g>
</g>
<!-- Node30&#45;&gt;Node56 -->
<g id="edge42" class="edge">
<title>Node30&#45;&gt;Node56</title>
<path fill="none" stroke="midnightblue" d="M5397.08,-138.6C5468.49,-129.11 5577.92,-113.92 5672.5,-98 5675.25,-97.54 5678.05,-97.05 5680.87,-96.55"/>
<polygon fill="midnightblue" stroke="midnightblue" points="5396.28,-135.18 5386.82,-139.96 5397.2,-142.12 5396.28,-135.18"/>
</g>
<!-- Node62 -->
<g id="node43" class="node">
<title>Node62</title>
<g id="a_node43"><a xlink:href="../../d1/d90/vgrainlineitem_8cpp.html" target="_top" xlink:title=" ">
<polygon fill="white" stroke="black" points="5832,-73 5832,-92 6025,-92 6025,-73 5832,-73"/>
<text text-anchor="middle" x="5928.5" y="-80" font-family="Helvetica,sans-Serif" font-size="10.00">src/libs/vwidgets/vgrainlineitem.cpp</text>
</a>
</g>
</g>
<!-- Node30&#45;&gt;Node62 -->
<g id="edge43" class="edge">
<title>Node30&#45;&gt;Node62</title>
<path fill="none" stroke="midnightblue" d="M5417.49,-138.96C5552.33,-125.66 5784.35,-102.67 5823.5,-98 5838.48,-96.21 5854.64,-94.08 5869.68,-92.01"/>
<polygon fill="midnightblue" stroke="midnightblue" points="5416.77,-135.51 5407.16,-139.98 5417.45,-142.48 5416.77,-135.51"/>
</g>
<!-- Node64 -->
<g id="node44" class="node">
<title>Node64</title>
<g id="a_node44"><a xlink:href="../../d1/d88/vmaingraphicsscene_8cpp.html" target="_top" xlink:title=" ">
<polygon fill="white" stroke="black" points="6043.5,-73 6043.5,-92 6265.5,-92 6265.5,-73 6043.5,-73"/>
<text text-anchor="middle" x="6154.5" y="-80" font-family="Helvetica,sans-Serif" font-size="10.00">src/libs/vwidgets/vmaingraphicsscene.cpp</text>
</a>
</g>
</g>
<!-- Node30&#45;&gt;Node64 -->
<g id="edge44" class="edge">
<title>Node30&#45;&gt;Node64</title>
<path fill="none" stroke="midnightblue" d="M5428.26,-139.97C5454.21,-137.97 5481.84,-135.87 5507.5,-134 5741.65,-116.93 5800.77,-120.09 6034.5,-98 6052.26,-96.32 6071.45,-94.16 6089.17,-92.02"/>
<polygon fill="midnightblue" stroke="midnightblue" points="5427.73,-136.51 5418.03,-140.77 5428.27,-143.48 5427.73,-136.51"/>
</g>
<!-- Node30&#45;&gt;Node66 -->
<g id="edge45" class="edge">
<title>Node30&#45;&gt;Node66</title>
<path fill="none" stroke="midnightblue" d="M5212.45,-141.28C5175.38,-138.87 5133.63,-136.23 5095.5,-134 4791.16,-116.2 4714.2,-124.61 4410.5,-98 4392.51,-96.42 4373.03,-94.23 4355.18,-92.03"/>
<polygon fill="midnightblue" stroke="midnightblue" points="5212.57,-144.79 5222.78,-141.95 5213.03,-137.81 5212.57,-144.79"/>
</g>
<!-- Node69 -->
<g id="node46" class="node">
<title>Node69</title>
<g id="a_node46"><a xlink:href="../../df/df5/vtextgraphicsitem_8cpp.html" target="_top" xlink:title=" ">
<polygon fill="white" stroke="black" points="6284,-73 6284,-92 6495,-92 6495,-73 6284,-73"/>
<text text-anchor="middle" x="6389.5" y="-80" font-family="Helvetica,sans-Serif" font-size="10.00">src/libs/vwidgets/vtextgraphicsitem.cpp</text>
</a>
</g>
</g>
<!-- Node30&#45;&gt;Node69 -->
<g id="edge46" class="edge">
<title>Node30&#45;&gt;Node69</title>
<path fill="none" stroke="midnightblue" d="M5428.27,-145.34C5605.2,-139.59 5968.22,-125.38 6274.5,-98 6292.14,-96.42 6311.24,-94.22 6328.71,-92"/>
<polygon fill="midnightblue" stroke="midnightblue" points="5428.06,-141.85 5418.17,-145.67 5428.28,-148.84 5428.06,-141.85"/>
</g>
<!-- Node39&#45;&gt;Node40 -->
<g id="edge36" class="edge">
<title>Node39&#45;&gt;Node40</title>
<path fill="none" stroke="midnightblue" d="M5470.22,-58.87C5464.29,-49.46 5457.59,-38.83 5452.38,-30.58"/>
<polygon fill="midnightblue" stroke="midnightblue" points="5467.31,-60.81 5475.6,-67.4 5473.23,-57.07 5467.31,-60.81"/>
</g>
<!-- Node71&#45;&gt;Node5 -->
<g id="edge55" class="edge">
<title>Node71&#45;&gt;Node5</title>
<path fill="none" stroke="midnightblue" d="M5335.2,-256.17C5254.01,-245.97 5128.4,-230.2 5051.32,-220.52"/>
<polygon fill="midnightblue" stroke="midnightblue" points="5335.01,-259.67 5345.37,-257.44 5335.88,-252.72 5335.01,-259.67"/>
</g>
<!-- Node71&#45;&gt;Node30 -->
<g id="edge52" class="edge">
<title>Node71&#45;&gt;Node30</title>
<path fill="none" stroke="midnightblue" d="M5400.21,-249.5C5380.21,-224.66 5343.06,-178.52 5327.57,-159.28"/>
<polygon fill="midnightblue" stroke="midnightblue" points="5397.51,-251.72 5406.51,-257.32 5402.96,-247.33 5397.51,-251.72"/>
</g>
<!-- Node71&#45;&gt;Node31 -->
<g id="edge50" class="edge">
<title>Node71&#45;&gt;Node31</title>
<path fill="none" stroke="midnightblue" d="M5515.58,-263.45C5636.32,-259.27 5843.07,-248.46 6018.5,-221 6230.05,-187.88 6478.76,-116.57 6561.31,-92.02"/>
<polygon fill="midnightblue" stroke="midnightblue" points="5515.13,-259.96 5505.25,-263.8 5515.36,-266.96 5515.13,-259.96"/>
</g>
<!-- Node71&#45;&gt;Node44 -->
<g id="edge51" class="edge">
<title>Node71&#45;&gt;Node44</title>
<path fill="none" stroke="midnightblue" d="M5348.84,-255.5C5312.11,-248.3 5265.76,-237.09 5226.5,-221 5181.86,-202.7 5172.96,-192.76 5133.5,-165 5115.67,-152.46 5115.75,-142.06 5095.5,-134 4994.06,-93.62 4714.02,-110 4605.5,-98 4590.71,-96.37 4574.73,-94.18 4560.05,-92"/>
<polygon fill="midnightblue" stroke="midnightblue" points="5348.46,-258.99 5358.93,-257.43 5349.77,-252.11 5348.46,-258.99"/>
</g>
<!-- Node71&#45;&gt;Node51 -->
<g id="edge56" class="edge">
<title>Node71&#45;&gt;Node51</title>
<path fill="none" stroke="midnightblue" d="M5371.57,-254.63C5343.59,-246.51 5306.26,-234.64 5274.5,-221 5226.62,-200.44 5214.76,-194.04 5171.5,-165 5153.4,-152.85 5153.69,-142.22 5133.5,-134 4966.95,-66.18 4908.09,-126.23 4730.5,-98 4727.4,-97.51 4724.22,-96.95 4721.02,-96.34"/>
<polygon fill="midnightblue" stroke="midnightblue" points="5370.84,-258.06 5381.42,-257.44 5372.77,-251.33 5370.84,-258.06"/>
</g>
<!-- Node71&#45;&gt;Node53 -->
<g id="edge57" class="edge">
<title>Node71&#45;&gt;Node53</title>
<path fill="none" stroke="midnightblue" d="M5385.08,-253.27C5345.78,-235.3 5273.07,-200.68 5214.5,-165 5194.38,-152.74 5193.47,-142.5 5171.5,-134 5039.66,-83.01 4994.82,-121.89 4855.5,-98 4852.4,-97.47 4849.23,-96.88 4846.03,-96.25"/>
<polygon fill="midnightblue" stroke="midnightblue" points="5383.77,-256.52 5394.32,-257.48 5386.66,-250.15 5383.77,-256.52"/>
</g>
<!-- Node71&#45;&gt;Node56 -->
<g id="edge58" class="edge">
<title>Node71&#45;&gt;Node56</title>
<path fill="none" stroke="midnightblue" d="M5415.82,-247.14C5420.47,-218.02 5433.74,-162.48 5469.5,-134 5541.18,-76.92 5582.4,-114.7 5672.5,-98 5675.24,-97.49 5678.03,-96.97 5680.85,-96.44"/>
<polygon fill="midnightblue" stroke="midnightblue" points="5412.33,-246.83 5414.4,-257.22 5419.26,-247.81 5412.33,-246.83"/>
</g>
<!-- Node71&#45;&gt;Node62 -->
<g id="edge59" class="edge">
<title>Node71&#45;&gt;Node62</title>
<path fill="none" stroke="midnightblue" d="M5423.52,-248.47C5442.55,-215.83 5484.11,-147.79 5507.5,-134 5568.38,-98.11 5753.38,-106.83 5823.5,-98 5838.11,-96.16 5853.84,-94.05 5868.56,-92.03"/>
<polygon fill="midnightblue" stroke="midnightblue" points="5420.35,-246.96 5418.38,-257.37 5426.41,-250.46 5420.35,-246.96"/>
</g>
<!-- Node71&#45;&gt;Node64 -->
<g id="edge60" class="edge">
<title>Node71&#45;&gt;Node64</title>
<path fill="none" stroke="midnightblue" d="M5435.61,-252.22C5460.3,-237.43 5501.87,-214.28 5540.5,-201 5644.42,-165.28 5968.12,-112.55 6098.88,-92.07"/>
<polygon fill="midnightblue" stroke="midnightblue" points="5433.75,-249.25 5427.02,-257.44 5437.38,-255.24 5433.75,-249.25"/>
</g>
<!-- Node71&#45;&gt;Node66 -->
<g id="edge61" class="edge">
<title>Node71&#45;&gt;Node66</title>
<path fill="none" stroke="midnightblue" d="M5338.86,-255.96C5292.85,-248.68 5232.99,-237.25 5181.5,-221 5091,-192.45 5078.66,-156.65 4986.5,-134 4737.42,-72.77 4665.91,-121.65 4410.5,-98 4392.83,-96.36 4373.71,-94.19 4356.11,-92.02"/>
<polygon fill="midnightblue" stroke="midnightblue" points="5338.34,-259.42 5348.76,-257.49 5339.42,-252.5 5338.34,-259.42"/>
</g>
<!-- Node71&#45;&gt;Node69 -->
<g id="edge62" class="edge">
<title>Node71&#45;&gt;Node69</title>
<path fill="none" stroke="midnightblue" d="M5515.4,-264.62C5626.36,-261.51 5808.57,-251.67 5962.5,-221 6122.9,-189.04 6307.48,-116.99 6368.63,-92.13"/>
<polygon fill="midnightblue" stroke="midnightblue" points="5515.12,-261.13 5505.22,-264.89 5515.31,-268.13 5515.12,-261.13"/>
</g>
<!-- Node72 -->
<g id="node49" class="node">
<title>Node72</title>
<g id="a_node49"><a xlink:href="../../d4/d11/vcommonsettings_8cpp.html" target="_top" xlink:title=" ">
<polygon fill="white" stroke="black" points="5549.5,-201.5 5549.5,-220.5 5743.5,-220.5 5743.5,-201.5 5549.5,-201.5"/>
<text text-anchor="middle" x="5646.5" y="-208.5" font-family="Helvetica,sans-Serif" font-size="10.00">src/libs/vmisc/vcommonsettings.cpp</text>
</a>
</g>
</g>
<!-- Node71&#45;&gt;Node72 -->
<g id="edge53" class="edge">
<title>Node71&#45;&gt;Node72</title>
<path fill="none" stroke="midnightblue" d="M5460.3,-255.15C5504.33,-244.95 5569.35,-229.88 5609.75,-220.52"/>
<polygon fill="midnightblue" stroke="midnightblue" points="5459.37,-251.78 5450.42,-257.44 5460.95,-258.6 5459.37,-251.78"/>
</g>
<!-- Node73 -->
<g id="node50" class="node">
<title>Node73</title>
<g id="a_node50"><a xlink:href="../../df/da4/vseamlymesettings_8h.html" target="_top" xlink:title=" ">
<polygon fill="white" stroke="red" points="5761.5,-201.5 5761.5,-220.5 5953.5,-220.5 5953.5,-201.5 5761.5,-201.5"/>
<text text-anchor="middle" x="5857.5" y="-208.5" font-family="Helvetica,sans-Serif" font-size="10.00">src/libs/vmisc/vseamlymesettings.h</text>
</a>
</g>
</g>
<!-- Node71&#45;&gt;Node73 -->
<g id="edge54" class="edge">
<title>Node71&#45;&gt;Node73</title>
<path fill="none" stroke="midnightblue" d="M5493.84,-256.23C5577.65,-246.04 5707.72,-230.22 5787.48,-220.52"/>
<polygon fill="midnightblue" stroke="midnightblue" points="5493.36,-252.76 5483.85,-257.44 5494.2,-259.71 5493.36,-252.76"/>
</g>
</g>
</svg>
