<?xml version="1.0" encoding="UTF-8" standalone="no"?>
<!DOCTYPE svg PUBLIC "-//W3C//DTD SVG 1.1//EN"
 "http://www.w3.org/Graphics/SVG/1.1/DTD/svg11.dtd">
<!-- Generated by graphviz version 2.43.0 (0)
 -->
<!-- Title: VVITConverter Pages: 1 -->
<!--zoomable 1820 -->

<svg id="main" version="1.1" xmlns="http://www.w3.org/2000/svg" xmlns:xlink="http://www.w3.org/1999/xlink" xml:space="preserve" onload="init(evt)">
<style type="text/css"><![CDATA[
.node, .edge {opacity: 0.7;}
.node.selected, .edge.selected {opacity: 1;}
.edge:hover path { stroke: red; }
.edge:hover polygon { stroke: red; fill: red; }
]]></style>

<defs>
  <circle id="rim" cx="0" cy="0" r="7"/>
  <circle id="rim2" cx="0" cy="0" r="3.5"/>
  <g id="zoomPlus">
    <use xlink:href="#rim" fill="#404040"><set attributeName="fill" to="#808080" begin="zoomplus.mouseover" end="zoomplus.mouseout"/></use>
    <path d="M-4,0h8M0,-4v8" fill="none" stroke="white" stroke-width="1.5" pointer-events="none"/>
  </g>
  <g id="zoomMin">
    <use xlink:href="#rim" fill="#404040"><set attributeName="fill" to="#808080" begin="zoomminus.mouseover" end="zoomminus.mouseout"/></use>
    <path d="M-4,0h8" fill="none" stroke="white" stroke-width="1.5" pointer-events="none"/>
  </g>
  <g id="arrowUp" transform="translate(30 24)">
    <use xlink:href="#rim"/>
    <path pointer-events="none" fill="none" stroke="white" stroke-width="1.5" d="M0,-3.0v7 M-2.5,-0.5L0,-3.0L2.5,-0.5"/>
  </g>
  <g id="arrowRight" transform="rotate(90) translate(36 -43)">
    <use xlink:href="#rim"/>
    <path pointer-events="none" fill="none" stroke="white" stroke-width="1.5" d="M0,-3.0v7 M-2.5,-0.5L0,-3.0L2.5,-0.5"/>
  </g>
  <g id="arrowDown" transform="rotate(180) translate(-30 -48)">
    <use xlink:href="#rim"/>
    <path pointer-events="none" fill="none" stroke="white" stroke-width="1.5" d="M0,-3.0v7 M-2.5,-0.5L0,-3.0L2.5,-0.5"/>
  </g>
  <g id="arrowLeft" transform="rotate(270) translate(-36 17)">
    <use xlink:href="#rim"/>
    <path pointer-events="none" fill="none" stroke="white" stroke-width="1.5" d="M0,-3.0v7 M-2.5,-0.5L0,-3.0L2.5,-0.5"/>
  </g>
  <g id="resetDef">
    <use xlink:href="#rim2" fill="#404040"><set attributeName="fill" to="#808080" begin="reset.mouseover" end="reset.mouseout"/></use>
  </g>
</defs>
<script type="application/ecmascript">
var viewWidth = 298;
var viewHeight = 1820;
var sectionId = 'dynsection-1';
</script>
<script type="application/ecmascript" xlink:href="../../svg.min.js"/>
<svg id="graph" class="graph">
<g id="viewport">
<title>VVITConverter</title>
<!-- Node1 -->
<g id="Node000001" class="node">
<title>Node1</title>
<g id="a_Node000001"><a xlink:title=" ">
<polygon fill="#999999" stroke="transparent" points="217,-431 29,-431 29,0 217,0 217,-431"/>
<text text-anchor="start" x="88" y="-418.5" font-family="Helvetica,sans-Serif" font-size="10.00">VVITConverter</text>
<text text-anchor="start" x="33" y="-403.5" font-family="Helvetica,sans-Serif" font-size="10.00">+</text>
<text text-anchor="start" x="46" y="-403.5" font-family="Helvetica,sans-Serif" font-size="10.00">MeasurementMaxVerStr</text>
<text text-anchor="start" x="33" y="-388.5" font-family="Helvetica,sans-Serif" font-size="10.00">+</text>
<text text-anchor="start" x="46" y="-388.5" font-family="Helvetica,sans-Serif" font-size="10.00">CurrentSchema</text>
<text text-anchor="start" x="33" y="-373.5" font-family="Helvetica,sans-Serif" font-size="10.00">+</text>
<text text-anchor="start" x="46" y="-373.5" font-family="Helvetica,sans-Serif" font-size="10.00">MeasurementMinVer</text>
<text text-anchor="start" x="33" y="-358.5" font-family="Helvetica,sans-Serif" font-size="10.00">+</text>
<text text-anchor="start" x="46" y="-358.5" font-family="Helvetica,sans-Serif" font-size="10.00">MeasurementMaxVer</text>
<text text-anchor="start" x="35.5" y="-343.5" font-family="Helvetica,sans-Serif" font-size="10.00">&#45;</text>
<text text-anchor="start" x="46" y="-343.5" font-family="Helvetica,sans-Serif" font-size="10.00">MeasurementMinVerStr</text>
<text text-anchor="start" x="33" y="-328.5" font-family="Helvetica,sans-Serif" font-size="10.00">+</text>
<text text-anchor="start" x="46" y="-328.5" font-family="Helvetica,sans-Serif" font-size="10.00">VVITConverter()</text>
<text text-anchor="start" x="33" y="-313.5" font-family="Helvetica,sans-Serif" font-size="10.00">+</text>
<text text-anchor="start" x="46" y="-313.5" font-family="Helvetica,sans-Serif" font-size="10.00">~VVITConverter()</text>
<text text-anchor="start" x="33" y="-298.5" font-family="Helvetica,sans-Serif" font-size="10.00">#</text>
<text text-anchor="start" x="46" y="-298.5" font-family="Helvetica,sans-Serif" font-size="10.00">MinVer()</text>
<text text-anchor="start" x="33" y="-283.5" font-family="Helvetica,sans-Serif" font-size="10.00">#</text>
<text text-anchor="start" x="46" y="-283.5" font-family="Helvetica,sans-Serif" font-size="10.00">MaxVer()</text>
<text text-anchor="start" x="33" y="-268.5" font-family="Helvetica,sans-Serif" font-size="10.00">#</text>
<text text-anchor="start" x="46" y="-268.5" font-family="Helvetica,sans-Serif" font-size="10.00">MinVerStr()</text>
<text text-anchor="start" x="33" y="-253.5" font-family="Helvetica,sans-Serif" font-size="10.00">#</text>
<text text-anchor="start" x="46" y="-253.5" font-family="Helvetica,sans-Serif" font-size="10.00">MaxVerStr()</text>
<text text-anchor="start" x="33" y="-238.5" font-family="Helvetica,sans-Serif" font-size="10.00">#</text>
<text text-anchor="start" x="46" y="-238.5" font-family="Helvetica,sans-Serif" font-size="10.00">XSDSchema()</text>
<text text-anchor="start" x="33" y="-223.5" font-family="Helvetica,sans-Serif" font-size="10.00">#</text>
<text text-anchor="start" x="46" y="-223.5" font-family="Helvetica,sans-Serif" font-size="10.00">ApplyPatches()</text>
<text text-anchor="start" x="33" y="-208.5" font-family="Helvetica,sans-Serif" font-size="10.00">#</text>
<text text-anchor="start" x="46" y="-208.5" font-family="Helvetica,sans-Serif" font-size="10.00">DowngradeToCurrentMaxVersion()</text>
<text text-anchor="start" x="33" y="-193.5" font-family="Helvetica,sans-Serif" font-size="10.00">#</text>
<text text-anchor="start" x="46" y="-193.5" font-family="Helvetica,sans-Serif" font-size="10.00">IsReadOnly()</text>
<text text-anchor="start" x="35.5" y="-178.5" font-family="Helvetica,sans-Serif" font-size="10.00">&#45;</text>
<text text-anchor="start" x="46" y="-178.5" font-family="Helvetica,sans-Serif" font-size="10.00">AddNewTagsForV0_3_0()</text>
<text text-anchor="start" x="35.5" y="-163.5" font-family="Helvetica,sans-Serif" font-size="10.00">&#45;</text>
<text text-anchor="start" x="46" y="-163.5" font-family="Helvetica,sans-Serif" font-size="10.00">MUnitV0_2_0()</text>
<text text-anchor="start" x="35.5" y="-148.5" font-family="Helvetica,sans-Serif" font-size="10.00">&#45;</text>
<text text-anchor="start" x="46" y="-148.5" font-family="Helvetica,sans-Serif" font-size="10.00">ConvertMeasurementsToV0</text>
<text text-anchor="start" x="46" y="-137.5" font-family="Helvetica,sans-Serif" font-size="10.00">_3_0()</text>
<text text-anchor="start" x="35.5" y="-122.5" font-family="Helvetica,sans-Serif" font-size="10.00">&#45;</text>
<text text-anchor="start" x="46" y="-122.5" font-family="Helvetica,sans-Serif" font-size="10.00">AddMV0_3_0()</text>
<text text-anchor="start" x="35.5" y="-107.5" font-family="Helvetica,sans-Serif" font-size="10.00">&#45;</text>
<text text-anchor="start" x="46" y="-107.5" font-family="Helvetica,sans-Serif" font-size="10.00">GenderV0_3_1()</text>
<text text-anchor="start" x="35.5" y="-92.5" font-family="Helvetica,sans-Serif" font-size="10.00">&#45;</text>
<text text-anchor="start" x="46" y="-92.5" font-family="Helvetica,sans-Serif" font-size="10.00">PM_SystemV0_3_2()</text>
<text text-anchor="start" x="35.5" y="-77.5" font-family="Helvetica,sans-Serif" font-size="10.00">&#45;</text>
<text text-anchor="start" x="46" y="-77.5" font-family="Helvetica,sans-Serif" font-size="10.00">ConvertMeasurementsToV0</text>
<text text-anchor="start" x="46" y="-66.5" font-family="Helvetica,sans-Serif" font-size="10.00">_3_3()</text>
<text text-anchor="start" x="35.5" y="-51.5" font-family="Helvetica,sans-Serif" font-size="10.00">&#45;</text>
<text text-anchor="start" x="46" y="-51.5" font-family="Helvetica,sans-Serif" font-size="10.00">ToV0_3_0()</text>
<text text-anchor="start" x="35.5" y="-36.5" font-family="Helvetica,sans-Serif" font-size="10.00">&#45;</text>
<text text-anchor="start" x="46" y="-36.5" font-family="Helvetica,sans-Serif" font-size="10.00">ToV0_3_1()</text>
<text text-anchor="start" x="35.5" y="-21.5" font-family="Helvetica,sans-Serif" font-size="10.00">&#45;</text>
<text text-anchor="start" x="46" y="-21.5" font-family="Helvetica,sans-Serif" font-size="10.00">ToV0_3_2()</text>
<text text-anchor="start" x="35.5" y="-6.5" font-family="Helvetica,sans-Serif" font-size="10.00">&#45;</text>
<text text-anchor="start" x="46" y="-6.5" font-family="Helvetica,sans-Serif" font-size="10.00">ToV0_3_3()</text>
<polygon fill="#666666" stroke="#666666" points="29,-413.5 29,-413.5 217,-413.5 217,-413.5 29,-413.5"/>
<polygon fill="#666666" stroke="#666666" points="29,-338.5 29,-338.5 44,-338.5 44,-338.5 29,-338.5"/>
<polygon fill="#666666" stroke="#666666" points="44,-338.5 44,-338.5 217,-338.5 217,-338.5 44,-338.5"/>
<polygon fill="none" stroke="#666666" points="29,0 29,-431 217,-431 217,0 29,0"/>
</a>
</g>
</g>
<!-- Node2 -->
<g id="Node000002" class="node">
<title>Node2</title>
<g id="a_Node000002"><a xlink:href="../../d8/d87/classVAbstractMConverter.html" target="_top" xlink:title=" ">
<polygon fill="white" stroke="transparent" points="193.5,-599 52.5,-599 52.5,-468 193.5,-468 193.5,-599"/>
<text text-anchor="start" x="71.5" y="-586.5" font-family="Helvetica,sans-Serif" font-size="10.00">VAbstractMConverter</text>
<text text-anchor="start" x="121.5" y="-571.5" font-family="Helvetica,sans-Serif" font-size="10.00"> </text>
<text text-anchor="start" x="57" y="-556.5" font-family="Helvetica,sans-Serif" font-size="10.00">+</text>
<text text-anchor="start" x="70" y="-556.5" font-family="Helvetica,sans-Serif" font-size="10.00">VAbstractMConverter()</text>
<text text-anchor="start" x="57" y="-541.5" font-family="Helvetica,sans-Serif" font-size="10.00">+</text>
<text text-anchor="start" x="70" y="-541.5" font-family="Helvetica,sans-Serif" font-size="10.00">~VAbstractMConverter()</text>
<text text-anchor="start" x="57" y="-526.5" font-family="Helvetica,sans-Serif" font-size="10.00">#</text>
<text text-anchor="start" x="70" y="-526.5" font-family="Helvetica,sans-Serif" font-size="10.00">AddRootComment()</text>
<text text-anchor="start" x="57" y="-511.5" font-family="Helvetica,sans-Serif" font-size="10.00">#</text>
<text text-anchor="start" x="70" y="-511.5" font-family="Helvetica,sans-Serif" font-size="10.00">OldNamesToNewNames</text>
<text text-anchor="start" x="70" y="-500.5" font-family="Helvetica,sans-Serif" font-size="10.00">_InV0_3_0()</text>
<text text-anchor="start" x="57" y="-485.5" font-family="Helvetica,sans-Serif" font-size="10.00">#</text>
<text text-anchor="start" x="70" y="-485.5" font-family="Helvetica,sans-Serif" font-size="10.00">OldNamesToNewNames</text>
<text text-anchor="start" x="70" y="-474.5" font-family="Helvetica,sans-Serif" font-size="10.00">_InV0_3_3()</text>
<polygon fill="#666666" stroke="#666666" points="53,-581.5 53,-581.5 194,-581.5 194,-581.5 53,-581.5"/>
<polygon fill="#666666" stroke="#666666" points="53,-566.5 53,-566.5 194,-566.5 194,-566.5 53,-566.5"/>
<polygon fill="none" stroke="#666666" points="52.5,-468 52.5,-599 193.5,-599 193.5,-468 52.5,-468"/>
</a>
</g>
</g>
<!-- Node2&#45;&gt;Node1 -->
<g id="edge1_Node000001_Node000002" class="edge">
<title>Node2&#45;&gt;Node1</title>
<g id="a_edge1_Node000001_Node000002"><a xlink:title=" ">
<path fill="none" stroke="#63b8ff" d="M123,-457.68C123,-449.21 123,-440.29 123,-431.07"/>
<polygon fill="none" stroke="#63b8ff" points="119.5,-457.79 123,-467.79 126.5,-457.79 119.5,-457.79"/>
</a>
</g>
</g>
<!-- Node3 -->
<g id="Node000003" class="node">
<title>Node3</title>
<g id="a_Node000003"><a xlink:href="../../dc/d68/classVAbstractConverter.html" target="_top" xlink:title=" ">
<polygon fill="white" stroke="transparent" points="217,-1075 29,-1075 29,-636 217,-636 217,-1075"/>
<text text-anchor="start" x="75.5" y="-1062.5" font-family="Helvetica,sans-Serif" font-size="10.00">VAbstractConverter</text>
<text text-anchor="start" x="33" y="-1047.5" font-family="Helvetica,sans-Serif" font-size="10.00">#</text>
<text text-anchor="start" x="46" y="-1047.5" font-family="Helvetica,sans-Serif" font-size="10.00">m_ver</text>
<text text-anchor="start" x="33" y="-1032.5" font-family="Helvetica,sans-Serif" font-size="10.00">#</text>
<text text-anchor="start" x="46" y="-1032.5" font-family="Helvetica,sans-Serif" font-size="10.00">m_convertedFileName</text>
<text text-anchor="start" x="35.5" y="-1017.5" font-family="Helvetica,sans-Serif" font-size="10.00">&#45;</text>
<text text-anchor="start" x="46" y="-1017.5" font-family="Helvetica,sans-Serif" font-size="10.00">m_tmpFile</text>
<text text-anchor="start" x="33" y="-1002.5" font-family="Helvetica,sans-Serif" font-size="10.00">+</text>
<text text-anchor="start" x="46" y="-1002.5" font-family="Helvetica,sans-Serif" font-size="10.00">VAbstractConverter()</text>
<text text-anchor="start" x="33" y="-987.5" font-family="Helvetica,sans-Serif" font-size="10.00">+</text>
<text text-anchor="start" x="46" y="-987.5" font-family="Helvetica,sans-Serif" font-size="10.00">~VAbstractConverter()</text>
<text text-anchor="start" x="33" y="-972.5" font-family="Helvetica,sans-Serif" font-size="10.00">+</text>
<text text-anchor="start" x="46" y="-972.5" font-family="Helvetica,sans-Serif" font-size="10.00">Convert()</text>
<text text-anchor="start" x="33" y="-957.5" font-family="Helvetica,sans-Serif" font-size="10.00">+</text>
<text text-anchor="start" x="46" y="-957.5" font-family="Helvetica,sans-Serif" font-size="10.00">GetCurrentFormatVarsion()</text>
<text text-anchor="start" x="33" y="-942.5" font-family="Helvetica,sans-Serif" font-size="10.00">+</text>
<text text-anchor="start" x="46" y="-942.5" font-family="Helvetica,sans-Serif" font-size="10.00">GetVersionStr()</text>
<text text-anchor="start" x="33" y="-927.5" font-family="Helvetica,sans-Serif" font-size="10.00">+</text>
<text text-anchor="start" x="46" y="-927.5" font-family="Helvetica,sans-Serif" font-size="10.00">GetVersion()</text>
<text text-anchor="start" x="33" y="-912.5" font-family="Helvetica,sans-Serif" font-size="10.00">#</text>
<text text-anchor="start" x="46" y="-912.5" font-family="Helvetica,sans-Serif" font-size="10.00">ValidateInputFile()</text>
<text text-anchor="start" x="33" y="-897.5" font-family="Helvetica,sans-Serif" font-size="10.00">#</text>
<text text-anchor="start" x="46" y="-897.5" font-family="Helvetica,sans-Serif" font-size="10.00">InvalidVersion()</text>
<text text-anchor="start" x="33" y="-882.5" font-family="Helvetica,sans-Serif" font-size="10.00">#</text>
<text text-anchor="start" x="46" y="-882.5" font-family="Helvetica,sans-Serif" font-size="10.00">Save()</text>
<text text-anchor="start" x="33" y="-867.5" font-family="Helvetica,sans-Serif" font-size="10.00">#</text>
<text text-anchor="start" x="46" y="-867.5" font-family="Helvetica,sans-Serif" font-size="10.00">SetVersion()</text>
<text text-anchor="start" x="33" y="-852.5" font-family="Helvetica,sans-Serif" font-size="10.00">#</text>
<text text-anchor="start" x="46" y="-852.5" font-family="Helvetica,sans-Serif" font-size="10.00">MinVer()</text>
<text text-anchor="start" x="33" y="-837.5" font-family="Helvetica,sans-Serif" font-size="10.00">#</text>
<text text-anchor="start" x="46" y="-837.5" font-family="Helvetica,sans-Serif" font-size="10.00">MaxVer()</text>
<text text-anchor="start" x="33" y="-822.5" font-family="Helvetica,sans-Serif" font-size="10.00">#</text>
<text text-anchor="start" x="46" y="-822.5" font-family="Helvetica,sans-Serif" font-size="10.00">MinVerStr()</text>
<text text-anchor="start" x="33" y="-807.5" font-family="Helvetica,sans-Serif" font-size="10.00">#</text>
<text text-anchor="start" x="46" y="-807.5" font-family="Helvetica,sans-Serif" font-size="10.00">MaxVerStr()</text>
<text text-anchor="start" x="33" y="-792.5" font-family="Helvetica,sans-Serif" font-size="10.00">#</text>
<text text-anchor="start" x="46" y="-792.5" font-family="Helvetica,sans-Serif" font-size="10.00">XSDSchema()</text>
<text text-anchor="start" x="33" y="-777.5" font-family="Helvetica,sans-Serif" font-size="10.00">#</text>
<text text-anchor="start" x="46" y="-777.5" font-family="Helvetica,sans-Serif" font-size="10.00">ApplyPatches()</text>
<text text-anchor="start" x="33" y="-762.5" font-family="Helvetica,sans-Serif" font-size="10.00">#</text>
<text text-anchor="start" x="46" y="-762.5" font-family="Helvetica,sans-Serif" font-size="10.00">DowngradeToCurrentMaxVersion()</text>
<text text-anchor="start" x="33" y="-747.5" font-family="Helvetica,sans-Serif" font-size="10.00">#</text>
<text text-anchor="start" x="46" y="-747.5" font-family="Helvetica,sans-Serif" font-size="10.00">IsReadOnly()</text>
<text text-anchor="start" x="33" y="-732.5" font-family="Helvetica,sans-Serif" font-size="10.00">#</text>
<text text-anchor="start" x="46" y="-732.5" font-family="Helvetica,sans-Serif" font-size="10.00">Replace()</text>
<text text-anchor="start" x="33" y="-717.5" font-family="Helvetica,sans-Serif" font-size="10.00">#</text>
<text text-anchor="start" x="46" y="-717.5" font-family="Helvetica,sans-Serif" font-size="10.00">CorrectionsPositions()</text>
<text text-anchor="start" x="33" y="-702.5" font-family="Helvetica,sans-Serif" font-size="10.00">#</text>
<text text-anchor="start" x="46" y="-702.5" font-family="Helvetica,sans-Serif" font-size="10.00">BiasTokens()</text>
<text text-anchor="start" x="35.5" y="-687.5" font-family="Helvetica,sans-Serif" font-size="10.00">&#45;</text>
<text text-anchor="start" x="46" y="-687.5" font-family="Helvetica,sans-Serif" font-size="10.00">ReserveFile()</text>
<text text-anchor="start" x="35.5" y="-672.5" font-family="Helvetica,sans-Serif" font-size="10.00">&#45;</text>
<text text-anchor="start" x="46" y="-672.5" font-family="Helvetica,sans-Serif" font-size="10.00">ValidateVersion()</text>
<text text-anchor="start" x="35.5" y="-657.5" font-family="Helvetica,sans-Serif" font-size="10.00">&#45;</text>
<text text-anchor="start" x="46" y="-657.5" font-family="Helvetica,sans-Serif" font-size="10.00">removeVersionNumber()</text>
<text text-anchor="start" x="35.5" y="-642.5" font-family="Helvetica,sans-Serif" font-size="10.00">&#45;</text>
<text text-anchor="start" x="46" y="-642.5" font-family="Helvetica,sans-Serif" font-size="10.00">removeBakExtension()</text>
<polygon fill="#666666" stroke="#666666" points="29,-1057.5 29,-1057.5 217,-1057.5 217,-1057.5 29,-1057.5"/>
<polygon fill="#666666" stroke="#666666" points="29,-1012.5 29,-1012.5 44,-1012.5 44,-1012.5 29,-1012.5"/>
<polygon fill="#666666" stroke="#666666" points="44,-1012.5 44,-1012.5 217,-1012.5 217,-1012.5 44,-1012.5"/>
<polygon fill="none" stroke="#666666" points="29,-636 29,-1075 217,-1075 217,-636 29,-636"/>
</a>
</g>
</g>
<!-- Node3&#45;&gt;Node2 -->
<g id="edge2_Node000002_Node000003" class="edge">
<title>Node3&#45;&gt;Node2</title>
<g id="a_edge2_Node000002_Node000003"><a xlink:title=" ">
<path fill="none" stroke="#63b8ff" d="M123,-625.55C123,-616.29 123,-607.4 123,-599.06"/>
<polygon fill="none" stroke="#63b8ff" points="119.5,-625.75 123,-635.75 126.5,-625.75 119.5,-625.75"/>
</a>
</g>
</g>
<!-- Node4 -->
<g id="Node000004" class="node">
<title>Node4</title>
<g id="a_Node000004"><a xlink:href="../../d6/deb/classVDomDocument.html" target="_top" xlink:title="The VDomDocument class represents a Seamly2D document (.val file).">
<polygon fill="white" stroke="transparent" points="198.5,-1716 47.5,-1716 47.5,-1112 198.5,-1112 198.5,-1716"/>
<text text-anchor="start" x="83" y="-1704" font-family="Helvetica,sans-Serif" font-size="10.00">VDomDocument</text>
<text text-anchor="start" x="52" y="-1689" font-family="Helvetica,sans-Serif" font-size="10.00">+</text>
<text text-anchor="start" x="65" y="-1689" font-family="Helvetica,sans-Serif" font-size="10.00">AttrId</text>
<text text-anchor="start" x="52" y="-1674" font-family="Helvetica,sans-Serif" font-size="10.00">+</text>
<text text-anchor="start" x="65" y="-1674" font-family="Helvetica,sans-Serif" font-size="10.00">AttrText</text>
<text text-anchor="start" x="52" y="-1659" font-family="Helvetica,sans-Serif" font-size="10.00">+</text>
<text text-anchor="start" x="65" y="-1659" font-family="Helvetica,sans-Serif" font-size="10.00">AttrBold</text>
<text text-anchor="start" x="52" y="-1644" font-family="Helvetica,sans-Serif" font-size="10.00">+</text>
<text text-anchor="start" x="65" y="-1644" font-family="Helvetica,sans-Serif" font-size="10.00">AttrItalic</text>
<text text-anchor="start" x="52" y="-1629" font-family="Helvetica,sans-Serif" font-size="10.00">+</text>
<text text-anchor="start" x="65" y="-1629" font-family="Helvetica,sans-Serif" font-size="10.00">AttrAlignment</text>
<text text-anchor="start" x="52" y="-1614" font-family="Helvetica,sans-Serif" font-size="10.00">+</text>
<text text-anchor="start" x="65" y="-1614" font-family="Helvetica,sans-Serif" font-size="10.00">AttrFSIncrement</text>
<text text-anchor="start" x="52" y="-1599" font-family="Helvetica,sans-Serif" font-size="10.00">+</text>
<text text-anchor="start" x="65" y="-1599" font-family="Helvetica,sans-Serif" font-size="10.00">TagVersion</text>
<text text-anchor="start" x="52" y="-1584" font-family="Helvetica,sans-Serif" font-size="10.00">+</text>
<text text-anchor="start" x="65" y="-1584" font-family="Helvetica,sans-Serif" font-size="10.00">TagUnit</text>
<text text-anchor="start" x="52" y="-1569" font-family="Helvetica,sans-Serif" font-size="10.00">+</text>
<text text-anchor="start" x="65" y="-1569" font-family="Helvetica,sans-Serif" font-size="10.00">TagLine</text>
<text text-anchor="start" x="52" y="-1554" font-family="Helvetica,sans-Serif" font-size="10.00">+</text>
<text text-anchor="start" x="65" y="-1554" font-family="Helvetica,sans-Serif" font-size="10.00">VDomDocument()</text>
<text text-anchor="start" x="52" y="-1539" font-family="Helvetica,sans-Serif" font-size="10.00">+</text>
<text text-anchor="start" x="65" y="-1539" font-family="Helvetica,sans-Serif" font-size="10.00">~VDomDocument()</text>
<text text-anchor="start" x="52" y="-1524" font-family="Helvetica,sans-Serif" font-size="10.00">+</text>
<text text-anchor="start" x="65" y="-1524" font-family="Helvetica,sans-Serif" font-size="10.00">elementById()</text>
<text text-anchor="start" x="52" y="-1509" font-family="Helvetica,sans-Serif" font-size="10.00">+</text>
<text text-anchor="start" x="65" y="-1509" font-family="Helvetica,sans-Serif" font-size="10.00">SetAttribute()</text>
<text text-anchor="start" x="52" y="-1494" font-family="Helvetica,sans-Serif" font-size="10.00">+</text>
<text text-anchor="start" x="65" y="-1494" font-family="Helvetica,sans-Serif" font-size="10.00">MUnit()</text>
<text text-anchor="start" x="52" y="-1479" font-family="Helvetica,sans-Serif" font-size="10.00">+</text>
<text text-anchor="start" x="65" y="-1479" font-family="Helvetica,sans-Serif" font-size="10.00">setXMLContent()</text>
<text text-anchor="start" x="52" y="-1464" font-family="Helvetica,sans-Serif" font-size="10.00">+</text>
<text text-anchor="start" x="65" y="-1464" font-family="Helvetica,sans-Serif" font-size="10.00">SaveDocument()</text>
<text text-anchor="start" x="52" y="-1449" font-family="Helvetica,sans-Serif" font-size="10.00">+</text>
<text text-anchor="start" x="65" y="-1449" font-family="Helvetica,sans-Serif" font-size="10.00">Major()</text>
<text text-anchor="start" x="52" y="-1434" font-family="Helvetica,sans-Serif" font-size="10.00">+</text>
<text text-anchor="start" x="65" y="-1434" font-family="Helvetica,sans-Serif" font-size="10.00">Minor()</text>
<text text-anchor="start" x="52" y="-1419" font-family="Helvetica,sans-Serif" font-size="10.00">+</text>
<text text-anchor="start" x="65" y="-1419" font-family="Helvetica,sans-Serif" font-size="10.00">Patch()</text>
<text text-anchor="start" x="65" y="-1404" font-family="Helvetica,sans-Serif" font-size="10.00">and 8 more...</text>
<text text-anchor="start" x="52" y="-1389" font-family="Helvetica,sans-Serif" font-size="10.00">+</text>
<text text-anchor="start" x="65" y="-1389" font-family="Helvetica,sans-Serif" font-size="10.00">GetParametrUInt()</text>
<text text-anchor="start" x="52" y="-1374" font-family="Helvetica,sans-Serif" font-size="10.00">+</text>
<text text-anchor="start" x="65" y="-1374" font-family="Helvetica,sans-Serif" font-size="10.00">getParameterBool()</text>
<text text-anchor="start" x="52" y="-1359" font-family="Helvetica,sans-Serif" font-size="10.00">+</text>
<text text-anchor="start" x="65" y="-1359" font-family="Helvetica,sans-Serif" font-size="10.00">GetParametrUsage()</text>
<text text-anchor="start" x="52" y="-1344" font-family="Helvetica,sans-Serif" font-size="10.00">+</text>
<text text-anchor="start" x="65" y="-1344" font-family="Helvetica,sans-Serif" font-size="10.00">SetParametrUsage()</text>
<text text-anchor="start" x="52" y="-1329" font-family="Helvetica,sans-Serif" font-size="10.00">+</text>
<text text-anchor="start" x="65" y="-1329" font-family="Helvetica,sans-Serif" font-size="10.00">GetParametrString()</text>
<text text-anchor="start" x="52" y="-1314" font-family="Helvetica,sans-Serif" font-size="10.00">+</text>
<text text-anchor="start" x="65" y="-1314" font-family="Helvetica,sans-Serif" font-size="10.00">GetParametrEmptyString()</text>
<text text-anchor="start" x="52" y="-1299" font-family="Helvetica,sans-Serif" font-size="10.00">+</text>
<text text-anchor="start" x="65" y="-1299" font-family="Helvetica,sans-Serif" font-size="10.00">GetParametrDouble()</text>
<text text-anchor="start" x="52" y="-1284" font-family="Helvetica,sans-Serif" font-size="10.00">+</text>
<text text-anchor="start" x="65" y="-1284" font-family="Helvetica,sans-Serif" font-size="10.00">getParameterId()</text>
<text text-anchor="start" x="52" y="-1269" font-family="Helvetica,sans-Serif" font-size="10.00">+</text>
<text text-anchor="start" x="65" y="-1269" font-family="Helvetica,sans-Serif" font-size="10.00">ValidateXML()</text>
<text text-anchor="start" x="52" y="-1254" font-family="Helvetica,sans-Serif" font-size="10.00">+</text>
<text text-anchor="start" x="65" y="-1254" font-family="Helvetica,sans-Serif" font-size="10.00">UnitsHelpString()</text>
<text text-anchor="start" x="52" y="-1239" font-family="Helvetica,sans-Serif" font-size="10.00">+</text>
<text text-anchor="start" x="65" y="-1239" font-family="Helvetica,sans-Serif" font-size="10.00">RemoveAllChildren()</text>
<text text-anchor="start" x="52" y="-1224" font-family="Helvetica,sans-Serif" font-size="10.00">+</text>
<text text-anchor="start" x="65" y="-1224" font-family="Helvetica,sans-Serif" font-size="10.00">SafeCopy()</text>
<text text-anchor="start" x="52" y="-1209" font-family="Helvetica,sans-Serif" font-size="10.00">#</text>
<text text-anchor="start" x="65" y="-1209" font-family="Helvetica,sans-Serif" font-size="10.00">setTagText()</text>
<text text-anchor="start" x="52" y="-1194" font-family="Helvetica,sans-Serif" font-size="10.00">#</text>
<text text-anchor="start" x="65" y="-1194" font-family="Helvetica,sans-Serif" font-size="10.00">setTagText()</text>
<text text-anchor="start" x="52" y="-1179" font-family="Helvetica,sans-Serif" font-size="10.00">#</text>
<text text-anchor="start" x="65" y="-1179" font-family="Helvetica,sans-Serif" font-size="10.00">UniqueTagText()</text>
<text text-anchor="start" x="52" y="-1164" font-family="Helvetica,sans-Serif" font-size="10.00">#</text>
<text text-anchor="start" x="65" y="-1164" font-family="Helvetica,sans-Serif" font-size="10.00">TestUniqueId()</text>
<text text-anchor="start" x="52" y="-1149" font-family="Helvetica,sans-Serif" font-size="10.00">#</text>
<text text-anchor="start" x="65" y="-1149" font-family="Helvetica,sans-Serif" font-size="10.00">CollectId()</text>
<text text-anchor="start" x="54.5" y="-1134" font-family="Helvetica,sans-Serif" font-size="10.00">&#45;</text>
<text text-anchor="start" x="65" y="-1134" font-family="Helvetica,sans-Serif" font-size="10.00">find()</text>
<text text-anchor="start" x="54.5" y="-1119" font-family="Helvetica,sans-Serif" font-size="10.00">&#45;</text>
<text text-anchor="start" x="65" y="-1119" font-family="Helvetica,sans-Serif" font-size="10.00">SaveCanonicalXML()</text>
<polygon fill="#666666" stroke="#666666" points="48,-1699 48,-1699 199,-1699 199,-1699 48,-1699"/>
<polygon fill="#666666" stroke="#666666" points="48,-1564 48,-1564 63,-1564 63,-1564 48,-1564"/>
<polygon fill="#666666" stroke="#666666" points="63,-1564 63,-1564 199,-1564 199,-1564 63,-1564"/>
<polygon fill="none" stroke="#666666" points="47.5,-1112 47.5,-1716 198.5,-1716 198.5,-1112 47.5,-1112"/>
</a>
</g>
</g>
<!-- Node4&#45;&gt;Node3 -->
<g id="edge3_Node000003_Node000004" class="edge">
<title>Node4&#45;&gt;Node3</title>
<g id="a_edge3_Node000003_Node000004"><a xlink:title=" ">
<path fill="none" stroke="#63b8ff" d="M123,-1101.88C123,-1092.98 123,-1084.12 123,-1075.35"/>
<polygon fill="none" stroke="#63b8ff" points="119.5,-1101.95 123,-1111.95 126.5,-1101.95 119.5,-1101.95"/>
</a>
</g>
</g>
<!-- Node5 -->
<g id="Node000005" class="node">
<title>Node5</title>
<g id="a_Node000005"><a xlink:title=" ">
<polygon fill="white" stroke="transparent" points="92,-1812 0,-1812 0,-1763 92,-1763 92,-1812"/>
<text text-anchor="start" x="5" y="-1799.5" font-family="Helvetica,sans-Serif" font-size="10.00">QDomDocument</text>
<text text-anchor="start" x="44" y="-1784.5" font-family="Helvetica,sans-Serif" font-size="10.00"> </text>
<text text-anchor="start" x="44" y="-1769.5" font-family="Helvetica,sans-Serif" font-size="10.00"> </text>
<polygon fill="#666666" stroke="#666666" points="0,-1794.5 0,-1794.5 92,-1794.5 92,-1794.5 0,-1794.5"/>
<polygon fill="#666666" stroke="#666666" points="0,-1779.5 0,-1779.5 92,-1779.5 92,-1779.5 0,-1779.5"/>
<polygon fill="none" stroke="#666666" points="0,-1763 0,-1812 92,-1812 92,-1763 0,-1763"/>
</a>
</g>
</g>
<!-- Node5&#45;&gt;Node4 -->
<g id="edge4_Node000004_Node000005" class="edge">
<title>Node5&#45;&gt;Node4</title>
<g id="a_edge4_Node000004_Node000005"><a xlink:title=" ">
<path fill="none" stroke="#63b8ff" d="M52.97,-1752.89C55.12,-1742.49 57.69,-1730.08 60.56,-1716.25"/>
<polygon fill="none" stroke="#63b8ff" points="49.48,-1752.48 50.88,-1762.98 56.33,-1753.9 49.48,-1752.48"/>
</a>
</g>
</g>
<!-- Node6 -->
<g id="Node000006" class="node">
<title>Node6</title>
<g id="a_Node000006"><a xlink:href="../../da/da1/classQHash.html" target="_top" xlink:title=" ">
<polygon fill="white" stroke="transparent" points="289.5,-1812 110.5,-1812 110.5,-1763 289.5,-1763 289.5,-1812"/>
<text text-anchor="start" x="116" y="-1799.5" font-family="Helvetica,sans-Serif" font-size="10.00">QHash&lt; quint32, QDomElement &gt;</text>
<text text-anchor="start" x="198.5" y="-1784.5" font-family="Helvetica,sans-Serif" font-size="10.00"> </text>
<text text-anchor="start" x="198.5" y="-1769.5" font-family="Helvetica,sans-Serif" font-size="10.00"> </text>
<polygon fill="#666666" stroke="#666666" points="111,-1794.5 111,-1794.5 290,-1794.5 290,-1794.5 111,-1794.5"/>
<polygon fill="#666666" stroke="#666666" points="111,-1779.5 111,-1779.5 290,-1779.5 290,-1779.5 111,-1779.5"/>
<polygon fill="none" stroke="#666666" points="110.5,-1763 110.5,-1812 289.5,-1812 289.5,-1763 110.5,-1763"/>
</a>
</g>
</g>
<!-- Node6&#45;&gt;Node4 -->
<g id="edge5_Node000004_Node000006" class="edge">
<title>Node6&#45;&gt;Node4</title>
<g id="a_edge5_Node000004_Node000006"><a xlink:title=" ">
<path fill="none" stroke="#63b8ff" d="M195.12,-1762.98C193.17,-1753.57 190.72,-1741.71 187.89,-1728.09"/>
<polygon fill="none" stroke="#63b8ff" points="187.88,-1728 182.74,-1722.94 185.44,-1716.25 190.57,-1721.32 187.88,-1728"/>
</a>
</g>
<text text-anchor="middle" x="204.5" y="-1737" font-family="Helvetica,sans-Serif" font-size="10.00" fill="grey"> &#45;map</text>
</g>
</g>
</svg>

<g id="navigator" transform="translate(0 0)" fill="#404254">
  <rect fill="#f2f5e9" fill-opacity="0.5" stroke="#606060" stroke-width=".5" x="0" y="0" width="60" height="60"/>
  <use id="zoomplus" xlink:href="#zoomPlus" x="17" y="9" onmousedown="handleZoom(evt,'in')"/>
  <use id="zoomminus" xlink:href="#zoomMin" x="42" y="9" onmousedown="handleZoom(evt,'out')"/>
  <use id="reset" xlink:href="#resetDef" x="30" y="36" onmousedown="handleReset()"/>
   <use id="arrowup" xlink:href="#arrowUp" x="0" y="0" onmousedown="handlePan(0,-1)"/>
  <use id="arrowright" xlink:href="#arrowRight" x="0" y="0" onmousedown="handlePan(1,0)"/>
  <use id="arrowdown" xlink:href="#arrowDown" x="0" y="0" onmousedown="handlePan(0,1)"/>
  <use id="arrowleft" xlink:href="#arrowLeft" x="0" y="0" onmousedown="handlePan(-1,0)"/>
</g>
<svg viewBox="0 0 15 15" width="100%" height="30px" preserveAspectRatio="xMaxYMin meet">
 <g id="arrow_out" transform="scale(0.3 0.3)">
  <a xlink:href="classVVITConverter__coll__graph_org.svg" target="_base">
   <rect id="button" ry="5" rx="5" y="6" x="6" height="38" width="38"
        fill="#f2f5e9" fill-opacity="0.5" stroke="#606060" stroke-width="1.0"/>
   <path id="arrow"
     d="M 11.500037,31.436501 C 11.940474,20.09759 22.043105,11.32322 32.158766,21.979434 L 37.068811,17.246167 C 37.068811,17.246167 37.088388,32 37.088388,32 L 22.160133,31.978069 C 22.160133,31.978069 26.997745,27.140456 26.997745,27.140456 C 18.528582,18.264221 13.291696,25.230495 11.500037,31.436501 z"
     style="fill:#404040;"/>
  </a>
 </g>
</svg>

<style type='text/css'>
<![CDATA[
[data-mouse-over-selected='false'] { opacity: 0.7; }
[data-mouse-over-selected='true']  { opacity: 1.0; }
]]>
</style>
<script type="application/ecmascript"><![CDATA[
document.addEventListener('DOMContentLoaded', (event) => {
  highlightEdges();
  highlightAdjacentNodes();
});
]]></script>
</svg>
